<?xml version="1.0"?>
<svg version="1.1" xmlns="http://www.w3.org/2000/svg" viewBox="0 0 400 100" role="img" aria-label="The University of Iowa College of Liberal Arts&#13; and Sciences"><path fill="#000000" d="M54.9,43.73H53.17V56.19H54.9v4.54H45.39V56.19h1.73V43.73H45.39V39.27H54.9Z"/><path fill="#000000" d="M67.68,60.73H60.79c-2.5,0-4.14-1.64-4.14-4.33V43.59a4,4,0,0,1,3.66-4.31,3.85,3.85,0,0,1,.48,0h6.89c2.5,0,4.13,1.67,4.13,4.32V56.37a4,4,0,0,1-3.62,4.35A4.34,4.34,0,0,1,67.68,60.73Zm-2-4.51V43.73h-3V56.19Z"/><path fill="#000000" d="M74.52,43.74H73V39.28h9v4.46H80.3l1.55,10.31,3.21-14.79h4.57l3.43,14.79,1.25-10.31H92.74V39.28h8.89v4.46h-1.48l-2.69,17H90.21L87.4,48.08,84.52,60.74h-7Z"/><path fill="#000000" d="M100.06,56.19h1.63l3.25-16.92h9.72l3.21,16.92h1.52v4.54h-7.26l-.68-5.22h-3.61l-.65,5.22h-7.13Zm11-4.63-1.39-8.65-1.42,8.65Z"/><path fill="#000000" d="M135.81028125,46.37459375C135.76601171875,46.98657421875,135.54009765625,47.46834375,135.132546875,47.81990625C134.72499609375,48.17146875,134.18788671875,48.34725,133.52121875,48.34725C132.79205078125,48.34725,132.218484375,48.10180859375,131.800515625,47.610921875C131.382546875,47.12003515625,131.1735625,46.44620703125,131.1735625,45.5894375C131.1735625,45.5894375,131.1735625,45.24178125,131.1735625,45.24178125C131.1735625,44.69490625,131.26991796875,44.21313671875,131.462625,43.79646875C131.65533203125,43.37980078125,131.93072265625,43.060140625,132.288796875,42.837484375C132.64687109375,42.614828125,133.06288671875,42.5035,133.53684375,42.5035C134.19309375,42.5035,134.72173828125,42.67928125,135.12278125,43.03084375C135.52382421875,43.38240625,135.75559375,43.87589453125,135.81809375,44.5113125C135.81809375,44.5113125,134.64621875,44.5113125,134.64621875,44.5113125C134.61757421875,44.144125,134.515359375,43.87784765625,134.339578125,43.712484375C134.163796875,43.54712109375,133.89621875,43.4644375,133.53684375,43.4644375C133.14621875,43.4644375,132.85390234375,43.60441015625,132.659890625,43.884359375C132.46587890625,44.16430859375,132.36626953125,44.59855078125,132.3610625,45.18709375C132.3610625,45.18709375,132.3610625,45.61678125,132.3610625,45.61678125C132.3610625,46.23136328125,132.45416015625,46.68058203125,132.640359375,46.9644375C132.82655859375,47.24829296875,133.12017578125,47.39021875,133.52121875,47.39021875C133.88319921875,47.39021875,134.15337890625,47.30753515625,134.331765625,47.142171875C134.51015234375,46.97680859375,134.61236328125,46.72094921875,134.63840625,46.37459375C134.63840625,46.37459375,135.81028125,46.37459375,135.81028125,46.37459375Z M136.3298125,46.11678125C136.3298125,45.69751171875,136.41054296875,45.3238125,136.572,44.9956875C136.73345703125,44.6675625,136.96587890625,44.41365625,137.269265625,44.23396875C137.57265234375,44.05428125,137.92486328125,43.9644375,138.32590625,43.9644375C138.89621875,43.9644375,139.36171484375,44.13891796875,139.722390625,44.487875C140.08306640625,44.83683203125,140.28423828125,45.31079296875,140.32590625,45.90975C140.32590625,45.90975,140.33371875,46.1988125,140.33371875,46.1988125C140.33371875,46.84725,140.15273046875,47.36743359375,139.79075,47.759359375C139.42876953125,48.15128515625,138.94309375,48.34725,138.33371875,48.34725C137.72434375,48.34725,137.238015625,48.1519375,136.874734375,47.7613125C136.511453125,47.3706875,136.3298125,46.8394375,136.3298125,46.1675625C136.3298125,46.1675625,136.3298125,46.11678125,136.3298125,46.11678125Z M137.45871875,46.1988125C137.45871875,46.59985546875,137.53423828125,46.90649609375,137.68528125,47.118734375C137.83632421875,47.33097265625,138.05246875,47.43709375,138.33371875,47.43709375C138.60715625,47.43709375,138.82069921875,47.33227734375,138.97434375,47.122640625C139.12798828125,46.91300390625,139.2048125,46.57771875,139.2048125,46.11678125C139.2048125,45.72355078125,139.12798828125,45.41886328125,138.97434375,45.20271875C138.82069921875,44.98657421875,138.60455078125,44.8785,138.32590625,44.8785C138.04986328125,44.8785,137.83632421875,44.985921875,137.68528125,45.200765625C137.53423828125,45.415609375,137.45871875,45.74829296875,137.45871875,46.1988125Z M142.2204375,48.269125C142.2204375,48.269125,141.087625,48.269125,141.087625,48.269125C141.087625,48.269125,141.087625,42.269125,141.087625,42.269125C141.087625,42.269125,142.2204375,42.269125,142.2204375,42.269125C142.2204375,42.269125,142.2204375,48.269125,142.2204375,48.269125Z M144.34153125,48.269125C144.34153125,48.269125,143.20871875,48.269125,143.20871875,48.269125C143.20871875,48.269125,143.20871875,42.269125,143.20871875,42.269125C143.20871875,42.269125,144.34153125,42.269125,144.34153125,42.269125C144.34153125,42.269125,144.34153125,48.269125,144.34153125,48.269125Z M147.21653125,48.34725C146.59673828125,48.34725,146.09218359375,48.15714453125,145.702859375,47.7769375C145.31353515625,47.39673046875,145.118875,46.89021875,145.118875,46.25740625C145.118875,46.25740625,145.118875,46.14803125,145.118875,46.14803125C145.118875,45.72355078125,145.20090625,45.34399609375,145.36496875,45.009359375C145.52903125,44.67472265625,145.761453125,44.41691015625,146.062234375,44.235921875C146.363015625,44.05493359375,146.70611328125,43.9644375,147.09153125,43.9644375C147.66965625,43.9644375,148.124734375,44.14673046875,148.456765625,44.5113125C148.788796875,44.87589453125,148.9548125,45.39282421875,148.9548125,46.06209375C148.9548125,46.06209375,148.9548125,46.52303125,148.9548125,46.52303125C148.9548125,46.52303125,146.26340625,46.52303125,146.26340625,46.52303125C146.29986328125,46.79907421875,146.409890625,47.02042578125,146.593484375,47.18709375C146.777078125,47.35376171875,147.0095,47.43709375,147.29075,47.43709375C147.72564453125,47.43709375,148.06548828125,47.27954296875,148.31028125,46.9644375C148.31028125,46.9644375,148.86496875,47.58553125,148.86496875,47.58553125C148.69569921875,47.82511328125,148.46653125,48.01196484375,148.17746875,48.146078125C147.88840625,48.28019140625,147.56809375,48.34725,147.21653125,48.34725Z M147.087625,44.8785C146.86366796875,44.8785,146.68202734375,44.95401953125,146.542703125,45.1050625C146.40337890625,45.25610546875,146.3141875,45.47225,146.275125,45.7535C146.275125,45.7535,147.8454375,45.7535,147.8454375,45.7535C147.8454375,45.7535,147.8454375,45.66365625,147.8454375,45.66365625C147.84023046875,45.41365625,147.77251953125,45.220296875,147.6423125,45.083578125C147.51210546875,44.946859375,147.32720703125,44.8785,147.087625,44.8785Z M149.5485625,46.12459375C149.5485625,45.47615625,149.702859375,44.95401953125,150.011453125,44.5581875C150.320046875,44.16235546875,150.7360625,43.9644375,151.2595,43.9644375C151.72304296875,43.9644375,152.08371875,44.12329296875,152.34153125,44.441C152.34153125,44.441,152.38840625,44.0425625,152.38840625,44.0425625C152.38840625,44.0425625,153.41184375,44.0425625,153.41184375,44.0425625C153.41184375,44.0425625,153.41184375,48.1285,153.41184375,48.1285C153.41184375,48.49829296875,153.327859375,48.81990625,153.159890625,49.09334375C152.991921875,49.36678125,152.75559375,49.57511328125,152.45090625,49.71834375C152.14621875,49.86157421875,151.78944921875,49.9331875,151.38059375,49.9331875C151.07069921875,49.9331875,150.76861328125,49.87133984375,150.47434375,49.747640625C150.18007421875,49.62394140625,149.95741796875,49.4644375,149.806375,49.269125C149.806375,49.269125,150.306375,48.581625,150.306375,48.581625C150.587625,48.89673046875,150.92876953125,49.05428125,151.3298125,49.05428125C151.62929296875,49.05428125,151.86236328125,48.974203125,152.02903125,48.814046875C152.19569921875,48.653890625,152.27903125,48.42667578125,152.27903125,48.13240625C152.27903125,48.13240625,152.27903125,47.90584375,152.27903125,47.90584375C152.01861328125,48.20011328125,151.67616796875,48.34725,151.2516875,48.34725C150.743875,48.34725,150.33306640625,48.14868359375,150.019265625,47.751546875C149.70546484375,47.35441015625,149.5485625,46.82771875,149.5485625,46.17146875C149.5485625,46.17146875,149.5485625,46.12459375,149.5485625,46.12459375Z M150.67746875,46.206625C150.67746875,46.5894375,150.75429296875,46.88956640625,150.9079375,47.107015625C151.06158203125,47.32446484375,151.27251953125,47.4331875,151.54075,47.4331875C151.8845,47.4331875,152.13059375,47.30428125,152.27903125,47.04646875C152.27903125,47.04646875,152.27903125,45.269125,152.27903125,45.269125C152.12798828125,45.0113125,151.8845,44.88240625,151.5485625,44.88240625C151.27773046875,44.88240625,151.06483984375,44.99308203125,150.909890625,45.2144375C150.75494140625,45.43579296875,150.67746875,45.76651953125,150.67746875,46.206625Z M156.22434375,48.34725C155.60455078125,48.34725,155.09999609375,48.15714453125,154.710671875,47.7769375C154.32134765625,47.39673046875,154.1266875,46.89021875,154.1266875,46.25740625C154.1266875,46.25740625,154.1266875,46.14803125,154.1266875,46.14803125C154.1266875,45.72355078125,154.20871875,45.34399609375,154.37278125,45.009359375C154.53684375,44.67472265625,154.769265625,44.41691015625,155.070046875,44.235921875C155.370828125,44.05493359375,155.71392578125,43.9644375,156.09934375,43.9644375C156.67746875,43.9644375,157.132546875,44.14673046875,157.464578125,44.5113125C157.796609375,44.87589453125,157.962625,45.39282421875,157.962625,46.06209375C157.962625,46.06209375,157.962625,46.52303125,157.962625,46.52303125C157.962625,46.52303125,155.27121875,46.52303125,155.27121875,46.52303125C155.30767578125,46.79907421875,155.417703125,47.02042578125,155.601296875,47.18709375C155.784890625,47.35376171875,156.0173125,47.43709375,156.2985625,47.43709375C156.73345703125,47.43709375,157.07330078125,47.27954296875,157.31809375,46.9644375C157.31809375,46.9644375,157.87278125,47.58553125,157.87278125,47.58553125C157.70351171875,47.82511328125,157.47434375,48.01196484375,157.18528125,48.146078125C156.89621875,48.28019140625,156.57590625,48.34725,156.22434375,48.34725Z M156.0954375,44.8785C155.87148046875,44.8785,155.68983984375,44.95401953125,155.550515625,45.1050625C155.41119140625,45.25610546875,155.322,45.47225,155.2829375,45.7535C155.2829375,45.7535,156.85325,45.7535,156.85325,45.7535C156.85325,45.7535,156.85325,45.66365625,156.85325,45.66365625C156.84804296875,45.41365625,156.78033203125,45.220296875,156.650125,45.083578125C156.51991796875,44.946859375,156.33501953125,44.8785,156.0954375,44.8785Z M157.77903125,48.269125Z M160.41965625,46.11678125C160.41965625,45.69751171875,160.50038671875,45.3238125,160.66184375,44.9956875C160.82330078125,44.6675625,161.05572265625,44.41365625,161.359109375,44.23396875C161.66249609375,44.05428125,162.01470703125,43.9644375,162.41575,43.9644375C162.9860625,43.9644375,163.45155859375,44.13891796875,163.812234375,44.487875C164.17291015625,44.83683203125,164.37408203125,45.31079296875,164.41575,45.90975C164.41575,45.90975,164.4235625,46.1988125,164.4235625,46.1988125C164.4235625,46.84725,164.24257421875,47.36743359375,163.88059375,47.759359375C163.51861328125,48.15128515625,163.0329375,48.34725,162.4235625,48.34725C161.8141875,48.34725,161.327859375,48.1519375,160.964578125,47.7613125C160.601296875,47.3706875,160.41965625,46.8394375,160.41965625,46.1675625C160.41965625,46.1675625,160.41965625,46.11678125,160.41965625,46.11678125Z M161.5485625,46.1988125C161.5485625,46.59985546875,161.62408203125,46.90649609375,161.775125,47.118734375C161.92616796875,47.33097265625,162.1423125,47.43709375,162.4235625,47.43709375C162.697,47.43709375,162.91054296875,47.33227734375,163.0641875,47.122640625C163.21783203125,46.91300390625,163.29465625,46.57771875,163.29465625,46.11678125C163.29465625,45.72355078125,163.21783203125,45.41886328125,163.0641875,45.20271875C162.91054296875,44.98657421875,162.69439453125,44.8785,162.41575,44.8785C162.13970703125,44.8785,161.92616796875,44.985921875,161.775125,45.200765625C161.62408203125,45.415609375,161.5485625,45.74829296875,161.5485625,46.1988125Z M165.42746875,48.269125C165.42746875,48.269125,165.42746875,44.8706875,165.42746875,44.8706875C165.42746875,44.8706875,164.7985625,44.8706875,164.7985625,44.8706875C164.7985625,44.8706875,164.7985625,44.0425625,164.7985625,44.0425625C164.7985625,44.0425625,165.42746875,44.0425625,165.42746875,44.0425625C165.42746875,44.0425625,165.42746875,43.6831875,165.42746875,43.6831875C165.42746875,43.20923046875,165.56353515625,42.841390625,165.835671875,42.579671875C166.10780859375,42.317953125,166.48866796875,42.18709375,166.97825,42.18709375C167.1345,42.18709375,167.32590625,42.21313671875,167.55246875,42.26521875C167.55246875,42.26521875,167.54075,43.14021875,167.54075,43.14021875C167.447,43.11678125,167.33241796875,43.1050625,167.197,43.1050625C166.77251953125,43.1050625,166.56028125,43.30428125,166.56028125,43.70271875C166.56028125,43.70271875,166.56028125,44.0425625,166.56028125,44.0425625C166.56028125,44.0425625,167.400125,44.0425625,167.400125,44.0425625C167.400125,44.0425625,167.400125,44.8706875,167.400125,44.8706875C167.400125,44.8706875,166.56028125,44.8706875,166.56028125,44.8706875C166.56028125,44.8706875,166.56028125,48.269125,166.56028125,48.269125C166.56028125,48.269125,165.42746875,48.269125,165.42746875,48.269125Z M167.16184375,48.269125Z M171.22434375,47.32771875C171.22434375,47.32771875,173.712625,47.32771875,173.712625,47.32771875C173.712625,47.32771875,173.712625,48.269125,173.712625,48.269125C173.712625,48.269125,170.05246875,48.269125,170.05246875,48.269125C170.05246875,48.269125,170.05246875,42.581625,170.05246875,42.581625C170.05246875,42.581625,171.22434375,42.581625,171.22434375,42.581625C171.22434375,42.581625,171.22434375,47.32771875,171.22434375,47.32771875Z M175.5016875,48.269125C175.5016875,48.269125,174.368875,48.269125,174.368875,48.269125C174.368875,48.269125,174.368875,44.0425625,174.368875,44.0425625C174.368875,44.0425625,175.5016875,44.0425625,175.5016875,44.0425625C175.5016875,44.0425625,175.5016875,48.269125,175.5016875,48.269125Z M174.30246875,42.9488125C174.30246875,42.77954296875,174.359109375,42.64021875,174.472390625,42.53084375C174.585671875,42.42146875,174.73996875,42.36678125,174.93528125,42.36678125C175.12798828125,42.36678125,175.28163671875,42.42146875,175.39621875,42.53084375C175.51080078125,42.64021875,175.56809375,42.77954296875,175.56809375,42.9488125C175.56809375,43.1206875,175.51015234375,43.2613125,175.394265625,43.3706875C175.27837890625,43.4800625,175.12538671875,43.53475,174.93528125,43.53475C174.74517578125,43.53475,174.59218359375,43.4800625,174.476296875,43.3706875C174.36041015625,43.2613125,174.30246875,43.1206875,174.30246875,42.9488125Z M180.23996875,46.19490625C180.23996875,46.87198828125,180.0954375,47.399984375,179.806375,47.778890625C179.5173125,48.157796875,179.11366796875,48.34725,178.5954375,48.34725C178.13710546875,48.34725,177.77121875,48.17146875,177.49778125,47.81990625C177.49778125,47.81990625,177.447,48.269125,177.447,48.269125C177.447,48.269125,176.431375,48.269125,176.431375,48.269125C176.431375,48.269125,176.431375,42.269125,176.431375,42.269125C176.431375,42.269125,177.56028125,42.269125,177.56028125,42.269125C177.56028125,42.269125,177.56028125,44.42146875,177.56028125,44.42146875C177.82069921875,44.11678125,178.16314453125,43.9644375,178.587625,43.9644375C179.10325,43.9644375,179.507546875,44.153890625,179.800515625,44.532796875C180.093484375,44.911703125,180.23996875,45.44490625,180.23996875,46.13240625C180.23996875,46.13240625,180.23996875,46.19490625,180.23996875,46.19490625Z M179.1110625,46.112875C179.1110625,45.68579296875,179.04335546875,45.37394140625,178.9079375,45.177328125C178.77251953125,44.98071484375,178.57069921875,44.88240625,178.30246875,44.88240625C177.94309375,44.88240625,177.69569921875,45.02954296875,177.56028125,45.3238125C177.56028125,45.3238125,177.56028125,46.99178125,177.56028125,46.99178125C177.69830078125,47.28865625,177.94830078125,47.43709375,178.31028125,47.43709375C178.67486328125,47.43709375,178.91444921875,47.25740625,179.02903125,46.89803125C179.08371875,46.72615625,179.1110625,46.4644375,179.1110625,46.112875Z M182.88059375,48.34725C182.26080078125,48.34725,181.75624609375,48.15714453125,181.366921875,47.7769375C180.97759765625,47.39673046875,180.7829375,46.89021875,180.7829375,46.25740625C180.7829375,46.25740625,180.7829375,46.14803125,180.7829375,46.14803125C180.7829375,45.72355078125,180.86496875,45.34399609375,181.02903125,45.009359375C181.19309375,44.67472265625,181.425515625,44.41691015625,181.726296875,44.235921875C182.027078125,44.05493359375,182.37017578125,43.9644375,182.75559375,43.9644375C183.33371875,43.9644375,183.788796875,44.14673046875,184.120828125,44.5113125C184.452859375,44.87589453125,184.618875,45.39282421875,184.618875,46.06209375C184.618875,46.06209375,184.618875,46.52303125,184.618875,46.52303125C184.618875,46.52303125,181.92746875,46.52303125,181.92746875,46.52303125C181.96392578125,46.79907421875,182.073953125,47.02042578125,182.257546875,47.18709375C182.441140625,47.35376171875,182.6735625,47.43709375,182.9548125,47.43709375C183.38970703125,47.43709375,183.72955078125,47.27954296875,183.97434375,46.9644375C183.97434375,46.9644375,184.52903125,47.58553125,184.52903125,47.58553125C184.35976171875,47.82511328125,184.13059375,48.01196484375,183.84153125,48.146078125C183.55246875,48.28019140625,183.23215625,48.34725,182.88059375,48.34725Z M182.7516875,44.8785C182.52773046875,44.8785,182.34608984375,44.95401953125,182.206765625,45.1050625C182.06744140625,45.25610546875,181.97825,45.47225,181.9391875,45.7535C181.9391875,45.7535,183.5095,45.7535,183.5095,45.7535C183.5095,45.7535,183.5095,45.66365625,183.5095,45.66365625C183.50429296875,45.41365625,183.43658203125,45.220296875,183.306375,45.083578125C183.17616796875,44.946859375,182.99126953125,44.8785,182.7516875,44.8785Z M187.6345,45.10115625C187.48085546875,45.08032421875,187.3454375,45.06990625,187.22825,45.06990625C186.80116796875,45.06990625,186.52121875,45.2144375,186.38840625,45.5035C186.38840625,45.5035,186.38840625,48.269125,186.38840625,48.269125C186.38840625,48.269125,185.2595,48.269125,185.2595,48.269125C185.2595,48.269125,185.2595,44.0425625,185.2595,44.0425625C185.2595,44.0425625,186.32590625,44.0425625,186.32590625,44.0425625C186.32590625,44.0425625,186.35715625,44.54646875,186.35715625,44.54646875C186.58371875,44.15844921875,186.89751953125,43.9644375,187.2985625,43.9644375C187.4235625,43.9644375,187.54075,43.98136328125,187.650125,44.01521875C187.650125,44.01521875,187.6345,45.10115625,187.6345,45.10115625Z M190.650125,48.269125C190.59804296875,48.1675625,190.56028125,48.04126171875,190.53684375,47.89021875C190.26340625,48.19490625,189.9079375,48.34725,189.4704375,48.34725C189.056375,48.34725,188.71327734375,48.22745703125,188.441140625,47.987875C188.16900390625,47.74829296875,188.0329375,47.44620703125,188.0329375,47.081625C188.0329375,46.63370703125,188.198953125,46.28995703125,188.530984375,46.050375C188.863015625,45.81079296875,189.34283203125,45.68969921875,189.9704375,45.68709375C189.9704375,45.68709375,190.48996875,45.68709375,190.48996875,45.68709375C190.48996875,45.68709375,190.48996875,45.44490625,190.48996875,45.44490625C190.48996875,45.24959375,190.43983984375,45.09334375,190.339578125,44.97615625C190.23931640625,44.85896875,190.08111328125,44.800375,189.86496875,44.800375C189.67486328125,44.800375,189.52577734375,44.84594921875,189.417703125,44.93709375C189.30962890625,45.02823828125,189.25559375,45.15323828125,189.25559375,45.31209375C189.25559375,45.31209375,188.1266875,45.31209375,188.1266875,45.31209375C188.1266875,45.06730078125,188.20220703125,44.84073828125,188.35325,44.63240625C188.50429296875,44.42407421875,188.71783203125,44.26066015625,188.993875,44.142171875C189.26991796875,44.02368359375,189.5798125,43.9644375,189.9235625,43.9644375C190.44439453125,43.9644375,190.85780859375,44.095296875,191.163796875,44.357015625C191.46978515625,44.618734375,191.62278125,44.98657421875,191.62278125,45.46053125C191.62278125,45.46053125,191.62278125,47.2925625,191.62278125,47.2925625C191.62538671875,47.69360546875,191.681375,47.99698828125,191.79075,48.20271875C191.79075,48.20271875,191.79075,48.269125,191.79075,48.269125C191.79075,48.269125,190.650125,48.269125,190.650125,48.269125Z M189.71653125,47.48396875C189.88319921875,47.48396875,190.03684375,47.446859375,190.17746875,47.372640625C190.31809375,47.298421875,190.42226171875,47.1988125,190.48996875,47.0738125C190.48996875,47.0738125,190.48996875,46.34725,190.48996875,46.34725C190.48996875,46.34725,190.06809375,46.34725,190.06809375,46.34725C189.50298828125,46.34725,189.20220703125,46.5425625,189.16575,46.9331875C189.16575,46.9331875,189.16184375,46.99959375,189.16184375,46.99959375C189.16184375,47.14021875,189.21132421875,47.25610546875,189.31028125,47.34725C189.40923828125,47.43839453125,189.54465625,47.48396875,189.71653125,47.48396875Z M193.572,48.269125C193.572,48.269125,192.4391875,48.269125,192.4391875,48.269125C192.4391875,48.269125,192.4391875,42.269125,192.4391875,42.269125C192.4391875,42.269125,193.572,42.269125,193.572,42.269125C193.572,42.269125,193.572,48.269125,193.572,48.269125Z M193.67746875,48.269125Z M199.77903125,47.09725C199.77903125,47.09725,197.72434375,47.09725,197.72434375,47.09725C197.72434375,47.09725,197.33371875,48.269125,197.33371875,48.269125C197.33371875,48.269125,196.087625,48.269125,196.087625,48.269125C196.087625,48.269125,198.2048125,42.581625,198.2048125,42.581625C198.2048125,42.581625,199.29075,42.581625,199.29075,42.581625C199.29075,42.581625,201.41965625,48.269125,201.41965625,48.269125C201.41965625,48.269125,200.1735625,48.269125,200.1735625,48.269125C200.1735625,48.269125,199.77903125,47.09725,199.77903125,47.09725Z M198.04075,46.14803125C198.04075,46.14803125,199.462625,46.14803125,199.462625,46.14803125C199.462625,46.14803125,198.74778125,44.019125,198.74778125,44.019125C198.74778125,44.019125,198.04075,46.14803125,198.04075,46.14803125Z M204.2516875,45.10115625C204.09804296875,45.08032421875,203.962625,45.06990625,203.8454375,45.06990625C203.41835546875,45.06990625,203.13840625,45.2144375,203.00559375,45.5035C203.00559375,45.5035,203.00559375,48.269125,203.00559375,48.269125C203.00559375,48.269125,201.8766875,48.269125,201.8766875,48.269125C201.8766875,48.269125,201.8766875,44.0425625,201.8766875,44.0425625C201.8766875,44.0425625,202.94309375,44.0425625,202.94309375,44.0425625C202.94309375,44.0425625,202.97434375,44.54646875,202.97434375,44.54646875C203.20090625,44.15844921875,203.51470703125,43.9644375,203.91575,43.9644375C204.04075,43.9644375,204.1579375,43.98136328125,204.2673125,44.01521875C204.2673125,44.01521875,204.2516875,45.10115625,204.2516875,45.10115625Z M206.54075,43.0035C206.54075,43.0035,206.54075,44.0425625,206.54075,44.0425625C206.54075,44.0425625,207.26340625,44.0425625,207.26340625,44.0425625C207.26340625,44.0425625,207.26340625,44.8706875,207.26340625,44.8706875C207.26340625,44.8706875,206.54075,44.8706875,206.54075,44.8706875C206.54075,44.8706875,206.54075,46.9800625,206.54075,46.9800625C206.54075,47.1363125,206.57069921875,47.24829296875,206.63059375,47.316C206.69048828125,47.38370703125,206.80507421875,47.4175625,206.97434375,47.4175625C207.09934375,47.4175625,207.21001953125,47.40844921875,207.306375,47.39021875C207.306375,47.39021875,207.306375,48.2456875,207.306375,48.2456875C207.08501953125,48.31339453125,206.85715625,48.34725,206.62278125,48.34725C205.83111328125,48.34725,205.42746875,47.94751171875,205.41184375,47.14803125C205.41184375,47.14803125,205.41184375,44.8706875,205.41184375,44.8706875C205.41184375,44.8706875,204.79465625,44.8706875,204.79465625,44.8706875C204.79465625,44.8706875,204.79465625,44.0425625,204.79465625,44.0425625C204.79465625,44.0425625,205.41184375,44.0425625,205.41184375,44.0425625C205.41184375,44.0425625,205.41184375,43.0035,205.41184375,43.0035C205.41184375,43.0035,206.54075,43.0035,206.54075,43.0035Z M210.181375,47.10115625C210.181375,46.96313671875,210.113015625,46.85441015625,209.976296875,46.774984375C209.839578125,46.69555859375,209.62017578125,46.62459375,209.31809375,46.56209375C208.31288671875,46.35115625,207.81028125,45.92407421875,207.81028125,45.28084375C207.81028125,44.90584375,207.96587890625,44.59269140625,208.277078125,44.341390625C208.58827734375,44.09008984375,208.99517578125,43.9644375,209.49778125,43.9644375C210.03423828125,43.9644375,210.46327734375,44.09073828125,210.784890625,44.34334375C211.10650390625,44.59594921875,211.2673125,44.92407421875,211.2673125,45.32771875C211.2673125,45.32771875,210.13840625,45.32771875,210.13840625,45.32771875C210.13840625,45.16626171875,210.08632421875,45.032796875,209.98215625,44.927328125C209.87798828125,44.821859375,209.71523046875,44.769125,209.493875,44.769125C209.30376953125,44.769125,209.15663671875,44.81209375,209.05246875,44.89803125C208.94830078125,44.98396875,208.89621875,45.09334375,208.89621875,45.22615625C208.89621875,45.35115625,208.95546484375,45.45206640625,209.073953125,45.528890625C209.19244140625,45.60571484375,209.3923125,45.67212109375,209.6735625,45.728109375C209.9548125,45.78409765625,210.19179296875,45.84725,210.3845,45.9175625C210.98085546875,46.1363125,211.27903125,46.51521875,211.27903125,47.05428125C211.27903125,47.43969921875,211.11366796875,47.751546875,210.7829375,47.989828125C210.45220703125,48.228109375,210.025125,48.34725,209.5016875,48.34725C209.14751953125,48.34725,208.83306640625,48.28409765625,208.558328125,48.157796875C208.28358984375,48.03149609375,208.06809375,47.85831640625,207.91184375,47.638265625C207.75559375,47.41821484375,207.67746875,47.18058203125,207.67746875,46.925375C207.67746875,46.925375,208.74778125,46.925375,208.74778125,46.925375C208.75819921875,47.12589453125,208.83241796875,47.27954296875,208.9704375,47.3863125C209.10845703125,47.49308203125,209.29335546875,47.54646875,209.525125,47.54646875C209.74126953125,47.54646875,209.90468359375,47.505453125,210.015359375,47.423421875C210.12603515625,47.341390625,210.181375,47.23396875,210.181375,47.10115625Z"/><path fill="#000000" d="M133.7204375,57.763375C133.66835546875,57.6618125,133.63059375,57.53551171875,133.60715625,57.38446875C133.33371875,57.68915625,132.97825,57.8415,132.54075,57.8415C132.1266875,57.8415,131.78358984375,57.72170703125,131.511453125,57.482125C131.23931640625,57.24254296875,131.10325,56.94045703125,131.10325,56.575875C131.10325,56.12795703125,131.269265625,55.78420703125,131.601296875,55.544625C131.933328125,55.30504296875,132.41314453125,55.18394921875,133.04075,55.18134375C133.04075,55.18134375,133.56028125,55.18134375,133.56028125,55.18134375C133.56028125,55.18134375,133.56028125,54.93915625,133.56028125,54.93915625C133.56028125,54.74384375,133.51015234375,54.58759375,133.409890625,54.47040625C133.30962890625,54.35321875,133.15142578125,54.294625,132.93528125,54.294625C132.74517578125,54.294625,132.59608984375,54.34019921875,132.488015625,54.43134375C132.37994140625,54.52248828125,132.32590625,54.64748828125,132.32590625,54.80634375C132.32590625,54.80634375,131.197,54.80634375,131.197,54.80634375C131.197,54.56155078125,131.27251953125,54.33498828125,131.4235625,54.12665625C131.57460546875,53.91832421875,131.78814453125,53.75491015625,132.0641875,53.636421875C132.34023046875,53.51793359375,132.650125,53.4586875,132.993875,53.4586875C133.51470703125,53.4586875,133.92812109375,53.589546875,134.234109375,53.851265625C134.54009765625,54.112984375,134.69309375,54.48082421875,134.69309375,54.95478125C134.69309375,54.95478125,134.69309375,56.7868125,134.69309375,56.7868125C134.69569921875,57.18785546875,134.7516875,57.49123828125,134.8610625,57.69696875C134.8610625,57.69696875,134.8610625,57.763375,134.8610625,57.763375C134.8610625,57.763375,133.7204375,57.763375,133.7204375,57.763375Z M132.78684375,56.97821875C132.95351171875,56.97821875,133.10715625,56.941109375,133.24778125,56.866890625C133.38840625,56.792671875,133.49257421875,56.6930625,133.56028125,56.5680625C133.56028125,56.5680625,133.56028125,55.8415,133.56028125,55.8415C133.56028125,55.8415,133.13840625,55.8415,133.13840625,55.8415C132.57330078125,55.8415,132.27251953125,56.0368125,132.2360625,56.4274375C132.2360625,56.4274375,132.23215625,56.49384375,132.23215625,56.49384375C132.23215625,56.63446875,132.28163671875,56.75035546875,132.38059375,56.8415C132.47955078125,56.93264453125,132.61496875,56.97821875,132.78684375,56.97821875Z M136.64621875,53.5368125C136.64621875,53.5368125,136.681375,54.02509375,136.681375,54.02509375C136.98345703125,53.64748828125,137.38840625,53.4586875,137.89621875,53.4586875C138.34413671875,53.4586875,138.67746875,53.59019921875,138.89621875,53.85321875C139.11496875,54.11623828125,139.22694921875,54.50946875,139.23215625,55.03290625C139.23215625,55.03290625,139.23215625,57.763375,139.23215625,57.763375C139.23215625,57.763375,138.10325,57.763375,138.10325,57.763375C138.10325,57.763375,138.10325,55.06025,138.10325,55.06025C138.10325,54.82066796875,138.05116796875,54.64683984375,137.947,54.538765625C137.84283203125,54.43069140625,137.66965625,54.37665625,137.42746875,54.37665625C137.10976171875,54.37665625,136.87148046875,54.51207421875,136.712625,54.78290625C136.712625,54.78290625,136.712625,57.763375,136.712625,57.763375C136.712625,57.763375,135.58371875,57.763375,135.58371875,57.763375C135.58371875,57.763375,135.58371875,53.5368125,135.58371875,53.5368125C135.58371875,53.5368125,136.64621875,53.5368125,136.64621875,53.5368125Z M139.91184375,55.61884375C139.91184375,54.95998828125,140.05962890625,54.43525,140.355203125,54.044625C140.65077734375,53.654,141.05507421875,53.4586875,141.56809375,53.4586875C141.97955078125,53.4586875,142.31939453125,53.61233203125,142.587625,53.919625C142.587625,53.919625,142.587625,51.763375,142.587625,51.763375C142.587625,51.763375,143.7204375,51.763375,143.7204375,51.763375C143.7204375,51.763375,143.7204375,57.763375,143.7204375,57.763375C143.7204375,57.763375,142.70090625,57.763375,142.70090625,57.763375C142.70090625,57.763375,142.64621875,57.31415625,142.64621875,57.31415625C142.36496875,57.66571875,142.00298828125,57.8415,141.56028125,57.8415C141.06288671875,57.8415,140.663796875,57.64553515625,140.363015625,57.253609375C140.062234375,56.86168359375,139.91184375,56.31676171875,139.91184375,55.61884375Z M141.04075,55.700875C141.04075,56.09670703125,141.10976171875,56.40009375,141.24778125,56.61103125C141.38580078125,56.82196875,141.58632421875,56.9274375,141.84934375,56.9274375C142.19830078125,56.9274375,142.44439453125,56.78030078125,142.587625,56.48603125C142.587625,56.48603125,142.587625,54.8180625,142.587625,54.8180625C142.447,54.52379296875,142.20351171875,54.37665625,141.85715625,54.37665625C141.31288671875,54.37665625,141.04075,54.8180625,141.04075,55.700875Z M143.77121875,57.763375Z M149.6110625,56.2711875C149.6110625,56.04983203125,149.5329375,55.87991015625,149.3766875,55.761421875C149.2204375,55.64293359375,148.9391875,55.51793359375,148.5329375,55.386421875C148.1266875,55.25491015625,147.80507421875,55.12535546875,147.56809375,54.99775C146.92226171875,54.64879296875,146.59934375,54.17873828125,146.59934375,53.58759375C146.59934375,53.28030078125,146.68593359375,53.00621484375,146.859109375,52.765328125C147.03228515625,52.52444140625,147.280984375,52.33629296875,147.605203125,52.200875C147.929421875,52.06545703125,148.29335546875,51.99775,148.697,51.99775C149.10325,51.99775,149.46523046875,52.07131640625,149.7829375,52.218453125C150.10064453125,52.36558984375,150.347390625,52.57326953125,150.523171875,52.8415C150.698953125,53.10973046875,150.78684375,53.41441796875,150.78684375,53.7555625C150.78684375,53.7555625,149.61496875,53.7555625,149.61496875,53.7555625C149.61496875,53.49514453125,149.5329375,53.292671875,149.368875,53.148140625C149.2048125,53.003609375,148.97434375,52.93134375,148.67746875,52.93134375C148.39101171875,52.93134375,148.16835546875,52.991890625,148.0095,53.112984375C147.85064453125,53.234078125,147.77121875,53.39358203125,147.77121875,53.5915C147.77121875,53.77639453125,147.86431640625,53.93134375,148.050515625,54.05634375C148.23671484375,54.18134375,148.51080078125,54.29853125,148.87278125,54.40790625C149.53944921875,54.60842578125,150.025125,54.857125,150.3298125,55.154C150.6345,55.450875,150.78684375,55.82066796875,150.78684375,56.263375C150.78684375,56.7555625,150.60064453125,57.14162890625,150.22825,57.421578125C149.85585546875,57.70152734375,149.35455078125,57.8415,148.72434375,57.8415C148.28684375,57.8415,147.88840625,57.761421875,147.52903125,57.601265625C147.16965625,57.441109375,146.89556640625,57.22170703125,146.706765625,56.9430625C146.51796484375,56.66441796875,146.4235625,56.3415,146.4235625,55.9743125C146.4235625,55.9743125,147.59934375,55.9743125,147.59934375,55.9743125C147.59934375,56.60191796875,147.97434375,56.91571875,148.72434375,56.91571875C149.00298828125,56.91571875,149.2204375,56.859078125,149.3766875,56.745796875C149.5329375,56.632515625,149.6110625,56.4743125,149.6110625,56.2711875Z M153.26340625,56.93134375C153.47173828125,56.93134375,153.64101171875,56.87405078125,153.77121875,56.75946875C153.90142578125,56.64488671875,153.96913671875,56.49254296875,153.97434375,56.3024375C153.97434375,56.3024375,155.0329375,56.3024375,155.0329375,56.3024375C155.03033203125,56.58889453125,154.95220703125,56.851265625,154.7985625,57.089546875C154.64491796875,57.327828125,154.43462890625,57.51272265625,154.167703125,57.644234375C153.90077734375,57.77574609375,153.60585546875,57.8415,153.2829375,57.8415C152.67876953125,57.8415,152.20220703125,57.64944140625,151.85325,57.265328125C151.50429296875,56.88121484375,151.3298125,56.35061328125,151.3298125,55.67353125C151.3298125,55.67353125,151.3298125,55.5993125,151.3298125,55.5993125C151.3298125,54.94826953125,151.50298828125,54.42873828125,151.84934375,54.04071875C152.19569921875,53.65269921875,152.67095703125,53.4586875,153.275125,53.4586875C153.80376953125,53.4586875,154.22759765625,53.609078125,154.546609375,53.909859375C154.86562109375,54.210640625,155.02773046875,54.61103125,155.0329375,55.11103125C155.0329375,55.11103125,153.97434375,55.11103125,153.97434375,55.11103125C153.96913671875,54.89228125,153.90142578125,54.714546875,153.77121875,54.577828125C153.64101171875,54.441109375,153.46913671875,54.37275,153.25559375,54.37275C152.99257421875,54.37275,152.79400390625,54.468453125,152.659890625,54.659859375C152.52577734375,54.851265625,152.45871875,55.1618125,152.45871875,55.5915C152.45871875,55.5915,152.45871875,55.7086875,152.45871875,55.7086875C152.45871875,56.14358203125,152.525125,56.45608203125,152.6579375,56.6461875C152.79075,56.83629296875,152.99257421875,56.93134375,153.26340625,56.93134375Z M156.868875,57.763375C156.868875,57.763375,155.7360625,57.763375,155.7360625,57.763375C155.7360625,57.763375,155.7360625,53.5368125,155.7360625,53.5368125C155.7360625,53.5368125,156.868875,53.5368125,156.868875,53.5368125C156.868875,53.5368125,156.868875,57.763375,156.868875,57.763375Z M155.66965625,52.4430625C155.66965625,52.27379296875,155.726296875,52.13446875,155.839578125,52.02509375C155.952859375,51.91571875,156.10715625,51.86103125,156.30246875,51.86103125C156.49517578125,51.86103125,156.64882421875,51.91571875,156.76340625,52.02509375C156.87798828125,52.13446875,156.93528125,52.27379296875,156.93528125,52.4430625C156.93528125,52.6149375,156.87733984375,52.7555625,156.761453125,52.8649375C156.64556640625,52.9743125,156.49257421875,53.029,156.30246875,53.029C156.11236328125,53.029,155.95937109375,52.9743125,155.843484375,52.8649375C155.72759765625,52.7555625,155.66965625,52.6149375,155.66965625,52.4430625Z M159.743875,57.8415C159.12408203125,57.8415,158.61952734375,57.65139453125,158.230203125,57.2711875C157.84087890625,56.89098046875,157.64621875,56.38446875,157.64621875,55.75165625C157.64621875,55.75165625,157.64621875,55.64228125,157.64621875,55.64228125C157.64621875,55.21780078125,157.72825,54.83824609375,157.8923125,54.503609375C158.056375,54.16897265625,158.288796875,53.91116015625,158.589578125,53.730171875C158.890359375,53.54918359375,159.23345703125,53.4586875,159.618875,53.4586875C160.197,53.4586875,160.652078125,53.64098046875,160.984109375,54.0055625C161.316140625,54.37014453125,161.48215625,54.88707421875,161.48215625,55.55634375C161.48215625,55.55634375,161.48215625,56.01728125,161.48215625,56.01728125C161.48215625,56.01728125,158.79075,56.01728125,158.79075,56.01728125C158.82720703125,56.29332421875,158.937234375,56.51467578125,159.120828125,56.68134375C159.304421875,56.84801171875,159.53684375,56.93134375,159.81809375,56.93134375C160.25298828125,56.93134375,160.59283203125,56.77379296875,160.837625,56.4586875C160.837625,56.4586875,161.3923125,57.07978125,161.3923125,57.07978125C161.22304296875,57.31936328125,160.993875,57.50621484375,160.7048125,57.640328125C160.41575,57.77444140625,160.0954375,57.8415,159.743875,57.8415Z M159.61496875,54.37275C159.39101171875,54.37275,159.20937109375,54.44826953125,159.070046875,54.5993125C158.93072265625,54.75035546875,158.84153125,54.9665,158.80246875,55.24775C158.80246875,55.24775,160.37278125,55.24775,160.37278125,55.24775C160.37278125,55.24775,160.37278125,55.15790625,160.37278125,55.15790625C160.36757421875,54.90790625,160.29986328125,54.714546875,160.16965625,54.577828125C160.03944921875,54.441109375,159.85455078125,54.37275,159.61496875,54.37275Z M163.16184375,53.5368125C163.16184375,53.5368125,163.197,54.02509375,163.197,54.02509375C163.49908203125,53.64748828125,163.90403125,53.4586875,164.41184375,53.4586875C164.85976171875,53.4586875,165.19309375,53.59019921875,165.41184375,53.85321875C165.63059375,54.11623828125,165.74257421875,54.50946875,165.74778125,55.03290625C165.74778125,55.03290625,165.74778125,57.763375,165.74778125,57.763375C165.74778125,57.763375,164.618875,57.763375,164.618875,57.763375C164.618875,57.763375,164.618875,55.06025,164.618875,55.06025C164.618875,54.82066796875,164.56679296875,54.64683984375,164.462625,54.538765625C164.35845703125,54.43069140625,164.18528125,54.37665625,163.94309375,54.37665625C163.62538671875,54.37665625,163.38710546875,54.51207421875,163.22825,54.78290625C163.22825,54.78290625,163.22825,57.763375,163.22825,57.763375C163.22825,57.763375,162.09934375,57.763375,162.09934375,57.763375C162.09934375,57.763375,162.09934375,53.5368125,162.09934375,53.5368125C162.09934375,53.5368125,163.16184375,53.5368125,163.16184375,53.5368125Z M168.3610625,56.93134375C168.56939453125,56.93134375,168.73866796875,56.87405078125,168.868875,56.75946875C168.99908203125,56.64488671875,169.06679296875,56.49254296875,169.072,56.3024375C169.072,56.3024375,170.13059375,56.3024375,170.13059375,56.3024375C170.12798828125,56.58889453125,170.04986328125,56.851265625,169.89621875,57.089546875C169.74257421875,57.327828125,169.53228515625,57.51272265625,169.265359375,57.644234375C168.99843359375,57.77574609375,168.70351171875,57.8415,168.38059375,57.8415C167.77642578125,57.8415,167.29986328125,57.64944140625,166.95090625,57.265328125C166.60194921875,56.88121484375,166.42746875,56.35061328125,166.42746875,55.67353125C166.42746875,55.67353125,166.42746875,55.5993125,166.42746875,55.5993125C166.42746875,54.94826953125,166.60064453125,54.42873828125,166.947,54.04071875C167.29335546875,53.65269921875,167.76861328125,53.4586875,168.37278125,53.4586875C168.90142578125,53.4586875,169.32525390625,53.609078125,169.644265625,53.909859375C169.96327734375,54.210640625,170.12538671875,54.61103125,170.13059375,55.11103125C170.13059375,55.11103125,169.072,55.11103125,169.072,55.11103125C169.06679296875,54.89228125,168.99908203125,54.714546875,168.868875,54.577828125C168.73866796875,54.441109375,168.56679296875,54.37275,168.35325,54.37275C168.09023046875,54.37275,167.89166015625,54.468453125,167.757546875,54.659859375C167.62343359375,54.851265625,167.556375,55.1618125,167.556375,55.5915C167.556375,55.5915,167.556375,55.7086875,167.556375,55.7086875C167.556375,56.14358203125,167.62278125,56.45608203125,167.75559375,56.6461875C167.88840625,56.83629296875,168.09023046875,56.93134375,168.3610625,56.93134375Z M172.7204375,57.8415C172.10064453125,57.8415,171.59608984375,57.65139453125,171.206765625,57.2711875C170.81744140625,56.89098046875,170.62278125,56.38446875,170.62278125,55.75165625C170.62278125,55.75165625,170.62278125,55.64228125,170.62278125,55.64228125C170.62278125,55.21780078125,170.7048125,54.83824609375,170.868875,54.503609375C171.0329375,54.16897265625,171.265359375,53.91116015625,171.566140625,53.730171875C171.866921875,53.54918359375,172.21001953125,53.4586875,172.5954375,53.4586875C173.1735625,53.4586875,173.628640625,53.64098046875,173.960671875,54.0055625C174.292703125,54.37014453125,174.45871875,54.88707421875,174.45871875,55.55634375C174.45871875,55.55634375,174.45871875,56.01728125,174.45871875,56.01728125C174.45871875,56.01728125,171.7673125,56.01728125,171.7673125,56.01728125C171.80376953125,56.29332421875,171.913796875,56.51467578125,172.097390625,56.68134375C172.280984375,56.84801171875,172.51340625,56.93134375,172.79465625,56.93134375C173.22955078125,56.93134375,173.56939453125,56.77379296875,173.8141875,56.4586875C173.8141875,56.4586875,174.368875,57.07978125,174.368875,57.07978125C174.19960546875,57.31936328125,173.9704375,57.50621484375,173.681375,57.640328125C173.3923125,57.77444140625,173.072,57.8415,172.7204375,57.8415Z M172.59153125,54.37275C172.36757421875,54.37275,172.18593359375,54.44826953125,172.046609375,54.5993125C171.90728515625,54.75035546875,171.81809375,54.9665,171.77903125,55.24775C171.77903125,55.24775,173.34934375,55.24775,173.34934375,55.24775C173.34934375,55.24775,173.34934375,55.15790625,173.34934375,55.15790625C173.34413671875,54.90790625,173.27642578125,54.714546875,173.14621875,54.577828125C173.01601171875,54.441109375,172.83111328125,54.37275,172.59153125,54.37275Z M177.38840625,56.59540625C177.38840625,56.45738671875,177.320046875,56.34866015625,177.183328125,56.269234375C177.046609375,56.18980859375,176.82720703125,56.11884375,176.525125,56.05634375C175.51991796875,55.84540625,175.0173125,55.41832421875,175.0173125,54.77509375C175.0173125,54.40009375,175.17291015625,54.08694140625,175.484109375,53.835640625C175.79530859375,53.58433984375,176.20220703125,53.4586875,176.7048125,53.4586875C177.24126953125,53.4586875,177.67030859375,53.58498828125,177.991921875,53.83759375C178.31353515625,54.09019921875,178.47434375,54.41832421875,178.47434375,54.82196875C178.47434375,54.82196875,177.3454375,54.82196875,177.3454375,54.82196875C177.3454375,54.66051171875,177.29335546875,54.527046875,177.1891875,54.421578125C177.08501953125,54.316109375,176.92226171875,54.263375,176.70090625,54.263375C176.51080078125,54.263375,176.36366796875,54.30634375,176.2595,54.39228125C176.15533203125,54.47821875,176.10325,54.58759375,176.10325,54.72040625C176.10325,54.84540625,176.16249609375,54.94631640625,176.280984375,55.023140625C176.39947265625,55.09996484375,176.59934375,55.16637109375,176.88059375,55.222359375C177.16184375,55.27834765625,177.39882421875,55.3415,177.59153125,55.4118125C178.18788671875,55.6305625,178.4860625,56.00946875,178.4860625,56.54853125C178.4860625,56.93394921875,178.32069921875,57.245796875,177.98996875,57.484078125C177.65923828125,57.722359375,177.23215625,57.8415,176.70871875,57.8415C176.35455078125,57.8415,176.04009765625,57.77834765625,175.765359375,57.652046875C175.49062109375,57.52574609375,175.275125,57.35256640625,175.118875,57.132515625C174.962625,56.91246484375,174.8845,56.67483203125,174.8845,56.419625C174.8845,56.419625,175.9548125,56.419625,175.9548125,56.419625C175.96523046875,56.62014453125,176.03944921875,56.77379296875,176.17746875,56.8805625C176.31548828125,56.98733203125,176.50038671875,57.04071875,176.73215625,57.04071875C176.94830078125,57.04071875,177.11171484375,56.999703125,177.222390625,56.917671875C177.33306640625,56.835640625,177.38840625,56.72821875,177.38840625,56.59540625Z"/><rect x="124.625" y="35.267" width="0.733" height="29.48" style="fill:#000000"/></svg>
