<?xml version="1.0" encoding="utf-8"?>
<!-- Generator: Adobe Illustrator 24.0.2, SVG Export Plug-In . SVG Version: 6.00 Build 0)  -->
<svg version="1.1" id="Layer_1" xmlns="http://www.w3.org/2000/svg" xmlns:xlink="http://www.w3.org/1999/xlink" x="0px" y="0px"
	 viewBox="0 0 72.8 21.4" style="enable-background:new 0 0 72.8 21.4;" xml:space="preserve">
<style type="text/css">
	.st0{fill:#FFCD00;}
</style>
<title>Asset 1</title>
<g>
	<path class="st0" d="M9.3,4.5H7.6v12.2h1.7v4.4H0v-4.4h1.7V4.5H0V0.2h9.3V4.5z"/>
	<path class="st0" d="M21.9,21.2h-6.8c-2.5,0-4.1-1.6-4.1-4.3V4.4c0-2.6,1.6-4.3,4.1-4.3h6.8c2.5,0,4.1,1.6,4.1,4.3V17
		C26,19.6,24.3,21.2,21.9,21.2z M20,16.8V4.5h-2.9v12.2H20z"/>
	<path class="st0" d="M28.6,4.5h-1.5V0.2H36v4.4h-1.7l1.5,10.1L39,0.2h4.5l3.4,14.6l1.2-10.1h-1.5V0.2h8.8v4.4h-1.4l-2.6,16.7h-7.1
		L41.3,8.8l-2.8,12.4h-6.9L28.6,4.5z"/>
	<path class="st0" d="M53.8,16.8h1.6l3.2-16.6h9.6l3.2,16.6h1.5v4.4h-7.1L65,16.1h-3.6l-0.6,5.1h-7L53.8,16.8L53.8,16.8z M64.6,12.2
		l-1.4-8.5l-1.4,8.5H64.6z"/>
</g>
</svg>
