<svg xmlns="http://www.w3.org/2000/svg" viewBox="0 0 72.49 21.39"><defs><style>.a{fill:#231f20;}</style></defs><title>iowa</title><path class="a" d="M9.49,4.47H7.77V16.89H9.49v4.5H0v-4.5H1.73V4.47H0V0H9.49Z"/><path class="a" d="M22.13,21.39H15.26c-2.5,0-4.13-1.63-4.13-4.32V4.32A4,4,0,0,1,15.26,0h6.87c2.5,0,4.13,1.66,4.13,4.32V17.07A4,4,0,0,1,22.13,21.39Zm-1.94-4.5V4.47h-3V16.89Z"/><path class="a" d="M28.42,4.47H26.91V0h9V4.47h-1.7l1.54,10.29L39,0h4.56l3.42,14.76L48.17,4.47H46.6V0h8.88V4.47H54L51.32,21.39H44.07L41.27,8.78,38.4,21.39h-7Z"/><path class="a" d="M53.19,16.89h1.64L58.06,0h9.71L71,16.89h1.51v4.5H65.25l-.68-5.21H61l-.65,5.21H53.19Zm11-4.62L62.81,3.64l-1.42,8.63Z"/><polygon class="a" points="0 0 0 4.47 1.73 4.47 1.73 16.89 0 16.89 0 21.39 9.49 21.39 9.49 16.89 7.77 16.89 7.77 4.47 9.49 4.47 9.49 0 0 0"/><polygon class="a" points="46.6 0 46.6 4.47 48.17 4.47 46.94 14.76 43.52 0 38.96 0 35.75 14.76 34.21 4.47 35.91 4.47 35.91 0 26.91 0 26.91 4.47 28.42 4.47 31.44 21.39 38.4 21.39 41.27 8.79 44.07 21.39 51.32 21.39 54 4.47 55.48 4.47 55.48 0 46.6 0"/><path class="a" d="M62.81,3.64l1.39,8.63H61.39ZM58.06,0,54.83,16.89H53.2v4.5h7.11L61,16.18h3.61l.68,5.21h7.24v-4.5H71L67.77,0Z"/></svg>