<svg xmlns="http://www.w3.org/2000/svg" viewBox="0 0 72.8 21.4"><defs><style>.a{fill:#ffcd00;}</style></defs><title>Asset 1</title><path class="a" d="M9.5,4.5H7.8V16.9H9.5v4.5H0V16.9H1.7V4.5H0V0H9.5Z"/><path class="a" d="M22.1,21.4H15.2c-2.5,0-4.1-1.6-4.1-4.3V4.3A3.94,3.94,0,0,1,15.2,0h6.9a3.94,3.94,0,0,1,4.1,4.3V17.1C26.2,19.8,24.6,21.4,22.1,21.4Zm-1.9-4.5V4.5h-3V16.9Z"/><path class="a" d="M28.6,4.5H27.1V0h9V4.5H34.4l1.5,10.3L39.1,0h4.6l3.4,14.8L48.3,4.5H46.7V0h8.9V4.5H54.1L51.4,21.4H44.2L41.4,8.8,38.6,21.4h-7Z"/><path class="a" d="M53.6,16.9h1.6L58.4,0h9.7l3.2,16.9h1.5v4.5H65.6l-.7-5.2H61.3l-.6,5.2H53.6Zm11-4.6L63.2,3.7l-1.4,8.6Z"/></svg>