<?xml version="1.0" encoding="UTF-8"?><svg width="70" height="70" xmlns="http://www.w3.org/2000/svg" viewBox="-10 -10 70 70"><rect x="-10" y="-10" width="70" height="70" fill="white"/><g id="uuid-1a1c3259-19f8-4e2a-9afa-09c23e736dd0"><g><path d="M23.7,16.6c-.2-.2-.51-.2-.71,0s-.2,.51,0,.71l1.13,1.13c.1,.1,.23,.15,.35,.15s.26-.05,.35-.15c.2-.2,.2-.51,0-.71l-1.13-1.13Z" fill="#ffcd00" stroke-width="0"/><path d="M31.39,34.28c-.28,0-.5,.22-.5,.5v1.6c0,.28,.22,.5,.5,.5s.5-.22,.5-.5v-1.6c0-.28-.22-.5-.5-.5Z" fill="#ffcd00" stroke-width="0"/><path d="M31.39,15.72c.28,0,.5-.22,.5-.5v-1.6c0-.28-.22-.5-.5-.5s-.5,.22-.5,.5v1.6c0,.28,.22,.5,.5,.5Z" fill="#ffcd00" stroke-width="0"/><path d="M21.61,24.5h-1.6c-.28,0-.5,.22-.5,.5s.22,.5,.5,.5h1.6c.28,0,.5-.22,.5-.5s-.22-.5-.5-.5Z" fill="#ffcd00" stroke-width="0"/><path d="M24.12,31.56l-1.13,1.13c-.2,.2-.2,.51,0,.71,.1,.1,.23,.15,.35,.15s.26-.05,.35-.15l1.13-1.13c.2-.2,.2-.51,0-.71s-.51-.2-.71,0Z" fill="#ffcd00" stroke-width="0"/><path d="M33.14,10.57c-8.92,0-16.18,7.26-16.18,16.18s7.26,16.18,16.18,16.18,16.18-7.26,16.18-16.18-7.26-16.18-16.18-16.18Zm-1.75,27.26c-7.07,0-12.83-5.76-12.83-12.83s5.76-12.83,12.83-12.83,12.83,5.76,12.83,12.83-5.76,12.83-12.83,12.83Z" fill="#ffcd00" stroke-width="0"/><path d="M41.16,25.5h1.6c.28,0,.5-.22,.5-.5s-.22-.5-.5-.5h-1.6c-.28,0-.5,.22-.5,.5s.22,.5,.5,.5Z" fill="#ffcd00" stroke-width="0"/><path d="M38.65,31.56c-.2-.2-.51-.2-.71,0s-.2,.51,0,.71l1.13,1.13c.1,.1,.23,.15,.35,.15s.26-.05,.35-.15c.2-.2,.2-.51,0-.71l-1.13-1.13Z" fill="#ffcd00" stroke-width="0"/><path d="M39.08,16.6l-1.13,1.13c-.2,.2-.2,.51,0,.71,.1,.1,.23,.15,.35,.15s.26-.05,.35-.15l1.13-1.13c.2-.2,.2-.51,0-.71s-.51-.2-.71,0Z" fill="#ffcd00" stroke-width="0"/><circle cx="32.16" cy="25.5" r="1.1" fill="#ffcd00"/><path d="M31.39,7.82c-9.47,0-17.18,7.71-17.18,17.18s7.71,17.18,17.18,17.18,17.18-7.71,17.18-17.18S40.86,7.82,31.39,7.82Zm0,33.36c-8.92,0-16.18-7.26-16.18-16.18S22.47,8.82,31.39,8.82s16.18,7.26,16.18,16.18-7.26,16.18-16.18,16.18Z" stroke-width="0"/><path d="M31.39,11.17c-7.63,0-13.83,6.2-13.83,13.83s6.2,13.83,13.83,13.83,13.83-6.2,13.83-13.83-6.2-13.83-13.83-13.83Zm0,26.66c-7.07,0-12.83-5.76-12.83-12.83s5.76-12.83,12.83-12.83,12.83,5.76,12.83,12.83-5.76,12.83-12.83,12.83Z" stroke-width="0"/><path d="M31.39,15.72c.28,0,.5-.22,.5-.5v-1.6c0-.28-.22-.5-.5-.5s-.5,.22-.5,.5v1.6c0,.28,.22,.5,.5,.5Z" stroke-width="0"/><path d="M23.7,16.6c-.2-.2-.51-.2-.71,0s-.2,.51,0,.71l1.13,1.13c.1,.1,.23,.15,.35,.15s.26-.05,.35-.15c.2-.2,.2-.51,0-.71l-1.13-1.13Z" stroke-width="0"/><path d="M21.61,24.5h-1.6c-.28,0-.5,.22-.5,.5s.22,.5,.5,.5h1.6c.28,0,.5-.22,.5-.5s-.22-.5-.5-.5Z" stroke-width="0"/><path d="M24.12,31.56l-1.13,1.13c-.2,.2-.2,.51,0,.71,.1,.1,.23,.15,.35,.15s.26-.05,.35-.15l1.13-1.13c.2-.2,.2-.51,0-.71s-.51-.2-.71,0Z" stroke-width="0"/><path d="M31.39,34.28c-.28,0-.5,.22-.5,.5v1.6c0,.28,.22,.5,.5,.5s.5-.22,.5-.5v-1.6c0-.28-.22-.5-.5-.5Z" stroke-width="0"/><path d="M38.65,31.56c-.2-.2-.51-.2-.71,0s-.2,.51,0,.71l1.13,1.13c.1,.1,.23,.15,.35,.15s.26-.05,.35-.15c.2-.2,.2-.51,0-.71l-1.13-1.13Z" stroke-width="0"/><path d="M42.76,24.5h-1.6c-.28,0-.5,.22-.5,.5s.22,.5,.5,.5h1.6c.28,0,.5-.22,.5-.5s-.22-.5-.5-.5Z" stroke-width="0"/><path d="M39.08,16.6l-1.13,1.13c-.2,.2-.2,.51,0,.71,.1,.1,.23,.15,.35,.15s.26-.05,.35-.15l1.13-1.13c.2-.2,.2-.51,0-.71s-.51-.2-.71,0Z" stroke-width="0"/><path d="M33.16,26.11c.2-.32,.32-.7,.32-1.11,0-.98-.68-1.81-1.6-2.03v-4.53c-.01-.28-.24-.5-.51-.5h0c-.28,0-.5,.23-.5,.5v4.53c-.9,.23-1.59,1.05-1.59,2.03,0,1.16,.94,2.1,2.1,2.1,.38,0,.74-.11,1.05-.29l2.13,1.96c.1,.09,.22,.13,.34,.13,.13,0,.27-.05,.37-.16,.19-.2,.17-.52-.03-.71l-2.09-1.92Zm-2.87-1.11c0-.61,.49-1.1,1.1-1.1s1.1,.49,1.1,1.1-.49,1.1-1.1,1.1-1.1-.49-1.1-1.1Z" stroke-width="0"/><path d="M14.18,19.37c.34-.33,.36-.77,.36-.9v-5.22c0-.32-.1-.61-.29-.83-.17-.2-.38-.31-.6-.31-1.66,.02-3.54,.05-3.76,.08-.72,.2-1.83,.7-2.82,1.89-1,1.19-1.42,2.52-1.59,3.42-.84,3.29-1.27,6.66-1.29,10.05-.02,3.12,.31,6.23,.98,9.25,.22,1.01,.73,2.49,1.89,3.79,1.02,1.15,2.13,1.67,2.88,1.91,.17,.02,2.05,.05,3.71,.06,.22,0,.43-.11,.6-.31,.19-.22,.29-.52,.29-.83v-5.37c0-.08-.03-.4-.3-.63-.18-.15-.38-.19-.48-.2h-3.15c-.25,0-.45-.18-.49-.42-.4-2.48-.58-5-.56-7.51,.02-2.39,.24-4.79,.65-7.14,.04-.24,.25-.41,.49-.41l2.76-.03c.14-.01,.46-.07,.72-.33Z" fill="#ffcd00" stroke-width="0"/><path d="M11.73,18.96s.02,0,.04,0c.3-.02,.86-.14,1.35-.61,.61-.6,.67-1.34,.66-1.62v-5.22c0-.56-.19-1.08-.53-1.48-.36-.42-.85-.66-1.37-.66-3.81,.04-3.93,.08-3.99,.11-.89,.25-2.2,.84-3.35,2.22-1.14,1.36-1.61,2.86-1.8,3.85-.85,3.33-1.29,6.79-1.31,10.26-.02,3.19,.32,6.38,1,9.47,.25,1.13,.82,2.78,2.12,4.24,1.17,1.31,2.46,1.92,3.3,2.19,.1,.04,.22,.09,4.04,.12,.52,0,1.01-.23,1.37-.66,.34-.4,.53-.93,.53-1.48v-5.39c0-.2-.08-.88-.65-1.38-.37-.31-.76-.41-1.09-.44h-2.76c-.34-2.29-.5-4.62-.48-6.92,.02-2.19,.21-4.4,.57-6.57l2.36-.02Zm-3.28-.56c-.41,2.35-.63,4.75-.65,7.14-.03,2.5,.16,5.03,.56,7.51,.04,.24,.25,.42,.49,.42h3.15c.1,.01,.31,.05,.48,.2,.27,.23,.3,.56,.3,.63v5.37c0,.32-.1,.61-.29,.83-.17,.2-.38,.31-.6,.31-1.66-.02-3.55-.05-3.71-.06-.75-.24-1.86-.77-2.88-1.91-1.15-1.3-1.66-2.78-1.89-3.79-.67-3.02-1-6.13-.98-9.25,.02-3.39,.45-6.76,1.29-10.05,.17-.9,.59-2.23,1.59-3.42,.99-1.18,2.1-1.69,2.82-1.89,.22-.03,2.11-.06,3.76-.08,.22,0,.44,.11,.6,.31,.19,.22,.29,.52,.29,.83v5.22c0,.13-.02,.56-.36,.9-.26,.26-.58,.32-.72,.33l-2.76,.03c-.24,0-.45,.18-.49,.41Z" stroke-width="0"/></g></g><g id="uuid-71d658aa-ef25-41f0-b761-07d9fb89d879"></g></svg>