<?xml version="1.0" encoding="UTF-8"?><svg width="70" height="70" xmlns="http://www.w3.org/2000/svg" viewBox="-10 -10 70 70"><rect x="-10" y="-10" width="70" height="70" fill="white"/><g id="uuid-fbf6fc33-2ae8-4bb7-ad33-f6b62c5af6c4"><g><circle cx="26.75" cy="26.75" r="21.87" fill="#ffcd00"/><path d="M20.39,21.42c.2-.28,.47-.42,.8-.42s.58,.1,.76,.31c.17,.21,.26,.51,.26,.91,0,.49-.37,1.16-1.1,1.99l-2.98,3.13v1.4h6.47v-1.66h-3.65l1.2-1.38c.64-.64,1.1-1.15,1.38-1.53,.29-.38,.5-.74,.63-1.09,.14-.35,.2-.7,.2-1.07,0-.87-.27-1.53-.81-1.99-.54-.46-1.31-.69-2.31-.69-.62,0-1.19,.14-1.69,.41s-.9,.65-1.18,1.13-.43,1.01-.43,1.58h2.15c0-.42,.1-.76,.31-1.04Z" stroke-width="0"/><path d="M24.04,26.79h3.58v1.97h2.15v-1.97h.94v-1.66h-.94v-5.65h-2.15v.02l-3.71,5.97,.13,1.31Zm3.45-4.29l.13-.22v2.85h-1.67l1.53-2.64Z" stroke-width="0"/><path d="M25,2.13C12.39,2.13,2.13,12.39,2.13,25s10.26,22.87,22.87,22.87,22.87-10.26,22.87-22.87S37.61,2.13,25,2.13Zm0,44.73c-12.06,0-21.87-9.81-21.87-21.87S12.94,3.13,25,3.13s21.87,9.81,21.87,21.87-9.81,21.87-21.87,21.87Z" stroke-width="0"/><path d="M25,6.62c-1.63,0-3.24,.21-4.79,.63-.27,.07-.42,.35-.35,.61,.07,.27,.35,.42,.61,.35,1.47-.4,3-.6,4.53-.6,9.58,0,17.38,7.79,17.38,17.38s-7.8,17.38-17.38,17.38S7.62,34.58,7.62,25c0-3.57,1.07-6.96,3.09-9.87l1.47,1.31,1.02-4.88-4.74,1.55,1.5,1.34c-2.18,3.1-3.34,6.72-3.34,10.54,0,10.13,8.24,18.38,18.38,18.38s18.38-8.24,18.38-18.38S35.13,6.62,25,6.62Z" stroke-width="0"/><path d="M25.5,11.89v-2.14c0-.28-.22-.5-.5-.5s-.5,.22-.5,.5v2.14c0,.28,.22,.5,.5,.5s.5-.22,.5-.5Z" stroke-width="0"/><path d="M24.5,38.11v2.14c0,.28,.22,.5,.5,.5s.5-.22,.5-.5v-2.14c0-.28-.22-.5-.5-.5s-.5,.22-.5,.5Z" stroke-width="0"/><path d="M11.75,24.5h-2.14c-.28,0-.5,.22-.5,.5s.22,.5,.5,.5h2.14c.28,0,.5-.22,.5-.5s-.22-.5-.5-.5Z" stroke-width="0"/><path d="M13.24,35.68c.1,.11,.23,.16,.37,.16,.12,0,.24-.04,.34-.13l1.58-1.45c.2-.19,.22-.5,.03-.71s-.5-.22-.71-.03l-1.58,1.45c-.2,.19-.22,.5-.03,.71Z" stroke-width="0"/><path d="M34.96,16.44l1.58-1.45c.2-.19,.22-.5,.03-.71s-.5-.22-.71-.03l-1.58,1.45c-.2,.19-.22,.5-.03,.71,.1,.11,.23,.16,.37,.16,.12,0,.24-.04,.34-.13Z" stroke-width="0"/><path d="M33.24,33.94c-.19,.2-.17,.52,.03,.71l1.58,1.45c.1,.09,.22,.13,.34,.13,.13,0,.27-.05,.37-.16,.19-.2,.17-.52-.03-.71l-1.58-1.45c-.2-.19-.52-.17-.71,.03Z" stroke-width="0"/><path d="M40.41,25.5c.28,0,.5-.22,.5-.5s-.22-.5-.5-.5h-2.14c-.28,0-.5,.22-.5,.5s.22,.5,.5,.5h2.14Z" stroke-width="0"/></g></g><g id="uuid-7ddde36c-7033-423c-b6e4-69bd72f9d5dd"></g></svg>