<?xml version="1.0" encoding="UTF-8"?><svg width="70" height="70" xmlns="http://www.w3.org/2000/svg" viewBox="-10 -10 70 70"><rect x="-10" y="-10" width="70" height="70" fill="white"/><g id="uuid-b2a68300-df05-41eb-82bf-5a74f7510379"><path d="M43.52,14.98l-12.67,.04h-1.32l-.02-12.09H8.84V49.46H43.58c-.02-11.49-.04-22.99-.05-34.48Z" fill="#ffcd00" stroke-width="0"/><g><path d="M42.98,14.45s0-.04-.01-.06c-.02-.08-.06-.16-.12-.23L29.37,.68c-.06-.06-.14-.1-.23-.12-.02,0-.04,0-.06-.01-.02,0-.04-.01-.07-.01H6.92c-.28,0-.5,.22-.5,.5V48.35c0,.28,.22,.5,.5,.5H42.49c.28,0,.5-.22,.5-.5V14.52s0-.04-.01-.06ZM7.42,47.85V1.54H28.51V14.52c0,.28,.22,.5,.5,.5h12.98V47.85H7.42ZM29.51,14.02V2.24l11.77,11.77h-11.77Z" stroke-width="0"/><path d="M36.58,21.88H12.32c-.28,0-.5,.22-.5,.5s.22,.5,.5,.5h24.27c.28,0,.5-.22,.5-.5s-.22-.5-.5-.5Z" stroke-width="0"/><path d="M36.58,29.16H12.32c-.28,0-.5,.22-.5,.5s.22,.5,.5,.5h24.27c.28,0,.5-.22,.5-.5s-.22-.5-.5-.5Z" stroke-width="0"/><path d="M27.57,43.47H12.32c-.28,0-.5,.22-.5,.5s.22,.5,.5,.5h15.25c.28,0,.5-.22,.5-.5s-.22-.5-.5-.5Z" stroke-width="0"/><path d="M34.55,36.4H12.32c-.28,0-.5,.22-.5,.5s.22,.5,.5,.5h22.23c.28,0,.5-.22,.5-.5s-.22-.5-.5-.5Z" stroke-width="0"/><path d="M13.75,14.67l3.22-.96,1.18,1.44,1.26-.38-5.04-5.95-1.11,.33-.94,7.75,1.22-.37,.21-1.85Zm.47-4.26l1.99,2.37-2.34,.7,.35-3.07Z" stroke-width="0"/><polygon points="18.75 11.82 20.61 11.26 21.17 13.12 22.28 12.78 21.72 10.93 23.59 10.37 23.26 9.29 21.4 9.85 20.85 8 19.74 8.34 20.29 10.18 18.43 10.74 18.75 11.82"/></g></g><g id="uuid-4ce68dd8-186a-4eeb-937c-8c36923ecad2"></g></svg>