<?xml version="1.0" encoding="utf-8"?> <!-- Generator: Adobe Illustrator 27.7.0, SVG Export Plug-In . SVG Version: 6.00 Build 0) --> <svg width="70" height="70" version="1.1" xmlns="http://www.w3.org/2000/svg" xmlns:xlink="http://www.w3.org/1999/xlink" x="0px" y="0px" viewBox="-10 -10 70 70" style="enable-background:new 0 0 50 50;" xml:space="preserve"><rect x="-10" y="-10" width="70" height="70" fill="white"/> <style type="text/css"> .st0{fill:#FFCD00;} .st1{display:none;} .st2{display:inline;fill:none;stroke:#EA008A;stroke-width:0.2;stroke-miterlimit:10;} .st3{font-family:'Roboto-Regular';} .st4{font-size:6px;} </style> <g id="Color"> <path class="st0" d="M17.1294,21.2622l2.9902,0.4346l-2.1641,2.1094c-0.1177,0.1147-0.1714,0.2803-0.1436,0.4424l0.5107,2.9785 l-2.6748-1.4058c-0.1455-0.0771-0.3193-0.0771-0.4648,0l-2.6753,1.4058l0.5107-2.9785c0.0278-0.1621-0.0259-0.3276-0.1436-0.4424 l-2.1641-2.1094l2.9902-0.4346c0.1631-0.0234,0.3037-0.126,0.3765-0.2734l1.3379-2.71l1.3374,2.71 C16.8257,21.1362,16.9663,21.2388,17.1294,21.2622z" stroke-width="0"/> <path class="st0" d="M28.9551,21.9546c0.356,0,0.7129,0.0303,1.0674,0.0913c-2.1836,1.4023-3.292,4.1108-2.5767,6.6914 c0.7158,2.5796,3.061,4.3311,5.6543,4.4087c-0.6997,0.6035-1.5151,1.042-2.4058,1.2886c-3.3755,0.9385-6.8892-1.0483-7.8262-4.4282 c-0.4541-1.6362-0.2432-3.3516,0.5933-4.8301c0.8364-1.478,2.1987-2.542,3.8354-2.9956 C27.8408,22.0298,28.397,21.9546,28.9551,21.9546z" stroke-width="0"/> <circle class="st0" cx="38.46" cy="24.1548" r="3.585"/> </g> <g id="ICONS_00000031165542127692736420000002692518830807990202_"> <path d="M44.6807,15.1704c-0.5435-3.2505-3.3296-5.6094-6.6255-5.6094H11.9448c-3.2959,0-6.082,2.3589-6.6255,5.6094 l-4.1299,24.686c-0.0454,0.2725,0.1382,0.5303,0.4106,0.5757c0.269,0.0459,0.5303-0.1382,0.5757-0.4106l4.1299-24.686 c0.4624-2.7666,2.834-4.7744,5.6392-4.7744h1.4707v4.9716l-1.6182,3.278L8.0645,19.353c-0.1885,0.0273-0.3447,0.1592-0.4038,0.3403 c-0.0586,0.1807-0.0098,0.3794,0.1265,0.5122l2.7017,2.6333l-0.6377,3.7178c-0.0322,0.1875,0.0449,0.377,0.1987,0.4888 c0.0874,0.0635,0.1904,0.0957,0.2939,0.0957c0.0796,0,0.1597-0.019,0.2324-0.0576l3.3394-1.7549l3.3389,1.7549 c0.168,0.0889,0.3726,0.0747,0.5264-0.0381c0.1538-0.1118,0.231-0.3013,0.1987-0.4888l-0.6377-3.7178l2.7017-2.6333 c0.1362-0.1328,0.1851-0.3315,0.1265-0.5122c-0.0591-0.1812-0.2153-0.313-0.4038-0.3403l-3.7329-0.5425l-1.6177-3.278V10.561 h10.3706v9.4067c-1.5613,0.6151-2.8569,1.7349-3.6948,3.2163c-0.9683,1.7104-1.2119,3.6958-0.687,5.5898 c0.5254,1.8936,1.7568,3.4697,3.4673,4.438c1.1211,0.6338,2.3594,0.9575,3.6128,0.957c0.6597,0,1.3242-0.0894,1.9771-0.2705 c1.499-0.415,2.812-1.2964,3.7974-2.5483c0.1294-0.1646,0.1426-0.3921,0.0332-0.5708c-0.1094-0.1782-0.3184-0.2705-0.5244-0.2285 c-2.5869,0.5166-5.1582-1.0566-5.8579-3.5811c-0.7002-2.5249,0.6958-5.1982,3.1777-6.0859 c0.1973-0.0703,0.3296-0.2563,0.3315-0.4658s-0.1265-0.3979-0.3223-0.4722c-1.4038-0.5344-2.8873-0.6191-4.3105-0.2786V10.561 H36.46v7.5593c-2.2908,0.2529-4.085,2.1773-4.085,4.5344c0,0.494,0.0988,0.9611,0.244,1.4073l-0.9329,0.4203 c-0.2515,0.1138-0.3638,0.4097-0.2505,0.6616c0.0835,0.1851,0.2656,0.2944,0.4565,0.2944c0.0684,0,0.1382-0.0142,0.2051-0.0439 l0.9307-0.4193c0.7991,1.3486,2.2539,2.2645,3.9321,2.2645c2.5283,0,4.585-2.0566,4.585-4.585c0-0.494-0.0987-0.961-0.2439-1.4071 l0.9333-0.4205c0.2515-0.1138,0.3638-0.4097,0.2505-0.6616c-0.1143-0.252-0.4082-0.3643-0.6616-0.2505l-0.9311,0.4195 c-0.7175-1.2111-1.9676-2.0525-3.4322-2.2142V10.561h0.5952c2.8052,0,5.1768,2.0078,5.6392,4.7744l4.1299,24.686 c0.041,0.2446,0.2529,0.4175,0.4927,0.4175c0.0273,0,0.0552-0.002,0.083-0.0068c0.2725-0.0454,0.4561-0.3032,0.4106-0.5757 L44.6807,15.1704z M15.6294,19.7622l2.9902,0.4346l-2.1641,2.1094c-0.1177,0.1147-0.1714,0.2803-0.1436,0.4424l0.5107,2.9785 l-2.6748-1.4058c-0.1455-0.0771-0.3193-0.0771-0.4648,0l-2.6753,1.4058l0.5107-2.9785c0.0278-0.1621-0.0259-0.3276-0.1436-0.4424 l-2.1641-2.1094l2.9902-0.4346c0.1631-0.0234,0.3037-0.126,0.3765-0.2734l1.3379-2.71l1.3374,2.71 C15.3257,19.6362,15.4663,19.7388,15.6294,19.7622z M27.4551,20.4546c0.356,0,0.7129,0.0303,1.0674,0.0913 c-2.1836,1.4023-3.292,4.1108-2.5767,6.6914c0.7158,2.5796,3.061,4.3311,5.6543,4.4087c-0.6997,0.6035-1.5151,1.042-2.4058,1.2886 c-3.3755,0.9385-6.8892-1.0483-7.8262-4.4282c-0.4541-1.6362-0.2432-3.3516,0.5933-4.8301c0.8364-1.478,2.1987-2.542,3.8354-2.9956 C26.3408,20.5298,26.897,20.4546,27.4551,20.4546z M40.5449,22.6548c0,1.9766-1.6084,3.585-3.585,3.585 c-1.2729,0-2.3859-0.6717-3.0221-1.6746l6.4489-2.9056C40.4795,21.9777,40.5449,22.3072,40.5449,22.6548z M39.9822,20.7446 l-6.449,2.9056c-0.0928-0.3182-0.1582-0.6477-0.1582-0.9954c0-1.9766,1.6084-3.585,3.585-3.585 C38.2329,19.0698,39.3459,19.7416,39.9822,20.7446z" stroke-width="0"/> </g> <g id="Margin" class="st1"> <rect x="1" y="1" class="st2" /> </g> <g id="Guides" class="st1"> </g> <g id="LABELS"> <g> <g> <g> <g> </g> </g> </g> </g> </g> </svg> 