<?xml version="1.0" encoding="UTF-8"?><svg width="70" height="70" xmlns="http://www.w3.org/2000/svg" viewBox="-10 -10 70 70"><rect x="-10" y="-10" width="70" height="70" fill="white"/><g id="uuid-48176c5d-cf29-406d-8310-2940fc0d1706"><g><path d="M49.49,30.38v-3.95l-19.13-7.93,.26-6.96c.14-2.62-.66-5.12-2.15-6.7-.73-.77-1.54-1.21-2.22-1.21h0c-.68,0-1.49,.44-2.22,1.21-1.49,1.57-2.29,4.07-2.14,6.69h0l.23,6.94L3.01,26.43v3.95l19.46-.88,.45,13.71-5.55,3.84,.13,.92,5.65-.92c.65,1.11,1.82,1.81,3.07,1.81h.02c1.25,0,2.41-.7,3.06-1.81v-.03l5.69,.96,.12-.92-5.67-4.06,.5-13.49,19.53,.88Z" fill="#ffcd00" stroke-width="0"/><path d="M48.69,24.15L29.91,15.79l.21-5.7c.16-2.88-.75-5.66-2.43-7.43-.93-.98-1.98-1.52-2.95-1.52h0c-.97,0-2.02,.54-2.95,1.52-1.67,1.77-2.57,4.54-2.42,7.42l.19,5.72L.81,24.15c-.18,.08-.3,.26-.3,.46v4.8c0,.14,.06,.27,.16,.36,.09,.09,.22,.14,.34,.14h.02l18.97-.92,.37,11.22-5.35,4.77c-.12,.11-.18,.27-.16,.43l.19,1.72c.02,.14,.09,.27,.2,.35,.09,.06,.19,.1,.29,.1,.03,0,.07,0,.1-.01l5.4-1.13c.86,1.19,2.23,1.93,3.69,1.93h.03c1.45,0,2.81-.74,3.67-1.93l5.44,1.13s.07,.01,.1,.01c.1,0,.21-.03,.29-.1,.11-.08,.19-.21,.2-.35l.19-1.72c.02-.16-.04-.32-.16-.43l-5.47-4.87,.41-11.12,19.05,.92h.02c.13,0,.25-.05,.34-.14,.1-.09,.16-.23,.16-.36v-4.8c0-.2-.12-.38-.3-.46Zm-.7,4.73l-18.53-.9,.41-11.12,18.12,8.07v3.95Zm-14.46,17.59l-4.72-.98,.15-4.09,4.66,4.15-.1,.92Zm-5.72-.92c-.65,1.11-1.81,1.8-3.06,1.81h-.02c-1.32,0-2.56-.78-3.19-2l-1.15-35.32h0c-.14-2.62,.66-5.12,2.14-6.7,.73-.77,1.54-1.21,2.22-1.21h0c.68,0,1.49,.44,2.22,1.21,1.49,1.57,2.3,4.07,2.15,6.7l-1.32,35.51Zm-11.84,.92l-.1-.92,4.54-4.04,.13,3.99h0l-4.57,.97ZM1.51,24.93l18.09-8.05,.36,11.11-18.46,.89v-3.95Z" stroke-width="0"/></g></g><g id="uuid-db8df149-d53c-4d53-9ee0-2ba7c4427672"></g></svg>