<?xml version="1.0" encoding="UTF-8"?><svg width="70" height="70" xmlns="http://www.w3.org/2000/svg" viewBox="-10 -10 70 70"><rect x="-10" y="-10" width="70" height="70" fill="white"/><g id="uuid-2df0fde0-31e6-442f-aa87-726e2f8bb637"><path d="M50.15,33.61c.01-4.65-3.76-5.5-4.11-5.57l-11.37-.08c-.27,0-.5-.23-.5-.5v-2.24h-.75v-7.53H3.35v21.61H7.92c-.06-.28-.1-.57-.1-.86,0-2.25,1.83-4.09,4.09-4.09s4.09,1.83,4.09,4.09c0,.3-.04,.58-.1,.86h17.08c-.06-.28-.1-.57-.1-.88,0-2.25,1.83-4.09,4.09-4.09s4.09,1.83,4.09,4.09c0,.3-.04,.59-.1,.88h9.19c0-.7,0-2.3,0-5.7Zm-27.4-6.41h-3.12c-.28,0-.5,.22-.5,.5v3.04h-3.9v-3.05c0-.13-.05-.26-.15-.35-.09-.09-.22-.15-.35-.15h-3.04v-3.9h3.03c.13,0,.26-.05,.35-.14,.09-.09,.15-.22,.15-.36v-3.12h3.9v3.11c0,.28,.23,.5,.5,.5h3.12v3.91Z" fill="#ffcd00" stroke-width="0"/><path d="M49.4,31.86c.01-4.72-3.45-6.13-4.6-6.47l-2.67-6.3-1.58-3.84c-.08-.19-.26-.31-.46-.31h-7.25l-.31-2.26,2.89,1.21c.06,.03,.13,.04,.19,.04,.2,0,.38-.12,.46-.31,.11-.25-.01-.55-.27-.65l-3.43-1.44-.11-.83h3.17c.28,0,.5-.22,.5-.5s-.22-.5-.5-.5h-3.3l-.1-.76,3.5-1.45c.25-.11,.38-.4,.27-.65s-.4-.38-.65-.27l-3.33,1.38c-.09-.11-.22-.18-.37-.18h-5.13c-.14,0-.26,.06-.36,.16l-3.41-1.41c-.25-.11-.55,.02-.65,.27s.02,.55,.27,.65l3.55,1.47s.02,0,.02,0l-.09,.75h-3.54c-.28,0-.5,.22-.5,.5s.22,.5,.5,.5h3.43l-.11,.93-3.51,1.48c-.25,.11-.37,.4-.27,.65,.08,.19,.27,.31,.46,.31,.06,0,.13-.01,.19-.04l2.99-1.26-.26,2.21H1.1c-.28,0-.5,.22-.5,.5v22.61c0,.28,.22,.5,.5,.5H6.84c.06,2.75,2.31,4.97,5.07,4.97s5.01-2.22,5.07-4.97h14.91c.07,2.74,2.31,4.96,5.07,4.96s5-2.22,5.07-4.96h6.86c.13,0,.26-.05,.36-.15,.09-.1,.15-.23,.14-.36,0,0-.02-.94,0-6.18ZM30.99,8.77l.83,6.14h-5.79l.71-6.14h4.25Zm2.43,16.44V15.97h6.29l3.95,9.32-10.24-.07Zm-17.42,13.23c0,2.25-1.83,4.09-4.09,4.09s-4.09-1.83-4.09-4.09,1.83-4.09,4.09-4.09,4.09,1.83,4.09,4.09Zm25.06-.01c0,2.25-1.83,4.09-4.09,4.09s-4.09-1.83-4.09-4.09,1.83-4.09,4.09-4.09,4.09,1.83,4.09,4.09Zm7.34-.87h-6.43c-.42-2.39-2.49-4.21-5-4.21s-4.58,1.82-5,4.21h-15.06c-.42-2.38-2.5-4.2-5-4.2s-4.57,1.82-5,4.2H1.6V15.94h30.83v9.77c0,.27,.22,.5,.5,.5l11.37,.08c.36,.07,4.13,.92,4.11,5.57-.01,3.4,0,4.99,0,5.7Z" stroke-width="0"/><path d="M23.26,22.3h-3.12v-3.12c0-.28-.23-.5-.51-.5h-4.92c-.13,0-.26,.05-.35,.15s-.15,.22-.15,.35v3.12h-3c-.13,0-.26,.05-.35,.14-.09,.09-.15,.22-.15,.35v4.91c0,.13,.04,.26,.14,.35s.22,.15,.35,.15h3.04v3.04c0,.28,.22,.5,.5,.5h4.9c.28,0,.5-.22,.5-.5v-3.04h3.12c.28,0,.5-.22,.5-.5v-4.91c0-.28-.22-.5-.5-.5Zm-.5,4.91h-3.12c-.28,0-.5,.22-.5,.5v3.04h-3.9v-3.05c0-.13-.05-.26-.15-.35-.09-.09-.22-.15-.35-.15h-3.04v-3.9h3.03c.13,0,.26-.05,.35-.14,.09-.09,.15-.22,.15-.36v-3.12h3.9v3.11c0,.28,.23,.5,.5,.5h3.12v3.91Z" stroke-width="0"/></g><g id="uuid-900df1f8-e410-41d0-bdd5-e392a1d33c26"></g></svg>