<?xml version="1.0" encoding="utf-8"?> <!-- Generator: Adobe Illustrator 27.7.0, SVG Export Plug-In . SVG Version: 6.00 Build 0) --> <svg width="70" height="70" version="1.1" xmlns="http://www.w3.org/2000/svg" xmlns:xlink="http://www.w3.org/1999/xlink" x="0px" y="0px" viewBox="-10 -10 70 70" style="enable-background:new 0 0 50 50;" xml:space="preserve"><rect x="-10" y="-10" width="70" height="70" fill="white"/> <style type="text/css"> .st0{fill:#FFCD00;} .st1{display:none;} .st2{display:inline;fill:none;stroke:#EA008A;stroke-width:0.2;stroke-miterlimit:10;} .st3{font-family:'Roboto-Regular';} .st4{font-size:6px;} </style> <g id="Color"> <path class="st0" d="M15.7377,11.3152H36.976V9.0357H15.7377V11.3152z" stroke-width="0"/> <path class="st0" d="M46.5243,16.3927c-1.6519,0.7982-3.7085,1.7921-6.3183,2.5787c-3.7975,1.1456-10.9274,1.5011-19.556-0.9326 c-4.5708-1.2901-9.6574-2.4026-17.15-0.7312l0.0344,24.3281c0,1.3948,1.1341,2.5294,2.5285,2.5294h40.9628 c1.3944,0,2.5285-1.1346,2.5285-2.5289V15.072C48.6384,15.3715,47.644,15.852,46.5243,16.3927z" stroke-width="0"/> </g> <g id="ICONS_00000031165542127692736420000002692518830807990202_"> <g> <path d="M48.5,6.9146h-47c-0.2764,0-0.5,0.2236-0.5,0.5v32.3403c0,1.9404,1.5781,3.519,3.5186,3.519h40.9629 c1.9404,0,3.5186-1.5786,3.5186-3.519V7.4146C49,7.1382,48.7764,6.9146,48.5,6.9146z M42.6251,36.3335 c-1.8955-2.1846-2.2894-5.3043-1.1143-9.0532c1.3431-4.2914,0.6436-8.7902-0.412-10.6629 c1.4846-0.5855,2.7598-1.1998,3.8378-1.7307c1.1324-0.5576,2.1302-1.038,3.0635-1.3326v22.7794H42.6251z M40.1455,16.9763 c0.8829,1.3458,1.4771,4.793,0.8309,8.2871c-2.2149-0.9563-4.274-1.4312-6.1895-1.5679c0.1938-2.4108,0.6289-4.2715,1.3257-5.665 c0.9631-0.1476,1.8228-0.3359,2.5524-0.5559C39.1873,17.3171,39.6689,17.147,40.1455,16.9763z M33.7873,23.6487 c-4.6542-0.0565-8.4187,1.8156-11.4474,3.3715c-1.155-0.8333-2.3128-1.5322-3.3438-2.0514 c-6.7489-3.3974-7.2668-7.6614-7.2983-9.8928c2.7479,0.235,5.1417,0.8278,7.4058,1.4665 c4.6709,1.3169,8.9023,1.8169,12.4053,1.8169c1.2428,0,2.3875-0.0659,3.4336-0.1777 C34.3385,19.6141,33.9659,21.3869,33.7873,23.6487z M10.6966,15.0088c0.0251,2.2854,0.5167,7.1613,7.8503,10.8535 c0.9459,0.4764,1.8925,1.0396,2.805,1.6636c-0.8426,0.428-1.6463,0.8192-2.3997,1.1143c-4.292,1.6787-7.0986-0.1553-9.8105-1.9297 C6.829,25.1978,4.6371,23.7656,2,25.1901v-9.3825C5.3149,15.0725,8.1605,14.8798,10.6966,15.0088z M2,26.3588 c0.0006-0.0004,0.0013-0.0004,0.002-0.0009c2.3389-1.5952,4.2168-0.3652,6.5918,1.1895c1.9268,1.2603,4.1943,2.7446,7.123,2.7446 c1.1006,0,2.2959-0.21,3.6006-0.7207c0.931-0.3651,1.9148-0.8598,2.9473-1.3896c3.0901,2.3234,5.5751,5.3323,5.8444,8.1518H2 V26.3588z M29.1082,36.3335c-0.2595-3.2076-2.9422-6.3341-5.8812-8.6442c4.4615-2.2776,9.9788-4.7783,17.5336-1.4346 c-0.0621,0.2432-0.1294,0.4858-0.2049,0.7267c-1.423,4.5411-0.4984,7.5105,0.7902,9.3521H29.1082z M14.5781,7.9146h20.8438v1.8843 H14.5781V7.9146z M13.5781,7.9146v2.3843c0,0.2764,0.2236,0.5,0.5,0.5h21.8438c0.2764,0,0.5-0.2236,0.5-0.5V7.9146H48v4.5956 c-1.0969,0.3046-2.219,0.8466-3.5049,1.4796c-1.6777,0.8257-3.5791,1.7617-6.1191,2.5278 c-3.6641,1.103-10.5771,1.438-19.001-0.938C14.7372,14.2718,9.5715,13.1483,2,14.7854V7.9146H13.5781z M45.4814,42.2739H4.5186 C3.1299,42.2739,2,41.144,2,39.7549v-2.4214h46v2.4214C48,41.144,46.8701,42.2739,45.4814,42.2739z" stroke-width="0"/> <path d="M38.8384,15.3478c0.3701-0.169,0.5837-0.5221,0.6173-0.9003c0.3079,0.2223,0.7145,0.2922,1.0846,0.1232 c0.5483-0.2504,0.7899-0.8979,0.5395-1.4462s-0.8979-0.7899-1.4462-0.5394c-0.3701,0.169-0.5836,0.5221-0.6172,0.9003 c-0.3079-0.2223-0.7146-0.2922-1.0847-0.1232c-0.5483,0.2504-0.7898,0.8979-0.5394,1.4462 C37.6427,15.3567,38.2901,15.5982,38.8384,15.3478z" stroke-width="0"/> <path d="M18.7557,30.8503c-0.4001,0.0736-0.6933,0.364-0.8181,0.7227c-0.2444-0.2907-0.6218-0.4576-1.0219-0.384 c-0.5928,0.1091-0.9849,0.6782-0.8758,1.2709c0.1091,0.5928,0.6781,0.9849,1.2709,0.8759 c0.4001-0.0737,0.6934-0.364,0.8182-0.7226c0.2443,0.2906,0.6217,0.4576,1.0218,0.3839c0.5929-0.1091,0.985-0.6781,0.8759-1.2709 C19.9175,31.1334,19.3486,30.7411,18.7557,30.8503z" stroke-width="0"/> <path d="M16.5505,19.8635c0.1241-0.3589,0.0737-0.7685-0.1949-1.0741c-0.3978-0.4528-1.0875-0.4972-1.5402-0.0993 c-0.4528,0.3979-0.4973,1.0875-0.0994,1.5402c0.2686,0.3056,0.6682,0.4083,1.0401,0.3314 c-0.1241,0.3589-0.0737,0.7684,0.1949,1.074c0.3979,0.4528,1.0875,0.4973,1.5403,0.0994s0.4973-1.0875,0.0994-1.5403 C17.322,19.8891,16.9224,19.7866,16.5505,19.8635z" stroke-width="0"/> <path d="M38.2807,27.0396c-0.5964-0.0873-1.1507,0.3253-1.2381,0.9218c-0.059,0.4025,0.1217,0.7735,0.4211,1.0071 c-0.3538,0.1379-0.6332,0.4415-0.6923,0.8441c-0.0873,0.5964,0.3254,1.1507,0.9218,1.238 c0.5964,0.0874,1.1507-0.3253,1.238-0.9216c0.059-0.4026-0.1216-0.7736-0.421-1.0072c0.3538-0.1378,0.6332-0.4415,0.6922-0.844 C39.2897,27.6813,38.8771,27.127,38.2807,27.0396z" stroke-width="0"/> </g> </g> <g id="Margin" class="st1"> <rect x="1" y="1" class="st2" /> </g> <g id="Guides" class="st1"> </g> <g id="LABELS"> <g> <g> <g> <g> </g> </g> </g> </g> </g> </svg> 