<?xml version="1.0" encoding="UTF-8"?><svg width="70" height="70" xmlns="http://www.w3.org/2000/svg" viewBox="-10 -10 70 70"><rect x="-10" y="-10" width="70" height="70" fill="white"/><g id="uuid-a0bba04a-0f41-4ccb-b50a-60bf45b42d7c"><g><path d="M42.29,19.57l-.28-.38c-.05-.07-.11-.15-.16-.21-1.67-2.09-3.55-3.41-5.61-3.91-1.73-.42-2.88-.09-4.33,.33-1.33,.38-2.99,.86-5.52,.86h-.01c-2.33,0-3.85-.39-5.2-.73-1.52-.39-2.72-.7-4.56-.24-1.92,.48-3.71,1.57-5.31,3.24-.02,.04-.04,.07-.07,.1-3,3.11-3.9,9.73-2.26,16.47,1.92,7.85,9,14.65,12.7,13.77,.45-.11,.86-.32,1.32-.57,.83-.44,1.76-.94,3.27-.96,1.56,.01,2.55,.5,3.43,.95,.49,.26,.91,.48,1.39,.58,3.79,.86,10.76-5.81,12.7-13.77,1.48-6.07,.93-11.99-1.44-15.46-.01-.02-.03-.04-.04-.06Z" fill="#ffcd00" stroke-width="0"/><path d="M41.46,17.41s-.03-.07-.06-.1l-.34-.46c-.07-.09-.13-.18-.2-.25-1.8-2.26-3.87-3.69-6.15-4.25-1.27-.31-2.28-.27-3.24-.08,.47-.48,.91-1,1.28-1.57,1.79-2.69,2.31-6.07,1.45-9.27-.07-.24-.3-.4-.55-.37-3.29,.45-6.2,2.25-7.98,4.94-.76,1.15-1.28,2.43-1.58,3.77-.15-.57-.31-1.14-.5-1.7-.54-1.55-1.26-3.01-2.14-4.35-.15-.23-.46-.29-.69-.14-.23,.15-.29,.46-.14,.69,.29,.44,.56,.91,.81,1.38,.47,.88,.88,1.79,1.22,2.75,.56,1.62,.89,3.32,1.03,5.07-.13,0-.25-.02-.38-.02-1.51-.11-2.63-.39-3.65-.65-1.59-.41-2.96-.76-5.05-.24-2.15,.53-4.14,1.75-5.9,3.63-.03,.03-.05,.06-.07,.1-3.15,3.39-4.12,10.31-2.41,17.3,1.83,7.49,8.31,14.61,12.96,14.61,.32,0,.64-.03,.94-.1,.58-.14,1.08-.4,1.56-.66,.76-.41,1.55-.83,2.82-.85,1.3-.03,2.15,.42,2.95,.84,.51,.26,1.03,.54,1.63,.67,4.68,1.03,11.95-6.55,13.89-14.51,1.54-6.28,.95-12.47-1.53-16.18ZM26.52,6.56c1.55-2.33,4.02-3.93,6.84-4.44,.63,2.79,.12,5.7-1.43,8.03-.71,1.07-1.62,1.98-2.67,2.71-1.14,.31-2.47,.61-4.36,.64-.29-2.45,.27-4.91,1.61-6.94Zm15.5,26.79c-1.95,7.96-8.91,14.62-12.7,13.77-.48-.11-.9-.33-1.39-.58-.87-.46-1.87-.94-3.43-.95-1.51,.02-2.45,.52-3.27,.96-.46,.25-.87,.46-1.32,.57-3.69,.88-10.78-5.92-12.7-13.77-1.65-6.74-.74-13.35,2.26-16.47,.03-.03,.05-.07,.07-.1,1.6-1.68,3.39-2.77,5.31-3.24,1.85-.46,3.04-.15,4.56,.24,1.34,.34,2.87,.73,5.2,.73h.01c2.53,0,4.19-.48,5.52-.86,1.46-.42,2.6-.74,4.33-.33,2.06,.5,3.94,1.81,5.61,3.91,.06,.07,.11,.14,.16,.21l.28,.38s.02,.04,.04,.06c2.37,3.47,2.93,9.4,1.44,15.46Z" stroke-width="0"/></g></g><g id="uuid-9c5e7c99-952a-4b80-989e-25d93998ff7a"></g></svg>