<?xml version="1.0" encoding="UTF-8"?><svg width="70" height="70" xmlns="http://www.w3.org/2000/svg" viewBox="-10 -10 70 70"><rect x="-10" y="-10" width="70" height="70" fill="white"/><g id="uuid-1f6493b0-7f54-4cfe-8aee-3b9ff0304968"><path d="M39.74,38.77v7.01c0,1.93-1.57,3.5-3.5,3.5h-19.02c-1.93,0-3.5-1.57-3.5-3.5v-7.01h2.01c0,.27.22.5.5.5h21.01c.28,0,.5-.23.5-.5h2Z" fill="#ffcd00" stroke-width="0"/><path d="M39.74,5.74v33.03h-2V8.75c0-.28-.22-.5-.5-.5h-21.01c-.28,0-.5.22-.5.5v30.02h-2.01V5.74c0-1.93,1.57-3.5,3.5-3.5h19.02c1.93,0,3.5,1.57,3.5,3.5Z" fill="#ffcd00" stroke-width="0"/><rect x="31.02" y="31.04" fill="#ffcd00"/><rect x="31.02" y="25.04" fill="#ffcd00"/><rect x="31.02" y="19.04" fill="#ffcd00"/><rect x="31.02" y="13.03" fill="#ffcd00"/><rect x="25.01" y="31.04" fill="#ffcd00"/><rect x="25.01" y="25.04" fill="#ffcd00"/><rect x="25.01" y="19.04" fill="#ffcd00"/><rect x="25.01" y="13.03" fill="#ffcd00"/><rect x="19.01" y="31.04" fill="#ffcd00"/><rect x="19.01" y="25.04" fill="#ffcd00"/><rect x="19.01" y="19.04" fill="#ffcd00"/><rect x="19.01" y="13.03" fill="#ffcd00"/></g><g id="uuid-31793d5d-5846-434f-b25c-b1b9ac2ab06b"><path d="M40.02,5.02v40.04c0,2.48-2.02,4.5-4.5,4.5h-19.02c-2.48,0-4.5-2.02-4.5-4.5V5.02c0-2.48,2.02-4.5,4.5-4.5h19.02c2.48,0,4.5,2.02,4.5,4.5ZM39.02,45.06V5.02c0-1.93-1.57-3.5-3.5-3.5h-19.02c-1.93,0-3.5,1.57-3.5,3.5v40.04c0,1.93,1.57,3.5,3.5,3.5h19.02c1.93,0,3.5-1.57,3.5-3.5Z" stroke-width="0"/><path d="M37.02,8.03v30.02c0,.27-.22.5-.5.5H15.51c-.28,0-.5-.23-.5-.5V8.03c0-.28.22-.5.5-.5h21.01c.28,0,.5.22.5.5ZM36.02,37.55V8.53h-20.01v29.02h20.01Z" stroke-width="0"/><path d="M34.02,30.54v3c0,.28-.23.5-.5.5h-3c-.28,0-.5-.22-.5-.5v-3c0-.27.22-.5.5-.5h3c.27,0,.5.23.5.5ZM33.02,33.04v-2h-2v2h2Z" stroke-width="0"/><path d="M34.02,24.54v3c0,.28-.23.5-.5.5h-3c-.28,0-.5-.22-.5-.5v-3c0-.28.22-.5.5-.5h3c.27,0,.5.22.5.5ZM33.02,27.04v-2h-2v2h2Z" stroke-width="0"/><path d="M34.02,18.54v3c0,.27-.23.5-.5.5h-3c-.28,0-.5-.23-.5-.5v-3c0-.28.22-.5.5-.5h3c.27,0,.5.22.5.5ZM33.02,21.04v-2h-2v2h2Z" stroke-width="0"/><path d="M34.02,12.53v3c0,.28-.23.5-.5.5h-3c-.28,0-.5-.22-.5-.5v-3c0-.28.22-.5.5-.5h3c.27,0,.5.22.5.5ZM33.02,15.03v-2h-2v2h2Z" stroke-width="0"/><path d="M28.64,4.48c.28,0,.5.22.5.5s-.22.5-.5.5h-5.13c-.28,0-.5-.22-.5-.5s.22-.5.5-.5h5.13Z" stroke-width="0"/><path d="M28.01,30.54v3c0,.28-.22.5-.5.5h-3c-.27,0-.5-.22-.5-.5v-3c0-.27.23-.5.5-.5h3c.28,0,.5.23.5.5ZM27.01,33.04v-2h-2v2h2Z" stroke-width="0"/><path d="M28.01,24.54v3c0,.28-.22.5-.5.5h-3c-.27,0-.5-.22-.5-.5v-3c0-.28.23-.5.5-.5h3c.28,0,.5.22.5.5ZM27.01,27.04v-2h-2v2h2Z" stroke-width="0"/><path d="M28.01,18.54v3c0,.27-.22.5-.5.5h-3c-.27,0-.5-.23-.5-.5v-3c0-.28.23-.5.5-.5h3c.28,0,.5.22.5.5ZM27.01,21.04v-2h-2v2h2Z" stroke-width="0"/><path d="M28.01,12.53v3c0,.28-.22.5-.5.5h-3c-.27,0-.5-.22-.5-.5v-3c0-.28.23-.5.5-.5h3c.28,0,.5.22.5.5ZM27.01,15.03v-2h-2v2h2Z" stroke-width="0"/><circle cx="26.01" cy="43.21" r="2.44"/><path d="M22.01,30.54v3c0,.28-.23.5-.5.5h-3c-.28,0-.5-.22-.5-.5v-3c0-.27.22-.5.5-.5h3c.27,0,.5.23.5.5ZM21.01,33.04v-2h-2v2h2Z" stroke-width="0"/><path d="M22.01,24.54v3c0,.28-.23.5-.5.5h-3c-.28,0-.5-.22-.5-.5v-3c0-.28.22-.5.5-.5h3c.27,0,.5.22.5.5ZM21.01,27.04v-2h-2v2h2Z" stroke-width="0"/><path d="M22.01,18.54v3c0,.27-.23.5-.5.5h-3c-.28,0-.5-.23-.5-.5v-3c0-.28.22-.5.5-.5h3c.27,0,.5.22.5.5ZM21.01,21.04v-2h-2v2h2Z" stroke-width="0"/><path d="M22.01,12.53v3c0,.28-.23.5-.5.5h-3c-.28,0-.5-.22-.5-.5v-3c0-.28.22-.5.5-.5h3c.27,0,.5.22.5.5ZM21.01,15.03v-2h-2v2h2Z" stroke-width="0"/><path d="M21.39,4.37c.34,0,.61.28.61.61s-.27.61-.61.61-.6-.27-.6-.61.27-.61.6-.61Z" stroke-width="0"/></g></svg>