<?xml version="1.0" encoding="utf-8"?> <!-- Generator: Adobe Illustrator 27.7.0, SVG Export Plug-In . SVG Version: 6.00 Build 0) --> <svg width="70" height="70" version="1.1" xmlns="http://www.w3.org/2000/svg" xmlns:xlink="http://www.w3.org/1999/xlink" x="0px" y="0px" viewBox="-10 -10 70 70" style="enable-background:new 0 0 50 50;" xml:space="preserve"><rect x="-10" y="-10" width="70" height="70" fill="white"/> <style type="text/css"> .st0{fill:#FFCD00;} .st1{display:none;} .st2{display:inline;fill:none;stroke:#EA008A;stroke-width:0.2;stroke-miterlimit:10;} .st3{font-family:'Roboto-Regular';} .st4{font-size:6px;} </style> <g id="Color"> <path class="st0" d="M28.6211,43.1089c-0.2607-5.1025-4.4941-9.1733-9.6602-9.1733s-9.3994,4.0708-9.6602,9.1733H3.71V27h29.7252 l0.9593,1.9777v14.1312H28.6211z" stroke-width="0"/> <path class="st0" d="M48.8623,37.4014c-0.2354,2.1362-1.2295,4.0688-2.8164,5.4937L35.2178,29.3794 c1.7354-1.2368,3.8311-1.7881,5.9756-1.5503c2.3027,0.2539,4.3682,1.3896,5.8164,3.1978 C48.459,32.835,49.1172,35.0986,48.8623,37.4014z" stroke-width="0"/> <polygon class="st0" points="22.3746,25.3423 7.6299,10.5981 7.6299,25.3423 "/> </g> <g id="ICONS_00000031165542127692736420000002692518830807990202_"> <path d="M46.666,28.9019c-1.6152-2.0166-3.9199-3.2832-6.4883-3.5669c-2.2363-0.2491-4.4258,0.2758-6.2832,1.4738V25 c0-0.2764-0.2236-0.5-0.5-0.5H22.9463L5.9834,7.5376C5.8408,7.395,5.624,7.3521,5.4385,7.4292 C5.252,7.5063,5.1299,7.689,5.1299,7.8911V24.5H1.71c-0.2764,0-0.5,0.2236-0.5,0.5v17.1089c0,0.2764,0.2236,0.5,0.5,0.5h6.5781 c0.2764,0,0.5-0.2236,0.5-0.5c0-4.7827,3.8906-8.6733,8.6729-8.6733s8.6729,3.8906,8.6729,8.6733c0,0.2764,0.2236,0.5,0.5,0.5 h6.7607c0.2764,0,0.5-0.2236,0.5-0.5V29.2322l10.5674,13.1892c0.0996,0.1235,0.2441,0.1875,0.3906,0.1875 c0.1104,0,0.2207-0.0361,0.3125-0.1099c2.0166-1.6157,3.2832-3.9199,3.5664-6.4878C49.0146,33.4429,48.2812,30.918,46.666,28.9019z M6.1299,9.0981L21.5322,24.5H6.1299V9.0981z M27.1211,41.6089c-0.2607-5.1025-4.4941-9.1733-9.6602-9.1733 s-9.3994,4.0708-9.6602,9.1733H2.21V25.5h30.6846v16.1089H27.1211z M47.7373,35.9014c-0.2354,2.1362-1.2295,4.0688-2.8164,5.4937 L34.0928,27.8794c1.7354-1.2368,3.8311-1.7881,5.9756-1.5503c2.3027,0.2539,4.3682,1.3896,5.8164,3.1978 C47.334,31.335,47.9922,33.5986,47.7373,35.9014z" stroke-width="0"/> </g> <g id="Margin" class="st1"> <rect x="1" y="1" class="st2" /> </g> <g id="Guides" class="st1"> </g> <g id="LABELS"> <g> <g> </g> </g> </g> </svg> 