<?xml version="1.0" encoding="UTF-8"?><svg width="70" height="70" xmlns="http://www.w3.org/2000/svg" viewBox="-10 -10 70 70"><rect x="-10" y="-10" width="70" height="70" fill="white"/><g id="uuid-0b82d6f2-a876-4fee-9ed3-63dee06a3a2e"><g><path d="M26.25,17.74c1.2,0,2.35,.25,3.39,.71l.37-.37c-1.45-1.14-3.27-1.83-5.26-1.83-4.69,0-8.51,3.82-8.51,8.51,0,2.73,1.3,5.15,3.3,6.71-1.12-1.44-1.8-3.25-1.8-5.21,0-4.69,3.82-8.51,8.51-8.51Z" fill="none" stroke-width="0"/><path d="M24.75,41.13c9.03,0,16.38-7.35,16.38-16.38,0-4.16-1.57-7.95-4.13-10.84l-4.86,4.86c.95,1.18,1.63,2.59,1.93,4.13,.44,1.03,.69,2.16,.69,3.34,0,4.69-3.82,8.51-8.51,8.51-1.18,0-2.31-.24-3.33-.68-4.37-.86-7.68-4.71-7.68-9.33,0-5.24,4.27-9.51,9.51-9.51,2.26,0,4.34,.8,5.97,2.12l4.86-4.86c-1.51-1.34-3.27-2.4-5.19-3.11-1.33-.33-2.71-.52-4.14-.52-9.58,0-17.38,7.8-17.38,17.38,0,1.42,.19,2.8,.51,4.12,2.3,6.27,8.31,10.76,15.37,10.76Z" fill="none" stroke-width="0"/><path d="M24.75,42.13c-4.41,0-8.43-1.67-11.5-4.38,3.19,3.6,7.83,5.88,13,5.88,9.58,0,17.38-7.8,17.38-17.38,0-5.18-2.29-9.83-5.9-13.01,2.73,3.07,4.4,7.09,4.4,11.51,0,9.58-7.8,17.38-17.38,17.38Z" fill="none" stroke-width="0"/><path d="M24.75,27.69c1.62,0,2.94-1.32,2.94-2.94,0-.44-.11-.86-.28-1.24l-1.95,1.95c-.2,.2-.45,.29-.71,.29s-.51-.1-.71-.29c-.39-.39-.39-1.02,0-1.41l1.68-1.68c-1.92,.26-3.41,1.89-3.41,3.89,0,.05,.01,.1,.02,.16,.53,.77,1.42,1.28,2.42,1.28Z" fill="none" stroke-width="0"/><path d="M24.75,28.69c-.7,0-1.35-.2-1.92-.52,.68,1.2,1.95,2.02,3.42,2.02,2.17,0,3.94-1.77,3.94-3.94,0-1.47-.82-2.74-2.02-3.42,.32,.57,.52,1.22,.52,1.92,0,2.17-1.77,3.94-3.94,3.94Z" fill="none" stroke-width="0"/><path d="M39.06,6.37c.65,.38,1.31,.75,1.96,1.13-1.1,.96-2.19,1.91-3.29,2.87l.46,.98,2.75,1.28,6.23-6.23-3.08-.58c-.2-.04-.36-.2-.4-.4l-.58-3.08-4.25,4.25h0l.21-.21Z" fill="none" stroke-width="0"/><path d="M31.42,19.49h-.01s.03,.04,.05,.05c-.01-.02-.02-.03-.03-.05Z" fill="none" stroke-width="0"/><path d="M41.4,13.58c-.1,.1-.22,.15-.35,.15-.07,0-.14-.02-.21-.05l-2.38-1.11,.41,.86c.05,.11,.14,.19,.24,.24l3.23,1.5c.07,.03,.14,.05,.21,.05,.13,0,.26-.05,.35-.15l2.05-2.05c-.37-.63-.75-1.24-1.17-1.83l-2.38,2.38Z" fill="none" stroke-width="0"/><path d="M26.25,2.87c4.27,0,8.27,1.17,11.72,3.18l.33-.33c-3.83-2.73-8.5-4.35-13.55-4.35C11.86,1.37,1.37,11.86,1.37,24.75c0,6.83,2.94,12.98,7.62,17.26-3.8-4.16-6.12-9.69-6.12-15.76C2.87,13.36,13.36,2.87,26.25,2.87Z" fill="none" stroke-width="0"/><path d="M38.85,6.59h0l-1.97,1.97c.66-.66,1.31-1.31,1.97-1.97Z" fill="#ffcd00" stroke-width="0"/><path d="M37.39,9.65l.34,.72h0l-.34-.72h0Z" fill="#ffcd00" stroke-width="0"/><path d="M36.88,8.56l.52,1.1h0l-.52-1.1Z" fill="#ffcd00" stroke-width="0"/><g><g><path d="M48.34,18.63c.51,1.96,.79,4,.79,6.12,0,13.44-10.94,24.38-24.38,24.38-2.1,0-4.13-.27-6.08-.77,2.38,.82,4.92,1.27,7.58,1.27,12.89,0,23.38-10.49,23.38-23.38,0-2.67-.46-5.23-1.29-7.62Z" fill="#ffcd00" stroke-width="0"/><path d="M36.09,45.61c8-4.2,12-13.29,12.04-20.86,.01-1.86-.22-3.41-.43-4.48-.83-4.21-2.66-7.3-3.91-9.07-.74,.48-1.47,.96-2.21,1.44l-.74,.48-2.38-.54-.08-.04-.67,.67s.02,.02,.03,.03c1.25,1.46,3.58,4.58,4.23,9.1,.29,2.02,.14,3.57,.1,3.95-.83,7.79-8.99,15.65-17.04,15.85-2.64,.07-5.11-.7-5.46-.8-3.06-.97-5.17-2.57-6.32-3.59-3.6-3.19-5.88-7.83-5.88-13C7.37,15.17,15.17,7.37,24.75,7.37c4.43,0,8.47,1.68,11.54,4.42l.68-.68-1.15-2.45c-.09-.19-.05-.42,.1-.57l.17-.17,1.89-1.89c-3.45-2.01-7.45-3.18-11.72-3.18C13.36,2.87,2.87,13.36,2.87,26.25c0,6.07,2.32,11.6,6.12,15.76,2.68,2.45,5.93,4.29,9.53,5.28,.78,.22,3.11,.82,6.23,.84,1.69,.01,6.53,0,11.34-2.52Z" fill="#ffcd00" stroke-width="0"/></g><path d="M26.25,17.74c-4.7,0-8.51,3.81-8.51,8.51s3.81,8.51,8.51,8.51,8.51-3.81,8.51-8.51-3.81-8.51-8.51-8.51Zm-1.5,9.94c-1.62,0-2.93-1.31-2.93-2.93s1.31-2.93,2.93-2.93,2.93,1.31,2.93,2.93-1.31,2.93-2.93,2.93Z" fill="#ffcd00" stroke-width="0"/></g><path d="M48.34,18.63c-.77-2.97-2.09-5.73-3.84-8.15l4.04-4.04c.13-.13,.18-.32,.12-.5s-.2-.31-.38-.34l-2.49-.47,1.26-1.26c.39-.39,.39-1.02,0-1.41s-1.02-.39-1.41,0l-1.26,1.26-.47-2.49c-.03-.18-.17-.33-.34-.38-.18-.05-.37,0-.5,.12l-4.04,4.04C35,2.09,30.08,.37,24.75,.37,11.31,.37,.37,11.31,.37,24.75c0,11.35,7.79,20.91,18.31,23.61,1.94,.5,3.98,.77,6.08,.77,13.44,0,24.38-10.94,24.38-24.38,0-2.11-.28-4.16-.79-6.12ZM43.1,2.33l.58,3.08c.04,.2,.2,.36,.4,.4l3.08,.58-6.23,6.23-2.75-1.28-.46-.98-.34-.72-.52-1.1,1.97-1.97,4.25-4.25ZM24.04,25.46c.2,.2,.45,.29,.71,.29s.51-.1,.71-.29l1.95-1.95c.18,.38,.28,.8,.28,1.24,0,1.62-1.32,2.94-2.94,2.94-1,0-1.89-.51-2.42-1.28-.32-.47-.52-1.04-.52-1.66,0-1.62,1.32-2.94,2.94-2.94,.44,0,.86,.11,1.24,.28l-.27,.27-1.68,1.68c-.39,.39-.39,1.02,0,1.41Zm2.68-4.1c-.58-.34-1.25-.55-1.97-.55-2.17,0-3.94,1.77-3.94,3.94,0,1.47,.82,2.74,2.02,3.42,.57,.32,1.22,.52,1.92,.52,2.17,0,3.94-1.77,3.94-3.94,0-.7-.2-1.35-.52-1.92,0-.02-.02-.04-.03-.05l3.27-3.27h.01s.02,.02,.03,.04c1.12,1.44,1.8,3.25,1.8,5.21,0,4.69-3.82,8.51-8.51,8.51-1.96,0-3.77-.68-5.21-1.8-2-1.56-3.3-3.98-3.3-6.71,0-4.69,3.82-8.51,8.51-8.51,1.99,0,3.81,.69,5.26,1.83l-.37,.37-2.91,2.91Zm4-4c-1.63-1.32-3.71-2.12-5.97-2.12-5.24,0-9.51,4.27-9.51,9.51,0,4.62,3.31,8.47,7.68,9.33,.59,.12,1.21,.18,1.83,.18,5.24,0,9.51-4.27,9.51-9.51,0-.63-.07-1.25-.19-1.84-.31-1.54-.98-2.95-1.93-4.13l4.86-4.86c2.56,2.89,4.13,6.68,4.13,10.84,0,9.03-7.35,16.38-16.38,16.38-7.06,0-13.07-4.49-15.37-10.76-.64-1.76-1.01-3.64-1.01-5.62,0-9.03,7.35-16.38,16.38-16.38,1.99,0,3.88,.37,5.64,1.02,1.92,.71,3.68,1.77,5.19,3.11l-4.86,4.86Zm-5.97,30.77c-6.07,0-11.6-2.32-15.76-6.12C4.31,37.73,1.37,31.58,1.37,24.75,1.37,11.86,11.86,1.37,24.75,1.37c5.05,0,9.73,1.61,13.55,4.35l-.33,.33-2.05,2.05c-.15,.15-.19,.38-.1,.57l1.15,2.45-.68,.68c-3.07-2.74-7.11-4.42-11.54-4.42C15.17,7.37,7.37,15.17,7.37,24.75c0,5.17,2.28,9.81,5.88,13,3.07,2.72,7.09,4.38,11.5,4.38,9.58,0,17.38-7.8,17.38-17.38,0-4.42-1.67-8.44-4.4-11.51,0-.01-.02-.02-.03-.03l.67-.67,.08,.04,2.38,1.11c.07,.03,.14,.05,.21,.05,.13,0,.26-.05,.35-.15l2.38-2.38c.42,.59,.8,1.2,1.17,1.83,2.01,3.45,3.18,7.45,3.18,11.72,0,12.89-10.49,23.38-23.38,23.38Z" stroke-width="0"/></g></g><g id="uuid-1b04736c-b0f6-4c6d-a484-743e276d01ec"></g></svg>