<?xml version="1.0" encoding="UTF-8"?><svg width="70" height="70" id="uuid-95adfad8-614b-42e1-8113-347cdfbe12d1" xmlns="http://www.w3.org/2000/svg" viewBox="-10 -10 70 70"><rect x="-10" y="-10" width="70" height="70" fill="white"/><path d="M37.15,47.08l3.07,.06c-.43-.09-.95-.15-1.71-.15-.57,0-1,.04-1.36,.09Z" stroke-width="0"/><path d="M12.66,46.71c.57,0,1-.04,1.36-.09l-3.07-.06c.43,.09,.95,.15,1.71,.15Z" stroke-width="0"/><path d="M49.25,44.03c.18-.74,.35-1.43,.28-2.07-.08-.66-.41-1.3-.76-1.99-.33-.64-.67-1.31-.81-2.03-.14-.73-.07-1.49,0-2.21,.07-.76,.14-1.47-.03-2.09-.17-.64-.59-1.23-1.04-1.85-.42-.59-.86-1.19-1.1-1.89-.25-.7-.29-1.46-.33-2.18-.04-.76-.08-1.48-.34-2.07-.27-.61-.77-1.13-1.31-1.68-.5-.52-1.03-1.05-1.37-1.69-.35-.65-.51-1.39-.66-2.1-.16-.75-.31-1.45-.66-2-.36-.56-.94-.99-1.56-1.45-.58-.43-1.18-.87-1.62-1.45-.45-.59-.72-1.29-.98-1.96-.28-.71-.54-1.39-.98-1.87-.45-.49-1.09-.82-1.78-1.17-.64-.33-1.3-.67-1.83-1.16-.54-.5-.92-1.14-1.29-1.76-.4-.66-.77-1.28-1.29-1.69-.52-.41-1.15-.6-1.82-.81-.54-.16-1.09-.33-1.62-.62-.53,.29-1.08,.46-1.62,.62-.67,.2-1.3,.4-1.82,.81-.52,.41-.89,1.03-1.29,1.69-.37,.62-.75,1.26-1.29,1.76-.53,.5-1.19,.83-1.83,1.16-.69,.35-1.33,.68-1.78,1.17-.44,.49-.7,1.16-.98,1.87-.26,.68-.53,1.37-.98,1.96-.44,.58-1.04,1.02-1.62,1.45-.62,.46-1.2,.89-1.56,1.45-.35,.55-.5,1.25-.66,2-.15,.71-.31,1.45-.66,2.1-.35,.64-.87,1.18-1.37,1.69-.54,.55-1.04,1.07-1.31,1.68-.26,.59-.3,1.31-.34,2.07-.04,.73-.08,1.48-.33,2.18-.24,.69-.68,1.3-1.1,1.89-.45,.62-.87,1.21-1.04,1.85-.17,.63-.1,1.34-.03,2.09,.07,.73,.14,1.48,0,2.21-.14,.72-.48,1.39-.81,2.03-.35,.68-.68,1.33-.76,1.99-.07,.64,.1,1.34,.28,2.07,.1,.39,.19,.78,.25,1.18l5.35-4.95c1.29-1.05,3.16-.86,4.19,.4,.5,.61,.73,1.38,.65,2.17s-.46,1.5-1.07,2l-3.54,3.09c.71,.07,1.2,.2,1.66,.33,.24,.07,.48,.13,.74,.19l3.07,.06c.42-.06,.75-.16,1.09-.25,.67-.19,1.36-.38,2.72-.38s2.05,.19,2.72,.38c.63,.18,1.23,.34,2.45,.34s1.82-.17,2.45-.34c.67-.19,1.36-.38,2.72-.38s2.05,.19,2.72,.38c.63,.18,1.23,.34,2.45,.34s1.82-.17,2.45-.34c.67-.19,1.36-.38,2.72-.38s2.05,.19,2.72,.38c.38,.11,.75,.21,1.24,.27l-3.48-3.74c-1.21-1.03-1.36-2.92-.29-4.17,1.07-1.25,2.96-1.4,4.21-.33l5.3,4.84c.06-.37,.15-.74,.24-1.1Z" fill="#ffcd00" stroke-width="0"/><path d="M48.77,40.1c-.1-.84-.48-1.6-.86-2.33-.31-.61-.61-1.18-.72-1.76-.11-.59-.05-1.24,.02-1.93,.08-.81,.16-1.65-.06-2.45-.22-.82-.71-1.51-1.19-2.18-.4-.55-.77-1.08-.97-1.63-.2-.57-.23-1.22-.27-1.91-.04-.82-.09-1.66-.42-2.42-.34-.77-.94-1.38-1.51-1.97-.48-.49-.93-.95-1.21-1.47-.28-.53-.42-1.16-.56-1.84-.17-.8-.35-1.63-.8-2.33-.46-.71-1.14-1.22-1.81-1.71-.55-.41-1.06-.79-1.42-1.26-.36-.47-.6-1.08-.84-1.72-.3-.77-.6-1.56-1.17-2.18-.57-.63-1.33-1.02-2.07-1.4-.6-.31-1.18-.6-1.6-1-.43-.41-.77-.96-1.12-1.54-.42-.71-.86-1.44-1.53-1.96-.67-.52-1.42-.75-2.14-.98-.59-.18-1.14-.35-1.64-.67-.17-.11-.38-.11-.54,0-.49,.32-1.05,.49-1.64,.67-.72,.22-1.47,.45-2.14,.98-.66,.52-1.1,1.25-1.53,1.96-.35,.58-.68,1.14-1.12,1.54-.43,.4-1,.69-1.6,1-.74,.38-1.5,.77-2.07,1.4-.56,.62-.87,1.41-1.17,2.18-.25,.64-.48,1.24-.84,1.72-.36,.47-.87,.85-1.42,1.26-.66,.49-1.35,1-1.81,1.71-.45,.7-.63,1.53-.8,2.33-.14,.67-.28,1.31-.56,1.84-.28,.52-.73,.98-1.2,1.47-.58,.59-1.17,1.2-1.51,1.97-.33,.76-.38,1.6-.42,2.42-.04,.69-.07,1.34-.27,1.91-.19,.56-.57,1.08-.97,1.63-.48,.67-.97,1.36-1.19,2.18-.21,.8-.13,1.64-.05,2.45,.07,.69,.13,1.34,.02,1.93-.11,.58-.4,1.15-.72,1.76-.38,.73-.76,1.49-.86,2.33-.09,.82,.11,1.64,.3,2.43,.17,.67,.32,1.31,.3,1.91,0,.21,.12,.4,.3,.48,.19,.11,.43,.1,.59-.05l6.04-5.59c.84-.68,2.08-.56,2.76,.28,.33,.4,.48,.91,.43,1.44-.05,.53-.31,1-.72,1.34l-4.34,3.78c-.19,.16-.21,.43-.09,.63,.05,.22,.24,.39,.48,.39,1.22,0,1.82,.17,2.45,.34,.67,.19,1.36,.38,2.72,.38s2.05-.19,2.72-.38c.63-.18,1.23-.34,2.45-.34s1.82,.17,2.45,.34c.67,.19,1.36,.38,2.72,.38s2.05-.19,2.72-.38c.63-.18,1.23-.34,2.45-.34s1.82,.17,2.45,.34c.67,.19,1.36,.38,2.72,.38s2.05-.19,2.72-.38c.34-.09,.67-.19,1.09-.25,.36-.06,.79-.09,1.36-.09,.76,0,1.28,.06,1.71,.15,.27,.06,.5,.12,.74,.19,.66,.18,1.34,.37,2.65,.38,.03,0,.06,.02,.09,.02,.12,0,.24-.04,.34-.13,.2-.19,.21-.5,.03-.71l-4.38-4.71c-.83-.71-.93-1.97-.22-2.8,.71-.83,1.97-.93,2.79-.23l5.99,5.48c.1,.12,.24,.2,.41,.19,.28-.01,.49-.25,.48-.52-.03-.61,.13-1.24,.3-1.91,.2-.79,.4-1.6,.3-2.43Zm-11.02-1.23c-1.07,1.25-.92,3.14,.29,4.17l3.48,3.74c-.5-.07-.86-.17-1.24-.27-.67-.19-1.36-.38-2.72-.38s-2.05,.19-2.72,.38c-.63,.18-1.23,.34-2.45,.34s-1.82-.17-2.45-.34c-.67-.19-1.36-.38-2.72-.38s-2.05,.19-2.72,.38c-.63,.18-1.23,.34-2.45,.34s-1.82-.17-2.45-.34c-.67-.19-1.36-.38-2.72-.38s-2.05,.19-2.72,.38c-.34,.09-.67,.19-1.09,.25-.36,.06-.79,.09-1.36,.09-.76,0-1.27-.06-1.71-.15-.27-.06-.5-.12-.74-.19-.47-.13-.95-.26-1.66-.33l3.54-3.09c.61-.5,.99-1.21,1.07-2s-.15-1.56-.65-2.17c-1.03-1.26-2.9-1.45-4.19-.4l-5.35,4.95c-.06-.4-.16-.79-.25-1.18-.18-.73-.35-1.43-.28-2.07,.08-.66,.41-1.31,.76-1.99,.33-.64,.67-1.31,.81-2.03,.14-.73,.07-1.49,0-2.21-.07-.75-.14-1.47,.03-2.09,.17-.64,.59-1.23,1.04-1.85,.42-.59,.86-1.19,1.1-1.89,.25-.7,.29-1.46,.33-2.18,.04-.76,.08-1.48,.34-2.07,.27-.61,.77-1.13,1.31-1.68,.5-.52,1.03-1.05,1.37-1.69,.35-.65,.51-1.39,.66-2.1,.16-.75,.31-1.45,.66-2,.36-.56,.94-.99,1.56-1.45,.58-.43,1.18-.87,1.62-1.45,.45-.59,.72-1.29,.98-1.96,.28-.71,.54-1.39,.98-1.87,.45-.49,1.09-.82,1.78-1.17,.64-.33,1.3-.67,1.83-1.16,.54-.5,.92-1.14,1.29-1.76,.39-.66,.77-1.28,1.29-1.69,.52-.41,1.15-.6,1.82-.81,.54-.16,1.09-.33,1.62-.62,.53,.29,1.08,.46,1.62,.62,.67,.2,1.29,.4,1.82,.81,.52,.41,.89,1.03,1.29,1.69,.37,.62,.75,1.26,1.29,1.76,.53,.5,1.19,.83,1.83,1.16,.69,.35,1.33,.68,1.78,1.17,.44,.49,.7,1.16,.98,1.87,.26,.68,.53,1.37,.98,1.96,.44,.58,1.04,1.02,1.62,1.45,.62,.46,1.2,.89,1.56,1.45,.35,.55,.5,1.25,.66,2,.15,.71,.31,1.45,.66,2.1,.35,.64,.87,1.18,1.37,1.69,.54,.55,1.04,1.07,1.31,1.68,.26,.59,.3,1.31,.34,2.07,.04,.73,.08,1.48,.33,2.18,.24,.69,.68,1.3,1.1,1.89,.45,.62,.87,1.21,1.04,1.85,.17,.63,.1,1.34,.03,2.09-.07,.73-.14,1.48,0,2.21,.14,.72,.48,1.39,.81,2.03,.35,.68,.68,1.33,.76,1.99,.07,.64-.1,1.34-.28,2.07-.09,.36-.18,.73-.24,1.1l-5.3-4.84c-1.25-1.07-3.14-.92-4.21,.33Z" stroke-width="0"/></svg>