<?xml version="1.0" encoding="UTF-8"?><svg width="70" height="70" xmlns="http://www.w3.org/2000/svg" viewBox="-10 -10 70 70"><rect x="-10" y="-10" width="70" height="70" fill="white"/><g id="uuid-f23125de-e9ac-4164-9e95-5aee9a48d35a"><g><path d="M47.86,24.43L26.87,3.45c-.19-.19-.52-.19-.71,0l-3.75,3.75c-.09,.09-.15,.22-.15,.35s.05,.26,.15,.35l14.34,14.34c.14,.14,.19,.36,.11,.54-.08,.19-.26,.31-.46,.31H3.91v6.3H36.4c.2,0,.38,.12,.46,.31,.08,.19,.03,.4-.11,.54l-14.34,14.34c-.09,.09-.15,.22-.15,.35s.05,.26,.15,.35l3.75,3.75c.19,.19,.52,.19,.71,0l20.99-20.99c.48-.48,.74-1.12,.73-1.81,.01-.7-.25-1.34-.73-1.82Z" fill="#ffcd00" stroke-width="0"/><path d="M47.06,22.23L26.08,1.24c-.57-.57-1.56-.57-2.12,0l-3.75,3.75c-.28,.28-.44,.66-.44,1.06s.16,.78,.44,1.06l13.49,13.49H1.91c-.28,0-.5,.22-.5,.5v7.3c0,.28,.22,.5,.5,.5h31.78l-13.49,13.48c-.28,.28-.44,.66-.44,1.06s.16,.78,.44,1.06l3.75,3.75c.28,.28,.66,.44,1.06,.44s.78-.16,1.06-.44l20.99-20.99c.67-.67,1.04-1.57,1.02-2.51,.01-.96-.35-1.85-1.02-2.53Zm-.71,4.33l-20.99,20.99c-.19,.19-.52,.19-.71,0l-3.75-3.75c-.09-.09-.15-.22-.15-.35s.05-.26,.15-.35l14.34-14.34c.14-.14,.19-.36,.11-.54-.08-.19-.26-.31-.46-.31H2.41v-6.3H34.9c.2,0,.38-.12,.46-.31,.08-.19,.03-.4-.11-.54L20.91,6.4c-.09-.09-.15-.22-.15-.35s.05-.26,.15-.35l3.75-3.75c.19-.19,.52-.19,.71,0l20.99,20.99c.48,.48,.74,1.12,.73,1.82,.01,.68-.25,1.33-.73,1.81Z" stroke-width="0"/></g></g><g id="uuid-ba22fd4a-f8d7-43fc-94eb-3e1a8d63db11"></g></svg>