<?xml version="1.0" encoding="UTF-8"?><svg width="70" height="70" id="uuid-91e9e5ef-3e06-4b3a-9119-6ef918c0dd78" xmlns="http://www.w3.org/2000/svg" viewBox="-10 -10 70 70"><rect x="-10" y="-10" width="70" height="70" fill="white"/><path d="M49.47,34.89c0-4.71,0-9.43,0-14.14-1.34-.07-2.69-.13-4.03-.2v-6.99h-10.55v6.57h-7.59c-2.79-1.19-5.59-2.38-8.38-3.57H7.61v3.57H3.03v15.87H14.1v2.95h6.58v-2.95h15.16c4.54-.37,9.09-.74,13.63-1.11Z" fill="#ffcd00" stroke-width="0"/><g><path d="M5.11,28.36v-1.3h-1.06v5h3.48v-3.11h-1.92c-.28,0-.5-.22-.5-.5v-.09Z" fill="none" stroke-width="0"/><path d="M16.63,21.13h-3.74c-.28,0-.5-.22-.5-.5v-5.57h-1.45v12.81h5.68v-6.74Z" fill="none" stroke-width="0"/><rect x="13.4" y="15.05" width="3.47" height="5.07" fill="none"/><rect x="6.11" y="26.12" width="3.84" height="1.74" fill="none"/><rect x="6.11" y="15.05" width="3.84" height="10.06" fill="none"/><polygon points="20.14 22.24 17.86 21.97 17.86 27.76 20.14 27.33 20.14 22.24" fill="none"/><path d="M29.9,27.06h-3.04s-.02,0-.02,0v4.99h3.06v-5Z" fill="none" stroke-width="0"/><polygon points="26.15 18.77 17.86 15.31 17.86 20.96 26.15 21.93 26.15 18.77" fill="none"/><polygon points="23.27 22.6 21.14 22.35 21.14 27.14 23.27 26.74 23.27 22.6" fill="none"/><polygon points="21.78 28.04 20.18 28.34 20.18 32.06 21.78 32.06 21.78 28.04" fill="none"/><polygon points="25.84 27.28 22.78 27.85 22.78 32.06 25.84 32.06 25.84 27.28" fill="none"/><polygon points="26.15 22.94 24.27 22.72 24.27 26.55 26.15 26.2 26.15 22.94" fill="none"/><polygon points="43.94 12.05 33.39 12.05 33.39 17.62 34.84 17.62 34.86 17.63 34.86 17.63 43.94 18.06 43.94 12.05" fill="none"/><rect x="27.15" y="18.62" width="7.19" height="7.44" fill="none"/><path d="M47.97,19.25l-12.63-.6v15.8l6.39-.53v-6.92c0-.28,.22-.5,.5-.5h5.74v-7.25Z" fill="none" stroke-width="0"/><rect x="30.9" y="27.06" width="3.44" fill="none"/><polygon points="5.11 25.62 5.11 18.62 1.53 18.62 1.53 26.06 5.11 26.06 5.11 25.62" fill="none"/><polygon points="42.73 33.79 47.97 33.39 47.97 27.51 42.73 27.51 42.73 33.79" fill="none"/><rect x="1.53" y="33.06" width="10.12" height="1.43" fill="none"/><rect x="20.18" y="33.06" width="14.16" height="1.43" fill="none"/><rect x="1.53" y="27.06" width="1.52" fill="none"/><path d="M17.72,28.8c-.09,.09-.22,.15-.36,.15h-4.72v8.5h6.54v-8.92l-1.46,.28Z" fill="none" stroke-width="0"/><rect x="8.53" y="28.95" width="3.11" height="3.11" fill="none"/><path d="M48.97,25.89v-7.12c0-.27-.21-.49-.48-.5l-3.55-.17v-6.56c0-.28-.22-.5-.5-.5h-11.55c-.28,0-.5,.22-.5,.5v6.07h-6.39l-8.44-3.53c-.06-.03-.13-.04-.2-.04H5.61c-.28,0-.5,.22-.5,.5v3.07H1.03c-.28,0-.5,.22-.5,.5v16.87c0,.28,.22,.5,.5,.5H11.64v2.45c0,.28,.22,.5,.5,.5h7.54c.28,0,.5-.22,.5-.5v-2.45h14.66s.03,0,.04,0l7.39-.61c.08,0,.15-.04,.21-.07l6.03-.46c.26-.02,.46-.24,.46-.5v-7.96h0Zm-22.13,1.17s.02,0,.02,0h3.04v5h-3.06v-4.99Zm-8.98-11.76l8.28,3.46v3.16l-8.28-.97v-5.66Zm2.32,13.04l1.6-.3v4.02h-1.6v-3.72Zm.96-1.2v-4.79l2.13,.25v4.14l-2.13,.4Zm1.64,.71l3.06-.58v4.79h-3.06v-4.21Zm1.49-1.3v-3.84l1.87,.22v3.26l-1.87,.35Zm-6.41-4.59l2.28,.27v5.1l-2.28,.43v-5.79Zm-4.47-6.91h3.47v5.07h-3.47v-5.07Zm-2.45,10.56V15.05h1.45v5.57c0,.28,.22,.5,.5,.5h3.74v6.74h-5.68v-2.24ZM6.11,15.05h3.84v10.06h-3.84V15.05Zm0,11.06h3.84v1.74h-3.84v-1.74Zm-.5,2.84h1.92v3.11h-3.48v-5h1.06v1.39c0,.28,.22,.5,.5,.5ZM1.53,18.62h3.58v7.44H1.53v-7.44Zm0,8.44h1.52v5H1.53v-5Zm10.12,7.44H1.53v-1.43H11.64v1.43Zm-3.11-2.43v-3.11h3.11v3.11h-3.11Zm10.65,5.39h-6.54v-8.5h4.72c.14,0,.27-.06,.36-.15l1.46-.28v8.92Zm15.16-2.95h-14.16v-1.43h14.16v1.43Zm0-2.43h-3.44v-5h3.44v5Zm0-6h-7.19v-7.44h7.19v7.44Zm.52-8.44h-1.47v-5.58h10.55v6.01l-9.08-.43Zm7.37,8.88c-.28,0-.5,.22-.5,.5v6.92l-6.39,.53v-15.8l12.63,.6v7.25h-5.74Zm5.75,6.88l-5.25,.4v-6.29h5.25v5.88Z" stroke-width="0"/></g></svg>