<?xml version="1.0" encoding="UTF-8"?><svg width="70" height="70" xmlns="http://www.w3.org/2000/svg" viewBox="-10 -10 70 70"><rect x="-10" y="-10" width="70" height="70" fill="white"/><g id="uuid-4ee1daa8-3e1a-48a8-bdee-3a4fdffad278"><g><circle cx="25.5" cy="25.5" r="2.92" fill="#ffcd00"/><g><path d="M47.25,13.69c-1.66-3.27-6.85-4.18-13.53-2.9C31.84,4.26,28.66,.04,25,.04s-6.84,4.23-8.73,10.77c-1.18-.22-2.33-.4-3.43-.48-5.2-.42-8.78,.77-10.09,3.36-1.5,2.95,.25,7.11,4.28,11.31-4.03,4.2-5.78,8.35-4.28,11.31,1.14,2.25,3.99,3.44,8.13,3.44,.62,0,1.28-.03,1.96-.08,1.1-.09,2.25-.26,3.43-.48,1.88,6.55,5.06,10.78,8.73,10.78s6.84-4.23,8.73-10.78c1.18,.22,2.33,.4,3.43,.48,.68,.05,1.34,.08,1.96,.08,4.13,0,6.99-1.19,8.13-3.44,1.5-2.95-.25-7.11-4.28-11.31,4.03-4.2,5.78-8.35,4.28-11.31Zm-.89,.45c1.27,2.5-.45,6.26-4.13,10.11-1.92-1.88-4.29-3.75-7.01-5.52-.26-2.48-.68-4.81-1.22-6.91,6.13-1.15,10.95-.44,12.36,2.33Zm-17.03,19.36c-1.44,.73-2.89,1.4-4.32,1.99-1.44-.59-2.88-1.25-4.32-1.99-1.74-.88-3.39-1.83-4.93-2.83-.18-1.83-.29-3.73-.29-5.68s.1-3.85,.29-5.68c1.55-.99,3.2-1.94,4.93-2.83,1.45-.74,2.9-1.4,4.33-1.98,1.43,.59,2.88,1.25,4.32,1.98,1.74,.88,3.39,1.83,4.93,2.83,.18,1.83,.29,3.73,.29,5.68s-.1,3.85-.29,5.68c-1.55,.99-3.2,1.94-4.93,2.83Zm4.79-1.54c-.27,2.15-.66,4.18-1.15,6.04-2.13-.46-4.36-1.14-6.63-2,1.15-.5,2.3-1.02,3.45-1.61,1.52-.77,2.97-1.59,4.34-2.43Zm-10.44,4.04c-2.27,.86-4.5,1.54-6.63,2-.49-1.86-.88-3.89-1.15-6.04,1.37,.84,2.82,1.66,4.34,2.43,1.15,.58,2.3,1.11,3.45,1.61Zm-9.01-6.04c-2.36-1.6-4.43-3.28-6.15-4.97,1.72-1.68,3.79-3.37,6.15-4.97-.13,1.6-.2,3.26-.2,4.97s.07,3.37,.2,4.97Zm1.23-11.93c.27-2.15,.66-4.18,1.15-6.04,2.13,.46,4.36,1.14,6.63,2-1.14,.49-2.29,1.02-3.45,1.61-1.52,.77-2.97,1.59-4.34,2.43Zm10.46-4.03c2.29-.86,4.52-1.53,6.62-1.98,.49,1.85,.88,3.87,1.15,6.01-1.37-.84-2.82-1.66-4.34-2.43-1.14-.58-2.29-1.11-3.43-1.6Zm9,6.03c2.36,1.6,4.43,3.28,6.15,4.97-1.72,1.68-3.79,3.37-6.15,4.97,.13-1.6,.2-3.26,.2-4.97s-.07-3.37-.2-4.97ZM25,1.04c3.11,0,5.93,3.98,7.69,9.97-2.43,.53-5.02,1.33-7.7,2.42-2.63-1.06-5.22-1.86-7.68-2.4,1.75-6,4.58-9.99,7.69-9.99ZM3.64,14.14c.95-1.87,3.56-2.89,7.27-2.89,.59,0,1.2,.03,1.85,.08,1.04,.08,2.13,.25,3.25,.46-.55,2.12-.97,4.45-1.23,6.94-2.72,1.77-5.09,3.64-7.01,5.52-3.68-3.85-5.4-7.6-4.13-10.11Zm9.12,24.52c-4.69,.38-8.02-.65-9.12-2.81-1.27-2.5,.45-6.25,4.13-10.1,1.92,1.88,4.29,3.75,7.01,5.52,.26,2.49,.68,4.83,1.23,6.94-1.12,.21-2.21,.37-3.25,.46Zm12.24,10.29c-3.12,0-5.94-3.98-7.69-9.99,2.47-.54,5.06-1.35,7.69-2.41,2.63,1.06,5.23,1.87,7.69,2.41-1.75,6-4.58,9.99-7.69,9.99Zm21.36-13.1c-1.1,2.17-4.43,3.19-9.12,2.81-1.04-.08-2.13-.25-3.25-.46,.55-2.12,.97-4.45,1.23-6.94,2.72-1.77,5.09-3.64,7.01-5.52,3.68,3.85,5.4,7.6,4.13,10.1Z" stroke-width="0"/><path d="M25,21.08c-2.16,0-3.92,1.76-3.92,3.92s1.76,3.92,3.92,3.92,3.92-1.76,3.92-3.92-1.76-3.92-3.92-3.92Zm0,6.84c-1.61,0-2.92-1.31-2.92-2.92s1.31-2.92,2.92-2.92,2.92,1.31,2.92,2.92-1.31,2.92-2.92,2.92Z" stroke-width="0"/></g></g></g><g id="uuid-6d9b1732-fcd8-4ce3-9b47-73d22035107b"></g></svg>