<?xml version="1.0" encoding="UTF-8"?><svg width="70" height="70" xmlns="http://www.w3.org/2000/svg" viewBox="-10 -10 70 70"><rect x="-10" y="-10" width="70" height="70" fill="white"/><g id="uuid-b094d4f6-872a-4c45-8619-842c636a1bd2"><path d="M30.62,31.91c-.17-.16-.21-.42-.09-.62,1.73-2.77,3.15-5.53,3.9-7.57,.33-.9,.52-1.64,.55-2.14,.23-4.42-1.18-12.55-3.93-15.23-1.05-1.03-2.78-2.2-5.09-2.23h-.38c-1.74,0-3.42,.74-4.86,2.14-.8,.78-1.49,2.04-2.06,3.53,1.61-1.19,3.41-1.79,5.36-1.75h.21c2.8-.03,4.87,1.32,6.14,2.45,.06,.05,.11,.1,.17,.16-.91,2.33-3.91,7.24-6.63,11.38-1.52-2.13-2.93-4.21-4.08-6.07-.85-1.37-1.51-2.53-2-3.5-.8,3.13-1.17,6.64-1.04,9.05,.09,1.74,1.79,5.36,4.53,9.68l.06,.09c.12,.2,.09,.45-.08,.62-.13,.12-8.65,8-10.17,9.4,.78,2.89,1.95,7.11,2.44,8.65,1.79-1.66,8.1-7.84,11.79-11.69l.2-.22c.09-.1,.2-.17,.36-.16,.13,0,.26,.05,.35,.15,3.72,3.88,10.11,10.16,11.92,11.83,.49-1.55,1.66-5.76,2.44-8.66-1.47-1.36-9.93-9.19-10.02-9.28Z" fill="#ffcd00" stroke-width="0"/><path d="M39.78,38.74l-8.64-8c-.59-.55-1.01-.93-1.31-1.19,1.67-2.72,3.04-5.4,3.78-7.42,.37-1.01,.58-1.82,.61-2.43,.25-4.71-1.24-13.08-4.23-15.99-1.17-1.15-3.12-2.51-5.73-2.51h-.06v.5l-.15-.5h-.23c-2.01,0-3.92,.84-5.55,2.42-2.99,2.92-4.48,11.28-4.23,15.99,.1,1.9,1.74,5.49,4.52,9.89-1.36,1.26-6.96,6.43-10.08,9.32-.14,.13-.19,.32-.14,.5,2.7,10.01,2.77,10.01,3.26,10.01,.62,0,11.19-10.77,12.57-12.18,2.03,2.08,11.88,12.1,12.48,12.1,.51,0,.56,0,3.26-10.01,.05-.18,0-.37-.14-.5ZM18.98,4.34c1.43-1.4,3.11-2.14,4.85-2.14h.38c2.27,0,4.04,1.2,5.08,2.23,1.36,1.33,2.4,4,3.06,6.89-.28-.41-.56-.79-.86-1.11,0-.01,0-.03-.02-.04-.02-.03-.05-.05-.07-.07-.01-.01-.03-.03-.04-.05,0,0-.02-.01-.03-.02-.1-.1-.2-.21-.3-.3-1.4-1.24-3.71-2.74-6.88-2.7h-.11c-2.49-.06-4.8,.83-6.79,2.6-.34,.31-.68,.68-1,1.1h0v.02c-.12,.15-.23,.31-.34,.47,.67-2.89,1.7-5.56,3.06-6.89Zm4.93,17.67c-1.52-2.13-2.93-4.21-4.08-6.07-1.28-2.06-2.18-3.71-2.61-4.82,.23-.28,.46-.53,.7-.74,1.8-1.6,3.85-2.4,6.1-2.35h.21c2.8-.03,4.87,1.32,6.14,2.45,.06,.05,.11,.1,.17,.16-.91,2.33-3.91,7.24-6.63,11.38Zm-8.86-2.44c-.07-1.38,.02-3.13,.26-4.95,.38-.97,.8-1.82,1.24-2.53,.51,1.12,1.31,2.59,2.43,4.39,1.22,1.97,2.73,4.19,4.36,6.46-1.56,2.36-3.17,4.61-4.08,5.79-2.55-4.08-4.12-7.48-4.21-9.15Zm-3.22,28.42c-.49-1.56-1.65-5.75-2.43-8.63,1.36-1.25,8.15-7.53,9.8-9.06,.03-.02,.07-.03,.09-.06,.05-.05,.12-.12,.2-.21l.08-.07s.02-.04,.04-.06c.9-1.06,2.92-3.89,4.71-6.61,.03-.05,.05-.1,.06-.15,1.34-2.03,5.45-8.33,6.9-11.66,.6,.81,1.16,1.85,1.67,3.12,0,.01,.02,.02,.02,.03,.25,1.86,.34,3.64,.27,5.04-.03,.49-.21,1.23-.55,2.13-.75,2.02-2.16,4.76-3.87,7.52-.01,.02-.03,.03-.04,.04-1.67,2.69-3.42,5.07-4.94,6.71,0,.01-.01,.02-.02,.04l-.2,.21c-3.68,3.84-9.98,10.01-11.78,11.68Zm24.62-.09c-1.78-1.64-7.85-7.6-11.59-11.49,1.39-1.55,2.94-3.66,4.44-6.02,1.74,1.61,8.3,7.68,9.59,8.88-.78,2.88-1.94,7.08-2.43,8.63Z" stroke-width="0"/></g><g id="uuid-f4e896f4-3e00-4999-98c6-b2e609f6a181"></g></svg>