<?xml version="1.0" encoding="UTF-8"?><svg width="70" height="70" xmlns="http://www.w3.org/2000/svg" viewBox="-10 -10 70 70"><rect x="-10" y="-10" width="70" height="70" fill="white"/><g id="uuid-60dba65d-0469-4665-b79a-ad8d16318235"><g><path d="M35.49,31.67l2-.28c.16-.02,.3-.12,.38-.27l.62-1.23c-.14-.04-.27-.12-.33-.26l-.88-1.82-.91,1.8c-.07,.15-.22,.25-.38,.27l-2,.28,1.43,1.42c.12,.12,.17,.28,.14,.44l-.36,1.99,1.73-.9s-.01-.02-.02-.03l-1.43-1.42Z" fill="none" stroke-width="0"/><path d="M33.6,39.12l-1.05,2.37c-.08,.19-.27,.3-.46,.3-.07,0-.14-.01-.2-.04-.25-.11-.37-.41-.25-.66l1.05-2.37s.05-.07,.07-.1c-.61-.35-1.17-.77-1.68-1.25l-2.55,6.18,2.83-.31s.04,0,.05,0c.16,0,.31,.08,.41,.21l1.41,1.98,2.38-5.75c-.7-.13-1.37-.34-2-.62,0,.02,0,.05-.02,.07Z" fill="none" stroke-width="0"/><polygon points="48.25 5.55 48.25 4.05 1.25 4.05 1.25 33.79 2.75 33.79 2.75 5.55 48.25 5.55" fill="none"/><path d="M41.33,38.84l1,2.24c.11,.25,0,.55-.25,.66-.07,.03-.14,.04-.2,.04-.19,0-.37-.11-.46-.3l-1-2.25c-.65,.24-1.33,.42-2.03,.51l2.35,5.68,1.41-1.98c.11-.15,.28-.22,.46-.21l2.83,.31-2.41-5.83c-.52,.43-1.09,.81-1.7,1.12Z" fill="none" stroke-width="0"/><path d="M44.32,25.26c1.21,1.53,1.94,3.46,1.94,5.56,0,1.04-.19,2.04-.51,2.97h1.89c.08-.48,.13-.97,.13-1.47,0-2.86-1.35-5.41-3.44-7.06Z" fill="none" stroke-width="0"/><path d="M48.25,5.55H2.75v29.74H29.46c-.09-.17-.2-.33-.28-.5-.07-.13-.15-.27-.22-.44-.09-.2-.15-.39-.2-.56-.33-.93-.51-1.93-.51-2.97,0-4.96,4.04-9,9-9,2.86,0,5.42,1.35,7.07,3.44,.55,.71,1.46,2.08,1.8,3.99,.24,1.33,.11,2.42,.04,2.87-.1,.69-.27,1.25-.42,1.67-.11,.31-.25,.65-.42,1-.09,.18-.18,.34-.27,.5h4.69V5.55h-1.5Z" fill="#ffcd00" stroke-width="0"/><path d="M49.25,34.29V3.55c0-.28-.22-.5-.5-.5H.75c-.28,0-.5,.22-.5,.5v30.74c0,.28,.22,.5,.5,.5H29.18c.09,.17,.19,.33,.28,.5,.26,.45,.54,.89,.87,1.28l-3.04,7.37c-.07,.16-.04,.35,.06,.49,.11,.14,.28,.22,.45,.2l3.38-.37,1.77,2.48c.09,.13,.25,.21,.41,.21,.02,0,.04,0,.06,0,.18-.02,.34-.14,.41-.31l2.83-6.84c.2,.01,.4,.03,.61,.03,.03,0,.05,0,.08,0l2.82,6.82c.07,.17,.22,.29,.41,.31,.02,0,.04,0,.06,0,.16,0,.31-.08,.41-.21l1.77-2.48,3.38,.37c.17,.02,.35-.06,.45-.2,.11-.14,.13-.33,.06-.49l-2.88-6.96c.61-.65,1.12-1.38,1.52-2.19h3.42c.28,0,.5-.22,.5-.5Zm-16.01,11.13l-1.41-1.98c-.09-.13-.25-.21-.41-.21-.02,0-.04,0-.05,0l-2.83,.31,2.55-6.18c.51,.48,1.07,.9,1.68,1.25-.03,.03-.05,.06-.07,.1l-1.05,2.37c-.11,.25,0,.55,.25,.66,.07,.03,.14,.04,.2,.04,.19,0,.37-.11,.46-.3l1.05-2.37s0-.05,.02-.07c.63,.28,1.3,.49,2,.62l-2.38,5.75Zm12.2-1.88l-2.83-.31c-.18-.02-.36,.06-.46,.21l-1.41,1.98-2.35-5.68c.71-.09,1.39-.26,2.03-.51l1,2.25c.08,.19,.27,.3,.46,.3,.07,0,.14-.01,.2-.04,.25-.11,.37-.41,.25-.66l-1-2.24c.61-.31,1.18-.68,1.7-1.12l2.41,5.83Zm-8.18-4.72c-3.28,0-6.09-1.98-7.33-4.8-.43-.98-.67-2.06-.67-3.2,0-4.41,3.59-8,8-8,1.13,0,2.21,.24,3.18,.66,2.83,1.23,4.82,4.06,4.82,7.34,0,4.41-3.59,8-8,8Zm10.38-5.04h-1.89c.33-.93,.51-1.93,.51-2.97,0-2.1-.73-4.03-1.94-5.56-1.65-2.09-4.2-3.44-7.07-3.44-4.96,0-9,4.04-9,9,0,1.04,.19,2.04,.51,2.97H1.25V4.05H48.25v29.74h-.62Z" stroke-width="0"/><path d="M42.3,10.43H6.17c-.28,0-.5,.22-.5,.5s.22,.5,.5,.5H42.3c.28,0,.5-.22,.5-.5s-.22-.5-.5-.5Z" stroke-width="0"/><path d="M42.3,17.02H6.17c-.28,0-.5,.22-.5,.5s.22,.5,.5,.5H42.3c.28,0,.5-.22,.5-.5s-.22-.5-.5-.5Z" stroke-width="0"/><path d="M27.59,24.76H6.17c-.28,0-.5,.22-.5,.5s.22,.5,.5,.5H27.59c.28,0,.5-.22,.5-.5s-.22-.5-.5-.5Z" stroke-width="0"/><path d="M39.02,30.41s-.03-.01-.04-.02c-.14-.04-.27-.12-.33-.26l-.88-1.82-.91,1.8c-.07,.15-.22,.25-.38,.27l-2,.28,1.43,1.42c.12,.12,.17,.28,.14,.44l-.36,1.99,1.73-.9,.06-.03c.07-.04,.15-.06,.23-.06s.16,.02,.24,.06l1.78,.95-.33-1.99c-.03-.16,.03-.33,.15-.44l.56-.54,.9-.86-1.42-.22-.58-.09Z" fill="#ffcd00" stroke-width="0"/><path d="M42.07,29.72c-.06-.18-.21-.31-.4-.34l-2.74-.42-1.21-2.49c-.08-.17-.26-.28-.45-.28h0c-.19,0-.36,.11-.45,.28l-1.24,2.47-2.74,.38c-.19,.03-.35,.16-.41,.34-.06,.18-.01,.38,.12,.51l1.97,1.95-.49,2.72c-.03,.19,.04,.38,.2,.49,.15,.11,.36,.13,.53,.04l2.17-1.12,.29-.15,1.09,.58,1.35,.72c.07,.04,.15,.06,.24,.06,.1,0,.2-.03,.29-.09,.03-.02,.04-.06,.07-.08,.1-.11,.16-.25,.14-.4l-.45-2.73,.68-.65,1.32-1.27c.14-.13,.19-.33,.13-.51Zm-2.45,1.35l-.56,.54c-.12,.11-.17,.28-.15,.44l.33,1.99-1.78-.95c-.07-.04-.15-.06-.24-.06s-.16,.02-.23,.06l-.06,.03-1.73,.9,.36-1.99c.03-.16-.02-.33-.14-.44l-1.43-1.42,2-.28c.16-.02,.3-.12,.38-.27l.91-1.8,.88,1.82c.06,.13,.19,.22,.33,.26,.02,0,.03,.02,.04,.02l.58,.09,1.42,.22-.9,.86Z" stroke-width="0"/></g></g><g id="uuid-0503203c-b62d-49f3-af73-84f02e518eec"></g></svg>