<?xml version="1.0" encoding="utf-8"?> <!-- Generator: Adobe Illustrator 27.7.0, SVG Export Plug-In . SVG Version: 6.00 Build 0) --> <svg width="70" height="70" version="1.1" xmlns="http://www.w3.org/2000/svg" xmlns:xlink="http://www.w3.org/1999/xlink" x="0px" y="0px" viewBox="-10 -10 70 70" style="enable-background:new 0 0 50 50;" xml:space="preserve"><rect x="-10" y="-10" width="70" height="70" fill="white"/> <style type="text/css"> .st0{fill:#FFCD00;} .st1{display:none;} .st2{display:inline;fill:none;stroke:#EA008A;stroke-width:0.2;stroke-miterlimit:10;} .st3{font-family:'Roboto-Regular';} .st4{font-size:6px;} </style> <g id="Color"> <path class="st0" d="M24.4014,10.416c0.6328-0.9873,1.2305-1.9209,0.9414-3.0635c-0.0708-0.2783-0.1963-0.5029-0.3174-0.7207 c-0.187-0.3369-0.3638-0.6543-0.3638-1.2207c0-0.7383,1.0278-1.3955,1.8384-1.3955s1.8384,0.6572,1.8384,1.3955 c0,0.5664-0.1768,0.8838-0.3638,1.2207c-0.1211,0.2178-0.2466,0.4424-0.3174,0.7207c-0.2891,1.1426,0.3086,2.0762,0.9414,3.0635 c0.5436,0.8489,1.1486,1.8006,1.3251,3.0635h-6.8474C23.2528,12.2166,23.8577,11.265,24.4014,10.416z" stroke-width="0"/> <path class="st0" d="M19.936,14.7598c0-0.292,0.2378-0.5303,0.5303-0.5303h11.6875c0.5767,0,1.0454,0.4688,1.0454,1.0459v3.4082 H19.936V14.7598z" stroke-width="0"/> </g> <g id="ICONS_00000031165542127692736420000002692518830807990202_"> <path d="M32.4473,22.7285c-1.1153-1.4814-1.6408-2.8582-1.6461-4.2949h1.398c0.2764,0,0.5-0.2236,0.5-0.5v-3.9082 c0-1.1279-0.9175-2.0459-2.0454-2.0459h-1.2261c-0.1812-1.5478-0.8968-2.681-1.4868-3.6025 c-0.5571-0.8691-0.9971-1.5566-0.814-2.2783c0.0381-0.1514,0.123-0.3047,0.2212-0.4805c0.2188-0.3926,0.4902-0.8809,0.4902-1.707 c0-1.3486-1.5259-2.3955-2.8384-2.3955s-2.8384,1.0469-2.8384,2.3955c0,0.8262,0.2715,1.3145,0.4902,1.707 C22.75,5.7939,22.835,5.9473,22.873,6.0986c0.1831,0.7217-0.2568,1.4092-0.814,2.2783c-0.59,0.9215-1.3056,2.0547-1.4868,3.6025 h-1.606c-0.8438,0-1.5303,0.6865-1.5303,1.5303v4.4238c0,0.2764,0.2236,0.5,0.5,0.5h1.2628 c-0.0052,1.4368-0.5308,2.8135-1.6461,4.2949c-1.3667,1.8164-1.6465,3.9863-1.6465,6.6865v14.5723 c0,2.4795,2.0176,4.4971,4.4971,4.4971h9.1934c2.4795,0,4.4971-2.0176,4.4971-4.4971V29.415 C34.0938,26.7148,33.814,24.5449,32.4473,22.7285z M22.9014,8.916c0.6328-0.9873,1.2305-1.9209,0.9414-3.0635 c-0.0708-0.2783-0.1963-0.5029-0.3174-0.7207c-0.187-0.3369-0.3638-0.6543-0.3638-1.2207c0-0.7383,1.0278-1.3955,1.8384-1.3955 s1.8384,0.6572,1.8384,1.3955c0,0.5664-0.1768,0.8838-0.3638,1.2207c-0.1211,0.2178-0.2466,0.4424-0.3174,0.7207 c-0.2891,1.1426,0.3086,2.0762,0.9414,3.0635c0.5436,0.8489,1.1486,1.8006,1.3251,3.0635h-6.8474 C21.7528,10.7166,22.3577,9.765,22.9014,8.916z M18.436,13.5098c0-0.292,0.2378-0.5303,0.5303-0.5303h11.6875 c0.5767,0,1.0454,0.4688,1.0454,1.0459v3.4082H18.436V13.5098z M29.5967,47.4844h-9.1934c-1.9282,0-3.4971-1.5684-3.4971-3.4971 V29.415c0-2.499,0.2456-4.4902,1.4453-6.085c1.2545-1.6664,1.8439-3.2358,1.847-4.8965h9.6029 c0.0031,1.6607,0.5925,3.2301,1.847,4.8965c0.7987,1.0617,1.1697,2.304,1.3317,3.75h-4.1154c-0.2764,0-0.5,0.2236-0.5,0.5 s0.2236,0.5,0.5,0.5h4.1946c0.0215,0.4298,0.0344,0.8708,0.0344,1.335v1.0498h-2.73c-0.2764,0-0.5,0.2236-0.5,0.5 s0.2236,0.5,0.5,0.5h2.73v2.3848h-4.229c-0.2764,0-0.5,0.2236-0.5,0.5s0.2236,0.5,0.5,0.5h4.229v2.3848h-2.73 c-0.2764,0-0.5,0.2236-0.5,0.5s0.2236,0.5,0.5,0.5h2.73v2.3848h-4.229c-0.2764,0-0.5,0.2236-0.5,0.5s0.2236,0.5,0.5,0.5h4.229 v2.3682C33.0938,45.916,31.5249,47.4844,29.5967,47.4844z" stroke-width="0"/> </g> <g id="Margin" class="st1"> <rect x="1" y="1" class="st2" /> </g> <g id="Guides" class="st1"> </g> <g id="LABELS"> <g> <g> <g> <g> <g> <g> </g> </g> </g> </g> </g> </g> </g> </svg> 