<?xml version="1.0" encoding="UTF-8"?><svg width="70" height="70" xmlns="http://www.w3.org/2000/svg" viewBox="-10 -10 70 70"><rect x="-10" y="-10" width="70" height="70" fill="white"/><g id="uuid-c9b0399b-1db0-40b4-823e-021e87e93536"><g><path d="M38.19,11.41c.8-1.98,1.6-3.97,2.4-5.95,.17-.42,.17-.88,0-1.29-.18-.42-.5-.74-.92-.91l-2.33-.95c-.21-.08-.42-.12-.64-.12-.67,0-1.3,.4-1.57,1.05-.59,1.49-1.19,2.97-1.78,4.46-1.48-.63-3.1-.98-4.81-.98h-4.52c-1.72,0-3.36,.36-4.84,.99-.57-1.41-1.14-2.82-1.71-4.23-.34-.84-1.31-1.25-2.14-.9l-2.27,.92c-.84,.34-1.25,1.3-.91,2.14,.76,1.89,1.52,3.77,2.28,5.66-1.72,2.12-2.75,4.81-2.75,7.75v30.92h29.19V19.05c0-2.89-1-5.54-2.67-7.64Zm-20.23,4.13c0-1.03,.83-1.86,1.86-1.86h9.9c1.03,0,1.86,.83,1.86,1.86v.67h-13.62v-.67Zm0,1.67h13.62v3.84c0,1.03-.83,1.86-1.86,1.86h-9.9c-1.03,0-1.86-.83-1.86-1.86v-3.84Zm18.65,26.14c0,1.24-1.01,2.25-2.25,2.25H15.17c-1.24,0-2.25-1.01-2.25-2.25v-6.96h23.69v6.96Zm0-7.96H12.93v-1.12c0-1.24,1.01-2.25,2.25-2.25h19.19c1.24,0,2.25,1.01,2.25,2.25v1.12Z" fill="#ffcd00" stroke-width="0"/><g><path d="M37.88,9.33l1.95-4.79c.53-1.3-.1-2.79-1.4-3.33l-2.46-1c-.63-.26-1.32-.25-1.95,.01-.63,.26-1.12,.76-1.37,1.39l-1.26,3.1c-.49-.15-.99-.26-1.5-.35-1.06-2.19-2.95-3.66-5.1-3.66s-4.04,1.47-5.1,3.66c-.52,.09-1.03,.21-1.53,.36l-1.23-3.02c-.26-.63-.74-1.12-1.37-1.39s-1.32-.27-1.95-.01l-2.46,1c-.63,.26-1.12,.74-1.39,1.37-.26,.63-.27,1.32-.01,1.95l1.92,4.73c-1.57,2.12-2.51,4.74-2.51,7.57V49.04c0,.28,.22,.5,.5,.5h30.27c.28,0,.5-.22,.5-.5V16.93c0-2.85-.95-5.47-2.53-7.6Zm-4.32-7.33c.16-.38,.45-.68,.83-.85,.19-.08,.4-.12,.6-.12s.4,.04,.58,.12l2.46,1c.79,.32,1.18,1.23,.85,2.02l-1.74,4.28c-1.32-1.48-2.97-2.65-4.84-3.39l1.24-3.06Zm-8.79-.29c1.57,0,2.98,.98,3.9,2.5-.34-.03-.69-.05-1.04-.05h-5.72c-.35,0-.7,.02-1.04,.05,.92-1.52,2.32-2.5,3.9-2.5Zm-14.13,2.54c-.16-.38-.15-.81,0-1.19s.46-.68,.85-.83l2.46-1c.38-.16,.8-.15,1.19,0,.38,.16,.68,.46,.83,.85l1.21,2.99c-1.87,.75-3.52,1.92-4.83,3.41l-1.72-4.22Zm28.76,44.29H10.13V16.93c0-6.49,5.28-11.78,11.78-11.78h5.72c6.49,0,11.78,5.28,11.78,11.78v31.6Z" stroke-width="0"/><path d="M19.82,23.91h9.9c1.58,0,2.86-1.28,2.86-2.86v-5.51c0-1.58-1.28-2.86-2.86-2.86h-9.9c-1.58,0-2.86,1.28-2.86,2.86v5.51c0,1.58,1.28,2.86,2.86,2.86Zm-1.86-8.37c0-1.03,.83-1.86,1.86-1.86h9.9c1.03,0,1.86,.83,1.86,1.86v.67h-13.62v-.67Zm0,1.67h13.62v3.84c0,1.03-.83,1.86-1.86,1.86h-9.9c-1.03,0-1.86-.83-1.86-1.86v-3.84Z" stroke-width="0"/><path d="M15.17,31.01c-1.79,0-3.25,1.46-3.25,3.25v9.09c0,1.79,1.46,3.25,3.25,3.25h19.19c1.79,0,3.25-1.46,3.25-3.25v-9.09c0-1.79-1.46-3.25-3.25-3.25H15.17Zm21.44,12.33c0,1.24-1.01,2.25-2.25,2.25H15.17c-1.24,0-2.25-1.01-2.25-2.25v-6.96h23.69v6.96Zm0-9.09v1.12H12.93v-1.12c0-1.24,1.01-2.25,2.25-2.25h19.19c1.24,0,2.25,1.01,2.25,2.25Z" stroke-width="0"/></g></g></g><g id="uuid-04977a20-a745-4e6c-afd7-868749e35a6b"></g></svg>