<?xml version="1.0" encoding="UTF-8"?><svg width="70" height="70" xmlns="http://www.w3.org/2000/svg" viewBox="-10 -10 70 70"><rect x="-10" y="-10" width="70" height="70" fill="white"/><g id="uuid-5b6d42e9-2ec9-45e2-acd5-259f77baf1e8"><path d="M15.01,40.67c.68-.33,1.19-.92,1.43-1.64s.2-1.49-.14-2.17l-1.1-2.23c-.43-.88-.76-1.31-1.36-1.49-.12,.15-.25,.3-.39,.43-.65,.6-1.48,.92-2.35,.92-.05,0-.11,0-.16,0l-1.2-.05c-.71,.86-.86,2.07-.37,3.07l1.1,2.23c.69,1.41,2.4,1.99,3.81,1.3l.73-.36Z" fill="#ffcd00" stroke-width="0"/><path d="M10.99,33.49c.67,.04,1.3-.2,1.8-.65,.49-.45,.78-1.07,.81-1.73l.15-3.18c.06-1.38-1.01-2.55-2.38-2.61l-1.51-.07s-.08,0-.12,0c-.62,0-1.22,.23-1.68,.66-.49,.45-.78,1.07-.81,1.73l-.15,3.18c-.03,.66,.2,1.3,.65,1.8,.45,.5,1.07,.78,1.73,.81l1.51,.07Z" fill="#ffcd00" stroke-width="0"/><path d="M21.56,17.56c1.67,0,3.02-1.36,3.02-3.02s-1.36-3.02-3.02-3.02-3.02,1.36-3.02,3.02,1.36,3.02,3.02,3.02Z" fill="#ffcd00" stroke-width="0"/><path d="M6.77,44.68c-1.26,0-2.28,1.02-2.28,2.28s1.02,2.28,2.28,2.28,2.28-1.02,2.28-2.28-1.02-2.28-2.28-2.28Z" fill="#ffcd00" stroke-width="0"/><path d="M19.46,41.58c-.44-.5-1.05-.8-1.71-.85-.06,0-.12,0-.18,0-.6,0-1.18,.21-1.64,.61l-1.14,.99c-.5,.44-.8,1.04-.85,1.71-.05,.67,.17,1.31,.61,1.81l2.09,2.4c.44,.5,1.05,.8,1.71,.85,.67,.05,1.31-.17,1.81-.61l1.14-.99c1.04-.91,1.15-2.49,.24-3.53l-2.09-2.4Z" fill="#ffcd00" stroke-width="0"/><path d="M45.26,32.16c-.13-.15-.27-.27-.43-.39-.59,.36-1.27,.58-2.01,.58h-.82c-.38,0-.74-.07-1.08-.17l-.31,.25c-.56,.49-.9,1.18-.95,1.94-.05,.76,.19,1.49,.69,2.06l1.63,1.88c1.03,1.18,2.83,1.31,4.02,.28l.62-.54c1.18-1.03,1.31-2.83,.28-4.02l-1.63-1.88Z" fill="#ffcd00" stroke-width="0"/><path d="M42.01,31.35h.82c1.57,0,2.85-1.28,2.85-2.85v-2.49c0-1.38-1.01-2.57-2.37-2.8-.3,.2-.62,.37-.98,.48h0l-1.45,.42c-.32,.09-.64,.14-.96,.14-.04,0-.08-.01-.12-.02-.45,.46-.62,.95-.62,1.79v2.49c0,1.57,1.28,2.85,2.85,2.85Z" fill="#ffcd00" stroke-width="0"/><path d="M38.07,14.32l.57-.16c0-.06,.02-.13,.05-.19,.5-1.03,.34-2.26-.41-3.12l-1.63-1.88c-1.03-1.18-2.83-1.31-4.02-.28l-.62,.54c-.57,.5-.91,1.19-.97,1.95-.05,.76,.19,1.49,.69,2.06l1.63,1.88c.74,.84,1.64,1.18,2.56,.97,.02-.04,.03-.07,.05-.11,.45-.82,1.2-1.41,2.09-1.67Z" fill="#ffcd00" stroke-width="0"/><path d="M40.6,23.15l1.45-.42c.64-.18,1.17-.61,1.49-1.19,.33-.59,.4-1.26,.22-1.9l-.88-3.06c-.31-1.1-1.32-1.81-2.4-1.81-.23,0-.46,.03-.69,.1l-1.45,.42c-.64,.18-1.17,.61-1.49,1.19-.01,.02-.02,.05-.03,.08,0,.11-.05,.2-.12,.28-.18,.49-.21,1.03-.06,1.54l.88,3.06c.38,1.32,1.77,2.09,3.09,1.71Z" fill="#ffcd00" stroke-width="0"/><path d="M34.7,37.65c-.29-.09-.59-.13-.89-.13-.49,0-.97,.12-1.41,.35-1.47,.78-2.03,2.62-1.25,4.09,.38,.71,1.01,1.24,1.78,1.47,.77,.24,1.59,.16,2.3-.22,1.47-.78,2.04-2.62,1.25-4.09-.38-.71-1.01-1.24-1.78-1.47Z" fill="#ffcd00" stroke-width="0"/><path d="M46.73,4.25c-1.26,0-2.28,1.02-2.28,2.28s1.02,2.28,2.28,2.28,2.28-1.02,2.28-2.28-1.02-2.28-2.28-2.28Z" fill="#ffcd00" stroke-width="0"/><path d="M11.06,9.43c1.6,0,2.91-1.31,2.91-2.91s-1.31-2.91-2.91-2.91-2.91,1.31-2.91,2.91,1.31,2.91,2.91,2.91Zm0-4.82c1.05,0,1.91,.86,1.91,1.91s-.86,1.91-1.91,1.91-1.91-.86-1.91-1.91,.86-1.91,1.91-1.91Z" stroke-width="0"/><path d="M42.67,41.38c-1.71,0-3.1,1.39-3.1,3.1s1.39,3.1,3.1,3.1,3.1-1.39,3.1-3.1-1.39-3.1-3.1-3.1Zm0,5.2c-1.16,0-2.1-.94-2.1-2.1s.94-2.1,2.1-2.1,2.1,.94,2.1,2.1-.94,2.1-2.1,2.1Z" stroke-width="0"/><path d="M5.02,41.93c-1.81,0-3.28,1.47-3.28,3.28s1.47,3.28,3.28,3.28,3.28-1.47,3.28-3.28-1.47-3.28-3.28-3.28Zm0,5.56c-1.26,0-2.28-1.02-2.28-2.28s1.02-2.28,2.28-2.28,2.28,1.02,2.28,2.28-1.02,2.28-2.28,2.28Z" stroke-width="0"/><path d="M44.98,1.5c-1.81,0-3.28,1.47-3.28,3.28s1.47,3.28,3.28,3.28,3.28-1.47,3.28-3.28-1.47-3.28-3.28-3.28Zm0,5.56c-1.26,0-2.28-1.02-2.28-2.28s1.02-2.28,2.28-2.28,2.28,1.02,2.28,2.28-1.02,2.28-2.28,2.28Z" stroke-width="0"/><path d="M44.27,29.75c-.12-.14-.26-.25-.4-.36,.65-.69,1.06-1.61,1.06-2.63v-2.49c0-1.63-1.04-3.05-2.52-3.6,.63-.85,.89-1.96,.57-3.05l-.88-3.06c-.26-.9-.85-1.64-1.67-2.09-.73-.41-1.57-.52-2.38-.36,.39-1.26,.11-2.65-.77-3.66l-1.63-1.88c-1.39-1.6-3.83-1.77-5.43-.37l-.62,.54c-.77,.67-1.24,1.61-1.31,2.64-.07,1.03,.26,2.02,.93,2.79l1.63,1.88c.79,.91,1.77,1.38,2.79,1.38,.06,0,.12-.01,.18-.01-.08,.5-.06,1,.08,1.5l.88,3.06c.26,.9,.85,1.64,1.67,2.09,.15,.08,.32,.13,.48,.19-.37,.54-.52,1.17-.52,2.02v2.49c0,1.35,.7,2.53,1.75,3.22-.74,.67-1.18,1.58-1.25,2.58-.07,1.03,.26,2.02,.93,2.79l1.63,1.88c.76,.87,1.83,1.32,2.9,1.32,.9,0,1.8-.31,2.52-.94l.62-.54c1.6-1.39,1.77-3.83,.37-5.43l-1.63-1.88ZM31.62,13.38l-1.63-1.88c-.5-.57-.74-1.3-.69-2.06,.05-.76,.4-1.45,.97-1.95l.62-.54c1.18-1.03,2.99-.91,4.02,.28l1.63,1.88c.75,.86,.91,2.09,.41,3.12-.03,.06-.04,.12-.05,.19l-.57,.16c-.9,.26-1.64,.85-2.09,1.67-.02,.04-.03,.07-.05,.11-.92,.21-1.82-.13-2.56-.97Zm4.14,6.3l-.88-3.06c-.15-.51-.12-1.05,.06-1.54,.07-.08,.11-.18,.12-.28,.01-.03,.02-.05,.03-.08,.32-.59,.86-1.01,1.49-1.19l1.45-.42c.23-.07,.46-.1,.69-.1,1.09,0,2.09,.72,2.4,1.81l.88,3.06c.18,.64,.11,1.31-.22,1.9-.32,.59-.86,1.01-1.49,1.19l-1.45,.42c-1.32,.38-2.71-.39-3.09-1.71Zm1.66,7.07v-2.49c0-.84,.17-1.33,.62-1.79,.04,0,.08,.02,.12,.02,.32,0,.65-.04,.96-.14l1.45-.42h0c.36-.1,.69-.27,.98-.48,1.35,.23,2.37,1.42,2.37,2.8v2.49c0,1.57-1.28,2.85-2.85,2.85h-.82c-1.57,0-2.85-1.28-2.85-2.85Zm7.46,9.55l-.62,.54c-1.18,1.03-2.98,.91-4.02-.28l-1.63-1.88c-.5-.57-.74-1.3-.69-2.06,.05-.76,.4-1.45,.95-1.94l.31-.25c.35,.1,.7,.17,1.08,.17h.82c.74,0,1.42-.22,2.01-.58,.15,.12,.3,.24,.43,.39l1.63,1.88c1.03,1.18,.91,2.98-.28,4.02Z" stroke-width="0"/><path d="M18.47,39.18c-.61-.7-1.46-1.12-2.4-1.19-.2-.01-.41,0-.6,.02,.06-.13,.13-.26,.18-.4,.33-.98,.27-2.02-.19-2.94l-1.1-2.23c-.42-.86-.87-1.6-1.76-1.94,.13-.35,.23-.71,.24-1.09l.15-3.18c.09-1.93-1.41-3.57-3.34-3.66l-1.51-.07c-.93-.04-1.82,.28-2.52,.91s-1.1,1.49-1.14,2.42l-.15,3.18c-.08,1.65,1.02,3.08,2.54,3.52-.65,1.1-.74,2.49-.16,3.66l1.1,2.23c.67,1.36,2.04,2.15,3.46,2.15,.17,0,.35-.04,.52-.06-.34,.5-.56,1.09-.6,1.71-.06,.94,.24,1.84,.85,2.54l2.09,2.4c.61,.7,1.46,1.12,2.4,1.19,.08,0,.17,0,.25,0,.85,0,1.65-.3,2.29-.86l1.14-.99h0c1.45-1.27,1.61-3.48,.34-4.94l-2.09-2.4ZM5.34,29.06l.15-3.18c.03-.66,.32-1.28,.81-1.73,.47-.43,1.06-.66,1.68-.66,.04,0,.08,0,.12,0l1.51,.07c1.38,.06,2.45,1.23,2.38,2.61l-.15,3.18c-.03,.66-.32,1.28-.81,1.73-.5,.45-1.13,.69-1.8,.65l-1.51-.07c-.66-.03-1.28-.32-1.73-.81-.45-.5-.68-1.13-.65-1.8Zm3.38,8.92l-1.1-2.23c-.49-1-.34-2.21,.37-3.07l1.2,.05c.05,0,.11,0,.16,0,.87,0,1.7-.32,2.35-.92,.15-.13,.27-.28,.39-.43,.6,.17,.93,.6,1.36,1.49l1.1,2.23c.33,.68,.38,1.45,.14,2.17s-.76,1.3-1.43,1.64l-.73,.36c-1.41,.69-3.12,.11-3.81-1.3Zm10.84,7.77l-1.14,.99c-.5,.44-1.14,.66-1.81,.61-.67-.05-1.28-.35-1.71-.85l-2.09-2.4c-.44-.5-.65-1.14-.61-1.81,.05-.67,.35-1.28,.85-1.71l1.14-.99c.46-.4,1.03-.61,1.64-.61,.06,0,.12,0,.18,0,.67,.05,1.28,.35,1.71,.85l2.09,2.4c.91,1.04,.8,2.62-.24,3.53Z" stroke-width="0"/><path d="M7.82,17.43c1.42,0,2.58-1.16,2.58-2.58s-1.16-2.58-2.58-2.58-2.58,1.16-2.58,2.58,1.16,2.58,2.58,2.58Zm0-4.16c.87,0,1.58,.71,1.58,1.58s-.71,1.58-1.58,1.58-1.58-.71-1.58-1.58,.71-1.58,1.58-1.58Z" stroke-width="0"/><path d="M17.18,23.87c1.46,0,2.64-1.19,2.64-2.64s-1.19-2.64-2.64-2.64-2.64,1.19-2.64,2.64,1.19,2.64,2.64,2.64Zm0-4.28c.91,0,1.64,.74,1.64,1.64s-.74,1.64-1.64,1.64-1.64-.74-1.64-1.64,.74-1.64,1.64-1.64Z" stroke-width="0"/><path d="M19.81,16.81c2.22,0,4.02-1.8,4.02-4.02s-1.81-4.02-4.02-4.02-4.02,1.81-4.02,4.02,1.8,4.02,4.02,4.02Zm0-7.05c1.67,0,3.02,1.36,3.02,3.02s-1.36,3.02-3.02,3.02-3.02-1.36-3.02-3.02,1.36-3.02,3.02-3.02Z" stroke-width="0"/><path d="M29.1,18.24c0-1.46-1.19-2.64-2.64-2.64s-2.64,1.19-2.64,2.64,1.19,2.64,2.64,2.64,2.64-1.19,2.64-2.64Zm-2.64,1.64c-.91,0-1.64-.74-1.64-1.64s.74-1.64,1.64-1.64,1.64,.74,1.64,1.64-.74,1.64-1.64,1.64Z" stroke-width="0"/><path d="M29.66,32.63c.26,.08,.52,.12,.78,.12,.43,0,.85-.1,1.23-.31,.62-.33,1.08-.88,1.29-1.56,.21-.67,.14-1.39-.19-2.01-.68-1.29-2.29-1.78-3.57-1.09s-1.78,2.29-1.09,3.57c.33,.62,.88,1.08,1.56,1.29Zm0-3.98c.24-.13,.51-.19,.77-.19,.59,0,1.16,.32,1.45,.87,.21,.39,.25,.83,.12,1.25-.13,.42-.41,.76-.8,.97-.39,.21-.83,.25-1.25,.12-.42-.13-.76-.41-.97-.8-.42-.8-.12-1.8,.68-2.22Z" stroke-width="0"/><path d="M33.24,34.95c-1.03-.31-2.12-.21-3.07,.29-1.96,1.04-2.71,3.48-1.67,5.44,.5,.95,1.35,1.65,2.38,1.96,.39,.12,.79,.18,1.18,.18,.65,0,1.29-.16,1.88-.47,1.96-1.04,2.71-3.48,1.67-5.44-.5-.95-1.35-1.65-2.38-1.96Zm.24,6.52c-.71,.38-1.53,.46-2.3,.22-.77-.24-1.41-.76-1.78-1.47-.78-1.47-.22-3.31,1.25-4.09,.44-.23,.93-.35,1.41-.35,.3,0,.6,.04,.89,.13,.77,.24,1.41,.76,1.78,1.47,.78,1.47,.22,3.31-1.25,4.09Z" stroke-width="0"/><path d="M22.4,34.76c-1.29,.68-1.78,2.29-1.1,3.57,.47,.89,1.39,1.4,2.34,1.4,.42,0,.84-.1,1.23-.31,.62-.33,1.08-.88,1.29-1.56,.21-.67,.14-1.39-.19-2.01-.68-1.29-2.29-1.78-3.57-1.09Zm2.81,2.81c-.13,.42-.41,.76-.8,.97-.8,.42-1.8,.12-2.22-.68-.42-.8-.12-1.8,.68-2.22,.8-.42,1.8-.12,2.22,.68,.21,.39,.25,.83,.12,1.25Z" stroke-width="0"/></g><g id="uuid-1a78ae35-2bd3-42fa-bb6b-384735fe4533"></g></svg>