<?xml version="1.0" encoding="UTF-8"?><svg width="70" height="70" xmlns="http://www.w3.org/2000/svg" viewBox="-10 -10 70 70"><rect x="-10" y="-10" width="70" height="70" fill="white"/><g id="uuid-3d1ce2a3-7c30-4f01-a776-61c6d381d1cd"><path d="M26.41,28.73c-.37.13-.61.11-.69.03s-.1-.32.02-.69c.17-.46.52-.99.97-1.44s.98-.8,1.44-.97c.18-.06.34-.09.46-.09.11,0,.19.03.23.07.08.08.1.32-.03.69-.16.46-.51.98-.96,1.44-.46.45-.98.8-1.44.96Z" fill="#ffcd00" stroke-width="0"/><path d="M26.41,32.1c-.37.12-.61.1-.69.02s-.1-.32.02-.69c.17-.46.52-.98.97-1.44.45-.45.98-.8,1.44-.96.18-.07.34-.1.46-.1.11,0,.19.03.23.07.08.08.1.32-.03.69-.16.46-.51.99-.96,1.44-.46.45-.98.8-1.44.97Z" fill="#ffcd00" stroke-width="0"/><path d="M27.85,34.47c-.46.45-.98.8-1.44.97-.37.13-.61.1-.69.02s-.1-.32.02-.69c.17-.46.52-.98.97-1.44.45-.45.98-.8,1.44-.96.18-.07.34-.1.46-.1.11,0,.19.03.23.07.08.08.1.32-.03.69-.16.46-.51.99-.96,1.44Z" fill="#ffcd00" stroke-width="0"/><path d="M21.37,33.03c-.13-.37-.1-.61-.03-.69.04-.04.12-.07.24-.07s.27.03.46.1c.46.16.98.51,1.44.96.45.46.8.98.96,1.44.06.17.09.32.09.43v.05c0,.1-.02.18-.06.21-.08.08-.33.11-.69-.02-.46-.17-.99-.52-1.44-.97s-.81-.98-.97-1.44Z" fill="#ffcd00" stroke-width="0"/><path d="M23.78,32.1c-.46-.17-.99-.52-1.44-.97-.97-.97-1.2-1.93-1-2.13.05-.05.13-.07.24-.07.38,0,1.14.3,1.9,1.06.45.46.8.98.96,1.44.06.17.09.32.09.43v.05c0,.1-.02.18-.06.21-.08.08-.33.1-.69-.02Z" fill="#ffcd00" stroke-width="0"/><path d="M23.78,28.73c-.46-.16-.99-.51-1.44-.96-.97-.97-1.2-1.93-1-2.13.05-.05.13-.07.24-.07.38,0,1.14.3,1.9,1.06.45.45.8.98.96,1.44.06.17.09.32.09.43v.04c0,.11-.02.18-.06.22-.08.08-.33.1-.69-.03Z" fill="#ffcd00" stroke-width="0"/><path d="M24.56,25.49c-.21-.44-.33-1.06-.33-1.7,0-1.37.52-2.21.8-2.21s.81.84.81,2.21c-.01,1.37-.53,2.21-.81,2.21-.11,0-.3-.16-.47-.51Z" fill="#ffcd00" stroke-width="0"/><path d="M43.01,45.69c-.11-.11-.23-.21-.34-.3-.63-.5-.95-1.22-.9-1.96.61-8.84.66-17.83.16-26.75l-.23-1c.24,0,.48.01.72.02.03,0,.06.02.09.02h0s.11-.01.11-.01c.28.02.48-.19.5-.46.08-.97.34-1.93.6-2.74.04-.15.01-.31-.08-.43-.1-.13-.26-.23-.42-.2-15.3.4-26.72.4-35.94.02-.15-.02-.3.05-.4.16-.05.07-.14.2-.11.39.28,1.54.4,3.09.36,4.62,0,.18.1.3.16.35.11.1.26.14.41.12l.37-.05c.21-.03.41-.06.62-.09l-.06,1.02c-.41,8.31-.32,16.73.25,25.01.05.75-.28,1.46-.9,1.96-.12.1-.23.2-.34.31-1.07,1.07-1.31,2.34-.85,2.79.3.31.82.24,1.1.17.57-.14,1.18-.51,1.7-1.02.1-.11.2-.21.28-.32.48-.59,1.19-.9,1.91-.83,9.2.89,18.33.89,27.11.01.7-.07,1.41.24,1.89.82.08.11.18.21.28.31.51.52,1.13.89,1.7,1.03.28.07.8.13,1.1-.17.46-.46.22-1.72-.85-2.8ZM25.03,40.4c-5.88,0-10.65-4.77-10.65-10.65s4.77-10.65,10.65-10.65,10.65,4.77,10.65,10.65-4.77,10.65-10.65,10.65Z" fill="#ffcd00" stroke-width="0"/></g><g id="uuid-7b44203b-09e9-4cc3-adca-200e876458a1"><path d="M25.72,28.76c.08.08.32.1.69-.03.46-.16.98-.51,1.44-.96.45-.46.8-.98.96-1.44.13-.37.11-.61.03-.69-.04-.04-.12-.07-.23-.07-.12,0-.28.03-.46.09-.46.17-.99.52-1.44.97s-.8.98-.97,1.44c-.12.37-.1.61-.02.69ZM25.72,32.12c.08.08.32.1.69-.02.46-.17.98-.52,1.44-.97.45-.45.8-.98.96-1.44.13-.37.11-.61.03-.69-.04-.04-.12-.07-.23-.07-.12,0-.28.03-.46.1-.46.16-.99.51-1.44.96-.45.46-.8.98-.97,1.44-.12.37-.1.61-.02.69ZM25.72,35.46c.08.08.32.11.69-.02.46-.17.98-.52,1.44-.97.45-.45.8-.98.96-1.44.13-.37.11-.61.03-.69-.04-.04-.12-.07-.23-.07-.12,0-.28.03-.46.1-.46.16-.99.51-1.44.96-.45.46-.8.98-.97,1.44-.12.37-.1.61-.02.69ZM24.23,23.79c0,.64.12,1.26.33,1.7.17.35.36.51.47.51.28,0,.8-.84.81-2.21,0-1.37-.53-2.21-.81-2.21s-.8.84-.8,2.21ZM22.34,31.13c.45.45.98.8,1.44.97.36.12.61.1.69.02.04-.03.06-.11.06-.21v-.05c0-.11-.03-.26-.09-.43-.16-.46-.51-.98-.96-1.44-.76-.76-1.52-1.06-1.9-1.06-.11,0-.19.02-.24.07-.2.2.03,1.16,1,2.13ZM22.34,27.77c.45.45.98.8,1.44.96.36.13.61.11.69.03.04-.04.06-.11.06-.22v-.04c0-.11-.03-.26-.09-.43-.16-.46-.51-.99-.96-1.44-.76-.76-1.52-1.06-1.9-1.06-.11,0-.19.02-.24.07-.2.2.03,1.16,1,2.13ZM21.37,33.03c.16.46.52.99.97,1.44s.98.8,1.44.97c.36.13.61.1.69.02.04-.03.06-.11.06-.21v-.05c0-.11-.03-.26-.09-.43-.16-.46-.51-.98-.96-1.44-.46-.45-.98-.8-1.44-.96-.19-.07-.34-.1-.46-.1s-.2.03-.24.07c-.07.08-.1.32.03.69ZM20.64,28.29c.15-.15.35-.24.56-.3-.95-1.17-1.2-2.42-.56-3.06.59-.59,1.7-.41,2.79.37-.13-.46-.2-.97-.2-1.51,0-1.83.77-3.21,1.8-3.21s1.81,1.38,1.81,3.21c0,.6-.1,1.15-.25,1.62,1.14-.88,2.34-1.1,2.96-.48s.38,1.89-.56,3.06c.21.06.41.15.56.3.63.64.39,1.88-.55,3.05.21.05.4.14.55.29.39.39.46,1.01.21,1.73-.21.61-.64,1.25-1.21,1.82s-1.2.99-1.81,1.2c-.28.1-.55.15-.79.15-.15,0-.29-.04-.42-.07v2.72c0,.28-.22.5-.5.5s-.5-.22-.5-.5v-2.7c-.1.02-.19.05-.29.05-.24,0-.51-.05-.8-.15-.6-.21-1.24-.64-1.81-1.2-1.29-1.3-1.72-2.82-.99-3.55.15-.15.34-.24.55-.29-.94-1.17-1.19-2.41-.55-3.05Z" stroke-width="0"/><path d="M13.65,29.75c0-6.27,5.11-11.38,11.38-11.38s11.38,5.11,11.38,11.38-5.11,11.38-11.38,11.38-11.38-5.11-11.38-11.38ZM14.65,29.75c0,5.72,4.65,10.37,10.37,10.38h0c5.72,0,10.38-4.66,10.38-10.38s-4.65-10.37-10.36-10.38h-.02c-5.72,0-10.38,4.66-10.38,10.38Z" stroke-width="0"/><path d="M8.83,10.26c8.33.28,18.43.27,31.41-.05-.91-2.7-3.86-4.63-7.21-4.63-2.39,0-4.67.98-6.08,2.62-.18.21-.5.23-.71.05s-.23-.49-.05-.7c.8-.92,1.8-1.65,2.94-2.16-2.23-2.15-5.37-3.39-8.78-3.39-5.67,0-10.56,3.53-11.52,8.26ZM6.07,47.77c.3.31.82.24,1.1.17.57-.14,1.18-.51,1.7-1.02.1-.11.2-.21.28-.32.48-.59,1.19-.9,1.91-.83,9.2.89,18.33.89,27.11,0,.7-.07,1.41.24,1.89.82.08.11.18.21.28.31.51.52,1.13.89,1.7,1.03.28.07.8.13,1.1-.17.46-.46.22-1.72-.85-2.8-.11-.11-.23-.21-.34-.3-.63-.5-.95-1.22-.9-1.96.61-8.84.66-17.83.16-26.75-11.04-.48-22.24.11-33.3,1.74-.41,8.31-.32,16.73.25,25.01.05.75-.28,1.46-.9,1.96-.12.1-.23.2-.34.31-1.07,1.07-1.31,2.34-.85,2.79ZM6.22,44.27c.13-.14.27-.26.41-.37.37-.3.56-.71.53-1.12-.57-8.27-.65-16.66-.25-24.95h0c-.36,0-.72-.14-.99-.38-.33-.29-.51-.7-.5-1.12.04-1.47-.07-2.95-.34-4.42-.08-.44.04-.88.34-1.22.3-.35.73-.53,1.19-.51.4.01.81.03,1.21.04.98-5.26,6.33-9.22,12.54-9.22,3.84,0,7.38,1.46,9.81,4.01.9-.28,1.87-.43,2.87-.43,3.96,0,7.33,2.3,8.27,5.61.39-.01.78-.02,1.18-.03.48.01.94.21,1.24.59.29.39.37.88.23,1.34-.23.75-.48,1.64-.55,2.52-.05.69-.56,1.22-1.2,1.35.5,8.94.45,17.96-.16,26.82-.02.41.17.82.54,1.11.14.11.28.24.41.37,1.42,1.43,1.8,3.28.86,4.22-.48.48-1.21.63-2.05.43-.75-.18-1.52-.64-2.17-1.29-.12-.12-.24-.25-.35-.39-.27-.33-.63-.49-1.01-.46-8.85.89-18.04.89-27.31-.01-.38-.04-.76.14-1.03.47-.11.14-.23.27-.36.4-.64.64-1.41,1.1-2.16,1.28-.24.06-.48.09-.7.09-.54,0-1.01-.18-1.35-.52-.94-.94-.57-2.79.86-4.21ZM6.41,16.35c0,.18.1.3.16.35.11.1.26.14.41.12l.37-.05c11.41-1.71,22.97-2.31,34.35-1.79.03,0,.06.02.09.02h0s.11-.01.11-.01c.28.02.48-.19.5-.46.08-.97.34-1.93.6-2.74.04-.15.01-.31-.08-.43-.1-.13-.26-.23-.42-.2-15.3.4-26.72.4-35.94.02-.15-.02-.3.05-.4.16-.05.07-.14.2-.11.39.28,1.54.4,3.09.36,4.62Z" stroke-width="0"/></g></svg>