<?xml version="1.0" encoding="UTF-8"?><svg width="70" height="70" xmlns="http://www.w3.org/2000/svg" viewBox="-10 -10 70 70"><rect x="-10" y="-10" width="70" height="70" fill="white"/><g id="uuid-8c250dce-d92c-4115-b21d-93cc51fba05b"><g><path d="M40.84,6.95c-3.69-1-7.74,.8-10.09,4.47-.08,.12-.2,.2-.35,.23-.15,.02-.29-.02-.4-.11-2.3-1.96-5.27-2.58-8.02-1.63-.21,.07-.43,0-.56-.17-2.07-2.69-5.1-4.06-8.13-3.67-2.4,.31-4.52,1.69-5.97,3.86-1.46,2.2-2.07,4.95-1.7,7.74,.38,2.88,1.81,5.99,3.84,8.3,2.16,2.47,4.6,3.66,6.88,3.36,.48-.06,.98-.21,1.51-.45,.07-.03,.13-.04,.2-.04,.16,0,.31,.07,.41,.21,1.78,2.5,3.96,3.88,6.13,3.88,2.43,0,4.89-1.75,6.73-4.8,.08-.13,.21-.22,.37-.24,.15-.02,.3,.03,.41,.14,.8,.79,1.67,1.32,2.6,1.57,4.74,1.28,10.66-4.5,12.19-10.13,1.51-5.59-1.2-11.21-6.05-12.53Z" fill="#ffcd00" stroke-width="0"/><path d="M9.08,6.64c-1.24,.89-2.22,1.99-2.9,3.27-.2,.39-.38,.79-.53,1.2-.09,.26,.04,.55,.3,.64,.06,.02,.11,.03,.17,.03,.21,0,.4-.13,.47-.33,.13-.36,.29-.72,.47-1.07,.61-1.14,1.48-2.13,2.6-2.93,.22-.16,.28-.47,.12-.7s-.47-.28-.7-.12Z" stroke-width="0"/><path d="M45.31,9.39c-1.27-2.61-3.42-4.44-6.04-5.15-2.62-.71-5.39-.21-7.81,1.4-1.2,.8-2.24,1.82-3.08,3.02-1.61-1.23-3.54-1.95-5.62-1.95-.89,0-1.76,.15-2.58,.4-.39-.48-.82-.94-1.28-1.35-2.18-1.92-4.87-2.79-7.56-2.43-2.69,.35-5.06,1.88-6.67,4.3-1.6,2.4-2.26,5.39-1.86,8.43,.78,5.97,5.77,12.58,11.04,12.58,.05,0,.09,0,.14,0-.46,2.68-.12,4.86,1.04,6.49,.6,.85,1.26,1.3,1.89,1.73,.49,.34,1,.69,1.55,1.26,1.48,1.55,2.31,3.84,2.47,6.79,.01,.27,.24,.47,.5,.47h.03c.28-.02,.49-.25,.47-.53-.17-3.2-1.1-5.69-2.75-7.43-.61-.64-1.19-1.04-1.7-1.4-.61-.42-1.14-.79-1.64-1.49-1.04-1.46-1.31-3.49-.81-6.04,.36-.07,.71-.17,1.05-.3,1.71,2.26,3.93,3.83,6.38,3.96,.49,.93,.81,1.9,.93,2.89,.16,1.34-.07,2.32-.35,3.45-.1,.4-.2,.81-.28,1.26-.39,2.08-.35,4.31,.14,6.61,.05,.24,.26,.4,.49,.4,.03,0,.07,0,.1-.01,.27-.06,.44-.32,.39-.59-.46-2.18-.51-4.27-.14-6.22,.08-.42,.18-.82,.27-1.21,.28-1.17,.55-2.28,.37-3.8-.11-.96-.39-1.9-.82-2.81,2.54-.32,4.81-2.18,6.48-4.71,.48,.41,1,.76,1.56,1.03-1.51,.97-2.47,2.13-2.83,3.46-.25,.9-.12,1.5,.02,2.19,.12,.57,.25,1.22,.24,2.26-.04,2.72-.96,4.61-1.73,5.73-.64,.93-1.44,1.73-2.38,2.38-.23,.16-.28,.47-.13,.7,.1,.14,.25,.22,.41,.22,.1,0,.2-.03,.28-.09,1.05-.72,1.93-1.61,2.64-2.64,.84-1.22,1.85-3.31,1.9-6.27,.02-1.15-.13-1.89-.26-2.48-.13-.64-.22-1.05-.04-1.72,.35-1.27,1.4-2.38,3.11-3.3,.48,.11,.96,.17,1.44,.17,4.98,0,10.27-5.56,11.75-11.05,.8-2.96,.55-6.01-.71-8.6ZM22.76,31.18c-4.91,0-9.12-7.13-9.12-12.96s4.09-10.51,9.12-10.51,9.11,4.71,9.11,10.51-4.21,12.96-9.11,12.96Zm-8.25-3.6c-4.86,.63-9.96-5.88-10.72-11.67-.37-2.8,.24-5.54,1.7-7.74,1.45-2.18,3.57-3.55,5.97-3.86,.35-.05,.7-.07,1.04-.07,2.04,0,4.04,.78,5.72,2.26,.34,.3,.65,.63,.94,.97-3.81,1.65-6.53,5.84-6.53,10.75,0,3.08,1.08,6.47,2.82,9.14-.31,.1-.63,.18-.95,.22Zm30.55-9.85c-1.53,5.63-7.45,11.41-12.19,10.13-.86-.23-1.63-.69-2.32-1.31,1.45-2.52,2.32-5.55,2.32-8.33,0-2.63-.79-5.04-2.09-6.98,.42-.7,1.01-1.45,1.83-2.11,.74-.6,1.58-1.06,2.5-1.36,.26-.09,.4-.37,.32-.63-.09-.26-.37-.4-.63-.32-1.03,.34-1.98,.86-2.81,1.53-.79,.64-1.39,1.35-1.84,2.03-.31-.38-.64-.74-.99-1.06,.78-1.13,1.74-2.09,2.86-2.84,1.53-1.02,3.22-1.55,4.9-1.55,.71,0,1.41,.09,2.1,.28,2.34,.63,4.26,2.28,5.4,4.63,1.16,2.37,1.39,5.18,.65,7.9Z" stroke-width="0"/><path d="M19.9,10.54c.22-.17,.27-.48,.1-.7-.17-.22-.48-.27-.7-.1-1.03,.77-1.91,1.69-2.63,2.75-.84,1.24-1.43,2.61-1.74,4.08-.06,.27,.12,.54,.39,.59,.03,0,.07,.01,.1,.01,.23,0,.44-.16,.49-.4,.29-1.34,.82-2.6,1.59-3.73,.66-.97,1.46-1.81,2.4-2.51Z" stroke-width="0"/></g></g><g id="uuid-c1797d3a-0473-413c-82b9-48a6cd6515f8"></g></svg>