<?xml version="1.0" encoding="utf-8"?> <!-- Generator: Adobe Illustrator 27.7.0, SVG Export Plug-In . SVG Version: 6.00 Build 0) --> <svg width="70" height="70" version="1.1" xmlns="http://www.w3.org/2000/svg" xmlns:xlink="http://www.w3.org/1999/xlink" x="0px" y="0px" viewBox="-10 -10 70 70" style="enable-background:new 0 0 50 50;" xml:space="preserve"><rect x="-10" y="-10" width="70" height="70" fill="white"/> <style type="text/css"> .st0{fill:#FFCD00;} .st1{display:none;} .st2{display:inline;fill:none;stroke:#EA008A;stroke-width:0.2;stroke-miterlimit:10;} .st3{font-family:'Roboto-Regular';} .st4{font-size:6px;} </style> <g id="Color"> <path class="st0" d="M34.8464,27.4415c0.2336-0.4647,0.4177-0.8597,0.5342-1.151c0.1399-0.3497,0.2778-0.7063,0.4113-1.0685 l0.28-0.9147c-1.7876-0.6082-3.4779-1.7913-5.1578-3.1352c-2.1349-1.7078-4.1151-0.7784-5.0157-0.2677 c0.5479-0.8799,1.3505-3.3494,1.5464-4.0069c2.1411-0.5551,4.3476,0.0734,6.1255,2.1724c1.0192,1.2032,2.1107,2.0988,3.288,2.5285 c0.925-4.4291,0.22-8.9749-5.8828-11.3895c-7.904-3.1273-14.0605,5.4628-15.9186,8.3918c-5,7.8818-11.9225,23.9393-5.4145,28.4241 c3.0732,2.1177,6.5398,1.3481,9.9141-0.8442c0.7068,0.179,1.4175,0.3569,1.6711,0.3995c9.205,1.5463,26.6906,1.6888,28.2955-6.0502 C50.8491,34.1366,42.6086,29.8465,34.8464,27.4415z" stroke-width="0"/> </g> <g id="ICONS_00000031165542127692736420000002692518830807990202_"> <g> <path d="M17.9043,35.3184c0.2598-0.6865,0.0713-1.3877-0.5176-1.9229c-0.8196-0.7448-2.4096-1.1122-4.0072-0.5191 c-0.8118-1.5038-2.2778-2.2831-3.3414-2.268c-0.7959,0.0107-1.4014,0.4102-1.6621,1.0957 c-0.2607,0.6865-0.0723,1.3877,0.5176,1.9238c0.4147,0.3771,1.0292,0.6566,1.7405,0.7673 c-0.3464,0.3126-0.6495,0.6541-0.842,0.9974c-0.1348,0.2402-0.0488,0.5449,0.1924,0.6807 c0.0771,0.043,0.1611,0.0635,0.2441,0.0635c0.1748,0,0.3447-0.0918,0.4365-0.2559c0.3091-0.5519,1.173-1.2718,1.966-1.6395 c0.0901-0.0275,0.18-0.0538,0.2704-0.0874c0.02,0.0372,0.0362,0.0785,0.0569,0.1147c0.0041,0.0196,0.0009,0.0391,0.0075,0.0585 c0.291,0.8555,0.4395,1.8408,0.3975,2.6338c-0.0146,0.2754,0.1963,0.5107,0.4727,0.5254c0.0088,0.001,0.0176,0.001,0.0264,0.001 c0.2646,0,0.4854-0.207,0.499-0.4736c0.0213-0.3959-0.0039-0.8252-0.0571-1.2612c0.6304,0.4371,1.3143,0.6625,1.9067,0.6625 c0.0107,0,0.0205,0,0.0312,0C17.0381,36.4053,17.6436,36.0049,17.9043,35.3184z M9.3115,32.0596 c0.1113-0.2949,0.3604-0.4463,0.7402-0.4512c0.0059,0,0.0117,0,0.0186,0c0.7598,0,1.7852,0.6025,2.3867,1.6445 c-1.1475,0.3809-2.3271,0.1475-2.8906-0.3643C9.2852,32.6328,9.1992,32.3535,9.3115,32.0596z M16.9688,34.9648 c-0.1113,0.2939-0.3604,0.4453-0.7402,0.4502c-0.0059,0-0.0117,0.001-0.0186,0.001c-0.7607-0.001-1.7852-0.6035-2.3877-1.6455 c1.1494-0.3818,2.3271-0.1475,2.8916,0.3643C16.9951,34.3906,17.0811,34.6699,16.9688,34.9648z" stroke-width="0"/> <path d="M34.0874,25.5553c0.1047-0.2222,0.1943-0.4217,0.2573-0.5792c0.0941-0.2348,0.1849-0.4771,0.2763-0.718 c1.2694,0.6265,2.5377,0.9865,3.8887,0.9865c1.6309,0,3.209-0.4282,4.5645-1.2378c7.0469-4.2075,3.9131-14.5244,2.7842-17.5859 c-0.0547-0.1504-0.1797-0.2651-0.334-0.3086c-0.1533-0.0435-0.3203-0.0103-0.4453,0.0894l-1.6426,1.3018L41.3408,7.479 c-0.1455-0.0122-0.3193,0.0771-0.4141,0.2114c-0.0947,0.1348-0.1182,0.3071-0.0605,0.4614 c2.5322,6.8784,2.4775,11.1094-0.1621,12.5757c-1.7064,0.9478-3.3045,0.8631-4.9133-0.2619 c1.3279-5.9716-0.7311-10.0851-6.1316-12.2215c-5.4683-2.1638-10.1102,0.9542-13.2356,4.3031 c-2.1552-3.0206-5.1468-4.0458-9.1501-3.077C6.1924,9.7319,5.9512,9.4849,5.9512,9.4844C5.7949,9.2715,5.084,7.999,6.3965,3.8184 c0.0508-0.165,0.0146-0.3447-0.0977-0.4756C6.1855,3.2119,6.0137,3.1479,5.8438,3.1743L4.4971,3.3799L2.9863,2.3242 C2.8555,2.2334,2.6904,2.2104,2.5391,2.2607C2.3877,2.312,2.2705,2.4321,2.2227,2.5845C0.8994,6.8042,1.0391,10.207,2.6172,12.165 c1.041,1.2915,2.2744,1.5093,4.8936,0.8579c1.3848-0.3447,2.6445-0.1558,3.7461,0.5605c0.9598,0.6237,1.7385,1.641,2.1761,2.7894 c-0.1049,0.159-0.2057,0.314-0.2982,0.4597c-5.5879,8.8076-11.9609,24.4976-5.2764,29.104 c1.2959,0.8926,2.71,1.3398,4.2266,1.3398c0.8291,0,1.6904-0.1338,2.5781-0.4023c1.1356-0.3432,2.277-0.8975,3.4072-1.6098 c0.6048,0.1336,1.148,0.2372,1.5742,0.309c3.1396,0.5273,6.8975,0.873,10.6514,0.873c8.5469,0,17.0713-1.792,18.2168-7.3145 C49.9924,31.9946,41.6235,27.8273,34.0874,25.5553z M41.1904,21.6016c3.083-1.7129,3.3662-6.0059,0.8594-13.1143l1.5527,0.0181 c0.0879,0.0078,0.2256-0.0371,0.3164-0.1079l1.2324-0.9771c1.1807,3.4761,3.376,12.1665-2.5898,15.728 c-1.2002,0.7173-2.6016,1.0962-4.0518,1.0962c-2.4521,0-4.6846-1.3843-7.2832-3.4634c-1.3334-1.0656-2.7848-1.3412-4.3279-0.8528 c0.3817-0.8834,0.6807-1.7434,0.8889-2.5709c2.0132-0.4957,3.8338,0.1851,5.4009,2.0355 C35.7324,22.3965,38.4238,23.1387,41.1904,21.6016z M14.7305,17.958c1.7754-4.0923,4.2686-7.0312,6.6689-7.8623 c1.1865-0.4097,2.3545-0.3149,3.4678,0.2866c1.0986,0.5933,1.8125,1.5107,2.1201,2.7266c0.6289,2.4834-0.4512,6.186-2.8887,9.9053 c-2.9307,4.4702-7.3135,8.7485-10.0459,7.6323C11.6357,28.9863,12.5918,22.8843,14.7305,17.958z M29.292,9.1738 c4.7903,1.8955,6.6293,5.3632,5.6229,10.5797c-0.3195-0.298-0.6398-0.6257-0.9627-1.007 c-1.689-1.9927-3.7302-2.8224-5.9346-2.4471c0.2071-1.2585,0.1959-2.4218-0.0605-3.4357 c-0.3799-1.499-1.2588-2.6299-2.6152-3.3613c-0.5831-0.3144-1.1785-0.5095-1.7824-0.5989 C25.3242,8.3847,27.251,8.3664,29.292,9.1738z M11.8018,12.7451c-1.3242-0.8608-2.8926-1.0996-4.5312-0.6929 c-2.4668,0.6133-3.1885,0.3364-3.874-0.5146c-1.2842-1.5933-1.4268-4.4175-0.415-7.9971L4.0889,4.314 c0.1055,0.0737,0.2383,0.1035,0.3613,0.0845l0.7646-0.1167c-1.0332,3.6846-0.502,5.2046-0.0684,5.7959 c0.2666,0.3613,0.8955,0.7188,2.3613,0.3643c4.7191-1.1403,6.9022,0.8463,8.2465,2.8528 c-0.6285,0.7282-1.1835,1.4482-1.6572,2.1113C13.5601,14.3165,12.7584,13.3668,11.8018,12.7451z M14.374,45.917 c-2.2061,0.667-4.207,0.3945-5.9473-0.8047c-3.3643-2.3174-2.624-8.0176-1.4111-12.3926 c1.5304-5.5172,4.4077-11.2223,6.6935-14.9097c-2.2219,5.2471-3.2099,11.6924-0.17,13.6959 c0.0244,0.0166,0.0508,0.0303,0.0771,0.042c0.4443,0.1914,0.9072,0.2803,1.3857,0.2803c3.2998,0,7.2842-4.2256,9.9326-8.2661 c0.5023-0.7663,0.9303-1.5252,1.3191-2.2766c1.599-0.8685,3.0245-0.7823,4.3479,0.277c1.0863,0.869,2.1165,1.6177,3.134,2.2139 c-0.1051,0.2791-0.2106,0.5575-0.3185,0.8286c-0.9267,2.3163-6.5768,12.1724-13.1079,17.7665 c-0.0248,0.0183-0.0474,0.037-0.0684,0.0593c-0.8172,0.6956-1.6475,1.324-2.4843,1.8619 c-0.0321,0.0164-0.0603,0.0359-0.0881,0.0589C16.5745,45.0459,15.4709,45.5854,14.374,45.917z M29.1533,33.7058 c3.1675,1.3705,4.5035,2.6893,4.2842,4.2307c-0.5269,2.8301-6.2549,4.3142-11.5676,4.3439 C24.5768,39.7659,27.0916,36.6395,29.1533,33.7058z M47.5342,38.9287c-0.8301,3.999-6.3711,5.5312-10.873,6.1123 c-5.8975,0.7617-12.5713,0.2646-16.8506-0.4541c-0.1747-0.0297-0.3834-0.0686-0.5923-0.1079 c0.5185-0.3766,1.0334-0.7811,1.543-1.2128c0.2335,0.0081,0.4674,0.0156,0.7027,0.0179c0.1074,0.001,0.2139,0.002,0.3223,0.002 c5.6836,0,11.9697-1.5986,12.6377-5.1875c0.3666-2.5677-2.1963-4.1443-4.6856-5.2372c1.7274-2.5305,3.084-4.8428,3.8956-6.3982 C40.8105,28.6034,48.8713,32.4778,47.5342,38.9287z" stroke-width="0"/> <path d="M39.5684,39.0693c-0.6263-0.0699-1.6185-0.5824-2.2652-1.1672c-0.0618-0.0747-0.1318-0.1456-0.1996-0.218 c0.027-0.0333,0.059-0.0648,0.0848-0.0984c0.0179-0.0121,0.0383-0.0183,0.0548-0.033c0.6738-0.5996,1.5234-1.1182,2.2725-1.3887 c0.2598-0.0947,0.3945-0.3809,0.3008-0.6406c-0.0947-0.2607-0.3838-0.3906-0.6406-0.3008 c-0.3728,0.1348-0.7576,0.3248-1.1375,0.5427c0.1607-0.7633,0.0966-1.4926-0.1437-2.0417 c-0.3184-0.7305-0.9141-1.1465-1.6562-1.1064c-0.7334,0.0273-1.3057,0.4727-1.5713,1.2236 c-0.3679,1.0431-0.0889,2.6489,1.0773,3.8932c-1.0725,1.325-1.2338,2.9467-0.7911,3.9603 c0.3086,0.707,0.8848,1.1074,1.5879,1.1074c0.0225,0,0.0449,0,0.0684-0.001c0.7334-0.0273,1.3066-0.4727,1.5713-1.2236 c0.1877-0.5323,0.2012-1.2135,0.0228-1.9171c0.4254,0.2,0.8599,0.3593,1.2535,0.4034c0.0186,0.002,0.0381,0.0029,0.0566,0.0029 c0.251,0,0.4678-0.1885,0.4961-0.4443C40.04,39.3477,39.8428,39.1006,39.5684,39.0693z M35.6104,34.1738 c0.126-0.3584,0.3496-0.5459,0.665-0.5566c0.0098-0.001,0.0195-0.001,0.0293-0.001c0.2998,0,0.5264,0.1709,0.6738,0.5078 c0.3057,0.6982,0.1514,1.8887-0.5811,2.8555C35.5967,36.0684,35.3564,34.8926,35.6104,34.1738z M37.2373,41.2441 c-0.126,0.3584-0.3496,0.5459-0.665,0.5566c-0.3066,0.0371-0.5508-0.1592-0.7031-0.5068 c-0.3047-0.6982-0.1504-1.8887,0.5811-2.8555C37.251,39.3506,37.4912,40.5254,37.2373,41.2441z" stroke-width="0"/> </g> </g> <g id="Margin" class="st1"> <rect x="1" y="1" class="st2" /> </g> <g id="Guides" class="st1"> </g> <g id="LABELS"> <g> <g> <g> <g> <g> <g> <g> <g> <g> <g> <g> <g> </g> </g> </g> </g> </g> </g> </g> </g> </g> </g> </g> </g> </g> </svg> 