<?xml version="1.0" encoding="UTF-8"?><svg width="70" height="70" id="uuid-8382c1a4-70af-4c98-9804-430dc3b3cb06" xmlns="http://www.w3.org/2000/svg" viewBox="-10 -10 70 70"><rect x="-10" y="-10" width="70" height="70" fill="white"/><g><path d="M47.31,11.29l.33,.6-4.53,2.48-.33-.59,4.49-2.47s.03-.02,.04-.02Z" fill="#ffcd00" stroke-width="0"/><path d="M45.75,31.71c.27,0,.5-.23,.5-.5v-3.68h.29v4.39h-1.61v-.21h.82Z" fill="#ffcd00" stroke-width="0"/><polygon points="42 2.78 46.35 10.68 42.3 12.9 37.96 5.01 42 2.78" fill="#ffcd00"/><polygon points="45.25 27.53 45.25 30.71 44.43 30.71 4.77 30.71 4.77 27.53 45.25 27.53" fill="#ffcd00"/><polygon points="45.25 26.32 45.25 26.53 5.4 26.53 5.59 26.32 45.25 26.32" fill="#ffcd00"/><path d="M45.22,49.72H6.08v-.21H44.43c.28,0,.5-.23,.5-.5v-16.09h.29v16.8Z" fill="#ffcd00" stroke-width="0"/><rect x="6.08" y="32.92" width="37.85" height="15.59" fill="#ffcd00"/><polygon points="43.93 31.71 43.93 31.92 5.58 31.92 4.79 31.92 4.79 31.71 43.93 31.71" fill="#ffcd00"/><path d="M14.28,22.88c0,.28,.22,.5,.5,.5h19.16c.28,0,.5-.22,.5-.5s-.22-.5-.5-.5h-2.14l.21-.73h9.24l3.36,3.67H6.51l3.37-3.67h7.59l-.21,.73h-2.48c-.28,0-.5,.22-.5,.5Z" fill="#ffcd00" stroke-width="0"/></g><g><path d="M41.82,.39c-.06-.12-.17-.2-.29-.24-.13-.04-.27-.02-.39,.04l-5.39,2.97c-.24,.13-.33,.44-.2,.68l.11,.2-3.58-.83c-1.04-.24-2.14-.09-3.08,.4l-2.95,1.53-3-.87c-.27-.08-.54,.07-.62,.34l-4.31,14.83H8.37c-.14,0-.28,.06-.37,.16l-5.39,5.88s-.02,.04-.04,.06c-.02,.03-.04,.06-.06,.1-.01,.03-.01,.07-.02,.1,0,.03-.01,.05-.01,.08v5.39c0,.27,.22,.5,.5,.5h.81v17.3c0,.27,.23,.5,.5,.5H44.43c.28,0,.5-.23,.5-.5V31.71h.82c.27,0,.5-.23,.5-.5v-5.39s-.01-.05-.02-.08c0-.03-.01-.07-.02-.1-.01-.04-.04-.07-.06-.1l-.03-.06-5.39-5.88c-.1-.1-.23-.16-.37-.16h-7.71l.79-2.72c.17,.05,.38,.1,.69,.14,1.8,.22,3.25-.25,3.79-.46,.13-.05,.33-.13,.58-.25,.52-.25,1.69-.92,2.64-2.15l.05,.08c.06,.12,.17,.21,.3,.24,.04,.02,.09,.02,.14,.02,.08,0,.16-.02,.24-.06l.91-.5,4.49-2.47s.03-.02,.04-.02c.09-.07,.16-.17,.19-.28,.04-.13,.03-.26-.04-.38L41.82,.39ZM23.25,5.37l11.48,3.33-.84,2.88-6.33,1.47c-1.14,.35-1.81,1.55-1.49,2.67,.27,.92,1.13,1.55,2.12,1.55,.08,0,.16,0,.24-.02l3.98-.57-1.45,4.97-.21,.73h-12.44l.21-.73L23.25,5.37Zm20.68,27.55v15.59H4.79V31.71H43.93v1.21Zm1.32-2.21H3.48v-4.39H45.25v4.39Zm-5.11-10.27l1.11,1.21,3.36,3.67H4.11l4.48-4.88h9.24l-.36,1.21-.21,.73h-2.48c-.28,0-.5,.22-.5,.5s.22,.5,.5,.5h19.16c.28,0,.5-.22,.5-.5s-.22-.5-.5-.5h-2.14l.21-.73,.35-1.21h7.78Zm-2.08-5.19c-.21,.11-.39,.18-.5,.22-.47,.18-1.74,.59-3.31,.4-.37-.05-.53-.11-.72-.18-.09-.03-.17-.06-.27-.09h-.01c-.07-.03-.14-.03-.21-.02l-4.73,.68c-.59,.06-1.12-.29-1.27-.82-.17-.59,.2-1.25,.78-1.43l6.58-1.52h0c.17-.05,.32-.17,.37-.35l1.06-3.64c.08-.27-.08-.54-.34-.62l-8.05-2.34,2.02-1.05c.73-.38,1.58-.49,2.39-.3l4.45,1.02,4.31,7.82c-.86,1.3-2.04,1.98-2.55,2.22Zm4.24-2.35l-.48,.26-5.15-9.36,4.52-2.49,.81,1.47,4.35,7.9-4.05,2.22Z" stroke-width="0"/><polygon points="13.34 42.22 11.42 35.8 9.47 35.8 12.43 44.33 14.26 44.33 17.23 35.8 15.27 35.8 13.34 42.22"/><path d="M23.04,36.2c-.55-.34-1.18-.51-1.9-.51s-1.34,.17-1.9,.51-.98,.83-1.28,1.47-.45,1.38-.45,2.22v.42c0,.82,.16,1.55,.46,2.18s.73,1.12,1.29,1.46,1.19,.51,1.89,.51,1.35-.17,1.9-.52,.98-.83,1.27-1.46,.45-1.37,.45-2.21v-.38c0-.84-.15-1.57-.45-2.21s-.73-1.13-1.28-1.47Zm-.04,4.09c0,.89-.16,1.56-.48,2.02s-.77,.69-1.36,.69-1.06-.24-1.38-.72-.48-1.16-.48-2.03v-.42c0-.89,.17-1.56,.49-2.02s.78-.69,1.37-.69,1.05,.23,1.37,.7,.48,1.14,.48,2.04v.42Z" stroke-width="0"/><polygon points="25.36 37.22 27.94 37.22 27.94 44.33 29.69 44.33 29.69 37.22 32.31 37.22 32.31 35.8 25.36 35.8 25.36 37.22"/><polygon points="35.07 40.63 38.44 40.63 38.44 39.26 35.07 39.26 35.07 37.22 39.02 37.22 39.02 35.8 33.31 35.8 33.31 44.33 39.03 44.33 39.03 42.92 35.07 42.92 35.07 40.63"/></g></svg>