<?xml version="1.0" encoding="UTF-8"?><svg width="70" height="70" xmlns="http://www.w3.org/2000/svg" viewBox="-10 -10 70 70"><rect x="-10" y="-10" width="70" height="70" fill="white"/><g id="uuid-08bddc93-562d-4298-bfef-f3d8b382e171"><g><path d="M46.94,18.46l-.54-.86c-.54-.88-.34-2.59-.1-4.57,.23-1.93,.52-4.34-.18-5.17-.16-.19-.37-.29-.65-.3-1.16-.07-2-.12-2.24,.12-.29,.28-.27,1.4-.24,2.83,.01,.51,.04,1.05,.06,1.61,.03,.73,.07,1.5,.08,2.31,0,.08-.02,.17-.06,.24-1.44,2.65-3.43,4.8-6.26,6.74-2.85,1.96-14.8,6.4-31.92,1.52l-1.82,2.07c0,.08,.02,.23,.11,.43,.92,2.1,6.66,6.77,13.56,9.28,.22,.08,.36,.3,.32,.54-.03,.23-.22,.41-.46,.43-3.31,.25-6.76,.19-10.26-.17l-1.42,2.35c.02,.4,.97,1.63,4.02,3.31,3.9,2.15,10.17,4.41,16.05,4.29,13.85-.26,24.7-8.64,24.7-19.08,0-3.53-1.1-5.27-2.75-7.91Z" fill="#ffcd00" stroke-width="0"/><path d="M46.04,15.98l-.53-.85c-.36-.58-.15-2.36,.04-3.93,.28-2.34,.57-4.77-.4-5.92-.34-.4-.8-.63-1.36-.66-1.57-.09-2.44-.14-2.99,.39-.61,.58-.58,1.64-.55,3.57,.01,.52,.04,1.07,.06,1.63,.03,.65,.06,1.34,.07,2.04,0,.03,0,.07,0,.1-1.36,2.46-3.23,4.45-5.89,6.28-2.77,1.9-14.47,6.21-31.38,1.29-.19-.05-.39,0-.52,.15L.48,22.46s-.06,.09-.08,.14c-.15,.35-.11,.78,.1,1.27,1.02,2.34,6.16,6.4,12.03,8.98-2.66,.09-5.39-.02-8.15-.33-.2-.02-.38,.07-.48,.24l-1.64,2.71s-.05,.1-.06,.15c-.35,1.53,2.68,3.46,4.51,4.47,3.92,2.16,10.16,4.42,16.11,4.42,.15,0,.29,0,.44,0,14.4-.27,25.68-9.09,25.68-20.08,0-3.81-1.22-5.75-2.91-8.44ZM1.41,23.47c-.09-.2-.11-.35-.11-.43l1.82-2.07c17.12,4.88,29.07,.44,31.92-1.52,2.24-1.53,3.94-3.2,5.27-5.13-.24,3.55-1.41,7.38-5.61,11.52-1.63,1.61-8.37,5.97-19.84,6.87-6.86-2.53-12.54-7.15-13.46-9.24Zm21.83,20.03c-5.89,.14-12.33-2.24-16.05-4.29-3.06-1.68-4-2.91-4.02-3.31l1.42-2.35c3.48,.36,6.91,.42,10.2,.17h.07c11.83-.91,18.86-5.48,20.57-7.17,5.2-5.14,5.98-9.97,5.95-14.07h0c0-.05,0-.08,0-.12,0-.12,0-.23,0-.35h0c-.01-.63-.03-1.26-.06-1.85-.03-.56-.05-1.09-.06-1.61-.03-1.42-.05-2.55,.24-2.83,.24-.23,1.08-.18,2.24-.12,.29,.02,.49,.11,.65,.3,.69,.83,.41,3.23,.18,5.17-.24,1.98-.44,3.7,.1,4.57l.54,.86c1.66,2.64,2.75,4.39,2.75,7.91,0,10.43-10.85,18.81-24.7,19.08Z" stroke-width="0"/><path d="M44.19,24.65c-.24-.13-.55-.04-.68,.2-3.42,6.33-10.6,11.11-19.2,12.8-5.91,1.16-12.74-.09-16.8-1.51-.26-.09-.55,.04-.64,.31-.09,.26,.05,.55,.31,.64,3.02,1.06,7.54,2.03,12.12,2.03,1.75,0,3.52-.14,5.21-.47,8.89-1.75,16.32-6.72,19.89-13.31,.13-.24,.04-.55-.2-.68Z" stroke-width="0"/></g></g><g id="uuid-694e0d45-6a1b-4566-a084-911d16662702"></g></svg>