<?xml version="1.0" encoding="UTF-8"?><svg width="70" height="70" xmlns="http://www.w3.org/2000/svg" viewBox="-10 -10 70 70"><rect x="-10" y="-10" width="70" height="70" fill="white"/><g id="uuid-1111ed19-5ec0-454e-b220-aa29194b7832"><path d="M24.81,11.96l-3.58-3.58c-1.77-1.77-4.09-2.65-6.41-2.65s-4.64,.88-6.41,2.65c-3.54,3.54-3.54,9.29,0,12.82l4.6,4.6,.08-.08-1.02-1.02,12.74-12.74Z" fill="#ffcd00" stroke-width="0"/><path d="M45.58,32.73l-5.51-5.51-12.82,12.82,5.51,5.51c3.54,3.54,9.29,3.54,12.82,0s3.54-9.29,0-12.82Z" fill="#ffcd00" stroke-width="0"/><path d="M27.24,12.98l12.82,12.82,5.03-5.03c3.53-3.53,3.53-9.29,0-12.82-1.77-1.77-4.09-2.65-6.41-2.65s-4.64,.88-6.41,2.65l-5.03,5.03Z" fill="#ffcd00" stroke-width="0"/><path d="M25.91,39.96l-12.82-12.82-5.17,5.17c-3.53,3.54-3.53,9.29,0,12.82s9.29,3.54,12.82,0l5.17-5.17Z" fill="#ffcd00" stroke-width="0"/><path d="M44.54,30.27l-5.51-5.51,5.03-5.03c3.92-3.92,3.92-10.31,0-14.24-1.9-1.9-4.43-2.95-7.12-2.95s-5.22,1.05-7.12,2.95l-5.03,5.03-4.6-4.6c-3.92-3.92-10.31-3.93-14.24,0-1.9,1.9-2.95,4.43-2.95,7.12s1.05,5.22,2.95,7.12l4.6,4.6-5.08,5.08c-3.92,3.93-3.92,10.31,0,14.24,1.9,1.9,4.43,2.95,7.12,2.95s5.22-1.05,7.12-2.95l5.09-5.09,5.51,5.51c1.96,1.96,4.54,2.94,7.12,2.94s5.16-.98,7.12-2.94,2.95-4.43,2.95-7.12-1.05-5.22-2.95-7.12ZM6.17,43.37c-3.53-3.53-3.53-9.29,0-12.82l5.17-5.17,12.82,12.82-5.17,5.17c-3.54,3.54-9.29,3.53-12.82,0ZM43.34,6.2c3.53,3.54,3.53,9.29,0,12.82l-5.03,5.03-12.82-12.82,5.03-5.03c1.77-1.77,4.09-2.65,6.41-2.65s4.64,.88,6.41,2.65Zm-18.53,31.25l-12.74-12.74,12.74-12.74,12.74,12.74-12.74,12.74ZM6.66,19.45c-3.54-3.54-3.54-9.29,0-12.82,1.77-1.77,4.09-2.65,6.41-2.65s4.64,.88,6.41,2.65l4.6,4.6-12.82,12.82-4.6-4.6Zm37.17,24.35c-3.54,3.54-9.29,3.54-12.82,0l-5.51-5.51,12.82-12.82,5.51,5.51c3.54,3.54,3.54,9.29,0,12.82Z" stroke-width="0"/><path d="M29.04,22.52c.54-.54,.54-1.43,0-1.97-.54-.54-1.43-.54-1.97,0s-.54,1.43,0,1.97c.54,.54,1.43,.54,1.97,0Z" fill="none" stroke-width="0"/><path d="M16.67,23.16c-.54,.54-.54,1.43,0,1.97,.54,.54,1.43,.54,1.97,0,.54-.54,.54-1.43,0-1.97s-1.43-.54-1.97,0Z" fill="none" stroke-width="0"/><path d="M32.92,26.53c.54-.54,.54-1.43,0-1.97s-1.43-.54-1.97,0c-.54,.54-.54,1.43,0,1.97,.54,.54,1.43,.54,1.97,0Z" fill="none" stroke-width="0"/><path d="M21.86,21.84c.54-.54,.54-1.43,0-1.97-.54-.54-1.43-.54-1.97,0-.54,.54-.54,1.43,0,1.97,.54,.54,1.43,.54,1.97,0Z" fill="none" stroke-width="0"/><path d="M27.73,27.85c-.54,.54-.54,1.43,0,1.97s1.43,.54,1.97,0c.54-.54,.54-1.43,0-1.97-.54-.54-1.43-.54-1.97,0Z" fill="none" stroke-width="0"/><path d="M25.08,18.55c.54-.54,.54-1.43,0-1.97s-1.43-.54-1.97,0-.54,1.43,0,1.97c.54,.54,1.43,.54,1.97,0Z" fill="none" stroke-width="0"/><path d="M26.49,33.11c.54-.54,.54-1.43,0-1.97-.54-.54-1.43-.54-1.97,0-.54,.54-.54,1.43,0,1.97,.54,.54,1.43,.54,1.97,0Z" fill="none" stroke-width="0"/><path d="M20.63,27.13c-.54,.54-.54,1.43,0,1.97,.54,.54,1.43,.54,1.97,0,.54-.54,.54-1.43,0-1.97-.54-.54-1.43-.54-1.97,0Z" fill="none" stroke-width="0"/><path d="M25.82,25.8c.54-.54,.54-1.43,0-1.97-.54-.54-1.43-.54-1.97,0-.54,.54-.54,1.43,0,1.97,.54,.54,1.43,.54,1.97,0Z" fill="none" stroke-width="0"/><path d="M25.08,18.55c.54-.54,.54-1.43,0-1.97s-1.43-.54-1.97,0-.54,1.43,0,1.97c.54,.54,1.43,.54,1.97,0Z" stroke-width="0"/><path d="M29.04,22.52c.54-.54,.54-1.43,0-1.97-.54-.54-1.43-.54-1.97,0s-.54,1.43,0,1.97c.54,.54,1.43,.54,1.97,0Z" stroke-width="0"/><path d="M30.95,24.56c-.54,.54-.54,1.43,0,1.97,.54,.54,1.43,.54,1.97,0s.54-1.43,0-1.97-1.43-.54-1.97,0Z" stroke-width="0"/><path d="M21.86,21.84c.54-.54,.54-1.43,0-1.97-.54-.54-1.43-.54-1.97,0-.54,.54-.54,1.43,0,1.97,.54,.54,1.43,.54,1.97,0Z" stroke-width="0"/><path d="M25.82,25.8c.54-.54,.54-1.43,0-1.97-.54-.54-1.43-.54-1.97,0-.54,.54-.54,1.43,0,1.97,.54,.54,1.43,.54,1.97,0Z" stroke-width="0"/><path d="M27.73,27.85c-.54,.54-.54,1.43,0,1.97s1.43,.54,1.97,0c.54-.54,.54-1.43,0-1.97-.54-.54-1.43-.54-1.97,0Z" stroke-width="0"/><path d="M16.67,23.16c-.54,.54-.54,1.43,0,1.97,.54,.54,1.43,.54,1.97,0,.54-.54,.54-1.43,0-1.97s-1.43-.54-1.97,0Z" stroke-width="0"/><path d="M20.63,27.13c-.54,.54-.54,1.43,0,1.97,.54,.54,1.43,.54,1.97,0,.54-.54,.54-1.43,0-1.97-.54-.54-1.43-.54-1.97,0Z" stroke-width="0"/><path d="M24.52,31.14c-.54,.54-.54,1.43,0,1.97,.54,.54,1.43,.54,1.97,0,.54-.54,.54-1.43,0-1.97-.54-.54-1.43-.54-1.97,0Z" stroke-width="0"/></g><g id="uuid-8eae00bf-709c-43cc-b4a7-6c8342041428"></g></svg>