<?xml version="1.0" encoding="UTF-8"?><svg width="70" height="70" xmlns="http://www.w3.org/2000/svg" viewBox="-10 -10 70 70"><rect x="-10" y="-10" width="70" height="70" fill="white"/><g id="uuid-2be48971-a6bf-4560-939e-d14d3ab9dbd6"><path d="M7.65,31.11c-.87,.58-1.53,1.36-1.82,2.13,.83,.03,1.8-.27,2.67-.85,.11-.07,.2-.15,.3-.23,1.29-.92,1.88-1.5,1.76-1.75-.06-.12-.3-.17-.71-.12-.71,.07-1.49,.35-2.21,.83Z" fill="#ffcd00" stroke-width="0"/><path d="M11.89,33.74c0-1.16-.44-2.25-1.17-2.93-.73,.69-1.17,1.78-1.17,2.93s.44,2.25,1.17,2.93c.73-.69,1.17-1.78,1.17-2.93Z" fill="#ffcd00" stroke-width="0"/><path d="M19,26.81c.07,.05,.13,.12,.18,.19,.07,.11,.12,.25,.13,.41,.14,1.49,1.26,2.63,2.61,2.65h.03c.61,0,1.18-.24,1.64-.7,.65-.65,1.01-1.62,1.01-2.2,0-.25-.19-.46-.44-.49-.02,0-.04-.01-.06-.01-.28,0-.5,.22-.5,.5s-.21,1-.71,1.49c-.28,.28-.61,.41-.96,.42-.82-.01-1.54-.78-1.63-1.73-.02-.31-.12-.61-.29-.86-.12-.19-.27-.34-.48-.49-.02-.01-1.75-1.05-1.82-2.92-.04-.94,.33-1.88,1.01-2.58,.61-.63,1.39-.98,2.19-.98,1.76,0,3.2,1.61,3.2,3.59,0,.25,.19,.46,.44,.49,.02,0,.04,.01,.06,.01,.28,0,.5-.22,.5-.5,0-2.53-1.88-4.59-4.2-4.59-1.07,0-2.11,.46-2.91,1.29-.87,.9-1.34,2.11-1.29,3.32,.09,2.41,2.22,3.69,2.28,3.72Z" stroke-width="0"/><path d="M23.03,26.12c-.1-.03-.2-.04-.29,0,.16-.48,.47-1.4,.54-1.99,.03-.19,.04-.38,.04-.38,.02-.32,0-.65-.07-1.01-.05-.21-.37-1.27-1.31-1.66-.98-.41-1.94,.2-2.42,.93-.23,.35-.38,.78-.42,1.24-.04,.42,0,.85,.12,1.24,.08,.26,.36,.41,.63,.33,.26-.08,.41-.36,.33-.63-.06-.19-.12-.48-.08-.83,.02-.17,.08-.51,.27-.8,.19-.29,.67-.77,1.2-.55,.41,.17,.65,.7,.71,.95,.04,.25,.06,.5,.05,.75,0,0,0,.15-.03,.29-.06,.48-.35,1.38-.56,1.98-.12,.29-.12,.62,0,.91,.1,.23,.27,.41,.48,.49,.09,.03,.18,.05,.27,.05,.11,0,.23-.02,.34-.07,.23-.11,.42-.32,.52-.59,.09-.26-.05-.53-.31-.62Z" stroke-width="0"/><path d="M35.53,33.59c-7.57,.76-15.14-.07-22.54-2.47l.04,.06c5.8,2.28,11.18,5.42,15.97,9.34,3.37,2.76,6.45,5.9,9.15,9.34,2.16-4.74,4.44-8.42,6.77-10.97l.08-.09c.72-.78,2.21-2.4,2.66-4.87,.17-.96,.17-1.97-.01-2.99-3.94,1.34-8.02,2.23-12.13,2.64Z" fill="#ffcd00" stroke-width="0"/><path d="M46.77,28.43c-.03-.14-.12-.25-.25-.32-.12-.07-.27-.08-.41-.03-.08,.03-.17,.05-.25,.08-.91-1.83-2.28-4.84-2.28-6.37,0-.71,.16-1.61,.34-2.65,.42-2.39,.93-5.35-.18-7.87C40.72,4.4,31.22-1.51,21.15,.9,8.98,3.82,7.71,13.56,7.81,20.63c.04,3.01,.69,5.1,1.52,6.98,0,0-.01,0-.02-.01-1.18-.29-2.66,.05-3.97,.92-1.3,.87-2.2,2.1-2.39,3.3-.04,.26,.12,.5,.37,.56,.27,.07,.57,.1,.87,.1,.84,0,1.76-.27,2.62-.75,0,.09-.01,.17-.01,.25,0,1.65,.7,3.14,1.87,3.99,.09,.06,.19,.1,.29,.1s.21-.03,.29-.1c1.17-.85,1.87-2.34,1.87-3.99,0-.27-.03-.53-.06-.79,.75,1.56,1.45,3.28,1.89,5.59,1.1,5.73-.56,8.34-1.35,9.6-.17,.26-.3,.47-.37,.64-.11,.25,0,.55,.26,.66,.06,.03,.13,.04,.2,.04,.19,0,.38-.11,.46-.3,.06-.13,.16-.29,.29-.5,.87-1.36,2.67-4.2,1.49-10.32-.46-2.4-1.19-4.19-1.95-5.79,5.29,2.2,10.21,5.13,14.63,8.73,1.51,1.23,2.94,2.55,4.32,3.93v3.34c0,.28,.22,.5,.5,.5s.5-.22,.5-.5v-2.33c1.48,1.55,2.88,3.18,4.18,4.89,.1,.12,.24,.2,.4,.2,.02,0,.04,0,.06,0,.18-.02,.33-.13,.4-.29,2.22-5,4.56-8.86,6.94-11.46l.08-.09c.72-.78,2.41-2.61,2.9-5.37,.23-1.27,.18-2.6-.14-3.94Zm-.85,3.76c-.45,2.47-1.94,4.09-2.66,4.87l-.08,.09c-2.33,2.54-4.61,6.23-6.77,10.97-2.7-3.44-5.78-6.58-9.15-9.34-4.8-3.92-10.17-7.06-15.97-9.34l-.04-.06c7.39,2.39,14.97,3.22,22.54,2.47,4.11-.41,8.18-1.3,12.13-2.64,.18,1.02,.19,2.02,.01,2.99Zm-36.95-3.13c.73,.69,1.17,1.78,1.17,2.93s-.44,2.25-1.17,2.93c-.73-.69-1.17-1.78-1.17-2.93s.44-2.25,1.17-2.93ZM21.39,1.88c6.49-1.56,17.56,.98,21.44,9.79,.99,2.24,.5,5.04,.11,7.3-.19,1.09-.35,2.03-.35,2.83,0,1.69,1.37,4.75,2.31,6.68-3.66,1.19-7.42,2.01-11.21,2.39-7.73,.77-15.47-.15-23.02-2.73-.99-2.04-1.81-4.2-1.85-7.5-.11-7.3,1.23-16.02,12.57-18.74ZM6.74,30.63c-.87,.58-1.84,.88-2.67,.85,.29-.77,.95-1.55,1.82-2.13,.71-.47,1.5-.76,2.21-.83-.48,.51-.84,1.15-1.06,1.87-.1,.08-.19,.16-.3,.23Z" stroke-width="0"/></g><g id="uuid-bc8bcc00-a0a2-42e5-bd3a-429131f3cfe6"></g></svg>