<?xml version="1.0" encoding="UTF-8"?><svg width="70" height="70" id="uuid-dabbb9fd-a9c0-4b10-ba76-66b71f92645b" xmlns="http://www.w3.org/2000/svg" viewBox="-10 -10 70 70"><rect x="-10" y="-10" width="70" height="70" fill="white"/><g><path d="M35.2,46.28c-.69,1.27-4.26,2.53-9.16,2.53s-8.47-1.26-9.16-2.53c6.14-.62,12.3-.62,18.32,0Z" fill="#ffcd00" stroke-width="0"/><path d="M15.99,30.5l.64,12.76c6.31-.65,12.64-.65,18.82,0l.64-12.76c-6.67-2.55-13.43-2.55-20.1,0Zm15.9,5.92l-2.76,1.46,2.1,2.32c.14,.16,.17,.39,.06,.58-.11,.19-.33,.28-.54,.24l-3.02-.65,.08,.81c.01,.14-.03,.28-.13,.38-.09,.11-.23,.17-.37,.17h-4.62c-.14,0-.28-.06-.37-.17-.1-.1-.14-.24-.13-.38l.08-.81-3.02,.65c-.21,.04-.43-.05-.54-.24-.11-.19-.08-.42,.06-.58l2.1-2.32-2.76-1.46c-.19-.1-.3-.31-.26-.53,.04-.21,.21-.38,.42-.41l3.1-.43-1.18-2.89c-.08-.2-.02-.43,.14-.57,.17-.14,.41-.15,.59-.04l2.65,1.66,.95-2.97c.14-.42,.82-.42,.96,0l.95,2.97,2.65-1.66c.18-.11,.42-.1,.59,.04,.16,.14,.22,.37,.14,.57l-1.18,2.89,3.1,.43c.21,.03,.38,.2,.42,.41,.04,.22-.07,.43-.26,.53Z" fill="#ffcd00" stroke-width="0"/><path d="M21.85,9.26h-.01c-.08-.22-.29-.34-.5-.32-.23,.02-.41,.19-.45,.41-.08,.51-.25,.85-.52,1.04-.3,.2-.77,.27-1.44,.18,.47-2.24,1.4-4.93,2.72-6.29,2.3-2.35,6.21-2.43,8.7-.2,1.53,1.56,1.91,3.92,1.02,6.32-.45,1.36-.53,2.83-.23,4.23l.61,2.79c-1.06,.1-2.09-.17-3.15-.83-.23-.14-.54-.07-.69,.17-.14,.23-.07,.54,.17,.68,.14,.09,.28,.16,.42,.23-.75,3.57-.9,5.94-.93,6.87-.7-.03-1.4-.04-2.09-.03-.07-.88-.12-1.31-.35-2.53-.03-.15-.13-.28-.27-.35s-.3-.07-.44,0c-.35,.17-.72,.21-1.11,.12l.67-2.72c.23-.93,.29-1.85,.16-2.74-.2-1.45-.62-2.79-1.2-4.31l-1.09-2.72Z" fill="#ffcd00" stroke-width="0"/></g><g><path d="M22.96,37.22c0,1.12,.92,2.04,2.04,2.04s2.04-.92,2.04-2.04-.92-2.04-2.04-2.04-2.04,.92-2.04,2.04Zm3.08,0c0,.57-.47,1.04-1.04,1.04s-1.04-.47-1.04-1.04,.47-1.04,1.04-1.04,1.04,.47,1.04,1.04Z" stroke-width="0"/><path d="M24.52,30.24l-.95,2.97-2.65-1.66c-.18-.11-.42-.1-.59,.04-.16,.14-.22,.37-.14,.57l1.18,2.89-3.1,.43c-.21,.03-.38,.2-.42,.41-.04,.22,.07,.43,.26,.53l2.76,1.46-2.1,2.32c-.14,.16-.17,.39-.06,.58,.11,.19,.33,.28,.54,.24l3.02-.65-.08,.81c-.01,.14,.03,.28,.13,.38,.09,.11,.23,.17,.37,.17h4.62c.14,0,.28-.06,.37-.17,.1-.1,.14-.24,.13-.38l-.08-.81,3.02,.65c.21,.04,.43-.05,.54-.24,.11-.19,.08-.42-.06-.58l-2.1-2.32,2.76-1.46c.19-.1,.3-.31,.26-.53-.04-.21-.21-.38-.42-.41l-3.1-.43,1.18-2.89c.08-.2,.02-.43-.14-.57-.17-.14-.41-.15-.59-.04l-2.65,1.66-.95-2.97c-.14-.42-.82-.42-.96,0Zm1.16,3.89c.05,.15,.16,.26,.31,.32,.14,.05,.3,.03,.43-.05l1.88-1.18-.84,2.05c-.05,.15-.04,.31,.04,.44,.07,.14,.21,.23,.36,.25l2.19,.3-1.95,1.04c-.14,.07-.24,.2-.26,.35-.03,.15,.01,.31,.12,.42l1.48,1.65-2.16-.47c-.15-.03-.32,.01-.44,.12-.12,.1-.18,.26-.17,.42l.09,.94h-3.52l.09-.94c.01-.16-.05-.32-.17-.42-.12-.11-.28-.15-.44-.12l-2.16,.47,1.48-1.65c.11-.11,.15-.27,.12-.42-.02-.15-.12-.28-.26-.35l-1.95-1.04,2.19-.3c.15-.02,.29-.11,.36-.25,.08-.13,.09-.29,.04-.44l-.84-2.05,1.88,1.18c.13,.08,.29,.1,.43,.05,.15-.06,.26-.17,.31-.32l.68-2.11,.68,2.11Z" stroke-width="0"/><path d="M35.9,26.16c-2.78-1.12-5.57-1.8-8.37-2.06,.02-.84,.16-3.12,.87-6.53,.63,.23,1.27,.35,1.91,.35,.36,0,.73-.04,1.1-.11,.13-.03,.24-.1,.32-.22,.07-.11,.09-.25,.06-.38l-.71-3.31c-.27-1.23-.2-2.51,.2-3.69,1.01-2.75,.55-5.5-1.27-7.37-2.96-2.66-7.4-2.56-10.12,.22-1.98,2.04-2.86,6.11-3.09,7.31-.05,.27,.13,.53,.4,.58,1.23,.24,2.09,.16,2.7-.26,.17-.12,.32-.27,.45-.45,.87,2.17,1.5,3.85,1.76,5.67,.11,.76,.06,1.55-.14,2.36l-.79,3.16c-.06,.24,.07,.49,.29,.58,.61,.26,1.19,.33,1.74,.21,.13,.73,.17,1.13,.23,1.81-3.12,.17-6.24,.88-9.34,2.13-.2,.08-.33,.27-.32,.49l.94,18.7h.01c.03,2.56,5.31,3.94,10.27,3.94s10.24-1.38,10.27-3.94h.01l.94-18.7c.01-.22-.12-.41-.32-.49Zm-12.52-5.05c-.35,.17-.72,.21-1.11,.12l.67-2.72c.23-.93,.29-1.85,.16-2.74-.2-1.45-.62-2.79-1.2-4.31,.33,.17,.66,.29,1,.32,.05,0,.1,0,.15-.01,1.3-.31,2.12-1.35,2.51-3.16,.06-.27-.12-.54-.39-.59-.27-.06-.53,.11-.59,.38-.38,1.78-1.12,2.22-1.68,2.37-.8-.1-1.68-.96-2.09-2.03h-.01c-.08-.22-.29-.34-.5-.32-.23,.02-.41,.19-.45,.41-.08,.51-.25,.85-.52,1.04-.3,.2-.77,.27-1.44,.18,.47-2.24,1.4-4.93,2.72-6.29,2.3-2.35,6.21-2.43,8.7-.2,1.53,1.56,1.91,3.92,1.02,6.32-.45,1.36-.53,2.83-.23,4.23l.61,2.79c-1.06,.1-2.09-.17-3.15-.83-.23-.14-.54-.07-.69,.17-.14,.23-.07,.54,.17,.68,.14,.09,.28,.16,.42,.23-.75,3.57-.9,5.94-.93,6.87-.7-.03-1.4-.04-2.09-.03-.07-.88-.12-1.31-.35-2.53-.03-.15-.13-.28-.27-.35-.14-.07-.3-.07-.44,0Zm1.62,27.18c-4.9,0-8.47-1.26-9.16-2.53,6.14-.62,12.3-.62,18.32,0-.69,1.27-4.26,2.53-9.16,2.53Zm9.3-3.51c-6.11-.64-12.37-.64-18.6,0l-.06-1.04c6.28-.66,12.57-.66,18.72,0l-.06,1.04Zm.11-2.04c-6.18-.65-12.51-.65-18.82,0l-.64-12.76c6.67-2.55,13.43-2.55,20.1,0l-.64,12.76Zm.69-13.81c-6.71-2.49-13.49-2.49-20.2,0l-.1-1.97c6.77-2.64,13.63-2.64,20.4,0l-.1,1.97Z" stroke-width="0"/></g></svg>