<?xml version="1.0" encoding="UTF-8"?><svg width="70" height="70" id="uuid-3e0daa57-7925-4a00-a8de-128a56a062a5" xmlns="http://www.w3.org/2000/svg" viewBox="-10 -10 70 70"><rect x="-10" y="-10" width="70" height="70" fill="white"/><path d="M46.39,46.34h-.5v-3.8h-2.9V22.1h2.9v-3.63h3.26L26.25,3.03c-7.67,5.15-15.33,10.3-23,15.44h3.36v3.63h2.9v20.44h-2.9v3.8H3.13v3.24H49.37v-3.24h-2.97Zm-27.06-3.8h-5.83V22.1h5.83v20.44Zm9.83,0h-5.83V22.1h5.83v20.44Zm9.83,0h-5.83V22.1h5.83v20.44Z" fill="#ffcd00" stroke-width="0"/><path d="M48.37,44.33h-2.97v-3.24c0-.28-.22-.5-.5-.5h-2.4V21.09h2.4c.28,0,.5-.22,.5-.5v-3.24h2.97c.22,0,.41-.14,.48-.35,.06-.21-.02-.44-.2-.56L25.03,.51c-.17-.11-.39-.11-.56,0L.85,16.43c-.18,.12-.26,.35-.2,.56,.06,.21,.26,.35,.48,.35h2.97v3.24c0,.28,.22,.5,.5,.5h2.4v19.5h-2.4c-.28,0-.5,.22-.5,.5v3.24H1.13c-.28,0-.5,.22-.5,.5v3.74c0,.28,.22,.5,.5,.5H48.37c.28,0,.5-.22,.5-.5v-3.74c0-.28-.22-.5-.5-.5Zm-6.87-3.74h-4V21.14h4v19.45Zm-5,0h-3.83V21.09h3.83v19.5ZM17.83,21.14h4v19.45h-4V21.14Zm5-.05h3.83v19.5h-3.83V21.09Zm-17.73-3.74H44.39v2.74H5.11v-2.74Zm22.56,3.8h4v19.45h-4V21.14ZM24.75,1.53l21.98,14.82H2.77L24.75,1.53Zm-7.92,19.56v19.5h-3.83V21.09h3.83Zm-8.83,.05h4v19.45h-4V21.14Zm-2.9,20.45H44.39v2.74H5.11v-2.74Zm42.76,6.49H1.63v-2.74H47.87v2.74Z" stroke-width="0"/><path d="M24.75,14.23c1.99,0,3.6-1.52,3.6-3.4s-1.62-3.4-3.6-3.4-3.6,1.52-3.6,3.4,1.62,3.4,3.6,3.4Zm0-5.8c1.44,0,2.6,1.08,2.6,2.4s-1.17,2.4-2.6,2.4-2.6-1.08-2.6-2.4,1.17-2.4,2.6-2.4Z" stroke-width="0"/></svg>