<?xml version="1.0" encoding="UTF-8"?><svg width="70" height="70" xmlns="http://www.w3.org/2000/svg" viewBox="-10 -10 70 70"><rect x="-10" y="-10" width="70" height="70" fill="white"/><g id="uuid-1e668a89-526a-478e-a403-02346c88dcb1"><g><g><rect x="9.6" y="29.31" width="4.81" height="17.07" fill="#ffcd00"/><rect x="19.25" y="20.8" width="4.81" height="25.58" fill="#ffcd00"/><rect x="38.55" y="14.92" width="4.81" height="31.46" fill="#ffcd00"/></g><path d="M49.59,45.47s.02-.06,.02-.09,0-.06-.02-.09c0-.03,0-.06-.02-.09-.01-.03-.03-.06-.05-.09-.01-.02-.02-.05-.04-.07h-.01s0-.02-.01-.03l-2.46-2.29c-.2-.19-.52-.18-.71,.03-.19,.2-.18,.52,.02,.71l1.53,1.42h-4.98V12.92c0-.28-.22-.5-.5-.5h-5.81c-.28,0-.5,.22-.5,.5v31.96h-2.84V23.08c0-.28-.22-.5-.5-.5h-5.81c-.28,0-.5,.22-.5,.5v21.79h-2.84V18.8c0-.28-.22-.5-.5-.5h-5.81c-.28,0-.5,.22-.5,.5v26.08h-2.84V27.31c0-.28-.22-.5-.5-.5H7.6c-.28,0-.5,.22-.5,.5v17.57H3.68V3.54l1.44,1.44c.1,.1,.23,.15,.35,.15s.25-.05,.35-.15c.2-.19,.2-.51,0-.71L3.54,1.98h0s-.04-.02-.05-.04c-.14-.11-.33-.14-.49-.07-.01,0-.02,.02-.04,.03-.04,.02-.09,.05-.13,.08h0L.54,4.28c-.19,.2-.19,.51,0,.71,.1,.1,.23,.15,.35,.15s.26-.05,.35-.15l1.44-1.44V45.38c0,.28,.22,.5,.5,.5H47.84l-1.53,1.42c-.2,.19-.21,.5-.02,.71,.1,.11,.23,.16,.37,.16,.12,0,.24-.04,.34-.13l2.46-2.29s0-.01,.01-.02h.01s.03-.05,.04-.08c.02-.03,.04-.06,.05-.09,.01-.03,.02-.06,.02-.09Zm-41.5-.59V27.81h4.81v17.07h-4.81Zm9.65,0V19.3h4.81v25.58h-4.81Zm9.65,0V23.58h4.81v21.29h-4.81Zm9.65,0V13.42h4.81v31.46h-4.81Z" stroke-width="0"/></g></g><g id="uuid-c97cda70-291a-4d19-9d7b-3aedffd2a038"></g></svg>