<?xml version="1.0" encoding="UTF-8"?><svg width="70" height="70" id="uuid-35259bdc-804b-4678-a677-a6f308d7d7f2" xmlns="http://www.w3.org/2000/svg" viewBox="-10 -10 70 70"><rect x="-10" y="-10" width="70" height="70" fill="white"/><polygon points="44.09 24.92 44.18 25.04 44.86 24.92 44.09 24.92"/><polygon points="12.5 25.04 12.59 24.92 11.83 24.92 12.5 25.04"/><polygon points="34.78 32.53 21.9 32.53 28.34 38.38 34.78 32.53" fill="none"/><polygon points="21.1 33.16 21.1 44.95 27.6 39.05 21.1 33.16" fill="none"/><rect x="24.15" y="20.54" width="8.39" height="6.42" fill="none"/><polygon points="21.9 45.58 34.78 45.58 28.34 39.73 21.9 45.58" fill="none"/><polygon points="35.58 44.95 35.58 33.16 29.08 39.05 35.58 44.95" fill="none"/><path d="M41.61,16.94l-.48-.16,5.66,7.79-1.93,.35h-.77l-5.69-7.68c-.06-.08-.15-.15-.25-.18l-9.65-3.08c-.1-.03-.21-.03-.3,0l-9.65,3.08c-.1,.03-.19,.09-.25,.18l-5.69,7.68h-.77l-1.93-.35,6.82-9.38,1.72-.56v-2.32c0-2.25-1.09-4.25-2.77-5.51,.69,1.05,1.1,2.3,1.12,3.64H4.15c-.17,.59-.26,1.22-.26,1.87V47.31H45.1c.04-6.59,.07-13.2,.11-19.81,1.18-.22,2.36-.44,3.55-.66-2.38-3.3-4.76-6.61-7.15-9.91Zm-17.46,3.6h8.39v6.42h-8.39v-6.42Zm10.64,11.99l-6.44,5.85-6.44-5.85h12.89Zm-13.68,.63l6.49,5.89-6.49,5.89v-11.79Zm.79,12.42l6.44-5.85,6.44,5.85h-12.89Zm13.68-.63l-6.49-5.89,6.49-5.89v11.79Z" fill="#ffcd00" stroke-width="0"/><path d="M48.08,25.19s.03-.06,.04-.09c.01-.03,.03-.06,.03-.09,0-.03,0-.07,0-.11,0-.03,0-.05,0-.08h0s-.02-.07-.03-.1c-.01-.03-.02-.07-.05-.1h0l-7.38-10.17c-.06-.09-.15-.15-.25-.18l-11.94-3.88c-.1-.03-.21-.03-.31,0l-10.4,3.38v-3.22c0-4.35-3.54-7.89-7.89-7.89h-.77C4.78,2.68,1.24,6.21,1.24,10.56V45.56c0,.56,.45,1.01,1.01,1.01H43.96c.28,0,.5-.22,.5-.5V26.01l3.29-.6c.07-.01,.14-.04,.2-.09h0s.03-.04,.05-.05c.03-.03,.06-.05,.08-.08Zm-3.9-.15l-.09-.12-5.69-7.68c-.06-.08-.15-.15-.25-.18l-9.65-3.08c-.1-.03-.21-.03-.3,0l-9.65,3.08c-.1,.03-.19,.09-.25,.18l-5.69,7.68-.09,.12-.68-.12-1.93-.35,6.82-9.38,11.63-3.78,11.63,3.78,6.82,9.38-1.93,.35-.68,.12Zm-30.96,.71l5.77-7.79,9.35-2.98,9.35,2.98,5.77,7.79v19.82h-6.88v-13.54s-.01-.05-.01-.07c0-.04,0-.07-.02-.1-.01-.04-.04-.07-.06-.1-.01-.02-.02-.04-.03-.06h0s-.06-.06-.1-.08c-.02-.01-.04-.03-.06-.04-.03-.01-.06-.01-.08-.02-.04,0-.07-.02-.11-.02h-15.5s-.07,.01-.1,.02c-.03,0-.06,0-.09,.02-.02,0-.04,.03-.06,.04-.03,.02-.07,.04-.1,.07h0s-.02,.05-.03,.07c-.02,.03-.04,.06-.06,.1-.01,.03-.02,.07-.02,.1,0,.03-.01,.05-.01,.07v13.54h-6.88V25.75Zm14.38,13.3l-6.49,5.89v-11.79l6.49,5.89Zm-5.7-6.52h12.89l-6.44,5.85-6.44-5.85Zm13.68,.63v11.79l-6.49-5.89,6.49-5.89Zm-7.24,6.57l6.44,5.85h-12.89l6.44-5.85ZM9.13,3.68h.77c3.76,0,6.82,3.03,6.88,6.77H2.25c.06-3.74,3.12-6.77,6.88-6.77ZM2.24,45.56V11.45h14.54v2.66l-.54,.18c-.1,.03-.19,.1-.25,.18l-7.38,10.16h0s-.03,.08-.05,.11c-.01,.03-.03,.05-.03,.08h0s0,.06,0,.09c0,.04,0,.07,0,.11,0,.03,.02,.06,.03,.09,.01,.03,.02,.06,.04,.09,.02,.03,.05,.06,.08,.08,.02,.02,.03,.04,.05,.05h.01s.06,.04,.1,.05c.03,.01,.05,.03,.08,.03h.01l3.29,.6v19.57H2.24Z" stroke-width="0"/><path d="M23.15,27.46c0,.28,.22,.5,.5,.5h9.39c.28,0,.5-.22,.5-.5v-7.42c0-.28-.22-.5-.5-.5h-9.39c-.28,0-.5,.22-.5,.5v7.42Zm9.39-6.92v6.42h-8.39v-6.42h8.39Z" stroke-width="0"/></svg>