<?xml version="1.0" encoding="utf-8"?> <!-- Generator: Adobe Illustrator 27.7.0, SVG Export Plug-In . SVG Version: 6.00 Build 0) --> <svg width="70" height="70" version="1.1" xmlns="http://www.w3.org/2000/svg" xmlns:xlink="http://www.w3.org/1999/xlink" x="0px" y="0px" viewBox="-10 -10 70 70" style="enable-background:new 0 0 50 50;" xml:space="preserve"><rect x="-10" y="-10" width="70" height="70" fill="white"/> <style type="text/css"> .st0{fill:#FFCD00;} .st1{display:none;} .st2{display:inline;fill:none;stroke:#EA008A;stroke-width:0.2;stroke-miterlimit:10;} .st3{font-family:'Roboto-Regular';} .st4{font-size:6px;} </style> <g id="Color"> <path class="st0" d="M8.748,49.3916c-0.3906,0.4014-1.0352,0.4062-1.4375,0.0146l-4.0547-3.9707 c-0.4004-0.3916-0.4072-1.0371-0.0146-1.4375c0.1982-0.2031,0.4619-0.3047,0.7256-0.3047c0.2568,0,0.5137,0.0967,0.7119,0.29 l0.6826,0.6685c0.0004,0.0004,0.0005,0.001,0.001,0.0015s0.001,0.0005,0.0015,0.001l2.6821,2.6265 c0.0013,0.0013,0.0016,0.0031,0.0029,0.0043s0.0031,0.0016,0.0044,0.0029l0.6802,0.6661 C9.1338,48.3457,9.1406,48.9912,8.748,49.3916z" stroke-width="0"/> <path class="st0" d="M47.2061,9.769c-0.2314,0.2559-0.4717,0.522-0.7168,0.7998c-2.4219,2.7549-12.8564,13.5547-15.4639,15.9331 c-1.1924,1.0879-3.3945,2.5684-5.5234,4c-2.4756,1.6641-5.0342,3.3848-6.2832,4.6602l-0.8029,0.8199l-1.9725-1.9309l0.8036-0.8207 c1.249-1.2754,2.917-3.8711,4.5293-6.3818c1.3857-2.1577,2.8193-4.3887,3.8809-5.6035 c2.3223-2.6553,12.9004-13.3145,15.6055-15.7944c0.2725-0.25,0.5322-0.4956,0.7832-0.7319c2.25-2.1235,3.3779-3.1914,5.8281-0.792 C50.3223,6.3237,49.2812,7.4751,47.2061,9.769z" stroke-width="0"/> </g> <g id="ICONS_00000031165542127692736420000002692518830807990202_"> <path d="M47.4482,2.0869c-3.1357-3.0718-5.0254-1.2861-7.2139,0.7798c-0.2471,0.2329-0.5039,0.4756-0.7725,0.7217 C36.7451,6.0796,26.1143,16.792,23.7803,19.4619c-1.1113,1.2705-2.5,3.4321-3.9707,5.7212c-1.585,2.4683-3.2246,5.02-4.4023,6.2231 l-1.1531,1.1776c-0.0001,0.0001-0.0001,0.0001-0.0002,0.0001s-0.0001,0.0001-0.0001,0.0002l-9.674,9.8795l-0.3268-0.3201 c-0.3848-0.377-0.9199-0.5752-1.4316-0.5752c-0.5391,0.0049-1.043,0.2207-1.4199,0.6055 c-0.7773,0.7949-0.7646,2.0742,0.0303,2.8516l4.0547,3.9707c0.3799,0.3721,0.8799,0.5752,1.4102,0.5752c0.0068,0,0.0146,0,0.0215,0 c0.5391-0.0049,1.043-0.2207,1.4199-0.6055c0.7773-0.7949,0.7646-2.0742-0.0303-2.8516l-0.3265-0.3197l9.6727-9.8788 c0.0007-0.0007,0.0016-0.0009,0.0024-0.0016s0.0009-0.0017,0.0016-0.0024l1.1508-1.1753c1.1768-1.2012,3.6934-2.8936,6.126-4.5293 c2.2588-1.5186,4.3926-2.9531,5.6396-4.0918c2.6211-2.3911,13.1084-13.2441,15.542-16.0112 c0.2402-0.2744,0.4775-0.5366,0.7061-0.7891C48.8408,7.084,50.584,5.1567,47.4482,2.0869z M7.623,48.2666 c-0.3906,0.4014-1.0352,0.4062-1.4375,0.0146l-4.0547-3.9707c-0.4004-0.3916-0.4072-1.0371-0.0146-1.4375 c0.1982-0.2031,0.4619-0.3047,0.7256-0.3047c0.2568,0,0.5137,0.0967,0.7119,0.29l0.6826,0.6685 c0.0004,0.0004,0.0005,0.001,0.001,0.0015s0.001,0.0005,0.0015,0.001l2.6821,2.6265c0.0013,0.0013,0.0016,0.0031,0.0029,0.0043 s0.0031,0.0016,0.0044,0.0029l0.6802,0.6661C8.0088,47.2207,8.0156,47.8662,7.623,48.2666z M5.2942,43.1632l9.3246-9.5226 l1.9725,1.9309l-9.3246,9.5234L5.2942,43.1632z M46.0811,8.644c-0.2314,0.2559-0.4717,0.522-0.7168,0.7998 c-2.4219,2.7549-12.8564,13.5547-15.4639,15.9331c-1.1924,1.0879-3.3945,2.5684-5.5234,4 c-2.4756,1.6641-5.0342,3.3848-6.2832,4.6602l-0.8029,0.8199l-1.9725-1.9309l0.8036-0.8207 c1.249-1.2754,2.917-3.8711,4.5293-6.3818c1.3857-2.1577,2.8193-4.3887,3.8809-5.6035 c2.3223-2.6553,12.9004-13.3145,15.6055-15.7944c0.2725-0.25,0.5322-0.4956,0.7832-0.7319c2.25-2.1235,3.3779-3.1914,5.8281-0.792 C49.1973,5.1987,48.1562,6.3501,46.0811,8.644z" stroke-width="0"/> </g> <g id="Margin" class="st1"> <rect x="1" y="1" class="st2" /> </g> <g id="Guides" class="st1"> </g> <g id="LABELS"> <g> <g> <g> <g> </g> </g> </g> </g> </g> </svg> 