<?xml version="1.0" encoding="UTF-8"?><svg width="70" height="70" id="uuid-a3175c2b-7e75-4f9e-b0f8-db9a5d82abcb" xmlns="http://www.w3.org/2000/svg" viewBox="-10 -10 70 70"><rect x="-10" y="-10" width="70" height="70" fill="white"/><g><path d="M43.1,40.72c0,.64-.24,1.23-.7,1.68-.81,.82-2.17,.89-3.09,.23,1.22-.98,2.34-2.1,3.32-3.32,.3,.41,.47,.89,.47,1.41Z" fill="#ffcd00" stroke-width="0"/><path d="M25.65,47.46c.79,0,1.58-.05,2.35-.13-.18,1.14-1.16,2.02-2.35,2.02s-2.17-.88-2.35-2.02c.77,.08,1.56,.13,2.35,.13Z" fill="#ffcd00" stroke-width="0"/><polygon points="26.27 27.19 28.14 30.21 24.27 32.61 22.4 29.58 26.27 27.19" fill="#ffcd00"/><path d="M20.04,22.59l-1.52,4.3-1.28-.46-1.34-.47h0l-.74-.27,1.53-4.29,3.35,1.19Z" fill="#ffcd00" stroke-width="0"/><path d="M47.33,23.3c1.14,.18,2.02,1.16,2.02,2.35s-.88,2.17-2.02,2.35c.08-.77,.13-1.56,.13-2.35s-.05-1.58-.13-2.35Z" fill="#ffcd00" stroke-width="0"/><path d="M43.1,10.58c0,.52-.17,1-.47,1.41-.98-1.22-2.1-2.34-3.32-3.32,.92-.66,2.28-.59,3.09,.22,.46,.46,.7,1.05,.7,1.69Z" fill="#ffcd00" stroke-width="0"/><path d="M25.65,1.95c1.19,0,2.17,.88,2.35,2.02-.77-.08-1.56-.13-2.35-.13s-1.58,.05-2.35,.13c.18-1.14,1.16-2.02,2.35-2.02Z" fill="#ffcd00" stroke-width="0"/><path d="M11.99,8.67c-1.22,.98-2.34,2.1-3.32,3.32-.3-.41-.47-.89-.47-1.41,0-.64,.24-1.23,.7-1.69,.81-.81,2.17-.88,3.09-.22Z" fill="#ffcd00" stroke-width="0"/><path d="M6.15,25.65c0,4.45,1.51,8.54,4.03,11.82l-1.12,.69c-2.63-3.48-4.22-7.81-4.22-12.51C4.84,14.18,14.18,4.84,25.65,4.84s20.81,9.34,20.81,20.81-9.34,20.81-20.81,20.81c-4.83,0-9.27-1.67-12.81-4.44l.46-1.29c3.37,2.76,7.67,4.42,12.35,4.42,10.75,0,19.5-8.75,19.5-19.5S36.4,6.15,25.65,6.15,6.15,14.9,6.15,25.65Z" fill="#ffcd00" stroke-width="0"/><path d="M3.84,25.65c0,.79,.05,1.58,.13,2.35-1.14-.18-2.02-1.16-2.02-2.35s.88-2.17,2.02-2.35c-.08,.77-.13,1.56-.13,2.35Z" fill="#ffcd00" stroke-width="0"/></g><path d="M46.55,21.64c-.55-3.51-1.93-6.74-3.94-9.49,.54-.62,.84-1.39,.84-2.22,0-.9-.35-1.75-.99-2.39-1.22-1.23-3.31-1.27-4.61-.15-2.75-2.01-5.98-3.39-9.49-3.94-.12-1.75-1.58-3.15-3.36-3.15s-3.24,1.4-3.36,3.15c-3.51,.55-6.74,1.93-9.49,3.94-1.3-1.12-3.39-1.08-4.61,.15-.64,.64-.99,1.49-.99,2.39,0,.83,.3,1.6,.84,2.22-2.01,2.75-3.39,5.98-3.94,9.49-1.75,.12-3.15,1.57-3.15,3.36s1.4,3.24,3.15,3.36c.56,3.6,2,6.9,4.09,9.69l-4.77,2.96c-.71,.43-.92,1.36-.49,2.07,.28,.45,.78,.7,1.28,.7,.27,0,.54-.07,.78-.22l4.99-3.08-2.09,5.85c-.13,.38-.11,.79,.06,1.15,.18,.36,.48,.64,.86,.77,.16,.06,.33,.09,.5,.09,.22,0,.44-.05,.64-.15,.37-.17,.64-.47,.77-.85l1.77-4.97c2.81,2.14,6.16,3.61,9.8,4.18,.12,1.75,1.58,3.15,3.36,3.15s3.24-1.4,3.36-3.15c3.51-.55,6.74-1.93,9.49-3.94,.62,.54,1.39,.84,2.22,.84,.9,0,1.75-.35,2.39-.99,.64-.64,.99-1.49,.99-2.39,0-.83-.3-1.6-.84-2.22,2.01-2.75,3.39-5.98,3.94-9.49,1.75-.12,3.15-1.58,3.15-3.36s-1.4-3.24-3.15-3.36ZM3.32,27.35c-1.14-.18-2.02-1.16-2.02-2.35s.88-2.17,2.02-2.35c-.08,.77-.13,1.56-.13,2.35s.05,1.58,.13,2.35ZM41.75,8.24c.46,.46,.7,1.05,.7,1.69,0,.52-.17,1-.47,1.41-.98-1.22-2.1-2.34-3.32-3.32,.92-.66,2.28-.59,3.09,.22ZM25,1.3c1.19,0,2.17,.88,2.35,2.02-.77-.08-1.56-.13-2.35-.13s-1.58,.05-2.35,.13c.18-1.14,1.16-2.02,2.35-2.02ZM8.25,8.24c.81-.81,2.17-.88,3.09-.22-1.22,.98-2.34,2.1-3.32,3.32-.3-.41-.47-.89-.47-1.41,0-.64,.24-1.23,.7-1.69Zm.57,31.37l-5,3.1c-.23,.14-.54,.07-.69-.16-.14-.24-.07-.55,.16-.69l4.87-3.01,.86-.54,1.13-.7,.25-.15-.11,.3-.43,1.21-.15,.09-.89,.55Zm13.28-8.21l-8.16,5.04,.54-1.5,7.09-4.39,.53,.85Zm-.35-2.47l3.87-2.39,1.87,3.02-3.87,2.4-1.87-3.03Zm.87,3.32l.41,.66c.07,.11,.18,.19,.31,.22,.04,.01,.08,.02,.12,.02,.09,0,.18-.03,.26-.08l4.73-2.92c.23-.15,.3-.46,.16-.69l-2.4-3.88c-.07-.11-.18-.19-.31-.22-.13-.03-.27-.01-.38,.06l-4.72,2.93c-.24,.14-.31,.45-.17,.69l.41,.66-6.03,3.73,2.26-6.35,.73,.26c.06,.03,.11,.03,.17,.03,.21,0,.4-.12,.47-.33l1.86-5.23c.09-.27-.04-.55-.3-.64l-4.3-1.53c-.12-.04-.26-.04-.38,.02s-.21,.16-.25,.28l-1.86,5.24c-.05,.13-.04,.26,.01,.38,.06,.12,.16,.22,.29,.26l.73,.26-3.51,9.88-.55,.34c-2.42-3.13-3.88-7.04-3.88-11.3C6.5,14.8,14.8,6.5,25,6.5s18.5,8.3,18.5,18.5-8.3,18.5-18.5,18.5c-4.57,0-8.76-1.67-11.99-4.43l.4-1.12,9.21-5.7Zm-8.11-7.21l1.53-4.29,3.35,1.19-1.52,4.3-1.28-.46-1.34-.47h0l-.74-.27Zm-2.66,14.32l-.48,1.33-.36,1.02-1.88,5.29c-.05,.13-.14,.23-.26,.29-.12,.06-.25,.06-.38,.02-.12-.05-.23-.14-.28-.26-.06-.12-.07-.26-.02-.38l2.01-5.67,.37-1.04,.12-.32,.36-1.04,.17-.47,.21-.59,.33-.92,.53-1.51,3.09-8.69,.95,.33-2.68,7.52-.53,1.51-.54,1.51-.37,1.05-.16,.45-.2,.57Zm13.15,9.34c-1.19,0-2.17-.88-2.35-2.02,.77,.08,1.56,.13,2.35,.13s1.58-.05,2.35-.13c-.18,1.14-1.16,2.02-2.35,2.02Zm16.75-6.95c-.81,.82-2.17,.89-3.09,.23,1.22-.98,2.34-2.1,3.32-3.32,.3,.41,.47,.89,.47,1.41,0,.64-.24,1.23-.7,1.68Zm-16.75,4.06c-4.83,0-9.27-1.67-12.81-4.44l.46-1.29c3.37,2.76,7.67,4.42,12.35,4.42,10.75,0,19.5-8.75,19.5-19.5S35.75,5.5,25,5.5,5.5,14.25,5.5,25c0,4.45,1.51,8.54,4.03,11.82l-1.12,.69c-2.63-3.48-4.22-7.81-4.22-12.51C4.19,13.53,13.53,4.19,25,4.19s20.81,9.34,20.81,20.81-9.34,20.81-20.81,20.81Zm21.68-18.46c.08-.77,.13-1.56,.13-2.35s-.05-1.58-.13-2.35c1.14,.18,2.02,1.16,2.02,2.35s-.88,2.17-2.02,2.35Z" stroke-width="0"/></svg>