<?xml version="1.0" encoding="UTF-8"?><svg width="70" height="70" xmlns="http://www.w3.org/2000/svg" viewBox="-10 -10 70 70"><rect x="-10" y="-10" width="70" height="70" fill="white"/><g id="uuid-bee75d41-add3-4d11-a6c4-b1e346c94eda"><path d="M34.53,19.19v-1.94s-.06,.03-.08,.06c-1.75,1.49-1.57,3.84-1.55,4.1v10.24c0,.14,.05,.54,.35,.84,.33,.33,.85,.42,1.28,.24v-13.53Z" fill="#ffcd00" stroke-width="0"/><path d="M45.76,17.1c-.39-.3-.85-.53-1.35-.67-.21-.06-.36-.26-.36-.48v-.24h-1.75v22.7h-6.02v9.08c0,.93,.76,1.69,1.69,1.69s1.69-.76,1.69-1.69c0-.28,.22-.5,.5-.5s.5,.22,.5,.5c0,.93,.76,1.69,1.69,1.69s1.69-.76,1.69-1.69v-15.85c0-.28,.22-.5,.5-.5s.5,.22,.5,.5c0,.66,.53,1.19,1.19,1.19s1.19-.53,1.19-1.19v-10.52c0-.14,.18-2.61-1.67-4.02Z" fill="#ffcd00" stroke-width="0"/><path d="M19.47,17.22c-1.04-.79-2.18-.87-2.78-.85l-5.88,.02c-.55,.03-1.68,.21-2.65,1.04-1.75,1.49-1.58,3.84-1.55,4.1v10.24c0,.14,.05,.54,.35,.84,.35,.34,.9,.43,1.34,.22,.41-.19,.68-.61,.69-1.07,0-.27,.25-.45,.51-.49,.27,0,.49,.23,.49,.5v15.85c0,.93,.76,1.69,1.69,1.69s1.69-.76,1.69-1.69c0-.28,.22-.5,.5-.5s.5,.22,.5,.5c0,.93,.76,1.69,1.69,1.69s1.69-.76,1.69-1.69v-15.85c0-.28,.22-.5,.5-.5s.5,.22,.5,.5c0,.66,.53,1.19,1.19,1.19s1.19-.54,1.19-1.19v-10.52c.01-.15,.19-2.6-1.67-4.02Z" fill="#ffcd00" stroke-width="0"/><path d="M24.27,.82c-.28,0-.5,.22-.5,.5V47.75c0,.28,.22,.5,.5,.5s.5-.22,.5-.5V1.32c0-.28-.22-.5-.5-.5Z" stroke-width="0"/><path d="M18.33,14.56c-1.28-.97-2.68-1.08-3.41-1.06l-5.89,.02c-.71,.04-2.07,.26-3.27,1.28-2.15,1.83-1.93,4.65-1.9,4.91v10.2c0,.28,.08,.98,.64,1.54,.65,.64,1.64,.81,2.47,.42,.09-.04,.18-.09,.26-.15v14.03c0,1.48,1.21,2.69,2.69,2.69,.9,0,1.7-.45,2.19-1.13,.49,.68,1.29,1.13,2.19,1.13,1.48,0,2.69-1.21,2.69-2.69v-14.01c.34,.22,.75,.35,1.19,.35,1.21,0,2.19-.98,2.19-2.19v-10.48c.02-.32,.19-3.14-2.06-4.86Zm1.06,15.34c0,.66-.53,1.19-1.19,1.19s-1.19-.53-1.19-1.19v-10.7c0-.28-.22-.5-.5-.5s-.5,.22-.5,.5v26.55c0,.93-.76,1.69-1.69,1.69s-1.69-.76-1.69-1.69h0v-14.47c0-.28-.22-.5-.5-.5s-.5,.22-.5,.5v14.47h0c0,.93-.76,1.69-1.69,1.69s-1.69-.76-1.69-1.69v-15.85h0v-10.7c0-.28-.22-.5-.5-.5s-.5,.22-.5,.5v10.69c-.01,.46-.28,.88-.69,1.07-.44,.21-1,.12-1.34-.22-.3-.3-.34-.69-.35-.84v-10.24c-.03-.26-.21-2.6,1.55-4.1,.98-.83,2.1-1.01,2.65-1.04l5.87-.02h.02c.59-.02,1.74,.06,2.78,.85,1.86,1.42,1.68,3.88,1.67,4.02v10.52Z" stroke-width="0"/><path d="M12.13,11.99c2.6,0,4.72-2.12,4.72-4.72s-2.12-4.72-4.72-4.72-4.72,2.12-4.72,4.72,2.12,4.72,4.72,4.72Zm0-8.44c2.05,0,3.72,1.67,3.72,3.72s-1.67,3.72-3.72,3.72-3.72-1.67-3.72-3.72,1.67-3.72,3.72-3.72Z" stroke-width="0"/><path d="M44.62,14.56c-.43-.33-.88-.56-1.31-.71v-.38c0-.28-.22-.5-.5-.5h-8.77c-.28,0-.5,.22-.5,.5v.45c-.48,.19-.99,.47-1.48,.88-2.14,1.82-1.93,4.65-1.9,4.91v10.2c0,.28,.08,.98,.64,1.54,.65,.64,1.64,.81,2.47,.42,.09-.04,.18-.09,.26-.15v14.03c0,1.48,1.21,2.69,2.69,2.69,.9,0,1.7-.45,2.19-1.13,.49,.68,1.29,1.13,2.19,1.13,1.48,0,2.69-1.21,2.69-2.69v-14.01c.34,.22,.75,.35,1.19,.35,1.21,0,2.19-.98,2.19-2.19v-10.48c.02-.32,.18-3.15-2.06-4.86Zm1.06,15.34c0,.66-.53,1.19-1.19,1.19s-1.19-.53-1.19-1.19V14.92c.24,.11,.47,.25,.71,.43,1.85,1.42,1.68,3.88,1.67,4.02v10.52Zm-6.76,15.85v-6.33h3.39v6.33c0,.93-.76,1.69-1.69,1.69s-1.69-.76-1.69-1.69Zm-4.39,0v-6.33h3.39v6.33c0,.93-.76,1.69-1.69,1.69s-1.69-.76-1.69-1.69Zm-3.03-15.01c-.3-.3-.34-.69-.35-.84v-10.24c-.03-.26-.21-2.61,1.55-4.1,.27-.23,.55-.41,.83-.55v14.87c-.01,.46-.28,.88-.69,1.07-.44,.21-1,.12-1.34-.22Zm10.8-16.77v24.45h-7.77V13.96h7.77Z" stroke-width="0"/><path d="M38.42,11.99c2.6,0,4.72-2.12,4.72-4.72s-2.12-4.72-4.72-4.72-4.72,2.12-4.72,4.72,2.12,4.72,4.72,4.72Zm0-8.44c2.05,0,3.72,1.67,3.72,3.72s-1.67,3.72-3.72,3.72-3.72-1.67-3.72-3.72,1.67-3.72,3.72-3.72Z" stroke-width="0"/></g><g id="uuid-a4b7400e-8dfa-4e39-a3e1-cc9ec003e9bd"></g></svg>