<?xml version="1.0" encoding="utf-8"?> <!-- Generator: Adobe Illustrator 27.7.0, SVG Export Plug-In . SVG Version: 6.00 Build 0) --> <svg width="70" height="70" version="1.1" xmlns="http://www.w3.org/2000/svg" xmlns:xlink="http://www.w3.org/1999/xlink" x="0px" y="0px" viewBox="-10 -10 70 70" style="enable-background:new 0 0 50 50;" xml:space="preserve"><rect x="-10" y="-10" width="70" height="70" fill="white"/> <style type="text/css"> .st0{fill:#FFCD00;} .st1{display:none;} .st2{display:inline;fill:none;stroke:#EA008A;stroke-width:0.2;stroke-miterlimit:10;} .st3{font-family:'Roboto-Regular';} .st4{font-size:6px;} </style> <g id="Color"> <path class="st0" d="M3.6396,46.8916h45.7207v-5.6123H3.6396V46.8916z" stroke-width="0"/> <path class="st0" d="M7.4702,20.9468c-1.5225,0-2.7612,1.2388-2.7612,2.7612s1.2388,2.7607,2.7612,2.7607 s2.7612-1.2383,2.7612-2.7607S8.9927,20.9468,7.4702,20.9468z" stroke-width="0"/> <path class="st0" d="M21.0923,26.4033c-1.5225,0-2.7612,1.2393-2.7612,2.7617s1.2388,2.7607,2.7612,2.7607 s2.7612-1.2383,2.7612-2.7607S22.6147,26.4033,21.0923,26.4033z" stroke-width="0"/> <path class="st0" d="M44.729,33.5742c-1.5225,0-2.7612,1.2383-2.7612,2.7607s1.2388,2.7617,2.7612,2.7617 s2.7612-1.2393,2.7612-2.7617S46.2515,33.5742,44.729,33.5742z" stroke-width="0"/> </g> <g id="ICONS_00000031165542127692736420000002692518830807990202_"> <path d="M48.3604,38.7793h-3.6271c1.52-0.4831,2.632-1.8912,2.632-3.5693c0-1.9787-1.5421-3.5885-3.485-3.7328 c-0.7689-3.5648-3.4825-6.4066-6.9711-7.3719v-3.2664c0-4.8086-3.9121-8.7207-8.7207-8.7207c-1.0484,0-2.0497,0.1955-2.9816,0.5361 c-0.2609-1.0887-0.6846-2.1335-1.3055-3.0805c-0.0144-0.022-0.036-0.035-0.0531-0.054c0.4282-0.6106,0.684-1.35,0.684-2.1506 c0-2.0737-1.6875-3.7612-3.7612-3.7612c-1.3217,0-2.4811,0.6888-3.1522,1.7228c-0.6289-0.1251-1.2701-0.1926-1.9206-0.1926 c-5.4048,0-9.8022,4.3975-9.8022,9.8022v3.9268c-1.8603,0.2252-3.312,1.7959-3.312,3.7158s1.4517,3.4902,3.312,3.7153v12.481 H1.6396c-0.2764,0-0.5,0.2236-0.5,0.5v6.6123c0,0.2764,0.2236,0.5,0.5,0.5h46.7207c0.2764,0,0.5-0.2236,0.5-0.5v-6.6123 C48.8604,39.0029,48.6367,38.7793,48.3604,38.7793z M46.3652,35.21c0,1.5225-1.2388,2.7617-2.7612,2.7617 s-2.7612-1.2393-2.7612-2.7617c0-1.3282,0.9432-2.4392,2.1948-2.7013c0.0401,0.3402,0.0664,0.6844,0.0664,1.0353 c0,0.2764,0.2236,0.5,0.5,0.5s0.5-0.2236,0.5-0.5c0-0.3549-0.0213-0.7048-0.0583-1.0501 C45.3577,32.7069,46.3652,33.8387,46.3652,35.21z M42.861,31.5244c-1.7189,0.3461-3.0182,1.8668-3.0182,3.6856 c0,1.6781,1.1119,3.0862,2.632,3.5693h-5.5656V25.1367C39.8615,26.0541,42.1446,28.49,42.861,31.5244z M21.0966,38.7793 c1.52-0.4831,2.632-1.8912,2.632-3.5693c0-1.697-1.1378-3.1187-2.6853-3.585c1.5475-0.4662,2.6853-1.888,2.6853-3.585 c0-1.903-1.4254-3.4636-3.2612-3.7112v-3.49c0-2.8967,1.6057-5.4229,3.9717-6.7436c0.0269,0.2808,0.061,0.5605,0.061,0.8452 c0,5.4048,4.397,9.8018,9.8018,9.8018c0.5496,0,1.0854,0.0571,1.6074,0.154v13.8831H21.0966z M19.9673,26.6084 c0.2764,0,0.5-0.2236,0.5-0.5v-0.7795c1.2839,0.2366,2.2612,1.3599,2.2612,2.7111c0,1.5225-1.2388,2.7607-2.7612,2.7607 s-2.7612-1.2383-2.7612-2.7607c0-1.3513,0.9773-2.4745,2.2612-2.7111v0.7795C19.4673,26.3848,19.6909,26.6084,19.9673,26.6084z M22.7285,35.21c0,1.5225-1.2388,2.7617-2.7612,2.7617s-2.7612-1.2393-2.7612-2.7617s1.2388-2.7607,2.7612-2.7607 S22.7285,33.6875,22.7285,35.21z M28.1885,13.1182c4.2573,0,7.7207,3.4634,7.7207,7.7207v3.0469 c-0.5243-0.087-1.0588-0.1436-1.6074-0.1436c-4.8535,0-8.8018-3.9482-8.8018-8.8018c0-0.4362-0.037-0.8679-0.0936-1.2955 C26.2709,13.3094,27.2069,13.1182,28.1885,13.1182z M20.771,4.6079c1.5225,0,2.7612,1.2388,2.7612,2.7612 s-1.2388,2.7612-2.7612,2.7612s-2.7612-1.2388-2.7612-2.7612c0-0.3087,0.0626-0.6006,0.1565-0.8781 c0.244,0.0712,0.4858,0.1511,0.7239,0.2438c0.2583,0.1001,0.5474-0.0273,0.6475-0.2842c0.1001-0.2573-0.0269-0.5474-0.2842-0.6475 c-0.1936-0.0754-0.3914-0.1356-0.5886-0.1983C19.1718,5.0008,19.9225,4.6079,20.771,4.6079z M3.584,22.583 c0-1.3687,1.0037-2.4995,2.312-2.7158v0.7847c0,0.2764,0.2236,0.5,0.5,0.5s0.5-0.2236,0.5-0.5v-0.7744 c1.2595,0.2561,2.2104,1.3716,2.2104,2.7055c0,1.5225-1.2388,2.7612-2.7612,2.7612S3.584,24.1055,3.584,22.583z M6.896,26.2881 c1.8115-0.2692,3.2104-1.8199,3.2104-3.7051s-1.399-3.4363-3.2104-3.7056v-3.937c0-4.8535,3.9487-8.8022,8.8022-8.8022 c0.5052,0,1.0038,0.0474,1.4947,0.1313c-0.108,0.3501-0.1832,0.7145-0.1832,1.0996c0,2.0737,1.6875,3.7612,3.7612,3.7612 c0.9041,0,1.7236-0.3339,2.373-0.8675c0.5427,0.8624,0.9146,1.8071,1.1303,2.7938c-2.8463,1.4374-4.807,4.3818-4.807,7.7822v3.49 c-1.8359,0.2476-3.2612,1.8082-3.2612,3.7112c0,1.697,1.1378,3.1187,2.6853,3.585c-1.5475,0.4662-2.6853,1.888-2.6853,3.585 c0,1.6781,1.1119,3.0862,2.632,3.5693H6.896V26.2881z M47.8604,45.3916H2.1396v-5.6123h45.7207V45.3916z" stroke-width="0"/> </g> <g id="Margin" class="st1"> <rect x="1" y="1" class="st2" /> </g> <g id="Guides" class="st1"> </g> <g id="LABELS"> <g> <g> <g> <g> <g> <g> <g> <g> </g> </g> </g> </g> </g> </g> </g> </g> </g> </svg> 