<?xml version="1.0" encoding="UTF-8"?><svg width="70" height="70" xmlns="http://www.w3.org/2000/svg" viewBox="-10 -10 70 70"><rect x="-10" y="-10" width="70" height="70" fill="white"/><g id="uuid-8a662a89-6f62-40ce-9409-33cdd3f1bc67"><polygon points="37.59 20.3 31.97 16.36 15.42 16.36 15.42 46.12 37.59 46.12 37.59 20.3" fill="#ffcd00"/><path d="M39.26,44.36h-2.42V18.29s0-.02,0-.03c0-.01,0-.03,0-.04V5.26h2.41c.28,0,.5-.22,.5-.5V1.86c0-.28-.22-.5-.5-.5H10.74c-.28,0-.5,.22-.5,.5v2.9c0,.28,.22,.5,.5,.5h1.93V44.36h-1.92c-.28,0-.5,.22-.5,.5v3.28c0,.28,.22,.5,.5,.5h28.52c.28,0,.5-.22,.5-.5v-3.28c0-.28-.22-.5-.5-.5ZM16.5,13.6v-2.43c0-1.93,1.57-3.5,3.5-3.5h8.97c1.93,0,3.5,1.57,3.5,3.5v2.43c0,.43-.09,.83-.23,1.21l-1.58-1.11c-.08-.06-.18-.09-.29-.09h-13.88Zm-2.84,1H30.22l5.62,3.95v25.82H13.67V14.61ZM11.24,2.36h27.52v1.9H11.24v-1.9Zm24.61,2.9v12.08l-2.75-1.93c.24-.55,.38-1.16,.38-1.8v-2.43c0-2.48-2.02-4.5-4.5-4.5h-8.97c-2.48,0-4.5,2.02-4.5,4.5v2.43h-1.84V5.26h22.17Zm2.92,42.39H11.25v-2.28h1.88s.03,0,.04,0h23.17s.03,0,.04,0h2.39v2.28Z" stroke-width="0"/></g><g id="uuid-a205d54c-d1ef-42cb-b72e-b131f3c14209"></g></svg>