<?xml version="1.0" encoding="UTF-8"?><svg width="70" height="70" xmlns="http://www.w3.org/2000/svg" viewBox="-10 -10 70 70"><rect x="-10" y="-10" width="70" height="70" fill="white"/><g id="uuid-8f5a18b3-84d0-4a60-948e-07e0926e58cf"><path d="M45.31,26.15H7.43c-2.23,0-4.05,1.82-4.05,4.05v11.61h4.67v-3.96H44.24v3.96h5.12v-11.61c0-2.23-1.82-4.05-4.05-4.05Z" fill="#ffcd00" stroke-width="0"/><path d="M10.82,21.55h-.36v.41c0,.28,.22,.5,.5,.5h11.92c.28,0,.5-.22,.5-.5v-.4H10.82Z" fill="none" stroke-width="0"/><path d="M26.01,21.96c0,.28,.22,.5,.5,.5h11.92c.28,0,.5-.22,.5-.5v-.4h-12.92v.4Z" fill="none" stroke-width="0"/><path d="M10.46,21.55h12.92v-.82h2.63v.82h12.92v-.76h2.58l.35,.76h1.18l-.02-5.81h0c0-2.23-1.82-4.05-4.05-4.05H13.73c-2.23,0-4.05,1.82-4.05,4.05v5.06h.77v.75Zm16.55-1.31v-5.01h10.92v6.23h-10.92v-1.22Zm-15.55-5.01h10.92v6.23H11.46v-6.23Z" fill="#ffcd00" stroke-width="0"/><path d="M48.6,36.36v-3.68s0-.02,0-.03,0-.02,0-.03v-4.17c0-2.69-2.12-4.87-4.77-5.02l-1.54-3.33-.03-6.11c0-2.78-2.26-5.05-5.05-5.05H11.98c-2.78,0-5.05,2.26-5.05,5.05v6.24l-1.78,3.22c-2.53,.27-4.52,2.39-4.52,4.99v12.11c0,.28,.22,.5,.5,.5H6.81c.13,0,.26-.05,.35-.15s.15-.22,.15-.35v-3.46H41.49v3.46c0,.28,.22,.5,.5,.5h6.12c.28,0,.5-.22,.5-.5v-3.82c.02-.06,.04-.12,.04-.19,0-.06-.01-.13-.04-.18ZM7.76,20.81h2.7v1.15c0,.28,.22,.5,.5,.5h11.92c.28,0,.5-.22,.5-.5v-1.23h2.63v1.23c0,.28,.22,.5,.5,.5h11.92c.28,0,.5-.22,.5-.5v-1.16h2.58l1.21,2.6H6.32l1.44-2.59Zm14.62-.58v1.23H11.46v-6.23h10.92v5Zm4.63,.01v-5.01h10.92v6.23h-10.92v-1.22ZM7.93,13.99c0-2.23,1.82-4.05,4.05-4.05h25.24c2.23,0,4.05,1.82,4.05,4.05h0l.02,5.8h-2.32l-.03-5.07s-.01-.06-.02-.09c0-.03,0-.07-.02-.1,0-.02-.02-.03-.03-.04-.02-.04-.05-.08-.08-.12,0,0-.02,0-.02-.01-.04-.04-.09-.07-.14-.09-.06-.03-.13-.04-.19-.04h-11.92c-.28,0-.5,.22-.5,.5v5.01h-2.63v-5.01c0-.28-.22-.5-.5-.5H10.96c-.07,0-.13,.01-.19,.04-.03,.01-.05,.03-.07,.05-.03,.02-.06,.03-.08,.06-.02,.02-.04,.05-.05,.08-.02,.03-.04,.05-.05,.08-.01,.03-.01,.06-.02,.09,0,.03-.02,.07-.02,.1l-.07,5.07h-2.46v-5.81Zm-2.25,10.41H43.56c2.23,0,4.05,1.82,4.05,4.05v3.7l-45.97-.07v-3.62c0-2.23,1.82-4.05,4.05-4.05ZM1.63,40.06v-2.96H6.3v2.96H1.63Zm45.97,0h-5.12v-2.96l5.12-.05v3.01Zm-5.62-3.96H1.63v-3.03l45.97,.07v2.91l-5.62,.05Z" stroke-width="0"/></g><g id="uuid-16c166e1-d014-4c2a-87ef-59ffa1bc3d27"></g></svg>