<?xml version="1.0" encoding="UTF-8"?><svg width="70" height="70" xmlns="http://www.w3.org/2000/svg" viewBox="-10 -10 70 70"><rect x="-10" y="-10" width="70" height="70" fill="white"/><g id="uuid-2fcb949d-3f7c-465c-9a85-2d03be4e840c"><rect x="45.39" y="1.11" width="2.08" height="2.08" rx="1.04" ry="1.04" fill="none"/><path d="M48.1,42.38h-4.02c-.05,0-.1-.01-.15-.03-.04,0-.08,.02-.12,.02h-.23v-1.23c0-3.31,0-16.35,0-16.35,0-8.19-7.52-14.85-16.77-14.85s-16.77,6.66-16.77,14.85v17.56h-.39s-.09,.02-.14,.02H5.4v3.73H22.32c-.08-.24-.14-.49-.14-.75h5.14c0,.26-.06,.51-.14,.75h20.92v-3.73Z" fill="#ffcd00" stroke-width="0"/><path d="M46.85,39.63h-4.02c0-2.9,0-16.59,0-16.59,0-8.04-6.75-14.69-15.46-15.7,.73-.66,1.2-1.6,1.2-2.66,0-1.97-1.6-3.58-3.58-3.58s-3.58,1.6-3.58,3.58c0,1.07,.48,2.02,1.22,2.67-8.66,1.06-15.35,7.68-15.35,15.69v16.59H3.15c-.28,0-.5,.22-.5,.5v4.73c0,.28,.22,.5,.5,.5H21.18c.03,1.94,1.62,3.52,3.57,3.52s3.54-1.57,3.57-3.52h18.53c.28,0,.5-.22,.5-.5v-4.73c0-.28-.22-.5-.5-.5Zm-24.67,5.73h5.14c-.03,1.39-1.17,2.52-2.57,2.52s-2.54-1.12-2.57-2.52Zm24.17-1H3.65v-3.73H7.77s.09-.01,.14-.02l34.16,.02h0s.08-.01,.12-.02c.05,.01,.1,.03,.15,.03h4.02v3.73ZM22.42,4.69c0-1.42,1.16-2.58,2.58-2.58s2.58,1.16,2.58,2.58c0,1.25-.9,2.3-2.08,2.53-.14,0-.29-.02-.43-.02-.17,0-.34,.02-.52,.02-1.2-.22-2.12-1.27-2.12-2.53Zm2.64,3.51c9.25,0,16.77,6.66,16.77,14.85,0,0,0,13.68,0,16.58l-33.54-.02V23.05c0-8.19,7.52-14.85,16.77-14.85Z" stroke-width="0"/></g><g id="uuid-3f7b816b-0235-4b3d-bbce-1469ad39e92e"></g></svg>