<?xml version="1.0" encoding="UTF-8"?><svg width="70" height="70" id="uuid-f7c7806f-c95e-49a8-a955-1acc79f48330" xmlns="http://www.w3.org/2000/svg" viewBox="-10 -10 70 70"><rect x="-10" y="-10" width="70" height="70" fill="white"/><path d="M38.94,10.5c-.42-.07-.85-.11-1.3-.11-2.27,0-4.43,1-5.94,2.74l-.22,.25-.32-.11c-1-.33-2.05-.5-3.13-.5h-1.44c-1.36,0-2.67,.26-3.91,.78l-.35,.15-.23-.3c-1.46-1.85-3.74-2.96-6.08-2.96-.46,0-.9,.04-1.32,.11-2.03,.35-3.81,1.47-5.01,3.17-1.2,1.7-1.67,3.75-1.32,5.78l3.41,19.7c.63,3.59,3.72,6.29,7.35,6.42h.19l.14,.14c1.93,1.87,4.46,2.9,7.14,2.9h1.44c2.76,0,5.36-1.09,7.31-3.07l.11-.11,.15-.03c3.18-.59,5.69-3.12,6.25-6.3l3.4-19.69c.73-4.21-2.1-8.23-6.31-8.97Z" fill="#ffcd00" stroke-width="0"/><path d="M37.3,7.88c-.47-.08-.97-.13-1.48-.13-2.21,0-4.33,.85-5.96,2.34-.06-.71-.04-1.42,.07-2.13,.21-1.29,.73-2.54,1.49-3.62,.06-.08,.09-.18,.09-.27,.07-2.48-.33-3.81-1.26-4.18-1.18-.46-3.35,.37-9.66,10.73-1.65-1.76-3.98-2.81-6.39-2.81-.52,0-1.01,.04-1.5,.13-4.75,.81-7.96,5.35-7.14,10.11l3.41,19.7c.7,3.99,4.09,7.01,8.11,7.23,2.1,1.97,4.82,3.05,7.7,3.05h1.44c2.98,0,5.78-1.15,7.91-3.26,3.52-.72,6.28-3.54,6.9-7.09l3.4-19.69c.83-4.75-2.37-9.3-7.13-10.12Zm6.14,9.95l-3.4,19.69c-.46,2.64-2.28,4.82-4.7,5.82,1.38-1.91,2.14-4.19,2.14-6.58v-15.36c0-4.65-2.82-8.75-7.09-10.45,1.46-1.41,3.4-2.21,5.43-2.21,.45,0,.89,.04,1.3,.11,4.21,.73,7.05,4.75,6.31,8.97Zm-18.66,29.2c-2.68,0-5.21-1.03-7.14-2.9-1.99-1.93-3.13-4.61-3.13-7.37v-15.36c0-4.15,2.49-7.88,6.35-9.49h0c1.24-.52,2.56-.78,3.91-.78h1.44c1.08,0,2.14,.17,3.13,.5h0c4.26,1.37,7.13,5.29,7.13,9.76v15.36c0,2.7-1.05,5.26-2.95,7.2-1.95,1.98-4.55,3.07-7.31,3.07h-1.44ZM12.88,8.93c.43-.08,.86-.11,1.32-.11,2.13,0,4.19,.92,5.65,2.47-3.87,1.9-6.34,5.79-6.34,10.12v15.36c0,2.57,.91,5.08,2.52,7.07-3.05-.63-5.52-3.1-6.07-6.26l-3.41-19.7c-.72-4.22,2.12-8.23,6.33-8.96ZM29.75,.8c.06,0,.11,.01,.15,.03,.16,.06,.68,.48,.63,3.07-.8,1.17-1.35,2.52-1.57,3.91-.14,.89-.16,1.78-.05,2.68-.87-.22-1.76-.34-2.68-.34h-1.44c-1.01,0-2,.13-2.96,.39C27.18,1.85,29.13,.8,29.75,.8Z" stroke-width="0"/></svg>