<?xml version="1.0" encoding="UTF-8"?><svg width="70" height="70" xmlns="http://www.w3.org/2000/svg" viewBox="-10 -10 70 70"><rect x="-10" y="-10" width="70" height="70" fill="white"/><g id="uuid-bb5652b3-9962-4797-97ed-3401f1d0d79e"><path d="m34.38,15.55c-2.58-.58-5.17-.92-7.77-1.04-1.1,0-2.4,0-3.95.01-2.67.12-5.35.47-8,1.08-.59.14-1.04.64-1.13,1.25-.41,2.97-.83,5.94-1.28,8.9l-.08.47c-.14.85-.27,1.66-.22,2.47.04.59.63,1.11,1.27,1.11.18,0,.35-.04.5-.1v15.71c0,.69.48,1.31,1.14,1.45,6.48,1.46,13.05,1.46,19.52,0,.66-.14,1.14-.76,1.14-1.45v-28.4c0-.69-.48-1.31-1.14-1.46Z" fill="#ffcd00" stroke-width="0"/></g><g id="uuid-a5e7d412-65a0-41a0-9f25-038e373d3930"><path d="m35.38,15.87v28.4c0,1.16-.81,2.18-1.92,2.43-3.31.75-6.64,1.12-9.98,1.12s-6.67-.37-9.98-1.12c-1.11-.25-1.92-1.27-1.92-2.43v-14.66c-.95-.22-1.7-1.03-1.76-2-.06-.92.08-1.82.22-2.69l.08-.46c.45-2.96.87-5.92,1.28-8.88.14-1.03.9-1.87,1.89-2.09,2.56-.59,5.14-.96,7.71-1.1-.33-.87-.52-1.97-.52-3.25,0-3.29,2.49-6.73,2.6-6.87.09-.13.25-.16.4-.21.16,0,.31.08.41.21.1.15,2.59,3.64,2.59,6.92,0,1.36-.19,2.4-.5,3.2,2.5.14,5,.49,7.48,1.05,1.11.25,1.92,1.27,1.92,2.43Zm-1,28.4V15.87c0-.69-.48-1.31-1.14-1.46-2.58-.58-5.17-.92-7.77-1.04-.44.61-.96.96-1.49,1.09v1.22c0,.27-.22.5-.5.5s-.5-.23-.5-.5v-1.24c-.57-.13-1.06-.5-1.46-1.06-2.67.12-5.35.47-8,1.08-.59.14-1.04.64-1.13,1.25-.41,2.97-.83,5.94-1.28,8.9l-.08.47c-.14.85-.27,1.66-.22,2.47.04.59.63,1.11,1.27,1.11.74,0,1.34-.6,1.34-1.34v-3.79c0-.28.23-.5.5-.5s.5.22.5.5v1.95c0,.74.61,1.34,1.34,1.34.59,0,1.15-.43,1.3-.99.07-.3-.08-1.62-.43-3.92l-.07-.46c-.03-.27.16-.52.43-.56s.53.15.56.43l.07.44c.41,2.71.52,3.89.41,4.32-.27,1.01-1.22,1.74-2.27,1.74-.5,0-.96-.16-1.34-.43-.03,1.09-.81,1.99-1.84,2.22v14.66c0,.69.48,1.31,1.14,1.45,6.48,1.46,13.05,1.46,19.52,0,.66-.14,1.14-.76,1.14-1.45Zm-9.47-31.91c.34-.71.57-1.75.57-3.17,0-2.2-1.32-4.61-2-5.72-.69,1.09-2,3.47-2,5.67,0,1.33.22,2.44.6,3.22.22.46.5.79.81.97.19.11.38.19.59.19s.4-.07.6-.18c.3-.18.59-.5.83-.98Z" stroke-width="0"/><path d="m32.33,16.9c.05.27-.13.54-.4.59-3.13.58-6.12.87-8.94.87s-5.5-.29-7.98-.88c-.27-.06-.43-.33-.37-.6s.33-.43.6-.37c4.82,1.14,10.37,1.14,16.51,0,.26-.04.53.13.58.4Z" stroke-width="0"/></g></svg>