<?xml version="1.0" encoding="UTF-8"?><svg width="70" height="70" id="uuid-10cc2525-1d01-4da7-8fe2-8964f603def6" xmlns="http://www.w3.org/2000/svg" viewBox="-10 -10 70 70"><rect x="-10" y="-10" width="70" height="70" fill="white"/><path d="M26.28,5.72C16.08,5.72,4.97,10.69,3.14,21.8c-.57,3.46,1.37,7.75,3.54,9.59,.76,.64,1.93,1.33,3.15,.91,1.23-.42,1.93-1.19,2.67-2.01,1.34-1.48,2.86-3.18,7.57-3.01,2.96,.1,5.07,.79,6.93,1.4,3.12,1.02,5.82,1.91,11.59-.19,2.95-1.08,9.67-6.28,11.17-7.45-4.1-9.32-13.27-15.31-23.48-15.31Z" fill="#ffcd00" stroke-width="0"/><path d="M49.02,19.24C44.84,9.36,35.21,2.97,24.47,2.97S2.27,8.2,.35,19.89c-.57,3.5,1.17,8.21,3.88,10.52,1,.85,2.02,1.28,3.02,1.28,.37,0,.74-.06,1.1-.18,.97-.33,1.65-.83,2.24-1.39l13.63,9.04c-.04,.16-.06,.32-.06,.48,0,1.17,.95,2.12,2.12,2.12,.31,0,.6-.07,.87-.19l4.05,5.27c.1,.13,.25,.2,.4,.2,.11,0,.21-.03,.3-.1,.22-.17,.26-.48,.09-.7l-4.06-5.28c.29-.36,.46-.81,.46-1.31,0-.69-.34-1.3-.85-1.68l3.28-8.94c1.71-.03,3.73-.4,6.3-1.33,3.47-1.27,11.41-7.58,11.75-7.85,.18-.14,.24-.38,.15-.59ZM24.47,3.97c10.01,0,19.02,5.78,23.23,14.8H1.62C4.07,8.57,14.68,3.97,24.47,3.97Zm1.8,33.55c-.64,0-1.21,.29-1.6,.74l-13.38-8.88c.05-.06,.1-.11,.15-.17,1.31-1.45,2.54-2.81,6.79-2.68,2.81,.09,4.76,.73,6.65,1.35,1.54,.51,3.04,1,4.88,1.11l-3.14,8.56c-.12-.02-.23-.04-.35-.04Zm10.51-10.78c-5.77,2.1-8.46,1.22-11.59,.19-1.86-.61-3.97-1.3-6.93-1.4-4.71-.16-6.23,1.53-7.57,3.01-.74,.82-1.44,1.6-2.67,2.01-1.23,.42-2.39-.27-3.15-.91-2.17-1.84-4.11-6.13-3.54-9.59,.02-.1,.05-.19,.06-.29H47.33c-2.21,1.72-7.89,6-10.55,6.97Z" stroke-width="0"/><path d="M8.78,14.55c.13,0,.26-.05,.36-.15,3.32-3.46,8.86-5.53,14.81-5.53,5.17,0,10.08,1.57,13.47,4.3,.22,.17,.53,.14,.7-.08,.17-.21,.14-.53-.08-.7-3.57-2.87-8.71-4.52-14.1-4.52-6.22,0-12.03,2.18-15.53,5.83-.19,.2-.18,.52,.01,.71,.1,.09,.22,.14,.35,.14Z" stroke-width="0"/></svg>