<?xml version="1.0" encoding="UTF-8"?><svg width="70" height="70" id="uuid-4a747341-4739-4d63-879d-1a07eb41241c" xmlns="http://www.w3.org/2000/svg" viewBox="-10 -10 70 70"><rect x="-10" y="-10" width="70" height="70" fill="white"/><path d="M50.1,34.3c-.29-1.84-1.02-3.62-2.12-5.15-.26-.34-.58-.75-.98-1.18l-.28-.28c-.27-.27-.52-.52-.83-.75-.75-.64-1.62-1.17-2.77-1.7-.91-.41-1.96-.7-3.2-.89-1.06-.14-2.21-.12-3.41,.04-.34,.05-.69,.13-1.04,.22-.22,.06-.45-.04-.56-.24-.11-.19-.08-.44,.08-.6l.21-.21c.17-.17,.34-.33,.49-.51,.77-.98,1.34-1.9,1.73-2.82,.83-1.9,1.16-4.08,.91-6.15-.23-1.87-.91-3.68-1.95-5.24-.5-.73-1.09-1.42-1.75-2.03,.54,.62,1.06,1.39,1.48,2.31,.31,.72,.64,1.56,.81,2.49,.15,.7,.2,1.56,.12,2.6,0,.11-.03,.29-.05,.47l-.11,.82c-.03,.14-.25,1.06-.44,1.49-.27,.84-.78,1.63-1.23,2.33-.93,1.34-2.28,2.49-3.91,3.34-.67,.33-1.4,.59-2.31,.84-.21,.03-.37,.06-.52,.09-.24,.04-.45,.08-.61,.09l-.15,.03s-.14,.02-.3,.02l-.87,.03s-.06,0-.09,0l-.49-.02c-.15,0-.33-.01-.52-.04h-.11c-.22-.03-.47-.08-.71-.13-.15-.03-.29-.06-.44-.08-.9-.24-1.65-.51-2.35-.85-1.64-.86-2.98-2.01-3.9-3.32-.24-.37-.48-.74-.69-1.13-.21-.42-.41-.81-.54-1.16-.16-.24-.36-1.21-.44-1.62l-.12-.66c-.03-.16-.05-.32-.06-.47-.05-.79-.07-1.75,.13-2.68,.16-.92,.5-1.76,.8-2.47,.43-.95,.98-1.73,1.52-2.36-.68,.62-1.29,1.32-1.8,2.07-1.04,1.54-1.71,3.35-1.94,5.22-.04,.45-.08,.96-.08,1.53l.02,.37c.01,.39,.03,.75,.1,1.13,.11,.97,.39,1.95,.87,3.13,.39,.92,.96,1.85,1.74,2.83,.2,.25,.44,.48,.68,.71l.12,.12c.16,.16,.2,.41,.08,.61-.11,.2-.35,.29-.57,.23-.66-.18-1.25-.3-1.81-.36-2.06-.23-4.24,.1-6.14,.94-1.72,.78-3.25,1.95-4.43,3.4-.55,.69-1.03,1.46-1.42,2.27,.44-.7,1.01-1.43,1.77-2.09,.59-.51,1.31-1.08,2.14-1.51,.62-.35,1.45-.65,2.45-.88,.12-.03,.3-.06,.49-.1l.26-.05s.43-.06,.49-.08c.03,0,.09,0,.12,0,.07,0,1.01-.07,1.48-.02,.88,0,1.79,.26,2.59,.49,1.56,.49,3.05,1.44,4.34,2.75,.51,.54,.98,1.16,1.48,1.96,.1,.19,.17,.34,.24,.47,.11,.21,.21,.41,.27,.55,0,0,.42,1.1,.46,1.2,.01,.03,.02,.07,.03,.1l.06,.22s.18,.69,.21,.89c.05,.21,.08,.46,.1,.7,.01,.15,.03,.3,.05,.44,.04,.92,0,1.72-.11,2.5-.34,1.85-1.02,3.43-2.03,4.71-.29,.34-.57,.68-.87,.99-.32,.31-.64,.63-.95,.87-.16,.19-.83,.57-1.23,.79-.06,.06-.13,.1-.2,.12l-.58,.28c-.15,.07-.29,.15-.45,.2-.7,.26-1.64,.58-2.6,.67-.92,.11-1.83,.04-2.59-.04-1.03-.13-1.95-.42-2.72-.76,.8,.47,1.65,.85,2.52,1.11,1.78,.54,3.7,.65,5.56,.32,.41-.09,.93-.2,1.48-.37l.37-.13c.36-.13,.7-.24,1.04-.42,.9-.4,1.75-.95,2.73-1.76,.76-.65,1.48-1.46,2.19-2.5,.57-.87,1.41-3.05,1.48-3.26,.07-.21,.28-.35,.49-.34,.22,0,.41,.15,.47,.36,.06,.21,.12,.41,.19,.62,.68,1.96,1.93,3.78,3.51,5.12,1.44,1.21,3.17,2.09,4.99,2.52,.86,.2,1.75,.3,2.65,.3-.81-.09-1.72-.3-2.65-.68-.71-.31-1.53-.71-2.28-1.28-.59-.41-1.2-1.01-1.86-1.83-.08-.09-.19-.24-.3-.39l-.39-.54c-.09-.15-.61-1.08-.76-1.52-.37-.8-.54-1.72-.68-2.54-.23-1.61-.02-3.37,.6-5.1,.27-.7,.63-1.39,1.12-2.18,.13-.17,.23-.3,.32-.42,.14-.19,.27-.36,.38-.48l.89-.94,.04-.03s.03-.03,.04-.04h0l.03-.03,.02-.02s.07-.06,.11-.08c.52-.45,1.08-.85,1.73-1.23,.78-.42,1.52-.73,2.27-.96,1.79-.48,3.55-.55,5.12-.21,.43,.11,.86,.22,1.27,.36,.38,.14,.83,.3,1.19,.48,.27,.07,1.14,.68,1.5,.93l.45,.36c.13,.1,.26,.2,.37,.31,.54,.52,1.23,1.23,1.73,2.05,.5,.79,.83,1.63,1.09,2.35,.33,.99,.46,1.94,.49,2.77,.08-.92,.05-1.85-.09-2.74Zm-25.4-4.55l-2.82-4.53,5.6,.03-2.79,4.5Z" fill="#ffcd00" stroke-width="0"/><path d="M49.34,32.4h0c-.31-1.99-1.11-3.92-2.31-5.6-.28-.37-.63-.81-1.07-1.28l-.28-.28c-.28-.28-.57-.57-.91-.82-.79-.68-1.74-1.26-2.98-1.83-1-.45-2.13-.77-3.48-.97-1.06-.14-2.17-.14-3.33,0,.71-.94,1.24-1.83,1.62-2.73,.9-2.06,1.25-4.42,.99-6.66-.25-2.03-.98-3.99-2.11-5.68-.95-1.4-2.21-2.63-3.72-3.61-.24-.11-.9-.39-1.26,.06-.32,.4-.06,.95,.21,1.35,.03,.04,.06,.08,.1,.11,.81,.63,1.92,1.73,2.66,3.33,.28,.65,.59,1.44,.74,2.28,.14,.62,.17,1.41,.1,2.35,0,.11-.02,.25-.04,.4l-.1,.76c-.06,.26-.25,.98-.39,1.32-.25,.77-.7,1.47-1.12,2.13-.42,.61-.95,1.18-1.56,1.69-1.75-1.35-3.94-2.16-6.32-2.16s-4.5,.79-6.24,2.1c-.59-.5-1.09-1.05-1.5-1.63-.22-.34-.45-.69-.64-1.04-.19-.38-.38-.74-.53-1.13-.08-.14-.25-.83-.35-1.37l-.07-.38c-.01-.09-.02-.17-.04-.26-.02-.12-.04-.23-.04-.35-.04-.74-.06-1.61,.11-2.45,.15-.83,.46-1.61,.73-2.25,.73-1.61,1.85-2.71,2.65-3.34,.04-.03,.07-.07,.1-.11,.12-.16,.47-.74,.16-1.19-.21-.3-.58-.39-1.13-.26-.06,.01-.11,.04-.15,.07-1.44,.94-2.7,2.17-3.65,3.57-1.12,1.67-1.85,3.63-2.11,5.68-.05,.49-.09,1.03-.08,1.66l.02,.38c.01,.4,.03,.82,.11,1.25,.12,1.03,.42,2.1,.94,3.37,.39,.92,.94,1.84,1.68,2.8-.13-.02-.27-.04-.4-.05-2.23-.25-4.6,.11-6.66,1.02-1.87,.84-3.53,2.12-4.8,3.69-1.06,1.32-1.86,2.89-2.33,4.54-.03,.11-.02,.22,.02,.32,.04,.09,.24,.55,.71,.66,.2,.05,.51,.04,.85-.25,.06-.05,.11-.12,.14-.2,.37-.96,1.08-2.35,2.4-3.52,.54-.46,1.2-.99,1.96-1.38,.56-.31,1.3-.58,2.21-.79,.11-.03,.27-.06,.43-.08l.25-.05,.48-.07h0c.26-.02,1.01-.06,1.38-.02,.8,.01,1.6,.24,2.36,.45,.23,.07,.46,.17,.69,.27-.02,.24-.04,.48-.04,.72,0,4.08,2.37,7.62,5.81,9.31-.01,.12-.02,.25-.04,.37-.31,1.65-.94,3.12-1.82,4.24-.26,.31-.52,.63-.8,.91-.29,.28-.59,.58-.92,.84-.11,.12-.69,.46-1.17,.72-.04,.02-.07,.04-.09,.07l-.29,.14c-.08,.03-.15,.07-.23,.11-.11,.05-.21,.11-.33,.15-.7,.26-1.52,.54-2.37,.62-.83,.1-1.67,.04-2.37-.04-1.76-.22-3.13-.97-3.98-1.55-.04-.03-.08-.05-.13-.06-.18-.06-.77-.21-1.11,.19-.23,.27-.23,.65,0,1.12,.03,.06,.07,.12,.13,.16,1.32,1.1,2.87,1.94,4.49,2.44,1.2,.36,2.46,.55,3.73,.55,.77,0,1.54-.07,2.31-.2,.45-.09,.99-.21,1.62-.41l.37-.13c.38-.13,.77-.27,1.14-.47,.95-.42,1.88-1.02,2.94-1.89,.84-.71,1.61-1.59,2.38-2.71,.35-.55,.77-1.46,1.09-2.22,.77,1.88,2.02,3.61,3.57,4.93,1.56,1.32,3.43,2.26,5.4,2.73,1.65,.38,3.41,.43,5.1,.14,.08-.01,.15-.04,.21-.09,.3-.22,.78-.68,.61-1.18-.18-.52-.83-.51-1.08-.51-1.02,.08-2.59,.04-4.21-.64-.65-.29-1.41-.65-2.09-1.17-.52-.36-1.07-.9-1.68-1.66-.07-.08-.16-.21-.25-.34l-.36-.49c-.15-.26-.55-1.01-.68-1.36-.34-.73-.48-1.55-.62-2.32-.03-.22-.04-.44-.05-.67,3.82-1.53,6.54-5.26,6.54-9.63,.11-.04,.23-.09,.35-.13,1.62-.44,3.22-.5,4.61-.2,.39,.1,.79,.2,1.17,.33,.34,.12,.77,.28,1.16,.47,.16,.05,.79,.47,1.26,.8l.24,.2c.06,.05,.13,.11,.2,.16,.09,.07,.19,.14,.28,.24,.5,.48,1.14,1.13,1.58,1.87,.46,.71,.76,1.49,.99,2.15,.56,1.69,.48,3.25,.32,4.35,.01,.38,.11,1.03,.63,1.16,.57,.14,.94-.5,1.08-.74,.02-.04,.04-.08,.05-.13,.42-1.66,.51-3.43,.25-5.1Zm-.9,2.9c-.03-.84-.16-1.78-.49-2.77-.26-.72-.59-1.56-1.09-2.35-.5-.82-1.19-1.53-1.73-2.05-.11-.11-.24-.21-.37-.31l-.45-.36c-.36-.26-1.23-.87-1.5-.93-.36-.18-.81-.35-1.19-.48-.42-.14-.84-.25-1.27-.36-1.57-.35-3.33-.27-5.12,.21-.75,.23-1.49,.54-2.27,.96-.65,.39-1.21,.79-1.73,1.23-.04,.02-.08,.05-.11,.08l-.02,.02-.03,.03h0s-.03,.03-.04,.05l-.04,.03-.89,.94c-.11,.11-.24,.29-.38,.48-.09,.12-.19,.25-.32,.42-.5,.79-.85,1.48-1.12,2.18-.62,1.73-.83,3.49-.6,5.1,.15,.82,.31,1.74,.68,2.54,.15,.44,.67,1.37,.76,1.52l.39,.54c.11,.15,.22,.3,.3,.39,.66,.82,1.27,1.42,1.86,1.83,.75,.57,1.57,.96,2.28,1.28,.93,.39,1.83,.59,2.65,.68-.9,0-1.8-.1-2.65-.3-1.82-.43-3.54-1.31-4.99-2.52-1.58-1.35-2.83-3.17-3.51-5.12-.07-.2-.13-.41-.19-.62-.06-.21-.25-.35-.47-.36-.2-.02-.42,.13-.49,.34-.07,.21-.92,2.39-1.48,3.26-.71,1.04-1.43,1.85-2.19,2.5-.98,.81-1.84,1.36-2.73,1.76-.34,.18-.68,.3-1.04,.42l-.37,.13c-.56,.17-1.07,.29-1.48,.37-1.86,.33-3.79,.22-5.56-.32-.87-.27-1.72-.64-2.52-1.11,.77,.34,1.68,.63,2.72,.76,.76,.08,1.67,.15,2.59,.04,.96-.09,1.9-.41,2.6-.67,.15-.05,.3-.13,.45-.2l.58-.28c.08-.03,.14-.07,.2-.12,.4-.22,1.07-.6,1.23-.79,.31-.24,.63-.55,.95-.87,.31-.31,.59-.65,.87-.99,1-1.28,1.68-2.86,2.03-4.71,.12-.78,.16-1.58,.11-2.5-.02-.15-.04-.3-.05-.44-.02-.25-.05-.49-.1-.7-.03-.2-.21-.89-.21-.89l-.06-.22s-.02-.07-.03-.1c-.04-.1-.46-1.2-.46-1.2-.06-.15-.16-.34-.27-.55-.07-.13-.15-.28-.24-.47-.5-.8-.97-1.42-1.48-1.96-1.29-1.31-2.78-2.26-4.34-2.75-.8-.22-1.71-.48-2.59-.49-.47-.05-1.41,0-1.48,.02-.03,0-.09,0-.12,0-.06,.01-.47,.07-.49,.08l-.26,.05c-.19,.03-.37,.07-.49,.1-1,.23-1.83,.53-2.45,.88-.83,.43-1.54,1-2.14,1.51-.75,.67-1.33,1.4-1.77,2.09,.39-.81,.87-1.58,1.42-2.27,1.17-1.45,2.71-2.63,4.43-3.4,1.9-.84,4.08-1.17,6.14-.94,.56,.06,1.15,.17,1.81,.36,.22,.06,.45-.03,.57-.23,.11-.2,.08-.45-.08-.61l-.12-.12c-.24-.23-.48-.47-.68-.71-.78-.98-1.35-1.91-1.74-2.83-.49-1.18-.76-2.16-.87-3.13-.07-.38-.09-.75-.1-1.13l-.02-.37c0-.57,.04-1.08,.08-1.53,.24-1.88,.91-3.68,1.94-5.22,.51-.75,1.12-1.45,1.8-2.07-.55,.63-1.09,1.42-1.52,2.36-.3,.7-.64,1.55-.8,2.47-.19,.94-.17,1.89-.13,2.68,0,.16,.03,.32,.06,.47l.12,.66c.08,.41,.28,1.38,.44,1.62,.13,.35,.33,.75,.54,1.16,.21,.39,.45,.76,.69,1.13,.92,1.32,2.26,2.46,3.9,3.32,.7,.34,1.45,.61,2.35,.85,.15,.02,.29,.05,.44,.08,.24,.05,.49,.1,.71,.11h.11c.18,.04,.36,.06,.52,.05l.49,.02s.06,0,.09,0l.87-.03c.17,0,.28,0,.3-.02l.15-.03c.16-.01,.37-.05,.61-.09,.15-.03,.31-.06,.52-.09,.91-.24,1.64-.51,2.31-.84,1.63-.85,2.98-1.99,3.91-3.34,.45-.7,.96-1.49,1.23-2.33,.19-.43,.41-1.35,.44-1.49l.11-.82c.02-.18,.04-.36,.05-.47,.07-1.04,.03-1.9-.12-2.6-.17-.92-.5-1.77-.81-2.49-.42-.92-.95-1.68-1.48-2.31,.66,.61,1.25,1.3,1.75,2.03,1.04,1.55,1.71,3.36,1.95,5.24,.24,2.06-.08,4.25-.91,6.15-.39,.92-.96,1.85-1.73,2.82-.15,.18-.32,.35-.49,.51l-.21,.21c-.16,.16-.19,.41-.08,.6,.11,.2,.34,.29,.56,.24,.35-.09,.7-.17,1.04-.22,1.19-.17,2.34-.18,3.41-.04,1.24,.19,2.29,.48,3.2,.89,1.15,.53,2.02,1.06,2.77,1.7,.31,.23,.56,.48,.83,.75l.28,.28c.39,.42,.72,.84,.98,1.18,1.1,1.53,1.84,3.31,2.12,5.15,.14,.9,.17,1.82,.09,2.74ZM24.77,17.56c2.05,0,3.94,.67,5.49,1.79-.36,.24-.74,.48-1.14,.68-.6,.3-1.28,.54-2.06,.75-.17,.03-.34,.06-.5,.09-.19,.04-.37,.07-.55,.09l-.21,.04s-.09,0-.14,0l-.83,.03s-.12,0-.13,0h-.48c-.13,0-.25-.03-.37-.04l-.15-.02c-.21-.01-.41-.06-.61-.1-.17-.03-.33-.07-.44-.08-.78-.21-1.47-.46-2.1-.76-.42-.22-.82-.47-1.2-.73,1.53-1.09,3.4-1.73,5.41-1.73Zm-9.39,9.39c0-.08,.01-.16,.01-.24,.79,.45,1.55,1.03,2.24,1.73,.46,.49,.89,1.06,1.33,1.75,.07,.15,.15,.31,.23,.45,.09,.17,.17,.33,.22,.44,.22,.58,.37,.97,.48,1.21h-.02l.06,.22s.16,.62,.2,.83c.05,.2,.06,.4,.08,.61,.02,.17,.03,.34,.05,.45,.01,.27,0,.52,0,.78-2.91-1.6-4.88-4.69-4.88-8.23Zm13.25,8.56c.06-.93,.25-1.89,.59-2.84,.24-.63,.57-1.26,1-1.96,.11-.13,.21-.28,.31-.41,.12-.16,.22-.3,.3-.39l.86-.91c.51-.46,1.09-.89,1.76-1.29,.23-.12,.46-.22,.69-.33-.17,3.62-2.38,6.71-5.52,8.12Z" stroke-width="0"/><path d="M28.38,24.26l-7.4-.04c-.18,.01-.35,.1-.44,.26-.09,.16-.08,.35,.01,.51l3.72,5.99c.09,.15,.25,.24,.42,.24h0c.17,0,.33-.09,.42-.24l3.68-5.94c.1-.15,.1-.35,.01-.51s-.25-.26-.43-.26Zm-3.68,5.5l-2.82-4.53,5.6,.03-2.79,4.5Z" stroke-width="0"/></svg>