<?xml version="1.0" encoding="UTF-8"?><svg width="70" height="70" id="uuid-735d98e3-1221-4216-8f7e-b1512e7190e2" xmlns="http://www.w3.org/2000/svg" viewBox="-10 -10 70 70"><rect x="-10" y="-10" width="70" height="70" fill="white"/><path d="M49.98,30.69c0-.27-.23-.5-.5-.5h-.63c-.24,0-.45-.17-.49-.41l-.16-.87c-.18-.99-.77-1.86-1.63-2.38l-.94-.57h-6.28c-1.24,0-2.29-.84-2.56-2.05l-.59-2.68c-.03-.12-.04-.24-.04-.36,0-.34,.12-.68,.34-.96,.3-.37,.74-.58,1.22-.58h3.5v-.33c0-.22-.04-.54-.22-.81-.54-.83-1.33-1.49-2.34-1.95-.62-.29-1.36-.43-2.21-.43H4.89c-.28,0-.5,.22-.5,.5v14.59c0,.27-.23,.5-.5,.5h-1.3v2.09h.69c.43,0,.87,.05,1.29,.13l2.83,.54c-.05-.25-.08-.5-.08-.76,0-2.32,1.89-4.21,4.21-4.21s4.22,1.89,4.22,4.21c0,.43-.09,.83-.2,1.22h7.41v-14.78c0-.28,.22-.5,.5-.5h10.23c.28,0,.5,.22,.5,.5v14.71h3.76c-.11-.36-.18-.75-.18-1.15,0-2.32,1.89-4.21,4.21-4.21s4.21,1.89,4.21,4.21c0,.4-.07,.79-.18,1.15h2.48c.4,0,.78-.15,1.07-.44s.44-.66,.43-1.06v-2.36Zm-29.53-3.73h-4.53s-.07,0-.1-.01l-4.47-.99H6.89c-.28,0-.5-.22-.5-.5v-5.63c0-.28,.22-.5,.5-.5h13.57c.27,0,.5,.22,.5,.5v6.63c0,.28-.23,.5-.5,.5Z" fill="#ffcd00" stroke-width="0"/><g><path d="M40.69,30.08c-1.16,0-2.11,.95-2.11,2.11s.95,2.11,2.11,2.11,2.11-.94,2.11-2.11-.95-2.11-2.11-2.11Zm0,3.22c-.61,0-1.11-.5-1.11-1.11s.5-1.11,1.11-1.11,1.11,.5,1.11,1.11-.5,1.11-1.11,1.11Z" stroke-width="0"/><path d="M10.24,30.08c-1.16,0-2.11,.95-2.11,2.11s.95,2.11,2.11,2.11,2.11-.94,2.11-2.11-.94-2.11-2.11-2.11Zm0,3.22c-.61,0-1.11-.5-1.11-1.11s.5-1.11,1.11-1.11,1.11,.5,1.11,1.11-.5,1.11-1.11,1.11Z" stroke-width="0"/><path d="M19.17,18.12H5.6c-.28,0-.5,.22-.5,.5v5.63c0,.28,.22,.5,.5,.5h4.47l4.47,.99s.07,.01,.1,.01h4.53c.27,0,.5-.22,.5-.5v-6.63c0-.28-.23-.5-.5-.5Zm-9.55,5.63h-3.52v-4.63h3.52v4.63Zm4.52,.88l-3.52-.78v-4.73h3.52v5.51Zm4.53,.12h-3.53v-5.63h3.53v5.63Z" stroke-width="0"/><path d="M48.19,27.98h-.21l-.08-.45c-.23-1.28-1-2.39-2.1-3.06l-.98-.59-3.89-5.42v-.67c0-.51-.13-.98-.38-1.36-.65-.99-1.58-1.77-2.76-2.31-.75-.35-1.64-.52-2.63-.52H3.6c-.83,0-1.5,.67-1.5,1.5v14.09H.8c-.28,0-.5,.22-.5,.5v3.09c0,.28,.22,.5,.5,.5H1.99c.37,0,.74,.04,1.1,.11l3.35,.64v-.05c.68,1.43,2.12,2.42,3.8,2.42,1.51,0,2.83-.8,3.57-1.99h7.86v.49c0,.28,.22,.5,.5,.5h10.23c.28,0,.5-.22,.5-.5v-.56h4.19c.74,1.23,2.07,2.06,3.6,2.06s2.86-.83,3.6-2.06h2.91c.67,0,1.3-.26,1.78-.73,.47-.48,.73-1.11,.72-1.78v-2.35c-.01-.83-.69-1.5-1.51-1.5Zm-8.02-8.86l3.33,4.63h-5.44c-.77,0-1.42-.52-1.58-1.27l-.6-2.68c-.03-.16,.01-.34,.11-.47,.11-.13,.27-.21,.44-.21h3.74ZM10.24,35.4c-1.77,0-3.21-1.44-3.21-3.21s1.44-3.21,3.21-3.21,3.22,1.44,3.22,3.21-1.45,3.21-3.22,3.21Zm16.54-1h-4.11v-15.27h4.11v15.27Zm5.12,0h-4.12v-15.27h4.12v15.27Zm8.79,1c-1.77,0-3.21-1.44-3.21-3.21s1.44-3.21,3.21-3.21,3.21,1.44,3.21,3.21-1.44,3.21-3.21,3.21Zm7.58-2.5c-.29,.29-.67,.44-1.07,.44h-2.48c.11-.36,.18-.75,.18-1.15,0-2.32-1.89-4.21-4.21-4.21s-4.21,1.89-4.21,4.21c0,.4,.07,.79,.18,1.15h-3.76v-14.71c0-.28-.22-.5-.5-.5h-10.23c-.28,0-.5,.22-.5,.5v14.78h-7.41c.11-.39,.2-.79,.2-1.22,0-2.32-1.89-4.21-4.22-4.21s-4.21,1.89-4.21,4.21c0,.26,.03,.51,.08,.76l-2.83-.54c-.42-.08-.86-.13-1.29-.13h-.69v-2.09h1.3c.27,0,.5-.23,.5-.5V15.1c0-.28,.22-.5,.5-.5h31.56c.85,0,1.59,.14,2.21,.43,1.01,.46,1.8,1.12,2.34,1.95,.18,.27,.22,.59,.22,.81v.33h-3.5c-.48,0-.92,.21-1.22,.58-.22,.28-.34,.62-.34,.96,0,.12,.01,.24,.04,.36l.59,2.68c.27,1.21,1.32,2.05,2.56,2.05h6.28l.94,.57c.86,.52,1.45,1.39,1.63,2.38l.16,.87c.04,.24,.25,.41,.49,.41h.63c.27,0,.5,.23,.5,.5v2.36c.02,.4-.14,.78-.42,1.06Z" stroke-width="0"/></g></svg>