<?xml version="1.0" encoding="utf-8"?> <!-- Generator: Adobe Illustrator 27.7.0, SVG Export Plug-In . SVG Version: 6.00 Build 0) --> <svg width="70" height="70" version="1.1" xmlns="http://www.w3.org/2000/svg" xmlns:xlink="http://www.w3.org/1999/xlink" x="0px" y="0px" viewBox="-10 -10 70 70" style="enable-background:new 0 0 50 50;" xml:space="preserve"><rect x="-10" y="-10" width="70" height="70" fill="white"/> <style type="text/css"> .st0{fill:#FFCD00;} .st1{display:none;} .st2{display:inline;fill:none;stroke:#EA008A;stroke-width:0.2;stroke-miterlimit:10;} .st3{font-family:'Roboto-Regular';} .st4{font-size:6px;} </style> <g id="Color"> <path class="st0" d="M26.028,4.4329L4.1182,24.5913l2.1582,2.3462l3.5818-3.2955l3.5715,25.5392h26.1396l3.5716-25.54 l3.5827,3.2963l1.6862-1.9119L26.028,4.4329z M26.5,34.4712c-3.54,0-6.4199-2.8799-6.4199-6.4194 c0-3.54,2.8799-6.4199,6.4199-6.4199s6.4199,2.8799,6.4199,6.4199C32.9199,31.5913,30.04,34.4712,26.5,34.4712z" stroke-width="0"/> </g> <g id="ICONS_00000031165542127692736420000002692518830807990202_"> <g> <path d="M25,36.9697c-1.5156,0-2.748,1.2324-2.748,2.7476s1.2324,2.7476,2.748,2.7476c1.5146,0,2.7471-1.2324,2.7471-2.7476 S26.5146,36.9697,25,36.9697z M25,41.4648c-0.9639,0-1.748-0.7842-1.748-1.7476s0.7842-1.7476,1.748-1.7476 c0.9629,0,1.7471,0.7842,1.7471,1.7476S25.9629,41.4648,25,41.4648z" stroke-width="0"/> <path d="M48.4268,22.6938L25.3389,1.4507c-0.1914-0.1758-0.4863-0.1758-0.6777,0L1.5732,22.6938 c-0.2031,0.187-0.2158,0.5034-0.0293,0.7065l2.835,3.082c0.0898,0.0977,0.2148,0.1558,0.3477,0.1611 c0.1377,0.0078,0.2617-0.0415,0.3594-0.1313l2.5462-2.3427L11,48.2505c0.0342,0.2471,0.2461,0.4307,0.4951,0.4307h27.0088 c0.249,0,0.4609-0.1836,0.4951-0.4307l3.368-24.0818l2.5471,2.3436c0.0928,0.085,0.2139,0.1318,0.3389,0.1318 c0.0068,0,0.0137,0,0.0205-0.0005c0.1328-0.0054,0.2578-0.0635,0.3477-0.1611l2.835-3.082 C48.6426,23.1973,48.6299,22.8809,48.4268,22.6938z M38.0693,47.6812H11.9297l-3.403-24.3347L25,8.1895l16.4725,15.1562 L38.0693,47.6812z M45.2236,25.4375L25.3389,7.1421C25.2432,7.0542,25.1211,7.0103,25,7.0103s-0.2432,0.0439-0.3389,0.1318 L4.7764,25.4375l-2.1582-2.3462L25,2.4985l22.3818,20.5928L45.2236,25.4375z" stroke-width="0"/> <path d="M18.0801,26.5518c0,3.8154,3.1045,6.9194,6.9199,6.9194s6.9199-3.104,6.9199-6.9194S28.8154,19.6318,25,19.6318 S18.0801,22.7363,18.0801,26.5518z M30.9199,26.5518c0,3.2642-2.6553,5.9194-5.9199,5.9194s-5.9199-2.6553-5.9199-5.9194 S21.7354,20.6318,25,20.6318S30.9199,23.2876,30.9199,26.5518z" stroke-width="0"/> </g> </g> <g id="Margin" class="st1"> <rect x="1" y="1" class="st2" /> </g> <g id="Guides" class="st1"> </g> <g id="LABELS"> <g> <g> <g> <g> </g> </g> </g> </g> </g> </svg> 