<?xml version="1.0" encoding="utf-8"?> <!-- Generator: Adobe Illustrator 27.7.0, SVG Export Plug-In . SVG Version: 6.00 Build 0) --> <svg width="70" height="70" version="1.1" id="Layer_1" xmlns="http://www.w3.org/2000/svg" xmlns:xlink="http://www.w3.org/1999/xlink" x="0px" y="0px" viewBox="-10 -10 70 70" style="enable-background:new 0 0 50 50;" xml:space="preserve"><rect x="-10" y="-10" width="70" height="70" fill="white"/> <style type="text/css"> .st0{fill:#FFCD00;} .st1{display:none;} .st2{display:inline;fill:none;stroke:#EA008A;stroke-width:0.2;stroke-miterlimit:10;} .st3{font-family:'Roboto-Regular';} .st4{font-size:6px;} </style> <g id="Color"> <path class="st0" d="M15.5,5c-1.9,0-3.4,0.7-4.3,2c-0.9,1.4-1,3.3-0.2,5.2c1.4,3.5,0.6,6.6-0.3,9.5c-0.8,3-1.6,5.7,0,8.7 c3.2,5.7,11.8,6.3,18.3,3.6c0.1-0.1,0.3-0.1,0.4,0c6.5,2.6,16,1.3,19.4,0l-4.3-4.3c-4.9-4.9-11.4-11.4-13-13.1 c-1.3-1.3-2.6-2.2-3.8-2.6c-0.1,0-0.2-0.1-0.2-0.2l-0.1-0.1C24.1,10.1,19.9,5,15.5,5z" stroke-width="0"/> </g> <g id="ICONS_00000031165542127692736420000002692518830807990202_"> <g> <g> <g> <g> <circle cx="11.9" cy="7.4" r="1.2"/> <path d="M48.4,32.3l-4.9-4.9c-4.9-4.9-11.4-11.4-13-13c-1.4-1.4-2.9-2.4-4.3-2.9c0,0,0,0,0-0.1L25.7,11 c-3.1-3.8-7-8.5-11.8-8.5C12.2,2.5,10.7,3,9.7,4C7.1,3.8,3.4,4.4,1.6,6C1.5,6.1,1.4,6.3,1.4,6.4c0,0.1,0.1,0.3,0.2,0.4 c1.9,1.4,4,2.7,6.7,4c0,0,0.1,0,0.1,0c0,0.1,0,0.2,0.1,0.2c1.3,3.2,0.5,6.1-0.3,8.9c-0.9,3-1.8,6.1,0.1,9.4 c1.6,2.9,4.5,4.6,7.8,5.3c0,0.1,0,0.1,0,0.2v9.7l-4.1-1.4c-0.3-0.1-0.5,0-0.6,0.3c-0.1,0.3,0,0.5,0.3,0.6l3.2,1.1l-3.5,0.5 c-0.3,0-0.5,0.3-0.4,0.6c0,0.2,0.2,0.4,0.5,0.4c0,0,0,0,0.1,0l5.3-0.8h1.6c0.3,0,0.5-0.2,0.5-0.5S18.6,45,18.3,45L17,45V34.9 c0,0,0,0,0,0c0.9,0.1,1.9,0.2,2.9,0.2c1.5,0,3.1-0.2,4.6-0.6v10.8l-4.1-1.4c-0.3-0.1-0.5,0-0.6,0.3c-0.1,0.3,0,0.5,0.3,0.6 l3.2,1.1l-3.5,0.5c-0.3,0-0.5,0.3-0.4,0.6c0,0.2,0.2,0.4,0.5,0.4c0,0,0,0,0.1,0l5.3-0.8h1.6c0.3,0,0.5-0.2,0.5-0.5 s-0.2-0.5-0.5-0.5l-1.3,0V34.3c0.7-0.2,1.4-0.4,2.1-0.7c0,0,0.1-0.1,0.1-0.1c2.8,1.1,6.2,1.5,9.3,1.5c5,0,9.6-1,11.3-1.8 c0.1-0.1,0.2-0.2,0.3-0.4S48.5,32.5,48.4,32.3z M8.8,5C8,6.3,7.7,7.9,8,9.5c-2-1-3.7-2-5.2-3.1C4.3,5.4,6.8,4.9,8.8,5 C8.8,5,8.8,5,8.8,5z M9.1,28.9c-1.6-2.9-0.8-5.7,0-8.7c0.9-3,1.7-6.1,0.3-9.5C8.6,8.9,8.7,6.9,9.7,5.5c0.9-1.3,2.4-2,4.3-2 c4.1,0,7.7,4.2,10.7,7.7c-1.6-0.1-3.1,0.3-4.6,1.3c-1.6,1.1-2.6,3.3-2.7,5.9c-0.1,3.7,1.6,9,6.8,13.1c0.7,0.5,1.5,1,2.3,1.4 C20.2,35.2,12,34.2,9.1,28.9z M24.7,30.8c-4.9-3.8-6.5-8.8-6.4-12.3c0.1-2.3,0.9-4.2,2.3-5.1c1.2-0.8,2.3-1.2,3.5-1.2 c1.9,0,3.8,1,5.7,2.9c1.7,1.7,8.1,8.1,13,13.1l4.3,4.3C43.1,34,30.7,35.5,24.7,30.8z" stroke-width="0"/> </g> </g> </g> </g> </g> <g id="Margin" class="st1"> <rect x="1" y="1" class="st2" /> </g> <g id="Guides" class="st1"> </g> <g id="LABELS"> </g> <g id="LABELS_00000000194321607283922340000005129568386498161299_"> <g> <g> <g> <g> <g> </g> </g> </g> </g> </g> </g> </svg> 