<?xml version="1.0" encoding="UTF-8"?><svg width="70" height="70" xmlns="http://www.w3.org/2000/svg" viewBox="-10 -10 70 70"><rect x="-10" y="-10" width="70" height="70" fill="white"/><g id="uuid-59f5ca73-1eec-46ca-bb6c-4957c0d2eb73"><path d="M35.78,24.77c-.74-.17-1.54-.43-2.39-.7-2.09-.67-4.46-1.44-6.43-1.01-1.45,.31-2.67,.75-3.74,1.13-1.84,.65-3.29,1.17-4.85,.75-2.05-.54-3.65-1.25-4.83-1.77-.73-.32-1.62-.71-1.95-.71-.04,0-.07,0-.1,.02,0,0-.12,.11-.11,.75,.18,8.59,6.91,15.33,15.32,15.33s14.98-5.77,15.2-13.78c-.07,.01-.14,.03-.21,.04-1.07,.21-3.05,.61-5.92-.04Z" fill="#ffcd00" stroke-width="0"/><path d="M49.65,2.46c-.08-.16-.24-.26-.42-.27l-5.1-.22c-.19-.02-.36,.09-.45,.25l-4.32,7.35c-1.94-.16-11.91-.99-14.39-1.03-2.47-.04-12.38,.84-14.32,1.02L6.33,2.22c-.09-.16-.26-.26-.45-.25l-5.1,.18c-.18,0-.34,.11-.43,.27-.08,.16-.07,.35,.02,.5L6.98,13.16c-1.1,2.49-1.65,5.14-1.65,7.89,0,9.95,7.35,18.24,17.16,19.46v7.03c0,.13,.05,.26,.15,.36,.09,.09,.22,.14,.35,.14h0l4.86-.06c.27,0,.49-.23,.49-.5v-7.12c9.33-1.63,16.32-9.84,16.32-19.27,0-2.75-.56-5.4-1.65-7.89l6.6-10.24c.1-.15,.11-.34,.02-.5ZM23.49,47.03v-6.45c.48,.03,.96,.07,1.44,.07h0c.81,0,1.62-.06,2.42-.16v6.49l-3.86,.05ZM42.04,12.89c-.09,.14-.11,.32-.03,.48,1.11,2.43,1.67,5.03,1.67,7.72,0,9.07-6.83,16.96-15.88,18.35-1.56,.24-3.2,.28-4.76,.12-9.53-.97-16.71-8.92-16.71-18.51,0-2.69,.56-5.29,1.67-7.72,.07-.15,.06-.34-.03-.48L1.69,3.12l3.92-.14,4.33,7.37c.1,.17,.28,.26,.48,.24,.12-.01,11.86-1.09,14.53-1.05,2.66,.04,14.52,1.04,14.64,1.05,.2,.02,.38-.08,.47-.24l4.33-7.37,3.93,.17-6.28,9.73Z" stroke-width="0"/><path d="M39.75,22.08c-.99,.2-2.84,.57-5.5-.04-.7-.16-1.48-.41-2.31-.68-2.21-.71-4.71-1.52-6.95-1.04-1.51,.33-2.76,.77-3.86,1.16-1.74,.62-3,1.07-4.26,.73-1.97-.52-3.54-1.21-4.68-1.72-1.47-.65-2.36-1.04-3-.61-.51,.34-.56,1.04-.55,1.6,.19,9.14,7.36,16.31,16.32,16.31s16.2-6.54,16.2-15.22c0-.15-.1-.37-.22-.47-.27-.22-.6-.16-1.2-.04Zm-14.79,14.72c-8.41,0-15.14-6.73-15.32-15.33-.01-.64,.11-.75,.11-.75,.02-.01,.06-.02,.1-.02,.33,0,1.22,.39,1.95,.71,1.17,.52,2.78,1.22,4.83,1.77,1.56,.41,3.01-.1,4.85-.75,1.07-.38,2.29-.81,3.74-1.13,1.97-.43,4.34,.34,6.43,1.01,.85,.27,1.65,.53,2.39,.7,2.87,.66,4.85,.26,5.92,.04,.07-.01,.14-.03,.21-.04-.22,8.01-6.54,13.78-15.2,13.78Z" stroke-width="0"/></g><g id="uuid-4873dd3d-0e2f-4fa3-a788-d22ada5d36e5"></g></svg>