<?xml version="1.0" encoding="utf-8"?> <!-- Generator: Adobe Illustrator 27.7.0, SVG Export Plug-In . SVG Version: 6.00 Build 0) --> <svg width="70" height="70" version="1.1" id="Layer_1" xmlns="http://www.w3.org/2000/svg" xmlns:xlink="http://www.w3.org/1999/xlink" x="0px" y="0px" viewBox="-10 -10 70 70" style="enable-background:new 0 0 50 50;" xml:space="preserve"><rect x="-10" y="-10" width="70" height="70" fill="white"/> <style type="text/css"> .st0{fill:#FFCD00;} .st1{display:none;} .st2{display:inline;fill:none;stroke:#EA008A;stroke-width:0.2;stroke-miterlimit:10;} .st3{font-family:'Roboto-Regular';} .st4{font-size:6px;} </style> <g id="Color"> <path class="st0" d="M22.3,28.1c-0.3,0-0.5,0.2-0.5,0.5v4.1c0,0.3,0.2,0.5,0.5,0.5h9c0.3,0,0.5-0.2,0.5-0.5v-4.1 c0-0.3-0.2-0.5-0.5-0.5h-1.1V17.8h1.1c0.3,0,0.5-0.2,0.5-0.5v-4.1c0-0.3-0.2-0.5-0.5-0.5h-9c-0.3,0-0.5,0.2-0.5,0.5v4.1 c0,0.3,0.2,0.5,0.5,0.5h1.1v10.3H22.3z M43,44l-14.1-5.7c-0.1,0-0.3,0-0.4,0L14.4,44V11.6H43V44z" stroke-width="0"/> </g> <g id="ICONS_00000031165542127692736420000002692518830807990202_"> <g> <path d="M22.3,28.1c-0.3,0-0.5,0.2-0.5,0.5v4.1c0,0.3,0.2,0.5,0.5,0.5h9c0.3,0,0.5-0.2,0.5-0.5v-4.1c0-0.3-0.2-0.5-0.5-0.5h-1.1 V17.8h1.1c0.3,0,0.5-0.2,0.5-0.5v-4.1c0-0.3-0.2-0.5-0.5-0.5h-9c-0.3,0-0.5,0.2-0.5,0.5v4.1c0,0.3,0.2,0.5,0.5,0.5h1.1v10.3H22.3z M24,16.8h-1.1v-3.1h8v3.1h-1.1c-0.3,0-0.5,0.2-0.5,0.5v11.3c0,0.3,0.2,0.5,0.5,0.5h1.1v3.1h-8v-3.1H24c0.3,0,0.5-0.2,0.5-0.5 V17.3C24.5,17,24.2,16.8,24,16.8z" stroke-width="0"/> <path d="M46.3,6.7c-1.2,0-2.3,0.9-2.5,2.1H1.7C1.4,8.7,1.2,9,1.2,9.2s0.2,0.5,0.5,0.5h9.8v33.1c0,0.2,0.1,0.3,0.2,0.4 c0.1,0.1,0.3,0.1,0.5,0l14.6-5.9l14.6,5.9c0.1,0,0.1,0,0.2,0c0.1,0,0.2,0,0.3-0.1c0.1-0.1,0.2-0.2,0.2-0.4V9.7h1.7 c0.2,1.2,1.3,2.1,2.5,2.1c1.4,0,2.6-1.1,2.6-2.6S47.7,6.7,46.3,6.7z M41.1,42.1L27,36.3c-0.1,0-0.3,0-0.4,0l-14.1,5.7V9.7h28.6 V42.1z M46.3,10.8c-0.9,0-1.6-0.7-1.6-1.6c0-0.9,0.7-1.6,1.6-1.6s1.6,0.7,1.6,1.6C47.8,10.1,47.2,10.8,46.3,10.8z" stroke-width="0"/> </g> </g> <g id="Margin" class="st1"> <rect x="1" y="1" class="st2" /> </g> <g id="Guides" class="st1"> </g> <g id="LABELS"> </g> <g id="LABELS_00000151526874332217658500000017260086064648097458_"> <g> <g> <g> <g> <g> </g> </g> </g> </g> </g> </g> </svg> 