<?xml version="1.0" encoding="UTF-8"?><svg width="70" height="70" xmlns="http://www.w3.org/2000/svg" viewBox="-10 -10 70 70"><rect x="-10" y="-10" width="70" height="70" fill="white"/><g id="uuid-1d67b476-1a13-4535-9fae-a5c3076c8a90"><path d="M11.18,21.08c1.02-.84,1.83-2.13,2.28-3.63,.45-1.5,.49-3.03,.11-4.29-.36-1.19-1.06-2-1.96-2.27-.22-.07-.45-.1-.69-.1-.72,0-1.48,.31-2.2,.91-1.02,.84-1.83,2.13-2.28,3.63-.92,3.03-.09,5.98,1.85,6.56,.9,.27,1.92-.01,2.88-.81Z" fill="#ffcd00" stroke-width="0"/><path d="M26.55,22.75h-2.83V6.18c0-.28-.22-.5-.5-.5s-.5,.22-.5,.5V23.25c0,.28,.22,.5,.5,.5h3.33c.28,0,.5-.22,.5-.5s-.22-.5-.5-.5Z" stroke-width="0"/><path d="M43.81,14.55c.22-.17,.25-.49,.08-.7-.17-.22-.49-.25-.7-.08l-.42,.34v1.28l1.04-.83Z" fill="none" stroke-width="0"/><path d="M35.41,15.85c0-3.21,2.61-5.82,5.82-5.82,.53,0,1.05,.08,1.54,.21V4.51H21.51V28.3h21.25v-6.84c-.49,.13-1,.21-1.54,.21-3.21,0-5.82-2.61-5.82-5.82Z" fill="#ffcd00" stroke-width="0"/><path d="M41.2,14.64c-.68,0-1.23,.55-1.23,1.23s.55,1.23,1.23,1.23,1.23-.55,1.23-1.23c0-.06-.03-.12-.04-.18l.38-.3v-1.28l-.93,.74c-.19-.12-.4-.21-.64-.21Z" fill="#ffcd00" stroke-width="0"/><path d="M48.05,15.85c0-3.49-2.64-6.38-6.03-6.77V2.26c0-.28-.22-.5-.5-.5H19.26c-.28,0-.5,.22-.5,.5V27.05c0,.28,.22,.5,.5,.5h10.83c-.46,1.8-1.08,3.6-1.87,5.36-4.63,10.31-13.44,16.44-19.64,13.66-2.96-1.33-4.9-4.5-5.46-8.93-.57-4.52,.35-9.78,2.61-14.82,.26-.57,.53-1.13,.81-1.67,.23,.05,.46,.08,.7,.08,.95,0,1.92-.39,2.83-1.14,1.17-.96,2.09-2.43,2.61-4.12s.55-3.42,.11-4.87c-.46-1.52-1.39-2.56-2.62-2.94s-2.58-.02-3.81,.99c-1.17,.96-2.09,2.43-2.61,4.12s-.55,3.42-.11,4.87c.38,1.24,1.06,2.15,1.97,2.65-.27,.53-.53,1.06-.78,1.61-2.33,5.2-3.29,10.65-2.69,15.35,.61,4.79,2.76,8.24,6.05,9.72,1.13,.51,2.33,.75,3.57,.75,6.16,0,13.35-5.91,17.38-14.91,.85-1.89,1.51-3.83,1.99-5.77h10.39c.28,0,.5-.22,.5-.5v-4.43c3.39-.39,6.03-3.28,6.03-6.77ZM4.7,13.57c.45-1.5,1.27-2.79,2.28-3.63,.72-.6,1.48-.91,2.2-.91,.23,0,.46,.03,.69,.1,.9,.27,1.59,1.08,1.96,2.27,.38,1.26,.34,2.79-.11,4.29-.45,1.5-1.27,2.79-2.28,3.63-.96,.79-1.99,1.08-2.88,.81-1.93-.58-2.76-3.53-1.85-6.56Zm30.71,2.28c0-3.21,2.61-5.82,5.82-5.82s5.82,2.61,5.82,5.82-2.61,5.82-5.82,5.82-5.82-2.61-5.82-5.82Zm-4.91,10.7l-.15-.03v.03h-10.59V2.76h21.25v6.29c-3.66,.11-6.6,3.12-6.6,6.81s2.94,6.69,6.6,6.81v3.89h-10.52Z" stroke-width="0"/><path d="M42.42,15.86c0-.06-.03-.12-.04-.18l1.42-1.13c.22-.17,.25-.49,.08-.7-.17-.22-.49-.25-.7-.08l-1.35,1.08c-.19-.12-.4-.21-.64-.21-.68,0-1.23,.55-1.23,1.23s.55,1.23,1.23,1.23,1.23-.55,1.23-1.23Z" stroke-width="0"/></g><g id="uuid-4058f7e5-2a83-4416-a56a-61707c968be3"></g></svg>