<?xml version="1.0" encoding="UTF-8"?><svg width="70" height="70" id="uuid-61556334-cf10-4e54-84b8-105d765345fc" xmlns="http://www.w3.org/2000/svg" viewBox="-10 -10 70 70"><rect x="-10" y="-10" width="70" height="70" fill="white"/><path d="M32.16,28.52c-1.54-.2-3.14-.31-4.74-.31-3.07,0-6.13,.39-8.84,1.12-6.34,1.72-10.28,5.05-10.28,8.7,0,5.41,8.58,9.82,19.12,9.82s19.12-4.4,19.12-9.82c0-4.48-5.91-8.39-14.38-9.51Z" fill="#ffcd00" stroke-width="0"/><path d="M14.99,11.98h0c-2.52,0-4.94,.45-7,1.3-3.25,1.34-5.19,3.5-5.19,5.78,0,3.9,5.47,7.08,12.19,7.08s12.19-3.17,12.19-7.08-5.47-7.08-12.19-7.08Z" fill="#ffcd00" stroke-width="0"/><path d="M42.27,5.11c-.92-.14-1.87-.21-2.82-.21h0c-5.7,0-10.52,2.54-10.52,5.54s4.82,5.54,10.52,5.54,10.52-2.54,10.52-5.54c0-2.47-3.16-4.66-7.69-5.34Z" fill="#ffcd00" stroke-width="0"/><path d="M30.54,25.78c-1.59-.21-3.23-.32-4.87-.32-3.21,0-6.27,.39-9.11,1.16-6.8,1.84-11.02,5.54-11.02,9.66,0,5.96,9.03,10.82,20.12,10.82s20.12-4.85,20.12-10.82c0-4.99-6.27-9.31-15.25-10.5Zm-4.87,20.32c-10.54,0-19.12-4.4-19.12-9.82,0-3.65,3.94-6.98,10.28-8.7,2.71-.73,5.77-1.12,8.84-1.12,1.6,0,3.2,.1,4.74,.31,8.47,1.12,14.38,5.03,14.38,9.51,0,5.41-8.58,9.82-19.12,9.82Z" stroke-width="0"/><path d="M26.43,17.3c0-4.45-5.92-8.08-13.19-8.08h0c-2.65,0-5.2,.47-7.38,1.37C2.22,12.1,.04,14.6,.04,17.3,.04,21.76,5.96,25.38,13.24,25.38s13.19-3.62,13.19-8.08Zm-25.39,0c0-2.28,1.94-4.44,5.19-5.78,2.06-.85,4.48-1.3,7-1.3h0c6.72,0,12.19,3.17,12.19,7.08s-5.47,7.08-12.19,7.08S1.04,21.21,1.04,17.3Z" stroke-width="0"/><path d="M40.71,2.38c-.97-.14-1.96-.22-2.97-.22h0c-6.46,0-11.52,2.87-11.52,6.54s5.06,6.54,11.52,6.54,11.52-2.87,11.52-6.54c0-2.97-3.51-5.58-8.54-6.33Zm-2.98,11.87c-5.7,0-10.52-2.54-10.52-5.54s4.82-5.54,10.52-5.54h0c.95,0,1.9,.07,2.82,.21,4.53,.68,7.69,2.87,7.69,5.34,0,3-4.82,5.54-10.52,5.54Z" stroke-width="0"/><path d="M37.66,34.55c-.28,0-.5,.22-.5,.5,0,2.66-5.26,4.9-11.49,4.9-5.34,0-10.07-1.64-11.24-3.9-.13-.25-.43-.34-.67-.21-.25,.13-.34,.43-.21,.67,1.35,2.62,6.34,4.44,12.12,4.44,7,0,12.49-2.59,12.49-5.9,0-.28-.22-.5-.5-.5Z" stroke-width="0"/><path d="M42.83,8.71c-.96,.91-2.78,1.47-4.75,1.47h0c-2.92,0-5.38-1.25-5.38-2.73,0-.28-.22-.5-.5-.5s-.5,.22-.5,.5c0,2.09,2.8,3.73,6.38,3.73h0c2.25,0,4.28-.65,5.44-1.75,.2-.19,.21-.51,.02-.71-.19-.2-.51-.21-.71-.02Z" stroke-width="0"/><path d="M20.5,18.01c.2-.19,.22-.5,.03-.71-.19-.2-.5-.22-.71-.03-1.34,1.23-3.86,2-6.58,2-2.39,0-4.6-.57-6.04-1.57-.23-.16-.54-.1-.7,.13-.16,.23-.1,.54,.13,.7,1.61,1.11,4.02,1.75,6.61,1.75,3.01,0,5.72-.84,7.26-2.26Z" stroke-width="0"/><path d="M7.91,14.38s.1,0,.15-.02c1.75-.53,3.63-.8,5.61-.8h0c.28,0,.5-.22,.5-.5s-.22-.53-.51-.5c-2.08,0-4.06,.28-5.9,.85-.26,.08-.41,.36-.33,.62,.07,.22,.26,.35,.48,.35Z" stroke-width="0"/><path d="M17.82,32.56s.09,0,.13-.02c2.24-.61,4.66-.97,7.18-1.08,.28-.01,.49-.25,.48-.52s-.25-.5-.52-.48c-2.59,.12-5.08,.49-7.4,1.12-.27,.07-.42,.35-.35,.61,.06,.22,.26,.37,.48,.37Z" stroke-width="0"/><path d="M35.14,6.35h1.52c.28,0,.5-.22,.5-.5s-.22-.5-.5-.5h-1.52c-.28,0-.5,.22-.5,.5s.22,.5,.5,.5Z" stroke-width="0"/></svg>