<?xml version="1.0" encoding="UTF-8"?><svg width="70" height="70" id="uuid-b259934b-1949-4ba6-b0f9-4512b6a69a63" xmlns="http://www.w3.org/2000/svg" viewBox="-10 -10 70 70"><rect x="-10" y="-10" width="70" height="70" fill="white"/><path d="M9.96,10.87v27.02h-1.64c-2.52,0-4.75,1.32-5.98,3.28V16.59c0-3.15,2.56-5.72,5.71-5.72h1.91Z" fill="#ffcd00" stroke-width="0"/><path d="M42.28,2.27l-1.02,4.24c-.14-.05-.28-.09-.43-.13-.17-.04-.34-.07-.52-.1l1.02-4.24,.95,.23Z" fill="#ffcd00" stroke-width="0"/><path d="M37.39,8.75c-.91,.56-1.55,1.44-1.8,2.48-.24,1.01-.08,2.06,.46,2.96,.23,.39,.51,.72,.84,1,.27,.23,.57,.43,.89,.59,.25,.11,.51,.2,.77,.27,.27,.06,.54,.1,.81,.11,0-.01,.08,0,.12,0,.76,0,1.5-.22,2.15-.63,.15-.1,.29-.22,.43-.34,.65-.55,1.12-1.27,1.31-2.1,.52-2.15-.81-4.31-2.95-4.82-1.04-.25-2.11-.08-3.03,.48Zm-2.77,2.24c.31-1.29,1.11-2.39,2.25-3.09s2.48-.92,3.78-.61c2.68,.65,4.34,3.35,3.7,6.03-.17,.69-.48,1.32-.91,1.87-.29,.38-.63,.72-1.02,1-.35,.26-.74,.48-1.16,.64-.2,.07-.33,.27-.32,.48l.66,17.58-.95,1.46-.7-18.72c-.01-.26-.23-.48-.49-.48-.4,0-.78-.04-1.14-.13s-.72-.22-1.07-.4c-.07-.03-.15-.05-.23-.05-.17,0-.34,.09-.43,.26l-9.1,16.37-.18-1.73,8.49-15.28,.05-.1c.1-.18,.08-.42-.07-.57-.09-.11-.17-.22-.25-.33-.92-1.19-1.26-2.73-.91-4.2Z" fill="#ffcd00" stroke-width="0"/><path d="M20.78,25.18c1.62,0,2.95,1.32,2.95,2.94s-1.33,2.95-2.95,2.95-2.95-1.32-2.95-2.95,1.32-2.94,2.95-2.94Z" fill="#ffcd00" stroke-width="0"/><g><path d="M37.56,9.26c-.69,.42-1.17,1.08-1.35,1.86-.18,.75-.06,1.54,.34,2.22,.31,.53,.76,.94,1.3,1.19,.18,.09,.38,.16,.58,.2,.19,.05,.4,.08,.6,.09,.62,.01,1.19-.15,1.7-.48,.67-.42,1.13-1.07,1.31-1.82,.39-1.61-.61-3.23-2.22-3.62-.78-.19-1.58-.06-2.26,.36Zm-2.33,1.63c.25-1.04,.89-1.92,1.8-2.48,.92-.56,1.99-.73,3.03-.48,2.14,.51,3.47,2.67,2.95,4.82-.19,.83-.66,1.55-1.31,2.1-.14,.12-.28,.24-.43,.34-.65,.41-1.39,.63-2.15,.63-.04,0-.12-.01-.12,0-.27-.01-.54-.05-.81-.11-.26-.07-.52-.16-.77-.27-.32-.16-.62-.36-.89-.59-.33-.28-.61-.61-.84-1-.54-.9-.7-1.95-.46-2.96Z" stroke-width="0"/><path d="M33.37,40.36c.28,0,.5,.22,.5,.5s-.22,.5-.5,.5H16.2c-.28,0-.5-.22-.5-.5s.22-.5,.5-.5h17.17Z" stroke-width="0"/><path d="M28.37,37.36c.27,0,.5,.22,.5,.5s-.23,.5-.5,.5h-12.17c-.28,0-.5-.22-.5-.5s.22-.5,.5-.5h12.17Z" stroke-width="0"/><path d="M22.48,27.02c0-1.62-1.33-2.94-2.95-2.94s-2.95,1.32-2.95,2.94,1.32,2.95,2.95,2.95,2.95-1.32,2.95-2.95Zm1,0c0,2.18-1.77,3.95-3.95,3.95s-3.95-1.77-3.95-3.95,1.77-3.94,3.95-3.94,3.95,1.77,3.95,3.94Z" stroke-width="0"/><path d="M43.99,45.04H12.21c-.28,0-.5-.23-.5-.5V20.32c0-.28,.22-.5,.5-.5h12.79c.28,0,.5,.22,.5,.5s-.22,.5-.5,.5H12.71v23.22h30.78v-6.67c0-.1,.03-.2,.08-.28,.09-.13,.25-.22,.42-.22,.28,0,.5,.22,.5,.5v7.17c0,.27-.22,.5-.5,.5Z" stroke-width="0"/><path d="M40.95,6.11l1.02-4.24-.95-.23-1.02,4.24c.18,.03,.35,.06,.52,.1,.15,.04,.29,.08,.43,.13Zm-7.66,17.73l2.31,.55,.32-1.35c.07-.27,.33-.44,.61-.37,.26,.06,.43,.33,.37,.6l-.33,1.35,2.32,.56-.28-7.39c-.3-.02-.6-.07-.88-.14-.29-.07-.57-.16-.85-.27l-3.59,6.46Zm3.22-16.28c-1.14,.7-1.94,1.8-2.25,3.09-.35,1.47-.01,3.01,.91,4.2,.08,.11,.16,.22,.25,.33,.15,.15,.17,.39,.07,.57l-.05,.1-8.49,15.28,.18,1.73,9.1-16.37c.09-.17,.26-.26,.43-.26,.08,0,.16,.02,.23,.05,.35,.18,.71,.31,1.07,.4s.74,.13,1.14,.13c.26,0,.48,.22,.49,.48l.7,18.72,.95-1.46-.66-17.58c-.01-.21,.12-.41,.32-.48,.42-.16,.81-.38,1.16-.64,.39-.28,.73-.62,1.02-1,.43-.55,.74-1.18,.91-1.87,.64-2.68-1.02-5.38-3.7-6.03-1.3-.31-2.64-.09-3.78,.61ZM8.71,36.64V9.62h-1.91c-3.15,0-5.71,2.57-5.71,5.72v24.58c1.23-1.96,3.46-3.28,5.98-3.28h1.64ZM34.29,15.85H9.71v21.29c0,.28-.22,.5-.5,.5h-2.14c-3.21,0-5.89,2.49-5.98,5.54-.05,1.57,.52,3.04,1.61,4.16s2.54,1.74,4.1,1.74H47.8V15.85h-4.25c-.55,.6-1.2,1.09-1.96,1.43l.32,8.62,1.47,.35c.27,.07,.44,.34,.37,.61-.05,.23-.26,.38-.48,.38-.04,0-.08,0-.12-.01l-1.2-.29,.29,7.73c.01,.1-.02,.2-.08,.29l-.56,.86-1.33,2.07c-.09,.14-.25,.22-.42,.22-.04,0-.09,0-.13,0-.21-.06-.36-.25-.37-.47l-.43-11.41-2.58-.62-.32,1.35c-.06,.23-.26,.38-.49,.38-.04,0-.08,0-.12-.01-.27-.06-.43-.33-.37-.6l.33-1.36-2.59-.61-5.55,9.98c-.09,.16-.26,.26-.44,.26-.04,0-.07,0-.1-.01-.21-.04-.37-.22-.39-.44l-.36-3.47c-.01-.1,.01-.2,.06-.29l3.75-6.76-1.25-.3c-.27-.07-.44-.34-.37-.6,.06-.27,.33-.44,.6-.37l1.53,.36,4.03-7.26ZM.09,43.35V15.34c0-3.7,3.01-6.72,6.71-6.72h2.41c.28,0,.5,.23,.5,.5v5.73h24.25c-.78-1.32-1.04-2.91-.67-4.43,.37-1.56,1.33-2.88,2.7-3.71,.92-.57,1.95-.86,3-.89l1.17-4.89c.07-.27,.34-.44,.61-.37l1.92,.46c.13,.03,.24,.11,.31,.22s.09,.25,.06,.38l-1.17,4.88c2.38,1.24,3.72,3.98,3.07,6.71-.14,.59-.37,1.14-.67,1.64h4.01c.28,0,.5,.23,.5,.5V49.58c0,.28-.22,.5-.5,.5H6.8c-1.83,0-3.54-.73-4.82-2.04-1.23-1.27-1.9-2.93-1.89-4.69Z" stroke-width="0"/></g></svg>