<?xml version="1.0" encoding="UTF-8"?><svg width="70" height="70" id="uuid-6046844f-addc-4367-8964-4ef3be58d955" xmlns="http://www.w3.org/2000/svg" viewBox="-10 -10 70 70"><rect x="-10" y="-10" width="70" height="70" fill="white"/><path d="M41.51,19.69V2.84H9.99v15.02l3.03-2.53c.13-.11,.31-.14,.47-.09l4.26,1.31,7.62-6.88c.13-.11,.3-.16,.47-.11l6.17,1.71,6.24-6.18c.2-.19,.51-.19,.71,0,.19,.2,.19,.51,0,.71l-6.45,6.39c-.13,.13-.31,.17-.49,.13l-6.18-1.72-7.63,6.88c-.13,.12-.31,.16-.48,.11l-4.27-1.32-3.46,2.89v.52h10.9c.25-2.05,1.99-3.66,4.11-3.66s3.85,1.6,4.1,3.66h12.4Z" fill="#ffcd00" stroke-width="0"/><path d="M20.9,20.69H9.99v.5h11.01c-.04-.17-.08-.33-.1-.5" fill="#ffcd00" stroke-width="0"/><path d="M42.51,2.84V20.19c0,.27-.23,.5-.5,.5h-12.91c-.02,.17-.07,.33-.1,.5h14.01V2.84h-.5Z" fill="#ffcd00" stroke-width="0"/><polygon points="45.72 49.66 7.28 49.66 9.24 47.02 9.99 46.02 13.49 41.31 14.49 39.97 17.65 35.71 19.5 35.71 20.5 35.71 22.5 35.71 23.5 35.71 29.5 35.71 30.5 35.71 32.5 35.71 33.5 35.71 35.35 35.71 38.51 39.97 39.51 41.31 43.01 46.02 43.75 47.02 45.72 49.66" fill="#ffcd00"/><path d="M7.99,31.44c.98,0,1.93-.35,2.68-.99,.94-.79,1.48-1.95,1.48-3.17,0-2.29-1.87-4.16-4.16-4.16s-4.15,1.87-4.15,4.16c0,1.23,.53,2.38,1.47,3.17,.75,.64,1.7,.99,2.68,.99m0-7.32c1.74,0,3.16,1.42,3.16,3.16,0,.93-.41,1.81-1.12,2.41-1.14,.96-2.93,.96-4.07,0-.72-.6-1.12-1.48-1.12-2.41,0-1.74,1.41-3.16,3.15-3.16" stroke-width="0"/><path d="M42.85,32.44h-1.69c-2.32,.11-4.14,2.02-4.15,4.35l-2.51-3.38c-.09-.12-.24-.2-.4-.2h-2.1v-3.5c0-2.33-1.82-4.25-4.18-4.36h-5.67c-2.33,.11-4.15,2.03-4.15,4.36v3.5h-2.1c-.16,0-.31,.08-.4,.2l-2.51,3.38c0-2.33-1.83-4.24-4.15-4.35h-1.7c-2.32,.12-4.15,2.03-4.15,4.36v8.22c0,.27,.23,.5,.5,.5h3.01l-2.11,2.84c-.12,.15-.13,.35-.05,.52,.09,.17,.26,.28,.45,.28H45.21c.19,0,.36-.11,.45-.28,.08-.17,.07-.37-.05-.52l-2.11-2.84h3.01c.27,0,.5-.23,.5-.5v-8.22c0-2.33-1.83-4.24-4.16-4.36m-23.85-2.73c0-1.8,1.41-3.27,3.18-3.36h5.62c1.79,.09,3.2,1.56,3.2,3.36v3.5h-2v-2.74c0-.27-.22-.5-.5-.5s-.5,.23-.5,.5v2.74h-6v-2.74c0-.27-.22-.5-.5-.5s-.5,.23-.5,.5v2.74h-2v-3.5ZM3.99,44.52v-7.72c0-1.8,1.41-3.27,3.18-3.36,.93,0,1.38,0,1.62-.01h0c1.79,.1,3.2,1.57,3.2,3.37v1.33l-4.75,6.39H3.99Zm40.23,3.64H5.78l1.96-2.64,.74-1,3.5-4.71,1-1.35,3.16-4.25h17.69l3.16,4.25,1,1.35,3.5,4.71,.74,1,1.96,2.64Zm1.79-3.64h-3.25l-4.75-6.39v-1.33c0-1.8,1.41-3.27,3.17-3.36,.94,0,1.39,0,1.63-.01h0c1.79,.1,3.2,1.57,3.2,3.37v7.72Z" stroke-width="0"/><path d="M37.85,27.28c0,1.23,.54,2.38,1.48,3.17,.75,.64,1.7,.99,2.68,.99s1.93-.35,2.68-.99c.94-.79,1.47-1.95,1.47-3.17,0-2.29-1.86-4.16-4.15-4.16s-4.16,1.87-4.16,4.16m7.31,0c0,.93-.4,1.81-1.12,2.41-1.14,.96-2.93,.96-4.07,0-.71-.6-1.12-1.48-1.12-2.41,0-1.74,1.42-3.16,3.16-3.16s3.15,1.42,3.15,3.16" stroke-width="0"/><path d="M7.53,20.36s.03,.06,.05,.09c.01,.02,.01,.04,.03,.06h.01s.08,.08,.13,.11c.01,0,.02,.02,.04,.02,.06,.03,.13,.05,.2,.05h12.91c.12,1.03,.61,1.99,1.42,2.67,.75,.64,1.7,.98,2.68,.98s1.93-.34,2.68-.98c.81-.68,1.3-1.64,1.42-2.67h12.91c.27,0,.5-.23,.5-.5V.84c0-.27-.23-.5-.5-.5H7.99c-.27,0-.5,.23-.5,.5V20.19s.01,.04,.02,.06c0,.04,0,.07,.02,.11m20.57,.33c-.12,.74-.48,1.42-1.06,1.91-1.14,.96-2.94,.96-4.08,0-.58-.49-.94-1.17-1.06-1.91-.03-.17-.06-.33-.06-.5s.03-.34,.05-.5c.25-1.5,1.54-2.66,3.11-2.66s2.86,1.16,3.11,2.66c.02,.16,.05,.33,.05,.5s-.03,.33-.06,.5M8.49,1.34H41.51V19.69h-12.4c-.25-2.06-1.99-3.66-4.11-3.66s-3.85,1.6-4.1,3.66H9.37l4.08-3.41,4.27,1.32c.17,.05,.35,.01,.48-.11l7.63-6.88,6.18,1.72c.17,.05,.36,0,.49-.13l6.45-6.39c.2-.19,.2-.51,0-.71-.19-.2-.51-.2-.71,0l-6.24,6.19-6.17-1.71c-.17-.04-.34,0-.47,.11l-7.62,6.88-4.26-1.31c-.16-.05-.34-.01-.47,.09l-4.53,3.78V1.34Z" stroke-width="0"/></svg>