<?xml version="1.0" encoding="UTF-8"?><svg width="70" height="70" xmlns="http://www.w3.org/2000/svg" viewBox="-10 -10 70 70"><rect x="-10" y="-10" width="70" height="70" fill="white"/><g id="uuid-0ccc6c70-9823-4de7-95e4-d6916a5ba991"><path d="M45.42,11.99c-1.32-1.14-2.98-1.19-5.05-.92-.25,.02-.49-.13-.55-.38-.25-1.08-1.17-4.11-2.35-5.12-1.19-1.02-2.67-1.56-4.21-1.56-.17,0-.33,0-.5,.02-1.73,.13-3.3,.93-4.43,2.24-1.7,1.98-1.57,5.02-.94,7.02,1.64,5.2-10.3,14.92-10.81,15.33-.22,.27-1.55,.89-3.16,.93h-.34c-2.09,.05-4.94,.12-6.55,1.99-2.33,2.71-2.02,6.82,.7,9.15,1.17,1,4.24,1.27,5.32,1.29,.27,0,.49,.22,.49,.49,.04,1.83,.87,3.57,2.26,4.76,2.71,2.33,6.82,2.02,9.15-.7,1.6-1.87,1.23-4.7,.96-6.77l-.04-.34c-.21-1.61,.2-3.01,.49-3.34,.28-.49,8.09-13.75,13.47-12.94,2.07,.32,5.1-.01,6.8-1.99,2.33-2.71,2.02-6.82-.7-9.15Z" fill="#ffcd00" stroke-width="0"/><path d="M44.32,9.48c-1.58-1.35-3.5-1.42-5.39-1.21-.3-1.12-1.19-4.05-2.56-5.22-3.13-2.69-7.87-2.33-10.56,.81-1.97,2.29-1.84,5.73-1.13,7.97,1.19,3.78-7.16,11.57-10.53,14.3-.15,.13-1.17,.63-2.51,.66h-.34c-2.27,.06-5.39,.13-7.28,2.33-2.69,3.13-2.33,7.87,.81,10.56,1.37,1.17,4.34,1.45,5.49,1.51,.17,1.94,1.1,3.75,2.58,5.03,1.41,1.21,3.14,1.8,4.87,1.8,2.11,0,4.21-.88,5.69-2.61,1.89-2.21,1.49-5.3,1.2-7.55l-.04-.33c-.17-1.34,.17-2.42,.31-2.64,2.15-3.69,8.59-13.12,12.5-12.52,2.33,.36,5.74-.04,7.71-2.33,2.69-3.13,2.33-7.87-.81-10.56Zm.05,9.91c-1.7,1.98-4.72,2.31-6.8,1.99-5.38-.82-13.19,12.44-13.47,12.94-.29,.33-.69,1.73-.49,3.34l.04,.34c.27,2.07,.64,4.9-.96,6.77-2.33,2.71-6.43,3.03-9.15,.7-1.39-1.19-2.22-2.93-2.26-4.76,0-.27-.22-.48-.49-.49-1.08-.02-4.15-.28-5.32-1.29-2.71-2.33-3.03-6.43-.7-9.15,1.6-1.87,4.46-1.93,6.55-1.98h.34c1.62-.05,2.94-.66,3.16-.93,.51-.41,12.44-10.14,10.81-15.33-.63-2-.76-5.04,.94-7.02,1.13-1.31,2.7-2.11,4.43-2.24,.17-.01,.34-.02,.5-.02,1.55,0,3.03,.55,4.21,1.56,1.18,1.01,2.09,4.04,2.35,5.12,.06,.25,.3,.41,.55,.38,2.08-.27,3.73-.21,5.05,.92,2.71,2.33,3.03,6.43,.7,9.15Z" stroke-width="0"/></g><g id="uuid-f89364e5-d23a-4812-8c83-9d26bd190051"></g></svg>