<?xml version="1.0" encoding="UTF-8"?><svg width="70" height="70" id="uuid-ca02613e-06b7-4152-a6e1-08f60789852a" xmlns="http://www.w3.org/2000/svg" viewBox="-10 -10 70 70"><rect x="-10" y="-10" width="70" height="70" fill="white"/><path d="M30.02,22.48l.3,2.64c.02,.14-.03,.28-.12,.39-.09,.11-.23,.17-.37,.17h-6.15c-.14,0-.28-.06-.37-.17-.1-.11-.14-.25-.12-.39l.3-2.64H4.26l1.78,15.54h15.65l1-8.69c.03-.25,.24-.44,.5-.44h7.12c.25,0,.47,.19,.5,.44l1,8.69h15.65l1.78-15.54H30.02Zm-20.71,4.62c0,.82-.67,1.5-1.5,1.5s-1.5-.67-1.5-1.5v-3.1h2.99v3.1Zm8.61,0c0,.82-.67,1.5-1.5,1.5s-1.5-.67-1.5-1.5v-3.1h2.99v3.1Zm17.15,0c0,.82-.67,1.5-1.5,1.5s-1.5-.67-1.5-1.5v-3.1h2.99v3.1Zm8.61,0c0,.82-.67,1.5-1.5,1.5s-1.5-.67-1.5-1.5v-3.1h2.99v3.1Z" fill="#ffcd00" stroke-width="0"/><path d="M48.56,17.01h-.43c-.25-1.81-1.79-3.21-3.66-3.21h-13.17c-1.88,0-3.42,1.4-3.66,3.21h-.43c-.28,0-.5,.22-.5,.5v2.72c0,.28,.22,.5,.5,.5h.06l.25,2.2h-5.03l.25-2.2h.06c.28,0,.5-.22,.5-.5v-2.72c0-.28-.22-.5-.5-.5h-.43c-.25-1.81-1.79-3.21-3.66-3.21H5.53c-1.88,0-3.42,1.4-3.66,3.21h-.43c-.28,0-.5,.22-.5,.5v2.72c0,.28,.22,.5,.5,.5h.06l1.85,16.1c.03,.25,.24,.44,.5,.44H20.39c.25,0,.47-.19,.5-.44l1-8.69h6.23l1,8.69c.03,.25,.24,.44,.5,.44h16.54c.25,0,.47-.19,.5-.44l1.85-16.1h.06c.28,0,.5-.22,.5-.5v-2.72c0-.28-.22-.5-.5-.5Zm-18.5,19.26l-1.78-15.54h4.81v2.27h-1.5c-.28,0-.5,.22-.5,.5v3.6c0,1.38,1.12,2.5,2.5,2.5s2.5-1.12,2.5-2.5v-3.6c0-.28-.22-.5-.5-.5h-1.5v-2.27h7.61v2.27h-1.5c-.28,0-.5,.22-.5,.5v3.6c0,1.38,1.12,2.5,2.5,2.5s2.5-1.12,2.5-2.5v-3.6c0-.28-.22-.5-.5-.5h-1.5v-2.27h4.81l-1.78,15.54h-15.65Zm-2.35-16.54v-1.72h5.37v1.72h-5.37Zm13.98-1.72v1.72h-7.61v-1.72h7.61Zm-9.6,9.09v-3.1h2.99v3.1c0,.82-.67,1.5-1.5,1.5s-1.5-.67-1.5-1.5Zm11.6-3.1v3.1c0,.82-.67,1.5-1.5,1.5s-1.5-.67-1.5-1.5v-3.1h2.99Zm-1-4.27v-1.72h5.37v1.72h-5.37Zm-11.39-4.93h13.17c1.33,0,2.43,.96,2.67,2.21H28.62c.23-1.26,1.34-2.21,2.67-2.21ZM4.3,36.27l-1.78-15.54H7.32v2.27h-1.5c-.28,0-.5,.22-.5,.5v3.6c0,1.38,1.12,2.5,2.5,2.5s2.5-1.12,2.5-2.5v-3.6c0-.28-.22-.5-.5-.5h-1.5v-2.27h7.61v2.27h-1.5c-.28,0-.5,.22-.5,.5v3.6c0,1.38,1.12,2.5,2.5,2.5s2.5-1.12,2.5-2.5v-3.6c0-.28-.22-.5-.5-.5h-1.5v-2.27h4.81l-1.78,15.54H4.3ZM1.94,19.73v-1.72H7.32v1.72H1.94Zm13.98-1.72v1.72h-7.61v-1.72h7.61Zm6,0h.37v1.72h-5.37v-1.72h5Zm-12.61,5.99v3.1c0,.82-.67,1.5-1.5,1.5s-1.5-.67-1.5-1.5v-3.1h2.99Zm8.61,0v3.1c0,.82-.67,1.5-1.5,1.5s-1.5-.67-1.5-1.5v-3.1h2.99ZM5.53,14.8h13.18c1.33,0,2.43,.96,2.67,2.21H2.87c.24-1.26,1.34-2.21,2.67-2.21Zm16.47,12.34l.37-3.21h5.26l.37,3.21h-6Z" stroke-width="0"/></svg>