<?xml version="1.0" encoding="UTF-8"?><svg width="70" height="70" xmlns="http://www.w3.org/2000/svg" viewBox="-10 -10 70 70"><rect x="-10" y="-10" width="70" height="70" fill="white"/><g id="uuid-d46197a1-96cb-4350-ac2d-f1dc5e0c0b18"><g><g><path d="M31.18,5.64c2.4,14.76,4.79,29.52,7.19,44.29,3.55-.58,7.11-1.15,10.66-1.73-2.4-14.76-4.79-29.52-7.19-44.29-3.55,.58-7.11,1.15-10.66,1.73Z" fill="#ffcd00" stroke-width="0"/><rect x="3.48" y="2.57" width="10.8" height="47.26" fill="#ffcd00"/><rect x="22.52" y="3.24" width="7.33" height="46.59" fill="#ffcd00"/></g><g><path d="M41.24,1.76c-.02-.13-.09-.25-.2-.33-.11-.08-.24-.11-.37-.09l-11.32,1.84V1.24c0-.28-.22-.5-.5-.5h-8.33c-.28,0-.5,.22-.5,.5V3.5h-6.24V.57c0-.28-.22-.5-.5-.5H1.48C1.2,.07,.98,.3,.98,.57V48.83c0,.28,.22,.5,.5,.5H28.85c.28,0,.5-.22,.5-.5V8.35l.17,1.08h0l5.49,33.82h0l.95,5.84c.02,.13,.09,.25,.2,.33,.08,.06,.19,.09,.29,.09,.03,0,.05,0,.08,0l11.64-1.89c.27-.04,.46-.3,.41-.57L41.24,1.76Zm-10.65,8l10.66-1.73,5.33,32.84-10.66,1.73L30.59,9.76Zm9.75-7.34l.75,4.63-10.66,1.73-.75-4.63,10.66-1.73ZM1.98,6.16H12.77V43.53H1.98V6.16Zm11.8,2.52h6.24V44.13h-6.24V8.68Zm7.24-1.82h7.33V42.94h-7.33V6.85Zm0-5.11h7.33V5.85h-7.33V1.74Zm-1,2.76v3.17h-6.24v-3.17h6.24ZM12.77,1.07V5.16H1.98V1.07H12.77ZM1.98,44.53H12.77v3.8H1.98v-3.8Zm11.8,.6h6.24v3.2h-6.24v-3.2Zm7.24,3.2v-4.4h7.33v4.4h-7.33Zm15.85,.1l-.79-4.85,10.66-1.73,.79,4.85-10.66,1.73Z" stroke-width="0"/><g><path d="M7.23,12.73c-.28,0-.5,.22-.5,.5v22.95c0,.28,.22,.5,.5,.5s.5-.22,.5-.5V13.23c0-.28-.22-.5-.5-.5Z" stroke-width="0"/><path d="M16.9,18.31c-.28,0-.5,.22-.5,.5v15.27c0,.28,.22,.5,.5,.5s.5-.22,.5-.5v-15.27c0-.28-.22-.5-.5-.5Z" stroke-width="0"/><path d="M24.68,14.83c-.28,0-.5,.22-.5,.5v18.74c0,.28,.22,.5,.5,.5s.5-.22,.5-.5V15.33c0-.28-.22-.5-.5-.5Z" stroke-width="0"/><path d="M37.64,16.38c-.04-.27-.31-.46-.57-.41-.27,.04-.46,.3-.41,.57l2.86,17.63c.04,.25,.25,.42,.49,.42,.03,0,.05,0,.08,0,.27-.04,.46-.3,.41-.57l-2.86-17.63Z" stroke-width="0"/></g></g></g></g><g id="uuid-df4f034b-327c-4091-bcf4-bc13796d4c70"></g></svg>