<?xml version="1.0" encoding="UTF-8"?><svg width="70" height="70" id="uuid-54182777-526c-456d-bd21-3d83354b7ff3" xmlns="http://www.w3.org/2000/svg" viewBox="-10 -10 70 70"><rect x="-10" y="-10" width="70" height="70" fill="white"/><path d="M36.98,24.36c-.16,0-.31-.1-.4-.24-1.41-2.29-3.85-3.66-6.52-3.66s-5.11,1.37-6.52,3.66c-.09,.14-.23,.23-.4,.24-3.77,.21-6.83,2.9-7.65,6.42h29.14c-.83-3.53-3.89-6.21-7.65-6.42Z" fill="#ffcd00" stroke-width="0"/><path d="M45.11,31.29c0-.28-.22-.5-.5-.5h-.5c-.08-4.82-3.82-8.76-8.56-9.16-1.55-2.35-4.21-3.91-7.23-3.91-2.29,0-4.37,.9-5.92,2.36L15.89,.89c-.04-.13-.14-.23-.26-.29-.12-.06-.26-.06-.39-.02l-2.4,.9c-.13,.05-.23,.14-.28,.27-.05,.12-.06,.27,0,.39l7.51,18.27L7.75,4.77c-.08-.11-.21-.17-.34-.19-.13-.01-.27,.03-.37,.11l-1.96,1.65c-.1,.09-.17,.21-.18,.35,0,.14,.04,.27,.13,.37l13.55,15.14c-3.49,1.32-5.99,4.66-6.05,8.59h-.5c-.28,0-.5,.22-.5,.5,0,5.9,3.06,11.08,7.67,14.08-.13,.09-.23,.24-.23,.41v3.17c0,.28,.22,.5,.5,.5h17.7c.28,0,.5-.22,.5-.5v-3.17c0-.17-.09-.32-.23-.41,4.61-3,7.67-8.18,7.67-14.08Zm-2-.5h-2.02c-.08-3.42-2.88-6.18-6.32-6.18s-6.24,2.76-6.32,6.18h-2.02c.08-4.53,3.79-8.2,8.34-8.2s8.26,3.66,8.34,8.2Zm-8.34-3.15c-1.77,0-3.2,1.4-3.28,3.15h-2.03c.08-2.87,2.43-5.18,5.31-5.18s5.23,2.31,5.31,5.18h-2.03c-.08-1.75-1.52-3.15-3.28-3.15Zm2.28,3.15h-4.57c.08-1.2,1.07-2.15,2.28-2.15s2.2,.95,2.28,2.15Zm-8.73-7.49c-.31,0-.6,.06-.88,.14-.58-.43-1.2-.8-1.86-1.09,.78-.54,1.73-.85,2.74-.85s1.96,.32,2.74,.85c-.67,.29-1.29,.66-1.86,1.09-.28-.09-.57-.14-.88-.14Zm0-4.58c2.42,0,4.58,1.13,5.98,2.89-.73,.04-1.45,.15-2.13,.35-1.03-.9-2.38-1.46-3.86-1.46s-2.82,.55-3.86,1.46c-.68-.2-1.39-.31-2.13-.35,1.4-1.76,3.56-2.89,5.98-2.89ZM13.67,2.23l1.43-.54,6.5,19.21c-.06,.07-.11,.16-.17,.23L13.67,2.23ZM6.11,6.78l1.17-.98,12.6,16.01c-.09,.02-.18,.05-.26,.07L6.11,6.78Zm15.75,15.81c2.23,0,4.26,.89,5.76,2.32-.44,.52-.83,1.1-1.15,1.71-1.16-1.23-2.79-2.01-4.61-2.01-3.44,0-6.24,2.76-6.32,6.18h-2.02c.08-4.53,3.79-8.2,8.34-8.2Zm0,5.05c-1.77,0-3.2,1.4-3.28,3.15h-2.03c.08-2.87,2.43-5.18,5.31-5.18,1.69,0,3.18,.81,4.16,2.04-.37,.98-.58,2.04-.6,3.14h-.27c-.08-1.75-1.52-3.15-3.28-3.15Zm2.28,3.15h-4.56c.08-1.2,1.07-2.15,2.28-2.15s2.2,.95,2.28,2.15Zm12.52,17.67H19.96v-2.17h16.7v2.17Zm-1.03-3.17h-14.63c-4.9-2.57-8.29-7.63-8.47-13.49h31.57c-.18,5.86-3.58,10.92-8.47,13.49Z" stroke-width="0"/></svg>