<?xml version="1.0" encoding="UTF-8"?><svg width="70" height="70" xmlns="http://www.w3.org/2000/svg" viewBox="-10 -10 70 70"><rect x="-10" y="-10" width="70" height="70" fill="white"/><g id="uuid-88af027f-9895-49c8-8e11-489b07a4f4c5"><polygon points="49.46 13.54 33.94 5.85 28.41 8.54 44.3 16.2 49.46 13.54" fill="#ffcd00"/><path d="M44.31,17.32l-16.35,8.43c-.41,.17-.82,.34-1.23,.51-.31-.17-.62-.35-.94-.52-.2,.1-.4,.21-.6,.31h0l.6-.31-15.7-8.28-6.29,3.07,5.27,2.69,.33,.17v1.2h.02v15.08l16.87,8.24c.16,.09,.32,.18,.48,.28,.17-.09,.35-.19,.52-.28l16.81-8.32v-13.6c.01-1,.03-2,.04-2.99l.18-.1,5.4-2.96-5.41-2.61Z" fill="#ffcd00" stroke-width="0"/><polygon points="24.58 7.81 19.5 5.36 4 13.12 10.12 16.34 10.93 15.94 9.47 15.17 24.58 7.81" fill="#ffcd00"/><path d="M49.28,17.7l-5.6-2.7,5.37-2.77c.17-.09,.27-.26,.27-.45s-.11-.36-.28-.44L32.42,3.1c-.14-.07-.3-.07-.44,0l-6.46,3.15-7.55-3.64c-.14-.07-.3-.07-.44,0L.93,10.91c-.17,.08-.27,.25-.28,.44s.1,.36,.27,.45l6.33,3.34L.72,18.32c-.17,.08-.28,.26-.28,.45,0,.19,.1,.36,.27,.45l5.97,3.05s-.01,.05-.01,.08v15.88c0,.19,.11,.37,.28,.45l17.87,8.73h.01c.06,.03,.13,.05,.21,.05s.14-.02,.21-.05h.01l17.81-8.81c.17-.08,.28-.26,.28-.45V21.85l5.95-3.26c.16-.09,.26-.26,.26-.45,0-.19-.11-.36-.28-.44ZM32.19,4.1l15.52,7.69-5.16,2.66-15.89-7.66,5.53-2.69Zm-7.05,19.33L9.47,15.17,25.52,7.35l15.92,7.68-16.3,8.4ZM2.25,11.37L17.75,3.61l6.62,3.19L8.37,14.59l-6.12-3.23Zm6.1,4.35l15.7,8.28-5.86,3.02-10.87-5.54-5.27-2.69,6.29-3.07Zm-.68,7.05l10.3,5.25c.14,.07,.31,.07,.46,0l6.12-3.15v21.29L7.67,37.91v-15.15Zm34.68,15.06l-16.81,8.32V24.77l6.11,3.22c.15,.08,.33,.08,.47,0l10.23-5.6v15.43Zm.22-16.69l-10.69,5.85-5.67-2.99,16.35-8.43,5.41,2.61-5.4,2.96Z" stroke-width="0"/></g><g id="uuid-7a7dcde1-259a-44bf-8d75-3fcf6bab6ff5"></g></svg>