<?xml version="1.0" encoding="UTF-8"?><svg width="70" height="70" id="uuid-6a8a9b7b-0703-4538-8cfc-bc0ca2837b11" xmlns="http://www.w3.org/2000/svg" viewBox="-10 -10 70 70"><rect x="-10" y="-10" width="70" height="70" fill="white"/><g id="uuid-8ef79049-cfab-4565-b221-f35a7ff8081e"><g><path d="M44.8,32.74s-.03,0-.05,0l-.87,.07c-.14,.01-.28-.04-.38-.13-.1-.09-.16-.23-.16-.37l.02-6.76h-10.74c-.28,0-.5-.22-.5-.5v-3.36c-.17-.08-.29-.25-.29-.45-.02-2.89-2.37-5.2-5.34-5.26h-.11c-2.99,0-5.43,2.36-5.45,5.26,0,.2-.12,.37-.29,.45v3.36c0,.28-.22,.5-.5,.5H9.39v.57h8.49v.99H9.39v5.21c0,.14-.06,.27-.16,.37-.1,.09-.24,.14-.38,.13l-.85-.07s-.03,0-.05,0H3.04v1.95h2.75v6.09H3.04v1.91H49.71v-9.95h-4.92ZM10.07,40.78h-3.28v-6.04l3.28,.27v5.78Zm7.81,0h-6.81v-5.74h6.81v5.74Zm6.56-17.84c1.01,0,2.01,.09,3,.24l-1.14,1.07h-3.35l-1.14-1.08c.87-.13,1.75-.23,2.63-.23Zm3.59,1.06v4.76l-1.03-1.34v-2.44l1.03-.97Zm-2.03,1.25v1.83h-2.75v-1.83h2.75Zm-4.78-1.25l1.03,.97v2.44l-1.03,1.34v-4.76Zm0,16.79h-2.34v-5.81l1.91-.29h.43v6.09Zm2.76,0h-1.76v-6.1h1.76v6.1Zm2.76,0h-1.76v-6.1h1.76v6.1Zm-5.1-10.95l1.35-1.76h3.25l1.35,1.76h-5.96Zm8.73,10.95h-2.62v-6.1h.71l1.92,.29v5.81Zm1-14.65h10.23v.99h-10.23v-.99Zm6.81,14.65h-6.81v-5.74h6.81v5.74Zm4.28,0h-3.28v-5.78l3.28-.27v6.04Zm5.5,0h-4.5v-6.09h4.5v6.09Z" fill="#ffcd00" stroke-width="0"/><path d="M48.46,29.84h-5.5s-.03,0-.05,.01l-.32,.03v-2.21s.02-.03,.02-.05,0-.03-.01-.05v-1.9s.01-.02,.01-.03,0-.02,0-.03v-2.44c0-.13-.05-.26-.14-.35-.09-.09-.22-.15-.35-.15h-10.74v-3.28c0-.21-.13-.38-.32-.46-.23-3.1-2.76-5.58-5.93-5.82V7.81c0-.28-.22-.5-.5-.5s-.5,.22-.5,.5v5.3c-3.17,.24-5.7,2.72-5.93,5.82-.19,.07-.32,.25-.32,.46v3.28H7.14c-.28,0-.5,.22-.5,.5v6.71l-.3-.02s-.03-.01-.05-.01H.79c-.28,0-.5,.22-.5,.5v10.95c0,.28,.22,.5,.5,.5H48.46c.28,0,.5-.22,.5-.5v-10.95c0-.28-.22-.5-.5-.5Zm-.5,3.86h-4.5v-2.86h4.5v2.86ZM7.64,26.13h10.24v.99H7.64v-.99ZM24.59,14.38c1.34,1.29,1.64,3.09,1.69,4.12-.46-.02-.93-.05-1.39-.06-.66,0-1.32,0-1.98,.03,.06-1.04,.36-2.81,1.68-4.1Zm-5.72,5.44c1.99-.26,4-.38,6-.37,1.83,.01,3.67,.14,5.49,.37v10.3l-1.34-.2v-7.07s0-.03,0-.05c0-.03,0-.06-.02-.09,0-.02,0-.03-.01-.05,0-.02-.02-.03-.03-.05-.01-.03-.03-.05-.05-.07,0-.01-.01-.02-.02-.04h0s-.03-.03-.04-.04c-.02-.02-.05-.04-.08-.05-.01,0-.03-.02-.04-.03-.02,0-.03,0-.05-.01-.02,0-.03-.02-.04-.02-1.38-.29-2.79-.42-4.2-.41-1.28,.01-2.56,.15-3.81,.41-.02,0-.03,.01-.04,.02-.02,0-.04,0-.05,.01-.02,0-.03,.02-.04,.03-.03,.02-.05,.03-.08,.05-.01,.01-.03,.02-.04,.03h0s-.01,.03-.02,.04c-.02,.02-.03,.05-.05,.07,0,.02-.02,.03-.03,.05,0,.02,0,.03-.01,.05,0,.03-.01,.06-.02,.09,0,.02,0,.03,0,.05v7.07l-1.34,.2v-10.3Zm22.72,7.3h-10.23v-.99h10.23v.99Zm.86,13.67h-3.28v-5.78l3.28-.27v6.04Zm-20.74-7.1h-.5v-2.85h6.81v2.85h-6.31Zm-11.66,.32h-.15l-3.13-.27v-2.85l3.28,.27v2.85Zm-3.28,.73l3.28,.27v5.78h-3.28v-6.04Zm4.28-3.54h6.81v2.85h-6.81v-2.85Zm31.39-.31v2.85l-3.13,.26h-.15v-2.83l3.28-.27Zm-4.28,3.16h-6.81v-2.85h6.81v2.85Zm-19.3-.08v-2.84l1.34-.2v2.84l-1.34,.2Zm2.93-10.79c.87-.13,1.75-.23,2.63-.23,1.01,0,2.01,.09,3,.24l-1.14,1.07h-3.35l-1.14-1.08Zm1.45,2.08h2.75v1.83h-2.75v-1.83Zm-.25,2.83h3.25l1.35,1.76h-5.96l1.35-1.76Zm6.03,2.85l1.34,.2v2.84l-1.34-.2v-2.84Zm-2.03-3.52v-2.44l1.03-.97v4.76l-1.03-1.34Zm-4.75-2.44v2.44l-1.03,1.34v-4.76l1.03,.97Zm-3.37,10.01l1.91-.29h.43v6.09h-2.34v-5.81Zm9.57-.29h0l1.92,.29v5.81h-2.62v-6.1h.7Zm2.92,.36h6.81v5.74h-6.81v-5.74Zm7.29-4.85h-7.29v-2.08h10.23v1.84l-2.94,.24Zm2.95-6.54v1.47h-10.24v-1.47h10.24Zm-11.57-4.87c-.91-.11-1.83-.2-2.75-.25-.04-1.05-.29-2.83-1.49-4.32,2.25,.48,3.98,2.31,4.24,4.57Zm-6.66-4.55c-1.17,1.48-1.43,3.24-1.47,4.29-.9,.05-1.8,.14-2.69,.25,.26-2.23,1.96-4.03,4.16-4.54Zm-5.5,9.42v1.47H7.64v-1.47h10.24Zm-10.24,4.46h10.24v2.08h-7.29l-2.95-.24v-1.84Zm-1.85,2.72v2.86H1.29v-2.86H5.79Zm-4.5,3.86H5.79v6.09H1.29v-6.09Zm9.78,.35h6.81v5.74h-6.81v-5.74Zm11.16-.36h1.76v6.1h-1.76v-6.1Zm2.76,6.1v-6.1h1.76v6.1h-1.76Zm18.47,0v-6.09h4.5v6.09h-4.5Z" stroke-width="0"/></g></g></svg>