<?xml version="1.0" encoding="UTF-8"?><svg width="70" height="70" xmlns="http://www.w3.org/2000/svg" viewBox="-10 -10 70 70"><rect x="-10" y="-10" width="70" height="70" fill="white"/><g id="uuid-0feb85aa-8ec2-4945-b319-c861f7858870"><polygon points="20.27 20.27 20.27 30.45 22.48 30.45 22.48 20.27 21.37 18.84 20.27 20.27" fill="none"/><polygon points="27.7 20.28 27.7 30.45 29.9 30.45 29.9 20.28 28.8 18.86 27.7 20.28" fill="none"/><path d="M43.32,42.42c-.28,0-.5-.22-.5-.5v-10l-2.77-1.54c-.16-.09-.26-.26-.26-.44V12.92h-4.25V48h-2.49V12.92H16.93V48h-2.49V12.92h-.75V29.97c0,.18-.1,.35-.26,.44l-2.77,1.54v10c0,.28-.22,.5-.5,.5h-1.66v6.89H26.19s.08-.01,.12-.01h18.68v-6.89h-1.66Zm-22.11,1.9h-.59v-7.17l.29-.25,.3,.25v7.17Zm1.26-13.87h-2.21v-10.18l1.1-1.43,1.1,1.43v10.18Zm2.82,13.87h-.59v-7.17l.29-.25,.3,.25v7.16Zm4.09,0h-.59v-7.17l.29-.25,.3,.25v7.17Zm.52-13.87h-2.21v-10.17l1.1-1.43,1.1,1.43v10.17Z" fill="#ffcd00" stroke-width="0"/><path d="M43.74,39.67h-1.66v-9.79c0-.18-.1-.35-.26-.44l-2.77-1.53V10.67c0-.28-.22-.5-.5-.5h-2.01v-3.99c0-.12-.04-.23-.12-.33l-1.63-1.91V1.92c0-.28-.22-.5-.5-.5s-.5,.22-.5,.5V3.96l-1.62,1.9c-.08,.09-.12,.21-.12,.33v3.99h-6.45v-1.78c0-.28-.22-.5-.5-.5s-.5,.22-.5,.5v1.78h-6.67v-4c0-.12-.04-.23-.12-.33l-1.61-1.88V1.94c0-.28-.22-.5-.5-.5s-.5,.22-.5,.5v1.99l-1.65,1.93c-.08,.09-.12,.21-.12,.33v4h-1.99c-.28,0-.5,.22-.5,.5V27.92l-2.77,1.53c-.16,.09-.26,.26-.26,.44v9.79h-1.66c-.28,0-.5,.22-.5,.5v7.89c0,.28,.22,.5,.5,.5h5.49s.05,.02,.08,.02h25.3c.06,0,.11-.02,.16-.03h6.46c.28,0,.5-.22,.5-.5v-7.89c0-.28-.22-.5-.5-.5Zm-5.69-28.5V28.2c0,.18,.09,.35,.25,.44l2.77,1.54v9.52h-4.54V11.17h1.51ZM14.44,48V6.36l1.25-1.46,1.25,1.46V48h-2.49Zm8.04-17.55h-2.21v-10.18l1.1-1.43,1.1,1.43v10.18Zm9.57,1v2.49h-14.12v-2.49h14.12Zm-2.15-1h-2.21v-10.17l1.1-1.43,1.1,1.43v10.17Zm-.52,13.87h-.59v-7.17l.29-.25,.3,.25v7.17Zm.82-7.79l-.8-.66c-.19-.15-.46-.15-.64,0l-.79,.66c-.11,.09-.18,.23-.18,.38v7.4h-1.5v-7.4c0-.15-.07-.29-.18-.38l-.8-.66c-.19-.15-.46-.15-.64,0l-.79,.66c-.11,.09-.18,.23-.18,.38v7.4h-1.49v-7.4c0-.15-.07-.29-.18-.38l-.8-.66c-.19-.15-.46-.15-.64,0l-.79,.66c-.11,.09-.18,.23-.18,.38v7.4h-1.69v-9.38h14.12v9.38h-1.67v-7.4c0-.15-.07-.29-.18-.38Zm-4.91,7.79h-.59v-7.17l.29-.25,.3,.25v7.16Zm-4.08,0h-.59v-7.17l.29-.25,.3,.25v7.17Zm-3.28,1h14.12v2.24h-14.12v-2.24Zm14.12-14.87h-1.2v-10.33c0-.1-.04-.21-.1-.29l-1.58-2.04c-.18-.23-.57-.23-.75,0l-1.58,2.04c-.06,.08-.1,.19-.1,.29v10.33h-1.14V14.13h6.45V30.45Zm-7.45,0h-1.18v-10.34c0-.1-.04-.21-.1-.29l-1.58-2.04c-.18-.23-.57-.23-.75,0l-1.58,2.04c-.06,.08-.1,.19-.1,.29v10.34h-1.39V14.13h6.67V30.45Zm8.45,17.55V6.36l1.25-1.46,1.25,1.46V48h-2.49Zm-1-36.83v1.92h-6.45v-1.92h6.45Zm-7.45,0v1.92h-6.67v-1.92h6.67ZM11.69,28.66c.16-.09,.26-.26,.26-.44V11.17h1.49v28.54h-4.52v-9.52l2.77-1.54Zm-4.94,12.03h1.58s.06,.02,.1,.02h5v6.85h-1.61s-.06,.01-.08,.02H6.75v-6.89Zm36.49,6.87h-6.7v-6.87h5.04s.07-.01,.1-.02h1.56v6.89Z" stroke-width="0"/></g><g id="uuid-ff41aa5e-c296-4708-b368-d2137dbb63f4"></g></svg>