<?xml version="1.0" encoding="UTF-8"?><svg width="70" height="70" xmlns="http://www.w3.org/2000/svg" viewBox="-10 -10 70 70"><rect x="-10" y="-10" width="70" height="70" fill="white"/><g id="uuid-ce544276-9eaf-42e6-a470-6315c18722ae"><g><g><path d="M15.13,9.2c0,.15-.06,.34-.18,.44-.12,.1-.27,.19-.42,.16-.37-.06-.68-.08-.98-.08-3.53,0-6.4,2.87-6.4,6.4,0,1.65,.63,3.22,1.78,4.42,.12,.13,.17,.31,.13,.48-.04,.17-.16,.31-.32,.38-2.48,.97-4.08,3.31-4.08,5.96,0,2.96,2.01,5.51,4.88,6.21,.18,.04,.32,.18,.38,.35,.06,.18,.01,.37-.11,.5-1.04,1.17-1.61,2.68-1.61,4.23,0,3.42,2.68,6.22,6.09,6.39,.2,0,.37,.13,.45,.31,1.21,2.66,3.87,4.37,6.78,4.37,.9,0,1.79-.16,2.63-.48V3.37c-.83-.38-1.71-.57-2.63-.57-3.53,0-6.4,2.87-6.4,6.4Z" fill="#ffcd00" stroke-width="0"/><path d="M43.79,21.36c-.16-.06-.28-.21-.32-.38-.04-.17,.01-.35,.13-.48,1.15-1.2,1.78-2.77,1.78-4.43,0-3.54-2.88-6.41-6.41-6.41-.3,0-.61,.03-.98,.08-.15,.03-.31-.02-.42-.12-.12-.1-.18-.25-.18-.4,0-3.63-2.87-6.5-6.41-6.5-.92,0-1.8,.19-2.63,.57V49.26c.84,.32,1.73,.48,2.63,.48,2.91,0,5.58-1.72,6.79-4.38,.08-.18,.26-.3,.45-.31,3.42-.17,6.1-2.97,6.1-6.4,0-1.56-.57-3.06-1.61-4.24-.12-.14-.16-.33-.11-.5,.05-.18,.2-.31,.38-.35,2.88-.7,4.89-3.26,4.89-6.22,0-2.66-1.6-5-4.09-5.97Z" fill="#ffcd00" stroke-width="0"/></g><g><path d="M23.39,1.12c-1.06-.54-2.2-.82-3.38-.82-3.91,0-7.12,3.03-7.4,6.95-.2-.02-.39-.03-.58-.03-4.09,0-7.42,3.33-7.42,7.42,0,1.68,.56,3.29,1.6,4.6-2.51,1.25-4.09,3.78-4.09,6.63,0,3.17,1.99,5.94,4.93,6.98-.9,1.26-1.39,2.76-1.39,4.31,0,3.86,2.95,7.05,6.76,7.38,1.43,2.86,4.37,4.7,7.58,4.7,1.16,0,2.29-.23,3.35-.69,.18-.08,.3-.26,.3-.46V1.57c0-.19-.1-.36-.27-.45Zm-3.38,47.12c-2.9,0-5.56-1.71-6.78-4.34-.12-.5-.25-1.43,.19-2.39,.56-1.23,1.84-2.04,3.35-2.15,.02,.04,.04,.08,.07,.12,.59,.89,1.53,1.12,1.91,1.18,.03,0,.05,0,.08,0,.24,0,.46-.18,.49-.42,.04-.27-.14-.53-.42-.57-.19-.03-.85-.17-1.23-.74-.42-.63-.36-1.52,.16-2.22,.17-.22,.12-.54-.1-.7-.22-.16-.54-.12-.7,.1-.51,.69-.71,1.52-.59,2.29-1.76,.21-3.24,1.21-3.92,2.69-.41,.89-.44,1.76-.36,2.41-3.12-.46-5.48-3.13-5.48-6.34,0-1.48,.53-2.89,1.46-4.04,.26,.04,.54,.06,.86,.06,.66,0,1.42-.1,2.23-.42,1.54-.6,2.48-1.68,2.98-2.45,.27,.22,.6,.45,1.02,.62,.51,.2,.99,.27,1.4,.27,.27,0,.52-.03,.72-.07,.27-.05,.45-.31,.4-.59-.05-.27-.31-.45-.59-.4-.3,.06-.9,.12-1.55-.15-.54-.22-.9-.56-1.11-.81h0s-.05-.04-.07-.06c-.03-.02-.05-.05-.08-.07h0s-.02,0-.04-.01c-.05-.02-.1-.04-.15-.04-.02,0-.04,0-.07,0-.04,0-.08,0-.12,.02-.03,0-.06,.03-.09,.05-.03,.01-.06,.02-.08,.04h0s-.03,.04-.05,.06c-.03,.03-.06,.06-.08,.09h0c-.28,.55-1.11,1.91-2.79,2.56-1.13,.44-2.17,.38-2.85,.26-2.88-.71-4.89-3.26-4.89-6.23,0-2.57,1.5-4.82,3.83-5.85,.59,.49,1.6,1.13,2.99,1.26,.17,.02,.34,.02,.5,.02,.97,0,1.76-.26,2.29-.5,.25-.12,.36-.41,.25-.66-.12-.25-.41-.36-.66-.25-.5,.23-1.3,.49-2.28,.39-1.32-.12-2.23-.81-2.65-1.21-1.15-1.2-1.78-2.77-1.78-4.42,0-3.54,2.88-6.42,6.42-6.42,.29,0,.59,.03,.94,.08,.67,.22,1.62,.68,2.4,1.62,.4,.48,.68,1.03,.89,1.62-1.08,.64-1.49,1.68-1.6,2.01-.08,.26,.06,.54,.33,.63,.05,.02,.1,.02,.15,.02,.21,0,.41-.14,.48-.35,.06-.19,.42-1.18,1.46-1.61,.91-.38,1.74-.1,1.98,0,.26,.1,.55-.02,.65-.27,.1-.26-.02-.55-.27-.65-.36-.15-1.22-.41-2.23-.16-.25-.69-.6-1.32-1.07-1.88-.82-.99-1.78-1.51-2.54-1.81,.13-3.42,2.95-6.17,6.41-6.17,.92,0,1.81,.19,2.65,.58V21.73c-.61-.25-1.42-.48-2.38-.51-.29-.58-.54-1.19-.73-1.81-.25-.82-.42-1.67-.5-2.52-.03-.28-.29-.47-.54-.45-.28,.03-.48,.27-.45,.54,.09,.92,.27,1.84,.54,2.72,.17,.54,.38,1.06,.61,1.57-1.36,.18-2.41,.74-3.04,1.2-.22,.16-.28,.47-.12,.7,.1,.14,.25,.21,.41,.21,.1,0,.2-.03,.29-.09,.56-.4,1.5-.91,2.73-1.04,.16-.02,.32-.02,.48-.03h.01c1.15-.02,2.1,.32,2.69,.62v12.92c-.46-.11-1.08-.35-1.52-.94-.69-.92-.65-2.29,.09-3.34,.16-.22,.11-.54-.12-.7-.22-.16-.54-.11-.7,.12-1.01,1.42-1.04,3.24-.08,4.52,.7,.93,1.69,1.25,2.32,1.37v10.99c-.85,.32-1.74,.49-2.65,.49Z" stroke-width="0"/><path d="M47.38,25.83c0-2.84-1.58-5.37-4.09-6.63,1.04-1.31,1.6-2.92,1.6-4.6,0-4.09-3.33-7.42-7.42-7.42-.18,0-.37,0-.57,.03-.25-3.87-3.47-6.95-7.41-6.95-1.18,0-2.32,.28-3.38,.82-.17,.08-.27,.26-.27,.44V48.05c0,.2,.12,.38,.3,.46,1.06,.46,2.19,.69,3.35,.69,3.21,0,6.15-1.83,7.58-4.7,3.82-.33,6.76-3.52,6.76-7.38,0-1.55-.49-3.05-1.39-4.31,2.94-1.04,4.93-3.81,4.93-6.98Zm-5.89,6.23c-.68,.13-1.72,.18-2.85-.26-1.56-.6-2.38-1.81-2.72-2.42,.14-.79-.05-1.66-.58-2.37-.16-.22-.48-.27-.7-.1-.22,.16-.27,.48-.1,.7,.52,.7,.58,1.59,.16,2.22-.38,.57-1.04,.71-1.23,.75-.27,.04-.46,.3-.42,.57,.04,.25,.25,.42,.49,.42,.03,0,.05,0,.08,0,.28-.04,1.21-.25,1.82-1.07,.53,.75,1.43,1.7,2.84,2.25,.8,.31,1.57,.42,2.23,.42,.32,0,.6-.03,.87-.06,.93,1.15,1.46,2.56,1.46,4.04,0,3.21-2.36,5.89-5.48,6.34,.07-.65,.05-1.52-.36-2.42-.61-1.33-1.87-2.28-3.39-2.61,.06-.06,.13-.11,.18-.17,.18-.21,.15-.53-.07-.7-.21-.17-.53-.15-.7,.07-.21,.25-.57,.6-1.11,.81-.66,.26-1.25,.2-1.55,.15-.27-.05-.53,.12-.59,.4-.05,.27,.12,.53,.4,.59,.2,.04,.44,.07,.72,.07,.41,0,.89-.07,1.4-.27,.07-.03,.14-.08,.21-.12,.06,.03,.12,.05,.19,.05,1.54,.09,2.84,.91,3.42,2.16,.44,.96,.31,1.89,.19,2.39-1.22,2.64-3.88,4.34-6.78,4.34-.91,0-1.8-.16-2.65-.49v-14.92c.46-.14,1.21-.27,2.03,.03,1.53,.57,1.94,2.2,1.96,2.27,.06,.23,.26,.38,.49,.38,.04,0,.08,0,.12-.01,.27-.06,.43-.33,.37-.6-.05-.23-.59-2.23-2.58-2.97-.92-.34-1.77-.27-2.38-.13v-7.67c.23-.91,.94-1.64,1.84-1.86,1.33-.32,2.35,.65,2.36,.66,.2,.19,.51,.19,.71,0,.19-.2,.19-.51,0-.71-.06-.06-1.42-1.38-3.29-.92-.62,.15-1.16,.46-1.6,.89V1.84c.84-.38,1.73-.58,2.65-.58,3.43,0,6.23,2.71,6.4,6.17-.76,.29-1.71,.82-2.53,1.8-.46,.55-.82,1.18-1.06,1.86-.14-.07-.29-.14-.46-.19-.99-.32-1.87-.11-2.2,0-.26,.08-.41,.37-.32,.63,.08,.26,.37,.4,.63,.32,.19-.06,.86-.24,1.58,0,.79,.26,1.05,.81,1.09,.92,.08,.19,.27,.31,.46,.31,.06,0,.13-.01,.19-.04,.26-.1,.38-.4,.27-.65-.05-.12-.17-.38-.41-.65,.2-.68,.54-1.33,1-1.87,.79-.94,1.73-1.4,2.4-1.62,.35-.05,.66-.08,.94-.08,3.54,0,6.42,2.88,6.42,6.42,0,1.65-.63,3.22-1.78,4.42-.43,.4-1.34,1.09-2.65,1.21-.84,.08-1.54-.1-2.04-.3-.14-.64-.47-1.1-.63-1.29-.18-.21-.49-.24-.7-.06s-.24,.49-.06,.7c.15,.17,.48,.65,.47,1.33,0,.53-.23,.92-.36,1.11-.16,.23-.11,.54,.12,.7,.09,.06,.19,.09,.29,.09,.16,0,.31-.07,.41-.21,.27-.38,.44-.83,.51-1.29,.45,.14,.98,.25,1.6,.25,.16,0,.33,0,.5-.02,1.39-.13,2.4-.77,2.99-1.26,2.33,1.03,3.83,3.29,3.83,5.85,0,2.96-2.01,5.52-4.89,6.23Z" stroke-width="0"/></g></g></g><g id="uuid-4532ac9f-c701-46f3-b83a-cdc9c6689815"></g></svg>