<?xml version="1.0" encoding="UTF-8"?><svg width="70" height="70" xmlns="http://www.w3.org/2000/svg" viewBox="-10 -10 70 70"><rect x="-10" y="-10" width="70" height="70" fill="white"/><g id="uuid-51b0682b-719d-4fff-8476-76b958e96d69"><g><path d="M39.26,23.91c-1.18,0-2.14,.96-2.14,2.13,0,.21-.17,.38-.38,.38h0c-.21,0-.38-.17-.38-.38v-2.12c0-1.18-.96-2.14-2.14-2.14s-2.14,.96-2.14,2.14c0,.21-.17,.38-.38,.38s-.38-.17-.38-.38v-1.86c.09-.88-.32-1.69-1.03-2.1-.83-.47-1.8-.21-2.39,.26-.6,.48-.77,1.15-.81,1.42-.03,.19-.22,.32-.41,.32-.2-.02-.35-.18-.35-.38l-.06-6.61c0-1.18-.96-2.14-2.14-2.14s-2.14,.96-2.14,2.14v18.29c0,.19-.14,.35-.32,.38-.18,.03-.36-.08-.42-.26-.06-.18-.15-.43-.27-.73-.15-.35-.61-1.42-1.54-2.41-.78-.83-1.78-1.49-2.89-1.91-.71-.34-1.54-.17-2.03,.41-.5,.58-.54,1.42-.11,2.05l9.76,14.69c.04,.06,.06,.14,.06,.21v3.18h13.77l-.02-4.74c0-.07,.02-.15,.05-.21,.8-1.34,1.47-2.76,2-4.22,.85-2.39,1.32-4.91,1.38-7.48v-6.19c0-1.18-.96-2.14-2.14-2.14Z" fill="#ffcd00" stroke-width="0"/><g><path d="M37.86,21.47c-.79,0-1.5,.3-2.04,.79-.06-1.63-1.4-2.94-3.04-2.94-.8,0-1.52,.31-2.06,.81-.18-1.51-1.47-2.68-3.02-2.68-.79,0-1.5,.3-2.04,.79v-4.89c0-1.68-1.37-3.04-3.04-3.04h0c-.81,0-1.57,.32-2.15,.89-.58,.58-.89,1.34-.89,2.15V29.53c-.26-.43-.61-.91-1.05-1.38-.88-.94-2-1.68-3.21-2.13-1.05-.5-2.31-.24-3.07,.65-.76,.89-.83,2.19-.17,3.14l9.75,14.68v3.44c0,.28,.22,.5,.5,.5h14.66c.28,0,.5-.22,.5-.5l-.02-5.04c.81-1.36,1.48-2.81,2.01-4.29,.89-2.5,1.38-5.13,1.44-7.83v-6.25c0-1.68-1.37-3.04-3.04-3.04Zm2.04,9.28c-.06,2.58-.53,5.11-1.38,7.5-.52,1.46-1.2,2.89-2,4.23-.05,.08-.07,.17-.07,.26l.02,4.67h-13.66v-3.09c0-.1-.03-.19-.08-.28l-9.84-14.82c-.41-.59-.37-1.39,.1-1.93,.46-.54,1.24-.7,1.92-.38,1.11,.42,2.1,1.07,2.87,1.89,.93,.99,1.38,2.05,1.53,2.4,.13,.29,.21,.54,.27,.72,.08,.23,.31,.38,.55,.34,.24-.04,.42-.25,.42-.49V13.35c0-.54,.21-1.05,.6-1.44s.9-.6,1.44-.6h0c1.13,0,2.04,.92,2.04,2.04v14.46c0,.28,.22,.5,.5,.5s.5-.22,.5-.5v-7.31c0-1.13,.92-2.04,2.04-2.04s2.04,.92,2.04,2.04v7.44c0,.28,.22,.5,.5,.5s.5-.22,.5-.5v-5.57c0-1.13,.92-2.04,2.04-2.04s2.04,.92,2.04,2.04v5.57c0,.28,.22,.5,.5,.5s.5-.22,.5-.5v-3.43c0-1.12,.92-2.04,2.04-2.04s2.04,.92,2.04,2.04v6.24Z" stroke-width="0"/><path d="M9.96,5.96c-.75,0-1.36,.61-1.36,1.36s.61,1.36,1.36,1.36,1.36-.61,1.36-1.36-.61-1.36-1.36-1.36Z" stroke-width="0"/><path d="M14.94,8.69c.75,0,1.36-.61,1.36-1.36s-.61-1.36-1.36-1.36-1.36,.61-1.36,1.36,.61,1.36,1.36,1.36Z" stroke-width="0"/><path d="M19.91,8.69c.75,0,1.36-.61,1.36-1.36s-.61-1.36-1.36-1.36-1.36,.61-1.36,1.36,.61,1.36,1.36,1.36Z" stroke-width="0"/><path d="M24.89,8.69c.75,0,1.36-.61,1.36-1.36s-.61-1.36-1.36-1.36-1.36,.61-1.36,1.36,.61,1.36,1.36,1.36Z" stroke-width="0"/><circle cx="29.87" cy="7.32" r="1.36"/><circle cx="29.87" cy="2.48" r="1.36"/><circle cx="29.87" cy="12.17" r="1.36"/><path d="M14.94,3.84c.75,0,1.36-.61,1.36-1.36s-.61-1.36-1.36-1.36-1.36,.61-1.36,1.36,.61,1.36,1.36,1.36Z" stroke-width="0"/><path d="M14.94,13.53c.75,0,1.36-.61,1.36-1.36s-.61-1.36-1.36-1.36-1.36,.61-1.36,1.36,.61,1.36,1.36,1.36Z" stroke-width="0"/><path d="M19.91,3.84c.75,0,1.36-.61,1.36-1.36s-.61-1.36-1.36-1.36-1.36,.61-1.36,1.36,.61,1.36,1.36,1.36Z" stroke-width="0"/><circle cx="34.71" cy="12.17" r="1.36"/><path d="M39.56,10.81c-.75,0-1.36,.61-1.36,1.36s.61,1.36,1.36,1.36,1.36-.61,1.36-1.36-.61-1.36-1.36-1.36Z" stroke-width="0"/><circle cx="34.71" cy="2.48" r="1.36"/><path d="M39.56,8.69c.75,0,1.36-.61,1.36-1.36s-.61-1.36-1.36-1.36-1.36,.61-1.36,1.36,.61,1.36,1.36,1.36Z" stroke-width="0"/></g></g></g><g id="uuid-462510ad-bfd2-4167-92f2-08c8b15ec508"></g></svg>