<?xml version="1.0" encoding="UTF-8"?><svg width="70" height="70" xmlns="http://www.w3.org/2000/svg" viewBox="-10 -10 70 70"><rect x="-10" y="-10" width="70" height="70" fill="white"/><g id="uuid-489fd3c5-cf09-4cda-90b1-b5f92d06211a"><path d="M46.63,18.8c-.2.57-.3,1.19-.28,1.83.2,5.81.15,11.11-.15,16.2-.02.41-.25.79-.61,1.01l-12.11,7.91c.3-5.09.35-10.39.15-16.19-.03-.93.24-1.81.76-2.49l1.25-2.01c.39-.92.6-1.86.6-2.83,0-5.93-7.69-10.76-17.14-10.76-2.38,0-4.7.31-6.85.9l8.92-5.82c.69-.44,1.44-.84,2.23-1.18,2.77-1.22,6.03-1.86,9.42-1.86,8.9,0,16.14,4.38,16.14,9.76,0,1.23-.4,2.42-1.15,3.56,0,0-1.19.75-1.18,1.97Z" fill="#ffcd00" stroke-width="0"/></g><g id="uuid-cd33dd64-1348-4c03-be0b-5537dc1930ab"><path d="M45.63,19.95c-.02-.64.08-1.26.28-1.83l-12.24,8.27c-.52.68-.79,1.56-.76,2.49.2,5.8.15,11.1-.15,16.19l12.11-7.91c.36-.22.59-.6.61-1.01.3-5.09.35-10.39.15-16.2ZM18.38,10.76c9.45,0,17.14,4.83,17.14,10.76,0,.97-.21,1.91-.6,2.83l12.17-8.23c.75-1.14,1.15-2.33,1.15-3.56,0-5.38-7.24-9.76-16.14-9.76-3.39,0-6.65.64-9.42,1.86-.79.34-1.54.74-2.23,1.18l-8.92,5.82c2.15-.59,4.47-.9,6.85-.9ZM4.34,15.35c.2-.18.4-.35.62-.52.11-.09.23-.18.35-.26.29-.22.59-.43.91-.64l.06-.03,13.63-8.9c.74-.47,1.54-.89,2.37-1.26,2.9-1.27,6.29-1.94,9.82-1.94,9.45,0,17.14,4.83,17.14,10.76,0,1.7-.61,3.32-1.81,4.83-.55.67-.83,1.57-.8,2.53.2,5.83.15,11.16-.15,16.29-.04.72-.44,1.4-1.06,1.79l-13.61,8.89-.03.02c-.16.11-.34.2-.52.27-.04.01-.07.02-.1.03-.19.06-.38.11-.59.12-4.03.19-8.14.29-12.19.3-4.05-.01-8.16-.11-12.19-.3-1.18-.06-2.12-.99-2.19-2.16-.3-5.13-.35-10.45-.15-16.29.03-.96-.25-1.85-.79-2.53-1.21-1.51-1.82-3.13-1.82-4.83,0-.32.03-.63.07-.94.02-.08.03-.16.04-.24.05-.28.11-.55.19-.82.04-.12.08-.25.13-.37.05-.15.12-.31.18-.46.11-.25.23-.5.37-.74.05-.1.11-.2.17-.29.1-.18.21-.35.33-.51.04-.06.09-.12.14-.18.21-.29.44-.57.69-.84.1-.1.19-.2.29-.3.16-.16.33-.32.5-.48ZM5,45.11c.04.66.57,1.18,1.23,1.22,4.03.19,8.11.29,12.15.3,4.04-.01,8.12-.11,12.15-.3.14,0,.28-.05.41-.1.05-.02.1-.06.16-.09.37-.21.63-.58.66-1.03.3-5.1.35-10.39.15-16.2-.04-1.19.32-2.32,1.01-3.19,1.06-1.32,1.6-2.74,1.6-4.2,0-5.38-7.24-9.76-16.14-9.76-3.39,0-6.65.64-9.42,1.86-.79.34-1.51.72-2.17,1.14-.3.19-.59.39-.87.59l-.27.21c-.24.18-.47.37-.69.57-.11.1-.21.2-.31.3-.12.12-.23.23-.34.35-.17.19-.33.38-.49.57-.08.1-.17.21-.24.32-.1.13-.19.27-.28.41-.08.12-.15.25-.22.38-.1.18-.19.36-.27.54-.07.15-.13.3-.19.45-.03.1-.07.2-.1.3-.08.24-.14.49-.18.73-.01.07-.02.14-.03.22-.04.27-.07.54-.07.82,0,1.46.54,2.88,1.6,4.2.69.87,1.05,2,1.01,3.19-.2,5.81-.15,11.11.15,16.2Z" stroke-width="0"/></g></svg>