<?xml version="1.0" encoding="UTF-8"?><svg width="70" height="70" xmlns="http://www.w3.org/2000/svg" viewBox="-10 -10 70 70"><rect x="-10" y="-10" width="70" height="70" fill="white"/><g id="uuid-3903bc05-0df1-4d2a-810d-b8e255cb4ac8"><path d="M47.04,27.77l-.51-10.66h-.09l-.51,10.66c-.01,.27-.23,.48-.5,.48H8.03c-.27,0-.49-.21-.5-.48l-.5-10.49h-.09l-.5,10.49c-.01,.27-.23,.48-.5,.48h-1.34v3.16h1.14c.14,0,.27,.06,.36,.16,.09,.1,.14,.23,.14,.37l-.25,5.18h2l-.25-5.18c0-.14,.04-.27,.14-.37,.09-.1,.23-.16,.36-.16H45.22c.14,0,.27,.06,.36,.16,.09,.1,.14,.23,.14,.37l-.24,5.01h2l-.24-5.01c0-.14,.04-.27,.14-.37,.09-.1,.22-.16,.36-.16h1.17v-3.16h-1.37c-.27,0-.49-.21-.5-.48Z" fill="#ffcd00" stroke-width="0"/><path d="M47.66,25.41h-1.26s-.01-.07-.03-.1c-.04-.07-.08-.13-.12-.2l-.5-10.35c-.01-.27-.23-.48-.5-.48h-1.05c-.27,0-.49,.21-.5,.48l-.31,6.41c-4.32-4.62-11.06-7.43-18.39-7.43-2.94,0-5.78,.45-8.41,1.29-.07,0-.13,.03-.18,.06-3.9,1.27-7.31,3.39-9.87,6.15l-.3-6.31c-.01-.27-.23-.48-.5-.48h-1.05c-.27,0-.49,.21-.5,.48l-.5,10.29s-.04,.06-.05,.09c-.02,.03-.02,.07-.03,.1h-1.29c-.28,0-.5,.23-.5,.5v4.16c0,.28,.23,.5,.5,.5h1.12l-.25,5.17c0,.14,.04,.27,.14,.37,.09,.1,.23,.16,.36,.16h3.05c.14,0,.27-.06,.36-.16,.09-.1,.14-.23,.14-.37l-.25-5.17H42.95l-.24,5.01c0,.14,.04,.27,.14,.37,.09,.1,.23,.16,.36,.16h3.05c.14,0,.27-.06,.36-.16,.09-.1,.14-.23,.14-.37l-.24-5.01h1.15c.28,0,.5-.23,.5-.5v-4.16c0-.28-.23-.5-.5-.5Zm-1.93,9.69h-2l.95-19.83h.09l.95,19.83Zm-2.4-12.52l-.14,2.83h-1.93l-.05-4.98c.77,.67,1.48,1.39,2.12,2.15Zm-34.11,2.83l-.05-5.28c.93-.77,1.93-1.46,3.01-2.07l.05,7.36h-3.01Zm4.01,0l-.06-7.9c.96-.49,1.96-.92,3.01-1.29l.05,9.19h-3.01Zm4.01,0l-.05-9.52c.97-.3,1.98-.54,3.01-.73l.05,10.25h-3Zm4,0l-.06-10.41c.98-.14,1.99-.22,3.01-.25l.06,10.66h-3.01Zm4.01,0l-.06-10.68c1.02,0,2.02,.07,3,.18l.06,10.5h-3Zm4,0l-.05-10.35c1.03,.16,2.03,.37,3,.65l.06,9.71h-3.01Zm4.01,0l-.05-9.41c1.04,.33,2.04,.73,3,1.19l.06,8.23h-3Zm4,0l-.05-7.73c1.07,.57,2.07,1.22,3.01,1.94,0,.01,0,.03,0,.04l.06,5.74h-3Zm-29.08-4.4l.04,4.4h-1.46l-.13-2.74c.48-.58,1-1.13,1.55-1.66Zm-1.94,14.26h-2l.95-19.83h.09l.95,19.83Zm-3.39-5.71v-3.15h.82l-.15,3.15h-.66Zm4.12,0l-.15-3.15H43.15l-.15,3.15H6.96Zm40.2,0h-.69l-.15-3.15h.84v3.15Z" stroke-width="0"/></g><g id="uuid-728ff062-6a2f-4e24-83cd-23d4ff6e205d"></g></svg>