<?xml version="1.0" encoding="UTF-8"?><svg width="70" height="70" xmlns="http://www.w3.org/2000/svg" viewBox="-10 -10 70 70"><rect x="-10" y="-10" width="70" height="70" fill="white"/><g id="uuid-3c7644e4-dc8f-422a-9850-d11f57231a55"><g><polygon points="2.53 12.99 48.48 12.99 48.48 11.49 1.03 11.49 1.03 27.1 2.53 27.1 2.53 12.99" fill="none"/><path d="M34.89,24.67c.09,.25,.15,.52,.15,.8v1.63h1.5v-.13c0-1.07-.69-1.97-1.65-2.3Z" fill="none" stroke-width="0"/><rect x="18.89" y="7.07" width="11.73" height="3.42" fill="none"/><path d="M19.98,24.67c.09,.25,.15,.52,.15,.8v1.63h1.5v-.13c0-1.07-.69-1.97-1.65-2.3Z" fill="none" stroke-width="0"/><path d="M36.53,28.1h-1.5v.38c0,1.35-1.1,2.45-2.45,2.45h-.76c-1.31,0-2.37-1.04-2.43-2.33h-7.77v-.5h-1.5v.38c0,1.35-1.1,2.45-2.45,2.45h-.76c-1.31,0-2.37-1.04-2.43-2.33H2.53v-.5h-.49v14.34H47.47v-13.84h-10.94v-.5Z" fill="none" stroke-width="0"/><path d="M2.53,12.99v15.61h1.01v15.34H48.97v-15.34h1V12.99H2.53Zm16.6,15.49c0,.8-.65,1.45-1.45,1.45h-.76c-.76,0-1.37-.59-1.43-1.33,0-.04-.01-.08-.01-.12v-3.01c0-.8,.65-1.45,1.45-1.45h.76c.43,0,.82,.2,1.08,.5,.22,.25,.36,.58,.36,.95v3.01Zm14.9,0c0,.8-.65,1.45-1.45,1.45h-.76c-.76,0-1.37-.59-1.43-1.33,0-.04-.01-.08-.01-.12v-3.01c0-.8,.65-1.45,1.45-1.45h.76c.43,0,.82,.2,1.08,.5,.22,.25,.36,.58,.36,.95v3.01Z" fill="#ffcd00" stroke-width="0"/><path d="M48.98,10.49H31.62v-3.92c0-.28-.22-.5-.5-.5h-12.73c-.28,0-.5,.22-.5,.5v3.92H.53c-.28,0-.5,.22-.5,.5V27.6c0,.28,.22,.5,.5,.5h.51v14.84c0,.28,.22,.5,.5,.5H47.97c.28,0,.5-.22,.5-.5v-14.84h.51c.28,0,.5-.22,.5-.5V10.99c0-.28-.22-.5-.5-.5Zm-30.09-3.42h11.73v3.42h-11.73v-3.42Zm28.58,21.53v13.84H2.05v-14.34H14.48v.38s0,.08,.01,.12c.06,1.29,1.12,2.33,2.43,2.33h.76c1.35,0,2.45-1.1,2.45-2.45v-.38h9.25v.38s0,.08,.01,.12c.06,1.29,1.13,2.33,2.43,2.33h.76c1.35,0,2.45-1.1,2.45-2.45v-.38h12.44v.5Zm-31.99-.12v-3.01c0-.8,.65-1.45,1.45-1.45h.76c.43,0,.82,.2,1.08,.5,.22,.25,.36,.58,.36,.95v3.01c0,.8-.65,1.45-1.45,1.45h-.76c-.76,0-1.37-.59-1.43-1.33,0-.04-.01-.08-.01-.12Zm14.9,0v-3.01c0-.8,.65-1.45,1.45-1.45h.76c.43,0,.82,.2,1.08,.5,.22,.25,.36,.58,.36,.95v3.01c0,.8-.65,1.45-1.45,1.45h-.76c-.76,0-1.37-.59-1.43-1.33,0-.04-.01-.08-.01-.12Zm18.1-15.49v14.11h-13.45v-1.63c0-.28-.06-.55-.15-.8-.33-.95-1.23-1.65-2.3-1.65h-.76c-1.35,0-2.45,1.1-2.45,2.45v1.63h-9.25v-1.63c0-.28-.06-.55-.15-.8-.33-.95-1.23-1.65-2.3-1.65h-.76c-1.35,0-2.45,1.1-2.45,2.45v1.63H1.03V11.49H48.48v1.5Z" stroke-width="0"/></g></g><g id="uuid-b05c12ab-3144-4198-8258-1c9a854a68f4"></g></svg>