<?xml version="1.0" encoding="UTF-8"?><svg width="70" height="70" id="uuid-e21fec2e-164a-4ae2-9d74-febd56c8fcd6" xmlns="http://www.w3.org/2000/svg" viewBox="-10 -10 70 70"><rect x="-10" y="-10" width="70" height="70" fill="white"/><g><path d="M35.25,11.99c-.17,.07-.33,.13-.5,.2v1.95h0v3.42h0v5.42h0v3.42h0v5.42h0v3.42h0v5.42h0v3.42h0v1.94l.5-.17,14.13-5.48V6.71l-14.13,5.28Z" fill="#ffcd00" stroke-width="0"/><path d="M17.25,6.71L3.11,11.99V45.84l14.13-5.48,.5-.19V6.51c-.17,.07-.33,.14-.5,.2Z" fill="#ffcd00" stroke-width="0"/></g><path d="M15.73,28.92v4.39c0,.28,.22,.5,.5,.5v-5.39c-.28,0-.5,.22-.5,.5Z" fill="none" stroke-width="0"/><g><path d="M48.67,4.08c-.13-.09-.31-.11-.46-.06l-14.97,5.6L16.41,4.01s-.08-.02-.13-.02c-.01,0-.02,0-.03,0h0c-.06,0-.12,.01-.17,.03L.94,9.68c-.2,.07-.33,.26-.33,.47V45.07c0,.17,.08,.32,.22,.41,.08,.06,.18,.09,.28,.09,.06,0,.12-.01,.18-.03l14.96-5.8,16.83,5.81c.05,.02,.1,.02,.16,.02h0c.06,0,.12,0,.18-.03l15.13-5.87c.19-.07,.32-.26,.32-.47V4.49c0-.16-.08-.32-.21-.41Zm-.79,34.78l-14.13,5.48v-1.27c0-.28-.22-.5-.5-.5s-.5,.22-.5,.5v1.3l-16-5.53v-1.64c0-.28-.22-.5-.5-.5s-.5,.22-.5,.5v1.66L1.61,44.34V10.49L15.75,5.21v1.28c0,.28,.22,.5,.5,.5s.5-.22,.5-.5v-1.31l16,5.32v1.64c0,.28,.22,.5,.5,.5s.5-.22,.5-.5v-1.65l14.13-5.28V38.86Z" stroke-width="0"/><path d="M33.25,16.06c-.28,0-.5,.22-.5,.5v4.42c0,.28,.22,.5,.5,.5s.5-.22,.5-.5v-4.42c0-.28-.22-.5-.5-.5Z" stroke-width="0"/><path d="M33.25,24.9c-.28,0-.5,.22-.5,.5v4.42c0,.28,.22,.5,.5,.5s.5-.22,.5-.5v-4.42c0-.28-.22-.5-.5-.5Z" stroke-width="0"/><path d="M16.25,19.15c-.28,0-.5,.22-.5,.5v4.39c0,.28,.22,.5,.5,.5s.5-.22,.5-.5v-4.39c0-.28-.22-.5-.5-.5Z" stroke-width="0"/><path d="M16.25,10.38c-.28,0-.5,.22-.5,.5v4.39c0,.28,.22,.5,.5,.5s.5-.22,.5-.5v-4.39c0-.28-.22-.5-.5-.5Z" stroke-width="0"/><path d="M33.23,34.23c-.28,0-.5,.22-.5,.5v4.42c0,.28,.22,.5,.5,.5s.5-.22,.5-.5v-4.42c0-.28-.22-.5-.5-.5Z" stroke-width="0"/><path d="M16.23,28.42c-.28,0-.5,.22-.5,.5v4.39c0,.28,.22,.5,.5,.5s.5-.22,.5-.5v-4.39c0-.28-.22-.5-.5-.5Z" stroke-width="0"/></g></svg>