<?xml version="1.0" encoding="UTF-8"?><svg width="70" height="70" id="uuid-27e76298-9428-491b-ac93-0f778e14b00c" xmlns="http://www.w3.org/2000/svg" viewBox="-10 -10 70 70"><rect x="-10" y="-10" width="70" height="70" fill="white"/><path d="M45.3,18.12c-.21-.12-.3-.38-.22-.61,.26-.68,.39-1.4,.39-2.15,0-3.44-2.81-6.24-6.25-6.24-.79,0-1.56,.15-2.29,.44-.25,.1-.54-.02-.65-.27-1.54-3.64-5.07-5.99-9.02-5.99-4.3,0-8.05,2.75-9.33,6.84-.04,.13-.13,.24-.25,.3-.12,.06-.26,.07-.39,.02-.78-.28-1.6-.42-2.45-.42-4.02,0-7.29,3.27-7.29,7.29,0,.63,.08,1.22,.23,1.8,.06,.21-.03,.44-.22,.56-1.52,.93-2.43,2.54-2.43,4.32,0,2.78,2.27,5.05,5.06,5.05,1.5,0,2.9-.65,3.85-1.79,.11-.14,.29-.2,.46-.17,.17,.03,.32,.15,.39,.31,.76,1.96,2.61,3.23,4.72,3.23,2.56,0,4.71-1.91,5.01-4.44,.03-.25,.24-.44,.5-.44s.47,.19,.5,.44c.37,3.15,3.05,5.53,6.22,5.53,2.31,0,4.42-1.27,5.51-3.31,.07-.13,.2-.23,.35-.26,.15-.03,.3,.01,.42,.11,1.12,.95,2.55,1.47,4.03,1.47,3.44,0,6.24-2.81,6.24-6.25,0-2.21-1.18-4.26-3.07-5.37Z" fill="#ffcd00" stroke-width="0"/><path d="M44.4,15.72c.21-.68,.32-1.39,.32-2.11,0-3.99-3.25-7.24-7.25-7.24-.75,0-1.49,.12-2.2,.34-1.78-3.76-5.56-6.17-9.74-6.17-4.57,0-8.58,2.82-10.13,7.07-.74-.21-1.51-.32-2.3-.32-4.57,0-8.29,3.72-8.29,8.29,0,.58,.06,1.15,.18,1.7-1.64,1.13-2.6,2.96-2.6,4.97,0,3.34,2.72,6.05,6.06,6.05,1.53,0,2.98-.57,4.08-1.59,.8,1.49,2.16,2.54,3.77,2.97,2.68,4.09,1.99,19.11,1.98,19.26,0,.14,.04,.27,.14,.37,.09,.1,.23,.16,.36,.16h11.99c.14,0,.28-.06,.38-.17,.1-.11,.14-.25,.12-.4-.02-.15-1.92-14.61,1.95-18.65h0c1.19-.57,2.22-1.46,2.95-2.6,1.22,.87,2.69,1.35,4.21,1.35,3.99,0,7.24-3.25,7.24-7.25,0-2.42-1.22-4.69-3.22-6.02Zm-14.2,32.74h-10.9c.1-2.62,.39-13.99-1.77-18.6,.11,0,.21,.02,.32,.02,2.4,0,4.51-1.41,5.48-3.48,1.08,2.7,3.71,4.57,6.74,4.57,.53,0,1.04-.07,1.54-.18-2.7,4.8-1.72,15.1-1.41,17.67Zm10.18-20.47c-1.48,0-2.91-.52-4.03-1.47-.11-.1-.27-.14-.42-.11-.15,.03-.28,.12-.35,.26-1.08,2.04-3.19,3.31-5.51,3.31-3.17,0-5.84-2.38-6.22-5.53-.03-.25-.24-.44-.5-.44s-.47,.19-.5,.44c-.3,2.53-2.45,4.44-5.01,4.44-.35,0-.69-.05-1.03-.12-.08-.04-.17-.06-.25-.06-1.55-.4-2.83-1.51-3.43-3.06-.06-.17-.21-.28-.39-.31-.17-.03-.35,.04-.46,.17-.95,1.14-2.35,1.79-3.85,1.79-2.79,0-5.06-2.27-5.06-5.05,0-1.78,.91-3.39,2.43-4.32,.19-.12,.28-.34,.22-.56-.16-.58-.23-1.17-.23-1.8,0-4.02,3.27-7.29,7.29-7.29,.85,0,1.67,.14,2.45,.42,.13,.05,.27,.04,.39-.02,.12-.06,.21-.17,.25-.3,1.29-4.09,5.04-6.84,9.33-6.84,3.94,0,7.48,2.35,9.02,5.99,.11,.25,.39,.37,.65,.27,.73-.29,1.5-.44,2.29-.44,3.45,0,6.25,2.8,6.25,6.24,0,.74-.13,1.47-.39,2.15-.09,.23,0,.48,.22,.61,1.89,1.11,3.07,3.16,3.07,5.37,0,3.45-2.8,6.25-6.24,6.25Z" stroke-width="0"/><path d="M21.54,32.39c-.13-.24-.44-.33-.68-.2-.24,.13-.33,.44-.2,.68,.73,1.35,1.26,2.82,1.58,4.37,.4,1.96,.43,3.92,.1,5.8-.05,.27,.13,.53,.4,.58,.03,0,.06,0,.09,0,.24,0,.45-.17,.49-.41,.36-2.01,.33-4.09-.1-6.18-.34-1.65-.9-3.21-1.68-4.65Z" stroke-width="0"/><path d="M28.16,32.23c-.24-.13-.55-.04-.68,.2-.78,1.43-1.35,3-1.68,4.65-.43,2.09-.46,4.17-.1,6.18,.04,.24,.25,.41,.49,.41,.03,0,.06,0,.09,0,.27-.05,.45-.31,.4-.58-.34-1.89-.3-3.84,.1-5.8,.32-1.55,.85-3.02,1.58-4.37,.13-.24,.04-.55-.2-.68Z" stroke-width="0"/><path d="M27.31,4.81c-1.51,0-2.94,.59-4.01,1.66-.2,.2-.2,.51,0,.71s.51,.2,.71,0c.88-.88,2.05-1.37,3.3-1.37,2.57,0,4.67,2.09,4.67,4.67,0,1.22-.47,2.37-1.31,3.25-.19,.2-.19,.51,.01,.71,.1,.09,.22,.14,.35,.14s.26-.05,.36-.15c1.03-1.06,1.59-2.46,1.59-3.94,0-3.12-2.54-5.67-5.67-5.67Z" stroke-width="0"/><path d="M42.39,17.47c-.23-.15-.54-.09-.69,.14-.15,.23-.09,.54,.14,.69,.78,.52,1.31,1.31,1.5,2.23,.19,.92,0,1.85-.52,2.64s-1.31,1.31-2.23,1.5c-.9,.18-1.82,0-2.59-.49-.23-.15-.54-.08-.69,.15-.15,.23-.08,.54,.15,.69,.73,.47,1.58,.72,2.43,.72,.3,0,.6-.03,.89-.09,1.18-.24,2.2-.92,2.87-1.92,.67-1,.9-2.21,.67-3.39-.24-1.18-.92-2.2-1.92-2.87Z" stroke-width="0"/></svg>