<?xml version="1.0" encoding="utf-8"?> <!-- Generator: Adobe Illustrator 27.7.0, SVG Export Plug-In . SVG Version: 6.00 Build 0) --> <svg width="70" height="70" version="1.1" xmlns="http://www.w3.org/2000/svg" xmlns:xlink="http://www.w3.org/1999/xlink" x="0px" y="0px" viewBox="-10 -10 70 70" style="enable-background:new 0 0 50 50;" xml:space="preserve"><rect x="-10" y="-10" width="70" height="70" fill="white"/> <style type="text/css"> .st0{fill:#FFCD00;} .st1{display:none;} .st2{display:inline;fill:none;stroke:#EA008A;stroke-width:0.2;stroke-miterlimit:10;} .st3{font-family:'Roboto-Regular';} .st4{font-size:6px;} </style> <g id="Color"> <path class="st0" d="M42.7207,47.2036l-9.7461-6.0137c-1.416-0.8735-1.8574-2.7368-0.9834-4.1533l3.2549-5.2739 c0.4229-0.686,1.0879-1.166,1.8721-1.3516c0.2324-0.0552,0.4678-0.0825,0.7012-0.0825c0.5527,0,1.0967,0.1533,1.5791,0.4507 l9.7461,6.0137L42.7207,47.2036z" stroke-width="0"/> <path class="st0" d="M36.0361,15.3882H5.7031l0.4136,5.2899h2.0242l1.7722,24.8981h3.0117v-2.3779c0-0.2764,0.2236-0.5,0.5-0.5 h4.5586c0.2764,0,0.5,0.2236,0.5,0.5v2.3779h4.7725v-2.3779c0-0.2764,0.2236-0.5,0.5-0.5h4.5586c0.2764,0,0.5,0.2236,0.5,0.5 v2.3779h3.0107l0.3868-5.4312l-0.7374-0.455c-1.416-0.8735-1.8574-2.7368-0.9834-4.1533l2.3163-3.7531l0.791-11.1055h2.0241 L36.0361,15.3882z" stroke-width="0"/> </g> <g id="ICONS_00000031165542127692736420000002692518830807990202_"> <path d="M48.8193,35.0146c-0.0303-0.1289-0.1113-0.2407-0.2236-0.3101l-10.1719-6.2759c-0.9141-0.564-1.9932-0.7397-3.0361-0.4907 c-1.0439,0.2471-1.9297,0.8867-2.4932,1.7998l-0.6158,0.9979l0.6765-9.5027h1.5468c0.2607,0,0.4785-0.2007,0.498-0.4609 l0.5752-7.3447c0.0117-0.1392-0.0361-0.2764-0.1309-0.3784c-0.0947-0.1025-0.2275-0.1606-0.3672-0.1606h-3.4108 c-0.498-6.2568-4.573-9.1028-8.3002-9.6665c-3.8359-0.5791-7.4072,1.061-8.6855,3.9268c-5.6393-0.5811-7.319,3.5158-7.8135,5.7397 h-3.205c-0.1396,0-0.2725,0.0581-0.3672,0.1606c-0.0947,0.1021-0.1426,0.2393-0.1309,0.3784l0.5752,7.3447 c0.0195,0.2603,0.2373,0.4609,0.498,0.4609h1.5468l1.6642,23.3789c0.0186,0.2617,0.2363,0.4644,0.499,0.4644h3.9775 c0.2764,0,0.5-0.2236,0.5-0.5v-2.3779h3.5586v2.3779c0,0.2764,0.2236,0.5,0.5,0.5h5.7725c0.2764,0,0.5-0.2236,0.5-0.5v-2.3779 h3.5586v2.3779c0,0.2764,0.2236,0.5,0.5,0.5h3.9766c0.2627,0,0.4805-0.2026,0.499-0.4644l0.2632-3.6985l9.5678,5.9036 c0.082,0.0508,0.1729,0.0747,0.2627,0.0747c0.167,0,0.3311-0.0845,0.4258-0.2373l6.9492-11.2617 C48.8281,35.2798,48.8506,35.1436,48.8193,35.0146z M31.2035,31.7481l-14.3947-8.8826l1.0075-1.6326h14.1357L31.2035,31.7481z M14.373,18.8545l2.7051,1.6694l-1.3787,2.2343c-0.0016,0.0026-0.0044,0.0038-0.006,0.0065 c-0.0016,0.0026-0.0015,0.0057-0.0031,0.0083l-1.3788,2.2344l-2.7041-1.6694L14.373,18.8545z M14.9336,8.1855 c0.2305,0.0317,0.457-0.1035,0.5371-0.3247c0.9629-2.6494,4.2227-4.1851,7.7461-3.6504c3.3271,0.5029,6.9639,3.0576,7.4474,8.6777 H7.8956C8.4503,10.6105,10.0906,7.5238,14.9336,8.1855z M4.2031,13.8882h30.333L34.04,20.2329H18.2471 c-0.0327-0.1231-0.1096-0.2305-0.2178-0.2974l-3.5566-2.1943c-0.1123-0.0693-0.2471-0.0913-0.3779-0.061 c-0.1289,0.0303-0.2402,0.1108-0.3105,0.2236l-1.4369,2.3291H4.6992L4.2031,13.8882z M27.3145,44.0762v-2.3779 c0-0.2764-0.2236-0.5-0.5-0.5h-4.5586c-0.2764,0-0.5,0.2236-0.5,0.5v2.3779h-4.7725v-2.3779c0-0.2764-0.2236-0.5-0.5-0.5h-4.5586 c-0.2764,0-0.5,0.2236-0.5,0.5v2.3779H8.4131L6.7872,21.2329h4.9432l-1.2372,2.0054c-0.1445,0.2354-0.0723,0.543,0.1631,0.688 l3.5557,2.1943c0.0801,0.0493,0.1709,0.0747,0.2627,0.0747c0.0381,0,0.0771-0.0044,0.1152-0.0137 c0.1289-0.0303,0.2402-0.1108,0.3105-0.2236l1.3834-2.2417l14.7208,9.0839l-1.3649,2.2115 c-1.0835,1.7567-0.6321,4.0156,0.9563,5.2583l-0.2708,3.8062H27.3145z M44.6953,40.0727l-7.7119-4.7582 c-0.2354-0.1455-0.543-0.0718-0.6885,0.1626c-0.1445,0.2354-0.0723,0.5435,0.1631,0.688l7.7122,4.7585l-2.9495,4.7801 l-9.7461-6.0137c-1.416-0.8735-1.8574-2.7368-0.9834-4.1533l3.2549-5.2739c0.4229-0.686,1.0879-1.166,1.8721-1.3516 c0.2324-0.0552,0.4678-0.0825,0.7012-0.0825c0.5527,0,1.0967,0.1533,1.5791,0.4507l9.7461,6.0137L44.6953,40.0727z" stroke-width="0"/> </g> <g id="Margin" class="st1"> <rect x="1" y="1" class="st2" /> </g> <g id="Guides" class="st1"> </g> <g id="LABELS"> <g> <g> </g> </g> </g> </svg> 