<?xml version="1.0" encoding="UTF-8"?><svg width="70" height="70" xmlns="http://www.w3.org/2000/svg" viewBox="-10 -10 70 70"><rect x="-10" y="-10" width="70" height="70" fill="white"/><g id="uuid-ad7fe263-5551-4d0a-a1b9-2cd19c7394d4"><path d="M38.12,9.21c-1.44,0-2.62,1.17-2.62,2.62v4.27c0,.99-.83,1.82-1.82,1.82h-2.49c-.28,0-.5-.22-.5-.5v-7.63c0-2.17-1.77-3.93-3.93-3.93s-3.93,1.77-3.93,3.93V28.4c0,.28-.22,.5-.5,.5h-2.49c-.99,0-1.82-.83-1.82-1.82V15.78c0-1.44-1.17-2.62-2.62-2.62s-2.62,1.17-2.62,2.62v11.3c0,3.89,3.16,7.05,7.05,7.05h2.49c.28,0,.5,.22,.5,.5v11.05c0,2.17,1.77,3.93,3.93,3.93s3.93-1.76,3.93-3.93V23.65c0-.28,.22-.5,.5-.5h2.49c3.89,0,7.05-3.16,7.05-7.05v-4.27c0-1.44-1.17-2.62-2.62-2.62Z" fill="#ffcd00" stroke-width="0"/><path d="M38.78,7.76c-.09,.16-.26,.25-.43,.25-.08,0-.17-.02-.25-.07-.24-.14-.32-.44-.18-.68l.24-.42c-.53-.3-1.13-.49-1.78-.49-1.99,0-3.62,1.62-3.62,3.62v4.27c0,.44-.38,.82-.82,.82h-1.99V7.93c0-1.18-.43-2.24-1.12-3.09,.03-.03,.07-.05,.09-.09l1.16-2.01c.14-.24,.06-.54-.18-.68-.24-.14-.54-.06-.68,.18l-1.09,1.89c-.73-.6-1.62-.98-2.61-1.08V.88c0-.28-.22-.5-.5-.5s-.5,.22-.5,.5V3.04c-2.48,.25-4.43,2.33-4.43,4.88V26.04h-1.99c-.44,0-.82-.38-.82-.82V13.92c0-1.9-1.47-3.44-3.33-3.59v-1.85c0-.28-.22-.5-.5-.5s-.5,.22-.5,.5v1.89c-.56,.11-1.06,.36-1.5,.7l-1.3-1.47c-.18-.21-.5-.23-.71-.04-.21,.18-.23,.5-.04,.71l1.35,1.53c-.44,.6-.71,1.33-.71,2.13v11.3c0,4.44,3.61,8.05,8.05,8.05h1.99v10.55c0,2.72,2.21,4.93,4.93,4.93s4.93-2.21,4.93-4.93V22.29h1.99c4.44,0,8.05-3.61,8.05-8.05v-4.27c0-.98-.39-1.87-1.03-2.52l-.18,.31Zm-18.7,24.52h-1.99c-3.89,0-7.05-3.16-7.05-7.05V13.92c0-1.44,1.17-2.62,2.62-2.62s2.62,1.17,2.62,2.62v11.3c0,.99,.83,1.82,1.82,1.82h1.99v5.23ZM28.94,15.56v28.27c0,2.17-1.77,3.93-3.93,3.93s-3.93-1.77-3.93-3.93V7.93c0-2.17,1.77-3.93,3.93-3.93s3.93,1.77,3.93,3.93v7.63Zm10.04-1.32c0,3.89-3.16,7.05-7.05,7.05h-1.99v-5.23h1.99c.98,0,1.82-.83,1.82-1.82v-4.27c0-1.44,1.17-2.62,2.62-2.62s2.62,1.17,2.62,2.62v4.27Z" stroke-width="0"/><path d="M26.43,9.15c-.28,0-.5,.22-.5,.5v2.32c0,.28,.22,.5,.5,.5s.5-.22,.5-.5v-2.32c0-.28-.22-.5-.5-.5Z" stroke-width="0"/><path d="M23.51,20.13c-.28,0-.5,.22-.5,.5v2.32c0,.28,.22,.5,.5,.5s.5-.22,.5-.5v-2.32c0-.28-.22-.5-.5-.5Z" stroke-width="0"/><path d="M35.74,11.03c-.28,0-.5,.22-.5,.5v2.32c0,.28,.22,.5,.5,.5s.5-.22,.5-.5v-2.32c0-.28-.22-.5-.5-.5Z" stroke-width="0"/><path d="M14.46,23.06c-.28,0-.5,.22-.5,.5v2.32c0,.28,.22,.5,.5,.5s.5-.22,.5-.5v-2.32c0-.28-.22-.5-.5-.5Z" stroke-width="0"/><path d="M26.43,31.89c-.28,0-.5,.22-.5,.5v2.32c0,.28,.22,.5,.5,.5s.5-.22,.5-.5v-2.32c0-.28-.22-.5-.5-.5Z" stroke-width="0"/><path d="M38.09,7.94c.08,.05,.16,.07,.25,.07,.17,0,.34-.09,.43-.25l.18-.31,.98-1.7c.14-.24,.06-.54-.18-.68s-.54-.06-.68,.18l-.92,1.59-.24,.42c-.14,.24-.06,.54,.18,.68Z" stroke-width="0"/></g><g id="uuid-cb076fb7-ba98-4990-a922-daab1a8eee04"></g></svg>