<?xml version="1.0" encoding="UTF-8"?><svg width="70" height="70" id="uuid-17317f41-81d2-4fba-be18-740c278e2494" xmlns="http://www.w3.org/2000/svg" viewBox="-10 -10 70 70"><rect x="-10" y="-10" width="70" height="70" fill="white"/><path d="M23.72,19.81c.06-.1,.02-.18,0-.23l-3.27-5.34c-.83-1.36-2.5-2.2-4.36-2.2H8.03c-.69,0-1.3,.37-1.39,.85-.06,.31,.07,.54,.19,.69,.24,.3,.66,.47,1.11,.47h6.95c.28,0,.5,.22,.5,.5s-.22,.5-.5,.5h-4.28c-.43,.02-.82,.21-1.04,.5-.11,.14-.22,.37-.16,.67,.1,.47,.7,.83,1.38,.83h7.34c.28,0,.5,.22,.5,.5s-.22,.5-.5,.5h-4.76c-.43,.02-.82,.21-1.04,.5-.11,.14-.22,.37-.16,.67,.1,.47,.71,.83,1.38,.83h9.69c.26,0,.43-.13,.49-.23Z" fill="#ffcd00" stroke-width="0"/><circle cx="26.75" cy="7.31" r="3.86" fill="#ffcd00"/><path d="M45.47,12.04h-8.05c-1.86,0-3.53,.84-4.36,2.2l-3.27,5.34c-.03,.05-.07,.13,0,.23,.06,.11,.22,.23,.49,.23h9.69c.67,0,1.28-.36,1.38-.83,.06-.3-.05-.53-.16-.67-.22-.29-.61-.48-1.05-.5h-4.75c-.28,0-.5-.22-.5-.5s.22-.5,.5-.5h7.34c.67,0,1.27-.36,1.38-.83,.06-.3-.05-.53-.16-.67-.22-.29-.61-.47-1.05-.5h-4.28c-.28,0-.5-.22-.5-.5s.22-.5,.5-.5h6.95c.45,0,.86-.18,1.11-.47,.12-.14,.25-.38,.19-.69-.09-.48-.7-.85-1.39-.85Z" fill="#ffcd00" stroke-width="0"/><path d="M21.61,45.48l-1.18,.26c-.27,.06-.44,.32-.38,.59,.05,.23,.26,.39,.49,.39,.04,0,.07,0,.11-.01l1.18-.26c.27-.06,.44-.32,.38-.59-.06-.27-.33-.44-.59-.38Z" stroke-width="0"/><path d="M28.43,31.11l-1.89-.43-1.03-.24V10.37c2.44-.25,4.36-2.3,4.36-4.81,0-2.68-2.18-4.86-4.86-4.86s-4.86,2.18-4.86,4.86c0,2.51,1.92,4.56,4.36,4.81V30.21l-.81-.19-5.99-1.37c-1.78-.56-2.85-2.47-2.34-4.16,.26-.85,.9-1.57,1.76-1.98,.91-.43,1.97-.45,2.89-.06,.25,.11,.55-.01,.66-.27,.11-.25-.01-.55-.27-.66-1.19-.5-2.54-.48-3.71,.07-1.12,.53-1.96,1.47-2.29,2.6-.66,2.21,.71,4.68,3.04,5.41l6.02,1.38,1.03,.24v6.62l-.8-.2-1.89-.47c-1.34-.35-2.26-1.49-2.18-2.71,.06-.99,.79-1.89,1.84-2.29,.26-.1,.39-.39,.29-.64-.1-.26-.39-.39-.64-.29-1.42,.54-2.4,1.78-2.49,3.16-.11,1.69,1.12,3.26,2.93,3.74l1.89,.47,1.04,.26v5.75l-.82-.18h0l-.5-.11c-1.19-.3-2.07-1.19-2.18-2.2-.08-.8,.31-1.61,1.07-2.17,.22-.16,.27-.48,.1-.7-.16-.22-.48-.27-.7-.1-1.04,.77-1.59,1.92-1.46,3.08,.15,1.43,1.33,2.67,2.94,3.07l.51,.11h0l1.03,.22v1.25c0,.28,.22,.5,.5,.5s.5-.22,.5-.5v-1.03l.82,.18,3.04,.66s.07,.01,.11,.01c.23,0,.44-.16,.49-.39,.06-.27-.11-.54-.38-.59l-3.04-.66-1.03-.22v-5.72l1.01,.25h.03c1.5,.28,2.58,1.5,2.44,2.77-.07,.62-.42,1.21-1,1.64-.22,.17-.26,.48-.1,.7,.1,.13,.25,.2,.4,.2,.1,0,.21-.03,.3-.1,.8-.6,1.29-1.44,1.39-2.34,.19-1.77-1.23-3.45-3.22-3.84h0l-1.25-.31v-6.63l.81,.19,1.88,.43c1.23,.32,2.11,1.29,2.18,2.4,.08,1.21-.84,2.35-2.18,2.71-.27,.07-.43,.34-.36,.61,.06,.22,.26,.37,.48,.37,.04,0,.09,0,.13-.02,1.8-.48,3.03-2.05,2.92-3.74-.1-1.55-1.27-2.87-2.94-3.31ZM21.14,5.56c0-2.13,1.73-3.86,3.86-3.86s3.86,1.73,3.86,3.86-1.73,3.86-3.86,3.86-3.86-1.73-3.86-3.86Z" stroke-width="0"/><path d="M46.09,10.94c-.19-.96-1.18-1.66-2.37-1.66h-8.05c-2.2,0-4.2,1.03-5.22,2.68l-3.27,5.34c-.24,.39-.25,.85-.03,1.25,.26,.46,.78,.75,1.36,.75h9.69c1.16,0,2.15-.68,2.35-1.62,.1-.48,.01-.97-.26-1.38h.67c1.16,0,2.15-.68,2.35-1.62,.1-.48,.01-.97-.26-1.38h.75c.75,0,1.45-.31,1.88-.84,.36-.44,.5-.98,.39-1.51Zm-1.17,.88c-.24,.3-.66,.47-1.11,.47h-6.95c-.28,0-.5,.22-.5,.5s.22,.5,.5,.5h4.28c.43,.02,.82,.21,1.05,.5,.11,.14,.22,.37,.16,.67-.1,.47-.7,.83-1.38,.83h-7.34c-.28,0-.5,.22-.5,.5s.22,.5,.5,.5h4.75c.43,.02,.82,.21,1.05,.5,.11,.14,.22,.37,.16,.67-.1,.47-.71,.83-1.38,.83h-9.69c-.26,0-.43-.13-.49-.23-.06-.1-.02-.18,0-.23l3.27-5.34c.83-1.36,2.5-2.2,4.36-2.2h8.05c.69,0,1.3,.37,1.39,.85,.06,.31-.07,.54-.19,.69Z" stroke-width="0"/><path d="M22.84,18.55c.22-.39,.21-.86-.03-1.24l-3.27-5.34c-1.01-1.65-3.01-2.68-5.22-2.68H6.28c-1.19,0-2.18,.7-2.37,1.66-.11,.54,.04,1.08,.4,1.51,.43,.52,1.13,.84,1.88,.84h.76c-.27,.41-.37,.9-.26,1.38,.2,.94,1.19,1.62,2.35,1.62h.67c-.27,.41-.37,.9-.26,1.38,.2,.94,1.19,1.62,2.35,1.62h9.69c.58,0,1.1-.29,1.36-.75Zm-12.43-1.08c-.06-.3,.05-.53,.16-.67,.22-.29,.61-.48,1.04-.5h4.76c.28,0,.5-.22,.5-.5s-.22-.5-.5-.5h-7.34c-.67,0-1.28-.36-1.38-.83-.06-.3,.05-.53,.16-.67,.22-.29,.61-.47,1.04-.5h4.28c.28,0,.5-.22,.5-.5s-.22-.5-.5-.5H6.18c-.45,0-.86-.18-1.11-.47-.12-.14-.25-.38-.19-.69,.09-.48,.7-.85,1.39-.85H14.33c1.86,0,3.53,.84,4.36,2.2l3.27,5.34c.03,.05,.06,.13,0,.23-.06,.11-.22,.23-.49,.23H11.79c-.67,0-1.28-.36-1.38-.83Z" stroke-width="0"/><path d="M33.09,21.61c-1.17-.55-2.52-.58-3.71-.07-.25,.11-.37,.4-.27,.66,.11,.25,.4,.37,.66,.27,.92-.39,1.98-.37,2.89,.06,.86,.41,1.51,1.13,1.76,1.98,.51,1.69-.56,3.6-2.3,4.15l-3.58,.82c-.27,.06-.44,.33-.38,.6,.05,.23,.26,.39,.49,.39,.04,0,.07,0,.11-.01l3.61-.83c2.29-.72,3.66-3.2,3-5.4-.34-1.12-1.17-2.07-2.29-2.6Z" stroke-width="0"/></svg>