<?xml version="1.0" encoding="UTF-8"?><svg width="70" height="70" xmlns="http://www.w3.org/2000/svg" viewBox="-10 -10 70 70"><rect x="-10" y="-10" width="70" height="70" fill="white"/><g id="uuid-330f64d3-6b90-4f65-9fb3-06bc3cbf547e"><g><path d="M23.51,16.49l-2.59-4.3c-.63-1.03-1.95-1.69-3.36-1.69h-6.36c-.49,0-.93,.26-1,.59-.04,.2,.05,.36,.12,.46,.17,.21,.47,.34,.79,.34h5.5c.28,0,.5,.22,.5,.5s-.22,.5-.5,.5h-3.38c-.31,.02-.59,.15-.75,.35-.1,.14-.14,.29-.11,.44,.07,.32,.5,.57,.99,.57h5.81c.28,0,.5,.22,.5,.5s-.22,.5-.5,.5h-3.75c-.31,.02-.59,.15-.75,.35-.1,.14-.14,.29-.11,.44,.07,.32,.5,.57,.99,.57h7.66c.15,0,.26-.07,.29-.13Z" fill="#ffcd00" stroke-width="0"/><path d="M28.95,6.65c0-1.63-1.32-2.95-2.95-2.95s-2.95,1.32-2.95,2.95,1.32,2.95,2.95,2.95,2.95-1.32,2.95-2.95Z" fill="#ffcd00" stroke-width="0"/><path d="M40.8,10.5h-6.36c-1.43,0-2.72,.65-3.36,1.69l-2.58,4.22c.03,.14,.14,.21,.29,.21h7.66c.48,0,.92-.25,.99-.57,.03-.16,0-.31-.11-.44-.16-.2-.44-.34-.75-.35h-3.75c-.28,0-.5-.22-.5-.5s.22-.5,.5-.5h5.81c.48,0,.92-.25,.99-.57,.03-.16,0-.31-.11-.44-.16-.21-.44-.34-.75-.35h-3.38c-.28,0-.5-.22-.5-.5s.22-.5,.5-.5h5.5c.32,0,.62-.13,.79-.34,.08-.1,.17-.25,.12-.46-.06-.32-.51-.59-1-.59Z" fill="#ffcd00" stroke-width="0"/><path d="M24.68,43.51c-.17-.29-.42-.51-.75-.67s-.7-.23-1.13-.23h-2.22v5.69h1.17v-2h1.03c.67,0,1.2-.16,1.58-.48s.57-.76,.57-1.32c0-.37-.09-.69-.26-.98Zm-1.17,1.62c-.16,.15-.4,.22-.71,.22h-1.05v-1.79h1.07c.29,0,.52,.09,.68,.27s.25,.4,.25,.68-.08,.48-.24,.62Z" stroke-width="0"/><path d="M26.69,42.61l-2.12,5.69h1.25l.39-1.17h2.05l.39,1.17h1.25l-2.13-5.69h-1.09Zm-.16,3.57l.71-2.13,.71,2.13h-1.42Z" stroke-width="0"/><path d="M21.47,38.31s.07,0,.11-.01l.94-.2c.27-.06,.44-.33,.38-.6s-.32-.44-.59-.38l-.93,.2c-.27,.06-.44,.32-.38,.59,.05,.23,.26,.39,.49,.39Z" stroke-width="0"/><path d="M27.73,25.76l-1.5-.34-.74-.17V9.55c1.94-.25,3.45-1.89,3.45-3.9,0-2.18-1.77-3.95-3.95-3.95s-3.95,1.77-3.95,3.95c0,2.01,1.51,3.65,3.45,3.9v15.46l-.51-.12-4.72-1.08c-1.35-.43-2.17-1.88-1.78-3.16,.19-.64,.68-1.19,1.34-1.5,.7-.33,1.5-.34,2.2-.04,.25,.11,.55-.01,.66-.27,.11-.25-.01-.55-.26-.66-.97-.41-2.07-.39-3.02,.06-.91,.43-1.59,1.2-1.87,2.12-.55,1.83,.55,3.8,2.48,4.41l4.76,1.09,.74,.17v5.01l-.5-.12h0l-1.49-.37c-1.01-.27-1.7-1.12-1.65-2.03,.05-.74,.59-1.42,1.39-1.72,.26-.1,.39-.39,.29-.64s-.39-.39-.65-.29c-1.16,.44-1.96,1.46-2.03,2.59-.09,1.38,.92,2.67,2.4,3.06l1.5,.37h0l.75,.18v4.34l-.52-.11h0l-.39-.08c-.9-.23-1.56-.89-1.64-1.65-.06-.6,.24-1.2,.8-1.62,.22-.16,.27-.48,.1-.7-.16-.22-.48-.27-.7-.1-.85,.63-1.3,1.58-1.2,2.53,.12,1.18,1.09,2.19,2.41,2.52l.4,.09h0l.73,.16v.9c0,.28,.22,.5,.5,.5s.5-.22,.5-.5v-.68l.52,.11h0l2.4,.52s.07,.01,.11,.01c.23,0,.44-.16,.49-.39,.06-.27-.11-.54-.38-.59l-2.4-.52h0l-.73-.16v-4.31l.67,.17h.03c1.14,.22,1.95,1.12,1.85,2.07-.05,.46-.31,.9-.75,1.23-.22,.17-.26,.48-.1,.7,.1,.13,.25,.2,.4,.2,.1,0,.21-.03,.3-.1,.66-.5,1.06-1.18,1.14-1.92,.15-1.45-1-2.83-2.62-3.15h0l-.91-.23v-5.03l.51,.12,1.48,.34c.93,.24,1.59,.97,1.64,1.8,.06,.91-.63,1.76-1.65,2.03-.27,.07-.43,.34-.36,.61,.06,.22,.26,.37,.48,.37,.04,0,.09,0,.13-.02,1.47-.39,2.48-1.68,2.39-3.06-.08-1.27-1.04-2.35-2.4-2.71ZM22.05,5.65c0-1.63,1.32-2.95,2.95-2.95s2.95,1.32,2.95,2.95-1.32,2.95-2.95,2.95-2.95-1.32-2.95-2.95Z" stroke-width="0"/><path d="M41.78,9.89c-.16-.81-.99-1.39-1.98-1.39h-6.36c-1.78,0-3.39,.83-4.21,2.17l-2.58,4.22c-.21,.34-.22,.75-.02,1.09,.22,.4,.67,.64,1.17,.64h7.66c.97,0,1.79-.57,1.96-1.36,.07-.35,.03-.7-.13-1.01h.35c.97,0,1.79-.57,1.96-1.36,.08-.35,.03-.7-.13-1.01h.42c.62,0,1.21-.26,1.57-.7,.3-.37,.42-.83,.33-1.28Zm-1.11,.65c-.17,.21-.47,.34-.79,.34h-5.5c-.28,0-.5,.22-.5,.5s.22,.5,.5,.5h3.38c.31,.02,.59,.15,.75,.35,.1,.14,.14,.29,.11,.44-.07,.32-.5,.57-.99,.57h-5.81c-.28,0-.5,.22-.5,.5s.22,.5,.5,.5h3.75c.31,.02,.59,.15,.75,.35,.1,.14,.14,.29,.11,.44-.07,.32-.5,.57-.99,.57h-7.66c-.15,0-.26-.07-.29-.21l2.58-4.22c.64-1.04,1.93-1.69,3.36-1.69h6.36c.49,0,.93,.26,1,.59,.04,.2-.05,.36-.12,.46Z" stroke-width="0"/><path d="M23.38,15.98c.19-.34,.18-.75-.02-1.09l-2.59-4.22c-.82-1.34-2.43-2.17-4.21-2.17h-6.36c-.99,0-1.82,.59-1.98,1.39-.09,.46,.03,.91,.33,1.28,.36,.44,.95,.7,1.57,.7h.42c-.16,.31-.2,.66-.13,1.01,.17,.79,1,1.36,1.96,1.36h.35c-.16,.31-.2,.66-.13,1.01,.17,.79,1,1.36,1.96,1.36h7.66c.5,0,.94-.25,1.17-.64Zm-9.82-.93c-.03-.16,0-.31,.11-.44,.16-.2,.44-.34,.75-.35h3.75c.28,0,.5-.22,.5-.5s-.22-.5-.5-.5h-5.81c-.48,0-.92-.25-.99-.57-.03-.16,0-.31,.11-.44,.16-.21,.44-.34,.75-.35h3.38c.28,0,.5-.22,.5-.5s-.22-.5-.5-.5h-5.5c-.32,0-.62-.13-.79-.34-.08-.1-.16-.25-.12-.46,.06-.32,.51-.59,1-.59h6.36c1.41,0,2.73,.66,3.36,1.69l2.59,4.3c-.04,.07-.14,.13-.29,.13h-7.66c-.48,0-.92-.25-.99-.57Z" stroke-width="0"/><path d="M31.44,18.25c-.95-.45-2.05-.47-3.02-.06-.25,.11-.37,.4-.27,.66,.11,.25,.4,.37,.66,.27,.7-.3,1.51-.28,2.2,.04,.66,.31,1.14,.85,1.34,1.5,.39,1.29-.43,2.73-1.74,3.15l-2.83,.65c-.27,.06-.44,.33-.38,.6,.05,.23,.26,.39,.49,.39,.04,0,.07,0,.11-.01l2.87-.66c1.89-.6,2.99-2.57,2.44-4.4-.28-.92-.96-1.69-1.87-2.12Z" stroke-width="0"/></g></g><g id="uuid-6d1f95ed-5eea-4bcf-93f7-b503132a6b6c"></g></svg>