<?xml version="1.0" encoding="UTF-8"?><svg width="70" height="70" id="uuid-880bdcb7-58ab-418b-ad6b-d1d7c3324fc3" xmlns="http://www.w3.org/2000/svg" viewBox="-10 -10 70 70"><rect x="-10" y="-10" width="70" height="70" fill="white"/><path d="M45.01,41.83h1.23V21.43H7.45v20.41H44.99s.01,0,.02,0Z" fill="#ffcd00" stroke-width="0"/><path d="M25.06,9.62c.41,0,1.12-.55,1.12-2.08,0-1.46-1.11-2.64-1.11-2.64,0,0-1.07,1.18-1.11,2.64,0,1.52,.69,2.08,1.1,2.08Z" stroke-width="0"/><path d="M36.74,9.67c.41,0,1.12-.55,1.12-2.08,0-1.46-1.11-2.64-1.11-2.64,0,0-1.07,1.18-1.11,2.64,0,1.52,.69,2.08,1.1,2.08Z" stroke-width="0"/><path d="M13.35,9.67c.41,0,1.12-.55,1.12-2.08,0-1.46-1.11-2.64-1.11-2.64,0,0-1.07,1.18-1.11,2.64,0,1.52,.69,2.08,1.1,2.08Z" stroke-width="0"/><path d="M47.5,40.83h-2.01v-6.96s0-.02,0-.03c0-.04,.02-.07,.02-.11v-14.56c0-.28-.22-.5-.5-.5h-7.78v-7.07c0-.27-.22-.49-.49-.49s-.49,.22-.49,.49v7.07h-10.68v-7.08c0-.27-.22-.49-.49-.49s-.49,.22-.49,.49v7.08H13.91v-7.07c0-.27-.22-.49-.49-.49s-.49,.22-.49,.49v7.07H5.22c-.28,0-.5,.22-.5,.5v4.52s.01,.05,.02,.07c0,.03-.02,.06-.02,.09v9.91h0s-.02,.07-.02,.11v6.96H2.5c-.28,0-.5,.22-.5,.5v3.76c0,.28,.22,.5,.5,.5H47.5c.28,0,.5-.22,.5-.5v-3.76c0-.28-.22-.5-.5-.5ZM5.72,25.49c1.16,1.71,3.45,4.49,6.18,4.56,1.92,.03,4.09-1.26,6.43-2.64,2.36-1.39,4.8-2.83,6.87-2.83h.04c2.08,.02,4.16,1.49,6.18,2.92,1.89,1.34,3.68,2.6,5.41,2.6,.03,0,.06,0,.09,0,2.71-.07,5.99-3.21,7.59-4.87v8.15H5.72v-7.89Zm0-5.81H44.51v4.09c-.05,.05-.11,.11-.18,.19-3.17,3.36-5.67,5.08-7.43,5.13-1.41,.02-3.11-1.15-4.9-2.42-2.14-1.51-4.35-3.08-6.75-3.1h-.05c-2.34,0-4.9,1.51-7.38,2.97-2.21,1.31-4.33,2.52-5.9,2.5-3.27-.08-6.1-5.29-6.13-5.34l-.07-.13v-3.89Zm-.02,14.7H44.49v6.46H5.7v-6.46Zm41.3,10.22H3v-2.76h2.18s.01,0,.02,0H44.99s.01,0,.02,0h1.99v2.76Z" stroke-width="0"/></svg>