<?xml version="1.0" encoding="UTF-8"?><svg width="70" height="70" xmlns="http://www.w3.org/2000/svg" viewBox="-10 -10 70 70"><rect x="-10" y="-10" width="70" height="70" fill="white"/><g id="uuid-1d57bed2-5c84-49c8-85d8-16fea5fc5fed"><g><path d="M11.42,2.58V49.92h29.67V2.58H11.42Zm3.94,41.87c-.76,0-1.38-.62-1.38-1.37s.62-1.37,1.38-1.37,1.37,.62,1.37,1.37-.62,1.37-1.37,1.37Zm0-6.97c-.76,0-1.38-.62-1.38-1.37s.62-1.37,1.38-1.37,1.37,.62,1.37,1.37-.62,1.37-1.37,1.37Zm0-6.97c-.76,0-1.38-.62-1.38-1.37s.62-1.38,1.38-1.38,1.37,.62,1.37,1.38-.62,1.37-1.37,1.37Zm0-6.97c-.76,0-1.38-.62-1.38-1.37s.62-1.37,1.38-1.37,1.37,.62,1.37,1.37-.62,1.37-1.37,1.37Zm6.43,20.9c-.76,0-1.38-.62-1.38-1.37s.62-1.37,1.38-1.37,1.37,.62,1.37,1.37-.62,1.37-1.37,1.37Zm0-6.97c-.76,0-1.38-.62-1.38-1.37s.62-1.37,1.38-1.37,1.37,.62,1.37,1.37-.62,1.37-1.37,1.37Zm0-6.97c-.76,0-1.38-.62-1.38-1.37s.62-1.38,1.38-1.38,1.37,.62,1.37,1.38-.62,1.37-1.37,1.37Zm0-6.97c-.76,0-1.38-.62-1.38-1.37s.62-1.37,1.38-1.37,1.37,.62,1.37,1.37-.62,1.37-1.37,1.37Zm6.43,20.9c-.76,0-1.37-.62-1.37-1.37s.62-1.37,1.37-1.37,1.38,.62,1.38,1.37-.62,1.37-1.38,1.37Zm0-6.97c-.76,0-1.37-.62-1.37-1.37s.62-1.37,1.37-1.37,1.38,.62,1.38,1.37-.62,1.37-1.38,1.37Zm0-6.97c-.76,0-1.37-.62-1.37-1.37s.62-1.38,1.37-1.38,1.38,.62,1.38,1.38-.62,1.37-1.38,1.37Zm0-6.97c-.76,0-1.37-.62-1.37-1.37s.62-1.37,1.37-1.37,1.38,.62,1.38,1.37-.62,1.37-1.38,1.37Zm6.18,3.97c.76,0,1.38,.62,1.38,1.38s-.62,1.37-1.38,1.37-1.37-.62-1.37-1.37,.62-1.38,1.37-1.38Zm-1.37-5.59c0-.76,.62-1.37,1.37-1.37s1.38,.62,1.38,1.37-.62,1.37-1.38,1.37-1.37-.62-1.37-1.37Zm3,21.21c0,.72-.59,1.31-1.31,1.31s-1.31-.59-1.31-1.31v-7.1c0-.72,.59-1.31,1.31-1.31s1.31,.59,1.31,1.31v7.1Zm.18-27.68H13.3V4.57h22.89V15.47Z" fill="#ffcd00" stroke-width="0"/><g><path d="M40.08,.08H9.42c-.28,0-.5,.22-.5,.5V48.92c0,.28,.22,.5,.5,.5h30.67c.28,0,.5-.22,.5-.5V.58c0-.28-.22-.5-.5-.5Zm-.5,48.34H9.92V1.08h29.67V48.42Z" stroke-width="0"/><path d="M12.8,16.47h23.89c.28,0,.5-.22,.5-.5V4.07c0-.28-.22-.5-.5-.5H12.8c-.28,0-.5,.22-.5,.5V15.97c0,.28,.22,.5,.5,.5Zm.5-11.89h22.89V15.47H13.3V4.57Z" stroke-width="0"/><path d="M34.39,24.31c1.31,0,2.38-1.07,2.38-2.37s-1.07-2.37-2.38-2.37-2.37,1.07-2.37,2.37,1.07,2.37,2.37,2.37Zm0-3.75c.76,0,1.38,.62,1.38,1.37s-.62,1.37-1.38,1.37-1.37-.62-1.37-1.37,.62-1.37,1.37-1.37Z" stroke-width="0"/><path d="M34.39,31.27c1.31,0,2.38-1.07,2.38-2.37s-1.07-2.38-2.38-2.38-2.37,1.07-2.37,2.38,1.07,2.37,2.37,2.37Zm0-3.75c.76,0,1.38,.62,1.38,1.38s-.62,1.37-1.38,1.37-1.37-.62-1.37-1.37,.62-1.38,1.37-1.38Z" stroke-width="0"/><path d="M34.71,33.74c-1.27,0-2.31,1.04-2.31,2.31v7.1c0,1.27,1.04,2.31,2.31,2.31s2.31-1.04,2.31-2.31v-7.1c0-1.27-1.04-2.31-2.31-2.31Zm1.31,9.41c0,.72-.59,1.31-1.31,1.31s-1.31-.59-1.31-1.31v-7.1c0-.72,.59-1.31,1.31-1.31s1.31,.59,1.31,1.31v7.1Z" stroke-width="0"/><path d="M15.36,19.81c-1.31,0-2.38,1.07-2.38,2.37s1.07,2.37,2.38,2.37,2.37-1.07,2.37-2.37-1.07-2.37-2.37-2.37Zm0,3.75c-.76,0-1.38-.62-1.38-1.37s.62-1.37,1.38-1.37,1.37,.62,1.37,1.37-.62,1.37-1.37,1.37Z" stroke-width="0"/><path d="M21.79,19.81c-1.31,0-2.38,1.07-2.38,2.37s1.07,2.37,2.38,2.37,2.37-1.07,2.37-2.37-1.07-2.37-2.37-2.37Zm0,3.75c-.76,0-1.38-.62-1.38-1.37s.62-1.37,1.38-1.37,1.37,.62,1.37,1.37-.62,1.37-1.37,1.37Z" stroke-width="0"/><path d="M28.21,19.81c-1.31,0-2.37,1.07-2.37,2.37s1.07,2.37,2.37,2.37,2.38-1.07,2.38-2.37-1.07-2.37-2.38-2.37Zm0,3.75c-.76,0-1.37-.62-1.37-1.37s.62-1.37,1.37-1.37,1.38,.62,1.38,1.37-.62,1.37-1.38,1.37Z" stroke-width="0"/><path d="M15.36,26.77c-1.31,0-2.38,1.07-2.38,2.38s1.07,2.37,2.38,2.37,2.37-1.07,2.37-2.37-1.07-2.38-2.37-2.38Zm0,3.75c-.76,0-1.38-.62-1.38-1.37s.62-1.38,1.38-1.38,1.37,.62,1.37,1.38-.62,1.37-1.37,1.37Z" stroke-width="0"/><path d="M21.79,26.77c-1.31,0-2.38,1.07-2.38,2.38s1.07,2.37,2.38,2.37,2.37-1.07,2.37-2.37-1.07-2.38-2.37-2.38Zm0,3.75c-.76,0-1.38-.62-1.38-1.37s.62-1.38,1.38-1.38,1.37,.62,1.37,1.38-.62,1.37-1.37,1.37Z" stroke-width="0"/><path d="M28.21,26.77c-1.31,0-2.37,1.07-2.37,2.38s1.07,2.37,2.37,2.37,2.38-1.07,2.38-2.37-1.07-2.38-2.38-2.38Zm0,3.75c-.76,0-1.37-.62-1.37-1.37s.62-1.38,1.37-1.38,1.38,.62,1.38,1.38-.62,1.37-1.38,1.37Z" stroke-width="0"/><path d="M15.36,33.74c-1.31,0-2.38,1.07-2.38,2.37s1.07,2.37,2.38,2.37,2.37-1.07,2.37-2.37-1.07-2.37-2.37-2.37Zm0,3.75c-.76,0-1.38-.62-1.38-1.37s.62-1.37,1.38-1.37,1.37,.62,1.37,1.37-.62,1.37-1.37,1.37Z" stroke-width="0"/><path d="M21.79,33.74c-1.31,0-2.38,1.07-2.38,2.37s1.07,2.37,2.38,2.37,2.37-1.07,2.37-2.37-1.07-2.37-2.37-2.37Zm0,3.75c-.76,0-1.38-.62-1.38-1.37s.62-1.37,1.38-1.37,1.37,.62,1.37,1.37-.62,1.37-1.37,1.37Z" stroke-width="0"/><path d="M28.21,33.74c-1.31,0-2.37,1.07-2.37,2.37s1.07,2.37,2.37,2.37,2.38-1.07,2.38-2.37-1.07-2.37-2.38-2.37Zm0,3.75c-.76,0-1.37-.62-1.37-1.37s.62-1.37,1.37-1.37,1.38,.62,1.38,1.37-.62,1.37-1.38,1.37Z" stroke-width="0"/><path d="M15.36,40.71c-1.31,0-2.38,1.07-2.38,2.37s1.07,2.37,2.38,2.37,2.37-1.07,2.37-2.37-1.07-2.37-2.37-2.37Zm0,3.75c-.76,0-1.38-.62-1.38-1.37s.62-1.37,1.38-1.37,1.37,.62,1.37,1.37-.62,1.37-1.37,1.37Z" stroke-width="0"/><path d="M21.79,40.71c-1.31,0-2.38,1.07-2.38,2.37s1.07,2.37,2.38,2.37,2.37-1.07,2.37-2.37-1.07-2.37-2.37-2.37Zm0,3.75c-.76,0-1.38-.62-1.38-1.37s.62-1.37,1.38-1.37,1.37,.62,1.37,1.37-.62,1.37-1.37,1.37Z" stroke-width="0"/><path d="M28.21,40.71c-1.31,0-2.37,1.07-2.37,2.37s1.07,2.37,2.37,2.37,2.38-1.07,2.38-2.37-1.07-2.37-2.38-2.37Zm0,3.75c-.76,0-1.37-.62-1.37-1.37s.62-1.37,1.37-1.37,1.38,.62,1.38,1.37-.62,1.37-1.38,1.37Z" stroke-width="0"/></g></g></g><g id="uuid-65f518f0-b521-4aa3-a837-7aa0fe475422"></g></svg>