<?xml version="1.0" encoding="UTF-8"?><svg width="70" height="70" xmlns="http://www.w3.org/2000/svg" viewBox="-10 -10 70 70"><rect x="-10" y="-10" width="70" height="70" fill="white"/><g id="uuid-9364b441-18d9-43d2-bde8-e9a379326ee0"><g><polygon points="44.52 9.91 44.52 9.88 6.48 9.88 6.48 9.91 2.97 9.91 2.97 15.74 49.53 15.74 49.53 9.91 44.52 9.91" fill="#ffcd00"/><rect x="7.98" y="21.47" width="36.54" height="20.69" fill="#ffcd00"/><path d="M48.53,7.41h-7.16v-1.51c0-1.28-1.04-2.32-2.32-2.32s-2.32,1.04-2.32,2.32v1.51H13.21v-1.51c0-1.28-1.04-2.32-2.32-2.32s-2.32,1.04-2.32,2.32v1.51H.97c-.28,0-.5,.22-.5,.5V45.93c0,.28,.22,.5,.5,.5H48.53c.28,0,.5-.22,.5-.5V7.91c0-.28-.22-.5-.5-.5Zm-9.48-2.84c.73,0,1.32,.59,1.32,1.32v2.66c0,.73-.59,1.32-1.32,1.32s-1.32-.59-1.32-1.32v-2.66c0-.73,.59-1.32,1.32-1.32Zm-28.16,0c.73,0,1.32,.59,1.32,1.32v2.66c0,.73-.59,1.32-1.32,1.32s-1.32-.59-1.32-1.32v-2.66c0-.73,.59-1.32,1.32-1.32Zm-2.32,3.84v.15c0,1.28,1.04,2.32,2.32,2.32s2.32-1.04,2.32-2.32v-.15h23.51v.15c0,1.28,1.04,2.32,2.32,2.32s2.32-1.04,2.32-2.32v-.15h6.66v5.84H1.47v-5.84h7.09ZM1.47,45.43V15.24H48.03v30.19H1.47Z" stroke-width="0"/><path d="M43.52,18.97H5.98c-.28,0-.5,.22-.5,.5v21.69c0,.28,.22,.5,.5,.5H43.52c.28,0,.5-.22,.5-.5V19.47c0-.28-.22-.5-.5-.5ZM6.48,27.31h6.52v6.01H6.48v-6.01Zm7.52,0h6.5v6.01h-6.5v-6.01Zm14-1h-6.5v-6.34h6.5v6.34Zm1-6.34h6.5v6.34h-6.5v-6.34Zm-1,7.34v6.01h-6.5v-6.01h6.5Zm-7.5-1h-6.5v-6.34h6.5v6.34Zm0,8.01v6.34h-6.5v-6.34h6.5Zm1,0h6.5v6.34h-6.5v-6.34Zm7.5,0h6.5v6.34h-6.5v-6.34Zm0-1v-6.01h6.5v6.01h-6.5Zm7.5-6.01h6.51v6.01h-6.51v-6.01Zm6.51-1h-6.51v-6.34h6.51v6.34Zm-30.02-6.34v6.34H6.48v-6.34h6.52Zm-6.52,14.35h6.52v6.34H6.48v-6.34Zm30.02,6.34v-6.34h6.51v6.34h-6.51Z" stroke-width="0"/></g></g><g id="uuid-517c7d5a-df34-46b1-af56-7a90eea0a61c"></g></svg>