<?xml version="1.0" encoding="UTF-8"?><svg width="70" height="70" id="uuid-fd5ea8d7-259d-4d84-9939-58bcc51a5c5c" xmlns="http://www.w3.org/2000/svg" viewBox="-10 -10 70 70"><rect x="-10" y="-10" width="70" height="70" fill="white"/><path d="M46.46,15.82h-10.68l-1.85-6.05-15.41-.06c-.59,2.04-1.19,4.07-1.78,6.11h-3.82v-2.61H6.71v2.61h-.67c-1.84,0-3.34,1.5-3.34,3.34v20.27c0,1.84,1.5,3.34,3.34,3.34H46.46c1.84,0,3.34-1.5,3.34-3.34V19.17c0-1.84-1.5-3.34-3.34-3.34Zm-21.71,20.13c-4.64,0-8.42-3.65-8.42-8.15s3.78-8.15,8.42-8.15,8.42,3.65,8.42,8.15-3.78,8.15-8.42,8.15Z" fill="#ffcd00" stroke-width="0"/><g><path d="M44.96,13.32h-9.91l-1.77-5.69c-.06-.21-.26-.35-.48-.35l-16.15-.06h0c-.22,0-.42,.15-.48,.36l-1.72,5.75h-2.03v-2.11c0-.28-.22-.5-.5-.5H4.71c-.28,0-.5,.22-.5,.5v2.14C1.97,13.53,.2,15.38,.2,17.67v20.27c0,2.4,1.95,4.34,4.34,4.34H44.96c2.4,0,4.34-1.95,4.34-4.34V17.67c0-2.4-1.95-4.34-4.34-4.34Zm-27.94-5.11l15.41,.06,1.57,5.05H15.49l1.53-5.11Zm-11.8,3.5h6.2v1.61H5.21v-1.61ZM1.2,21.85H13.71c-1.01,1.76-1.6,3.79-1.6,5.95,0,1.53,.3,2.99,.83,4.34H1.2v-10.29Zm23.55-5.31c6.42,0,11.64,5.05,11.64,11.26s-5.22,11.26-11.64,11.26-11.64-5.05-11.64-11.26,5.22-11.26,11.64-11.26Zm23.55,21.4c0,1.84-1.5,3.34-3.34,3.34H4.54c-1.84,0-3.34-1.5-3.34-3.34v-4.8H13.39c2.05,4.09,6.36,6.92,11.36,6.92s9.31-2.83,11.36-6.92h12.2v4.8Zm0-5.8h-11.75c.53-1.35,.83-2.81,.83-4.34,0-2.16-.58-4.19-1.6-5.95h12.51v10.29Zm0-11.29h-13.16c-2.28-3.2-6.09-5.31-10.4-5.31s-8.12,2.11-10.4,5.31H1.2v-3.18c0-1.84,1.5-3.34,3.34-3.34H44.96c1.84,0,3.34,1.5,3.34,3.34v3.18Z" stroke-width="0"/><path d="M24.75,18.66c-5.19,0-9.42,4.1-9.42,9.15s4.23,9.15,9.42,9.15,9.42-4.1,9.42-9.15-4.23-9.15-9.42-9.15Zm0,17.29c-4.64,0-8.42-3.65-8.42-8.15s3.78-8.15,8.42-8.15,8.42,3.65,8.42,8.15-3.78,8.15-8.42,8.15Z" stroke-width="0"/><path d="M27.04,22.93c.57,.19,1.65,.67,2.48,1.78,.89,1.19,1.02,2.45,1.02,3.1,0,.28,.22,.5,.5,.5h0c.27,0,.5-.22,.5-.5,0-.77-.15-2.28-1.21-3.7-.99-1.33-2.28-1.9-2.96-2.13-.26-.09-.55,.06-.63,.32-.09,.26,.05,.54,.32,.63Z" stroke-width="0"/><path d="M28.42,10.27h-7.35c-.28,0-.5,.22-.5,.5s.22,.5,.5,.5h7.35c.28,0,.5-.22,.5-.5s-.22-.5-.5-.5Z" stroke-width="0"/></g></svg>