<?xml version="1.0" encoding="utf-8"?> <!-- Generator: Adobe Illustrator 27.7.0, SVG Export Plug-In . SVG Version: 6.00 Build 0) --> <svg width="70" height="70" version="1.1" xmlns="http://www.w3.org/2000/svg" xmlns:xlink="http://www.w3.org/1999/xlink" x="0px" y="0px" viewBox="-10 -10 70 70" style="enable-background:new 0 0 50 50;" xml:space="preserve"><rect x="-10" y="-10" width="70" height="70" fill="white"/> <style type="text/css"> .st0{fill:#FFCD00;} .st1{display:none;} .st2{display:inline;fill:none;stroke:#EA008A;stroke-width:0.2;stroke-miterlimit:10;} .st3{font-family:'Roboto-Regular';} .st4{font-size:6px;} </style> <g id="Color"> <path class="st0" d="M10.1892,26.8468L8.088,25.9365c-0.3652-0.1631-0.7441-0.0762-0.9995,0.0244 c-0.7329,0.2881-1.4497,1.0723-1.8706,2.0479c-0.3607,0.8359-0.4529,1.6945-0.3217,2.3718l5.8867,2.6291 C10.2252,31.2488,10.0408,29.1801,10.1892,26.8468z" stroke-width="0"/> <path class="st0" d="M42.6919,47.9375c-1.2554-0.5547-1.5967-2.5811-0.7612-4.5166c0.399-0.924,1.0331-1.6988,1.7307-2.1678 l-7.4183-3.2015c0.6951-0.5515,1.3078-1.1627,1.795-1.8592c0.1464-0.2092,0.2591-0.439,0.3861-0.66l8.9055-3.9758 c0.9038-0.3994,1.1104-2.0234,0.4526-3.5479c-0.4209-0.9756-1.1377-1.7598-1.8706-2.0479 c-0.2559-0.1006-0.6338-0.1855-0.9966-0.0264l-5.3941,2.3383c-0.2123-1.5233-0.6174-3.1565-1.2622-4.9223l-0.0962-0.2646 c-1.3433-3.6689-2.856-7.8047-1.0229-14.7383c-3.7539,2.1074-6.4976,5.6406-6.958,9.0674c-0.0283,0.2109-0.187,0.3809-0.395,0.4238 c-0.209,0.0459-0.4209-0.0518-0.5298-0.2344c-2.3193-3.8877-3.3857-8.3877-3.0601-12.8145 c-3.9658,4.3291-5.9058,10.5898-5.2212,17.042c0.0273,0.2588-0.1475,0.4951-0.4028,0.5439 c-0.2559,0.0459-0.5059-0.1055-0.5757-0.3564c-1.2466-4.4404-4.8794-6.6797-7.0259-7.791 c1.1377,4.0625,0.7266,7.6299,0.1499,10.624c-1.0747,5.5781-0.479,9.7881,1.7705,12.5117c0.2789,0.3378,0.5897,0.6478,0.921,0.9398 l-0.6705,0.0695l-8.1057,3.4982c0.1993,0.214,0.3931,0.456,0.572,0.7414c0.7696,0.4271,1.4977,1.2351,1.9609,2.3082 c0.5373,1.2451,0.5893,2.5241,0.225,3.4271c-0.1165,0.2888,0.1838,0.5662,0.4681,0.4392l15.8179-7.0642l16.1373,7.2069 c0.7406,0.3231,1.4936-0.5006,1.3763-0.8007L42.6919,47.9375z M28.378,37.7529c-1.0088,1.0869-2.4019,1.7354-3.7271,1.7354 c-0.3258,0-0.6292-0.0336-0.9202-0.085c-0.2565-0.0395-0.4949-0.1015-0.7286-0.1716c-0.0001,0-0.0001-0.0001-0.0001-0.0001 c-0.9456-0.2838-1.7062-0.7927-2.2783-1.4369l-0.0001-0.0001c-0.3644-0.4103-0.6589-0.8628-0.8713-1.3441 c-0.0126-0.028-0.0203-0.057-0.0324-0.0852c-0.0886-0.2106-0.1724-0.4218-0.2321-0.6371 c-0.0722-0.2534-0.1252-0.5085-0.1556-0.7623c-0.1392-1.1562,0.1685-2.1631,0.5249-3.3291 c0.4976-1.6289,1.0547-3.4521,0.5698-6.1494c1.374,0.792,2.4429,1.9941,3.3892,3.7842c0.1113,0.2109,0.3564,0.3154,0.5879,0.2451 c0.229-0.0703,0.3765-0.293,0.3511-0.5312c-0.2612-2.458,0.4917-5.0986,1.9639-7.1143c-0.1982,2.751,0.7646,5.0459,1.6313,7.1123 c0.6582,1.5693,1.2803,3.0508,1.397,4.6143C29.962,35.1328,29.44,36.6074,28.378,37.7529z" stroke-width="0"/> </g> <g id="ICONS_00000031165542127692736420000002692518830807990202_"> <g> <path d="M45.9234,40.457c-0.0004-0.0002-0.0007-0.0002-0.0011-0.0004c-0.0009-0.0004-0.0014-0.0012-0.0023-0.0016l-9.4777-4.0895 c0.3308-0.3485,0.6428-0.7108,0.9156-1.1009c0.0994-0.1422,0.1714-0.3001,0.2629-0.4469l8.6151-3.848 c1.4414-0.6367,1.8652-2.7705,0.9644-4.8574c-0.5308-1.2295-1.4365-2.1953-2.4233-2.582c-0.6187-0.2441-1.23-0.2451-1.7622-0.0117 l-4.2169,1.8274c-0.2504-1.2183-0.6085-2.4941-1.0995-3.8391l-0.0967-0.2637c-1.3599-3.7158-2.9009-7.9277-0.6875-15.2217 c0.0571-0.1895-0.002-0.3945-0.1514-0.5234c-0.1499-0.1299-0.3618-0.1602-0.54-0.0742c-4.1221,1.9395-7.229,5.375-8.251,9.0078 c-1.979-3.8467-2.7339-8.2148-2.1294-12.4404c0.0298-0.21-0.0757-0.416-0.2642-0.5137c-0.188-0.0977-0.417-0.0674-0.5728,0.0781 c-4.2163,3.9443-6.6108,9.7832-6.6641,16.0166c-2.0493-3.5859-5.5303-5.3047-7.1895-6.124l-0.2852-0.1416 c-0.1812-0.0898-0.3999-0.0635-0.5532,0.0713c-0.1528,0.1338-0.2095,0.3467-0.1431,0.5391 c1.4907,4.3145,1.0732,8.1064,0.4683,11.2461c-0.12,0.623-0.2089,1.2217-0.2885,1.8132l-3.3619-1.4558 c-0.5352-0.2373-1.145-0.2324-1.7651,0.0098c-0.9868,0.3867-1.8926,1.3525-2.4233,2.582 c-0.9009,2.0869-0.4771,4.2207,0.9624,4.8564l7.5262,3.3612c0.3644,0.7905,0.798,1.5232,1.3322,2.17 c0.056,0.0678,0.1238,0.1248,0.1816,0.1909l-8.7222,3.7642c-0.0009,0.0004-0.0014,0.0012-0.0023,0.0016 c-0.0004,0.0002-0.0007,0.0002-0.0011,0.0004c-1.5308,0.6748-1.978,2.9463-1.0176,5.1709 c0.5664,1.3125,1.5322,2.3428,2.584,2.7549c0.3325,0.1309,0.6621,0.1963,0.9805,0.1963c0.3096,0,0.6084-0.0615,0.8877-0.1855 c0.0005-0.0002,0.0009-0.0006,0.0013-0.0009c0.0002-0.0001,0.0004-0.0001,0.0006-0.0001l17.4688-7.8018 c0.007-0.0031,0.0112-0.0095,0.0181-0.0129c0.0068,0.0034,0.011,0.0098,0.0181,0.0129l17.4687,7.8018 c0.0004,0.0002,0.0009,0.0001,0.0013,0.0003s0.0007,0.0005,0.0011,0.0007c0.2793,0.124,0.5776,0.1855,0.8872,0.1855 c0.3184,0,0.6484-0.0654,0.9805-0.1963c1.0518-0.4121,2.0176-1.4424,2.584-2.7549C47.9014,43.4033,47.4541,41.1318,45.9234,40.457 z M41.1372,46.6954l-14.1549-6.3217c3.6609-0.4116,6.5827-1.516,8.649-3.269l8.1227,3.5049 c-0.9321,0.4775-1.7703,1.4278-2.2823,2.6131C40.936,44.4643,40.8526,45.7103,41.1372,46.6954z M8.5284,43.2227 c-0.512-1.1854-1.3502-2.1357-2.2824-2.6132l7.2932-3.1475c2.1016,1.9125,5.1633,2.9357,9.1003,3.0805L8.863,46.6953 C9.1474,45.7103,9.0641,44.4642,8.5284,43.2227z M20.5269,25.4873c1.374,0.792,2.4429,1.9941,3.3892,3.7842 c0.1113,0.2109,0.3564,0.3154,0.5879,0.2451c0.229-0.0703,0.3765-0.293,0.3511-0.5312c-0.2612-2.458,0.4917-5.0986,1.9639-7.1143 c-0.1982,2.751,0.7646,5.0459,1.6313,7.1123c0.6582,1.5693,1.2803,3.0508,1.397,4.6143c0.1147,1.5352-0.4072,3.0098-1.4692,4.1553 c-1.0088,1.0869-2.4019,1.7354-3.7271,1.7354c-3.2134,0-4.958-2.3447-5.2188-4.5225c-0.1392-1.1562,0.1685-2.1631,0.5249-3.3291 C20.4546,30.0078,21.0118,28.1846,20.5269,25.4873z M43.4151,24.4346c0.3628-0.1592,0.7407-0.0742,0.9966,0.0264 c0.7329,0.2881,1.4497,1.0723,1.8706,2.0479c0.6577,1.5244,0.4512,3.1484-0.4526,3.5479l-7.4807,3.3397 c0.8276-1.999,1.0347-4.3497,0.6209-7.0348L43.4151,24.4346z M4.1685,30.0557c-0.9019-0.3984-1.1084-2.0225-0.4507-3.5469 c0.4209-0.9756,1.1377-1.7598,1.8706-2.0479c0.2554-0.1006,0.6343-0.1875,0.9995-0.0244l3.649,1.5808 c-0.2603,2.6859-0.0782,5.0217,0.5458,6.9924L4.1685,30.0557z M11.6211,23.3525c0.5762-2.9941,0.9878-6.5615-0.1499-10.625 c2.1455,1.1123,5.7793,3.3516,7.0259,7.792c0.0698,0.251,0.3198,0.4023,0.5757,0.3564c0.2554-0.0488,0.4302-0.2852,0.4028-0.5439 c-0.6846-6.4521,1.2554-12.7129,5.2212-17.043c-0.3257,4.4277,0.7407,8.9277,3.0601,12.8154 c0.1089,0.1826,0.3208,0.2803,0.5298,0.2344c0.208-0.043,0.3667-0.2129,0.395-0.4238c0.4604-3.4268,3.2041-6.96,6.958-9.0664 c-1.8335,6.9326-0.3203,11.0684,1.0229,14.7383l0.0962,0.2637c1.9941,5.4609,1.9199,9.7812-0.2202,12.8408 c-1.6285,2.3278-4.4584,3.8455-8.2772,4.504c0.3009-0.2294,0.5881-0.4811,0.8494-0.7628 c1.2534-1.3506,1.8691-3.0947,1.7334-4.9092c-0.1289-1.7256-0.7812-3.2803-1.4717-4.9268 c-1.0322-2.4609-2.0996-5.0049-1.3052-8.2334c0.0532-0.2148-0.042-0.4395-0.2339-0.5518 c-0.1924-0.1094-0.4346-0.084-0.5957,0.0703c-1.957,1.8564-3.1997,4.5986-3.4033,7.3408 c-1.0493-1.4717-2.2729-2.4561-3.8262-3.1045c-0.1753-0.0713-0.376-0.04-0.52,0.084c-0.1436,0.125-0.2041,0.3193-0.1562,0.5029 c0.7783,3.0078,0.1885,4.9375-0.3315,6.6396c-0.373,1.2207-0.7256,2.374-0.5615,3.7402c0.1926,1.6068,1.0604,3.2872,2.5941,4.3394 c-3.4229-0.386-5.9971-1.5693-7.6415-3.561C11.1421,33.1396,10.5464,28.9297,11.6211,23.3525z M6.0083,47.4521 c-0.7969-0.3125-1.5747-1.1631-2.0312-2.2207c-0.7143-1.655-0.485-3.4207,0.5009-3.859l0.006-0.0026 c0.1603-0.0699,0.3234-0.0974,0.4789-0.0974c0.2324,0,0.4487,0.0605,0.6157,0.126c0.7969,0.3125,1.5752,1.1631,2.0317,2.2207 c0.7147,1.6559,0.4844,3.4229-0.5024,3.86l-0.0012,0.0005C6.7071,47.6559,6.2884,47.5624,6.0083,47.4521z M46.023,45.2314 c-0.4565,1.0576-1.2344,1.9082-2.0312,2.2207c-0.2803,0.1094-0.6987,0.2031-1.0986,0.0273 c-0.9878-0.4365-1.2183-2.2041-0.5034-3.8604c0.4565-1.0576,1.2349-1.9082,2.0317-2.2207c0.2781-0.11,0.694-0.204,1.0953-0.0283 l0.0053,0.0023C46.508,41.8107,46.7373,43.5765,46.023,45.2314z" stroke-width="0"/> </g> </g> <g id="Margin" class="st1"> <rect x="1" y="1" class="st2" /> </g> <g id="Guides" class="st1"> </g> <g id="LABELS"> <g> <g> <g> <g> <g> <g> <g> <g> </g> </g> </g> </g> </g> </g> </g> </g> </g> </svg> 