<?xml version="1.0" encoding="UTF-8"?><svg width="70" height="70" xmlns="http://www.w3.org/2000/svg" viewBox="-10 -10 70 70"><rect x="-10" y="-10" width="70" height="70" fill="white"/><g id="uuid-034ebf84-9620-4568-b410-610b9a0df4bf"><g><path d="M27.04,4.44c-.24,0-.47-.01-.71-.01-5.7,0-11.1,2.13-15.27,6.05-8.97,8.43-9.41,22.58-.98,31.55,8.43,8.97,22.58,9.41,31.55,.98,4.34-4.08,6.84-9.61,7.03-15.57,.19-5.96-1.96-11.63-6.04-15.98-4.08-4.34-9.61-6.84-15.57-7.03Zm10.41,37.42c-3.29,2.43-7.16,3.61-11,3.61-4.98,0-9.93-1.99-13.57-5.87-4.24-4.51-5.95-10.81-4.59-16.85,.64-2.84,1.97-5.53,3.83-7.77,.13-.16,.34-.22,.54-.16l.11,.04c.08,.03,.15,.07,.21,.13l24.54,26.11c.1,.1,.15,.25,.13,.39s-.09,.27-.2,.36Zm3.49-3.28c-.09,.11-.23,.17-.37,.18h-.01c-.14,0-.27-.06-.36-.16L15.66,12.48c-.06-.06-.1-.14-.12-.22l-.03-.12c-.05-.2,.02-.41,.19-.53,2.35-1.72,5.11-2.87,7.99-3.34,6.11-.99,12.29,1.12,16.53,5.63,6.44,6.86,6.75,17.46,.72,24.66Z" fill="#ffcd00" stroke-width="0"/><path d="M41.56,9.06C37.31,4.53,31.54,1.92,25.32,1.73c-6.22-.2-12.13,2.05-16.67,6.3C-.7,16.83-1.16,31.59,7.63,40.94c4.57,4.87,10.77,7.33,16.97,7.33,5.72,0,11.45-2.09,15.93-6.3,4.53-4.26,7.13-10.03,7.33-16.24,.19-6.21-2.05-12.13-6.3-16.67Zm-1.68,32.21c-8.97,8.43-23.12,7.99-31.55-.98C-.09,31.32,.35,17.16,9.31,8.73c4.17-3.92,9.57-6.05,15.27-6.05,.24,0,.47,0,.71,.01,5.96,.19,11.49,2.68,15.57,7.03,4.08,4.34,6.23,10.02,6.04,15.98-.19,5.96-2.68,11.49-7.03,15.57Z" stroke-width="0"/><path d="M21.94,6.54c-2.88,.46-5.64,1.62-7.99,3.34-.17,.12-.24,.33-.19,.53l.03,.12c.02,.08,.06,.16,.12,.22l24.54,26.11c.09,.1,.23,.16,.36,.16h.01c.14,0,.28-.07,.37-.18,6.03-7.2,5.72-17.81-.72-24.66-4.24-4.51-10.42-6.61-16.53-5.63Zm16.84,29.21L14.95,10.39c2.13-1.46,4.59-2.45,7.15-2.86,5.78-.93,11.63,1.06,15.64,5.32,5.97,6.35,6.38,16.1,1.04,22.9Z" stroke-width="0"/><path d="M11.23,13.25c-.06-.06-.13-.11-.21-.13l-.11-.04c-.19-.06-.41,0-.54,.16-1.86,2.24-3.19,4.92-3.83,7.77-1.36,6.04,.35,12.34,4.59,16.85,3.64,3.87,8.59,5.87,13.57,5.87,3.84,0,7.71-1.19,11-3.61,.12-.08,.19-.21,.2-.36s-.04-.28-.13-.39L11.23,13.25Zm.63,23.92c-4.01-4.27-5.63-10.23-4.34-15.94,.57-2.53,1.71-4.92,3.3-6.95l23.83,25.36c-7.12,4.9-16.82,3.89-22.79-2.46Z" stroke-width="0"/></g></g><g id="uuid-aa7c52d3-1f0e-4afc-804f-932c2aa860b8"></g></svg>