<?xml version="1.0" encoding="UTF-8"?><svg width="70" height="70" xmlns="http://www.w3.org/2000/svg" viewBox="-10 -10 70 70"><rect x="-10" y="-10" width="70" height="70" fill="white"/><g id="uuid-f4200335-fb30-4b6a-abf6-1651efe6306a"><g><path d="M23.54,12.21v3.27l3.92,2.29v4.45l-3.92-2.29v6.79l3.92,2.29v4.43l-3.92-2.29v6.79l3.92,2.29v4.48l-3.92-2.29v7.12h5.42V12.21h-5.42Z" fill="#ffcd00" stroke-width="0"/><path d="M27.6,7.81c0-1.67-.96-3.5-1.52-4.43-.56,.92-1.51,2.72-1.51,4.39,0,2.36,.79,3.44,1.52,3.44,.89,0,1.52-1.4,1.52-3.39Z" fill="#ffcd00" stroke-width="0"/><path d="M27.96,9.71h-1.67c.48-.69,.81-1.78,.81-3.39,0-2.68-2.02-5.52-2.11-5.64-.09-.13-.24-.21-.4-.21h0c-.16,0-.31,.08-.4,.2-.09,.12-2.11,2.91-2.11,5.6,0,1.63,.34,2.74,.82,3.44h-1.35c-.28,0-.5,.22-.5,.5V48.53c0,.28,.22,.5,.5,.5h6.42c.28,0,.5-.22,.5-.5V10.21c0-.28-.22-.5-.5-.5Zm-.5,18.14l-5.42-3.17v-4.48l5.42,3.17v4.48Zm0-5.63l-5.42-3.17v-4.45l5.42,3.17v4.45Zm-5.42,14.85l5.42,3.17v4.48l-5.42-3.17v-4.47Zm0-1.16v-4.48l5.42,3.17v4.48l-5.42-3.17Zm0-5.63v-4.43l5.42,3.17v4.43l-5.42-3.17Zm1.03-24.01c0-1.66,.95-3.47,1.51-4.39,.56,.93,1.52,2.76,1.52,4.43,0,2-.62,3.39-1.52,3.39-.73,0-1.52-1.08-1.52-3.44Zm4.39,4.44v5.9l-5.42-3.17v-2.73h5.42Zm-5.42,37.33v-5.34l5.42,3.17v2.17h-5.42Z" stroke-width="0"/></g></g><g id="uuid-82772403-89d3-4e33-a633-aaebbdb57f6b"></g></svg>