<?xml version="1.0" encoding="UTF-8"?><svg width="70" height="70" xmlns="http://www.w3.org/2000/svg" viewBox="-10 -10 70 70"><rect x="-10" y="-10" width="70" height="70" fill="white"/><g id="uuid-6d5de8cc-5474-421f-9d37-108006d3ff89"><path d="M26,19.61c-4.72,0-9.66-.86-11.72-2.47v22.99c0,1.31,4.46,3.15,11.72,3.15s11.72-1.84,11.72-3.15v-22.99c-2.06,1.61-7,2.47-11.72,2.47ZM24.99,35.77c-3.53,0-6.39-2.86-6.39-6.39s2.86-6.39,6.39-6.39,6.39,2.86,6.39,6.39-2.86,6.39-6.39,6.39Z" fill="#ffcd00" stroke-width="0"/></g><g id="uuid-51cfe9a8-df47-401a-98c5-7540e844628a"><path d="M25.64,8.91c-.55.24-1.15.37-1.73.37-.16,0-.32,0-.48-.03-1.15-.15-1.98-.77-2.22-1.67-.06-.24-.08-.48-.06-.71.04-.36.17-.71.38-1.04.2-.29.45-.56.77-.81.58-.44,1.32-.72,2.08-.8l6.8-.72c.97-.1,1.56.41,1.7.96.15.55-.1,1.28-.99,1.67l-.29.13-1.65.74-4.31,1.91ZM22.2,6.78c-.05.18-.07.37-.02.54.13.49.64.84,1.38.94.54.06,1.14-.03,1.67-.27l2.71-1.2,1.84-.81,1.7-.76c.35-.16.47-.37.44-.5-.04-.14-.25-.26-.63-.22l-6.8.71c-.53.06-1.03.24-1.45.52-.04.03-.09.06-.14.09-.38.29-.61.62-.7.96Z" stroke-width="0"/><path d="M30.93,25.55c-1.26-1.94-3.44-3.23-5.93-3.23-3.9,0-7.07,3.17-7.07,7.07,0,1.98.82,3.77,2.14,5.05,1.27,1.24,3.01,2.01,4.93,2.01,3.9,0,7.07-3.17,7.07-7.06,0-1.42-.42-2.73-1.14-3.84ZM25,35.45c-3.13,0-5.73-2.4-6.04-5.45-.02-.2-.03-.4-.03-.61,0-3.35,2.73-6.07,6.07-6.07.61,0,1.21.09,1.77.26,2.49.76,4.3,3.07,4.3,5.81,0,3.34-2.72,6.06-6.07,6.06Z" stroke-width="0"/><path d="M25.66,10.69c-2.82.75-5.81,1.21-8.25,1.21-.39,0-.75-.01-1.1-.04,2.02.64,4.99,1.12,8.69,1.12,7.26,0,11.72-1.83,11.72-3.15,0-.68-1.22-1.51-3.41-2.14-2.04,1.16-4.72,2.21-7.65,3ZM25,18.39c-4.72,0-9.66-.86-11.72-2.47v22.99c0,1.31,4.46,3.15,11.72,3.15s11.72-1.84,11.72-3.15V15.92c-2.06,1.61-7,2.47-11.72,2.47ZM25,13.98c-4.72,0-9.66-.85-11.72-2.46v2.72c0,1.31,4.46,3.15,11.72,3.15s11.72-1.84,11.72-3.15v-2.72c-2.06,1.61-7,2.46-11.72,2.46ZM12.28,9.82c-.45-2.57,5.38-5.59,11.23-7.15,3.2-.86,6.32-1.29,8.77-1.22,2.69.08,4.28.75,4.59,1.94.29,1.09-.56,2.32-2.44,3.6,1.99.69,3.29,1.64,3.29,2.84v33.34c0,2.69-6.55,4.15-12.72,4.15s-12.72-1.46-12.72-4.15V9.83h0ZM13.26,9.7s.03.04.03.06c.48,1.23,5.21,1.8,12.11-.04,2.41-.65,4.64-1.48,6.47-2.4.46-.23.89-.47,1.3-.71.05-.03.11-.06.17-.1,2.11-1.3,2.71-2.33,2.57-2.86s-1.18-1.13-3.66-1.2c-.16,0-.33,0-.51,0-2.27,0-5.08.42-7.97,1.19-3.57.96-6.32,2.19-8.11,3.33-1.72,1.1-2.56,2.12-2.4,2.74ZM13.28,43.17c0,1.31,4.46,3.15,11.72,3.15s11.72-1.84,11.72-3.15v-2.58c-2.06,1.61-7,2.47-11.72,2.47s-9.66-.86-11.72-2.47v2.58Z" stroke-width="0"/><ellipse cx="24.49" cy="6.6" rx="1.38" ry=".62" transform="translate(-.86 7.4) rotate(-16.89)" stroke-width="0"/></g></svg>