<?xml version="1.0" encoding="utf-8"?> <!-- Generator: Adobe Illustrator 27.7.0, SVG Export Plug-In . SVG Version: 6.00 Build 0) --> <svg width="70" height="70" version="1.1" xmlns="http://www.w3.org/2000/svg" xmlns:xlink="http://www.w3.org/1999/xlink" x="0px" y="0px" viewBox="-10 -10 70 70" style="enable-background:new 0 0 50 50;" xml:space="preserve"><rect x="-10" y="-10" width="70" height="70" fill="white"/> <style type="text/css"> .st0{fill:#FFCD00;} .st1{display:none;} .st2{display:inline;fill:none;stroke:#EA008A;stroke-width:0.2;stroke-miterlimit:10;} .st3{font-family:'Roboto-Regular';} .st4{font-size:6px;} </style> <g id="Color"> <g> <path class="st0" d="M30.0513,29.5371c0.5913,4.2861,2.6021,7.9355,3.8257,8.647c1.0181,0.5923,1.8379-0.0293,2.9722-1.0444 c1.1387-1.019,1.8472-1.7656,1.3721-2.8428C37.6494,33.0024,34.2451,30.5996,30.0513,29.5371z" stroke-width="0"/> </g> <path class="st0" d="M25.5,29.6882" stroke-width="0"/> <path class="st0" d="M48.5986,17.6104c-1.0303,1.7051-2.8506,3.6196-5.3535,4.6201c-2.5137,1.0044-8.6309,1.5801-16.7827,1.5801 c-8.1523,0-14.2695-0.5762-16.7827-1.5801c-2.5034-1.001-4.3237-2.915-5.354-4.6201c-0.8911,2.0298-1.8677,6.6216,1.311,9.7388 c2.1025,2.061,6.3193,3.3389,20.8257,3.3389c0.7745,0,1.8066-0.0035,2.6451-0.0107c-0.2352-0.8369-0.4296-1.7223-0.5562-2.6402 c2.2407,0.5677,4.2507,1.5181,5.729,2.4775l0.7402-0.0254c6.8257-0.3789,10.3799-1.2891,12.2671-3.1401 C50.4663,24.2319,49.4897,19.6401,48.5986,17.6104z" stroke-width="0"/> </g> <g id="ICONS_00000031165542127692736420000002692518830807990202_"> <path d="M47.5356,14.8112c-0.0012-0.0021-0.0025-0.004-0.0037-0.006c-0.0065-0.0097-0.0132-0.0228-0.0197-0.0322 c-0.0093-0.0134-0.0252-0.0184-0.0355-0.0308c-0.0236-0.0283-0.0424-0.0598-0.0729-0.083 c-0.0163-0.0125-0.0358-0.0157-0.053-0.0259c-0.0244-0.0146-0.0479-0.0261-0.0745-0.0363 c-0.0594-0.0228-0.1194-0.0334-0.1813-0.0327c-0.0121,0.0002-0.022-0.0072-0.0344-0.0062 c-0.0037,0.0003-0.0065,0.0032-0.0101,0.0036c-0.0776,0.0079-0.1511,0.0346-0.2179,0.0777 c-0.017,0.0109-0.0286,0.026-0.0441,0.0389c-0.0292,0.0241-0.0614,0.0437-0.0853,0.0751 c-0.7983,1.0474-2.6001,2.4028-5.2646,3.0664c-2.418,0.6025-8.4233,0.9482-16.4761,0.9482c-1.422,0-2.7761-0.0114-4.062-0.0324 l-3.1628-3.5352l0.8913-1.3171c0.1284-0.1899,0.1113-0.4429-0.0415-0.6138l-1.7681-1.9766 c-0.0884-0.0986-0.2124-0.1582-0.3447-0.1655c-0.1333-0.0054-0.2622,0.0376-0.3613,0.1265L13.25,13.8154 c-0.2056,0.1841-0.2231,0.5-0.0391,0.7061l1.7681,1.9766c0.0972,0.1089,0.2339,0.1665,0.3726,0.1665 c0.0791,0,0.1592-0.0186,0.2324-0.0576l1.4081-0.7399l2.5425,2.8419c-5.3018-0.1224-9.212-0.4313-11.0483-0.889 c-2.665-0.6636-4.4673-2.019-5.2651-3.0664c-0.0239-0.0314-0.056-0.051-0.0853-0.0751c-0.0156-0.0129-0.0272-0.028-0.0441-0.0389 c-0.0668-0.0431-0.1403-0.0698-0.2179-0.0777c-0.0037-0.0004-0.0064-0.0033-0.0101-0.0036 c-0.0129-0.0011-0.0226,0.0065-0.0352,0.0062c-0.0609-0.0006-0.12,0.0095-0.1785,0.0316 c-0.0291,0.0109-0.0552,0.0235-0.0814,0.0397c-0.0156,0.0095-0.0333,0.0121-0.0482,0.0235 c-0.0298,0.0228-0.048,0.0536-0.0713,0.0812c-0.0108,0.013-0.0273,0.0183-0.0371,0.0325 c-0.0065,0.0095-0.0132,0.0225-0.0197,0.0322c-0.0012,0.0021-0.0025,0.004-0.0037,0.006 c-1.3007,1.932-2.8183,7.9604,1.0478,11.7518c2.3413,2.2959,6.6143,3.625,21.5259,3.625c0.8834,0,2.0962-0.0046,2.9794-0.0139 c0.8626,3.5901,2.5644,6.5792,3.9322,7.3742c0.4507,0.2622,0.8784,0.3696,1.2837,0.3696c1.144,0,2.105-0.8594,2.8613-1.5361 c1.022-0.9141,2.4214-2.166,1.6172-3.9888c-0.3289-0.7447-1.2305-1.6415-2.4953-2.5081c6.0843-0.4507,9.428-1.4396,11.3469-3.322 C50.3539,22.7717,48.8359,16.7432,47.5356,14.8112z M15.4644,15.5405l-1.1748-1.3135l2.1182-1.8945l1.1743,1.313l-0.8208,1.2134 L15.4644,15.5405z M24.9624,19.7681c8.1309,0,14.2241-0.3564,16.7183-0.9775c1.025-0.2555,2.0066-0.641,2.8929-1.1079 c-0.8651,0.8456-1.9329,1.6127-3.1995,2.1191c-2.3999,0.959-8.3818,1.5088-16.4116,1.5088c-0.6022,0-1.1889-0.0042-1.7675-0.0103 l-1.3883-1.5518C22.8205,19.7612,23.8714,19.7681,24.9624,19.7681z M20.446,19.7275l1.389,1.5526 c-6.4464-0.126-11.2077-0.6486-13.2842-1.4783c-1.2668-0.5064-2.3348-1.2736-3.2-2.1191c0.8864,0.4669,1.8682,0.8524,2.8933,1.1079 C10.2508,19.2903,14.5913,19.6183,20.446,19.7275z M24.9624,29.188c-14.5063,0-18.7231-1.2778-20.8257-3.3389 c-3.1787-3.1172-2.2021-7.709-1.311-9.7388c1.0303,1.7051,2.8506,3.6191,5.354,4.6201c2.2788,0.9103,7.5271,1.4673,14.5624,1.5635 l4.7515,5.3109c0.0574,0.5295,0.1337,1.0552,0.2316,1.5712C26.8676,29.184,25.7754,29.188,24.9624,29.188z M36.7212,32.7969 c0.4751,1.0771-0.2334,1.8237-1.3721,2.8428c-1.1343,1.0151-1.9541,1.6367-2.9722,1.0444 c-1.2236-0.7114-3.2344-4.3608-3.8257-8.647C32.7451,29.0996,36.1494,31.5024,36.7212,32.7969z M33.666,28.9803 c-1.5601-0.8533-3.4427-1.6005-5.4269-2.042l-4.1438-4.6317c0.2883,0.0015,0.5734,0.0038,0.8671,0.0038 c8.1519,0,14.269-0.5757,16.7827-1.5801c2.5029-1.0005,4.3232-2.915,5.3535-4.6201c0.8911,2.0298,1.8677,6.6216-1.311,9.7388 C43.9142,27.6866,40.3942,28.5963,33.666,28.9803z" stroke-width="0"/> </g> <g id="Margin" class="st1"> <rect x="1" y="1" class="st2" /> </g> <g id="Guides" class="st1"> </g> <g id="LABELS"> <g> <g> <g> <g> <g> <g> </g> </g> </g> </g> <g> <g> <g> <g> </g> </g> </g> </g> </g> </g> </g> </svg> 