<?xml version="1.0" encoding="UTF-8"?><svg width="70" height="70" xmlns="http://www.w3.org/2000/svg" viewBox="-10 -10 70 70"><rect x="-10" y="-10" width="70" height="70" fill="white"/><g id="uuid-a4608eff-a929-404a-9449-ce90bc7d3e2a"><g><g><path d="M29.53,7.14c-.92-1.5-1.94-2.94-3.07-4.31-1.13,1.37-2.15,2.81-3.07,4.31-1.73,2.84-5.4,9.74-5.4,19.25,0,9.17,3.41,15.87,5.1,18.74h0c.99,1.69,2.12,3.3,3.38,4.82,1.26-1.52,2.39-3.14,3.38-4.82h0c1.69-2.87,5.1-9.57,5.1-18.74,0-9.52-3.68-16.41-5.41-19.25Zm-1.65,13.98v8.74c0,1.46-1.19,2.64-2.64,2.64h-.55c-1.46,0-2.64-1.19-2.64-2.64v-9.92c0-1.46,1.19-2.64,2.64-2.64h.55c1.46,0,2.64,1.19,2.64,2.64v1.18Z" fill="#ffcd00" stroke-width="0"/><path d="M13.89,10.98c.01-.63-.22-1.23-.66-1.69l-4.33-4.52-3.41,3.28,4.33,4.52c.9,.94,2.41,.97,3.34,.07,.46-.44,.71-1.03,.73-1.66Z" fill="#ffcd00" stroke-width="0"/><path d="M39.56,40.14c-.46,.44-.71,1.03-.73,1.66-.01,.63,.22,1.23,.66,1.69l4.33,4.52,3.41-3.27-4.33-4.52c-.9-.94-2.4-.97-3.34-.07Z" fill="#ffcd00" stroke-width="0"/></g><path d="M7.39,3.26l-3.43,3.29,4.35,4.54c.91,.95,2.42,.98,3.36,.07,.95-.91,.98-2.42,.07-3.36L7.39,3.26Z" fill="none" stroke-width="0"/><path d="M24.96,1.32c-1.14,1.37-2.17,2.82-3.09,4.33h6.17c-.92-1.51-1.95-2.96-3.09-4.33Z" fill="none" stroke-width="0"/><path d="M28.88,29.85c0,2.01-1.63,3.64-3.64,3.64h-.55c-2.01,0-3.64-1.63-3.64-3.64v-8.22l-3.86-4.02c-.48,2.38-.73,4.82-.73,7.28,0,6.23,1.59,12.32,4.55,17.73h7.93c1.57-2.87,2.75-5.93,3.52-9.11l-3.56-3.71v.05Z" fill="none" stroke-width="0"/><path d="M38.05,38.63c-.95,.91-.98,2.42-.07,3.36l4.35,4.54,3.43-3.29-4.35-4.54c-.91-.95-2.42-.98-3.36-.07Z" fill="none" stroke-width="0"/><path d="M21.28,6.65c-1.74,3.06-3.03,6.36-3.84,9.79l3.6,3.75v-.26c0-2.01,1.63-3.64,3.64-3.64h.55c2.01,0,3.64,1.63,3.64,3.64v8.43l3.82,3.98c.5-2.44,.77-4.93,.77-7.45,0-6.43-1.69-12.71-4.83-18.24h-7.37Z" fill="none" stroke-width="0"/><path d="M24.96,48.46c1.27-1.53,2.4-3.15,3.4-4.85h-6.79c1,1.69,2.13,3.32,3.4,4.85Z" fill="none" stroke-width="0"/><path d="M46.83,42.9l-4.7-4.9c-1.17-1.22-3.04-1.36-4.38-.41l-4.2-4.38c.61-2.72,.93-5.51,.93-8.33,0-9.04-3.24-17.81-9.13-24.67-.19-.22-.57-.22-.76,0-1.52,1.78-2.86,3.68-4.02,5.68-.01,.02-.03,.05-.04,.07-1.74,3.01-3.04,6.25-3.9,9.61l-3.93-4.09c1-1.3,.94-3.17-.23-4.39L7.77,2.2c-.09-.1-.22-.15-.35-.15-.14,0-.26,.05-.36,.14L2.91,6.17c-.2,.19-.21,.51-.01,.71l4.7,4.9c.66,.69,1.55,1.04,2.44,1.04,.68,0,1.36-.22,1.94-.63l4.37,4.55c-.59,2.66-.89,5.39-.89,8.15,0,6.47,1.67,12.79,4.77,18.39,.02,.05,.05,.1,.08,.14,1.22,2.17,2.64,4.23,4.28,6.14,.1,.11,.23,.17,.38,.17s.28-.06,.38-.17c3.79-4.42,6.48-9.64,7.92-15.2l3.77,3.92c-1,1.3-.94,3.17,.23,4.39l4.7,4.9c.09,.1,.22,.15,.35,.15h0c.13,0,.25-.05,.35-.14l4.15-3.98c.2-.19,.21-.51,.01-.71ZM11.68,11.15c-.94,.91-2.45,.88-3.36-.07L3.97,6.55l3.43-3.29,4.35,4.54c.91,.94,.88,2.45-.07,3.36ZM24.96,1.32c1.14,1.37,2.17,2.82,3.09,4.33h-6.17c.92-1.51,1.95-2.96,3.09-4.33Zm0,47.15c-1.27-1.53-2.4-3.15-3.4-4.85h6.79c-1,1.69-2.13,3.32-3.4,4.85Zm3.96-5.85h-7.93c-2.96-5.4-4.55-11.49-4.55-17.73,0-2.46,.25-4.89,.73-7.28l3.86,4.02v8.22c0,2.01,1.63,3.64,3.64,3.64h.55c2.01,0,3.64-1.63,3.64-3.64v-.05l3.56,3.71c-.76,3.18-1.95,6.24-3.52,9.11Zm-1.04-13.86v1.09c0,1.46-1.19,2.64-2.64,2.64h-.55c-1.46,0-2.64-1.19-2.64-2.64v-7.17l5.84,6.08Zm-5.84-7.53v-1.3c0-1.46,1.19-2.64,2.64-2.64h.55c1.46,0,2.64,1.19,2.64,2.64v7.39l-5.84-6.08Zm10.66,11.11l-3.82-3.98v-8.43c0-2.01-1.63-3.64-3.64-3.64h-.55c-2.01,0-3.64,1.63-3.64,3.64v.26l-3.6-3.75c.81-3.43,2.1-6.72,3.84-9.79h7.37c3.14,5.53,4.83,11.81,4.83,18.24,0,2.52-.27,5.01-.77,7.45Zm9.62,14.18l-4.35-4.54c-.91-.95-.88-2.45,.07-3.36,.94-.91,2.45-.88,3.36,.07l4.35,4.54-3.43,3.29Z" stroke-width="0"/><path d="M22.04,29.85c0,1.46,1.19,2.64,2.64,2.64h.55c1.46,0,2.64-1.19,2.64-2.64v-.3h-5.84v.3Z" fill="none" stroke-width="0"/><path d="M25.24,17.29h-.55c-1.46,0-2.64,1.19-2.64,2.64v1.18h5.84v-1.18c0-1.46-1.19-2.64-2.64-2.64Z" fill="none" stroke-width="0"/></g></g><g id="uuid-144c006b-62be-40f3-9764-455c8280f3e4"></g></svg>