<?xml version="1.0" encoding="UTF-8"?><svg width="70" height="70" xmlns="http://www.w3.org/2000/svg" viewBox="-10 -10 70 70"><rect x="-10" y="-10" width="70" height="70" fill="white"/><g id="uuid-49155665-68b5-491a-88bd-3ec1e7d09227"><g><path d="M6.02,9.9v26.55H46.98V9.9H6.02Zm14.02,14.57c-3-.49-5.75-.61-8.58-.03-.9,.18-1.79,.46-2.68,.78-.26-.66-.4-1.38-.4-2.13,0-3.26,2.65-5.91,5.91-5.91s5.91,2.65,5.91,5.91c0,.48-.06,.94-.17,1.38Z" fill="#ffcd00" stroke-width="0"/><path d="M48.38,49.11l-6.2-13.16h3.8c.28,0,.5-.22,.5-.5V7.9c0-.28-.22-.5-.5-.5H28.72L25.45,.46s-.03-.03-.04-.05c-.02-.03-.04-.06-.06-.08-.03-.03-.06-.05-.09-.07-.02-.01-.03-.03-.05-.04,0,0-.01,0-.02,0-.04-.02-.08-.02-.12-.03-.02,0-.05-.01-.07-.01-.03,0-.07,0-.1,.02-.03,0-.06,.01-.09,.02,0,0-.02,0-.02,0-.02,.01-.04,.03-.06,.04-.03,.02-.06,.04-.08,.06-.03,.03-.04,.06-.06,.09-.01,.02-.03,.03-.04,.05l-3.27,6.95H4.02c-.28,0-.5,.22-.5,.5v27.55c0,.28,.22,.5,.5,.5h3.8L1.62,49.11c-.12,.25-.01,.55,.24,.67,.07,.03,.14,.05,.21,.05,.19,0,.37-.11,.45-.29l6.4-13.58h15.57v13.37c0,.28,.22,.5,.5,.5s.5-.22,.5-.5v-13.37h15.57l6.4,13.58c.08,.18,.26,.29,.45,.29,.07,0,.14-.02,.21-.05,.25-.12,.36-.42,.24-.67ZM25,1.84l2.62,5.56h-5.24l2.62-5.56ZM4.52,8.4H45.48V27.79c-3.73,.64-7.44,.69-11.04,.11-.96-.15-1.5-.27-2.16-.45v-3.97l1.61,1.4c.09,.08,.21,.12,.33,.12,.14,0,.28-.06,.38-.17,.18-.21,.16-.52-.05-.71l-2.26-1.98v-2.2l1.61,1.4c.09,.08,.21,.12,.33,.12,.14,0,.28-.06,.38-.17,.18-.21,.16-.52-.05-.71l-2.26-1.98v-.69c0-.28-.22-.5-.5-.5s-.5,.22-.5,.5v.69l-2.26,1.98c-.21,.18-.23,.5-.05,.71,.1,.11,.24,.17,.38,.17,.12,0,.23-.04,.33-.12l1.61-1.4v2.2l-2.26,1.98c-.21,.18-.23,.5-.05,.71,.1,.11,.24,.17,.38,.17,.12,0,.23-.04,.33-.12l1.61-1.4v3.69c-.63-.18-1.43-.4-2.63-.72-2.81-.73-5.3-1.37-7.63-1.81,.12-.5,.18-1.02,.18-1.56,0-3.81-3.1-6.91-6.91-6.91s-6.91,3.1-6.91,6.91c0,.88,.17,1.71,.47,2.49-1.13,.47-2.24,1.06-3.33,1.75V8.4Zm15.69,14.69c0,.48-.06,.94-.17,1.38-3-.49-5.75-.61-8.58-.03-.9,.18-1.79,.46-2.68,.78-.26-.66-.4-1.38-.4-2.13,0-3.26,2.65-5.91,5.91-5.91s5.91,2.65,5.91,5.91Zm-15.69,11.87v-6.46c2.28-1.53,4.68-2.57,7.14-3.07,5.07-1.04,9.71,.17,16.74,2,1.31,.34,2.16,.58,2.81,.77,1.17,.33,1.7,.48,3.07,.7,1.75,.28,3.52,.42,5.3,.42,1.95,0,3.92-.17,5.89-.5v6.15H4.52Z" stroke-width="0"/><path d="M38.17,24.8c-.21,.18-.23,.5-.05,.71,.1,.11,.24,.17,.38,.17,.12,0,.23-.04,.33-.12l1.61-1.4v4.07h1v-4.06l1.61,1.4c.1,.08,.21,.12,.33,.12,.14,0,.28-.06,.38-.17,.18-.21,.16-.52-.05-.71l-2.26-1.98v-2.2l1.61,1.4c.1,.08,.21,.12,.33,.12,.14,0,.28-.06,.38-.17,.18-.21,.16-.52-.05-.71l-2.26-1.98v-.69c0-.28-.22-.5-.5-.5s-.5,.22-.5,.5v.69l-2.26,1.98c-.21,.18-.23,.5-.05,.71,.1,.11,.24,.17,.38,.17,.12,0,.23-.04,.33-.12l1.61-1.4v2.2l-2.26,1.98Z" stroke-width="0"/></g></g><g id="uuid-87e39fce-b771-46c9-83e9-4ec411667445"></g></svg>