<?xml version="1.0" encoding="UTF-8"?><svg width="70" height="70" id="uuid-a20c64b7-8ed0-46e8-8c68-39881ab30b49" xmlns="http://www.w3.org/2000/svg" viewBox="-10 -10 70 70"><rect x="-10" y="-10" width="70" height="70" fill="white"/><path d="M48.63,35.47h-.05v-11.47h-5.68V8.58H9.6v15.42H3.92v11.47h-.05c-.62,0-1.13,.51-1.13,1.13s.51,1.13,1.13,1.13h4.41v5.65c0,.3,.19,.54,.43,.54h3.56c.24,0,.43-.24,.43-.54v-5.65h27.04v5.65c0,.3,.19,.54,.43,.54h3.62c.24,0,.43-.24,.43-.54v-5.65h4.41c.62,0,1.13-.51,1.13-1.13s-.51-1.13-1.13-1.13ZM10.13,30.01c-1.12,0-2.04-.91-2.04-2.04s.91-2.04,2.04-2.04,2.04,.91,2.04,2.04-.91,2.04-2.04,2.04Zm2.94-7.51h-.79l-.62-.6,.12-.4V10.38h25.96v.5h.77l.23,.42c-.02,3.8-.04,7.61-.05,11.41l.97-.22H13.06Zm17.64,7.51h-12.12v-2.2h12.12v2.2Zm8.67,0c-1.12,0-2.04-.91-2.04-2.04,0-1.12,.91-2.04,2.04-2.04,1.12,0,2.04,.91,2.04,2.04s-.91,2.04-2.04,2.04Z" fill="#ffcd00" stroke-width="0"/><path d="M48.08,33.21v-11.19c0-.28-.24-.52-.52-.52h-5.16v-2.67h4.54c.28,0,.5-.22,.5-.5v-3.1c0-.28-.22-.5-.5-.5h-4.54V6.58c0-.28-.22-.5-.5-.5H7.6c-.28,0-.5,.22-.5,.5V14.73H2.44c-.28,0-.5,.22-.5,.5v3.1c0,.28,.22,.5,.5,.5H7.1v2.67H1.94c-.28,0-.52,.24-.52,.52v11.19c-.7,.35-1.18,1.06-1.18,1.89,0,1.17,.95,2.13,2.13,2.13h3.41v4.76c0,.79,.64,1.43,1.43,1.43h3.56c.79,0,1.43-.64,1.43-1.43v-4.76h25.04v4.77c0,.79,.64,1.43,1.43,1.43h3.62c.79,0,1.43-.64,1.43-1.43v-4.76h3.41c1.17,0,2.13-.95,2.13-2.13,0-.83-.48-1.55-1.18-1.9Zm-5.68-17.48h4.04v2.1h-4.04v-2.1ZM6.98,17.83H2.94v-2.1H6.98v2.1Zm1.12-10.75H41.41v14.42h-2.68V9.88c0-.28-.22-.5-.5-.5H11.28c-.28,0-.5,.22-.5,.5v11.62h-2.68V7.07Zm29.63,3.31v11.12H11.77V10.38h25.96ZM2.42,22.5H47.08v10.48H2.42v-10.48Zm8.78,19.5c0,.24-.19,.43-.43,.43h-3.56c-.24,0-.43-.19-.43-.43v-4.76h4.43v4.76Zm31.52,0c0,.24-.19,.43-.43,.43h-3.62c-.24,0-.43-.19-.43-.43v-4.76h4.48v4.76Zm4.41-5.76H2.36c-.62,0-1.13-.51-1.13-1.13s.51-1.13,1.13-1.13H47.13c.62,0,1.13,.51,1.13,1.13s-.51,1.13-1.13,1.13Z" stroke-width="0"/><path d="M10.13,24.93c-1.67,0-3.04,1.36-3.04,3.04s1.36,3.04,3.04,3.04,3.04-1.36,3.04-3.04c0-1.67-1.36-3.04-3.04-3.04Zm0,5.07c-1.12,0-2.04-.91-2.04-2.04s.91-2.04,2.04-2.04c1.12,0,2.04,.91,2.04,2.04,0,1.12-.91,2.04-2.04,2.04Z" stroke-width="0"/><path d="M39.37,24.93c-1.67,0-3.04,1.36-3.04,3.04s1.36,3.04,3.04,3.04,3.04-1.36,3.04-3.04-1.36-3.04-3.04-3.04Zm0,5.07c-1.12,0-2.04-.91-2.04-2.04,0-1.12,.91-2.04,2.04-2.04s2.04,.91,2.04,2.04-.91,2.04-2.04,2.04Z" stroke-width="0"/><path d="M31.2,26.81h-13.12c-.28,0-.5,.22-.5,.5v3.2c0,.28,.22,.5,.5,.5h13.12c.28,0,.5-.22,.5-.5v-3.2c0-.28-.22-.5-.5-.5Zm-.5,3.2h-12.12v-2.2h12.12v2.2Z" stroke-width="0"/></svg>