<?xml version="1.0" encoding="UTF-8"?><svg width="70" height="70" id="uuid-8e84ee10-f971-4474-a3c1-c6b772eaa598" xmlns="http://www.w3.org/2000/svg" viewBox="-10 -10 70 70"><rect x="-10" y="-10" width="70" height="70" fill="white"/><path d="M29.67,15.6c-2.02,0-3.92,.79-5.35,2.21-.21,.21-.42,.45-.66,.77,0,0-.4,.57-.56,.85l-1.36,2.06-.56,.85-6.78,10.31-.56,.85-8.97,13.63c-.2,.3-.09,.58,.08,.75,.17,.17,.45,.27,.75,.08l8.05-5.3,.85-.56,10.31-6.78,.85-.56,7.62-5.01c.28-.16,.77-.51,.86-.57,.02-.02,.04-.03,.06-.04,.27-.21,.51-.42,.73-.63,.27-.27,.5-.55,.72-.85l.56-.86c.61-1.1,.93-2.35,.93-3.64,0-2.02-.79-3.92-2.21-5.35s-3.33-2.21-5.35-2.21Z" fill="#ffcd00" stroke-width="0"/><path d="M47.84,16.02c-1.59-1.57-3.61-2.54-5.77-2.83,1.37-1.93,2-4.29,1.74-6.7-.03-.23-.21-.42-.45-.44-2.45-.26-4.85,.37-6.82,1.72-.29-2.13-1.29-4.12-2.89-5.69-.17-.16-.42-.19-.62-.06-2.57,1.64-4.23,4.29-4.54,7.27-.13,1.23-.01,2.45,.31,3.61-.29-.03-.59-.05-.89-.05-2.29,0-4.44,.89-6.05,2.51-.24,.24-.48,.52-.78,.9,0,0-.43,.62-.59,.9L2.29,44.83c-.43,.65-.34,1.45,.21,2,.31,.31,.71,.48,1.12,.48,.3,0,.61-.09,.88-.27l27.65-18.2c.31-.18,.93-.61,.93-.61l.04-.03c.34-.26,.62-.5,.87-.75,1.62-1.62,2.51-3.77,2.51-6.05,0-.24-.02-.47-.03-.71,.97,.31,2,.47,3.03,.47,.34,0,.69-.02,1.04-.05,3.02-.31,5.71-1.93,7.38-4.46,.13-.2,.1-.46-.07-.63Zm-4.99-9.02c.16,2.55-.78,5.02-2.62,6.82-1.47,1.44-3.38,2.32-5.41,2.53-.26-.35-.54-.69-.85-1.01-.21-.21-.42-.4-.64-.58,.24-1.95,1.12-3.78,2.56-5.19,1.84-1.81,4.36-2.73,6.96-2.57Zm-13.36,2.39c.27-2.54,1.63-4.82,3.75-6.31,1.41,1.51,2.23,3.41,2.37,5.41-.14,.12-.29,.24-.42,.37-1.47,1.45-2.41,3.29-2.77,5.27-.78-.48-1.63-.84-2.52-1.05-.4-1.17-.54-2.43-.41-3.69Zm5.06,15.65l-5.47-5.48c-.2-.2-.51-.2-.71,0s-.2,.51,0,.71l5.62,5.62c-.22,.3-.46,.58-.72,.85-.22,.22-.46,.43-.73,.63-.02,.01-.04,.03-.06,.04-.09,.06-.58,.4-.86,.57l-7.62,5.01-4.44-4.44c-.2-.2-.51-.2-.71,0s-.2,.51,0,.71l4.29,4.29-10.31,6.78-2.08-2.08c-.2-.2-.51-.2-.71,0s-.2,.51,0,.71l1.93,1.93-8.05,5.3c-.3,.2-.58,.09-.75-.08-.17-.17-.27-.45-.08-.75l8.97-13.63,2.74,2.74c.1,.1,.23,.15,.35,.15s.26-.05,.35-.15c.2-.2,.2-.51,0-.71l-2.89-2.89,6.78-10.31,4.05,4.05c.1,.1,.23,.15,.35,.15s.26-.05,.35-.15c.2-.2,.2-.51,0-.71l-4.2-4.2,1.36-2.06c.16-.28,.56-.85,.56-.85,.24-.32,.45-.56,.66-.77,1.43-1.43,3.33-2.21,5.35-2.21s3.92,.79,5.35,2.21,2.21,3.33,2.21,5.35c0,1.29-.33,2.54-.93,3.64Zm5.87-4.92c-1.42,.14-2.83-.06-4.14-.55-.17-.8-.46-1.57-.85-2.29,2.07-.32,4-1.26,5.51-2.75,.13-.13,.25-.28,.38-.42,2.04,.14,3.98,.93,5.52,2.32-1.52,2.08-3.83,3.41-6.41,3.68Z" stroke-width="0"/></svg>