<?xml version="1.0" encoding="UTF-8"?><svg width="70" height="70" id="uuid-9ce79a77-9fc8-4814-a4f9-18019cbb04f3" xmlns="http://www.w3.org/2000/svg" viewBox="-10 -10 70 70"><rect x="-10" y="-10" width="70" height="70" fill="white"/><path d="M35.29,2.81H17.21c-1.75,0-3.17,1.42-3.17,3.17V46.02c0,1.75,1.42,3.17,3.17,3.17h18.07c1.75,0,3.17-1.42,3.17-3.17V5.98c0-1.75-1.42-3.17-3.17-3.17Zm-1.86,34.77H16.08V9.25h17.35v28.33Z" fill="#ffcd00" stroke-width="0"/><g><path d="M33.83,.81H15.67c-2.28,0-4.13,1.85-4.13,4.13V45.06c0,2.28,1.85,4.13,4.13,4.13h18.15c2.28,0,4.13-1.85,4.13-4.13V4.94c0-2.28-1.85-4.13-4.13-4.13Zm3.13,44.25c0,1.72-1.4,3.13-3.13,3.13H15.67c-1.72,0-3.13-1.4-3.13-3.13V4.94c0-1.72,1.4-3.13,3.13-3.13h18.15c1.72,0,3.13,1.4,3.13,3.13V45.06Z" stroke-width="0"/><path d="M33.92,8.25H15.58c-.28,0-.5,.22-.5,.5v29.33c0,.28,.22,.5,.5,.5h18.35c.28,0,.5-.22,.5-.5V8.75c0-.28-.22-.5-.5-.5Zm-.5,29.33H16.08V9.25h17.35v28.33Z" stroke-width="0"/><path d="M24.75,40.77c-1.35,0-2.44,1.1-2.44,2.44s1.1,2.44,2.44,2.44,2.44-1.1,2.44-2.44-1.1-2.44-2.44-2.44Z" stroke-width="0"/><path d="M22.25,5.48h5.13c.28,0,.5-.22,.5-.5s-.22-.5-.5-.5h-5.13c-.28,0-.5,.22-.5,.5s.22,.5,.5,.5Z" stroke-width="0"/><path d="M20.13,5.59c.34,0,.61-.27,.61-.61s-.27-.61-.61-.61-.61,.27-.61,.61,.27,.61,.61,.61Z" stroke-width="0"/></g></svg>