<?xml version="1.0" encoding="UTF-8"?><svg width="70" height="70" id="uuid-5bcc3905-182c-476b-8c8b-6652af6834b9" xmlns="http://www.w3.org/2000/svg" viewBox="-10 -10 70 70"><rect x="-10" y="-10" width="70" height="70" fill="white"/><path d="M15.99,28.01h-5.51l-7.3-3.71,1.45-8.01,13.77-1.54,1.01,.06h0l7.22,1.3c.86,.15,1.61,.63,2.1,1.35,.5,.72,.69,1.58,.53,2.44l-1.75,9.67c-.14,.73-.51,1.36-1.06,1.85l-1.67-3.14c-.08-.17-.25-.27-.44-.27H15.99Z" fill="#ffcd00" stroke-width="0"/><path d="M43.16,25.14c-.23-.01-.42-.19-.46-.41l-.93-5.68h-9.46v.26c.09-.15,.24-.25,.42-.25h6.36c.25,0,.46,.18,.5,.42l.64,3.92c.02,.14-.02,.29-.11,.4-.1,.12-.24,.18-.39,.18l-7-.03c-.18,0-.33-.1-.42-.25v7.95h6.62c.91-1.22,2.35-2.02,3.99-2.02s3.08,.8,4,2.02h1.46v-6.15l-5.22-.37Z" fill="#ffcd00" stroke-width="0"/><g><path d="M40.63,31.57c.31-.16,.66-.26,1.04-.26s.73,.1,1.04,.26c.71,.38,1.21,1.12,1.21,1.98,0,.36-.1,.7-.25,1-.22,.43-.57,.78-1,1-.3,.15-.64,.24-1,.24s-.69-.09-.99-.24c-.44-.22-.79-.57-1.01-1-.15-.3-.24-.64-.24-1,0-.86,.49-1.6,1.2-1.98Zm1.04,.74c-.68,0-1.24,.55-1.24,1.24,0,.42,.22,.77,.54,1,.2,.14,.44,.24,.7,.24s.5-.1,.7-.24c.32-.23,.55-.58,.55-1,0-.69-.56-1.24-1.25-1.24Z" stroke-width="0"/><path d="M32.73,19.06h6.36c.25,0,.46,.18,.5,.42l.64,3.92c.02,.14-.02,.29-.11,.4-.1,.12-.24,.18-.39,.18l-7-.03c-.27,0-.5-.22-.5-.5v-3.89c0-.27,.23-.5,.5-.5Zm5.94,1h-5.44v2.89l5.92,.03-.48-2.92Z" stroke-width="0"/><path d="M32.23,19.56v3.89c0,.1,.03,.18,.08,.25v-4.4c-.05,.08-.08,.16-.08,.25Z" stroke-width="0"/><path d="M18.04,35.79c-.36,0-.7-.09-1-.24-.43-.22-.78-.57-1-1-.15-.3-.24-.64-.24-1,0-1.22,.97-2.21,2.18-2.24h.06c.31,0,.6,.06,.86,.17,.81,.34,1.38,1.14,1.38,2.07,0,.36-.09,.7-.24,1-.22,.43-.57,.78-1,1-.31,.15-.64,.24-1,.24Zm-.7-1.24c.2,.14,.43,.24,.7,.24s.5-.1,.7-.24c.32-.23,.54-.58,.54-1,0-.69-.55-1.24-1.24-1.24s-1.24,.55-1.24,1.24c0,.42,.22,.77,.54,1Z" stroke-width="0"/><path d="M9.74,34.55c.32-.23,.54-.58,.54-1,0-.69-.55-1.24-1.24-1.24s-1.24,.55-1.24,1.24c0,.42,.22,.77,.54,1,.2,.14,.43,.24,.7,.24s.5-.1,.7-.24Zm-2.94-1c0-1.24,1-2.24,2.24-2.24s2.24,1,2.24,2.24c0,.36-.09,.7-.24,1-.22,.43-.57,.78-1,1-.31,.15-.64,.24-1,.24s-.7-.09-1-.24c-.43-.22-.78-.57-1-1-.15-.3-.24-.64-.24-1Z" stroke-width="0"/><path d="M48.13,34.55v-2.98h-1.87c.26,.61,.41,1.28,.41,1.98,0,.34-.03,.68-.1,1h1.56Zm-6.46-5c-1.02,0-1.94,.39-2.65,1.02-.32,.29-.59,.63-.81,1-.33,.59-.54,1.26-.54,1.98,0,.35,.06,.68,.14,1,.1,.36,.24,.69,.42,1,.69,1.19,1.97,2,3.44,2s2.75-.81,3.45-2c.18-.31,.32-.64,.41-1,.08-.32,.14-.65,.14-1,0-.72-.21-1.39-.54-1.98-.22-.37-.49-.71-.81-1-.71-.63-1.63-1.02-2.65-1.02Zm-5,4c0-.7,.15-1.37,.41-1.98h-2.52v2.98h2.21c-.06-.32-.1-.66-.1-1Zm-2.61-2.98h3.62c.91-1.22,2.35-2.02,3.99-2.02s3.08,.8,4,2.02h1.46v-6.15l-5.22-.37c-.23,0-.42-.19-.46-.41l-.93-5.68h-9.46v12.61h3Zm-6,0v-6.45l-.82,4.54c-.13,.72-.45,1.36-.9,1.91h1.72Zm1.5,2.9c.28,0,.5-.23,.5-.5v-15.04c0-2.33-1.74-4.47-3.83-4.81l-.19,1.05c.92,.28,1.71,.83,2.26,1.63,.5,.72,.76,1.56,.76,2.42v14.75c0,.27,.23,.5,.5,.5Zm-4.03,2.05h8.03v-3.95h-2.5v1.4c0,.82-.67,1.5-1.5,1.5s-1.5-.68-1.5-1.5v-1.4h-2.53v3.95Zm-9.77-8.6h7.33c.19,0,.36,.1,.44,.27l1.67,3.14c.55-.49,.92-1.12,1.06-1.85l1.75-9.67c.16-.86-.03-1.72-.53-2.44-.49-.72-1.24-1.2-2.1-1.35l-7.22-1.31h0l-2.4,13.21Zm-1.58,7.63c.09,.36,.23,.69,.42,1,.69,1.19,1.97,2,3.44,2s2.75-.81,3.44-2c.18-.31,.33-.64,.42-1,.08-.32,.14-.65,.14-1,0-.55-.11-1.08-.32-1.56-.18-.43-.44-.81-.76-1.15-.73-.79-1.76-1.29-2.92-1.29-.64,0-1.24,.16-1.78,.43-.41,.21-.79,.48-1.11,.82-.68,.72-1.11,1.68-1.11,2.75,0,.35,.06,.68,.14,1Zm2.97-20.89l-13.77,1.54-1.45,8.01,7.3,3.71h5.51l2.41-13.26ZM4.04,33.55c0-2.76,2.24-5,5-5,1.99,0,3.69,1.17,4.5,2.86,.15-.32,.34-.62,.55-.89,.23-.29,.48-.56,.76-.79,.87-.73,1.97-1.18,3.19-1.18,1.86,0,3.47,1.03,4.33,2.54,.18,.33,.33,.68,.44,1.05,.14,.45,.23,.92,.23,1.41,0,.34-.04,.68-.1,1h1.59v-3.35l-.16-.32-1.58-2.96H4.29l-1.75,3.28v3.35h1.6c-.07-.32-.1-.66-.1-1Zm1.56,2c.69,1.19,1.97,2,3.44,2s2.75-.81,3.44-2c.18-.31,.33-.64,.42-1,.08-.32,.14-.65,.14-1,0-2.21-1.79-4-4-4s-4,1.79-4,4c0,.35,.06,.68,.14,1,.09,.36,.23,.69,.42,1Zm-1.14,0H2.04c-.27,0-.5-.22-.5-.5v-3.98c0-.08,.02-.16,.06-.23l1.94-3.65c.09-.17,.26-.27,.45-.27h3.03l-5.87-2.99c-.2-.1-.31-.32-.27-.53l1.59-8.74c.04-.22,.21-.39,.43-.41l14.66-1.65c.05,0,.1,0,.15,.01l7.36,1.33,.25-1.46c.05-.24,.26-.42,.52-.41,2.52,.11,4.7,2.26,5.14,4.89h9.96c.25,0,.46,.18,.5,.42l.93,5.7,5.29,.37c.26,.02,.47,.24,.47,.5v6.62h.5c.27,0,.5,.23,.5,.5v3.98c0,.28-.23,.5-.5,.5h-2.38c-.78,1.76-2.53,3-4.58,3s-3.8-1.24-4.57-3h-2.54v.47c0,.28-.22,.5-.5,.5h-9.03c-.27,0-.5-.22-.5-.5v-.47h-1.91c-.78,1.76-2.54,3-4.58,3s-3.7-1.18-4.5-2.86c-.81,1.68-2.51,2.86-4.5,2.86s-3.8-1.24-4.58-3Z" stroke-width="0"/></g></svg>