<?xml version="1.0" encoding="UTF-8"?><svg width="70" height="70" id="uuid-cff7a416-72cc-462b-b1a9-c87537af1714" xmlns="http://www.w3.org/2000/svg" viewBox="-10 -10 70 70"><rect x="-10" y="-10" width="70" height="70" fill="white"/><path d="M40.55,32c0-2.41-1.93-4.37-4.33-4.43V3.09H16.29V27.57c-2.4,.06-4.33,2.02-4.33,4.43v.45h.93v.5h23.73v-.5h2.43v.5h1.5v-.95Z" fill="#ffcd00" stroke-width="0"/><path d="M35.71,25.17V1.09c0-.28-.22-.5-.5-.5H14.29c-.28,0-.5,.22-.5,.5V25.17c-2.47,.51-4.33,2.71-4.33,5.32v18.41c0,.28,.22,.5,.5,.5h3.43c.28,0,.5-.22,.5-.5v-16.46h21.73v16.46c0,.28,.22,.5,.5,.5h3.43c.28,0,.5-.22,.5-.5V30.5c0-2.62-1.86-4.81-4.33-5.32ZM14.79,1.59h19.93V25.07s-.07,0-.11,0H14.89s-.07,0-.11,0V1.59Zm-1.9,46.81h-2.43v-15.96h2.43v15.96Zm26.16,0h-2.43v-15.96h2.43v15.96Zm0-16.96H10.45v-.95c0-2.45,1.99-4.44,4.44-4.44h19.71c2.45,0,4.44,1.99,4.44,4.44v.95Z" stroke-width="0"/></svg>