<?xml version="1.0" encoding="UTF-8"?><svg width="70" height="70" xmlns="http://www.w3.org/2000/svg" viewBox="-10 -10 70 70"><rect x="-10" y="-10" width="70" height="70" fill="white"/><g id="uuid-6bec15ab-4037-4e7c-9dd9-14eb2b94018c"><g><path d="M11.61,29.45l-4.19,3.42,11.27,13.8c.56,.69,1.42,1.05,2.31,.99,.88-.07,1.68-.57,2.12-1.33L45.53,8l-4.67-2.73L20.78,39.61c-.08,.14-.23,.23-.39,.25-.16,.01-.32-.06-.43-.18l-8.35-10.23Z" fill="#ffcd00" stroke-width="0"/><path d="M44.72,5.64l-2.77-1.62-2.77-1.62c-.12-.07-.25-.09-.38-.05-.13,.03-.24,.12-.31,.23L18.53,36.73l-8.22-10.06c-.18-.21-.49-.24-.7-.07l-4.96,4.06c-.1,.08-.17,.21-.18,.34-.01,.13,.03,.26,.11,.37l11.59,14.18c.71,.87,1.75,1.36,2.87,1.36,.1,0,.19,0,.29-.01,1.21-.09,2.3-.77,2.91-1.82L44.9,6.33c.14-.24,.06-.54-.18-.68ZM19.03,37.86L39.11,3.52l4.67,2.73L21.37,44.57c-.45,.77-1.24,1.26-2.12,1.33-.89,.07-1.75-.3-2.31-.99L5.67,31.12l4.19-3.42,8.35,10.23c.1,.13,.26,.19,.43,.18,.16-.01,.31-.1,.39-.25Z" stroke-width="0"/></g></g><g id="uuid-7f4b72b7-62a5-4eff-b4d6-2c76d6c1d989"></g></svg>