<?xml version="1.0" encoding="UTF-8"?><svg width="70" height="70" xmlns="http://www.w3.org/2000/svg" viewBox="-10 -10 70 70"><rect x="-10" y="-10" width="70" height="70" fill="white"/><g id="uuid-887d1092-9259-4332-bf71-6f161740f50c"><g><path d="M35.83,7.11H9.5V49.9H43V7.11h-7.17ZM17.93,42.78h-4.97v-4.97h4.97v4.97Z" fill="#ffcd00" stroke-width="0"/><path d="M42,4.61h-7.78c-.34-1.24-1.46-2.17-2.81-2.17h-3.71c-.24-1.33-1.4-2.35-2.8-2.35s-2.56,1.01-2.8,2.35h-3.71c-1.35,0-2.48,.92-2.81,2.17H7.5c-.28,0-.5,.22-.5,.5V48.9c0,.28,.22,.5,.5,.5H42c.28,0,.5-.22,.5-.5V5.11c0-.28-.22-.5-.5-.5Zm-23.61-1.17h4.16c.28,0,.5-.22,.5-.5,0-1.02,.83-1.85,1.85-1.85s1.85,.83,1.85,1.85c0,.28,.22,.5,.5,.5h4.16c1.06,0,1.92,.86,1.92,1.92v1.04H16.47v-1.04c0-1.06,.86-1.92,1.92-1.92Zm23.11,44.96H8V5.61h7.47v1.29c0,.28,.22,.5,.5,.5h17.86c.28,0,.5-.22,.5-.5v-1.29h7.17V48.4Z" stroke-width="0"/><path d="M19.51,11.88c-.24-.14-.54-.06-.68,.18l-.57,.97-4.03,6.89-2.06-2.52-.02-.02c-.17-.21-.49-.25-.7-.07-.21,.17-.25,.49-.07,.7l2.54,3.1c.1,.12,.24,.18,.39,.18,.01,0,.03,0,.04,0,.16-.01,.31-.1,.39-.25l4.96-8.48c.14-.24,.06-.54-.18-.68Z" stroke-width="0"/><path d="M19.44,23.08c-.24-.14-.54-.06-.68,.18l-.57,.97-4.03,6.89-2.06-2.52-.02-.02c-.18-.21-.49-.25-.7-.07-.21,.17-.25,.49-.07,.7l2.54,3.1c.1,.12,.24,.18,.39,.18,.01,0,.03,0,.04,0,.16-.01,.31-.1,.39-.25l4.96-8.48c.14-.24,.06-.54-.18-.68Z" stroke-width="0"/><path d="M23.4,15.05c-.28,0-.5,.22-.5,.5s.22,.5,.5,.5h14.63c.28,0,.5-.22,.5-.5s-.22-.5-.5-.5h-14.63Z" stroke-width="0"/><path d="M37.97,28.25c.28,0,.5-.22,.5-.5s-.22-.5-.5-.5h-14.63c-.28,0-.5,.22-.5,.5s.22,.5,.5,.5h14.63Z" stroke-width="0"/><path d="M23.63,39.8c-.28,0-.5,.22-.5,.5s.22,.5,.5,.5h14.63c.28,0,.5-.22,.5-.5s-.22-.5-.5-.5h-14.63Z" stroke-width="0"/><path d="M18.43,36.81h-5.97c-.28,0-.5,.22-.5,.5v5.97c0,.28,.22,.5,.5,.5h5.97c.28,0,.5-.22,.5-.5v-5.97c0-.28-.22-.5-.5-.5Zm-.5,5.97h-4.97v-4.97h4.97v4.97Z" stroke-width="0"/></g></g><g id="uuid-ccfabf1d-1343-4504-b74a-cb657f998c12"></g></svg>