<?xml version="1.0" encoding="utf-8"?> <!-- Generator: Adobe Illustrator 27.7.0, SVG Export Plug-In . SVG Version: 6.00 Build 0) --> <svg width="70" height="70" version="1.1" xmlns="http://www.w3.org/2000/svg" xmlns:xlink="http://www.w3.org/1999/xlink" x="0px" y="0px" viewBox="-10 -10 70 70" style="enable-background:new 0 0 50 50;" xml:space="preserve"><rect x="-10" y="-10" width="70" height="70" fill="white"/> <style type="text/css"> .st0{fill:#FFCD00;} .st1{display:none;} .st2{display:inline;fill:none;stroke:#EA008A;stroke-width:0.2;stroke-miterlimit:10;} .st3{font-family:'Roboto-Regular';} .st4{font-size:6px;} </style> <g id="Color"> <rect x="3.8599" y="15.4302" class="st0" width="10.5703" height="10.5698"/> <rect x="27" y="38.5698" class="st0" width="10.5698" height="10.5703"/> <rect x="38.5698" y="27" class="st0" width="10.5703" height="10.5698"/> <rect x="38.5698" y="3.8599" class="st0" width="10.5703" height="10.5703"/> <rect x="3.8599" y="38.5698" class="st0" width="10.5703" height="10.5703"/> <path class="st0" d="M15.4302,3.8599v10.5703H26V3.8599H15.4302z M19.2148,10.644c-1.6538,0-2.999-1.3452-2.999-2.999 s1.3452-2.999,2.999-2.999s2.999,1.3452,2.999,2.999S20.8687,10.644,19.2148,10.644z" stroke-width="0"/> <path class="st0" d="M27,15.4302V26h10.5698V15.4302H27z M30.7852,22.2139c-1.6538,0-2.999-1.3452-2.999-2.999 s1.3452-2.999,2.999-2.999s2.999,1.3452,2.999,2.999S32.439,22.2139,30.7852,22.2139z" stroke-width="0"/> <path class="st0" d="M15.4302,37.5698H26V27H15.4302V37.5698z M19.2148,27.7861c1.6538,0,2.999,1.3452,2.999,2.999 s-1.3452,2.999-2.999,2.999s-2.999-1.3452-2.999-2.999S17.561,27.7861,19.2148,27.7861z" stroke-width="0"/> </g> <g id="ICONS_00000031165542127692736420000002692518830807990202_"> <g> <g> <path d="M7.6449,6.957c-0.3794,0-0.688,0.3086-0.688,0.688c0,0.3792,0.3086,0.6878,0.688,0.6878 c0.3792,0,0.6878-0.3086,0.6878-0.6878C8.3328,7.2655,8.0242,6.957,7.6449,6.957z" stroke-width="0"/> </g> <path d="M19.215,6.957c-0.3794,0-0.688,0.3086-0.688,0.688c0,0.3792,0.3086,0.6878,0.688,0.6878 c0.3792,0,0.6878-0.3086,0.6878-0.6878C19.9028,7.2655,19.5943,6.957,19.215,6.957z" stroke-width="0"/> <path d="M42.3551,18.527c-0.3794,0-0.688,0.3086-0.688,0.688c0,0.3792,0.3086,0.6878,0.688,0.6878 c0.3792,0,0.6878-0.3086,0.6878-0.6878C43.0429,18.8356,42.7344,18.527,42.3551,18.527z" stroke-width="0"/> <path d="M19.215,30.0971c-0.3794,0-0.688,0.3086-0.688,0.688c0,0.3792,0.3086,0.6878,0.688,0.6878 c0.3792,0,0.6878-0.3086,0.6878-0.6878C19.9028,30.4057,19.5943,30.0971,19.215,30.0971z" stroke-width="0"/> <g> <path d="M48.1401,1.3599H1.8599c-0.2764,0-0.5,0.2236-0.5,0.5v46.2803c0,0.2764,0.2236,0.5,0.5,0.5h46.2803 c0.2764,0,0.5-0.2236,0.5-0.5V1.8599C48.6401,1.5835,48.4165,1.3599,48.1401,1.3599z M36.0698,24.5H25.5V13.9302h10.5698V24.5z M37.0698,13.9302h10.5703V24.5H37.0698V13.9302z M25.5,12.9302V2.3599h10.5698v10.5703H25.5z M24.5,12.9302H13.9302V2.3599H24.5 V12.9302z M24.5,13.9302V24.5H13.9302V13.9302H24.5z M12.9302,24.5H2.3599V13.9302h10.5703V24.5z M2.3599,25.5h10.5703v10.5698 H2.3599V25.5z M13.9302,25.5H24.5v10.5698H13.9302V25.5z M24.5,37.0698v10.5703H13.9302V37.0698H24.5z M25.5,37.0698h10.5698 v10.5703H25.5V37.0698z M25.5,36.0698V25.5h10.5698v10.5698H25.5z M37.0698,25.5h10.5703v10.5698H37.0698V25.5z M47.6401,12.9302 H37.0698V2.3599h10.5703V12.9302z M12.9302,2.3599v10.5703H2.3599V2.3599H12.9302z M2.3599,37.0698h10.5703v10.5703H2.3599 V37.0698z M37.0698,47.6401V37.0698h10.5703v10.5703H37.0698z" stroke-width="0"/> <path d="M7.645,11.144c1.9292,0,3.499-1.5698,3.499-3.499S9.5742,4.146,7.645,4.146S4.146,5.7158,4.146,7.645 S5.7158,11.144,7.645,11.144z M7.645,5.146c1.3779,0,2.499,1.1211,2.499,2.499s-1.1211,2.499-2.499,2.499 S5.146,9.0229,5.146,7.645S6.2671,5.146,7.645,5.146z" stroke-width="0"/> <path d="M19.2148,11.144c1.9292,0,3.499-1.5698,3.499-3.499s-1.5698-3.499-3.499-3.499s-3.499,1.5698-3.499,3.499 S17.2856,11.144,19.2148,11.144z M19.2148,5.146c1.3779,0,2.499,1.1211,2.499,2.499s-1.1211,2.499-2.499,2.499 s-2.499-1.1211-2.499-2.499S17.8369,5.146,19.2148,5.146z" stroke-width="0"/> <path d="M30.7852,22.7139c1.9292,0,3.499-1.5698,3.499-3.499s-1.5698-3.499-3.499-3.499s-3.499,1.5698-3.499,3.499 S28.856,22.7139,30.7852,22.7139z M30.7852,16.7158c1.3779,0,2.499,1.1211,2.499,2.499s-1.1211,2.499-2.499,2.499 s-2.499-1.1211-2.499-2.499S29.4072,16.7158,30.7852,16.7158z" stroke-width="0"/> <path d="M42.355,15.7158c-1.9292,0-3.499,1.5698-3.499,3.499s1.5698,3.499,3.499,3.499s3.499-1.5698,3.499-3.499 S44.2842,15.7158,42.355,15.7158z M42.355,21.7139c-1.3779,0-2.499-1.1211-2.499-2.499s1.1211-2.499,2.499-2.499 s2.499,1.1211,2.499,2.499S43.7329,21.7139,42.355,21.7139z" stroke-width="0"/> <path d="M19.2148,27.2861c-1.9292,0-3.499,1.5698-3.499,3.499s1.5698,3.499,3.499,3.499s3.499-1.5698,3.499-3.499 S21.144,27.2861,19.2148,27.2861z M19.2148,33.2842c-1.3779,0-2.499-1.1211-2.499-2.499s1.1211-2.499,2.499-2.499 s2.499,1.1211,2.499,2.499S20.5928,33.2842,19.2148,33.2842z" stroke-width="0"/> <path d="M42.355,38.856c-1.9292,0-3.499,1.5698-3.499,3.499s1.5698,3.499,3.499,3.499s3.499-1.5698,3.499-3.499 S44.2842,38.856,42.355,38.856z M42.355,44.854c-1.3779,0-2.499-1.1211-2.499-2.499s1.1211-2.499,2.499-2.499 s2.499,1.1211,2.499,2.499S43.7329,44.854,42.355,44.854z" stroke-width="0"/> <path d="M19.2148,45.8516c1.9292,0,3.499-1.5698,3.499-3.499s-1.5698-3.499-3.499-3.499s-3.499,1.5698-3.499,3.499 S17.2856,45.8516,19.2148,45.8516z M19.2148,39.8535c1.3779,0,2.499,1.1211,2.499,2.499s-1.1211,2.499-2.499,2.499 s-2.499-1.1211-2.499-2.499S17.8369,39.8535,19.2148,39.8535z" stroke-width="0"/> </g> </g> </g> <g id="Margin" class="st1"> <rect x="1" y="1" class="st2" /> </g> <g id="Guides" class="st1"> </g> <g id="LABELS"> <g> <g> <g> <g> </g> </g> </g> </g> </g> </svg> 