<?xml version="1.0" encoding="UTF-8"?><svg width="70" height="70" xmlns="http://www.w3.org/2000/svg" viewBox="-10 -10 70 70"><rect x="-10" y="-10" width="70" height="70" fill="white"/><g id="uuid-c8a35081-48a9-4ab0-89d8-4aa70967f8b8"><path d="M37.04,18.62c1.2,0,2.17-.97,2.17-2.17s-.97-2.17-2.17-2.17-2.17.97-2.17,2.17.97,2.17,2.17,2.17ZM37.4,21.46L3.62,25.72l9.11-9c.65.42,1.38.64,2.15.64,2.23,0,4.04-1.81,4.04-4.04,0-.75-.21-1.48-.61-2.12l7.61-7.52c1.52.15,3.04.39,4.52.72v.08c0,1.58,1.28,2.86,2.86,2.86.99,0,1.89-.5,2.41-1.31,6.23,2.63,10.54,7.34,12.84,14.02l-11.15,1.41ZM31.44,14.78c0-2.23-1.81-4.04-4.04-4.04s-4.05,1.81-4.05,4.04,1.82,4.04,4.05,4.04,4.04-1.81,4.04-4.04Z" fill="#ffcd00" stroke-width="0"/><path d="M33.53,41.86c2.63,0,4.76-2.14,4.76-4.76s-2.13-4.77-4.76-4.77-4.77,2.14-4.77,4.77,2.14,4.76,4.77,4.76ZM24.84,26.77c-1.58,0-2.87,1.29-2.87,2.87s1.29,2.86,2.87,2.86,2.86-1.29,2.86-2.86-1.28-2.87-2.86-2.87ZM2.72,46.46c1.99-.25,3.54-1.95,3.54-4.01s-1.55-3.77-3.54-4.01v-2.64c1.34-.24,2.36-1.42,2.36-2.82s-1.02-2.59-2.36-2.83v-3.31l21.5-2.71,24.5-3.09v7.15c-1.99.24-3.54,1.95-3.54,4.01s1.55,3.76,3.54,4.01v6.33l-25.07,3.16c-.32-.82-1.11-1.4-2.03-1.4-1.11,0-2.04.85-2.16,1.93l-16.74,2.11v-1.88ZM42.56,28.77c0-1.2-.98-2.18-2.18-2.18s-2.17.98-2.17,2.18.98,2.17,2.17,2.17,2.18-.98,2.18-2.17ZM18.92,36.38c0-2.23-1.81-4.05-4.04-4.05s-4.04,1.82-4.04,4.05,1.81,4.04,4.04,4.04,4.04-1.81,4.04-4.04Z" fill="#ffcd00" stroke-width="0"/></g><g id="uuid-09ee3c33-10cf-4c0d-9e24-47acf9a141e4"><path d="M48,20.32l-24.5,3.09,24.5-3.09Z" stroke-width="0"/><path d="M39.66,29.22c.65,0,1.18-.53,1.18-1.17s-.53-1.18-1.18-1.18-1.17.53-1.17,1.18.53,1.17,1.17,1.17ZM39.66,25.87c1.2,0,2.18.98,2.18,2.18s-.98,2.17-2.18,2.17-2.17-.98-2.17-2.17.98-2.18,2.17-2.18Z" stroke-width="0"/><path d="M34.15,15.73c0-1.2.97-2.17,2.17-2.17s2.17.97,2.17,2.17-.97,2.17-2.17,2.17-2.17-.97-2.17-2.17ZM36.32,16.9c.65,0,1.17-.52,1.17-1.17s-.52-1.17-1.17-1.17-1.17.53-1.17,1.17.52,1.17,1.17,1.17Z" stroke-width="0"/><path d="M28.04,36.38c0-2.63,2.14-4.77,4.77-4.77s4.76,2.14,4.76,4.77-2.13,4.76-4.76,4.76-4.77-2.14-4.77-4.76ZM29.04,36.38c0,2.07,1.69,3.76,3.77,3.76s3.76-1.69,3.76-3.76-1.69-3.77-3.76-3.77-3.77,1.69-3.77,3.77Z" stroke-width="0"/><path d="M26.68,11.02c-1.68,0-3.05,1.36-3.05,3.04s1.37,3.04,3.05,3.04,3.04-1.36,3.04-3.04-1.37-3.04-3.04-3.04ZM22.63,14.06c0-2.23,1.82-4.04,4.05-4.04s4.04,1.81,4.04,4.04-1.81,4.04-4.04,4.04-4.05-1.81-4.05-4.04Z" stroke-width="0"/><path d="M24.12,26.05c1.58,0,2.86,1.29,2.86,2.87s-1.28,2.86-2.86,2.86-2.87-1.29-2.87-2.86,1.29-2.87,2.87-2.87ZM25.98,28.92c0-1.03-.83-1.87-1.86-1.87s-1.87.84-1.87,1.87.84,1.86,1.87,1.86,1.86-.84,1.86-1.86Z" stroke-width="0"/><path d="M17.2,35.66c0-1.68-1.36-3.05-3.04-3.05s-3.04,1.37-3.04,3.05,1.36,3.04,3.04,3.04,3.04-1.37,3.04-3.04ZM10.12,35.66c0-2.23,1.81-4.05,4.04-4.05s4.04,1.82,4.04,4.05-1.81,4.04-4.04,4.04-4.04-1.81-4.04-4.04Z" stroke-width="0"/><path d="M12.01,16L2.9,25l33.78-4.26L1.44,25.19c-.11,0-.21.06-.29.14l10.45-10.34c.18-.18.47-.19.67-.03.55.44,1.21.68,1.89.68,1.68,0,3.04-1.36,3.04-3.04,0-.67-.22-1.32-.65-1.87-.16-.2-.14-.48.04-.66l8.08-7.99c.1-.1.25-.15.4-.14,1.79.17,3.57.46,5.31.86.26.06.43.32.38.59-.03.12-.04.24-.04.37,0,1.02.83,1.86,1.86,1.86.75,0,1.43-.45,1.72-1.14.11-.25.39-.36.65-.26,6.9,2.76,11.62,7.93,14.01,15.33-.03-.07-.08-.13-.13-.17-.11-.1-.25-.14-.39-.12l-11.76,1.48,11.15-1.41c-2.3-6.68-6.61-11.39-12.84-14.02-.52.81-1.42,1.31-2.41,1.31-1.58,0-2.86-1.28-2.86-2.86v-.08c-1.48-.33-3-.57-4.52-.72l-7.61,7.52c.4.64.61,1.37.61,2.12,0,2.23-1.81,4.04-4.04,4.04-.77,0-1.5-.22-2.15-.64Z" stroke-width="0"/><path d="M1.44,25.19l35.24-4.45,11.76-1.48c.14-.02.28.02.39.12.05.04.1.1.13.17.02.06.04.13.04.2,0,.1-.03.19-.08.27-.08.13-.21.21-.36.23l-.56.07-24.5,3.09-21.5,2.71-.44.06h-.06c-.19,0-.37-.11-.45-.28-.03-.07-.05-.14-.05-.21h0c0-.13.05-.25.13-.34,0-.01,0-.01.02-.02.08-.08.18-.13.29-.14Z" stroke-width="0"/><path d="M1.5,30.39c-.28,0-.5-.22-.5-.5v-4.2c0,.07.02.14.05.21.08.17.26.28.45.28h.06l.44-.06v3.31c1.34.24,2.36,1.42,2.36,2.83s-1.02,2.58-2.36,2.82v2.64c1.99.24,3.54,1.95,3.54,4.01s-1.55,3.76-3.54,4.01v1.88l16.74-2.11c.12-1.08,1.05-1.93,2.16-1.93.92,0,1.71.58,2.03,1.4l25.07-3.16v-6.33c-1.99-.25-3.54-1.95-3.54-4.01s1.55-3.77,3.54-4.01v-7.15l.56-.07c.15-.02.28-.1.36-.23.05-.08.08-.17.08-.27v8.19c0,.27-.22.5-.5.5-1.68,0-3.04,1.36-3.04,3.04s1.36,3.04,3.04,3.04c.28,0,.5.23.5.5v7.24c0,.25-.19.47-.44.5l-25.95,3.27c-.27.03-.52-.16-.55-.43-.08-.58-.58-1.02-1.16-1.02-.64,0-1.17.52-1.17,1.17l.02.14c.03.28-.17.52-.44.56l-17.75,2.24h-.06c-.12,0-.24-.04-.33-.13-.11-.09-.17-.23-.17-.37v-2.92c0-.28.22-.5.5-.5,1.68,0,3.04-1.37,3.04-3.04s-1.36-3.05-3.04-3.05c-.28,0-.5-.22-.5-.5v-3.56c0-.28.22-.5.5-.5,1.03,0,1.86-.84,1.86-1.86s-.83-1.87-1.86-1.87Z" stroke-width="0"/><path d="M1.13,25.35c-.08.09-.13.21-.13.33,0-.12.05-.24.13-.33Z" stroke-width="0"/></g></svg>