<?xml version="1.0" encoding="UTF-8"?><svg width="70" height="70" xmlns="http://www.w3.org/2000/svg" viewBox="-10 -10 70 70"><rect x="-10" y="-10" width="70" height="70" fill="white"/><g id="uuid-2cf67e4a-4679-4eea-b35e-735ff13950f7"><g><polygon points="31.97 5.63 33.18 5.63 33.18 2.73 19.32 2.73 19.32 5.63 20.53 5.63 31.97 5.63" fill="#ffcd00"/><path d="M40.38,39.34H12.13l-2.55,4.42c-.72,1.25-.72,2.75,0,4.01s2.02,2,3.47,2h26.41c1.45,0,2.75-.75,3.47-2s.72-2.75,0-4.01l-2.55-4.42Z" fill="#ffcd00" stroke-width="0"/><path d="M42.29,41.76l-11.33-19.62V5.13h1.21c.28,0,.5-.22,.5-.5V.73c0-.28-.22-.5-.5-.5h-14.86c-.13,0-.26,.05-.35,.15s-.15,.22-.15,.35v3.91c0,.28,.22,.5,.5,.5h1.21V22.14L7.21,41.76c-.91,1.57-.91,3.44,0,5.01,.91,1.57,2.53,2.5,4.34,2.5h26.41c1.81,0,3.43-.94,4.34-2.5,.91-1.57,.91-3.44,0-5.01ZM17.82,1.23h13.86v2.91h-13.86V1.23Zm1.64,21.3c.04-.08,.07-.16,.07-.25V5.13h10.43V22.28c0,.09,.02,.17,.07,.25l8.26,14.31H11.2l8.26-14.31Zm21.96,23.75c-.72,1.25-2.02,2-3.47,2H11.54c-1.45,0-2.75-.75-3.47-2s-.72-2.75,0-4.01l2.55-4.42h28.25l2.55,4.42c.72,1.25,.72,2.75,0,4.01Z" stroke-width="0"/><path d="M21.31,32.86c1.5,0,2.72-1.22,2.72-2.72s-1.22-2.72-2.72-2.72-2.72,1.22-2.72,2.72,1.22,2.72,2.72,2.72Zm0-4.44c.95,0,1.72,.77,1.72,1.72s-.77,1.72-1.72,1.72-1.72-.77-1.72-1.72,.77-1.72,1.72-1.72Z" stroke-width="0"/><path d="M25.31,24.09c1.26,0,2.29-1.02,2.29-2.28s-1.03-2.29-2.29-2.29-2.29,1.03-2.29,2.29,1.03,2.28,2.29,2.28Zm0-3.57c.71,0,1.29,.58,1.29,1.29s-.58,1.28-1.29,1.28-1.29-.58-1.29-1.28,.58-1.29,1.29-1.29Z" stroke-width="0"/><path d="M26.3,34.03c0,.94,.76,1.71,1.71,1.71s1.71-.76,1.71-1.71-.76-1.7-1.71-1.7-1.71,.76-1.71,1.7Zm1.71-.7c.39,0,.71,.32,.71,.7s-.32,.71-.71,.71-.71-.32-.71-.71,.32-.7,.71-.7Z" stroke-width="0"/></g></g><g id="uuid-03818b83-925c-499e-906b-98d7fc74990c"></g></svg>