<?xml version="1.0" encoding="UTF-8"?><svg width="70" height="70" xmlns="http://www.w3.org/2000/svg" viewBox="-10 -10 70 70"><rect x="-10" y="-10" width="70" height="70" fill="white"/><g id="uuid-e0701e4d-4295-4085-b67e-ea23dda3219a"><polygon points="22.36 22.47 11.9 22.47 6.68 31.52 6.9 31.91 11.9 40.57 22.3 40.57 27.56 31.47 22.36 22.47" fill="#ffcd00"/><polygon points="23.2 21.91 28.46 31.02 38.84 31.02 44.07 21.97 38.84 12.92 28.39 12.92 23.2 21.91" fill="#ffcd00"/><path d="M37.38,48.38h-10.74l-5.2-9,5.2-9.1h10.74c.08,0,.16-.03,.23-.06,.02-.01,.04-.02,.05-.04,.05-.03,.09-.07,.12-.12,0-.01,.02-.02,.03-.03l5.51-9.55c.09-.15,.09-.35,0-.5l-5.51-9.55c-.09-.15-.25-.25-.43-.25h-10.69L21.33,.87c-.14-.24-.44-.32-.68-.18-.24,.14-.32,.44-.18,.68l5.34,9.25-5.25,9.1H10.15L4.78,10.43c-.14-.24-.44-.32-.68-.18-.24,.14-.32,.44-.18,.68l5.37,9.3L3.92,29.52s0,.03-.01,.04c-.03,.05-.04,.11-.05,.17,0,.02,0,.04,0,.06,0,.08,.02,.15,.06,.23l5.37,9.3-5.37,9.3c-.14,.24-.06,.54,.18,.68,.08,.05,.17,.07,.25,.07,.17,0,.34-.09,.43-.25l5.37-9.3h10.39l5.37,9.3c.09,.15,.25,.25,.43,.25h11.03c.28,0,.5-.22,.5-.5s-.22-.5-.5-.5Zm-27.23-9.55l-5-8.66-.22-.39,5.23-9.05h10.46l5.19,9-5.26,9.11H10.15ZM42.32,20.22l-5.23,9.05h-10.38l-5.26-9.11,5.19-8.99h10.45l5.23,9.05Z" stroke-width="0"/><path d="M19.34,23.01h-7.23s-.04,0-.06,.01c-.04,0-.07,0-.1,.02-.03,.01-.06,.02-.08,.04-.03,.02-.05,.03-.08,.05-.03,.02-.05,.05-.07,.08-.01,.02-.03,.03-.04,.05l-3.62,6.26c-.14,.24-.06,.54,.18,.68,.08,.05,.16,.07,.25,.07,.17,0,.34-.09,.43-.25l3.47-6.01h6.94c.28,0,.5-.22,.5-.5s-.22-.5-.5-.5Z" stroke-width="0"/><path d="M45.9,21.15c-.24-.14-.54-.06-.68,.18l-5.51,9.55c-.14,.24-.06,.54,.18,.68,.08,.05,.16,.07,.25,.07,.17,0,.34-.09,.43-.25l5.51-9.55c.14-.24,.06-.54-.18-.68Z" stroke-width="0"/></g><g id="uuid-01f82a23-8a7b-4f43-82dc-426d71c4f612"></g></svg>