<?xml version="1.0" encoding="utf-8"?> <!-- Generator: Adobe Illustrator 27.7.0, SVG Export Plug-In . SVG Version: 6.00 Build 0) --> <svg width="70" height="70" version="1.1" id="Layer_1" xmlns="http://www.w3.org/2000/svg" xmlns:xlink="http://www.w3.org/1999/xlink" x="0px" y="0px" viewBox="-10 -10 70 70" style="enable-background:new 0 0 50 50;" xml:space="preserve"><rect x="-10" y="-10" width="70" height="70" fill="white"/> <style type="text/css"> .st0{fill:#FFCD00;} .st1{display:none;} .st2{display:inline;fill:none;stroke:#EA008A;stroke-width:0.2;stroke-miterlimit:10;} .st3{font-family:'Roboto-Regular';} .st4{font-size:6px;} </style> <g id="Color"> <path class="st0" d="M22,45.8c0-1.2,0.9-2.1,2.1-2.1h1.1c-0.3-0.5-0.8-0.8-1.4-0.8h-0.6l-0.1-0.2c-2.9-3.7-3.2-12.7-2.1-17.5 l0.1-0.4h3.5l0-6.5h-2.1v2.7h-4.1v-2.7h-2.8v2.7h-4.1v-2.7H9.5l0,6.5h3.5l0.1,0.4c1,4.8,0.7,13.8-2.1,17.5l-0.2,0.2h-0.8 c-0.9,0-1.6,0.7-1.6,1.6v2.3H22L22,45.8L22,45.8z" stroke-width="0"/> <g> <path class="st0" d="M24,49.5h19.2v-2.3c0-0.9-0.7-1.6-1.6-1.6h-0.8l-0.1-0.2c-3.6-5.6-4.9-11.8-4.2-19l0-0.5h0.9 c0.7,0,1.2-0.5,1.2-1.2c0-0.7-0.5-1.2-1.2-1.2h-0.8v-1c0.7,0,1.2-0.5,1.2-1.2c0-0.6-0.5-1.1-1.1-1.2l-0.4-0.1v-0.4 c0-3.4,1.5-6.8,2.8-8.8l-0.6-1.2l-1,0.8l-0.2-0.8c0-0.1,0-0.1,0-0.1C36.8,8.2,36,7.3,35,6.8l-0.3-0.1V4.5c0-0.6-0.5-1.1-1.1-1.1 s-1.1,0.5-1.1,1.1v2.2l-0.3,0.1c-1,0.5-1.8,1.4-2.3,2.6l-0.4,0.9l-0.9-0.7l-0.6,1.2c1.3,2,2.8,5.4,2.8,8.8v0.4l-0.4,0.1 c-0.6,0.1-1.1,0.6-1.1,1.2c0,0.7,0.5,1.2,1.2,1.2v1h-0.8c-0.7,0-1.2,0.5-1.2,1.2c0,0.7,0.5,1.2,1.2,1.2h0.9l0,0.5 c0.7,7.2-0.6,13.5-4.2,19l-0.1,0.2h-0.8c-0.9,0-1.6,0.7-1.6,1.6L24,49.5L24,49.5z" stroke-width="0"/> </g> </g> <g id="ICONS_00000031165542127692736420000002692518830807990202_"> <path d="M40.1,43.2h-0.2c-3.2-5.2-4.5-11-3.9-17.7c1.2,0,2.2-1,2.2-2.2c0-0.9-0.5-1.7-1.3-2c0.3-0.4,0.5-0.9,0.5-1.4 c0-1-0.6-1.8-1.5-2.1c0.1-3.1,1.5-6.3,2.8-8.1c0.1-0.1,0.1-0.3,0-0.5l-1-2.1c-0.1-0.1-0.2-0.2-0.3-0.3c-0.2,0-0.3,0-0.4,0.1 l-0.4,0.3C36,6,35.2,5.1,34.2,4.5c0,0,0,0,0,0V3c0-1.2-0.9-2.1-2.1-2.1S30,1.8,30,3v1.5c-1,0.6-1.8,1.5-2.4,2.7L27.3,7 c-0.1-0.1-0.3-0.1-0.4-0.1c-0.1,0-0.3,0.1-0.3,0.3l-1,2.1c-0.1,0.2-0.1,0.4,0,0.5c1.2,1.8,2.6,5,2.8,8.1c-0.9,0.3-1.5,1.1-1.5,2.1 c0,0.5,0.2,1,0.5,1.4c-0.8,0.3-1.3,1.1-1.3,2c0,1.2,1,2.2,2.2,2.2c0.6,6.3-0.6,11.9-3.4,16.8c-0.3-1.1-1.3-1.9-2.5-1.9h-0.1 c-2.3-3.1-2.9-11-1.9-16.1h3.2c0.3,0,0.5-0.2,0.5-0.5l0-7.5c0-0.1-0.1-0.3-0.1-0.4s-0.2-0.1-0.4-0.1h-3.1c-0.3,0-0.5,0.2-0.5,0.5 v2.2h-2.1v-2.2c0-0.3-0.2-0.5-0.5-0.5h-3.8c-0.3,0-0.5,0.2-0.5,0.5v2.2h-2.1v-2.2c0-0.3-0.2-0.5-0.5-0.5H7.5 c-0.1,0-0.3,0.1-0.4,0.1C7.1,16.1,7,16.2,7,16.3l0,7.5c0,0.3,0.2,0.5,0.5,0.5h3.2c1,5,0.5,13-1.9,16.1H8.6C7.2,40.4,6,41.6,6,43 v2.8c0,0.3,0.2,0.5,0.5,0.5h15v2.3c0,0.3,0.2,0.5,0.5,0.5h20.2c0.3,0,0.5-0.2,0.5-0.5v-2.8C42.7,44.3,41.5,43.2,40.1,43.2z M31,3 c0-0.6,0.5-1.1,1.1-1.1s1.1,0.5,1.1,1.1v1.1c-0.4-0.1-0.7-0.2-1.1-0.2c-0.4,0-0.7,0.1-1.1,0.2C31,4.1,31,3,31,3z M32.1,4.9 c1.5,0,2.9,1.1,3.6,3l-1.1,0.9L32.4,7c-0.2-0.2-0.4-0.2-0.6,0l-2.2,1.8l-1.1-0.9C29.1,6.1,30.6,4.9,32.1,4.9z M27.2,8.1l2,1.7 c0.2,0.2,0.4,0.2,0.6,0L32.1,8l2.2,1.8c0.2,0.2,0.4,0.2,0.6,0l2-1.7l0.6,1.2c-1.3,1.9-2.6,5.1-2.8,8.3h-5.5 c-0.1-3.2-1.5-6.4-2.8-8.3L27.2,8.1z M29.1,18.7h6c0.7,0,1.2,0.5,1.2,1.2c0,0.7-0.5,1.2-1.2,1.2h-6c-0.7,0-1.2-0.5-1.2-1.2 C27.9,19.2,28.4,18.7,29.1,18.7z M27.1,23.3c0-0.7,0.5-1.2,1.2-1.2h7.6c0.7,0,1.2,0.5,1.2,1.2c0,0.7-0.5,1.2-1.2,1.2h-7.6 C27.6,24.5,27.1,23.9,27.1,23.3z M29.3,25.5h5.6c-0.6,6.7,0.7,12.5,3.8,17.7H25.5C28.6,38,29.8,32.1,29.3,25.5z M8,16.8h2.1v2.2 c0,0.3,0.2,0.5,0.5,0.5h3.1c0.3,0,0.5-0.2,0.5-0.5v-2.2h2.8v2.2c0,0.3,0.2,0.5,0.5,0.5h3.1c0.3,0,0.5-0.2,0.5-0.5v-2.2h2.1l0,6.5H8 L8,16.8z M11.7,24.3h7.7c-0.9,4.6-0.6,12.2,1.7,16.1h-11C12.4,36.5,12.6,28.9,11.7,24.3z M7,43c0-0.9,0.7-1.6,1.6-1.6h13.8 c0.9,0,1.6,0.7,1.6,1.6v0.2c-1.2,0.1-2.2,0.9-2.4,2.1H7V43z M41.7,48H22.5v-2.3c0-0.9,0.7-1.6,1.6-1.6h16c0.9,0,1.6,0.7,1.6,1.6 L41.7,48L41.7,48z" stroke-width="0"/> </g> <g id="Margin" class="st1"> <rect x="1" y="1" class="st2" /> </g> <g id="Guides" class="st1"> </g> <g id="LABELS"> </g> <g id="LABELS_00000171692097695576208720000012718279048327612833_"> <g> <g> <g> <g> <g> </g> </g> </g> </g> </g> </g> </svg> 