<?xml version="1.0" encoding="UTF-8"?><svg width="70" height="70" id="uuid-d5d708da-c404-4a6c-83d4-aa38c56db00b" xmlns="http://www.w3.org/2000/svg" viewBox="-10 -10 70 70"><rect x="-10" y="-10" width="70" height="70" fill="white"/><path d="M47.67,38.1c.29,0,.51,.23,.51,.51s-.22,.51-.51,.51H15.99c.04-.1,.09-.2,.11-.31,.03-.25,0-.49-.07-.71h31.64Z" fill="#ffcd00" stroke-width="0"/><path d="M2.22,38.08c2.05-.31,4.14-.46,6.23-.46,1.61,0,3.23,.09,4.83,.28,.46,.05,.93,.11,1.4,.18,.02,0,.03,.01,.05,.02,.25,.06,.41,.3,.38,.56-.04,.25-.26,.43-.51,.43h-.07c-.05-.01-.09-.01-.14-.02-.42-.06-.84-.09-1.26-.14-1.56-.17-3.12-.29-4.69-.29-2.03,0-4.07,.15-6.07,.45h-.08c-.25,0-.47-.18-.5-.43-.05-.28,.15-.54,.43-.58Z" fill="#ffcd00" stroke-width="0"/><path d="M38.41,25.19c-.15-.02-.27,.04-.37,.14-.1,.09-.15,.22-.15,.36v3.66c0,.27,.21,.5,.48,.5,2.28,.06,4.56,.13,6.84,.23h.02c.13,0,.25-.05,.35-.14,.09-.09,.15-.22,.15-.36v-3.57c0-.27-.2-.49-.47-.5-2.28-.14-4.59-.25-6.85-.32Zm.01-5.9c-.15-.02-.27,.04-.37,.14-.1,.09-.16,.22-.16,.36v3.66c0,.27,.21,.49,.48,.5,2.28,.09,4.58,.22,6.83,.38h.03c.13,0,.25-.05,.34-.14,.11-.09,.16-.22,.16-.36v-3.58c.01-.26-.19-.47-.45-.49-2.27-.2-4.58-.36-6.86-.47Zm-.52-1.74c0,.27,.2,.49,.47,.5,2.26,.12,4.55,.3,6.82,.52h.05c.12,0,.24-.04,.33-.13,.11-.09,.17-.22,.17-.37v-3.57c0-.25-.19-.47-.44-.5-2.28-.26-4.59-.47-6.87-.61-.13-.01-.27,.04-.37,.13-.1,.1-.16,.23-.16,.37v3.66Zm-1.59,19.77V12.07c3.18,.17,6.44,.42,9.25,.75h.01c.34,.05,.66,.09,.99,.13,.14,.02,.29,.04,.44,.06,.13,.02,.26,.03,.39,.05v24.26h-11.08Zm2.08-6.27c-.15-.01-.26,.05-.36,.14-.09,.1-.15,.22-.15,.36v3.66c0,.28,.22,.5,.5,.5,2.28,.02,4.56,.05,6.84,.08h.01c.13,0,.25-.05,.35-.14,.09-.09,.15-.22,.15-.36v-3.57c0-.27-.22-.49-.49-.5-2.28-.07-4.56-.13-6.85-.17Z" fill="#ffcd00" stroke-width="0"/><path d="M8.44,35.79c2.29-.03,4.57-.06,6.85-.08,.27,0,.49-.22,.49-.5v-3.66c0-.14-.05-.26-.15-.36-.1-.09-.22-.15-.36-.14-2.28,.04-4.57,.1-6.85,.17-.27,.01-.48,.23-.48,.5v3.57c0,.14,.05,.27,.15,.36,.09,.09,.22,.14,.35,.14Zm-.01-11.46h.04c2.27-.16,4.56-.29,6.82-.38,.27-.01,.48-.23,.48-.5v-3.66c0-.14-.06-.27-.15-.36-.1-.1-.24-.14-.37-.14-2.28,.11-4.59,.27-6.87,.47-.25,.02-.45,.24-.45,.5v3.57c0,.14,.06,.27,.16,.37,.09,.08,.21,.13,.34,.13Zm0-5.75h.05c2.25-.23,4.55-.4,6.82-.53,.26-.01,.47-.23,.47-.5v-3.66c0-.14-.06-.27-.16-.36-.1-.1-.24-.14-.38-.14-2.28,.15-4.59,.36-6.86,.62-.25,.03-.44,.24-.44,.5v3.57c0,.14,.06,.28,.16,.37,.09,.08,.21,.13,.34,.13Zm-.5,7.43v3.57c0,.14,.06,.27,.16,.36,.09,.09,.22,.14,.34,.14h.03c2.27-.1,4.55-.17,6.83-.23,.27,0,.49-.23,.49-.5v-3.66c0-.14-.06-.27-.16-.36-.09-.09-.23-.16-.36-.14-2.29,.08-4.59,.18-6.86,.32-.26,.02-.47,.23-.47,.5Zm-1.61,10.9V13.06c.13-.02,.26-.03,.39-.05l.45-.06c.32-.04,.64-.08,.97-.12t.02-.01c2.81-.33,6.07-.58,9.24-.75l.02,25.25h-2.33s-.03-.01-.04-.01c-2.09-.31-4.24-.47-6.37-.47-.79,0-1.57,.03-2.35,.07Z" fill="#ffcd00" stroke-width="0"/><path d="M27.7,31.47v3.71c0,.13,.05,.26,.14,.35,.1,.1,.22,.15,.36,.15h5.04c.13,0,.26-.05,.35-.14,.1-.1,.15-.22,.15-.36v-3.7c0-.27-.22-.49-.49-.5-1.07,0-3.52-.01-5.05-.01-.28,0-.5,.23-.5,.5Zm0-5.92v3.7c0,.28,.22,.5,.5,.5,1.52,0,3.97,.01,5.04,.02,.14,0,.26-.05,.36-.15,.09-.09,.14-.22,.14-.35v-3.7c0-.28-.21-.5-.49-.5-1.07-.02-3.52-.02-5.05-.02-.28,0-.5,.22-.5,.5Zm0-5.97v3.71c0,.27,.22,.5,.5,.5,1.52,0,3.97,0,5.04,.02h.01c.13,0,.25-.05,.35-.14,.09-.1,.15-.22,.15-.36v-3.7c0-.27-.22-.49-.49-.5-1.05-.02-3.43-.03-4.97-.03-.32,0-.59,.19-.59,.5Zm0-5.97v3.71c0,.28,.22,.5,.5,.5,1.52,0,3.97,.01,5.04,.04h.01c.13,0,.25-.05,.35-.15,.09-.09,.15-.22,.15-.35v-3.7c0-.27-.22-.49-.49-.5-1.11-.03-3.63-.05-5.06-.05-.28,0-.5,.23-.5,.5Zm-7.59,4.1c.1,.1,.22,.15,.35,.15h.02c1.06-.03,3.51-.04,5.04-.04,.27,0,.5-.22,.5-.5v-3.71c0-.27-.23-.5-.5-.5-1.44,0-3.96,.02-5.07,.05-.27,.01-.49,.23-.49,.5v3.7c0,.13,.06,.26,.15,.35Zm.36,13.27c-.28,.01-.5,.23-.5,.5v3.7c0,.14,.05,.26,.15,.36,.09,.09,.22,.14,.35,.14h5.05c.27,0,.5-.23,.5-.5v-3.71c0-.27-.23-.5-.5-.5-1.53,0-3.99,.01-5.05,.01Zm-.01-5.91c-.27,0-.49,.22-.49,.5v3.7c0,.13,.05,.26,.15,.35,.09,.1,.22,.15,.35,.15,.54,0,1.42-.01,2.35-.01,.94-.01,1.93-.01,2.7-.01,.27,0,.5-.22,.5-.5v-3.7c0-.28-.23-.5-.5-.5-1.54,0-3.99,0-5.06,.02Zm-.34-1.4c.09,.09,.21,.14,.35,.14,.54-.01,1.42-.02,2.35-.02h2.7c.27,0,.5-.23,.5-.5v-3.71c0-.28-.23-.5-.5-.5-1.54,0-4,.01-5.07,.03-.27,.01-.49,.23-.49,.5v3.7c.01,.14,.06,.26,.16,.36Zm-1.71,13.65l-.02-25.3c2.68-.13,5.26-.21,7.41-.22h.03c.69-.01,1.37-.01,2.05,0h.03c2.15,.01,4.73,.09,7.41,.22v25.3H18.41Z" fill="#ffcd00" stroke-width="0"/><path d="M5.91,9.04l-1.5-.82c-.31-.16-.28-.46-.27-.55,.02-.08,.1-.38,.45-.42,14.13-1.95,30.33-1.94,44.45,.01,.35,.05,.43,.33,.45,.42s.05,.38-.26,.55l-1.44,.81c-6.19-.9-15.16-1.32-20.93-1.32s-14.75,.42-20.95,1.32Z" fill="#ffcd00" stroke-width="0"/><path d="M38.15,16.33c1.94,.11,3.9,.26,5.84,.44v-2.57c-1.94-.22-3.9-.4-5.84-.53v2.66Zm-1-3.19c0-.14,.06-.27,.16-.37,.1-.09,.24-.14,.37-.13,2.28,.14,4.59,.35,6.87,.61,.25,.03,.44,.25,.44,.5v3.57c0,.15-.06,.28-.17,.37-.09,.09-.21,.13-.33,.13h-.05c-2.27-.22-4.56-.4-6.82-.52-.27-.01-.47-.23-.47-.5v-3.66Z" stroke-width="0"/><path d="M38.14,22.22c1.95,.08,3.91,.19,5.84,.32v-2.58c-1.93-.16-3.89-.3-5.84-.4v2.66Zm-1,.48v-3.66c0-.14,.06-.27,.16-.36,.1-.1,.22-.16,.37-.14,2.28,.11,4.59,.27,6.86,.47,.26,.02,.46,.23,.46,.49v3.58c0,.14-.06,.27-.17,.36-.09,.09-.21,.14-.34,.14h-.03c-2.25-.16-4.55-.29-6.83-.38-.27,0-.48-.23-.48-.5Z" stroke-width="0"/><path d="M38.14,28.11c1.95,.05,3.89,.12,5.84,.2v-2.58c-1.95-.12-3.91-.21-5.84-.27v2.65Zm-1,.49v-3.66c0-.14,.05-.27,.15-.36,.1-.1,.22-.16,.37-.14,2.26,.07,4.57,.18,6.85,.32,.27,.01,.47,.23,.47,.5v3.57c0,.14-.06,.27-.15,.36-.1,.09-.22,.14-.35,.14h-.02c-2.28-.1-4.56-.17-6.84-.23-.27,0-.48-.23-.48-.5Z" stroke-width="0"/><path d="M38.13,31.31v2.66c1.95,.01,3.9,.04,5.85,.07v-2.59c-1.95-.06-3.9-.1-5.85-.14Zm-1,3.15v-3.66c0-.14,.06-.26,.15-.36,.1-.09,.21-.15,.36-.14,2.29,.04,4.57,.1,6.85,.17,.27,.01,.49,.23,.49,.5v3.57c0,.14-.06,.27-.15,.36-.1,.09-.22,.14-.35,.14h-.01c-2.28-.03-4.56-.06-6.84-.08-.28,0-.5-.22-.5-.5Z" stroke-width="0"/><path d="M32,16.1v-2.7c-1.09-.02-2.81-.03-4.05-.04v2.71c1.29,0,2.98,0,4.05,.03Zm-5.05,.47v-3.71c0-.27,.22-.5,.5-.5,1.43,0,3.95,.02,5.06,.05,.27,.01,.49,.23,.49,.5v3.7c0,.13-.06,.26-.15,.35-.1,.1-.22,.15-.35,.15h-.01c-1.07-.03-3.52-.04-5.04-.04-.28,0-.5-.22-.5-.5Z" stroke-width="0"/><path d="M32,19.35c-1.07-.01-2.76-.02-4.05-.02v2.71c1.29,0,2.98,0,4.05,.01v-2.7Zm-5.05,3.19v-3.71c0-.31,.27-.5,.59-.5,1.54,0,3.92,.01,4.97,.03,.27,0,.49,.23,.49,.5v3.7c0,.14-.06,.26-.15,.36-.1,.09-.22,.14-.35,.14h-.01c-1.07-.02-3.52-.02-5.04-.02-.28,0-.5-.23-.5-.5Z" stroke-width="0"/><path d="M31.99,25.31c-1.06-.01-2.75-.01-4.04-.01v2.7c1.29,0,2.98,.01,4.04,.01v-2.7Zm-5.04,3.19v-3.7c0-.28,.22-.5,.5-.5,1.53,0,3.98,0,5.05,.02,.28,0,.49,.22,.49,.5v3.7c0,.13-.05,.26-.14,.35-.1,.1-.22,.15-.36,.15-1.07-.01-3.52-.02-5.04-.02-.28,0-.5-.22-.5-.5Z" stroke-width="0"/><path d="M31.99,31.23c-1.06,0-2.75-.01-4.04-.01v2.71h4.04v-2.7Zm-5.04,3.2v-3.71c0-.27,.22-.5,.5-.5,1.53,0,3.98,.01,5.05,.01,.27,.01,.49,.23,.49,.5v3.7c0,.14-.05,.26-.15,.36-.09,.09-.22,.14-.35,.14h-5.04c-.14,0-.26-.05-.36-.15-.09-.09-.14-.22-.14-.35Z" stroke-width="0"/><path d="M20.22,28.01c1.06,0,2.75-.01,4.05-.01v-2.7c-1.3,0-2.99,0-4.05,.01v2.7Zm-1,.51v-3.7c0-.28,.22-.5,.49-.5,1.07-.02,3.52-.02,5.06-.02,.27,0,.5,.22,.5,.5v3.7c0,.28-.23,.5-.5,.5-.77,0-1.76,0-2.7,.01-.93,0-1.81,.01-2.35,.01-.13,0-.26-.05-.35-.15-.1-.09-.15-.22-.15-.35Z" stroke-width="0"/><path d="M24.27,19.33c-1.3,0-2.99,.01-4.06,.02v2.7c1.07-.01,2.76-.01,4.06-.01v-2.71Zm-5.05,3.23v-3.7c-.01-.27,.21-.49,.48-.5,1.07-.02,3.53-.03,5.07-.03,.27,0,.5,.22,.5,.5v3.71c0,.27-.23,.5-.5,.5h-2.7c-.93,0-1.81,.01-2.35,.02-.14,0-.26-.05-.35-.14-.1-.1-.15-.22-.15-.36Z" stroke-width="0"/><path d="M20.22,33.93h4.05v-2.71c-1.3,0-2.99,.01-4.05,.01v2.7Zm-1,.5v-3.7c0-.27,.22-.49,.5-.5,1.06,0,3.52-.01,5.05-.01,.27,0,.5,.23,.5,.5v3.71c0,.27-.23,.5-.5,.5h-5.05c-.13,0-.26-.05-.35-.14-.1-.1-.15-.22-.15-.36Z" stroke-width="0"/><path d="M24.27,13.36c-1.25,0-2.97,.02-4.06,.04v2.7c1.07-.02,2.76-.03,4.06-.03v-2.71Zm-5.06,3.25v-3.7c0-.27,.22-.49,.49-.5,1.11-.03,3.63-.05,5.07-.05,.27,0,.5,.23,.5,.5v3.71c0,.28-.23,.5-.5,.5-1.53,0-3.98,0-5.04,.04h-.02c-.13,0-.25-.05-.35-.15-.09-.09-.15-.22-.15-.35Z" stroke-width="0"/><path d="M8.18,16.78c1.93-.19,3.89-.34,5.84-.45v-2.66c-1.95,.14-3.91,.31-5.84,.53v2.58Zm-1,.55v-3.57c0-.26,.19-.47,.44-.5,2.27-.26,4.58-.47,6.86-.62,.14,0,.28,.04,.38,.14,.1,.09,.16,.22,.16,.36v3.66c0,.27-.21,.49-.47,.5-2.27,.13-4.57,.3-6.82,.53h-.05c-.13,0-.25-.05-.34-.13-.1-.09-.16-.23-.16-.37Z" stroke-width="0"/><path d="M8.19,34.04c1.95-.03,3.89-.06,5.84-.07v-2.66c-1.95,.04-3.9,.09-5.84,.15v2.58Zm-1,.5v-3.57c0-.27,.21-.49,.48-.5,2.28-.07,4.57-.13,6.85-.17,.14,0,.26,.05,.36,.14,.1,.1,.15,.22,.15,.36v3.66c0,.28-.22,.5-.49,.5-2.28,.02-4.56,.05-6.85,.08-.13,0-.26-.05-.35-.14-.1-.09-.15-.22-.15-.36Z" stroke-width="0"/><path d="M14.03,25.46c-1.95,.07-3.91,.16-5.85,.27v2.58c1.95-.08,3.9-.15,5.85-.2v-2.65Zm-6.85,3.37v-3.57c0-.27,.21-.48,.47-.5,2.27-.14,4.57-.24,6.86-.32,.13-.02,.27,.05,.36,.14,.1,.09,.16,.22,.16,.36v3.66c0,.27-.22,.5-.49,.5-2.28,.06-4.56,.13-6.83,.23h-.03c-.12,0-.25-.05-.34-.14-.1-.09-.16-.22-.16-.36Z" stroke-width="0"/><path d="M14.02,19.57c-1.94,.1-3.9,.23-5.84,.4v2.57c1.95-.13,3.91-.24,5.84-.32v-2.65Zm-6.84,3.51v-3.57c0-.26,.2-.48,.45-.5,2.28-.2,4.59-.36,6.87-.47,.13,0,.27,.04,.37,.14,.09,.09,.15,.22,.15,.36v3.66c0,.27-.21,.49-.48,.5-2.26,.09-4.55,.22-6.82,.38h-.04c-.13,0-.25-.05-.34-.13-.1-.1-.16-.23-.16-.37Z" stroke-width="0"/><path d="M41.57,44.96h5.07v-5.37h-5.07v5.37Zm-6.01-8.39h11.08V12.31c-.13-.02-.26-.03-.39-.05-.15-.02-.3-.04-.44-.06-.33-.04-.65-.08-.99-.12h-.01c-2.81-.34-6.07-.59-9.24-.76v25.25Zm-8.96,8.39h13.96v-5.37h-13.96v5.37Zm-11.11-7.39c.07,.22,.1,.46,.07,.71-.02,.11-.07,.21-.11,.31h31.68c.29,0,.51-.23,.51-.51s-.22-.51-.51-.51H15.5Zm2.14-26.3l.02,25.3h16.9V11.27c-2.67-.13-5.25-.21-7.4-.22h-.03c-.68-.01-1.36-.01-2.05,0h-.03c-2.15,.01-4.73,.09-7.41,.22Zm7.97,28.32H14.57v5.37h11.04v-5.37Zm-17.7-.48c-1.9,0-3.8,.14-5.65,.41v5.44c3.77-.01,7.54-.01,11.31,0v-5.44c-1.86-.27-3.76-.41-5.66-.41ZM5.16,8.29c6.2-.9,15.17-1.32,20.95-1.32s14.74,.42,20.93,1.32l1.44-.81c.31-.17,.28-.46,.26-.55s-.1-.37-.45-.42c-14.12-1.95-30.32-1.96-44.45-.01-.35,.04-.43,.34-.45,.42-.01,.09-.04,.39,.27,.55l1.5,.82Zm.41,4.02v23.85c.78-.04,1.56-.07,2.35-.07,2.13,0,4.28,.16,6.37,.47,.01,0,.03,.01,.04,.01h2.33l-.02-25.25c-3.17,.17-6.43,.42-9.24,.75t-.02,0c-.33,.04-.65,.08-.97,.12l-.45,.06c-.13,.02-.26,.03-.39,.05Zm0-1.01c.09-.01,.19-.02,.28-.04,.23-.03,.46-.06,.7-.09l.27-.03c.56-.07,1.15-.14,1.74-.2,.46-.05,.93-.09,1.4-.14,.1-.01,.19-.01,.29-.02,3.84-.36,8.01-.58,11.67-.68h.03c.5-.01,.99-.02,1.47-.03,.55-.01,1.09-.02,1.6-.02h.08c.34-.01,.68-.01,1.01-.01s.66,0,1,.01h.08c.51,0,1.05,.01,1.6,.02,.48,0,.97,.02,1.47,.03h.03c3.66,.1,7.84,.32,11.68,.68,.09,.01,.18,.01,.27,.02,.48,.05,.95,.09,1.42,.14,.59,.06,1.18,.13,1.74,.2,.09,.01,.17,.02,.26,.03,.24,.03,.47,.06,.7,.09,.1,.02,.19,.03,.28,.04v-2.05c-5.66-.81-14-1.22-19.49-1.27-.69-.01-1.39-.01-2.09,0-5.48,.05-13.82,.46-19.49,1.27v2.05ZM1.54,36.56c1-.15,2.01-.26,3.03-.34V9.11l-1.39-.76c-.59-.32-.89-.95-.77-1.61s.63-1.14,1.3-1.23c14.21-1.96,30.51-1.96,44.72,.01,.66,.09,1.17,.57,1.29,1.22,.13,.65-.17,1.28-.74,1.61l-1.34,.75v27.56c.59,.21,1.01,.76,1.01,1.42s-.42,1.21-1.01,1.42v5.96c0,.27-.22,.5-.5,.5H14.07c-4.1-.01-8.2-.01-12.31,0-.12-.04-.26-.05-.35-.15-.1-.09-.15-.22-.15-.35v-5.99c-.51-.18-.91-.63-.99-1.2-.06-.39,.04-.79,.28-1.12,.24-.32,.59-.53,.99-.59Zm.3,2c2-.3,4.04-.45,6.07-.45,1.57,0,3.13,.12,4.69,.29,.42,.05,.84,.08,1.26,.14,.05,0,.09,0,.14,.02h.07c.25,0,.47-.18,.51-.43,.03-.26-.13-.5-.38-.56-.02-.01-.03-.02-.05-.02-.47-.07-.94-.13-1.4-.18-1.6-.19-3.22-.28-4.83-.28-2.09,0-4.18,.15-6.23,.46-.28,.04-.48,.3-.43,.58,.03,.25,.25,.43,.5,.43h.08Z" stroke-width="0"/></svg>