<?xml version="1.0" encoding="UTF-8"?><svg width="70" height="70" xmlns="http://www.w3.org/2000/svg" viewBox="-10 -10 70 70"><rect x="-10" y="-10" width="70" height="70" fill="white"/><g id="uuid-b6e5c924-6cd6-4ab1-b659-970f58c33d6b"><g><path d="M42.37,30.41l.21-.27c1.92-2.55,2.22-7.89,2.44-11.79,.05-.96,.1-1.83,.17-2.54,.06-.68-.34-1.32-.89-1.39h-.1c-.5,0-.92,.47-.98,1.1-.08,.86-.16,1.72-.23,2.57-.5,5.73-.87,9.3-1.92,10.49l-.35,.39-.38-.36c-.13-.13-.24-.21-.35-.29-.58-.45-.98-.83-2.27-3.63-1.67-3.6-2.62-8.93-2.67-9.58,0-.73-.45-1.29-.99-1.29s-.99,.56-.99,1.25c0,1.75,1.9,8.6,2.86,10.69,1.1,2.41,1.35,2.7,2.09,3.56,.14,.16,.29,.34,.47,.55l.25,.31-.24,.32c-1.95,2.56-2.39,7.72-2.66,10.8-.07,.8-.13,1.48-.2,1.98-.09,.68,.29,1.35,.83,1.45,.28,.05,.49-.05,.63-.15,.26-.19,.44-.51,.49-.88,.12-.87,.23-1.77,.34-2.65,.53-4.24,.99-7.9,2.17-9.12l.42-.44,.35,.5c1.2,1.7,2.72,7.75,3.45,13.76,.05,.37,.22,.7,.48,.89,.13,.1,.35,.21,.63,.16,.54-.09,.93-.75,.85-1.43-.39-3.2-1.54-11.04-3.76-14.66l-.18-.29Z" fill="#ffcd00" stroke-width="0"/><path d="M18.79,27.05l-.33-.33,.31-.35c4.11-4.59,6.02-14.78,6.51-17.8,.08-.51-.04-1.02-.34-1.44-.3-.42-.75-.69-1.26-.78-.51-.08-1.02,.04-1.43,.33-.42,.3-.7,.75-.78,1.26-1.03,6.34-3.51,14.14-5.87,16.24l-.39,.34-.33-.4c-1.46-1.76-2.06-6.72-2.83-13-.25-2.06-.51-4.2-.82-6.33-.07-.51-.34-.96-.75-1.27-.41-.31-.92-.44-1.43-.36-1.05,.15-1.79,1.13-1.64,2.18,.17,1.19,.3,2.66,.44,4.36,.45,5.32,1.07,12.6,3.77,16.35l.23,.32-.27,.3c-3.55,4-4.45,12.9-4.98,18.22-.06,.63-.12,1.21-.18,1.73-.12,1.06,.65,2.01,1.71,2.13,.08,0,.15,.01,.21,.01,.98,0,1.81-.74,1.92-1.72,1.14-10.3,2.58-16.36,4.31-18.01l.32-.31,.34,.28c.97,.81,3.05,2.98,6.05,8.5,2.47,4.54,3.66,8.1,4.18,9.63l.12,.37c.47,1.25,.99,2.09,1.96,2.09,1.06,0,1.93-.87,1.93-1.93,0-2.27-2.79-8.28-4.67-11.76-2.14-3.97-4.17-6.95-6.03-8.86Z" fill="#ffcd00" stroke-width="0"/><path d="M18.07,24.94c3.97-4.78,5.83-14.1,6.45-17.96,.12-.77-.06-1.55-.52-2.18-.46-.63-1.14-1.05-1.91-1.18-.77-.13-1.54,.05-2.18,.51-.64,.46-1.06,1.14-1.18,1.91-1.03,6.33-3.3,12.98-5.15,15.22-1.07-1.98-1.66-6.86-2.29-12.01-.25-2.07-.51-4.21-.82-6.35-.11-.78-.52-1.46-1.14-1.93-.63-.47-1.4-.67-2.18-.55-1.6,.23-2.71,1.72-2.48,3.32,.17,1.16,.29,2.62,.43,4.3,.45,5.29,1.06,12.48,3.73,16.52-3.55,4.36-4.44,13.17-4.97,18.48-.06,.62-.12,1.2-.18,1.72-.18,1.6,.99,3.05,2.58,3.23,1.63,.2,3.06-.99,3.24-2.59,1.01-9.13,2.31-15.12,3.7-17.05,.94,.89,2.82,3.05,5.45,7.88,2.42,4.46,3.6,7.97,4.11,9.47l.13,.39c.34,.89,1.04,2.75,2.9,2.75,1.62,0,2.93-1.31,2.93-2.93,0-3.31-4.59-11.87-4.79-12.24-2.06-3.83-4.04-6.77-5.88-8.75Zm7.73,22.92c-.97,0-1.48-.84-1.96-2.09l-.12-.37c-.51-1.52-1.71-5.09-4.18-9.63-3-5.52-5.08-7.69-6.05-8.5l-.34-.28-.32,.31c-1.72,1.65-3.17,7.72-4.31,18.01-.11,.98-.93,1.72-1.92,1.72-.07,0-.14,0-.21-.01-1.06-.12-1.82-1.07-1.71-2.13,.06-.52,.12-1.1,.18-1.73,.53-5.32,1.43-14.22,4.98-18.22l.27-.3-.23-.32c-2.7-3.75-3.32-11.03-3.77-16.35-.14-1.7-.27-3.17-.44-4.36-.15-1.05,.58-2.03,1.64-2.18,.51-.07,1.02,.06,1.43,.36,.41,.31,.68,.76,.75,1.27,.31,2.13,.57,4.27,.82,6.33,.77,6.28,1.37,11.24,2.83,13l.33,.4,.39-.34c2.37-2.09,4.85-9.9,5.87-16.24,.08-.51,.36-.96,.78-1.26,.42-.3,.93-.42,1.43-.33,.51,.08,.96,.36,1.26,.78,.3,.42,.42,.93,.34,1.44-.49,3.02-2.4,13.21-6.51,17.8l-.31,.35,.33,.33c1.86,1.91,3.89,4.89,6.03,8.86,1.88,3.48,4.67,9.49,4.67,11.76,0,1.06-.87,1.93-1.93,1.93Z" stroke-width="0"/><path d="M45.55,43.5c-.48-3.96-1.6-11.04-3.73-14.78,1.93-2.86,2.23-8.16,2.45-12.06,.05-.95,.1-1.8,.17-2.51,.12-1.23-.67-2.34-1.75-2.47-1.12-.16-2.1,.76-2.21,2-.08,.86-.16,1.73-.23,2.58-.35,3.93-.7,7.98-1.41,9.49-.38-.29-.72-.58-1.95-3.24-1.58-3.42-2.53-8.63-2.57-9.19,0-1.24-.89-2.25-1.99-2.25s-1.99,1.01-1.99,2.25c0,1.93,1.91,8.84,2.95,11.11h0c1.16,2.53,1.46,2.88,2.24,3.8,.07,.08,.14,.16,.21,.25-1.93,2.85-2.34,7.73-2.62,10.99-.07,.78-.12,1.44-.19,1.93-.17,1.22,.57,2.37,1.63,2.57,.49,.09,.98-.02,1.4-.31,.48-.35,.81-.91,.9-1.56,.12-.88,.23-1.77,.35-2.67,.38-3.02,.8-6.39,1.51-7.93,.95,2.04,2.21,6.95,2.9,12.62,.08,.64,.4,1.21,.88,1.57,.33,.24,.71,.37,1.1,.37,.1,0,.2,0,.3-.03,1.07-.18,1.82-1.32,1.67-2.54Zm-1.84,1.55c-.28,.05-.5-.06-.63-.16-.26-.19-.43-.52-.48-.89-.74-6.01-2.26-12.06-3.45-13.76l-.35-.5-.42,.44c-1.18,1.23-1.64,4.89-2.17,9.12-.11,.89-.22,1.78-.34,2.65-.05,.37-.23,.69-.49,.88-.13,.1-.35,.2-.63,.15-.54-.1-.93-.77-.83-1.45,.07-.5,.13-1.19,.2-1.98,.26-3.08,.7-8.24,2.66-10.8l.24-.32-.25-.31c-.18-.21-.33-.39-.47-.55-.74-.86-.99-1.15-2.09-3.56-.96-2.09-2.86-8.94-2.86-10.69,0-.69,.45-1.25,.99-1.25s.99,.56,.99,1.29c.05,.64,1,5.98,2.67,9.58,1.3,2.8,1.69,3.19,2.27,3.63,.1,.08,.22,.16,.35,.29l.38,.36,.35-.39c1.05-1.18,1.41-4.76,1.92-10.49,.07-.85,.15-1.71,.23-2.57,.06-.63,.48-1.11,.98-1.11h.1c.54,.08,.95,.71,.89,1.4-.07,.72-.12,1.58-.17,2.54-.22,3.9-.52,9.24-2.44,11.79l-.21,.27,.18,.29c2.22,3.62,3.37,11.46,3.76,14.66,.08,.68-.3,1.34-.85,1.43Z" stroke-width="0"/></g></g><g id="uuid-2df82bd8-92a8-4c89-8881-edd6ac4749b9"></g></svg>