<?xml version="1.0" encoding="UTF-8"?><svg width="70" height="70" id="uuid-be7dd516-a4d8-4ea3-b09b-15afc96e311f" xmlns="http://www.w3.org/2000/svg" viewBox="-10 -10 70 70"><rect x="-10" y="-10" width="70" height="70" fill="white"/><circle cx="34.07" cy="14.13" r="2.47" fill="#ffcd00"/><path d="M14.26,26.74c0-1.36-1.11-2.47-2.47-2.47s-2.47,1.11-2.47,2.47,1.11,2.47,2.47,2.47,2.47-1.11,2.47-2.47Z" fill="#ffcd00" stroke-width="0"/><path d="M21.72,5.43c0-1.36-1.11-2.47-2.47-2.47s-2.47,1.11-2.47,2.47,1.11,2.47,2.47,2.47,2.47-1.11,2.47-2.47Z" fill="#ffcd00" stroke-width="0"/><path d="M28.24,22.12c0-1.36-1.11-2.47-2.47-2.47s-2.47,1.11-2.47,2.47,1.11,2.47,2.47,2.47,2.47-1.11,2.47-2.47Z" fill="#ffcd00" stroke-width="0"/><path d="M40.71,19.94c-1.36,0-2.47,1.11-2.47,2.47s1.11,2.47,2.47,2.47,2.47-1.11,2.47-2.47-1.11-2.47-2.47-2.47Z" fill="#ffcd00" stroke-width="0"/><path d="M27.74,20.62c0-1.91-1.56-3.47-3.47-3.47s-3.47,1.56-3.47,3.47c0,1.74,1.29,3.17,2.97,3.42v9.11c0,.13,.05,.26,.15,.35l1.82,1.82v13.69c0,.28,.22,.5,.5,.5s.5-.22,.5-.5v-13.9c0-.13-.05-.26-.15-.35l-1.82-1.82v-8.9c1.67-.24,2.97-1.68,2.97-3.42Zm-5.94,0c0-1.36,1.11-2.47,2.47-2.47s2.47,1.11,2.47,2.47-1.11,2.47-2.47,2.47-2.47-1.11-2.47-2.47Z" stroke-width="0"/><path d="M10.79,34.32v-5.67c1.68-.24,2.97-1.68,2.97-3.42,0-1.91-1.56-3.47-3.47-3.47s-3.47,1.56-3.47,3.47c0,1.74,1.29,3.17,2.97,3.42v5.89c0,.14,.06,.28,.16,.37l4.44,4v10.1c0,.28,.22,.5,.5,.5s.5-.22,.5-.5v-10.32c0-.14-.06-.28-.17-.37l-4.44-4Zm-2.97-9.08c0-1.36,1.11-2.47,2.47-2.47s2.47,1.11,2.47,2.47-1.11,2.47-2.47,2.47-2.47-1.11-2.47-2.47Z" stroke-width="0"/><path d="M18.26,27.86V7.35c1.67-.24,2.97-1.68,2.97-3.42,0-1.91-1.56-3.47-3.47-3.47s-3.47,1.56-3.47,3.47c0,1.74,1.29,3.17,2.97,3.42V28.07c0,.13,.05,.26,.15,.35l2.3,2.31v18.28c0,.28,.22,.5,.5,.5s.5-.22,.5-.5V30.53c0-.13-.05-.26-.15-.35l-2.3-2.31ZM15.29,3.93c0-1.36,1.11-2.47,2.47-2.47s2.47,1.11,2.47,2.47-1.11,2.47-2.47,2.47-2.47-1.11-2.47-2.47Z" stroke-width="0"/><path d="M36.03,12.63c0-1.91-1.56-3.47-3.47-3.47s-3.47,1.56-3.47,3.47c0,1.74,1.29,3.17,2.96,3.42v12.03l-2.58,2.58c-.09,.09-.15,.22-.15,.35v18c0,.28,.22,.5,.5,.5s.5-.22,.5-.5V31.22l2.58-2.58c.09-.09,.15-.22,.15-.35v-12.23c1.68-.24,2.98-1.67,2.98-3.42Zm-5.94,0c0-1.36,1.11-2.47,2.47-2.47s2.47,1.11,2.47,2.47-1.11,2.47-2.47,2.47-2.47-1.11-2.47-2.47Z" stroke-width="0"/><path d="M42.68,20.91c0-1.91-1.56-3.47-3.47-3.47s-3.47,1.56-3.47,3.47c0,1.74,1.29,3.17,2.97,3.42v12.21l-5.19,5.23c-.09,.09-.15,.22-.15,.35v6.92c0,.28,.22,.5,.5,.5s.5-.22,.5-.5v-6.72l5.19-5.23c.09-.09,.15-.22,.15-.35v-12.42c1.68-.24,2.97-1.68,2.97-3.42Zm-3.47,2.47c-1.36,0-2.47-1.11-2.47-2.47s1.11-2.47,2.47-2.47,2.47,1.11,2.47,2.47-1.11,2.47-2.47,2.47Z" stroke-width="0"/></svg>