<?xml version="1.0" encoding="UTF-8"?><svg width="70" height="70" xmlns="http://www.w3.org/2000/svg" viewBox="-10 -10 70 70"><rect x="-10" y="-10" width="70" height="70" fill="white"/><g id="uuid-7cb88d4c-6683-4988-99ce-1d7791e660f1"><g><path d="M30.03,34.3l4.91-4.44c.65-.58,.68-1.6,.09-2.26-.58-.65-1.56-.72-2.21-.18h-.01s-.02,.02-.03,.03h0c-.17,.11-.4,.09-.54-.07s-.14-.39,0-.54h-.01l1.72-1.57c.65-.58,.68-1.6,.09-2.26-.6-.66-1.61-.73-2.26-.14l-1.7,1.53s-.01,.02-.02,.03c-.17,.15-.43,.13-.58-.04-.12-.14-.14-.33-.05-.48l.34-.29h.02l4.89-4.43c.64-.58,.69-1.58,.1-2.23-.57-.64-1.54-.7-2.19-.16h-.01s-.02,.02-.03,.03h0c-.17,.11-.39,.09-.53-.06-.14-.15-.13-.38,0-.54h-.01l1.72-1.56c.64-.58,.69-1.58,.1-2.23-.59-.65-1.59-.7-2.23-.12l-1.69,1.53s-.01,.02-.02,.03c-.17,.15-.43,.14-.58-.03-.15-.17-.14-.43,.03-.58h0c.64-.59,.69-1.59,.1-2.24-.59-.65-1.59-.7-2.23-.12l-6.48,5.85c-.2,.25-.41,.3-.66,.14-.13-.1-.24-.3-.01-.67,.49-.61,.47-1.47-.06-2.05-.59-.65-1.59-.7-2.23-.12l-5.19,4.69c-.71,.61-1.81,1.71-2.61,3.41-1.2,2.56-.99,4.93-.84,5.92,.03,.06,.14,.3,.05,.58-.05,.16-.14,.27-.19,.32-1.16,1.05-2.31,2.1-3.47,3.15l3.77,4.08c-.09,.37-.18,.9-.14,1.53,.03,.46,.13,.84,.22,1.13-1.28,1.19-2.57,2.38-3.85,3.57,2.27,2.48,4.55,4.95,6.82,7.43,1.34-1.24,2.69-2.48,4.03-3.72,3.06,.85,6.43,.19,8.91-2.05,.05-.05,.1-.1,.15-.15l7.91-7.13c.65-.58,.68-1.6,.09-2.26-.6-.66-1.61-.72-2.26-.14l-.56,.51h0c-.11,.09-.26,.11-.39,.07-.03-.01-.12-.04-.18-.12-.11-.14-.1-.38,.04-.59Z" fill="#ffcd00" stroke-width="0"/><g><path d="M32.39,6.41c.28,0,.5-.22,.5-.5V.62c0-.28-.22-.5-.5-.5s-.5,.22-.5,.5V5.91c0,.28,.22,.5,.5,.5Z" stroke-width="0"/><path d="M39.65,11.43l5.83-6.42c.19-.2,.17-.52-.03-.71-.2-.18-.52-.17-.71,.03l-5.83,6.42c-.19,.2-.17,.52,.03,.71,.1,.09,.22,.13,.34,.13,.14,0,.27-.06,.37-.16Z" stroke-width="0"/><path d="M46.79,19.61l-7.05-.57c-.27-.03-.52,.18-.54,.46-.02,.28,.18,.52,.46,.54l7.05,.57s.03,0,.04,0c.26,0,.48-.2,.5-.46,.02-.28-.18-.52-.46-.54Z" stroke-width="0"/><path d="M29.27,10.26c-.05-.53-.27-1.04-.65-1.46-.94-1.02-2.53-1.09-3.55-.15l-5.34,4.91c-.05-.53-.27-1.04-.65-1.46-.45-.5-1.07-.78-1.75-.81-.66-.03-1.31,.21-1.81,.66l-5.24,4.81c-.05,.05-.1,.1-.12,.14l-.11,.09c-.07,.06-.14,.11-.21,.17-2.65,2.43-3.88,6.12-3.24,9.66l-3.69,3.38c-.1,.09-.16,.21-.16,.35,0,.13,.04,.26,.13,.36l3.86,4.2c-.03,.78,0,1.56,.15,2.35l-3.69,3.38c-.1,.09-.16,.21-.16,.35,0,.13,.04,.26,.13,.36l7.31,7.96c.1,.11,.23,.16,.37,.16,.12,0,.24-.04,.34-.13l3.94-3.61c3.33,.69,6.79-.26,9.3-2.56,.07-.06,.13-.13,.19-.2l.09-.08c.05-.04,.11-.08,.16-.12l7.66-7.04c.5-.45,.78-1.07,.81-1.74,.03-.67-.21-1.31-.66-1.81-.38-.42-.88-.68-1.4-.77l2.92-2.68c1.02-.94,1.09-2.53,.15-3.55-.38-.42-.88-.68-1.4-.77l.25-.23c.5-.45,.78-1.07,.81-1.74,.03-.67-.21-1.31-.66-1.81-.37-.4-.85-.66-1.37-.76l1.93-1.77c.5-.45,.78-1.07,.81-1.74,.03-.67-.21-1.31-.66-1.81-.38-.42-.88-.68-1.4-.77l.25-.23c1.02-.94,1.09-2.53,.15-3.55-.45-.5-1.07-.78-1.75-.81-.64-.04-1.31,.2-1.81,.66l-.25,.23ZM6.88,33.79l-2.92-3.18,3.52-3.23c.13-.12,.19-.3,.15-.47-.69-3.34,.39-6.71,2.89-9.01,.05-.05,.1-.09,.15-.13l.19-.16,.1-.11,5.24-4.81c.3-.27,.68-.43,1.09-.4,.4,.02,.78,.19,1.05,.49,.5,.55,.53,1.36,.07,1.95l-4.43,4.06c-.2,.18-.22,.48-.05,.69,.47,.58,.78,1.2,.9,1.86,.2,1.08-.15,2.01-.59,2.7l-3.67,3.37c-.05,.05-.1,.1-.12,.14l-.11,.09c-.07,.06-.15,.12-.22,.18-1.76,1.62-2.87,3.72-3.26,5.99Zm25.76-12.29c.27,.3,.42,.68,.4,1.09-.02,.4-.19,.78-.49,1.05l-1.73,1.59-9.09,8.34c-.2,.19-.22,.5-.03,.71,.1,.11,.23,.16,.37,.16,.12,0,.24-.04,.34-.13l9.09-8.34c.62-.56,1.57-.52,2.14,.09,.56,.62,.52,1.58-.09,2.14l-4.38,4.02-.02,.02-1.32,1.21h0l-.85,.79h0l-2.51,2.3c-.2,.19-.22,.5-.03,.71,.1,.11,.23,.16,.37,.16,.12,0,.24-.04,.34-.13l2.51-2.3h0l2.18-2c.62-.56,1.58-.52,2.14,.09,.27,.3,.41,.68,.4,1.09-.02,.4-.19,.78-.49,1.05l-7.72,7.08s-.1,.07-.12,.09l-.12,.12s-.09,.1-.14,.15c-2.33,2.14-5.57,2.99-8.66,2.27-.16-.04-.33,0-.45,.12l-3.76,3.45-6.64-7.23,3.52-3.24c.13-.12,.19-.3,.15-.47-.69-3.34,.38-6.71,2.88-9,.05-.05,.11-.09,.17-.14l.18-.16,.09-.11,5.24-4.81c.61-.56,1.58-.52,2.14,.09,.5,.55,.53,1.38,.06,1.96-.01,.02-.01,.04-.02,.05l-5.53,5.11c-.2,.19-.22,.5-.03,.71,.1,.11,.23,.16,.37,.16,.12,0,.24-.04,.34-.13l5.64-5.21h0l6.58-6.04c.62-.56,1.58-.52,2.14,.09,.56,.61,.52,1.57-.09,2.14h0l-9.09,8.35c-.2,.19-.22,.5-.03,.71,.1,.11,.23,.16,.37,.16,.12,0,.24-.04,.34-.13l9.09-8.34,1.73-1.59c.3-.27,.67-.43,1.09-.4,.4,.02,.78,.19,1.05,.49Zm.7-6.08c.27,.3,.42,.68,.4,1.09-.02,.4-.19,.78-.49,1.05l-3.21,2.94c-.08,.06-.15,.11-.22,.17l-.25,.23c-.05-.53-.27-1.04-.65-1.46-.38-.41-.86-.66-1.38-.76l3.66-3.36h0c.62-.56,1.57-.52,2.14,.09Zm-.99-4.56c.56,.62,.52,1.58-.09,2.14l-1.73,1.59h0l-4.95,4.55c-.07,.05-.14,.09-.2,.15l-5.34,4.91c-.05-.53-.27-1.04-.65-1.46-.93-1.01-2.5-1.08-3.52-.18,.06-.44,.06-.91-.03-1.41-.13-.68-.4-1.33-.82-1.93l4.06-3.73s.08-.04,.12-.07l6.58-6.04c.62-.56,1.58-.52,2.14,.09,.56,.61,.52,1.57-.09,2.14h0l-9.09,8.34c-.2,.19-.22,.5-.03,.71,.1,.11,.23,.16,.37,.16,.12,0,.24-.04,.34-.13l9.09-8.34h0l1.73-1.59c.62-.57,1.58-.52,2.14,.09Z" stroke-width="0"/></g></g></g><g id="uuid-690dde82-101b-4e6b-9260-3cb9c9097f47"></g></svg>