<?xml version="1.0" encoding="UTF-8"?><svg width="70" height="70" id="uuid-b85b9b21-6da1-4576-8362-5172527215bb" xmlns="http://www.w3.org/2000/svg" viewBox="-10 -10 70 70"><rect x="-10" y="-10" width="70" height="70" fill="white"/><path d="M14.05,47.72c.34-4.51,1.41-7.43,4.01-10.02L45.06,10.69h0l2.82-4.11-2.51-2.51-4.11,2.82L14.25,33.89c-2.59,2.59-5.51,3.66-10.02,4.01l9.82,9.82Z" fill="#ffcd00" stroke-width="0"/><g><path d="M31.85,16.54c-.4,0-.78,.16-1.06,.44-.29,.29-.44,.68-.44,1.06s.15,.77,.44,1.06c.28,.28,.66,.44,1.06,.44s.78-.16,1.06-.44c.58-.59,.58-1.54,0-2.12-.28-.28-.66-.44-1.06-.44Zm.35,1.85h0c-.09,.09-.22,.15-.35,.15s-.26-.05-.35-.15c-.2-.2-.2-.51,0-.71,.09-.09,.22-.15,.35-.15s.26,.05,.35,.15,.15,.23,.15,.35-.05,.26-.15,.35Z" stroke-width="0"/><path d="M27.11,20.66c-.29,.29-.44,.68-.44,1.06s.15,.77,.44,1.06c.28,.28,.66,.44,1.06,.44s.78-.16,1.06-.44c.59-.58,.59-1.54,0-2.12-.58-.58-1.54-.58-2.12,0Zm1.41,1.42c-.09,.09-.22,.15-.35,.15s-.26-.05-.35-.15c-.19-.19-.2-.51,0-.71,.19-.19,.51-.19,.71,0,.1,.1,.15,.23,.15,.35s-.05,.26-.15,.35Z" stroke-width="0"/><path d="M24.49,23.9c-.4,0-.78,.16-1.06,.44s-.44,.68-.44,1.06,.15,.77,.44,1.06,.66,.44,1.06,.44,.78-.16,1.06-.44c.58-.59,.58-1.54,0-2.12-.28-.28-.66-.44-1.06-.44Zm.35,1.85h0c-.09,.09-.22,.15-.35,.15s-.26-.05-.35-.15c-.2-.2-.2-.51,0-.71,.09-.09,.22-.15,.35-.15s.26,.05,.35,.15,.15,.23,.15,.35-.05,.26-.15,.35Z" stroke-width="0"/><path d="M19.76,28.01c-.29,.29-.44,.68-.44,1.06s.15,.77,.44,1.06c.58,.58,1.54,.58,2.12,0s.58-1.54,0-2.12-1.54-.58-2.12,0Zm1.41,1.41c-.2,.2-.51,.2-.71,0s-.2-.51,0-.71,.51-.2,.71,0c.1,.1,.15,.23,.15,.35s-.05,.26-.15,.35Z" stroke-width="0"/><path d="M46.06,1.09c-.17-.17-.44-.2-.63-.06l-4.44,3.01-7.55,7.55-.49,.48h0l-.87,.87-.71-.71,.36-.36c.2-.2,.2-.51,0-.71s-.51-.2-.71,0l-.71,.71h0l-5.34,5.34c-.1,.1-.15,.23-.15,.35s.05,.26,.15,.35c.2,.2,.51,.2,.71,0l.36-.36,.71,.71-14.29,14.29c-2.57,2.57-5.48,3.69-10.37,3.98-.2,.01-.37,.14-.44,.32-.02,.06-.03,.12-.03,.18,0,.13,.05,.26,.15,.35l10.71,10.71c.14,.14,.35,.18,.53,.11,.18-.07,.31-.24,.32-.44,.29-4.89,1.41-7.79,3.98-10.37l1.83-1.83h0l1.43-1.43,.71,.71-.36,.36c-.1,.1-.15,.23-.15,.35s.05,.26,.15,.35c.2,.2,.51,.2,.71,0l6.05-6.05c.2-.2,.2-.51,0-.71s-.51-.2-.71,0l-.36,.36-.71-.71,11.87-11.88s.02-.01,.03-.02l1.83-1.83s.01-.02,.02-.03l2.07-2.07s.02-.01,.03-.02l1.83-1.83s.01-.02,.02-.03l2.28-2.28,2.95-4.37c.13-.2,.11-.46-.06-.63l-2.74-2.74Zm-19.31,15.77l3.92-3.92,.71,.71-3.92,3.92-.71-.71Zm-14.33,29.78L3.24,37.47c4.25-.39,7.1-1.56,9.55-3.85l3.47,3.47c-2.29,2.45-3.46,5.3-3.85,9.55Zm4.55-10.28h0l-3.44-3.44,1.13-1.13,3.44,3.44-1.12,1.12Zm8.94-6.11l-3.92,3.92-.71-.71,3.92-3.92,.71,.71Zm-7.12,4.29l-3.44-3.45,12.44-12.45s.01,0,.02-.01c0,0,0-.01,.01-.02l4.58-4.59s.02,0,.03-.02,.01-.02,.02-.03l.85-.85,3.45,3.45-17.96,17.95ZM37.46,15.88l-3.44-3.45,1.13-1.13,3.44,3.44-1.13,1.13Zm1.83-1.83l-3.45-3.45,1.42-1.42,3.45,3.45-1.42,1.42Zm2.26-2.26l-.14,.14-3.44-3.44,1.13-1.13,3.44,3.44-.98,.99Zm3.58-3.58l-1.89,1.89-3.45-3.45,1.82-1.82,4.03-2.72,2.15,2.15-2.66,3.95Z" stroke-width="0"/></g></svg>