<?xml version="1.0" encoding="UTF-8"?><svg width="70" height="70" id="uuid-6e256d29-dbf6-41cc-b351-e1fa0650cd17" xmlns="http://www.w3.org/2000/svg" viewBox="-10 -10 70 70"><rect x="-10" y="-10" width="70" height="70" fill="white"/><g><path d="M48.89,44.98v.7h-6.51v-.7c0-.93,.73-1.69,1.63-1.73h3.23c.93,.04,1.65,.8,1.65,1.73Z" fill="#ffcd00" stroke-width="0"/><path d="M39.02,44.98v.7h-6.51v-.7c0-.93,.72-1.69,1.62-1.73h3.24c.92,.04,1.65,.8,1.65,1.73Z" fill="#ffcd00" stroke-width="0"/><path d="M29.14,44.98v.7h-6.5v-.7c0-.93,.72-1.69,1.62-1.73h3.24c.92,.04,1.64,.8,1.64,1.73Z" fill="#ffcd00" stroke-width="0"/><path d="M19.27,44.98v.7h-6.51v-.7c0-.93,.73-1.69,1.63-1.73h3.23c.93,.04,1.65,.8,1.65,1.73Z" fill="#ffcd00" stroke-width="0"/><path d="M9.4,44.98v.7H2.89v-.7c0-.93,.72-1.69,1.62-1.73h3.24c.92,.04,1.65,.8,1.65,1.73Z" fill="#ffcd00" stroke-width="0"/><path d="M39.01,20.75v3h-5.79v-2.34c0-.23-.15-.42-.37-.48l-3.38-.97-2.3-2.07c-.17-.17-.27-.41-.27-.66v-.13c.01-.5,.42-.9,.91-.9,.24,0,.46,.09,.62,.24l1.85,1.84c.06,.07,.14,.11,.23,.14l2.83,.67s.07,0,.11,0h3.99c.88,.05,1.57,.77,1.57,1.65Z" fill="#ffcd00" stroke-width="0"/></g><g><path d="M49,44.1v1.2c0,.27-.22,.5-.5,.5h-7.51c-.27,0-.5-.23-.5-.5v-1.2c0-1.46,1.15-2.66,2.6-2.73h3.29c1.48,.07,2.62,1.27,2.62,2.73Zm-1,.7v-.7c0-.93-.72-1.69-1.65-1.73h-3.23c-.9,.04-1.63,.8-1.63,1.73v.7h6.51Z" stroke-width="0"/><path d="M47.5,5.33V25.29c0,.28-.22,.5-.5,.5h-3.93v1.42c0,.28-.22,.5-.5,.5h-.76l-1.1,5.46c-.05,.24-.25,.4-.49,.4-.03,0-.06,0-.1-.01-.27-.05-.44-.31-.39-.59l1.06-5.26h-12.81l1.05,5.26c.06,.28-.12,.54-.39,.59-.03,.01-.07,.01-.1,.01-.23,0-.44-.16-.49-.4l-1.09-5.46h-.77c-.27,0-.5-.22-.5-.5v-1.42H3c-.28,0-.5-.22-.5-.5V5.33c0-.28,.22-.5,.5-.5H47c.28,0,.5,.22,.5,.5Zm-1,19.46V5.83H3.5V24.79H25.69v-1.42c0-.27,.23-.5,.5-.5h5.14v-1.97l-3.14-.89c-.07-.02-.14-.06-.2-.11l-2.4-2.17c-.38-.38-.58-.88-.58-1.39v-.13c.01-.47,.19-.89,.48-1.22l-2.3-2.56c-.19-.21-.17-.52,.04-.71,.2-.18,.52-.17,.7,.04l2.4,2.66c.19-.06,.38-.1,.59-.1,.49,0,.96,.18,1.31,.52l1.76,1.76,2.63,.62h3.96c1.44,.07,2.54,1.24,2.54,2.65v3h3.45c.28,0,.5,.23,.5,.5v1.42h3.43Zm-4.43,1.92v-2.84h-15.38v2.84h15.38Zm-3.95-3.84v-3c0-.88-.69-1.6-1.57-1.65h-3.99s-.08,0-.11,0l-2.83-.67c-.09-.03-.17-.07-.23-.14l-1.85-1.84c-.16-.15-.38-.24-.62-.24-.49,0-.9,.4-.91,.9v.13c0,.25,.1,.49,.27,.66l2.3,2.07,3.38,.97c.22,.06,.37,.25,.37,.48v2.34h5.79Z" stroke-width="0"/><path d="M44.75,35.01c1.5,0,2.73,1.23,2.73,2.73,0,.81-.36,1.57-.97,2.09-.49,.41-1.12,.64-1.76,.64s-1.27-.23-1.77-.64c-.61-.52-.96-1.28-.96-2.09,0-1.5,1.22-2.73,2.73-2.73Zm1.11,4.05c.39-.33,.62-.81,.62-1.32,0-.95-.78-1.73-1.73-1.73s-1.73,.78-1.73,1.73c0,.51,.22,.99,.61,1.32,.62,.53,1.61,.53,2.23,0Z" stroke-width="0"/><path d="M39.13,44.1v1.2c0,.27-.23,.5-.5,.5h-7.51c-.28,0-.5-.23-.5-.5v-1.2c0-1.46,1.14-2.66,2.6-2.73h3.28c1.49,.07,2.63,1.27,2.63,2.73Zm-1,.7v-.7c0-.93-.73-1.69-1.65-1.73h-3.24c-.9,.04-1.62,.8-1.62,1.73v.7h6.51Z" stroke-width="0"/><path d="M34.87,35.01c1.51,0,2.73,1.23,2.73,2.73,0,.81-.35,1.57-.96,2.09-.5,.41-1.12,.64-1.77,.64s-1.27-.23-1.76-.64c-.61-.52-.97-1.28-.97-2.09,0-1.5,1.23-2.73,2.73-2.73Zm1.12,4.05c.39-.33,.61-.81,.61-1.32,0-.95-.77-1.73-1.73-1.73s-1.73,.78-1.73,1.73c0,.51,.23,.99,.62,1.32,.62,.53,1.61,.53,2.23,0Z" stroke-width="0"/><path d="M34.67,11.09c1.47,0,2.66,1.19,2.66,2.66,0,.78-.35,1.51-.95,2.02-.47,.4-1.08,.63-1.71,.63s-1.23-.23-1.71-.63c-.59-.51-.94-1.24-.94-2.02,0-1.47,1.19-2.66,2.65-2.66Zm1.07,3.92c.37-.32,.59-.78,.59-1.26,0-.92-.75-1.66-1.66-1.66s-1.65,.74-1.65,1.66c0,.48,.22,.94,.59,1.26,.6,.5,1.53,.5,2.13,0Z" stroke-width="0"/><path d="M29.25,44.1v1.2c0,.27-.22,.5-.5,.5h-7.5c-.28,0-.5-.23-.5-.5v-1.2c0-1.46,1.14-2.66,2.59-2.73h3.29c1.48,.07,2.62,1.27,2.62,2.73Zm-1,.7v-.7c0-.93-.72-1.69-1.64-1.73h-3.24c-.9,.04-1.62,.8-1.62,1.73v.7h6.5Z" stroke-width="0"/><path d="M25,35.01c1.51,0,2.73,1.23,2.73,2.73,0,.81-.35,1.57-.97,2.09-.49,.41-1.12,.64-1.76,.64s-1.27-.23-1.76-.64c-.62-.52-.97-1.28-.97-2.09,0-1.5,1.22-2.73,2.73-2.73Zm1.12,4.05c.39-.33,.61-.81,.61-1.32,0-.95-.78-1.73-1.73-1.73s-1.73,.78-1.73,1.73c0,.51,.22,.99,.61,1.32,.63,.53,1.61,.53,2.24,0Z" stroke-width="0"/><path d="M20.08,10.54c.27,0,.5,.22,.5,.5s-.23,.5-.5,.5H7.31c-.27,0-.5-.23-.5-.5s.23-.5,.5-.5h12.77Z" stroke-width="0"/><path d="M19.38,44.1v1.2c0,.27-.22,.5-.5,.5h-7.51c-.27,0-.5-.23-.5-.5v-1.2c0-1.46,1.14-2.66,2.6-2.73h3.29c1.48,.07,2.62,1.27,2.62,2.73Zm-1,.7v-.7c0-.93-.72-1.69-1.65-1.73h-3.23c-.9,.04-1.63,.8-1.63,1.73v.7h6.51Z" stroke-width="0"/><path d="M18.9,18.1c.28,0,.5,.23,.5,.5s-.22,.5-.5,.5H7.31c-.27,0-.5-.22-.5-.5s.23-.5,.5-.5h11.59Z" stroke-width="0"/><path d="M15.13,35.01c1.5,0,2.73,1.23,2.73,2.73,0,.81-.36,1.57-.97,2.09-.49,.41-1.12,.64-1.76,.64s-1.27-.23-1.77-.64c-.61-.52-.96-1.28-.96-2.09,0-1.5,1.22-2.73,2.73-2.73Zm1.11,4.05c.39-.33,.62-.81,.62-1.32,0-.95-.78-1.73-1.73-1.73s-1.73,.78-1.73,1.73c0,.51,.22,.99,.61,1.32,.62,.53,1.61,.53,2.23,0Z" stroke-width="0"/><path d="M16.66,15.58c.28,0,.5,.22,.5,.5s-.22,.5-.5,.5H7.31c-.27,0-.5-.22-.5-.5s.23-.5,.5-.5h9.35Z" stroke-width="0"/><path d="M13.01,13.06c.28,0,.5,.22,.5,.5s-.22,.5-.5,.5H7.31c-.27,0-.5-.23-.5-.5s.23-.5,.5-.5h5.7Z" stroke-width="0"/><path d="M9.51,44.1v1.2c0,.27-.23,.5-.5,.5H1.5c-.28,0-.5-.23-.5-.5v-1.2c0-1.46,1.14-2.66,2.6-2.73h3.28c1.48,.07,2.63,1.27,2.63,2.73Zm-1,.7v-.7c0-.93-.73-1.69-1.65-1.73H3.62c-.9,.04-1.62,.8-1.62,1.73v.7h6.51Z" stroke-width="0"/><path d="M5.25,35.01c1.51,0,2.73,1.23,2.73,2.73,0,.81-.35,1.57-.97,2.09-.49,.41-1.11,.64-1.76,.64s-1.27-.23-1.76-.64c-.61-.52-.97-1.28-.97-2.09,0-1.5,1.23-2.73,2.73-2.73Zm1.12,4.05c.39-.33,.61-.81,.61-1.32,0-.95-.77-1.73-1.73-1.73s-1.73,.78-1.73,1.73c0,.51,.23,.99,.62,1.32,.62,.53,1.61,.53,2.23,0Z" stroke-width="0"/></g></svg>