<?xml version="1.0" encoding="UTF-8"?><svg width="70" height="70" id="uuid-70d375b4-f298-42b9-bae3-b90d80bd7b79" xmlns="http://www.w3.org/2000/svg" viewBox="-10 -10 70 70"><rect x="-10" y="-10" width="70" height="70" fill="white"/><path d="M37.12,17.26c1.21,2.65,3.35,4.78,5.99,5.99-1.65,.75-3.1,1.87-4.26,3.25-.24,.29-.47,.59-.68,.9-.4,.58-.75,1.19-1.05,1.84-1.2-2.65-3.34-4.79-5.99-5.99,1.25-.57,2.39-1.36,3.37-2.3,.25-.24,.49-.49,.71-.75,.77-.88,1.42-1.87,1.91-2.94Z" fill="#ffcd00" stroke-width="0"/><path d="M13.4,9.83c.87,1.76,2.31,3.2,4.07,4.07-1.76,.87-3.2,2.31-4.07,4.07-.87-1.76-2.31-3.2-4.07-4.07,1.76-.87,3.2-2.31,4.07-4.07Z" fill="#ffcd00" stroke-width="0"/><path d="M43.39,21.52c.21,.07,.35,.26,.35,.48s-.14,.41-.35,.47c-2.14,.71-3.98,2.06-5.32,3.81,.75,1.77,1.16,3.63,1.16,5.55,0,7.85-6.38,14.23-14.23,14.23s-14.23-6.38-14.23-14.23c0-2.22,.51-4.37,1.52-6.38,.01-.03,.03-.06,.04-.09,.22-.42,.42-.76,.63-1.09L24.57,4.17c.18-.31,.68-.31,.86,0l8,13.86c.86-1.05,1.54-2.24,1.97-3.55,.06-.2,.26-.34,.47-.34s.41,.14,.48,.34c1.09,3.32,3.72,5.95,7.04,7.04Zm-1.53,.48c-2.64-1.21-4.78-3.34-5.99-5.99-.49,1.07-1.14,2.06-1.91,2.94-.22,.26-.46,.51-.71,.75-.98,.94-2.12,1.73-3.37,2.3,2.65,1.2,4.79,3.34,5.99,5.99,.3-.65,.65-1.26,1.05-1.84,.21-.31,.44-.61,.68-.9,1.16-1.38,2.61-2.5,4.26-3.25Zm-3.63,9.83c0-1.58-.28-3.11-.83-4.58-.43,.71-.79,1.47-1.05,2.27-.07,.2-.26,.34-.48,.34s-.41-.14-.47-.34c-1.1-3.32-3.73-5.95-7.05-7.05-.2-.06-.34-.25-.34-.47s.14-.41,.34-.48c1.67-.54,3.17-1.49,4.38-2.71l-7.73-13.39L13.82,24.78c-.21,.33-.39,.65-.56,.98l-.02,.02s-.01,.04-.02,.06c-.96,1.88-1.45,3.9-1.45,5.99,0,7.3,5.94,13.23,13.23,13.23s13.23-5.93,13.23-13.23Z" stroke-width="0"/><path d="M17.7,12.18c.2,.06,.34,.26,.34,.47s-.14,.41-.34,.48c-2.39,.78-4.29,2.68-5.07,5.07-.07,.2-.26,.34-.48,.34s-.4-.14-.47-.34c-.79-2.39-2.68-4.29-5.07-5.07-.21-.07-.35-.26-.35-.48s.14-.41,.35-.47c2.39-.79,4.28-2.68,5.07-5.07,.07-.21,.26-.35,.47-.35s.41,.14,.48,.35c.78,2.39,2.68,4.28,5.07,5.07Zm-1.48,.47c-1.76-.87-3.2-2.31-4.07-4.07-.87,1.76-2.31,3.2-4.07,4.07,1.76,.87,3.2,2.31,4.07,4.07,.87-1.76,2.31-3.2,4.07-4.07Z" stroke-width="0"/><path d="M17.45,37.97c.18,.21,.16,.52-.05,.71-.09,.08-.21,.12-.33,.12-.14,0-.27-.06-.37-.17-.84-.94-2.28-2.95-2.5-5.87-.21-2.74,.77-4.86,1.37-5.88,.14-.24,.45-.32,.69-.18,.24,.15,.31,.45,.17,.69-.54,.92-1.43,2.83-1.24,5.29,.21,2.63,1.5,4.44,2.26,5.29Z" stroke-width="0"/></svg>