<?xml version="1.0" encoding="UTF-8"?><svg width="70" height="70" id="uuid-566ac412-3e80-4691-b33b-440ee64ce30d" xmlns="http://www.w3.org/2000/svg" viewBox="-10 -10 70 70"><rect x="-10" y="-10" width="70" height="70" fill="white"/><g><path d="M25.85,42.62c-.17,.02-.35,.04-.52,.06,.18-.02,.35-.04,.52-.06Z" fill="#ffcd00" stroke-width="0"/><path d="M4.58,27.93c-.08-.31-.16-.61-.22-.92,.06,.31,.14,.61,.22,.92Z" fill="#ffcd00" stroke-width="0"/><path d="M26.82,4.08c.26,.04,.52,.08,.78,.14-.26-.05-.52-.09-.78-.14Z" fill="#ffcd00" stroke-width="0"/><path d="M29.51,41.82s-.07,.02-.1,.04c.03-.01,.07-.02,.1-.04Z" fill="#ffcd00" stroke-width="0"/><path d="M27.68,42.31c-.16,.03-.31,.06-.47,.09,.16-.03,.31-.06,.47-.09Z" fill="#ffcd00" stroke-width="0"/><path d="M4.19,25.91c-.03-.24-.08-.49-.1-.73,.02,.25,.07,.49,.1,.73Z" fill="#ffcd00" stroke-width="0"/><path d="M6.71,33.16c-.23-.38-.44-.77-.64-1.17,.2,.4,.41,.79,.64,1.17Z" fill="#ffcd00" stroke-width="0"/><path d="M7.7,34.67c-.28-.39-.55-.8-.8-1.21,.25,.41,.52,.82,.8,1.21Z" fill="#ffcd00" stroke-width="0"/><path d="M23.49,42.77c-2.69,0-5.26-.55-7.59-1.53,2.33,.99,4.9,1.53,7.59,1.53Z" fill="#ffcd00" stroke-width="0"/><path d="M5.85,31.53c-.17-.36-.33-.73-.48-1.11,.15,.38,.31,.75,.48,1.11Z" fill="#ffcd00" stroke-width="0"/><path d="M5.13,29.79c-.12-.34-.24-.68-.34-1.03,.1,.35,.22,.69,.34,1.03Z" fill="#ffcd00" stroke-width="0"/><path d="M33.06,40.25c-.08,.04-.15,.08-.23,.12,.08-.04,.15-.08,.23-.12Z" fill="#ffcd00" stroke-width="0"/><path d="M37.2,35.18c.18-.21,.16-.52-.05-.71-.12-.11-.28-.14-.43-.11-.1,.02-.2,.08-.27,.16-3.71,4.2-9.02,6.61-14.59,6.61-5.03,0-9.61-1.93-13.07-5.07-.35-.4-.67-.81-.99-1.24,2.07,2.8,4.85,5.04,8.09,6.41,1.89,.58,3.89,.89,5.97,.89,5.85,0,11.44-2.54,15.34-6.95Z" fill="#ffcd00" stroke-width="0"/><path d="M30.66,5.15c.26,.1,.51,.21,.77,.32-.25-.11-.51-.22-.77-.32Z" fill="#ffcd00" stroke-width="0"/><path d="M31.47,41.05c-.13,.06-.25,.12-.38,.17,.13-.05,.26-.11,.38-.17Z" fill="#ffcd00" stroke-width="0"/><path d="M29.07,4.59c.26,.08,.51,.17,.76,.26-.25-.09-.51-.18-.76-.26Z" fill="#ffcd00" stroke-width="0"/><path d="M34.5,39.37v-.02c-.46,.32-.94,.63-1.44,.91,.49-.28,.98-.57,1.44-.89Z" fill="#ffcd00" stroke-width="0"/><path d="M7.81,34.82c-.04-.05-.08-.1-.11-.15,.04,.05,.08,.1,.11,.15Z" fill="#ffcd00" stroke-width="0"/><path d="M29.41,41.85c-.57,.18-1.14,.33-1.73,.46,.59-.13,1.16-.28,1.73-.46Z" fill="#ffcd00" stroke-width="0"/><path d="M31.09,41.22c-.51,.22-1.04,.42-1.57,.59,.54-.17,1.06-.38,1.57-.59Z" fill="#ffcd00" stroke-width="0"/><path d="M27.21,42.4c-.45,.09-.9,.16-1.36,.21,.46-.06,.91-.13,1.36-.21Z" fill="#ffcd00" stroke-width="0"/><path d="M25.33,42.68c-.61,.06-1.22,.1-1.84,.1,.62,0,1.23-.04,1.84-.1Z" fill="#ffcd00" stroke-width="0"/><path d="M32.83,40.38c-.44,.24-.9,.47-1.36,.68,.46-.21,.92-.43,1.36-.68Z" fill="#ffcd00" stroke-width="0"/><path d="M4.79,28.76c-.08-.27-.15-.55-.21-.83,.07,.28,.13,.56,.21,.83Z" fill="#ffcd00" stroke-width="0"/><path d="M27.6,4.21c.5,.11,.99,.23,1.47,.38-.48-.14-.97-.27-1.47-.38Z" fill="#ffcd00" stroke-width="0"/><polygon points="11.19 8.15 11.19 8.15 11.19 8.15 11.19 8.15" fill="#ffcd00"/><path d="M26.18,3.96h-.02c.22,.04,.44,.08,.66,.11-.21-.04-.43-.08-.64-.11Z" fill="#ffcd00" stroke-width="0"/><path d="M31.65,5.57c-.07-.03-.15-.06-.22-.09,.08,.03,.15,.07,.23,.11h0Z" fill="#ffcd00" stroke-width="0"/><path d="M29.83,4.85c.28,.1,.56,.2,.83,.3-.27-.11-.55-.21-.83-.3Z" fill="#ffcd00" stroke-width="0"/><path d="M4.09,25.17c-.06-.63-.1-1.26-.1-1.9,0,.64,.03,1.28,.1,1.9Z" fill="#ffcd00" stroke-width="0"/><path d="M6.07,31.99c-.08-.15-.15-.31-.22-.46,.07,.15,.14,.31,.22,.46Z" fill="#ffcd00" stroke-width="0"/><path d="M5.36,30.42c-.08-.21-.16-.42-.23-.63,.08,.21,.15,.42,.23,.63Z" fill="#ffcd00" stroke-width="0"/><path d="M4.03,22.45c-.01,.27-.04,.54-.04,.82,0-.28,.03-.55,.04-.82h0Z" fill="#ffcd00" stroke-width="0"/><path d="M4.36,27.01c-.07-.36-.12-.73-.17-1.1,.05,.37,.1,.74,.17,1.1Z" fill="#ffcd00" stroke-width="0"/><path d="M6.89,33.46c-.06-.1-.12-.2-.18-.3,.06,.1,.12,.2,.18,.3Z" fill="#ffcd00" stroke-width="0"/><path d="M37.53,19.69s0,.05-.02,.08c-.13,.24-.44,.33-.68,.2-.49-.27-.8-.38-.98-.44,.01,.02,.01,.03,.01,.05,.01,.03,.03,.06,.04,.09,.03,.08,.07,.15,.11,.24,.02,.03,.03,.07,.05,.1,.05,.09,.09,.18,.14,.27,.01,.03,.03,.06,.04,.08,.06,.11,.12,.22,.17,.31,.56,1.03,1.01,1.84,.49,2.34-.48,.45-1.18,.05-1.98-.42-.39-.22-1.18-.68-1.4-.61-.01,.01-.06,.16-.04,.39,.02,.3,.14,.59,.3,.72,.1,.07,.19,.08,.48,.07,.08,0,.17-.01,.27,0,.28,0,.63,.03,1.04,.21,.56,.25,1.5,.9,1.48,1.78-.01,.68-.57,1.02-1.12,1.35-.37,.23-.78,.49-1.15,.88-.63,.68-.98,1.65-1.05,2.89-.01,.11-.05,.22-.12,.3-.93,1.07-1.5,1.96-1.51,1.96-.08,.13-.14,.23-.2,.33-.05,.09-.1,.18-.15,.29-.06,.1-.1,.18-.13,.26-.11,.23-.21,.45-.49,.82l-.21,.27s-.03,.04-.04,.05c-.06,.08-.12,.16-.19,.24-.02,.03-.04,.05-.06,.07-.06,.07-.13,.15-.19,.22-.03,.02-.06,.05-.08,.08-.07,.06-.13,.12-.19,.18-.03,.03-.07,.05-.1,.08-.06,.05-.12,.1-.18,.14-.04,.03-.08,.05-.12,.07-.06,.04-.12,.07-.18,.1-.04,.02-.09,.04-.14,.05-.05,.02-.11,.04-.17,.05-.05,.01-.1,.02-.15,.02-.02,0-.05,.01-.08,.01-.06,0-.12,0-.19-.01-.94-.17-1.28-1.52-1.41-2.31-.12-.78-.33-1.25-.53-1.71-.16-.36-.31-.71-.38-1.13-.11-.55,0-.83,.1-1.07,.07-.2,.15-.4,.12-.9-.04-1.07-.33-1.81-.81-2.1-.07-.03-.15-.05-.6-.13l-.19-.03c-.89-.15-1.41-.18-1.79-.2-.41-.02-.7-.04-1.05-.19-1.24-.53-1.93-2.2-1.87-3.51,.08-2.01,1.85-3.22,3.27-4.19,.9-.62,1.83-1.25,3.11-1.23,.79,.03,1.41,.32,1.83,.51,.01,0,.02,.01,.04,.02-.1-.26-.29-.61-.51-.92-.23-.31-.7-.96-1.37-1.11-.58-.13-1.08,.17-1.6,.5-.54,.34-1.15,.73-1.82,.41-.64-.29-.96-1.06-1.04-1.69-.09-.72,.08-1.33,.45-1.64,.38-.31,.81-.23,1.12-.17,.23,.05,.38,.07,.49,.01,.22-.13,.26-.66,.3-1.21,.01-.22,.03-.45,.05-.68,.15-1.31,.61-3.64,2.02-4.52,1.08-.68,2.43-.33,3.51-.05,.44,.11,1.18,.3,1.32,.19,.03-.08,.03-.54,.04-1.02,0-.07,0-.13-.01-.2-.08-.04-.15-.07-.23-.11-.25-.11-.51-.22-.77-.32-.27-.11-.55-.21-.83-.3-.25-.09-.51-.18-.76-.26-.48-.14-.97-.27-1.47-.38-.26-.05-.52-.09-.78-.14-.22-.04-.44-.07-.66-.1-.05,.04-.1,.1-.16,.13-.54,.31-.99,.3-1.43,.3-.37,0-.75-.01-1.28,.16-.54,.17-.9,.41-1.69,.94-.6,.4-.95,.7-1.2,.93-.36,.31-.64,.56-1.13,.49-.9-.12-1.45-1.22-1.77-2.21-2.33,.75-4.46,1.92-6.31,3.43h0c-.12,.38-.12,.71,.01,.91,.21,.33,.82,.49,1.22,.32,.25-.1,.36-.32,.53-.66,.18-.39,.41-.88,1.01-1.05,.31-.09,.62-.07,.92,.02,.5,.16,.94,.51,1.19,.91,.05,.07,.08,.14,.12,.22,.34,.85,.05,1.74-.06,2.08-.23,.71-.09,1.28,.04,1.77,.14,.53,.29,1.13-.19,1.61-.15,.14-.31,.24-.49,.3-.54,.19-1.2,.08-1.75-.02-.08-.01-.17-.03-.26-.04,.06,.15,.08,.31,.04,.5-.12,.63-.77,.79-1.29,.92-.36,.09-.78,.19-.89,.4-.13,.25,.04,.66,.22,1.09,.24,.6,.55,1.35,.11,2.04-.25,.4-.77,.78-1.3,.66-.64-.14-.79-.84-.92-1.46-.09-.4-.2-.94-.41-1.03-.16-.07-.55,.09-1.01,.5-.23,.21-.52,.58-.62,1.18-.09,.6,.11,1.07,.5,1.9,.58,1.25,.84,1.77,1.33,2.06,.43,.24,.77,.19,1.28,.11,.56-.08,1.25-.19,2.16,.16,.58,.23,.83,.49,1.08,.74,.22,.22,.45,.45,1.02,.75,.65,.33,1.12,.43,1.51,.52,.48,.1,.94,.2,1.29,.71,.7,1.03,.27,2.67-.57,3.57-.38,.41-.75,.55-1.02,.65-.23,.09-.35,.13-.47,.32-.14,.21-.14,.35-.1,.84,.04,.39,.08,.91,.03,1.67-.05,.74-.16,1.17-.23,1.45-.08,.3-.09,.34-.04,.48,.26,.71,1.37,1,2.11,1.19,.64,.16,1.2,.31,1.15,.87-.02,.24-.18,.44-.47,.59-.09,.04-.19,.08-.31,.12-.02,.01-.05,.01-.08,.02-.1,.03-.2,.06-.31,.08-.05,.01-.11,.01-.16,.02-.1,.02-.2,.03-.3,.04-.07,.01-.15,.01-.22,.02-.1,0-.18,.01-.28,.01h-.03c-.11,0-.22-.01-.33-.02-.09-.01-.17-.01-.25-.02-.12-.01-.24-.04-.37-.06-.08-.02-.16-.03-.24-.05-.13-.03-.27-.08-.4-.12-.07-.03-.14-.04-.21-.07-.2-.08-.4-.18-.6-.3-.62-.37-.95-.79-1.5-1.48-.66-.84-1.42-2.08-2.13-3.5-.15-.29-.44-.86-1.04-1.18-.05-.03-.09-.04-.11-.05-.06-.02-.14-.05-.25-.12-1.01-.65-1.19-1.96-1.27-2.6-.14-1.02,.02-1.65,.15-2.16,.1-.41,.16-.66,.05-1.01-.18-.59-.68-.87-1.48-1.28-.38-.19-.77-.39-1.15-.66-.28-.19-.53-.42-.76-.66-.07-.07-.13-.14-.2-.21-.06-.06-.11-.14-.16-.21-.01,.27-.04,.54-.04,.82,0,.64,.04,1.28,.1,1.9,.02,.25,.07,.49,.1,.73,.05,.37,.1,.74,.17,1.1,.06,.31,.14,.62,.22,.92,.07,.28,.13,.56,.21,.83,.1,.35,.22,.69,.34,1.03,.08,.21,.15,.42,.23,.63,.15,.38,.31,.75,.48,1.11,.07,.15,.15,.31,.22,.46,.2,.4,.41,.79,.64,1.17,.06,.1,.12,.2,.18,.3,.25,.41,.52,.82,.8,1.21,.04,.05,.08,.1,.11,.15,.31,.43,.64,.84,.99,1.24,3.46,3.14,8.04,5.07,13.07,5.07,5.57,0,10.88-2.41,14.59-6.61,.07-.08,.17-.14,.27-.16,.15-.03,.31,0,.43,.11,.21,.19,.23,.5,.05,.71-3.9,4.41-9.49,6.95-15.34,6.95-2.08,0-4.08-.32-5.97-.89,2.33,.99,4.9,1.53,7.59,1.53,.62,0,1.23-.04,1.84-.1,.18-.02,.35-.04,.52-.06,.46-.06,.91-.13,1.36-.21,.16-.03,.32-.06,.47-.09,.59-.13,1.17-.28,1.73-.46,.03-.01,.07-.02,.1-.04,.54-.17,1.06-.38,1.57-.59,.13-.05,.26-.11,.38-.17,.46-.21,.92-.43,1.36-.68,.08-.04,.15-.08,.23-.12,.5-.28,.98-.59,1.45-.91,1.1-.75,2.12-1.61,3.04-2.57V19.69Zm-2.48,14.54c-.38,.25-.83,.34-1.24,.34-.25,0-.48-.03-.68-.09-.37-.12-.62-.33-.73-.61-.13-.34,0-.67,.12-.9,.05-.1,.11-.17,.14-.22,.09-.13,.82-.99,1.32-1.32v-.02c.6-.53,1.09-.72,1.47-.55,.42,.18,.53,.75,.56,1.07,.06,.73-.15,1.76-.96,2.3Z" fill="#ffcd00" stroke-width="0"/><polygon points="37.54 28.54 37.54 35.34 37.54 35.34 37.54 28.54" fill="#ffcd00"/></g><circle cx="43.25" cy="43.42" r="2.24" fill="#ffcd00"/><path d="M45.78,37.42c1.77,1.14,2.85,3.12,2.85,5.23,0,3.43-2.79,6.23-6.23,6.23s-6.23-2.8-6.23-6.23c0-2.3,1.23-4.36,3.22-5.46V15.3c-.01-.97,.33-1.82,.91-2.43,.57-.61,1.38-.97,2.29-.97,1.79,0,3.15,1.46,3.15,3.4l.04,22.12Zm1.85,5.23c0-1.85-.99-3.59-2.6-4.52-.15-.09-.24-.25-.24-.43l-.04-15.13h-.58c-.27,0-.5-.23-.5-.5s.23-.5,.5-.5h.58v-1.4h-.52c-.27,0-.5-.22-.5-.5s.23-.5,.5-.5h.51v-1.46h-.54c-.28,0-.5-.22-.5-.5s.22-.5,.5-.5h.54v-1.41c0-1.39-.91-2.4-2.15-2.4s-2.21,1.03-2.21,2.4v22.2c.01,.19-.1,.36-.27,.45-1.81,.88-2.94,2.68-2.94,4.7,0,2.88,2.35,5.23,5.23,5.23s5.23-2.35,5.23-5.23Z" stroke-width="0"/><path d="M43.03,39.55c1.56,.23,2.77,1.57,2.77,3.19,0,1.79-1.46,3.24-3.24,3.24s-3.24-1.45-3.24-3.24c0-1.6,1.18-2.93,2.71-3.18V19.35c0-.28,.22-.5,.5-.5s.5,.22,.5,.5v20.2Zm1.77,3.19c0-1.23-1.01-2.24-2.24-2.24s-2.24,1.01-2.24,2.24,1,2.24,2.24,2.24,2.24-1,2.24-2.24Z" stroke-width="0"/><g><path d="M10.64,19.17s.12-.12,.19-.24c.15-.23,.02-.59-.2-1.11-.23-.57-.53-1.28-.18-1.94,.33-.61,1-.78,1.54-.91,.18-.05,.44-.11,.55-.17-.03-.01-.05-.05-.07-.08-.11-.16-.3-.46-.13-.82,.26-.55,.92-.44,1.57-.32,.46,.07,1.15,.19,1.36-.01,.07-.07,.03-.26-.07-.65-.14-.56-.34-1.34-.03-2.31,.07-.2,.2-.61,.17-1.02-.01-.13-.03-.27-.08-.4-.25-.4-.73-.64-1.02-.56-.15,.05-.23,.19-.39,.52-.18,.38-.43,.9-1.04,1.15-.85,.36-1.97,.05-2.45-.69-.46-.7-.23-1.56-.05-2,.2-.49,.5-.81,.72-1.03,.1-.11,.24-.25,.23-.3-.01-.08-.14-.2-.23-.25-.24-.14-.74-.02-1.26,.31-3.31,2.61-5.73,6.33-6.78,10.45,.02,.17,.04,.33,.07,.5,.02,.17,.04,.35,.07,.52,.04,.17,.07,.33,.11,.49,.03,.16,.07,.32,.1,.47,.04,.16,.09,.31,.14,.46,.04,.14,.08,.29,.13,.42,.05,.15,.11,.28,.16,.42,.05,.12,.1,.25,.15,.37,.07,.13,.14,.25,.2,.38,.06,.11,.11,.22,.17,.32,.08,.12,.16,.23,.23,.34,.07,.09,.13,.19,.2,.27,.08,.12,.18,.21,.28,.31,.06,.07,.12,.15,.19,.22,.17,.16,.34,.3,.53,.43,.33,.23,.69,.41,1.03,.59,.41,.21,.83,.42,1.18,.71,.36,.29,.65,.65,.81,1.17,.19,.61,.07,1.09-.04,1.54s-.24,.96-.13,1.79c.07,.52,.2,1.49,.82,1.89,.11,.04,.17,.07,.29,.13,.88,.47,1.28,1.27,1.43,1.57,.71,1.4,1.43,2.58,2.05,3.37,.51,.64,.77,.97,1.24,1.25,.63,.38,1.3,.49,1.92,.49-.82-.26-1.75-.7-2.08-1.62-.15-.43-.08-.73,.01-1.07,.06-.26,.15-.62,.2-1.27,.05-.68,0-1.14-.02-1.51-.05-.54-.09-.97,.25-1.48,.31-.46,.67-.59,.95-.7,.23-.09,.42-.17,.65-.41,.6-.64,.83-1.79,.47-2.32-.11-.16-.22-.2-.67-.3-.42-.09-.99-.21-1.76-.6-.71-.37-1.02-.69-1.27-.94-.21-.21-.35-.36-.74-.51-.65-.25-1.13-.18-1.63-.1-.56,.09-1.2,.19-1.93-.23-.1-.06-.19-.12-.28-.19-.6-.47-.95-1.2-1.47-2.31-.38-.84-.72-1.55-.58-2.48,.12-.71,.44-1.32,.93-1.77,.44-.4,1.29-1.01,2.08-.68,.69,.29,.86,1.09,1,1.74,.05,.23,.13,.62,.21,.71Zm28.43-8.64c.15,.23,.09,.54-.15,.69-.08,.05-.18,.08-.27,.08-.16,0-.32-.08-.42-.23-1.45-2.24-3.36-4.18-5.57-5.66v.37c-.01,.92-.01,1.29-.21,1.58-.47,.71-1.41,.47-2.4,.21-.95-.24-2.01-.51-2.73-.06-.76,.47-1.34,1.88-1.55,3.78-.03,.22-.04,.43-.06,.64-.05,.78-.11,1.6-.78,2-.44,.26-.88,.18-1.19,.11-.1-.02-.26-.04-.3-.03-.05,.04-.14,.31-.09,.73,.06,.43,.26,.82,.47,.92,.17,.07,.44-.08,.87-.36,.58-.36,1.36-.85,2.35-.63,1.04,.23,1.69,1.12,1.96,1.5,.29,.4,1.19,1.76,.55,2.42-.39,.4-.9,.17-1.31-.02-.38-.18-.86-.4-1.44-.42-.96-.05-1.67,.48-2.52,1.05-1.36,.94-2.77,1.9-2.84,3.41-.04,.96,.46,2.21,1.27,2.55,.19,.08,.35,.09,.71,.11,.38,.02,.96,.05,1.91,.22l.19,.03c.53,.09,.71,.12,.93,.25,.56,.33,1.24,1.1,1.31,2.92,.03,.71-.1,1.05-.19,1.29-.07,.19-.1,.27-.05,.54,.05,.31,.18,.59,.32,.91,.2,.47,.46,1.05,.59,1.89,.15,.97,.45,1.51,.61,1.54,.15,.03,.48-.17,1.28-1.21,.23-.31,.29-.44,.39-.65,.04-.09,.09-.19,.14-.31,.13-.24,.22-.4,.41-.7,.03-.03,.57-.88,1.48-1.94,.11-1.41,.55-2.53,1.31-3.35,.46-.5,.96-.8,1.36-1.05,.32-.19,.64-.39,.64-.52,.01-.23-.42-.63-.89-.84-.24-.11-.45-.13-.66-.14-.07,0-.14,.01-.21,.01-.33,.01-.74,.02-1.14-.3-.42-.34-.68-.96-.68-1.6,.01-.47,.17-.86,.45-1.08,.66-.52,1.59,.02,2.5,.55,.17,.1,.39,.22,.58,.32-.13-.28-.33-.64-.47-.9-.55-1.01-1.04-1.89-.52-2.42,.49-.51,1.44-.1,2.29,.36,.17,.09,.27,.26,.27,.44,0,.08-.02,.16-.06,.24-.13,.24-.44,.33-.68,.2-.49-.27-.8-.38-.98-.44,0,.02,0,.03,0,.05,.01,.03,.03,.06,.04,.09,.03,.08,.07,.15,.11,.24,.02,.03,.03,.07,.05,.1,.05,.09,.09,.18,.14,.27,0,.03,.03,.06,.04,.08,.06,.11,.12,.22,.17,.31,.56,1.03,1.01,1.84,.49,2.34-.48,.45-1.18,.05-1.98-.42-.39-.22-1.18-.68-1.4-.61,0,.01-.06,.16-.04,.39,.02,.3,.14,.59,.3,.72,.1,.07,.19,.08,.48,.07,.08,0,.17-.01,.27,0,.28,0,.63,.03,1.04,.21,.56,.25,1.5,.9,1.48,1.78-.01,.68-.57,1.02-1.12,1.35-.37,.23-.78,.49-1.15,.88-.63,.68-.98,1.65-1.05,2.89-.01,.11-.05,.22-.12,.3-.93,1.07-1.5,1.96-1.51,1.96-.08,.13-.14,.23-.2,.33-.05,.09-.1,.18-.15,.29-.06,.1-.1,.18-.13,.26-.11,.23-.21,.45-.49,.82l-.21,.27s-.03,.04-.04,.05c-.06,.08-.12,.16-.19,.24-.02,.03-.04,.05-.06,.07-.06,.07-.13,.15-.19,.22-.03,.02-.06,.05-.08,.08-.07,.06-.13,.12-.19,.18-.03,.03-.07,.05-.1,.08-.06,.05-.12,.1-.18,.14-.04,.03-.08,.05-.12,.07-.06,.04-.12,.07-.18,.1-.04,.02-.09,.04-.14,.05-.05,.02-.11,.04-.17,.05-.05,.01-.1,.02-.15,.02-.02,0-.05,.01-.08,.01-.06,0-.12,0-.19-.01-.94-.17-1.28-1.52-1.41-2.31-.12-.78-.33-1.25-.53-1.71-.16-.36-.31-.71-.38-1.13-.11-.55,0-.83,.1-1.07,.07-.2,.15-.4,.12-.9-.04-1.07-.33-1.81-.81-2.1-.07-.03-.15-.05-.6-.13l-.19-.03c-.89-.15-1.41-.18-1.79-.2-.41-.02-.7-.04-1.05-.19-1.24-.53-1.93-2.2-1.87-3.51,.08-2.01,1.85-3.22,3.27-4.19,.9-.62,1.83-1.25,3.11-1.23,.79,.03,1.41,.32,1.83,.51,.01,0,.02,.01,.04,.02-.1-.26-.29-.61-.51-.92-.23-.31-.7-.96-1.37-1.11-.58-.13-1.08,.17-1.6,.5-.54,.34-1.15,.73-1.82,.41-.64-.29-.96-1.06-1.04-1.69-.09-.72,.08-1.33,.45-1.64,.38-.31,.81-.23,1.12-.17,.23,.05,.38,.07,.49,.01,.22-.13,.26-.66,.3-1.21,.01-.22,.03-.45,.05-.68,.15-1.31,.61-3.64,2.02-4.52,1.08-.68,2.43-.33,3.51-.05,.44,.11,1.18,.3,1.32,.19,.03-.08,.03-.54,.04-1.02,0-.35-.03-.68-.06-1.02-1.41-.82-2.92-1.45-4.49-1.89-.28,.55-.65,.97-1.11,1.24-.54,.31-.99,.3-1.43,.3-.37,0-.75-.01-1.28,.16-.54,.17-.9,.41-1.69,.94-.6,.4-.95,.7-1.2,.93-.36,.31-.64,.56-1.13,.49-1.32-.17-1.89-2.44-2.08-3.41-.05-.26-.09-.53-.11-.81-1.97,.5-3.86,1.32-5.61,2.42l.06,.03c.15,.09,.65,.42,.72,1,.07,.51-.25,.84-.5,1.11-.19,.19-.38,.4-.51,.71-.18,.45-.2,.85-.04,1.08,.21,.33,.82,.49,1.22,.32,.25-.1,.36-.32,.53-.66,.18-.39,.41-.88,1.01-1.05,.31-.09,.62-.07,.92,.02,.5,.16,.94,.51,1.19,.91,.05,.07,.08,.14,.12,.22,.34,.85,.05,1.74-.06,2.08-.23,.71-.09,1.28,.04,1.77,.14,.53,.29,1.13-.19,1.61-.15,.14-.31,.24-.49,.3-.54,.19-1.2,.08-1.75-.02-.08,0-.17-.03-.26-.04,.06,.15,.08,.31,.04,.5-.12,.63-.77,.79-1.29,.92-.36,.09-.78,.19-.89,.4-.13,.25,.04,.66,.22,1.09,.24,.6,.55,1.35,.11,2.04-.25,.4-.77,.78-1.3,.66-.64-.14-.79-.84-.92-1.46-.09-.4-.2-.94-.41-1.03-.16-.07-.55,.09-1.01,.5-.23,.21-.52,.58-.62,1.18-.09,.6,.11,1.07,.5,1.9,.58,1.25,.84,1.77,1.33,2.06,.43,.24,.77,.19,1.28,.11,.56-.08,1.25-.19,2.16,.16,.58,.23,.83,.49,1.08,.74,.22,.22,.45,.45,1.02,.75,.65,.33,1.12,.43,1.51,.52,.48,.1,.94,.2,1.29,.71,.7,1.03,.27,2.67-.57,3.57-.38,.41-.75,.55-1.02,.65-.23,.09-.35,.13-.47,.32-.14,.21-.14,.35-.1,.84,.04,.39,.08,.91,.03,1.67-.05,.74-.16,1.17-.23,1.45-.08,.3-.09,.34-.04,.48,.26,.71,1.37,1,2.11,1.19,.64,.16,1.2,.31,1.15,.87-.02,.24-.18,.44-.47,.59-.09,.04-.19,.08-.31,.12-.02,.01-.05,.01-.08,.02-.1,.03-.2,.06-.31,.08-.05,.01-.11,.01-.16,.02-.1,.02-.2,.03-.3,.04-.07,.01-.15,.01-.22,.02-.1,0-.18,.01-.28,.01h-.03c-.11,0-.22-.01-.33-.02-.09-.01-.17-.01-.25-.02-.12-.01-.24-.04-.37-.06-.08-.02-.16-.03-.24-.05-.13-.03-.27-.08-.4-.12-.07-.03-.14-.04-.21-.07-.2-.08-.4-.18-.6-.3-.62-.37-.95-.79-1.5-1.48-.66-.84-1.42-2.08-2.13-3.5-.15-.29-.44-.86-1.04-1.18-.05-.03-.09-.04-.11-.05-.06-.02-.14-.05-.25-.12-1.01-.65-1.19-1.96-1.27-2.6-.14-1.02,.02-1.65,.15-2.16,.1-.41,.16-.66,.05-1.01-.18-.59-.68-.87-1.48-1.28-.38-.19-.77-.39-1.15-.66-.28-.19-.53-.42-.76-.66-.07-.07-.13-.14-.2-.21-.18-.2-.36-.43-.52-.67-.05-.06-.09-.12-.13-.18-.2-.31-.38-.64-.54-.99-.04-.09-.07-.18-.1-.26-.13-.3-.24-.61-.34-.94-.02-.06-.05-.12-.07-.19-.09,.74-.13,1.48-.13,2.2,0,10.75,8.74,19.5,19.5,19.5,5.57,0,10.88-2.41,14.59-6.61,.07-.08,.17-.14,.27-.16,.15-.03,.31,0,.43,.11,.21,.19,.23,.5,.05,.71-3.9,4.41-9.49,6.95-15.34,6.95C10.55,42.13,1.36,32.93,1.36,21.63c0-1.63,.21-3.3,.63-4.99,1.1-4.37,3.66-8.32,7.21-11.12,3.61-2.84,7.92-4.4,12.5-4.4,1.72,0,3.47,.22,5.24,.67,1.9,.48,3.72,1.24,5.4,2.24,2.69,1.61,5.02,3.86,6.73,6.5ZM22.99,3.62c.68-.22,1.18-.21,1.59-.21,.38,.01,.62,.01,.92-.17,.24-.14,.44-.34,.61-.62-2.77-.63-5.47-.63-8.04-.13,.02,.29,.05,.57,.1,.84,.27,1.39,.82,2.56,1.23,2.61,.06-.01,.21-.14,.34-.26" stroke-width="0"/><path d="M36.02,31.93c.06,.73-.15,1.76-.96,2.3-.38,.25-.83,.34-1.24,.34-.25,0-.48-.03-.68-.09-.37-.12-.62-.33-.73-.61-.13-.34,0-.67,.12-.9,.05-.1,.11-.17,.14-.22,.09-.13,.82-.99,1.32-1.32v-.02c.6-.53,1.09-.72,1.47-.55,.42,.18,.53,.75,.56,1.07Zm-1.51,1.46c.5-.33,.57-1.11,.5-1.5-.12,.07-.26,.17-.37,.28-.58,.46-1.14,1.05-1.26,1.33,.2,.09,.74,.15,1.13-.11Z" stroke-width="0"/></g></svg>