<?xml version="1.0" encoding="UTF-8"?><svg width="70" height="70" xmlns="http://www.w3.org/2000/svg" viewBox="-10 -10 70 70"><rect x="-10" y="-10" width="70" height="70" fill="white"/><g id="uuid-a4ce9658-e128-4ec3-87eb-c74bee8d8341"><g><polygon points="39.37 11.17 39.37 7.8 38.62 7.8 38.62 12.5 39.37 11.17" fill="#ffcd00"/><path d="M6.86,7.8V47.58h30.76V26.05l-9.85,17.45c-.07,.12-.17,.2-.3,.24,0,0-.02,0-.03,0l-4.46,3.28c-.09,.06-.19,.1-.3,.1-.08,0-.17-.02-.25-.06-.17-.1-.27-.29-.25-.48l.5-5.51c-.04-.13-.04-.27,.03-.4l14.89-26.38V7.8H6.86Z" fill="#ffcd00" stroke-width="0"/><path d="M38.62,48.08c0,.28-.22,.5-.5,.5H6.86v.75H39.37V22.95l-.75,1.33v23.8Z" fill="#ffcd00" stroke-width="0"/><path d="M30.69,6.05h6.94V14.27l.33-.58h0l.67-1.19V5.55c0-.28-.22-.5-.5-.5h-7.55c.07,.24,.11,.49,.11,.75v.25Z" stroke-width="0"/><path d="M38.62,48.08V24.28l-1,1.77v21.53H5.11V6.05h7.23v-.25c0-.26,.05-.51,.11-.75H4.61c-.28,0-.5,.22-.5,.5V48.08c0,.28,.22,.5,.5,.5H38.12c.28,0,.5-.22,.5-.5Z" stroke-width="0"/><path d="M12.34,6.05v1.24c0,.28,.22,.5,.5,.5H30.19c.28,0,.5-.22,.5-.5v-1.5c0-.26-.05-.51-.11-.75-.33-1.21-1.43-2.1-2.74-2.1h-3.59c-.24-1.29-1.37-2.28-2.73-2.28s-2.5,.98-2.73,2.28h-3.59c-1.31,0-2.41,.9-2.74,2.1-.07,.24-.11,.49-.11,.75v.25Zm1-.25c0-1.02,.83-1.85,1.85-1.85h4.04c.28,0,.5-.22,.5-.5,0-.98,.8-1.78,1.78-1.78s1.78,.8,1.78,1.78c0,.28,.22,.5,.5,.5h4.04c1.02,0,1.85,.83,1.85,1.85v1H13.34v-1Z" stroke-width="0"/><path d="M45.63,8.64l-2.28-1.29c-.12-.06-.25-.08-.38-.05-.13,.04-.24,.12-.3,.24l-1.04,1.85-.51-.29c-.12-.06-.25-.08-.38-.05-.13,.04-.24,.12-.3,.24l-1.06,1.88-.75,1.33-.67,1.19h0l-.33,.58-14.89,26.38c-.07,.13-.08,.27-.03,.4l-.5,5.51c-.02,.2,.08,.38,.25,.48,.08,.04,.16,.06,.25,.06,.1,0,.21-.03,.3-.1l4.46-3.28s.02,0,.03,0c.13-.04,.24-.12,.3-.24l9.85-17.45,1-1.77,.75-1.33,6.1-10.81c.14-.24,.05-.55-.19-.68l-.51-.29,1.04-1.85c.14-.24,.05-.55-.19-.68ZM23.29,45.55l.36-3.93,2.82,1.59-3.18,2.34Zm3.91-3.08l-3.3-1.86,14.67-25.99,3.3,1.86-14.67,25.99Zm15.16-26.86l-3.3-1.86,1.99-3.53,.51,.29h0l2.28,1.29h0l.51,.29-1.99,3.53Zm1.54-4.93l-1.41-.8,.8-1.41,1.41,.8-.8,1.41Z" stroke-width="0"/></g></g><g id="uuid-d401440c-bc71-491f-a536-340b80fc5f11"></g></svg>