<?xml version="1.0" encoding="UTF-8"?><svg width="70" height="70" xmlns="http://www.w3.org/2000/svg" viewBox="-10 -10 70 70"><rect x="-10" y="-10" width="70" height="70" fill="white"/><g id="uuid-9a2220c6-4e6f-4009-99e7-be79d35c8271"><g><g><path d="M26.25,2.68C13.26,2.68,2.68,13.26,2.68,26.25c0,12.2,9.32,22.27,21.22,23.45,.77,.08,1.55,.12,2.34,.12s1.57-.04,2.34-.12c11.9-1.18,21.22-11.25,21.22-23.45,0-12.99-10.57-23.57-23.57-23.57Zm-1.5,40.8c-10.33,0-18.74-8.4-18.74-18.74S14.42,6.01,24.75,6.01s18.74,8.4,18.74,18.74-8.4,18.74-18.74,18.74Z" fill="#ffcd00" stroke-width="0"/><path d="M25.25,23.44c-1,0-1.81,.81-1.81,1.8s.81,1.81,1.81,1.81,1.81-.81,1.81-1.81-.81-1.8-1.81-1.8Z" fill="#ffcd00" stroke-width="0"/></g><path d="M22.41,48.2c.77,.08,1.55,.12,2.34,.12s1.57-.04,2.34-.12c-.77,.08-1.55,.12-2.34,.12s-1.57-.04-2.34-.12Z" fill="none" stroke-width="0"/><g><path d="M24.75,.18C11.2,.18,.18,11.2,.18,24.75s11.02,24.57,24.57,24.57,24.57-11.02,24.57-24.57S38.3,.18,24.75,.18Zm2.34,48.02c-.77,.08-1.55,.12-2.34,.12s-1.57-.04-2.34-.12C10.49,47.02,1.18,36.97,1.18,24.75,1.18,11.73,11.73,1.18,24.75,1.18s23.57,10.55,23.57,23.57c0,12.22-9.31,22.27-21.22,23.45Z" stroke-width="0"/><path d="M24.75,1.18C11.73,1.18,1.18,11.73,1.18,24.75c0,12.22,9.31,22.27,21.22,23.45C10.51,47.02,1.18,36.95,1.18,24.75,1.18,11.76,11.76,1.18,24.75,1.18s23.57,10.57,23.57,23.57c0,12.2-9.32,22.27-21.22,23.45,11.92-1.18,21.22-11.23,21.22-23.45C48.32,11.73,37.77,1.18,24.75,1.18Z" stroke-width="0"/><path d="M24.75,5.01C13.87,5.01,5.01,13.87,5.01,24.75s8.85,19.74,19.74,19.74,19.74-8.85,19.74-19.74S35.63,5.01,24.75,5.01Zm0,38.47c-10.33,0-18.74-8.4-18.74-18.74S14.42,6.01,24.75,6.01s18.74,8.4,18.74,18.74-8.4,18.74-18.74,18.74Z" stroke-width="0"/><path d="M24.75,11.14c.28,0,.5-.22,.5-.5v-2.31c0-.28-.22-.5-.5-.5s-.5,.22-.5,.5v2.31c0,.28,.22,.5,.5,.5Z" stroke-width="0"/><path d="M12.83,13.21c-.2-.19-.52-.17-.71,.03-.19,.2-.17,.52,.03,.71l1.7,1.56c.1,.09,.22,.13,.34,.13,.13,0,.27-.05,.37-.16,.19-.2,.17-.52-.03-.71l-1.7-1.56Z" stroke-width="0"/><path d="M24.75,38.36c-.28,0-.5,.22-.5,.5v2.31c0,.28,.22,.5,.5,.5s.5-.22,.5-.5v-2.31c0-.28-.22-.5-.5-.5Z" stroke-width="0"/><path d="M10.5,24.25h-2.31c-.28,0-.5,.22-.5,.5s.22,.5,.5,.5h2.31c.28,0,.5-.22,.5-.5s-.22-.5-.5-.5Z" stroke-width="0"/><path d="M41.14,24.25h-2.31c-.28,0-.5,.22-.5,.5s.22,.5,.5,.5h2.31c.28,0,.5-.22,.5-.5s-.22-.5-.5-.5Z" stroke-width="0"/><path d="M35.44,33.94c-.2-.19-.52-.17-.71,.03-.19,.2-.17,.52,.03,.71l1.7,1.56c.1,.09,.22,.13,.34,.13,.13,0,.27-.05,.37-.16,.19-.2,.17-.52-.03-.71l-1.7-1.56Z" stroke-width="0"/><path d="M13.86,33.94l-1.7,1.56c-.2,.19-.22,.5-.03,.71,.1,.11,.23,.16,.37,.16,.12,0,.24-.04,.34-.13l1.7-1.56c.2-.19,.22-.5,.03-.71-.19-.2-.5-.22-.71-.03Z" stroke-width="0"/><path d="M36.46,13.21l-1.7,1.56c-.2,.19-.22,.5-.03,.71,.1,.11,.23,.16,.37,.16,.12,0,.24-.04,.34-.13l1.7-1.56c.2-.19,.22-.5,.03-.71-.19-.2-.5-.22-.71-.03Z" stroke-width="0"/><path d="M30.17,29.28l-3.15-2.89c.33-.46,.54-1.02,.54-1.64,0-1.38-1-2.52-2.31-2.75l-.02-6.71c0-.28-.22-.5-.5-.5h0c-.28,0-.5,.22-.5,.5l.02,6.71c-1.31,.24-2.3,1.38-2.3,2.75,0,1.55,1.26,2.81,2.81,2.81,.57,0,1.11-.17,1.55-.47l3.19,2.93c.1,.09,.22,.13,.34,.13,.13,0,.27-.05,.37-.16,.19-.2,.17-.52-.03-.71Zm-5.42-2.72c-1,0-1.81-.81-1.81-1.81s.81-1.8,1.81-1.8,1.81,.81,1.81,1.8-.81,1.81-1.81,1.81Z" stroke-width="0"/></g></g></g><g id="uuid-8caabb47-3d07-4ea7-bbc2-8ea809e94c0a"></g></svg>