<?xml version="1.0" encoding="UTF-8"?><svg width="70" height="70" id="uuid-7e33fbe1-aa85-434b-9d8a-3da61c831ffe" xmlns="http://www.w3.org/2000/svg" viewBox="-10 -10 70 70"><rect x="-10" y="-10" width="70" height="70" fill="white"/><path d="M41.61,25.8c-1.29,0-2.57,.34-3.7,.98-.14,.08-.31,.09-.46,.03-.15-.06-.26-.19-.3-.35-1.44-5.72-6.57-9.71-12.48-9.71-6.31,0-11.78,4.69-12.73,10.91-.02,.14-.1,.27-.22,.35s-.26,.11-.4,.08c-.46-.1-.94-.15-1.43-.15-3.6,0-6.53,2.93-6.53,6.53,0,.77,.13,1.52,.4,2.24l44.41,.04c.57-1.07,.87-2.28,.87-3.5,0-4.1-3.34-7.44-7.44-7.44Z" fill="#ffcd00" stroke-width="0"/><path d="M39.86,23.03c-1.25,0-2.49,.28-3.62,.82-1.76-5.84-7.14-9.87-13.3-9.87-6.63,0-12.41,4.8-13.66,11.26-.37-.05-.74-.08-1.12-.08-4.17,0-7.56,3.39-7.56,7.56,0,1.02,.2,2.02,.6,2.95,.08,.19,.27,.31,.47,.31l45.06,.04h0c.18,0,.35-.1,.44-.25,.76-1.29,1.16-2.77,1.16-4.27,0-4.67-3.8-8.47-8.47-8.47Zm6.57,11.97l-44.41-.04c-.26-.72-.4-1.47-.4-2.24,0-3.6,2.93-6.53,6.53-6.53,.49,0,.97,.05,1.43,.15,.14,.03,.28,0,.4-.08s.2-.21,.22-.35c.95-6.22,6.43-10.91,12.73-10.91,5.91,0,11.04,3.99,12.48,9.71,.04,.16,.15,.28,.3,.35,.15,.06,.32,.05,.46-.03,1.12-.64,2.4-.98,3.7-.98,4.1,0,7.44,3.34,7.44,7.44,0,1.22-.3,2.43-.87,3.5Z" stroke-width="0"/></svg>