<?xml version="1.0" encoding="UTF-8"?><svg width="70" height="70" xmlns="http://www.w3.org/2000/svg" viewBox="-10 -10 70 70"><rect x="-10" y="-10" width="70" height="70" fill="white"/><g id="uuid-ce4fffc4-1d7f-4fc0-b5a0-ab55a62e57d1"><g><path d="M9.12,19.59v15.77c.06,1.26,.36,3.66,1.92,6.06,2.38,3.65,6.13,4.88,7.93,5.28h-5.89v2.98h19.95v-2.98h-5.83c1.9-.44,5.54-1.7,7.87-5.28,1.56-2.39,1.86-4.79,1.92-6.06v-15.77H9.12Z" fill="#ffcd00" stroke-width="0"/><path d="M36.5,33.86c0,.84-.1,1.66-.28,2.45h6.15v-15.78h-5.88v13.33Z" fill="none" stroke-width="0"/><path d="M42.88,19.53h-6.38v-1.94c0-.28-.22-.5-.5-.5H7.12c-.28,0-.5,.22-.5,.5v16.27c0,4.23,2.35,7.99,5.97,10.36h-1.51c-.28,0-.5,.22-.5,.5v3.96c0,.28,.22,.5,.5,.5h20.95c.28,0,.5-.22,.5-.5v-3.96c0-.28-.22-.5-.5-.5h-1.51c2.59-1.7,4.53-4.11,5.42-6.9h6.93c.28,0,.5-.22,.5-.5V20.03c0-.28-.22-.5-.5-.5Zm-11.34,28.64H11.59v-2.96H31.54v2.96Zm-16.95-3.96c-4.16-2.08-6.97-5.94-6.97-10.36v-15.77h27.88v15.77c0,4.42-2.81,8.28-6.97,10.36H14.59Zm27.79-7.9h-6.15c.18-.8,.28-1.61,.28-2.45v-13.33h5.88v15.78Z" stroke-width="0"/><path d="M12.17,9.58c.73,.65,1.17,1.08,1.19,1.69,.01,.77-.69,1.64-2.04,2.51-.23,.15-.3,.46-.15,.69,.1,.15,.26,.23,.42,.23,.09,0,.19-.03,.27-.08,1.68-1.08,2.52-2.22,2.5-3.37-.02-1.08-.78-1.76-1.52-2.42-.6-.54-1.23-1.09-1.6-1.92-.66-1.46-.35-3.42,.92-5.85,.13-.24,.03-.55-.21-.67-.25-.13-.55-.03-.67,.21-1.42,2.71-1.74,4.97-.95,6.72,.46,1.02,1.2,1.68,1.85,2.26Z" stroke-width="0"/><path d="M30.93,9.58c.73,.65,1.17,1.08,1.19,1.69,.01,.77-.69,1.64-2.04,2.51-.23,.15-.3,.46-.15,.69,.1,.15,.26,.23,.42,.23,.09,0,.19-.03,.27-.08,1.68-1.08,2.52-2.22,2.5-3.37-.02-1.08-.78-1.76-1.52-2.42-.6-.54-1.23-1.09-1.6-1.92-.66-1.45-.35-3.42,.92-5.85,.13-.24,.03-.55-.21-.67-.24-.13-.55-.03-.67,.21-1.42,2.71-1.74,4.97-.95,6.72,.46,1.02,1.2,1.68,1.84,2.26Z" stroke-width="0"/><path d="M21.55,9.58c.73,.65,1.17,1.08,1.19,1.69,.01,.77-.69,1.64-2.04,2.51-.23,.15-.3,.46-.15,.69,.1,.15,.26,.23,.42,.23,.09,0,.19-.03,.27-.08,1.68-1.08,2.52-2.22,2.5-3.37-.02-1.08-.78-1.76-1.52-2.42-.6-.54-1.23-1.09-1.6-1.92-.66-1.46-.35-3.42,.92-5.85,.13-.24,.03-.55-.21-.67-.24-.13-.55-.03-.67,.21-1.42,2.71-1.74,4.97-.95,6.72,.46,1.02,1.2,1.68,1.85,2.26Z" stroke-width="0"/></g></g><g id="uuid-8ef0929d-cc68-4f97-8991-0bc158a5ff69"></g></svg>