<?xml version="1.0" encoding="UTF-8"?><svg width="70" height="70" xmlns="http://www.w3.org/2000/svg" viewBox="-10 -10 70 70"><rect x="-10" y="-10" width="70" height="70" fill="white"/><g id="uuid-5c46f509-32e9-4dec-9574-66f3422e4b9d"><g><path d="M28.43,13.79c.82-1.13,1.2-2.19,1.38-2.86,.2-.73,.71-2.64-.16-4.37-.34-.68-.69-.93-.79-1-.97-.67-2.23-.28-2.59-.17-1.37,.42-2.65,1.62-2.96,2.49-.04,.12-.17,.52-.55,.82-.09,.07-.3,.24-.6,.29-.66,.12-1.24-.39-1.5-.62-.25-.22-.26-.29-.68-.8-.07-.08-.62-.74-.97-1.05-.69-.62-1.82-.97-2.89-.79-.82,.14-1.66,.58-2.1,1.18-1.05,1.42-.31,4.37,2.23,6.94,1.63-.35,3.69-.65,6.07-.66,2.4-.01,4.48,.27,6.12,.6Z" fill="#ffcd00" stroke-width="0"/><path d="M38.54,44.44h0Z" stroke-width="0"/><polygon points="49.15 34.52 49.15 34.52 49.15 34.52 49.15 34.52"/><polygon points="38.16 34.37 38.16 34.37 38.15 34.37 38.16 34.37"/><path d="M38.56,44.44h-.11l.05,.03h0l.06-.03Z" stroke-width="0"/><path d="M39.14,26.49c-.72-1.2-1.96-2.96-3.97-4.51-4.45-3.44-9.45-3.42-12.44-3.43-1.9-.01-8.85,.04-14.61,4.63-1.23,.98-3.14,2.54-4.35,5.33-.19,.45-1.21,2.87-1,5.76,.49,6.74,7.3,10.49,7.84,10.77H28.2s-.02-.04-.04-.08c-.64-.71-1.04-1.64-1.04-2.68,0-1.82,1.21-3.33,2.86-3.84,.61-.42,1.37-.73,2.27-.66,1.94,.14,2.99,1.91,3.15,2.18,1.21,2.03,.37,4.19,.26,4.45,.93-.81,1.86-1.62,2.79-2.44-.11-4.75-.22-9.5-.33-14.24,.11-.17,.24-.36,.39-.55,.21-.27,.43-.5,.63-.69Z" fill="#ffcd00" stroke-width="0"/><g><path d="M8.78,23.55c-1.51,.99-2.78,2.25-3.76,3.76-.86,1.33-1.47,2.8-1.79,4.35-.06,.27,.12,.53,.38,.58,.03,0,.07,.01,.1,.01,.23,0,.43-.16,.48-.39,.3-1.44,.86-2.79,1.65-4.02,.89-1.37,2.09-2.57,3.47-3.47,.23-.15,.29-.45,.14-.68-.15-.23-.45-.29-.68-.14Z" stroke-width="0"/><path d="M49.79,27.17c0-.08-.02-.15-.06-.22-.44-1.57-5.5-1.62-6.1-1.62-.37,0-2.44,.02-4.07,.4-2.49-3.74-6.87-6.63-12.2-7.93l.32-4.87c1.11-1.59,2.16-3.83,1.83-6.41-.1-.79-.32-2.45-1.61-3.3-1.66-1.1-4.29-.32-5.78,1.03-.67,.61-.98,1.23-1.2,1.68-.22,.44-.3,.56-.44,.58-.29,.04-.64-.33-1.16-.98-.66-.82-1.49-1.84-2.89-2.22-1.71-.45-3.78,.2-4.71,1.5-1.81,2.53,.99,6.54,1.57,7.31,.32,.43,.69,.83,1.07,1.2l.36,4.44C6.31,19.82,.21,25.77,.21,32.77c0,4.98,3.19,9.72,8.52,12.68l.11,.06H27.36c.92,1.07,2.27,1.77,3.79,1.77,2.27,0,4.18-1.53,4.79-3.61,.55-.43,1.06-.88,1.53-1.35v2.03s0,.02,0,.04c0,.03-.01,.05-.01,.08,0,1.79,5.53,1.84,6.16,1.84s6.16-.05,6.16-1.84c0-.02,0-.03-.01-.05,0-.02,.01-.04,.01-.06V27.17Zm-6.16-.85c2.9,0,4.74,.52,5.12,.85-.37,.33-2.22,.85-5.12,.85s-4.74-.52-5.12-.85c.37-.33,2.22-.85,5.12-.85ZM12.51,5.41c.55-.76,1.67-1.24,2.77-1.24,.3,0,.6,.04,.89,.11,1.09,.29,1.78,1.14,2.38,1.88,.62,.77,1.2,1.5,2.11,1.32,.65-.12,.9-.63,1.15-1.11,.21-.42,.45-.9,.98-1.39,1.22-1.11,3.34-1.75,4.57-.94,.92,.61,1.09,1.91,1.18,2.61,.29,2.23-.66,4.23-1.6,5.62-1.37-.28-2.75-.46-4.14-.54l.78-1.89c.1-.25-.02-.54-.27-.64-.25-.11-.54,.02-.64,.27l-.92,2.22c-.37,0-.74-.02-1.12-.01-.09,0-.18,0-.27,.01l-.88-2.12c-.1-.25-.4-.37-.64-.27-.25,.1-.37,.39-.27,.64l.74,1.78c-1.53,.09-3.07,.29-4.57,.61-.24-.25-.47-.51-.67-.79-.31-.42-3-4.14-1.55-6.15Zm10.48,11.73s-.04,0-.05,0c-.64-.05-1.28-.08-1.94-.08-1.84,0-3.62,.2-5.32,.54l-.35-4.36c1.75-.35,3.53-.54,5.31-.56,2.02-.03,4.06,.16,6.04,.56l-.29,4.37c-1.1-.22-2.23-.38-3.39-.47Zm8.16,29.16c-2.22,0-4.03-1.81-4.03-4.03s1.81-4.03,4.03-4.03,4.03,1.81,4.03,4.03-1.81,4.03-4.03,4.03Zm6.38-19.35c-.04,.07-.06,.14-.06,.23v13.76c-.4,.45-.84,.88-1.31,1.29-.02-2.75-2.26-4.97-5.01-4.97s-5.01,2.25-5.01,5.01c0,.82,.21,1.58,.56,2.26H9.1c-5.03-2.82-7.91-7.1-7.91-11.76,0-7.4,7.38-13.53,16.95-14.57l-.9,1.51c-.14,.23-.06,.54,.17,.68,.08,.05,.17,.07,.25,.07,.17,0,.33-.09,.42-.24l1.27-2.12c.54-.03,1.09-.06,1.64-.06s1.09,.03,1.62,.06l1.43,2.09c.1,.14,.25,.21,.41,.21,.1,0,.19-.03,.28-.09,.22-.15,.28-.46,.13-.68l-.97-1.42c6.41,.7,11.82,3.69,14.69,7.82-.55,.22-.94,.52-1.06,.91Zm.62,7.42h0Zm10.65,9.02h0v1.05h-.09s.04,.02,.06,.04c-.38,.34-2.23,.85-5.14,.85s-4.76-.52-5.14-.85h.01l-.05-.04v-2.47c1.64,.51,3.33,.8,5.05,.83,.11,0,.22,0,.33,0,1.69,0,3.35-.25,4.97-.71v1.3Zm0-2.32c-1.71,.52-3.49,.77-5.28,.74-1.73-.03-3.43-.33-5.07-.87v-2.44c1.62,.5,3.29,.78,4.99,.81,.11,0,.22,0,.33,0,1.71,0,3.39-.25,5.03-.73v2.49Zm0-3.51c-1.73,.53-3.52,.8-5.34,.76-1.7-.03-3.38-.32-5-.85v-2.5c1.66,.52,3.37,.81,5.11,.84,.11,0,.21,0,.32,0,1.66,0,3.31-.24,4.92-.69v2.43Zm0-3.46c-1.7,.51-3.45,.76-5.22,.72-1.75-.03-3.47-.33-5.13-.89v-2.45c1.65,.51,3.35,.8,5.08,.83,.11,0,.22,0,.33,0,1.67,0,3.33-.24,4.94-.7v2.48Zm0-3.5c-1.71,.52-3.47,.77-5.25,.73-1.74-.03-3.45-.33-5.1-.88v-2.21c1.61,.73,4.71,.76,5.17,.76s3.56-.03,5.17-.76v2.35Zm.34,3.91h0Z" stroke-width="0"/><path d="M21.41,30.72c-1.37-.4-1.86-.6-1.86-1.33,0-.67,.43-1.08,1.3-1.08,.49,0,.82,.12,1.05,.32,.39,.35,.44,.82,.45,.93,.28,0,.76,0,1.04,0,.22,0,.68,0,.9,0-.1-1.42-.94-2.54-2.85-2.73v-1.28h-1v1.27c-1.63,.14-2.86,1.1-2.86,2.75,0,1.4,.77,2.21,3.01,2.83,1.4,.4,1.93,.76,1.93,1.64,0,.69-.39,1.17-1.49,1.17-1.03,0-1.61-.57-1.75-1.45h-1.95c.11,1.76,1.28,2.79,3.1,2.95v1.28h1v-1.28c2.17-.17,3.1-1.43,3.1-2.9,0-1.39-.65-2.38-3.13-3.1Z" stroke-width="0"/></g></g></g><g id="uuid-64422044-4d5b-4e7f-8654-ae25ae8e529f"></g></svg>