<?xml version="1.0" encoding="UTF-8"?><svg width="70" height="70" xmlns="http://www.w3.org/2000/svg" viewBox="-10 -10 70 70"><rect x="-10" y="-10" width="70" height="70" fill="white"/><g id="uuid-85a17641-6388-4b82-9728-d8411dd6ac48"><rect x="24.95" y="37.04" width="6.45" height="1.47" fill="#ffcd00"/><path d="M42.18,14.06h-9.06v28.83h2.92c0-.06-.02-.11-.02-.17,0-1.45,1.24-2.63,2.72-2.49.57-1.21,1.79-2.01,3.16-2.01,1.12,0,2.13.54,2.77,1.39.41.3.74.69.99,1.14.64.14,1.18.53,1.53,1.05.4.26.72.64.92,1.08h.42V14.06h-6.35ZM33.4,16.58c0-.28.22-.5.5-.5h5.72c.27,0,.5.22.5.5v2.69c0,.27-.23.5-.5.5h-5.72c-.28,0-.5-.23-.5-.5v-2.69ZM42.09,21.57c.27,0,.5.22.5.5v2.68c0,.28-.23.5-.5.5h-3.25c-.28,0-.5-.22-.5-.5v-2.68c0-.28.22-.5.5-.5h3.25ZM33.4,22.07c0-.28.22-.5.5-.5h3.25c.27,0,.5.22.5.5v2.68c0,.28-.23.5-.5.5h-3.25c-.28,0-.5-.22-.5-.5v-2.68ZM33.4,27.55c0-.27.22-.5.5-.5h5.72c.27,0,.5.23.5.5v2.69c0,.27-.23.5-.5.5h-5.72c-.28,0-.5-.23-.5-.5v-2.69ZM37.65,35.72c0,.28-.23.5-.5.5h-3.25c-.28,0-.5-.22-.5-.5v-2.68c0-.28.22-.5.5-.5h3.25c.27,0,.5.22.5.5v2.68ZM42.59,35.72c0,.28-.23.5-.5.5h-3.25c-.28,0-.5-.22-.5-.5v-2.68c0-.28.22-.5.5-.5h3.25c.27,0,.5.22.5.5v2.68ZM47.53,35.72c0,.28-.22.5-.5.5h-3.25c-.28,0-.5-.22-.5-.5v-2.68c0-.28.22-.5.5-.5h3.25c.28,0,.5.22.5.5v2.68ZM47.53,30.24c0,.27-.22.5-.5.5h-5.72c-.28,0-.5-.23-.5-.5v-2.69c0-.27.22-.5.5-.5h5.72c.28,0,.5.23.5.5v2.69ZM47.53,24.75c0,.28-.22.5-.5.5h-3.25c-.28,0-.5-.22-.5-.5v-2.68c0-.28.22-.5.5-.5h3.25c.28,0,.5.22.5.5v2.68ZM47.53,19.27c0,.27-.22.5-.5.5h-5.72c-.28,0-.5-.23-.5-.5v-2.69c0-.28.22-.5.5-.5h5.72c.28,0,.5.22.5.5v2.69Z" fill="#ffcd00" stroke-width="0"/><polygon points="40.96 7.71 29.66 11.09 29.66 12.34 31.9 12.34 40.96 12.34 40.96 7.71" fill="#ffcd00"/><polygon points="27.94 10.03 23.43 10.76 23.43 12.34 27.94 12.34 27.94 10.03" fill="#ffcd00"/><polygon points="21.61 14.26 17.1 14.99 17.1 18.77 21.61 18.77 21.61 14.26" fill="#ffcd00"/><path d="M21.61,20.49H3.81v11.65h17.8v-11.65ZM9.93,22.07c0-.28.23-.5.5-.5h3.84c.28,0,.5.22.5.5v2.68c0,.28-.22.5-.5.5h-3.84c-.27,0-.5-.22-.5-.5v-2.68ZM4.09,22.07c0-.28.22-.5.5-.5h3.84c.28,0,.5.22.5.5v2.68c0,.28-.22.5-.5.5h-3.84c-.28,0-.5-.22-.5-.5v-2.68ZM11.85,30.24c0,.27-.22.5-.5.5h-6.76c-.28,0-.5-.23-.5-.5v-2.69c0-.27.22-.5.5-.5h6.76c.28,0,.5.23.5.5v2.69ZM20.61,30.24c0,.27-.22.5-.5.5h-6.76c-.27,0-.5-.23-.5-.5v-2.69c0-.27.23-.5.5-.5h6.76c.28,0,.5.23.5.5v2.69ZM20.61,24.75c0,.28-.22.5-.5.5h-3.84c-.27,0-.5-.22-.5-.5v-2.68c0-.28.23-.5.5-.5h3.84c.28,0,.5.22.5.5v2.68Z" fill="#ffcd00" stroke-width="0"/><polygon points="3.81 33.86 2.81 33.86 2.19 33.86 2.19 38.51 3.09 38.51 21.61 38.51 22.61 38.51 23.23 38.51 23.23 36.32 23.23 35.32 23.23 33.86 22.33 33.86 3.81 33.86" fill="#ffcd00"/></g><g id="uuid-f2ec5ff2-0f0e-4958-942c-1f7a63cc58ff"><path d="M47.03,21.57h-3.25c-.28,0-.5.22-.5.5v2.68c0,.28.22.5.5.5h3.25c.28,0,.5-.22.5-.5v-2.68c0-.28-.22-.5-.5-.5ZM46.53,24.25h-2.25v-1.68h2.25v1.68Z" stroke-width="0"/><path d="M47.03,32.54h-3.25c-.28,0-.5.22-.5.5v2.68c0,.28.22.5.5.5h3.25c.28,0,.5-.22.5-.5v-2.68c0-.28-.22-.5-.5-.5ZM46.53,35.22h-2.25v-1.68h2.25v1.68Z" stroke-width="0"/><path d="M47.03,16.08h-5.72c-.28,0-.5.22-.5.5v2.69c0,.27.22.5.5.5h5.72c.28,0,.5-.23.5-.5v-2.69c0-.28-.22-.5-.5-.5ZM46.53,18.77h-4.72v-1.69h4.72v1.69Z" stroke-width="0"/><path d="M47.03,27.05h-5.72c-.28,0-.5.23-.5.5v2.69c0,.27.22.5.5.5h5.72c.28,0,.5-.23.5-.5v-2.69c0-.27-.22-.5-.5-.5ZM46.53,29.74h-4.72v-1.69h4.72v1.69Z" stroke-width="0"/><path d="M38.34,22.07v2.68c0,.28.22.5.5.5h3.25c.27,0,.5-.22.5-.5v-2.68c0-.28-.23-.5-.5-.5h-3.25c-.28,0-.5.22-.5.5ZM39.34,22.57h2.25v1.68h-2.25v-1.68Z" stroke-width="0"/><path d="M42.09,32.54h-3.25c-.28,0-.5.22-.5.5v2.68c0,.28.22.5.5.5h3.25c.27,0,.5-.22.5-.5v-2.68c0-.28-.23-.5-.5-.5ZM41.59,35.22h-2.25v-1.68h2.25v1.68Z" stroke-width="0"/><path d="M37.15,32.54h-3.25c-.28,0-.5.22-.5.5v2.68c0,.28.22.5.5.5h3.25c.27,0,.5-.22.5-.5v-2.68c0-.28-.23-.5-.5-.5ZM36.65,35.22h-2.25v-1.68h2.25v1.68Z" stroke-width="0"/><path d="M33.9,19.77h5.72c.27,0,.5-.23.5-.5v-2.69c0-.28-.23-.5-.5-.5h-5.72c-.28,0-.5.22-.5.5v2.69c0,.27.22.5.5.5ZM34.4,17.08h4.72v1.69h-4.72v-1.69Z" stroke-width="0"/><path d="M33.9,25.25h3.25c.27,0,.5-.22.5-.5v-2.68c0-.28-.23-.5-.5-.5h-3.25c-.28,0-.5.22-.5.5v2.68c0,.28.22.5.5.5ZM34.4,22.57h2.25v1.68h-2.25v-1.68Z" stroke-width="0"/><path d="M33.9,30.74h5.72c.27,0,.5-.23.5-.5v-2.69c0-.27-.23-.5-.5-.5h-5.72c-.28,0-.5.23-.5.5v2.69c0,.27.22.5.5.5ZM34.4,28.05h4.72v1.69h-4.72v-1.69Z" stroke-width="0"/><path d="M15.77,22.07v2.68c0,.28.23.5.5.5h3.84c.28,0,.5-.22.5-.5v-2.68c0-.28-.22-.5-.5-.5h-3.84c-.27,0-.5.22-.5.5ZM16.77,22.57h2.84v1.68h-2.84v-1.68Z" stroke-width="0"/><path d="M20.11,27.05h-6.76c-.27,0-.5.23-.5.5v2.69c0,.27.23.5.5.5h6.76c.28,0,.5-.23.5-.5v-2.69c0-.27-.22-.5-.5-.5ZM19.61,29.74h-5.76v-1.69h5.76v1.69Z" stroke-width="0"/><path d="M10.43,25.25h3.84c.28,0,.5-.22.5-.5v-2.68c0-.28-.22-.5-.5-.5h-3.84c-.27,0-.5.22-.5.5v2.68c0,.28.23.5.5.5ZM10.93,22.57h2.84v1.68h-2.84v-1.68Z" stroke-width="0"/><path d="M4.59,25.25h3.84c.28,0,.5-.22.5-.5v-2.68c0-.28-.22-.5-.5-.5h-3.84c-.28,0-.5.22-.5.5v2.68c0,.28.22.5.5.5ZM5.09,22.57h2.84v1.68h-2.84v-1.68Z" stroke-width="0"/><path d="M11.35,27.05h-6.76c-.28,0-.5.23-.5.5v2.69c0,.27.22.5.5.5h6.76c.28,0,.5-.23.5-.5v-2.69c0-.27-.22-.5-.5-.5ZM10.85,29.74h-5.76v-1.69h5.76v1.69Z" stroke-width="0"/><path d="M40.32,39.8s.03-.03.05-.04c-.02.01-.03.03-.05.04Z" stroke-width="0"/><path d="M37.53,41.61s.05-.04.07-.06c-.02.02-.05.04-.07.06Z" stroke-width="0"/><path d="M39.96,40.18s.05-.06.07-.08c-.02.03-.05.06-.07.08Z" stroke-width="0"/><path d="M38.92,41.29c.26.07.53-.08.61-.33.08-.24.2-.47.34-.67-.16.2-.3.42-.41.65-.66-.06-1.26.15-1.74.52.23-.15.51-.24.81-.24.12,0,.25.02.4.07Z" stroke-width="0"/><path d="M49.03,12.34h-7.07v-6.23c0-.16-.07-.3-.2-.4-.12-.09-.29-.12-.44-.08l-12.38,3.7v-.72c0-.14-.07-.28-.18-.38-.11-.09-.26-.14-.4-.11l-6.23,1c-.25.04-.42.25-.42.49v2.79l-5.91.95c-.24.04-.42.25-.42.49v4.93H2.59c-.28,0-.5.22-.5.5v12.87H.97c-.28,0-.5.23-.5.5v6.37c0,.27.22.5.5.5h1.12v3.88c0,.27.22.5.5.5h46.44c.28,0,.5-.23.5-.5V12.84c0-.27-.22-.5-.5-.5ZM28.94,10.37l12.02-3.59v.93l.72-.21v5.56h-12.02v-.72h-.72v-1.97ZM22.71,10.04l5.23-.84v.83l.72-.11v3.14h-5.23v-.72h-.72v-2.3ZM22.61,13.34h8.79v5.43h-8.79v-5.43ZM22.61,19.77h8.79v4.48h-8.79v-4.48ZM22.61,25.25h8.79v4.49h-8.79v-4.49ZM16.38,14.27l5.23-.84v.83l.72-.11v5.34h-5.23v-.72h-.72v-4.5ZM3.09,19.77h18.52v.72h.72v12.37H3.81v-.72h-.72v-12.37ZM9.35,42.89H3.09v-3.38h6.26v3.38ZM11.85,42.89h-1.5v-3.38h1.5v3.38ZM14.35,42.89h-1.5v-3.38h1.5v3.38ZM21.61,42.89h-6.26v-3.38h6.26v3.38ZM3.81,39.23h-1.62v-.72h-.72v-5.37h21.76v.72h.72v5.37H3.81ZM24,42.89h-1.39v-3.38h1.39v3.38ZM23.73,32.14h-1.12v-1.4h8.79v4.58h-7.17v-2.68c0-.27-.22-.5-.5-.5ZM26.51,42.89h-1.51v-3.38h1.51v3.38ZM29.01,42.89h-1.5v-3.38h1.5v3.38ZM31.4,42.89h-1.39v-3.38h1.39v3.38ZM32.12,39.23h-7.17v-.72h-.72v-2.19h7.17v.72h.72v2.19ZM49.25,43.61h-.93c-.03-.25-.11-.49-.21-.72h-.51c-.05-.4-.2-.76-.41-1.08-.36-.23-.79-.38-1.24-.39-.07-.23-.17-.45-.28-.66-.14-.03-.28-.05-.43-.06-.12-.4-.32-.76-.56-1.09-.58-.43-1.29-.68-2.06-.68s-1.52.27-2.11.72c.4-.28.88-.44,1.4-.44.86,0,1.62.44,2.06,1.12.48.32.85.8,1.02,1.38.63-.07,1.22.29,1.49.84.41.2.74.58.83,1.04h-9.56c0-.06-.01-.11-.01-.17,0-.19.04-.38.11-.55h-.81c0-.06-.01-.11-.01-.17,0-.3.09-.58.25-.82-.33.43-.54.96-.54,1.54,0,.06.01.11.02.17h-3.64v-.72h-.72V13.34h16.13v.72h.72v29.55Z" stroke-width="0"/><polygon points="31.4 38.51 24.95 38.51 24.95 39.23 32.12 39.23 32.12 37.04 31.4 37.04 31.4 38.51"/><path d="M44.95,41.72s.02,0,.04,0c-.17-.58-.54-1.06-1.02-1.38.19.29.33.61.39.97.05.27.32.45.6.41Z" stroke-width="0"/><path d="M37.84,42.89c-.07.17-.11.35-.11.55,0,.06.01.11.01.17h9.56c-.09-.46-.42-.85-.83-1.04.05.1.09.21.12.33h-8.75Z" stroke-width="0"/><path d="M45.66,40.76c.11.21.21.43.28.66.46.02.88.16,1.24.39-.35-.53-.89-.91-1.53-1.05Z" stroke-width="0"/><path d="M48.53,42.89h-.42c.1.22.18.46.21.72h.93V14.06h-.72v28.83Z" stroke-width="0"/><path d="M41.9,38.22c-1.37,0-2.59.8-3.16,2.01-1.48-.14-2.72,1.04-2.72,2.49,0,.06.01.11.02.17h-2.92v.72h3.64c0-.06-.02-.11-.02-.17,0-.58.2-1.11.54-1.54.07-.11.16-.2.26-.29.02-.02.05-.04.07-.06.04-.03.07-.06.11-.09.48-.37,1.08-.58,1.74-.52.11-.24.25-.45.41-.65.03-.04.06-.08.09-.12.02-.03.05-.06.07-.08.09-.11.19-.2.29-.29.02-.01.03-.03.05-.04.04-.03.09-.07.13-.1.59-.45,1.33-.72,2.11-.72s1.48.25,2.06.68c-.64-.85-1.65-1.39-2.77-1.39Z" stroke-width="0"/><polygon points="31.9 12.34 29.66 12.34 29.66 13.06 32.62 13.06 41.68 13.06 41.68 7.5 40.96 7.71 40.96 12.34 31.9 12.34"/><polygon points="23.43 12.34 23.43 13.06 28.66 13.06 28.66 10.72 28.66 9.92 27.94 10.03 27.94 12.34 23.43 12.34"/><polygon points="17.1 18.77 17.1 19.49 22.33 19.49 22.33 14.15 21.61 14.26 21.61 18.77 17.1 18.77"/><polygon points="3.81 32.14 3.81 32.86 22.33 32.86 22.33 20.49 21.61 20.49 21.61 32.14 3.81 32.14"/><polygon points="23.95 39.23 23.95 37.04 23.95 36.04 23.95 33.86 23.33 33.86 23.23 33.86 23.23 35.32 23.23 36.32 23.23 38.51 22.61 38.51 21.61 38.51 3.09 38.51 2.19 38.51 2.19 39.23 2.81 39.23 3.81 39.23 22.33 39.23 23.33 39.23 23.95 39.23"/></g></svg>