<?xml version="1.0" encoding="UTF-8"?><svg width="70" height="70" id="uuid-60967c8b-eadb-47dc-b2dd-f5dd8928aa20" xmlns="http://www.w3.org/2000/svg" viewBox="-10 -10 70 70"><rect x="-10" y="-10" width="70" height="70" fill="white"/><polygon points="48.86 5.24 3.89 5.24 3.89 9.27 9.67 9.27 10.37 9.27 10.37 13.89 13.1 13.89 13.61 13.89 13.61 16.05 13.61 16.05 13.78 40.84 17.58 46.99 17.58 16.05 17.58 16.05 17.58 13.89 18.08 13.89 18.08 13.88 23.85 13.88 23.85 13.89 24.35 13.89 24.35 14.89 24.35 43.63 26.18 47.31 28.15 43.68 28.15 14.89 28.15 14.89 28.15 13.89 28.64 13.89 28.65 13.88 34.34 13.88 34.35 13.89 34.84 13.89 34.84 14.89 34.84 47 38.64 40.93 38.64 14.89 38.64 14.89 38.64 13.89 39.13 13.89 39.14 13.88 42.3 13.88 42.3 9.27 42.79 9.27 42.8 9.27 48.86 9.27 48.86 5.24" fill="#ffcd00"/><path d="M48.11,2.99c0-.28-.22-.5-.5-.5H1.64c-.13,0-.26,.05-.35,.15s-.15,.22-.15,.35v5.03c0,.13,.05,.26,.15,.35s.22,.15,.35,.15H7.62v4.11c0,.28,.22,.5,.5,.5h2.74l.17,26.1c0,.09,.03,.18,.07,.26l4.8,7.78c.09,.15,.25,.24,.43,.24,.05,0,.09,0,.14-.02,.22-.06,.36-.26,.36-.48V13.14h4.77v28.87c0,.08,.02,.15,.05,.22l2.32,4.65c.08,.17,.25,.27,.44,.28,.19,.02,.36-.1,.45-.26l2.48-4.59c.04-.07,.06-.15,.06-.24V13.14h4.69V46.99c0,.22,.15,.42,.36,.48,.21,.06,.44-.03,.56-.22l4.8-7.67c.05-.08,.08-.17,.08-.27V13.13h3.16c.13,0,.26-.05,.35-.15s.15-.22,.15-.35v-4.11h6.06c.28,0,.5-.22,.5-.5V2.99ZM15.83,45.24l-3.8-6.16-.17-25.95h3.97V45.24Zm10.57-3.32l-1.96,3.64-1.83-3.68V13.14h3.8v28.79Zm6.7,3.33V13.14h3.8v26.04l-3.8,6.08Zm4.3-33.12H8.62v-3.61h31.93v3.61h-3.16Zm3.66-4.61H2.14V3.49H47.11V7.52h-6.06Z" stroke-width="0"/></svg>