<?xml version="1.0" encoding="UTF-8"?><svg width="70" height="70" id="uuid-a703d520-fa2a-4908-8eac-5a6e30dc0c11" xmlns="http://www.w3.org/2000/svg" viewBox="-10 -10 70 70"><rect x="-10" y="-10" width="70" height="70" fill="white"/><path d="M28.68,37.63h20.74V5.72H3.08v31.91H24.32v6.6H15.37v2.54h21.77v-2.54h-8.95v-6.6h.5ZM5.34,31.16V8.04H44.16V31.16H5.34Z" fill="#ffcd00" stroke-width="0"/><g><path d="M48.35,3.22H1.15c-.32,0-.57,.26-.57,.57V36.56c0,.32,.26,.57,.57,.57H21.82v5.06H13.37c-.28,0-.5,.22-.5,.5v3.08c0,.28,.22,.5,.5,.5h22.77c.28,0,.5-.22,.5-.5v-3.08c0-.28-.22-.5-.5-.5h-8.45v-5.06h20.67c.32,0,.57-.26,.57-.57V3.8c0-.32-.26-.57-.57-.57Zm-12.71,42.06H13.87v-2.08h21.77v2.08Zm-8.95-3.08h-3.86v-5.06h3.86v5.06Zm21.24-6.06H1.58V4.22H47.92v31.91Z" stroke-width="0"/><path d="M44.66,7.04H4.84c-.28,0-.5,.22-.5,.5V31.66c0,.28,.22,.5,.5,.5H44.66c.28,0,.5-.22,.5-.5V7.54c0-.28-.22-.5-.5-.5Zm-.5,24.13H5.34V8.04H44.16V31.16Z" stroke-width="0"/><circle cx="24.75" cy="34.09" r="1.07"/></g></svg>