<?xml version="1.0" encoding="UTF-8"?><svg width="70" height="70" xmlns="http://www.w3.org/2000/svg" viewBox="-10 -10 70 70"><rect x="-10" y="-10" width="70" height="70" fill="white"/><g id="uuid-09f9f05a-4660-421e-a3bd-ed98c189fd35"><g><path d="M26.5,14.95c-8.58,0-15.55,6.98-15.55,15.55s6.98,15.55,15.55,15.55,15.55-6.98,15.55-15.55-6.98-15.55-15.55-15.55Zm3.4,18.96l-6.65-2.43h0c-.18-.07-.36-.14-.54-.2l-.2-.54h0l-2.43-6.64h0c.8,.29,1.59,.59,2.39,.88l4.25,1.56h0l.62,.23c.86,2.39,1.71,4.77,2.57,7.16h0Z" fill="#ffcd00" stroke-width="0"/><path d="M26.69,28.04c.41,.75,.31,1.7-.32,2.33-.38,.38-.88,.57-1.39,.57-.33,0-.65-.09-.95-.25l-.77,.77c2.21,.81,4.43,1.62,6.64,2.44l-2.43-6.64-.78,.78Z" fill="none" stroke-width="0"/><path d="M23.6,27.61c.64-.64,1.6-.74,2.35-.31l.77-.77c-1.42-.52-2.83-1.04-4.25-1.56l-2.39-.87c.81,2.21,1.62,4.42,2.43,6.64l.77-.77c-.43-.75-.33-1.72,.31-2.35Z" fill="none" stroke-width="0"/><path d="M26.73,26.52l-4.25-1.56c1.42,.52,2.83,1.04,4.25,1.56h0Z" fill="#ffcd00" stroke-width="0"/><path d="M23.26,31.48l6.65,2.43h0c-2.21-.81-4.43-1.63-6.64-2.44h0Z" fill="#ffcd00" stroke-width="0"/><path d="M20.08,24.09l2.43,6.65h0c-.81-2.22-1.62-4.43-2.43-6.64h0Z" fill="#ffcd00" stroke-width="0"/><path d="M20.09,24.09h0l2.39,.88c-.8-.29-1.59-.58-2.39-.88Z" stroke-width="0"/><g><path d="M27.57,8.92c1.16-.82,1.93-2.16,1.93-3.69,0-2.48-2.02-4.51-4.51-4.51s-4.51,2.02-4.51,4.51c0,1.53,.77,2.87,1.93,3.69C12.47,10.19,4.74,18.71,4.74,29.01c0,11.17,9.09,20.27,20.26,20.27s20.26-9.09,20.26-20.27c0-10.3-7.73-18.81-17.69-20.08Zm-6.08-3.69c0-1.93,1.57-3.51,3.51-3.51s3.51,1.57,3.51,3.51-1.57,3.51-3.51,3.51-3.51-1.57-3.51-3.51Zm3.51,43.04c-10.62,0-19.26-8.64-19.26-19.27S14.38,9.74,25,9.74s19.26,8.64,19.26,19.26-8.64,19.27-19.26,19.27Z" stroke-width="0"/><path d="M36.75,17.33s-.02-.03-.03-.04c-.01-.01-.03-.02-.04-.03-3-2.98-7.13-4.83-11.68-4.83s-8.68,1.85-11.68,4.83c-.01,.01-.03,.02-.04,.03s-.02,.03-.03,.04c-2.98,3-4.83,7.13-4.83,11.68s1.85,8.68,4.83,11.68c.01,.01,.02,.03,.03,.04,.01,.01,.03,.02,.04,.03,3,2.98,7.13,4.82,11.68,4.82s8.67-1.84,11.67-4.82c.02-.01,.03-.02,.05-.03s.02-.03,.03-.05c2.98-3,4.82-7.12,4.82-11.67s-1.85-8.68-4.82-11.68Zm-.41,22.31l-2.19-2.19c-.2-.2-.51-.2-.71,0s-.2,.51,0,.71l2.19,2.19c-2.67,2.51-6.22,4.08-10.14,4.21v-3.1c0-.28-.22-.5-.5-.5s-.5,.22-.5,.5v3.1c-3.92-.13-7.47-1.7-10.14-4.2l2.19-2.19c.2-.2,.2-.51,0-.71s-.51-.2-.71,0l-2.19,2.19c-2.51-2.67-4.08-6.22-4.21-10.14h3.11c.28,0,.5-.22,.5-.5s-.22-.5-.5-.5h-3.11c.13-3.92,1.7-7.47,4.21-10.14l2.19,2.19c.1,.1,.23,.15,.35,.15s.26-.05,.35-.15c.2-.2,.2-.51,0-.71l-2.19-2.19c2.67-2.51,6.22-4.08,10.14-4.21v3.11c0,.28,.22,.5,.5,.5s.5-.22,.5-.5v-3.11c3.92,.13,7.47,1.7,10.14,4.21l-2.19,2.19c-.2,.2-.2,.51,0,.71,.1,.1,.23,.15,.35,.15s.26-.05,.35-.15l2.19-2.19c2.51,2.67,4.08,6.22,4.2,10.14h-3.11c-.28,0-.5,.22-.5,.5s.22,.5,.5,.5h3.11c-.13,3.92-1.7,7.47-4.21,10.14Z" stroke-width="0"/><g><path d="M23.6,27.61c.64-.64,1.6-.74,2.35-.31l.77-.77h0l-4.25-1.56c-.8-.29-1.59-.58-2.39-.88h0l2.43,6.65h0l.77-.78c-.43-.75-.33-1.72,.31-2.35Z" fill="none" stroke-width="0"/><path d="M27.47,27.26l-.78,.78c.41,.75,.31,1.7-.32,2.33-.38,.38-.88,.57-1.39,.57-.33,0-.65-.09-.95-.25l-.77,.77h0l6.65,2.44h0l-2.43-6.65Z" fill="none" stroke-width="0"/><path d="M31.21,34.58l-3.07-8.39c-.03-.07-.07-.12-.12-.17,0,0,0-.02-.02-.02,0,0-.02,0-.02-.02-.05-.05-.11-.1-.17-.12l-8.39-3.07c-.18-.07-.39-.02-.53,.12-.14,.14-.18,.34-.12,.53l3.07,8.39c.03,.07,.07,.13,.12,.18,0,0,0,.01,.01,.02,0,0,.02,.01,.03,.02,.05,.05,.1,.09,.17,.12l8.39,3.07c.06,.02,.11,.03,.17,.03,.13,0,.26-.05,.35-.15,.14-.14,.18-.34,.12-.53Zm-8.7-3.84l-2.43-6.65h0c.8,.29,1.59,.59,2.39,.88l4.25,1.56h0l-.77,.78c-.75-.43-1.72-.33-2.35,.31-.64,.64-.74,1.61-.31,2.35l-.77,.77h0Zm.74,.75h0l.77-.78c.29,.16,.62,.25,.95,.25,.5,0,1-.19,1.39-.57,.63-.63,.73-1.59,.32-2.33l.78-.78,2.43,6.64h0l-6.65-2.43Z" stroke-width="0"/></g></g></g></g><g id="uuid-725a8def-fab4-47a4-bb7b-927a99e2b0fc"></g></svg>