<?xml version="1.0" encoding="UTF-8"?><svg width="70" height="70" xmlns="http://www.w3.org/2000/svg" viewBox="-10 -10 70 70"><rect x="-10" y="-10" width="70" height="70" fill="white"/><g id="uuid-d94e8275-2b00-47b6-86c1-780da0571c8a"><path d="M27.65,26.25l-11.34-.02c-3.83,.19-6.86,3.36-6.86,7.22l-.03,15.55,25.05,.05,.03-15.55c0-3.85-3-7.03-6.85-7.25Z" fill="#ffcd00" stroke-width="0"/><path d="M9.24,15.21l1.06-.96-1.41-.26c-.16-.03-.3-.14-.37-.29l-.58-1.31-.68,1.26c-.08,.14-.22,.24-.39,.26l-1.42,.15,.99,1.04c.11,.12,.16,.29,.13,.45l-.3,1.4,1.29-.62c.07-.03,.14-.05,.22-.05,.09,0,.17,.02,.25,.07l1.24,.71-.19-1.42c-.02-.16,.04-.33,.16-.44Z" fill="#ffcd00" stroke-width="0"/><path d="M11.69,7.77l-.3,1.4,1.29-.62c.07-.03,.14-.05,.22-.05,.09,0,.17,.02,.25,.07l1.24,.71-.19-1.42c-.02-.16,.04-.33,.16-.44l1.06-.96-1.41-.26c-.16-.03-.3-.14-.37-.29l-.58-1.31-.68,1.26c-.08,.14-.22,.24-.39,.26l-1.42,.15,.99,1.04c.11,.12,.16,.29,.13,.45Z" fill="#ffcd00" stroke-width="0"/><path d="M46.25,7.1l-.58-1.31-.68,1.26c-.08,.14-.22,.24-.39,.26l-1.42,.15,.99,1.04c.11,.12,.16,.29,.13,.45l-.3,1.4,1.29-.62c.07-.03,.14-.05,.22-.05,.09,0,.17,.02,.25,.07l1.24,.71-.19-1.42c-.02-.16,.04-.33,.16-.44l1.06-.96-1.41-.26c-.16-.03-.3-.14-.37-.29Z" fill="#ffcd00" stroke-width="0"/><path d="M39,10.28c-.7-2.6-1.64-4.97-2.65-6.69-1.16-1.95-2.29-2.84-3.29-2.58-.99,.26-1.54,1.6-1.58,3.87h0c-1.37-.8-2.68-1.5-3.82-1.99-2.3-.99-3.6-1.11-4.1-.38-.5,.73,.08,1.9,1.84,3.69,1.5,1.52,3.66,3.28,6.09,4.94,.31,.21,.62,.41,.93,.61,.04,.14,.06,.28,.1,.42,1.28,4.84,3.58,9.48,5.64,9.48,.12,0,.23-.01,.35-.04,1.4-.37,1.78-2.85,1.5-5.95,.51,.15,.95,.22,1.31,.22,.52,0,.88-.16,1.09-.47,.75-1.1-1.22-3.25-3.39-5.13Zm-5.71,.85c-.37-1.56-.63-3.06-.74-4.42,.44,.28,.88,.57,1.35,.89,1.69,1.16,3.09,2.24,4.21,3.21,.31,1.2,.54,2.32,.69,3.35-1.4-.6-3.27-1.58-5.51-3.03Zm-.82-6.24c.04-1.87,.45-2.82,.84-2.92,.03,0,.06-.01,.09-.01,.42,0,1.19,.64,2.08,2.14,.79,1.33,1.53,3.08,2.14,5.04-1.6-1.28-3.02-2.26-3.16-2.36-.66-.45-1.32-.88-1.97-1.29,0-.2-.02-.41-.02-.6Zm-.43,5.41c-5.4-3.7-7.82-6.65-7.68-7.23,.06-.04,.16-.06,.3-.06,.88,0,3.34,.91,6.85,3.05,.06,1.3,.25,2.74,.57,4.26l-.03-.02Zm6.19,10.33c-.9,.24-3.09-2.79-4.59-8.1,1.67,1.03,3.27,1.9,4.64,2.49,.23,.1,.45,.18,.66,.27,.34,3.15-.05,5.17-.71,5.34Zm1.63-6.06c-.11-.84-.26-1.7-.45-2.57,1.51,1.46,2.21,2.49,2.15,2.84-.2,.12-.79,.04-1.69-.27Z" stroke-width="0"/><path d="M8.91,6.07l-.45,2.13c-.04,.19,.03,.38,.18,.5,.15,.12,.35,.14,.52,.06l1.97-.94,1.89,1.09c.08,.04,.16,.07,.25,.07,.1,0,.19-.03,.28-.08,.16-.11,.24-.29,.22-.48l-.29-2.16,1.62-1.46c.14-.13,.2-.32,.15-.51s-.2-.32-.39-.36l-2.15-.4-.89-1.99c-.08-.17-.25-.29-.44-.3-.2-.01-.37,.09-.46,.26l-1.04,1.92-2.17,.23c-.19,.02-.35,.15-.42,.32-.07,.18-.02,.38,.11,.52l1.5,1.58Zm1.34-1.69c.16-.02,.31-.11,.39-.26l.68-1.26,.58,1.31c.07,.15,.2,.26,.37,.29l1.41,.26-1.06,.96c-.12,.11-.18,.27-.16,.44l.19,1.42-1.24-.71c-.08-.04-.16-.07-.25-.07-.07,0-.15,.02-.22,.05l-1.29,.62,.3-1.4c.03-.16-.01-.33-.13-.45l-.99-1.04,1.42-.15Z" stroke-width="0"/><path d="M8.14,16.76c.1,0,.19-.03,.28-.08,.16-.11,.24-.29,.22-.48l-.29-2.16,1.62-1.46c.14-.13,.2-.32,.15-.51s-.2-.32-.39-.36l-2.14-.4-.89-1.99c-.08-.17-.25-.29-.44-.3-.2-.02-.37,.09-.46,.26l-1.04,1.92-2.17,.23c-.19,.02-.35,.15-.42,.32-.07,.18-.02,.38,.11,.52l1.5,1.58-.45,2.13c-.04,.19,.03,.38,.18,.5,.15,.12,.35,.14,.52,.06l1.97-.94,1.89,1.09c.08,.04,.16,.07,.25,.07Zm-1.87-2.15c-.08-.04-.16-.07-.25-.07-.07,0-.15,.02-.22,.05l-1.29,.62,.3-1.4c.03-.16-.01-.33-.13-.45l-.99-1.04,1.42-.15c.16-.02,.31-.11,.39-.26l.68-1.26,.58,1.31c.07,.15,.2,.26,.37,.29l1.41,.26-1.06,.96c-.12,.11-.18,.27-.16,.44l.19,1.42-1.24-.71Z" stroke-width="0"/><path d="M47.84,5.46c-.05-.18-.2-.32-.39-.36l-2.14-.4-.89-1.99c-.08-.17-.25-.29-.44-.3-.19-.01-.37,.09-.46,.26l-1.04,1.92-2.17,.23c-.19,.02-.35,.15-.42,.32s-.02,.38,.11,.52l1.5,1.58-.45,2.13c-.04,.19,.03,.38,.18,.5,.15,.12,.35,.14,.52,.06l1.97-.94,1.89,1.09c.08,.04,.16,.07,.25,.07,.1,0,.19-.03,.28-.08,.16-.11,.24-.29,.22-.48l-.29-2.16,1.62-1.46c.14-.13,.2-.32,.15-.51Zm-2.63,1.4c-.12,.11-.18,.27-.16,.44l.19,1.42-1.24-.71c-.08-.04-.16-.07-.25-.07-.07,0-.15,.02-.22,.05l-1.29,.62,.3-1.4c.03-.16-.01-.33-.13-.45l-.99-1.04,1.42-.15c.16-.02,.31-.11,.39-.26l.68-1.26,.58,1.31c.07,.15,.2,.26,.37,.29l1.41,.26-1.06,.96Z" stroke-width="0"/><path d="M26.08,23.52c-.06-.03-.12-.04-.19-.04H14.52s0,0-.01,0c-4.39,.22-7.83,3.83-7.84,8.22l-.03,16.05c0,.28,.22,.5,.5,.5l26.05,.05h0c.13,0,.26-.05,.35-.15,.09-.09,.15-.22,.15-.35l.03-16.05c0-4.33-3.34-7.91-7.64-8.23Zm6.61,23.78h-4.95l.03-14.02c0-.28-.22-.5-.5-.5h0c-.28,0-.5,.22-.5,.5l-.03,14.01-13.09-.02,.03-14.01c0-.28-.22-.5-.5-.5h0c-.28,0-.5,.22-.5,.5l-.03,14.01H7.64l.03-15.56c0-3.86,3.03-7.03,6.89-7.22h11.23s.05,.02,.08,.02c3.86,.21,6.87,3.39,6.86,7.25l-.03,15.55Z" stroke-width="0"/><path d="M11.95,14.28c0,4.55,3.7,8.26,8.26,8.26s8.26-3.7,8.26-8.26-3.7-8.26-8.26-8.26-8.26,3.7-8.26,8.26Zm8.26-7.26c4,0,7.26,3.25,7.26,7.26s-3.25,7.26-7.26,7.26-7.26-3.26-7.26-7.26,3.26-7.26,7.26-7.26Z" stroke-width="0"/></g><g id="uuid-f98e1853-fce3-45e8-a8d6-a6bb28634b53"></g></svg>