<?xml version="1.0" encoding="UTF-8"?><svg width="70" height="70" xmlns="http://www.w3.org/2000/svg" viewBox="-10 -10 70 70"><rect x="-10" y="-10" width="70" height="70" fill="white"/><g id="uuid-0b51a566-4572-4bed-8cac-cf8326657f62"><path d="M43.62,15.45h-.5v-3.92h-4.66l-.6-8.81h-1.35l-.59,8.81h-4.66v3.92h-1.71v33.27h15.28V15.45h-1.21ZM40.91,41.09h-8.5v-18.99h8.5v18.99Z" fill="#ffcd00" stroke-width="0"/><path d="M20.95,35.74c0,4.7-2.52,8.53-5.61,8.53s-5.61-3.83-5.61-8.53,2.51-8.52,5.61-8.52,5.61,3.82,5.61,8.52Z" fill="#ffcd00" stroke-width="0"/><rect x="11.41" y="9.48" width="7.85" height="4.25" fill="#ffcd00"/><path d="M20.19,3.22v1.43h-9.7v-1.43c0-.28.22-.5.5-.5h8.7c.27,0,.5.22.5.5Z" fill="#ffcd00" stroke-width="0"/></g><g id="uuid-cbd92cb1-a0ee-414d-848d-135608542e0d"><path d="M31.41,23.57c0-1.35,1.1-2.46,2.46-2.46h5.58c1.35,0,2.46,1.11,2.46,2.46v15.59c0,1.36-1.11,2.46-2.46,2.46h-5.58c-1.36,0-2.46-1.1-2.46-2.46v-15.59ZM39.45,22.11h-5.58c-.81,0-1.46.66-1.46,1.46v15.59c0,.81.65,1.46,1.46,1.46h5.58c.8,0,1.46-.65,1.46-1.46v-15.59c0-.8-.66-1.46-1.46-1.46Z" stroke-width="0"/><path d="M37.86,9.81l-.53-7.81h-1.35l-.52,7.81h2.4ZM43.09,14.73h-14.07v33.27h15.28V14.73h-1.21ZM30.23,9.81h4.23l.56-8.34c.02-.27.23-.47.5-.47h2.28c.26,0,.48.2.5.47l.56,8.34h4.23c.27,0,.5.23.5.5v3.42h1.21c.28,0,.5.23.5.5v34.27c0,.28-.22.5-.5.5h-16.28c-.28,0-.5-.22-.5-.5V14.23c0-.27.22-.5.5-.5h1.21v-3.42c0-.27.22-.5.5-.5ZM34.92,10.81h-4.19v2.92h11.86v-2.92h-7.67Z" stroke-width="0"/><path d="M9.01,35.02c0,4.7,2.51,8.53,5.61,8.53s5.61-3.83,5.61-8.53-2.52-8.52-5.61-8.52-5.61,3.82-5.61,8.52ZM14.62,44.55c-3.65,0-6.61-4.28-6.61-9.53s2.96-9.52,6.61-9.52,6.61,4.27,6.61,9.52-2.97,9.53-6.61,9.53Z" stroke-width="0"/><path d="M18.54,7.76v-2.83h-7.85v2.83h7.85ZM18.54,13.01v-4.25h-7.85v4.25h7.85ZM9.69,13.77V4.93h-.42c-.28,0-.5-.23-.5-.5v-1.93c0-.83.67-1.5,1.5-1.5h8.7c.82,0,1.5.67,1.5,1.5v1.93c0,.27-.23.5-.5.5h-.43v8.84c0,2.82.98,5.58,2.74,7.78,1.46,1.82,2.26,4.11,2.26,6.44v17.57c0,1.9-1.54,3.44-3.44,3.44h-12.96c-1.9,0-3.44-1.54-3.44-3.44v-17.57c0-2.33.8-4.62,2.26-6.44,1.76-2.2,2.73-4.96,2.73-7.78ZM10.27,2c-.28,0-.5.22-.5.5v1.43h9.7v-1.43c0-.28-.23-.5-.5-.5h-8.7ZM10.68,14.01c-.05,2.96-1.09,5.85-2.94,8.17-1.32,1.64-2.04,3.7-2.04,5.81v17.57c0,1.35,1.09,2.44,2.44,2.44h12.96c1.34,0,2.44-1.09,2.44-2.44v-17.57c0-2.11-.73-4.17-2.04-5.81-1.86-2.32-2.89-5.21-2.95-8.17h-7.87Z" stroke-width="0"/></g></svg>