<?xml version="1.0" encoding="UTF-8"?><svg width="70" height="70" id="uuid-64cda2fd-715b-49d3-b5fb-b49ec1d26aa3" xmlns="http://www.w3.org/2000/svg" viewBox="-10 -10 70 70"><rect x="-10" y="-10" width="70" height="70" fill="white"/><rect x="19.39" y="18.91" width="2.82" height="9.52" rx="1" ry="1" transform="translate(26.45 -7.33) rotate(51.65)" fill="#ffcd00"/><polygon points="11.58 49.53 21.98 48.16 21.25 43.68 10.85 45.05 11.58 49.53" fill="#ffcd00"/><path d="M46.43,1.95c-.17-.22-.49-.25-.7-.08L23.94,19.11c-.52-.59-1.42-.68-2.04-.18l-1.18,.93c.04-.72-.22-1.21-.24-1.24-.11-.19-.33-.3-.54-.25l-7.96,1.59,1.78-3.1c.67-1.97-1.42-3.29-1.51-3.35-.23-.14-.53-.08-.68,.15l-2.08,3.09,.1-.79c-.07-1.94-2.33-2.39-2.42-2.41-.28-.05-.52,.12-.58,.38l-1.59,6.9c-.02,.07-.02,.14,0,.2l.44,2.42-.55-.42-1.03-2.98c-.79-1.35-2.82-.79-2.9-.77-.26,.07-.41,.34-.35,.6l1.24,5.03c.03,.11,.09,.21,.18,.27l4.33,3.39s.01,0,.02,0l2.17,12.44h0l.82,4.81h0l.46,2.88c.04,.25,.25,.42,.49,.42,.02,0,.04,0,.07,0l10.41-1.37c.13-.02,.25-.09,.34-.2,.08-.11,.11-.25,.09-.38l-.7-4.37c-.04-.27-.3-.46-.56-.42l-1.13,.15-.49-2.85c-.05-.26-.3-.44-.56-.41l-1.52,.2-.37-2.07,1.85-1.24c1.03-.69,1.77-1.74,2.09-2.94l.69-2.62,3.14-5.29c.11-.19,.09-.43-.06-.59-.03-.04-.69-.73-1.63-.97l2.3-1.82c.62-.49,.74-1.39,.29-2.03L46.35,2.65c.22-.17,.25-.49,.08-.7ZM12.11,14.65c.42,.36,1,1.03,.75,1.79l-2.65,4.61-2.78,3.77,.73-4.29,3.95-5.88ZM2.78,24.51l-1.07-4.35c.44-.05,1.04-.05,1.25,.31l1.04,3.03c.03,.09,.09,.18,.17,.24l1.55,1.18,.4,2.2-3.33-2.61Zm3.77-.53l-.55-3.02,1.45-6.29c.47,.18,1.12,.55,1.15,1.24l-.37,2.71-.97,1.45c-.04,.06-.07,.12-.08,.19l-.63,3.71Zm13.06,19.46l.54,3.39-9.41,1.24-.39-2.41h0l-.16-.98,9.41-1.24Zm-3.69-2.91h0l1.52-.2,.4,2.34-7.82,1.03-.4-2.32,6.3-.84Zm6.67-15.38l-2.96,4.99s-.04,.08-.05,.13l-.71,2.69c-.25,.97-.85,1.81-1.68,2.37l-2.12,1.42c-.16,.11-.25,.31-.21,.5l.42,2.35-5.83,.78-2.21-12.67c-.08-.48,.04-.99,.33-1.38l3.44-4.68c.27-.36,.66-.61,1.1-.7l7.59-1.51c.04,.21,.04,.51-.08,.85-.14,.38-.41,.74-.81,1.08l-.18,.15c-.41,.32-.91,.62-1.52,.88l-3.49,1.27c-.17,.06-.3,.22-.33,.4-.17,1.29-1.8,2.9-2.42,3.41-.2,.17-.24,.46-.09,.67l1.35,1.95c.14,.2,.41,.27,.63,.17,1.24-.6,3.04,.02,3.06,.02,.2,.07,.42,0,.56-.16l3.21-4.08c.49-.84,1.03-1.29,1.61-1.36,.56-.06,1.08,.24,1.38,.48Zm-6.84,.55l.51,.64h0c.29,.37,.73,.57,1.18,.57,.07,0,.15-.03,.22-.04l-1.86,2.36c-.61-.16-1.92-.42-3.08-.04l-.87-1.26c.65-.6,2.02-2.01,2.37-3.43l1.43-.52c-.32,.52-.31,1.21,.09,1.72Zm7.89-4.56l-5.9,4.67c-.22,.17-.53,.14-.7-.08l-.51-.64c-.17-.22-.13-.53,.08-.7l2.41-1.91c.19-.13,.36-.27,.51-.41l2.97-2.35c.21-.17,.53-.13,.7,.08l.51,.64c.17,.22,.13,.53-.08,.7Z" stroke-width="0"/><path d="M15.9,41.88c.15,.28,.5,.39,.78,.24,.28-.15,.39-.5,.24-.78-.15-.28-.5-.39-.78-.24-.28,.15-.39,.5-.24,.78Z" fill="#221f1f" stroke-width="0"/></svg>