<?xml version="1.0" encoding="UTF-8"?><svg width="70" height="70" xmlns="http://www.w3.org/2000/svg" viewBox="-10 -10 70 70"><rect x="-10" y="-10" width="70" height="70" fill="white"/><g id="uuid-5f65dcc3-d1e8-437f-8478-9908e5e48a97"><g><path d="M47.7,34.37h-.45c.02-1.69-.15-3.8-.82-6.12-1.65-5.69-5.29-9.16-6.98-10.57-.11-.09-.23-.18-.36-.27-.15-.11-.31-.22-.45-.32-1.25-.91-2.98-1.97-5.21-2.78-1.15-.42-2.22-.69-3.18-.87v-2.28h-7.75v2.28c-.97,.19-2.06,.47-3.24,.89-2.19,.8-3.9,1.85-5.15,2.76-.27,.2-.54,.4-.81,.59,.25,.09,.5,.17,.75,.26-.21,.06-.49,0-.75-.26-1.71,1.44-5.34,4.91-6.98,10.59-.67,2.33-.83,4.43-.81,6.11h-1.76v4.16c7.31,2.06,14.94,3.11,22.72,3.1,7.71,0,15.28-1.05,22.52-3.1v-4.16h-1.3Z" fill="#ffcd00" stroke-width="0"/><path d="M47.75,31.62h-1.31c-.15-6.79-3.42-12.82-8.42-16.72h0s-.03-.02-.04-.03c-2.46-1.91-5.34-3.3-8.47-4.02v-1.96c0-.28-.22-.5-.5-.5h-8.75c-.28,0-.5,.22-.5,.5v1.96c-3.13,.72-6.01,2.11-8.47,4.02-.01,.01-.03,.02-.04,.03h0C6.23,18.81,2.97,24.84,2.81,31.62H1.5c-.28,0-.5,.22-.5,.5v5.03c0,.22,.15,.42,.36,.48,7.48,2.15,15.3,3.24,23.26,3.24h.1c7.93,0,15.72-1.1,23.16-3.24,.21-.06,.36-.26,.36-.48v-5.03c0-.28-.22-.5-.5-.5ZM2,36.78v-4.16H47.25v4.16c-7.24,2.05-14.82,3.09-22.52,3.1-7.78,.01-15.42-1.03-22.72-3.1ZM28.5,9.4V31.62h-7.75V9.4h7.75Zm8.39,5.93c-.64,.67-1.24,1.38-1.74,2.15-2.06,3.14-2.51,6.44-2.53,8.65,0,.28,.22,.5,.5,.5h0c.27,0,.5-.22,.5-.5,.02-2.08,.45-5.18,2.37-8.12,.49-.75,1.08-1.45,1.72-2.11,4.6,3.72,7.59,9.36,7.74,15.7h-15.94V11.9c2.71,.65,5.21,1.83,7.39,3.43Zm-25.34,.59c.64,.65,1.22,1.35,1.72,2.11,1.92,2.94,2.35,6.04,2.37,8.12,0,.27,.23,.5,.5,.5h0c.28,0,.5-.23,.5-.5-.02-2.21-.48-5.51-2.53-8.65-.5-.77-1.1-1.48-1.74-2.15,2.18-1.6,4.68-2.78,7.39-3.43V31.62H3.81c.15-6.33,3.14-11.97,7.74-15.7Z" stroke-width="0"/></g></g><g id="uuid-ade81341-4e0d-4913-9ef3-31f22d47d504"></g></svg>