<?xml version="1.0" encoding="UTF-8"?><svg width="70" height="70" xmlns="http://www.w3.org/2000/svg" viewBox="-10 -10 70 70"><rect x="-10" y="-10" width="70" height="70" fill="white"/><g id="uuid-a0a83ac8-8323-4851-aae8-9727c1e2d19c"><g><path d="M32.98,13.55h4.5l1.14,6.12c.81,1.42,1.44,2.96,1.87,4.59l-2.1-11.3c-.04-.24-.25-.41-.49-.41h-6.53c.56,.31,1.09,.64,1.61,1Z" stroke-width="0"/><path d="M42.2,30.71c-.21-.06-.35-.25-.36-.46-.32-9.69-8.16-17.29-17.86-17.29S6.11,20.98,6.11,30.84c0,.28-.22,.5-.5,.5h-1.93v2.09h1.28l-.1-.75H21.41l-1.99,.75h20.37l9.28,1.53v-2.22l-6.87-2.03Zm-16.78,.97h-6.37v-4.45h6.37v4.45Z" fill="#ffcd00" stroke-width="0"/><path d="M18.53,32.68h2.88l-15.74,5.92-.82-5.92h-1.01l.93,6.68c.02,.15,.11,.28,.24,.36,.08,.05,.17,.07,.26,.07,.06,0,.12-.01,.18-.03l18.81-7.08h1.67s.01,0,.02,0h-7.41Z" stroke-width="0"/><path d="M25.92,26.23h-7.37c-.28,0-.5,.22-.5,.5v4.95h1v-4.45h6.37v4.45h1v-4.95c0-.28-.22-.5-.5-.5Z" stroke-width="0"/><path d="M34.66,22.52c.09,.15,.26,.23,.42,.23,.09,0,.18-.02,.27-.08,.23-.15,.3-.46,.16-.69-2.89-4.58-7.85-7.32-13.26-7.32s-10.07,2.58-13,6.91c-.15,.23-.09,.54,.13,.69,.23,.15,.54,.09,.69-.13,2.74-4.05,7.29-6.47,12.17-6.47s9.71,2.56,12.42,6.85Z" stroke-width="0"/><path d="M47.96,30.14l-6.88-2.03c-.07-1.33-.28-2.61-.6-3.84-.42-1.63-1.06-3.17-1.87-4.59-1.4-2.44-3.33-4.53-5.63-6.12-.52-.36-1.06-.69-1.61-1-2.7-1.49-5.81-2.34-9.13-2.34C11.99,10.21,3.63,18.41,3.36,28.59H1.43c-.28,0-.5,.22-.5,.5v3.09c0,.28,.22,.5,.5,.5H37.96l9.78,1.61s.05,0,.08,0c.12,0,.23-.04,.32-.12,.11-.1,.18-.23,.18-.38v-3.18c0-.22-.15-.42-.36-.48Zm-.64,3.07l-9.28-1.53H1.93v-2.09h1.93c.28,0,.5-.22,.5-.5,0-9.86,8.02-17.88,17.88-17.88s17.55,7.59,17.86,17.29c0,.22,.15,.4,.36,.46l6.87,2.03v2.22Z" stroke-width="0"/></g></g><g id="uuid-03d8a217-b452-4175-8fa2-4f41da1af131"></g></svg>