<?xml version="1.0" encoding="UTF-8"?><svg width="70" height="70" id="uuid-f271c626-0725-4b43-818c-74fbb662432b" xmlns="http://www.w3.org/2000/svg" viewBox="-10 -10 70 70"><rect x="-10" y="-10" width="70" height="70" fill="white"/><path d="M6.48,44.25c0,2.42,1.97,4.38,4.38,4.38s4.38-1.97,4.38-4.38-1.96-4.38-4.38-4.38-4.38,1.97-4.38,4.38Z" fill="#ffcd00" stroke-width="0"/><path d="M26.52,11.91c.07,0,.14,.01,.2,.04l4.97,2.17-5.16-9.49-4.97,9.47,4.76-2.15c.07-.03,.14-.04,.21-.04Z" fill="#ffcd00" stroke-width="0"/><circle cx="26.53" cy="44.3" r="4.38" fill="#ffcd00"/><circle cx="41.89" cy="44.28" r="4.38" fill="#ffcd00"/><path d="M40.64,37.2c.04-6.49-.07-6.56-.41-6.73-4.39-2.22-14.62-7.41-14.97-8.63V11.42l5.62,2.45c.06,.03,.13,.04,.2,.04,.14,0,.27-.06,.37-.16,.14-.16,.17-.39,.07-.58L25.21,1.58c-.09-.16-.26-.26-.44-.26h0c-.18,0-.35,.1-.44,.27l-6.08,11.59c-.1,.19-.07,.42,.08,.58s.38,.2,.57,.11l5.37-2.43v10.27s-.02,.07-.02,.1c-.23,1.18-10.32,6.22-15.17,8.65-.34,.17-.45,.24-.41,6.71-2.75,.24-4.93,2.52-4.93,5.33,0,2.97,2.41,5.38,5.38,5.38s5.38-2.41,5.38-5.38c0-2.78-2.13-5.05-4.84-5.33-.01-2.16,0-5.13,.08-5.94,9.05-4.53,12.95-6.71,14.53-8.01v13.99c-2.72,.27-4.86,2.54-4.86,5.33,0,2.97,2.41,5.38,5.38,5.38s5.38-2.41,5.38-5.38c0-2.8-2.16-5.09-4.9-5.33v-13.94c1.59,1.31,5.45,3.49,14.3,7.98,.07,.8,.09,3.78,.07,5.94-2.73,.25-4.89,2.53-4.89,5.33,0,2.97,2.41,5.38,5.38,5.38s5.38-2.41,5.38-5.38c0-2.79-2.15-5.07-4.88-5.33Zm-27.15,5.3c0,2.42-1.96,4.38-4.38,4.38s-4.38-1.97-4.38-4.38,1.97-4.38,4.38-4.38,4.38,1.97,4.38,4.38ZM24.78,2.88l5.16,9.49-4.97-2.17c-.06-.03-.13-.04-.2-.04s-.14,.01-.21,.04l-4.76,2.15L24.78,2.88Zm4.38,39.67c0,2.42-1.96,4.38-4.38,4.38s-4.38-1.97-4.38-4.38,1.97-4.38,4.38-4.38,4.38,1.97,4.38,4.38Zm10.97,4.37c-2.42,0-4.38-1.97-4.38-4.38s1.97-4.38,4.38-4.38,4.38,1.97,4.38,4.38-1.96,4.38-4.38,4.38Z" stroke-width="0"/></svg>