<?xml version="1.0" encoding="UTF-8"?><svg width="70" height="70" id="uuid-6da6ca6b-23f0-4085-8236-cbaa30111175" xmlns="http://www.w3.org/2000/svg" viewBox="-10 -10 70 70"><rect x="-10" y="-10" width="70" height="70" fill="white"/><path d="M47.8,22.6c-1.06-.35-1.81-1.47-1.88-2.76-1.05,.08-2.08-.4-2.62-1.27-.6-.96-.52-2.24,.16-3.17-.96-.41-1.67-1.17-1.87-2.03-.34-1.45,.64-3.01,2.22-3.67-2.3-1.5-5.89-3.17-10.48-3.19-.04,0-.08,0-.12,0-6.57,0-10.61,2.75-12.85,5.06-.53,.54-1.87,2.04-2.97,4.16-.07,.14-.2,.23-.36,.26-3.65,.66-6.73,2.25-9.14,4.75-1.28,1.32-5.39,6.13-4.58,12.43,.65,5.03,3.95,8.14,5.54,9.64,1.3,1.23,4.76,4.49,10.33,5.07,2.2,.23,7.82,.31,12.44-3.83,1.59-1.42,2.83-3.17,3.7-5.19,.07-.16,.21-.27,.38-.3,2.57-.39,6.27-1.53,9.28-4.76,3.8-4.08,4.25-8.97,4.23-11.17-.39,.1-.9,.15-1.43-.02ZM9.25,33.84c-.95,0-1.73-.78-1.73-1.73s.78-1.73,1.73-1.73,1.73,.78,1.73,1.73-.78,1.73-1.73,1.73Zm4.97-9.71c-.62,0-1.13-.51-1.13-1.13s.51-1.13,1.13-1.13,1.13,.51,1.13,1.13-.51,1.13-1.13,1.13Zm4.36,14.87c-.76,0-1.38-.62-1.38-1.38s.62-1.38,1.38-1.38,1.38,.62,1.38,1.38-.62,1.38-1.38,1.38Zm4.54-17.8c-.65,0-1.18-.53-1.18-1.18s.53-1.18,1.18-1.18,1.18,.53,1.18,1.18-.53,1.18-1.18,1.18Zm3.07,10.25c-.76,0-1.38-.62-1.38-1.38s.62-1.38,1.38-1.38,1.38,.62,1.38,1.38-.62,1.38-1.38,1.38Zm.67-21.01c-.53,0-.95-.43-.95-.95s.43-.95,.95-.95,.95,.43,.95,.95-.43,.95-.95,.95Zm8.69,3.51c-.52,0-.95-.43-.95-.95s.43-.95,.95-.95,.95,.43,.95,.95-.43,.95-.95,.95Zm4.33,10.44c-.76,0-1.38-.62-1.38-1.38s.62-1.38,1.38-1.38,1.38,.62,1.38,1.38-.62,1.38-1.38,1.38Z" fill="#ffcd00" stroke-width="0"/><path d="M48.47,20.54c0-.25-.13-.47-.34-.61-.21-.14-.48-.17-.72-.08h0c-.26,.1-.66,.19-1.06,.06-.71-.23-1.2-1.06-1.19-2.02,0-.25-.11-.49-.29-.64-.17-.15-.4-.21-.62-.17-.74,.13-1.49-.19-1.86-.78-.42-.67-.31-1.6,.26-2.21,.18-.19,.25-.46,.18-.71-.06-.26-.25-.46-.5-.54-.79-.27-1.38-.81-1.52-1.43-.22-.93,.52-2.21,1.96-2.63,.29-.09,.51-.33,.56-.63,.05-.29-.08-.58-.32-.75-2.39-1.64-6.32-3.6-11.42-3.62-.04,0-.09,0-.13,0-6.92,0-11.19,2.91-13.56,5.37-.63,.66-1.92,2.13-3.03,4.19-3.69,.71-6.95,2.41-9.44,4.98-1.36,1.41-5.72,6.51-4.85,13.25,.69,5.38,4.17,8.66,5.84,10.24,1.37,1.29,5.01,4.72,10.91,5.33,.47,.05,1.1,.09,1.83,.09,2.88,0,7.46-.66,11.38-4.17,1.83-1.64,3.04-3.48,3.85-5.3,2.88-.48,6.54-1.77,9.57-5.01,4.24-4.55,4.56-10.03,4.5-12.18Zm-18.59,21.75c-4.75,4.26-10.72,4.01-12.44,3.83-5.57-.58-9.03-3.84-10.33-5.07-1.59-1.5-4.89-4.61-5.54-9.64-.81-6.29,3.3-11.1,4.58-12.43,3.16-3.27,7.66-5.06,12.69-5.06,.09,0,.19,0,.28,0,1.64,.02,10.02,.45,13.95,6.75,1.93,3.1,1.96,6.17,1.97,8.2h0c.02,2.16,.07,8.72-5.16,13.41Zm4.97-5.65c1.22-3.32,1.2-6.39,1.19-7.76h0c-.02-2.02-.04-5.38-2.12-8.72-4.2-6.74-13.05-7.2-14.78-7.22-1.03-.01-2.03,.07-3.01,.19,.95-1.6,1.97-2.76,2.5-3.31,2.24-2.31,6.28-5.06,12.85-5.06,.04,0,.08,0,.12,0,4.59,.02,8.18,1.69,10.48,3.19-1.58,.66-2.56,2.22-2.22,3.67,.2,.86,.9,1.62,1.87,2.03-.69,.93-.77,2.22-.16,3.17,.54,.87,1.58,1.36,2.62,1.27,.06,1.29,.81,2.41,1.88,2.76,.53,.17,1.04,.13,1.43,.02,.02,2.2-.43,7.09-4.23,11.17-2.64,2.83-5.79,4.07-8.4,4.6Z" stroke-width="0"/><path d="M14.21,25.13c1.18,0,2.13-.96,2.13-2.13s-.96-2.13-2.13-2.13-2.13,.96-2.13,2.13,.96,2.13,2.13,2.13Zm0-3.26c.62,0,1.13,.51,1.13,1.13s-.51,1.13-1.13,1.13-1.13-.51-1.13-1.13,.51-1.13,1.13-1.13Z" stroke-width="0"/><path d="M18.58,35.23c-1.31,0-2.38,1.07-2.38,2.38s1.07,2.38,2.38,2.38,2.38-1.07,2.38-2.38-1.07-2.38-2.38-2.38Zm0,3.77c-.76,0-1.38-.62-1.38-1.38s.62-1.38,1.38-1.38,1.38,.62,1.38,1.38-.62,1.38-1.38,1.38Z" stroke-width="0"/><path d="M23.81,30.07c0,1.31,1.07,2.38,2.38,2.38s2.38-1.07,2.38-2.38-1.07-2.38-2.38-2.38-2.38,1.07-2.38,2.38Zm2.38-1.38c.76,0,1.38,.62,1.38,1.38s-.62,1.38-1.38,1.38-1.38-.62-1.38-1.38,.62-1.38,1.38-1.38Z" stroke-width="0"/><path d="M23.12,22.19c1.2,0,2.18-.98,2.18-2.18s-.98-2.18-2.18-2.18-2.18,.98-2.18,2.18,.98,2.18,2.18,2.18Zm0-3.37c.65,0,1.18,.53,1.18,1.18s-.53,1.18-1.18,1.18-1.18-.53-1.18-1.18,.53-1.18,1.18-1.18Z" stroke-width="0"/><path d="M9.25,29.37c-1.51,0-2.73,1.23-2.73,2.73s1.23,2.73,2.73,2.73,2.73-1.23,2.73-2.73-1.23-2.73-2.73-2.73Zm0,4.46c-.95,0-1.73-.78-1.73-1.73s.78-1.73,1.73-1.73,1.73,.78,1.73,1.73-.78,1.73-1.73,1.73Z" stroke-width="0"/><path d="M26.85,7.68c-.99,0-1.79,.81-1.79,1.79s.81,1.79,1.79,1.79,1.79-.8,1.79-1.79-.8-1.79-1.79-1.79Zm0,2.75c-.53,0-.95-.43-.95-.95s.43-.95,.95-.95,.95,.43,.95,.95-.43,.95-.95,.95Z" stroke-width="0"/><path d="M39.87,20.62c-1.31,0-2.38,1.07-2.38,2.38s1.07,2.38,2.38,2.38,2.38-1.07,2.38-2.38-1.07-2.38-2.38-2.38Zm0,3.75c-.76,0-1.38-.62-1.38-1.38s.62-1.38,1.38-1.38,1.38,.62,1.38,1.38-.62,1.38-1.38,1.38Z" stroke-width="0"/><path d="M35.54,11.19c-.99,0-1.79,.8-1.79,1.79s.8,1.79,1.79,1.79,1.79-.81,1.79-1.79-.8-1.79-1.79-1.79Zm0,2.75c-.52,0-.95-.43-.95-.95s.43-.95,.95-.95,.95,.43,.95,.95-.43,.95-.95,.95Z" stroke-width="0"/></svg>