<?xml version="1.0" encoding="UTF-8"?><svg width="70" height="70" xmlns="http://www.w3.org/2000/svg" viewBox="-10 -10 70 70"><rect x="-10" y="-10" width="70" height="70" fill="white"/><g id="uuid-7223189a-9951-4e89-bf77-06679ec1cb0a"><g><path d="M6.09,7.46h5.02V1.42c-1.9,.41-3.66,2.63-5.02,6.04Z" fill="none" stroke-width="0"/><path d="M12.11,1.37V7.46h5.27c-1.42-3.56-3.27-5.83-5.27-6.09Z" fill="none" stroke-width="0"/><path d="M25.9,31.24h.45v-4.88h-3.55c.98,1.29,2.02,2.88,3.1,4.88Z" fill="none" stroke-width="0"/><path d="M18.59,22.09c1.02,.77,2.16,1.78,3.41,3.27h4.35v-4.87h-7.67c-.04,.53-.07,1.06-.09,1.6Z" fill="none" stroke-width="0"/><path d="M18.77,19.49h7.58v-4.88h-6.92c-.28,1.54-.51,3.17-.66,4.88Z" fill="none" stroke-width="0"/><path d="M29.7,39.69c.94,2.58,1.68,5.39,2.12,7.21,.01-.01,.03-.02,.04-.03,1.34-1.27,1.73-2.89,1.84-3.75,.5-4.92,1.28-9.84,2.32-14.59l.18-.86c.67-3.18,1.8-8.49,4.6-14.24,.69-1.41,1.44-2.79,2.24-4.12,.04-.06,.07-.11,.1-.16-.14,.06-.31,.14-.51,.26-4.33,3.47-7.9,7.72-10.59,12.63-2.12,3.87-3.64,8.05-4.52,12.44,.43,.91,.84,1.85,1.23,2.8,0,0,.49,1.2,.93,2.42Z" fill="none" stroke-width="0"/><path d="M27.84,37.65c-.44-1.06-.9-2.11-1.39-3.13-3.58-7.55-6.69-10.39-9-12.02-2.25-1.59-4.58-2.45-4.6-2.46-.9-.36-1.83-.62-2.78-.79-.29-.05-.58-.09-.87-.12,1.34,.63,2.53,1.45,3.56,2.44,.32,.31,.63,.64,.91,.98,.04,.05,1.07,1.3,1.81,2.88,3.64,7.78,5.28,17.04,5.29,17.14,.15,.96,.55,2.35,1.63,3.59,1.18,1.34,2.83,2.11,4.79,2.21,.67,.03,2.25,.1,3.76-.81-.42-1.75-1.19-4.76-2.19-7.51-.44-1.2-.92-2.38-.92-2.38Z" fill="none" stroke-width="0"/><path d="M27.35,25.36h1.99c.56-1.3,1.15-2.57,1.83-3.81,.2-.36,.41-.71,.62-1.06h-4.44v4.87Z" fill="none" stroke-width="0"/><path d="M27.35,14.61v4.88h5.03c.74-1.19,1.54-2.35,2.38-3.45-.07-.48-.16-.96-.24-1.42h-7.17Z" fill="none" stroke-width="0"/><path d="M27.35,31.01c.44-1.58,.96-3.13,1.57-4.65h-1.57v4.65Z" fill="none" stroke-width="0"/><path d="M36.02,16.08c-1.41-7.59-4.29-12.92-7.54-12.92-4.24,0-7.87,9.12-8.38,20.47,2.09,1.57,4.71,4.18,7.67,9.81,.9-4,2.34-7.83,4.29-11.39,1.16-2.11,2.49-4.1,3.96-5.96Z" fill="#ffcd00" stroke-width="0"/><path d="M44.16,8.32c-.35-.45-1.1-.36-2.07,.25-.02,0-.03,.02-.05,.03-2.37,1.89-4.51,4.02-6.41,6.35C34.18,6.44,30.89,.63,26.98,.63c-.03,0-.06,0-.1,0-.01,0-.02,0-.03,0-.02,0-.04,0-.06,.01-4.75,.22-8.55,9.02-9.17,20.77-2.21-1.48-4.33-2.27-4.41-2.3-.95-.38-1.95-.66-2.97-.84-1.35-.24-2.72-.29-4.09-.16-.24,.02-.43,.22-.45,.46-.02,.24,.14,.46,.38,.52,2.38,.58,4.39,1.66,5.99,3.2,.29,.28,.57,.58,.83,.9,0,.01,.99,1.2,1.68,2.66,3.58,7.66,5.2,16.79,5.21,16.88,.17,1.08,.62,2.67,1.87,4.08,1.36,1.55,3.26,2.43,5.49,2.55,.15,0,.37,.02,.62,.02,.96,0,2.53-.16,4.01-1.17,.02-.01,.04-.02,.06-.04,.24-.17,.49-.36,.72-.58,1.56-1.48,2.02-3.36,2.15-4.36,.5-4.9,1.28-9.78,2.3-14.5l.19-.87c.66-3.13,1.77-8.37,4.52-14.01,.67-1.38,1.41-2.74,2.19-4.03,.43-.66,.52-1.17,.26-1.51ZM27.35,1.65c2,.25,3.85,2.53,5.27,6.09h-5.27V1.65Zm0,7.09h5.64c.52,1.46,.97,3.1,1.34,4.87h-6.98v-4.87Zm0,5.87h7.17c.09,.47,.17,.94,.24,1.42-.85,1.11-1.64,2.26-2.38,3.45h-5.03v-4.88Zm0,5.88h4.44c-.21,.35-.42,.7-.62,1.06-.68,1.24-1.27,2.51-1.83,3.81h-1.99v-4.87Zm0,5.87h1.57c-.61,1.52-1.13,3.07-1.57,4.65v-4.65ZM26.35,1.7V7.74h-5.02c1.36-3.41,3.11-5.63,5.02-6.04Zm-5.39,7.04h5.39v4.87h-6.73c.37-1.78,.82-3.42,1.34-4.87Zm-1.53,5.87h6.92v4.88h-7.58c.15-1.7,.38-3.33,.66-4.88Zm-.74,5.88h7.67v4.87h-4.35c-1.25-1.49-2.4-2.5-3.41-3.27,.02-.54,.06-1.07,.09-1.6Zm7.67,5.87v4.88h-.45c-1.08-1.99-2.12-3.59-3.1-4.88h3.55Zm.84,22c-1.96-.1-3.61-.87-4.79-2.21-1.08-1.24-1.48-2.63-1.63-3.59-.02-.09-1.65-9.36-5.29-17.14-.74-1.58-1.77-2.83-1.81-2.88-.28-.34-.59-.67-.91-.98-1.03-1-2.22-1.81-3.56-2.44,.29,.03,.58,.07,.87,.12,.95,.17,1.88,.43,2.78,.79,.02,0,2.36,.87,4.6,2.46,2.31,1.63,5.41,4.48,9,12.02,.48,1.02,.95,2.07,1.39,3.13,0,0,.48,1.18,.92,2.38,1,2.75,1.77,5.76,2.19,7.51-1.51,.91-3.09,.85-3.76,.81ZM43.06,9.3c-.8,1.33-1.56,2.71-2.24,4.12-2.8,5.75-3.93,11.06-4.6,14.24l-.18,.86c-1.04,4.75-1.82,9.67-2.32,14.59-.11,.86-.5,2.48-1.84,3.75-.01,.01-.03,.02-.04,.03-.44-1.81-1.19-4.62-2.12-7.21-.44-1.22-.93-2.42-.93-2.42-.39-.95-.81-1.88-1.23-2.8,.88-4.39,2.4-8.57,4.52-12.44,2.7-4.91,6.26-9.16,10.59-12.63,.2-.12,.37-.21,.51-.26-.03,.05-.06,.1-.1,.16Z" stroke-width="0"/></g></g><g id="uuid-7216ff2c-049c-480c-b740-d234e6ac84d5"></g></svg>