<?xml version="1.0" encoding="UTF-8"?><svg width="70" height="70" xmlns="http://www.w3.org/2000/svg" viewBox="-10 -10 70 70"><rect x="-10" y="-10" width="70" height="70" fill="white"/><g id="uuid-ae386f75-e6a6-4503-872b-ad74e7b7360c"><path d="M28.3,42.56c-.14,.14-.36,.19-.54,.11-.19-.08-.31-.26-.31-.46V24.11h-3.12v18.1c0,.2-.12,.38-.31,.46-.19,.08-.4,.03-.54-.11l-8.09-8.09-2.2,2.11,11.83,11.92c.23,.23,.54,.35,.86,.35,.34,0,.65-.12,.88-.35h0l11.83-11.83-2.11-2.2-8.18,8.09Z" fill="#ffcd00" stroke-width="0"/><path d="M38.04,34.63l-2.11-2.11c-.41-.42-1.09-.42-1.5,0l-7.23,7.23V22.36c0-.28-.22-.5-.5-.5h-4.12c-.28,0-.5,.22-.5,.5v17.39l-7.23-7.23c-.4-.4-1.1-.4-1.5,0l-2.11,2.11c-.2,.2-.31,.47-.31,.75s.11,.55,.31,.75l11.83,11.83c.41,.41,.96,.64,1.53,.64,.02,0,.05,0,.07,0,.59,0,1.13-.23,1.55-.64l11.83-11.83c.2-.2,.31-.47,.31-.75s-.11-.55-.31-.75Zm-12.54,12.63h0c-.23,.23-.53,.35-.88,.35-.32,0-.63-.12-.86-.35l-11.83-11.92,2.2-2.11,8.09,8.09c.14,.14,.36,.19,.54,.11,.19-.08,.31-.26,.31-.46V22.86h3.12v18.1c0,.2,.12,.38,.31,.46,.19,.08,.4,.03,.54-.11l8.18-8.09,2.11,2.2-11.83,11.83Z" stroke-width="0"/><path d="M24.78,14.47c-1.48,0-2.3-.82-2.5-2.08h-2.8c.15,2.52,1.83,4,4.44,4.23v1.83h1.43v-1.83c3.11-.24,4.44-2.04,4.44-4.15,0-1.99-.93-3.41-4.47-4.44-1.97-.57-2.66-.86-2.66-1.9,0-.96,.61-1.54,1.86-1.54,.7,0,1.18,.17,1.5,.46,.56,.5,.63,1.18,.64,1.34,.41,0,1.09,0,1.49,0,.32,0,.97,0,1.29,0-.15-2.03-1.35-3.64-4.08-3.91V.64h-1.43v1.82c-2.34,.21-4.09,1.57-4.09,3.94,0,2.01,1.1,3.16,4.32,4.05,2.01,.57,2.77,1.09,2.77,2.35,0,.98-.55,1.67-2.13,1.67Z" stroke-width="0"/></g><g id="uuid-d4148144-29b8-4402-9db6-3ce63052e547"></g></svg>