<?xml version="1.0" encoding="UTF-8"?><svg width="70" height="70" xmlns="http://www.w3.org/2000/svg" viewBox="-10 -10 70 70"><rect x="-10" y="-10" width="70" height="70" fill="white"/><g id="uuid-7b854dde-0d36-446f-b916-efefaf872c3c"><path d="M25.89,3.26c-.34,0-.65,.12-.88,.35L13.18,15.44l2.11,2.2,8.18-8.09c.14-.14,.36-.19,.54-.11,.19,.08,.31,.26,.31,.46V28.02h3.12V9.92c0-.2,.12-.38,.31-.46,.19-.08,.4-.04,.54,.11l8.09,8.09,2.2-2.11L26.75,3.61c-.23-.23-.54-.35-.86-.35Z" fill="#ffcd00" stroke-width="0"/><path d="M38.04,13.49L26.21,1.65c-.42-.42-.98-.66-1.57-.64-.6-.02-1.16,.22-1.58,.64L11.23,13.49c-.2,.2-.31,.47-.31,.75,0,.28,.11,.55,.31,.75l2.11,2.11c.41,.41,1.09,.42,1.5,0l7.23-7.23V27.27c0,.28,.22,.5,.5,.5h4.12c.28,0,.5-.22,.5-.5V9.87l7.23,7.23c.41,.42,1.09,.42,1.5,0l2.11-2.11c.2-.2,.31-.47,.31-.75s-.11-.55-.31-.75Zm-2.91,2.91l-8.09-8.09c-.14-.14-.36-.19-.54-.11-.19,.08-.31,.26-.31,.46V26.77h-3.12V8.67c0-.2-.12-.38-.31-.46-.19-.08-.4-.03-.54,.11l-8.18,8.09-2.11-2.2L23.77,2.36c.23-.23,.54-.35,.88-.35,.32,0,.63,.12,.86,.35l11.83,11.92-2.2,2.11Z" stroke-width="0"/><path d="M25.31,38.57c-1.97-.57-2.66-.86-2.66-1.9,0-.96,.61-1.54,1.86-1.54,.7,0,1.18,.17,1.51,.46,.56,.5,.63,1.18,.64,1.34,.41,0,1.09,0,1.49,0,.32,0,.97,0,1.29,0-.15-2.04-1.35-3.64-4.08-3.91v-1.84h-1.43v1.82c-2.34,.21-4.09,1.57-4.09,3.94,0,2,1.1,3.16,4.32,4.05,2.01,.57,2.77,1.09,2.77,2.35,0,.98-.55,1.67-2.13,1.67-1.48,0-2.3-.82-2.5-2.08h-2.8c.15,2.52,1.83,4,4.44,4.23v1.83h1.43v-1.83c3.11-.24,4.44-2.04,4.44-4.15,0-1.99-.93-3.41-4.47-4.44Z" stroke-width="0"/></g><g id="uuid-ca0e4c01-62ba-464c-bdd1-11189933925e"></g></svg>