<?xml version="1.0" encoding="UTF-8"?><svg width="70" height="70" xmlns="http://www.w3.org/2000/svg" viewBox="-10 -10 70 70"><rect x="-10" y="-10" width="70" height="70" fill="white"/><g id="uuid-0f5907a4-e0cf-4967-8660-1a0c221a01ae"><g><path d="M40.68,41.8c-.19-.2-.5-.21-.71-.03-.2,.19-.21,.5-.03,.71l2.52,2.71c.1,.11,.23,.16,.37,.16,.12,0,.24-.04,.34-.13,.2-.19,.21-.5,.03-.71l-2.52-2.71Z" stroke-width="0"/><path d="M46.15,40.81l-4.16-1.93c-.25-.12-.55,0-.66,.24s0,.55,.24,.66l4.16,1.93c.07,.03,.14,.05,.21,.05,.19,0,.37-.11,.45-.29,.12-.25,0-.55-.24-.66Z" stroke-width="0"/><path d="M46.64,36.35l-3.7-.28c-.28-.03-.52,.19-.54,.46-.02,.28,.19,.52,.46,.54l3.7,.28h.04c.26,0,.48-.2,.5-.46,.02-.28-.19-.52-.46-.54Z" stroke-width="0"/></g><g><path d="M40.86,24.87c0-.8,.17-1.76,.36-2.86,.4-2.28,.89-5.12-.11-7.39-3.93-8.91-15.13-11.48-21.71-9.91C7.92,7.47,6.57,16.3,6.67,23.69c.06,4.02,1.24,6.36,2.49,8.84,1.03,2.04,2.1,4.15,2.71,7.34,1.14,5.92-.48,8.8-1.39,10.25h15.97c1.26,0,2.08,0,2.62,.03v-7.09c0-.18,.1-.35,.25-.44,.16-.09,.35-.09,.5,0,2.57,1.56,6.59,3.31,7.71,2.44,.02-.19,0-.64-.02-.95-.03-.51-.05-1.03,0-1.4,.12-.82,.83-1.06,1.25-1.2,.1-.03,.24-.08,.33-.12-.27-.33-1.11-1.05-1.85-1.59-.16-.12-.23-.31-.19-.5,.04-.19,.19-.34,.38-.38,1.2-.28,2.6-.69,3.07-.93-.08-.47-.36-1.62-.62-2.6-.06-.23,.05-.46,.25-.57l3.22-1.67c.26-.14,.37-.46,.23-.72-1.03-2-2.75-5.64-2.75-7.56Z" fill="#ffcd00" stroke-width="0"/><path d="M42.75,30.23c-.79-1.55-2.64-5.33-2.64-7.1,0-.72,.16-1.63,.34-2.69,.42-2.41,.94-5.42-.18-7.96C37.21,5.54,27.61-.44,17.42,2,5.11,4.95,3.82,14.8,3.92,21.95c.06,4.25,1.29,6.69,2.6,9.28,1,1.98,2.03,4.03,2.62,7.08,1.12,5.81-.56,8.45-1.37,9.72-.17,.27-.3,.48-.37,.65-.07,.15-.05,.33,.04,.47,.09,.14,.25,.22,.42,.22H27.84c.27,0,.49-.22,.49-.5,0-.02,0-.04,0-.06v-6.63c2.01,1.13,6.61,3.44,8.25,1.79,.26-.26,.25-.69,.2-1.64-.02-.44-.05-.93,0-1.2,.02-.17,.13-.24,.58-.39,.38-.12,1.02-.33,1.07-1.03,.01-.19,.04-.56-1.48-1.79,2.86-.75,2.86-1.14,2.86-1.47,0-.37-.37-1.84-.58-2.66l2.87-1.49c.75-.39,1.04-1.32,.66-2.07Zm-1.12,1.18l-3.22,1.67c-.21,.11-.31,.35-.25,.57,.26,.98,.54,2.13,.62,2.6-.47,.24-1.88,.65-3.07,.93-.19,.04-.33,.19-.38,.38-.04,.19,.03,.39,.19,.5,.73,.55,1.58,1.26,1.85,1.59-.09,.04-.23,.09-.33,.12-.43,.14-1.14,.37-1.25,1.2-.05,.37-.03,.89,0,1.4,.02,.31,.04,.75,.02,.95-1.12,.87-5.15-.88-7.71-2.44-.16-.09-.35-.1-.5,0-.16,.09-.25,.25-.25,.44v7.09c-.54-.02-1.36-.02-2.62-.02H8.74c.91-1.45,2.52-4.33,1.39-10.25-.61-3.19-1.68-5.3-2.71-7.34-1.25-2.48-2.43-4.82-2.49-8.84-.11-7.39,1.24-16.22,12.73-18.97,6.57-1.57,17.77,.99,21.71,9.91,1,2.27,.51,5.11,.11,7.39-.19,1.1-.36,2.06-.36,2.86,0,1.92,1.72,5.56,2.75,7.56,.13,.26,.03,.59-.23,.72Z" stroke-width="0"/></g></g><g id="uuid-d7421511-5bf2-469b-8929-52fceedff8eb"></g></svg>