<?xml version="1.0" encoding="UTF-8"?><svg width="70" height="70" xmlns="http://www.w3.org/2000/svg" viewBox="-10 -10 70 70"><rect x="-10" y="-10" width="70" height="70" fill="white"/><g id="uuid-4d17c9bd-a9c9-4e77-8543-0dccc80afa9f"><path d="M40.58,39.54h0l-5.83-5.77c.44-2.43-.34-5.11-2.31-7.07-.04-.04-.08-.08-.13-.12l-6.3-6.25c-.52-.51-1.33-.54-1.81-.06-.48,.48-.46,1.28,.06,1.79l.45,.45h0c.12,.14,.13,.33,0,.46-.13,.12-.34,.12-.47-.02h0l-3.92-3.89c-.52-.51-1.33-.54-1.81-.06-.47,.47-.45,1.25,.03,1.76h0s.01,.03,.02,.04h0c.1,.13,.1,.32-.01,.43-.11,.11-.3,.11-.43,0h0l-1.37-1.35c-.52-.51-1.33-.54-1.81-.06-.48,.48-.46,1.28,.06,1.79l1.35,1.34s.02,0,.02,.02c.13,.13,.14,.34,.02,.46s-.34,.12-.47-.01h0c-.52-.51-1.33-.53-1.81-.05-.48,.48-.46,1.28,.06,1.79l5.18,5.13c.21,.16,.27,.32,.16,.53-.08,.1-.22,.19-.54,.02-.52-.39-1.22-.36-1.65,.07-.48,.48-.46,1.28,.06,1.79l4.16,4.12s.03,.03,.05,.04l.06,.05,.11,.12s.08,.09,.12,.13c2.11,2.09,5.03,2.83,7.61,2.19l5.65,5.59h0c.7,.7,1.39,1.39,2.09,2.09,1.79-1.83,3.59-3.67,5.38-5.5l-2-2Z" fill="#ffcd00" stroke-width="0"/><path d="M34.41,32.12l2.58-2.58c.82-.82,.82-2.17,0-2.99-.28-.28-.63-.48-1.01-.56l2.12-2.12c.4-.4,.62-.93,.62-1.5s-.22-1.1-.62-1.5c-.29-.29-.64-.48-1.01-.56l.06-.06c.82-.82,.82-2.17,0-2.99-.4-.4-.93-.62-1.5-.62-.56,0-1.1,.22-1.5,.62l-.06,.06c-.09-.38-.28-.73-.56-1.01-.82-.82-2.17-.82-2.99,0l-3.47,3.47-2.22-2.22c-.82-.82-2.17-.82-2.99,0-.29,.29-.48,.64-.56,1.01l-2.12-2.12c-.82-.82-2.17-.82-2.99,0-.29,.29-.48,.64-.56,1.01l-.06-.06c-.8-.8-2.19-.8-2.99,0-.82,.82-.82,2.17,0,2.99l.06,.06c-.37,.09-.72,.27-1.01,.56-.82,.82-.82,2.17,0,2.99l3.98,3.98c-.37,.09-.72,.28-1.01,.56-.4,.4-.62,.93-.62,1.5s.22,1.1,.62,1.5l.86,.86-7.12,7.12c-.09,.09-.15,.22-.15,.35s.05,.26,.15,.35l6.13,6.13c.1,.1,.23,.15,.35,.15s.26-.05,.35-.15l8.12-8.12c1.15,.24,2.36,.25,3.56-.02l7.99,7.99c.1,.1,.23,.15,.35,.15s.26-.05,.35-.15l6.13-6.13c.2-.2,.2-.51,0-.71l-7.27-7.27Zm.78,13.04l-7.84-7.83c-.09-.1-.22-.15-.35-.15-.04,0-.08,0-.12,.02-2.62,.66-5.32-.08-7.22-1.98-.04-.04-.07-.08-.11-.12l-.14-.15s-.08-.06-.09-.07l-4.03-4.03c-.43-.43-.43-1.14,0-1.58,.38-.38,.98-.43,1.42-.12l3.97,3.97c.1,.1,.23,.15,.35,.15s.26-.05,.35-.15c.2-.2,.2-.51,0-.71l-3.95-3.95s-.03-.07-.06-.09l-5.06-5.06c-.21-.21-.33-.49-.33-.79s.12-.58,.33-.79c.43-.43,1.14-.43,1.58,0l6.99,6.99c.1,.1,.23,.15,.35,.15s.26-.05,.35-.15c.2-.2,.2-.51,0-.71l-6.99-6.99-1.33-1.33c-.43-.43-.43-1.14,0-1.58s1.16-.42,1.58,0l1.33,1.33h0l6.99,6.99c.1,.1,.23,.15,.35,.15s.26-.05,.35-.15c.2-.2,.2-.51,0-.71l-6.99-6.99h0c-.43-.44-.43-1.14,0-1.58,.43-.43,1.14-.43,1.58,0l4.4,4.4,.66,.66,1.93,1.93c.1,.1,.23,.15,.35,.15s.26-.05,.35-.15c.2-.2,.2-.51,0-.71l-1.93-1.93h0l-1.68-1.68c-.43-.43-.43-1.14,0-1.58,.43-.43,1.14-.43,1.58,0l5.92,5.93s.07,.09,.09,.11l.11,.09s.08,.07,.11,.1c1.77,1.77,2.55,4.3,2.08,6.77-.03,.16,.02,.33,.14,.45l8.02,8.02-5.42,5.42Zm-16.57-9.57s.09,.08,.11,.09l.07,.08c.05,.06,.1,.11,.15,.17,.93,.93,2.03,1.6,3.22,2.02l-7.37,7.37-5.42-5.42,6.77-6.77,2.47,2.47Zm14.19-18.57c.21,.21,.33,.49,.33,.79s-.12,.58-.33,.79l-3.47,3.47-1.58-1.58,3.47-3.47c.42-.42,1.16-.42,1.58,0Zm3.46,11.81l-2.58,2.57-.21-.21c.14-.91,.13-1.82-.02-2.71l1.23-1.23c.42-.42,1.16-.42,1.58,0s.43,1.14,0,1.58Zm1.1-5.67l-4.17,4.17c-.23-.76-.57-1.48-1.01-2.14l3.61-3.61c.43-.43,1.14-.43,1.58,0s.43,1.14,0,1.58Zm-.95-5.19c.43,.43,.43,1.14,0,1.58l-1.33,1.33-3.5,3.5c-.17-.2-.33-.4-.52-.58-.05-.05-.11-.1-.16-.15l-.06-.05s-.07-.09-.11-.13l-.69-.69,3.47-3.47h0l1.33-1.33c.21-.21,.49-.33,.79-.33s.58,.12,.79,.33Z" stroke-width="0"/><path d="M13.13,8.46h4.17c.16,0,.31-.08,.4-.21l2.13-2.91,3.93,6.69c.09,.15,.25,.25,.43,.25,.01,0,.03,0,.04,0,.19-.02,.36-.14,.43-.32l3.76-9.76,2.3,5.93c.07,.19,.26,.32,.46,.32l5.69,.02h0c.28,0,.5-.22,.5-.5s-.22-.5-.5-.5l-5.35-.02L28.87,.63c-.07-.19-.26-.32-.47-.32h0c-.21,0-.39,.13-.47,.32l-3.85,10-3.79-6.45c-.09-.15-.24-.24-.41-.25-.17,0-.33,.07-.43,.2l-2.43,3.32h-3.91c-.28,0-.5,.22-.5,.5s.22,.5,.5,.5Z" stroke-width="0"/><path d="M41.94,23.67c-.21,.18-.24,.49-.06,.7,.41,.48,1.09,1.52,1.14,2.98,.05,1.65-.78,2.83-1.14,3.25-.18,.21-.15,.53,.06,.7,.09,.08,.21,.12,.32,.12,.14,0,.29-.06,.38-.18,.43-.51,1.43-1.93,1.37-3.92-.05-1.76-.88-3.01-1.37-3.59-.18-.21-.49-.24-.7-.06Z" stroke-width="0"/><path d="M45.35,21.96c-.18-.21-.49-.24-.7-.06-.21,.18-.24,.49-.06,.7,.64,.76,1.72,2.38,1.78,4.67,.07,2.59-1.22,4.43-1.78,5.1-.18,.21-.15,.53,.06,.7,.09,.08,.21,.12,.32,.12,.14,0,.29-.06,.38-.18,.63-.76,2.1-2.83,2.01-5.77-.07-2.59-1.29-4.42-2.01-5.28Z" stroke-width="0"/><path d="M8.12,32.33c-.41-.49-1.1-1.52-1.14-2.98-.05-1.66,.78-2.83,1.14-3.25,.18-.21,.15-.53-.06-.7-.21-.18-.53-.15-.7,.06-.43,.51-1.43,1.93-1.37,3.92,.05,1.76,.88,3.01,1.37,3.59,.1,.12,.24,.18,.38,.18,.11,0,.23-.04,.32-.12,.21-.18,.24-.49,.06-.7Z" stroke-width="0"/><path d="M5.36,23.63c-.21-.18-.53-.15-.7,.06-.63,.76-2.1,2.83-2.01,5.77,.07,2.59,1.29,4.42,2.01,5.28,.1,.12,.24,.18,.38,.18,.11,0,.23-.04,.32-.12,.21-.18,.24-.49,.06-.7-.64-.76-1.72-2.38-1.78-4.67-.07-2.59,1.22-4.43,1.78-5.1,.18-.21,.15-.53-.06-.7Z" stroke-width="0"/></g><g id="uuid-27836239-ab9d-47ba-8e5b-3c6508037033"></g></svg>