<?xml version="1.0" encoding="UTF-8"?><svg width="70" height="70" id="uuid-46e28427-6aba-450b-8b80-fe82a3fa4579" xmlns="http://www.w3.org/2000/svg" viewBox="-10 -10 70 70"><rect x="-10" y="-10" width="70" height="70" fill="white"/><polygon points="44.33 24.69 43.58 27.71 42.34 27.71 41.58 24.69 44.33 24.69" fill="#ffcd00"/><polygon points="22.41 46.65 23.15 49.53 6.73 49.53 7.47 46.65 22.41 46.65" fill="#ffcd00"/><rect x="12.64" y="3.35" width="4.6" height="2.61" fill="#ffcd00"/><path d="M20.06,12.58v2.2c0,1.26-.94,2.29-2.15,2.46-.12,.02-.23,.04-.35,.04h-7.72v-4.7h10.22Z" fill="#ffcd00" stroke-width="0"/><path d="M42.8,5.71l3.89,3.89v-3.89h-3.89Zm-6.8,4.39l4.38-4.39h-8.77l4.39,4.39Zm5.09,16.36h1.24l.75-3.02h-2.75l.76,3.02Zm4.89-16.15l-4.39-4.39-4.39,4.39h8.78Zm-21.18-.19l4.41-4.41h-8.82l4.41,4.41Zm10,.2l-4.39-4.39-4.39,4.39h8.78Zm-23.41,6.71v3.89l3.89-3.89h-3.89ZM15.99,2.1h-4.6v2.61h4.6V2.1Zm3.2,3.83l-4.38,4.39h8.77l-4.39-4.39Zm-7.8,37.42l4.39-4.39-4.39-4.39v8.78Zm4.39-15.61l-4.39-4.38v8.77l4.39-4.39Zm.21,16.66v-4.23l-4.24,4.23h4.24Zm0-6.65v-8.8l-4.4,4.4,4.4,4.4Zm0-11.21v-8.81l-4.4,4.41,4.4,4.4ZM2.87,9.62l3.91-3.91H2.87v3.91ZM21.16,45.4H6.22l-.74,2.88H21.9l-.74-2.88ZM3.59,10.32H12.37L7.98,5.93,3.59,10.32Zm5,5.71h7.72c.12,0,.23-.02,.35-.04,1.21-.17,2.15-1.2,2.15-2.46v-2.2H8.59v4.7ZM2.37,4.71H10.39V1.6c0-.27,.23-.5,.5-.5h5.6c.13,0,.26,.06,.35,.15,.1,.09,.15,.22,.15,.35v3.11h30.2c.27,0,.5,.23,.5,.5v5.6h-.02c0,.06,0,.13-.02,.19-.08,.19-.26,.31-.46,.31h-4.98v11.13h1.51c.15,0,.3,.07,.39,.19,.1,.12,.13,.28,.09,.43l-1,4.02c-.05,.23-.25,.38-.48,.38h-.51v.77c1.2,.24,2.11,1.3,2.11,2.57,0,1.44-1.17,2.61-2.61,2.61s-2.62-1.17-2.62-2.61c0-.28,.23-.5,.5-.5s.5,.22,.5,.5c0,.89,.73,1.61,1.62,1.61s1.61-.72,1.61-1.61-.73-1.61-1.61-1.61c-.28,0-.5-.23-.5-.5v-1.23h-.51c-.23,0-.43-.15-.49-.38l-1-4.02c-.04-.15,0-.31,.09-.43,.1-.12,.24-.19,.39-.19h1.52V11.31h-5.17s-.02,.01-.04,.01h-11.18s-.01-.01-.02-.01h-4.99v2.22c0,1.7-1.22,3.11-2.82,3.43v27.44h4.55c.23,0,.43,.16,.49,.38l1,3.88c.04,.15,.01,.3-.09,.43-.09,.12-.24,.19-.39,.19H4.83c-.15,0-.3-.07-.39-.19-.1-.13-.13-.28-.09-.43l1-3.88c.06-.22,.26-.38,.48-.38h4.56v-11.04s.01,0,.01,0h-.01v-11.2s.01-.01,.01-.01c0-.01-.01-.01-.01-.02v-5.09h-2.3c-.27,0-.5-.23-.5-.5v-5.21H2.38c-.2,0-.38-.12-.46-.31-.03-.07-.02-.13-.02-.2h-.03V5.21c0-.27,.23-.5,.5-.5Zm6.81,1l4.41,4.41,4.41-4.41H9.18Z" stroke-width="0"/></svg>