<?xml version="1.0" encoding="utf-8"?> <!-- Generator: Adobe Illustrator 27.7.0, SVG Export Plug-In . SVG Version: 6.00 Build 0) --> <svg width="70" height="70" version="1.1" id="Layer_1" xmlns="http://www.w3.org/2000/svg" xmlns:xlink="http://www.w3.org/1999/xlink" x="0px" y="0px" viewBox="-10 -10 70 70" style="enable-background:new 0 0 50 50;" xml:space="preserve"><rect x="-10" y="-10" width="70" height="70" fill="white"/> <style type="text/css"> .st0{fill:#FFCD00;} .st1{display:none;} .st2{display:inline;fill:none;stroke:#EA008A;stroke-width:0.2;stroke-miterlimit:10;} .st3{font-family:'Roboto-Regular';} .st4{font-size:6px;} </style> <g id="Color"> <path class="st0" d="M34.5,15.8h-2h-2c-0.5,1.8-1.8,3.2-3.3,4.3c0,0,0,0,0,0c-0.1,0.1-0.2,0.1-0.3,0.2c0,0,0,0,0,0 c-1.3,0.8-2.7,1.4-4.2,1.6c0,0,0,0,0,0c-0.2,0-0.5,0.1-0.7,0.1c-0.2,0-0.5,0-0.7,0c-3.7,0-8.2-2.5-9.3-6.3h-2h-2v25h13.5l13.2-8.5 C34.5,32.2,34.5,15.8,34.5,15.8z M19.8,31.8c-4.7,0-7.9-1.7-7.9-3.2s3.3-3.2,7.9-3.2s7.9,1.7,7.9,3.2S24.5,31.8,19.8,31.8" stroke-width="0"/> <path class="st0" d="M28.5,14.1l0.1-0.4H32v-2.2L30.1,4h-0.8l-1.9,7.6v4.7C27.9,15.7,28.3,14.9,28.5,14.1" stroke-width="0"/> <path class="st0" d="M10.7,13.8l0.1,0.4c1,3.5,5.4,5.9,8.8,5.9c0.3,0,0.7,0,1-0.1v-8.4L18.8,4h-0.8L16,11.6c-0.1,0.4-0.9,0.4-1,0 l-1-3.8c-0.2-0.6-0.7-1.1-1.4-1.1c-0.7,0-1.2,0.4-1.4,1.1l-0.9,3.8v2.2C10.4,13.8,10.7,13.8,10.7,13.8z" stroke-width="0"/> <path class="st0" d="M21.1,43.4l-2.6,2.8c-0.4,0.5-0.5,1.2-0.2,1.7c0.4,0.5,1,0.8,1.7,0.6l3.7-1.2l20.9-13.5l-2.5-3.9L21.1,43.4z M23.9,47.7L23.9,47.7L23.9,47.7z" stroke-width="0"/> </g> <g id="ICONS_00000031165542127692736420000002692518830807990202_"> <g> <path d="M19.8,24.3c-5,0-8.9,1.9-8.9,4.2s3.9,4.2,8.9,4.2s8.9-1.9,8.9-4.2S24.8,24.3,19.8,24.3z M19.8,31.8 c-4.7,0-7.9-1.7-7.9-3.2s3.3-3.2,7.9-3.2s7.9,1.7,7.9,3.2S24.5,31.8,19.8,31.8z" stroke-width="0"/> <path d="M44.6,32.5l-3.1-4.8c-0.1-0.1-0.2-0.2-0.3-0.2c-0.1,0-0.3,0-0.4,0.1L34,32V13.8c0-0.3-0.2-0.5-0.5-0.5h-2V10 c0,0,0-0.1,0-0.1l-2-8c-0.1-0.2-0.3-0.4-0.5-0.4h-1.6c-0.2,0-0.4,0.2-0.5,0.4l-2,7.9c0,0.1-0.1,0.1-0.1,0.2c0,0,0,0.1,0,0.1v7.8 c0,0,0,0,0,0c-1.4,0.9-3.1,1.5-4.7,1.6V10c0,0,0-0.1,0-0.1l-2-8c-0.1-0.2-0.3-0.4-0.5-0.4H16c-0.2,0-0.4,0.2-0.5,0.4L14,8 l-0.5-1.9c-0.3-1.1-1.2-1.8-2.4-1.8c-1.1,0-2.1,0.8-2.4,1.8l-1,3.8c0,0,0,0.1,0,0.1v3.2h-2c-0.3,0-0.5,0.2-0.5,0.5v26 c0,0.3,0.2,0.5,0.5,0.5h15.4l-1.8,1.2c0,0,0,0,0,0c0,0,0,0-0.1,0l-2.7,2.9c-0.8,0.8-0.9,2-0.3,3c0.5,0.7,1.2,1.1,2,1.1 c0.3,0,0.5,0,0.8-0.1l3.7-1.3c0,0,0,0,0.1,0c0,0,0,0,0,0l21.4-13.8C44.7,33,44.7,32.7,44.6,32.5z M27.7,2.5h0.8l1.8,7H26L27.7,2.5 z M25.8,10.5h4.7v2.7h-1.9c-0.2,0-0.4,0.2-0.5,0.4c-0.3,1.4-1.2,2.6-2.3,3.5C25.8,17.2,25.8,10.5,25.8,10.5z M14.5,10.5h4.7v9 c-1.6-0.1-3.2-0.7-4.7-1.6V10.5z M16.4,2.5h0.8l1.8,7h-4.4L16.4,2.5z M9.8,6.3c0.2-0.6,0.7-1.1,1.4-1.1c0.7,0,1.2,0.4,1.4,1.1 l0.8,3.2H9L9.8,6.3z M8.9,10.5h4.7v6.7c-1.1-1-2-2.2-2.3-3.5c-0.1-0.2-0.3-0.4-0.5-0.4H8.9V10.5z M6.3,39.3v-25h4 c1.1,3.8,5.6,6.3,9.3,6.3s8.2-2.5,9.3-6.3h4v18.3c0,0,0,0,0,0l-10.3,6.6H6.3z M38.5,30.3l2.5,3.9L22.9,45.9L20.4,42L38.5,30.3z M18.9,47.4c-0.6,0.2-1.3,0-1.7-0.6c-0.4-0.5-0.3-1.3,0.2-1.7l2.2-2.4l2.4,3.7L18.9,47.4z M41.9,33.7l-2.5-3.9l1.6-1l2.5,3.9 L41.9,33.7z" stroke-width="0"/> </g> </g> <g id="Margin" class="st1"> <rect x="1" y="1" class="st2" /> </g> <g id="Guides" class="st1"> </g> <g id="LABELS"> </g> <g id="LABELS_00000103984138962442905360000003112230151243406504_"> <g> <g> <g> <g> <g> </g> </g> </g> </g> </g> </g> </svg> 