<?xml version="1.0" encoding="UTF-8"?><svg width="70" height="70" xmlns="http://www.w3.org/2000/svg" viewBox="-10 -10 70 70"><rect x="-10" y="-10" width="70" height="70" fill="white"/><g id="uuid-a9712525-49f1-4742-a752-9cb3fe8a974c"><g><path d="M49.67,14.18c0-1.2-.98-2.18-2.18-2.18H5.01c-1.2,0-2.18,.98-2.18,2.18v1.08H48.17v.5h1.5v-1.58Z" fill="#ffcd00" stroke-width="0"/><path d="M2.83,22.43v15.88c0,1.2,.98,2.18,2.18,2.18H47.49c1.2,0,2.18-.98,2.18-2.18v-15.88H2.83Zm40.23,11.15h-6.98v-6.98h6.98v6.98Z" fill="#ffcd00" stroke-width="0"/><path d="M35.58,34.58h7.98c.28,0,.5-.22,.5-.5v-7.98c0-.28-.22-.5-.5-.5h-7.98c-.28,0-.5,.22-.5,.5v7.98c0,.28,.22,.5,.5,.5Zm.5-7.98h6.98v6.98h-6.98v-6.98Z" stroke-width="0"/><path d="M5.97,34.58H25.44c.28,0,.5-.22,.5-.5s-.22-.5-.5-.5H5.97c-.28,0-.5,.22-.5,.5s.22,.5,.5,.5Z" stroke-width="0"/><path d="M45.99,9.51H3.51c-1.75,0-3.18,1.42-3.18,3.18v24.13c0,1.75,1.43,3.18,3.18,3.18H45.99c1.75,0,3.18-1.43,3.18-3.18V12.68c0-1.75-1.43-3.18-3.18-3.18Zm2.18,27.31c0,1.2-.98,2.18-2.18,2.18H3.51c-1.2,0-2.18-.98-2.18-2.18v-15.88H48.17v15.88Zm0-16.88H1.33v-4.67H48.17v4.67Zm0-5.67H1.33v-1.58c0-1.2,.98-2.18,2.18-2.18H45.99c1.2,0,2.18,.98,2.18,2.18v1.58Z" stroke-width="0"/></g></g><g id="uuid-372a22db-277f-43af-b34d-95b48dd0349a"></g></svg>