<?xml version="1.0" encoding="UTF-8"?><svg width="70" height="70" id="uuid-ecac5c2e-c393-4680-a582-c2ffdf7204a8" xmlns="http://www.w3.org/2000/svg" viewBox="-10 -10 70 70"><rect x="-10" y="-10" width="70" height="70" fill="white"/><path d="M26.44,3.87C13.82,3.87,3.56,14.13,3.56,26.75s10.26,22.88,22.88,22.88,22.88-10.26,22.88-22.88S39.05,3.87,26.44,3.87Zm11.56,23.7h-9.72c-.28,0-.5,.22-.5,.5v11.05h-6.79v-11.05c0-.28-.22-.5-.5-.5H10.75v-6.39h9.75c.28,0,.5-.22,.5-.5V10.11h6.79v10.57c0,.28,.22,.5,.5,.5h9.72v6.39Z" fill="#ffcd00" stroke-width="0"/><path d="M38.5,20.18h-9.72V9.61c0-.28-.22-.5-.5-.5h-7.79c-.28,0-.5,.22-.5,.5v10.57H10.25c-.28,0-.5,.22-.5,.5v7.39c0,.28,.22,.5,.5,.5h9.75v11.05c0,.28,.22,.5,.5,.5h7.79c.28,0,.5-.22,.5-.5v-11.05h9.72c.28,0,.5-.22,.5-.5v-7.39c0-.28-.22-.5-.5-.5Zm-.5,7.39h-9.72c-.28,0-.5,.22-.5,.5v11.05h-6.79v-11.05c0-.28-.22-.5-.5-.5H10.75v-6.39h9.75c.28,0,.5-.22,.5-.5V10.11h6.79v10.57c0,.28,.22,.5,.5,.5h9.72v6.39Z" stroke-width="0"/><path d="M24.69,1.12C11.52,1.12,.81,11.83,.81,25s10.71,23.88,23.88,23.88,23.88-10.71,23.88-23.88S37.85,1.12,24.69,1.12Zm0,46.76C12.07,47.88,1.81,37.62,1.81,25S12.07,2.12,24.69,2.12s22.88,10.26,22.88,22.88-10.26,22.88-22.88,22.88Z" stroke-width="0"/></svg>