<?xml version="1.0" encoding="UTF-8"?><svg width="70" height="70" xmlns="http://www.w3.org/2000/svg" viewBox="-10 -10 70 70"><rect x="-10" y="-10" width="70" height="70" fill="white"/><g id="uuid-a30b5bb1-9a2e-4e2e-b586-6bd589a2362c"><g><path d="M35.79,46.37c-.27-.14-.57-.21-.86-.21-.2,0-.4,.03-.6,.1l-.2,.07c-.49,.16-.88,.5-1.11,.96-.15,.3-.22,.63-.2,.97l3.72-1.22c-.18-.28-.43-.5-.74-.66Z" fill="#ffcd00" stroke-width="0"/><path d="M27.46,3.11c.09-.18,.11-.38,.04-.57-.06-.19-.2-.35-.38-.44-.11-.05-.22-.08-.34-.08-.08,0-.16,.01-.24,.04l-11.76,3.87c-.19,.06-.35,.2-.44,.38s-.11,.38-.04,.58c.06,.19,.2,.35,.38,.44,.18,.09,.38,.1,.58,.04l11.76-3.87c.19-.06,.35-.2,.44-.38Z" fill="#ffcd00" stroke-width="0"/><path d="M37.38,46.97c-.24-.74-.76-1.34-1.46-1.69-.58-.29-1.21-.37-1.84-.25l-4.75-14.43,2.69-7.92s0-.04,0-.06c0-.03,.01-.06,.01-.1,0-.04,0-.07-.01-.1,0-.02,0-.04,0-.06L26.12,4.39l.53-.18c.45-.15,.81-.46,1.02-.88s.25-.89,.1-1.34c-.3-.92-1.29-1.43-2.21-1.12l-11.76,3.87c-.44,.15-.81,.46-1.02,.88-.21,.42-.25,.89-.1,1.34s.46,.81,.88,1.02c.25,.13,.52,.19,.79,.19,.18,0,.37-.03,.55-.09l.53-.18,5.91,17.97s.01,.02,.02,.03c.03,.08,.08,.16,.16,.22h.01l6.86,4.78,4.75,14.44c-.57,.28-1.04,.72-1.33,1.3-.35,.7-.41,1.49-.17,2.22,.07,.21,.26,.34,.47,.34,.05,0,.1,0,.16-.03l4.79-1.58c.26-.09,.41-.37,.32-.63Zm-15.15-21.56l-3.17-9.65,8.8-2.89,3.17,9.64-2.48,7.29-6.32-4.39ZM14,7.1c-.18-.09-.31-.25-.38-.44-.06-.19-.05-.4,.04-.58s.25-.31,.44-.38L25.87,1.84c.08-.03,.16-.04,.24-.04,.12,0,.23,.03,.34,.08,.18,.09,.31,.25,.38,.44,.06,.19,.05,.4-.04,.57-.09,.18-.25,.31-.44,.38l-11.76,3.87c-.19,.06-.4,.05-.58-.04Zm11.17-2.39l2.37,7.21-8.8,2.89-2.37-7.21,8.8-2.89Zm7.33,43.35c-.02-.33,.05-.66,.2-.97,.23-.46,.62-.8,1.11-.96l.2-.07c.2-.06,.4-.1,.6-.1,.3,0,.59,.07,.86,.21,.3,.15,.56,.38,.74,.66l-3.72,1.22Z" stroke-width="0"/></g></g><g id="uuid-7fb9bcbe-9327-43ea-9093-0a184c32604a"></g></svg>