<?xml version="1.0" encoding="UTF-8"?><svg width="70" height="70" xmlns="http://www.w3.org/2000/svg" viewBox="-10 -10 70 70"><rect x="-10" y="-10" width="70" height="70" fill="white"/><g id="uuid-75faeeae-229c-484d-9800-bbfb2a0e1111"><g><path d="M38.61,31.96c.22,.08,.46,.17,.7,.27,1.02,.4,2.18,.85,3.36,.85,3.9,0,7.2-1.74,7.2-3.8s-3.3-3.8-7.2-3.8c-1.07,0-2.36,.03-2.37,.03-.27,0-.48-.18-.51-.44-.03-.26,.14-.49,.39-.55,1.01-.22,2.02-.59,3-1.1,3.47-1.79,5.6-4.85,4.65-6.68-.44-.85-1.5-1.35-2.97-1.4-1.58-.05-3.42,.42-5.17,1.32-.71,.37-1.38,.8-1.99,1.27-.34,.35-.7,.67-1.06,.95-.22,.17-.53,.13-.7-.09-.17-.22-.13-.53,.09-.7,1.07-.83,2.04-1.99,2.82-3.34,1.95-3.38,2.09-7.1,.3-8.13-.83-.48-1.99-.33-3.26,.43-1.36,.81-2.65,2.2-3.64,3.9-.58,1.01-1.61,3.49-1.62,3.51-.1,.25-.39,.37-.64,.28-.25-.09-.38-.37-.3-.63,.39-1.15,.59-2.46,.59-3.81,0-3.9-1.74-7.2-3.8-7.2s-3.8,3.3-3.8,7.2c0,1.03,.12,2.03,.34,2.96,.06,.25-.08,.51-.32,.59-.24,.08-.51-.03-.62-.26,0-.02-.99-2.13-1.32-2.7-.99-1.71-2.28-3.09-3.64-3.9-1.27-.76-2.42-.91-3.26-.43-1.79,1.03-1.65,4.76,.3,8.14,.5,.87,2.08,2.69,2.09,2.71,.17,.2,.16,.49-.02,.68-.18,.19-.48,.2-.68,.04-.67-.56-1.43-1.05-2.25-1.48-1.75-.91-3.58-1.37-5.17-1.32-1.48,.05-2.53,.55-2.97,1.4s-.24,2,.58,3.23c.87,1.32,2.32,2.54,4.07,3.45,1.17,.6,2.4,1.02,3.57,1.21,.27,.04,.45,.3,.41,.57-.04,.27-.29,.46-.56,.42-.02,0-2.14-.28-3.18-.28-3.9,0-7.2,1.74-7.2,3.8s3.3,3.8,7.2,3.8c1.46,0,4.62-1.03,4.65-1.04,.26-.09,.54,.06,.63,.32,.09,.26-.05,.54-.31,.63-1.02,.35-2.07,.9-3.03,1.58-3.19,2.25-4.88,5.57-3.69,7.26,.55,.79,1.67,1.13,3.14,.98,1.57-.16,3.33-.88,4.94-2.02,.84-.59,1.62-1.65,2.26-2.5,.15-.2,.29-.39,.42-.55,.1-.13,.25-.19,.4-.19,.09,0,.19,.03,.27,.08,.22,.14,.29,.42,.17,.65-.01,.02-1.27,2.42-1.58,3.56-1.01,3.77-.17,7.4,1.82,7.94,.93,.25,2.01-.2,3.03-1.26,1.1-1.13,1.99-2.81,2.5-4.71,.13-.5,.21-2.06,.21-4.18,0-.28,.22-.5,.5-.5h0c.27,0,.5,.22,.5,.5,.01,1.68,.08,3.61,.16,3.93,.51,1.91,1.4,3.58,2.5,4.71,1.03,1.06,2.11,1.5,3.03,1.26,1.99-.53,2.83-4.17,1.82-7.94-.18-.67-1.17-3-1.57-3.66-.15-.23-.08-.54,.15-.69,.23-.15,.54-.08,.69,.15,.8,1.22,2.27,3.29,2.81,3.67,3.19,2.25,6.89,2.72,8.07,1.04,.55-.78,.51-1.95-.13-3.28-.68-1.43-1.95-2.84-3.56-3.97-.64-.45-2.72-1.81-2.72-1.81-.21-.14-.29-.42-.17-.64,.11-.23,.38-.33,.62-.25Zm-13.74,.8c-4.59,0-8.32-3.73-8.32-8.32s3.73-8.32,8.32-8.32,8.32,3.73,8.32,8.32-3.73,8.32-8.32,8.32Z" fill="#ffcd00" stroke-width="0"/><path d="M49.11,27.52c0-2.57-3.28-4.61-7.58-4.79,.12-.06,.24-.12,.36-.18,4.08-2.11,6.31-5.64,5.08-8.03-.61-1.19-1.97-1.88-3.83-1.94-1.68-.06-3.59,.41-5.42,1.31,.08-.13,.16-.27,.24-.4,2.3-3.98,2.27-8.15-.06-9.5-1.16-.67-2.68-.51-4.27,.43-1.5,.9-2.92,2.41-3.99,4.26-.03,.06-.06,.11-.1,.18,0-.11,0-.22,0-.33C29.55,3.94,27.44,.34,24.75,.34s-4.8,3.6-4.8,8.2c0,.06,0,.12,0,.18-.02-.03-.03-.06-.05-.08-1.07-1.85-2.49-3.37-3.99-4.26-1.59-.95-3.11-1.1-4.27-.43-2.33,1.35-2.36,5.52-.06,9.5,.08,.14,.18,.3,.3,.47-1.85-.93-3.8-1.41-5.49-1.35-1.85,.06-3.21,.75-3.83,1.94s-.39,2.7,.63,4.24c.96,1.46,2.54,2.8,4.44,3.79l.09,.05c-4.3,.18-7.59,2.22-7.59,4.79s3.6,4.8,8.2,4.8c.3,0,.65-.04,1.03-.09-3.52,2.63-5.1,6.27-3.6,8.41,.77,1.09,2.21,1.59,4.06,1.4,1.74-.18,3.66-.96,5.41-2.19,.17-.12,.34-.25,.5-.4-.04,.13-.08,.25-.11,.37-1.19,4.44-.07,8.46,2.53,9.16,.25,.07,.51,.1,.78,.1,1.07,0,2.2-.56,3.23-1.63,1.06-1.09,1.94-2.62,2.51-4.37,.57,1.64,1.41,3.07,2.42,4.11,1.29,1.33,2.72,1.87,4.01,1.53,2.59-.69,3.7-4.68,2.54-9.1,.2,.21,.38,.39,.52,.49,3.76,2.65,7.92,3,9.47,.8,.77-1.09,.75-2.62-.05-4.29-.72-1.51-2.02-3-3.67-4.2,.32,.05,.65,.08,.99,.08,4.6,0,8.2-2.11,8.2-4.8Zm-12.7,3.57s2.08,1.36,2.72,1.81c1.61,1.14,2.88,2.55,3.56,3.97,.64,1.33,.69,2.5,.13,3.28-1.19,1.69-4.89,1.21-8.07-1.04-.54-.38-2.01-2.45-2.81-3.67-.15-.23-.46-.29-.69-.15-.23,.15-.3,.45-.15,.69,.41,.65,1.39,2.99,1.57,3.66,1.01,3.77,.17,7.4-1.82,7.94-.93,.25-2.01-.2-3.03-1.26-1.1-1.13-1.99-2.81-2.5-4.71-.08-.32-.15-2.25-.16-3.93,0-.27-.23-.5-.5-.5h0c-.28,0-.5,.22-.5,.5,0,2.12-.08,3.68-.21,4.18-.51,1.91-1.4,3.58-2.5,4.71-1.03,1.06-2.11,1.51-3.03,1.26-1.99-.53-2.83-4.17-1.82-7.94,.31-1.15,1.57-3.54,1.58-3.56,.12-.23,.05-.51-.17-.65-.08-.05-.18-.08-.27-.08-.15,0-.3,.07-.4,.19-.13,.17-.27,.36-.42,.55-.63,.85-1.42,1.91-2.26,2.5-1.61,1.14-3.37,1.85-4.94,2.02-1.47,.15-2.58-.19-3.14-.98-1.19-1.69,.5-5.01,3.69-7.26,.96-.68,2.01-1.23,3.03-1.58,.26-.09,.4-.37,.31-.63-.09-.26-.37-.4-.63-.32-.03,.01-3.19,1.04-4.65,1.04-3.9,0-7.2-1.74-7.2-3.8s3.3-3.8,7.2-3.8c1.04,0,3.16,.27,3.18,.28,.27,.04,.52-.15,.56-.42,.04-.27-.15-.52-.41-.57-1.17-.19-2.4-.61-3.57-1.21-1.75-.91-3.2-2.13-4.07-3.45-.81-1.23-1.02-2.38-.58-3.23s1.5-1.35,2.97-1.4c1.59-.05,3.42,.42,5.17,1.32,.82,.42,1.58,.92,2.25,1.48,.2,.17,.49,.15,.68-.04,.18-.19,.19-.48,.02-.68-.02-.02-1.59-1.84-2.09-2.71-1.95-3.38-2.09-7.1-.3-8.14,.83-.48,1.99-.33,3.26,.43,1.36,.81,2.65,2.2,3.64,3.9,.33,.57,1.31,2.68,1.32,2.7,.11,.23,.38,.35,.62,.26,.24-.08,.38-.34,.32-.59-.23-.93-.34-1.93-.34-2.96,0-3.9,1.74-7.2,3.8-7.2s3.8,3.3,3.8,7.2c0,1.35-.2,2.67-.59,3.81-.09,.26,.05,.53,.3,.63,.25,.09,.53-.03,.64-.28,.01-.02,1.03-2.5,1.62-3.51,.99-1.71,2.28-3.09,3.64-3.9,1.27-.76,2.42-.91,3.26-.43,1.79,1.03,1.65,4.76-.3,8.13-.78,1.35-1.76,2.51-2.82,3.34-.22,.17-.26,.48-.09,.7,.17,.22,.48,.26,.7,.09,.36-.29,.72-.6,1.06-.95,.61-.47,1.28-.9,1.99-1.27,1.75-.91,3.59-1.37,5.17-1.32,1.48,.05,2.53,.55,2.97,1.4,.95,1.83-1.18,4.89-4.65,6.68-.99,.51-2,.88-3,1.1-.25,.06-.42,.29-.39,.55,.03,.26,.24,.44,.51,.44,0,0,1.29-.03,2.37-.03,3.9,0,7.2,1.74,7.2,3.8s-3.3,3.8-7.2,3.8c-1.18,0-2.34-.45-3.36-.85-.24-.09-.47-.18-.7-.27-.24-.09-.5,.02-.62,.25-.11,.23-.04,.5,.17,.64Z" stroke-width="0"/><path d="M24.87,15.12c-5.14,0-9.32,4.18-9.32,9.32s4.18,9.32,9.32,9.32,9.32-4.18,9.32-9.32-4.18-9.32-9.32-9.32Zm0,17.64c-4.59,0-8.32-3.73-8.32-8.32s3.73-8.32,8.32-8.32,8.32,3.73,8.32,8.32-3.73,8.32-8.32,8.32Z" stroke-width="0"/></g></g><g id="uuid-21e3fbdd-78a3-4285-a745-70b6297778d8"></g></svg>