<?xml version="1.0" encoding="UTF-8"?><svg width="70" height="70" id="uuid-c544dc66-553e-4db3-b3c2-b260b3f930ce" xmlns="http://www.w3.org/2000/svg" viewBox="-10 -10 70 70"><rect x="-10" y="-10" width="70" height="70" fill="white"/><path d="m45.02,15.73l-13-8.96,5.96.1-.02.02,6.81,4.76c.09,1.29.17,2.66.25,4.08Z" fill="#ffcd00" stroke-width="0"/><path d="m44.93,16.88l-5.18,3.57c-.47-.96-.96-1.94-1.47-2.92l3.78-2.62,2.87,1.97Z" fill="#ffcd00" stroke-width="0"/><path d="m44.3,5.97l-12.23-.2c.27-.4.5-.84.66-1.32l.47-1.4h10.81c.06.54.17,1.56.29,2.92Z" fill="#ffcd00" stroke-width="0"/><path d="m44.75,35.32c-.56,4.04-1.67,8.31-3.3,12.71-.22.57-.78.96-1.41.96h-3.65c-.8,0-1.46-.63-1.5-1.43l-.63-13.58c-.2-4.45-1.89-8.78-4.74-12.2l-3.93-4.7c-1.02-1.22-1.47-2.82-1.25-4.38.31-2.27,1.95-4.07,4.18-4.6l.26-.06c.7-.16,1.34-.45,1.9-.85,8.73,11.69,13.69,26.94,14.07,28.13Z" fill="#ffcd00" stroke-width="0"/><path d="m37.31,16.56c.51.98,1,1.96,1.47,2.92l5.18-3.57-2.87-1.97-3.78,2.62Zm7.78-1.01c.31,5.97.41,12.73-.18,17.85-.51,4.43-1.69,9.15-3.5,14.01-.35.96-1.3,1.61-2.34,1.61h-3.65c-1.34,0-2.44-1.05-2.5-2.39l-.62-13.57c-.2-4.24-1.8-8.36-4.52-11.61l-3.93-4.7c-1.19-1.43-1.73-3.31-1.47-5.16.36-2.64,2.35-4.82,4.94-5.43l.26-.06c.73-.17,1.38-.51,1.92-.98h0s0-.01.01-.01c.59-.51,1.04-1.18,1.3-1.95l.59-1.74c.07-.2.26-.34.47-.34h11.62c.26,0,.47.19.5.44.01.12.71,6.4,1.1,13.96l.04.02-.04.05Zm-1.05,16.48c.41-4.47.35-9.96.12-15.04l-4.94,3.4c2.34,4.91,3.97,9.21,4.82,11.64ZM31.05,5.8l13,8.96c-.08-1.42-.16-2.79-.25-4.08l-6.81-4.76.02-.02-5.96-.1Zm7.7.13l4.95,3.46c-.09-1.24-.19-2.38-.28-3.39l-4.67-.07Zm-7.65-1.13l12.23.2c-.12-1.36-.23-2.38-.29-2.92h-10.81l-.47,1.4c-.16.48-.39.92-.66,1.32Zm9.38,42.26c1.63-4.4,2.74-8.67,3.3-12.71-.38-1.19-5.34-16.44-14.07-28.13-.56.4-1.2.69-1.9.85l-.26.06c-2.23.53-3.87,2.33-4.18,4.6-.22,1.56.23,3.16,1.25,4.38l3.93,4.7c2.85,3.42,4.54,7.75,4.74,12.2l.63,13.58c.04.8.7,1.43,1.5,1.43h3.65c.63,0,1.19-.39,1.41-.96Zm-3.65-31.38l3.38-2.35-8.25-5.69c1.81,2.62,3.43,5.36,4.87,8.04Z" stroke-width="0"/><path d="m20.9,15.23c.33,1.53.58,3.02.76,4.5l-1.75-1.21-1.12-.78-3.73-2.58,2.87-1.99,2.97,2.06Z" fill="#ffcd00" stroke-width="0"/><path d="m13.3,9.96l-2.87,1.99-1.73-1.2c.4-1.32.8-2.63.99-3.3l3.61,2.51Z" fill="#ffcd00" stroke-width="0"/><path d="m6.7,19.73c.18-1.48.44-2.98.77-4.51l2.96-2.05.88-.61,2.87-1.99.88-.61,3.62-2.51c.18.67.58,1.99.98,3.31l-1.73,1.19-.88.61-2.87,1.99-.87.61-3.73,2.58-1.13.78-1.75,1.21Z" fill="#ffcd00" stroke-width="0"/><path d="m18.28,3.17c0,.86,0,1.75.1,2.63h-8.39c.09-.88.09-1.77.09-2.63v-.08h8.2v.08Z" fill="#ffcd00" stroke-width="0"/><path d="m8.3,30.45c.24,2.61,1.74,4.88,4.04,6.06.58.3,1.21.45,1.84.45s1.27-.15,1.85-.45c2.29-1.18,3.8-3.45,4.03-6.06.35-3.88.35-7.38.01-10.61l1.74,1.21c.47,4.68.31,9.38-.14,15.24-.33,4.23-1.16,8.17-2.5,11.78-.21.57-.78.96-1.4.96h-7.18c-.62,0-1.19-.39-1.42-1.02-1.32-3.55-2.15-7.49-2.48-11.72-.45-5.86-.61-10.56-.14-15.24l1.75-1.21c-.34,3.23-.34,6.73,0,10.61Z" fill="#ffcd00" stroke-width="0"/><path d="m17.78,16.73l1.12.78,1.75,1.21c-.18-1.48-.43-2.97-.76-4.5l-2.97-2.06-2.87,1.99,3.73,2.58Zm.02-5.18l1.75,1.22v-.02c-.06-.24-.3-1.05-.59-2l-1.16.8Zm-8.82-6.76h8.39c-.1-.88-.1-1.77-.1-2.63v-.08h-8.2v.08c0,.86,0,1.75-.09,2.63Zm2.81,29.82c.87.45,1.9.45,2.77,0,1.99-1.02,3.3-2.99,3.5-5.26.37-4.15.34-7.87-.08-11.27l-4.81-3.33-4.8,3.33c-.42,3.4-.45,7.12-.08,11.27.2,2.27,1.51,4.24,3.5,5.26Zm1.38-26.27l3.68-2.55h-7.36l3.68,2.55Zm-1.84,27.16c-2.3-1.18-3.8-3.45-4.04-6.06-.34-3.88-.34-7.38,0-10.61l-1.75,1.21c-.47,4.68-.31,9.38.14,15.24.33,4.23,1.16,8.17,2.48,11.72.23.63.8,1.02,1.42,1.02h7.18c.62,0,1.19-.39,1.4-.96,1.34-3.61,2.17-7.55,2.5-11.78.45-5.86.61-10.56.14-15.24l-1.74-1.21c.34,3.23.34,6.73-.01,10.61-.23,2.61-1.74,4.88-4.03,6.06-.58.3-1.21.45-1.85.45s-1.26-.15-1.84-.45Zm-2.65-29.06c-.19.67-.59,1.98-.99,3.3l1.73,1.2,2.87-1.99-3.61-2.51Zm-1.89,6.32l1.75-1.21-1.15-.8c-.29.95-.54,1.76-.6,2h0Zm.65,4.75l1.13-.78,3.73-2.58.87-.61,2.87-1.99.88-.61,1.73-1.19c-.4-1.32-.8-2.64-.98-3.31l-3.62,2.51-.88.61-2.87,1.99-.88.61-2.96,2.05c-.33,1.53-.59,3.03-.77,4.51l1.75-1.21Zm-.2,29.9c-1.37-3.7-2.22-7.73-2.56-12.05-.69-8.95-.71-15.24,1.14-22.85.09-.33.43-1.47.84-2.8.46-1.54,1-3.29,1.12-3.8.3-1.21.29-2.44.29-3.74v-.59c0-.28.22-.5.5-.5h9.21c.27,0,.5.22.5.5v.59c-.01,1.3-.02,2.53.28,3.74.13.51.65,2.24,1.12,3.78.4,1.33.76,2.48.84,2.82,1.85,7.61,1.83,13.9,1.14,22.85-.34,4.32-1.19,8.35-2.54,11.99-.38,1.02-1.32,1.67-2.36,1.67h-7.18c-1.04,0-1.98-.65-2.34-1.61Z" stroke-width="0"/></svg>