<?xml version="1.0" encoding="UTF-8"?><svg width="70" height="70" xmlns="http://www.w3.org/2000/svg" viewBox="-10 -10 70 70"><rect x="-10" y="-10" width="70" height="70" fill="white"/><g id="uuid-22d0b988-c301-458d-998f-8660928378df"><path d="m45.57,27.69c0,.11-.02.22-.06.32-.08.25-.26.46-.5.58l-5.62,2.77c-.45.22-1.04.05-1.3-.39l-2.99-5.07c-.09-.15-.25-.25-.42-.25h-1.2c-.25,0-.42.14-.48.35l-1.4,4.98c-.03.1-.02.2,0,.29l2.11,6.73c.17.53-.12,1.09-.65,1.26-.52.16-1.09-.14-1.25-.66l-2.25-7.16c-.06-.18-.06-.38-.01-.57l1.81-6.47.73-9.51c0-.18-.07-.36-.22-.46l-3.55-2.33c-.24-.16-.4-.41-.44-.7l-.84-5.91c-.08-.55.3-1.06.85-1.13.04-.01.09-.01.14-.01.49,0,.92.36.99.86l.74,5.24c.03.15.11.27.22.35l3.5,2.3c.06.04.12.06.18.08l3,.59s.1.01.15.01l4.62-.52c.13-.02.26-.09.34-.19.08-.11.12-.25.1-.38l-.57-3.76c-.04-.27.02-.53.18-.75.16-.21.39-.35.66-.39.55-.09,1.05.29,1.14.84l.8,5.3c.04.27-.03.54-.2.76-.16.21-.41.35-.68.38l-5.21.59c-.24.02-.42.21-.45.44l-.95,8.18c-.02.11,0,.22.06.31l2.45,4.16c.14.23.42.31.66.2l4.36-2.16c.24-.12.51-.13.76-.05.26.09.46.27.58.51.07.14.11.29.11.44Z" fill="#ffcd00" stroke-width="0"/><path d="m35.94,6.36c1.17,0,2.12.95,2.12,2.13s-.95,2.12-2.12,2.12-2.13-.95-2.13-2.12.96-2.13,2.13-2.13Z" fill="#ffcd00" stroke-width="0"/><path d="m25.5,23.49c.17.2.25.46.23.73-.02.26-.15.51-.35.68l-4.42,3.71c-.33.27-.79.31-1.16.09l-3.02-1.81c-.16-.09-.36-.09-.51,0-.16.09-.26.27-.25.45l.39,7.45c0,.17.09.33.23.42l3.81,2.39c.31.2.49.54.47.91l-.39,6.77c-.03.53-.47.94-1.05.94h0c-.55-.03-.97-.51-.94-1.06l.34-5.88c.01-.18-.08-.36-.23-.46l-4.43-2.78c-.18-.1-.4-.1-.56.02-.17.12-.24.33-.19.53l1.2,4.88c.08.32,0,.65-.23.9l-4.83,5.44c-.35.39-1.01.43-1.41.08-.2-.18-.32-.42-.33-.69-.02-.27.07-.52.25-.72l4.31-4.85c.1-.12.15-.29.11-.45l-1.46-5.91v-.11l-.03-.09-.71-8.54c-.01-.16-.09-.29-.22-.38-.12-.08-.29-.11-.43-.06l-2.65.86c-.13.04-.23.13-.29.25l-2.19,4.22c-.25.48-.87.68-1.35.43-.24-.12-.41-.33-.49-.59-.08-.25-.06-.52.06-.76l2.48-4.77c.12-.23.32-.41.58-.49l5.01-1.63c.1-.03.21-.05.31-.05h3.69c.18,0,.36.05.51.14l4.56,2.72c.18.11.42.09.58-.04l3.6-3.02c.42-.36,1.05-.3,1.41.12Z" fill="#ffcd00" stroke-width="0"/><path d="m12.97,16.64c1.18,0,2.13.95,2.13,2.12s-.95,2.13-2.13,2.13-2.12-.96-2.12-2.13.95-2.12,2.12-2.12Z" fill="#ffcd00" stroke-width="0"/></g><g id="uuid-90a664cb-1adc-445a-9a9e-f5e9a2dee45b"><path d="m48.84,12.49c.69,1.54.57,3.31-.3,4.74-.88,1.43-2.4,2.33-4.08,2.42h-.03c-.26,0-.48-.21-.5-.48,0-.27.2-.51.48-.52,1.35-.07,2.57-.79,3.28-1.94.7-1.15.79-2.57.23-3.81-.11-.25,0-.55.25-.66.26-.11.55,0,.67.25Z" stroke-width="0"/><path d="m46.73,12.92c.64.98.66,2.25.06,3.24-.55.89-1.54,1.44-2.59,1.44-.1,0-.21-.01-.32-.02-.27-.03-.47-.28-.44-.55.03-.28.28-.47.55-.44.8.08,1.53-.28,1.94-.95.42-.68.4-1.51-.04-2.17-.15-.23-.08-.54.15-.69s.54-.09.69.14Z" stroke-width="0"/><path d="m45.65,26.09c.23.48.27,1.03.1,1.53-.17.51-.53.92-1.01,1.15l-5.61,2.77c-.91.46-2.1.1-2.61-.77l-2.85-4.83h-.53s-1.25,4.46-1.25,4.46l2.07,6.6c.33,1.05-.26,2.17-1.31,2.5-.19.06-.4.09-.6.09-.88,0-1.64-.56-1.91-1.4l-2.24-7.16c-.12-.37-.12-.76-.02-1.14l1.79-6.38.69-9.11-3.3-2.18c-.48-.31-.8-.82-.88-1.38l-.84-5.92c-.15-1.09.61-2.11,1.7-2.26s2.11.61,2.26,1.69l.71,5.03,3.23,2.12,2.83.56,4.02-.45-.49-3.24c-.08-.53.05-1.06.37-1.49.31-.43.78-.71,1.31-.79,1.09-.16,2.11.59,2.27,1.68l.81,5.3c.08.54-.06,1.09-.39,1.52s-.83.71-1.37.77l-4.82.54-.89,7.62,2.13,3.62,3.95-1.95c.48-.24,1.02-.28,1.52-.11.51.18.92.53,1.16,1.01Zm-.85,1.21c.04-.1.06-.21.06-.32,0-.15-.04-.3-.11-.44-.12-.24-.32-.42-.58-.51-.25-.08-.52-.07-.76.05l-4.36,2.16c-.24.11-.52.03-.66-.2l-2.45-4.16c-.05-.09-.08-.2-.06-.31l.95-8.18c.03-.23.21-.42.45-.44l5.21-.59c.27-.03.52-.17.68-.38.17-.22.24-.49.2-.76l-.8-5.3c-.09-.55-.59-.93-1.14-.84-.27.04-.5.18-.66.39-.16.22-.22.48-.18.75l.57,3.76c.02.13-.02.27-.1.38-.08.1-.21.17-.34.19l-4.62.52c-.05,0-.1,0-.15-.01l-3-.59c-.06-.02-.12-.04-.18-.08l-3.5-2.3c-.11-.08-.19-.2-.22-.35l-.74-5.24c-.07-.5-.5-.86-.99-.86-.05,0-.1,0-.14.01-.55.07-.93.58-.85,1.13l.84,5.91c.04.29.2.54.44.7l3.55,2.33c.15.1.23.28.22.46l-.73,9.51-1.81,6.47c-.05.19-.05.39.01.57l2.25,7.16c.16.52.73.82,1.25.66.53-.17.82-.73.65-1.26l-2.11-6.73c-.02-.09-.03-.19,0-.29l1.4-4.98c.06-.21.23-.36.48-.36h1.2c.17,0,.33.11.42.26l2.99,5.07c.26.44.85.61,1.3.39l5.62-2.77c.24-.12.42-.33.5-.58Z" stroke-width="0"/><path d="m35.23,4.65c1.72,0,3.12,1.4,3.12,3.13s-1.4,3.12-3.12,3.12-3.13-1.4-3.13-3.12,1.4-3.13,3.13-3.13Zm2.12,3.13c0-1.18-.95-2.13-2.12-2.13s-2.13.95-2.13,2.13.96,2.12,2.13,2.12,2.12-.95,2.12-2.12Z" stroke-width="0"/><path d="m25.92,35.64c.34,1.13.08,2.36-.67,3.27-.1.12-.24.18-.38.18-.12,0-.23-.03-.32-.11-.21-.17-.25-.49-.07-.7.54-.66.72-1.55.48-2.36-.23-.82-.86-1.47-1.68-1.73-.26-.09-.4-.37-.32-.63.09-.27.37-.41.63-.32,1.13.36,2,1.26,2.33,2.4Z" stroke-width="0"/><path d="m25.55,22.13c.35.41.51.93.46,1.47-.04.53-.29,1.01-.7,1.35l-4.42,3.71c-.65.55-1.58.62-2.31.19l-2.22-1.33.33,6.28,3.59,2.26c.61.38.97,1.08.93,1.81l-.39,6.77c-.06,1.05-.94,1.88-2,1.88h-.12c-1.1-.07-1.94-1.01-1.88-2.12l.33-5.58-3.14-1.97.91,3.68c.16.64-.01,1.31-.45,1.8l-4.83,5.44c-.38.43-.93.67-1.5.67-.49,0-.96-.18-1.32-.5-.4-.36-.64-.85-.67-1.38s.14-1.05.5-1.45l4.13-4.65-1.39-5.65c0-.07-.02-.13-.03-.2,0,0-.02-.06-.02-.13l-.66-7.94-1.86.6-2.1,4.04c-.49.96-1.74,1.35-2.69.86-.47-.25-.82-.66-.99-1.17-.16-.51-.11-1.05.14-1.53l2.47-4.77c.24-.47.65-.82,1.16-.98l5.01-1.63c.2-.07.41-.1.62-.1h3.69c.36,0,.71.1,1.02.28l4.26,2.54,3.33-2.79c.84-.71,2.1-.6,2.81.24Zm-.53,1.38c.02-.27-.06-.53-.23-.73-.36-.42-.99-.48-1.41-.12l-3.6,3.02c-.16.13-.4.15-.58.04l-4.56-2.72c-.15-.09-.33-.14-.51-.14h-3.69c-.1,0-.21.02-.31.05l-5.01,1.63c-.26.08-.46.26-.58.49l-2.48,4.77c-.12.24-.14.51-.06.76.08.26.25.47.49.59.48.25,1.1.05,1.35-.43l2.19-4.22c.06-.12.16-.21.29-.25l2.65-.86c.14-.05.31-.02.43.06.13.09.21.22.22.38l.71,8.54s.02.06.02.09v.11s1.47,5.91,1.47,5.91c.04.16,0,.33-.11.45l-4.31,4.85c-.18.2-.27.45-.25.72,0,.27.13.51.33.69.4.35,1.06.31,1.41-.08l4.83-5.44c.22-.25.31-.58.23-.9l-1.2-4.88c-.05-.2.02-.41.19-.53.16-.12.38-.12.56-.02l4.43,2.78c.15.1.24.28.23.46l-.34,5.88c-.03.55.39,1.03.94,1.06h0c.58,0,1.02-.41,1.05-.94l.39-6.77c.02-.37-.16-.71-.47-.91l-3.81-2.39c-.14-.09-.23-.25-.23-.42l-.39-7.45c-.01-.18.09-.36.25-.45.15-.1.35-.1.51,0l3.02,1.81c.37.22.83.18,1.16-.09l4.42-3.71c.2-.17.33-.42.35-.68Z" stroke-width="0"/><path d="m24.03,36.32c.23.81-.03,1.69-.66,2.26-.1.08-.21.12-.33.12-.14,0-.28-.05-.38-.16-.18-.21-.16-.53.05-.71.35-.31.49-.79.36-1.23-.13-.45-.5-.77-.97-.85-.27-.04-.46-.29-.42-.57.05-.27.31-.45.58-.41.84.13,1.53.74,1.77,1.55Z" stroke-width="0"/><path d="m12.26,14.93c1.73,0,3.13,1.4,3.13,3.12s-1.4,3.13-3.13,3.13-3.12-1.41-3.12-3.13,1.4-3.12,3.12-3.12Zm2.13,3.12c0-1.17-.95-2.12-2.13-2.12s-2.12.95-2.12,2.12.95,2.13,2.12,2.13,2.13-.96,2.13-2.13Z" stroke-width="0"/><path d="m3.52,10.35c-.06-.25.22-.63.74-.77.12-.03.24-.05.35-.05.14,0,.27.02.39.07.09.04.25.12.29.27h0s0,.06,0,.08c0,.13-.08.24-.13.31-.14.18-.36.32-.62.39-.26.06-.53.06-.73-.03-.1-.03-.26-.12-.3-.27Z" fill="#ffcd00" stroke-width="0"/><path d="m14.69,9.94c-.4-.1-.66-.38-.61-.57.03-.15.26-.27.54-.27.09,0,.17.01.27.03.21.06.4.16.51.3.05.06.12.17.1.28-.03.11-.15.17-.21.2-.17.07-.39.08-.6.03Z" fill="#ffcd00" stroke-width="0"/><path d="m19.7,10.91c-.17.11-.42.13-.67.07-.41-.1-.66-.38-.61-.57.03-.15.25-.27.54-.27.08,0,.17.01.26.03.25.06.47.2.57.37.03.05.06.13.05.21-.02.08-.09.13-.14.16Z" fill="#ffcd00" stroke-width="0"/><path d="m19.03,10.98c.25.06.5.04.67-.07.05-.03.12-.08.14-.16.01-.08-.02-.16-.05-.21-.1-.17-.32-.31-.57-.37-.09-.02-.18-.03-.26-.03-.29,0-.51.12-.54.27-.05.19.2.47.61.57Zm-4.08-.01c-.16,0-.33-.02-.49-.06-.95-.22-1.54-1-1.35-1.78.18-.77,1.06-1.19,2.01-.97.25.06.47.18.67.31l.6-2.5c.06-.24.28-.4.54-.38l4.49.41c.14.02.27.09.36.21.08.12.11.27.08.41l-1.07,4.43c-.1.3-.36.59-.57.71-.26.17-.59.25-.93.25-.16,0-.33-.02-.49-.06-.95-.22-1.54-1-1.36-1.78.19-.77,1.08-1.19,2.02-.97.25.06.48.16.68.3l.61-2.56-3.48-.32-.81,3.39s-.04.07-.05.1c-.13.31-.38.57-.73.72-.22.09-.47.14-.73.14Zm-.33-1.87c-.28,0-.51.12-.54.27-.05.19.21.47.61.57.21.05.43.04.6-.03.06-.03.18-.09.21-.2.02-.11-.05-.22-.1-.28-.11-.14-.3-.24-.51-.3-.1-.02-.18-.03-.27-.03Z" stroke-width="0"/><path d="m4.2,11.69c-.27,0-.52-.04-.75-.14-.46-.18-.78-.52-.89-.94-.23-.84.41-1.72,1.44-2,.32-.08.64-.08.94-.03l-.78-2.91c-.07-.27.09-.55.36-.62l2.22-.59c.27-.07.54.09.61.35.07.27-.08.54-.35.61l-1.74.47.99,3.72h.01s.01.08.01.08c.02.05.01.09.01.13.04.36-.07.74-.32,1.06-.28.35-.69.61-1.15.73-.21.06-.41.08-.61.08Zm.06-2.11c-.52.14-.8.52-.74.77.04.15.2.24.3.27.2.09.47.09.73.03.26-.07.48-.21.62-.39.05-.07.13-.18.13-.31,0-.02,0-.05,0-.07h0c-.04-.16-.2-.24-.29-.28-.12-.05-.25-.07-.39-.07-.11,0-.23.02-.35.05Z" stroke-width="0"/></g></svg>