<?xml version="1.0" encoding="UTF-8"?><svg width="70" height="70" xmlns="http://www.w3.org/2000/svg" viewBox="-10 -10 70 70"><rect x="-10" y="-10" width="70" height="70" fill="white"/><g id="uuid-0ff87e54-deb6-4a28-bd32-c5103363daac"><path d="m26.34,8.47c1.28,0,2.32,1.05,2.32,2.33s-1.04,2.33-2.32,2.33-2.33-1.05-2.33-2.33,1.04-2.33,2.33-2.33Z" fill="#ffcd00" stroke-width="0"/><path d="m18.42,4.1l1.32,5.3,2.56,6.05c.07.18.25.3.44.3l6.99.26,5.07.71s.08,0,.12,0l5.11-.47c.27-.03.55.05.77.22l.05.04c.23.18.38.44.42.73.03.29-.04.57-.22.8-.19.24-.46.39-.76.42-3.32.3-5.41.49-5.55.49l-5.51-.72c-.26-.03-.51.15-.56.41l-1.52,8.07c-.03.14,0,.28.09.39.08.11.21.18.35.2l6.04.53c.38.04.7.27.87.62.17.34.15.74-.05,1.07l-4.34,7.07c-.36.59-1.23.7-1.74.2-.36-.35-.41-.95-.12-1.43l2.98-4.85c.09-.15.09-.33.02-.48-.08-.16-.22-.26-.39-.28l-3.88-.45h-.14l-3.25.58c-.13.02-.25.1-.32.21-.08.11-.11.25-.08.38l1.41,6.54,2.8,9.04c.09.29.06.59-.08.85-.14.27-.37.46-.65.55-.59.18-1.22-.16-1.4-.74l-2.85-9.21-1.87-8.24c-.2-.86-.28-1.76-.25-2.65l.33-9.12s.02-.09.02-.1c0-.08,0-.15-.04-.22l-2.96-6.98-1.41-5.64c-.08-.32-.02-.66.17-.92.2-.27.49-.44.83-.47.54-.03,1.04.36,1.18.93Z" fill="#ffcd00" stroke-width="0"/></g><g id="uuid-ee94cc2c-f6b6-4d5f-b312-5c87e7ffab22"><path d="m38.11,10.25c-.39-.1-.59-.37-.56-.51.03-.12.22-.23.49-.23.07,0,.15.01.24.03.39.09.6.36.56.51-.02.09-.14.15-.18.17-.15.06-.35.07-.55.03Z" fill="#ffcd00" stroke-width="0"/><path d="m34.01,9.26c-.4-.09-.6-.36-.56-.51.02-.09.13-.15.18-.17.09-.04.2-.06.31-.06.08,0,.16,0,.24.03.39.1.59.37.56.51-.03.12-.22.23-.48.23-.08,0-.16-.01-.25-.03Z" fill="#ffcd00" stroke-width="0"/><path d="m12.32,31.93c-.09-.04-.25-.12-.29-.28-.07-.25.22-.63.74-.77.12-.03.24-.05.35-.05.35,0,.62.16.67.35,0,.03,0,.05,0,.08,0,.08-.03.17-.07.22-.12.21-.37.39-.68.47-.26.07-.52.06-.73-.02Z" fill="#ffcd00" stroke-width="0"/><path d="m39.31,26.18c-.37-1.41-1.41-2.56-2.79-3.06-.26-.1-.39-.38-.3-.64.1-.26.38-.4.64-.3,1.69.61,2.97,2.02,3.41,3.75.45,1.74.01,3.59-1.18,4.94-.1.11-.24.17-.38.17-.11,0-.23-.04-.33-.12-.2-.19-.23-.5-.04-.71.97-1.1,1.33-2.61.97-4.03Z" stroke-width="0"/><path d="m35.62,24.13c1.22.23,2.21,1.16,2.51,2.35.31,1.2-.11,2.48-1.07,3.28-.09.07-.2.11-.32.11-.14,0-.28-.06-.38-.18-.18-.21-.15-.53.06-.7.67-.56.96-1.42.74-2.26-.21-.83-.87-1.46-1.73-1.62-.27-.05-.45-.32-.4-.59.06-.27.32-.45.59-.39Z" stroke-width="0"/><path d="m38.11,10.25c.2.04.4.03.55-.03.04-.02.16-.08.18-.17.04-.15-.17-.42-.56-.51-.09-.02-.17-.03-.24-.03-.27,0-.46.11-.49.23-.03.14.17.41.56.51Zm-4.87-2.59c.35-.15.77-.18,1.17-.08.23.05.44.15.62.26l.56-2.31c.05-.25.27-.41.53-.39l4.24.4c.15.01.28.08.36.2.09.12.12.27.08.41l-1,4.19c-.02.06-.04.11-.07.16-.13.27-.37.5-.68.64-.21.09-.45.14-.7.14-.16,0-.32-.02-.47-.06-.91-.22-1.48-.97-1.3-1.72.18-.74,1.03-1.15,1.93-.94.23.06.44.15.62.26l.56-2.34-3.23-.3-.75,3.12-.02.06c-.01.07-.05.14-.1.2-.24.45-.74.73-1.33.73-.16,0-.32-.02-.49-.05-.9-.22-1.47-.98-1.29-1.72.09-.38.36-.69.76-.86Zm.77,1.6c.09.02.17.03.25.03.26,0,.45-.11.48-.23.03-.14-.17-.41-.56-.51-.08-.02-.16-.03-.24-.03-.11,0-.22.02-.31.06-.05.02-.16.08-.18.17-.04.15.16.42.56.51Z" stroke-width="0"/><path d="m25.63,13.42c-1.84,0-3.33-1.5-3.33-3.33s1.49-3.33,3.33-3.33,3.32,1.5,3.32,3.33-1.49,3.33-3.32,3.33Zm-2.33-3.33c0,1.28,1.04,2.33,2.33,2.33s2.32-1.05,2.32-2.33-1.04-2.33-2.32-2.33-2.33,1.05-2.33,2.33Z" stroke-width="0"/><path d="m19.03,8.69l-1.32-5.3c-.14-.57-.64-.96-1.18-.93-.34.03-.63.2-.83.47-.19.26-.25.6-.17.92l1.41,5.64,2.96,6.98c.03.07.04.14.04.22,0,0-.01.09-.02.1l-.33,9.12c-.03.89.05,1.79.25,2.65l1.87,8.24,2.85,9.21c.18.58.81.92,1.4.74.28-.09.51-.28.65-.55.14-.26.17-.56.08-.85l-2.8-9.04-1.41-6.54c-.03-.13,0-.27.08-.38.07-.11.19-.19.32-.21l3.25-.58h.14l3.88.45c.17.02.31.12.39.28.07.15.07.33-.02.48l-2.98,4.85c-.29.48-.24,1.08.12,1.43.51.5,1.38.39,1.74-.2l4.34-7.07c.2-.33.22-.73.05-1.07-.17-.35-.49-.58-.87-.62l-6.04-.53c-.14-.02-.27-.09-.35-.2-.09-.11-.12-.25-.09-.39l1.52-8.07c.05-.26.3-.44.56-.41l5.51.72c.14,0,2.23-.19,5.55-.49.3-.03.57-.18.76-.42.18-.23.25-.51.22-.8-.04-.29-.19-.55-.42-.73l-.05-.04c-.22-.17-.5-.25-.77-.22l-5.11.47s-.08,0-.12-.01l-5.07-.71-6.99-.26c-.19,0-.37-.12-.44-.3l-2.56-6.05Zm-4.47-4.6c-.15-.6-.03-1.24.33-1.75.36-.5.93-.82,1.56-.87,1.03-.08,1.98.64,2.23,1.68l1.3,5.23,2.41,5.68,6.72.24,5.06.71,5.06-.46c.53-.05,1.05.11,1.47.43l.05.04c.91.71,1.08,2.02.38,2.93-.35.46-.89.76-1.46.81-5.61.51-5.69.5-5.77.48l-5.04-.65-1.34,7.06,5.5.48c.73.09,1.35.53,1.67,1.18s.28,1.41-.1,2.03l-4.33,7.07c-.39.64-1.07,1.02-1.81,1.02-.56,0-1.09-.22-1.49-.62-.69-.68-.8-1.8-.27-2.67l2.56-4.19-3.02-.35-2.66.47,1.28,5.99,2.8,9c.16.54.11,1.11-.15,1.61-.27.5-.71.87-1.25,1.03-.2.07-.41.1-.62.1-.94,0-1.75-.6-2.02-1.49l-2.82-9.09s-.03-.09-.03-.1l-1.9-8.34c-.21-.95-.3-1.92-.27-2.9l.34-9.12v-.02l-3.02-7.18-1.35-5.47Z" stroke-width="0"/><path d="m12.55,11.33c-.35-.82-.18-1.79.43-2.45.18-.21.5-.22.7-.04.21.19.22.5.04.71-.35.39-.45.92-.25,1.4s.64.79,1.17.81c.27.02.48.25.47.53-.01.26-.23.47-.5.47h-.02c-.9-.04-1.7-.6-2.04-1.43Z" stroke-width="0"/><path d="m12.03,31.65c.04.16.2.24.29.28.21.08.47.09.73.02.31-.08.56-.26.68-.47.04-.05.07-.14.07-.22,0-.03,0-.05,0-.08-.05-.19-.32-.35-.67-.35-.11,0-.23.02-.35.05-.52.14-.81.52-.74.77Zm.67,1.35c-.26,0-.52-.05-.75-.14-.45-.18-.78-.53-.89-.95-.22-.84.41-1.72,1.45-1.99.32-.09.64-.1.93-.06l-.77-2.89c-.07-.27.08-.54.35-.61l2.22-.6c.28-.07.54.09.62.36.07.26-.09.54-.36.61l-1.74.46,1,3.73.02.08c.02.08.01.16,0,.24,0,.25-.04.5-.18.74-.26.44-.73.79-1.29.94-.2.05-.41.08-.61.08Z" stroke-width="0"/><path d="m11.52,11.9c.35.86,1.11,1.49,2.03,1.68.27.06.44.32.38.59-.04.24-.25.4-.48.4-.04,0-.07-.01-.11-.01-1.23-.26-2.26-1.11-2.75-2.27-.48-1.17-.36-2.5.34-3.55.15-.24.46-.3.69-.15s.29.46.14.69c-.51.78-.6,1.76-.24,2.62Z" stroke-width="0"/></g></svg>