<?xml version="1.0" encoding="UTF-8"?><svg width="70" height="70" id="uuid-106a2a82-83b2-44be-b568-e9ddec3cb413" xmlns="http://www.w3.org/2000/svg" viewBox="-10 -10 70 70"><rect x="-10" y="-10" width="70" height="70" fill="white"/><path d="M10.87,20.83h-2.08c-.28,0-.5-.22-.5-.5v-4.41c0-1.21,.98-2.19,2.19-2.19h31.96c1.21,0,2.19,.98,2.19,2.19v3.91h2.36v-5.8c0-1.55-1.26-2.81-2.81-2.81H8.74c-1.55,0-2.81,1.26-2.81,2.81v6.3c0,.28-.22,.5-.5,.5h-2l3.72,6.45,3.72-6.45Z" fill="#ffcd00" stroke-width="0"/><path d="M42.05,31.7h2.08c.28,0,.5,.22,.5,.5v4.41c0,1.21-.98,2.19-2.19,2.19H10.48c-1.21,0-2.19-.98-2.19-2.19v-3.91h-2.36v5.8c0,1.55,1.26,2.81,2.81,2.81H44.19c1.55,0,2.81-1.26,2.81-2.81v-6.3c0-.28,.22-.5,.5-.5h2l-3.72-6.45-3.72,6.45Z" fill="#ffcd00" stroke-width="0"/><g><path d="M5.6,27.28c.18,0,.34-.1,.43-.25l4.6-7.96c.09-.15,.09-.35,0-.5s-.25-.25-.43-.25h-2.45v-3.92c0-.66,.54-1.19,1.19-1.19H40.97c.66,0,1.19,.54,1.19,1.19v4.42c0,.28,.22,.5,.5,.5h3.37c.28,0,.5-.22,.5-.5v-6.32c0-2.1-1.71-3.82-3.82-3.82H7.19c-2.1,0-3.82,1.71-3.82,3.82v5.82H1c-.18,0-.34,.1-.43,.25s-.09,.35,0,.5l4.6,7.96c.09,.15,.25,.25,.43,.25Zm-1.73-7.96c.28,0,.5-.22,.5-.5v-6.32c0-1.55,1.26-2.82,2.82-2.82H42.71c1.55,0,2.82,1.26,2.82,2.82v5.82h-2.37v-3.92c0-1.21-.98-2.19-2.19-2.19H8.94c-1.21,0-2.19,.98-2.19,2.19v4.42c0,.28,.22,.5,.5,.5h2.09l-3.73,6.46-3.73-6.46H3.87Z" stroke-width="0"/><path d="M49.34,30.47l-4.6-7.96c-.18-.31-.69-.31-.87,0l-4.6,7.96c-.09,.15-.09,.35,0,.5s.25,.25,.43,.25h2.45v3.92c0,.66-.54,1.19-1.19,1.19H8.94c-.66,0-1.19-.54-1.19-1.19v-4.42c0-.28-.22-.5-.5-.5H3.87c-.28,0-.5,.22-.5,.5v6.32c0,2.1,1.71,3.82,3.82,3.82H42.71c2.1,0,3.82-1.71,3.82-3.82v-5.82h2.37c.18,0,.34-.1,.43-.25s.09-.35,0-.5Zm-3.31-.25c-.28,0-.5,.22-.5,.5v6.32c0,1.55-1.26,2.82-2.82,2.82H7.19c-1.55,0-2.82-1.26-2.82-2.82v-5.82h2.37v3.92c0,1.21,.98,2.19,2.19,2.19H40.97c1.21,0,2.19-.98,2.19-2.19v-4.42c0-.28-.22-.5-.5-.5h-2.09l3.73-6.46,3.73,6.46h-2.01Z" stroke-width="0"/></g></svg>