<?xml version="1.0" encoding="UTF-8"?><svg width="70" height="70" xmlns="http://www.w3.org/2000/svg" viewBox="-10 -10 70 70"><rect x="-10" y="-10" width="70" height="70" fill="white"/><g id="uuid-48c88b62-65d2-4577-8e56-8a8b223fa18d"><path d="M16.76,42.54c-2.21,0-4-1.79-4-4s1.79-4,4-4,4,1.8,4,4-1.8,4-4,4Z" fill="#ffcd00" stroke-width="0"/><path d="M12.76,25.66c0-2.2,1.79-4,4-4s4,1.8,4,4-1.8,4-4,4-4-1.79-4-4Z" fill="#ffcd00" stroke-width="0"/><path d="M12.76,12.78c0-2.2,1.79-4,4-4s4,1.8,4,4-1.8,4-4,4-4-1.79-4-4Z" fill="#ffcd00" stroke-width="0"/></g><g id="uuid-df6fa4c1-a731-4018-a79c-6570f5ba4b16"><path d="M39.55,11.56c.28,0,.5.23.5.5s-.22.5-.5.5h-15.8c-.27,0-.5-.22-.5-.5s.23-.5.5-.5h15.8Z" stroke-width="0"/><path d="M39.55,24.44c.28,0,.5.23.5.5s-.22.5-.5.5h-15.8c-.27,0-.5-.22-.5-.5s.23-.5.5-.5h15.8Z" stroke-width="0"/><path d="M39.55,37.32c.28,0,.5.23.5.5s-.22.5-.5.5h-15.8c-.27,0-.5-.22-.5-.5s.23-.5.5-.5h15.8Z" stroke-width="0"/><rect x="13.81" y="37.46" width="4.45" height="1.11"/><polygon points="15.35 25.48 13.58 25.48 13.58 24.2 15.35 24.2 15.35 22.29 16.7 22.29 16.7 24.2 18.46 24.2 18.46 25.48 16.7 25.48 16.7 27.47 15.35 27.47 15.35 25.48"/><polygon points="15.35 12.68 13.58 12.68 13.58 11.4 15.35 11.4 15.35 9.49 16.7 9.49 16.7 11.4 18.46 11.4 18.46 12.68 16.7 12.68 16.7 14.67 15.35 14.67 15.35 12.68"/><path d="M11.04,12.06c0-2.75,2.24-5,5-5s5,2.25,5,5-2.25,5-5,5-5-2.24-5-5ZM16.04,8.06c-2.21,0-4,1.8-4,4s1.79,4,4,4,4-1.79,4-4-1.8-4-4-4Z" stroke-width="0"/><path d="M11.04,24.94c0-2.75,2.24-5,5-5s5,2.25,5,5-2.25,5-5,5-5-2.24-5-5ZM16.04,20.94c-2.21,0-4,1.8-4,4s1.79,4,4,4,4-1.79,4-4-1.8-4-4-4Z" stroke-width="0"/><path d="M11.04,37.82c0-2.75,2.24-5,5-5s5,2.25,5,5-2.25,5-5,5-5-2.24-5-5ZM12.04,37.82c0,2.21,1.79,4,4,4s4-1.79,4-4-1.8-4-4-4-4,1.8-4,4Z" stroke-width="0"/><path d="M43.19,46.58V2.57H7.9v44.01h35.29ZM44.19,2.07v45.01c0,.28-.22.5-.5.5H7.4c-.28,0-.5-.22-.5-.5V2.07c0-.28.22-.5.5-.5h36.29c.28,0,.5.22.5.5Z" stroke-width="0"/></g></svg>