<?xml version="1.0" encoding="UTF-8"?><svg width="70" height="70" xmlns="http://www.w3.org/2000/svg" viewBox="-10 -10 70 70"><rect x="-10" y="-10" width="70" height="70" fill="white"/><g id="uuid-7d76d9b9-2d7e-43e1-b43e-3756936341dd"><g><path d="M23.62,34.61c0,1.16,.94,2.1,2.1,2.1s2.1-.94,2.1-2.1-.94-2.11-2.1-2.11-2.1,.95-2.1,2.11Zm2.78-7.34c-.98,0-1.77,.8-1.77,1.77s.79,1.78,1.77,1.78,1.77-.8,1.77-1.78-.79-1.77-1.77-1.77Zm-3.31,4.02c0-1.52-1.23-2.75-2.74-2.75s-2.74,1.23-2.74,2.75,1.23,2.74,2.74,2.74,2.74-1.23,2.74-2.74Zm-8.52,13.59V23.86l10.51,.13c1.52,0,2.9,.62,3.89,1.61,.99,1,1.61,2.38,1.61,3.89v14.51c0,.56-.45,1-1.01,1l-15-.12Zm5.3-9.17c-1.94,0-3.52,1.58-3.52,3.52s1.58,3.52,3.52,3.52,3.52-1.58,3.52-3.52-1.58-3.52-3.52-3.52Z" fill="#ffcd00" stroke-width="0"/><polygon points="27.58 9 27.58 12.56 26.56 12.56 16.15 12.56 15.13 12.56 15.13 9 27.58 9" fill="#ffcd00"/><rect x="16.65" y="2.91" width="9.41" height="5.09" fill="#ffcd00"/><path d="M25.48,26.31c-.98,0-1.77,.8-1.77,1.77s.79,1.78,1.77,1.78,1.77-.8,1.77-1.78-.79-1.77-1.77-1.77Zm0,2.55c-.43,0-.77-.35-.77-.78s.34-.77,.77-.77,.77,.35,.77,.77-.34,.78-.77,.78Zm.16-13.45c-1.12,0-2.02,.9-2.02,2.02,0,1.04,.79,1.91,1.81,2.01,.07,.01,.14,.01,.21,.01,4.34,0,7.87,3.53,7.87,7.86,0,1.12,.9,2.02,2.02,2.02s2.02-.9,2.02-2.02c0-.82-.08-1.62-.24-2.39-1.11-5.42-5.92-9.51-11.67-9.51Zm9.89,12.92c-.57,0-1.02-.45-1.02-1.02,0-4.88-3.98-8.86-8.87-8.86-.56,0-1.02-.46-1.02-1.02s.46-1.02,1.02-1.02c6.01,0,10.91,4.89,10.91,10.9,0,.57-.46,1.02-1.02,1.02Zm-10.73,3.21c-1.16,0-2.1,.95-2.1,2.11s.94,2.1,2.1,2.1,2.1-.94,2.1-2.1-.94-2.11-2.1-2.11Zm0,3.21c-.61,0-1.1-.49-1.1-1.1s.49-1.11,1.1-1.11,1.1,.5,1.1,1.11-.49,1.1-1.1,1.1Zm-5.37-1.68c1.51,0,2.74-1.23,2.74-2.74s-1.23-2.75-2.74-2.75-2.74,1.23-2.74,2.75,1.23,2.74,2.74,2.74Zm0-4.49c.96,0,1.74,.79,1.74,1.75s-.78,1.74-1.74,1.74-1.74-.78-1.74-1.74,.78-1.75,1.74-1.75Zm-.48,6.17c-1.94,0-3.52,1.58-3.52,3.52s1.58,3.52,3.52,3.52,3.52-1.58,3.52-3.52-1.58-3.52-3.52-3.52Zm0,6.04c-1.39,0-2.52-1.13-2.52-2.52s1.13-2.52,2.52-2.52,2.52,1.13,2.52,2.52-1.13,2.52-2.52,2.52Zm6.07-18.69c-.28-.05-.56-.07-.85-.07l-11.01-.13c-.15,.01-.27,.05-.36,.14-.09,.1-.15,.22-.15,.36v22.01c0,.28,.22,.5,.5,.5l17.01,.14c.14,0,.26-.05,.36-.15,.09-.09,.14-.22,.14-.35V28.53c0-3.29-2.46-6.02-5.64-6.43Zm4.64,21.95l-16.01-.13V22.9l10.51,.13c1.52,0,2.9,.62,3.89,1.61,.99,1,1.61,2.38,1.61,3.89v15.52Zm-2-32.3V7.54c0-.28-.22-.5-.5-.5h-1.02V1.45c0-.28-.22-.5-.5-.5H15.23c-.27,0-.5,.22-.5,.5V7.04h-1.02c-.28,0-.5,.22-.5,.5v4.38c-2.64,.86-4.56,3.34-4.56,6.27v27.32c0,1.95,1.59,3.54,3.54,3.54h25.62c1.95,0,3.54-1.59,3.54-3.54V27.31c0-7.97-5.98-14.56-13.69-15.56ZM15.73,1.95h9.41V7.04H15.73V1.95Zm-1.52,6.09h12.45v3.56H14.21v-3.56Zm26.14,37.47c0,1.4-1.14,2.54-2.54,2.54H12.19c-1.4,0-2.54-1.14-2.54-2.54V18.19c0-3.08,2.5-5.59,5.58-5.59h10.41c7.12,0,13.08,5.09,14.42,11.83,.19,.93,.29,1.9,.29,2.88v18.2Z" stroke-width="0"/></g></g><g id="uuid-aa5a095e-69fb-4e83-8779-2b1859fcdc78"></g></svg>