<?xml version="1.0" encoding="UTF-8"?><svg width="70" height="70" xmlns="http://www.w3.org/2000/svg" viewBox="-10 -10 70 70"><rect x="-10" y="-10" width="70" height="70" fill="white"/><g id="uuid-1963455b-9f3e-4d51-a7d2-8e48eaa33daf"><path d="M48.72,12.46v5.97h-8.64s.03-.03.04-.05c.19-.25.46-.58.46-1.18s-.27-.94-.46-1.19c-.15-.19-.23-.3-.23-.56s.08-.37.23-.56c.19-.24.46-.57.46-1.18s-.27-.94-.46-1.18c-.01-.03-.03-.05-.05-.07h8.65Z" fill="#ffcd00" stroke-width="0"/><path d="M11.32,14.88c.15.19.23.3.23.56s-.08.37-.23.57c-.19.24-.46.57-.46,1.18s.27.94.46,1.18c.01.02.03.04.05.06H2.72v-5.97h8.64s-.03.04-.04.06c-.19.24-.46.57-.46,1.18s.27.94.46,1.18Z" fill="#ffcd00" stroke-width="0"/></g><g id="uuid-784f4494-7bc2-439b-a5d7-062bff691f7f"><path d="M46.94,23.63c-7.79,0-14.12,6.33-14.12,14.12v5.53c8.25-2.99,14.31-10.58,15.09-19.65h-.97ZM39.35,11.74s.04.04.05.07c.19.24.46.57.46,1.18s-.27.94-.46,1.18c-.15.19-.23.3-.23.56s.08.37.23.56c.19.25.46.58.46,1.19s-.27.93-.46,1.18c-.01.02-.03.04-.04.05h8.64v-5.97h-8.65ZM2,11.74v5.97h8.65s-.04-.04-.05-.06c-.19-.24-.46-.57-.46-1.18s.27-.94.46-1.18c.15-.2.23-.3.23-.57s-.08-.37-.23-.56c-.19-.24-.46-.57-.46-1.18s.27-.94.46-1.18c.01-.02.03-.04.04-.06H2ZM4.18,5.52c.55.49,1.03.92,2.01.92s1.47-.43,2.02-.92c.62-.55,1.32-1.17,2.68-1.17s2.07.62,2.68,1.17c.56.49,1.04.92,2.02.92s1.46-.43,2.02-.92c.62-.55,1.32-1.17,2.68-1.17s2.06.62,2.68,1.17c.56.49,1.03.92,2.02.92s1.46-.43,2.02-.92c.61-.55,1.31-1.17,2.68-1.17s2.06.62,2.68,1.17c.55.49,1.03.92,2.02.92s1.46-.43,2.01-.92c.62-.55,1.32-1.17,2.69-1.17s2.07.62,2.68,1.17c.56.49,1.04.92,2.02.92s1.47-.43,2.02-.92c.62-.55,1.32-1.17,2.69-1.17.13,0,.26.05.35.15.1.09.15.22.15.35v16.8c0,13.23-10.77,24-24,24S1,34.88,1,21.65V4.85c0-.28.22-.5.5-.5,1.36,0,2.06.62,2.68,1.17ZM3.06,22.63c8.34,0,15.12,6.78,15.12,15.12v5.87c2.16.67,4.45,1.03,6.82,1.03s4.66-.36,6.82-1.03v-5.87c0-8.34,6.78-15.12,15.12-15.12h1.04c.01-.33.02-.65.02-.98v-2.94h-9.33c-.28,0-.5-.22-.5-.5,0-.61.26-.94.45-1.18.15-.19.24-.29.24-.55s-.09-.37-.24-.57c-.19-.24-.45-.57-.45-1.18s.26-.94.45-1.18c.15-.19.24-.3.24-.56s-.09-.37-.24-.56c-.19-.25-.45-.58-.45-1.19,0-.27.22-.5.5-.5h9.33v-5.35c-.67.12-1.07.48-1.52.88-.62.55-1.32,1.17-2.69,1.17s-2.06-.62-2.68-1.17c-.56-.49-1.03-.92-2.02-.92s-1.47.43-2.02.92c-.62.55-1.32,1.17-2.68,1.17s-2.07-.62-2.69-1.17c-.55-.49-1.03-.92-2.01-.92s-1.47.43-2.02.92c-.62.55-1.32,1.17-2.68,1.17s-2.07-.62-2.68-1.17c-.56-.49-1.04-.92-2.02-.92s-1.46.43-2.02.92c-.61.55-1.31,1.17-2.68,1.17s-2.06-.62-2.68-1.17c-.56-.49-1.03-.92-2.02-.92s-1.46.43-2.01.92c-.62.55-1.32,1.17-2.69,1.17s-2.06-.62-2.68-1.17c-.45-.4-.85-.76-1.51-.88v5.35h9.33c.28,0,.5.23.5.5,0,.61-.26.94-.45,1.18-.15.19-.24.3-.24.56s.09.37.24.56c.19.24.45.57.45,1.18s-.26.94-.45,1.19c-.15.19-.24.3-.24.56s.09.37.24.56c.19.24.45.57.45,1.18,0,.28-.22.5-.5.5H2v2.94c0,.33.01.65.02.98h1.04ZM17.18,37.75c0-7.79-6.33-14.12-14.12-14.12h-.97c.78,9.07,6.84,16.66,15.09,19.65v-5.53Z" stroke-width="0"/></g></svg>