<?xml version="1.0" encoding="UTF-8"?><svg width="70" height="70" id="uuid-c1d85237-c410-4e36-81a6-e7fb10601e7b" xmlns="http://www.w3.org/2000/svg" viewBox="-10 -10 70 70"><rect x="-10" y="-10" width="70" height="70" fill="white"/><path d="M41.5,3.15H11c-1.78,0-3.23,1.45-3.23,3.23V46.12c0,1.78,1.45,3.23,3.23,3.23h30.5c1.78,0,3.23-1.45,3.23-3.23V6.38c0-1.78-1.45-3.23-3.23-3.23m.63,41.43c0,.26-.21,.47-.47,.47H10.84c-.26,0-.47-.21-.47-.47V6.92c0-.26,.21-.48,.47-.48h30.82c.26,0,.47,.22,.47,.48V44.58Z" fill="#ffcd00" stroke-width="0"/><path d="M34.77,16.08c-2.5,0-5.1,.62-7.53,1.79-.07,.03-.15,.05-.22,.05-.19,0-.36-.11-.45-.29-.12-.25-.02-.54,.23-.66,2.57-1.24,5.32-1.89,7.97-1.89,.27,0,.5,.23,.5,.5s-.23,.5-.5,.5" stroke-width="0"/><path d="M34.77,19.08c-2.5,0-5.1,.62-7.53,1.79-.07,.03-.15,.05-.22,.05-.19,0-.36-.11-.45-.28-.12-.25-.02-.55,.23-.67,2.57-1.23,5.32-1.89,7.97-1.89,.27,0,.5,.23,.5,.5s-.23,.5-.5,.5" stroke-width="0"/><path d="M34.77,22.09c-2.5,0-5.1,.62-7.53,1.78-.07,.04-.15,.05-.22,.05-.19,0-.36-.1-.45-.28-.12-.25-.02-.55,.23-.67,2.57-1.23,5.32-1.88,7.97-1.88,.27,0,.5,.22,.5,.5s-.23,.5-.5,.5" stroke-width="0"/><path d="M34.77,25.09c-2.5,0-5.1,.62-7.53,1.78-.07,.04-.15,.05-.22,.05-.19,0-.36-.1-.45-.28-.12-.25-.02-.55,.23-.67,2.57-1.23,5.32-1.88,7.97-1.88,.27,0,.5,.22,.5,.5s-.23,.5-.5,.5" stroke-width="0"/><path d="M34.77,28.09c-2.5,0-5.1,.62-7.53,1.79-.07,.03-.15,.05-.22,.05-.19,0-.36-.11-.45-.29-.12-.25-.02-.54,.23-.66,2.57-1.24,5.32-1.89,7.97-1.89,.27,0,.5,.23,.5,.5s-.23,.5-.5,.5" stroke-width="0"/><path d="M34.77,31.09c-2.5,0-5.1,.62-7.53,1.79-.07,.03-.15,.05-.22,.05-.19,0-.36-.11-.45-.28-.12-.25-.02-.55,.23-.67,2.57-1.23,5.32-1.89,7.97-1.89,.27,0,.5,.23,.5,.5s-.23,.5-.5,.5" stroke-width="0"/><path d="M24.75,44.72c.55,0,1,.44,1,1s-.45,1-1,1-1-.45-1-1,.45-1,1-1" stroke-width="0"/><path d="M24.75,2.74c.28,0,.5,.22,.5,.5s-.22,.5-.5,.5-.5-.22-.5-.5,.22-.5,.5-.5" stroke-width="0"/><path d="M14.73,15.08c2.65,0,5.4,.65,7.97,1.89,.25,.12,.35,.41,.23,.66-.09,.18-.26,.29-.45,.29-.07,0-.15-.02-.22-.05-2.43-1.17-5.03-1.79-7.53-1.79-.27,0-.5-.22-.5-.5s.23-.5,.5-.5" stroke-width="0"/><path d="M22.26,29.88c-2.43-1.17-5.03-1.79-7.53-1.79-.27,0-.5-.22-.5-.5s.23-.5,.5-.5c2.65,0,5.4,.65,7.97,1.89,.25,.12,.35,.41,.23,.66-.09,.18-.26,.29-.45,.29-.07,0-.15-.02-.22-.05" stroke-width="0"/><path d="M22.26,32.88c-2.43-1.17-5.03-1.79-7.53-1.79-.27,0-.5-.22-.5-.5s.23-.5,.5-.5c2.65,0,5.4,.66,7.97,1.89,.25,.12,.35,.42,.23,.67-.09,.17-.26,.28-.45,.28-.07,0-.15-.02-.22-.05" stroke-width="0"/><path d="M22.26,26.87c-2.43-1.16-5.03-1.78-7.53-1.78-.27,0-.5-.23-.5-.5s.23-.5,.5-.5c2.65,0,5.4,.65,7.97,1.88,.25,.12,.35,.42,.23,.67-.09,.18-.26,.28-.45,.28-.07,0-.15-.01-.22-.05" stroke-width="0"/><path d="M14.73,18.08c2.65,0,5.4,.66,7.97,1.89,.25,.12,.35,.42,.23,.67-.09,.17-.26,.28-.45,.28-.07,0-.15-.02-.22-.05-2.43-1.17-5.03-1.79-7.53-1.79-.27,0-.5-.22-.5-.5s.23-.5,.5-.5" stroke-width="0"/><path d="M14.73,21.09c2.65,0,5.4,.65,7.97,1.88,.25,.12,.35,.42,.23,.67-.09,.18-.26,.28-.45,.28-.07,0-.15,0-.22-.05-2.43-1.16-5.03-1.78-7.53-1.78-.27,0-.5-.23-.5-.5s.23-.5,.5-.5" stroke-width="0"/><path d="M25.25,35.41c3.66-1.65,7.54-2.56,11.29-2.64V12.34c-3.75,.07-7.64,1.02-11.29,2.72v20.35Zm-1-20.35c-3.65-1.7-7.54-2.65-11.29-2.72v20.43c3.75,.08,7.63,.99,11.29,2.64V15.06Zm-11.79-3.73c4.08,0,8.32,.99,12.29,2.86,3.97-1.87,8.21-2.86,12.29-2.86,.13,0,.26,.05,.35,.15,.09,.09,.15,.22,.15,.35v21.44c0,.28-.23,.5-.5,.5-4,0-8.18,.99-12.07,2.86-.07,.03-.15,.05-.22,.05s-.15-.02-.22-.05c-3.89-1.87-8.07-2.86-12.07-2.86-.27,0-.5-.22-.5-.5V11.83c0-.13,.06-.26,.15-.35,.09-.1,.22-.15,.35-.15" stroke-width="0"/><path d="M9.34,4.94h30.82c.26,0,.47,.22,.47,.48V43.08c0,.26-.21,.47-.47,.47H9.34c-.26,0-.47-.21-.47-.47V5.42c0-.26,.21-.48,.47-.48m.48,37.67h29.86V5.89H9.82V42.61Z" stroke-width="0"/><path d="M9.5,1.65c-1.78,0-3.23,1.45-3.23,3.23V44.62c0,1.78,1.45,3.23,3.23,3.23h30.5c1.78,0,3.23-1.45,3.23-3.23V4.88c0-1.78-1.45-3.23-3.23-3.23H9.5Zm-4.23,3.23C5.27,2.55,7.17,.65,9.5,.65h30.5c2.33,0,4.23,1.9,4.23,4.23V44.62c0,2.33-1.9,4.23-4.23,4.23H9.5c-2.33,0-4.23-1.9-4.23-4.23V4.88Z" stroke-width="0"/></svg>