<?xml version="1.0" encoding="UTF-8"?><svg width="70" height="70" id="uuid-985bcc0c-da44-49b7-a21c-6e91dd045abc" xmlns="http://www.w3.org/2000/svg" viewBox="-10 -10 70 70"><rect x="-10" y="-10" width="70" height="70" fill="white"/><path d="M28.37,42.56l-1.49-3.15c-.09-.18-.05-.39,.09-.53l.77-.81c2.03-.71,3.41-2.58,3.57-4.64l.25-.03c.46-.07,.91-.17,1.35-.3,.16,.46,.3,.91,.4,1.34,.27,1.09,.07,1.84-1.72,2.9l-2.5,1.46c-.15,.09-.25,.26-.25,.43v1.43c0,.24,.17,.44,.4,.49l2.04,.42c.47,.1,.86,.42,1.04,.87l.05,.12h-4Z" fill="#ffcd00" stroke-width="0"/><path d="M42.18,24.73c-.39-.24-.83-.37-1.28-.37h-.37c.12-.38,.22-.77,.3-1.16l1.67,.45c.47,.13,.88,.39,1.2,.75l1.39,1.6c.14,.16,.16,.4,.03,.58l-.32,.45-.29-.56c-.06-.13-.18-.23-.32-.26-.14-.04-.28-.01-.4,.06l-.65,.44v-1.13c-.02-.17-.11-.33-.25-.42l-.71-.43Z" fill="#ffcd00" stroke-width="0"/><path d="M4.12,39.47c3.43-1.26,9.97-4.31,10.8-9.44,.05-.33,1.46-8.02,9.67-10.1l5.88-1.7c2.17-.62,3.9-2.18,4.75-4.27l.93-2.28c.53-1.29,1.76-2.12,3.14-2.12h1.22c.07,0,.13,0,.19-.04l.88-.36c.59-.24,1.26-.08,1.67,.41l.45,.55c.08,.09,.19,.16,.32,.17l3.36,.5c.6,.11,1.13,.45,1.5,.94,.42,.58,.63,1.36,.51,1.88l-.22,.83-1.08-.47c-.17-.08-.37-.05-.52,.07l-1.08,.88-1.18-.73c-.17-.1-.37-.1-.53,0l-1.19,.74-1.08-.89c-.15-.12-.35-.15-.52-.07l-1.61,.71c-.06,.02-.11,.06-.16,.11-.02,.02-.03,.05-.05,.08s-.04,.05-.05,.08-.01,.06-.02,.09-.02,.06-.02,.1c0,.03,.02,.06,.02,.09,.01,.03,.01,.06,.02,.1h0c.04,.12,.79,1.84,2.16,2.1,.07,.01,.14,.01,.2,0l.65-.15,.58,.46c.11,.1,.26,.13,.41,.1l.88-.19,.61,.5c.13,.1,.32,.14,.48,.08l.5-.18c-.92,1.12-1.89,1.88-5.3,.56-.25-.1-.51-.2-.79-.32-.05-.03-.1-.06-.15-.08-.58-.28-1.1-.69-1.51-1.2-.17-.22-.48-.26-.7-.08-.22,.17-.25,.48-.08,.7,.55,.69,1.26,1.23,2.05,1.57,.02,.01,.03,.02,.05,.02l-.44,2.41-.12,.64c-.02,.11-.05,.22-.07,.33-.26,1.24-.69,2.43-1.27,3.56l-1.39-.38-1.04-2.07c-.12-.25-.42-.35-.67-.22-.25,.12-.35,.42-.22,.67l1.13,2.27c.06,.13,.18,.22,.32,.26l1.37,.37,1,.27,.25,.07c.47,.12,.88,.38,1.2,.74l1.39,1.6c.14,.17,.16,.41,.03,.59l-.32,.45-.29-.57c-.06-.13-.18-.22-.32-.26-.13-.03-.28,0-.4,.07l-.65,.43v-1.12c0-.17-.1-.33-.25-.42l-.71-.44c-.16-.1-.33-.16-.51-.22-.25-.08-.5-.14-.77-.14h-.83c-.83,0-1.59-.42-2.04-1.12l-1.2-1.88c-.15-.24-.46-.3-.69-.16-.23,.15-.3,.46-.15,.7l1.2,1.88c.57,.9,1.53,1.45,2.58,1.54-.3,.34-.61,.67-.94,.98-.64,.6-1.38,1.07-2.16,1.41-.31,.14-.62,.26-.94,.36-.37,.11-.76,.19-1.15,.24l-.13,.02c-.14-1.18-.43-2.23-.86-3.1-.13-.25-.43-.35-.67-.23-.25,.12-.35,.42-.23,.67,.38,.78,.64,1.72,.77,2.8,.02,.13,.02,.26,.02,.39,0,.21-.02,.42-.04,.62-.15,1.1-.7,2.11-1.56,2.81-.39,.32-.84,.58-1.33,.75l-.21,.08-.55,.19c-1.31,.46-2.54,1.09-3.67,1.89l-.31,.21c-.14,.1-.21,.25-.21,.41v1.62c-.01,.24,.16,.45,.39,.49l1.95,.41c.74,.15,1.37,.64,1.69,1.32h-4.68l-1.74-3.67c-.09-.18-.05-.4,.1-.54l.91-.88c.3-.28,.47-.67,.47-1.08s-.16-.8-.45-1.1c-.36-.36-.66-.78-.87-1.23-.11-.22-.19-.44-.26-.67-.03-.1-.05-.19-.07-.29-.09-.38-.12-.77-.08-1.16,0-.15,.03-.3,.06-.45,.14-.68,.39-1.37,.72-2.06,.12-.24,.02-.54-.23-.67-.24-.12-.54-.01-.66,.23-.38,.76-.65,1.53-.81,2.29-.13,.63-.14,1.27-.02,1.89l-.23,.31c-1.74,2.29-4.28,3.88-7.55,4.72-2.08,.53-4.31,.68-6.64,.42Z" fill="#ffcd00" stroke-width="0"/><g><circle cx="46.73" cy="11.73" r=".39"/><path d="M40.58,9.72c0-.4,.33-.73,.73-.73s.72,.33,.72,.73-.32,.72-.72,.72-.73-.32-.73-.72Z" stroke-width="0"/><path d="M39.65,23.11c.45,0,.89,.13,1.28,.37l.71,.43c.14,.09,.23,.25,.24,.42v1.13l.66-.44c.12-.07,.26-.1,.4-.06,.14,.03,.26,.13,.32,.26l.29,.56,.32-.45c.13-.18,.11-.42-.03-.58l-1.39-1.6c-.32-.36-.73-.62-1.2-.75l-1.67-.45c-.08,.39-.18,.78-.3,1.16h.37Zm-14.02,15.05l1.49,3.15h4l-.05-.12c-.18-.45-.57-.77-1.04-.87l-2.04-.42c-.23-.05-.4-.25-.4-.49v-1.43c0-.17,.1-.34,.25-.43l2.5-1.46c1.79-1.06,1.99-1.81,1.72-2.9-.1-.43-.24-.88-.4-1.34-.44,.13-.89,.23-1.35,.3l-.25,.03c-.16,2.06-1.54,3.93-3.57,4.64l-.77,.81c-.14,.14-.18,.35-.09,.53Zm-12.62-9.2c.01-.09,1.56-8.67,10.4-10.91l5.86-1.69c1.87-.54,3.37-1.88,4.1-3.68l.94-2.29c.67-1.66,2.27-2.74,4.06-2.74h1.12l.79-.33c1-.41,2.13-.13,2.82,.71l.33,.39,3.19,.47c.87,.17,1.63,.64,2.14,1.34,.61,.82,.87,1.88,.68,2.71l-.37,1.41s0,.02-.02,.03c0,.01,0,.03-.01,.04-.01,.03-.03,.04-.04,.06-.02,.03-.03,.05-.05,.07-.03,.04-.07,.07-.11,.09l-.03,.03h-.02c-.05,.03-.1,.04-.15,.04-.02,0-.03,.01-.05,.01-.07,0-.14-.01-.2-.04l-1.34-.59-1.12,.92c-.16,.14-.4,.15-.58,.04l-1.23-.76-1.22,.76c-.19,.12-.42,.1-.59-.03l-1.12-.92-.84,.37c.25,.41,.65,.91,1.12,1.04l.77-.17c.15-.03,.3,0,.42,.1l.57,.46,.88-.18c.15-.04,.31,0,.42,.1l.58,.46,.63-.22c.22-.08,.47,.01,.59,.2l.4,.64c.11,.18,.1,.41-.03,.57-.88,1.09-1.73,1.93-3.36,1.93-.82,0-1.84-.22-3.14-.71l-.42,2.28,1.73,.47c.66,.17,1.24,.54,1.69,1.05l1.39,1.6c.45,.52,.49,1.27,.09,1.82l-.8,1.13c-.09,.13-.25,.21-.41,.21h-.04c-.17-.01-.33-.12-.4-.27l-.41-.81-.95,.63c-.15,.1-.35,.11-.51,.03-.16-.09-.26-.26-.27-.44v-1.77l-.48-.29c-.23-.14-.49-.22-.76-.22h-.7c-.18,.48-.39,.95-.61,1.41h.03c.65,.18,1.24,.55,1.68,1.06l1.39,1.6c.45,.51,.49,1.26,.09,1.82l-.8,1.13c-.09,.13-.25,.21-.41,.21,0,0-.02,0-.03-.01-.18-.01-.33-.11-.41-.27l-.41-.8-.95,.63c-.15,.1-.35,.11-.51,.02-.16-.08-.26-.25-.27-.43v-1.78l-.48-.29c-.19-.11-.41-.17-.63-.19-.46,.59-.97,1.14-1.52,1.65-.74,.7-1.6,1.23-2.51,1.62,.16,.5,.32,.99,.43,1.46,.48,1.96-.53,3.02-2.18,4l-2.26,1.32v.74l1.64,.34c.8,.16,1.46,.7,1.77,1.45l.34,.82c.06,.15,.04,.33-.05,.47-.09,.13-.25,.22-.42,.22h-5.07c-.19,0-.37-.11-.45-.29l-1.63-3.43c-.16-.34-.16-.72-.05-1.07-.83,.37-1.63,.81-2.38,1.33l-.1,.07v.96l1.55,.32c1.11,.23,2.03,.99,2.47,2.03l.24,.58c.06,.15,.04,.33-.05,.47s-.25,.22-.41,.22h-5.76c-.19,0-.37-.11-.45-.28l-1.87-3.96c-.27-.57-.15-1.25,.31-1.69l.91-.88c.1-.1,.16-.23,.16-.37s-.05-.28-.15-.38c-.5-.5-.89-1.07-1.16-1.67-1.87,2.34-4.52,3.97-7.89,4.84-1.5,.38-3.07,.57-4.69,.57-1.03,0-2.09-.07-3.16-.23l-1.31-.19c-.24-.04-.41-.23-.43-.47-.01-.23,.14-.45,.37-.51,.11-.03,11.13-3.11,12.14-9.32Zm-3.17,9.18c3.27-.84,5.81-2.43,7.55-4.72l.23-.31c-.12-.62-.11-1.26,.02-1.89,.16-.76,.43-1.53,.81-2.29,.12-.24,.42-.35,.66-.23,.25,.13,.35,.43,.23,.67-.33,.69-.58,1.38-.72,2.06-.03,.15-.05,.3-.06,.45-.04,.39-.01,.78,.08,1.16,.02,.1,.04,.19,.07,.29,.07,.23,.15,.45,.26,.67,.21,.45,.51,.87,.87,1.23,.29,.3,.45,.68,.45,1.1s-.17,.8-.47,1.08l-.91,.88c-.15,.14-.19,.36-.1,.54l1.74,3.67h4.68c-.32-.68-.95-1.17-1.69-1.32l-1.95-.41c-.23-.04-.4-.25-.4-.49v-1.62c0-.16,.08-.31,.22-.41l.31-.21c1.13-.8,2.36-1.43,3.67-1.89l.55-.19,.21-.08c.49-.17,.94-.43,1.33-.75,.86-.7,1.41-1.71,1.56-2.81,.02-.2,.04-.41,.04-.62,0-.13,0-.26-.02-.39-.13-1.08-.39-2.02-.77-2.8-.12-.25-.02-.55,.23-.67,.24-.12,.54-.02,.67,.23,.43,.87,.72,1.92,.86,3.1l.13-.02c.39-.05,.78-.13,1.15-.24,.32-.1,.63-.22,.94-.36,.78-.34,1.52-.81,2.16-1.41,.33-.31,.64-.64,.94-.98-1.05-.09-2.01-.64-2.58-1.54l-1.2-1.88c-.15-.24-.08-.55,.15-.7,.23-.14,.54-.08,.69,.16l1.2,1.88c.45,.7,1.21,1.12,2.04,1.12h.83c.27,0,.52,.06,.77,.14,.18,.06,.35,.12,.51,.22l.71,.44c.15,.09,.24,.25,.24,.42v1.12l.66-.43c.12-.08,.27-.1,.4-.07,.14,.04,.26,.13,.32,.26l.29,.57,.32-.45c.13-.18,.11-.42-.03-.59l-1.39-1.6c-.32-.36-.73-.62-1.2-.74l-.25-.07-1-.27-1.37-.37c-.14-.04-.26-.13-.32-.26l-1.13-2.27c-.13-.25-.03-.55,.22-.67,.25-.13,.55-.03,.67,.22l1.04,2.07,1.39,.38c.58-1.13,1.01-2.32,1.27-3.56,.02-.11,.05-.22,.07-.33l.12-.64,.44-2.41s-.03,0-.05-.02c-.79-.34-1.5-.88-2.05-1.57-.17-.22-.14-.53,.08-.7,.22-.18,.53-.14,.7,.08,.41,.51,.93,.92,1.51,1.2,.05,.02,.1,.05,.15,.08,.28,.12,.54,.22,.79,.32,3.41,1.32,4.38,.56,5.3-.56l-.5,.18c-.16,.06-.35,.02-.48-.08l-.61-.5-.88,.19c-.15,.03-.3,0-.41-.1l-.58-.46-.65,.15c-.06,.01-.13,.01-.2,0-1.37-.26-2.12-1.98-2.16-2.09h-.01c0-.05,0-.08-.02-.11,0-.03-.02-.06-.02-.09,0-.04,.01-.07,.02-.1s.01-.06,.02-.09,.03-.05,.05-.08,.03-.06,.05-.08c.05-.05,.1-.09,.16-.11l1.61-.71c.17-.08,.37-.05,.52,.07l1.08,.89,1.19-.74c.16-.1,.36-.1,.53,0l1.18,.73,1.08-.88c.15-.12,.35-.15,.52-.07l1.08,.47,.22-.83c.12-.52-.09-1.3-.51-1.88-.37-.49-.9-.83-1.5-.94l-3.36-.5c-.13-.01-.24-.08-.32-.17l-.45-.55c-.41-.49-1.08-.65-1.67-.41l-.88,.36c-.06,.03-.12,.04-.19,.04h-1.22c-1.38,0-2.61,.83-3.14,2.12l-.93,2.28c-.85,2.09-2.58,3.65-4.75,4.27l-5.88,1.7c-8.21,2.08-9.62,9.77-9.67,10.1-.83,5.13-7.37,8.18-10.8,9.44,2.33,.26,4.56,.11,6.64-.42Z" stroke-width="0"/></g></svg>