<?xml version="1.0" encoding="utf-8"?> <!-- Generator: Adobe Illustrator 27.7.0, SVG Export Plug-In . SVG Version: 6.00 Build 0) --> <svg width="70" height="70" version="1.1" xmlns="http://www.w3.org/2000/svg" xmlns:xlink="http://www.w3.org/1999/xlink" x="0px" y="0px" viewBox="-10 -10 70 70" style="enable-background:new 0 0 50 50;" xml:space="preserve"><rect x="-10" y="-10" width="70" height="70" fill="white"/> <style type="text/css"> .st0{fill:#FFCD00;} .st1{display:none;} .st2{display:inline;fill:none;stroke:#EA008A;stroke-width:0.2;stroke-miterlimit:10;} .st3{font-family:'Roboto-Regular';} .st4{font-size:6px;} </style> <g id="Color"> <path class="st0" d="M44.9792,31.1274c-1.9736-0.6155-3.8653-0.5134-5.2002-0.9055l0.0901-0.4545 c1.3055-5.2911,1.3571-11.3809,0.2042-12.059c-0.915-0.5383-2.3107,0.2666-3.3472,0.9672 c-1.0742,0.7261-1.2783,0.5387-1.1766-0.309c0.0646-0.5387,0.6242-9.4675-1.1052-10.0439 c-1.3889-0.463-4.7018,4.9245-5.3699,5.8811c-0.595,0.8519-1.3441,0.7847-1.8994-0.173c-1.2964-2.2358-3.1747-6.8344-4.6667-6.7665 c-1.4921,0.0678-2.6085,6.1755-3.0752,8.937c-0.1735,1.0262-0.4616,1.5139-1.5082,1.3732 c-2.1138-0.2841-5.2709-0.3481-5.8135,0.1945s0.6964,4.5883,1.119,5.5272c0.5106,1.1343,0.5549,1.7549-0.2208,2.1981 c-0.7272,0.4155-2.7971,1.6337-3.0345,2.2101c-0.2374,0.5764,0.9474,3.941,1.9308,5.8399l0.0438,0.0777 c-0.466,0.5278-1.022,1.0403-1.6356,1.5187l-0.1595-0.1594c-3.7749-3.5549-3.9526-2.4941-4.6681,2.3072l-0.053,0.3394 c-0.8313,0.2126-1.6305,0.3029-2.3348,0.2148c1.7313,2.4439,6.7714,4.3286,11.1503,2.6991l0.0628,5.1948h10.1983v-4.8693 c2.0405,0.0016,4.2148-0.0591,5.9694-0.1194l0.0628,4.9886h10.5268v-5.0603c2.6359,0.0254,4.9706-0.1315,8.6693-0.665 C50.5316,35.1457,48.3422,32.1762,44.9792,31.1274z" stroke-width="0"/> </g> <g id="ICONS_00000031165542127692736420000002692518830807990202_"> <g> <g> <g> <path d="M43.6279,29.1499c-1.1523-0.3594-2.2715-0.4785-3.2598-0.584c-0.5535-0.059-1.0624-0.1136-1.5085-0.2014 c1.1028-4.4852,1.6377-11.6044-0.0325-12.5867c-1.1514-0.6777-2.6768,0.1704-3.8809,0.9834 c-0.1768,0.1196-0.3105,0.2002-0.4092,0.2544c0.002-0.0273,0.0049-0.0571,0.0088-0.0894 c0.0371-0.3086,0.1924-2.7065,0.124-5.082c-0.1279-4.4512-0.9053-5.2754-1.5674-5.4956 c-1.3145-0.4375-3.1748,1.8926-5.5723,5.5215c-0.1572,0.2388-0.2832,0.4282-0.3662,0.5474 c-0.1738,0.248-0.3516,0.4019-0.498,0.3809c-0.165-0.0068-0.374-0.2007-0.5586-0.5186 c-0.3057-0.5269-0.6436-1.1865-1.001-1.8848c-1.5859-3.0933-2.7314-5.1318-4.0615-5.1318c-0.0205,0-0.04,0.0005-0.0596,0.0015 c-0.9795,0.0444-2.166,1.1904-3.5459,9.3535c-0.1621,0.958-0.333,1.0405-0.9482,0.9604 c-0.0508-0.0068-5.2266-0.6704-6.2334,0.3369c-0.9688,0.9697,0.9951,6.0371,1.0166,6.0859 c0.5557,1.2334,0.3174,1.3701-0.0127,1.5586c-2.9268,1.6714-3.1689,2.2607-3.248,2.4541 c-0.3602,0.8743,1.0492,4.4399,1.8352,6.0344c-0.3032,0.3207-0.6362,0.6345-0.9977,0.9344 c-1.6735-1.5635-2.763-2.3507-3.6715-2.0416c-1.0293,0.3574-1.2637,1.9258-1.6875,4.7734 c-0.0004,0.0026,0.0007,0.0049,0.0004,0.0074c-0.6617,0.1439-1.2855,0.193-1.8324,0.1244 c-0.1963-0.0239-0.3887,0.0698-0.4902,0.2393c-0.1025,0.1699-0.0938,0.3843,0.0205,0.5459 c1.8271,2.5791,6.7061,4.3779,11.0664,3.1001l0.0547,4.5103c0.0029,0.2739,0.2266,0.4941,0.5,0.4941h6.8916h0.1016h3.2051 c0.2764,0,0.5-0.2236,0.5-0.5v-4.3693c1.7269-0.0068,3.4994-0.0536,4.9766-0.1019l0.0557,4.4775 c0.0039,0.2734,0.2266,0.4937,0.5,0.4937h7.3496h3.1777c0.2764,0,0.5-0.2236,0.5-0.5v-4.5559 c2.3898,0.0017,4.6881-0.1621,8.2402-0.6741c0.2158-0.0312,0.3867-0.1992,0.4219-0.4146 C49.4941,33.9141,47.5859,30.3848,43.6279,29.1499z M8.9365,26.3979c0.085-0.1724,0.7842-0.8062,2.8213-1.9697 c1.3564-0.7759,0.7529-2.1167,0.4287-2.8369c-0.4805-1.0669-1.4189-4.4546-1.2266-4.9639 c0.376-0.3022,2.9404-0.3877,5.3984-0.0576c1.5156,0.2026,1.8906-0.7378,2.0674-1.7852c1.3916-8.23,2.4844-8.5156,2.6045-8.521 c0.0049-0.0005,0.0098-0.0005,0.0156-0.0005c0.8184,0,2.3467,2.9814,3.1699,4.5879c0.3672,0.7153,0.7139,1.3906,1.0264,1.9307 c0.4707,0.8115,1.0117,1.0005,1.3818,1.0161c0.3604,0.0098,0.875-0.1138,1.3604-0.8081 c0.0859-0.1235,0.2168-0.3203,0.3799-0.5684c3.3174-5.0181,4.2246-5.1895,4.4219-5.124 c1.0508,0.3496,1.0166,7.4248,0.7676,9.5098c-0.0371,0.3032-0.1123,0.9336,0.3467,1.2134 c0.4229,0.2588,0.9277,0.0269,1.6064-0.4312c0.5088-0.3442,2.0664-1.3936,2.8125-0.9497 c0.706,0.4147,0.9479,5.825-0.4141,11.4145c-0.27-0.1385-0.4927-0.3154-0.6445-0.5624 c-0.4277-0.7725-0.832-1.5342-1.2256-2.2754c-3.0117-5.6699-5.6074-10.5679-13.2559-9.3452 c-6.2627,1.001-9.2891,8.5498-10.915,12.6055c-0.3047,0.7573-0.5664,1.4116-0.7871,1.8687 c-0.138,0.2858-0.3214,0.572-0.5266,0.8564C9.665,29.3116,8.861,26.8343,8.9365,26.3979z M5.5078,31.8862 c0.337-0.1131,1.1882,0.4694,2.5354,1.7116c-1.0902,0.7753-2.3167,1.4176-3.496,1.8209 C4.8165,33.6292,5.0847,32.0328,5.5078,31.8862z M20.311,43.7363l0.0493-3.915c0.6746,0.0267,1.4019,0.0399,2.1494,0.0446 v3.8705H20.311z M39.0693,43.7363h-2.1716l0.0505-4.1304c0.7477,0.0301,1.4448,0.0529,2.1211,0.0651V43.7363z M47.7988,38.0688 c-4.9189,0.6934-7.3691,0.6875-11.3223,0.5161c-0.1406-0.0112-0.2676,0.0435-0.3652,0.1362s-0.1543,0.2217-0.1562,0.3569 l-0.0576,4.6582h-6.3613l-0.0566-4.4946c-0.002-0.1343-0.0576-0.2627-0.1553-0.3555c-0.0967-0.0928-0.2227-0.1475-0.3623-0.1377 c-2.6016,0.0894-6.374,0.1919-9.0684,0.0498c-0.1377-0.0059-0.2695,0.0415-0.3682,0.1348 c-0.0996,0.0928-0.1562,0.2222-0.1582,0.3584l-0.0566,4.4448h-6.0049l-0.0566-4.7002c-0.002-0.1631-0.083-0.3145-0.2168-0.4062 c-0.1348-0.0923-0.3047-0.1123-0.458-0.0566c-3.7588,1.3989-7.8574,0.0601-9.8428-1.7207 c3.4941-0.3096,7.9648-3.4189,9.2461-6.0728c0.2354-0.4878,0.5039-1.1567,0.8145-1.9312 c1.5527-3.8716,4.4424-11.0781,10.1455-11.9902c6.9355-1.1074,9.1504,3.0591,12.2139,8.8271 c0.3965,0.7461,0.8037,1.5127,1.2461,2.3101c0.7568,1.2334,2.1973,1.3867,3.8643,1.5645 c0.9424,0.1006,2.0107,0.2144,3.0693,0.5449C46.7197,31.1621,48.335,34.0542,47.7988,38.0688z" stroke-width="0"/> <circle cx="41.6385" cy="33.5314" r="0.9559"/> </g> </g> </g> </g> <g id="Margin" class="st1"> <rect x="1" y="1" class="st2" /> </g> <g id="Guides" class="st1"> </g> <g id="LABELS"> <g> <g> <g> <g> <g> </g> </g> </g> </g> </g> </g> </svg> 