<?xml version="1.0" encoding="UTF-8"?><svg width="70" height="70" xmlns="http://www.w3.org/2000/svg" viewBox="-10 -10 70 70"><rect x="-10" y="-10" width="70" height="70" fill="white"/><g id="uuid-8989772f-9281-44b2-8b7f-b038235f777a"><g><path d="M26.68,33.28c-.24-.3-.64-.74-1.2-1.2-.89-.73-1.12-.69-1.57-1.22-.4-.48-.58-1.04-.95-2.17-.23-.7-.37-1.29-.46-1.69l-2.11-2.14c-4.5,4.39-9.09,8.74-13.72,12.96,.21,.27,.44,.53,.66,.8-.98,.89-1.95,1.78-2.93,2.68,.2,.25,.41,.49,.62,.74-.77,.77-1.55,1.53-2.32,2.3,.74,1.03,1.56,2.01,2.45,2.9,.89,.9,1.86,1.73,2.88,2.48,.78-.76,1.56-1.52,2.35-2.27,.24,.2,.47,.41,.71,.61l2.86-2.77c.22,.18,.43,.37,.65,.55,1.91-2.04,3.86-4.09,5.84-6.15,2.09-2.18,4.18-4.32,6.25-6.42Z" fill="#ffcd00" stroke-width="0"/><path d="M47.66,10.63c.76-.78,1.53-1.55,2.29-2.33-.74-1.03-1.56-2.01-2.45-2.9-.89-.9-1.86-1.73-2.88-2.48-.77,.76-1.54,1.53-2.31,2.29v.03c-.24-.22-.49-.44-.75-.65-.92,.92-1.84,1.84-2.77,2.76v.04c-.24-.19-.48-.4-.73-.59-4.09,4.38-8.3,8.73-12.55,12.99,.81,.82,1.62,1.64,2.43,2.46,.17-.05,.39-.08,.65-.03,.22,.04,.37,.14,.41,.17,.69,.42,1.68,.4,2.42,.98,.88,.68,.52,1.48,1.58,2.32,.33,.26,.65,.41,.87,.5,2.02-1.95,4.08-3.92,6.17-5.89,1.98-1.86,3.96-3.69,5.92-5.48-.16-.23-.35-.44-.52-.66,.92-.94,1.85-1.87,2.77-2.81-.19-.24-.39-.47-.59-.7Z" fill="#ffcd00" stroke-width="0"/><path d="M49.52,6.57c-.83-1.21-1.77-2.34-2.8-3.38-1.03-1.04-2.16-2-3.35-2.84-.2-.14-.47-.12-.64,.05l-1.98,1.95c-.14-.11-.26-.23-.4-.34-.2-.16-.48-.14-.66,.04l-2.49,2.46c-.13-.1-.26-.2-.39-.29-.2-.15-.48-.12-.66,.07-5.09,5.46-10.37,10.89-15.68,16.13-5.31,5.25-10.8,10.46-16.32,15.48-.19,.17-.22,.47-.06,.67,.09,.12,.2,.24,.29,.36l-2.51,2.48c-.18,.18-.2,.46-.04,.66,.11,.14,.22,.27,.33,.4l-1.98,1.95c-.17,.17-.2,.44-.06,.64,.83,1.2,1.77,2.34,2.8,3.38,1.03,1.04,2.16,2,3.35,2.84,.09,.06,.19,.09,.29,.09,.13,0,.25-.05,.35-.14l1.98-1.95c.14,.11,.26,.23,.4,.34,.09,.07,.2,.11,.31,.11,.13,0,.25-.05,.35-.14l2.51-2.48c.12,.1,.24,.2,.36,.3,.09,.07,.2,.1,.31,.1,.13,0,.27-.05,.37-.16,4.02-4.31,8.16-8.6,12.33-12.79,.08,.03,.16,.05,.24,.07l2.24,5.49c.07,.16,.21,.28,.39,.31,.02,0,.05,0,.07,0,.15,0,.29-.07,.39-.18l1.54-1.89,2.14,.37c.18,.03,.36-.04,.47-.18,.11-.14,.14-.33,.07-.5l-1.88-4.61c.08-.07,.17-.13,.25-.2,.08-.08,.13-.17,.21-.25l4.58,1.94c.06,.03,.13,.04,.19,.04,.11,0,.22-.04,.31-.11,.14-.11,.21-.29,.18-.47l-.34-2.15,1.91-1.52c.14-.11,.21-.28,.18-.46-.02-.17-.14-.32-.3-.39l-5.47-2.31c-.02-.08-.04-.16-.07-.23,4.05-3.92,8.19-7.81,12.34-11.59,.19-.17,.22-.45,.07-.66-.09-.13-.2-.26-.3-.39l2.5-2.47c.18-.18,.2-.46,.04-.66-.11-.14-.23-.27-.33-.41l1.98-1.95c.17-.17,.2-.44,.06-.64Zm-26.16,12.45l2.63,2.66c-.86,.27-1.65,.74-2.31,1.39-.66,.65-1.12,1.45-1.4,2.31l-2.64-2.68,3.73-3.68ZM6.52,48.24c-1.02-.75-1.99-1.58-2.88-2.48-.89-.9-1.71-1.87-2.45-2.9l1.61-1.59c.81,.97,1.64,1.92,2.53,2.82,.88,.9,1.83,1.74,2.79,2.56l-1.61,1.59Zm3.05-1.67c-1.23-1-2.42-2.07-3.53-3.19-1.11-1.13-2.17-2.33-3.15-3.56l2.12-2.1c1,1.24,2.04,2.44,3.15,3.56,1.11,1.12,2.3,2.18,3.52,3.19l-2.12,2.1Zm3.51-2.23c-1.47-1.17-2.88-2.43-4.2-3.76-1.31-1.33-2.56-2.76-3.71-4.24,4.62-4.22,9.22-8.57,13.72-12.96l3.14,3.18c-.02,.19-.06,.38-.06,.57,0,1.54,.58,2.98,1.66,4.08,.37,.37,.79,.67,1.23,.92-3.98,4.01-7.93,8.1-11.78,12.22Zm19.04-8.74l-1.54-.27c-.18-.03-.36,.04-.47,.18l-1.19,1.46-1.68-4.11c.15,.01,.3,.05,.45,.05h.04c1.06,0,2.07-.3,2.96-.84l1.44,3.53Zm-1.07-5.06c-.9,.89-2.12,1.33-3.37,1.37-1.27,0-2.46-.51-3.35-1.41-.89-.9-1.38-2.1-1.37-3.37,0-1.27,.51-2.46,1.41-3.35,.9-.88,2.08-1.37,3.34-1.37h.03c1.27,0,2.46,.51,3.35,1.41,.89,.9,1.38,2.1,1.37,3.37,0,1.27-.51,2.46-1.41,3.35Zm2.41-3.34c0-.15-.03-.3-.04-.45l4.09,1.73-1.48,1.17c-.14,.11-.21,.29-.18,.47l.25,1.54-3.51-1.48c.55-.89,.87-1.91,.87-2.99Zm-.75-2.83c-.25-.45-.54-.88-.91-1.25-1.08-1.09-2.52-1.7-4.06-1.71-.2,0-.4,0-.6,.03l-3.12-3.16c4.25-4.26,8.46-8.61,12.55-12.99,1.52,1.11,2.96,2.35,4.28,3.69,1.32,1.33,2.54,2.79,3.64,4.32-3.96,3.62-7.9,7.32-11.77,11.06Zm11.94-12.47c-.96-1.27-1.98-2.49-3.09-3.62-1.11-1.13-2.31-2.18-3.56-3.16l2.07-2.04c1.23,1,2.42,2.07,3.53,3.19,1.11,1.12,2.17,2.32,3.15,3.56l-2.09,2.07Zm2.18-3.51c-.81-.97-1.65-1.93-2.53-2.82-.88-.89-1.83-1.74-2.79-2.56l1.61-1.59c1.02,.75,1.98,1.58,2.88,2.48,.89,.9,1.71,1.87,2.45,2.9l-1.61,1.59Z" stroke-width="0"/></g></g><g id="uuid-db044ebd-bd45-468a-ac06-13a2f4e42b2a"></g></svg>