<?xml version="1.0" encoding="UTF-8"?><svg width="70" height="70" xmlns="http://www.w3.org/2000/svg" viewBox="-10 -10 70 70"><rect x="-10" y="-10" width="70" height="70" fill="white"/><g id="uuid-88f033e7-d07e-487b-9762-9ac3933b159e"><g><polygon points="45.59 17.1 49.62 11.97 45.59 6.83 6.31 6.83 6.31 17.1 45.59 17.1" fill="#ffcd00"/><polygon points="7.05 23.47 3.01 28.6 7.05 33.73 46.36 33.73 46.36 23.47 7.05 23.47" fill="#ffcd00"/><path d="M44.33,16.6c.15,0,.3-.07,.39-.19l4.43-5.63c.14-.18,.14-.44,0-.62l-4.43-5.63c-.09-.12-.24-.19-.39-.19h-14.11V1.57c0-.28-.22-.5-.5-.5h-9.79c-.28,0-.5,.22-.5,.5v2.77H4.31c-.28,0-.5,.22-.5,.5v11.26c0,.13,.05,.26,.15,.35s.22,.15,.35,.15h15.11v4.37H5.31c-.15,0-.3,.07-.39,.19L.48,26.79c-.14,.18-.14,.44,0,.62l4.43,5.63c.1,.12,.24,.19,.39,.19h14.11v15.2c0,.28,.22,.5,.5,.5h9.79c.28,0,.5-.22,.5-.5v-15.2h15.14c.28,0,.5-.22,.5-.5v-11.26c0-.13-.05-.26-.15-.35s-.22-.15-.35-.15h-15.14v-4.37h14.11ZM4.81,5.33H44.09l4.04,5.13-4.04,5.13H4.81V5.33Zm15.61-3.27h8.79v2.27h-8.79V2.07Zm24.43,30.16H5.55L1.51,27.1l4.04-5.13H44.86v10.26Zm-15.64,15.7h-8.79v-14.7h8.79v14.7Zm0-26.96h-8.79v-4.37h8.79v4.37Z" stroke-width="0"/></g></g><g id="uuid-561f67fc-ee10-45ba-a1d5-6c69473cb53f"></g></svg>