<?xml version="1.0" encoding="UTF-8"?><svg width="70" height="70" xmlns="http://www.w3.org/2000/svg" viewBox="-10 -10 70 70"><rect x="-10" y="-10" width="70" height="70" fill="white"/><g id="uuid-f972fbe4-b4f0-4d57-a9dd-30464043f354"><g><circle cx="26.75" cy="27.31" r="15.58" fill="#ffcd00"/><g><path d="M8.41,25.61c0,9.15,7.44,16.59,16.59,16.59s16.59-7.44,16.59-16.59c0-7.8-5.42-14.35-12.69-16.11v-2.07c0-.28-.22-.5-.5-.5h-2.91V.85c0-.28-.22-.5-.5-.5s-.5,.22-.5,.5V6.93h-2.91c-.28,0-.5,.22-.5,.5v2.07c-7.27,1.76-12.69,8.31-12.69,16.11Zm15.24-15.53c-1.22,1.21-3.11,3.38-4.55,6.42h-6.73c2.59-3.58,6.64-6.02,11.28-6.42Zm16.89,14.47h-7.48c-.13-2.67-.75-5.03-1.6-7.05h6.84c1.27,2.08,2.07,4.48,2.24,7.05Zm.05,1.05c0,2.52-.61,4.89-1.68,7h-7.03c.72-2.03,1.22-4.35,1.22-6.95,0-.03,0-.07,0-.1h7.49s0,.03,0,.05Zm-31.19,0s0-.03,0-.05h7.62s0,.03,0,.05c0,2.62,.51,4.96,1.24,7h-7.19c-1.06-2.11-1.68-4.48-1.68-7Zm2.3-8.1h6.95c-.84,2.02-1.46,4.38-1.59,7.05h-7.61c.17-2.57,.97-4.97,2.24-7.05Zm12.8-6.86v5.86h-4.28c1.42-2.8,3.18-4.79,4.28-5.86Zm0,6.86v7.05h-6.43c.14-2.69,.79-5.05,1.67-7.05h4.75Zm-6.47,8.1s0-.03,0-.05h6.47v7.05h-5.17c-.77-2.02-1.3-4.36-1.3-7Zm6.47,8v6.87c-1.23-1.19-3.29-3.53-4.76-6.87h4.76Zm1,7.04v-7.04h4.91c-1.52,3.48-3.7,5.89-4.91,7.04Zm0-8.04v-7.05h6.6s0,.06,0,.1c0,2.62-.53,4.94-1.29,6.95h-5.32Zm6.56-8.05h-6.56v-7.05h4.87c.89,2,1.55,4.36,1.69,7.05Zm-6.56-8.05v-5.94c1.08,1.03,2.93,3.05,4.4,5.94h-4.4Zm-6.85,17.1c1.52,3.66,3.75,6.21,5.1,7.53-5.15-.41-9.58-3.33-12.11-7.53h7.01Zm7.79,7.52c1.36-1.34,3.56-3.89,5.06-7.52h6.86c-2.49,4.15-6.85,7.05-11.92,7.52Zm4.58-24.62c-1.46-3.05-3.36-5.22-4.57-6.42,4.6,.42,8.62,2.86,11.19,6.42h-6.62ZM22.09,7.93h5.81v1.36c-.95-.17-1.91-.27-2.91-.27s-1.96,.1-2.91,.27v-1.36Z" stroke-width="0"/><path d="M15.75,9.75c.09,.16,.26,.25,.43,.25,.08,0,.17-.02,.25-.07,.24-.14,.32-.44,.18-.68l-2.71-4.7c-.14-.24-.45-.32-.68-.18-.24,.14-.32,.44-.18,.68l2.71,4.7Z" stroke-width="0"/><path d="M4.5,13.75l4.7,2.71c.08,.05,.16,.07,.25,.07,.17,0,.34-.09,.43-.25,.14-.24,.06-.54-.18-.68l-4.7-2.71c-.24-.14-.54-.06-.68,.18s-.06,.54,.18,.68Z" stroke-width="0"/><path d="M8.92,33.71l-4.7,2.71c-.24,.14-.32,.44-.18,.68,.09,.16,.26,.25,.43,.25,.08,0,.17-.02,.25-.07l4.7-2.71c.24-.14,.32-.44,.18-.68-.14-.24-.45-.32-.68-.18Z" stroke-width="0"/><path d="M15.95,40.45c-.24-.14-.54-.06-.68,.18l-2.71,4.7c-.14,.24-.06,.54,.18,.68,.08,.05,.16,.07,.25,.07,.17,0,.34-.09,.43-.25l2.71-4.7c.14-.24,.06-.54-.18-.68Z" stroke-width="0"/><path d="M25,43.22c-.28,0-.5,.22-.5,.5v5.43c0,.28,.22,.5,.5,.5s.5-.22,.5-.5v-5.43c0-.28-.22-.5-.5-.5Z" stroke-width="0"/><path d="M34.25,40.91c-.14-.24-.45-.32-.68-.18-.24,.14-.32,.44-.18,.68l2.71,4.7c.09,.16,.26,.25,.43,.25,.08,0,.17-.02,.25-.07,.24-.14,.32-.44,.18-.68l-2.71-4.7Z" stroke-width="0"/><path d="M45.5,36.91l-4.7-2.71c-.24-.14-.55-.06-.68,.18-.14,.24-.06,.54,.18,.68l4.7,2.71c.08,.05,.16,.07,.25,.07,.17,0,.34-.09,.43-.25,.14-.24,.06-.54-.18-.68Z" stroke-width="0"/><path d="M7.38,25.33c0-.28-.22-.5-.5-.5H1.45c-.28,0-.5,.22-.5,.5s.22,.5,.5,.5H6.88c.28,0,.5-.22,.5-.5Z" stroke-width="0"/><path d="M48.55,24.83h-5.43c-.28,0-.5,.22-.5,.5s.22,.5,.5,.5h5.43c.28,0,.5-.22,.5-.5s-.22-.5-.5-.5Z" stroke-width="0"/><path d="M40.83,17.01c.08,0,.17-.02,.25-.07l4.7-2.71c.24-.14,.32-.44,.18-.68-.14-.24-.44-.32-.68-.18l-4.7,2.71c-.24,.14-.32,.44-.18,.68,.09,.16,.26,.25,.43,.25Z" stroke-width="0"/><path d="M34.05,10.21c.08,.05,.16,.07,.25,.07,.17,0,.34-.09,.43-.25l2.71-4.7c.14-.24,.06-.54-.18-.68-.24-.14-.55-.06-.68,.18l-2.71,4.7c-.14,.24-.06,.54,.18,.68Z" stroke-width="0"/></g></g></g><g id="uuid-7258621f-2913-470e-92e2-990c5d9e317d"></g></svg>