<?xml version="1.0" encoding="UTF-8"?><svg width="70" height="70" xmlns="http://www.w3.org/2000/svg" viewBox="-10 -10 70 70"><rect x="-10" y="-10" width="70" height="70" fill="white"/><g id="uuid-2b28bf69-322a-46b7-b048-1622d1d515c8"><g><path d="M37.74,45.49v2.51c0,.83-.67,1.5-1.5,1.5H16c-.83,0-1.5-.67-1.5-1.5v-2.51h23.24Z" fill="#ffcd00" stroke-width="0"/><path d="M37.74,19.39v2.51H14.5v-2.51c0-.82,.67-1.5,1.5-1.5h7.28s0,.01,.01,.01,.03-.01,.04-.01h12.91c.83,0,1.5,.68,1.5,1.5Z" fill="#ffcd00" stroke-width="0"/><path d="M31.28,31.11v4.01h-3.23c-.28,0-.5,.23-.5,.5v3.24h-4.02v-3.24c0-.27-.22-.5-.5-.5h-3.23v-4.01h3.23c.28,0,.5-.23,.5-.5v-3.24h4.02v3.24c0,.27,.22,.5,.5,.5h3.23Z" fill="#ffcd00" stroke-width="0"/><path d="M37.5,43.74v3.01c0,1.38-1.12,2.5-2.5,2.5H14.76c-1.38,0-2.5-1.12-2.5-2.5V18.14c0-1.38,1.12-2.5,2.5-2.5h6.51c-.94-2.37-2.14-8.41-2.21-10.32-.01-.16,.07-.32,.2-.42s.3-.12,.46-.07c1.9,.64,3.38,.95,4.67,.97,.01,0,.03,0,.04,.01-.14-1.36-.32-2.59-.54-3.72-.03-.16,.02-.32,.13-.44s.27-.18,.43-.15c2.08,.28,3.88-.03,5.51-.94,.15-.09,.34-.09,.5,0,.15,.1,.24,.26,.24,.44-.05,4.57-1.88,12.05-3.07,14.64h7.37c1.38,0,2.5,1.12,2.5,2.5v25.6Zm-1,3.01v-2.51H13.26v2.51c0,.83,.67,1.5,1.5,1.5h20.24c.83,0,1.5-.67,1.5-1.5Zm0-3.51V21.65H13.26v21.59h23.24Zm0-22.59v-2.51c0-.82-.67-1.5-1.5-1.5h-12.91s-.03,.01-.04,.01-.01-.01-.01-.01h-7.28c-.83,0-1.5,.68-1.5,1.5v2.51h23.24Zm-9.95-5.01c.69-1.08,2.85-8.52,3.13-13.82-1.43,.63-2.97,.87-4.68,.74,.35,2.04,.59,4.37,.72,7.1,.01,.28-.2,.51-.47,.52-.28,.04-.51-.19-.53-.47-.05-1.03-.11-2.01-.2-2.93-.04,.02-.09,.03-.14,.02-1.23-.02-2.6-.27-4.27-.79,.3,3.35,1.76,8.5,2.22,9.63h4.22Z" stroke-width="0"/><path d="M31.62,29.94v5.01c0,.28-.22,.5-.5,.5h-3.23v3.24c0,.27-.22,.5-.5,.5h-5.02c-.27,0-.5-.23-.5-.5v-3.24h-3.23c-.28,0-.5-.22-.5-.5v-5.01c0-.28,.22-.5,.5-.5h3.23v-3.24c0-.27,.23-.5,.5-.5h5.02c.28,0,.5,.23,.5,.5v3.24h3.23c.28,0,.5,.22,.5,.5Zm-1,4.51v-4.01h-3.23c-.28,0-.5-.23-.5-.5v-3.24h-4.02v3.24c0,.27-.22,.5-.5,.5h-3.23v4.01h3.23c.28,0,.5,.23,.5,.5v3.24h4.02v-3.24c0-.27,.22-.5,.5-.5h3.23Z" stroke-width="0"/></g></g><g id="uuid-7df574a1-7ab6-474e-b718-81278af38ece"></g></svg>