<?xml version="1.0" encoding="UTF-8"?><svg width="70" height="70" xmlns="http://www.w3.org/2000/svg" viewBox="-10 -10 70 70"><rect x="-10" y="-10" width="70" height="70" fill="white"/><g id="uuid-d1cd12fe-430c-458f-8954-ece310b08adb"><g><path d="M26.26,16.28c-4.4,2.42-7.02,6.25-7.02,10.28s2.62,7.86,7.02,10.28c4.4-2.42,7.02-6.25,7.02-10.28s-2.62-7.86-7.02-10.28Z" fill="#ffcd00" stroke-width="0"/><path d="M32.8,25.1c0-4.24-2.61-8.26-7.03-10.88,2.4-1.42,4.26-3.26,5.47-5.31,.02-.04,.05-.07,.06-.11,.97-1.7,1.5-3.55,1.5-5.45,0-.07,0-.14,0-.21V1.25c0-.28-.23-.5-.5-.5s-.5,.22-.5,.5v1.28h-14.06V1.25c0-.28-.22-.5-.5-.5s-.5,.22-.5,.5v1.88c0,.07-.01,.14-.01,.21,0,1.9,.53,3.75,1.5,5.45,.01,.04,.04,.08,.06,.11,1.2,2.06,3.07,3.89,5.47,5.31-4.42,2.62-7.03,6.63-7.03,10.88,0,2.18,.69,4.29,1.95,6.19,.03,.07,.06,.12,.11,.17,1.19,1.73,2.88,3.28,4.96,4.52-4.3,2.56-6.91,6.47-7.02,10.61h0v2.17c0,.28,.22,.5,.5,.5s.5-.22,.5-.5v-1.66h14.06v1.66c0,.28,.22,.5,.5,.5s.5-.22,.5-.5v-2.16h0c-.11-4.15-2.71-8.06-7.02-10.62,4.42-2.62,7.03-6.64,7.03-10.88Zm-15.06,.5h14.04c-.09,1.75-.68,3.45-1.68,5.01h-10.67c-1.01-1.56-1.59-3.26-1.68-5.01Zm1.83-6.24h10.37c1.1,1.62,1.74,3.4,1.83,5.24h-14.04c.1-1.84,.73-3.63,1.83-5.24ZM31.8,3.53c-.03,1.59-.48,3.14-1.27,4.59h-11.53c-.79-1.45-1.24-3-1.27-4.59h14.08Zm-12.19,5.59h10.31c-1.21,1.76-2.96,3.31-5.15,4.52-2.19-1.21-3.95-2.77-5.15-4.52Zm5.15,5.66c1.79,.98,3.28,2.2,4.42,3.57h-8.84c1.15-1.37,2.63-2.58,4.42-3.57Zm-7,31.31c.11-1.38,.52-2.71,1.19-3.96h11.63c.67,1.25,1.08,2.58,1.19,3.96h-14.01Zm12.2-4.96h-10.39c1.2-1.78,2.95-3.35,5.2-4.58,2.25,1.24,3.99,2.81,5.2,4.58Zm-5.2-5.72c-1.89-1.04-3.45-2.34-4.62-3.8h9.24c-1.17,1.46-2.73,2.76-4.62,3.8Z" stroke-width="0"/></g></g><g id="uuid-be80f5aa-db4b-440a-99bd-92635116c56f"></g></svg>