<?xml version="1.0" encoding="UTF-8"?><svg width="70" height="70" id="uuid-c832d73b-2b54-434a-9172-f7b09d81ad90" xmlns="http://www.w3.org/2000/svg" viewBox="-10 -10 70 70"><rect x="-10" y="-10" width="70" height="70" fill="white"/><path d="M26.25,3.71C13.82,3.71,3.71,13.82,3.71,26.25s10.11,22.54,22.54,22.54,22.54-10.11,22.54-22.54S38.68,3.71,26.25,3.71Zm.94,14.12c0-1.11,.9-2.02,2.02-2.02s2.02,.9,2.02,2.02v.32l-4.03,4.03v-4.36Zm-17.66,6.8c-.4-.58-.36-1.37,.1-1.91,.46-.53,1.22-.69,1.89-.37,1.09,.41,2.08,1.06,2.84,1.87,.92,.98,1.37,2.03,1.52,2.37,.12,.29,.21,.54,.27,.72,.08,.23,.31,.38,.55,.33,.24-.04,.42-.25,.42-.49V8.9c0-1.11,.9-2.02,2.02-2.02s2.02,.9,2.02,2.02v14.3c0,.28,.22,.5,.5,.5s.5-.22,.5-.5v-7.23c0-1.11,.9-2.02,2.02-2.02s2.02,.9,2.02,2.02v7.21l-10.59,10.59-6.07-9.14Zm26.72,1.5c-.06,2.55-.52,5.05-1.37,7.42-.52,1.45-1.18,2.86-1.98,4.19-.05,.08-.07,.19-.07,.29l.02,4.59h-13.51v-3.05c0-.1-.03-.19-.08-.28l-3.1-4.67,15.05-15.05v3.77c0,.28,.22,.5,.5,.5s.5-.22,.5-.5v-3.39c0-1.11,.91-2.01,2.02-2.01s2.02,.9,2.02,2.02v6.18Z" fill="#ffcd00" stroke-width="0"/><path d="M41.72,8.46s-.02-.05-.04-.07c-.02-.02-.04-.02-.05-.04C37.35,3.95,31.36,1.21,24.75,1.21,11.77,1.21,1.21,11.77,1.21,24.75c0,6.62,2.75,12.6,7.16,16.88,.01,.02,.02,.03,.03,.05,.02,.02,.04,.03,.06,.04,4.23,4.07,9.97,6.57,16.29,6.57,12.98,0,23.54-10.56,23.54-23.54,0-6.32-2.51-12.05-6.57-16.29ZM2.21,24.75C2.21,12.32,12.32,2.21,24.75,2.21c6.18,0,11.79,2.5,15.87,6.55l-8.47,8.47c-.28-1.37-1.49-2.41-2.95-2.41-.79,0-1.5,.3-2.04,.79-.18-1.49-1.46-2.65-2.99-2.65-.77,0-1.48,.29-2.02,.78v-4.83c0-1.66-1.35-3.02-3.02-3.02s-3.02,1.35-3.02,3.02v15.99c-.26-.42-.6-.89-1.03-1.35-.87-.93-1.98-1.66-3.18-2.11-1.04-.5-2.29-.23-3.04,.64-.76,.88-.82,2.17-.17,3.12l6.18,9.3-6.13,6.13c-4.04-4.08-6.55-9.68-6.55-15.86Zm30.65,17.86h-13.51v-3.05c0-.1-.03-.19-.08-.28l-3.1-4.67,15.05-15.05v3.77c0,.28,.22,.5,.5,.5s.5-.22,.5-.5v-3.39c0-1.11,.91-2.01,2.02-2.01s2.02,.9,2.02,2.02v6.18c-.06,2.55-.52,5.05-1.37,7.42-.52,1.45-1.18,2.86-1.98,4.19-.05,.08-.07,.19-.07,.29l.02,4.59Zm-1.64-24.46l-4.03,4.03v-4.36c0-1.11,.9-2.02,2.02-2.02s2.02,.9,2.02,2.02v.32Zm-5.03-.32v5.36l-10.59,10.59-6.07-9.14c-.4-.58-.36-1.37,.1-1.91,.46-.53,1.22-.69,1.89-.37,1.09,.41,2.08,1.06,2.84,1.87,.92,.98,1.37,2.03,1.52,2.37,.12,.29,.21,.54,.27,.72,.08,.23,.31,.38,.55,.33,.24-.04,.42-.25,.42-.49V8.9c0-1.11,.9-2.02,2.02-2.02s2.02,.9,2.02,2.02v14.3c0,.28,.22,.5,.5,.5s.5-.22,.5-.5v-7.23c0-1.11,.9-2.02,2.02-2.02s2.02,.9,2.02,2.02v1.85Zm-1.44,29.47c-5.89,0-11.26-2.27-15.28-5.98l5.97-5.97,2.91,4.37v3.4c0,.28,.22,.5,.5,.5h14.51c.28,0,.5-.22,.5-.5l-.02-4.99c.8-1.35,1.47-2.77,1.99-4.24,.88-2.47,1.36-5.07,1.42-7.75v-6.19c0-1.66-1.35-3.02-3.02-3.02-.15,0-.29,.02-.43,.04l7.5-7.5c3.71,4.02,5.98,9.39,5.98,15.28,0,12.43-10.11,22.54-22.54,22.54Z" stroke-width="0"/></svg>