<?xml version="1.0" encoding="UTF-8"?><svg width="70" height="70" xmlns="http://www.w3.org/2000/svg" viewBox="-10 -10 70 70"><rect x="-10" y="-10" width="70" height="70" fill="white"/><g id="uuid-a74026ee-4467-4ea8-b290-41e1f52202ab"><g><path d="M3.06,14.26v29.26H49.44V14.26H3.06Zm27.58,14.79h-3.73c-.28,0-.5,.22-.5,.5v3.73h-3.31v-3.73c0-.28-.22-.5-.5-.5h-3.73v-3.31h3.73c.28,0,.5-.22,.5-.5v-3.73h3.31v3.73c0,.28,.22,.5,.5,.5h3.73v3.31Z" fill="#ffcd00" stroke-width="0"/><g><path d="M48.44,11.76h-14.71v-1.82c0-1.91-1.55-3.46-3.46-3.46h-11.04c-1.91,0-3.46,1.55-3.46,3.46v1.82H1.06c-.28,0-.5,.22-.5,.5v30.26c0,.28,.22,.5,.5,.5H48.44c.28,0,.5-.22,.5-.5V12.26c0-.28-.22-.5-.5-.5Zm-.5,30.26H1.56V12.76H47.94v29.26ZM16.77,9.94c0-1.36,1.1-2.46,2.46-2.46h11.04c1.36,0,2.46,1.1,2.46,2.46v1.82h-15.96v-1.82Z" stroke-width="0"/><path d="M24.75,14.99c-6.84,0-12.4,5.56-12.4,12.4s5.56,12.4,12.4,12.4,12.4-5.56,12.4-12.4-5.56-12.4-12.4-12.4Zm0,23.81c-6.29,0-11.4-5.12-11.4-11.4s5.12-11.4,11.4-11.4,11.4,5.12,11.4,11.4-5.12,11.4-11.4,11.4Z" stroke-width="0"/><path d="M31.14,24.73h-3.73v-3.73c0-.28-.22-.5-.5-.5h-4.31c-.28,0-.5,.22-.5,.5v3.73h-3.73c-.28,0-.5,.22-.5,.5v4.31c0,.28,.22,.5,.5,.5h3.73v3.73c0,.28,.22,.5,.5,.5h4.31c.28,0,.5-.22,.5-.5v-3.73h3.73c.28,0,.5-.22,.5-.5v-4.31c0-.28-.22-.5-.5-.5Zm-.5,4.31h-3.73c-.28,0-.5,.22-.5,.5v3.73h-3.31v-3.73c0-.28-.22-.5-.5-.5h-3.73v-3.31h3.73c.28,0,.5-.22,.5-.5v-3.73h3.31v3.73c0,.28,.22,.5,.5,.5h3.73v3.31Z" stroke-width="0"/></g></g></g><g id="uuid-bae4a8ed-3af6-4788-b18c-b7af58bda7af"></g></svg>