<?xml version="1.0" encoding="UTF-8"?><svg width="70" height="70" id="uuid-22c0db65-a6b2-4e5c-ab80-b7d87f88b5a9" xmlns="http://www.w3.org/2000/svg" viewBox="-10 -10 70 70"><rect x="-10" y="-10" width="70" height="70" fill="white"/><path d="M26.58,17.99c0-3.61,0-7.23,0-10.84H7.86V49.47h31.57c-.02-10.49-.03-20.98-.05-31.47h-12.8Z" fill="#ffcd00" stroke-width="0"/><path d="M44.14,.53H11.57c-.28,0-.5,.22-.5,.5v1.67h-2.32c-.28,0-.5,.22-.5,.5v1.45h-2.38c-.28,0-.5,.22-.5,.5V48.47c0,.28,.22,.5,.5,.5H38.43c.28,0,.5-.22,.5-.5v-1.45h2.38c.28,0,.5-.22,.5-.5v-1.67h2.32c.28,0,.5-.22,.5-.5V1.03c0-.28-.22-.5-.5-.5Zm-6.21,47.44H6.36V5.65H25.59v11.84c0,.28,.22,.5,.5,.5h11.84v29.98Zm-11.34-30.98V6.36l10.64,10.63h-10.64Zm14.23,29.03h-1.88V17.49s0-.04-.01-.06c0-.02,0-.04-.01-.06-.02-.08-.06-.16-.12-.23L26.44,4.8c-.06-.06-.14-.1-.23-.12-.02,0-.04,0-.06-.01-.02,0-.04-.01-.07-.01H9.24v-.95h31.57V46.02Zm2.82-2.17h-1.82V3.2c0-.28-.22-.5-.5-.5H12.07V1.53h31.57V43.85Z" stroke-width="0"/></svg>