<?xml version="1.0" encoding="utf-8"?> <!-- Generator: Adobe Illustrator 27.7.0, SVG Export Plug-In . SVG Version: 6.00 Build 0) --> <svg width="70" height="70" version="1.1" xmlns="http://www.w3.org/2000/svg" xmlns:xlink="http://www.w3.org/1999/xlink" x="0px" y="0px" viewBox="-10 -10 70 70" style="enable-background:new 0 0 50 50;" xml:space="preserve"><rect x="-10" y="-10" width="70" height="70" fill="white"/> <style type="text/css"> .st0{fill:#FFCD00;} .st1{display:none;} .st2{display:inline;fill:none;stroke:#EA008A;stroke-width:0.2;stroke-miterlimit:10;} .st3{font-family:'Roboto-Regular';} .st4{font-size:6px;} </style> <g id="Color"> <path class="st0" d="M30.097,10.6401l1.7829,0.1548c-0.4775-3.7344-3.5361-6.7188-7.332-7.0488 c-3.8008-0.3389-7.3242,2.083-8.4375,5.6797L17.634,9.558c-0.2653,0.327-0.5363,0.7117-0.7258,1.0074 c-0.4541,0.6729-0.7979,1.3945-1.0273,2.1582c0.0811,0.002,0.1562,0.0039,0.2168,0.0039c2.1094,0,4.0967-0.8174,5.5957-2.3008 l0.375-0.3711l0.3506,0.3945c1.5088,1.6973,3.6768,2.6709,5.9473,2.6709c0.9189,0,1.8877-0.1816,2.7227-0.5049 c-0.0801-0.2549-0.1758-0.5039-0.2979-0.7832C30.7072,11.6454,30.3409,11.0356,30.097,10.6401z" stroke-width="0"/> <path class="st0" d="M16.6006,40.9902h13.7988l0.2256-6.5859c0.0098-0.2686,0.2305-0.4824,0.5-0.4824h0.0703l-1.0703-3.874 c-0.0361-0.127-0.0186-0.2637,0.0459-0.3789l2.584-4.5684l-5.1436-2.8564l-8.1416-0.0449l-5.2246,2.9014l2.583,4.5684 c0.0645,0.1152,0.082,0.252,0.0469,0.3789l-1.0703,3.874h0.0703c0.2695,0,0.4902,0.2139,0.5,0.4824L16.6006,40.9902z" stroke-width="0"/> </g> <g id="ICONS_00000031165542127692736420000002692518830807990202_"> <g> <path d="M19.952,15.0478c0.5378,0,0.9738-0.436,0.9738-0.9738s-0.436-0.9738-0.9738-0.9738c-0.5378,0-0.9739,0.436-0.9739,0.9738 S19.4141,15.0478,19.952,15.0478z" stroke-width="0"/> <circle cx="24.048" cy="14.074" r="0.9738"/> <path d="M43.1543,37.1123c-0.2354-0.7188-0.7373-1.3018-1.4121-1.6436c-0.6729-0.3408-1.4404-0.4014-2.1602-0.1641 c-0.7188,0.2354-1.3027,0.7373-1.6445,1.4121c-0.0093,0.0184-0.0129,0.0381-0.0218,0.0566 c-1.5972-0.6442-2.3857-1.6429-3.2057-2.7002c-0.9795-1.2617-1.9912-2.5664-4.3691-3.0801 c-0.0012-0.0002-0.0021,0.0002-0.0033-0.0001l-0.5605-2.0275l4.2611,1.759c0.332,0.1377,0.6504,0.1982,0.9482,0.1982 c0.9346,0,1.6748-0.5938,2.0352-1.2939c0.4756-0.9258,0.4141-2.2793-0.8438-3.0654l-4.0263-2.5157l0.2226-0.3935 c0.0654-0.1162,0.082-0.2529,0.0459-0.3818c-0.0361-0.1279-0.1221-0.2363-0.2383-0.3018l-4.5238-2.5121 c1.1871-0.9703,2.1147-2.2408,2.6812-3.692c0.2626,0.0878,0.5335,0.1396,0.8114,0.1396c1.4219,0,2.5781-1.1572,2.5781-2.5791 s-1.1562-2.5781-2.5781-2.5781c-0.1246,0-0.2474,0.0118-0.3676,0.0296c-0.0998-0.5063-0.2505-1.0001-0.438-1.4831l0.5439,0.0472 c0.0146,0.001,0.0283,0.002,0.043,0.002c0.1289,0,0.2539-0.0498,0.3477-0.1406c0.1045-0.1016,0.1592-0.2422,0.1514-0.3867 c-0.2471-4.4941-3.8135-8.1777-8.2969-8.5674c-4.3372-0.3694-8.351,2.4367-9.5309,6.5885L10.1641,7.54 C9.8984,7.5215,9.6475,7.7197,9.623,7.9951c-0.0244,0.2744,0.1797,0.5176,0.4551,0.541l3.9609,0.3438 C14.0405,8.88,14.0419,8.88,14.0434,8.8801l0.306,0.0266c-0.539,0.8914-0.9138,1.8589-1.1143,2.8735 c-0.1257-0.0196-0.2549-0.0311-0.3855-0.0311c-1.4219,0-2.5781,1.1562-2.5781,2.5781s1.1562,2.5791,2.5781,2.5791 c0.2779,0,0.5488-0.0518,0.8114-0.1396c0.5665,1.4511,1.494,2.7217,2.6812,3.692l-4.5238,2.5121 c-0.1162,0.0654-0.2021,0.1738-0.2383,0.3018c-0.0361,0.1289-0.0195,0.2656,0.0459,0.3818l0.2226,0.3935l-4.0263,2.5157 c-1.2578,0.7861-1.3193,2.1396-0.8438,3.0654c0.3604,0.7002,1.1006,1.2939,2.0352,1.2939c0.2979,0,0.6162-0.0605,0.9482-0.1982 l4.2611-1.759l-1.057,3.8235c-0.042,0.1504-0.0107,0.3115,0.084,0.4355c0.0938,0.124,0.2412,0.1973,0.3975,0.1973h0.2441 l0.2256,6.5859c0.0098,0.2686,0.2305,0.4824,0.5,0.4824h1.1763l0.5151,6.1426c0.124,1.4785,1.2998,2.1514,2.3389,2.1514 c1.04,0,2.2158-0.6729,2.3398-2.1514l0.5151-6.1426h0.9951l0.5151,6.1426c0.124,1.4785,1.2998,2.1514,2.3398,2.1514 c1.0391,0,2.2148-0.6729,2.3389-2.1514l0.5151-6.1426h1.1763c0.2695,0,0.4902-0.2139,0.5-0.4824l0.2256-6.5859h0.2441 c0.1562,0,0.3037-0.0732,0.3975-0.1973c0.0947-0.124,0.126-0.2852,0.084-0.4355l-0.1874-0.6781 c1.6461,0.4976,2.4112,1.465,3.2734,2.5756c0.8441,1.0889,1.808,2.3073,3.7299,3.0532c-0.1,1.1211,0.4722,2.2432,1.5358,2.7817 c0.4082,0.207,0.8438,0.3047,1.2734,0.3047c1.0342,0,2.0332-0.5684,2.5322-1.5527C43.332,38.5986,43.3906,37.8311,43.1543,37.1123 z M14.3047,32.4219l3.1021-11.2242c1.3451,0.8082,2.913,1.2819,4.5933,1.2819s3.2482-0.4737,4.5933-1.2819l3.1021,11.2242H29.625 h-15.25H14.3047z M35.6484,27.4111c0.7754,0.4854,0.7451,1.251,0.4834,1.7598c-0.2607,0.5088-0.8643,0.9785-1.7129,0.6299 l-4.4763-1.8479l1.7163-3.0344L35.6484,27.4111z M29.2659,27.1169l-1.5089-5.4582l3.4978,1.9419L29.2659,27.1169z M31.1504,12.749 c0.8701,0,1.5781,0.708,1.5781,1.5781c0,0.8711-0.708,1.5791-1.5781,1.5791c-0.1715,0-0.3389-0.0378-0.5023-0.0923 c0.1943-0.7326,0.308-1.4977,0.308-2.2905c0-0.2543-0.0176-0.5056-0.0383-0.7562C30.9935,12.7562,31.0714,12.749,31.1504,12.749z M29.29,10.332c0.1154,0.2625,0.2142,0.53,0.2998,0.8011c-0.8719,0.3183-1.7851,0.4889-2.7236,0.4889 c-1.999,0-3.9165-0.756-5.3771-2.0955l7.7727,0.6749C29.2681,10.2454,29.2715,10.2895,29.29,10.332z M23.0479,2.2461 c3.7959,0.3301,6.8545,3.3145,7.332,7.0488L14.6104,7.9258C15.7236,4.3291,19.2471,1.9072,23.0479,2.2461z M19.6992,9.3712 c-1.4298,1.1988-3.2155,1.8564-5.1016,1.8564c-0.0717,0-0.142-0.0065-0.2134-0.0084c0.2285-0.7573,0.5685-1.4797,1.0172-2.145 c0.0156-0.0229,0.0195-0.0492,0.0308-0.0735L19.6992,9.3712z M12.8496,15.9062c-0.8701,0-1.5781-0.708-1.5781-1.5791 c0-0.8701,0.708-1.5781,1.5781-1.5781c0.085,0,0.1689,0.0068,0.25,0.0195l0,0c-0.0211,0.2513-0.0557,0.5004-0.0557,0.7549 c0,0.7928,0.1137,1.5579,0.308,2.2905C13.1885,15.8685,13.0211,15.9062,12.8496,15.9062z M14.0439,13.5234 c0-0.4437,0.0449-0.881,0.1165-1.3124c0.1455,0.0069,0.2905,0.0165,0.4372,0.0165c2.2061,0,4.288-0.8031,5.9273-2.2554 c1.6758,1.6835,3.9542,2.65,6.3412,2.65c1.0175,0,2.0083-0.1786,2.9572-0.5114c0.0828,0.4628,0.1326,0.9332,0.1326,1.4127 c0,4.3867-3.5693,7.9561-7.9561,7.9561S14.0439,17.9102,14.0439,13.5234z M16.2429,21.6587l-1.5089,5.4582l-1.989-3.5163 L16.2429,21.6587z M9.5811,29.8008c-0.8486,0.3506-1.4521-0.1221-1.7129-0.6299c-0.2617-0.5088-0.292-1.2744,0.4834-1.7598 l3.9895-2.4927l1.7163,3.0344L9.5811,29.8008z M19.9912,46.5488c-0.0771,0.9121-0.7715,1.2354-1.3438,1.2354 c-0.5713,0-1.2656-0.3232-1.3428-1.2354l-0.5081-6.0586h3.7028L19.9912,46.5488z M26.6953,46.5488 c-0.0771,0.9121-0.7715,1.2354-1.3428,1.2354c-0.5723,0-1.2666-0.3232-1.3438-1.2354l-0.5081-6.0586h3.7028L26.6953,46.5488z M28.8994,39.4902H22.5V36.001c0-0.2764-0.2236-0.5-0.5-0.5s-0.5,0.2236-0.5,0.5v3.4893h-6.3994l-0.208-6.0684h14.2148 L28.8994,39.4902z M42.0986,38.8223c-0.4561,0.9014-1.5605,1.2627-2.4619,0.8066c-0.9004-0.4551-1.2627-1.5596-0.8066-2.4609 c0.2207-0.4365,0.5986-0.7607,1.0635-0.9131c0.1875-0.0615,0.3799-0.0918,0.5723-0.0918c0.2832,0,0.5654,0.0664,0.8252,0.1982 c0.4365,0.2207,0.7607,0.5986,0.9141,1.0625C42.3574,37.8887,42.3193,38.3848,42.0986,38.8223z" stroke-width="0"/> </g> </g> <g id="Margin" class="st1"> <rect x="1" y="1" class="st2" /> </g> <g id="Guides" class="st1"> </g> <g id="LABELS"> <g> <g> <g> <g> <g> <g> <g> <g> <g> <g> <g> </g> </g> </g> </g> </g> </g> </g> </g> </g> </g> </g> </g> </svg> 