<?xml version="1.0" encoding="utf-8"?> <!-- Generator: Adobe Illustrator 27.7.0, SVG Export Plug-In . SVG Version: 6.00 Build 0) --> <svg width="70" height="70" version="1.1" xmlns="http://www.w3.org/2000/svg" xmlns:xlink="http://www.w3.org/1999/xlink" x="0px" y="0px" viewBox="-10 -10 70 70" style="enable-background:new 0 0 50 50;" xml:space="preserve"><rect x="-10" y="-10" width="70" height="70" fill="white"/> <style type="text/css"> .st0{fill:#FFCD00;} .st1{display:none;} .st2{display:inline;fill:none;stroke:#EA008A;stroke-width:0.2;stroke-miterlimit:10;} .st3{font-family:'Roboto-Regular';} .st4{font-size:6px;} </style> <g id="Color"> <path class="st0" d="M15.043,37.6895l4.0938-15.7049c0.0016-0.0063,0.0035-0.0123,0.0049-0.0186l0.3359-1.2888 c1.497,1.0507,3.3154,1.673,5.2792,1.673s3.7822-0.6223,5.2792-1.673l0.3359,1.2888c0.0013,0.0063,0.0032,0.0123,0.0049,0.0186 l4.0938,15.7049H15.043z" stroke-width="0"/> <path class="st0" d="M33.3389,10.6948c0.5801,2.6494,2.9697,4.6021,5.7119,4.6021c0.6875,0,1.3604-0.1196,2.0049-0.3564 c-0.5801-2.6494-2.9697-4.6021-5.7119-4.6021C34.6562,10.3384,33.9834,10.458,33.3389,10.6948z" stroke-width="0"/> <path class="st0" d="M29.399,11.0616c1.0158,0,1.9868-0.1827,2.8934-0.5021c-0.9645-3.4662-4.1412-6.0204-7.9105-6.0204 c-3.7997,0-6.9962,2.5959-7.9323,6.1048c0.1005,0.0034,0.1998,0.0115,0.3011,0.0115c2.3907,0,4.5568-0.9623,6.1318-2.5209 l-0.0139-0.0253C24.466,9.9171,26.7968,11.0616,29.399,11.0616z" stroke-width="0"/> <path class="st0" d="M15.0391,11.6318c0-0.3469,0.0286-0.6866,0.0706-1.0223c-0.5489-0.1674-1.1121-0.2711-1.6897-0.2711 c-2.7422,0-5.1318,1.9526-5.7119,4.6021c0.6445,0.2368,1.3174,0.3564,2.0049,0.3564c2.3406,0,4.4141-1.4287,5.3349-3.493 C15.0466,11.7461,15.0391,11.6899,15.0391,11.6318z" stroke-width="0"/> </g> <g id="ICONS_00000031165542127692736420000002692518830807990202_"> <g> <g> <circle cx="21.1455" cy="12.1994" r="1.0039"/> <path d="M26.3723,12.1994c0,0.5545-0.4495,1.0039-1.0039,1.0039c-0.5545,0-1.0039-0.4495-1.0039-1.0039 s0.4495-1.0039,1.0039-1.0039C25.9228,11.1955,26.3723,11.645,26.3723,12.1994z" stroke-width="0"/> <g> <path d="M42.0635,17.4199c-1.6006,0-2.9033,1.3027-2.9033,2.9038c0,0.0256,0.0069,0.0493,0.0076,0.0747 c-1.9758,0.1775-3.2676-0.4681-4.5125-1.1055c-1.5128-0.7749-2.958-1.4889-5.1868-0.4999l-0.078-0.2993 c1.7107-1.5309,2.8477-3.6843,3.0458-6.105c1.2623,1.692,3.2755,2.7831,5.4895,2.7831c0.958,0,1.8906-0.1982,2.7725-0.5889 c0.2061-0.0908,0.3252-0.3081,0.292-0.5308c-0.4951-3.3286-3.4072-5.8389-6.7715-5.8389c-0.7762,0-1.5347,0.1368-2.2642,0.3942 c-1.2556-3.5995-4.6752-6.1935-8.6977-6.1935c-1.2404,0-2.4226,0.2497-3.5037,0.6959c-0.002,0.0005-0.004-0.0001-0.006,0.0004 c-0.0045,0.0013-0.0076,0.0048-0.012,0.0062c-2.4166,1.0032-4.3096,3.0076-5.1759,5.491 c-0.7296-0.2574-1.488-0.3942-2.2642-0.3942c-3.3643,0-6.2764,2.5103-6.7715,5.8389c-0.0332,0.2227,0.0859,0.4399,0.292,0.5308 c0.8818,0.3906,1.8145,0.5889,2.7725,0.5889c2.2141,0,4.2272-1.0911,5.4895-2.7831c0.1982,2.4208,1.3351,4.5742,3.0458,6.105 l-0.4044,1.5509l-8.0695,5.0441c-1.2891,0.8052-1.3516,2.1914-0.8643,3.1387c0.3691,0.7178,1.127,1.3252,2.084,1.3252 c0.3057,0,0.6318-0.0615,0.9717-0.2021l3.868-1.5964l-2.2968,8.8093c-0.0391,0.1494-0.0068,0.3096,0.0879,0.4316 c0.0947,0.123,0.2402,0.1943,0.3955,0.1943h2.5404l0.7194,8.5752c0.127,1.5137,1.3311,2.2031,2.3965,2.2031 c1.0645,0,2.2686-0.6895,2.3955-2.2031l0.7194-8.5752h3.1804l0.7194,8.5752c0.127,1.5137,1.3311,2.2031,2.3965,2.2031 s2.2695-0.6895,2.3955-2.2031l0.7194-8.5752h2.5404c0.1553,0,0.3008-0.0713,0.3955-0.1943 c0.0947-0.1221,0.127-0.2822,0.0879-0.4316l-2.2969-8.8098l3.8691,1.5969c0.3398,0.1406,0.666,0.2031,0.9717,0.2031 c0.957-0.001,1.7148-0.6084,2.084-1.3262c0.4873-0.9473,0.4238-2.3335-0.8652-3.1387l-8.0695-5.0441l-0.0707-0.2711 c1.8883-0.8925,3.0449-0.3236,4.4751,0.4089c1.1641,0.5962,2.4551,1.2578,4.3066,1.2578c0.2733,0,0.5638-0.0209,0.8628-0.0521 c0.4261,1.0747,1.4706,1.8392,2.6948,1.8392c1.6006,0,2.9033-1.3027,2.9033-2.9038S43.6641,17.4199,42.0635,17.4199z M39.9307,13.8154c-0.6445,0.2368-1.3174,0.3564-2.0049,0.3564c-2.6491,0-4.9532-1.8294-5.6306-4.3419 c-0.0178-0.0896-0.0423-0.1765-0.0627-0.2652c0.6391-0.2324,1.3053-0.3514,1.9863-0.3514 C36.9609,9.2134,39.3506,11.166,39.9307,13.8154z M31.0189,8.9571c-0.8792,0.3121-1.7986,0.4794-2.7444,0.4794 c-3.5082,0-6.6339-2.2576-7.7657-5.5398c0.8608-0.3069,1.7833-0.4827,2.7481-0.4827 C26.8508,3.4141,29.9056,5.7368,31.0189,8.9571z M19.5859,4.2902c0.3471,0.9808,0.8512,1.8791,1.4824,2.6675 c-1.5043,1.3348-3.4161,2.0726-5.4424,2.0726c-0.0526,0-0.1035-0.0049-0.1558-0.0059 C16.1648,6.9564,17.6592,5.2577,19.5859,4.2902z M8.5879,14.1719c-0.6875,0-1.3604-0.1196-2.0049-0.3564 c0.5801-2.6494,2.9697-4.6021,5.7119-4.6021c0.681,0,1.3472,0.119,1.9863,0.3514c-0.0204,0.0887-0.0449,0.1756-0.0627,0.2652 C13.5411,12.3425,11.237,14.1719,8.5879,14.1719z M15.0391,11.6318c0-0.5086,0.0529-1.0043,0.1418-1.4876 c0.012-0.0435,0.0269-0.0857,0.0381-0.1295c0.1354,0.0059,0.2699,0.0155,0.407,0.0155c2.2745,0,4.421-0.8292,6.1091-2.329 c1.6939,1.7018,4.0289,2.7352,6.5394,2.7352c1.0314,0,2.0349-0.1774,2.9966-0.5087c0.0178,0.0734,0.0417,0.144,0.0618,0.2164 c0.0889,0.4833,0.1418,0.979,0.1418,1.4876c0,4.5317-3.6865,8.2183-8.2178,8.2183S15.0391,16.1636,15.0391,11.6318z M10.46,28.4268c-0.8281,0.3398-1.4922-0.085-1.7852-0.6562c-0.2939-0.5723-0.252-1.3604,0.5039-1.834l7.1731-4.4838 l-1.3271,5.0901L10.46,28.4268z M19.9512,45.6807c-0.0752,0.8896-0.7568,1.2871-1.3994,1.2871 c-0.6436,0-1.3252-0.3975-1.4004-1.2871l-0.7123-8.4912h4.2245L19.9512,45.6807z M29.3623,45.6807 c-0.0742,0.8896-0.7559,1.2871-1.3994,1.2871c-0.6426,0-1.3252-0.3975-1.4004-1.2871l-0.7123-8.4912h4.2245L29.3623,45.6807z M13.543,36.1895l4.0938-15.7049c0.0016-0.0063,0.0035-0.0123,0.0049-0.0186l0.3359-1.2888 c1.497,1.0507,3.3154,1.673,5.2792,1.673s3.7822-0.6223,5.2792-1.673l0.3359,1.2888c0.0013,0.0063,0.0032,0.0123,0.0049,0.0186 l4.0938,15.7049H13.543z M37.335,25.9365c0.7568,0.4736,0.7988,1.2617,0.5049,1.834c-0.293,0.5713-0.958,0.9951-1.7852,0.6562 l-4.5659-1.8845l-1.327-5.0896L37.335,25.9365z M42.0635,22.2275c-1.0498,0-1.9033-0.854-1.9033-1.9038 s0.8535-1.9038,1.9033-1.9038s1.9033,0.854,1.9033,1.9038S43.1133,22.2275,42.0635,22.2275z" stroke-width="0"/> <path d="M23.2568,26.9082c1.252,0,2.2705-1.0186,2.2705-2.271c0-1.252-1.0186-2.2705-2.2705-2.2705 s-2.2705,1.0186-2.2705,2.2705C20.9863,25.8896,22.0049,26.9082,23.2568,26.9082z M23.2568,23.3667 c0.7002,0,1.2705,0.5698,1.2705,1.2705s-0.5703,1.271-1.2705,1.271s-1.2705-0.5703-1.2705-1.271 S22.5566,23.3667,23.2568,23.3667z" stroke-width="0"/> <path d="M23.2568,28.1787c-1.252,0-2.2705,1.0186-2.2705,2.2705c0,1.2529,1.0186,2.2715,2.2705,2.2715 s2.2705-1.0186,2.2705-2.2715C25.5273,29.1973,24.5088,28.1787,23.2568,28.1787z M23.2568,31.7207 c-0.7002,0-1.2705-0.5703-1.2705-1.2715c0-0.7002,0.5703-1.2705,1.2705-1.2705s1.2705,0.5703,1.2705,1.2705 C24.5273,31.1504,23.957,31.7207,23.2568,31.7207z" stroke-width="0"/> </g> </g> </g> </g> <g id="Margin" class="st1"> <rect x="1" y="1" class="st2" /> </g> <g id="Guides" class="st1"> </g> <g id="LABELS"> <g> <g> <g> <g> <g> <g> <g> <g> <g> </g> </g> </g> </g> </g> </g> </g> </g> </g> </g> </svg> 