<?xml version="1.0" encoding="UTF-8"?><svg width="70" height="70" xmlns="http://www.w3.org/2000/svg" viewBox="-10 -10 70 70"><rect x="-10" y="-10" width="70" height="70" fill="white"/><g id="uuid-8d43971c-3bf6-4439-a930-7ce90eb6d99f"><g><polygon points="8.05 28.43 8.05 27.93 8.05 26.38 3.11 26.38 3.11 41.12 8.05 41.12 8.05 39.57 8.05 39.07 13.2 39.07 13.2 28.43 8.05 28.43" fill="#ffcd00"/><path d="M32.67,25.7l7.24-7.24c1.62-1.62,1.62-4.25,0-5.86-.78-.78-1.82-1.21-2.93-1.21s-2.15,.43-2.93,1.21l-1.02,1.02c-.2,.2-.51,.2-.71,0l-1.02-1.02c-.78-.78-1.82-1.21-2.93-1.21s-2.15,.43-2.93,1.21-1.21,1.82-1.21,2.93,.43,2.15,1.21,2.93l7.24,7.24Z" fill="#ffcd00" stroke-width="0"/><g><path d="M49.36,33.64c-.12-.93-.67-1.79-1.53-2.35-.92-.61-2.07-.79-3.14-.49l-11.13,2.23c.11-.73-.05-1.5-.49-2.12-.48-.69-1.22-1.15-1.99-1.25l-11.38-2.98s-.08-.02-.13-.02h-6.87v-.23c0-.28-.22-.5-.5-.5H6.97v-1.54c0-.28-.22-.5-.5-.5H1.11c-.28,0-.5,.22-.5,.5v15.73c0,.28,.22,.5,.5,.5H6.47c.28,0,.5-.22,.5-.5v-1.54h5.23c.28,0,.5-.22,.5-.5v-.86l17.27,3.47c.07,.02,.14,.04,.22,.04h0s.06,.01,.08,.01c.09,0,.17-.03,.25-.07l15.71-3.15c1.96-.32,3.36-2.06,3.14-3.87ZM5.97,26.43v13.19H1.61v-14.73H5.97v1.54Zm5.73,11.15H6.97v-10.65h4.73v10.65Zm34.35-1.05l-15.84,3.18-17.5-3.51v-1.3l.03-.12c.02-.1,0-.19-.03-.28v-6.84h6.81l11.38,2.97c.55,.08,1.04,.38,1.36,.84,.31,.45,.43,1,.32,1.51-.11,.52-.45,.97-.93,1.25-.49,.28-1.07,.35-1.63,.18l-11.44-2.87c-.21-.05-.42,.04-.53,.2-.03,.05-.06,.1-.08,.16-.07,.27,.1,.54,.36,.61l11.41,2.87c.29,.09,.58,.13,.88,.13,.53,0,1.06-.14,1.52-.41,.42-.24,.75-.58,1-.97l11.77-2.36s.03,0,.04,0c.8-.23,1.65-.1,2.34,.36,.61,.41,1.01,1,1.09,1.64,.14,1.13-.75,2.51-2.32,2.76Z" stroke-width="0"/><path d="M30.81,25.26c.09,.09,.22,.15,.35,.15s.26-.05,.35-.15l7.59-7.59c2.01-2.01,2.01-5.27,0-7.28-.97-.97-2.26-1.51-3.64-1.51s-2.67,.54-3.64,1.51l-.67,.67-.67-.67c-.97-.97-2.26-1.51-3.64-1.51s-2.67,.54-3.64,1.51c-.97,.97-1.51,2.26-1.51,3.64s.54,2.67,1.51,3.64l7.59,7.59Zm-6.88-14.16c.78-.78,1.82-1.21,2.93-1.21s2.15,.43,2.93,1.21l1.02,1.02c.2,.2,.51,.2,.71,0l1.02-1.02c.78-.78,1.83-1.21,2.93-1.21s2.15,.43,2.93,1.21c1.62,1.62,1.62,4.25,0,5.86l-7.24,7.24-7.24-7.24c-.78-.78-1.21-1.82-1.21-2.93s.43-2.15,1.21-2.93Z" stroke-width="0"/></g></g></g><g id="uuid-235d9e67-5c9a-4a72-ab0e-6b8cdf3b2c55"></g></svg>