<?xml version="1.0" encoding="UTF-8"?><svg width="70" height="70" xmlns="http://www.w3.org/2000/svg" viewBox="-10 -10 70 70"><rect x="-10" y="-10" width="70" height="70" fill="white"/><g id="uuid-1673e63b-1c4f-40e8-a815-08e289f2ae0b"><path d="M24.39,40.87v.05s.04,0,.06,0c-.02-.01-.04-.03-.06-.04Z" stroke-width="0"/><g><polygon points="22.22 3.63 6.22 6.34 6.22 46.25 22.72 49.04 22.72 44.39 22.22 44.39 22.22 3.63" fill="#ffcd00"/><polygon points="46.28 6.25 30.28 3.55 30.28 49.04 46.78 46.25 46.78 44.39 46.28 44.39 46.28 6.25" fill="#ffcd00"/><path d="M48.59,2.46h-11.4L28.36,.96c-.15-.02-.29,.02-.41,.11-.11,.09-.18,.23-.18,.38v1h-5.56V1.46c0-.15-.06-.29-.18-.38-.11-.1-.26-.13-.41-.11l-8.83,1.49H1.41c-.28,0-.5,.22-.5,.5V44.89c0,.28,.22,.5,.5,.5H3.78c.07,.14,.2,.25,.36,.27l17.5,2.96s.06,0,.08,0c.12,0,.23-.04,.32-.12,.11-.09,.18-.23,.18-.38v-2.74h5.56v2.74c0,.15,.06,.29,.18,.38,.09,.08,.21,.12,.32,.12,.03,0,.06,0,.08,0l17.5-2.96c.16-.03,.29-.13,.36-.27h2.37c.28,0,.5-.22,.5-.5V2.96c0-.28-.22-.5-.5-.5ZM3.72,4.42V44.39H1.91V3.46H6.9l-2.76,.47c-.24,.04-.42,.25-.42,.49ZM21.22,47.54l-16.5-2.79V4.84L21.22,2.05V47.54Zm6.56-3.15h-5.56V3.46h5.56V44.39Zm17.5,.36l-16.5,2.79V2.05l16.5,2.79V44.75Zm2.81-.36h-1.81V4.42c0-.24-.18-.45-.42-.49l-2.76-.47h4.99V44.39Z" stroke-width="0"/><ellipse cx="18.49" cy="26.43" rx="1.17" ry="1.83" stroke-width="0"/><ellipse cx="31.51" cy="26.43" rx="1.17" ry="1.83" stroke-width="0"/></g></g><g id="uuid-6783e8cf-ef33-4b1e-855c-ba2821506ea6"></g></svg>