<?xml version="1.0" encoding="UTF-8"?><svg width="70" height="70" id="uuid-c5620a6d-3b4d-4bd8-a57e-91b002f96881" xmlns="http://www.w3.org/2000/svg" viewBox="-10 -10 70 70"><rect x="-10" y="-10" width="70" height="70" fill="white"/><polygon points="30.64 4.67 31.14 4.67 31.14 3.26 14.43 6.09 14.43 46.5 31.14 49.33 31.14 44.93 30.64 44.93 30.64 4.67" fill="#ffcd00"/><rect x="30.64" y="4.67" width=".5" height="40.26" fill="#ffcd00"/><path d="M37.57,3.67h-6.93V1.17c0-.15-.06-.29-.18-.38-.11-.1-.26-.13-.41-.11L12.35,3.67c-.24,.04-.42,.25-.42,.49V45.43c0,.24,.18,.45,.42,.49l17.71,3s.06,0,.08,0c.12,0,.23-.04,.32-.12,.11-.09,.18-.23,.18-.38v-2.5h6.93c.28,0,.5-.22,.5-.5V4.17c0-.28-.22-.5-.5-.5Zm-7.93,44.17l-16.71-2.83V4.59L29.64,1.76V47.83Zm7.43-2.91h-6.43V4.67h6.43V44.93Z" stroke-width="0"/><path d="M26.87,28.3c.68,0,1.17-.78,1.17-1.85s-.49-1.85-1.17-1.85-1.17,.78-1.17,1.85,.49,1.85,1.17,1.85Z" stroke-width="0"/></svg>