<?xml version="1.0" encoding="UTF-8"?><svg width="70" height="70" xmlns="http://www.w3.org/2000/svg" viewBox="-10 -10 70 70"><rect x="-10" y="-10" width="70" height="70" fill="white"/><g id="uuid-cc347f7b-541a-4bd2-883a-5e847ec8713c"><g><path d="M38.21,11.33c-4.06,.17-7.75,.84-9.87,1.78-.16,.07-.34,.06-.48-.04-.14-.1-.23-.26-.22-.43l.07-2.95c0-.72-.6-1.32-1.33-1.32s-1.33,.6-1.33,1.33l.07,2.94c0,.17-.08,.33-.22,.43-.14,.1-.33,.11-.48,.04-2.11-.94-5.8-1.61-9.87-1.78-3.15-.13-6.12,.05-8.36,.51-2.49,.51-3.18,1.18-3.19,1.49s.61,1.04,3.05,1.76c2.2,.65,5.14,1.08,8.29,1.21,2.4,.1,4.73,.02,6.72-.24,.25-.03,.48,.12,.55,.37,.06,.24-.06,.49-.29,.59-1.03,.43-2.09,.96-3.14,1.57-1.87,1.08-3.52,2.28-4.63,3.38-1.22,1.21-1.31,1.81-1.25,1.92,.07,.11,.63,.34,2.29-.12,1.51-.42,3.37-1.24,5.24-2.32,1.84-1.06,3.48-2.25,4.59-3.35,.1-.09,.22-.14,.35-.14,.06,0,.13,.01,.19,.04,.18,.07,.31,.25,.31,.45,.43,15.44,.83,22.51,1.11,25.74,.28-3.23,.67-10.3,1.11-25.74,0-.2,.13-.38,.31-.45,.19-.08,.4-.03,.54,.11,1.12,1.09,2.75,2.28,4.59,3.35,4.42,2.55,7.28,2.87,7.53,2.44,.25-.43-1.45-2.75-5.88-5.3-1.05-.6-2.1-1.13-3.14-1.57-.23-.1-.35-.35-.29-.59,.07-.24,.3-.4,.55-.37,1.99,.26,4.31,.34,6.72,.24,3.15-.13,6.1-.56,8.29-1.21,2.44-.72,3.07-1.44,3.05-1.76-.04-1.01-4.57-2.3-11.55-2Z" fill="#ffcd00" stroke-width="0"/><path d="M24.65,13.61s-.02-.02-.03-.03c-.01,.01-.02,.02-.03,.03,.01,.01,.02,.02,.03,.03,0,0,.02-.02,.03-.03Z" stroke-width="0"/><path d="M36.71,15.53c6.19-.26,12.4-1.72,12.3-4.01-.1-2.29-6.41-3.22-12.59-2.96-3.23,.14-6.26,.58-8.53,1.25-.35,.1-.68,.21-.98,.32,.02-.72,.03-1.3,.04-1.67,.93-.26,1.62-1.11,1.62-2.13,0-1.22-1-2.22-2.22-2.22-.7,0-1.31,.33-1.72,.83-.41-.5-1.02-.83-1.72-.83-1.22,0-2.22,1-2.22,2.22,0,1.02,.69,1.87,1.62,2.13,0,.37,.02,.95,.04,1.68-2.37-.88-5.94-1.43-9.51-1.58-3.23-.14-6.29,.05-8.61,.53-2.6,.53-3.94,1.35-3.99,2.43-.05,1.08,1.22,2.01,3.77,2.76,2.27,.67,5.3,1.11,8.53,1.25,.67,.03,1.34,.04,2,.04,.73,0,1.45-.02,2.15-.05-.26,.14-.52,.28-.77,.43-3.65,2.1-7.16,5.09-6.24,6.67,.25,.44,.76,.65,1.51,.65,.52,0,1.15-.1,1.91-.31,1.59-.44,3.54-1.3,5.48-2.42,1.51-.88,2.88-1.83,3.97-2.76,.08,2.75,.17,5.82,.28,8.89,.68,19.21,1.12,19.21,1.79,19.21s1.11,0,1.79-19.21c.11-3.06,.2-6.13,.28-8.88,1.13,.96,2.54,1.93,3.97,2.75,1.94,1.12,3.89,1.98,5.48,2.42,.75,.21,1.39,.31,1.91,.31,.75,0,1.26-.22,1.51-.65,.91-1.58-2.6-4.56-6.24-6.67-.26-.15-.52-.29-.78-.43,.69,.03,1.4,.06,2.13,.06,.66,0,1.34-.01,2.03-.04Zm2,6.59c-.07,.11-.63,.34-2.29-.12-1.51-.42-3.37-1.24-5.25-2.32-4.42-2.55-6.12-4.88-5.88-5.3,.04-.07,.17-.11,.34-.13,.63,.29,1.45,.55,2.46,.76,.51,.1,1.06,.19,1.64,.27,.92,.39,1.94,.89,3.09,1.55,4.42,2.55,6.12,4.88,5.88,5.3Zm-25.88-.12c-1.66,.46-2.22,.23-2.29,.12-.25-.43,1.45-2.75,5.88-5.3,1.14-.66,2.17-1.16,3.08-1.54,1.66-.22,3.08-.56,4.08-1.03,.19,.02,.33,.06,.37,.14,.07,.11-.02,.71-1.25,1.92-1.12,1.1-2.76,2.3-4.63,3.38s-3.73,1.9-5.25,2.32ZM1.24,11.57c.01-.31,.7-.98,3.19-1.49,1.76-.36,3.98-.55,6.37-.55,.65,0,1.32,.01,1.99,.04,6.99,.29,11.39,1.95,11.35,2.96-.04,1.01-4.56,2.3-11.55,2-3.15-.13-6.1-.56-8.29-1.21-2.44-.72-3.07-1.44-3.05-1.76ZM24.12,6.34c0,.67-.55,1.22-1.22,1.22s-1.22-.55-1.22-1.22,.55-1.22,1.22-1.22,1.22,.55,1.22,1.22Zm3.44,0c0,.67-.55,1.22-1.22,1.22s-1.22-.55-1.22-1.22,.55-1.22,1.22-1.22,1.22,.55,1.22,1.22Zm-4.26,2.18c.53-.1,.99-.39,1.32-.79,.33,.4,.79,.7,1.32,.79-.01,.67-.03,1.35-.05,2.05-.55,.27-.99,.56-1.28,.86-.3-.31-.73-.59-1.26-.85-.02-.7-.03-1.39-.05-2.06Zm1.29,5.09s.02-.02,.03-.03c.01,.01,.02,.02,.03,.03,0,0-.02,.02-.03,.03-.01-.01-.02-.02-.03-.03Zm-1.07,3.29c.5-.51,.87-.97,1.11-1.39,.25,.44,.63,.91,1.1,1.4-.28,10.01-.68,20.81-1.11,25.65-.42-4.84-.83-15.64-1.11-25.66Zm1.61-4.31v-.02s0-.06,0-.09c.04-.33,.7-1.02,3.04-1.71,2.19-.65,5.14-1.08,8.29-1.21,.69-.03,1.35-.04,1.99-.04,5.84,0,9.52,1.13,9.56,2.05,.04,1.01-4.36,2.67-11.35,2.96-3.15,.13-6.12-.05-8.36-.51-2.35-.48-3.09-1.1-3.17-1.44Z" stroke-width="0"/></g></g><g id="uuid-a4f74f76-343b-4659-b7dc-7e08756ad02c"></g></svg>