<?xml version="1.0" encoding="UTF-8"?><svg width="70" height="70" id="uuid-a8b0b0fe-b721-47de-82d4-2458e569ed9f" xmlns="http://www.w3.org/2000/svg" viewBox="-10 -10 70 70"><rect x="-10" y="-10" width="70" height="70" fill="white"/><path d="M36.73,14.25c-1.81-.33-3.64-.57-5.47-.72-.5-.05-1.01-.09-1.53-.11-.34,0-.68,0-1.02-.01l-.84-5.2c-4.52-.31-9.08-.07-13.54,.72-3.92,.69-7.77,1.81-11.44,3.31l2.65,16.43c.52,3.23,2.31,6.05,5.03,7.96,2.73,1.91,6.07,2.66,9.41,2.12,.82-.13,1.61-.34,2.37-.61,.05,.05,.11,.1,.16,.16,.68,.68,.77,.94,1.51,1.57,.27,.23,.55,.44,.85,.65,1.75,1.8,4.05,3.12,6.72,3.65,6.84,1.37,13.49-2.91,14.81-9.54l3.26-16.32c-4.12-1.87-8.48-3.24-12.94-4.06ZM6.72,18.99c0-.68,.21-1.35,.61-1.91,.51-.7,1.25-1.16,2.11-1.3,.17-.03,.35-.04,.52-.04,.67,0,1.33,.21,1.89,.61,.56,.41,.97,.97,1.18,1.62l-6.31,1.02Zm15.08,9.75c-1.02,1.42-2.54,2.35-4.26,2.63-1.73,.28-3.46-.13-4.87-1.16-1.28-.93-2.17-2.25-2.53-3.77l12.89-2.08c.13,1.56-.29,3.1-1.22,4.38Zm-4.2-11.51c0-.68,.21-1.35,.61-1.91,.51-.7,1.25-1.16,2.11-1.3,.17-.03,.35-.04,.52-.04,.67,0,1.33,.21,1.89,.61,.56,.41,.97,.97,1.18,1.62l-6.31,1.02Zm13.81,3.21c.47,.51,.76,1.14,.84,1.82l-2.37-.09-.44-2.73c.75,.09,1.45,.43,1.97,1Zm6.47,16.57l-11.91-2.38c.57-.54,1.1-1.12,1.58-1.76,.65-.88,1.18-1.82,1.59-2.79,1.09-.4,2.31-.52,3.53-.28,3.37,.67,5.63,3.85,5.22,7.21Zm4.06-11.78l-5.99-2.23c.77-1.37,2.44-2.01,3.95-1.45,.81,.3,1.45,.9,1.81,1.69,.29,.63,.37,1.32,.23,1.99Z" fill="#ffcd00" stroke-width="0"/><g><path d="M48.95,16.07c-4.31-1.99-8.86-3.44-13.54-4.3-2.43-.45-4.88-.72-7.35-.85l-.77-4.76c-.04-.23-.23-.4-.46-.42-4.73-.36-9.51-.12-14.19,.71-4.12,.73-8.17,1.91-12.02,3.52-.21,.09-.34,.31-.3,.54L3.05,27.33c.56,3.5,2.5,6.56,5.45,8.62,2.32,1.62,5.06,2.47,7.88,2.47,.75,0,1.51-.06,2.27-.18,.82-.13,1.6-.34,2.37-.6,1.94,2.99,5.07,5.24,8.89,6.01,.93,.19,1.85,.27,2.76,.27,6.33,0,11.98-4.33,13.23-10.6l3.34-16.71c.05-.23-.07-.45-.28-.55Zm-30.47,21.19c-3.34,.54-6.68-.21-9.41-2.12-2.73-1.9-4.51-4.73-5.03-7.96L1.39,10.74c3.68-1.5,7.52-2.62,11.44-3.31,4.47-.79,9.02-1.03,13.54-.72l2.65,16.43c.52,3.23-.29,6.47-2.27,9.14-1.99,2.67-4.93,4.44-8.27,4.98Zm14.19-7.45c3.37,.67,5.63,3.85,5.22,7.21l-11.91-2.38c.57-.54,1.1-1.12,1.58-1.76,.65-.88,1.18-1.82,1.59-2.79,1.09-.4,2.31-.52,3.53-.28Zm12.24,3.32c-1.32,6.63-7.97,10.91-14.81,9.54-3.47-.69-6.33-2.71-8.14-5.4,1.1-.47,2.12-1.07,3.06-1.81l13.18,2.63s.07,0,.1,0c.1,0,.19-.03,.28-.08,.11-.07,.19-.19,.21-.32,.81-4.08-1.84-8.06-5.92-8.88-1.13-.23-2.24-.18-3.29,.08,.58-1.84,.74-3.78,.46-5.73l2.72,.1h.02c.27,0,.49-.21,.5-.48,.04-1.13-.36-2.21-1.13-3.04-.75-.81-1.77-1.28-2.87-1.34l-1.05-6.49c2.35,.13,4.69,.4,7,.82,4.46,.82,8.82,2.19,12.94,4.06l-3.26,16.32Zm-15.47-13.68c.75,.09,1.45,.43,1.97,1,.47,.51,.76,1.14,.84,1.82l-2.37-.09-.44-2.73Z" stroke-width="0"/><path d="M34.82,23.49c.06,.12,.16,.21,.28,.26l7,2.61c.06,.02,.12,.03,.17,.03,.2,0,.39-.12,.47-.33,.39-1.06,.35-2.21-.12-3.24-.47-1.03-1.31-1.81-2.37-2.21-2.19-.82-4.63,.3-5.45,2.49-.05,.12-.04,.26,.01,.38Zm5.08-1.94c.81,.3,1.45,.9,1.81,1.69,.29,.63,.37,1.32,.23,1.99l-5.99-2.23c.77-1.37,2.44-2.01,3.95-1.45Z" stroke-width="0"/><path d="M23.37,23.3l-13.91,2.25c-.27,.04-.46,.3-.41,.57,.32,1.99,1.4,3.74,3.03,4.92,1.3,.94,2.83,1.43,4.4,1.43,.4,0,.81-.03,1.22-.1,1.99-.32,3.74-1.4,4.92-3.03,1.18-1.63,1.65-3.63,1.33-5.62-.04-.27-.3-.47-.57-.41Zm-1.57,5.45c-1.02,1.42-2.54,2.35-4.26,2.63-1.73,.28-3.46-.13-4.87-1.16-1.28-.93-2.17-2.25-2.53-3.77l12.89-2.08c.13,1.56-.29,3.1-1.22,4.38Z" stroke-width="0"/><path d="M14.13,18.3c-.18-1.12-.78-2.1-1.7-2.76-.92-.66-2.04-.93-3.15-.75-1.12,.18-2.1,.78-2.76,1.7s-.93,2.04-.75,3.15c.02,.13,.09,.25,.2,.33,.09,.06,.19,.09,.29,.09,.03,0,.05,0,.08,0l7.37-1.19c.27-.04,.46-.3,.41-.57Zm-7.42,.69c0-.68,.21-1.35,.61-1.91,.51-.7,1.25-1.16,2.11-1.3,.17-.03,.35-.04,.52-.04,.67,0,1.33,.21,1.89,.61,.56,.41,.97,.97,1.18,1.62l-6.31,1.02Z" stroke-width="0"/><path d="M23.31,13.79c-.92-.66-2.04-.93-3.15-.75-1.12,.18-2.1,.78-2.76,1.7s-.93,2.04-.75,3.15c.04,.25,.25,.42,.49,.42,.03,0,.05,0,.08,0l7.37-1.19c.13-.02,.25-.09,.33-.2s.11-.24,.09-.37c-.18-1.12-.78-2.1-1.7-2.76Zm-5.71,3.45c0-.68,.21-1.35,.61-1.91,.51-.7,1.25-1.16,2.11-1.3,.17-.03,.35-.04,.52-.04,.67,0,1.33,.21,1.89,.61,.56,.41,.97,.97,1.18,1.62l-6.31,1.02Z" stroke-width="0"/></g></svg>