<?xml version="1.0" encoding="utf-8"?> <!-- Generator: Adobe Illustrator 27.7.0, SVG Export Plug-In . SVG Version: 6.00 Build 0) --> <svg width="70" height="70" version="1.1" xmlns="http://www.w3.org/2000/svg" xmlns:xlink="http://www.w3.org/1999/xlink" x="0px" y="0px" viewBox="-10 -10 70 70" style="enable-background:new 0 0 50 50;" xml:space="preserve"><rect x="-10" y="-10" width="70" height="70" fill="white"/> <style type="text/css"> .st0{fill:#FFCD00;} .st1{display:none;} .st2{display:inline;fill:none;stroke:#EA008A;stroke-width:0.2;stroke-miterlimit:10;} .st3{font-family:'Roboto-Regular';} .st4{font-size:6px;} </style> <g id="Color"> <path class="st0" d="M41.0361,29.7368c-0.0098-0.0054-0.0195-0.0107-0.0288-0.0166l-1.2876-0.7975v2.0035l-0.5913-0.1094 c-1.7515-0.3247-3.7485-1.3838-4.9688-2.6353l-0.1421-0.1455v-0.4927c-0.1836,0.2896-0.4849,0.4624-0.8057,0.4624h-1.5728 c-0.3208,0-0.6221-0.1729-0.8057-0.4624v0.4927l-0.1421,0.1455c-1.2202,1.2505-3.2173,2.3096-4.9688,2.6353l-0.5913,0.1099v-9.353 l0.5913,0.1099c1.752,0.3257,3.7485,1.3843,4.9688,2.6348l0.1421,0.1455v0.4932c0.1836-0.2896,0.4849-0.4624,0.8057-0.4624h1.5728 c0.3208,0,0.6221,0.1729,0.8057,0.4624v-0.4932l0.1421-0.1455c0.6752-0.6919,1.5916-1.3126,2.569-1.7937l-0.3893-2.2559 L35.2512,18.23c-2.1017-2.5331-5.2788-4.1456-8.7565-4.1456c-6.2646,0-11.3613,5.0967-11.3613,11.3613v2.3047 c0,0.1851-0.1021,0.355-0.2661,0.4419L3.8369,34.0376c2.2393,2.2988,11.292,8.5864,22.2495,2.1484 c0.1348-0.0796,0.2979-0.0918,0.4419-0.0317c9.3418,3.8052,16.729,3.1045,22.5591-2.1509L41.0361,29.7368z" stroke-width="0"/> </g> <g id="ICONS_00000031165542127692736420000002692518830807990202_"> <path d="M48.6763,31.9487l-8.4565-4.4818v-5.8654c0-0.1401-0.0591-0.2744-0.1626-0.3691c-0.103-0.0942-0.2407-0.1411-0.3818-0.1289 c-0.7994,0.0712-1.6705,0.311-2.5223,0.6657c-1.04-5.8298-6.1948-10.1848-12.1583-10.1848 c-6.8159,0-12.3613,5.5454-12.3613,12.3613v2.0038L1.313,31.9487c-0.0121,0.0064-0.02,0.0173-0.0314,0.0246 c-0.0103,0.0065-0.0222,0.0076-0.0321,0.015c-0.0129,0.0096-0.0193,0.0239-0.0311,0.0345 c-0.0278,0.0249-0.0519,0.0511-0.0731,0.0811c-0.0151,0.0214-0.0289,0.0419-0.0405,0.065 c-0.016,0.0319-0.0264,0.0648-0.0353,0.0994c-0.0063,0.0248-0.0135,0.0483-0.016,0.0738 c-0.0035,0.0347,0.0004,0.0692,0.0045,0.1046c0.0029,0.0267,0.0035,0.0526,0.0108,0.0788 c0.0018,0.0063,0.0005,0.0127,0.0026,0.0189c0.0112,0.0347,0.0321,0.063,0.0499,0.0936c0.0093,0.0162,0.0119,0.0345,0.0233,0.05 c0.0024,0.0033,0.0069,0.008,0.0094,0.0114c0.0002,0.0002,0.0004,0.0005,0.0006,0.0007c0.9771,1.3069,6.3021,5.797,13.697,5.797 c3.0469,0,6.4472-0.7715,10.0359-2.8343c3.9855,1.5892,7.6362,2.3943,10.9729,2.3943c4.9692-0.0005,9.2495-1.7661,12.9282-5.3062 c0.1157-0.1113,0.1709-0.271,0.1484-0.4297S48.8179,32.0239,48.6763,31.9487z M25.6313,22.1753 c1.6614,0.3086,3.5948,1.3372,4.7469,2.5466c-0.1292,0.2186-0.2084,0.4702-0.2084,0.7419v1.5728 c0,0.2717,0.0792,0.5233,0.2084,0.7419c-1.1521,1.2094-3.0856,2.238-4.7469,2.5466V22.1753z M31.1699,27.0366v-1.5728 c0-0.2588,0.2104-0.4692,0.4692-0.4692h1.5728c0.2588,0,0.4692,0.2104,0.4692,0.4692v1.5728c0,0.2588-0.2104,0.4692-0.4692,0.4692 h-1.5728C31.3804,27.5059,31.1699,27.2954,31.1699,27.0366z M34.4728,24.7219c1.1516-1.2094,3.0851-2.238,4.7469-2.5466v8.1499 c-1.6619-0.3086-3.5953-1.3372-4.7469-2.5466c0.1292-0.2186,0.2084-0.4702,0.2084-0.7419v-1.5728 C34.6812,25.1921,34.6019,24.9406,34.4728,24.7219z M24.9946,12.5845c5.5729,0,10.3856,4.1349,11.2271,9.6279 c-0.9664,0.5114-1.8577,1.157-2.524,1.8713c-0.1528-0.054-0.3147-0.0891-0.4858-0.0891h-1.5728 c-0.1713,0-0.3332,0.035-0.4861,0.0892c-1.4451-1.5491-3.9445-2.7991-5.9772-2.9803c-0.1367-0.0112-0.2783,0.0347-0.3818,0.1289 c-0.1035,0.0947-0.1626,0.229-0.1626,0.3691v4.1489h-10.998v-1.8047C13.6333,17.6812,18.73,12.5845,24.9946,12.5845z M2.586,32.7808c7.7089-0.9149,15.3505-0.0639,21.1115,2.3986C13.5041,40.5909,5.1095,35.1724,2.586,32.7808z M24.1406,34.2788 c-5.5137-2.3682-12.6948-3.3135-20.0347-2.6782l9.1519-4.8501h11.3735v4.1484c0,0.1401,0.0591,0.2744,0.1626,0.3691 c0.0923,0.0845,0.2129,0.1309,0.3374,0.1309c0.0146,0,0.0298-0.0005,0.0444-0.002c2.0327-0.1812,4.5322-1.4312,5.9772-2.9803 c0.153,0.0541,0.3149,0.0892,0.4861,0.0892h1.5728c0.1711,0,0.3329-0.035,0.4858-0.0891c1.445,1.549,3.9445,2.799,5.9776,2.9802 c0.0146,0.0015,0.0298,0.002,0.0444,0.002c0.1245,0,0.2451-0.0464,0.3374-0.1309c0.1035-0.0947,0.1626-0.229,0.1626-0.3691v-2.2999 l7.3677,3.9044C41.5972,37.9009,33.9199,38.479,24.1406,34.2788z" stroke-width="0"/> </g> <g id="Margin" class="st1"> <rect x="1" y="1" class="st2" /> </g> <g id="Guides" class="st1"> </g> <g id="LABELS"> <g> <g> </g> </g> </g> </svg> 