<?xml version="1.0" encoding="UTF-8"?><svg width="70" height="70" id="uuid-4ba6177b-b533-456e-95ea-88fd0eea7e83" xmlns="http://www.w3.org/2000/svg" viewBox="-10 -10 70 70"><rect x="-10" y="-10" width="70" height="70" fill="white"/><g><path d="M33.27,45.01l-.04,.99c-5.96-.62-12.06-.62-18.13,0l-.04-.99c6.1-.64,12.22-.64,18.21,0Z" fill="#ffcd00" stroke-width="0"/><path d="M33.44,1.89l5.21,.44c-.19,.66-.63,1.23-1.24,1.58-.19,.11-.28,.33-.24,.55,.05,.21,.23,.37,.45,.38l.78,.07c-.19,.66-.63,1.23-1.24,1.59-.19,.11-.29,.32-.24,.54,.05,.21,.23,.37,.45,.39l.81,.07c-.19,.66-.63,1.23-1.24,1.58-.19,.11-.28,.33-.24,.54,.05,.22,.23,.37,.45,.39l.81,.07c-.19,.66-.63,1.23-1.24,1.59-.19,.11-.28,.32-.23,.54,.04,.21,.22,.37,.44,.39l.81,.07c-.18,.66-.62,1.23-1.23,1.58-.19,.11-.29,.33-.24,.54,.05,.22,.23,.37,.44,.39l.82,.07c-.19,.66-.63,1.24-1.24,1.59-.19,.11-.29,.33-.24,.54s.23,.37,.45,.39l.81,.07c-.19,.66-.63,1.23-1.24,1.58-.19,.11-.29,.33-.24,.54,.05,.22,.23,.37,.45,.39l.84,.07c-.27,.96-1.06,1.68-2.02,1.88-.16-1.71-.93-3.39-2.23-4.84h.04c.23,.03,.43-.1,.51-.3,.08-.21,.02-.44-.14-.58-.55-.45-.89-1.08-.96-1.77l.81,.07c.22,.03,.43-.11,.51-.31s.02-.43-.15-.57c-.54-.45-.88-1.09-.95-1.77l.81,.07c.22,.02,.42-.11,.5-.31,.09-.21,.03-.44-.14-.58-.54-.45-.88-1.08-.95-1.77l.81,.07c.22,.02,.42-.11,.5-.31,.09-.2,.03-.43-.14-.57-.54-.45-.88-1.09-.96-1.77l.81,.07c.24,.01,.43-.11,.51-.31,.08-.21,.02-.44-.14-.58-.55-.45-.88-1.08-.96-1.77l.85,.07c.22,.02,.42-.1,.5-.31,.09-.2,.03-.43-.14-.57-.54-.45-.88-1.09-.96-1.77Z" fill="#ffcd00" stroke-width="0"/><path d="M35.36,25.1c.15,.25,.23,.6,.22,.96-.02,.64-.33,1.12-.61,1.18l.03-.97,.02-.41,.04-1.03c.14,.05,.25,.2,.3,.27Z" fill="#ffcd00" stroke-width="0"/><path d="M34.96,36.23c.15,.25,.23,.6,.22,.96-.02,.67-.36,1.18-.65,1.2l.09-2.44c.17,.03,.29,.2,.34,.28Z" fill="#ffcd00" stroke-width="0"/><path d="M34.02,25.72l-.04,1.12c-.78,.34-1.63,.53-2.48,.53-1.49,0-2.98-.51-4.08-1.53l-1.5-1.39c.24-.23,.44-.51,.58-.82l1.6,1.48c.91,.84,2.15,1.27,3.4,1.27,.88,0,1.76-.23,2.52-.66Z" fill="#ffcd00" stroke-width="0"/><path d="M33.59,36.66l-.04,1.08c-.66,.23-1.35,.36-2.05,.36-1.49,0-2.98-.51-4.08-1.52l-1.5-1.39c.24-.24,.44-.52,.58-.83l1.6,1.48c.91,.85,2.15,1.27,3.4,1.27,.72,0,1.44-.16,2.09-.45Z" fill="#ffcd00" stroke-width="0"/><path d="M25.71,22.62c0,.09-.01,.17-.03,.25-.06,.36-.24,.67-.5,.9-.26,.24-.61,.38-.99,.39-.01,0-.02,.01-.03,.01s-.02-.01-.03-.01c-.38,0-.72-.15-.99-.39-.26-.23-.44-.54-.5-.9,0-.08-.02-.16-.02-.25,0-.77,.57-1.4,1.31-1.52,.07-.01,.15-.02,.23-.02s.16,.01,.24,.02c.74,.12,1.31,.75,1.31,1.52Z" fill="#ffcd00" stroke-width="0"/><path d="M25.71,33.35c0,.09-.01,.17-.03,.25-.06,.36-.24,.67-.5,.91-.26,.23-.61,.38-.99,.39h-.06c-.38-.01-.72-.16-.99-.39-.26-.23-.44-.55-.5-.91,0-.08-.02-.16-.02-.25,0-.77,.57-1.4,1.31-1.52,.07,0,.15-.02,.23-.02s.16,.01,.24,.02c.74,.12,1.31,.75,1.31,1.52Z" fill="#ffcd00" stroke-width="0"/><path d="M22.4,24.45l-1.5,1.39c-1.09,1.02-2.58,1.53-4.08,1.53-.85,0-1.7-.19-2.48-.53l-.04-1.12c.77,.43,1.64,.66,2.53,.66,1.24,0,2.48-.43,3.39-1.27l1.61-1.48c.13,.31,.33,.59,.57,.82Z" fill="#ffcd00" stroke-width="0"/><path d="M22.4,35.19l-1.5,1.39c-1.09,1.01-2.58,1.52-4.08,1.52-.7,0-1.39-.13-2.05-.36l-.04-1.08c.66,.29,1.37,.45,2.1,.45,1.24,0,2.48-.42,3.39-1.27l1.61-1.48c.13,.31,.33,.59,.57,.83Z" fill="#ffcd00" stroke-width="0"/><path d="M13.7,35.94l.1,2.45c-.34-.02-.65-.5-.68-1.2-.01-.36,.07-.71,.22-.96,.05-.08,.19-.27,.36-.29Z" fill="#ffcd00" stroke-width="0"/><path d="M13.32,26.27l.04,.98c-.33-.04-.61-.52-.63-1.19,0-.36,.07-.71,.22-.96,.04-.07,.16-.23,.31-.27l.04,1.03,.02,.41Z" fill="#ffcd00" stroke-width="0"/></g><path d="M39.39,1.02c-.09-.1-.21-.16-.34-.17l-6.3-.53c-.27-.03-.51,.18-.54,.45-.06,.76,.11,1.51,.49,2.15l-.2-.02c-.13-.02-.27,.03-.36,.12-.11,.08-.17,.2-.18,.34-.06,.75,.11,1.5,.48,2.14l-.16-.02c-.13-.01-.26,.04-.36,.12-.1,.09-.17,.21-.18,.34-.06,.76,.11,1.5,.49,2.14h-.17c-.26-.03-.51,.17-.54,.45-.06,.75,.12,1.5,.49,2.14h-.16c-.27-.04-.52,.17-.54,.44-.07,.76,.11,1.5,.48,2.14h-.16c-.27-.03-.52,.17-.54,.45-.07,.75,.11,1.5,.48,2.14h-.06c-2.1-1.77-4.91-2.83-7.58-2.83-3.06,0-6.3,1.4-8.46,3.64-1.7,1.77-2.58,3.9-2.5,6.02l.02,.62c-.44,.04-.85,.31-1.12,.76-.26,.42-.39,.95-.37,1.51,.04,1.23,.77,2.17,1.67,2.18l.26,6.67c-.46,.03-.89,.3-1.17,.77-.25,.41-.38,.95-.37,1.51,.05,1.23,.78,2.17,1.67,2.17h.04l.29,7.18c0,1.26,1.31,2.22,3.21,2.87,1.9,.65,4.4,.99,6.83,.99,4.86,0,10.02-1.35,10.04-3.86h.01l.28-7.18h.02c.9,0,1.63-.94,1.67-2.17,.02-.56-.11-1.1-.36-1.51-.29-.46-.7-.73-1.16-.76l.27-6.69c.89-.01,1.61-.95,1.65-2.17,0-.56-.12-1.09-.37-1.51-.27-.44-.67-.71-1.11-.76l.02-.51c1.63-.26,2.94-1.59,3.08-3.3,.01-.13-.03-.26-.12-.36-.08-.1-.2-.17-.34-.18h-.18c.47-.58,.77-1.29,.83-2.04,.02-.14-.03-.27-.11-.37-.09-.1-.21-.16-.34-.17l-.16-.02c.47-.57,.77-1.27,.83-2.03,.01-.13-.03-.26-.12-.36-.08-.11-.2-.17-.33-.18h-.17c.48-.58,.78-1.29,.84-2.04,0-.14-.03-.27-.12-.37-.08-.1-.21-.16-.34-.17l-.16-.02c.48-.57,.77-1.27,.84-2.03,.01-.13-.03-.26-.12-.36-.08-.11-.21-.17-.34-.18h-.16c.47-.58,.77-1.29,.83-2.05,.03-.27-.18-.51-.45-.53l-.16-.02c.47-.57,.77-1.27,.83-2.03,.02-.28-.18-.52-.45-.54h-.13c.47-.58,.77-1.29,.83-2.04,.02-.13-.03-.27-.11-.37ZM12.5,25.53c-.01-.36,.07-.71,.22-.96,.04-.07,.16-.23,.31-.27l.04,1.03,.02,.41,.04,.98c-.33-.04-.61-.52-.63-1.19Zm.39,11.13c-.01-.36,.07-.71,.22-.96,.05-.08,.19-.27,.36-.29l.1,2.45c-.34-.02-.65-.5-.68-1.2Zm1.18-11.47c.77,.43,1.64,.66,2.53,.66,1.24,0,2.48-.43,3.39-1.27l1.61-1.48c.13,.31,.33,.59,.57,.82l-1.5,1.39c-1.09,1.02-2.58,1.53-4.08,1.53-.85,0-1.7-.19-2.48-.53l-.04-1.12Zm.43,10.94c.66,.29,1.37,.45,2.1,.45,1.24,0,2.48-.42,3.39-1.27l1.61-1.48c.13,.31,.33,.59,.57,.83l-1.5,1.39c-1.09,1.01-2.58,1.52-4.08,1.52-.7,0-1.39-.13-2.05-.36l-.04-1.08Zm9.43,12.77c-4.76,0-8.23-1.21-8.92-2.44,5.98-.61,11.98-.61,17.84,0-.68,1.23-4.15,2.44-8.92,2.44Zm9.07-3.43c-5.96-.62-12.06-.62-18.13,0l-.04-.99c6.1-.64,12.22-.64,18.21,0l-.04,.99Zm.08-1.99c-6.01-.64-12.16-.63-18.29,0l-.21-5.22c.65,.19,1.32,.31,2.01,.31,1.8,0,3.53-.65,4.76-1.79l1.71-1.58c.27,.11,.56,.17,.87,.17s.6-.06,.88-.17l1.7,1.58c1.24,1.14,2.97,1.79,4.76,1.79,.7,0,1.37-.12,2.01-.31l-.2,5.22Zm-10.69-10.66c0-.77,.57-1.4,1.31-1.52,.07-.01,.15-.02,.23-.02s.16,.01,.24,.02c.74,.12,1.31,.75,1.31,1.52,0,.09-.01,.17-.03,.25-.06,.36-.24,.67-.5,.91-.26,.23-.61,.38-.99,.39h-.06c-.38-.01-.72-.16-.99-.39-.26-.23-.44-.55-.5-.91-.01-.08-.02-.16-.02-.25Zm10.93,4.39c-.66,.23-1.35,.36-2.05,.36-1.49,0-2.98-.51-4.08-1.52l-1.5-1.39c.24-.24,.44-.52,.58-.83l1.6,1.48c.91,.85,2.15,1.27,3.4,1.27,.72,0,1.44-.16,2.09-.45l-.04,1.08Zm.09-2.22c-.62,.38-1.36,.59-2.14,.59-1.04,0-2.03-.36-2.72-1l-2.09-1.94c-.1-1.31-1.19-2.36-2.53-2.36s-2.43,1.05-2.52,2.36l-2.1,1.94c-.69,.64-1.68,1-2.71,1-.79,0-1.53-.21-2.15-.59l-.29-7.57c.76,.27,1.59,.42,2.43,.42,1.8,0,3.53-.65,4.76-1.79l1.71-1.58c.27,.1,.56,.17,.87,.17s.6-.07,.88-.17l1.7,1.58c1.24,1.14,2.97,1.79,4.76,1.79,.85,0,1.67-.15,2.44-.42l-.3,7.57Zm-11.02-12.9c0-.77,.57-1.4,1.31-1.52,.07-.01,.15-.02,.23-.02s.16,.01,.24,.02c.74,.12,1.31,.75,1.31,1.52,0,.09-.01,.17-.03,.25-.06,.36-.24,.67-.5,.9-.26,.24-.61,.38-.99,.39-.01,0-.02,.01-.03,.01s-.02-.01-.03-.01c-.38,0-.72-.15-.99-.39-.26-.23-.44-.54-.5-.9-.01-.08-.02-.16-.02-.25Zm11.36,4.22c-.78,.34-1.63,.53-2.48,.53-1.49,0-2.98-.51-4.08-1.53l-1.5-1.39c.24-.23,.44-.51,.58-.82l1.6,1.48c.91,.84,2.15,1.27,3.4,1.27,.88,0,1.76-.23,2.52-.66l-.04,1.12Zm.14-3.67v.16l-.05,1.16-.09,.07c-.67,.53-1.55,.82-2.48,.82-1.04,0-2.03-.37-2.72-1l-2.09-1.94c-.1-1.32-1.19-2.36-2.53-2.36s-2.43,1.04-2.52,2.36l-2.1,1.94c-.69,.63-1.68,1-2.71,1-.94,0-1.82-.29-2.49-.82l-.09-.07-.05-1.32c-.07-1.85,.71-3.73,2.22-5.29,1.98-2.06,4.95-3.34,7.74-3.34,2.44,0,5.01,.97,6.94,2.59,.28,.23,.55,.48,.81,.75,.52,.55,.96,1.13,1.3,1.74,.49,.87,.79,1.78,.88,2.69,.03,.29,.05,.57,.03,.86Zm.84,13.06c.15,.25,.23,.6,.22,.96-.02,.67-.36,1.18-.65,1.2l.09-2.44c.17,.03,.29,.2,.34,.28Zm.4-11.13c.15,.25,.23,.6,.22,.96-.02,.64-.33,1.12-.61,1.18l.03-.97,.02-.41,.04-1.03c.14,.05,.25,.2,.3,.27Zm2.05-21.19c-.19,.11-.28,.33-.24,.55,.05,.21,.23,.37,.45,.38l.78,.07c-.19,.66-.63,1.23-1.24,1.59-.19,.11-.29,.32-.24,.54,.05,.21,.23,.37,.45,.39l.81,.07c-.19,.66-.63,1.23-1.24,1.58-.19,.11-.28,.33-.24,.54,.05,.22,.23,.37,.45,.39l.81,.07c-.19,.66-.63,1.23-1.24,1.59-.19,.11-.28,.32-.23,.54,.04,.21,.22,.37,.44,.39l.81,.07c-.18,.66-.62,1.23-1.23,1.58-.19,.11-.29,.33-.24,.54,.05,.22,.23,.37,.44,.39l.82,.07c-.19,.66-.63,1.24-1.24,1.59-.19,.11-.29,.33-.24,.54,.05,.21,.23,.37,.45,.39l.81,.07c-.19,.66-.63,1.23-1.24,1.58-.19,.11-.29,.33-.24,.54,.05,.22,.23,.37,.45,.39l.84,.07c-.27,.96-1.06,1.68-2.02,1.88-.16-1.71-.93-3.39-2.23-4.84h.04c.23,.03,.43-.1,.51-.3,.08-.21,.02-.44-.14-.58-.55-.45-.89-1.08-.96-1.77l.81,.07c.22,.03,.43-.11,.51-.31,.08-.2,.02-.43-.15-.57-.54-.45-.88-1.09-.95-1.77l.81,.07c.22,.02,.42-.11,.5-.31,.09-.21,.03-.44-.14-.58-.54-.45-.88-1.08-.95-1.77l.81,.07c.22,.02,.42-.11,.5-.31,.09-.2,.03-.43-.14-.57-.54-.45-.88-1.09-.96-1.77l.81,.07c.24,.01,.43-.11,.51-.31,.08-.21,.02-.44-.14-.58-.55-.45-.88-1.08-.96-1.77l.85,.07c.22,.02,.42-.1,.5-.31,.09-.2,.03-.43-.14-.57-.54-.45-.88-1.09-.96-1.77l5.21,.44c-.19,.66-.63,1.23-1.24,1.58Z" stroke-width="0"/></svg>