<?xml version="1.0" encoding="UTF-8"?><svg width="70" height="70" id="uuid-fcd9f5fe-2e5b-47ce-a7be-5f3a298d0edd" xmlns="http://www.w3.org/2000/svg" viewBox="-10 -10 70 70"><rect x="-10" y="-10" width="70" height="70" fill="white"/><path d="M15.6,13.37c-4.11,0-7.7,2.07-9.79,5.54H25.4c-2.08-3.47-5.67-5.54-9.79-5.54Z" fill="#ffcd00" stroke-width="0"/><path d="M43.16,26c-.24-.01-.43-.18-.46-.41l-.94-5.68h-2.41c.18,.05,.32,.2,.36,.4l.64,3.92c.03,.14-.01,.29-.11,.4-.09,.12-.23,.18-.38,.18l-7.98-.03c-.27,0-.5-.22-.5-.5v-3.89c0-.27,.23-.5,.5-.5h4.61v-2.86h-7.95l-1.85,2.67s-.01,.01-.01,.02c-.04,.05-.09,.09-.15,.13-.01,0-.01,.01-.02,.01-.08,.04-.15,.06-.23,.06H3.02l2.92,12.03c.9-.89,2.14-1.44,3.51-1.44,1.63,0,3.08,.8,3.99,2.03,.19,.26,.36,.53,.51,.83,.14-.3,.31-.57,.5-.83,.91-1.23,2.36-2.03,4-2.03s3.08,.8,3.99,2.03h16.48c.92-1.23,2.36-2.03,4-2.03s3.08,.8,3.99,2.03h1.46v-6.16l-5.21-.37Z" fill="#ffcd00" stroke-width="0"/><g><path d="M40.75,32.41c.31-.17,.66-.27,1.04-.27s.73,.1,1.04,.27c.71,.37,1.2,1.11,1.2,1.97,0,.36-.09,.7-.24,1-.22,.43-.57,.78-1.01,1-.3,.15-.63,.24-.99,.24s-.7-.09-1-.24c-.43-.22-.78-.57-1-1-.15-.3-.25-.64-.25-1,0-.86,.5-1.6,1.21-1.97Zm-.21,1.97c0,.42,.23,.78,.55,1,.2,.14,.43,.24,.7,.24s.5-.1,.7-.24c.32-.22,.54-.58,.54-1,0-.68-.56-1.24-1.24-1.24s-1.25,.56-1.25,1.24Z" stroke-width="0"/><path d="M31.87,19.89h7.34c.24,0,.45,.18,.49,.42l.64,3.92c.03,.14-.01,.29-.11,.4-.09,.12-.23,.18-.38,.18l-7.98-.03c-.27,0-.5-.22-.5-.5v-3.89c0-.27,.23-.5,.5-.5Zm6.91,1h-6.41v2.89l6.89,.03-.48-2.92Z" stroke-width="0"/><path d="M39.34,19.91s-.09-.02-.13-.02h-2.73l.5,.02h2.36Z" stroke-width="0"/><path d="M18.02,35.38c.32-.22,.54-.58,.54-1,0-.68-.56-1.24-1.24-1.24s-1.25,.56-1.25,1.24c0,.42,.23,.78,.55,1,.2,.14,.43,.24,.7,.24s.49-.1,.7-.24Zm-1.75-2.97c.32-.17,.67-.27,1.05-.27s.72,.1,1.04,.27c.71,.37,1.2,1.11,1.2,1.97,0,.36-.09,.7-.25,1-.21,.43-.56,.78-1,1-.3,.15-.63,.24-.99,.24s-.7-.09-1-.24c-.43-.22-.78-.57-1-1-.15-.3-.25-.64-.25-1,0-.86,.49-1.6,1.2-1.97Z" stroke-width="0"/><path d="M8.32,36.62c-.36,0-.7-.09-1-.24-.43-.22-.78-.57-1-1-.15-.3-.25-.64-.25-1,0-.86,.49-1.6,1.2-1.97,.32-.17,.67-.27,1.05-.27s.72,.1,1.04,.27c.71,.37,1.2,1.11,1.2,1.97,0,.36-.09,.7-.25,1-.21,.43-.56,.78-1,1-.3,.15-.63,.24-.99,.24Zm-.7-1.24c.2,.14,.43,.24,.7,.24s.49-.1,.7-.24c.32-.22,.54-.58,.54-1,0-.68-.56-1.24-1.24-1.24s-1.25,.56-1.25,1.24c0,.42,.23,.78,.55,1Z" stroke-width="0"/><path d="M48.24,35.38v-2.97h-1.86c.26,.6,.41,1.27,.41,1.97,0,.34-.04,.68-.1,1h1.55Zm-11.45-1c0-.7,.15-1.37,.41-1.97h-2.53v2.97h2.22c-.07-.32-.1-.66-.1-1Zm1-2.97c.92-1.23,2.36-2.03,4-2.03s3.08,.8,3.99,2.03h1.46v-6.16l-5.21-.37c-.24-.01-.43-.18-.46-.41l-.94-5.68h-10.47v12.62h7.63Zm0,2.97c0,.35,.06,.68,.14,1,.09,.36,.23,.69,.41,1,.7,1.19,1.97,2,3.45,2s2.75-.81,3.44-2c.18-.31,.32-.64,.42-1,.08-.32,.14-.65,.14-1,0-.72-.21-1.39-.54-1.97-.22-.38-.49-.72-.81-1-.71-.63-1.63-1.03-2.65-1.03s-1.94,.4-2.65,1.03c-.32,.28-.59,.62-.81,1-.33,.58-.54,1.25-.54,1.97Zm-13.14,1v-2.97h-2.75c.27,.6,.42,1.27,.42,1.97,0,.34-.04,.68-.11,1h2.44Zm1,.98h8.02v-3.95h-8.02v3.95Zm-8.33-5.98c-1.02,0-1.94,.4-2.65,1.03-.32,.28-.6,.62-.81,1-.34,.58-.54,1.25-.54,1.97,0,.35,.05,.68,.14,1,.09,.36,.23,.69,.41,1,.7,1.19,1.97,2,3.45,2s2.75-.81,3.44-2c.18-.31,.32-.64,.41-1,.09-.32,.15-.65,.15-1,0-.72-.21-1.39-.55-1.97-.21-.38-.48-.72-.81-1-.7-.63-1.63-1.03-2.64-1.03Zm-2.84-18.13c-4.11,0-7.7,2.07-9.79,5.54H24.27c-2.08-3.47-5.67-5.54-9.79-5.54Zm-6.16,18.13c-1.02,0-1.94,.4-2.65,1.03-.32,.28-.6,.62-.81,1-.34,.58-.54,1.25-.54,1.97,0,.35,.05,.68,.14,1,.09,.36,.23,.69,.41,1,.7,1.19,1.97,2,3.45,2s2.75-.81,3.44-2c.18-.31,.32-.64,.41-1,.09-.32,.15-.65,.15-1,0-.72-.21-1.39-.55-1.97-.21-.38-.48-.72-.81-1-.7-.63-1.63-1.03-2.64-1.03Zm-5,4c0-.7,.14-1.37,.41-1.97H1.76v2.97h1.66c-.07-.32-.1-.66-.1-1Zm21.83-15.59H1.89l2.92,12.03c.9-.89,2.14-1.44,3.51-1.44,1.63,0,3.08,.8,3.99,2.03,.19,.26,.36,.53,.51,.83,.14-.3,.31-.57,.5-.83,.91-1.23,2.36-2.03,4-2.03s3.08,.8,3.99,2.03h7.85v-13.12c0-.28,.23-.5,.5-.5h5.7v-1.89h-7.95l-1.85,2.67s-.01,.01-.01,.02c-.04,.05-.09,.09-.15,.13-.01,0-.01,0-.02,0-.08,.04-.15,.06-.23,.06ZM8.32,39.38c-2.05,0-3.81-1.24-4.58-3H1.26c-.28,0-.5-.22-.5-.5v-3.97c0-.28,.22-.5,.5-.5H3.92L.77,18.41c-.04-.15,0-.31,.09-.43,.1-.12,.24-.19,.4-.19H3.52c2.21-4.1,6.28-6.54,10.96-6.54s8.46,2.26,10.72,6.09l1.54-2.23c.09-.13,.25-.21,.41-.21h8.71c.28,0,.5,.22,.5,.5v2.39h4.7c.24,0,.45,.18,.49,.42l.94,5.7,5.29,.37c.26,.02,.46,.24,.46,.5v6.63h.5c.28,0,.5,.22,.5,.5v3.97c0,.28-.22,.5-.5,.5h-2.38c-.77,1.76-2.53,3-4.57,3s-3.8-1.24-4.58-3h-2.54v.48c0,.27-.22,.5-.5,.5h-9.02c-.28,0-.5-.23-.5-.5v-.48h-2.76c-.77,1.76-2.53,3-4.57,3s-3.7-1.17-4.5-2.86c-.81,1.69-2.52,2.86-4.5,2.86Z" stroke-width="0"/></g></svg>