<?xml version="1.0" encoding="UTF-8"?><svg width="70" height="70" xmlns="http://www.w3.org/2000/svg" viewBox="-10 -10 70 70"><rect x="-10" y="-10" width="70" height="70" fill="white"/><g id="uuid-b9dcd792-6e40-4517-b45c-d829146ed7ab"><path d="M26.89,4.91c-7.81,0-14.16,6.36-14.16,14.18,0,2.28,.55,4.54,1.6,6.55,.13,.25,2.97,17.08,3.07,17.29,.28,.59,2.81,5.67,7.6,5.67,.08,0,.17,0,.26,0,4.47-.17,6.35-4.2,6.43-4.37,.88-1.89,.7-3.7,.52-5.46-.2-1.98-.39-3.86,.9-5.61,.9-1.22,2.22-2.5,3.19-3.44,.47-.46,.88-.86,1.11-1.11,2.39-2.75,3.65-6.04,3.65-9.5,0-7.82-6.35-14.18-14.16-14.18Zm1.98,21.59l-.55,.58c-1.48,1.58-2.49,3.02-4.02,5.73-.09,.17-.08,.38,.03,.53,.37,.52,.57,1.14,.57,1.79,0,1.72-1.4,3.11-3.11,3.11-1.99,0-3.06-1.94-3.06-3.77,0-1.66,1.24-2.7,2.23-3.53,.17-.14,.33-.28,.47-.4l.28-.25c1.33-1.19,2.85-2.54,2.85-4.68,0-3.94-2.99-7.15-6.67-7.15-.38,0-.77,.04-1.14,.1,.12-5.1,3.65-9.21,7.97-9.21s8.06,4.42,8.06,9.64c0,3.4-1.89,5.39-3.89,7.49Z" fill="#ffcd00" stroke-width="0"/><path d="M25,2.16c-8.36,0-15.16,6.81-15.16,15.18,0,2.44,.59,4.86,1.71,7.01,.13,.24,.43,.34,.67,.21,.24-.13,.34-.43,.21-.67-1.04-2.01-1.6-4.27-1.6-6.55,0-7.82,6.35-14.18,14.16-14.18s14.16,6.36,14.16,14.18c0,3.47-1.26,6.75-3.65,9.5-.22,.26-.63,.65-1.11,1.11-.97,.94-2.29,2.22-3.19,3.44-1.29,1.75-1.1,3.63-.9,5.61,.18,1.76,.36,3.58-.52,5.46-.08,.17-1.96,4.2-6.43,4.37-4.97,.16-7.57-5.06-7.86-5.66-.12-.25-.42-.36-.67-.24-.25,.12-.36,.42-.24,.67,.5,1.06,3.21,6.24,8.49,6.24,.1,0,.2,0,.31,0,5.1-.19,7.21-4.77,7.3-4.96,.99-2.13,.79-4.17,.61-5.98-.19-1.86-.35-3.47,.71-4.92,.85-1.15,2.14-2.4,3.08-3.31,.51-.5,.92-.89,1.17-1.18,2.51-2.89,3.89-6.5,3.89-10.16,0-8.37-6.8-15.18-15.16-15.18Z" stroke-width="0"/><path d="M29.6,27.18c2.05-2.15,4.16-4.38,4.16-8.18,0-5.77-4.15-10.64-9.06-10.64s-8.97,4.7-8.97,10.47c0,1.59,.3,3.11,.88,4.53,.11,.26,.4,.38,.65,.27,.26-.11,.38-.4,.27-.65-.44-1.07-.7-2.21-.78-3.4,.37-.08,.74-.12,1.12-.12,3.13,0,5.67,2.76,5.67,6.15,0,1.69-1.28,2.83-2.51,3.93l-.28,.25c-.13,.12-.28,.25-.44,.38-1.03,.87-2.59,2.17-2.59,4.3,0,2.31,1.42,4.77,4.06,4.77,2.27,0,4.11-1.85,4.11-4.11,0-.74-.2-1.46-.57-2.09,1.58-2.77,2.54-4,3.73-5.27l.55-.58Zm-1.28-.11c-1.48,1.58-2.49,3.02-4.02,5.73-.09,.17-.08,.38,.03,.53,.37,.52,.57,1.14,.57,1.79,0,1.72-1.4,3.11-3.11,3.11-1.99,0-3.06-1.94-3.06-3.77,0-1.66,1.24-2.7,2.23-3.53,.17-.14,.33-.28,.47-.4l.28-.25c1.33-1.19,2.85-2.54,2.85-4.68,0-3.94-2.99-7.15-6.67-7.15-.38,0-.77,.04-1.14,.1,.12-5.1,3.65-9.21,7.97-9.21s8.06,4.42,8.06,9.64c0,3.4-1.89,5.39-3.89,7.49l-.55,.58Z" stroke-width="0"/></g><g id="uuid-e16f488d-b27e-47ae-9433-fc92f21f4c30"></g></svg>