<?xml version="1.0" encoding="UTF-8"?><svg width="70" height="70" xmlns="http://www.w3.org/2000/svg" viewBox="-10 -10 70 70"><rect x="-10" y="-10" width="70" height="70" fill="white"/><g id="uuid-8e45fab7-97e5-441c-8b15-853d8a3c7415"><path d="M42.03,9.89c3.35,4,5.38,9.14,5.38,14.75,0,.22-.01,.43-.02,.65-.57-.53-1.16-1.05-1.78-1.53-1.73-1.32-4.78-3.4-5.69-2.46-.56,.57-.03,1.53,.63,2.74,.2,.37,.5,.92,.64,1.28-.26-.12-.63-.33-.9-.48-1.04-.6-2.1-1.22-2.84-.65-.31,.24-.49,.67-.49,1.2,0,.72,.29,1.43,.76,1.81,.44,.36,.89,.34,1.29,.33,.33,0,.65-.02,1.06,.16,.52,.23,1.1,.73,1.1,1.07,0,.19-.31,.39-.8,.69-.47,.29-1.05,.64-1.58,1.21-.89,.95-1.4,2.27-1.52,3.91-1.08,1.26-1.72,2.26-1.75,2.3-.22,.35-.33,.53-.48,.81-.07,.14-.12,.25-.17,.36-.12,.25-.19,.42-.47,.78-.29,.38-1.17,1.52-1.59,1.46-.25-.04-.61-.73-.78-1.88-.16-.98-.44-1.63-.69-2.2-.17-.39-.32-.72-.38-1.09-.06-.34-.02-.45,.06-.68,.11-.28,.26-.67,.22-1.49-.08-2.09-.86-2.98-1.5-3.35-.25-.15-.44-.18-1.07-.29l-.22-.04c-1.11-.19-1.76-.23-2.23-.25-.44-.02-.63-.04-.86-.14-.98-.42-1.59-1.93-1.54-3.08,.08-1.82,1.83-3.02,3.37-4.07,1.01-.69,1.86-1.28,3.01-1.25,.71,.02,1.27,.28,1.73,.49,.48,.22,1.03,.48,1.44,.05,.72-.75-.42-2.41-.65-2.73-.32-.44-1.06-1.46-2.25-1.73-1.13-.25-2,.29-2.69,.73-.53,.33-.87,.53-1.11,.42-.28-.13-.52-.6-.59-1.15-.07-.51,.04-.86,.14-.94,.05-.04,.25,0,.41,.03,.36,.07,.85,.17,1.34-.13,.75-.44,.81-1.34,.88-2.28,.02-.24,.03-.49,.06-.75,.26-2.26,.95-3.95,1.86-4.52,.88-.55,2.15-.22,3.27,.07,1.14,.29,2.21,.57,2.74-.22,.2-.3,.21-.7,.22-1.61-3.24-1.75-6.95-2.75-10.89-2.75-.12,.03-.23,.05-.35,.09-.77,.24-1.3,.6-2.26,1.24-.76,.51-1.22,.91-1.53,1.18-.35,.31-.4,.33-.47,.33-.45-.06-.93-.98-1.25-2.07-3.62,.95-6.89,2.77-9.58,5.21,0,.39,.1,.74,.3,1.04,.54,.83,1.81,1.19,2.78,.78,.68-.29,.95-.85,1.17-1.31,.18-.38,.29-.59,.52-.66,.38-.11,.98,.19,1.3,.71,.25,.64,0,1.41-.1,1.73-.36,1.12-.13,2.01,.04,2.67,.14,.55,.17,.73,.06,.84-.28,.27-1.09,.14-1.68,.03-.76-.13-1.47-.25-1.75,.34-.18,.38,.03,.7,.15,.88,.04,.06,.1,.15,.11,.17-.07,.09-.48,.19-.72,.25-.62,.15-1.39,.34-1.75,1.03-.39,.74-.07,1.52,.21,2.2,.27,.66,.42,1.08,.23,1.39-.12,.19-.32,.31-.35,.31-.11-.09-.22-.59-.28-.89-.16-.74-.35-1.66-1.12-1.98-.88-.37-1.84,.33-2.34,.79-.57,.52-.94,1.22-1.06,2.03-.16,1.06,.21,1.85,.67,2.86,.72,1.53,1.11,2.38,2.01,2.9,.84,.48,1.54,.37,2.21,.27,.61-.09,1.18-.18,1.97,.12,.47,.18,.64,.35,.89,.61,.29,.29,.65,.66,1.48,1.09,.88,.46,1.55,.6,2.04,.7,.52,.11,.69,.16,.85,.39,.45,.66,.18,2.04-.57,2.83-.28,.3-.52,.39-.79,.49-.34,.13-.73,.28-1.07,.79-.39,.57-.34,1.07-.29,1.69,.04,.44,.09,.98,.03,1.78-.06,.77-.17,1.2-.24,1.52-.1,.4-.18,.72,0,1.2,.45,1.24,1.83,1.71,2.9,1.99-.79,.08-1.9,0-2.84-.57-.56-.34-.86-.72-1.47-1.49-.73-.93-1.58-2.32-2.42-3.97-.17-.35-.64-1.26-1.65-1.81-.13-.07-.21-.1-.35-.16-.76-.49-.92-1.65-1-2.28-.13-.99,.02-1.6,.15-2.13,.14-.55,.26-1.07,.05-1.77-.36-1.17-1.34-1.67-2.29-2.15-.41-.21-.83-.43-1.23-.7-.85-.59-1.54-1.46-2.07-2.57-.13,1-.21,2.02-.21,3.06,0,12.68,10.31,22.99,22.99,22.99s22.99-10.31,22.99-22.99c0-6.51-2.72-12.39-7.09-16.58Zm-2.1,27.58c-.05,.28-.2,.79-.62,1.06-.57,.38-1.39,.21-1.48,.14,0-.23,.63-.99,1.51-1.7l.02-.02c.18-.15,.4-.31,.56-.39,.05,.19,.09,.52,.01,.91Z" fill="#ffcd00" stroke-width="0"/><path d="M36.75,4.06s-.07-.04-.11-.06c-1.92-1.14-4-2.02-6.21-2.59h-.01c-1.92-.5-3.93-.76-6-.76-5.58,0-10.72,1.92-14.8,5.13-.39,.25-.78,.56-1.15,.95,0,0-.01,.02-.02,.03-3.5,3.13-6.08,7.26-7.27,11.95,0,.01,0,.02,0,.03-.48,1.89-.74,3.87-.74,5.9,0,13.23,10.76,23.99,23.99,23.99s23.01-9.81,23.92-22.22h0c.04-.59,.07-1.18,.07-1.78,0-8.72-4.68-16.37-11.66-20.57ZM24.42,1.64c1.77,0,3.48,.21,5.13,.58-.22,.4-.49,.7-.81,.89-.37,.21-.67,.21-1.13,.21-.47,0-1.05-.01-1.84,.24-.77,.24-1.3,.6-2.26,1.24-.76,.51-1.22,.91-1.53,1.18-.35,.31-.4,.33-.47,.33-.59-.08-1.23-1.65-1.52-3.13-.07-.35-.1-.72-.11-1.07,1.46-.29,2.98-.45,4.53-.45ZM10.19,6.6c.68-.42,1.26-.53,1.57-.35,.09,.05,.29,.21,.31,.36,.01,.08-.08,.19-.3,.42-.25,.26-.59,.62-.82,1.18-.35,.88-.34,1.69,.05,2.27,.54,.83,1.81,1.19,2.78,.78,.68-.29,.95-.85,1.17-1.31,.18-.38,.29-.59,.52-.66,.38-.11,.98,.19,1.3,.71,.25,.64,0,1.41-.1,1.73-.36,1.12-.13,2.01,.04,2.67,.14,.55,.17,.73,.06,.84-.28,.27-1.09,.14-1.68,.03-.76-.13-1.47-.25-1.75,.34-.18,.38,.03,.7,.15,.88,.04,.06,.1,.15,.11,.17-.07,.09-.48,.19-.72,.25-.62,.15-1.39,.34-1.75,1.03-.39,.74-.07,1.52,.21,2.2,.27,.66,.42,1.08,.23,1.39-.12,.19-.32,.31-.35,.31-.11-.09-.22-.59-.28-.89-.16-.74-.35-1.66-1.12-1.98-.88-.37-1.84,.33-2.34,.79-.57,.52-.94,1.22-1.06,2.03-.16,1.06,.21,1.85,.67,2.86,.72,1.53,1.11,2.38,2.01,2.9,.84,.48,1.54,.37,2.21,.27,.61-.09,1.18-.18,1.97,.12,.47,.18,.64,.35,.89,.61,.29,.29,.65,.66,1.48,1.09,.88,.46,1.55,.6,2.04,.7,.52,.11,.69,.16,.85,.39,.45,.66,.18,2.04-.57,2.83-.28,.3-.52,.39-.79,.49-.34,.13-.73,.28-1.07,.79-.39,.57-.34,1.07-.29,1.69,.04,.44,.09,.98,.03,1.78-.06,.77-.17,1.2-.24,1.52-.1,.4-.18,.72,0,1.2,.45,1.24,1.83,1.71,2.9,1.99-.79,.08-1.9,0-2.84-.57-.56-.34-.86-.72-1.47-1.49-.73-.93-1.58-2.32-2.42-3.97-.17-.35-.64-1.26-1.65-1.81-.13-.07-.21-.1-.35-.16-.76-.49-.92-1.65-1-2.28-.13-.99,.02-1.6,.15-2.13,.14-.55,.26-1.07,.05-1.77-.36-1.17-1.34-1.67-2.29-2.15-.41-.21-.83-.43-1.23-.7-1.76-1.23-2.86-3.62-3.26-7.09,1.27-4.93,4.15-9.22,8.03-12.29Zm14.23,41.03C11.74,47.63,1.43,37.32,1.43,24.64c0-1.03,.07-2.04,.21-3.03,.63,2.4,1.7,4.14,3.21,5.2,.45,.31,.9,.55,1.34,.77,.86,.44,1.55,.79,1.79,1.56,.14,.43,.06,.75-.06,1.23-.15,.59-.33,1.32-.17,2.5,.1,.73,.3,2.25,1.45,2.99,.12,.08,.21,.11,.27,.13,.03,.01,.07,.03,.14,.06,.73,.4,1.09,1.11,1.26,1.43,.84,1.66,1.72,3.11,2.5,4.09,.64,.81,1.02,1.29,1.74,1.72,.91,.55,1.93,.74,2.81,.74,.83,0,1.53-.17,1.9-.36,.31-.16,.49-.37,.51-.62,.05-.58-.54-.74-1.29-.93-.88-.23-2.22-.57-2.53-1.45-.07-.19-.05-.27,.04-.62,.08-.33,.21-.83,.27-1.69,.06-.88,.01-1.5-.03-1.94-.05-.59-.06-.78,.12-1.05,.17-.25,.32-.3,.6-.41,.32-.12,.73-.28,1.16-.74,.96-1.03,1.46-2.91,.66-4.08-.39-.58-.91-.69-1.47-.81-.45-.1-1.02-.22-1.79-.61-.69-.36-.96-.63-1.23-.9-.28-.29-.58-.58-1.24-.84-1.04-.41-1.84-.28-2.49-.18-.59,.09-1.03,.16-1.56-.15-.6-.35-.91-.96-1.6-2.45-.47-1-.7-1.55-.59-2.28,.09-.58,.35-1.08,.75-1.44,.51-.46,1.03-.71,1.28-.6,.29,.12,.42,.76,.53,1.27,.15,.7,.32,1.5,1.02,1.65,.58,.13,1.15-.29,1.44-.74,.49-.77,.14-1.62-.15-2.31-.22-.53-.42-1.03-.25-1.36,.15-.29,.64-.41,1.11-.52,.62-.15,1.31-.32,1.45-1.01,.05-.27-.01-.5-.1-.68,.15,.02,.32,.05,.45,.07,.85,.15,1.91,.33,2.55-.31,.53-.53,.36-1.2,.21-1.8-.15-.59-.33-1.27-.05-2.14,.12-.38,.45-1.41,.07-2.38-.04-.09-.08-.17-.13-.25-.45-.72-1.46-1.31-2.38-1.05-.67,.19-.93,.75-1.14,1.19-.2,.42-.34,.69-.66,.82-.51,.21-1.27,.01-1.55-.41-.2-.3-.18-.79,.05-1.35,.16-.38,.39-.63,.62-.87,.3-.31,.64-.67,.57-1.23-.08-.67-.69-1.04-.81-1.11-.07-.04-.14-.06-.22-.09,2.09-1.34,4.4-2.36,6.87-2.97,.02,.35,.06,.69,.12,1.04,.21,1.12,.87,3.74,2.37,3.94,.06,0,.11,.01,.16,.01,.43,0,.71-.25,1.09-.57,.3-.26,.71-.62,1.43-1.1,.93-.62,1.36-.91,2-1.11,.64-.2,1.09-.19,1.53-.19,.51,0,1.03,.01,1.64-.34,.55-.32,.98-.83,1.3-1.51,1.91,.53,3.73,1.3,5.41,2.28,.04,.42,.08,.84,.07,1.26,0,.59,0,1.15-.06,1.26-.13,.2-1.05-.04-1.65-.2-1.26-.32-2.82-.73-4.06,.05-1.62,1.01-2.15,3.72-2.32,5.25-.03,.27-.05,.54-.07,.79-.05,.7-.09,1.31-.39,1.49-.16,.09-.35,.06-.64,0-.35-.07-.83-.16-1.24,.18-.42,.34-.6,1.03-.5,1.84,.09,.71,.45,1.6,1.17,1.93,.75,.35,1.45-.09,2.06-.48,.6-.38,1.22-.76,1.94-.6,.82,.18,1.39,.96,1.66,1.34,.35,.48,.61,1.03,.7,1.31-.09-.04-.18-.08-.26-.12-.51-.23-1.2-.56-2.12-.58-1.46-.03-2.55,.7-3.6,1.42-1.65,1.13-3.71,2.53-3.8,4.86-.06,1.51,.72,3.43,2.14,4.04,.4,.17,.74,.19,1.2,.21,.45,.02,1.07,.06,2.12,.24l.22,.04c.55,.09,.65,.11,.73,.17,.6,.35,.95,1.25,1,2.53,.03,.61-.07,.85-.16,1.09-.11,.28-.23,.6-.11,1.21,.09,.48,.26,.89,.45,1.31,.24,.54,.48,1.1,.63,2.02,.14,.91,.54,2.46,1.59,2.64,.07,.01,.14,.02,.21,.02,.94,0,1.78-1.11,2.37-1.88,.32-.42,.43-.66,.56-.94,.04-.09,.09-.2,.15-.32,.13-.25,.23-.42,.43-.73,0-.01,.68-1.05,1.77-2.31,.07-.08,.11-.19,.12-.3,.08-1.48,.51-2.65,1.26-3.46,.44-.47,.93-.77,1.37-1.04,.65-.4,1.26-.77,1.27-1.52,.02-.98-1.06-1.72-1.69-2-.62-.27-1.12-.26-1.5-.24-.36,.01-.49,0-.62-.11-.23-.19-.4-.62-.39-1.02,0-.26,.07-.4,.11-.42,.2-.15,1.34,.51,1.72,.73,.95,.55,1.71,.99,2.22,.5,.56-.53,.06-1.46-.59-2.64-.25-.45-.63-1.16-.72-1.51,.63,.1,2.44,1.1,4.29,2.51,.82,.62,1.59,1.31,2.31,2.04-1,11.76-10.89,21.03-22.9,21.03Zm22.98-22.35c-.57-.53-1.16-1.05-1.78-1.53-1.73-1.32-4.78-3.4-5.69-2.46-.56,.57-.03,1.53,.63,2.74,.2,.37,.5,.92,.64,1.28-.26-.12-.63-.33-.9-.48-1.04-.6-2.1-1.22-2.84-.65-.31,.24-.49,.67-.49,1.2,0,.72,.29,1.43,.76,1.81,.44,.36,.89,.34,1.29,.33,.33,0,.65-.02,1.06,.16,.52,.23,1.1,.73,1.1,1.07,0,.19-.31,.39-.8,.69-.47,.29-1.05,.64-1.58,1.21-.89,.95-1.4,2.27-1.52,3.91-1.08,1.26-1.72,2.26-1.75,2.3-.22,.35-.33,.53-.48,.81-.07,.14-.12,.25-.17,.36-.12,.25-.19,.42-.47,.78-.29,.38-1.17,1.52-1.59,1.46-.25-.04-.61-.73-.78-1.88-.16-.98-.44-1.63-.69-2.2-.17-.39-.32-.72-.38-1.09-.06-.34-.02-.45,.06-.68,.11-.28,.26-.67,.22-1.49-.08-2.09-.86-2.98-1.5-3.35-.25-.15-.44-.18-1.07-.29l-.22-.04c-1.11-.19-1.76-.23-2.23-.25-.44-.02-.63-.04-.86-.14-.98-.42-1.59-1.93-1.54-3.08,.08-1.82,1.83-3.02,3.37-4.07,1.01-.69,1.86-1.28,3.01-1.25,.71,.02,1.27,.28,1.73,.49,.48,.22,1.03,.48,1.44,.05,.72-.75-.42-2.41-.65-2.73-.32-.44-1.06-1.46-2.25-1.73-1.13-.25-2,.29-2.69,.73-.53,.33-.87,.53-1.11,.42-.28-.13-.52-.6-.59-1.15-.07-.51,.04-.86,.14-.94,.05-.04,.25,0,.41,.03,.36,.07,.85,.17,1.34-.13,.75-.44,.81-1.34,.88-2.28,.02-.24,.03-.49,.06-.75,.26-2.26,.95-3.95,1.86-4.52,.88-.55,2.15-.22,3.27,.07,1.14,.29,2.21,.57,2.74-.22,.21-.32,.21-.75,.22-1.81,0-.21-.03-.42-.04-.63,6.27,4.11,10.43,11.2,10.43,19.24,0,.22-.01,.43-.02,.65Z" stroke-width="0"/><path d="M40.35,35.56h0c-.51-.22-1.17,.23-1.63,.63-1.01,.82-2.14,1.96-1.82,2.8,.12,.3,.39,.53,.8,.66,.22,.07,.49,.11,.77,.11,.46,0,.97-.11,1.4-.4,.92-.61,1.17-1.78,1.1-2.61-.03-.36-.15-.99-.61-1.19Zm-.42,1.91c-.05,.28-.2,.79-.62,1.06-.57,.38-1.39,.21-1.48,.14,0-.23,.63-.99,1.51-1.7l.02-.02c.18-.15,.4-.31,.56-.39,.05,.19,.09,.52,.01,.91Z" stroke-width="0"/></g><g id="uuid-cf5e80af-19ff-4a73-861b-ce99b9f0147e"></g></svg>