<?xml version="1.0" encoding="UTF-8"?><svg width="70" height="70" xmlns="http://www.w3.org/2000/svg" viewBox="-10 -10 70 70"><rect x="-10" y="-10" width="70" height="70" fill="white"/><g id="uuid-08544bfd-d208-473c-8f48-af3880102149"><g><circle cx="26.52" cy="11.58" r="2.87" fill="#ffcd00"/><path d="M43.42,49.12l-5.4-12.57h4.35c.28,0,.5-.22,.5-.5s-.22-.5-.5-.5h-4.78L27.8,12.74c.66-.69,1.07-1.63,1.07-2.66,0-1.96-1.47-3.57-3.37-3.82V.68c0-.28-.22-.5-.5-.5s-.5,.22-.5,.5V6.26c-1.89,.25-3.37,1.85-3.37,3.82,0,.98,.38,1.87,.98,2.55l-9.84,22.92H7.63c-.28,0-.5,.22-.5,.5s.22,.5,.5,.5h4.22l-5.26,12.26c-.11,.25,0,.55,.26,.66,.06,.03,.13,.04,.2,.04,.19,0,.38-.11,.46-.3l5.43-12.65h11.57v6.27c0,.28,.22,.5,.5,.5s.5-.22,.5-.5v-6.27h11.43l5.57,12.97c.08,.19,.27,.3,.46,.3,.07,0,.13-.01,.2-.04,.25-.11,.37-.4,.26-.66ZM25,7.21c1.58,0,2.87,1.29,2.87,2.87s-1.29,2.87-2.87,2.87-2.87-1.29-2.87-2.87,1.29-2.87,2.87-2.87Zm-11.64,28.33L22.91,13.32c.6,.39,1.32,.63,2.1,.63,.73,0,1.4-.21,1.99-.57l9.52,22.17H13.36Z" stroke-width="0"/></g></g><g id="uuid-344b0e9b-c57f-451b-b23e-30287da32f80"></g></svg>