<?xml version="1.0" encoding="UTF-8"?><svg width="70" height="70" xmlns="http://www.w3.org/2000/svg" viewBox="-10 -10 70 70"><rect x="-10" y="-10" width="70" height="70" fill="white"/><g id="uuid-ecd8b4de-a00a-4d94-97d5-cd2be2bcbdc1"><path d="M45.73,32.28h1.89c.61,0,1.1-.49,1.1-1.1s-.49-1.1-1.1-1.1H3.82c-.61,0-1.1.5-1.1,1.1s.49,1.1,1.1,1.1h.78l1.74,9.49c.11.6.63,1.04,1.24,1.04h8.26c.61,0,1.13-.44,1.24-1.04l.5-2.82c.1-.56.56-.95,1.14-.95s1.04.39,1.13.95l.5,2.82c.11.6.63,1.04,1.24,1.04h8.26c.61,0,1.13-.44,1.24-1.04l.5-2.82c.09-.56.56-.95,1.13-.95s1.04.39,1.14.95l.5,2.82c.11.6.63,1.04,1.24,1.04h8.26c.61,0,1.13-.44,1.24-1.04l1.5-8.49-.87-1Z" fill="#ffcd00" stroke-width="0"/></g><g id="uuid-ed665089-f2f0-420e-a9a0-54cfec418a93"><path d="M32.7,28.35s0,.01.01.01h13.22c.03-.29.05-.59.05-.9,0-4.4-2.99-9.75-6.52-9.89-.05-.01-.09-.02-.14-.02-.29,0-.58.05-.87.12-3.2.78-5.79,5.7-5.79,9.79,0,.31.02.6.04.89ZM26.14,16.71c2.78.71,5.06,3.89,6.02,7.33.96-3.44,3.24-6.62,6.01-7.33-1.08-3.28-3.41-6.16-6.01-6.16s-4.93,2.88-6.02,6.16ZM18.39,28.36h13.22c.03-.3.05-.59.05-.9,0-4.09-2.59-9.01-5.79-9.79-.24-.06-.48-.09-.73-.1-.05-.01-.09-.02-.14-.02s-.09.01-.14.02c-.25,0-.49.04-.73.1-3.2.78-5.79,5.7-5.79,9.79,0,.31.02.6.05.89h0ZM6.86,42.09h8.26c.61,0,1.13-.44,1.24-1.04l.5-2.82c.1-.56.56-.95,1.14-.95s1.04.39,1.13.95l.5,2.82c.11.6.63,1.04,1.24,1.04h8.26c.61,0,1.13-.44,1.24-1.04l.5-2.82c.09-.56.56-.95,1.13-.95s1.04.39,1.14.95l.5,2.82c.11.6.63,1.04,1.24,1.04h8.26c.61,0,1.13-.44,1.24-1.04l1.5-8.49H4.12l1.5,8.49c.11.6.63,1.04,1.24,1.04ZM17.34,27.46c0-4.09-2.59-9.01-5.79-9.79-.29-.07-.58-.12-.87-.12-.05,0-.09.01-.14.02-3.53.14-6.52,5.49-6.52,9.89,0,.31.02.61.05.9h13.22s0,0,0-.01c.02-.29.04-.58.04-.89ZM11.83,16.71c2.77.71,5.05,3.89,6.01,7.33.96-3.44,3.24-6.62,6.02-7.33-1.09-3.28-3.41-6.16-6.02-6.16s-4.93,2.88-6.01,6.16ZM2,30.46c0,.61.49,1.1,1.1,1.1h43.8c.61,0,1.1-.49,1.1-1.1s-.49-1.1-1.1-1.1H3.1c-.61,0-1.1.5-1.1,1.1ZM3.02,27.46c0-4.94,3.42-10.91,7.66-10.91.05,0,.09.01.14.01,1.18-3.71,3.87-7.01,7.02-7.01s5.84,3.3,7.02,7.01c.05,0,.09-.01.14-.01s.09.01.14.01c1.18-3.71,3.87-7.01,7.02-7.01s5.84,3.3,7.02,7.01c.05,0,.09-.01.14-.01,4.24,0,7.66,5.97,7.66,10.91,0,.31-.01.61-.04.91,1.14.02,2.06.95,2.06,2.09,0,.58-.24,1.1-.62,1.48s-.9.62-1.48.62l-1.54,8.67c-.19,1.07-1.12,1.86-2.22,1.86h-8.26c-1.1,0-2.03-.79-2.22-1.86l-.5-2.82c-.03-.17-.28-.17-.31,0l-.5,2.82c-.19,1.07-1.12,1.86-2.22,1.86h-8.26c-1.1,0-2.03-.79-2.22-1.86l-.5-2.82c-.03-.17-.28-.17-.31,0l-.5,2.82c-.19,1.07-1.12,1.86-2.22,1.86H6.86c-1.1,0-2.03-.79-2.22-1.86l-1.54-8.67c-1.16,0-2.1-.94-2.1-2.1s.92-2.07,2.06-2.09c-.03-.3-.04-.6-.04-.91Z" stroke-width="0"/></g></svg>