<?xml version="1.0" encoding="utf-8"?> <!-- Generator: Adobe Illustrator 27.7.0, SVG Export Plug-In . SVG Version: 6.00 Build 0) --> <svg width="70" height="70" version="1.1" xmlns="http://www.w3.org/2000/svg" xmlns:xlink="http://www.w3.org/1999/xlink" x="0px" y="0px" viewBox="-10 -10 70 70" style="enable-background:new 0 0 50 50;" xml:space="preserve"><rect x="-10" y="-10" width="70" height="70" fill="white"/> <style type="text/css"> .st0{fill:#FFCD00;} .st1{display:none;} .st2{display:inline;fill:none;stroke:#EA008A;stroke-width:0.2;stroke-miterlimit:10;} .st3{font-family:'Roboto-Regular';} .st4{font-size:6px;} </style> <g id="Color"> <path class="st0" d="M34.9165,4.8105H19.1201c-5.4419,0-9.8691,4.4277-9.8691,9.8691v0.5127v6.3213v0.4766 c0,1.7062,1.2931,3.101,2.9482,3.2958v3.3234h6.5977v-3.2842h19.8232c2.8281,0,5.1289-2.3008,5.1289-5.1279v-6.5537 C43.749,8.7734,39.7866,4.8105,34.9165,4.8105z M37.4932,12.918H25.7695c-3.1797,0-3.7207-3.7852-3.9248-5.2109 c-0.0205-0.1426,0.0225-0.2881,0.1172-0.3975c0.0952-0.1104,0.2329-0.1729,0.3779-0.1729h10.9961 c2.2236,0,3.519,0.7471,4.2144,1.374c0.8027,0.7246,1.2822,1.7266,1.2822,2.6797C38.8325,12.208,38.2817,12.918,37.4932,12.918z" stroke-width="0"/> </g> <g id="ICONS_00000031165542127692736420000002692518830807990202_"> <g> <path d="M33.4165,2.3105H17.6201c-1.2699,0-2.4843,0.2303-3.6182,0.6324V1.5928c0-0.2764-0.2236-0.5-0.5-0.5H9.3857 c-0.2764,0-0.5,0.2236-0.5,0.5V6.582c0,0.0436,0.0143,0.0826,0.0248,0.123c-1.3499,1.811-2.1595,4.0474-2.1595,6.4747v7.3105 c0,1.9026,1.2401,3.5045,2.9482,4.0865v3.0326c0,0.2764,0.2236,0.5,0.5,0.5h3.2988v5.9102h-1.2656 c-1.6074,0-2.9155,1.3076-2.9155,2.915v9.0566c0,1.6074,1.3081,2.916,2.9155,2.916h3.5312c1.6074,0,2.9155-1.3086,2.9155-2.916 v-9.0566c0-1.6074-1.3081-2.915-2.9155-2.915H14.498v-5.9102h3.2988c0.2764,0,0.5-0.2236,0.5-0.5v-2.7842h18.8232 c3.3794,0,6.1289-2.749,6.1289-6.1279v-6.5537C43.249,6.7217,38.8384,2.3105,33.4165,2.3105z M10.3169,45.9912v-9.0566 c0-1.0557,0.8594-1.915,1.9155-1.915h1.2656v12.8877h-1.2656C11.1763,47.9072,10.3169,47.0479,10.3169,45.9912z M15.7637,35.0195 c1.0562,0,1.9155,0.8594,1.9155,1.915v9.0566c0,1.0566-0.8594,1.916-1.9155,1.916H14.498V35.0195H15.7637z M9.8857,2.0928h3.1162 v1.2621c-1.1654,0.5501-2.2216,1.293-3.1162,2.2004V2.0928z M17.2969,27.1094h-6.5977V24.786 c0.1298,0.0117,0.2549,0.0392,0.3877,0.0392h6.21V27.1094z M42.249,18.6973c0,2.8271-2.3008,5.1279-5.1289,5.1279H11.0869 c-1.8394,0-3.3359-1.4961-3.3359-3.335v-0.4766h4.877c0.2764,0,0.5-0.2236,0.5-0.5s-0.2236-0.5-0.5-0.5H7.751v-1.6611h4.877 c0.2764,0,0.5-0.2236,0.5-0.5s-0.2236-0.5-0.5-0.5H7.751v-1.6602h4.877c0.2764,0,0.5-0.2236,0.5-0.5s-0.2236-0.5-0.5-0.5H7.751 v-0.5127c0-5.4414,4.4272-9.8691,9.8691-9.8691h15.7964c4.8701,0,8.8325,3.9629,8.8325,8.833V18.6973z" stroke-width="0"/> <path d="M31.8359,5.6367H20.8398c-0.145,0-0.2827,0.0625-0.3779,0.1729c-0.0947,0.1094-0.1377,0.2549-0.1172,0.3975 c0.2041,1.4258,0.7451,5.2109,3.9248,5.2109h11.7236c0.7886,0,1.3394-0.71,1.3394-1.7275c0-0.9531-0.4795-1.9551-1.2822-2.6797 C35.355,6.3838,34.0596,5.6367,31.8359,5.6367z M35.9932,10.418H24.2695c-1.8594,0-2.522-1.9131-2.8452-3.7812h10.4116 c1.5088,0,2.7344,0.3867,3.5444,1.1172c0.5962,0.5371,0.9521,1.2617,0.9521,1.9365C36.3325,10.043,36.2134,10.418,35.9932,10.418z " stroke-width="0"/> </g> </g> <g id="Margin" class="st1"> <rect x="1" y="1" class="st2" /> </g> <g id="Guides" class="st1"> </g> <g id="LABELS"> <g> <g> <g> <g> <g> <g> </g> </g> </g> </g> </g> </g> </g> </svg> 