<?xml version="1.0" encoding="UTF-8"?><svg width="70" height="70" xmlns="http://www.w3.org/2000/svg" viewBox="-10 -10 70 70"><rect x="-10" y="-10" width="70" height="70" fill="white"/><g id="uuid-c24460aa-03ab-4c80-96f9-ab61c1846cc7"><g><path d="M20.14,3.77v29.4c.18-.08,.31-.25,.31-.46v-2.79l8.28,5.23-8.28,5.23v-2.79c0-.21-.13-.39-.31-.46v11.85h21.9V3.77H20.14Zm9.48,10.22c-2.45,0-4.44-1.99-4.44-4.44s1.99-4.44,4.44-4.44,4.44,1.99,4.44,4.44-1.99,4.44-4.44,4.44Z" fill="#ffcd00" stroke-width="0"/><path d="M40.79,1.02H17.89c-.28,0-.5,.22-.5,.5v30.69h1V2.02h21.9V47.23H18.39v-9.14h-1v9.64c0,.28,.22,.5,.5,.5h22.9c.28,0,.5-.22,.5-.5V1.52c0-.28-.22-.5-.5-.5Z" stroke-width="0"/><polygon points="28.62 12.03 30.61 12.03 30.61 10.55 32.09 10.55 32.09 8.56 30.61 8.56 30.61 7.08 28.62 7.08 28.62 8.56 27.14 8.56 27.14 10.55 28.62 10.55 28.62 12.03"/><path d="M29.62,14.99c3,0,5.44-2.44,5.44-5.44s-2.44-5.44-5.44-5.44-5.44,2.44-5.44,5.44,2.44,5.44,5.44,5.44Zm0-9.88c2.45,0,4.44,1.99,4.44,4.44s-1.99,4.44-4.44,4.44-4.44-1.99-4.44-4.44,1.99-4.44,4.44-4.44Z" stroke-width="0"/><polygon points="26.24 23.14 28.4 23.14 28.4 22.25 26.24 22.25 26.24 20.95 28.77 20.95 28.77 20.03 25.11 20.03 25.11 25.51 28.78 25.51 28.78 24.61 26.24 24.61 26.24 23.14"/><path d="M33.26,22.62c.16-.25,.24-.56,.24-.93,0-.53-.18-.93-.53-1.22-.35-.29-.85-.43-1.5-.43h-2.04v5.48h1.13v-2.01h.9l1.03,2.01h1.21v-.05l-1.19-2.24c.33-.15,.57-.35,.74-.6Zm-1.12-.25c-.16,.14-.38,.22-.66,.22h-.91v-1.64h.91c.3,0,.53,.07,.68,.22,.15,.15,.22,.35,.22,.61s-.08,.45-.23,.6Z" stroke-width="0"/><polygon points="30.61 7.08 28.62 7.08 28.62 8.56 27.14 8.56 27.14 10.55 28.62 10.55 28.62 12.03 30.61 12.03 30.61 10.55 32.09 10.55 32.09 8.56 30.61 8.56 30.61 7.08"/><path d="M18.39,38.09h1.06v3.2c0,.18,.1,.35,.26,.44,.08,.04,.16,.06,.24,.06,.09,0,.19-.03,.27-.08l9.72-6.14c.15-.09,.23-.25,.23-.42s-.09-.33-.23-.42l-9.72-6.14c-.15-.1-.35-.1-.51-.02-.16,.09-.26,.26-.26,.44v3.2H8.46c-.13,0-.26,.05-.36,.15s-.15,.23-.14,.36l.13,4.88c0,.27,.23,.49,.5,.49h9.8Zm-9.42-4.88h10.98c.28,0,.5-.22,.5-.5v-2.79l8.28,5.23-8.28,5.23v-2.79c0-.28-.22-.5-.5-.5H9.08l-.11-3.88Z" stroke-width="0"/></g></g><g id="uuid-cbd15022-680a-475a-8816-832a1fe07992"></g></svg>