<?xml version="1.0" encoding="UTF-8"?><svg width="70" height="70" id="uuid-18ebf629-5456-4cee-a85b-f4dd8e855f6f" xmlns="http://www.w3.org/2000/svg" viewBox="-10 -10 70 70"><rect x="-10" y="-10" width="70" height="70" fill="white"/><path d="M37.43,22.31s-.02,0-.04,0c.73-1.59,1.15-3.35,1.15-5.21,0-6.89-5.61-12.5-12.5-12.5s-12.5,5.61-12.5,12.5c0,1.86,.42,3.62,1.15,5.21-.01,0-.02,0-.04,0-6.89,0-12.5,5.61-12.5,12.5s5.61,12.5,12.5,12.5c5.06,0,9.42-3.03,11.38-7.36,1.96,4.33,6.32,7.36,11.38,7.36,6.89,0,12.5-5.61,12.5-12.5s-5.61-12.5-12.5-12.5Zm-11.42,7.29s.02,0,.04,0,.02,0,.04,0c-.01,.03-.02,.05-.04,.07-.01-.03-.02-.05-.04-.07Z" fill="#ffcd00" stroke-width="0"/><g><path d="M36.59,20.39c.58-1.47,.91-3.07,.91-4.75,0-7.17-5.83-13-13-13s-13,5.83-13,13c0,1.68,.33,3.27,.91,4.75C5.57,20.76,.12,26.43,.12,33.36s5.83,13,13,13c4.9,0,9.17-2.72,11.38-6.73,2.22,4.01,6.49,6.73,11.38,6.73,7.17,0,13-5.83,13-13s-5.45-12.59-12.29-12.96ZM24.5,3.64c6.62,0,12,5.38,12,12,0,1.68-.35,3.28-.97,4.73-.15,.35-.32,.69-.5,1.03-1.91,3.48-5.5,5.91-9.67,6.2-.19,.01-.39,.03-.59,.03-.09,0-.18,.01-.27,.01s-.18-.01-.27-.01c-.2,0-.39-.02-.59-.03-4.17-.3-7.76-2.72-9.67-6.2-.18-.33-.35-.67-.5-1.03-.63-1.45-.97-3.05-.97-4.73,0-6.62,5.38-12,12-12Zm-.55,34.85c-1.93,4.05-6.05,6.86-10.83,6.86-6.62,0-12-5.38-12-12s5.24-11.84,11.73-11.99c2.02,4.1,6.14,6.98,10.95,7.24,.12,0,.23,.01,.35,.02,.13,.31,.25,.63,.36,.95,.4,1.19,.62,2.45,.62,3.77s-.22,2.59-.62,3.77c-.16,.47-.34,.92-.55,1.36Zm11.94,6.86c-4.78,0-8.9-2.81-10.83-6.86,.68-1.58,1.06-3.31,1.06-5.14,0-1.68-.33-3.27-.91-4.75,4.81-.26,8.92-3.14,10.95-7.24,6.49,.15,11.73,5.46,11.73,11.99s-5.38,12-12,12Z" stroke-width="0"/><path d="M35.88,35.61c-2.82,0-5.44,1.53-6.82,3.99-.14,.24-.05,.54,.19,.68,.08,.04,.16,.06,.25,.06,.17,0,.34-.09,.44-.25,1.21-2.15,3.49-3.48,5.95-3.48s4.74,1.33,5.95,3.48c.14,.24,.44,.33,.68,.19,.24-.14,.33-.44,.19-.68-1.39-2.46-4-3.99-6.82-3.99Z" stroke-width="0"/><path d="M31.22,31.02l2,.4s.07,0,.1,0c.23,0,.44-.16,.49-.4,.05-.27-.12-.53-.39-.59l-2-.4c-.27-.05-.53,.12-.59,.39s.12,.53,.39,.59Z" stroke-width="0"/><path d="M38.44,31.43s.07,0,.1,0l2-.4c.27-.05,.45-.32,.39-.59s-.33-.45-.59-.39l-2,.4c-.27,.05-.45,.32-.39,.59,.05,.24,.26,.4,.49,.4Z" stroke-width="0"/><path d="M17.87,22.57c.15,.09,.33,.07,.47,0,.08-.04,.16-.1,.21-.19,.12-.22,.26-.42,.41-.62,1.27-1.77,3.33-2.86,5.54-2.86s4.27,1.08,5.54,2.86c.14,.2,.29,.4,.41,.62,.05,.09,.12,.15,.2,.19,.07,.04,.15,.06,.24,.06s.17-.02,.25-.06c.13-.07,.21-.19,.24-.33,.03-.12,.01-.24-.05-.35-.11-.2-.24-.37-.37-.56-1.45-2.12-3.86-3.43-6.46-3.43s-5.01,1.31-6.46,3.43c-.13,.18-.26,.36-.37,.56-.06,.11-.07,.24-.05,.35,.03,.13,.11,.25,.24,.33Z" stroke-width="0"/><path d="M28.13,12.86c.55,0,1-.47,1-1.04s-.45-1.04-1-1.04-1,.47-1,1.04,.45,1.04,1,1.04Z" stroke-width="0"/><ellipse cx="20.87" cy="11.82" rx="1" ry="1.04" stroke-width="0"/><path d="M19.29,37.03l-1.92,.9-1.92-.9c-.13-.06-.29-.06-.42,0l-1.92,.9-1.91-.9c-.13-.06-.29-.06-.43,0l-1.92,.9-1.91-.9c-.25-.12-.55,0-.67,.24-.12,.25-.01,.55,.24,.67l2.12,1c.13,.06,.29,.06,.43,0l1.92-.9,1.91,.9c.13,.06,.29,.06,.43,0l1.92-.9,1.92,.9c.07,.03,.14,.05,.21,.05s.15-.02,.21-.05l2.13-1c.25-.12,.36-.42,.24-.67-.12-.25-.42-.36-.67-.24Z" stroke-width="0"/><path d="M8.63,31.03h2c.28,0,.5-.22,.5-.5s-.22-.5-.5-.5h-2c-.28,0-.5,.22-.5,.5s.22,.5,.5,.5Z" stroke-width="0"/><path d="M15.75,31.03h2c.28,0,.5-.22,.5-.5s-.22-.5-.5-.5h-2c-.28,0-.5,.22-.5,.5s.22,.5,.5,.5Z" stroke-width="0"/></g></svg>