<?xml version="1.0" encoding="UTF-8"?><svg width="70" height="70" xmlns="http://www.w3.org/2000/svg" viewBox="-10 -10 70 70"><rect x="-10" y="-10" width="70" height="70" fill="white"/><g id="uuid-adba9c65-42db-49ee-b9d2-4ef8c344d28d"><path d="M46.63,22.4l-13.77,.02-16.98,.09h0c-.12,0-.24-.05-.34-.13L6.26,13.96c-.37-.32-.86-.49-1.36-.45-.51,.03-.97,.26-1.3,.64-.33,.38-.49,.87-.46,1.37,.03,.51,.26,.97,.64,1.3l9.24,8.84v1.23H6.28c-1.37,0-2.48,1.11-2.48,2.48s1.11,2.48,2.48,2.48l40.35-.04c1.39,0,2.53-1.13,2.53-2.53v-4.35c0-1.39-1.13-2.53-2.53-2.53Z" fill="#ffcd00" stroke-width="0"/><path d="M44.88,19.65h-10.52l-3.26,.02-13.98,.07c.89-1.96-.32-4.66-3.23-6.98-2.92-2.32-6.51-2.67-8.28-.9l-.43-.39c-.58-.51-1.32-.75-2.1-.7-.77,.05-1.48,.4-1.98,.98-.51,.58-.76,1.32-.7,2.1,.05,.77,.4,1.48,.96,1.97l8.71,8.34H4.53c-1.92,0-3.48,1.56-3.48,3.48s1.56,3.48,3.48,3.48h3.91v7.69c0,.28,.22,.5,.5,.5s.5-.22,.5-.5v-7.7l33.28-.03,.02,7.71c0,.28,.22,.5,.5,.5h0c.28,0,.5-.23,.5-.5l-.02-7.71h1.16c1.94,0,3.53-1.58,3.53-3.53v-4.35c0-1.94-1.58-3.53-3.53-3.53ZM13.27,13.54c2.31,1.84,4.02,4.46,2.7,6.21h-1.65l-7.96-7.22c1.42-1.38,4.42-.97,6.92,1.02Zm34.14,13.99c0,1.39-1.13,2.53-2.53,2.53l-40.35,.04c-1.37,0-2.48-1.11-2.48-2.48s1.11-2.48,2.48-2.48h6.78s.01,0,.02,0h31.97c.28,0,.5-.22,.5-.5s-.22-.5-.5-.5H11.51L2.04,15.07c-.38-.33-.61-.79-.64-1.3-.03-.51,.13-.99,.46-1.37,.33-.38,.79-.61,1.3-.64,.5-.04,.99,.13,1.36,.45l9.27,8.42c.09,.08,.21,.13,.34,.13h0l16.98-.09,13.77-.02c1.39,0,2.53,1.13,2.53,2.53v4.35Z" stroke-width="0"/></g><g id="uuid-7658ffd0-cf96-499e-8389-a4c5ff7de683"></g></svg>