<?xml version="1.0" encoding="UTF-8"?><svg width="70" height="70" id="uuid-a91931e1-a50e-440c-bfaa-fe20f5c9c42b" xmlns="http://www.w3.org/2000/svg" viewBox="-10 -10 70 70"><rect x="-10" y="-10" width="70" height="70" fill="white"/><path d="M32.28,25.66h-13.79v4.46c0,.27-.22,.5-.5,.5H5.16l-1.77,7.54h31.67l-2.78-12.5Zm.32,10.86h-6.92c-.28,0-.5-.22-.5-.5,0-3.21-2.62-5.82-5.83-5.82-.27,0-.5-.23-.5-.5v-3.17c0-.28,.23-.5,.5-.5h11.14c.23,0,.43,.16,.48,.39l2.12,9.49c.03,.15-.01,.31-.1,.42-.1,.12-.24,.19-.39,.19Z" fill="#ffcd00" stroke-width="0"/><g><path d="M45.81,3.54c-.7-.32-1.54-.21-2.14,.29l-14.96,12.6c-.37,.31-.61,.74-.69,1.22l-1.12,7.01h4.08l.85-5.47c.02-.12,.08-.23,.17-.31l10.14-8.53c.15-.13,.35-.15,.52-.08,.18,.08,.29,.25,.3,.44l1.15,27.65h1.87l.98-33.02c0-.76-.45-1.47-1.15-1.8Z" fill="#ffcd00" stroke-width="0"/><polygon points="11.02 40.93 17.99 40.93 24.96 40.93 25.6 39.16 10.38 39.16 11.02 40.93" fill="#ffcd00"/></g><g><g><path d="M28.85,43.07c-.42,.15-.76,.49-.9,.92,.24-.36,.54-.68,.9-.92Z" stroke-width="0"/><path d="M16.72,43.17c-.24,.13-.43,.32-.57,.55,.17-.2,.36-.39,.57-.55Z" stroke-width="0"/><path d="M4.84,43.07c-.43,.15-.77,.5-.92,.93,.24-.37,.55-.69,.92-.93Z" stroke-width="0"/></g><path d="M46.91,39.08c1.1,1.71,2.94,4.57,1.72,6.81-.97,1.77-3.85,2.77-8.67,2.77h-5.08c-.2,0-.37-.11-.46-.29-.08-.17-.05-.38,.07-.53l.09-.11,7.9-9.68-1.12-26.92-9.21,7.76-.8,5.13h.69c.24,0,.44,.17,.49,.4l3,13.49c.04,.15,0,.31-.09,.42-.1,.12-.24,.19-.4,.19h-9.01l-.64,1.77h3.97c2.31,0,4.18,1.88,4.18,4.19,0,.72-.18,1.4-.5,1.99-.71,1.3-2.09,2.19-3.68,2.19H5.34c-2.31,0-4.18-1.88-4.18-4.18s1.87-4.19,4.18-4.19h3.97l-.64-1.77H2.12c-.16,0-.3-.07-.39-.19-.1-.12-.13-.27-.1-.42l2-8.55c.05-.22,.26-.38,.49-.38h5.52v-2.75l-2.3-.87c-.19-.08-.32-.26-.32-.47v-2c0-.17,.08-.33,.22-.42s.32-.11,.48-.04l4.62,2c.18,.08,.3,.26,.3,.46v4.09h4.21v-4.46c0-.27,.22-.5,.5-.5h7.9l1.15-7.17c.11-.71,.47-1.36,1.03-1.83L42.39,2.42c.89-.75,2.14-.91,3.2-.42,1.05,.49,1.73,1.55,1.73,2.72l-1,33.39c.11,.22,.33,.57,.59,.97Zm.84,6.33c.94-1.72-.7-4.26-1.68-5.79-.23-.35-.42-.65-.56-.9h-2.28l-7.3,8.94h4.03c4.36,0,6.98-.76,7.79-2.25Zm-2.41-7.69l.98-33.02c0-.76-.45-1.47-1.15-1.8-.7-.32-1.54-.21-2.14,.29l-14.96,12.6c-.37,.31-.61,.74-.69,1.22l-1.12,7.01h4.08l.85-5.47c.02-.12,.08-.23,.17-.31l10.14-8.53c.15-.13,.35-.15,.52-.08,.18,.08,.29,.25,.3,.44l1.15,27.65h1.87Zm-10.92-.2l-2.78-12.5h-13.79v4.46c0,.27-.22,.5-.5,.5H4.52l-1.77,7.54h31.67Zm-1.88,6.96c0-1.76-1.42-3.19-3.18-3.19s-3.18,1.43-3.18,3.19,1.42,3.18,3.18,3.18,3.18-1.43,3.18-3.18Zm-5.86-3.19h-6.65c.91,.77,1.5,1.91,1.5,3.19s-.59,2.41-1.5,3.18h6.65c-.91-.77-1.5-1.9-1.5-3.18s.59-2.42,1.5-3.19Zm-2.36-1l.64-1.77H9.74l.64,1.77h13.94Zm-3.79,4.19c0-1.76-1.42-3.19-3.18-3.19s-3.18,1.43-3.18,3.19,1.43,3.18,3.18,3.18,3.18-1.43,3.18-3.18Zm-5.86-3.19h-6.65c.91,.77,1.5,1.91,1.5,3.19s-.59,2.41-1.5,3.18h6.65c-.91-.77-1.5-1.9-1.5-3.18s.59-2.42,1.5-3.19Zm-3.03-12.31v-3.76l-3.62-1.57v.89l2.3,.88c.19,.08,.32,.26,.32,.47v3.09h1Zm-3.12,15.5c0-1.76-1.42-3.19-3.18-3.19s-3.18,1.43-3.18,3.19,1.43,3.18,3.18,3.18,3.18-1.43,3.18-3.18Z" stroke-width="0"/><path d="M33.09,35.91c.03,.15-.01,.31-.1,.42-.1,.12-.24,.19-.39,.19h-6.92c-.28,0-.5-.22-.5-.5,0-3.21-2.62-5.82-5.83-5.82-.27,0-.5-.23-.5-.5v-3.17c0-.28,.23-.5,.5-.5h11.14c.23,0,.43,.16,.48,.39l2.12,9.49Zm-1.12-.39l-1.88-8.49h-10.24v2.18s.07,0,.1,.02c.1,.01,.2,.02,.29,.03,.13,.02,.25,.03,.37,.06,.09,.01,.18,.04,.28,.06,.12,.02,.23,.05,.35,.09,.09,.02,.18,.05,.27,.08,.12,.04,.23,.08,.34,.13,.09,.03,.17,.06,.26,.1,.11,.05,.22,.11,.33,.16,.08,.04,.16,.08,.23,.12,.12,.07,.23,.14,.34,.21,.06,.04,.13,.08,.2,.13,.12,.08,.23,.17,.35,.26,.05,.04,.1,.07,.15,.11,.32,.27,.62,.57,.89,.89,.04,.05,.07,.1,.11,.15,.09,.12,.18,.23,.27,.36,.04,.06,.08,.13,.12,.19,.07,.11,.15,.23,.21,.34,.04,.08,.08,.15,.12,.23,.05,.11,.11,.22,.16,.34,.04,.08,.07,.16,.1,.25,.05,.11,.09,.23,.13,.35,.03,.08,.06,.17,.08,.26,.04,.12,.07,.24,.1,.36,.02,.09,.04,.18,.05,.27,.03,.13,.05,.25,.06,.38,0,.09,.03,.18,.04,.28,0,.03,0,.07,0,.1h3.12l-.83-2.73c-.44-.1-.77-.48-.77-.95,0-.55,.45-1,1-1s1,.45,1,1c0,.26-.11,.5-.27,.67l.92,3.01h1.64Z" stroke-width="0"/><path d="M29.36,42.98c.83,0,1.5,.67,1.5,1.5s-.67,1.5-1.5,1.5-1.5-.68-1.5-1.5,.67-1.5,1.5-1.5Zm.5,1.5c0-.28-.22-.5-.5-.5s-.5,.22-.5,.5,.22,.5,.5,.5,.5-.23,.5-.5Z" stroke-width="0"/><path d="M17.44,42.98c.83,0,1.5,.67,1.5,1.5s-.67,1.5-1.5,1.5-1.5-.68-1.5-1.5,.67-1.5,1.5-1.5Zm.5,1.5c0-.28-.22-.5-.5-.5s-.5,.22-.5,.5,.23,.5,.5,.5,.5-.23,.5-.5Z" stroke-width="0"/><path d="M13.2,31.34c.28,0,.5,.22,.5,.5s-.22,.5-.5,.5h-4.18c-.27,0-.5-.22-.5-.5s.23-.5,.5-.5h4.18Z" stroke-width="0"/><path d="M13.2,33.34c.28,0,.5,.23,.5,.5s-.22,.5-.5,.5h-4.18c-.27,0-.5-.22-.5-.5s.23-.5,.5-.5h4.18Z" stroke-width="0"/><path d="M13.2,35.34c.28,0,.5,.23,.5,.5s-.22,.5-.5,.5h-4.18c-.27,0-.5-.22-.5-.5s.23-.5,.5-.5h4.18Z" stroke-width="0"/><path d="M5.34,42.98c.83,0,1.5,.67,1.5,1.5s-.67,1.5-1.5,1.5-1.5-.68-1.5-1.5,.67-1.5,1.5-1.5Zm.5,1.5c0-.28-.22-.5-.5-.5s-.5,.22-.5,.5,.23,.5,.5,.5,.5-.23,.5-.5Z" stroke-width="0"/></g></svg>