<?xml version="1.0" encoding="UTF-8"?><svg width="70" height="70" xmlns="http://www.w3.org/2000/svg" viewBox="-10 -10 70 70"><rect x="-10" y="-10" width="70" height="70" fill="white"/><g id="uuid-c3dc59da-9f74-4217-af10-d3fded2e87b6"><g><path d="M26.25,2.64C13.23,2.64,2.64,13.23,2.64,26.25s10.59,23.61,23.61,23.61,23.61-10.59,23.61-23.61S39.27,2.64,26.25,2.64Zm13.57,25.34c-.07,.69-.18,1.23-.23,1.48,0,0-.01,.06-.03,.13-.2,.93-2.16,5.06-2.26,5.28-1.2-.04-2.57-.02-4.08,.12-1.44,.14-2.73,.37-3.86,.63l-1,.25c-1.31,.35-2.78,.83-4.36,1.51-2.1,.91-3.84,1.94-5.23,2.88-.16-.11-.26-.22-.33-.3,0,0-.01-.02-.14-.19-.12-.04-.29-.1-.5-.21-.77-.39-1.15-1.02-1.36-1.2-2.96-2.54-4.7-6.42-4.7-6.42-.53-1.18-.69-1.99-.71-2.59-.17-.79-.3-1.6-.32-2.44h28.17c0,.17-.03,.33-.04,.5h1.02c0,.12-.02,.32-.05,.56Z" fill="#ffcd00" stroke-width="0"/><g><path d="M11.1,18.15c.28,0,.5-.22,.5-.5h0c0-1.46,.58-2.83,1.63-3.86,1.04-1.02,2.4-1.56,3.82-1.54,2.9,.05,5.25,2.48,5.25,5.4h0c0,.28,.22,.5,.5,.5s.5-.22,.5-.5c0-3.46-2.8-6.33-6.23-6.4-1.69-.02-3.31,.62-4.54,1.83-1.24,1.22-1.93,2.84-1.93,4.57,0,.28,.22,.5,.5,.5Z" stroke-width="0"/><path d="M27.04,18.15c.28,0,.5-.22,.5-.5h0c0-1.46,.58-2.83,1.63-3.86,1.04-1.02,2.41-1.56,3.82-1.54,2.89,.05,5.25,2.48,5.25,5.4h0c0,.28,.22,.5,.5,.5s.5-.22,.5-.5c0-3.46-2.8-6.33-6.23-6.4-1.69-.02-3.31,.62-4.54,1.83-1.24,1.22-1.93,2.84-1.93,4.57,0,.28,.22,.5,.5,.5Z" stroke-width="0"/><path d="M24.75,.14C11.18,.14,.14,11.18,.14,24.75s11.04,24.61,24.61,24.61,24.61-11.04,24.61-24.61S38.32,.14,24.75,.14Zm0,48.23C11.73,48.36,1.14,37.77,1.14,24.75S11.73,1.14,24.75,1.14s23.61,10.59,23.61,23.61-10.59,23.61-23.61,23.61Z" stroke-width="0"/><path d="M39.4,25.92H10.21c-.28,0-.5,.22-.5,.5,0,5.23,2.68,9.85,6.73,12.56,.02,.01,.03,.02,.05,.03,2.38,1.58,5.24,2.5,8.31,2.5,5.86,0,10.93-3.36,13.44-8.25,.02-.03,.03-.06,.05-.1,1.02-2.03,1.61-4.32,1.61-6.75,0-.28-.22-.5-.5-.5Zm-14.59,14.6c-2.62,0-5.06-.73-7.17-1.98,2.84-1.9,5.93-3.3,9.23-4.17l.9,1.81c.09,.18,.26,.28,.45,.28,.08,0,.15-.02,.22-.05,.25-.12,.35-.42,.22-.67l-.8-1.6c3.01-.69,6.09-.92,9.17-.69-2.44,4.23-7,7.09-12.22,7.09Zm12.72-8.05c-3.54-.31-7.07-.04-10.52,.82-3.69,.93-7.15,2.49-10.29,4.66-3.5-2.46-5.84-6.47-6-11.03h28.17c-.07,1.98-.56,3.85-1.37,5.55Z" stroke-width="0"/><path d="M37.53,32.46c-3.54-.31-7.07-.04-10.52,.82-3.69,.93-7.15,2.49-10.29,4.66-2.86-2.01-4.92-5.06-5.68-8.59,.02,.6,.18,1.41,.71,2.59,0,0,1.73,3.88,4.7,6.42,.21,.18,.59,.8,1.36,1.2,.2,.1,.38,.17,.5,.21,.13,.17,.14,.19,.14,.19,.06,.08,.16,.18,.33,.3,1.39-.95,3.13-1.97,5.23-2.88,1.57-.68,3.05-1.16,4.36-1.51l1-.25c1.13-.26,2.42-.49,3.86-.63,1.51-.15,2.88-.17,4.08-.12,.1-.22,2.06-4.35,2.26-5.28,.01-.06,.03-.13,.03-.13,.05-.25,.16-.79,.23-1.48,.03-.24,.04-.43,.05-.56h-1.02c-.13,1.79-.58,3.5-1.32,5.05Z" fill="none" stroke-width="0"/></g></g></g><g id="uuid-c4745102-d953-4b60-93fd-cfd0b131649b"></g></svg>