<?xml version="1.0" encoding="UTF-8"?><svg width="70" height="70" xmlns="http://www.w3.org/2000/svg" viewBox="-10 -10 70 70"><rect x="-10" y="-10" width="70" height="70" fill="white"/><g id="uuid-f128b97b-7779-44f4-9f99-f1f151d552b9"><g><path d="M24.36,25.48c-.33,0-.65-.03-.96-.09,.77,.53,1.71,.84,2.71,.84,2.66,0,4.83-2.17,4.83-4.83,0-1-.31-1.94-.84-2.71,.05,.31,.09,.63,.09,.96,0,3.22-2.62,5.83-5.83,5.83Z" fill="#ffcd00" stroke-width="0"/><path d="M29.2,19.65c0-.88-.26-1.7-.67-2.41-.71-.41-1.53-.67-2.41-.67-2.66,0-4.83,2.17-4.83,4.83,0,.88,.26,1.7,.67,2.41,.71,.41,1.53,.67,2.41,.67,2.66,0,4.83-2.17,4.83-4.83Z" fill="#ffcd00" stroke-width="0"/><path d="M32.8,14.73c.85,1.46,1.32,3.13,1.32,4.85,0,5.31-4.32,9.63-9.63,9.63-2.5,0-4.88-.96-6.68-2.69-1.9-1.83-2.95-4.3-2.95-6.94,0-1.17,.21-2.32,.62-3.39-7.34,3.06-12.09,8.38-12.09,10.19,0,2.52,10.05,12.43,22.98,12.43s22.98-9.91,22.98-12.43c0-2.15-6.73-9.28-16.55-11.65Z" fill="#ffcd00" stroke-width="0"/><path d="M24.62,11.2C11.54,11.2,.65,20.95,.65,24.63c0,3.29,10.79,13.43,23.98,13.43s23.98-9.67,23.98-13.43-10.89-13.43-23.98-13.43Zm7.07,1.99c1.57,1.76,2.43,4.03,2.43,6.39,0,5.31-4.32,9.63-9.63,9.63-2.5,0-4.88-.96-6.68-2.69-1.9-1.83-2.95-4.3-2.95-6.94,0-2.29,.81-4.49,2.29-6.23,4.88-1.39,9.67-1.45,14.55-.16Zm-7.07,23.86C11.69,37.05,1.65,27.14,1.65,24.63c0-1.96,5.58-8.04,13.99-10.91-1.15,1.73-1.77,3.76-1.77,5.86,0,2.92,1.16,5.63,3.26,7.66,1.99,1.92,4.61,2.97,7.37,2.97,5.86,0,10.63-4.77,10.63-10.63,0-2.15-.66-4.22-1.85-5.97,8.61,2.81,14.34,9.03,14.34,11.02,0,2.52-10.05,12.43-22.98,12.43Z" stroke-width="0"/><path d="M24.36,25.48c3.22,0,5.83-2.62,5.83-5.83s-2.62-5.83-5.83-5.83-5.83,2.62-5.83,5.83,2.62,5.83,5.83,5.83Zm0-10.66c2.66,0,4.83,2.17,4.83,4.83s-2.17,4.83-4.83,4.83-4.83-2.17-4.83-4.83,2.17-4.83,4.83-4.83Z" stroke-width="0"/><path d="M22.04,14.31c1.17-.19,2.37-.31,3.61-.34-.41-.09-.84-.15-1.28-.15-.83,0-1.61,.18-2.33,.49Z" fill="none" stroke-width="0"/><path d="M18.53,19.65c0,2.89,2.11,5.28,4.87,5.75-.6-.41-1.08-.96-1.45-1.58-1.44-.84-2.42-2.38-2.42-4.16,0-2.66,2.17-4.83,4.83-4.83,1.78,0,3.32,.98,4.16,2.42,.63,.37,1.18,.85,1.58,1.45-.39-2.34-2.17-4.21-4.47-4.72-1.24,.03-2.44,.15-3.61,.34-2.06,.9-3.51,2.96-3.51,5.34Z" stroke-width="0"/><path d="M28.53,17.24c.41,.71,.67,1.53,.67,2.41,0,2.66-2.17,4.83-4.83,4.83-.88,0-1.7-.26-2.41-.67,.37,.63,.85,1.18,1.45,1.58,.31,.05,.63,.09,.96,.09,3.22,0,5.83-2.62,5.83-5.83,0-.33-.03-.65-.09-.96-.41-.6-.96-1.08-1.58-1.45Z" stroke-width="0"/></g></g><g id="uuid-61446e10-4a76-4011-9333-d03a3fb4cdd3"></g></svg>