<?xml version="1.0" encoding="UTF-8"?><svg width="70" height="70" xmlns="http://www.w3.org/2000/svg" viewBox="-10 -10 70 70"><rect x="-10" y="-10" width="70" height="70" fill="white"/><g id="uuid-aebf6d16-5311-4940-9773-af3ca5d3cfe3"><path d="M29.83,41.62v.04s.04,0,.06,0l-.06-.04Z" stroke-width="0"/><path d="M45.79,16.7h-.32l-16.47-.04v.04h-3.51c-.82,0-1.48,.67-1.48,1.48v1.01h0v.5H6.23v3.47H24.02v.5h0v22.18c0,.15,.02,.3,.07,.44,0,.02,.12,.34,.38,.62,.51,.54,1.39,.6,1.56,.61,.96,.13,1.93,.23,2.89,.32h0c.85,.09,1.75,.15,2.67,.2h0c.28,.03,.56,.03,.84,.04,.26,.01,.51,.03,.77,.04,.21,0,.41,0,.63,0,.33,0,.66,.01,1,.02,.82,0,1.62,0,2.39-.02,3.03-.09,6.08-.4,9.06-.91h.02s.62-.09,.86-.55c.08-.15,.11-.31,.1-.49,0-.55,0-1.09,0-1.64l.03-26.35c0-.82-.67-1.48-1.48-1.48Z" fill="#ffcd00" stroke-width="0"/><path d="M44.04,13.95h-1.89c-.1-.6-.26-1.2-.51-1.77C38.61,5.33,29.11-.58,19.05,1.83,9.37,4.15,6.58,10.78,5.9,16.95h-1.92c-.28,0-.5,.22-.5,.5v4.47c0,.28,.22,.5,.5,.5h1.77c.21,3.67,1.33,5.94,2.53,8.31,.99,1.96,2.01,3.98,2.59,6.99,1.1,5.73-.56,8.34-1.35,9.6-.17,.26-.3,.47-.37,.64-.11,.25,0,.55,.26,.66,.06,.03,.13,.04,.2,.04,.19,0,.38-.11,.46-.3,.03-.06,.07-.13,.11-.21,.05-.08,.11-.18,.18-.29,.87-1.36,2.67-4.2,1.49-10.32-.61-3.15-1.66-5.24-2.68-7.26-1.14-2.26-2.21-4.42-2.42-7.86h14.52v21.68c0,.25,.04,.5,.11,.75h0c.07,.25,.29,.67,.6,1,.76,.81,1.92,.91,2.2,.92,1.54,.21,3.09,.37,4.65,.48v.5h0c0,.28,.23,.5,.5,.5s.5-.22,.5-.5v-.45c1.2,.06,2.41,.11,3.61,.11,.68,0,1.36-.01,2.04-.03,3.07-.09,6.16-.4,9.19-.92,.22-.03,1.16-.2,1.61-1.07,.16-.3,.23-.64,.21-.97l.03-27.97c0-1.37-1.11-2.48-2.48-2.48Zm0,1c.82,0,1.48,.67,1.48,1.48l-.03,26.35c-.83-.2-1.67-.39-2.51-.55-1.7-.31-3.42-.53-5.16-.65,.11-.3,.22-.63,.34-1.01,.49-1.6,1.21-3.93,2.26-7.24l3.92-2.03c.12-.06,.21-.17,.25-.3,.04-.13,.02-.27-.04-.39-.03-.06-3.08-5.63-3.08-7.91,0-.71,.16-1.61,.34-2.65,.27-1.55,.57-3.35,.46-5.1h1.77Zm-14.2,26.67l.06,.04s-.04,0-.06,0v-.04ZM4.48,21.42v-3.47H21.27v3.47H4.48Zm16.79-4.98v.52H6.9c.67-6.02,3.35-11.99,12.38-14.15,6.5-1.56,17.56,.98,21.44,9.79,.19,.43,.31,.89,.41,1.36H23.75c-1.37,0-2.48,1.11-2.48,2.48Zm3.01,29.33c-.17,0-1.05-.07-1.56-.61-.26-.28-.37-.6-.38-.62-.04-.14-.07-.29-.07-.44V21.92h0v-4.47h0v-1.02c0-.82,.67-1.48,1.48-1.48h17.51c.12,1.67-.17,3.42-.43,4.93-.19,1.09-.35,2.03-.35,2.83,0,2.14,2.21,6.51,2.96,7.94l-3.65,1.89c-.12,.06-.21,.17-.25,.29-1.08,3.41-1.83,5.81-2.34,7.47-.36,1.16-.53,1.69-1.01,2.02-1.72,1.19-5.46-1.27-6.57-2.05-.15-.11-.35-.12-.52-.04-.17,.09-.27,.26-.27,.44v5.55c-1.52-.11-3.04-.25-4.56-.46Zm21.12-.85c-.24,.46-.83,.54-.86,.54h-.02c-2.99,.51-6.04,.82-9.06,.91-1.87,.06-3.74,.04-5.62-.07v-3.63c.55-.05,1.09-.07,1.64-.1,1.81,.93,3.89,1.54,5.29,.57,.23-.16,.41-.35,.56-.57,1.84,.12,3.68,.32,5.48,.65,.9,.17,1.8,.37,2.69,.59v.62c0,.18-.03,.34-.1,.49Z" stroke-width="0"/></g><g id="uuid-0119861c-dbb8-4fd3-acf2-63f8c1f37e88"></g></svg>