<?xml version="1.0" encoding="UTF-8"?><svg width="70" height="70" id="uuid-0bddbf02-7729-4fdd-bafd-4a5c632f0c80" xmlns="http://www.w3.org/2000/svg" viewBox="-10 -10 70 70"><rect x="-10" y="-10" width="70" height="70" fill="white"/><path d="M40.32,15.28c-1.2-1.41-2.71-1.87-3.51-2.02h-5.36c-.44,0-2.64,.04-4.16,1.85-.16,.19-.31,.4-.45,.64l-.12,.2c.55,.49,.9,1.19,.9,1.98,0,1.46-1.19,2.65-2.65,2.65s-2.65-1.19-2.65-2.65,1.19-2.65,2.65-2.65c.28,0,.55,.06,.8,.14-.1-.16-.2-.3-.31-.43-1.52-1.81-3.72-1.86-4.15-1.84h-5.46c-.7,.14-2.22,.6-3.42,2.01-1.41,1.66-1.46,3.54-1.42,4.27v10.75c0,.17,.05,.62,.4,.96,.4,.39,1.03,.5,1.54,.26,.46-.22,.77-.7,.79-1.23-.04-.35,.24-.63,.52-.62,.28,0,.53,.3,.48,.64v17.47c0,1.06,.86,1.92,1.92,1.92s1.92-.86,1.92-1.92c-.03-.38,.28-.67,.55-.64,.25,.02,.48,.3,.45,.64,.06,1.06,.92,1.9,1.97,1.95,1.07,.05,2.01-.76,2.14-1.84l.33,1.02c.15,.47,.59,.79,1.08,.79,.63,0,1.14-.51,1.14-1.14-.01-.35,.29-.6,.56-.57,.24,.03,.45,.27,.44,.57,.19,.72,.64,1.24,1.13,1.27,.52,.03,1.2-.47,1.2-.91h0l.38,.36c.36,.35,.83,.54,1.33,.54,1.06,0,1.92-.86,1.92-1.92-.04-.34,.23-.61,.52-.6,.27,0,.52,.28,.48,.6,.06,1.07,.98,1.9,2,1.85,.97-.04,1.78-.84,1.83-1.85V30.3c-.05-.34,.21-.62,.48-.63,.28,0,.56,.27,.52,.62,0,.13,.03,.42,.23,.73,.14,.21,.33,.39,.56,.5,.51,.24,1.14,.14,1.54-.26,.35-.34,.39-.79,.4-.97v-10.71c.04-.76-.01-2.64-1.42-4.3Z" fill="#ffcd00" stroke-width="0"/><path d="M39.33,12.88c-1.4-1.65-3.16-2.18-4.18-2.36h-5.44c-.52-.01-3.12,.05-4.93,2.2-.04,.05-.07,.09-.1,.14-.07-.09-.12-.18-.2-.27-1.81-2.15-4.39-2.2-4.93-2.2h-5.53c-.92,.18-2.68,.71-4.09,2.36-1.64,1.93-1.71,4.12-1.66,4.95v10.73c0,.3,.09,1.06,.69,1.66,.7,.69,1.77,.87,2.67,.45,.13-.06,.25-.13,.36-.21v15.56c0,1.61,1.31,2.92,2.92,2.92,1,0,1.89-.51,2.42-1.29,.52,.78,1.41,1.29,2.42,1.29,.76,0,1.44-.3,1.96-.77,.39,.47,.97,.77,1.63,.77s1.25-.3,1.64-.77c.39,.47,.98,.77,1.64,.77,.46,0,.89-.15,1.24-.4,.47,.33,1.05,.53,1.67,.53,1,0,1.89-.51,2.42-1.29,.52,.78,1.41,1.29,2.42,1.29,1.61,0,2.92-1.31,2.92-2.92v-15.56c.11,.08,.23,.15,.36,.21,.9,.42,1.97,.24,2.67-.45,.61-.6,.69-1.36,.69-1.67v-10.69c.05-.85-.02-3.04-1.66-4.98Zm.66,4.95v10.71c0,.18-.05,.63-.4,.97-.4,.39-1.03,.5-1.54,.26-.46-.22-.77-.7-.79-1.23v-11.41c0-.28-.22-.5-.5-.5s-.5,.22-.5,.5v28.9c0,1.06-.86,1.92-1.92,1.92s-1.92-.86-1.92-1.92v-15.96c0-.28-.22-.5-.5-.5s-.5,.22-.5,.5v15.96c0,1.06-.86,1.92-1.92,1.92-.37,0-.72-.11-1.01-.3,.15-.29,.25-.62,.25-.97v-10.25c.23,.11,.49,.17,.76,.17,.97,0,1.76-.79,1.76-1.76v-7.82c.02-.24,.14-2.42-1.59-3.74-.25-.19-.5-.33-.75-.45-.74-.34-1.45-.38-1.88-.37h-4.4c-.38,.04-1,.13-1.65,.44-.29,.14-.59,.32-.87,.56-1.65,1.4-1.48,3.57-1.46,3.77v7.62c0,.22,.07,.79,.52,1.24,.52,.52,1.32,.65,1.99,.33h.01v10.26c0,.14,.02,.27,.04,.41-.35,.44-.89,.73-1.5,.73-1.06,0-1.92-.86-1.92-1.92h0v-15.96c0-.28-.22-.5-.5-.5s-.5,.22-.5,.5v15.96h0c0,1.06-.86,1.92-1.92,1.92s-1.92-.86-1.92-1.92V28.42h0v-11.43c0-.28-.22-.5-.5-.5s-.5,.22-.5,.5v11.42c-.02,.53-.32,1.01-.79,1.23-.51,.24-1.14,.14-1.54-.26-.35-.34-.39-.79-.4-.96v-10.75c-.04-.73,.01-2.62,1.42-4.27,1.2-1.42,2.71-1.87,3.42-2.01h5.46c.43,0,2.62,.03,4.15,1.84,.3,.36,.53,.73,.7,1.1-1.75,.27-3.1,1.77-3.1,3.6,0,.12,.02,.24,.04,.36,.18,1.84,1.73,3.29,3.62,3.29s3.43-1.45,3.62-3.29c.01-.12,.04-.24,.04-.36,0-1.84-1.37-3.35-3.14-3.6-.07-.18-.15-.37-.24-.56,.09-.14,.19-.27,.3-.41,1.44-1.72,3.49-1.84,4.06-1.84,.04,0,.07,0,.09,0h5.36c.79,.14,2.3,.6,3.51,2.01,1.41,1.66,1.46,3.54,1.42,4.3Zm-14.52,28.84v-10.81c0-.28-.22-.5-.5-.5s-.5,.22-.5,.5v10.81c0,.63-.51,1.14-1.14,1.14s-1.14-.51-1.14-1.14V26.83c0-.28-.22-.5-.5-.5s-.5,.22-.5,.5v7.98c0,.3-.18,.57-.44,.69-.29,.14-.64,.08-.86-.14-.19-.19-.22-.45-.22-.54v-7.66c-.02-.19-.15-1.88,1.11-2.95,.7-.6,1.51-.73,1.9-.75h4.4c.43-.02,1.25,.03,1.99,.6,1.33,1.02,1.21,2.79,1.2,2.91v7.86c0,.41-.35,.76-.76,.76s-.76-.35-.76-.76v-8c0-.28-.22-.5-.5-.5s-.5,.22-.5,.5v19.83c0,.63-.51,1.14-1.14,1.14s-1.14-.51-1.14-1.14Zm-.5-26.09c-1.46,0-2.65-1.19-2.65-2.65s1.19-2.65,2.65-2.65,2.65,1.19,2.65,2.65-1.19,2.65-2.65,2.65Z" stroke-width="0"/><path d="M31.93,9.46c2.52,0,4.57-2.05,4.57-4.57S34.45,.31,31.93,.31s-4.57,2.05-4.57,4.57,2.05,4.57,4.57,4.57Zm0-8.15c1.97,0,3.57,1.6,3.57,3.57s-1.6,3.57-3.57,3.57-3.57-1.6-3.57-3.57,1.6-3.57,3.57-3.57Z" stroke-width="0"/><path d="M17.32,9.46c2.52,0,4.57-2.05,4.57-4.57S19.84,.31,17.32,.31s-4.57,2.05-4.57,4.57,2.05,4.57,4.57,4.57Zm0-8.15c1.97,0,3.57,1.6,3.57,3.57s-1.6,3.57-3.57,3.57-3.57-1.6-3.57-3.57,1.6-3.57,3.57-3.57Z" stroke-width="0"/></svg>