<?xml version="1.0" encoding="UTF-8"?><svg width="70" height="70" id="uuid-495b732d-99f3-4fc2-b6d3-c7ee17cba4d6" xmlns="http://www.w3.org/2000/svg" viewBox="-10 -10 70 70"><rect x="-10" y="-10" width="70" height="70" fill="white"/><path d="M39.07,13.93c-.89-4.98-7-8.74-14.22-8.74s-11.84,3.33-12.23,8.49c-.29,3.74,3.2,7.14,6.48,9.63,1.08-1.72,3-2.87,5.18-2.87,1.11,0,2.16,.3,3.06,.82,.32,.07,.63,.15,.97,.28,1.65-2.08,4.21-2.94,6.47-3.69,3.01-1.01,4.7-1.69,4.3-3.92Z" fill="#ffcd00" stroke-width="0"/><path d="M45.78,24.05c-3.57-2.29-9.07-.12-13.06,1.86v.02c.13,.34,.22,.69,.29,1.06,.03,.13,.04,.26,.06,.39,.02,.17,.04,.34,.05,.52,.01,.16,.04,.32,.04,.49,0,1.97-.81,3.84-2.24,5.19,1.09,2.43,.75,5.17,.44,7.6-.42,3.38-.56,5.33,1.65,6.05,4.8,1.58,11.01-2.02,14.44-8.38,3.34-6.19,2.68-12-1.67-14.8Z" fill="#ffcd00" stroke-width="0"/><path d="M25.16,35.45c-2.96-.3-5.39-2.44-6.11-5.42-2.67-.39-4.69-2.22-6.49-3.83-1.63-1.47-2.81-2.47-3.96-2.47-.51,0-1.02,.2-1.56,.64-3.9,3.22-4.17,10.39-.63,16.68,3.46,6.13,8.72,8.68,13.4,6.49,4.06-1.89,5.02-9.17,5.34-12.09Z" fill="#ffcd00" stroke-width="0"/><path d="M44.57,21.46c-3.98-2.55-9.79-.29-14,1.78-.68-1.29-1.76-2.35-3.07-3.02,1.48-1.71,3.78-2.49,5.82-3.18,2.85-.95,5.54-1.85,4.97-5.04-.97-5.45-7.51-9.56-15.21-9.56s-12.79,3.69-13.23,9.41c-.36,4.71,4.34,8.72,8.1,11.4-.52,.98-.81,2.09-.81,3.28,0,.23,.01,.47,.04,.69-2.25-.43-4.08-2.06-5.7-3.53-2.23-2.01-4.33-3.91-6.83-1.85C.38,25.37,.01,33.08,3.79,39.79c2.82,5.01,6.81,7.78,10.84,7.78,1.29,0,2.59-.29,3.86-.88,4.66-2.17,5.62-10.15,5.93-13.07,1.44-.03,2.78-.49,3.89-1.25,.9,2.14,.6,4.68,.32,6.93-.39,3.14-.77,6.11,2.33,7.13,.85,.28,1.75,.42,2.66,.42,4.7,0,9.91-3.59,12.97-9.27,3.6-6.69,2.81-13.01-2.01-16.11Zm-13.3,24.02c-2.2-.72-2.07-2.67-1.65-6.05,.3-2.43,.65-5.17-.44-7.6,1.43-1.35,2.24-3.22,2.24-5.19,0-.17-.03-.33-.04-.49,0-.17-.02-.35-.05-.52-.02-.13-.03-.26-.06-.39-.07-.36-.17-.72-.29-1.06v-.02c3.98-1.97,9.48-4.15,13.05-1.86,4.35,2.79,5.01,8.6,1.67,14.8-3.42,6.36-9.63,9.96-14.44,8.38Zm-26.61-6.17c-3.55-6.29-3.28-13.46,.63-16.68,.54-.44,1.05-.64,1.56-.64,1.15,0,2.33,1,3.96,2.47,1.79,1.62,3.82,3.45,6.49,3.83,.71,2.98,3.14,5.12,6.11,5.42-.32,2.92-1.28,10.2-5.34,12.09-4.69,2.19-9.95-.36-13.4-6.49ZM10.86,11.93c.4-5.16,5.2-8.49,12.23-8.49s13.33,3.76,14.22,8.74c.4,2.23-1.29,2.91-4.3,3.92-2.26,.76-4.81,1.61-6.47,3.69-.78-.29-1.47-.41-2.26-.41-2.31,0-4.49,1.14-5.82,3.01-3.54-2.54-7.93-6.28-7.61-10.46Zm19.53,14.6c0,3.36-2.75,6.1-6.12,6.1s-6.12-2.73-6.12-6.1,2.75-6.1,6.12-6.1,6.12,2.73,6.12,6.1Z" stroke-width="0"/></svg>