<?xml version="1.0" encoding="UTF-8"?><svg width="70" height="70" id="uuid-3316e7a3-bb7a-48ce-b79a-0603a35b8e7e" xmlns="http://www.w3.org/2000/svg" viewBox="-10 -10 70 70"><rect x="-10" y="-10" width="70" height="70" fill="white"/><path d="M42.97,26.25l-16.57,9.93v-6.43c0-.18-.1-.35-.25-.44-.16-.09-.35-.08-.51,.01l-11.45,6.86V16.32l11.45,6.86c.16,.09,.35,.1,.51,.01,.15-.09,.25-.26,.25-.44v-6.43l16.57,9.93Z" fill="#ffcd00" stroke-width="0"/><g><path d="M24.91,13.76c-.16-.09-.35-.09-.51,0-.15,.09-.25,.25-.25,.43v6.43l-11.45-6.86c-.15-.09-.35-.09-.5,0-.16,.09-.26,.25-.26,.43v21.62c0,.18,.1,.35,.26,.43,.15,.09,.35,.09,.5,0l11.45-6.86v6.43c0,.18,.1,.35,.25,.43,.08,.05,.16,.07,.25,.07s.18-.02,.26-.07l18.04-10.81c.15-.09,.24-.25,.24-.43s-.09-.34-.24-.43L24.91,13.76Zm.24,21.17v-6.43c0-.18-.1-.35-.25-.44-.16-.09-.35-.08-.51,.01l-11.45,6.86V15.07l11.45,6.86c.16,.09,.35,.1,.51,.01,.15-.09,.25-.26,.25-.44v-6.43l16.57,9.93-16.57,9.93Z" stroke-width="0"/><path d="M44.88,3.3H5.12c-1.93,0-3.5,1.57-3.5,3.5V43.2c0,1.92,1.57,3.5,3.5,3.5H44.88c1.93,0,3.5-1.58,3.5-3.5V6.8c0-1.93-1.57-3.5-3.5-3.5Zm2.5,39.9c0,1.37-1.12,2.5-2.5,2.5H5.12c-1.38,0-2.5-1.13-2.5-2.5V6.8c0-1.37,1.12-2.5,2.5-2.5H44.88c1.38,0,2.5,1.13,2.5,2.5V43.2Z" stroke-width="0"/></g></svg>