<?xml version="1.0" encoding="UTF-8"?><svg width="70" height="70" xmlns="http://www.w3.org/2000/svg" viewBox="-10 -10 70 70"><rect x="-10" y="-10" width="70" height="70" fill="white"/><g id="uuid-e4247385-4ad0-48f7-a840-4a4a67caf956"><path d="m45.39,19.88h-27.57c-.1-.38-.28-.72-.53-1-.46-.53-1.13-.88-1.88-.88h-4c-.76,0-1.43.35-1.88.88-.25.28-.43.62-.53,1h-3.09v26.02h3.09c.1.38.28.72.53,1,.45.53,1.12.88,1.88.88h4c.75,0,1.42-.35,1.88-.88.25-.28.43-.62.53-1h30.08v-26.02h-2.51Z" fill="#ffcd00" stroke-width="0"/><rect x="8.37" y="45.07" width="1.36" height="1.6" fill="#ffcd00"/></g><g id="uuid-588260e2-6834-42a1-bdf8-616e5cfbe88e"><path d="m47.76,18.24v27.02c0,.28-.23.5-.5.5h-29.91c-.59,1.11-1.74,1.88-3.08,1.88h-4c-1.34,0-2.49-.77-3.08-1.88h-2.92c-.28,0-.5-.22-.5-.5v-27.02c0-.28.22-.5.5-.5h2.92c.59-1.11,1.74-1.88,3.08-1.88h4c1.34,0,2.49.77,3.08,1.88h2.42V1.1c0-.28.22-.5.5-.5h18.98s.05,0,.07,0,.04.01.06.01c.08.03.16.06.23.13l5,5c.06.06.1.14.12.22,0,.02,0,.04,0,.06,0,.03.01.05.01.07v11.64h2.51c.27,0,.5.22.5.5Zm-1,26.52v-26.02h-29.05c.03.2.06.41.06.62v24.78c0,.21-.03.42-.06.62h29.05Zm-3.01-27.02V6.6h-4.5c-.27,0-.5-.22-.5-.5V1.6h-17.98v16.14h22.98Zm-4-12.14h3.3l-3.3-3.29v3.29Zm-22.98,38.54v-24.78c0-.21-.04-.42-.09-.62-.1-.38-.28-.72-.53-1-.46-.53-1.13-.88-1.88-.88h-4c-.76,0-1.43.35-1.88.88-.25.28-.43.62-.53,1-.05.2-.09.41-.09.62v24.78c0,.21.04.42.09.62.1.38.28.72.53,1,.45.53,1.12.88,1.88.88h4c.75,0,1.42-.35,1.88-.88.25-.28.43-.62.53-1,.05-.2.09-.41.09-.62ZM6.83,18.74h-2.06v26.02h2.06c-.03-.2-.06-.41-.06-.62v-24.78c0-.21.03-.42.06-.62Z" stroke-width="0"/><path d="m40.75,22.24v5c0,.28-.22.5-.5.5h-15.98c-.27,0-.5-.22-.5-.5v-5c0-.28.23-.5.5-.5h15.98c.28,0,.5.22.5.5Zm-1,4.5v-4h-14.98v4h14.98Z" stroke-width="0"/><path d="m39.75,26.74v-4h-14.98v4h14.98Z" fill="#fff" stroke-width="0"/><path d="m40.25,9.61c.28,0,.5.22.5.5s-.22.5-.5.5h-15.98c-.27,0-.5-.23-.5-.5s.23-.5.5-.5h15.98Z" stroke-width="0"/><path d="m40.25,13.61c.28,0,.5.22.5.5s-.22.5-.5.5h-15.98c-.27,0-.5-.22-.5-.5s.23-.5.5-.5h15.98Z" stroke-width="0"/><path d="m39.36,31.75c.49,0,.89.4.89.89s-.4.88-.89.88-.88-.39-.88-.88.39-.89.88-.89Z" stroke-width="0"/><path d="m39.36,35.3c.49,0,.89.4.89.89s-.4.88-.89.88-.88-.39-.88-.88.39-.89.88-.89Z" stroke-width="0"/><path d="m39.36,38.85c.49,0,.89.4.89.89s-.4.89-.89.89-.88-.4-.88-.89.39-.89.88-.89Z" stroke-width="0"/><path d="m35.81,31.75c.49,0,.89.4.89.89s-.4.88-.89.88-.88-.39-.88-.88.39-.89.88-.89Z" stroke-width="0"/><path d="m35.81,35.3c.49,0,.89.4.89.89s-.4.88-.89.88-.88-.39-.88-.88.39-.89.88-.89Z" stroke-width="0"/><path d="m35.81,38.85c.49,0,.89.4.89.89s-.4.89-.89.89-.88-.4-.88-.89.39-.89.88-.89Z" stroke-width="0"/><path d="m35.25,5.6c.27,0,.5.23.5.5s-.23.5-.5.5h-10.98c-.27,0-.5-.22-.5-.5s.23-.5.5-.5h10.98Z" stroke-width="0"/><path d="m32.26,31.75c.49,0,.89.4.89.89s-.4.88-.89.88-.88-.39-.88-.88.39-.89.88-.89Z" stroke-width="0"/><path d="m32.26,35.3c.49,0,.89.4.89.89s-.4.88-.89.88-.88-.39-.88-.88.39-.89.88-.89Z" stroke-width="0"/><path d="m32.26,38.85c.49,0,.89.4.89.89s-.4.89-.89.89-.88-.4-.88-.89.39-.89.88-.89Z" stroke-width="0"/><path d="m28.71,31.75c.49,0,.89.4.89.89s-.4.88-.89.88-.88-.39-.88-.88.39-.89.88-.89Z" stroke-width="0"/><path d="m28.71,35.3c.49,0,.89.4.89.89s-.4.88-.89.88-.88-.39-.88-.88.39-.89.88-.89Z" stroke-width="0"/><path d="m28.71,38.85c.49,0,.89.4.89.89s-.4.89-.89.89-.88-.4-.88-.89.39-.89.88-.89Z" stroke-width="0"/><path d="m25.16,31.75c.49,0,.89.4.89.89s-.4.88-.89.88-.89-.39-.89-.88.4-.89.89-.89Z" stroke-width="0"/><path d="m25.16,35.3c.49,0,.89.4.89.89s-.4.88-.89.88-.89-.39-.89-.88.4-.89.89-.89Z" stroke-width="0"/><circle cx="25.16" cy="39.74" r=".89"/></g></svg>