<?xml version="1.0" encoding="UTF-8"?><svg width="70" height="70" id="uuid-d7e76e25-f80e-4c60-80cb-ab3876fe4fa4" xmlns="http://www.w3.org/2000/svg" viewBox="-10 -10 70 70"><rect x="-10" y="-10" width="70" height="70" fill="white"/><path d="M35.01,14.62c-.11,.21-.35,.31-.57,.25-.23-.06-.38-.27-.37-.5l.11-2.72c-3.3,2.32-6.53,5.05-9.59,8.11-.17,.17-.34,.35-.51,.52l-3.39,7.4c-.1,.22-.35,.34-.58,.27-.24-.06-.39-.29-.37-.53l.29-3.04c-9.99,10.58-14.65,19.58-12.73,21.5,.97,.97,4.2,.48,10.36-3.66l-2.43-.7c-.23-.07-.38-.29-.36-.54,.03-.24,.22-.43,.47-.44l5.11-.31c3.48-2.61,7.21-5.87,10.77-9.44,.03-.03,.06-.06,.09-.09l-.94,.06c-.24,.02-.46-.15-.52-.39-.06-.24,.07-.48,.29-.57l3.56-1.51c1.58-1.6,3.09-3.26,4.49-4.95l-4.45,.27c-.24,.02-.46-.15-.52-.39s.07-.48,.29-.57l7.73-3.27c3.73-5.22,6.23-10.35,7.11-14.58-3.11,.64-6.74,2.17-10.55,4.45l-2.8,5.35Z" fill="#ffcd00" stroke-width="0"/><path d="M47.59,2.09c-.11-.11-.28-.17-.44-.14-3.42,.57-7.48,2.22-11.73,4.79-.08,.05-.14,.12-.19,.2l-1.83,3.5,.06-1.5c0-.19-.09-.37-.26-.46-.17-.09-.37-.08-.52,.02-3.64,2.48-7.2,5.44-10.56,8.8-.17,.17-.34,.35-.51,.52l-.07,.07s-.07,.09-.09,.14l-2.19,4.79,.14-1.52c.02-.21-.1-.41-.29-.5-.19-.09-.42-.05-.57,.11C9.71,30.06,2.28,40.83,4.53,44.45l-2.75,2.75c-.2,.2-.2,.51,0,.71,.1,.1,.23,.15,.35,.15s.26-.05,.35-.15l2.75-2.75c.45,.28,1,.41,1.62,.41,2.99,0,7.61-2.86,10.49-4.86,.16-.11,.24-.3,.21-.49-.03-.19-.17-.35-.35-.4l-.65-.19,2.35-.14c.1,0,.19-.04,.27-.1,3.55-2.65,7.36-5.98,11-9.62,.32-.32,.63-.63,.93-.95l.07-.07c.14-.15,.18-.37,.1-.56-.04-.08-.09-.14-.15-.19l1.31-.55c.06-.03,.11-.06,.16-.11,1.9-1.92,3.7-3.93,5.35-5.97,.12-.15,.15-.37,.06-.54s-.27-.28-.47-.27l-2.68,.16,5.18-2.19c.08-.04,.16-.09,.21-.17,4.08-5.67,6.74-11.29,7.49-15.82,.03-.16-.03-.32-.14-.44Zm-8.08,15.55l-7.73,3.27c-.22,.09-.35,.34-.29,.57s.27,.4,.52,.39l4.45-.27c-1.41,1.69-2.91,3.35-4.49,4.95l-3.56,1.51c-.22,.09-.35,.34-.29,.57s.28,.4,.52,.39l.94-.06s-.06,.06-.09,.09c-3.57,3.57-7.29,6.83-10.77,9.44l-5.11,.31c-.24,.01-.44,.2-.47,.44-.03,.24,.12,.47,.36,.54l2.43,.7c-5.44,3.66-8.59,4.47-9.92,3.94L31.88,18.52c.2-.2,.2-.51,0-.71s-.51-.2-.71,0L5.27,43.71c-1.05-2.59,3.63-11.13,13.01-21.07l-.29,3.04c-.02,.24,.13,.47,.37,.53,.24,.06,.48-.05,.58-.27l3.39-7.4h.01c.16-.18,.33-.35,.5-.52,3.06-3.06,6.28-5.79,9.59-8.11l-.11,2.72c0,.23,.14,.44,.37,.5,.22,.06,.46-.04,.57-.25l2.8-5.35c3.81-2.28,7.44-3.81,10.55-4.45-.87,4.22-3.37,9.36-7.11,14.58Z" stroke-width="0"/></svg>