<?xml version="1.0" encoding="UTF-8"?><svg width="70" height="70" id="uuid-f74ff683-b010-4ca7-8dc4-3631f1841488" xmlns="http://www.w3.org/2000/svg" viewBox="-10 -10 70 70"><rect x="-10" y="-10" width="70" height="70" fill="white"/><path d="M21.9,5.81c.1,.51-.16,1.08-.77,1.69-.2,.19-.2,.51,0,.71,.1,.1,.23,.15,.35,.15s.26-.05,.35-.15c.86-.86,1.22-1.73,1.04-2.59-.15-.76-.66-1.27-1.11-1.73-.41-.42-.77-.78-.79-1.24-.02-.44,.26-.91,.82-1.4,.21-.18,.23-.5,.05-.71-.18-.21-.5-.23-.71-.05-.81,.7-1.21,1.45-1.17,2.21,.04,.83,.59,1.39,1.07,1.89,.38,.39,.75,.76,.84,1.23Z" stroke-width="0"/><path d="M26.45,6.78c.1,.51-.16,1.08-.77,1.69-.2,.19-.2,.51,0,.71,.1,.1,.23,.15,.35,.15s.26-.05,.35-.15c.86-.86,1.22-1.73,1.04-2.59-.15-.76-.66-1.27-1.11-1.73-.41-.42-.77-.78-.79-1.24-.02-.44,.26-.91,.82-1.4,.21-.18,.23-.5,.05-.71-.18-.21-.5-.23-.71-.05-.81,.7-1.21,1.45-1.17,2.21,.04,.83,.59,1.39,1.07,1.89,.38,.39,.75,.76,.84,1.23Z" stroke-width="0"/><path d="M17.35,6.78c.1,.51-.16,1.08-.77,1.69-.2,.19-.2,.51,0,.71,.1,.1,.23,.15,.35,.15s.26-.05,.35-.15c.86-.86,1.21-1.73,1.04-2.59-.15-.76-.66-1.27-1.11-1.73-.41-.42-.77-.78-.79-1.24-.02-.44,.26-.91,.82-1.4,.21-.18,.23-.5,.05-.71-.18-.21-.5-.23-.71-.05-.81,.7-1.21,1.45-1.17,2.21,.04,.83,.59,1.39,1.07,1.89,.38,.39,.75,.76,.84,1.23Z" stroke-width="0"/><path d="M43.38,28.9l-.05-22.12c0-1.94-1.35-3.4-3.15-3.4s-3.21,1.46-3.21,3.4V28.68c-1.84,1.02-3.02,2.87-3.18,4.97,.34,.2,.67,.42,.98,.65,0-.06-.02-.11-.02-.16,0-2.02,1.13-3.82,2.94-4.7,.17-.08,.28-.26,.28-.45V6.78c0-1.37,.94-2.4,2.2-2.4s2.15,1.01,2.15,2.4v1.42h-.53c-.28,0-.5,.22-.5,.5s.22,.5,.5,.5h.54v1.46h-.51c-.28,0-.5,.22-.5,.5s.22,.5,.5,.5h.51v1.39h-.57c-.28,0-.5,.22-.5,.5s.22,.5,.5,.5h.58l.03,15.13c0,.18,.09,.34,.25,.43,1.6,.93,2.6,2.67,2.6,4.52,0,2.88-2.35,5.23-5.23,5.23-.55,0-1.07-.11-1.57-.27,.14,.37,.26,.76,.36,1.15,.39,.08,.8,.12,1.21,.12,3.44,0,6.23-2.79,6.23-6.23,0-2.11-1.08-4.09-2.85-5.23Z" stroke-width="0"/><circle cx="41.91" cy="35.98" r="2.24" fill="#ffcd00"/><path d="M40.16,37.46c1.79,0,3.24-1.45,3.24-3.24,0-1.63-1.21-2.96-2.77-3.19V10.83c0-.28-.22-.5-.5-.5s-.5,.22-.5,.5V31.04c-1.53,.26-2.71,1.58-2.71,3.19,0,1.79,1.45,3.24,3.24,3.24Zm0-5.48c1.23,0,2.24,1,2.24,2.24s-1,2.24-2.24,2.24-2.24-1-2.24-2.24,1-2.24,2.24-2.24Z" stroke-width="0"/><path d="M14.54,28.14c1.93,1.63,4.39,2.53,6.91,2.53s4.98-.9,6.91-2.53c2.42-2.04,3.8-5.03,3.8-8.18,0-5.91-4.81-10.71-10.71-10.71s-10.71,4.81-10.71,10.71c0,3.15,1.39,6.14,3.8,8.18Zm6.91-17.89c5.36,0,9.71,4.36,9.71,9.71,0,2.86-1.26,5.56-3.45,7.42-1.75,1.48-3.98,2.3-6.26,2.3s-4.51-.82-6.26-2.3c-2.19-1.85-3.45-4.56-3.45-7.42,0-5.36,4.36-9.71,9.71-9.71Z" stroke-width="0"/><path d="M33.56,49.64h6.32v-4.98c0-5.18-4.06-9.45-9.24-9.7H15.74c-5.16,.26-9.22,4.52-9.22,9.7v4.98h27.04Z" fill="#ffcd00" stroke-width="0"/><path d="M38.43,39.09c-.73-1.93-2.01-3.59-3.64-4.8-.32-.23-.64-.45-.98-.65-1.44-.84-3.1-1.35-4.88-1.44H13.96c-5.72,.28-10.19,4.99-10.19,10.7v5.48c0,.28,.22,.5,.5,.5H31.31c-.28,0-.5-.22-.5-.5v-.5H12.09v.08c0,.28-.22,.5-.5,.5s-.5-.22-.5-.5v-.08H4.77v-4.98c0-5.18,4.06-9.45,9.22-9.7h14.9c5.18,.26,9.24,4.52,9.24,9.7v4.98h-6.32v.5c0,.28-.22,.5-.5,.5h7.32c.28,0,.5-.22,.5-.5v-5.48c0-.92-.13-1.81-.35-2.66-.1-.39-.22-.77-.36-1.15Z" stroke-width="0"/><path d="M11.59,42.85c-.28,0-.5,.22-.5,.5v4.62c0,.28,.22,.5,.5,.5s.5-.22,.5-.5v-4.62c0-.28-.22-.5-.5-.5Z" stroke-width="0"/><path d="M31.81,48.39v-5.45c0-.28-.22-.5-.5-.5s-.5,.22-.5,.5v5.45c0,.28,.22,.5,.5,.5s.5-.22,.5-.5Z" stroke-width="0"/></svg>