<?xml version="1.0" encoding="UTF-8"?><svg width="70" height="70" xmlns="http://www.w3.org/2000/svg" viewBox="-10 -10 70 70"><rect x="-10" y="-10" width="70" height="70" fill="white"/><g id="uuid-ce759c5b-06af-4bff-9c6d-e27838ed9bd4"><path d="M43.33,2.33l5.46,4.39c.1.09.17.21.18.34.02.13-.02.26-.11.37l-.81,1.01c-.06.08-.16.13-.26.14-.11.02-.21-.02-.3-.08-.31-.26-.71-.37-1.11-.32-.23.02-.44.1-.63.22l-3.41-2.74c.08-.21.11-.43.09-.66-.04-.4-.24-.77-.55-1.02-.08-.07-.14-.16-.15-.27-.01-.1.02-.21.09-.29l.81-1.01c.17-.22.49-.25.7-.08Z" fill="#ffcd00" stroke-width="0"/><path d="M31.21,41.13c1.98,0,3.59,1.61,3.59,3.59s-1.61,3.58-3.59,3.58-3.59-1.61-3.59-3.58,1.61-3.59,3.59-3.59Z" fill="#ffcd00" stroke-width="0"/><path d="M30.45,28.04l-13.69,17.7c-1.34,1.66-3.25,2.7-5.37,2.93-2.13.23-4.22-.38-5.88-1.71-3.36-2.71-3.98-7.53-1.41-11,.65-.87,1.63-1.35,2.6-1.35.55,0,1.08.15,1.56.46.71.47,1.19,1.19,1.33,2.02s-.08,1.68-.59,2.34c-.61.78-.61,1.87-.01,2.58.39.46.95.72,1.56.71.6,0,1.16-.28,1.53-.74l14.36-17.17,4.01,3.23Z" fill="#ffcd00" stroke-width="0"/></g><g id="uuid-ed8760f8-e90d-4ea7-a578-23fe041cfb63"><path d="M26.9,44c0,1.97,1.61,3.58,3.59,3.58s3.59-1.61,3.59-3.58-1.61-3.59-3.59-3.59-3.59,1.61-3.59,3.59ZM25.9,44c0-2.53,2.06-4.59,4.59-4.59s4.59,2.06,4.59,4.59-2.06,4.58-4.59,4.58-4.59-2.05-4.59-4.58Z" stroke-width="0"/><path d="M42.16,11.25l2.19-2.83-2.74-2.2.55,5.03ZM36.77,10.89l-2.88,3.44.72,6.67,2.85-3.68-.69-6.43ZM29.86,26.14l-.67-6.19-2.83,3.38,3.5,2.81ZM41.27,12.38l-.66-6.09-2.95,3.54.69,6.34,2.93-3.79h-.01ZM41.1,2.7c-.07.08-.1.19-.09.29.01.11.07.2.15.27.31.25.51.62.55,1.02.02.23-.01.45-.09.66l3.41,2.74c.19-.12.4-.2.63-.22.4-.05.8.06,1.11.32.09.06.19.1.3.08.1-.01.2-.06.26-.14l.81-1.01c.09-.11.13-.24.11-.37-.01-.13-.08-.25-.18-.34l-5.46-4.39c-.21-.17-.53-.14-.7.08l-.81,1.01ZM30.08,18.88l.76,7,2.89-3.74-.73-6.74-2.92,3.48ZM29.73,27.32l-4.01-3.23-14.36,17.17c-.37.46-.93.74-1.53.74-.61.01-1.17-.25-1.56-.71-.6-.71-.6-1.8.01-2.58.51-.66.73-1.51.59-2.34s-.62-1.55-1.33-2.02c-.48-.31-1.01-.46-1.56-.46-.97,0-1.95.48-2.6,1.35-2.57,3.47-1.95,8.29,1.41,11,1.66,1.33,3.75,1.94,5.88,1.71,2.12-.23,4.03-1.27,5.37-2.93l13.69-17.7ZM10.58,40.63L40.6,4.75c.09-.11.13-.24.11-.37-.01-.14-.07-.26-.18-.34-.29-.24-.47-.57-.51-.94s.06-.74.3-1.03l.81-1.01c.52-.64,1.46-.74,2.11-.23l5.46,4.39c.64.52.74,1.47.22,2.11l-.81,1.01c-.23.29-.57.48-.94.52-.36.04-.73-.07-1.02-.3-.11-.09-.24-.12-.37-.11-.14.01-.26.08-.34.19l-28.62,37c-1.51,1.87-3.65,3.05-6.05,3.31-.33.03-.66.05-.99.05-2.04,0-4-.69-5.62-1.98-3.78-3.04-4.47-8.48-1.59-12.37,1.33-1.79,3.75-2.29,5.51-1.14.96.62,1.59,1.58,1.77,2.7.19,1.1-.1,2.24-.78,3.12-.32.4-.33.96-.04,1.31.2.24.47.36.77.36h.02c.3,0,.58-.14.76-.37Z" stroke-width="0"/></g></svg>