<?xml version="1.0" encoding="UTF-8"?><svg width="70" height="70" xmlns="http://www.w3.org/2000/svg" viewBox="-10 -10 70 70"><rect x="-10" y="-10" width="70" height="70" fill="white"/><g id="uuid-3eaed50d-66ff-43eb-8425-2637f88ae6f8"><g><path d="M49.36,16.31H21.97l-1.08,2.13c-.09,.17-.26,.27-.45,.27H5.98l-2.31,24.05H46.82l2.54-26.46Z" fill="#ffcd00" stroke-width="0"/><path d="M46.25,39.21l2.41-25.1c.01-.14-.03-.28-.13-.38-.09-.1-.23-.16-.37-.16h-1.91v-2.44c0-.28-.22-.5-.5-.5H17.85l-.87-2.32c-.07-.2-.26-.32-.47-.32H1.59c-.28,0-.5,.22-.5,.5v30.67l-.22,2.31c-.01,.14,.03,.28,.13,.38,.09,.1,.23,.16,.37,.16H45.52c.26,0,.47-.2,.5-.45l.15-1.52c.05-.08,.08-.16,.08-.26v-.58ZM16.17,8.98l.87,2.32c.07,.2,.26,.32,.47,.32h27.74v1.94H19.91c-.19,0-.36,.11-.45,.27l-1.08,2.13H3.77c-.26,0-.47,.2-.5,.45l-1.18,12.32V8.98h14.08ZM1.92,41.02l2.31-24.05h14.47c.19,0,.36-.11,.45-.27l1.08-2.13h27.39l-2.54,26.46H1.92Z" stroke-width="0"/></g></g><g id="uuid-0ca4a151-fe2c-4e00-bcd9-20b024ed1e6b"></g></svg>