<?xml version="1.0" encoding="UTF-8"?><svg width="70" height="70" xmlns="http://www.w3.org/2000/svg" viewBox="-10 -10 70 70"><rect x="-10" y="-10" width="70" height="70" fill="white"/><g id="uuid-d53b41df-23c8-45a1-b6d7-4a8d7a38764e"><g><path d="M20.05,13.75l-.93,2.48c-.07,.2-.26,.32-.47,.32H3.3v28.2H36.62c.7,1.18,1.95,1.99,3.37,1.99h.02c1.06,0,2.1-.49,2.86-1.32,.19-.21,.35-.43,.49-.67h5.85V13.75H20.05Z" fill="#ffcd00" stroke-width="0"/><path d="M48.2,6.06H18.55l-.93-2.48c-.07-.2-.26-.32-.47-.32H1.3c-.28,0-.5,.22-.5,.5V43.76c0,.28,.22,.5,.5,.5H34.59c.92,1.2,2.32,1.99,3.89,1.99h.03c1.34,0,2.65-.61,3.59-1.65,.1-.11,.19-.22,.28-.34h5.82c.28,0,.5-.22,.5-.5V6.56c0-.28-.22-.5-.5-.5Zm-4.77,34.61v-10.06c0-.28-.22-.5-.5-.5s-.5,.22-.5,.5v10.11c.11,1.16-.28,2.33-1.06,3.2-.75,.83-1.8,1.32-2.86,1.32h-.02c-2.12,0-3.9-1.79-3.97-3.99v-15.71c0-.72,.28-1.38,.81-1.88,.5-.47,1.17-.73,1.82-.69,1.32,.07,2.38,1.23,2.36,2.6v14.87c.01,.34-.11,.65-.35,.89-.22,.22-.54,.36-.81,.33-.59-.02-1.08-.57-1.07-1.19l.03-9.99c0-.28-.22-.5-.5-.5h0c-.28,0-.5,.22-.5,.5l-.03,9.98c-.02,1.17,.89,2.15,2.03,2.2,.6,.03,1.14-.21,1.56-.63,.43-.43,.67-1.03,.64-1.62v-14.84c.03-1.89-1.46-3.51-3.3-3.6-.92-.04-1.86,.3-2.56,.97-.71,.68-1.12,1.63-1.12,2.61v15.73c.02,.7,.19,1.37,.46,1.98H1.8V15.06h15.35c.21,0,.4-.13,.47-.32l.93-2.48h29.15v31h-4.72c.37-.81,.53-1.71,.44-2.58ZM18.2,7.06h29.5v4.19H18.2c-.21,0-.39,.13-.47,.32l-.93,2.48H1.8V4.25h15l.93,2.48c.07,.2,.26,.32,.47,.32Z" stroke-width="0"/></g></g><g id="uuid-537688d3-a382-40b6-b92a-2c27ae9cc71c"></g></svg>