<?xml version="1.0" encoding="UTF-8"?><svg width="70" height="70" id="uuid-25b43eee-1d69-4312-b0ea-1dfea28124dc" xmlns="http://www.w3.org/2000/svg" viewBox="-10 -10 70 70"><rect x="-10" y="-10" width="70" height="70" fill="white"/><path d="M33.47,11.81v-1h-.75V3.28H9.13V49.47H43.62V11.81h-10.14Zm-2.33,13.28l-3.92-3.92c-.14-.14-.36-.19-.54-.11-.19,.08-.31,.26-.31,.46v18.26h-3.15V21.52c0-.2-.12-.38-.31-.46-.19-.08-.4-.04-.54,.11l-4.25,4.25-2.22-2.24,8.02-8.02c.23-.23,.54-.36,.89-.35,.33,0,.64,.12,.87,.35l7.69,7.69-2.22,2.24Z" fill="#ffcd00" stroke-width="0"/><path d="M42.72,10.82L32.58,.67c-.09-.09-.22-.15-.35-.15H6.88c-.28,0-.5,.22-.5,.5V48.22c0,.28,.22,.5,.5,.5H42.37c.28,0,.5-.22,.5-.5V11.17c0-.13-.05-.26-.15-.35Zm-1.56,0h-8.44V2.38l8.44,8.44ZM7.38,1.53H31.72V11.31c0,.28,.22,.5,.5,.5h9.64V47.72H7.38V1.53Z" stroke-width="0"/><path d="M26.38,14.45c-.42-.42-.99-.65-1.58-.64-.6,0-1.17,.22-1.59,.64l-8.37,8.38c-.19,.19-.2,.51,0,.71l2.92,2.95c.09,.09,.22,.15,.35,.15,.12,.03,.26-.05,.35-.15l3.75-3.75v17.55c0,.28,.22,.5,.5,.5h4.15c.28,0,.5-.22,.5-.5V22.73l3.42,3.42c.09,.09,.22,.15,.35,.15h0c.13,0,.26-.05,.35-.15l2.92-2.95c.19-.2,.19-.51,0-.71l-8.04-8.04Zm4.76,10.64l-3.92-3.92c-.14-.14-.36-.19-.54-.11-.19,.08-.31,.26-.31,.46v18.26h-3.15V21.52c0-.2-.12-.38-.31-.46-.19-.08-.4-.04-.54,.11l-4.25,4.25-2.22-2.24,8.02-8.02c.23-.23,.54-.36,.89-.35,.33,0,.64,.12,.87,.35l7.69,7.69-2.22,2.24Z" stroke-width="0"/></svg>