<?xml version="1.0" encoding="UTF-8"?><svg width="70" height="70" xmlns="http://www.w3.org/2000/svg" viewBox="-10 -10 70 70"><rect x="-10" y="-10" width="70" height="70" fill="white"/><g id="uuid-760b20e2-3a92-4cf9-a50b-06c12112ab02"><path d="M3.66,18.38h14.62l1.08-2.13c.09-.17,.26-.27,.45-.27h25.33v-1.94H17.39c-.21,0-.4-.13-.47-.32l-.87-2.32H1.98V31.15l1.18-12.32c.02-.26,.24-.45,.5-.45Z" fill="none" stroke-width="0"/><path d="M20.11,16.97l-1.08,2.13c-.09,.17-.26,.27-.45,.27H4.11L1.8,43.43h1.92l2.14-22.3h14.47c.19,0,.36-.11,.45-.27l1.08-2.13h25.47l.17-1.75H20.11Z" fill="none" stroke-width="0"/><path d="M20.78,20.86c-.09,.17-.26,.27-.45,.27H5.86l-2.14,22.3H44.96l2.37-24.71H21.86l-1.08,2.13Zm4.33,5.87c1.68-1.68,4.15-1.75,5.74-.15,.74,.74,1.15,1.73,1.15,2.79s-.41,2.05-1.16,2.8l-5.97,6.21-5.93-5.93c-.86-.86-1.37-1.92-1.42-2.99-.06-1.08,.34-2.08,1.14-2.88s1.74-1.15,2.73-1.15c1.06,0,2.14,.44,3.01,1.31,.2,.2,.51,.2,.71,0Z" fill="#ffcd00" stroke-width="0"/><path d="M48.33,18.72l-2.2,22.89v.58c0,.1-.03,.18-.08,.26l-.15,1.52c-.02,.26-.24,.45-.5,.45H3.63l-.07,.75H46.71l2.54-26.46h-.91Z" fill="#ffcd00" stroke-width="0"/><path d="M1.8,43.43l2.31-24.05h14.47c.19,0,.36-.11,.45-.27l1.08-2.13h27.39l-.17,1.75h1l.21-2.2c.01-.14-.03-.28-.13-.38-.09-.1-.23-.16-.37-.16h-1.91v-2.44c0-.28-.22-.5-.5-.5H17.74l-.87-2.32c-.07-.2-.26-.32-.47-.32H1.48c-.28,0-.5,.22-.5,.5v30.67l-.22,2.31c-.01,.14,.03,.28,.13,.38,.09,.1,.23,.16,.37,.16H3.63l.1-1H1.8Zm.17-32.03h14.08l.87,2.32c.07,.2,.26,.32,.47,.32h27.74v1.94H19.8c-.19,0-.36,.11-.45,.27l-1.08,2.13H3.66c-.26,0-.47,.2-.5,.45l-1.18,12.32V11.4Z" stroke-width="0"/><path d="M45.91,43.98l.15-1.52c.05-.08,.08-.16,.08-.26v-.58l2.2-22.89h-1l-2.37,24.71H3.72l-.1,1H45.41c.26,0,.47-.2,.5-.45Z" stroke-width="0"/><path d="M31.55,25.87c-1.89-1.89-4.74-1.93-6.8-.17-2.07-1.76-4.92-1.71-6.8,.17-.99,.99-1.5,2.28-1.43,3.64,.07,1.31,.68,2.61,1.71,3.65l6.29,6.29c.09,.09,.22,.15,.35,.15h0c.13,0,.26-.06,.36-.15l6.31-6.57c.93-.93,1.44-2.17,1.44-3.5s-.51-2.57-1.44-3.5Zm-.71,6.3l-5.97,6.21-5.93-5.93c-.86-.86-1.37-1.92-1.42-2.99-.06-1.08,.34-2.08,1.14-2.88s1.74-1.15,2.73-1.15c1.06,0,2.14,.44,3.01,1.31,.2,.2,.51,.2,.71,0,1.68-1.68,4.15-1.75,5.74-.15,.74,.74,1.15,1.73,1.15,2.79s-.41,2.05-1.16,2.8Z" stroke-width="0"/></g><g id="uuid-c374651b-2117-4444-90c0-1e9b4bc44b40"></g></svg>