<svg width="70" height="70" xmlns="http://www.w3.org/2000/svg" viewBox="-10 -10 70 70"><rect x="-10" y="-10" width="70" height="70" fill="white"/><g id="b7b136b0-77b7-45bd-ba2f-f6902728b53c" data-name="ICONS"><path d="M21.81,15.82,20.72,18a.51.51,0,0,1-.45.28H5.65L3.32,42.56h43.6l2.56-26.74Zm8,12.2a4.93,4.93,0,0,0-.35.76A4.38,4.38,0,0,0,29.25,30c0,.59,0,1.21,0,1.8a14.86,14.86,0,0,1-.08,2.27c-.2,1.22-.74,2.27-1,2.3,0,0-.77-.06-2.24-4.58a1.49,1.49,0,0,0-1.43-1.17h0a1.47,1.47,0,0,0-1.43,1.1c-1.43,4.48-2.18,4.65-2.2,4.65-.29-.08-.83-1.34-1-2.7A29.69,29.69,0,0,1,19.57,30a4.28,4.28,0,0,0-.16-1.19,4,4,0,0,0-.48-1.09,7,7,0,0,1-.86-3.32,4.16,4.16,0,0,1,2.87-3.52,3.12,3.12,0,0,1,.89-.12,3.83,3.83,0,0,1,1.4.27,4.17,4.17,0,0,0,1.27.09,4.26,4.26,0,0,0,1.06-.22,3.8,3.8,0,0,1,2.3-.05,4.45,4.45,0,0,1,2.89,3.34A6.79,6.79,0,0,1,29.85,28Z" fill="#fdd600" stroke-width="0"/><path d="M48.65,13.24a.48.48,0,0,0-.37-.17H46.35V10.61a.5.5,0,0,0-.5-.5H17.66l-.87-2.35a.51.51,0,0,0-.47-.32H1.24a.5.5,0,0,0-.5.5v31L.52,41.26a.52.52,0,0,0,.13.39.51.51,0,0,0,.37.16h44.6a.51.51,0,0,0,.5-.45l.15-1.54a7.13,7.13,0,0,0,.08-.84l2.43-25.36A.48.48,0,0,0,48.65,13.24ZM1.74,8.44H16l.88,2.34a.5.5,0,0,0,.47.33h28v2H19.75a.5.5,0,0,0-.44.28l-1.1,2.16H3.45A.49.49,0,0,0,3,16L1.74,28.51ZM45.17,40.81H1.57L3.9,16.51H18.52a.51.51,0,0,0,.45-.28l1.09-2.16H47.73Z" fill="#231f20" stroke-width="0"/><path d="M17.07,24.35a7.81,7.81,0,0,0,1,3.92,4,4,0,0,1,.36.83,3.35,3.35,0,0,1,.12.93,30.46,30.46,0,0,0,.26,3.82c.09.57.6,3.4,1.92,3.54h.12c.72,0,1.67-.76,3.15-5.39a.45.45,0,0,1,.47-.37.51.51,0,0,1,.48.43c1.56,4.82,2.56,5.38,3.3,5.32,1.38-.13,1.85-3,1.87-3.15a14.9,14.9,0,0,0,.1-2.44c0-.57,0-1.16,0-1.72a3.5,3.5,0,0,1,.19-1,4.26,4.26,0,0,1,.28-.59,7.79,7.79,0,0,0,1-4.46,5.46,5.46,0,0,0-3.59-4.15,4.75,4.75,0,0,0-2.91.06,4,4,0,0,1-.82.18,3.22,3.22,0,0,1-.9-.06,4.54,4.54,0,0,0-2.85-.15A5.15,5.15,0,0,0,17.07,24.35Zm3.87-3.45a3.12,3.12,0,0,1,.89-.12,3.83,3.83,0,0,1,1.4.27,4.17,4.17,0,0,0,1.27.09,4.26,4.26,0,0,0,1.06-.22,3.8,3.8,0,0,1,2.3-.05,4.45,4.45,0,0,1,2.89,3.34,6.79,6.79,0,0,1-.9,3.81,4.93,4.93,0,0,0-.35.76A4.38,4.38,0,0,0,29.25,30c0,.59,0,1.21,0,1.8a14.86,14.86,0,0,1-.08,2.27c-.2,1.22-.74,2.27-1,2.3,0,0-.77-.06-2.24-4.58a1.49,1.49,0,0,0-1.43-1.17h0a1.47,1.47,0,0,0-1.43,1.1c-1.43,4.48-2.18,4.65-2.2,4.65-.29-.08-.83-1.34-1-2.7A29.69,29.69,0,0,1,19.57,30a4.28,4.28,0,0,0-.16-1.19,4,4,0,0,0-.48-1.09,7,7,0,0,1-.86-3.32A4.16,4.16,0,0,1,20.94,20.9Z" fill="#231f20" stroke-width="0"/></g><g id="b1eff0b0-de15-4425-abce-a3e9568907a3" data-name="LABELS"></g></svg>