<?xml version="1.0" encoding="UTF-8"?><svg width="70" height="70" xmlns="http://www.w3.org/2000/svg" viewBox="-10 -10 70 70"><rect x="-10" y="-10" width="70" height="70" fill="white"/><g id="uuid-7073acba-2a14-46f3-a085-4e7536161b69"><g><path d="M38.82,22.49c-1.27,0-2.3,1.03-2.3,2.3,0,.23-.18,.41-.41,.41h0c-.23,0-.41-.18-.41-.41v-2.29c0-1.27-1.03-2.31-2.3-2.31s-2.3,1.04-2.3,2.31c0,.23-.18,.41-.41,.41s-.41-.18-.41-.41v-2c.09-.95-.34-1.82-1.11-2.26-.9-.51-1.94-.23-2.57,.28-.64,.51-.82,1.24-.87,1.53-.04,.21-.23,.35-.44,.34-.21-.02-.38-.19-.38-.41l-.06-7.13c0-1.28-1.03-2.31-2.3-2.31-.93,0-1.73,.56-2.09,1.36h2.55v2.52h-2.76v18.14c0,.2-.15,.37-.35,.41-.19,.03-.39-.08-.45-.28-.06-.2-.16-.47-.3-.78-.16-.38-.66-1.53-1.66-2.6-.84-.9-1.92-1.61-3.11-2.06-.77-.37-1.66-.18-2.19,.44-.54,.62-.58,1.54-.11,2.21l10.5,15.84c.04,.07,.07,.15,.07,.23v3.43h14.82l-.03-5.11c0-.08,.02-.16,.06-.23,.86-1.44,1.59-2.97,2.15-4.55,.92-2.58,1.42-5.29,1.48-8.06v-6.68c0-1.27-1.03-2.31-2.3-2.31Z" fill="#ffcd00" stroke-width="0"/><path d="M26.91,11.4c0,.28,.22,.5,.5,.5h5.01c.28,0,.5-.22,.5-.5s-.22-.5-.5-.5h-5.01c-.28,0-.5,.22-.5,.5Z" stroke-width="0"/><path d="M25.46,7.72c.13,0,.26-.05,.35-.15l3.55-3.55c.2-.2,.2-.51,0-.71s-.51-.2-.71,0l-3.55,3.55c-.2,.2-.2,.51,0,.71,.1,.1,.23,.15,.35,.15Z" stroke-width="0"/><path d="M20.97,6.6c.28,0,.5-.22,.5-.5V1.08c0-.28-.22-.5-.5-.5s-.5,.22-.5,.5V6.1c0,.28,.22,.5,.5,.5Z" stroke-width="0"/><path d="M15.91,7.57c.1,.1,.23,.15,.35,.15s.26-.05,.35-.15c.2-.2,.2-.51,0-.71l-3.55-3.55c-.2-.2-.51-.2-.71,0s-.2,.51,0,.71l3.55,3.55Z" stroke-width="0"/><path d="M9.48,11.9h5.01c.28,0,.5-.22,.5-.5s-.22-.5-.5-.5h-5.01c-.28,0-.5,.22-.5,.5s.22,.5,.5,.5Z" stroke-width="0"/><path d="M37.24,19.59c-.87,0-1.67,.35-2.25,.91-.01-1.78-1.46-3.23-3.25-3.23-.88,0-1.68,.35-2.27,.92-.15-1.65-1.55-2.95-3.24-2.95-.87,0-1.67,.35-2.25,.91v-5.39c0-1.79-1.46-3.25-3.25-3.25h0c-.86,0-1.68,.34-2.29,.96-.62,.62-.96,1.43-.96,2.29V28.41c-.29-.49-.69-1.06-1.21-1.62-.95-1.01-2.16-1.81-3.46-2.29-1.12-.54-2.47-.25-3.27,.69-.81,.95-.89,2.33-.18,3.35l10.56,15.89v3.73c0,.28,.22,.5,.5,.5h15.86c.28,0,.5-.22,.5-.5l-.02-5.47c.87-1.47,1.61-3.03,2.18-4.64,.96-2.7,1.49-5.54,1.56-8.45v-6.76c0-1.79-1.46-3.25-3.25-3.25Zm2.25,10c-.06,2.79-.57,5.53-1.5,8.13-.57,1.59-1.3,3.13-2.17,4.58-.05,.08-.07,.17-.07,.26l.03,5.1h-14.86v-3.38c0-.1-.03-.19-.08-.28L10.19,27.98c-.45-.66-.41-1.54,.11-2.14,.51-.6,1.37-.78,2.12-.42,1.2,.45,2.28,1.16,3.12,2.06,1.01,1.07,1.49,2.19,1.67,2.6,.14,.31,.23,.59,.3,.78,.08,.23,.31,.38,.55,.34,.24-.04,.42-.25,.42-.49V15.41h4.5v11c0,.28,.22,.5,.5,.5s.5-.22,.5-.5v-7.91c0-1.24,1.01-2.25,2.25-2.25s2.25,1.01,2.25,2.25v8.05c0,.28,.22,.5,.5,.5s.5-.22,.5-.5v-6.02c0-1.24,1.01-2.25,2.25-2.25s2.25,1.01,2.25,2.25v6.02c0,.28,.22,.5,.5,.5s.5-.22,.5-.5v-3.71c0-1.24,1.01-2.25,2.25-2.25s2.25,1.01,2.25,2.25v6.75ZM20.74,8.52h0c1.24,0,2.25,1.01,2.25,2.25v.18h-4.5v-.18c0-.6,.24-1.16,.66-1.59,.43-.43,.99-.66,1.59-.66Zm2.26,3.4v2.52h-4.5v-2.52h4.5Z" stroke-width="0"/></g></g><g id="uuid-8f3d0f2a-b813-4db6-910e-f8b94715b1c6"></g></svg>