<?xml version="1.0" encoding="UTF-8"?><svg width="70" height="70" xmlns="http://www.w3.org/2000/svg" viewBox="-10 -10 70 70"><rect x="-10" y="-10" width="70" height="70" fill="white"/><g id="uuid-c5ebd650-63c1-478b-869a-1882802d1b19"><path d="M35.25,40.83c0-1.44-1.17-2.61-2.61-2.62-.26,0-.46-.21-.46-.47h0c0-.26,.21-.47,.47-.47h2.59c1.44,0,2.62-1.17,2.62-2.62s-1.17-2.62-2.62-2.62c-.26,0-.47-.21-.47-.47s.21-.47,.47-.47h2.27c1.08,.11,2.07-.39,2.56-1.26,.58-1.02,.26-2.2-.32-2.92-.58-.73-1.41-.94-1.74-.99-.24-.04-.4-.26-.39-.5,.02-.24,.22-.43,.46-.43l8.08-.07c1.45,0,2.62-1.17,2.62-2.62s-1.17-2.62-2.62-2.62H23.81c-.23,0-.42-.17-.46-.39-.04-.22,.1-.44,.31-.52,.22-.07,.53-.18,.89-.34,.43-.18,1.73-.75,2.95-1.89,1.02-.95,1.82-2.18,2.33-3.54,.41-.87,.2-1.88-.5-2.49-.71-.61-1.74-.66-2.51-.13L8.86,22.36c-.08,.05-.17,.08-.26,.08h-3.89v16.84l5.79-.03c.09,0,.19,.02,.26,.07,1.63,.98,3.37,1.8,5.16,2.44,2.92,1.04,6,1.61,9.14,1.68h7.57c1.44,0,2.62-1.17,2.62-2.62Z" fill="#ffcd00" stroke-width="0"/><path d="M43.98,39.02c0,1.3,1.05,2.35,2.35,2.35s2.35-1.05,2.35-2.35c0-.91-1.33-3.58-2.39-5.48-1.03,1.9-2.31,4.57-2.31,5.48Z" fill="#ffcd00" stroke-width="0"/><path d="M44.53,30.26c-.18,0-.34,.1-.43,.25-.29,.52-2.87,5.1-2.87,6.75,0,1.85,1.5,3.35,3.35,3.35s3.35-1.5,3.35-3.35c0-1.66-2.66-6.24-2.97-6.76-.09-.15-.26-.29-.43-.25Zm.05,9.35c-1.3,0-2.35-1.05-2.35-2.35,0-.91,1.28-3.58,2.31-5.48,1.06,1.9,2.39,4.57,2.39,5.48,0,1.3-1.05,2.35-2.35,2.35Z" stroke-width="0"/><path d="M44.37,24.16c1.97,0,3.58-1.6,3.58-3.57s-1.6-3.58-3.58-3.58H24.42c.59-.34,1.3-.81,1.98-1.46,1.12-1.05,2.01-2.4,2.55-3.85,.59-1.23,.27-2.7-.76-3.59-1.04-.89-2.56-.97-3.68-.19L6.75,19.73H2.55c-.28,0-.5,.22-.5,.5v17.73c0,.28,.22,.5,.5,.5l6.13-.03c1.65,.98,3.4,1.8,5.19,2.44,3.01,1.08,6.18,1.66,9.43,1.74h7.56c1.97,0,3.58-1.6,3.58-3.58,0-1.01-.42-1.92-1.1-2.57h.12c1.97,0,3.58-1.6,3.58-3.58,0-1.01-.42-1.93-1.1-2.58,1.88-.11,3.37-1.67,3.37-3.57,0-1.01-.42-1.92-1.1-2.58h6.17Zm-8.64,5.15h-9c-.28,0-.5,.22-.5,.5s.22,.5,.5,.5h6.73c1.42,0,2.58,1.16,2.58,2.58s-1.16,2.58-2.58,2.58h-6.73c-.28,0-.5,.22-.5,.5s.22,.5,.5,.5h4.14c1.42,0,2.57,1.16,2.57,2.57s-1.16,2.58-2.58,2.58h-7.55c-3.13-.07-6.19-.64-9.11-1.68-1.78-.64-3.51-1.45-5.14-2.43-.08-.05-.17-.07-.26-.07h0l-5.76,.03V20.73h3.84c.1,0,.19-.03,.28-.08L25.09,8.75c.75-.52,1.77-.47,2.46,.13,.69,.59,.9,1.58,.49,2.44-.51,1.35-1.31,2.57-2.32,3.51-1.21,1.14-2.5,1.69-2.93,1.88-.35,.15-.66,.26-.88,.33-.23,.08-.38,.31-.34,.55,.04,.24,.25,.42,.49,.42h22.3c1.42,0,2.58,1.16,2.58,2.58s-1.16,2.57-2.58,2.57H26.89c-.28,0-.5,.22-.5,.5s.22,.5,.5,.5h8.84c1.42,0,2.58,1.16,2.58,2.58s-1.16,2.58-2.58,2.58Z" stroke-width="0"/></g><g id="uuid-df7a75cd-2e28-4236-9008-5076640986f3"></g></svg>