<?xml version="1.0" encoding="UTF-8"?><svg width="70" height="70" xmlns="http://www.w3.org/2000/svg" viewBox="-10 -10 70 70"><rect x="-10" y="-10" width="70" height="70" fill="white"/><g id="uuid-322dd79e-cf73-4623-a53b-4096396bab4f"><g><path d="M49.34,26.38c0-12.66-10.3-22.97-22.97-22.97S3.41,13.71,3.41,26.38s10.3,22.97,22.97,22.97,22.97-10.3,22.97-22.97Z" fill="#ffcd00" stroke-width="0"/><path d="M24.63,.66C11.41,.66,.66,11.41,.66,24.63s10.75,23.97,23.97,23.97,23.97-10.75,23.97-23.97S37.84,.66,24.63,.66Zm0,46.93C11.96,47.59,1.66,37.29,1.66,24.63S11.96,1.66,24.63,1.66s22.97,10.3,22.97,22.97-10.3,22.97-22.97,22.97Z" stroke-width="0"/><path d="M18.48,7.51c4.16-1.32,8.76-1.15,12.8,.48,.06,.02,.12,.04,.19,.04,.2,0,.39-.12,.46-.31,.1-.26-.02-.55-.28-.65-4.26-1.72-9.1-1.9-13.48-.51-.26,.08-.41,.36-.33,.63,.08,.26,.37,.41,.63,.33Z" stroke-width="0"/><path d="M25.04,13.35c-6.1,0-11.77,3.15-15.19,8.42-.15,.23-.08,.54,.15,.69,.08,.05,.18,.08,.27,.08,.16,0,.32-.08,.42-.23,3.23-4.98,8.59-7.96,14.35-7.96s10.91,2.87,14.15,7.67c.15,.23,.47,.29,.69,.13,.23-.15,.29-.47,.13-.69-3.43-5.08-9.03-8.11-14.98-8.11Z" stroke-width="0"/><path d="M14.15,13.49c.1,0,.2-.03,.28-.09,3.03-2.1,6.58-3.21,10.28-3.21s7.11,1.07,10.1,3.09c.23,.15,.54,.09,.69-.13,.15-.23,.09-.54-.13-.69-3.15-2.13-6.84-3.26-10.66-3.26s-7.66,1.17-10.85,3.39c-.23,.16-.28,.47-.13,.7,.1,.14,.25,.22,.41,.22Z" stroke-width="0"/><path d="M29.23,42.28c-8.61-1.41-8.92-11.05-8.93-11.45,0-2.15,1.75-3.91,3.91-3.91s3.89,1.74,3.9,3.88c0,.02-.01,.04-.01,.06,0,2.71,2.2,4.91,4.91,4.91s4.79-2.15,4.91-4.88c.17-3.92-1.1-7.53-3.58-10.16-2.29-2.43-5.4-3.8-8.77-3.85-9.85-.16-14.77,7.8-15.14,15.27-.16,3.25,1.28,10.24,7.87,13.44,.07,.03,.15,.05,.22,.05,.19,0,.36-.1,.45-.28,.12-.25,.02-.55-.23-.67-6.12-2.98-7.46-9.48-7.31-12.49,.49-10.04,7.44-14.45,14.12-14.32,3.09,.05,5.96,1.31,8.06,3.54,2.29,2.43,3.47,5.78,3.31,9.43-.1,2.2-1.81,3.93-3.91,3.93s-3.89-1.74-3.9-3.89c0-.02,.01-.04,.01-.06,0-2.71-2.2-4.91-4.91-4.91s-4.91,2.2-4.91,4.92c0,.11,.34,10.88,9.77,12.43,.03,0,.05,0,.08,0,.24,0,.45-.17,.49-.42,.04-.27-.14-.53-.41-.57Z" stroke-width="0"/><path d="M16.35,30.29c.75-5.19,3.24-7.51,8.09-7.51,4.5,0,8.31,3.7,8.68,8.43,.02,.28,.26,.48,.54,.46,.28-.02,.48-.26,.46-.54-.4-5.24-4.65-9.35-9.67-9.35-5.37,0-8.25,2.66-9.08,8.37-.72,4.98,.99,8.89,5.54,12.68,.09,.08,.21,.12,.32,.12,.14,0,.29-.06,.38-.18,.18-.21,.15-.53-.06-.7-4.25-3.54-5.85-7.17-5.19-11.77Z" stroke-width="0"/><path d="M37.47,36.73c-1.35,1.49-3.14,2.3-5.03,2.3-3.94,0-7.15-3.57-7.15-7.96,0-.27,.01-.54,.04-.8,.02-.27-.18-.52-.45-.54-.27-.02-.52,.18-.54,.45-.03,.29-.04,.59-.04,.89,0,4.94,3.66,8.96,8.15,8.96,2.18,0,4.23-.93,5.77-2.63,.19-.2,.17-.52-.03-.71-.21-.19-.52-.17-.71,.03Z" stroke-width="0"/></g></g><g id="uuid-c12fff22-7e38-41d3-9f58-e468931bda11"></g></svg>