<?xml version="1.0" encoding="UTF-8"?><svg width="70" height="70" xmlns="http://www.w3.org/2000/svg" viewBox="-10 -10 70 70"><rect x="-10" y="-10" width="70" height="70" fill="white"/><g id="uuid-370c75db-717a-4c4c-9822-040c648697af"><g><path d="M17.08,16.73c-.87,0-1.58,.71-1.58,1.58s.71,1.58,1.58,1.58,1.58-.71,1.58-1.58-.71-1.58-1.58-1.58Z" fill="#ffcd00" stroke-width="0"/><path d="M37.06,36.85c-.33,0-.6,.27-.6,.6s.27,.6,.6,.6,.6-.27,.6-.6-.27-.6-.6-.6Z" fill="#ffcd00" stroke-width="0"/><path d="M16.58,15.23c-1.42,0-2.58,1.16-2.58,2.58s1.16,2.58,2.58,2.58,2.58-1.16,2.58-2.58-1.16-2.58-2.58-2.58Zm0,4.16c-.87,0-1.58-.71-1.58-1.58s.71-1.58,1.58-1.58,1.58,.71,1.58,1.58-.71,1.58-1.58,1.58Z" stroke-width="0"/><path d="M16.58,12.89c.28,0,.5-.22,.5-.5V2.05c0-.28-.22-.5-.5-.5s-.5,.22-.5,.5V12.39c0,.28,.22,.5,.5,.5Z" stroke-width="0"/><path d="M2.68,10.36l8.95,5.17c.08,.05,.16,.07,.25,.07,.17,0,.34-.09,.43-.25,.14-.24,.06-.54-.18-.68l-4.74-2.74h0l-4.21-2.43c-.24-.14-.55-.06-.68,.18-.14,.24-.06,.54,.18,.68Z" stroke-width="0"/><path d="M12.32,20.27c-.14-.24-.45-.32-.68-.18L2.68,25.26c-.24,.14-.32,.44-.18,.68,.09,.16,.26,.25,.43,.25,.08,0,.17-.02,.25-.07l8.95-5.17c.24-.14,.32-.44,.18-.68Z" stroke-width="0"/><path d="M16.58,22.73c-.28,0-.5,.22-.5,.5v10.34c0,.28,.22,.5,.5,.5s.5-.22,.5-.5v-10.34c0-.28-.22-.5-.5-.5Z" stroke-width="0"/><path d="M20.84,20.27c-.14,.24-.06,.54,.18,.68l8.95,5.17c.08,.05,.16,.07,.25,.07,.17,0,.34-.09,.43-.25,.14-.24,.06-.54-.18-.68l-8.95-5.17c-.24-.14-.54-.06-.68,.18Z" stroke-width="0"/><path d="M20.84,15.35c.09,.16,.26,.25,.43,.25,.08,0,.17-.02,.25-.07l8.95-5.17c.24-.14,.32-.44,.18-.68-.14-.24-.45-.32-.68-.18l-8.95,5.17c-.24,.14-.32,.44-.18,.68Z" stroke-width="0"/><path d="M13.43,22.25l-2.74,4.74c-.14,.24-.06,.54,.18,.68,.08,.05,.16,.07,.25,.07,.17,0,.34-.09,.43-.25l2.74-4.74c.14-.24,.06-.54-.18-.68-.24-.14-.54-.06-.68,.18Z" stroke-width="0"/><path d="M19.72,22.26c-.14-.24-.44-.32-.68-.18-.24,.14-.32,.44-.18,.68l2.73,4.74c.09,.16,.26,.25,.43,.25,.08,0,.17-.02,.25-.07,.24-.14,.32-.44,.18-.68l-2.73-4.74Z" stroke-width="0"/><path d="M22,18.31h5.47c.28,0,.5-.22,.5-.5s-.22-.5-.5-.5h-5.47c-.28,0-.5,.22-.5,.5s.22,.5,.5,.5Z" stroke-width="0"/><path d="M19.04,13.55c.08,.05,.16,.07,.25,.07,.17,0,.34-.09,.43-.25l2.74-4.74c.14-.24,.06-.54-.18-.68-.24-.14-.55-.06-.68,.18l-2.74,4.74c-.14,.24-.06,.54,.18,.68Z" stroke-width="0"/><path d="M13.44,13.36c.09,.16,.26,.25,.43,.25,.08,0,.17-.02,.25-.07,.24-.14,.32-.44,.18-.68l-2.73-4.74c-.14-.24-.44-.32-.68-.18-.24,.14-.32,.44-.18,.68l2.73,4.74Z" stroke-width="0"/><path d="M11.16,17.31H5.68c-.28,0-.5,.22-.5,.5s.22,.5,.5,.5h5.47c.28,0,.5-.22,.5-.5s-.22-.5-.5-.5Z" stroke-width="0"/><path d="M36.56,35.6c-.88,0-1.6,.72-1.6,1.6s.72,1.6,1.6,1.6,1.6-.72,1.6-1.6-.72-1.6-1.6-1.6Zm0,2.19c-.33,0-.6-.27-.6-.6s.27-.6,.6-.6,.6,.27,.6,.6-.27,.6-.6,.6Z" stroke-width="0"/><path d="M36.56,34.77c.28,0,.5-.22,.5-.5v-3.83c0-.28-.22-.5-.5-.5s-.5,.22-.5,.5v3.83c0,.28,.22,.5,.5,.5Z" stroke-width="0"/><path d="M36.56,28.61c.28,0,.5-.22,.5-.5v-1.17c0-.28-.22-.5-.5-.5s-.5,.22-.5,.5v1.17c0,.28,.22,.5,.5,.5Z" stroke-width="0"/><path d="M33.79,35.74c.1,.1,.23,.15,.35,.15s.26-.05,.35-.15c.2-.2,.2-.51,0-.71l-2.71-2.71c-.2-.2-.51-.2-.71,0s-.2,.51,0,.71l2.71,2.71Z" stroke-width="0"/><path d="M29.78,31.52c.13,0,.26-.05,.35-.15,.2-.2,.2-.51,0-.71l-.83-.83c-.2-.2-.51-.2-.71,0s-.2,.51,0,.71l.83,.83c.1,.1,.23,.15,.35,.15Z" stroke-width="0"/><path d="M29.06,37.45c0,.28,.22,.5,.5,.5h3.83c.28,0,.5-.22,.5-.5s-.22-.5-.5-.5h-3.83c-.28,0-.5,.22-.5,.5Z" stroke-width="0"/><path d="M27.23,36.95h-1.17c-.28,0-.5,.22-.5,.5s.22,.5,.5,.5h1.17c.28,0,.5-.22,.5-.5s-.22-.5-.5-.5Z" stroke-width="0"/><path d="M34.15,39.52l-2.71,2.71c-.2,.2-.2,.51,0,.71,.1,.1,.23,.15,.35,.15s.26-.05,.35-.15l2.71-2.71c.2-.2,.2-.51,0-.71s-.51-.2-.71,0Z" stroke-width="0"/><path d="M29.79,43.88l-.83,.83c-.2,.2-.2,.51,0,.71,.1,.1,.23,.15,.35,.15s.26-.05,.35-.15l.83-.83c.2-.2,.2-.51,0-.71s-.51-.2-.71,0Z" stroke-width="0"/><path d="M36.56,40.12c-.28,0-.5,.22-.5,.5v3.83c0,.28,.22,.5,.5,.5s.5-.22,.5-.5v-3.83c0-.28-.22-.5-.5-.5Z" stroke-width="0"/><path d="M36.56,46.28c-.28,0-.5,.22-.5,.5v1.17c0,.28,.22,.5,.5,.5s.5-.22,.5-.5v-1.17c0-.28-.22-.5-.5-.5Z" stroke-width="0"/><path d="M39.34,39.16c-.2-.2-.51-.2-.71,0s-.2,.51,0,.71l2.71,2.71c.1,.1,.23,.15,.35,.15s.26-.05,.35-.15c.2-.2,.2-.51,0-.71l-2.71-2.71Z" stroke-width="0"/><path d="M43.7,43.52c-.2-.2-.51-.2-.71,0s-.2,.51,0,.71l.83,.83c.1,.1,.23,.15,.35,.15s.26-.05,.35-.15c.2-.2,.2-.51,0-.71l-.83-.83Z" stroke-width="0"/><path d="M39.24,37.45c0,.28,.22,.5,.5,.5h3.83c.28,0,.5-.22,.5-.5s-.22-.5-.5-.5h-3.83c-.28,0-.5,.22-.5,.5Z" stroke-width="0"/><path d="M47.07,36.95h-1.17c-.28,0-.5,.22-.5,.5s.22,.5,.5,.5h1.17c.28,0,.5-.22,.5-.5s-.22-.5-.5-.5Z" stroke-width="0"/><path d="M38.98,35.38l2.71-2.71c.2-.2,.2-.51,0-.71s-.51-.2-.71,0l-2.71,2.71c-.2,.2-.2,.51,0,.71,.1,.1,.23,.15,.35,.15s.26-.05,.35-.15Z" stroke-width="0"/><path d="M43.34,31.02l.83-.83c.2-.2,.2-.51,0-.71s-.51-.2-.71,0l-.83,.83c-.2,.2-.2,.51,0,.71,.1,.1,.23,.15,.35,.15s.26-.05,.35-.15Z" stroke-width="0"/></g></g><g id="uuid-f1d96ec1-6316-4637-ac0d-3cc68119595a"></g></svg>