<?xml version="1.0" encoding="utf-8"?> <!-- Generator: Adobe Illustrator 27.7.0, SVG Export Plug-In . SVG Version: 6.00 Build 0) --> <svg width="70" height="70" version="1.1" xmlns="http://www.w3.org/2000/svg" xmlns:xlink="http://www.w3.org/1999/xlink" x="0px" y="0px" viewBox="-10 -10 70 70" style="enable-background:new 0 0 50 50;" xml:space="preserve"><rect x="-10" y="-10" width="70" height="70" fill="white"/> <style type="text/css"> .st0{fill:#FFCD00;} .st1{display:none;} .st2{display:inline;fill:none;stroke:#EA008A;stroke-width:0.2;stroke-miterlimit:10;} .st3{font-family:'Roboto-Regular';} .st4{font-size:6px;} </style> <g id="Color"> <polygon class="st0" points="41.6009,11.0078 39.8193,11.0078 39.637,13.3141 41.7832,13.3141 "/> <g> <path class="st0" d="M49.5479,22.1602h-1.0292l-0.1651-0.5h-3.375l-2.0283-6.1143h3.2166 c-0.288-0.1643-0.6099-0.2725-0.9539-0.2725H34.1084c-1.0752,0-1.9502,0.875-1.9502,1.9502v5.9365c0,0.2764-0.2236,0.5-0.5,0.5 H26.499h-1H3.4521v9.5996c0,1.3452,1.0947,2.4399,2.4395,2.4399h1.4853c0.2577-3.5121,3.1904-6.2925,6.7676-6.2925 s6.5099,2.7803,6.7676,6.2925h4.5869h1h5.5888c0.2577-3.5121,3.1904-6.2925,6.7676-6.2925s6.5099,2.7803,6.7676,6.2925h1.4853 c1.3447,0,2.4395-1.0947,2.4395-2.4399 M33.834,21.6602V15.666h5.8242l1.9902,5.9941H33.834z" stroke-width="0"/> </g> </g> <g id="ICONS_00000031165542127692736420000002692518830807990202_"> <g> <path d="M12.6445,31.4907c-1.7695,0-3.209,1.4395-3.209,3.209s1.4395,3.209,3.209,3.209s3.209-1.4395,3.209-3.209 S14.4141,31.4907,12.6445,31.4907z M12.6445,36.9087c-1.2178,0-2.209-0.9907-2.209-2.209s0.9912-2.209,2.209-2.209 s2.209,0.9907,2.209,2.209S13.8623,36.9087,12.6445,36.9087z" stroke-width="0"/> <path d="M49.0166,21.4849l-2.541-6.7944c-0.4287-1.1465-1.5391-1.917-2.7627-1.917h-1.4641l-0.3005-3.8052 c-0.0205-0.2598-0.2373-0.4604-0.498-0.4604h-3.5928c-0.2607,0-0.4775,0.2007-0.498,0.4604l-0.3005,3.8052h-4.4504 c-1.627,0-2.9502,1.3232-2.9502,2.9502v5.4365H23.334V18.877h3.7744c0.2764,0,0.5-0.2236,0.5-0.5s-0.2236-0.5-0.5-0.5h-1.8242 V12.02h1.8242c0.2764,0,0.5-0.2236,0.5-0.5s-0.2236-0.5-0.5-0.5H2.0771c-0.2764,0-0.5,0.2236-0.5,0.5s0.2236,0.5,0.5,0.5h1.8242 v5.8569H2.0771c-0.2764,0-0.5,0.2236-0.5,0.5s0.2236,0.5,0.5,0.5h3.7744v2.2832H1.4521c-0.2764,0-0.5,0.2236-0.5,0.5v10.0996 c0,1.897,1.543,3.4399,3.4395,3.4399h1.4853c0.2577,3.5121,3.1904,6.2925,6.7676,6.2925s6.5099-2.7803,6.7676-6.2925h11.1757 c0.2577,3.5121,3.1904,6.2925,6.7676,6.2925s6.5099-2.7803,6.7676-6.2925h1.4853c1.8965,0,3.4395-1.543,3.4395-3.4399V21.6602 C49.0479,21.6006,49.0371,21.541,49.0166,21.4849z M47.827,21.1602h-2.4872l-1.6973-5.1143h2.2715L47.827,21.1602z M38.3193,9.5078h2.6689l0.2581,3.2656h-3.1852L38.3193,9.5078z M24.2842,17.877h-4.0957V12.02h4.0957V17.877z M15.0928,17.877 V12.02h4.0957v5.8569H15.0928z M9.9971,17.877V12.02h4.0957v5.8569H9.9971z M4.9014,12.02h4.0957v5.8569H4.9014V12.02z M6.8516,18.877H22.334v2.2832H6.8516V18.877z M1.9521,31.7598v-9.5996H23.999v12.0396h-4.5869 c-0.2577-3.5121-3.1904-6.2925-6.7676-6.2925s-6.5099,2.7803-6.7676,6.2925H4.3916C3.0469,34.1997,1.9521,33.105,1.9521,31.7598z M12.6445,40.4922c-3.1943,0-5.793-2.5986-5.793-5.7925s2.5986-5.7925,5.793-5.7925s5.793,2.5986,5.793,5.7925 S15.8389,40.4922,12.6445,40.4922z M37.3555,40.4922c-3.1943,0-5.793-2.5986-5.793-5.7925s2.5986-5.7925,5.793-5.7925 s5.793,2.5986,5.793,5.7925S40.5498,40.4922,37.3555,40.4922z M45.6084,34.1997h-1.4853 c-0.2577-3.5121-3.1904-6.2925-6.7676-6.2925s-6.5099,2.7803-6.7676,6.2925H24.999V22.1602h5.1592c0.2764,0,0.5-0.2236,0.5-0.5 v-5.9365c0-1.0752,0.875-1.9502,1.9502-1.9502h11.1045c0.8086,0,1.543,0.5093,1.8252,1.2671l0.002,0.0054h-2.5909 c-0.1602,0-0.3115,0.0771-0.4053,0.2075s-0.1201,0.2979-0.0693,0.4502l2.0303,6.1143c0.0684,0.2041,0.2588,0.3423,0.4746,0.3423 h3.0684v9.5996C48.0479,33.105,46.9531,34.1997,45.6084,34.1997z" stroke-width="0"/> <path d="M40.1328,15.5083c-0.0684-0.2041-0.2588-0.3423-0.4746-0.3423H33.834c-0.2764,0-0.5,0.2236-0.5,0.5v5.9941 c0,0.2764,0.2236,0.5,0.5,0.5h7.8145c0.1602,0,0.3115-0.0771,0.4053-0.2075s0.1201-0.2974,0.0693-0.4502L40.1328,15.5083z M34.334,21.1602V16.166h4.9639l1.6582,4.9941H34.334z" stroke-width="0"/> <path d="M37.3555,31.4907c-1.7695,0-3.209,1.4395-3.209,3.209s1.4395,3.209,3.209,3.209s3.209-1.4395,3.209-3.209 S39.125,31.4907,37.3555,31.4907z M37.3555,36.9087c-1.2178,0-2.209-0.9907-2.209-2.209s0.9912-2.209,2.209-2.209 s2.209,0.9907,2.209,2.209S38.5732,36.9087,37.3555,36.9087z" stroke-width="0"/> </g> </g> <g id="Margin" class="st1"> <rect x="1" y="1" class="st2" /> </g> <g id="Guides" class="st1"> </g> <g id="LABELS"> <g> <g> <g> <g> <g> </g> </g> </g> </g> </g> </g> </svg> 