<?xml version="1.0" encoding="UTF-8"?><svg width="70" height="70" xmlns="http://www.w3.org/2000/svg" viewBox="-10 -10 70 70"><rect x="-10" y="-10" width="70" height="70" fill="white"/><g id="uuid-dbc28ec7-905e-43f4-ac7a-7fcd4590d569"><g><polygon points="26.62 3.95 17.84 15.81 20.7 15.81 20.7 20.05 28.94 15.06 30.79 15.06 30.79 19.43 20.7 25.55 20.7 33.38 30.79 27.27 30.79 32.76 20.81 38.81 20.7 38.81 20.7 40.56 32.54 40.56 32.54 15.81 35.4 15.81 26.62 3.95" fill="#ffcd00"/><path d="M35.04,14.27L25.27,1.06c-.19-.25-.62-.25-.8,0L14.7,14.27c-.11,.15-.13,.35-.04,.52s.26,.27,.45,.27h2.85v24.24c0,.28,.22,.5,.5,.5h5.92v3.97c0,1.04-.85,1.89-1.89,1.89h-1.29c-.28,0-.5,.22-.5,.5s.22,.5,.5,.5h1.29c1.59,0,2.89-1.3,2.89-2.89v-3.97h5.92c.28,0,.5-.22,.5-.5V15.06h2.85c.19,0,.36-.11,.45-.27s.07-.37-.04-.52Zm-18.95-.2L24.87,2.2l8.78,11.87H16.09Zm10.91,1l-8.06,4.88v-4.88h8.06Zm3.79,11.03l-11.84,7.17v-5.52s.06,0,.09-.02l11.75-7.12v5.49Zm-11.84,8.34l11.84-7.17v5.49l-9.99,6.05h-1.86v-4.37Zm3.79,4.37l8.06-4.88v4.88h-8.06Zm8.06-19.37l-11.84,7.17v-5.49l9.99-6.05h1.86v4.37Z" stroke-width="0"/><path d="M19.19,46.17c0-.28-.22-.5-.5-.5h-1.53c-.28,0-.5,.22-.5,.5s.22,.5,.5,.5h1.53c.28,0,.5-.22,.5-.5Z" stroke-width="0"/><path d="M18.61,43.35c-.2-.2-.51-.2-.71,0s-.2,.51,0,.71l1.08,1.08c.1,.1,.23,.15,.35,.15s.26-.05,.35-.15c.2-.2,.2-.51,0-.71l-1.08-1.08Z" stroke-width="0"/><path d="M18.99,47.19l-1.08,1.08c-.2,.2-.2,.51,0,.71,.1,.1,.23,.15,.35,.15s.26-.05,.35-.15l1.08-1.08c.2-.2,.2-.51,0-.71s-.51-.2-.71,0Z" stroke-width="0"/></g></g><g id="uuid-30fee94d-6999-4806-a3d0-a1935f633eef"></g></svg>