<?xml version="1.0" encoding="UTF-8"?><svg width="70" height="70" xmlns="http://www.w3.org/2000/svg" viewBox="-10 -10 70 70"><rect x="-10" y="-10" width="70" height="70" fill="white"/><g id="uuid-03c39b72-2286-47a0-850a-f2742072eca2"><path d="M24.95,25.08s.08-.1,.1-.16c-.02,.06-.06,.11-.1,.16Z" stroke-width="0"/><g><polygon points="4.09 9.79 4.08 14.56 5.9 14.56 6.4 14.57 6.32 42.85 11.35 42.86 11.35 41.11 10.6 41.11 10.66 20.56 38.54 20.64 38.54 21.39 39.51 21.39 39.51 42.95 41.93 42.95 41.93 42.95 46.25 42.96 46.33 14.68 46.83 14.68 48.66 14.69 48.67 9.92 4.09 9.79" fill="#ffcd00"/><path d="M31.52,40.83c1.4-1.96,.16-5.13,.12-5.24-.08-.18-.13-.31-.16-.41-.13-.32-.44-1.06-.62-2.01-.12-.64-.23-1.67-.09-2.91,.05-.43,.13-.85,.23-1.27-.4,.24-.76,.52-1.08,.85-1.02,1.01-1.4,2.16-1.54,2.94-.04,.21-.21,.37-.42,.41-.21,.03-.42-.07-.52-.26-.72-1.38-1.12-2.84-1.19-4.35-.02-.36-.02-.72,0-1.09-.29,.35-.55,.72-.78,1.11-1.33,2.24-1.35,4.51-1.13,6.02,.04,.26-.14,.51-.4,.56-.26,.06-.52-.11-.58-.37-.23-.88-.75-2.14-1.98-3.18-.21-.18-.43-.34-.66-.49,.2,.86,.29,1.7,.26,2.53-.04,.99-.25,2.14-.38,2.83-.04,.22-.07,.39-.08,.48,0,.05,0,.1-.01,.15-.31,1.42,0,2.86,.85,3.85,1.38,1.63,3.76,1.62,5.04,1.6,1.16-.01,3.87-.04,5.1-1.75Z" fill="#ffcd00" stroke-width="0"/><path d="M47.43,7.17L1.84,7.04c-.28,0-.5,.22-.5,.5l-.02,5.77c0,.28,.22,.5,.5,.5h1.83l-.08,27.78c0,.28,.22,.5,.5,.5l6.02,.02,28.88,.08,6.02,.02c.28,0,.5-.22,.5-.5l.08-27.78h1.83c.28,0,.5-.22,.5-.49l.02-5.77c0-.28-.22-.5-.5-.5ZM19.63,39.23c-.85-1-1.16-2.44-.85-3.85,.01-.05,.01-.1,.01-.15,.01-.09,.04-.26,.08-.48,.13-.69,.34-1.84,.38-2.83,.03-.83-.05-1.67-.26-2.53,.23,.15,.45,.31,.66,.49,1.23,1.03,1.75,2.3,1.98,3.18,.07,.26,.32,.42,.58,.37,.26-.05,.43-.3,.4-.56-.22-1.51-.2-3.78,1.13-6.02,.23-.39,.49-.76,.78-1.11-.02,.36-.02,.73,0,1.09,.07,1.5,.47,2.97,1.19,4.35,.1,.19,.31,.3,.52,.26,.21-.03,.38-.2,.42-.41,.14-.78,.52-1.93,1.54-2.94,.33-.32,.69-.61,1.08-.85-.11,.42-.18,.85-.23,1.27-.15,1.24-.03,2.27,.09,2.91,.18,.94,.48,1.69,.62,2.01,.03,.11,.08,.24,.16,.41,.04,.11,1.28,3.28-.12,5.24-1.23,1.72-3.94,1.74-5.1,1.75-1.28,.02-3.66,.03-5.04-1.6Zm18.85,1.96l-9.83-.03c.74-.32,1.43-.78,1.94-1.5,1.74-2.43,.29-6.05,.23-6.21h0s-.09-.23-.12-.3c.03,.1,.02,.21-.02,.32,.05-.13,.02-.35-.03-.47-.1-.22-.38-.91-.55-1.78-.11-.57-.21-1.49-.08-2.61,.09-.73,.27-1.46,.53-2.16,.07-.18,.03-.39-.11-.53-.14-.14-.35-.18-.53-.11-.93,.35-1.75,.88-2.44,1.56-.69,.69-1.13,1.43-1.42,2.11-.32-.88-.5-1.79-.54-2.71-.04-.79,.03-1.59,.19-2.38,.05-.21-.05-.43-.24-.54-.19-.11-.42-.09-.58,.06-.8,.71-1.47,1.52-2,2.41-.85,1.43-1.22,2.88-1.33,4.16-.33-.47-.74-.94-1.25-1.37-.57-.48-1.22-.87-1.93-1.17-.18-.07-.39-.04-.54,.1-.14,.14-.19,.35-.13,.53,.4,1.13,.59,2.24,.55,3.31-.04,.91-.24,2.02-.36,2.68-.06,.35-.1,.55-.1,.68-.35,1.69,.05,3.42,1.08,4.64,.49,.58,1.08,.97,1.69,1.26l-9.97-.03,.06-20.55,27.88,.08-.06,20.55Zm6.02,.02h-5.02l.06-21.07c0-.28-.22-.5-.5-.5l-28.88-.08c-.28,0-.5,.22-.5,.5l-.06,21.05H4.57l.08-27.29,39.93,.11-.08,27.28Zm2.41-28.27h-1.83l-40.93-.12h-1.83v-4.77l44.59,.13v4.77Z" stroke-width="0"/><path d="M30.6,33.62s.08-.1,.1-.16c-.02,.06-.06,.11-.1,.16Z" stroke-width="0"/></g></g><g id="uuid-7fc3cf8c-99c5-4382-bef3-6c7a6a5512b8"></g></svg>