<?xml version="1.0" encoding="utf-8"?> <!-- Generator: Adobe Illustrator 27.7.0, SVG Export Plug-In . SVG Version: 6.00 Build 0) --> <svg width="70" height="70" version="1.1" xmlns="http://www.w3.org/2000/svg" xmlns:xlink="http://www.w3.org/1999/xlink" x="0px" y="0px" viewBox="-10 -10 70 70" style="enable-background:new 0 0 50 50;" xml:space="preserve"><rect x="-10" y="-10" width="70" height="70" fill="white"/> <style type="text/css"> .st0{fill:#FFCD00;} .st1{display:none;} .st2{display:inline;fill:none;stroke:#EA008A;stroke-width:0.2;stroke-miterlimit:10;} .st3{font-family:'Roboto-Regular';} .st4{font-size:6px;} </style> <g id="Color"> <rect x="15.3589" y="3.666" class="st0" width="22.2822" height="4.0854"/> <path class="st0" d="M30.2983,31.6123c-0.5921,0.5092-2.5954-0.2568-4.9031-2.4318l3.2563-2.7877 C30.4449,29.0081,30.8917,31.1044,30.2983,31.6123z" stroke-width="0"/> </g> <g id="ICONS_00000031165542127692736420000002692518830807990202_"> <g> <path d="M39.168,12.8086c-0.5781-0.8931-1.4102-1.6172-2.2144-2.3179c-1.1592-1.0092-2.2459-1.9677-2.3244-3.2393h2.0119 c0.2764,0,0.5-0.2236,0.5-0.5V1.666c0-0.2764-0.2236-0.5-0.5-0.5H13.3589c-0.2764,0-0.5,0.2236-0.5,0.5v5.0854 c0,0.2764,0.2236,0.5,0.5,0.5h2.0119c-0.0785,1.2716-1.1652,2.2301-2.3244,3.2393c-0.8042,0.7007-1.6362,1.4248-2.2144,2.3174 c-1.3496,2.084-1.2656,4.9302-1.2104,6.7983v24.1709c0,2.833,2.3052,5.1382,5.1382,5.1382h20.4805 c2.833,0,5.1382-2.3052,5.1382-5.1382V19.6211C40.4336,17.7383,40.5176,14.8921,39.168,12.8086z M13.8589,2.166h22.2822v4.0854 H13.8589V2.166z M39.3784,19.6064v24.1709c0,2.2817-1.8564,4.1382-4.1382,4.1382H14.7598c-2.2817,0-4.1382-1.8564-4.1382-4.1382 V19.5918c-0.0518-1.7593-0.1304-4.4175,1.0503-6.2402c0.5015-0.7744,1.2793-1.4517,2.0312-2.1064 c1.2825-1.1168,2.5972-2.2753,2.6691-3.9937h17.2555c0.072,1.7184,1.3866,2.8768,2.6691,3.9937 c0.752,0.6548,1.5298,1.332,2.0317,2.1069C39.5088,15.1743,39.4302,17.8325,39.3784,19.6064z" stroke-width="0"/> <path d="M27.4139,24.6623l4.7599,1.3001c0.0435,0.0117,0.0879,0.0176,0.1318,0.0176c0.1338,0,0.2646-0.0542,0.3604-0.1533 c0.1265-0.1313,0.1714-0.3223,0.1167-0.4966c-0.8218-2.6162-2.6152-4.4805-4.9204-5.1143 c-1.4745-0.4048-3.0215-0.2757-4.4797,0.3364l-0.8196-0.9579c-0.4922-0.5752-1.1792-0.9243-1.9341-0.9829 c-0.4929-0.0362-0.9685,0.0629-1.4025,0.2635c-0.3215-1.4478-0.4058-2.7798-0.2201-3.952 c0.0435-0.2725-0.1426-0.5288-0.4155-0.5718c-0.2695-0.0459-0.5283,0.1431-0.5718,0.4155 c-0.1954,1.2313-0.1252,2.6073,0.1797,4.0882c-1.408-0.5266-2.7486-0.8079-3.9888-0.8079 c-0.2822,0.0112-0.5225,0.2173-0.522,0.5015c0.001,0.2754,0.2246,0.4985,0.5,0.4985c0.0059,0.0005,0.0146,0,0.0225,0 c1.1803,0,2.4761,0.2885,3.8498,0.8261c-0.2663,0.3989-0.4386,0.8546-0.4767,1.3458c-0.0586,0.7549,0.1802,1.4873,0.6729,2.0625 l0.8193,0.9572c-0.8298,1.3465-1.1959,2.8553-1.0229,4.3744c0.2705,2.375,1.8359,4.4346,4.2944,5.6504 c0.0703,0.0347,0.146,0.0518,0.2217,0.0518c0.1011,0,0.2017-0.0308,0.2871-0.0908c0.1499-0.105,0.23-0.2832,0.21-0.4648 l-0.5505-4.9034c1.9266,1.9865,4.1913,3.5342,5.7771,3.5342c0.4473,0,0.8403-0.1226,1.1562-0.3931 C30.8856,30.767,29.5496,27.4952,27.4139,24.6623z M27.5972,21.1802c1.7046,0.4688,3.0884,1.7446,3.896,3.5596l-9.1177-2.4902 C24.0098,21.0957,25.8691,20.7051,27.5972,21.1802z M19.0161,22.6309c-0.3188-0.3721-0.4736-0.8462-0.4355-1.335 c0.0381-0.4883,0.2637-0.9331,0.6362-1.252c0.3711-0.3188,0.8428-0.4736,1.3345-0.4355c0.4888,0.0381,0.9336,0.2642,1.252,0.6362 l0.6589,0.7701c-0.5121,0.2966-1.0095,0.6503-1.4813,1.0701c-0.0007,0.0005-0.0016,0.0005-0.0023,0.001 c-0.0027,0.0022-0.0049,0.0048-0.0076,0.007c-0.0029,0.0026-0.006,0.0046-0.009,0.0072 c-0.0007,0.0007-0.0008,0.0017-0.0015,0.0024c-0.4875,0.4011-0.9136,0.8377-1.2856,1.2979L19.0161,22.6309z M19.0464,28.4995 c-0.2026-1.7798,0.4697-3.5581,1.8618-4.9941l1.0547,9.3926C20.2939,31.8203,19.2466,30.2559,19.0464,28.4995z M21.8747,23.1493 L25.8,24.2214c0.0153,0.0264,0.0237,0.0554,0.0443,0.0793c0.2632,0.3075,0.4897,0.6059,0.7184,0.9046l-3.3795,2.8931 c-0.2599-0.2721-0.52-0.5419-0.7833-0.8494c-0.0204-0.0239-0.0475-0.0366-0.0712-0.0557L21.8747,23.1493z M28.7983,31.2373 c-0.5921,0.5092-2.5954-0.2568-4.9031-2.4318l3.2563-2.7877C28.9449,28.6331,29.3917,30.7294,28.7983,31.2373z" stroke-width="0"/> <path d="M34.8462,33.7617l-1.9829-1.2607c-0.2329-0.1484-0.542-0.0796-0.6899,0.1538c-0.1484,0.2329-0.0796,0.542,0.1538,0.6899 l1.9829,1.2607c0.083,0.0527,0.1758,0.0781,0.2676,0.0781c0.1655,0,0.3271-0.082,0.4224-0.2319 C35.1484,34.2188,35.0796,33.9097,34.8462,33.7617z" stroke-width="0"/> <path d="M35.4429,28.9243l-2.3486,0.063c-0.2764,0.0078-0.4941,0.2373-0.4868,0.5132c0.0073,0.2715,0.23,0.4868,0.4995,0.4868 c0.0049,0,0.0093,0,0.0137,0l2.3486-0.063c0.2764-0.0078,0.4941-0.2373,0.4868-0.5132 C35.9482,29.1348,35.6938,28.9282,35.4429,28.9243z" stroke-width="0"/> <path d="M30.3359,35.0488c-0.1099-0.252-0.4028-0.3691-0.6582-0.2578c-0.2529,0.1104-0.3687,0.4048-0.2578,0.6582l0.9399,2.1533 c0.082,0.188,0.2656,0.2998,0.4585,0.2998c0.0664,0,0.1343-0.0132,0.1997-0.042c0.2529-0.1104,0.3687-0.4048,0.2578-0.6582 L30.3359,35.0488z" stroke-width="0"/> <path d="M26.4951,34.7334c-0.271-0.0513-0.5317,0.1299-0.582,0.4014l-0.4248,2.3105c-0.0498,0.2715,0.1299,0.5322,0.4014,0.582 c0.0303,0.0059,0.061,0.0083,0.0908,0.0083c0.2368,0,0.4468-0.1685,0.4912-0.4097l0.4248-2.3105 C26.9463,35.0439,26.7666,34.7832,26.4951,34.7334z" stroke-width="0"/> </g> </g> <g id="Margin" class="st1"> <rect x="1" y="1" class="st2" /> </g> <g id="Guides" class="st1"> </g> <g id="LABELS"> <g> <g> <g> <g> <g> </g> </g> </g> </g> </g> </g> </svg> 