<?xml version="1.0" encoding="UTF-8"?><svg width="70" height="70" xmlns="http://www.w3.org/2000/svg" viewBox="-10 -10 70 70"><rect x="-10" y="-10" width="70" height="70" fill="white"/><g id="uuid-a641e9aa-0092-462b-bd94-fe4fecf6d527"><g><path d="M42.01,28.66h0v-.04c-.26-.6-.38-.88-.41-1.06-.01-.04-.04-.08-.06-.14-.29-.67-1.15-2.72-1.66-5.34-.33-1.73-.65-4.5-.26-7.85,.21-1.83,.61-3.65,1.2-5.42-1.93,.87-3.64,2.05-5.09,3.51-3,3-4.11,6.38-4.52,8.69-.04,.21-.2,.38-.42,.41-.22,.03-.42-.07-.52-.26-1.95-3.73-3.04-7.68-3.25-11.74-.1-1.87,0-3.74,.28-5.6-1.61,1.6-2.98,3.36-4.1,5.26-3.82,6.48-3.86,13.03-3.22,17.39,.04,.26-.14,.51-.4,.56-.26,.05-.52-.11-.58-.36-.67-2.58-2.23-6.28-5.84-9.3-1.16-.97-2.45-1.8-3.85-2.48,.96,3,1.39,5.97,1.29,8.84-.1,2.69-.67,5.88-1.01,7.78-.11,.62-.22,1.25-.25,1.48,.02,.07,.02,.15,0,.23-.93,4.22,.04,8.53,2.59,11.52,4.15,4.86,11.05,4.78,14.76,4.73,3.37-.04,11.25-.13,14.93-5.3,4.24-5.96,.43-15.4,.39-15.49Zm-12.29,17.09c-1.36,1.41-3.09,2.2-4.86,2.22h-.06c-2.45,0-4.91-1.49-6.01-3.65-1.18-2.33-.55-5.05-.33-5.83,.1-.35,.21-.65,.33-.96,.23-.62,.48-1.31,.67-2.45h0c.16-.97,.23-2.08,.2-3.15-.03-.84-.12-1.69-.27-2.52,.71,.42,1.38,.91,2,1.46,1.15,1.04,2.07,2.28,2.75,3.68,.1,.22,.35,.33,.58,.27s.39-.29,.37-.53c-.13-1.48-.02-2.95,.31-4.38,.53-2.25,1.56-4.04,2.57-5.34-.18,1.89-.03,3.69,.43,5.37,.33,1.2,.82,2.34,1.33,3.54,.93,2.16,1.88,4.4,2.07,7.33v.22c.05,1.54-.75,3.35-2.08,4.72Z" fill="#ffcd00" stroke-width="0"/><path d="M41.34,26.91v-.03c-.07-.14-.29-.66-.35-.85-.02-.1-.06-.21-.13-.37-.28-.65-1.11-2.62-1.59-5.13-.32-1.66-.62-4.32-.25-7.55,.24-2.12,.75-4.22,1.52-6.25,.07-.18,.02-.39-.12-.53s-.35-.18-.53-.11c-2.48,.95-4.66,2.35-6.47,4.16-2.62,2.62-3.88,5.5-4.48,7.81-1.49-3.22-2.33-6.6-2.51-10.06-.12-2.29,.06-4.59,.54-6.85,.04-.21-.05-.43-.24-.54-.19-.11-.42-.08-.58,.06-2.16,1.93-3.97,4.12-5.39,6.53-2.99,5.07-3.75,10.17-3.66,14.3-.99-2.07-2.52-4.31-4.87-6.28-1.52-1.27-3.25-2.31-5.15-3.09-.18-.08-.39-.04-.54,.1-.14,.14-.19,.34-.12,.53,1.17,3.25,1.71,6.46,1.6,9.55-.09,2.62-.66,5.76-1,7.64-.21,1.16-.29,1.58-.26,1.81-.95,4.48,.11,9.05,2.83,12.24,4,4.69,10.24,5.1,14.27,5.1,.45,0,.87,0,1.26,0,3.52-.04,11.76-.14,15.73-5.72,4.56-6.4,.66-16.04,.5-16.45Zm-1.31,15.87c-3.68,5.17-11.56,5.26-14.93,5.3-3.71,.05-10.61,.12-14.76-4.73-2.55-2.99-3.52-7.29-2.59-11.52,.02-.08,.01-.16,0-.23,.02-.23,.14-.86,.25-1.48,.34-1.9,.92-5.09,1.01-7.78,.1-2.87-.33-5.84-1.29-8.84,1.4,.67,2.69,1.5,3.85,2.48,3.61,3.02,5.17,6.73,5.84,9.3,.07,.26,.32,.42,.58,.36,.26-.05,.43-.3,.4-.56-.64-4.35-.6-10.91,3.22-17.39,1.12-1.9,2.49-3.66,4.1-5.26-.28,1.86-.38,3.74-.28,5.6,.21,4.07,1.3,8.02,3.25,11.74,.1,.19,.3,.29,.52,.26,.21-.03,.38-.2,.42-.41,.4-2.31,1.51-5.69,4.52-8.69,1.46-1.46,3.17-2.64,5.09-3.51-.59,1.77-.99,3.59-1.2,5.42-.38,3.36-.07,6.12,.26,7.85,.5,2.62,1.37,4.67,1.66,5.34,.03,.06,.05,.11,.06,.14,.04,.17,.15,.45,.4,1.06v.03h.02c.04,.1,3.85,9.54-.39,15.49Z" stroke-width="0"/><path d="M32.8,40.75c-.2-3.1-1.24-5.52-2.15-7.66-.5-1.17-.98-2.28-1.29-3.42-.56-2.02-.62-4.25-.17-6.61,.04-.22-.07-.43-.26-.54-.2-.1-.43-.06-.59,.1-1.35,1.39-3.13,3.75-3.91,7.06-.21,.89-.34,1.8-.38,2.72-.57-.83-1.23-1.59-1.99-2.28-.94-.86-2.01-1.57-3.17-2.11-.18-.08-.38-.06-.53,.07-.15,.12-.21,.32-.17,.51,.27,1.1,.43,2.23,.47,3.37,.03,1-.04,2.05-.18,2.95-.17,1.04-.4,1.67-.62,2.27-.12,.33-.24,.66-.35,1.04-.25,.87-.94,3.9,.41,6.55,1.28,2.52,4.05,4.2,6.9,4.2h.07c2.04-.02,4.02-.92,5.57-2.52,1.53-1.58,2.42-3.62,2.37-5.46v-.24Zm-3.09,5c-1.36,1.41-3.09,2.2-4.86,2.22h-.06c-2.45,0-4.91-1.49-6.01-3.65-1.18-2.33-.55-5.05-.33-5.83,.1-.35,.21-.65,.33-.96,.23-.62,.48-1.31,.67-2.45h0c.16-.97,.23-2.08,.2-3.15-.03-.84-.12-1.69-.27-2.52,.71,.42,1.38,.91,2,1.46,1.15,1.04,2.07,2.28,2.75,3.68,.1,.22,.35,.33,.58,.27s.39-.29,.37-.53c-.13-1.48-.02-2.95,.31-4.38,.53-2.25,1.56-4.04,2.57-5.34-.18,1.89-.03,3.69,.43,5.37,.33,1.2,.82,2.34,1.33,3.54,.93,2.16,1.88,4.4,2.07,7.33v.22c.05,1.54-.75,3.35-2.08,4.72Z" stroke-width="0"/></g></g><g id="uuid-309186c3-a3a1-486d-a845-202375b7f90b"></g></svg>