<?xml version="1.0" encoding="UTF-8"?><svg width="70" height="70" xmlns="http://www.w3.org/2000/svg" viewBox="-10 -10 70 70"><rect x="-10" y="-10" width="70" height="70" fill="white"/><g id="uuid-70477c87-9a27-4e24-9726-5cbf385da122"><g><g><path d="M3.23,21.08l5.59,3.29c.14,.08,.24,.24,.25,.4l.35,6.74,13.59-8.09v-.02l-6.2-10.4L3.23,21.08Z" fill="#ffcd00" stroke-width="0"/><path d="M29.95,23.33v.02l13.58,8.09,.35-6.74c0-.17,.1-.32,.25-.4l5.59-3.29-13.58-8.08-6.19,10.4Z" fill="#ffcd00" stroke-width="0"/></g><path d="M49.51,19.07l-14.38-8.55,.54-.91c.14-.24,.07-.55-.17-.69s-.55-.07-.69,.17l-9.81,16.48L15.19,9.09c-.14-.24-.45-.31-.69-.17s-.31,.45-.17,.69l.54,.91L.49,19.07c-.16,.09-.25,.26-.25,.44,0,.17,.1,.34,.25,.43l6.12,3.59,.38,7.34c.01,.18,.11,.33,.26,.42,.08,.04,.16,.06,.24,.06,.09,0,.18-.03,.26-.07l14.38-8.56,2.29,3.84-8.24,13.83c-.14,.24-.06,.55,.18,.69,.08,.04,.17,.07,.26,.07,.17,0,.33-.09,.43-.25l7.95-13.36,7.95,13.36c.1,.16,.26,.25,.43,.25,.09,0,.18-.03,.26-.07,.24-.14,.32-.45,.18-.69l-8.24-13.83,2.29-3.84,14.38,8.56c.08,.04,.17,.07,.26,.07,.08,0,.16-.02,.24-.06,.15-.09,.25-.24,.26-.42l.38-7.34,6.12-3.59c.15-.09,.25-.26,.25-.43,0-.18-.09-.35-.25-.44ZM7.95,29.99l-.35-6.78c0-.17-.11-.32-.25-.4l-5.62-3.31L15.38,11.38l6.24,10.47L7.95,29.99Zm34.7-7.18c-.14,.08-.24,.23-.25,.4l-.35,6.78-13.67-8.14,6.24-10.47,13.65,8.12-5.62,3.31Z" stroke-width="0"/></g></g><g id="uuid-775ab40e-84e9-4a25-8aba-7334b31b37f2"></g></svg>