<?xml version="1.0" encoding="UTF-8"?><svg width="70" height="70" xmlns="http://www.w3.org/2000/svg" viewBox="-10 -10 70 70"><rect x="-10" y="-10" width="70" height="70" fill="white"/><g id="uuid-479492c0-5c67-4f0a-9706-a746c836dfb7"><path d="M30.12,11.14c.03-2.02,.75-4.4,1.26-5.85l-2.63,1.51c-.12,.07-.26,.08-.39,.05-.13-.04-.24-.13-.3-.25l-1.3-2.52-1.19,2.43c-.06,.12-.17,.22-.3,.26-.13,.04-.27,.03-.39-.04l-2.74-1.5c.41,1.43,1.01,3.87,1.05,5.92,0,.27-.21,.5-.48,.51l-6.76,.33,6.03,4.04c.19,.13,.27,.37,.19,.58l-1.02,2.88-1.26,3.57,6.56-4.91c.18-.13,.42-.13,.6,0l6.56,4.85-2.28-6.47c-.08-.22,0-.46,.19-.58l6.01-4.02c-2.44-.09-6.92-.26-6.93-.26-.27-.01-.48-.24-.48-.51Z" fill="#ffcd00" stroke-width="0"/><path d="M37.82,9.58c-.06-.21-.25-.36-.46-.36,0,0-6.14-.23-7.96-.3,.2-2.82,1.65-6.27,1.67-6.31,.08-.2,.03-.43-.13-.57-.16-.14-.39-.17-.58-.06l-3.39,1.94-1.51-2.94c-.09-.17-.27-.29-.45-.27-.19,0-.36,.11-.44,.28l-1.39,2.85-3.36-1.84c-.18-.1-.4-.08-.56,.06-.16,.13-.22,.35-.15,.54,.01,.04,1.18,3.51,1.34,6.33l-7.78,.38c-.22,.01-.4,.16-.46,.37-.06,.21,.02,.43,.2,.55l6.97,4.66-2.7,7.64c-.07,.21,0,.44,.18,.57,.09,.06,.19,.1,.3,.1s.21-.03,.3-.1l7.21-5.4v20.17c-2.57-5.44-6.79-12.05-7.82-12.39-.14-.05-.35-.03-.48,.04-2.04,1.2-.33,8.17,.24,10.27,1.35,4.97,4.61,13.35,8.29,13.49,.03,0,.06,0,.1,0s.07-.01,.1-.01c.02,0,.04,.01,.06,.01,.07,0,.14-.02,.21-.05,3.27-.49,6.24-7.25,7.83-13.09,.42-1.55,2.41-9.33,.26-10.59-.12-.07-.29-.09-.42-.05-.24,.06-.85,.23-7.38,11.99V17.87l6.95,5.14c.18,.13,.42,.13,.59,0,.18-.13,.25-.36,.17-.57l-2.7-7.64,6.97-4.66c.18-.12,.26-.34,.2-.55ZM20.39,3.47l2.74,1.5c.12,.07,.26,.08,.39,.04,.13-.04,.24-.13,.3-.26l1.19-2.43,1.3,2.52c.06,.12,.17,.21,.3,.25,.13,.04,.27,.02,.39-.05l2.63-1.51c-.51,1.45-1.23,3.83-1.26,5.85h0v.14c0,1.87-1.33,3.9-3.48,3.9s-3.45-2-3.45-3.87v-.16h0v-.02h0c-.03-2.05-.64-4.49-1.05-5.91Zm-2.85,32.05c-1.39-5.1-1.37-8.1-.88-8.94,1.16,1.2,5.35,7.53,7.82,13.39,.03,.08,.09,.13,.15,.18v8.08c-2.5-.53-5.47-6.79-7.09-12.71Zm15.6-8.82c.51,1.04,.32,4.52-.95,9.19-1.53,5.63-4.19,11.31-6.57,12.25v-8.58c2.52-4.56,6.37-11.33,7.52-12.86Zm-3.38-12.52c-.19,.13-.27,.37-.19,.58l2.28,6.47-6.56-4.85c-.18-.13-.42-.13-.6,0l-6.56,4.91,1.26-3.57,1.02-2.88c.08-.22,0-.46-.19-.58l-6.03-4.04,6.26-.3c.17,2.24,1.91,4.5,4.44,4.5,2.35,0,4.26-2,4.44-4.51,1.22,.05,4.49,.17,6.44,.24l-6.01,4.02Z" stroke-width="0"/></g><g id="uuid-666c4a5f-0fd9-4702-bb3c-00a2ef728167"></g></svg>