<?xml version="1.0" encoding="UTF-8"?><svg width="70" height="70" id="uuid-e77394bb-3b29-42b7-bc33-b200bd282a2c" xmlns="http://www.w3.org/2000/svg" viewBox="-10 -10 70 70"><rect x="-10" y="-10" width="70" height="70" fill="white"/><path d="M39.94,29.35c-.33,.3-.84,.46-1.27,.4-.47-.08-.81-.28-1.04-.62-.33-.5-.62-1.61-.04-4.02,.38-1.6,.97-3.2,1.5-4.58,.06-.15,.04-.32-.05-.46-.09-.13-.25-.22-.41-.22H17.05c-.93,0-1.69-.75-1.69-1.69s.76-1.69,1.69-1.69h7.3c.28,0,.5-.22,.5-.5s-.22-.5-.5-.5h-.1c-.93,0-1.69-.75-1.69-1.69s.76-1.69,1.69-1.69h1.72c.28,0,.5-.22,.5-.5s-.22-.5-.5-.5h-.1c-.93,0-1.69-.75-1.69-1.69s.76-1.69,1.69-1.69h1.79c.28,0,.5-.22,.5-.5s-.22-.5-.5-.5h.05c-.93,0-1.68-.76-1.68-1.69s.75-1.69,1.69-1.69h5.37c2.21,.05,4.38,.45,6.44,1.19,1.26,.45,2.48,1.03,3.63,1.72,.08,.05,.2,.07,.27,.07l3.95-.02v11.64c-.47,.02-.95,.01-1.41,0-.28-.01-.57-.01-.85-.01h-.33c-.2,0-.38,.11-.46,.29-1.65,3.63-2.91,6.9-3.84,10.01-.13,.42-.26,.86-.55,1.13Z" fill="#ffcd00" stroke-width="0"/><path d="M4.62,46.08v-11.64c.47-.01,.94,0,1.41,0,.28,.01,.57,.02,.85,.02h.33c.2,0,.38-.12,.46-.3,1.65-3.62,2.91-6.9,3.84-10.01,.13-.42,.26-.86,.55-1.12,.33-.31,.84-.47,1.27-.4,.47,.07,.81,.27,1.04,.61,.33,.51,.62,1.61,.04,4.02-.38,1.61-.98,3.21-1.5,4.58-.06,.15-.04,.32,.05,.46s.25,.22,.41,.22h21.58c.93,0,1.69,.76,1.69,1.69s-.76,1.69-1.69,1.69h-7.17c-.28,0-.5,.22-.5,.5s.22,.5,.5,.5h-.03c.93,0,1.69,.76,1.69,1.69s-.76,1.69-1.69,1.69h-1.87c-.28,0-.5,.22-.5,.5s.22,.5,.5,.5h.25c.93,0,1.69,.76,1.69,1.69s-.76,1.69-1.69,1.69h-1.79c-.28,0-.5,.22-.5,.5s.22,.5,.5,.5h-.05c.93,0,1.68,.76,1.68,1.69s-.75,1.69-1.69,1.69h-5.37c-2.21-.05-4.38-.45-6.44-1.19-1.26-.45-2.48-1.02-3.63-1.72-.08-.04-.17-.07-.26-.07h-.01l-3.95,.02Z" fill="#ffcd00" stroke-width="0"/><g><path d="M24.87,6.71c-.93,0-1.69,.76-1.69,1.69s.76,1.69,1.69,1.69h4.79c.28,0,.5,.23,.5,.5s-.22,.5-.5,.5h-6.41c-.93,0-1.69,.76-1.69,1.69s.76,1.69,1.69,1.69h6.3c.28,0,.5,.23,.5,.5s-.22,.5-.5,.5h-13.5c-.93,0-1.69,.76-1.69,1.69s.76,1.69,1.69,1.69h21.58c.16,0,.32,.09,.41,.22,.09,.14,.11,.31,.05,.46-.53,1.38-1.12,2.98-1.5,4.58-.58,2.41-.29,3.52,.04,4.02,.23,.34,.57,.54,1.04,.62,.43,.06,.94-.1,1.27-.4,.29-.27,.42-.71,.55-1.13,.93-3.11,2.19-6.38,3.84-10.01,.08-.18,.26-.29,.46-.29h.33c.28,0,.57,0,.85,.01,.46,.01,.94,.02,1.41,0V5.29l-3.95,.02c-.07,0-.19-.02-.27-.07-1.15-.69-2.37-1.27-3.63-1.72-2.06-.74-4.23-1.14-6.44-1.19h-5.37c-.94,0-1.69,.76-1.69,1.69s.75,1.69,1.68,1.69h2.95c.28,0,.5,.23,.5,.5s-.22,.5-.5,.5h-4.79Zm-11.51,10.45c0-1.48,1.21-2.69,2.69-2.69h5.11c-.37-.46-.6-1.05-.6-1.69,0-1.33,.98-2.43,2.25-2.65-.4-.47-.63-1.07-.63-1.73,0-1.4,1.08-2.56,2.45-2.68-.38-.46-.6-1.05-.6-1.7,0-1.48,1.2-2.69,2.69-2.69h5.38c2.34,.06,4.61,.48,6.77,1.25,1.27,.45,2.51,1.03,3.68,1.73l4.33-.02c.28,0,.5,.22,.5,.5v12.29c0,.24,0,.79-.71,.83-.58,.04-1.16,.03-1.72,.02-.28-.01-.55-.01-.83-.01h-.01c-1.57,3.47-2.77,6.61-3.67,9.59-.15,.5-.34,1.13-.82,1.57s-1.12,.68-1.75,.68c-.12,0-.24-.01-.36-.03-.65-.1-1.17-.38-1.55-.84-.06-.06-.11-.13-.16-.2-.66-.99-.72-2.56-.19-4.81,.34-1.4,.82-2.79,1.29-4.03H16.05c-.83,0-1.58-.38-2.07-.98-.39-.46-.62-1.05-.62-1.71Z" stroke-width="0"/><path d="M7.45,46.06l-4.33,.02c-.28,0-.5-.22-.5-.5v-12.29c0-.24-.01-.79,.71-.83,.58-.04,1.16-.03,1.72-.01,.28,0,.55,.01,.83,.01h0c1.57-3.47,2.77-6.61,3.67-9.59,.15-.51,.34-1.13,.82-1.58,.48-.44,1.12-.68,1.75-.68,.12,0,.24,0,.36,.03,.74,.12,1.32,.47,1.71,1.04,.66,.99,.72,2.57,.19,4.81-.34,1.41-.82,2.79-1.29,4.03h20.85c1.48,0,2.69,1.2,2.69,2.69s-1.21,2.69-2.69,2.69h-5.11c.37,.46,.6,1.05,.6,1.69,0,1.33-.98,2.44-2.25,2.65,.4,.47,.63,1.07,.63,1.73,0,1.4-1.08,2.56-2.45,2.68,.38,.46,.6,1.05,.6,1.7,0,1.48-1.2,2.69-2.69,2.69h-5.38c-2.33-.06-4.61-.47-6.77-1.25-1.27-.45-2.51-1.03-3.68-1.73Zm-2.42-12.62c-.47,0-.94-.01-1.41,0v11.64l3.95-.02h.01c.09,0,.18,.03,.26,.07,1.15,.7,2.37,1.27,3.63,1.72,2.06,.74,4.23,1.14,6.44,1.19h5.37c.94,0,1.69-.76,1.69-1.69s-.75-1.69-1.68-1.69h-2.95c-.28,0-.5-.23-.5-.5s.22-.5,.5-.5h4.79c.93,0,1.69-.76,1.69-1.69s-.76-1.69-1.69-1.69h-4.79c-.28,0-.5-.23-.5-.5s.22-.5,.5-.5h6.41c.93,0,1.69-.76,1.69-1.69s-.76-1.69-1.69-1.69h-6.3c-.28,0-.5-.23-.5-.5s.22-.5,.5-.5h13.5c.93,0,1.69-.76,1.69-1.69s-.76-1.69-1.69-1.69H12.37c-.16,0-.32-.08-.41-.22s-.11-.31-.05-.46c.52-1.37,1.12-2.97,1.5-4.58,.58-2.41,.29-3.51-.04-4.02-.23-.34-.57-.54-1.04-.61-.43-.07-.94,.09-1.27,.4-.29,.26-.42,.7-.55,1.12-.93,3.11-2.19,6.39-3.84,10.01-.08,.18-.26,.3-.46,.3h-.33c-.28,0-.57-.01-.85-.02Z" stroke-width="0"/></g></svg>