<?xml version="1.0" encoding="utf-8"?> <!-- Generator: Adobe Illustrator 27.7.0, SVG Export Plug-In . SVG Version: 6.00 Build 0) --> <svg width="70" height="70" version="1.1" xmlns="http://www.w3.org/2000/svg" xmlns:xlink="http://www.w3.org/1999/xlink" x="0px" y="0px" viewBox="-10 -10 70 70" style="enable-background:new 0 0 50 50;" xml:space="preserve"><rect x="-10" y="-10" width="70" height="70" fill="white"/> <style type="text/css"> .st0{fill:#FFCD00;} .st1{display:none;} .st2{display:inline;fill:none;stroke:#EA008A;stroke-width:0.2;stroke-miterlimit:10;} .st3{font-family:'Roboto-Regular';} .st4{font-size:6px;} </style> <g id="Color"> <path class="st0" d="M14.4717,22.4131c-0.0016,0-0.0033,0.001-0.0049,0.001c-0.0017,0-0.0034-0.001-0.0051-0.001h-3.95v22.751 h31.9766v-22.751H14.4717z M30.9541,32.1328L25,38.0908l-5.96-5.9512c-0.6182-0.6182-0.959-1.4404-0.959-2.3145 s0.3408-1.6953,0.959-2.3135s1.4395-0.959,2.3135-0.959s1.6953,0.3408,2.3135,0.959c0.0225,0.0225,0.0469,0.042,0.0723,0.0596 l0.7861,0.7852c0.2441,0.2598,0.6553,0.2754,0.9375,0.0117l0.8633-0.8623c1.2744-1.2754,3.3516-1.2773,4.6279,0 C32.2295,28.7812,32.2295,30.8574,30.9541,32.1328z" stroke-width="0"/> <path class="st0" d="M13.7635,20.3531h16.3897c-2.4039-4.0474-5.5016-7.7542-7.4735-9.4186 c-1.9551-1.6494-3.6816-1.7402-4.5244-1.0996c-0.7656,0.583-0.8398,1.7676-0.1963,3.168l0.3505,0.686 c0.9377,0.197,1.7385,0.96,2.0316,2.2144c-0.2632-0.283-0.576-0.4969-0.9445-0.5879c-0.874-0.2197-1.8066,0.1904-2.4883,1.0898 c-0.0065,0.0085-0.0183,0.0093-0.0252,0.0173c-0.0616,0.0724-0.1372,0.1336-0.2355,0.1614c-0.0001,0-0.0002,0.0001-0.0002,0.0001 c-0.0002,0.0001-0.0004,0-0.0005,0.0001c-0.0457,0.0136-0.0923,0.0194-0.137,0.0194c-0.0323,0-0.0573-0.0232-0.0884-0.0292 c-0.0304-0.0055-0.0607,0.0074-0.0903-0.004c-1.0547-0.4043-2.0586-0.2578-2.6895,0.3887 c-0.6084,0.625-0.7207,1.6025-0.3008,2.6152C13.4542,19.8483,13.597,20.1075,13.7635,20.3531z" stroke-width="0"/> </g> <g id="ICONS_00000031165542127692736420000002692518830807990202_"> <g> <path d="M48.2148,28.3467l-6.3301-8.2383c-0.0067-0.0087-0.0166-0.0125-0.0237-0.0206c-0.0234-0.0269-0.0508-0.0477-0.0795-0.069 c-0.0244-0.0181-0.0471-0.0367-0.0739-0.0497c-0.0284-0.0141-0.0589-0.0213-0.0901-0.0298 c-0.0326-0.0089-0.0638-0.0175-0.0974-0.0197c-0.0111-0.0007-0.0206-0.0064-0.0319-0.0064h-3.3311v-8.5586 c0-0.1631-0.0791-0.3154-0.2129-0.4092l-4.3174-3.034V5.8359c0-0.2764-0.2236-0.5-0.5-0.5s-0.5,0.2236-0.5,0.5v2.0754 l-4.3174,3.034c-0.1338,0.0938-0.2129,0.2461-0.2129,0.4092v4.7407c-2.1793-3.2315-4.6125-6.0236-6.2725-7.4243 c-2.3779-2.0078-4.6133-2.0137-5.7744-1.1318c-1.165,0.8867-1.3525,2.5244-0.4902,4.4004l0.7965,1.5601 c-0.2857,0.1475-0.5583,0.3395-0.8126,0.5695c-0.3619-0.6653-0.8998-1.2004-1.4761-1.4207 c-0.2559-0.0967-0.5459,0.0303-0.6455,0.2881c-0.0986,0.2578,0.0303,0.5469,0.2881,0.6455 c0.2725,0.1044,0.5424,0.3552,0.7679,0.6714c-1.0349-0.1099-2.005,0.1928-2.6781,0.8833 c-0.8955,0.9199-1.0859,2.3018-0.5078,3.6953c0.1584,0.3826,0.3624,0.7418,0.5998,1.0811H8.5117 c-0.0118,0-0.0216,0.0059-0.0332,0.0067c-0.0324,0.0022-0.0624,0.0105-0.0938,0.0189c-0.0325,0.0087-0.064,0.0164-0.0935,0.0311 c-0.0259,0.0128-0.0479,0.0309-0.0716,0.0483c-0.0292,0.0215-0.0569,0.0426-0.0807,0.0699 c-0.0071,0.0081-0.017,0.0119-0.0237,0.0205l-6.3301,8.2383c-0.168,0.2188-0.127,0.5332,0.0918,0.7012 c0.0908,0.0693,0.1982,0.1035,0.3047,0.1035c0.1494,0,0.2979-0.0674,0.3965-0.1953l5.4336-7.0715v22.2795 c0,0.2764,0.2236,0.5,0.5,0.5h32.9766c0.2764,0,0.5-0.2236,0.5-0.5V21.8845l5.4336,7.0715 c0.0986,0.1279,0.2471,0.1953,0.3965,0.1953c0.1064,0,0.2139-0.0342,0.3047-0.1035 C48.3418,28.8799,48.3828,28.5654,48.2148,28.3467z M29.0967,11.6143l4.0303-2.832l4.0303,2.832v8.2988h-6.746 c-0.41-0.7657-0.8516-1.5264-1.3145-2.2733V11.6143z M16.459,11.5029c-0.6436-1.4004-0.5693-2.585,0.1963-3.168 c0.8428-0.6406,2.5693-0.5498,4.5244,1.0996c0.8848,0.7468,1.9995,1.908,3.1757,3.3227l-1.5136,3.0445 c-0.123,0.2471-0.0225,0.5479,0.2246,0.6699c0.0713,0.0361,0.1475,0.0527,0.2227,0.0527c0.1836,0,0.3604-0.1016,0.4473-0.2773 l1.3107-2.6363c0.4763,0.6019,0.9567,1.2361,1.4321,1.9006l-1.5572,3.1321c-0.123,0.2471-0.0225,0.5479,0.2246,0.6699 c0.0713,0.0361,0.1475,0.0527,0.2227,0.0527c0.1836,0,0.3604-0.1016,0.4473-0.2773l1.3138-2.6425 c0.7572,1.1119,1.4848,2.2804,2.1417,3.4667h-9.0702c0.6464-1.1526,0.908-2.5272,0.6938-3.8232 c-0.2451-1.4893-1.1367-2.5625-2.3838-2.8701c-0.3949-0.0991-0.7983-0.1052-1.1952-0.0384L16.459,11.5029z M12.2158,18.4492 c-0.4199-1.0127-0.3076-1.9902,0.3008-2.6152c0.6309-0.6465,1.6348-0.793,2.6895-0.3887c0.0295,0.0114,0.0599-0.0015,0.0903,0.004 c0.0311,0.006,0.0562,0.0292,0.0884,0.0292c0.0447,0,0.0913-0.0058,0.137-0.0194c0.0001-0.0001,0.0003,0,0.0005-0.0001 c0.0001,0,0.0002-0.0001,0.0002-0.0001c0.0983-0.0278,0.174-0.0891,0.2355-0.1614c0.0069-0.008,0.0187-0.0087,0.0252-0.0173 c0.6816-0.8994,1.6143-1.3096,2.4883-1.0898c0.8467,0.209,1.459,0.9795,1.6377,2.0615c0.2089,1.2666-0.1318,2.6235-0.8981,3.6611 h-5.8164C12.7784,19.4786,12.4406,18.9924,12.2158,18.4492z M40.9883,43.6641H9.0117v-22.751h3.95 c0.0017,0,0.0034,0.001,0.0051,0.001c0.0016,0,0.0033-0.001,0.0049-0.001h28.0165V43.6641z" stroke-width="0"/> <path d="M28.6396,25.5469c-1.1406,0-2.2139,0.4443-3.0205,1.252l-0.6143,0.623l-0.624-0.623 c-0.0234-0.0234-0.0498-0.0449-0.0762-0.0625c-0.7988-0.7637-1.8428-1.1836-2.9512-1.1836c-1.1416,0-2.2139,0.4443-3.0205,1.252 c-0.8076,0.8066-1.252,1.8789-1.252,3.0205s0.4443,2.2148,1.252,3.0215l6.3135,6.3047c0.0977,0.0977,0.2256,0.1465,0.3535,0.1465 s0.2559-0.0488,0.3535-0.1465l6.3076-6.3115c1.666-1.665,1.666-4.376,0-6.041C30.8545,25.9912,29.7812,25.5469,28.6396,25.5469z M24.8115,27.6172l-0.041,0.042l-0.0059-0.0059C24.7793,27.6396,24.7949,27.6279,24.8115,27.6172z M30.9541,32.1328L25,38.0908 l-5.96-5.9512c-0.6182-0.6182-0.959-1.4404-0.959-2.3145s0.3408-1.6953,0.959-2.3135s1.4395-0.959,2.3135-0.959 s1.6953,0.3408,2.3135,0.959c0.0225,0.0225,0.0469,0.042,0.0723,0.0596l0.7861,0.7852c0.2441,0.2598,0.6553,0.2754,0.9375,0.0117 l0.8633-0.8623c1.2744-1.2754,3.3516-1.2773,4.6279,0C32.2295,28.7812,32.2295,30.8574,30.9541,32.1328z" stroke-width="0"/> </g> </g> <g id="Margin" class="st1"> <rect x="1" y="1" class="st2" /> </g> <g id="Guides" class="st1"> </g> <g id="LABELS"> <g> <g> <g> <g> <g> <g> </g> </g> </g> </g> </g> </g> </g> </svg> 