<?xml version="1.0" encoding="UTF-8"?><svg width="70" height="70" id="uuid-eeb83d4e-4eaa-4e8c-bb0b-99c186eadab6" xmlns="http://www.w3.org/2000/svg" viewBox="-10 -10 70 70"><rect x="-10" y="-10" width="70" height="70" fill="white"/><path d="M41.44,24h.15c-1.79-10.39-9.45-17.59-18.79-17.59C11.98,6.41,3.18,15.21,3.18,26.02c0,5.03,2.18,10.88,5.2,13.98,.4,.03,1.6,.06,2.59,.08,.98,.02,2.01,.04,2.74,.08,1.61,.07,3.01,1.55,4.49,3.11,1.79,1.89,3.62,3.86,6.06,3.82,3.83-.04,6.47-.89,8.08-2.61,1.58-1.69,2.25-4.32,2.05-8.06-.11-2.03-1.38-3.74-2.41-5.12-.71-.96-1.22-1.65-1.25-2.29-.16-4.28,8.01-4.83,10.69-5Zm-16.26,17.4c-1.63,0-2.96-1.33-2.96-2.96s1.33-2.96,2.96-2.96,2.96,1.33,2.96,2.96-1.33,2.96-2.96,2.96Z" fill="#ffcd00" stroke-width="0"/><path d="M25.18,34.47c-2.19,0-3.96,1.78-3.96,3.96s1.78,3.96,3.96,3.96,3.96-1.78,3.96-3.96-1.78-3.96-3.96-3.96Zm0,6.93c-1.63,0-2.96-1.33-2.96-2.96s1.33-2.96,2.96-2.96,2.96,1.33,2.96,2.96-1.33,2.96-2.96,2.96Z" stroke-width="0"/><path d="M48.7,29.09c-1.42-.91-3.79-.35-6.81,.36-1.47,.35-3.04,.72-4.64,.95-.21-2.38-.35-4.78-.45-6.86,.9-.12,1.88-.22,2.95-.29,.81-.05,.89-.06,1.05-.25,.09-.11,.13-.25,.11-.39C39.21,11.45,31.04,3.66,21.04,3.66,9.68,3.66,.43,12.91,.43,24.27c0,5.33,2.36,11.55,5.6,14.8q.19,.19,3.16,.26c.97,.02,2,.04,2.72,.07,1.21,.05,2.47,1.39,3.81,2.8,1.83,1.94,3.91,4.13,6.74,4.13h.06c4.11-.04,6.99-1,8.8-2.93,1.78-1.9,2.54-4.77,2.32-8.79-.06-1.11-.42-2.13-.89-3.05,1.19,.11,2.4,.08,3.59-.05,.44,4.76,1.17,9.98,2.32,11.24,1.88,2.07,4.32,2.55,6.18,2.55,1.56,0,2.72-.34,2.82-.37,.18-.05,.31-.2,.35-.38,.66-3.31,2.66-14.19,.68-15.46Zm-6.58,1.33c2.67-.63,4.98-1.17,6.04-.49,.53,.34,.51,2.88,.16,6.19-2.76,.86-8.69,.98-10.29,1-.26-1.7-.49-3.69-.68-5.73,1.69-.24,3.32-.62,4.78-.97Zm-11.52,12.29c-1.61,1.72-4.26,2.58-8.08,2.61-2.44,.04-4.27-1.93-6.06-3.82-1.48-1.56-2.88-3.04-4.49-3.11-.73-.03-1.76-.05-2.74-.08-.99-.02-2.19-.05-2.59-.08-3.02-3.11-5.2-8.95-5.2-13.98C1.43,13.46,10.23,4.66,21.04,4.66c9.34,0,17,7.2,18.79,17.58h-.15c-2.68,.19-10.85,.73-10.69,5.01,.02,.64,.54,1.33,1.25,2.29,1.02,1.38,2.3,3.09,2.41,5.12,.2,3.74-.47,6.37-2.05,8.06Zm1.52-12.24c-.36-.56-.74-1.08-1.08-1.53-.51-.69-1.04-1.4-1.05-1.73-.06-1.7,1.89-2.88,5.81-3.53,.06,1.22,.2,3.86,.45,6.84-1.38,.14-2.77,.16-4.13-.05Zm14.97,13.57c-1.1,.25-5.1,.89-7.69-1.97-.46-.5-.86-1.97-1.21-3.96,1.75-.02,7.05-.15,10.01-.93-.26,2.15-.64,4.55-1.1,6.86Z" stroke-width="0"/></svg>