<?xml version="1.0" encoding="UTF-8"?><svg width="70" height="70" xmlns="http://www.w3.org/2000/svg" viewBox="-10 -10 70 70"><rect x="-10" y="-10" width="70" height="70" fill="white"/><g id="uuid-3558f01b-77d8-4834-9b25-dcfd493c2506"><g><path d="M37.13,39.45c-2.48-.67-8.3-2.24-10.17-6.6-2.27-5.29-2.53-13.55-2.15-17.81,.11-1.22,.32-3.09,.62-5.58-3.19,1.15-13.94,3.99-18.09,5.07,.13,1.7,.58,8.03,.57,10.03-.03,5.33-.69,8.65-1.21,11.33-.34,1.76-.64,3.27-.67,4.92-.05,2.88,.94,5.48,2.74,7.13,1.3,1.2,2.87,1.78,4.41,1.62,6.48-.66,14.56-1.28,19.79-.25,.88-1,4.14-7.84,4.9-9.65-.21-.06-.49-.14-.75-.21Z" fill="#ffcd00" stroke-width="0"/><path d="M24.45,.99c.04-.27-.15-.53-.42-.57-.27-.05-.53,.15-.57,.42,0,.03-.45,3.1-.83,6.19,.46-.15,.82-.27,1.05-.37,.37-2.9,.77-5.65,.77-5.68Z" stroke-width="0"/><path d="M5.11,.86c-.03-.27-.28-.47-.56-.43-.27,.03-.47,.28-.43,.56,0,.05,.67,5.34,1.24,10.83,.32-.08,.64-.17,.98-.26C5.77,6.11,5.11,.91,5.11,.86Z" stroke-width="0"/><path d="M22.92,17.28H5.91c.02,.33,.04,.67,.06,1H22.94c0-.34-.01-.67-.02-1Z" stroke-width="0"/><path d="M46.72,42.84c-.21-.79-1.04-2.24-2.68-2.13-3.35,.22-6-1.6-7-2.41-.11,.25-.25,.57-.42,.95,1.23,.96,3.98,2.69,7.49,2.46,1.2-.09,1.62,1.3,1.63,1.3h0c0,.1,.14,2.56-2.55,3.51-2.46,.87-8.33,.41-10.27,.22-.22,.39-.41,.7-.57,.95,.74,.08,3.41,.34,6.09,.34,1.92,0,3.85-.13,5.08-.57,3.42-1.21,3.22-4.49,3.2-4.61Z" stroke-width="0"/><path d="M23.23,22.63L5.34,32.09c-.08,.44-.16,.85-.23,1.25l18.25-9.65c-.05-.35-.09-.71-.13-1.06Z" stroke-width="0"/><path d="M23.81,26.39l-9.59,21.15c.38-.03,.76-.07,1.14-.1l8.82-19.44c-.14-.52-.26-1.06-.37-1.61Z" stroke-width="0"/><path d="M27.98,34.49l-1.61,12.57c.34,.01,.67,.03,1,.05l1.53-11.98c-.32-.2-.63-.41-.93-.63Z" stroke-width="0"/><path d="M34.69,43.31c.66-1.34,1.41-2.93,1.92-4.06,.17-.38,.31-.7,.42-.95,.11-.26,.19-.45,.2-.51,.15-.58-.37-.72-1.6-1.05-2.34-.63-7.83-2.12-9.51-6.03-2.2-5.13-2.44-13.17-2.07-17.33,.12-1.34,.36-3.49,.72-6.38,.03-.27-.16-.52-.43-.56-.03,0-.06,0-.09,0-.12-.01-.23,.03-.33,.12-.05,.03-.13,.07-.25,.12-.23,.09-.59,.22-1.05,.37-3.05,.98-10.65,3.04-16.29,4.52-.33,.09-.66,.17-.98,.26-.14,.04-.28,.07-.41,.11-.23,.06-.39,.28-.37,.52,0,.08,.61,8.13,.59,10.37-.03,5.24-.68,8.51-1.19,11.14-.35,1.8-.66,3.36-.69,5.09-.06,3.16,1.06,6.04,3.06,7.89,1.35,1.24,2.96,1.91,4.59,1.91,.2,0,.4,0,.6-.03,6.49-.66,14.6-1.28,19.69-.23,.25,.05,.48,.09,1.12-.89,.16-.24,.35-.56,.57-.95,.44-.78,1.01-1.87,1.77-3.42Zm-3.47,4.24c-1.16-.23-2.46-.37-3.84-.45-.33-.02-.66-.04-1-.05-3.44-.13-7.33,.08-11.02,.39-.38,.03-.76,.07-1.14,.1-.95,.09-1.89,.18-2.79,.27-1.54,.16-3.11-.42-4.41-1.62-1.8-1.65-2.79-4.25-2.74-7.13,.03-1.64,.33-3.16,.67-4.92,.05-.26,.1-.53,.16-.8,.08-.4,.16-.82,.23-1.25,.41-2.33,.8-5.22,.82-9.27,0-.91-.08-2.69-.2-4.54-.02-.33-.04-.67-.06-1-.12-1.9-.25-3.7-.31-4.49,4.15-1.08,14.91-3.93,18.09-5.07-.3,2.49-.51,4.36-.62,5.58-.1,1.1-.15,2.47-.14,3.99,0,.33,0,.66,.02,1,.04,1.38,.13,2.86,.29,4.35,.04,.35,.08,.71,.13,1.06,.12,.91,.27,1.82,.45,2.7,.11,.55,.23,1.08,.37,1.61,.29,1.1,.63,2.15,1.03,3.1,.6,1.4,1.6,2.5,2.77,3.39,.3,.23,.61,.44,.93,.63,2.31,1.45,4.98,2.17,6.47,2.58,.21,.06,.43,.12,.62,.17,.04,.01,.09,.03,.13,.04-.07,.17-.17,.39-.28,.64-1.08,2.4-3.82,8.1-4.62,9.01Z" stroke-width="0"/></g></g><g id="uuid-f77d87cb-3cee-4bae-8b49-5da9cbd9932c"></g></svg>