<?xml version="1.0" encoding="UTF-8"?><svg width="70" height="70" id="uuid-f50cee85-71eb-44ba-936a-9585588e3ae7" xmlns="http://www.w3.org/2000/svg" viewBox="-10 -10 70 70"><rect x="-10" y="-10" width="70" height="70" fill="white"/><g><path d="M48.57,3.84c-.03-.18-.19-.33-.38-.34-1.96-.15-3.85-.22-5.68-.22s-3.52,.08-5.2,.22l11.66,11.45c.37-5.33-.17-9.59-.4-11.11Z" fill="#ffcd00" stroke-width="0"/><path d="M13.57,13.49C3.7,23.37,3.58,35.68,3.6,37.92c-.37,4.46-.17,8.35,.07,10.86,.02,.2,.19,.36,.39,.37,3.8,.16,7.36,.06,10.69-.27,2.21-.02,15.7-.36,25.58-11.47,8.12-9.12,8.59-19.65,8.63-22.47-3.89-3.82-7.77-7.63-11.66-11.45-2.36,.03-14.17,.41-23.74,9.99Z" fill="#ffcd00" stroke-width="0"/></g><g><path d="M48.06,2.18c-.1-.64-.64-1.14-1.29-1.18C31.09-.17,19.18,3.29,11.35,11.29,.14,22.76,.5,40.34,1.18,47.37c.07,.7,.65,1.24,1.35,1.27,1.24,.05,2.46,.08,3.65,.08,2.8,0,5.48-.14,8.02-.43h.01c11.02-1.24,19.53-5.16,25.38-11.72,11.2-12.53,9.02-30.85,8.46-34.39Zm-1.37-.19c.19,.01,.35,.16,.38,.34,.24,1.51,.77,5.77,.4,11.11L35.81,2c1.68-.14,3.4-.22,5.2-.22s3.73,.07,5.68,.22ZM2.57,47.65c-.2,0-.38-.17-.39-.37-.24-2.51-.44-6.4-.08-10.86l11.16,10.96c-3.34,.33-6.9,.43-10.69,.27Zm36.27-11.74c-5.61,6.28-13.75,10.07-24.29,11.33L2.22,35.14c.79-7.53,3.28-16.43,9.84-23.15C17.51,6.42,25.03,3.12,34.51,2.12l12.86,12.63c-.64,6.66-2.75,14.71-8.52,21.17Z" stroke-width="0"/><path d="M33.31,14.96l-2.19,2.21-1.45-1.42c-.2-.19-.51-.19-.71,0-.19,.2-.19,.51,0,.71l1.44,1.42-3.63,3.68-1.46-1.43c-.2-.19-.51-.19-.71,0-.19,.2-.19,.51,0,.71l1.46,1.43-3.69,3.73-1.47-1.44c-.2-.19-.51-.19-.71,0-.19,.2-.19,.51,0,.71l1.47,1.44-3.69,3.73-1.43-1.41c-.2-.19-.51-.19-.71,0-.19,.2-.19,.51,0,.71l1.43,1.41-2.38,2.41c-.19,.2-.19,.51,0,.71,.1,.1,.22,.14,.35,.14s.26-.05,.36-.15l2.39-2.42,1.52,1.49c.1,.1,.22,.14,.35,.14s.26-.05,.36-.15c.19-.2,.19-.51,0-.71l-1.52-1.49,3.69-3.73,1.48,1.46c.1,.1,.22,.14,.35,.14s.26-.05,.36-.15c.19-.2,.19-.51,0-.71l-1.48-1.45,3.69-3.73,1.49,1.47c.1,.1,.22,.14,.35,.14s.26-.05,.36-.15c.19-.2,.19-.51,0-.71l-1.49-1.47,3.63-3.68,1.51,1.48c.1,.1,.22,.14,.35,.14s.26-.05,.36-.15c.19-.2,.19-.51,0-.71l-1.51-1.48,2.18-2.21c.19-.2,.19-.51,0-.71-.2-.19-.51-.19-.71,0Z" stroke-width="0"/></g></svg>