<?xml version="1.0" encoding="UTF-8"?><svg width="70" height="70" xmlns="http://www.w3.org/2000/svg" viewBox="-10 -10 70 70"><rect x="-10" y="-10" width="70" height="70" fill="white"/><g id="uuid-8fb2e0a2-c5a0-4497-b387-c8b272e9a66d"><g><rect x="3.15" y="26.26" width="2.52" height="13.39" fill="#ffcd00"/><rect x="45.99" y="26.02" width="2.17" height="13.62" fill="#ffcd00"/><circle cx="27.36" cy="26.5" r="11.78" fill="#ffcd00"/><g><path d="M25.86,8.31c-9.2,0-16.69,7.49-16.69,16.69s7.49,16.69,16.69,16.69,16.69-7.49,16.69-16.69-7.49-16.69-16.69-16.69Zm0,32.38c-8.65,0-15.69-7.04-15.69-15.69s7.04-15.69,15.69-15.69,15.69,7.04,15.69,15.69-7.04,15.69-15.69,15.69Z" stroke-width="0"/><path d="M25.86,12.22c-7.05,0-12.78,5.73-12.78,12.78s5.73,12.78,12.78,12.78,12.78-5.73,12.78-12.78-5.73-12.78-12.78-12.78Zm0,24.57c-6.5,0-11.78-5.29-11.78-11.78s5.29-11.78,11.78-11.78,11.78,5.29,11.78,11.78-5.29,11.78-11.78,11.78Z" stroke-width="0"/><path d="M47.48,10.83c-.68-.53-1.5-.86-2.44-.96-.14-.01-.28,.03-.39,.12-.11,.1-.17,.23-.17,.37v14.62s0,.01,0,.02c0,0,0,.01,0,.02v14.62c0,.28,.22,.5,.5,.5h3.17c.28,0,.5-.22,.5-.5v-14.59c2.04-6.35,1.57-12.06-1.18-14.23Zm-1.99,.13c.52,.13,.98,.35,1.37,.66,2.35,1.85,2.72,7.11,.94,12.87h-2.31V10.95Zm2.17,28.19h-2.17v-13.62h2.17v13.62Z" stroke-width="0"/><path d="M7.23,9.85c-.28,0-.5,.22-.5,.5v6.39c-.1-.02-.19-.06-.29-.06h-.92l-.04-6.32c0-.27-.23-.5-.5-.5h0c-.28,0-.5,.23-.5,.5l.04,6.31h-1.23v-6.34c0-.28-.22-.5-.5-.5s-.5,.22-.5,.5v6.34h-.93c-.1,0-.19,.04-.29,.06v-6.38c0-.28-.22-.5-.5-.5s-.5,.22-.5,.5v8.86c0,.71,.58,1.29,1.29,1.29h.59v4.28c-.18,.07-.31,.25-.31,.46v14.39c0,.28,.22,.5,.5,.5h3.52c.28,0,.5-.22,.5-.5v-14.39c0-.21-.13-.39-.32-.46v-4.28h.59c.62,0,1.11-.45,1.24-1.03,.03-.07,.05-.14,.05-.22V10.35c0-.28-.22-.5-.5-.5Zm-1.88,9.67H1.37c-.16,0-.29-.13-.29-.29v-1.25c0-.16,.13-.29,.29-.29H6.44c.16,0,.29,.13,.29,.29v1.25c0,.16-.13,.29-.29,.29h-1.09Zm-.18,19.64H2.65v-13.39h2.52v13.39Zm-.32-14.5h-1.89v-4.14h1.89v4.14Z" stroke-width="0"/></g></g></g><g id="uuid-a00ecf12-b9d9-4add-bd21-7bad4f22537b"></g></svg>