<?xml version="1.0" encoding="UTF-8"?><svg width="70" height="70" xmlns="http://www.w3.org/2000/svg" viewBox="-10 -10 70 70"><rect x="-10" y="-10" width="70" height="70" fill="white"/><g id="uuid-b741eb27-9443-498b-9d18-c9d25ea5eb06"><g><rect x="17.44" y="26.96" width="3.66" height="22.84" fill="#ffcd00"/><rect x="33.1" y="26.78" width="3.66" height="23.19" fill="#ffcd00"/><g><path d="M34.64,1.57c-.96-.85-2.13-1.37-3.47-1.54-.14-.02-.29,.03-.39,.12-.11,.09-.17,.23-.17,.38V24.72s0,.02,0,.03c0,.01,0,.02,0,.03v24.19c0,.28,.22,.5,.5,.5h4.66c.28,0,.5-.22,.5-.5V24.78c2.97-10.38,2.32-19.7-1.62-23.21Zm-3.03-.45c.9,.2,1.7,.6,2.37,1.2,3.57,3.18,4.14,12.15,1.41,21.9h-3.78V1.12Zm3.66,47.35h-3.66V25.28h3.66v23.19Z" stroke-width="0"/><path d="M23.65,1.2c0-.41-.34-.75-.75-.75s-.75,.34-.75,.75V12.79h-1.89l-.07-11.56c0-.41-.34-.75-.75-.75h0c-.41,0-.75,.34-.75,.75l.07,11.55h-1.95V1.2c0-.41-.34-.75-.75-.75s-.75,.34-.75,.75V12.79h-1.92V1.23c0-.41-.34-.75-.75-.75s-.75,.34-.75,.75V15.01h0v.47c0,.71,.58,1.29,1.29,1.29h2.18v7.71c-.23,.04-.41,.24-.41,.48v23.84c0,.28,.22,.5,.5,.5h4.66c.28,0,.5-.22,.5-.5V24.96c0-.25-.19-.45-.42-.48v-7.71h2.19c.71,0,1.29-.58,1.29-1.29v-1.4s0-.03,0-.05V1.2Zm-3.97,14.57h-6.5c-.16,0-.29-.13-.29-.29v-1.4c0-.16,.13-.29,.29-.29h9.19c.16,0,.29,.13,.29,.29v1.4c0,.16-.13,.29-.29,.29h-2.69Zm-.08,32.53h-3.66V25.46h3.66v22.84Zm-.42-24.01h-2.82v-7.51h2.82v7.51Z" stroke-width="0"/></g></g></g><g id="uuid-a6ebc5a9-9f77-4c5e-b1fc-662d0d5a10db"></g></svg>