<?xml version="1.0" encoding="utf-8"?> <!-- Generator: Adobe Illustrator 27.7.0, SVG Export Plug-In . SVG Version: 6.00 Build 0) --> <svg width="70" height="70" version="1.1" xmlns="http://www.w3.org/2000/svg" xmlns:xlink="http://www.w3.org/1999/xlink" x="0px" y="0px" viewBox="-10 -10 70 70" style="enable-background:new 0 0 50 50;" xml:space="preserve"><rect x="-10" y="-10" width="70" height="70" fill="white"/> <style type="text/css"> .st0{fill:#FFCD00;} .st1{display:none;} .st2{display:inline;fill:none;stroke:#EA008A;stroke-width:0.2;stroke-miterlimit:10;} .st3{font-family:'Roboto-Regular';} .st4{font-size:6px;} </style> <g id="Color"> </g> <g id="ICONS_00000031165542127692736420000002692518830807990202_"> <path class="st0" d="M32.4969,36.824c0.1123-0.5947,0.1699-1.1748,0.1699-1.7266c0-4.2051-3.4434-10.1479-4.8223-11.5947 c-0.6123,0.1904-1.29,0.3457-1.9814,0.4551c1.1104,1.6782,2.7832,5.3477,2.7832,7.877c0,3.3467-2.4004,8.0596-7.7383,8.0596 s-7.9502-4.8004-7.9502-8.1471c0-2.6699,1.5059-6.1512,2.5694-7.7435c-0.6191-0.1343-0.8565-0.3188-1.5449-0.5112h-0.001 c-1.3711,1.4287-4.8311,7.3892-4.8311,11.605c0,0.5107,0.0498,1.0498,0.1465,1.6006c0.0361,0.2021-0.0557,0.4053-0.2295,0.5127 c-0.0596,0.0361-0.0928,0.0635-0.1826,0.1318c-2.3398,1.9287-3.3994,3.6807-3.0254,4.9668 c0.2705,0.9307,1.3979,1.7578,3.7305,1.892c-0.1445,0.1755-0.3175,0.438-0.4678,0.6754c-0.4913,0.776-1.0098,1.874-0.5078,2.8105 c0.501,0.9346,1.9258,1.5156,3.7188,1.5156c1.9824,0,3.0176-0.6328,3.0762-1.8799c-0.0586-1.7598-0.2676-3.8613-0.5586-5.582 c-0.0303-0.1816,0.041-0.3662,0.1875-0.4785c0.1455-0.1133,0.3438-0.1357,0.5107-0.0605c1.3457,0.6064,3.1699,1.3018,5.3594,1.3018 c1.6953,0,4.2002-0.7272,6.1621-1.612c0.0654-0.0293,0.1086-0.05,0.1449-0.0759c-0.4041,2.1397-0.7592,5.0756-0.8061,6.5463 c0.0576,1.208,1.0928,1.8408,3.0752,1.8408c1.7939,0,3.2197-0.5811,3.7207-1.5176c0.4902-0.915,0.0225-1.9951-0.4746-2.7578 c-0.0449-0.0518-0.0801-0.1143-0.1006-0.1836c-0.0703-0.2324,0.0371-0.4824,0.2549-0.5918 c0.0576-0.0283,0.1182-0.0459,0.1797-0.0508c1.2539-0.1592,2.1895-0.6221,2.6367-1.3027c0.3145-0.4795,0.374-1.0605,0.1787-1.7285 c-0.0469-0.1572-0.0127-0.3271,0.0908-0.4551c0.1025-0.1279,0.2656-0.1953,0.4258-0.1846 c2.6719,0.2041,5.0557-0.5557,6.9023-2.1816c2.1494-1.8926,3.4326-4.8506,3.6133-8.3301c0.127-2.457-0.416-4.5015-1.1104-6.4922 c-0.4805,0.5376-1.0244,0.9111-1.4561,1.1528c-0.1396,0.0791-0.3086,0.0845-0.4531,0.0181 c-0.1455-0.0669-0.25-0.1997-0.2812-0.3569c-0.1729-0.8691-0.7412-1.6763-1.2402-2.1904c-0.5732,1.0278-1.5537,2.0923-2.208,2.4766 c-0.1621,0.0938-0.3633,0.0913-0.5195-0.0083c-0.6543-0.4131-1.2871-0.8359-1.8174-1.3633 c0.0156,1.4946,0.3242,2.9106,0.9004,4.085c1.7949,3.6582,1.8107,7.2674-0.1631,9.2217c-1.75,1.7328-3.8418,1.7603-6.2913,0.7144 L32.4969,36.824z" stroke-width="0"/> <path class="st0" d="M10.6221,9.6265c0.2733-0.6163,0.7433-1.5012,1.4536-2.4114c-1.8931-1.4155-4.3594-1.704-6.5278-0.758 c-0.3124,1.9233,0.2452,3.8309,1.4763,5.2758c0.0735,0.0624,0.1384,0.1319,0.2151,0.1915 c0.4587,0.3563,0.9636,0.6413,1.4952,0.8636C9.3621,12.0363,10.0023,11.0228,10.6221,9.6265z" stroke-width="0"/> <path class="st0" d="M23.5684,10.0664c1.6713-0.7581,3.4993-0.7269,5.093,0.014c-0.0075-0.0168-0.0152-0.0317-0.0227-0.0486 c-0.3016-0.6791-0.8622-1.7167-1.766-2.7195c-1.3621-1.2025-3.311-2.1921-6.0358-2.1921c-4.4363,0-6.8147,2.6221-7.9536,4.516 c1.2246-0.2474,2.5139-0.1179,3.7231,0.4303c1.6391,0.7446,2.596,2.3672,3.2298,4.0364 C20.4701,12.4334,21.9286,10.8107,23.5684,10.0664z" stroke-width="0"/> <path class="st0" d="M35.4231,6.2051c-2.0231-0.623-4.2183-0.2466-5.925,1.0781c-0.1801,0.1395-0.7525,0.4741-1.0693,0.7356 c0.4152,0.6297,0.7181,1.2139,0.9146,1.6567c0.6197,1.3962,1.2598,2.4095,1.8873,3.1612c0.5305-0.2219,1.2445-0.5554,1.7039-0.9124 C34.7063,10.5485,35.6128,8.4077,35.4231,6.2051z" stroke-width="0"/> <path d="M45.1143,20.6328c-1.0557-2.8389-2.0518-5.52-1.2734-9.0063c0.0391-0.1748-0.0186-0.3569-0.1504-0.478 c-0.1318-0.1206-0.3203-0.1611-0.4902-0.1074c-2.8779,0.9185-5.165,3.0684-6.4375,6.0542 c-1.3613,3.1934-1.3633,6.897-0.0059,9.6655c1.6201,3.3008,1.6631,6.5088,0.1084,8.1729 c-1.0232,1.0971-2.6182,1.3229-4.3834,0.6313c0.0685-0.4877,0.1138-0.9596,0.1138-1.3871c0-4.2969-3.253-10.08-4.8845-12.028 c3.0773-1.1091,6.2097-3.1061,7.698-6.7103c0.0586-0.1406,0.0488-0.2998-0.0244-0.4326s-0.2031-0.2256-0.3525-0.251 c-0.7496-0.1288-1.8821-0.3307-3.1196-1.4584c0.486-0.2322,0.9558-0.4998,1.3852-0.8331c2.2734-1.7656,3.332-4.6206,2.7637-7.4517 c-0.0312-0.1538-0.1318-0.2837-0.2734-0.3521c-2.6025-1.252-5.6309-0.9331-7.9033,0.8325 c-0.2601,0.202-0.5019,0.4268-0.7338,0.6609c-1.5147-1.587-3.8429-3.034-7.314-3.034c-3.4713,0-5.7993,1.4466-7.3136,3.0334 c-0.2318-0.234-0.4734-0.4586-0.7333-0.6604C9.5176,3.7285,6.4883,3.4097,3.8857,4.6606C3.7441,4.729,3.6436,4.8589,3.6123,5.0127 c-0.5684,2.8311,0.4902,5.686,2.7637,7.4517c0.429,0.3333,0.8989,0.6008,1.3859,0.8334c-1.2372,1.1274-2.3698,1.3293-3.1193,1.4581 c-0.1494,0.0254-0.2793,0.1182-0.3525,0.251s-0.083,0.292-0.0244,0.4326c1.4882,3.6039,4.6202,5.601,7.6971,6.7101 C10.3314,24.097,7.0791,29.88,7.0791,34.1777c0,0.4512,0.0493,0.9508,0.1259,1.4683c-0.0231,0.0135-0.0488,0.02-0.0702,0.0375 c-3.3643,2.7754-3.6543,4.7861-3.3057,5.9844c0.3405,1.1709,1.4184,2.0135,3.0012,2.3763 c-0.6204,1.2023-0.579,2.1459-0.3342,2.8268c0.5342,1.4883,2.3604,2.4121,4.7656,2.4121c3.4307,0,4.0254-1.7754,4.0752-2.8721 c-0.0457-1.4245-0.3065-3.2427-0.5856-4.9501c1.2723,0.5352,3.0421,1.123,5.0856,1.123c2.0179,0,3.7195-0.5491,5.0871-1.1255 c-0.2797,1.7109-0.5402,3.5373-0.5851,4.9918c0.0488,1.0576,0.6436,2.833,4.0742,2.833c2.4053,0,4.2314-0.9238,4.7656-2.4121 c0.2461-0.6845,0.2877-1.6342-0.343-2.8455c1.2084-0.2803,2.1517-0.8297,2.6672-1.6165c0.3613-0.5512,0.5049-1.1935,0.4317-1.8829 c0.0496,0.0006,0.1009,0.0079,0.1503,0.0079c2.0498,0,3.9521-0.5283,5.5928-1.5791c3.0547-1.958,4.9365-5.5674,5.1611-9.9033 C47.0117,25.7373,46.0469,23.1426,45.1143,20.6328z M42.6992,12.2935c-0.5029,3.3579,0.502,6.064,1.4775,8.6875 c0.048,0.1292,0.0957,0.2598,0.1437,0.3895c-0.2896,0.4455-0.6456,0.8091-0.9972,1.0695 c-0.4609-1.2295-1.3975-2.1641-1.8965-2.5273c-0.125-0.0908-0.2881-0.1191-0.4375-0.0747s-0.2695,0.1562-0.3242,0.3022 c-0.3125,0.8281-1.2051,1.9336-1.8369,2.4355c-0.813-0.5264-1.5488-1.0919-1.9977-1.8733 c0.1324-1.0891,0.4109-2.1802,0.8522-3.2151C38.7178,15.0601,40.4805,13.2432,42.6992,12.2935z M28.498,6.2832 c1.9062-1.4795,4.4238-1.7861,6.6279-0.8262c0.3857,2.3745-0.5361,4.7378-2.4414,6.2173c-0.4594,0.357-0.964,0.6414-1.4945,0.8633 c-0.6276-0.7516-1.2676-1.765-1.8873-3.1612c-0.2773-0.6248-0.7545-1.5251-1.4814-2.4483 C28.0383,6.704,28.2511,6.4745,28.498,6.2832z M19.8369,4.1201c5.4502,0,7.7959,3.9595,8.5518,5.6616 c0.0075,0.017,0.0152,0.0318,0.0227,0.0486c-1.5938-0.7409-3.4218-0.772-5.093-0.014c-1.6398,0.7443-2.8476,2.0933-3.4814,3.7626 c-0.6338-1.6692-1.8414-3.0181-3.4805-3.7626c-1.6721-0.7581-3.4992-0.7264-5.0933,0.0145c0.0076-0.017,0.0154-0.032,0.0229-0.0491 C12.041,8.0796,14.3857,4.1201,19.8369,4.1201z M19.8369,17.0254c0.3291,0,0.9668,0.2842,1.2822,0.832l-1.2822,0.6748 l-1.2812-0.6748C18.8701,17.3096,19.5078,17.0254,19.8369,17.0254z M4.5479,5.457c2.2061-0.9624,4.7236-0.6538,6.6289,0.8262 c0.2468,0.1912,0.4594,0.4204,0.6761,0.6445c-0.7269,0.9235-1.2038,1.8239-1.4808,2.4488 c-0.6198,1.3964-1.2599,2.4098-1.8876,3.1615c-0.5316-0.2224-1.0365-0.5074-1.4952-0.8636 C5.084,10.1948,4.1621,7.8315,4.5479,5.457z M5.4404,15.6143c1.6355-0.3881,3.3201-1.2932,4.906-3.9918 c1.5866-1.4302,3.673-1.7678,5.5959-0.8954c2.0439,0.9281,3.3036,2.9703,3.3781,5.3829c-0.7498,0.2102-1.6238,0.8395-1.8791,1.8602 c-0.0557,0.2231,0.0488,0.4561,0.252,0.5635l1.9102,1.0059c0.0732,0.0386,0.1533,0.0576,0.2334,0.0576s0.1602-0.019,0.2324-0.0576 l1.9111-1.0059c0.2041-0.1074,0.3086-0.3398,0.2529-0.5635c-0.2553-1.0208-1.1299-1.6501-1.8801-1.8602 c0.0745-2.4127,1.3342-4.4553,3.3781-5.3829c1.9213-0.8712,4.0078-0.5354,5.5961,0.894c1.5861,2.6997,3.2711,3.605,4.9068,3.9932 c-3.291,6.7173-13.2451,6.9155-14.3975,6.9155S8.7314,22.3315,5.4404,15.6143z M23.667,23.2842 c0.6807,0.6392,2.9082,4.8184,2.9082,7.6309c0,2.9316-2.0908,7.0596-6.7383,7.0596s-6.7383-4.1279-6.7383-7.0596 c0-2.8135,2.2275-6.9917,2.9092-7.6309c0.0275-0.0258,0.0425-0.0585,0.0629-0.0885c1.8934,0.3079,3.3566,0.3341,3.7662,0.3341 s1.8731-0.0262,3.7669-0.3342C23.6243,23.2256,23.6393,23.2583,23.667,23.2842z M4.7891,41.3887 c-0.354-1.2172,0.5896-2.8535,2.638-4.632c0.3434,1.3834,0.9736,2.8692,1.9722,4.2714c-0.8796,0.7612-1.5331,1.464-1.9995,2.105 C6.0116,42.8942,5.0415,42.2573,4.7891,41.3887z M32.2373,46.5332c-0.3877,1.0791-1.8525,1.75-3.8242,1.75 c-1.9824,0-3.0176-0.6328-3.0752-1.8408c0.0596-1.8525,0.5049-4.4521,0.8623-6.54c0.0996-0.5811,0.1924-1.126,0.2705-1.6094 c0.043-0.2725-0.1426-0.5293-0.415-0.5732c-0.2676-0.042-0.5283,0.1416-0.5732,0.415c-0.0762,0.4805-0.1689,1.0215-0.2676,1.5986 c-0.0316,0.1842-0.0645,0.3768-0.097,0.5681c-0.0279,0.0074-0.057,0.0077-0.0836,0.0198 c-1.3047,0.5879-3.0742,1.2627-5.1973,1.2627s-3.8926-0.6748-5.1855-1.2568l-0.1737-0.1l0.091,0.1418 c-0.0353-0.2077-0.0707-0.4155-0.1049-0.6151c-0.1006-0.585-0.1943-1.1328-0.2715-1.6191c-0.0449-0.2734-0.2969-0.457-0.5732-0.415 c-0.2725,0.0439-0.458,0.3008-0.415,0.5732c0.0781,0.4893,0.1729,1.041,0.2734,1.6299c0.3564,2.082,0.8008,4.6729,0.8604,6.4805 c-0.0586,1.2471-1.0938,1.8799-3.0762,1.8799c-1.9717,0-3.4375-0.6709-3.8252-1.75c-0.4313-1.2012,0.5121-2.9,2.5705-4.7014 c0.2873,0.3408,0.595,0.6747,0.9324,0.9954c0.0967,0.0918,0.2207,0.1377,0.3447,0.1377c0.1318,0,0.2646-0.0518,0.3623-0.1553 c0.1904-0.2002,0.1826-0.5166-0.0176-0.707c-2.6201-2.4893-3.5498-5.8252-3.5498-7.9248c0-4.3161,3.6204-10.4479,4.9194-11.6855 c0.6715,0.2025,1.3297,0.3656,1.9589,0.4968c-1.0602,1.4396-2.8588,5.2419-2.8588,7.9261c0,3.3467,2.4004,8.0596,7.7383,8.0596 s7.7383-4.7129,7.7383-8.0596c0-2.6827-1.7981-6.4858-2.8581-7.9261c0.6291-0.1312,1.2871-0.2943,1.9584-0.4966 c1.2999,1.2378,4.9202,7.3704,4.9202,11.6854c0,2.1006-0.9297,5.4355-3.5508,7.9248c-0.2002,0.1895-0.208,0.5068-0.0176,0.707 c0.0977,0.1035,0.2305,0.1553,0.3623,0.1553c0.124,0,0.248-0.0459,0.3447-0.1377c0.3376-0.3207,0.6456-0.6548,0.933-0.9957 C31.7261,43.6329,32.6696,45.332,32.2373,46.5332z M34.667,41.8613c-0.4113,0.6263-1.2842,1.0712-2.398,1.2639 c-0.4661-0.639-1.1176-1.3391-1.9938-2.0974c0.3367-0.4727,0.645-0.9518,0.9007-1.4378c1.2721,0.4678,2.5251,0.7675,3.7361,0.8821 C35.0022,40.996,34.9271,41.4646,34.667,41.8613z M45.8408,28.999c-0.209,4.0107-1.9229,7.332-4.7031,9.1143 c-2.6039,1.6675-5.976,1.8536-9.5364,0.5644c0.3095-0.7222,0.5372-1.4341,0.6954-2.1207c2.0974,0.7625,4.0156,0.4323,5.3-0.9408 c1.8682-2.001,1.8906-5.5625,0.0586-9.2969c-0.5983-1.2186-0.8978-2.6431-0.9116-4.1201c0.5355,0.5374,1.1638,0.98,1.8286,1.3994 c0.1562,0.0996,0.3574,0.1021,0.5195,0.0083c0.6543-0.3843,1.6348-1.4487,2.208-2.4766c0.499,0.5142,1.0674,1.3213,1.2402,2.1904 c0.0312,0.1572,0.1357,0.29,0.2812,0.3569c0.0664,0.0308,0.1377,0.0459,0.209,0.0459c0.085,0,0.1689-0.0215,0.2451-0.064 c0.4308-0.2418,0.9709-0.6267,1.4504-1.1629C45.4096,24.4566,45.9686,26.5349,45.8408,28.999z" stroke-width="0"/> <path class="st0" d="M19.192,18.1926l0.645,0.3397l1.2822-0.6748c-0.0061-0.0106-0.0159-0.0176-0.0222-0.028 c-0.2758-0.1897-0.5685-0.3041-0.76-0.3041C20.0461,17.5254,19.5281,17.7623,19.192,18.1926z" stroke-width="0"/> <g> <g> <circle cx="15.4652" cy="14.7529" r="0.9248"/> <circle cx="24.2092" cy="14.7529" r="0.9248"/> <path d="M45.1143,20.6328c-1.0557-2.8389-2.0518-5.52-1.2734-9.0063c0.0391-0.1748-0.0186-0.3569-0.1504-0.478 c-0.1318-0.1206-0.3203-0.1611-0.4902-0.1074c-2.8779,0.9185-5.165,3.0684-6.4375,6.0542 c-1.3613,3.1934-1.3633,6.897-0.0059,9.6655c1.6201,3.3008,1.6631,6.5088,0.1084,8.1729 c-1.0232,1.0971-2.6182,1.3229-4.3834,0.6313c0.0685-0.4877,0.1138-0.9596,0.1138-1.3871c0-4.2969-3.253-10.08-4.8845-12.028 c3.0773-1.1091,6.2097-3.1061,7.698-6.7103c0.0586-0.1406,0.0488-0.2998-0.0244-0.4326s-0.2031-0.2256-0.3525-0.251 c-0.7496-0.1288-1.8821-0.3307-3.1196-1.4584c0.486-0.2322,0.9558-0.4998,1.3852-0.8331 c2.2734-1.7656,3.332-4.6206,2.7637-7.4517c-0.0312-0.1538-0.1318-0.2837-0.2734-0.3521 c-2.6025-1.252-5.6309-0.9331-7.9033,0.8325c-0.2601,0.202-0.5019,0.4268-0.7338,0.6609c-1.5147-1.587-3.8429-3.034-7.314-3.034 c-3.4713,0-5.7993,1.4466-7.3136,3.0334c-0.2318-0.234-0.4734-0.4586-0.7333-0.6604C9.5176,3.7285,6.4883,3.4097,3.8857,4.6606 C3.7441,4.729,3.6436,4.8589,3.6123,5.0127c-0.5684,2.8311,0.4902,5.686,2.7637,7.4517c0.429,0.3333,0.8989,0.6008,1.3859,0.8334 c-1.2372,1.1274-2.3698,1.3293-3.1193,1.4581c-0.1494,0.0254-0.2793,0.1182-0.3525,0.251s-0.083,0.292-0.0244,0.4326 c1.4882,3.6039,4.6202,5.601,7.6971,6.7101C10.3314,24.097,7.0791,29.88,7.0791,34.1777c0,0.4512,0.0493,0.9508,0.1259,1.4683 c-0.0231,0.0135-0.0488,0.02-0.0702,0.0375c-3.3643,2.7754-3.6543,4.7861-3.3057,5.9844 c0.3405,1.1709,1.4184,2.0135,3.0012,2.3763c-0.6204,1.2023-0.579,2.1459-0.3342,2.8268 c0.5342,1.4883,2.3604,2.4121,4.7656,2.4121c3.4307,0,4.0254-1.7754,4.0752-2.8721c-0.0457-1.4245-0.3065-3.2427-0.5856-4.9501 c1.2723,0.5352,3.0421,1.123,5.0856,1.123c2.0179,0,3.7195-0.5491,5.0871-1.1255c-0.2797,1.7109-0.5402,3.5373-0.5851,4.9918 c0.0488,1.0576,0.6436,2.833,4.0742,2.833c2.4053,0,4.2314-0.9238,4.7656-2.4121c0.2461-0.6845,0.2877-1.6342-0.343-2.8455 c1.2084-0.2803,2.1517-0.8297,2.6672-1.6165c0.3613-0.5512,0.5049-1.1935,0.4317-1.8829 c0.0496,0.0006,0.1009,0.0079,0.1503,0.0079c2.0498,0,3.9521-0.5283,5.5928-1.5791c3.0547-1.958,4.9365-5.5674,5.1611-9.9033 C47.0117,25.7373,46.0469,23.1426,45.1143,20.6328z M42.6992,12.2935c-0.5029,3.3579,0.502,6.064,1.4775,8.6875 c0.048,0.1292,0.0957,0.2598,0.1437,0.3895c-0.2896,0.4455-0.6456,0.8091-0.9972,1.0695 c-0.4609-1.2295-1.3975-2.1641-1.8965-2.5273c-0.125-0.0908-0.2881-0.1191-0.4375-0.0747s-0.2695,0.1562-0.3242,0.3022 c-0.3125,0.8281-1.2051,1.9336-1.8369,2.4355c-0.813-0.5264-1.5488-1.0919-1.9977-1.8733 c0.1324-1.0891,0.4109-2.1802,0.8522-3.2151C38.7178,15.0601,40.4805,13.2432,42.6992,12.2935z M28.498,6.2832 c1.9062-1.4795,4.4238-1.7861,6.6279-0.8262c0.3857,2.3745-0.5361,4.7378-2.4414,6.2173 c-0.4594,0.357-0.964,0.6414-1.4945,0.8633c-0.6276-0.7516-1.2676-1.765-1.8873-3.1612 c-0.2773-0.6248-0.7545-1.5251-1.4814-2.4483C28.0383,6.704,28.2511,6.4745,28.498,6.2832z M19.8369,4.1201 c5.4502,0,7.7959,3.9595,8.5518,5.6616c0.0075,0.017,0.0152,0.0318,0.0227,0.0486c-1.5938-0.7409-3.4218-0.772-5.093-0.014 c-1.6398,0.7443-2.8476,2.0933-3.4814,3.7626c-0.6338-1.6692-1.8414-3.0181-3.4805-3.7626 c-1.6721-0.7581-3.4992-0.7264-5.0933,0.0145c0.0076-0.017,0.0154-0.032,0.0229-0.0491 C12.041,8.0796,14.3857,4.1201,19.8369,4.1201z M19.8369,17.0254c0.3291,0,0.9668,0.2842,1.2822,0.832l-1.2822,0.6748 l-1.2812-0.6748C18.8701,17.3096,19.5078,17.0254,19.8369,17.0254z M4.5479,5.457c2.2061-0.9624,4.7236-0.6538,6.6289,0.8262 c0.2468,0.1912,0.4594,0.4204,0.6761,0.6445c-0.7269,0.9235-1.2038,1.8239-1.4808,2.4488 c-0.6198,1.3964-1.2599,2.4098-1.8876,3.1615c-0.5316-0.2224-1.0365-0.5074-1.4952-0.8636 C5.084,10.1948,4.1621,7.8315,4.5479,5.457z M5.4404,15.6143c1.6355-0.3881,3.3201-1.2932,4.906-3.9918 c1.5866-1.4302,3.673-1.7678,5.5959-0.8954c2.0439,0.9281,3.3036,2.9703,3.3781,5.3829 c-0.7498,0.2102-1.6238,0.8395-1.8791,1.8602c-0.0557,0.2231,0.0488,0.4561,0.252,0.5635l1.9102,1.0059 c0.0732,0.0386,0.1533,0.0576,0.2334,0.0576s0.1602-0.019,0.2324-0.0576l1.9111-1.0059 c0.2041-0.1074,0.3086-0.3398,0.2529-0.5635c-0.2553-1.0208-1.1299-1.6501-1.8801-1.8602 c0.0745-2.4127,1.3342-4.4553,3.3781-5.3829c1.9213-0.8712,4.0078-0.5354,5.5961,0.894c1.5861,2.6997,3.2711,3.605,4.9068,3.9932 c-3.291,6.7173-13.2451,6.9155-14.3975,6.9155S8.7314,22.3315,5.4404,15.6143z M23.667,23.2842 c0.6807,0.6392,2.9082,4.8184,2.9082,7.6309c0,2.9316-2.0908,7.0596-6.7383,7.0596s-6.7383-4.1279-6.7383-7.0596 c0-2.8135,2.2275-6.9917,2.9092-7.6309c0.0275-0.0258,0.0425-0.0585,0.0629-0.0885c1.8934,0.3079,3.3566,0.3341,3.7662,0.3341 s1.8731-0.0262,3.7669-0.3342C23.6243,23.2256,23.6393,23.2583,23.667,23.2842z M4.7891,41.3887 c-0.354-1.2172,0.5896-2.8535,2.638-4.632c0.3434,1.3834,0.9736,2.8692,1.9722,4.2714c-0.8796,0.7612-1.5331,1.464-1.9995,2.105 C6.0116,42.8942,5.0415,42.2573,4.7891,41.3887z M32.2373,46.5332c-0.3877,1.0791-1.8525,1.75-3.8242,1.75 c-1.9824,0-3.0176-0.6328-3.0752-1.8408c0.0596-1.8525,0.5049-4.4521,0.8623-6.54c0.0996-0.5811,0.1924-1.126,0.2705-1.6094 c0.043-0.2725-0.1426-0.5293-0.415-0.5732c-0.2676-0.042-0.5283,0.1416-0.5732,0.415c-0.0762,0.4805-0.1689,1.0215-0.2676,1.5986 c-0.0316,0.1842-0.0645,0.3768-0.097,0.5681c-0.0279,0.0074-0.057,0.0077-0.0836,0.0198 c-1.3047,0.5879-3.0742,1.2627-5.1973,1.2627s-3.8926-0.6748-5.1855-1.2568l-0.1737-0.1l0.091,0.1418 c-0.0353-0.2077-0.0707-0.4155-0.1049-0.6151c-0.1006-0.585-0.1943-1.1328-0.2715-1.6191 c-0.0449-0.2734-0.2969-0.457-0.5732-0.415c-0.2725,0.0439-0.458,0.3008-0.415,0.5732c0.0781,0.4893,0.1729,1.041,0.2734,1.6299 c0.3564,2.082,0.8008,4.6729,0.8604,6.4805c-0.0586,1.2471-1.0938,1.8799-3.0762,1.8799c-1.9717,0-3.4375-0.6709-3.8252-1.75 c-0.4313-1.2012,0.5121-2.9,2.5705-4.7014c0.2873,0.3408,0.595,0.6747,0.9324,0.9954c0.0967,0.0918,0.2207,0.1377,0.3447,0.1377 c0.1318,0,0.2646-0.0518,0.3623-0.1553c0.1904-0.2002,0.1826-0.5166-0.0176-0.707c-2.6201-2.4893-3.5498-5.8252-3.5498-7.9248 c0-4.3161,3.6204-10.4479,4.9194-11.6855c0.6715,0.2025,1.3297,0.3656,1.9589,0.4968c-1.0602,1.4396-2.8588,5.2419-2.8588,7.9261 c0,3.3467,2.4004,8.0596,7.7383,8.0596s7.7383-4.7129,7.7383-8.0596c0-2.6827-1.7981-6.4858-2.8581-7.9261 c0.6291-0.1312,1.2871-0.2943,1.9584-0.4966c1.2999,1.2378,4.9202,7.3704,4.9202,11.6854c0,2.1006-0.9297,5.4355-3.5508,7.9248 c-0.2002,0.1895-0.208,0.5068-0.0176,0.707c0.0977,0.1035,0.2305,0.1553,0.3623,0.1553c0.124,0,0.248-0.0459,0.3447-0.1377 c0.3376-0.3207,0.6456-0.6548,0.933-0.9957C31.7261,43.6329,32.6696,45.332,32.2373,46.5332z M34.667,41.8613 c-0.4113,0.6263-1.2842,1.0712-2.398,1.2639c-0.4661-0.639-1.1176-1.3391-1.9938-2.0974 c0.3367-0.4727,0.645-0.9518,0.9007-1.4378c1.2721,0.4678,2.5251,0.7675,3.7361,0.8821 C35.0022,40.996,34.9271,41.4646,34.667,41.8613z M45.8408,28.999c-0.209,4.0107-1.9229,7.332-4.7031,9.1143 c-2.6039,1.6675-5.976,1.8536-9.5364,0.5644c0.3095-0.7222,0.5372-1.4341,0.6954-2.1207c2.0974,0.7625,4.0156,0.4323,5.3-0.9408 c1.8682-2.001,1.8906-5.5625,0.0586-9.2969c-0.5983-1.2186-0.8978-2.6431-0.9116-4.1201c0.5355,0.5374,1.1638,0.98,1.8286,1.3994 c0.1562,0.0996,0.3574,0.1021,0.5195,0.0083c0.6543-0.3843,1.6348-1.4487,2.208-2.4766c0.499,0.5142,1.0674,1.3213,1.2402,2.1904 c0.0312,0.1572,0.1357,0.29,0.2812,0.3569c0.0664,0.0308,0.1377,0.0459,0.209,0.0459c0.085,0,0.1689-0.0215,0.2451-0.064 c0.4308-0.2418,0.9709-0.6267,1.4504-1.1629C45.4096,24.4566,45.9686,26.5349,45.8408,28.999z" stroke-width="0"/> </g> </g> </g> <g id="Margin" class="st1"> <rect x="1" y="1" class="st2" /> </g> <g id="Guides" class="st1"> </g> <g id="LABELS"> <g> <g> <g> <g> <g> </g> </g> </g> </g> </g> </g> </svg> 