<?xml version="1.0" encoding="UTF-8"?><svg width="70" height="70" xmlns="http://www.w3.org/2000/svg" viewBox="-10 -10 70 70"><rect x="-10" y="-10" width="70" height="70" fill="white"/><g id="uuid-5afa0a08-8aeb-4690-a08e-e62f316c2719"><g><path d="M46.94,27.87c-5.52-5.52-11.05-11.05-16.57-16.57-3.5,3.27-7,6.54-10.5,9.81-.2,.21-.67,.66-1.4,.83-.13,.03-.68,.15-1.49-.08-.27-.07-2.71-.76-2.97-2.72-.17-1.25,.65-2.24,.86-2.47L25.18,6.26c-.78-.61-2.04-1.45-3.74-2.03-.65-.22-2.16-.67-4.1-.67h0c-3.43,0-6.65,1.33-9.07,3.76l-1.27,1.27c-4.77,4.77-4.99,12.39-.66,17.43,.88-.27,1.88-.17,2.66,.33,.27,.09,1.34,.48,1.65,1.42,.14,.42,.09,.85,.03,1.32-.07,.56-.21,1.01-.33,1.32,.15-.04,2.2-.62,2.51-.02,.05,.09,.07,.24-.04,.51,.43,.07,.85,.23,1.22,.48,.31,.14,.84,.45,1.22,1.05,.92,1.45,0,3.18-.04,3.26,.19-.1,.78-.38,1.53-.25,.54,.1,.91,.36,1.08,.5,.45,.07,.88,.22,1.25,.48,.38,.34,.89,.9,1.13,1.71,.36,1.17-.12,1.94,.33,2.52,.25,.32,.83,.62,2.33,.37,.44,.06,.87,.21,1.25,.45,.78,.26,1.04,.61,1.13,.87,.05,.15,.03,.22,.08,.58,.08,.54,.19,.85,.25,1.07,.24,.98-.38,1.47-.21,2.11,.12,.42,.59,.92,2.16,1.25,1.2,1.17,3.13,1.17,4.31-.02,1.16-1.16,1.2-3.02,.08-4.24l-.42-.42,.76-.66,.37,.37h0c1.22,1.11,3.08,1.08,4.24-.08,.58-.58,.89-1.35,.89-2.17,0-.55-.15-.96-.22-1.16-.31-.76-.85-1.19-1.1-1.38l1.23-.27c1.2,1.11,3.08,1.09,4.25-.07,.58-.58,.89-1.35,.89-2.17,0-.64-.19-1.24-.54-1.74-.93-.81-1.34-1.29-1.25-1.44,.1-.16,.8,.08,2.1,.7,.3,.19,.77,.42,1.37,.48,.07,0,1.46,.12,2.48-.88,.12-.12,.37-.39,.58-.8,.21-.42,.32-.88,.32-1.37,0-.82-.32-1.59-.89-2.17Z" fill="#ffcd00" stroke-width="0"/><polygon points="44.91 6.63 44.91 6.63 44.91 6.63 44.91 6.63"/><path d="M49.75,16.13c-.07-5.31-3.38-8.72-4.47-9.84l-.36,.35,.36-.35h0c-2-2.05-6.21-5.42-12.11-4.9-3.98,.35-6.84,2.33-8.37,3.69-2.57-2.41-5.89-3.74-9.43-3.74h0c-3.69,0-7.17,1.44-9.78,4.05l-1.27,1.27c-5.35,5.35-5.39,14.03-.13,19.44-.08,.07-.17,.13-.25,.2l-.31,.31c-1.59,1.59-1.59,4.17,0,5.76,.79,.79,1.84,1.19,2.88,1.19,.39,0,.77-.07,1.14-.18-.11,.37-.18,.75-.18,1.14,0,1.09,.42,2.11,1.19,2.88s1.79,1.19,2.88,1.19c.41,0,.8-.08,1.17-.19-.11,.38-.19,.77-.19,1.17,0,1.09,.42,2.11,1.19,2.88,.77,.77,1.79,1.19,2.88,1.19,.41,0,.79-.08,1.17-.19-.42,1.39-.1,2.95,1,4.05,.79,.79,1.84,1.19,2.88,1.19s2.08-.4,2.88-1.19l.3-.31c.07-.07,.12-.15,.18-.22,.77,.69,1.73,1.05,2.7,1.05,1.04,0,2.08-.4,2.88-1.19,1.08-1.08,1.43-2.62,1.03-4,1.38,.4,2.92,.05,4-1.03,.77-.77,1.19-1.79,1.19-2.88,0-.39-.05-.78-.16-1.14,1.38,.4,2.93,.06,4.02-1.03,.77-.77,1.19-1.79,1.19-2.88,0-.39-.05-.78-.16-1.14,1.38,.4,2.93,.06,4.02-1.03,.77-.77,1.19-1.79,1.19-2.88s-.42-2.1-1.18-2.87c1.16-1.18,4.12-4.71,4.06-9.81ZM25.15,6.09c1.32-1.24,4.12-3.37,8.1-3.71,5.48-.48,9.43,2.68,11.3,4.6l.36-.35-.36,.35c1.13,1.16,4.13,4.25,4.19,9.16,.06,4.69-2.65,7.95-3.75,9.07l-14.73-14.73c-.09-.09-.22-.15-.35-.15s-.26,.05-.35,.15l-10.37,10.37c-.76,.76-1.84,1.07-2.9,.83-.58-.13-1.1-.42-1.51-.83-1.21-1.22-1.21-3.19,0-4.41L25.15,6.09ZM4.33,31.65c-1.2-1.2-1.2-3.14,0-4.34l.31-.31c1.15-1.15,3.19-1.15,4.34,0,.58,.58,.9,1.35,.9,2.17s-.32,1.59-.9,2.17l-.3,.31c-1.2,1.2-3.14,1.2-4.34,0Zm5.03,5.03c-.58-.58-.89-1.35-.89-2.17,0-.77,.29-1.49,.79-2.05,.04-.04,.09-.06,.12-.1l.3-.31s.07-.08,.1-.12c.58-.52,1.31-.8,2.05-.8,.79,0,1.57,.3,2.17,.9,1.2,1.2,1.2,3.14,0,4.34l-.31,.31c-1.15,1.15-3.19,1.16-4.34,0Zm5.05,5.05c-.58-.58-.9-1.35-.9-2.17s.32-1.59,.9-2.17l.31-.31c.58-.58,1.35-.9,2.17-.9s1.59,.32,2.17,.9c1.2,1.2,1.2,3.14,0,4.34l-.31,.31c-1.16,1.15-3.19,1.15-4.34,0Zm9.69,4.74l-.3,.31c-1.2,1.2-3.14,1.2-4.34,0-1.2-1.2-1.2-3.14,0-4.34l.31-.31c1.15-1.16,3.19-1.15,4.34,0,.58,.58,.89,1.35,.89,2.17s-.32,1.59-.89,2.17Zm21.78-17.66c0,.82-.32,1.59-.89,2.17-1.2,1.2-3.14,1.2-4.34,0l-9.84-9.84c-.2-.2-.51-.2-.71,0s-.2,.51,0,.71l9.84,9.84h0c.58,.58,.89,1.35,.89,2.17s-.32,1.59-.89,2.17c-1.18,1.18-3.07,1.19-4.27,.06l-9.9-9.9c-.2-.2-.51-.2-.71,0s-.2,.51,0,.71l9.84,9.84h0c.58,.58,.89,1.35,.89,2.18s-.32,1.59-.89,2.17c-1.16,1.16-3.02,1.2-4.24,.08h0l-9.99-9.89c-.2-.19-.51-.19-.71,0-.19,.2-.19,.51,0,.71l9.98,9.88c1.11,1.22,1.08,3.08-.08,4.24-1.19,1.19-3.12,1.19-4.31,.02,.28-.56,.45-1.18,.45-1.83,0-1.09-.42-2.11-1.19-2.88s-1.79-1.19-2.88-1.19c-.41,0-.79,.08-1.17,.19,.42-1.39,.1-2.95-1-4.05-.77-.77-1.79-1.19-2.88-1.19-.41,0-.79,.08-1.17,.19,.42-1.39,.1-2.95-1-4.05-1.09-1.09-2.64-1.41-4.02-1.01,.11-.37,.18-.75,.18-1.14,0-1.09-.42-2.11-1.19-2.88s-1.79-1.19-2.88-1.19c-.63,0-1.24,.16-1.79,.43l-.02-.02C0,20.51,0,12.37,5,7.36l1.27-1.27c2.42-2.42,5.65-3.76,9.07-3.76h0c3.26,0,6.33,1.22,8.71,3.43L14.08,15.74c-1.6,1.61-1.6,4.22,0,5.82,.54,.54,1.23,.92,2,1.09,1.39,.32,2.82-.09,3.82-1.09l10-10,15.07,15.07c.58,.58,.89,1.35,.89,2.17Z" stroke-width="0"/></g></g><g id="uuid-7c719bc7-e0e9-49f3-a547-d3775554924b"></g></svg>