<?xml version="1.0" encoding="UTF-8"?><svg width="70" height="70" xmlns="http://www.w3.org/2000/svg" viewBox="-10 -10 70 70"><rect x="-10" y="-10" width="70" height="70" fill="white"/><g id="uuid-90a1fc53-1171-4a1e-ab15-aa4622dcf3c9"><polygon points="36.07 42.4 36.07 44.18 29.28 44.18 29.28 42.4 34.58 42.4 36.07 42.4" fill="#ffcd00"/><polygon points="34.08 39.62 34.08 41.4 28.78 41.4 27.29 41.4 27.29 39.62 34.08 39.62" fill="#ffcd00"/><path d="m26.3,2.53c2.4,0,4.36,1.95,4.36,4.36s-1.96,4.36-4.36,4.36-4.36-1.96-4.36-4.36,1.96-4.36,4.36-4.36Z" fill="#ffcd00" stroke-width="0"/><polygon points="28.26 36.77 27.1 38.12 21.94 33.71 23.1 32.36 28.26 36.77" fill="#ffcd00"/><polygon points="26.29 39.62 26.29 41.4 24.74 41.4 19.5 41.4 19.5 39.62 24.01 39.62 26.29 39.62" fill="#ffcd00"/><polygon points="24.24 42.4 24.24 44.18 17.46 44.18 17.46 42.4 19 42.4 24.24 42.4" fill="#ffcd00"/><polygon points="23.51 36.84 23.51 38.62 19 38.62 16.72 38.62 16.72 36.84 23.51 36.84" fill="#ffcd00"/></g><g id="uuid-36ea150b-eb64-44a8-ae82-1c11ec15a070"><path d="m39.55,26.81v16.39c0,2.48-2.02,4.5-4.5,4.5h-18.78c-2.49,0-4.5-2.02-4.5-4.5v-16.39c0-1.72.66-3.35,1.87-4.57l3.91-3.95v-1.74h-.3c-.27,0-.5-.22-.5-.5s.23-.5.5-.5h.3v-1.12c0-.83.67-1.5,1.5-1.5h13.21c.83,0,1.5.67,1.5,1.5v1.12h.27c.28,0,.5.22.5.5s-.22.5-.5.5h-.27v1.74l3.91,3.95c1.21,1.22,1.88,2.85,1.88,4.57Zm-1,16.39v-16.39c0-1.46-.57-2.83-1.59-3.87l-3.9-3.95h-2.63c-.28,0-.5-.22-.5-.5s.22-.5.5-.5h2.33v-1.44h-4.23c-.28,0-.5-.22-.5-.5s.22-.5.5-.5h4.23v-1.12c0-.28-.22-.5-.5-.5h-13.21c-.28,0-.5.22-.5.5v1.12h1.61c.28,0,.5.22.5.5s-.22.5-.5.5h-1.61v1.44h4.76c.28,0,.5.23.5.5s-.22.5-.5.5h-5.05l-3.91,3.95c-1.02,1.04-1.58,2.41-1.58,3.87v16.39c0,1.93,1.57,3.5,3.5,3.5h18.78c1.93,0,3.5-1.57,3.5-3.5Z" stroke-width="0"/><path d="m36.33,41.16v2.78c0,.28-.22.5-.5.5h-7.79c-.28,0-.5-.22-.5-.5v-2.28h-3.04v2.28c0,.28-.22.5-.5.5h-7.78c-.28,0-.5-.22-.5-.5v-2.78c0-.27.22-.5.5-.5h1.54v-1.78h-2.28c-.27,0-.5-.22-.5-.5v-2.78c0-.28.23-.5.5-.5h6.67l-1.98-1.69c-.21-.18-.24-.5-.06-.71l1.81-2.11c.18-.21.5-.23.71-.05l5.92,5.06c.21.18.23.49.05.7l-1.35,1.58h6.59c.28,0,.5.22.5.5v2.28h1.49c.28,0,.5.23.5.5Zm-1,2.28v-1.78h-6.79v1.78h6.79Zm-1.99-2.78v-1.78h-6.79v1.78h6.79Zm-6.98-3.28l1.16-1.35-5.16-4.41-1.16,1.35,5.16,4.41Zm-.81,3.28v-1.78h-6.79v1.78h6.79Zm-1.78-2.78h1.63l-1.63-1.39v1.39Zm-.27,5.56v-1.78h-6.78v1.78h6.78Zm-.73-5.56v-1.78h-6.79v1.78h6.79Z" stroke-width="0"/><path d="m36.27,28.32c0,.27-.23.5-.5.5s-.5-.23-.5-.5c0-1.46-.57-2.83-1.59-3.87-.2-.2-.19-.51,0-.71.2-.19.52-.19.71.01,1.21,1.22,1.88,2.85,1.88,4.57Z" stroke-width="0"/><path d="m25.66.89c2.96,0,5.36,2.4,5.36,5.36s-2.4,5.36-5.36,5.36-5.36-2.41-5.36-5.36S22.71.89,25.66.89Zm4.36,5.36c0-2.41-1.96-4.36-4.36-4.36s-4.36,1.95-4.36,4.36,1.96,4.36,4.36,4.36,4.36-1.96,4.36-4.36Z" stroke-width="0"/><path d="m27.59,5.2h-1.13c0-.32-.06-.55-.19-.7-.13-.16-.3-.24-.52-.24s-.38.06-.5.18c-.11.13-.17.29-.17.51,0,.19.05.35.17.47.11.12.33.24.64.37.31.12.56.24.76.35.21.11.37.24.51.38s.25.3.32.48c.07.17.11.38.11.62,0,.44-.14.8-.42,1.08s-.65.43-1.14.48v.78h-.62v-.77c-.53-.06-.94-.25-1.24-.57-.29-.32-.44-.75-.44-1.28h1.13c0,.31.08.54.22.71.15.16.36.25.64.25.23,0,.41-.06.54-.18s.2-.29.2-.49c0-.22-.06-.39-.18-.51-.12-.13-.32-.25-.6-.35-.29-.11-.53-.22-.74-.32-.2-.11-.38-.23-.53-.37-.14-.13-.26-.29-.34-.48-.08-.18-.12-.4-.12-.66,0-.44.14-.8.42-1.08s.65-.45,1.12-.49v-.84h.63v.85c.46.07.82.26,1.08.58s.39.73.39,1.24Z" stroke-width="0"/></g></svg>