<?xml version="1.0" encoding="UTF-8"?><svg width="70" height="70" xmlns="http://www.w3.org/2000/svg" viewBox="-10 -10 70 70"><rect x="-10" y="-10" width="70" height="70" fill="white"/><g id="uuid-6a22b213-ae93-4225-9e47-1102f146ed02"><path d="M16.53,27.74c.07,.05,.13,.12,.18,.19,.09,.15,.12,.3,.13,.41,.14,1.49,1.26,2.63,2.61,2.65h.03c.61,0,1.18-.24,1.64-.7,.65-.65,1.01-1.62,1.01-2.2,0-.25-.19-.46-.44-.49-.02,0-.04-.01-.06-.01-.28,0-.5,.22-.5,.5s-.21,1-.71,1.49c-.28,.28-.63,.39-.96,.42-.82-.01-1.54-.78-1.63-1.73-.02-.22-.08-.54-.29-.87-.12-.19-.27-.35-.48-.49-.02-.01-1.75-1.05-1.82-2.92-.04-.94,.33-1.88,1.01-2.58,.61-.63,1.39-.98,2.19-.98,1.76,0,3.2,1.61,3.2,3.59,0,.25,.19,.46,.44,.49,.02,0,.04,.01,.06,.01,.28,0,.5-.22,.5-.5,0-2.53-1.88-4.59-4.2-4.59-1.07,0-2.11,.46-2.91,1.29-.87,.9-1.34,2.11-1.29,3.32,.09,2.41,2.22,3.69,2.28,3.72Z" stroke-width="0"/><path d="M20.56,27.04c-.1-.03-.2-.04-.29,0,.18-.51,.47-1.42,.55-2,.02-.19,.04-.37,.04-.38,.02-.33,0-.65-.07-1.01-.05-.21-.37-1.27-1.31-1.66-.98-.4-1.94,.2-2.42,.93-.31,.47-.4,.98-.42,1.24-.04,.42,0,.85,.12,1.24,.08,.26,.36,.41,.63,.33,.26-.08,.41-.36,.33-.63-.06-.19-.12-.48-.08-.84,.01-.14,.07-.49,.27-.8,.19-.29,.68-.77,1.2-.55,.41,.17,.65,.7,.71,.95,.04,.25,.06,.5,.05,.75,0,0,0,.15-.03,.29-.08,.58-.45,1.68-.56,1.98-.12,.29-.12,.62,0,.91,.1,.24,.27,.41,.48,.49,.09,.03,.18,.05,.27,.05,.11,0,.23-.02,.34-.07,.23-.11,.42-.32,.52-.59,.09-.26-.05-.53-.31-.62Z" stroke-width="0"/><path d="M45.4,33.9c.06-1.16-.24-2.34-.88-3.52-3.33,1.46-6.83,2.56-10.39,3.27-3.12,.62-7.82,1.57-13.77,.77-3.59-.48-7.07-1.48-10.37-2.98,1.02,2,1.67,4.12,1.94,6.34,.61,5.08-1,9.23-2.28,11.62l21.28-.26c-.21-1.71,.52-3.38,1.88-4.19,1.32-.79,2.72-.49,3.26-.33,1.4,.51,2.56,.54,3.47,.1,.77-.37,1.02-.92,1.69-2.37,.29-.64,.66-1.43,1.17-2.41,.76-1.47,1.37-2.42,1.85-3.19,.76-1.2,1.1-1.75,1.16-2.83Z" fill="#ffcd00" stroke-width="0"/><path d="M43.4,27.73c-.13-.21-.4-.3-.63-.19-.03,.01-.06,.03-.1,.04-.78-1.7-1.56-3.71-1.56-4.86,0-.71,.16-1.61,.34-2.65,.42-2.39,.93-5.35-.18-7.87C38.25,5.33,28.75-.58,18.68,1.83,6.51,4.74,5.24,14.48,5.34,21.55c.04,2.82,.61,4.83,1.37,6.63-.02,.01-.04,.01-.05,.03-.15,.16-.18,.41-.06,.6,1.4,2.27,2.27,4.74,2.58,7.33,.65,5.38-1.34,9.67-2.58,11.75-.09,.16-.09,.35,0,.51,.09,.15,.25,.25,.43,.25h0l2.09-.03s.08,.03,.12,.03c.03,0,.06-.02,.09-.03l20.44-.25c.15,0,.3-.07,.39-.19,.09-.12,.13-.28,.09-.43-.38-1.5,.16-3.02,1.31-3.7,1-.6,2.14-.33,2.43-.24,1.64,.6,3.06,.61,4.23,.05,1.09-.53,1.45-1.3,2.16-2.85,.29-.63,.65-1.4,1.15-2.37,.74-1.43,1.33-2.37,1.81-3.12,.78-1.23,1.24-1.97,1.32-3.32,.08-1.49-.34-3-1.25-4.48Zm-3.93,12.86c-.67,1.45-.92,2-1.69,2.37-.91,.44-2.07,.41-3.47-.1-.54-.17-1.94-.46-3.26,.33-1.36,.81-2.08,2.48-1.88,4.19l-21.28,.26c1.28-2.39,2.9-6.54,2.28-11.62-.27-2.21-.92-4.34-1.94-6.34,3.3,1.5,6.78,2.5,10.37,2.98,5.95,.79,10.65-.15,13.77-.77,3.56-.71,7.06-1.81,10.39-3.27,.65,1.18,.95,2.36,.88,3.52-.06,1.09-.4,1.64-1.16,2.83-.49,.77-1.09,1.73-1.85,3.19-.51,.98-.87,1.77-1.17,2.41ZM18.92,2.8c6.49-1.56,17.56,.98,21.44,9.79,.99,2.24,.5,5.04,.11,7.3-.19,1.09-.35,2.03-.35,2.83,0,1.31,.82,3.45,1.64,5.24-3.08,1.3-6.29,2.31-9.57,2.96-3.05,.61-7.66,1.53-13.44,.76-3.77-.5-7.41-1.61-10.84-3.26-.85-1.87-1.51-3.91-1.56-6.88-.11-7.3,1.23-16.02,12.57-18.74Z" stroke-width="0"/></g><g id="uuid-bdf52577-7364-4e6e-bae1-11a956d32bd0"></g></svg>