<?xml version="1.0" encoding="utf-8"?> <!-- Generator: Adobe Illustrator 27.7.0, SVG Export Plug-In . SVG Version: 6.00 Build 0) --> <svg width="70" height="70" version="1.1" xmlns="http://www.w3.org/2000/svg" xmlns:xlink="http://www.w3.org/1999/xlink" x="0px" y="0px" viewBox="-10 -10 70 70" style="enable-background:new 0 0 50 50;" xml:space="preserve"><rect x="-10" y="-10" width="70" height="70" fill="white"/> <style type="text/css"> .st0{fill:#FFCD00;} .st1{display:none;} .st2{display:inline;fill:none;stroke:#EA008A;stroke-width:0.2;stroke-miterlimit:10;} .st3{font-family:'Roboto-Regular';} .st4{font-size:6px;} </style> <g id="Color"> <path class="st0" d="M19.2969,27.665v11.6201c0,5.5117,3.6372,8.8281,6.8242,10.0342c3.187-1.2061,6.8242-4.5225,6.8242-10.0342 V27.665c-2.2261,1.1592-4.5688,1.7686-6.8242,1.7686S21.5229,28.8242,19.2969,27.665z" stroke-width="0"/> <path class="st0" d="M24.2759,23.2705h3.6904L29.022,6.4668c-0.001-1.5684-1.3018-2.8691-2.9009-2.8691 s-2.8999,1.3008-2.8999,2.9004L24.2759,23.2705z" stroke-width="0"/> </g> <g id="ICONS_00000031165542127692736420000002692518830807990202_"> <g> <path d="M32.5693,24.8848c-0.1553-0.0879-0.3467-0.0898-0.501,0.002c-2.1301,1.2438-4.3909,1.9351-6.5723,2.0281v-4.1443h1.8149 c0.2642,0,0.4824-0.2051,0.499-0.4688L28.896,4.998c0-2.1504-1.7495-3.9004-3.8999-3.9004s-3.8999,1.75-3.8989,3.9316 l1.085,17.2725c0.0166,0.2637,0.2349,0.4688,0.499,0.4688h1.8149v4.1443c-2.1813-0.093-4.4422-0.7844-6.5723-2.0281 c-0.1543-0.0918-0.3457-0.0908-0.501-0.002s-0.251,0.2549-0.251,0.4336v12.4668c0,6.1122,4.1019,9.7554,7.6273,11.0256 c0.0019,0.0009,0.0036,0.0014,0.0055,0.0022c0.0078,0.0028,0.0157,0.0065,0.0235,0.0093c0.0542,0.0195,0.1113,0.0293,0.168,0.0293 s0.1138-0.0098,0.168-0.0293c0.0078-0.0027,0.0157-0.0065,0.0235-0.0093c0.0019-0.0008,0.0037-0.0015,0.0055-0.0022 c3.5253-1.2702,7.6273-4.9124,7.6273-11.0256V25.3184C32.8203,25.1396,32.7246,24.9736,32.5693,24.8848z M22.0962,4.998 c0-1.5996,1.3008-2.9004,2.8999-2.9004s2.8999,1.3008,2.9009,2.8691l-1.0557,16.8037h-3.6904L22.0962,4.998z M31.8203,37.7852 c0,5.2255-3.2689,8.4744-6.3242,9.8257v-8.272c0-0.2764-0.2236-0.5-0.5-0.5s-0.5,0.2236-0.5,0.5v8.272 c-3.0554-1.3514-6.3242-4.6002-6.3242-9.8257V26.165c2.2261,1.1592,4.5688,1.7686,6.8242,1.7686s4.5981-0.6094,6.8242-1.7686 V37.7852z" stroke-width="0"/> <path d="M25,3.8785c-0.5509,0-0.9975,0.4466-0.9975,0.9976c0,0.5509,0.4466,0.9975,0.9975,0.9975s0.9976-0.4466,0.9976-0.9975 C25.9976,4.3251,25.5509,3.8785,25,3.8785z" stroke-width="0"/> </g> </g> <g id="Margin" class="st1"> <rect x="1" y="1" class="st2" /> </g> <g id="Guides" class="st1"> </g> <g id="LABELS"> <g> <g> <g> <g> <g> <g> </g> </g> </g> </g> </g> </g> </g> </svg> 