<?xml version="1.0" encoding="UTF-8"?><svg width="70" height="70" id="uuid-c17d2dbb-8507-456f-8a8d-84140a12961b" xmlns="http://www.w3.org/2000/svg" viewBox="-10 -10 70 70"><rect x="-10" y="-10" width="70" height="70" fill="white"/><path d="M35.29,6.78c-2.78-1.19-5.67-1.75-8.52-1.75-8.44,0-16.47,4.94-20,13.17-4.71,11.01,.41,23.8,11.42,28.51,11.01,4.71,23.8-.41,28.51-11.42s-.41-23.8-11.42-28.51Zm-10.28,15.99c1.36,0,2.47,1.11,2.47,2.47s-1.11,2.47-2.47,2.47-2.47-1.11-2.47-2.47,1.11-2.47,2.47-2.47Zm7.82,13.92h-15.52v-3.21h15.52v3.21Z" fill="#ffcd00" stroke-width="0"/><path d="M46.68,31.78c.2-.63,.36-1.27,.5-1.9,.02-.11,.05-.21,.07-.32,.12-.58,.21-1.16,.28-1.74,.03-.21,.05-.42,.07-.63,.05-.49,.07-.97,.09-1.46,.01-.31,.01-.62,.01-.94,0-.4-.02-.8-.05-1.2-.02-.36-.05-.72-.09-1.08-.04-.37-.09-.74-.15-1.11-.03-.21-.06-.43-.1-.64-.05-.24-.11-.48-.16-.71-.06-.26-.12-.52-.19-.78-.13-.52-.29-1.03-.46-1.54-.04-.13-.09-.25-.13-.37-.2-.57-.43-1.13-.68-1.68-.05-.12-.11-.24-.17-.36-.24-.5-.49-1-.77-1.48-.15-.26-.3-.52-.46-.77-.03-.04-.05-.09-.08-.13-.08-.13-.15-.26-.23-.39-.07-.11-.16-.22-.24-.33-.02-.03-.04-.06-.07-.09-.21-.3-.43-.6-.65-.9-.22-.29-.45-.58-.68-.85-.26-.3-.52-.6-.79-.9-.22-.23-.43-.45-.66-.67-.34-.34-.7-.67-1.06-.99-.16-.14-.33-.28-.5-.41-.45-.37-.91-.72-1.4-1.06-.06-.04-.11-.08-.17-.12-.11-.07-.22-.14-.32-.21-.47-.31-.96-.61-1.46-.89-.2-.11-.4-.21-.6-.31-.38-.19-.76-.38-1.15-.55-.3-.14-.61-.26-.92-.38-.39-.15-.78-.3-1.17-.43-.26-.09-.52-.17-.78-.25-.51-.15-1.03-.28-1.54-.4-.12-.03-.25-.06-.37-.08-.67-.13-1.33-.24-2-.31-.03,0-.06,0-.1-.01-.73-.08-1.47-.12-2.2-.12h-.04c-8.86-.04-17.32,5.13-21.02,13.78-2.39,5.58-2.46,11.75-.2,17.39s6.57,10.05,12.15,12.44c2.91,1.24,5.93,1.83,8.91,1.83,8.82,0,17.23-5.17,20.92-13.78,.29-.67,.53-1.35,.75-2.03,.01-.04,.03-.09,.04-.13Zm-30.23,13.18c-5.33-2.28-9.46-6.51-11.62-11.89-.99-2.47-1.49-5.05-1.54-7.64l3.84,.03h0c.27,0,.5-.22,.5-.5,0-.28-.22-.5-.5-.5l-3.85-.03c.07-2.51,.58-5.01,1.53-7.41l3.52,1.51c.06,.03,.13,.04,.2,.04,.19,0,.38-.11,.46-.3,.11-.25,0-.55-.26-.66l-3.54-1.51c1.05-2.34,2.47-4.41,4.16-6.17l2.69,2.74c.1,.1,.23,.15,.36,.15s.25-.05,.35-.14c.2-.19,.2-.51,0-.71l-2.69-2.74c1.84-1.74,3.95-3.13,6.24-4.12l1.57,3.81c.08,.19,.27,.31,.46,.31,.06,0,.13-.01,.19-.04,.26-.1,.38-.4,.27-.65l-1.57-3.82c2.37-.91,4.9-1.4,7.47-1.44l-.03,4.13c0,.28,.22,.5,.5,.5h0c.27,0,.5-.22,.5-.5l.03-4.12c.52,.02,1.04,.03,1.55,.08,.04,0,.09,.01,.13,.02,.65,.07,1.3,.17,1.93,.3,.11,.02,.21,.05,.32,.07,.5,.11,.99,.24,1.48,.38,.25,.07,.49,.15,.73,.23,.38,.13,.76,.26,1.13,.41,.04,.02,.09,.04,.13,.05l-1.63,3.8c-.11,.25,0,.55,.26,.66,.06,.03,.13,.04,.2,.04,.19,0,.38-.11,.46-.3l1.62-3.79c.47,.21,.93,.43,1.37,.67,.04,.02,.08,.04,.12,.06,.55,.3,1.08,.64,1.6,.98,.05,.03,.1,.07,.16,.1,.5,.34,.99,.71,1.46,1.1,.06,.05,.13,.1,.19,.15,.42,.36,.83,.74,1.23,1.13l-2.95,2.89c-.2,.19-.2,.51,0,.71,.1,.1,.23,.15,.36,.15s.25-.05,.35-.14l2.94-2.89c.3,.32,.59,.64,.87,.97,.09,.11,.18,.21,.26,.32,.32,.4,.61,.81,.9,1.22,.19,.27,.37,.55,.55,.84,.21,.33,.41,.68,.6,1.02,.14,.26,.28,.52,.41,.78,.17,.34,.32,.68,.47,1.03l-3.58,1.47c-.26,.1-.38,.4-.27,.65,.08,.19,.27,.31,.46,.31,.06,0,.13-.01,.19-.04l3.58-1.47h0c.16,.43,.31,.86,.44,1.28,.09,.28,.17,.56,.24,.85,.1,.38,.19,.76,.27,1.15,.05,.24,.1,.49,.14,.74,.08,.46,.15,.93,.2,1.4,.02,.15,.03,.29,.04,.44,.04,.53,.06,1.07,.07,1.62l-3.88-.03c-.28,.02-.5,.22-.5,.5s.22,.5,.5,.5l3.88,.03c-.02,.45-.04,.89-.08,1.34-.02,.2-.05,.4-.07,.6-.07,.56-.15,1.11-.27,1.66-.02,.1-.05,.2-.07,.3-.14,.61-.29,1.22-.48,1.82-.01,.04-.03,.08-.04,.12-.21,.65-.45,1.3-.72,1.94-4.71,11.01-17.5,16.13-28.51,11.42Z" stroke-width="0"/><path d="M25.01,28.7c1.91,0,3.47-1.55,3.47-3.47,0-1.06-.49-2.01-1.25-2.64l6.18-8.61c.16-.22,.11-.54-.11-.7-.23-.16-.54-.11-.7,.11l-6.21,8.65h0c-.42-.17-.88-.27-1.37-.27-1.91,0-3.47,1.55-3.47,3.47s1.55,3.47,3.47,3.47Zm0-5.93c1.36,0,2.47,1.11,2.47,2.47s-1.11,2.47-2.47,2.47-2.47-1.11-2.47-2.47,1.11-2.47,2.47-2.47Z" stroke-width="0"/><path d="M33.34,32.48H16.82c-.28,0-.5,.22-.5,.5v4.21c0,.28,.22,.5,.5,.5h16.52c.28,0,.5-.22,.5-.5v-4.21c0-.28-.22-.5-.5-.5Zm-.5,4.21h-15.52v-3.21h15.52v3.21Z" stroke-width="0"/></svg>