<?xml version="1.0" encoding="UTF-8"?><svg width="70" height="70" xmlns="http://www.w3.org/2000/svg" viewBox="-10 -10 70 70"><rect x="-10" y="-10" width="70" height="70" fill="white"/><g id="uuid-6e7a9a32-9c76-4d7c-ae79-3c5c376c53c4"><g><circle cx="23.44" cy="23.46" r="14.49" fill="#ffcd00"/><g><path d="M43.54,.91s0-.08-.02-.11c-.02-.04-.04-.07-.07-.11-.01-.02-.02-.04-.03-.06h0s-.08-.07-.13-.09c-.01,0-.02-.01-.03-.02-.02,0-.04,0-.06-.01-.04-.01-.08-.03-.13-.03h-7.22c-.28,0-.5,.22-.5,.5s.22,.5,.5,.5h5.97l-9.45,9.04h0c-2.76-2.52-6.41-4.07-10.43-4.07-8.54,0-15.5,6.95-15.5,15.5s6.68,15.2,15,15.47v7.23h-4.63c-.28,0-.5,.22-.5,.5s.22,.5,.5,.5h4.63v3.35c0,.28,.22,.5,.5,.5s.5-.22,.5-.5v-3.35h4.63c.28,0,.5-.22,.5-.5s-.22-.5-.5-.5h-4.63v-7.23c8.31-.27,15-7.09,15-15.47,0-4.17-1.66-7.95-4.35-10.73L42.56,2.16V7.87c0,.28,.22,.5,.5,.5s.5-.22,.5-.5V.99s-.01-.05-.02-.07ZM21.94,36.46c-7.99,0-14.5-6.5-14.5-14.5S13.94,7.47,21.94,7.47s14.5,6.5,14.5,14.5-6.5,14.5-14.5,14.5Z" stroke-width="0"/><path d="M29.22,18.8H14.66c-.28,0-.5,.22-.5,.5s.22,.5,.5,.5h14.56c.28,0,.5-.22,.5-.5s-.22-.5-.5-.5Z" stroke-width="0"/><path d="M29.22,24.12H14.66c-.28,0-.5,.22-.5,.5s.22,.5,.5,.5h14.56c.28,0,.5-.22,.5-.5s-.22-.5-.5-.5Z" stroke-width="0"/></g></g></g><g id="uuid-d1fcdf04-4c3f-412a-a814-fedc6a9016b4"></g></svg>