<?xml version="1.0" encoding="utf-8"?> <!-- Generator: Adobe Illustrator 27.7.0, SVG Export Plug-In . SVG Version: 6.00 Build 0) --> <svg width="70" height="70" version="1.1" xmlns="http://www.w3.org/2000/svg" xmlns:xlink="http://www.w3.org/1999/xlink" x="0px" y="0px" viewBox="-10 -10 70 70" style="enable-background:new 0 0 50 50;" xml:space="preserve"><rect x="-10" y="-10" width="70" height="70" fill="white"/> <style type="text/css"> .st0{fill:#FFCD00;} .st1{display:none;} .st2{display:inline;fill:none;stroke:#EA008A;stroke-width:0.2;stroke-miterlimit:10;} .st3{font-family:'Roboto-Regular';} .st4{font-size:6px;} </style> <g id="Color"> <path class="st0" d="M20.9629,36.5664c0.1123,0,0.2227,0.0381,0.3125,0.1094c4.2705,2.6855,9.6621,1.2461,12.9834-0.7979 c0.1143-0.0703,0.251-0.0908,0.3818-0.0596l0.4775,0.1191c1.4951,0.3789,3.2959,0.8291,4.3721,0.3936 c-0.9678-0.6211-1.8193-1.334-2.4443-2.0527c-0.0879-0.1016-0.1309-0.2344-0.1201-0.3672 c0.0098-0.1338,0.0742-0.2578,0.1768-0.3438c3.666-3.0732,5.5586-6.6514,5.6074-8.7354c-0.6553-0.4326-1.585-0.6816-2.8975-0.7812 c-3.5557-0.2842-4.7646,1.3232-5.6445,2.4883l-0.1152,0.1523c-0.0537,0.0674-0.0947,0.1318-0.1377,0.1953 c-0.085,0.1309-0.2451,0.2422-0.4004,0.2539c-0.5381,0.0381-1.7871,0.2354-1.7607,1.2275 c0.0068,0.2588,0.0801,0.4824,0.2236,0.6836c0.0801,0.1113,0.1104,0.251,0.085,0.3857c-0.0264,0.1348-0.1064,0.2529-0.2227,0.3271 c-0.1318,0.084-0.2744,0.1709-0.4443,0.2334c-6.4404,1.5273-8.6562-0.7266-11.0029-3.1123 c-0.2158-0.2207-0.4355-0.4434-0.6602-0.666c-0.9043-0.8955-1.875-1.2305-2.7949-0.9668 c-1.1035,0.3135-2.0439,1.4629-2.3955,2.9268c-0.4512,1.876,0.1523,3.8076,1.6133,5.166c0.1416,0.1328,0.1943,0.335,0.1348,0.5195 c-0.0596,0.1855-0.2207,0.3184-0.4131,0.3428c-1.2666,0.1592-2.21,0.5439-2.749,0.8789c1.5342,0.1084,2.5928,0.5967,3.5459,1.0371 c0.9111,0.4199,1.6973,0.7871,2.7451,0.71c0.5049-0.0352,0.9746-0.1172,1.3984-0.2461 C20.8652,36.5732,20.9141,36.5664,20.9629,36.5664z" stroke-width="0"/> <circle class="st0" cx="26.125" cy="24.1279" r="1.6328"/> </g> <g id="ICONS_00000031165542127692736420000002692518830807990202_"> <g> <path d="M46.6836,23.0029c0-11.9561-9.7275-21.6826-21.6836-21.6826S3.3164,11.0469,3.3164,23.0029S13.0439,44.6865,25,44.6865 c3.3417,0,6.5086-0.761,9.3384-2.1171l2.5854,5.1103H12.2627c-0.2764,0-0.5,0.2236-0.5,0.5s0.2236,0.5,0.5,0.5h25.4746 c0.1738,0,0.335-0.0898,0.4258-0.2383c0.0908-0.1475,0.0986-0.332,0.0205-0.4873l-2.9539-5.8386 C42.041,38.455,46.6836,31.2617,46.6836,23.0029z M34.7776,41.222l-2.6963-5.3293c0.3541-0.1781,0.6981-0.3616,1.0202-0.5538 l0.2725,0.0684c2.1543,0.543,4.5938,1.1592,5.9004-0.2715c0.0067-0.0074,0.0082-0.0176,0.0144-0.0253 c0.0059-0.0073,0.0151-0.0099,0.0208-0.0176l1.0439-1.4385c0.1621-0.2236,0.1133-0.5361-0.1104-0.6982 c-0.2227-0.1611-0.5352-0.1143-0.6982,0.1104l-0.7734,1.0657c-0.8077-0.4944-1.5536-1.0651-2.127-1.6409 c3.9609-3.4717,5.6641-7.2949,5.5615-9.4414c-0.0068-0.1455-0.0762-0.2812-0.1914-0.3711c-0.8242-0.6426-1.9766-1-3.626-1.126 c-4.1064-0.3037-5.6162,1.6885-6.5186,2.8838l-0.1123,0.1494c-0.0191,0.025-0.0259,0.0542-0.0396,0.0813 c-0.5766,0.066-1.1467,0.2297-1.5991,0.5417c-0.584,0.4043-0.8838,0.9873-0.8652,1.6855 c0.0066,0.2515,0.0557,0.4802,0.1258,0.6958c-0.484,0.1093-0.9374,0.1935-1.3679,0.2586l-1.6348-3.2312 c0.4584-0.3915,0.7557-0.9663,0.7557-1.6148c0-1.1758-0.957-2.1328-2.1328-2.1328s-2.1328,0.957-2.1328,2.1328 s0.957,2.1328,2.1328,2.1328c0.1683,0,0.3301-0.0244,0.4872-0.0615l1.4664,2.8984c-3.8151,0.2914-5.4167-1.3236-7.3472-3.2881 c-0.2207-0.2236-0.4424-0.4502-0.6709-0.6758c-1.1602-1.1475-2.501-1.582-3.7715-1.2178 c-0.3531,0.1004-0.6887,0.2606-1.0027,0.4673c-1.1486-1.7494-1.4038-3.7852-0.6926-5.7866 c0.7783-2.1904,2.6299-4.0459,4.5029-4.5127c0.2676-0.0674,0.4307-0.3389,0.3643-0.6064 c-0.0674-0.2686-0.3379-0.4297-0.6064-0.3643c-2.2139,0.5527-4.3047,2.6211-5.2021,5.1484 c-0.835,2.3491-0.5159,4.7389,0.8707,6.7776c-0.6139,0.6547-1.0856,1.5229-1.3278,2.5309 c-0.4639,1.9268,0.0029,3.8975,1.251,5.4355c-1.6424,0.3767-3.1121,1.1791-3.184,2.0991 c-0.0072,0.037-0.0197,0.0725-0.0181,0.1119c0.0001,0.0025,0.0014,0.0045,0.0015,0.0069 c0.0001,0.0013-0.0006,0.0026-0.0005,0.0038c0.0003,0.0043,0.0037,0.0077,0.004,0.012c0.0068,0.0842,0.0348,0.1577,0.0751,0.2236 c0.0022,0.0035,0.0016,0.0081,0.0039,0.0115l1.5576,2.3311c0.0967,0.1445,0.2549,0.2227,0.416,0.2227 c0.0957,0,0.1924-0.0273,0.2773-0.084c0.2305-0.1533,0.292-0.4639,0.1387-0.6934l-1.027-1.5367 c1.3459,0.0959,2.2832,0.5244,3.1891,0.942c0.9033,0.417,1.7607,0.8125,2.8857,0.8125c0.1133,0,0.2295-0.0039,0.3486-0.0117 c0.5029-0.0352,0.9666-0.1127,1.3922-0.2247c1.7985,1.0931,3.763,1.5372,5.7035,1.5372c2.1526,0,4.2687-0.5438,6.0894-1.3291 l2.7023,5.3412c-2.6942,1.2875-5.6968,2.0299-8.8766,2.0299c-11.4053,0-20.6836-9.2783-20.6836-20.6836 C4.3164,11.5986,13.5947,2.3203,25,2.3203s20.6836,9.2783,20.6836,20.6826C45.6836,30.873,41.2638,37.7271,34.7776,41.222z M21.3672,30.1006c-0.1357-0.2422-0.4414-0.3262-0.6807-0.1924c-0.2412,0.1348-0.3271,0.4395-0.1924,0.6807 c0.7627,1.3623,0.9365,2.5068,0.5029,3.3086c-0.4424,0.8184-1.5352,1.3281-3.0781,1.4365c-1.0479,0.0771-1.834-0.29-2.7451-0.71 c-0.9523-0.4402-2.0246-0.9178-3.5505-1.0289c0.5358-0.3372,1.4753-0.7267,2.7536-0.8871 c0.1924-0.0244,0.3535-0.1572,0.4131-0.3428c0.0596-0.1846,0.0068-0.3867-0.1348-0.5195c-1.4609-1.3594-2.0645-3.29-1.6133-5.166 c0.3525-1.4639,1.293-2.6133,2.3955-2.9268c0.9238-0.2637,1.8906,0.0713,2.7949,0.9668c0.2246,0.2227,0.4443,0.4453,0.6602,0.666 c2.0238,2.0591,3.9598,4.0128,8.5446,3.5428l3.2873,6.4976c-3.0002,1.283-6.8388,1.8539-10.1461,0.2047 c0.5746-0.3226,1.0203-0.7424,1.2986-1.2577C22.2988,33.5928,22.5518,32.2188,21.3672,30.1006z M28.4857,28.7855 c0.4314-0.0724,0.8773-0.158,1.3532-0.2708c0.0382-0.009,0.0689-0.0305,0.1026-0.0472c0.1295,0.1144,0.2724,0.217,0.4355,0.2992 c0.3555,0.1797,0.7637,0.2676,1.2012,0.2676c0.8564,0,1.8271-0.335,2.7412-0.9736c0.2266-0.1582,0.2822-0.4697,0.124-0.6963 c-0.1592-0.2285-0.4717-0.2803-0.6963-0.124c-1.209,0.8457-2.3359,0.9268-2.9199,0.6338 c-0.3672-0.1855-0.5605-0.5244-0.5732-1.0068c-0.0098-0.3584,0.1279-0.624,0.4336-0.835 c0.7647-0.5273,2.2051-0.4717,2.8623-0.2041c0.2559,0.1035,0.5469-0.0176,0.6523-0.2734 c0.1045-0.2559-0.0176-0.5479-0.2734-0.6523c-0.2589-0.1063-0.6013-0.1849-0.9776-0.2305c0.8693-1.106,2.166-2.3764,5.3614-2.121 c1.3125,0.0996,2.2422,0.3486,2.8975,0.7812c-0.0488,2.084-1.9414,5.6621-5.6074,8.7354c-0.1025,0.0859-0.166,0.21-0.1768,0.3428 c-0.0107,0.1338,0.0322,0.2666,0.1201,0.3672c0.623,0.7188,1.4746,1.4326,2.4443,2.0537 c-1.0762,0.4355-2.877-0.0146-4.3721-0.3936l-0.4775-0.1191c-0.1309-0.0312-0.2676-0.0107-0.3818,0.0596 c-0.3527,0.2168-0.7329,0.4245-1.1283,0.6235L28.4857,28.7855z M25,24.1357c-0.625,0-1.1328-0.5078-1.1328-1.1328 S24.375,21.8701,25,21.8701s1.1328,0.5078,1.1328,1.1328S25.625,24.1357,25,24.1357z" stroke-width="0"/> <path d="M37.5746,25.4501c0.517-0.039,0.9044-0.4897,0.8653-1.0067c-0.039-0.5169-0.4897-0.9044-1.0067-0.8653 c-0.517,0.0391-0.9044,0.4897-0.8653,1.0067C36.6069,25.1017,37.0577,25.4891,37.5746,25.4501z" stroke-width="0"/> </g> </g> <g id="Margin" class="st1"> <rect x="1" y="1" class="st2" /> </g> <g id="Guides" class="st1"> </g> <g id="LABELS"> <g> <g> <g> <g> <g> <g> <g> </g> </g> </g> </g> </g> </g> </g> </g> </svg> 