<?xml version="1.0" encoding="UTF-8"?><svg width="70" height="70" xmlns="http://www.w3.org/2000/svg" viewBox="-10 -10 70 70"><rect x="-10" y="-10" width="70" height="70" fill="white"/><g id="uuid-ddb76c38-4990-4034-aa2e-712cdb8f7204"><g><path d="M12.67,24.54c-5.11,0-9.26,4.15-9.26,9.26s4.15,9.26,9.26,9.26,9.26-4.15,9.26-9.26-4.15-9.26-9.26-9.26Z" fill="#ffcd00" stroke-width="0"/><path d="M40.08,24.48c-5.11,0-9.26,4.15-9.26,9.26s4.15,9.26,9.26,9.26,9.26-4.15,9.26-9.26-4.15-9.26-9.26-9.26Z" fill="#ffcd00" stroke-width="0"/><path d="M47.4,27.2h0c-.44-2.87-2.7-17.25-3.96-18.76-1.39-1.66-3.78-1.5-3.88-1.5-.27,.02-.48,.26-.46,.53s.26,.48,.53,.46c.02,0,1.99-.12,3.04,1.14,.75,.9,2.37,9.7,3.42,16.21-1.88-2.18-4.66-3.56-7.76-3.56-5.15,0-9.42,3.82-10.14,8.77-.93-.96-2.14-1.5-3.42-1.5-1.41,0-2.72,.66-3.67,1.79-.63-5.06-4.95-9-10.18-9-3.1,0-5.87,1.39-7.76,3.56,1.05-6.51,2.67-15.31,3.42-16.21,1.05-1.26,3.02-1.14,3.04-1.14,.27,.03,.51-.19,.53-.46s-.19-.51-.46-.53c-.1,0-2.5-.17-3.88,1.5-1.26,1.51-3.52,15.89-3.96,18.76h0c-.76,1.43-1.19,3.06-1.19,4.8,0,5.66,4.6,10.26,10.26,10.26s9.99-4.35,10.24-9.79c.74-1.56,2.12-2.53,3.61-2.53,1.29,0,2.51,.73,3.3,1.96v.03c0,5.66,4.6,10.26,10.26,10.26s10.26-4.6,10.26-10.26c0-1.73-.43-3.36-1.19-4.79ZM10.92,41.32c-5.11,0-9.26-4.15-9.26-9.26s4.15-9.26,9.26-9.26,9.26,4.15,9.26,9.26-4.15,9.26-9.26,9.26Zm27.41-.06c-5.11,0-9.26-4.15-9.26-9.26s4.15-9.26,9.26-9.26,9.26,4.15,9.26,9.26-4.15,9.26-9.26,9.26Z" stroke-width="0"/></g></g><g id="uuid-00a0ce21-a6d2-4413-8c8f-2629a00a92f3"></g></svg>