<?xml version="1.0" encoding="UTF-8"?><svg width="70" height="70" xmlns="http://www.w3.org/2000/svg" viewBox="-10 -10 70 70"><rect x="-10" y="-10" width="70" height="70" fill="white"/><g id="uuid-24438b08-feed-4941-bb12-fe1a30c58ba2"><g><circle cx="24.84" cy="19.89" r="17.02" fill="#ffcd00"/><path d="M42.81,45.84h-10.07c-.11-1.99-1.75-3.59-3.77-3.59h-.46v-3.44c4.84-1.12,9.15-3.91,12.07-7.85,3.34-4.53,4.67-10.14,3.74-15.82-.86-5.2-3.52-9.75-7.52-13.01-.02-.02-.04-.05-.06-.07l-1.53-1.15c-.22-.17-.53-.12-.7,.1l-1.62,2.14C27.94,.02,21.69-.51,16.24,1.82c-2.87,1.23-5.37,3.18-7.28,5.7h0c-1.87,2.51-3.06,5.48-3.44,8.6-.7,5.84,1.53,11.66,5.86,15.54l-1.52,2.01c-.08,.11-.11,.24-.1,.37,.02,.13,.09,.25,.19,.33l.27,.2h0s.04,.03,.05,.04l1.21,.91h0c3.22,2.27,6.94,3.57,10.85,3.8v2.93h-.45c-2.02,0-3.66,1.59-3.77,3.59H8.05c-.28,0-.5,.22-.5,.5v2.79c0,.28,.22,.5,.5,.5H42.81c.28,0,.5-.22,.5-.5v-2.79c0-.28-.22-.5-.5-.5Zm.53-30.53c.89,5.4-.37,10.75-3.56,15.06-3.19,4.32-8.14,7.18-13.59,7.85-4.9,.6-9.69-.53-13.69-3.2l1.2-1.6c2.89,1.83,6.23,2.77,9.59,2.77,2.35,0,4.72-.46,6.96-1.4,2.9-1.22,5.43-3.18,7.32-5.67v-.02s.02-.01,.03-.02c1.87-2.48,3.07-5.43,3.46-8.53,.74-5.88-1.48-11.74-5.85-15.64l1.3-1.73c3.63,3.08,6.03,7.32,6.82,12.12Zm-29.98,3.52s.03-.08,.04-.12c.19-.57,.4-1.13,.64-1.68,.02-.04,.03-.07,.05-.11,.24-.54,.51-1.07,.8-1.6,.04-.07,.08-.15,.12-.22,.29-.5,.6-.99,.94-1.47,.03-.04,.06-.09,.09-.13l3.9,2.94,2.62,1.98-2.32,3.07-2.32,3.07-4.57-3.45-.51-.39c.01-.05,.02-.1,.04-.16,.13-.59,.29-1.17,.47-1.74Zm4.53-7.58c.48-.5,.97-.97,1.5-1.41h.01c.52-.45,1.07-.85,1.63-1.24,.19-.13,.39-.23,.58-.35,.35-.22,.7-.43,1.07-.63l.14,.11,4.98,3.76-2.32,3.07-2.32,3.07-6.53-4.93c.25-.32,.52-.63,.8-.93,.15-.17,.29-.35,.45-.52Zm6.86-4.62c.27-.11,.53-.21,.79-.3,.21-.08,.42-.15,.63-.22,.26-.09,.52-.16,.78-.24,.2-.06,.39-.12,.58-.17,.26-.07,.51-.13,.76-.18,.17-.04,.35-.08,.52-.12,.25-.05,.5-.09,.74-.13,.15-.03,.3-.05,.45-.08,.25-.04,.48-.07,.71-.09,.12-.01,.24-.03,.35-.04,.25-.03,.47-.04,.69-.06,.07,0,.16-.01,.22-.02,.28-.02,.53-.03,.75-.03l-4.33,5.74-2.95-2.23-1.78-1.34c.14-.07,.28-.14,.42-.2,.22-.1,.44-.2,.66-.28ZM12.91,30.3h0c-.05-.23-.1-.48-.15-.75-.01-.07-.03-.14-.04-.21-.05-.26-.09-.54-.13-.83,0-.03,0-.05-.01-.08-.04-.31-.08-.65-.11-.99,0-.09-.01-.18-.02-.27-.02-.31-.04-.63-.06-.96,0-.06,0-.12,0-.18-.01-.38-.01-.78,0-1.18,0-.1,0-.2,0-.3,.01-.34,.03-.7,.06-1.06,0-.09,.01-.18,.02-.27,.04-.43,.09-.87,.16-1.32,0-.03,.01-.07,.02-.1l4.69,3.54-4.26,5.64-.02-.06c-.05-.19-.1-.4-.15-.63ZM29.2,11.28l4.37-5.8c.3,1.11,.74,3.21,.74,5.81,0,1.13-.08,2.34-.3,3.62l-2.72-2.05-2.1-1.58Zm-.6,.8l2.03,1.53,3.16,2.39c-.09,.41-.2,.81-.32,1.21-.06,.21-.11,.43-.18,.64-.18,.56-.4,1.1-.63,1.64-.15,.35-.33,.7-.5,1.04-.17,.34-.34,.69-.53,1.03-.19,.33-.41,.64-.62,.96-.15,.23-.29,.46-.45,.69l-6.6-4.98,2.32-3.07,2.32-3.07Zm-5.23,6.94l6.58,4.97c-.22,.28-.45,.54-.68,.8-.17,.19-.34,.4-.52,.59-.37,.38-.75,.73-1.15,1.08-.13,.11-.24,.24-.37,.34-.53,.45-1.09,.86-1.67,1.25-.15,.1-.31,.18-.46,.28-.4,.25-.8,.49-1.21,.71l-.96-.73-4.18-3.16,2.32-3.07,2.32-3.07Zm-9.54,12.64l4.3-5.7,1.19,.9,3.58,2.7c-3.83,1.79-7.44,2.08-9.07,2.11Zm9.96-1.43l5.24,3.96c-4.88,1.76-10.33,1.17-14.7-1.55,1.97-.09,5.65-.52,9.46-2.41Zm6.33,3.53l-5.35-4.04c.28-.16,.54-.34,.81-.51,.22-.14,.44-.27,.66-.41,.46-.31,.89-.64,1.32-.99,.13-.1,.27-.2,.4-.31,.55-.46,1.07-.95,1.56-1.47,.13-.13,.24-.28,.36-.42,.3-.33,.6-.66,.89-1.01l5.7,4.3c-1.69,2.09-3.87,3.76-6.34,4.85Zm6.95-5.64l-4.78-3.61-.92-.69s.06-.09,.09-.14c.35-.49,.68-1,.99-1.51l.02-.04c.3-.51,.57-1.04,.82-1.57,.03-.07,.07-.15,.11-.22,.24-.52,.45-1.06,.65-1.6,.04-.1,.07-.2,.1-.3,.19-.54,.35-1.09,.49-1.66,0-.04,.02-.07,.03-.11l2.85,2.15,2.51,1.89c-.38,2.66-1.39,5.19-2.96,7.4Zm3.09-8.56l-3.56-2.69-1.68-1.27c.29-1.51,.4-2.96,.4-4.28,0-2.35-.35-4.31-.64-5.56,3.83,3.49,5.87,8.59,5.48,13.79ZM35,2.01c.25,.18,.48,.37,.72,.56l-1.23,1.63-.73-.55,1.24-1.64Zm-2.7,1.95h-.06c-.22,.01-.45,.03-.71,.05-.03,0-.05,0-.08,0-.28,.02-.58,.05-.9,.09-.05,0-.09,.01-.14,.02-.27,.03-.56,.08-.86,.13-.08,.01-.15,.02-.23,.04-.35,.06-.72,.13-1.1,.21h-.05c-.35,.09-.72,.18-1.09,.28-.1,.03-.2,.06-.3,.08-.35,.1-.7,.21-1.06,.33-.06,.02-.12,.04-.18,.06-.41,.14-.82,.3-1.24,.47-.1,.04-.21,.09-.32,.14-.34,.14-.67,.3-1.01,.47-.07,.04-.15,.06-.22,.1l-3.63-2.74-1.69-1.27c4.93-1.81,10.44-1.23,14.86,1.55Zm-15.93-1.11l5.43,4.1c-.26,.15-.5,.32-.76,.48-.23,.15-.46,.28-.69,.44-.4,.27-.78,.57-1.16,.87-.17,.14-.36,.27-.53,.41-.54,.46-1.05,.93-1.54,1.44-.05,.05-.09,.1-.13,.15-.4,.43-.79,.87-1.16,1.34l-5.77-4.35c1.67-2.1,3.84-3.77,6.31-4.88Zm-6.9,5.68l5.77,4.36s-.06,.1-.1,.15c-.34,.48-.65,.97-.95,1.47-.03,.06-.07,.12-.1,.18-.28,.49-.54,1-.78,1.51-.03,.06-.05,.11-.08,.16-.24,.53-.45,1.07-.64,1.62-.04,.1-.07,.2-.11,.31-.18,.54-.34,1.09-.48,1.65,0,.04-.02,.08-.03,.12l-5.43-4.1c.37-2.68,1.37-5.23,2.92-7.43Zm-3.04,8.59l5.32,4.01c-.01,.08-.02,.15-.03,.23-.06,.37-.12,.74-.16,1.1-.01,.11-.03,.23-.04,.34-.05,.44-.08,.88-.1,1.3,0,.08,0,.15,0,.23-.01,.36-.02,.71-.02,1.05,0,.11,0,.23,0,.34,0,.37,.02,.73,.04,1.08,0,.03,0,.05,0,.08,.02,.37,.06,.73,.1,1.07,.01,.1,.02,.19,.03,.28,.03,.27,.07,.53,.11,.78,0,.06,.02,.13,.03,.19,.05,.3,.1,.58,.15,.84,.01,.06,.02,.11,.04,.17,.04,.21,.09,.41,.13,.59,0,.03,.01,.06,.02,.09-3.86-3.46-5.95-8.57-5.59-13.78Zm6.07,15.47c.12,.09,.25,.17,.38,.26l-1.18,1.57c-.25-.18-.5-.35-.74-.55l1.19-1.57c.12,.1,.23,.2,.36,.29Zm10.84,6.85c.79,0,1.58-.04,2.37-.11,.6-.05,1.21-.13,1.81-.22v3.15h-4.17v-2.82Zm-1.46,3.82h7.09c1.45,0,2.65,1.12,2.78,2.53h-12.64c.13-1.42,1.33-2.53,2.78-2.53Zm20.42,5.37H8.55v-1.79H42.31v1.79Z" stroke-width="0"/></g></g><g id="uuid-4c587377-f533-4b21-80a1-92ed0cf72a9d"></g></svg>