<?xml version="1.0" encoding="utf-8"?> <!-- Generator: Adobe Illustrator 27.7.0, SVG Export Plug-In . SVG Version: 6.00 Build 0) --> <svg width="70" height="70" version="1.1" xmlns="http://www.w3.org/2000/svg" xmlns:xlink="http://www.w3.org/1999/xlink" x="0px" y="0px" viewBox="-10 -10 70 70" style="enable-background:new 0 0 50 50;" xml:space="preserve"><rect x="-10" y="-10" width="70" height="70" fill="white"/> <style type="text/css"> .st0{fill:#FFCD00;} .st1{display:none;} .st2{display:inline;fill:none;stroke:#EA008A;stroke-width:0.2;stroke-miterlimit:10;} .st3{font-family:'Roboto-Regular';} .st4{font-size:6px;} </style> <g id="Color"> <path class="st0" d="M39.9917,30.2871c-2.0366-2.2628-4.5743-3.7431-7.3439-4.3248c-0.1113-0.3848-0.2468-0.7479-0.4308-1.0817 c-0.3522-0.7095-0.827-1.3455-1.422-1.8948c-1.4458-1.3335-3.3613-1.9351-5.3066-1.6826c-0.062,1.3213,0.2729,2.644,0.959,3.7632 c0.0087,0.0142,0.34,0.5367,0.6453,0.9501c-2.4968,0.5746-4.7906,1.881-6.6757,3.8066c-0.0612-0.3649-0.1909-0.8141-0.2831-1.1517 c-0.3603-1.3052-1.0643-2.4819-2.0645-3.4044c-1.6123-1.4873-3.751-2.1533-5.9199-1.8589 c-0.1196,2.1851,0.7173,4.2637,2.3296,5.751c1.0228,0.943,2.2842,1.5661,3.6481,1.8087c0.3942,0.0697,0.8035,0.1177,1.1943,0.1054 c-0.1636,0.2081-0.3378,0.4022-0.4929,0.621v0.001c0.1387,0.1957,0.2888,0.3768,0.4343,0.5638 c-0.2866,0.0392-0.6047,0.0781-1.1304,0.1608c-1.3665,0.242-2.6294,0.8663-3.6536,1.8105 c-1.6123,1.4878-2.4492,3.5659-2.3296,5.7505c2.1694,0.2954,4.3076-0.3711,5.9199-1.8584c1.001-0.9232,1.7054-2.1009,2.0654-3.4073 c0.1251-0.4572,0.1906-0.8212,0.2361-1.1705c1.7458,1.7906,3.7019,3.1409,5.9919,3.7752 c-0.2326,0.1459-0.3139,0.2108-0.5209,0.4017c-0.9526,0.8789-1.4648,2.0942-1.4365,3.3809 c1.2847,0.1333,2.5327-0.2803,3.4863-1.1597c0.674-0.6219,1.1142-1.4165,1.3118-2.2814c0.2573,0.0152,0.5112,0.048,0.7712,0.048 c3.7993,0,7.3398-1.6323,10.0171-4.6069c-0.3086-0.4033-0.4795-0.8965-0.4795-1.4077S39.6831,30.6904,39.9917,30.2871z" stroke-width="0"/> </g> <g id="ICONS_00000031165542127692736420000002692518830807990202_"> <g> <path d="M38.7871,5.8818V2.6821c0-0.2764-0.2236-0.5-0.5-0.5H11.7124c-0.2764,0-0.5,0.2236-0.5,0.5v3.1997 C4.7573,10.397,0.9121,17.7583,0.9121,25.6294c0,9.6519,5.7368,18.3457,14.6147,22.1479c0.062,0.0269,0.1289,0.0405,0.1968,0.0405 h18.5527c0.0679,0,0.1348-0.0137,0.1968-0.0405c8.8779-3.8022,14.6147-12.4961,14.6147-22.1479 C49.0879,17.7583,45.2427,10.3965,38.7871,5.8818z M11.9946,6.5566c0.1362-0.0928,0.2178-0.2476,0.2178-0.4126V3.1821h25.5747 V6.144c0,0.165,0.0815,0.3198,0.2178,0.4126c2.9342,2.0052,5.31,4.6235,7.0222,7.6123H4.9727 C6.6848,11.1801,9.0604,8.5618,11.9946,6.5566z M34.1733,46.8179H15.8267C7.3701,43.1523,1.9121,34.8467,1.9121,25.6294 c0-3.6924,0.8901-7.2644,2.5173-10.4604h41.1409c1.6273,3.196,2.5176,6.7681,2.5176,10.4604 C48.0879,34.8467,42.6299,43.1523,34.1733,46.8179z" stroke-width="0"/> <path d="M39.665,28.8394c0.0107-0.1323-0.0317-0.2632-0.1177-0.3643c-2.098-2.4682-4.7382-4.1206-7.6389-4.8548 c-0.416-1.0984-1.0637-2.0651-1.9354-2.8693c-1.7749-1.6367-4.1616-2.3213-6.5454-1.8706 c-0.2173,0.0405-0.3818,0.2192-0.4048,0.439c-0.1683,1.5967,0.1885,3.2155,0.9828,4.5929 c-1.6411,0.5524-3.1798,1.4072-4.5583,2.5376c-0.4417-1.301-1.1806-2.4775-2.2004-3.4181 c-1.939-1.7896-4.5483-2.5381-7.1567-2.0454c-0.2173,0.0405-0.3818,0.2192-0.4048,0.439 c-0.2773,2.6392,0.6758,5.1792,2.6157,6.9692c0.8984,0.8282,1.9597,1.4366,3.1105,1.8001 c-1.151,0.3636-2.2125,0.9722-3.1105,1.8005c-1.9399,1.79-2.8931,4.3301-2.6157,6.9688c0.0229,0.2197,0.1875,0.3984,0.4048,0.439 c0.5254,0.0986,1.0503,0.147,1.5698,0.147c2.062,0,4.0381-0.7632,5.5869-2.1919c1.0197-0.9406,1.7587-2.1171,2.2004-3.4181 c1.1168,0.9414,2.3311,1.7173,3.5643,2.278c-0.8319,1.0976-1.2245,2.4614-1.0762,3.873c0.0229,0.2197,0.1875,0.3984,0.4048,0.439 c0.3467,0.0649,0.6934,0.0972,1.0361,0.0972c1.3628,0,2.6689-0.5044,3.6929-1.4487c0.61-0.5629,1.0671-1.2402,1.3644-1.9812 c4.1999-0.0636,8.3414-2.0213,11.1136-5.2825c0.0859-0.1011,0.1284-0.2319,0.1177-0.3643 c-0.0107-0.1318-0.0737-0.2544-0.1748-0.3403c-0.3037-0.2583-0.478-0.6284-0.478-1.0151s0.1743-0.7568,0.478-1.0151 C39.5913,29.0938,39.6543,28.9712,39.665,28.8394z M24.9473,23.5664c-0.686-1.1191-1.021-2.4419-0.959-3.7632 c1.9453-0.2524,3.8608,0.3491,5.3066,1.6826c0.595,0.5494,1.0698,1.1853,1.422,1.8948c-0.7365-0.119-1.4819-0.2005-2.2423-0.2005 c-1.1992,0-2.3735,0.1518-3.5061,0.4442C24.9599,23.6053,24.9585,23.5847,24.9473,23.5664z M10.6494,21.9082 c2.1689-0.2944,4.3076,0.3716,5.9199,1.8589c1.0002,0.9225,1.7042,2.0991,2.0645,3.4044 c-0.7249,0.6851-1.3956,1.4536-2.0067,2.2964c-1.3639-0.2426-2.6253-0.8657-3.6481-1.8087 C11.3667,26.1719,10.5298,24.0933,10.6494,21.9082z M16.5693,36.6226c-1.6123,1.4873-3.7505,2.1538-5.9199,1.8584 c-0.1196-2.1846,0.7173-4.2627,2.3296-5.7505c1.0242-0.9443,2.2871-1.5685,3.6536-1.8105 c0.5948,0.8156,1.2651,1.5914,2.0022,2.2953C18.2747,34.5217,17.5703,35.6993,16.5693,36.6226z M26.3916,38.4429 c-0.9536,0.8794-2.2017,1.293-3.4863,1.1597c-0.0283-1.2866,0.4839-2.502,1.4365-3.3809 c0.9536-0.8794,2.2075-1.2886,3.4863-1.1602C27.8564,36.3486,27.3442,37.564,26.3916,38.4429z M38.4912,31.6021 c-2.5109,2.7658-6.1012,4.437-9.7653,4.5792c0.0978-0.5214,0.1295-1.0603,0.072-1.608c-0.0229-0.2197-0.1875-0.3984-0.4048-0.4395 c-1.7007-0.3165-3.3991,0.1603-4.6748,1.308c-2.3931-1.0095-4.7501-2.9428-6.3896-5.2475 c2.7109-3.8271,6.7549-6.0142,11.146-6.0142c3.7993,0,7.3398,1.6323,10.0171,4.6069c-0.3086,0.4033-0.4795,0.8965-0.4795,1.4077 S38.1826,31.1982,38.4912,31.6021z" stroke-width="0"/> </g> <circle cx="33.2684" cy="29.5703" r="0.8869"/> </g> <g id="Margin" class="st1"> <rect x="1" y="1" class="st2" /> </g> <g id="Guides" class="st1"> </g> <g id="LABELS"> <g> <g> <g> <g> </g> </g> </g> </g> </g> </svg> 