<?xml version="1.0" encoding="UTF-8"?><svg width="70" height="70" xmlns="http://www.w3.org/2000/svg" viewBox="-10 -10 70 70"><rect x="-10" y="-10" width="70" height="70" fill="white"/><g id="uuid-f03b602f-d7eb-4df0-9e92-fd3880c112d8"><g><path d="M34.4,27.18l-9.54,6.13-7.67-5.12c-1.84,1.33-3.03,3.49-3.03,5.92v15.66h25.24v-15.66c0-3.22-2.09-5.97-5-6.93Zm-13.39,14.24l-2.08,1.68-2.08-1.68v-12.26l4.16,2.78v9.48Zm12.2,0l-2.08,1.68-2.08-1.68v-9.61l4.16-2.67v12.29Z" fill="#ffcd00" stroke-width="0"/><path d="M36.72,26.66c.02-.15-.04-.3-.14-.41-.64-.64-1.37-1.17-2.17-1.58-1.08-.55-2.26-.87-3.49-.93-.1,0-.19,.02-.28,.07l-.46,.26h-10.63l-.43-.25c-.09-.05-.19-.07-.29-.07-.98,.07-1.93,.31-2.83,.71-.94,.42-1.79,1-2.53,1.72-.11,.11-.16,.25-.15,.4,0,.11,.06,.2,.13,.27-1.3,1.47-2.09,3.39-2.09,5.49v16.16c0,.28,.22,.5,.5,.5h26.24c.28,0,.5-.22,.5-.5v-16.16c0-2.07-.77-3.97-2.03-5.43,.07-.08,.12-.17,.13-.27Zm-18.28,21.36v-4.04l.19,.15c.09,.07,.2,.11,.31,.11s.22-.04,.31-.11l2.58-2.08c.12-.09,.19-.24,.19-.39v-9.05l2.57,1.71c.08,.06,.18,.08,.28,.08s.19-.03,.27-.08l2.92-1.88v9.21c0,.15,.07,.29,.19,.39l2.58,2.08c.09,.07,.2,.11,.31,.11s.22-.04,.31-.11l.19-.15v4.04h-13.2Zm6.18-19.87c.16,.09,.35,.09,.5,0l5.9-3.41c1.04,.07,2.02,.35,2.94,.82,.52,.27,1.01,.59,1.45,.97l-10.54,6.78-10.22-6.83c.54-.45,1.13-.82,1.77-1.1,.75-.33,1.54-.54,2.35-.62l5.85,3.39Zm-7.76,1.01l4.16,2.78v9.48l-2.08,1.68-2.08-1.68v-12.26Zm12.2,12.26v-9.61l4.16-2.67v12.29l-2.08,1.68-2.08-1.68Zm-4.18-14.28l-3.58-2.07h7.17l-3.59,2.07Zm-12.49,5.22c0-1.89,.72-3.61,1.9-4.91l1.57,1.05v13.16c0,.15,.07,.29,.19,.39l1.39,1.12v4.85h-5.06v-15.66Zm25.24,15.66h-4.99v-4.85l1.39-1.12c.12-.09,.19-.24,.19-.39v-13.17l1.55-.99c1.16,1.29,1.86,3,1.86,4.86v15.66Z" stroke-width="0"/><path d="M19.72,8.57v1.82c1.71-.28,3.43-.44,5.16-.45,2.22,.02,4.43,.23,6.6,.66,.1,.16,.18,.34,.26,.51,.72,.1,1.41,.21,2.07,.33l.03-2.98c.13-.16,.26-.32,.39-.49l5.3-1.22-11.77-3.75-13.71,3.54,5.32,1.54c.21,.06,.36,.26,.36,.48Z" fill="#ffcd00" stroke-width="0"/><path d="M39.78,4.6L26.14,.25c-.09-.03-.19-.03-.28,0L10.24,4.28c-.22,.06-.37,.25-.38,.48s.14,.42,.36,.49l6.71,1.95v-1.04l-4.68-1.36L25.97,1.25l11.77,3.75-4.68,1.08v1.03l3.21-.74v5.07c-.34,.18-.59,.53-.59,.95,0,.06,0,.11,.01,.17,0,.04-.01,.08-.01,.12v1.79c0,.28,.22,.5,.5,.5h1.18c.28,0,.5-.22,.5-.5v-1.79s0-.07-.02-.11c.01-.06,.02-.12,.02-.18,0-.42-.24-.77-.59-.95V6.22s-.01-.06-.02-.09l2.49-.58c.22-.05,.38-.24,.39-.47,0-.23-.13-.43-.35-.5Z" stroke-width="0"/><path d="M33.06,5.04c0-.23-.15-.42-.37-.48-2.5-.67-5.08-1.01-7.67-1.01-2.57,0-5.19,.34-7.7,1.01-.22,.06-.37,.26-.37,.48v5.27c0,.15,.07,.3,.19,.39,.05,.04,.1,.06,.16,.08-.54,1.12-.85,2.37-.85,3.69,0,4.72,3.84,8.55,8.55,8.55s8.55-3.84,8.55-8.55c0-1.33-.31-2.58-.86-3.7,.06-.02,.12-.02,.17-.06,.12-.09,.19-.24,.19-.39V5.04Zm-8.06,16.98c-4.16,0-7.55-3.39-7.55-7.55,0-1.41,.4-2.73,1.08-3.87,2.09-.42,4.23-.65,6.36-.66,2.22,.02,4.43,.23,6.6,.66,.68,1.13,1.07,2.45,1.07,3.86,0,4.17-3.39,7.55-7.55,7.55Zm-.12-13.08c-2.33,0-4.66,.26-6.94,.75V5.42c2.31-.58,4.71-.86,7.07-.88,2.37,0,4.74,.3,7.04,.88v4.26c-2.36-.5-4.77-.76-7.18-.75Z" stroke-width="0"/></g></g><g id="uuid-8ebbd0b3-0f81-43b9-8beb-eefa6f91caee"></g></svg>