<?xml version="1.0" encoding="UTF-8"?><svg width="70" height="70" xmlns="http://www.w3.org/2000/svg" viewBox="-10 -10 70 70"><rect x="-10" y="-10" width="70" height="70" fill="white"/><g id="uuid-6bc3b34d-20e0-4202-82df-86ef378c97ae"><path d="M25.27,31.85s-.01-.06-.02-.09c0,.03-.01,.06-.02,.09,.01,0,.03,0,.04,0Z" stroke-width="0"/><g><path d="M39.42,13.27c-2.75,0-5.21,1.64-6.27,4.17-.07,.16-.22,.28-.4,.3-.18,.02-.35-.05-.46-.19-1.3-1.69-3.26-2.66-5.4-2.66-2.55,0-4.86,1.4-6.04,3.65-.1,.18-.29,.29-.5,.26-.21-.02-.37-.17-.43-.37-.78-2.99-3.49-5.07-6.59-5.07-3.76,0-6.82,3.06-6.82,6.82s3.06,6.82,6.82,6.82c.21-.05,.44,.04,.55,.22,.12,.18,.12,.42-.02,.58-.97,1.21-1.51,2.73-1.51,4.26,0,3.76,3.06,6.82,6.82,6.82,.26,0,.53,0,.79-.04,.02,0,.04,0,.06,0,.16,0,.3,.07,.4,.2,.11,.14,.13,.33,.06,.5-.34,.82-.53,1.72-.53,2.62,0,3.76,3.06,6.81,6.82,6.81s6.81-3.06,6.81-6.81c0-.88-.16-1.73-.48-2.52-.07-.16-.04-.35,.06-.49,.11-.14,.28-.21,.45-.2,.2,.02,.4,.03,.59,.03,3.76,0,6.82-3.06,6.82-6.82,0-1.64-.59-3.21-1.65-4.43-.13-.14-.16-.35-.08-.53s.25-.29,.44-.3c3.64-.17,6.5-3.16,6.5-6.81s-3.06-6.82-6.82-6.82Z" fill="#ffcd00" stroke-width="0"/><path d="M45.49,18.48c0-4.31-3.51-7.82-7.82-7.82-2.88,0-5.49,1.57-6.85,4.06-1.31-1.4-3.08-2.25-5-2.41,0-.3,0-.84-.05-1.53,.04,.01,.09,.02,.13,.02,.03,0,.07,0,.11-.01,1.3-.28,3.13-.9,4.48-2.3,2.41-2.48,2.36-6.34,2.35-6.51,0-.27-.22-.46-.5-.49-.16,0-4.03,.07-6.43,2.55-.53,.54-.96,1.2-1.32,1.94-.52-1.11-1.24-2.16-2.28-2.98C18.39-.08,15.91,1.36,15.8,1.42c-.23,.14-.31,.44-.17,.68,.14,.24,.44,.31,.68,.18,.08-.05,2.04-1.12,5.37,1.51,1.18,.93,1.92,2.26,2.38,3.59,0,.1,.04,.2,.1,.28,.64,2.02,.67,4,.66,4.64-2.42,.1-4.64,1.29-6.03,3.24-1.2-2.86-4.03-4.78-7.21-4.78-4.31,0-7.82,3.51-7.82,7.82,0,4.04,3.08,7.38,7.03,7.78-.76,1.23-1.17,2.66-1.17,4.1,0,4.35,3.62,7.9,7.94,7.82-.22,.73-.34,1.5-.34,2.27,0,4.31,3.51,7.81,7.82,7.81s7.81-3.5,7.81-7.81c0-.75-.1-1.48-.31-2.18,4.28-.04,7.75-3.53,7.75-7.82,0-1.57-.47-3.08-1.33-4.35,3.73-.61,6.53-3.84,6.53-7.71ZM26.62,4.73c1.63-1.68,4.12-2.1,5.2-2.21-.07,1.08-.42,3.59-2.05,5.26-1.18,1.21-2.81,1.77-3.97,2.02-.05,.01-.09,.03-.13,.06-.1-.78-.27-1.66-.56-2.55,.36-1.04,.86-1.91,1.51-2.58Zm-7.33,11.88c1.23-2.07,3.43-3.34,5.85-3.34,2.13,0,4.1,.97,5.4,2.66,.02,.02,.04,.03,.06,.05h0c.82,1.16,1.26,2.52,1.26,3.95,0,1.01-.22,1.98-.64,2.88-3.02,.47-5.47,2.66-6.31,5.55-.76-2.76-3-4.9-5.8-5.54l.06-.03c-.45-.93-.68-1.93-.68-2.97,0-1.12,.28-2.22,.81-3.21Zm5.61,16.09s-.03,0-.04,0c0-.03,.01-.06,.02-.09,0,.03,.01,.06,.02,.09ZM4.76,18.57c0-3.76,3.06-6.82,6.82-6.82,3.06,0,5.73,2.04,6.55,4.97-.42,.98-.65,2.04-.65,3.11,0,.98,.19,1.93,.54,2.83-.21-.02-.43-.03-.65-.03-2.31,0-4.46,1.01-5.95,2.76-3.69-.08-6.66-3.11-6.66-6.81Zm12.67,18.71c-3.76,0-6.82-3.06-6.82-6.82,0-1.54,.53-3.05,1.51-4.26,.03-.04,.04-.1,.05-.15,1.3-1.54,3.18-2.42,5.2-2.42,3.76,0,6.82,3.06,6.82,6.82,0,.81-.15,1.6-.43,2.36-2.58,.4-4.77,2.05-5.87,4.46-.15,0-.3,.02-.46,.02Zm7.6,10.08c-3.76,0-6.82-3.06-6.82-6.81,0-.9,.18-1.8,.53-2.62,.03-.07,.03-.14,.03-.2,1.1-2.44,3.5-4.02,6.2-4.02,2.92,0,5.52,1.86,6.46,4.63h.04c.25,.69,.38,1.44,.38,2.21,0,3.76-3.06,6.81-6.81,6.81Zm14.26-16.81c0,3.76-3.06,6.82-6.82,6.82-.13,0-.25-.01-.38-.02-1.11-2.49-3.42-4.21-6.11-4.56-.25-.72-.39-1.48-.39-2.26,0-3.76,3.06-6.82,6.82-6.82,2.04,0,3.96,.9,5.26,2.48h.02c1.03,1.19,1.61,2.74,1.61,4.35Zm-1.11-5.27c-1.48-1.63-3.56-2.56-5.77-2.56-.03,0-.05,0-.08,0,.34-.89,.52-1.82,.52-2.78,0-1.56-.47-3.06-1.33-4.34,1.12-2.39,3.5-3.93,6.15-3.93,3.76,0,6.82,3.06,6.82,6.82s-2.76,6.53-6.31,6.79Z" stroke-width="0"/></g></g><g id="uuid-8524df9c-40e1-44ca-95d7-d769f099de87"></g></svg>