<?xml version="1.0" encoding="UTF-8"?><svg width="70" height="70" id="uuid-9a8cfc04-02f6-4f07-89a2-91ae19653fa7" xmlns="http://www.w3.org/2000/svg" viewBox="-10 -10 70 70"><rect x="-10" y="-10" width="70" height="70" fill="white"/><path d="M14.26,19.88c0,4.99,4.06,9.06,9.06,9.06h6.87c4.99,0,9.06-4.06,9.06-9.06v-1.9h0v-1.54H14.26v3.45Z" fill="#ffcd00" stroke-width="0"/><polygon points="37.49 16.22 37.49 16.22 37.49 16.22 37.49 16.22"/><path d="M42.25,15.72h-3.76v-1.54c0-.28-.22-.5-.5-.5H12.01c-.28,0-.5,.22-.5,.5v1.54h-3.76c-.28,0-.5,.22-.5,.5s.22,.5,.5,.5h3.76v1.41c0,5.16,3.9,9.41,8.91,9.98l-4.51,19.89c-.06,.27,.11,.54,.38,.6,.04,0,.07,.01,.11,.01,.23,0,.43-.16,.49-.39l1.54-6.81h13.16l.42,1.85c-1.02,.43-1.74,1.44-1.74,2.61,0,1.56,1.27,2.83,2.83,2.83s2.83-1.27,2.83-2.83-1.27-2.83-2.83-2.83c-.04,0-.08,0-.11,.01l-3.39-14.95c5-.57,8.91-4.83,8.91-9.98v-1.41h3.76c.28,0,.5-.22,.5-.5s-.22-.5-.5-.5Zm-9.16,28.33c1.01,0,1.83,.82,1.83,1.83s-.82,1.83-1.83,1.83-1.83-.82-1.83-1.83,.82-1.83,1.83-1.83Zm-1.74-3.63h-12.7l2.78-12.24s.09,0,.14,0h6.87s.09,0,.14,0l2.78,12.24Zm6.14-24.19h0v1.91c0,4.99-4.06,9.06-9.06,9.06h-6.87c-4.99,0-9.06-4.06-9.06-9.06v-3.45h24.98v1.54Z" stroke-width="0"/><path d="M16.69,7.58c.4,.25,.78,.48,.89,.85,.19,.59-.28,1.47-1.35,2.57-.19,.2-.19,.51,0,.71,.1,.1,.22,.14,.35,.14s.26-.05,.36-.15c1.38-1.41,1.9-2.58,1.58-3.57-.23-.72-.83-1.09-1.32-1.39-.44-.27-.71-.46-.76-.71-.09-.45,.48-1.16,1.55-1.94,.22-.16,.27-.48,.11-.7-.17-.22-.48-.27-.7-.11-1.48,1.08-2.11,2.04-1.94,2.94,.14,.7,.71,1.06,1.21,1.37Z" stroke-width="0"/><path d="M24.65,5.7c.4,.25,.78,.48,.89,.85,.19,.59-.28,1.47-1.35,2.57-.19,.2-.19,.51,0,.71,.1,.09,.22,.14,.35,.14s.26-.05,.36-.15c1.38-1.42,1.9-2.58,1.58-3.57-.23-.72-.83-1.09-1.32-1.39-.44-.27-.71-.46-.76-.71-.09-.45,.48-1.16,1.55-1.94,.22-.16,.27-.48,.11-.7-.16-.22-.48-.27-.7-.11-1.48,1.08-2.11,2.05-1.94,2.94,.13,.71,.71,1.06,1.21,1.37Z" stroke-width="0"/><path d="M32.62,7.58c.4,.25,.78,.48,.89,.85,.19,.59-.28,1.47-1.35,2.57-.19,.2-.19,.51,0,.71,.1,.09,.22,.14,.35,.14s.26-.05,.36-.15c1.38-1.42,1.9-2.58,1.58-3.57-.23-.72-.83-1.09-1.32-1.39-.44-.27-.71-.46-.76-.71-.09-.45,.48-1.16,1.55-1.94,.22-.16,.27-.48,.11-.7-.17-.22-.48-.27-.7-.11-1.48,1.08-2.11,2.05-1.94,2.94,.13,.71,.71,1.06,1.21,1.37Z" stroke-width="0"/></svg>