<?xml version="1.0" encoding="UTF-8"?><svg width="70" height="70" xmlns="http://www.w3.org/2000/svg" viewBox="-10 -10 70 70"><rect x="-10" y="-10" width="70" height="70" fill="white"/><g id="uuid-4021074f-5d49-416c-87bd-546500ba40b6"><g><g><path d="M7.56,26.42c3.14,7.01,7.71,11.72,10.76,11.02,1-.23,2.47-1.14,3.36-2.6,.9-1.48,1.01-3.23,.73-4.23-.71-2.57-6.14-4.87-14.85-4.19Z" fill="#ffcd00" stroke-width="0"/><path d="M26.23,3.07c-5.29,7.44-7.36,14.97-4.79,17.68,.84,.89,2.67,1.85,4.7,1.87,2.08,.03,3.92-.92,4.78-1.81,2.59-2.68,.57-10.24-4.69-17.75Z" fill="#ffcd00" stroke-width="0"/><path d="M30.06,37.34c-.37,.96-.43,2.71,.31,4.28,.73,1.54,2.11,2.59,3.08,2.92,2.54,.85,7.47-2.35,11.79-9.9-2.23-.4-4.26-.57-6.06-.57-5.14,0-8.41,1.43-9.13,3.28Z" fill="#ffcd00" stroke-width="0"/></g><path d="M45.04,32.46c-.07-.14-.2-.25-.36-.28-8.66-1.68-15.67-.36-17.05,3.21-.41,1.06-.51,2.9,.15,4.62l-2.76,1.3,.13-19.18c2.17-.12,4.09-1.13,5.03-2.1,3.05-3.16,.93-11.43-5.02-19.66-.09-.13-.24-.21-.4-.21h0c-.16,0-.31,.08-.4,.2-5.99,8.16-8.15,16.4-5.13,19.59,.94,1,2.8,2,4.94,2.16l-.09,13.01-2.83-1.69c.83-1.64,.91-3.48,.61-4.58-1.02-3.69-7.87-5.7-16.65-4.88-.16,.01-.3,.11-.38,.24-.08,.14-.09,.31-.03,.45,3.2,7.49,7.75,12.37,11.37,12.37,.29,0,.57-.03,.84-.09,1.14-.26,2.67-1.18,3.72-2.66l3.19,1.91s.1,.03,.15,.04l-.09,13.08c0,.28,.22,.5,.5,.5h0c.27,0,.5-.22,.5-.5l.05-6.91,3.19-1.51c.9,1.58,2.34,2.64,3.44,3.01,.39,.13,.81,.2,1.25,.2,3.57,0,8.35-4.34,12.12-11.21,.08-.14,.08-.31,.01-.45Zm-24.15-3.34c.25,.9,.18,2.42-.5,3.8l-2.2-1.32-.92-3.67c-.07-.27-.34-.43-.61-.36-.27,.07-.43,.34-.36,.61l.68,2.7-2.78-1.67h0l-3.75-2.25-.28-1.13c-.07-.27-.34-.43-.61-.36-.27,.07-.43,.34-.36,.61l.04,.16-2.29-1.37c8.18-.44,13.27,1.78,13.95,4.26Zm-4.11,6.85c-2.95,.66-7.31-3.69-10.44-10.31l6.31,3.78-1.54,.38c-.27,.07-.43,.34-.36,.61,.06,.23,.26,.38,.48,.38,.04,0,.08,0,.12-.01l2.51-.63,6.01,3.6c-.9,1.22-2.18,1.99-3.09,2.2Zm12.68-16.63c-.79,.82-2.42,1.66-4.3,1.79l.02-3.14,3.19-3.15c.2-.19,.2-.51,0-.71-.19-.2-.51-.2-.71,0l-2.48,2.44,.06-9.21,1-.99c.2-.19,.2-.51,0-.71-.19-.2-.51-.2-.71,0l-.29,.29,.02-3.64c4.87,7.26,6.68,14.42,4.17,17.02Zm-9.52-.06c-2.5-2.64-.62-9.83,4.35-17.08l-.06,9.14-1.46-1.48c-.19-.2-.51-.2-.71,0-.2,.19-.2,.51,0,.71l2.16,2.19-.06,8.37c-1.84-.16-3.45-1.03-4.22-1.85Zm8.61,16.47c.71-1.85,4-3.29,9.16-3.29,1.55,0,3.28,.14,5.14,.43l-2.41,1.14,.06-.16c.09-.26-.04-.55-.3-.64-.26-.09-.55,.04-.64,.3l-.39,1.1-3.96,1.87h0l-2.93,1.38,.94-2.62c.09-.26-.04-.55-.3-.64-.26-.09-.55,.04-.64,.3l-1.28,3.56-2.32,1.09c-.54-1.44-.46-2.96-.13-3.83Zm3.41,7.22c-.88-.29-2.08-1.18-2.85-2.49l6.34-2.99,2.43,.87c.06,.02,.11,.03,.17,.03,.21,0,.4-.13,.47-.33,.09-.26-.04-.55-.3-.64l-1.49-.53,6.65-3.14c-3.77,6.27-8.54,10.19-11.41,9.23Z" stroke-width="0"/></g></g><g id="uuid-1dcb88fa-48dd-4447-b2c5-f6068bf934f4"></g></svg>