<?xml version="1.0" encoding="UTF-8"?><svg width="70" height="70" xmlns="http://www.w3.org/2000/svg" viewBox="-10 -10 70 70"><rect x="-10" y="-10" width="70" height="70" fill="white"/><g id="uuid-50794181-5de0-4c8c-9200-373439f99fba"><path d="M46.55,27.24l-13.75,.02-16.95,.09h0c-.12,0-.24-.05-.34-.13L6.26,18.81c-.78-.68-1.97-.6-2.65,.19-.68,.78-.6,1.98,.18,2.66l9.41,9.01v1.04h-.13s-.01,0-.02,0H6.28c-1.36,0-2.47,1.11-2.47,2.47s1.11,2.47,2.47,2.47l40.27-.04c1.39,0,2.52-1.13,2.52-2.52v-4.34c0-1.39-1.13-2.52-2.52-2.52Z" fill="#ffcd00" stroke-width="0"/><path d="M44.8,24.49h-6.33c.02-.06,.04-.12,.04-.18V9.23h2.18c.28,0,.5-.22,.5-.5s-.22-.5-.5-.5h-2.18v-1.76c0-.28-.22-.5-.5-.5s-.5,.22-.5,.5v1.76h-4.83c-.13,0-.26,.05-.35,.15-.09,.09-.15,.22-.15,.35v1.84h-1.24c-.28,0-.5,.22-.5,.5v6.59c0,.28,.22,.5,.5,.5h1.2c-.33,4.27-1.2,6.27-2.7,6.28-.08,0-.16,.03-.23,.06l-12.11,.06c.42-.91,.4-1.99-.09-3.15-.55-1.3-1.63-2.62-3.14-3.82-1.45-1.16-3.12-1.87-4.69-2.02-1.5-.14-2.75,.25-3.59,1.1l-.41-.37c-.58-.51-1.32-.75-2.09-.7-.77,.05-1.47,.4-1.98,.98-1.05,1.2-.92,3.03,.26,4.06l8.69,8.32H4.53c-1.92,0-3.47,1.56-3.47,3.47s1.56,3.47,3.47,3.47h3.92v2.6c-1.27,.25-2.24,1.38-2.24,2.73,0,1.53,1.25,2.78,2.78,2.78s2.78-1.25,2.78-2.78c0-1.38-1.01-2.52-2.33-2.74v-2.6l33.24-.03v2.64c-1.27,.25-2.24,1.38-2.24,2.73,0,1.53,1.25,2.78,2.78,2.78s2.78-1.25,2.78-2.78c0-1.38-1.01-2.52-2.33-2.74v-2.64h1.1c1.94,0,3.52-1.58,3.52-3.52v-4.34c0-1.94-1.58-3.52-3.52-3.52ZM10.78,41.24c0,.98-.8,1.78-1.78,1.78s-1.78-.8-1.78-1.78,.8-1.78,1.78-1.78,1.78,.8,1.78,1.78Zm34.24,0c0,.98-.8,1.78-1.78,1.78s-1.78-.8-1.78-1.78,.8-1.78,1.78-1.78,1.78,.8,1.78,1.78ZM31.44,11.58h2.45v5.59h-2.45v-5.59Zm1.71,6.59h1.24c.28,0,.5-.22,.5-.5v-6.59c0-.28-.22-.5-.5-.5h-1.21v-1.34h4.33v15.07c0,.06,.01,.12,.04,.18h-6.13c1.15-1.33,1.55-3.91,1.73-6.32Zm-24.06-1.59c1.38,.13,2.86,.77,4.16,1.8,1.36,1.08,2.37,2.3,2.84,3.43,.46,1.1,.4,2.03-.16,2.77h-1.65l-7.95-7.21c.63-.61,1.58-.9,2.74-.79Zm38.24,15.76c0,1.39-1.13,2.52-2.52,2.52l-40.27,.04c-1.36,0-2.47-1.11-2.47-2.47s1.11-2.47,2.47-2.47h6.77s.01,0,.02,0h31.91c.28,0,.5-.22,.5-.5s-.22-.5-.5-.5H11.49L2.03,19.91c-.78-.68-.87-1.88-.18-2.66,.68-.78,1.88-.87,2.65-.19l9.25,8.4c.09,.08,.21,.13,.34,.13h0l16.95-.09,13.75-.02c1.39,0,2.52,1.13,2.52,2.52v4.34Z" stroke-width="0"/></g><g id="uuid-dcc6aba5-9803-4f4a-98dc-6ba59921a5a0"></g></svg>