<?xml version="1.0" encoding="UTF-8"?><svg width="70" height="70" xmlns="http://www.w3.org/2000/svg" viewBox="-10 -10 70 70"><rect x="-10" y="-10" width="70" height="70" fill="white"/><g id="uuid-99121895-c64d-4655-b8ca-4250e26eee6d"><g><path d="M46.38,19.2c-.29,.02-1.03,1.06-1.48,1.71-.99,1.44-2.11,3.08-3.61,3.01-2.08-.09-12.57-4.08-13.63-4.5h0c-1.06,.78-6.92,5.12-8.65,6.06-1.03,.56-4.77,2.04-8.39,3.47-.98,.39-1.94,.77-2.81,1.11-1.36,.54-2.99,1.2-3.49,1.46-.44,.24-.76,.64-.87,1.08-.1,.39-.04,.81,.17,1.22h.03c.16,.01,15.81,.89,20.35,.23,1.49-.22,3.16-.53,4.74-.84l.82-.16c3.35-.66,6.81-1.33,9.25-1.35,3.41-.03,9.54-.87,10.51-1.01,0-.26,.02-.61,.05-1.13,.08-1.46,.2-3.68-.16-5.07-.61-2.35-2-5.24-2.81-5.29Z" fill="#ffcd00" stroke-width="0"/><path d="M33.41,21.71c.16-1.08,.2-2.46-.17-3.96-.07-.28-.15-.54-.23-.79-.03-.19-.15-.35-.31-.4-.12-.04-.22,0-.27,0-.83,.34-1.79,.79-2.8,1.42-.76,.47-1.42,.96-1.98,1.42,.53,.47,1.39,1.14,2.6,1.63,1.29,.52,2.43,.64,3.16,.66Z" fill="#ffcd00" stroke-width="0"/><path d="M48.43,29.21c-.02-.19,.01-.76,.04-1.27,.08-1.53,.21-3.83-.19-5.37-.02-.06-1.59-5.9-3.71-6.04-.87-.07-1.53,.91-2.37,2.14-.8,1.17-1.8,2.62-2.74,2.58-.89-.04-3.78-.97-6.66-1.98,.04-.4,.4-5.22-1.57-5.54-1.4-.23-4.19,1.75-5.72,2.96l-.12,.1-.07,.06c-.07,.05-6.87,5.11-8.67,6.09-.98,.54-4.86,2.07-8.28,3.42l-2.81,1.11c-2.05,.82-3.16,1.28-3.59,1.51-.69,.38-1.19,1-1.37,1.72-.19,.72-.04,1.48,.41,2.2h0v.02h.02c.11,.18,.24,.36,.39,.53,1.55,1.74,4.63,2.77,6.73,2.85,.19,0,.59,.01,1.18,.01,6.08,0,31.51-.36,33.15-.4h.17c4-.1,5.92-.51,6.36-1.3,1.09-1.32,.17-4.29-.57-5.38Zm-.96-1.32c-.03,.52-.05,.87-.05,1.13-.92,.13-6.41,.89-9.9,1,.26-.54,.91-1.73,2.2-3.1,.04-.04,.05-.1,.07-.15,2.01-1.8,6.46-2.6,7.7-2.79,.11,1.28,.03,2.8-.03,3.9Zm-28.86-4.96l2.01,1.79c.1,.08,.21,.13,.33,.13,.14,0,.28-.06,.37-.17,.18-.21,.17-.52-.04-.71l-1.83-1.62,1.01-.69,2.13,1.8c.09,.08,.21,.12,.32,.12,.14,0,.28-.06,.38-.18,.18-.21,.15-.53-.06-.7l-1.92-1.62,.64-.44,2.58,1.73c.09,.06,.18,.08,.28,.08,.16,0,.32-.08,.42-.22,.15-.23,.09-.54-.14-.69l-2.25-1.51,1.95-1.34c2.45,3.13,4.1,4.47,5.05,5.04,1.7,1.01,6.48,2.57,8.58,3.14-1.11,1.29-1.66,2.37-1.88,2.86l-13.04,2.2-6.35-7.63-.19-.23,1.64-1.12Zm24.41-3.69c.44-.65,1.21-1.73,1.48-1.71,.81,.05,2.2,2.94,2.81,5.29,.01,.05,.02,.12,.04,.18-1.33,.2-5.94,1.03-8.19,3.01-1.37-.38-6.83-1.98-8.79-3.15-.89-.53-2.46-1.82-4.87-4.91,.11-.08,.2-.15,.27-.2h0c1.06,.43,11.55,4.42,13.63,4.51,1.49,.08,2.62-1.57,3.61-3.01Zm-11.19-.31c-2.12-.76-4.1-1.5-5.13-1.9,2.01-1.51,3.73-2.43,4.37-2.32,.66,.11,.89,2.95,.77,4.22ZM1.56,30.93c.11-.45,.44-.84,.87-1.08,.52-.27,2.24-.96,3.5-1.46l2.81-1.11c2.74-1.08,5.55-2.19,7.2-2.91l6.61,7.95c-.15,.02-.3,.05-.45,.07-4.54,.66-20.19-.22-20.35-.23h-.03c-.21-.41-.27-.83-.17-1.22Zm46.61,3.09c-.1,.17-.79,.75-5.56,.86h-.17c-.27,.01-32.01,.48-34.26,.4-1.95-.08-4.25-.96-5.57-2.09,2.34,.12,8.68,.43,13.78,.43,2.41,0,4.55-.07,5.85-.26,1.53-.22,3.28-.56,4.79-.85l.81-.16c3.31-.65,6.73-1.32,9.07-1.34,3.77-.03,10.5-1,10.78-1.04h.03c.58,1.03,1.11,3.22,.44,4.04Z" stroke-width="0"/></g></g><g id="uuid-fda0c1d3-4c9b-407b-9768-3ece3bacaabc"></g></svg>