<?xml version="1.0" encoding="UTF-8"?><svg width="70" height="70" xmlns="http://www.w3.org/2000/svg" viewBox="-10 -10 70 70"><rect x="-10" y="-10" width="70" height="70" fill="white"/><g id="uuid-8c6fd779-06ef-44c6-8420-e4d4f9e1d7b8"><path d="M31.35,13.53c.61.68.92,1.55.87,2.46s-.45,1.74-1.12,2.35c-1.4,1.26-3.55,1.15-4.81-.25-.61-.68-.92-1.55-.87-2.46.04-.91.44-1.74,1.12-2.35.63-.57,1.43-.87,2.27-.87h.18c.91.05,1.75.45,2.36,1.12Z" fill="#ffcd00" stroke-width="0"/><path d="M4.4,43.48l.62.82-.62,1.26.31,1.57.96.78,1.68.21,22.96-5.96c1.72-.46,2.96-1.97,3.08-3.75l.82-11.76c.02-.25.22-.44.46-.46l3.57-.24c.13-.01.25-.03.37-.07.08-.02.16-.05.23-.08l7.12-3.16c.89-.4,1.36-1.37,1.08-2.22-.02-.05-.05-.09-.07-.14l-.64-.78c-.08-.05-.17-.1-.26-.14-.45-.2-.98-.21-1.43-.01l-6.87,3.06c-.06.02-.12.04-.19.04l-5.3.17h-6.8l-5.32-.17c-.06,0-.13-.02-.19-.04l-6.75-3c-.56-.26-1.26-.18-1.78.12-.39.3-.67.75-.67.75-.17.39-.2.83-.06,1.24.15.47.5.86.96,1.07l7.23,3.21c.08.03.16.06.23.08.12.04.25.06.37.07l3.57.24c.25.02.44.21.46.46l.58,7.11c.06.67-.35,1.3-.98,1.53l-17.94,6.41c-.66.28-1.02,1.06-.78,1.78" fill="#ffcd00" stroke-width="0"/></g><g id="uuid-6176a9a6-e345-46e4-a1c6-cb9b44caf6c7"><path d="M47.3,19.42c.44,1.34-.27,2.85-1.63,3.45l-7.11,3.16c-.12.05-.24.1-.36.13-.19.06-.39.09-.58.11l-3.13.21-.79,11.32c-.16,2.2-1.69,4.07-3.82,4.65l-22.98,5.96c-.19.05-.39.07-.58.07-1.03,0-1.99-.66-2.33-1.68-.2-.62-.16-1.28.14-1.86.05-.1.1-.2.16-.29-.1-.03-.2-.07-.3-.12-.58-.3-1.02-.8-1.22-1.42-.4-1.2.2-2.53,1.37-3.02l17.96-6.42c.21-.07.34-.28.33-.51l-.55-6.68-3.14-.21c-.19-.02-.38-.05-.57-.11-.13-.03-.25-.08-.36-.13l-7.24-3.21c-.71-.32-1.26-.93-1.5-1.67-.25-.74-.16-1.56.23-2.24.02-.05.06-.08.09-.13-.29-.48-.46-1.04-.46-1.63,0-1.61,1.19-2.93,2.73-3.16l.75-13.14c.02-.27.23-.49.53-.47.28.02.49.26.47.53l-.75,13.08c1.52.26,2.68,1.57,2.68,3.16,0,.54-.14,1.08-.41,1.55l4.67,2.07,5.2.17h6.78l5.18-.17,4.67-2.07c-.26-.47-.41-1.01-.41-1.55,0-1.59,1.17-2.9,2.68-3.16l-.75-13.08c-.01-.27.2-.51.47-.53.32-.02.52.2.53.47l.75,13.14c1.54.23,2.73,1.55,2.73,3.16,0,.59-.17,1.15-.46,1.63.14.2.25.41.33.64ZM45.27,21.96c.89-.4,1.36-1.37,1.08-2.22-.02-.05-.05-.09-.07-.14-.29.24-.62.44-.99.57-.06.02-.11.03-.17.03-.2,0-.4-.13-.47-.33-.09-.27.05-.55.31-.64s.48-.24.68-.41c-.08-.05-.17-.1-.26-.14-.45-.2-.98-.21-1.43-.01l-6.87,3.06c-.06.02-.12.04-.19.04l-5.3.17h-6.8l-5.32-.17c-.06,0-.13-.02-.19-.04l-6.75-3c-.56-.26-1.26-.18-1.78.12.19.16.41.29.66.38.26.09.39.37.3.64-.07.2-.26.33-.47.33-.05,0-.11-.01-.16-.03-.38-.13-.71-.33-1-.57-.17.39-.2.83-.06,1.24.15.47.5.86.96,1.07l7.23,3.21c.08.03.16.06.23.08.12.04.25.06.37.07l3.57.24c.25.02.44.21.46.46l.58,7.11c.06.67-.35,1.3-.98,1.53l-17.94,6.41c-.66.28-1.02,1.06-.78,1.78.12.36.37.66.72.83.35.18.74.21,1.1.08l15.65-5.16c.27-.09.54.05.63.32.02.05.03.1.03.15,0,.21-.14.41-.35.48l-15.64,5.16c-.37.12-.67.38-.84.73-.17.34-.2.73-.08,1.1.24.71,1,1.12,1.72.95l22.96-5.96c1.72-.46,2.96-1.97,3.08-3.75l.82-11.76c.02-.25.22-.44.46-.46l3.57-.24c.13-.01.25-.03.37-.07.08-.02.16-.05.23-.08l7.12-3.16ZM46.23,18.02c.12-.28.2-.56.2-.87,0-1.22-.98-2.21-2.2-2.21s-2.21.99-2.21,2.21c0,.4.12.8.33,1.14l1.19-.53c.71-.32,1.53-.31,2.25,0,.15.07.3.16.44.26ZM14.02,18.29c.21-.34.32-.74.32-1.14,0-1.22-.99-2.21-2.21-2.21s-2.2.99-2.2,2.21c0,.32.09.62.22.9.8-.51,1.88-.64,2.79-.24l1.08.48Z" stroke-width="0"/><path d="M31.41,12.18c.79.88,1.19,2.01,1.13,3.18-.06,1.18-.58,2.26-1.45,3.04h0c-.84.76-1.9,1.13-2.95,1.13-1.21,0-2.41-.49-3.28-1.45-.78-.87-1.18-2-1.12-3.18.06-1.17.57-2.25,1.45-3.04.87-.79,2-1.19,3.18-1.13,1.17.06,2.25.58,3.04,1.45ZM31.54,15.31c.05-.91-.26-1.78-.87-2.46-.61-.67-1.45-1.07-2.36-1.12h-.18c-.84,0-1.64.3-2.27.87-.68.61-1.08,1.44-1.12,2.35-.05.91.26,1.78.87,2.46,1.26,1.4,3.41,1.51,4.81.25.67-.61,1.07-1.44,1.12-2.35Z" stroke-width="0"/></g></svg>