<?xml version="1.0" encoding="UTF-8"?><svg width="70" height="70" xmlns="http://www.w3.org/2000/svg" viewBox="-10 -10 70 70"><rect x="-10" y="-10" width="70" height="70" fill="white"/><g id="uuid-cc37b8f5-ec26-4302-b905-1f3a5dc1815a"><g><path d="M47.18,11.65l-6.93-6.93c-.46-.46-1.06-.69-1.66-.69s-1.2,.23-1.66,.69L4.72,36.93c-.92,.92-.92,2.41,0,3.32l7.09,7.09c.77,.77,2.04,.89,2.93,.32l-5.75-5.75c-.2-.2-.2-.51,0-.71L41.19,8.99c.2-.2,.51-.2,.71,0l5.6,5.6c.58-.91,.48-2.14-.32-2.93Z" fill="#ffcd00" stroke-width="0"/><path d="M47.74,10.79L39.21,2.26c-1.31-1.31-3.43-1.31-4.74,0L2.26,34.47c-1.31,1.31-1.31,3.43,0,4.74l8.53,8.53c.63,.63,1.47,.98,2.37,.98,.89,0,1.74-.35,2.37-.98,.2-.2,.2-.51,0-.71l-7.23-7.23,2.55-2.55,6.93,6.93c.1,.1,.23,.15,.35,.15s.26-.05,.35-.15c.2-.2,.2-.51,0-.71l-6.93-6.93,2.48-2.48,6.93,6.93c.1,.1,.23,.15,.35,.15s.26-.05,.35-.15c.2-.2,.2-.51,0-.71l-6.93-6.93,2.48-2.48,6.93,6.93c.1,.1,.23,.15,.35,.15s.26-.05,.35-.15c.2-.2,.2-.51,0-.71l-6.93-6.93,2.48-2.48,6.93,6.93c.1,.1,.23,.15,.35,.15s.26-.05,.35-.15c.2-.2,.2-.51,0-.71l-6.93-6.93,2.48-2.48,6.93,6.93c.1,.1,.23,.15,.35,.15s.26-.05,.35-.15c.2-.2,.2-.51,0-.71l-6.93-6.93,2.48-2.48,6.93,6.93c.1,.1,.23,.15,.35,.15s.26-.05,.35-.15c.2-.2,.2-.51,0-.71l-6.93-6.93,2.48-2.48,6.93,6.93c.1,.1,.23,.15,.35,.15s.26-.05,.35-.15c.2-.2,.2-.51,0-.71l-6.93-6.93,2.48-2.48,6.93,6.93c.1,.1,.23,.15,.35,.15s.26-.05,.35-.15c.2-.2,.2-.51,0-.71l-6.93-6.93,2.48-2.48,6.93,6.93c.1,.1,.23,.15,.35,.15s.26-.05,.35-.15c.2-.2,.2-.51,0-.71l-6.93-6.93,2.74-2.74,7.23,7.23c.2,.2,.51,.2,.71,0,1.31-1.31,1.31-3.43,0-4.74Zm-7.58-3.55c-.2-.2-.51-.2-.71,0L7.24,39.44c-.2,.2-.2,.51,0,.71l7.19,7.19c-.89,.57-2.16,.45-2.93-.32L2.97,38.5c-.92-.92-.92-2.41,0-3.32L35.18,2.97c.46-.46,1.06-.69,1.66-.69s1.2,.23,1.66,.69l8.53,8.53c.79,.79,.9,2.02,.32,2.93l-7.19-7.19Z" stroke-width="0"/></g></g><g id="uuid-8dab3dc3-1f6d-4683-86a8-1a8ee4303cb4"></g></svg>