<?xml version="1.0" encoding="UTF-8"?><svg width="70" height="70" id="uuid-c4cd540f-f9bc-4633-ad9d-327449b4f00a" xmlns="http://www.w3.org/2000/svg" viewBox="-10 -10 70 70"><rect x="-10" y="-10" width="70" height="70" fill="white"/><rect x="17.29" y="28.8" width="15.4" height="16.05" fill="#ffcd00"/><g><path d="M33.96,7.21h-4.76v-3.01c0-.83-.67-1.5-1.5-1.5h-8.02c-.83,0-1.5,.67-1.5,1.5v3.01h-4.76c-.28,0-.5,.22-.5,.5V46.47c0,.28,.22,.5,.5,.5h20.54c.28,0,.5-.22,.5-.5V7.71c0-.28-.22-.5-.5-.5Zm-14.78-3.01c0-.28,.22-.5,.5-.5h8.02c.28,0,.5,.22,.5,.5v3.01h-9.02v-3.01Zm14.28,41.76H13.92V8.21h19.54V45.97Z" stroke-width="0"/><path d="M28.39,27.09c0,.28,.22,.5,.5,.5h2.5v16.05H15.99V27.59h2.5c.28,0,.5-.22,.5-.5s-.22-.5-.5-.5h-3c-.28,0-.5,.22-.5,.5v17.05c0,.28,.22,.5,.5,.5H31.89c.28,0,.5-.22,.5-.5V27.09c0-.28-.22-.5-.5-.5h-3c-.28,0-.5,.22-.5,.5Z" stroke-width="0"/><path d="M20.89,29.54l1.22-.6-.89,7.22c-.03,.25,.12,.48,.36,.54,.04,.01,.09,.02,.13,.02,.19,0,.37-.11,.46-.3l4.99-11.13c.09-.19,.04-.42-.11-.56-.15-.15-.38-.18-.57-.09l-1.22,.6,.89-7.22c.03-.25-.12-.48-.36-.54-.24-.07-.49,.05-.59,.28l-4.99,11.13c-.09,.19-.04,.42,.11,.56,.15,.14,.38,.18,.57,.09Z" stroke-width="0"/></g></svg>