<?xml version="1.0" encoding="UTF-8"?><svg width="70" height="70" id="uuid-18f1fad4-0897-49e0-ba14-34b2fbd0c162" xmlns="http://www.w3.org/2000/svg" viewBox="-10 -10 70 70"><rect x="-10" y="-10" width="70" height="70" fill="white"/><path d="M7.18,28.57c-1.59,1.36-2.76,5.96-3.31,12.98,1.11-1.22,3.1-3.5,4.28-5.51,.15-.25,.41-.39,.68-.39,.09,0,.18,.01,.27,.05,.36,.13,.58,.48,.53,.87l-.81,5.77c1-1.07,2.44-2.77,3.36-4.53,.18-.34,.56-.5,.93-.39,.37,.11,.6,.46,.57,.84l-.31,3.1c1.05-1.3,2.56-3.32,3.33-5.08,.15-.34,.5-.53,.87-.46,.37,.07,.64,.37,.66,.74l.18,3.34c1.8-2.17,5.97-8.31,7.28-10.73-8.08-1.31-16.86-1.99-18.5-.58Z" fill="#ffcd00" stroke-width="0"/><path d="M36.21,11.03c-2.01,.81-5.43,8.94-7.96,16.71,2.75-.05,10.13-.95,12.88-1.55l-2.88-1.69c-.32-.19-.47-.57-.36-.92,.11-.36,.45-.58,.81-.56,1.92,.12,4.41-.29,6.05-.63l-2.9-1.15c-.36-.14-.56-.51-.49-.89,.07-.38,.39-.64,.77-.65,1.99-.01,4.16-.52,5.57-.91l-5.5-1.93c-.36-.13-.58-.48-.53-.87,.05-.38,.36-.66,.74-.68,2.33-.13,5.27-.85,6.86-1.28-5.09-2.14-9.04-3.25-11.44-3.25-.66,0-1.2,.08-1.61,.25Z" fill="#ffcd00" stroke-width="0"/><path d="M13.47,17.59c1.66,0,4.37-1.35,6.08-2.39,2.29-1.4,5.92-4.16,4.99-5.68h0c-.92-1.52-5.04,.44-7.33,1.84-1.57,.96-2.95,2.02-3.89,2.99-1.12,1.15-1.49,2.06-1.1,2.69,.24,.39,.68,.55,1.26,.55Zm4.26-5.37c2.68-1.63,4.76-2.25,5.6-2.25,.18,0,.3,.03,.36,.08,.12,.43-1.41,2.32-4.66,4.3-3.26,1.99-5.65,2.47-5.96,2.17-.13-.42,1.39-2.32,4.66-4.31Z" stroke-width="0"/><path d="M48.44,11.59c-4.96-2.12-11.48-4.4-14.36-3.24-3.13,1.27-7.4,13.79-8.63,17.6-.08,.24-.04,.51,.11,.71,.15,.2,.39,.33,.64,.33h.04c2.81,0,11.44-1.06,13.86-1.7,.31-.08,.54-.35,.59-.67,.04-.32-.11-.63-.39-.79l-2.63-1.54c2.19,0,4.75-.5,6.18-.82,.34-.08,.59-.36,.62-.71,.03-.35-.18-.68-.5-.81l-2.62-1.04c2.14-.16,4.3-.73,5.49-1.09,.33-.1,.56-.4,.56-.74,0-.35-.21-.66-.54-.77l-5.19-1.82c2.43-.26,5.16-.96,6.67-1.39,.33-.09,.56-.38,.58-.72,.02-.34-.17-.65-.48-.78Zm-7.79,1.97c-.38,.02-.69,.3-.74,.68-.05,.38,.16,.74,.53,.87l5.5,1.93c-1.4,.4-3.58,.9-5.57,.91-.38,0-.7,.27-.77,.65-.07,.38,.13,.75,.49,.89l2.9,1.15c-1.64,.34-4.12,.76-6.05,.63-.35-.02-.7,.2-.81,.56-.11,.36,.04,.74,.36,.92l2.88,1.69c-2.75,.6-10.12,1.5-12.88,1.55,2.53-7.78,5.95-15.9,7.96-16.71,.42-.17,.96-.25,1.61-.25,2.4,0,6.35,1.12,11.44,3.25-1.59,.43-4.54,1.15-6.86,1.28Z" stroke-width="0"/><path d="M24.38,26.46c-3.95-.65-17.04-2.6-19.6-.4-2.35,2.02-3.31,8.86-3.7,14.25-.02,.34,.16,.65,.47,.79,.31,.14,.67,.06,.91-.19,1.08-1.15,2.95-3.25,4.29-5.29l-.76,5.45c-.05,.34,.13,.68,.44,.83,.11,.05,.23,.08,.35,.08,.21,0,.42-.08,.57-.24,.87-.89,2.37-2.55,3.49-4.37l-.28,2.81c-.03,.35,.16,.68,.49,.82,.32,.13,.69,.05,.92-.22,.94-1.12,2.56-3.17,3.56-5.11l.17,3.05c.02,.32,.23,.6,.53,.71,.3,.11,.64,.02,.86-.22,1.69-1.86,6.62-9.11,7.88-11.57,.12-.23,.12-.5,0-.72-.11-.22-.33-.38-.58-.42Zm-7.72,11.67l-.18-3.34c-.02-.37-.29-.68-.66-.74-.37-.07-.72,.12-.87,.46-.77,1.77-2.28,3.79-3.33,5.08l.31-3.1c.04-.39-.19-.73-.57-.84-.37-.11-.75,.05-.93,.39-.92,1.76-2.37,3.46-3.36,4.53l.81-5.77c.05-.38-.16-.74-.53-.87-.09-.03-.18-.05-.27-.05-.27,0-.53,.14-.68,.39-1.18,2.01-3.17,4.3-4.28,5.51,.55-7.02,1.72-11.61,3.31-12.98,1.65-1.41,10.43-.73,18.5,.58-1.31,2.42-5.48,8.57-7.28,10.73Z" stroke-width="0"/></svg>