<?xml version="1.0" encoding="UTF-8"?><svg width="70" height="70" id="uuid-23894cde-82cb-498f-ba86-118e6829e957" xmlns="http://www.w3.org/2000/svg" viewBox="-10 -10 70 70"><rect x="-10" y="-10" width="70" height="70" fill="white"/><g><path d="M28.73,4.94c-1.87-1.87-4.91-1.87-6.78,0-1.49,1.49-2.98,2.98-4.47,4.46h0l-7.63,7.63c.84,1.18,.73,2.82-.32,3.88-.44,.44-1.01,.73-1.6,.83l5.2,5.2c.1-.6,.39-1.16,.83-1.6,1.05-1.05,2.7-1.16,3.88-.32l7.63-7.63-6.47-6.47c.5,.5,1.01,1.01,1.51,1.51,.99-.99,1.97-1.98,2.96-2.97,1.7-1.7,4.48-1.71,6.19,0l.17,.17,1.79-1.79-2.89-2.89Z" fill="#ffcd00" stroke-width="0"/><path d="M12.51,27.74c.21-.27,.41-.53,.62-.79-1.73-1.73-3.47-3.47-5.2-5.2-.27,.2-.54,.4-.81,.6l-1.48-1.48-2.45,2.45,8.37,8.37,2.45-2.45-1.51-1.51h0Z" fill="#ffcd00" stroke-width="0"/></g><path d="M24.42,16.84l.6-.6c.2-.2,.2-.51,0-.71l-4.61-4.61,2.26-2.26c1.32-1.32,3.46-1.32,4.78,0l.52,.52c.2,.2,.51,.2,.71,0l2.5-2.5c.2-.2,.2-.51,0-.71l-3.24-3.25c-1.09-1.09-2.55-1.7-4.1-1.7-1.55,0-3,.6-4.1,1.7l-4.11,4.11h0L7.33,15.15c-.2,.2-.2,.51,0,.71,.79,.79,.79,2.06,0,2.85-.51,.5-1.24,.69-1.94,.5l-.9-.9c-.2-.2-.51-.2-.71,0l-3.16,3.16c-.2,.2-.2,.51,0,.71l9.08,9.08c.1,.1,.23,.15,.35,.15s.26-.05,.35-.15l3.16-3.16c.09-.09,.15-.22,.15-.35s-.05-.26-.15-.35l-.9-.9c-.18-.7,0-1.43,.5-1.93,.79-.79,2.06-.78,2.85,0,.2,.2,.51,.2,.71,0l.68-.68,24.96,24.96c.09,.09,.22,.15,.35,.15s.26-.05,.35-.15l6.32-6.32c.2-.2,.2-.51,0-.71L24.42,16.84Zm-3.97-13.4c1.87-1.87,4.91-1.87,6.78,0l2.89,2.89-1.79,1.79-.17-.17c-1.71-1.71-4.49-1.7-6.19,0l-2.26,2.26-3.02-3.02,3.76-3.76ZM10.06,30.19L1.68,21.81l2.45-2.45,8.38,8.37-2.45,2.45Zm6.28-6.67c-1.17-.84-2.82-.73-3.88,.32-.44,.44-.73,1.01-.83,1.6l-5.2-5.2c.6-.1,1.16-.39,1.6-.83,1.05-1.05,1.16-2.7,.32-3.88l7.63-7.63,7.98,7.98-7.63,7.63Zm26.37,24.25L18.11,23.16l5.61-5.61,24.6,24.6-5.61,5.61Z" stroke-width="0"/></svg>