<?xml version="1.0" encoding="UTF-8"?><svg width="70" height="70" id="uuid-d33241f8-004a-4cbc-921f-fa02efed80f1" xmlns="http://www.w3.org/2000/svg" viewBox="-10 -10 70 70"><rect x="-10" y="-10" width="70" height="70" fill="white"/><g><polygon points="9.04 24.08 5.78 20.82 5.78 20.82 5.2 20.24 2.99 22.45 10.67 30.13 12.88 27.92 9.04 24.08" fill="#ffcd00"/><path d="M21.65,9.62c.77-.77,1.8-1.2,2.89-1.2s2.12,.42,2.89,1.2l.13,.13,1.6-1.6-2.64-2.65c-1.71-1.71-4.5-1.71-6.21,0l-3.45,3.45,2.74,2.74,2.06-2.06Z" fill="#ffcd00" stroke-width="0"/><path d="M12.86,24.29c.95-.95,2.53-1.07,3.61-.32l7-7-7.32-7.32-4.37,4.37-2.63,2.63c.33,.47,.5,1.03,.5,1.61,0,.75-.29,1.46-.83,2-.4,.4-.9,.66-1.43,.76l4.7,4.7c.11-.53,.37-1.03,.77-1.43Z" fill="#ffcd00" stroke-width="0"/><path d="M49.71,17.64l-3.49,3.49c-.1,.1-.25,.15-.39,.15l-5.43-.41c-.25-.02-.44-.21-.46-.46l-.41-5.42c-.01-.15,.04-.29,.15-.39l3.49-3.49c-.13,0-.26-.01-.39-.01-1.82,0-3.59,.72-4.9,2.03-1.76,1.76-2.37,4.25-1.84,6.51-4.94,4.98-9.89,9.97-14.83,14.95-2.24-.5-4.68,.12-6.42,1.86-1.41,1.41-2.13,3.33-2.02,5.29l3.49-3.49c.1-.1,.25-.16,.39-.15l5.43,.41c.25,.02,.44,.21,.46,.46l.41,5.42c.01,.15-.04,.29-.15,.39l-3.49,3.49c1.95,.12,3.88-.61,5.29-2.02,1.84-1.84,2.42-4.46,1.76-6.8,4.94-4.9,9.87-9.79,14.81-14.69,2.27,.53,4.75-.07,6.51-1.83,1.41-1.41,2.13-3.33,2.02-5.29Z" fill="#ffcd00" stroke-width="0"/></g><path d="M41.28,24.46c2.03,0,4.07-.77,5.61-2.32,1.88-1.88,2.69-4.56,2.17-7.17-.04-.18-.17-.33-.34-.38s-.37,0-.5,.12l-4.05,4.05-4.77-.36-.36-4.77,4.05-4.05c.13-.13,.18-.32,.12-.5-.05-.18-.2-.31-.38-.34-2.61-.52-5.29,.29-7.17,2.17-1.87,1.87-2.61,4.46-2.21,6.89l-4.75,4.75-6.2-6.2,.53-.53c.2-.2,.2-.51,0-.71l-4.23-4.23,2.06-2.06c1.16-1.16,3.19-1.16,4.36,0l.48,.48c.2,.2,.51,.2,.71,0l2.31-2.31c.2-.2,.2-.51,0-.71l-3-3c-2.1-2.1-5.52-2.1-7.63,0l-3.8,3.8-5.07,5.07-2.6,2.6c-.09,.09-.15,.22-.15,.35s.05,.26,.15,.35c.34,.34,.53,.8,.53,1.29s-.19,.94-.53,1.29c-.45,.46-1.11,.62-1.74,.46l-.83-.83c-.19-.19-.52-.19-.71,0L.43,20.6c-.2,.2-.2,.51,0,.71l8.39,8.39c.1,.1,.23,.15,.35,.15s.26-.05,.35-.15l2.92-2.92c.09-.09,.15-.22,.15-.35s-.05-.26-.15-.35l-.83-.83c-.16-.63,0-1.29,.46-1.74,.69-.69,1.89-.69,2.58,0,.09,.09,.22,.15,.35,.15s.26-.05,.35-.15l.6-.6,6.2,6.2-2.89,2.89c-2.37-.32-4.86,.42-6.68,2.24-1.88,1.88-2.69,4.56-2.17,7.17,.04,.18,.17,.33,.34,.38,.18,.05,.37,0,.5-.12l4.05-4.05,4.77,.36,.36,4.77-4.05,4.05c-.13,.13-.18,.32-.12,.5,.05,.18,.2,.31,.38,.34,.52,.1,1.04,.15,1.56,.15,2.09,0,4.1-.82,5.61-2.32,1.93-1.93,2.65-4.61,2.18-7.1l2.71-2.71,10.28,10.28c.1,.1,.23,.15,.35,.15s.26-.05,.35-.15l5.84-5.84c.2-.2,.2-.51,0-.71l-10.28-10.28,4.75-4.75c.42,.07,.85,.11,1.28,.11Zm-6.74,5.35l9.93,9.93-5.13,5.13-9.93-9.93,5.13-5.13Zm-8.85,7.44c-.38-1.1-1-2.14-1.88-3.02-.97-.97-2.14-1.64-3.37-2l13.29-13.29c.37,1.17,1.01,2.27,1.94,3.19,.92,.92,2.02,1.57,3.19,1.94l-13.17,13.17Zm-2.58,7.51c-1.41,1.41-3.34,2.13-5.29,2.02l3.49-3.49c.1-.1,.16-.25,.15-.39l-.41-5.42c-.02-.25-.21-.44-.46-.46l-5.43-.41c-.15-.01-.29,.04-.39,.15l-3.49,3.49c-.11-1.96,.61-3.88,2.02-5.29,2.71-2.7,7.11-2.71,9.81,0s2.71,7.11,0,9.81ZM14.97,22.47c-1.07-.75-2.66-.62-3.61,.32-.4,.4-.66,.9-.77,1.43l-4.7-4.7c.53-.11,1.03-.37,1.43-.76,.53-.53,.83-1.24,.83-2,0-.58-.18-1.14-.5-1.61l2.63-2.63,4.37-4.37,7.32,7.32-7,7Zm-13.48-1.52l2.21-2.21,.58,.58h0l3.26,3.26,3.84,3.84-2.21,2.21L1.49,20.95ZM25.01,4l2.64,2.65-1.6,1.6-.13-.13c-.77-.77-1.8-1.2-2.89-1.2s-2.12,.42-2.89,1.2l-2.06,2.06-2.74-2.74,3.45-3.45c1.71-1.71,4.5-1.71,6.21,0Zm-3.22,13.06l6.2,6.2-5.13,5.13-6.2-6.2,5.13-5.13Zm14.58-5.44c1.32-1.32,3.08-2.03,4.9-2.03,.13,0,.26,0,.39,.01l-3.49,3.49c-.1,.1-.16,.25-.15,.39l.41,5.42c.02,.25,.21,.44,.46,.46l5.43,.41c.14,0,.29-.04,.39-.15l3.49-3.49c.11,1.96-.61,3.88-2.02,5.29-2.71,2.71-7.11,2.71-9.81,0s-2.71-7.11,0-9.81Z" stroke-width="0"/></svg>