<?xml version="1.0" encoding="UTF-8"?><svg width="70" height="70" id="uuid-97045625-0815-4218-a6b7-bf3a4ed5637d" xmlns="http://www.w3.org/2000/svg" viewBox="-10 -10 70 70"><rect x="-10" y="-10" width="70" height="70" fill="white"/><path d="M49.52,24.75c.05-.4,.08-.8,.09-1.2,0-.49-.03-.97-.09-1.45-.91-.05-1.82-.08-2.73-.12v-6.7c0-.43-.23-.79-.52-.79H28.86v3.06l-7.22-1.05v4.63c-6.23-.12-12.5-.19-18.75-.17v2.65c3.46,0,6.95,.04,10.45,.09,0,2.04-.02,4.08-.03,6.12l-4.22-.04v2.21l4.2,.04v5.98H47.76v-5.65h1.2c.09-.35,.13-.71,.13-1.09,0-.38-.04-.75-.13-1.12h-1.19c0-1.83,.02-3.66,.02-5.48,.57,.03,1.15,.04,1.73,.07Z" fill="#ffcd00" stroke-width="0"/><path d="M48.92,20.45c-.05-.22-.24-.38-.47-.39-.72-.03-1.45-.05-2.17-.08v-6.46c0-.84-.68-1.52-1.52-1.52H26.86c-.28,0-.5,.22-.5,.5v2.62l-6.66-.76c-.14-.01-.28,.03-.39,.12-.11,.1-.17,.23-.17,.37v4.36c-6.07-.09-12.17-.14-18.25-.13-.28,0-.5,.22-.5,.5v3.21c0,.28,.22,.5,.5,.5,3.28,0,6.59,.03,9.9,.06v3.95l-3.69-.04c-.12-.02-.26,.05-.36,.14s-.15,.22-.15,.36v3.21c0,.27,.22,.5,.5,.5l3.7,.04v4.99h-2.42c-.28,0-.5,.22-.5,.5s.22,.5,.5,.5H48.09c.28,0,.5-.22,.5-.5s-.22-.5-.5-.5h-.83v-4.63h.57c.22,0,.41-.13,.48-.34,.19-.57,.28-1.16,.28-1.75,0-.6-.09-1.2-.28-1.77-.07-.2-.26-.34-.47-.34h-.58v-3.44c.38,.01,.77,.02,1.15,.04h.02c.23,0,.44-.16,.49-.39,.12-.53,.18-1.07,.19-1.62,0-.61-.06-1.22-.19-1.81Zm-21.57-7.45h17.41c.29,0,.52,.23,.52,.52v3.77l-17.93-2.05v-2.24Zm-7.21,6.2v-3.78l25.14,2.88v1.63l-1.23-.04c-6.27-.25-12.58-.45-18.84-.58-.9-.02-1.82-.02-2.72-.04l-2.35-.07Zm-8.36,17.31v-4.98l5.16,.05v4.93h-5.16Zm8.54,0h-2.38v-4.92l2.38,.02v4.9Zm6.39,0h-5.39v-4.89l5.39,.05v4.83Zm6.39,0h-5.39v-4.82l5.39,.05v4.77Zm6.39,0h-5.39v-4.76l5.39,.05v4.71Zm5.86,0h-4.86v-4.7l5.75,.06v4.64h-.9Zm2.09-7.85c.09,.37,.13,.74,.13,1.12,0,.37-.04,.74-.13,1.1l-39.87-.39v-2.21l39.87,.39Zm-35.67-1.35v-3.95c1.72,.02,3.44,.04,5.16,.06v3.93l-5.16-.05Zm6.16,.06v-3.93c.79,.01,1.59,.03,2.38,.04v3.91l-2.38-.02Zm3.38,.03v-3.91c1.23,.02,2.47,.04,3.7,.07,.56,.01,1.13,.03,1.69,.04v3.85l-5.39-.05Zm6.39,.06v-3.83c1.79,.04,3.59,.09,5.39,.14v3.75l-5.39-.05Zm6.39,.06v-3.73c1.8,.05,3.59,.1,5.39,.16v3.62l-5.39-.05Zm6.39,.06v-3.6c1.92,.06,3.84,.13,5.75,.2v3.46l-5.75-.06Zm7.52-4.34c-7.63-.29-15.35-.52-22.97-.68-7.89-.16-15.84-.25-23.66-.27v-2.21c7.93-.02,15.93,.05,23.81,.22,7.58,.16,15.26,.41,22.82,.73,.07,.4,.1,.81,.09,1.21,0,.33-.03,.67-.09,1Z" stroke-width="0"/></svg>