<?xml version="1.0" encoding="UTF-8"?><svg width="70" height="70" xmlns="http://www.w3.org/2000/svg" viewBox="-10 -10 70 70"><rect x="-10" y="-10" width="70" height="70" fill="white"/><g id="uuid-2be54f15-7fb5-4cdc-8d87-f5efea0e78b2"><path d="M38.41,33.27c-.44-1.05-1.48-1.73-2.64-1.73,0,0-.02,0-.03,0-.03,0-.07,0-.1,0h-7.48c-.28,0-.5-.22-.5-.5v-6.67c0-.28,.22-.5,.5-.5h4.61c1.29,0,2.34-1.03,2.34-2.29s-1.05-2.29-2.34-2.29h-4.61c-.28,0-.5-.22-.5-.5v-2.73c0-.22-.01-.59-.27-.92-.39-.51-1.03-.54-1.17-.54h-2.77c-.15,.01-.77,.08-1.18,.6-.27,.33-.33,.7-.34,.89v18.24c0,1.55,1.29,2.81,2.86,2.81h8.73c.2,0,.38,.12,.46,.31l4,9.45c.61,1.43,2.29,2.11,3.75,1.51,.71-.29,1.26-.84,1.55-1.54,.28-.69,.28-1.44-.01-2.13l-4.86-11.49Z" fill="#ffcd00" stroke-width="0"/><path d="M31.72,43.81c-2.89,2.53-6.61,3.92-10.46,3.92-8.77,0-15.9-7.13-15.9-15.9,0-7.21,4.86-13.53,11.82-15.37,.27-.07,.43-.34,.36-.61s-.34-.42-.61-.36c-7.4,1.96-12.57,8.67-12.57,16.34,0,9.32,7.58,16.9,16.9,16.9,4.09,0,8.04-1.48,11.12-4.17,.21-.18,.23-.5,.05-.71-.18-.21-.5-.23-.71-.05Z" stroke-width="0"/><path d="M42.44,42.61l-4.86-11.49c-.61-1.43-2.01-2.33-3.54-2.33-.02,0-.07,0-.1,0h-7.03v-5.67h4.11c1.84,0,3.34-1.48,3.34-3.29s-1.5-3.29-3.34-3.29h-4.11v-2.2c.02-.33-.02-.97-.47-1.55-.71-.94-1.82-.93-2.02-.93h-2.74c-.28,.02-1.26,.13-1.93,.98-.42,.52-.53,1.08-.56,1.48v18.28c0,2.1,1.73,3.81,3.86,3.81h8.4l3.87,9.15c.62,1.46,2.06,2.34,3.57,2.34,.49,0,.99-.09,1.48-.29,.96-.39,1.71-1.13,2.1-2.08,.39-.94,.38-1.97-.01-2.9Zm-.91,2.52c-.29,.7-.84,1.25-1.55,1.54-1.46,.6-3.14-.08-3.75-1.51l-4-9.45c-.08-.19-.26-.31-.46-.31h-8.73c-1.58,0-2.86-1.26-2.86-2.81V14.35c.01-.19,.07-.56,.34-.89,.41-.52,1.03-.59,1.18-.6h2.77c.15,0,.79,.02,1.17,.53,.26,.34,.28,.71,.27,.92v2.73c0,.28,.22,.5,.5,.5h4.61c1.29,0,2.34,1.03,2.34,2.29s-1.05,2.29-2.34,2.29h-4.61c-.28,0-.5,.22-.5,.5v6.67c0,.28,.22,.5,.5,.5h7.48s.07,0,.1,0c.01,0,.02,0,.03,0,1.16,0,2.2,.68,2.64,1.73l4.86,11.49c.29,.69,.29,1.44,.01,2.13Z" stroke-width="0"/><path d="M23.2,10.68c2.59,0,4.7-2.11,4.7-4.7s-2.11-4.71-4.7-4.71-4.71,2.11-4.71,4.71,2.11,4.7,4.71,4.7Zm0-8.41c2.04,0,3.7,1.66,3.7,3.71s-1.66,3.7-3.7,3.7-3.71-1.66-3.71-3.7,1.66-3.71,3.71-3.71Z" stroke-width="0"/></g><g id="uuid-6cecf203-6729-4c19-9f2d-48aa7c422c62"></g></svg>