<?xml version="1.0" encoding="UTF-8"?><svg width="70" height="70" xmlns="http://www.w3.org/2000/svg" viewBox="-10 -10 70 70"><rect x="-10" y="-10" width="70" height="70" fill="white"/><g id="uuid-92287671-90df-4df7-9838-956d713613f8"><g><path d="M30.27,3.29c-1.67,0-3.02,1.36-3.02,3.02v5.48h4.72v-3.15c0-.28,.22-.5,.5-.5h15.15V3.29H30.27Z" fill="#ffcd00" stroke-width="0"/><circle cx="44.18" cy="18.64" r=".8" fill="#ffcd00"/><path d="M25.25,11.28h5.72c.28,0,.5-.22,.5-.5v-3.15h15.15c.28,0,.5-.22,.5-.5V1.29c0-.28-.22-.5-.5-.5H28.77c-2.22,0-4.02,1.8-4.02,4.02v5.98c0,.28,.22,.5,.5,.5Zm.5-1v-1.29h4.72v1.29h-4.72ZM28.77,1.79h17.34V6.64h-15.15c-.28,0-.5,.22-.5,.5v.85h-4.72v-3.18c0-1.67,1.36-3.02,3.02-3.02Z" stroke-width="0"/><path d="M30.93,30.65s.01-.1,0-.25l-.15,.06c.07,.11,.12,.19,.15,.18Z" fill="none" stroke-width="0"/><path d="M20.33,37.94c.08,.19,.27,.31,.46,.31,.06,0,.13-.01,.19-.04l.29-.12c.14-.47,.34-.92,.61-1.34l-1.28,.54c-.25,.11-.38,.4-.27,.65Z" fill="none" stroke-width="0"/><path d="M22.73,43.65c.08,.19,.27,.31,.46,.31,.06,0,.13-.01,.19-.04h.02c-.25-.17-.48-.36-.7-.56-.02,.1-.02,.2,.02,.29Z" fill="none" stroke-width="0"/><path d="M47.36,38.1c-1.02-.78-1.56-.82-1.56-.82,.21-.2,.52-.56,.72-1.09,.55-1.44-.07-3.33-1.37-4.1-.58-.34-1.35-.47-1.91-.37-.21,.04-.5,.12-.79,.33-.21,.15-.35,.32-.39,.29-.05-.04,.13-.27,.19-.68,.03-.17,.04-.34,.04-.52,0-1.72-1.4-3.12-3.12-3.12-.89,0-1.72,.38-2.3,1.02-.37-.86-1.09-1.54-2.01-1.79-1.38-.38-2.8,.24-3.5,1.41,.09,.09,.16,.2,.21,.32,.11,.26,.11,.54,0,.8-.11,.26-.31,.46-.57,.57l-.08,.03c.02,.14,.03,.24,0,.25-.03,.01-.08-.07-.15-.18l-.89,.37c-.06-.03-.11-.07-.17-.09-.5-.21-1.06-.21-1.57,0l-2.35,.98c-.14,.38-.21,.78-.21,1.17l2.94-1.23c.26-.11,.54-.11,.8,0,.26,.11,.46,.31,.57,.57s.11,.54,0,.8c-.11,.26-.31,.46-.56,.57h0l-7.47,3.13c-.27,.41-.46,.87-.61,1.34l8.46-3.55,1.67-.7c.26-.11,.54-.11,.8,0,.26,.11,.46,.31,.57,.57s.11,.54,0,.8c-.11,.26-.31,.46-.56,.57l-1.66,.7h0l-8.75,3.67c-.25,.11-.38,.4-.27,.65,.08,.19,.27,.31,.46,.31,.06,0,.13-.01,.19-.04l8.75-3.67h0c.26-.11,.54-.11,.8,0,.26,.11,.46,.31,.57,.57,.22,.53-.03,1.15-.56,1.37l-4.23,1.77h0l-1.27,.54h0l-3.24,1.36c-.16,.07-.26,.21-.29,.36,.22,.2,.45,.39,.7,.55l2.39-1h0l2.1-.88c.53-.22,1.14,.04,1.37,.57,.22,.53-.03,1.15-.56,1.37l-1.67,.7c.36-.07,.7-.17,1.09-.29,.42-.12,.75-.25,.99-.35-.05,.09-.11,.2-.15,.33-.1,.31-.07,.58-.04,.74,.24,.64,.67,1.18,1.27,1.53,.69,.41,1.5,.53,2.28,.32,.42-.11,.8-.3,1.12-.55,.31-.24,.33-.52,.76-.89,.08-.07,.14-.11,.2-.15v.08c.05,.07,.14,.18,.23,.31,.32,.47,.26,.75,.49,1.06,.24,.34,.56,.62,.93,.83,.7,.4,1.5,.51,2.28,.3,.67-.18,1.23-.58,1.63-1.13,.07-.14,.17-.4,.16-.72,0-.14-.03-.26-.06-.36,.2,.16,.49,.37,.86,.6,.59,.37,1.07,.69,1.75,.88,.67,.19,1.37,.24,2.08,.14,1.37-.18,2.59-.89,3.43-1.99,1.73-2.27,1.3-5.52-.97-7.25Z" fill="#ffcd00" stroke-width="0"/><path d="M9.8,28.33v1.63h-.45c0,.51-.15,.97-.37,1.39l.92-.39c.16-.07,.28-.22,.3-.39,.13-.91,.42-1.76,.85-2.53-.32,.18-.69,.29-1.08,.29-.06,0-.11-.01-.17-.02Z" fill="none" stroke-width="0"/><path d="M8.98,31.36c.22-.42,.36-.89,.37-1.39h.45v-1.63c.06,0,.11,.02,.17,.02,.4,0,.76-.11,1.08-.29,.3-.54,.66-1.03,1.09-1.47,.03-.14,.05-.29,.05-.45,0-1.22-.99-2.22-2.22-2.22s-2.22,.99-2.22,2.22c0,.56,.21,1.06,.55,1.45-.55-.49-1.27-.8-2.07-.8-1.73,0-3.13,1.4-3.13,3.13s1.4,3.13,3.13,3.13c.22,0,.43-.02,.64-.07l-.26-.61,2.36-.99Z" fill="#ffcd00" stroke-width="0"/><path d="M33.71,35.58c.21-.51,.21-1.06,0-1.57-.21-.5-.61-.9-1.11-1.1-.51-.21-1.06-.2-1.57,0l-.04,.02c.05-.36,0-.73-.14-1.08-.04-.09-.09-.18-.14-.27l.71-.3c.5-.21,.9-.61,1.1-1.11,.21-.51,.2-1.06,0-1.57-.14-.35-.38-.64-.67-.86l.04-.02c.5-.21,.9-.61,1.1-1.11,.21-.51,.21-1.06,0-1.57-.21-.5-.61-.9-1.11-1.1-.5-.21-1.06-.21-1.57,0l-.04,.02c.05-.35,0-.73-.14-1.08-.21-.5-.61-.9-1.11-1.1-.51-.21-1.06-.2-1.57,0l-4.95,2.07c.05-.35,0-.73-.14-1.08-.21-.5-.61-.9-1.11-1.1-.5-.21-1.06-.21-1.57,0l-5.04,2.12c-.06,.02-.11,.05-.12,.07l-.1,.03c-.07,.02-.14,.05-.21,.08-2.57,1.08-4.44,3.43-4.92,6.17l-3.49,1.46c-.25,.11-.38,.4-.27,.65l3.11,7.42-2.11,.88c-.12,.05-.22,.15-.27,.27-.05,.12-.05,.26,0,.38l3.22,7.67c.08,.19,.27,.31,.46,.31,.06,0,.13-.01,.19-.04l3.74-1.57c2.25,1.36,5.02,1.57,7.46,.55,.07-.03,.13-.06,.2-.09l.06-.03c.06-.01,.11-.03,.17-.05l7.38-3.09c.5-.21,.9-.61,1.1-1.11,.21-.51,.2-1.06,0-1.57-.15-.35-.38-.64-.67-.86l2.62-1.1c1.04-.44,1.53-1.64,1.1-2.68-.15-.35-.38-.64-.67-.86l.04-.02c.5-.21,.9-.61,1.1-1.11Zm-2.13-5.78c-.11,.26-.31,.46-.57,.57l-1.12,.47c-.06-.03-.11-.07-.17-.09-.5-.21-1.06-.21-1.57,0l-4.94,2.07c.05-.35,0-.73-.14-1.08-.04-.09-.09-.18-.14-.27l7.28-3.05h0c.26-.11,.54-.11,.8,0,.26,.11,.46,.31,.57,.57s.11,.54,0,.8Zm-24.96,2.55l3.29-1.38c.16-.07,.28-.22,.3-.39,.36-2.56,1.99-4.68,4.37-5.67,.05-.02,.1-.04,.15-.05l.12-.04s.13-.07,.15-.08l5.05-2.12c.26-.11,.54-.11,.8,0,.26,.11,.46,.31,.57,.57,.2,.47,.02,1.01-.41,1.28l-4.25,1.78c-.24,.1-.37,.38-.28,.63,.11,.32,.23,.83,.11,1.39-.33,1.62-2.25,2.25-2.27,2.25-.26,.08-.41,.36-.33,.63,.07,.21,.26,.35,.48,.35,.05,0,.1,0,.15-.02,.1-.03,2.5-.81,2.95-3.01,.09-.47,.09-.97-.02-1.46l3.82-1.6s.07,0,.1-.02l6.33-2.66c.26-.11,.54-.11,.8,0,.26,.11,.46,.31,.57,.57s.11,.54,0,.8c-.11,.26-.31,.46-.56,.57h0l-8.75,3.67c-.25,.11-.38,.4-.27,.65,.08,.19,.27,.31,.46,.31,.06,0,.13-.01,.19-.04l8.75-3.67h0l1.66-.7c.26-.11,.54-.11,.8,0,.26,.11,.46,.31,.57,.57,.11,.26,.11,.54,0,.8-.11,.26-.31,.46-.57,.57l-1.67,.7h0l-7.69,3.23c-.06-.03-.11-.06-.17-.09-.51-.21-1.06-.2-1.57,0l-5.05,2.12c-.05,.02-.1,.05-.11,.07l-.1,.04c-.07,.02-.14,.05-.2,.08-2.52,1.06-4.3,3.24-4.86,5.89l-.62,.26-2.83-6.75Zm25.6,3.42l-1.66,.7h0l-8.75,3.67c-.25,.11-.38,.4-.27,.65,.08,.19,.27,.31,.46,.31,.06,0,.13-.01,.19-.04l8.75-3.67h0c.26-.11,.54-.11,.8,0,.26,.11,.46,.31,.57,.57,.22,.53-.03,1.15-.56,1.37l-4.23,1.77h0l-1.27,.54h0l-3.24,1.36c-.25,.11-.38,.4-.27,.65,.08,.19,.27,.31,.46,.31,.06,0,.13-.01,.19-.04l2.42-1.01h0l2.1-.88c.53-.22,1.14,.04,1.37,.57,.22,.53-.03,1.15-.56,1.37l-7.42,3.1s-.1,.03-.13,.04l-.12,.06s-.09,.04-.13,.06c-2.21,.92-4.73,.7-6.75-.61-.14-.09-.31-.11-.47-.04l-3.51,1.47-2.83-6.75,3.29-1.38c.16-.07,.28-.22,.3-.39,.36-2.56,1.99-4.68,4.37-5.67,.04-.02,.09-.03,.14-.05l.19-.08s.08-.05,.09-.05l5.05-2.12c.26-.11,.54-.11,.8,0,.26,.11,.46,.31,.57,.57,.2,.48,.02,1.02-.42,1.29-.01,0-.02,.02-.03,.03l-5.32,2.25c-.25,.11-.37,.4-.27,.66,.08,.19,.27,.31,.46,.31,.07,0,.13-.01,.19-.04l5.44-2.3h0l6.33-2.66c.26-.11,.54-.11,.8,0,.26,.11,.46,.31,.57,.57s.11,.54,0,.8c-.11,.26-.31,.46-.56,.57h0l-8.75,3.67c-.25,.11-.38,.4-.27,.65,.08,.19,.27,.31,.46,.31,.06,0,.13-.01,.19-.04l8.75-3.67,1.67-.7c.26-.11,.54-.11,.8,0,.26,.11,.46,.31,.57,.57s.11,.54,0,.8c-.11,.26-.31,.46-.56,.57Z" stroke-width="0"/><path d="M28.67,12.57c0-.28-.22-.5-.5-.5s-.5,.22-.5,.5v1c0,.28,.22,.5,.5,.5s.5-.22,.5-.5v-1Z" stroke-width="0"/><path d="M28.67,15.17c0-.28-.22-.5-.5-.5s-.5,.22-.5,.5v1.6c0,.28,.22,.5,.5,.5s.5-.22,.5-.5v-1.6Z" stroke-width="0"/><path d="M28.17,17.87c-.28,0-.5,.22-.5,.5v1c0,.28,.22,.5,.5,.5s.5-.22,.5-.5v-1c0-.28-.22-.5-.5-.5Z" stroke-width="0"/><path d="M25.28,12.56l-.23,.97c-.06,.27,.11,.54,.37,.6,.04,0,.08,.01,.11,.01,.23,0,.43-.16,.49-.39l.23-.97c.06-.27-.11-.54-.37-.6-.27-.06-.54,.11-.6,.37Z" stroke-width="0"/><path d="M24.69,17.3s.08,.01,.11,.01c.23,0,.43-.16,.49-.39l.37-1.58c.06-.27-.11-.54-.37-.6-.27-.06-.54,.11-.6,.37l-.37,1.58c-.06,.27,.11,.54,.37,.6Z" stroke-width="0"/><path d="M24.1,19.86s.08,.01,.11,.01c.23,0,.43-.16,.49-.39l.23-.97c.06-.27-.11-.54-.37-.6-.27-.06-.54,.11-.6,.37l-.23,.97c-.06,.27,.11,.54,.37,.6Z" stroke-width="0"/><path d="M32.01,20.62s.06,0,.09,0c.27-.05,.45-.31,.4-.58l-.19-.98c-.05-.27-.32-.45-.58-.4-.27,.05-.45,.31-.4,.58l.19,.98c.05,.24,.26,.41,.49,.41Z" stroke-width="0"/><path d="M31.46,17.81s.06,0,.1,0c.27-.05,.45-.31,.4-.59l-.35-1.83c-.05-.27-.32-.45-.59-.4-.27,.05-.45,.31-.4,.59l.35,1.83c.05,.24,.26,.41,.49,.41Z" stroke-width="0"/><path d="M30.85,14.14c.27-.05,.45-.31,.4-.59l-.19-.98c-.05-.27-.32-.45-.59-.4-.27,.05-.45,.31-.4,.59l.19,.98c.05,.24,.26,.41,.49,.41,.03,0,.06,0,.1,0Z" stroke-width="0"/><path d="M17.78,13.54c0-1.22-.99-2.21-2.21-2.21s-2.21,.99-2.21,2.21,.99,2.21,2.21,2.21,2.21-.99,2.21-2.21Z" fill="#ffcd00" stroke-width="0"/><path d="M41.8,18.07c0,.99,.81,1.8,1.8,1.8s1.8-.81,1.8-1.8-.81-1.8-1.8-1.8-1.8,.81-1.8,1.8Zm2.6,0c0,.44-.36,.8-.8,.8s-.8-.36-.8-.8,.36-.8,.8-.8,.8,.36,.8,.8Z" stroke-width="0"/><path d="M48.42,43.07c.04-.11,.09-.21,.13-.32,.03-.07,.05-.15,.07-.22,.04-.12,.07-.24,.1-.36,.02-.07,.03-.14,.04-.21,.03-.13,.05-.26,.07-.39,0-.05,.01-.11,.02-.16,.02-.15,.03-.3,.04-.46,0-.03,0-.06,0-.08,.05-1.91-.78-3.82-2.42-5.07-.27-.21-.55-.39-.84-.54v-.02c.55-.93,.69-2.02,.41-3.06-.28-1.04-.95-1.91-1.88-2.45-.74-.42-1.57-.59-2.4-.51-.22-2.06-1.95-3.68-4.08-3.68-1.52,0-2.91,.83-3.63,2.17-.13,.24-.04,.55,.2,.68,.24,.13,.54,.04,.68-.2v-.02c.56-1,1.61-1.62,2.75-1.62,1.72,0,3.12,1.4,3.12,3.12,0,.41-.08,.81-.24,1.19v.02s-.03,.1-.04,.15c-.02,.21,.09,.42,.3,.51,.06,.03,.13,.04,.19,.04,.19,0,.38-.11,.46-.31,.14-.33,.22-.68,.27-1.03,.66-.09,1.33,.03,1.91,.37,1.45,.83,1.95,2.7,1.12,4.15-.02,.04-.06,.08-.08,.12-.6-.2-1.23-.31-1.87-.32h0c-.27,0-.5,.22-.5,.49,0,.28,.22,.5,.49,.51,1.11,.02,2.17,.38,3.06,1.06,2.27,1.73,2.7,4.99,.97,7.25-.84,1.1-2.06,1.81-3.43,1.99-1.37,.18-2.73-.18-3.83-1.02-.44-.34-.82-.74-1.13-1.19-.16-.23-.47-.28-.7-.13-.23,.16-.29,.47-.13,.7,.28,.41,.62,.77,1,1.1-.4,.55-.97,.95-1.63,1.13-.78,.21-1.59,.1-2.28-.3-.72-.42-1.23-1.09-1.42-1.9-.03-.14-.12-.25-.24-.31-.11-.06-.24-.09-.37-.06-.27,.07-.43,.34-.37,.6,.26,1.08,.93,1.97,1.89,2.53,.62,.36,1.3,.54,2,.54,.35,0,.7-.05,1.05-.14,.86-.23,1.61-.73,2.15-1.46,.07,.05,.15,.1,.23,.14,1.43,.82,3.1,1.04,4.69,.61,.08-.02,.16-.06,.24-.09,.26-.08,.52-.17,.76-.29,.11-.05,.22-.11,.33-.17,.25-.13,.49-.28,.72-.45,.09-.07,.17-.14,.26-.21,.23-.19,.45-.39,.65-.61,.06-.07,.12-.14,.18-.21,.06-.07,.12-.14,.18-.21,.15-.19,.28-.4,.4-.6,0-.02,.02-.03,.03-.05,.04-.08,.08-.15,.12-.23,.04-.08,.09-.17,.13-.25,.04-.08,.07-.17,.11-.25Z" stroke-width="0"/><path d="M11.08,10.92c-.13,.35-.21,.73-.21,1.12,0,1.77,1.44,3.21,3.21,3.21s3.21-1.44,3.21-3.21c0-1.6-1.18-2.92-2.72-3.16,0-.05,.01-.09,.01-.14,0-1.34-1.09-2.43-2.43-2.43s-2.43,1.09-2.43,2.43c0,.95,.56,1.77,1.36,2.17Zm.79,1.12c0-1.22,.99-2.21,2.21-2.21s2.21,.99,2.21,2.21-.99,2.21-2.21,2.21-2.21-.99-2.21-2.21Zm.28-4.72c.79,0,1.43,.64,1.43,1.43,0,.05,0,.09-.01,.14-.8,.13-1.5,.56-1.98,1.17-.5-.22-.86-.72-.86-1.31,0-.79,.64-1.43,1.43-1.43Z" stroke-width="0"/><path d="M2.69,30.77c-.87-.74-1.26-1.89-1.02-3.01,.17-.82,.65-1.51,1.35-1.97,.7-.45,1.53-.61,2.35-.44,.41,.09,.78,.25,1.12,.48h.02c.23,.17,.54,.11,.7-.11,.16-.23,.1-.54-.12-.7-.27-.18-.55-.32-.85-.44,.04-.06,.06-.13,.07-.2,0-.06,.02-.11,.03-.16,.09-.51,.35-.97,.75-1.3,.45-.37,1.01-.54,1.59-.48,.58,.06,1.09,.33,1.46,.78,.05,.05,.08,.11,.11,.17,.03,.05,.06,.09,.09,.14,.14,.24,.45,.32,.68,.19,.24-.14,.32-.44,.19-.68-.09-.15-.18-.31-.3-.45-.54-.65-1.29-1.06-2.14-1.14-.85-.08-1.67,.17-2.32,.7-.65,.54-1.06,1.29-1.14,2.14,0,.02,0,.04,0,.07-2.13-.3-4.16,1.08-4.61,3.21-.31,1.48,.21,3.02,1.37,4,.09,.08,.21,.12,.32,.12,.14,0,.28-.06,.38-.18,.18-.21,.15-.53-.06-.71l-.02-.02Z" stroke-width="0"/></g></g><g id="uuid-46caa87a-de66-46fb-9693-7052404eac29"></g></svg>