<?xml version="1.0" encoding="UTF-8"?><svg width="70" height="70" xmlns="http://www.w3.org/2000/svg" viewBox="-10 -10 70 70"><rect x="-10" y="-10" width="70" height="70" fill="white"/><g id="uuid-d87823df-665d-47e4-a6e9-59714dd5616e"><path d="M35.06,37.63l5.21-2.54c.35-.17,.61-.46,.73-.82,.13-.36,.1-.75-.06-1.1-.34-.71-1.21-1.01-1.92-.67h0c-.24,.09-.51-.01-.63-.23-.12-.23-.04-.53,.19-.67h0l2.04-.98c.72-.35,1.02-1.21,.67-1.92-.35-.71-1.21-1.02-1.92-.67l-2.03,.98h0c-.35,.05-.63-.17-.67-.43-.02-.17,.07-.35,.23-.47h0s.07-.06,.1-.08c.79-.35,1.58-.71,2.36-1.06,.02,0,.03-.01,.05-.02l.13-.06c.73-.33,1.46-.65,2.19-.98l-.07-.04,.84-.41c.35-.17,.61-.46,.73-.82,.13-.36,.1-.75-.06-1.1-.17-.35-.46-.61-.82-.73-.36-.12-.75-.1-1.1,.06h0c-.31,.14-.65-.02-.73-.29-.07-.22,.05-.49,.3-.61l2.04-.98c.35-.17,.61-.46,.73-.82,.13-.36,.1-.75-.06-1.1-.34-.72-1.21-1.02-1.92-.67l-2.03,.98h0c-.28,.12-.6-.02-.69-.28-.08-.22,.02-.49,.26-.62h0c.35-.17,.61-.46,.73-.82,.13-.36,.1-.75-.06-1.1-.17-.35-.46-.61-.82-.73-.36-.13-.75-.1-1.1,.06l-7.27,3.51c-.19-.38-.39-.76-.58-1.15,.22-.4,.26-.88,.06-1.31-.17-.35-.46-.61-.82-.73-.37-.13-.75-.1-1.1,.06l-6.17,2.98s-.11,.07-.12,.08l-.21,.1c-.06,.02-.12,.05-.18,.08-2.94,1.42-4.87,4.22-5.16,7.48-.02,.18-.12,.33-.28,.41l-4.13,1.99,1.97,4.08c.2,.4,.41,.81,.61,1.21-.19,.63-.34,1.27-.4,1.95-.02,.18-.12,.33-.28,.41l-3.97,1.91,4,8.52,4.34-2.09c.15-.07,.33-.07,.47,.02,2.64,1.52,5.86,1.64,8.6,.32,.06-.03,.12-.06,.17-.09l.14-.08s.12-.05,.15-.06l9.08-4.37c.35-.17,.61-.46,.73-.82,.13-.36,.1-.75-.06-1.1h0c-.17-.35-.46-.61-.82-.73-.36-.13-.75-.1-1.1,.06-.23,.09-.5,0-.62-.23-.11-.22-.05-.49,.15-.63Z" fill="#ffcd00" stroke-width="0"/><path d="M33.45,14.09c1.3,0,2.35-1.05,2.35-2.35,0-.91-1.33-3.58-2.39-5.48-1.03,1.9-2.31,4.57-2.31,5.48,0,1.3,1.05,2.35,2.35,2.35Z" fill="#ffcd00" stroke-width="0"/><path d="M31.7,13.34c1.85,0,3.35-1.5,3.35-3.35,0-1.66-2.66-6.24-2.97-6.76-.09-.15-.22-.23-.43-.25-.18,0-.34,.1-.43,.25-.29,.52-2.87,5.1-2.87,6.75,0,1.85,1.5,3.35,3.35,3.35Zm-.04-8.83c1.06,1.9,2.39,4.57,2.39,5.48,0,1.3-1.05,2.35-2.35,2.35s-2.35-1.05-2.35-2.35c0-.91,1.28-3.58,2.31-5.48Z" stroke-width="0"/><path d="M42.9,18.69c.21-.62,.17-1.28-.12-1.86-.29-.58-.78-1.02-1.4-1.24-.62-.21-1.28-.17-1.86,.12l-.26,.13c.09-.49,.03-1.02-.21-1.5-.29-.59-.78-1.02-1.4-1.24-.62-.21-1.28-.17-1.86,.12l-6.24,3.05c.09-.49,.02-1.02-.21-1.5-.29-.59-.78-1.02-1.4-1.24-.62-.21-1.28-.17-1.86,.12l-6.16,3.01c-.06,.03-.12,.06-.15,.09l-.12,.05c-.08,.03-.16,.07-.24,.11-3.17,1.55-5.26,4.54-5.65,8.04l-4.32,2.11c-.12,.06-.21,.16-.25,.29-.04,.13-.03,.26,.02,.38l2.65,5.41c-.12,.47-.22,.96-.27,1.45l-4.32,2.11c-.12,.06-.21,.16-.25,.29-.04,.13-.03,.26,.02,.38l4.57,9.35c.06,.12,.16,.21,.29,.25,.05,.02,.11,.03,.16,.03,.08,0,.15-.02,.22-.05l4.61-2.26c2.89,1.55,6.35,1.62,9.3,.17,.08-.04,.16-.08,.23-.13l.1-.05c.06-.02,.12-.04,.18-.07l9-4.4c.59-.29,1.02-.78,1.24-1.4s.17-1.28-.12-1.86c-.23-.47-.6-.85-1.05-1.09l3.4-1.66c1.21-.59,1.71-2.06,1.12-3.26-.24-.48-.61-.85-1.06-1.09l.26-.13c.59-.29,1.02-.78,1.24-1.4s.17-1.28-.12-1.86c-.22-.45-.57-.81-1-1.05l1.73-.85c1.21-.59,1.71-2.06,1.12-3.26-.24-.48-.61-.85-1.06-1.09l.26-.13c.59-.29,1.02-.78,1.24-1.4Zm-2,4.98l-3.08,1.5c-.16,.04-.32,.1-.48,.17l-.26,.13c.09-.49,.03-1.02-.21-1.5-.23-.46-.58-.82-1-1.05l3.76-1.84h0c.71-.35,1.58-.05,1.92,.66,.35,.71,.05,1.58-.66,1.93Zm-2.01,2.51c.36,.12,.66,.38,.83,.73,.35,.71,.05,1.58-.66,1.93l-2.03,.99h0l-10.67,5.22c-.25,.12-.35,.42-.23,.67,.09,.18,.26,.28,.45,.28,.07,0,.15-.02,.22-.05l10.67-5.22h0c.71-.35,1.58-.05,1.92,.66,.35,.71,.05,1.58-.66,1.93l-5.16,2.52h-.01l-1.55,.76h0l-.49,.24-.51,.25h0l-2.95,1.44c-.25,.12-.35,.42-.23,.67,.09,.18,.26,.28,.45,.28,.07,0,.15-.02,.22-.05l2.95-1.44h0l2.56-1.25c.71-.35,1.58-.05,1.93,.66,.35,.71,.05,1.58-.66,1.93l-9.05,4.42s-.12,.04-.15,.06l-.14,.08c-.06,.03-.11,.07-.17,.1-2.73,1.34-5.95,1.24-8.6-.27-.14-.08-.32-.09-.47-.01l-4.4,2.15-4.14-8.45,4.12-2.02c.16-.08,.26-.23,.28-.41,.27-3.27,2.18-6.08,5.12-7.51,.06-.03,.12-.06,.19-.08l.21-.09,.12-.08,6.16-3.01c.71-.35,1.58-.05,1.93,.66,.31,.64,.11,1.4-.47,1.81-.02,.01-.02,.03-.03,.04l-6.5,3.2c-.25,.12-.35,.42-.23,.67,.09,.18,.26,.28,.45,.28,.07,0,.15-.02,.22-.05l6.63-3.27h0l7.72-3.78c.71-.35,1.58-.05,1.93,.66,.17,.35,.19,.74,.07,1.1-.12,.36-.38,.65-.73,.82h0l-10.67,5.22c-.25,.12-.35,.42-.23,.67,.09,.18,.26,.28,.45,.28,.07,0,.15-.02,.22-.05l10.67-5.22h0l2.03-.99c.35-.17,.74-.19,1.1-.07Zm-24.16-.86c.27-3.27,2.18-6.08,5.12-7.51,.06-.03,.12-.05,.18-.08l.21-.1s.11-.07,.12-.08l6.16-3.01c.35-.17,.74-.19,1.1-.07,.36,.12,.66,.38,.83,.73,.31,.63,.11,1.38-.46,1.79l-5.2,2.54c-.24,.12-.34,.4-.24,.64,.25,.6,.33,1.2,.25,1.79-.3,2.13-2.72,3.07-2.75,3.08-.12,.05-.21,.14-.27,.25l-2.04,1c-.06,.03-.11,.06-.14,.09l-.12,.05c-.08,.03-.17,.07-.25,.11-2.28,1.11-3.99,2.98-4.92,5.24l-1.98-4.05,4.12-2.02c.16-.08,.26-.23,.28-.41Zm24.47-5.14l-5.11,2.5c-.16,.04-.32,.1-.48,.17l-6.24,3.05c.09-.49,.02-1.02-.21-1.5-.59-1.21-2.05-1.71-3.26-1.12l-.63,.31c.25-.43,.44-.92,.52-1.48,.09-.62,.03-1.25-.16-1.87l4.75-2.32s.09,0,.13-.03l7.72-3.78c.35-.17,.74-.19,1.1-.07,.36,.12,.66,.38,.83,.73,.35,.71,.05,1.57-.66,1.92h0l-10.67,5.22c-.25,.12-.35,.42-.23,.67,.09,.18,.26,.28,.45,.28,.07,0,.15-.02,.22-.05l10.67-5.22h0l2.03-.99c.35-.17,.74-.19,1.1-.07s.66,.38,.83,.73c.17,.35,.19,.74,.07,1.1-.12,.36-.38,.66-.73,.83l-2.03,.99Z" stroke-width="0"/></g><g id="uuid-651f1f75-a3b3-40ed-85a6-f0a24c6e23e9"></g></svg>