<?xml version="1.0" encoding="UTF-8"?><svg width="70" height="70" xmlns="http://www.w3.org/2000/svg" viewBox="-10 -10 70 70"><rect x="-10" y="-10" width="70" height="70" fill="white"/><g id="uuid-bcadfeac-4246-43d6-855f-73898dfce6bc"><g><path d="M24.24,9.06c-.73,1.3-1.46,2.59-2.2,3.89l-8.57,15.18,4.71,1.16,7.93-14.05,2.2-3.89c-1.35-.76-2.71-1.53-4.06-2.29Z" fill="#ffcd00" stroke-width="0"/><path d="M14.3,36.18l-4.53-1.46-1.56,2.77c.82,.14,1.61,.42,2.33,.83,.65,.38,1.24,.88,1.74,1.46l2.03-3.6Z" fill="#ffcd00" stroke-width="0"/><path d="M7.29,41.03c-.22-.12-.47-.2-.72-.26l-.16,1.93,1.56-1.13c-.18-.19-.4-.38-.69-.54Z" fill="#ffcd00" stroke-width="0"/><rect x="38.77" y="23.5" width="10.55" height="19.29" fill="#ffcd00"/></g><path d="M48.32,21h-11.55c-.28,0-.5,.22-.5,.5v2.47c-5.63-5.71-10.12-6.47-12.47-6.33-.09,0-.17,.01-.25,.02l2.18-3.86h0l2.2-3.89c.14-.24,.05-.55-.19-.68l-4.94-2.79c-.12-.07-.25-.08-.38-.05-.13,.04-.24,.12-.3,.24l-7.14,12.65c-.91,.17-2.9,.61-5.76,1.54-1.79,.58-2.99,1.3-4.15,2.47-.74,.75-1.34,1.62-1.82,2.64l-2.51,7.16s-.02,.07-.02,.1c-.21,1.66,.64,3.27,2.07,3.91,.97,.43,1.91,.3,2.55,.09l-.48,5.9c-.02,.19,.08,.38,.25,.48,.08,.04,.16,.06,.25,.06,.1,0,.21-.03,.29-.09l5.48-3.94h0s.04-.05,.06-.08c.02-.03,.05-.05,.07-.08h0l.56-1.01v.26c0,1.95,1.59,3.54,3.54,3.54,1.19,0,2.23-.59,2.87-1.49,.56,1.22,1.79,2.07,3.21,2.07,1.58,0,2.91-1.05,3.36-2.48,1.58,.67,2.93,.92,3.6,1.01,.25,.03,.64,.08,1.14,.11,.18,.01,.41,.02,.66,.02,1.35,0,3.67-.21,6.04-1.39v1.73c0,.28,.22,.5,.5,.5h11.55c.28,0,.5-.22,.5-.5V21.5c0-.28-.22-.5-.5-.5Zm-.5,20.29h-10.55V22h10.55v19.29Zm-28.9-2.03v-2.61l1.06,.34c.61,.64,1.29,1.23,2,1.75,.65,.47,1.3,.85,1.94,1.17-.29,1.09-1.27,1.9-2.45,1.9-1.4,0-2.54-1.14-2.54-2.54Zm-3.54,1.96c-1.4,0-2.54-1.14-2.54-2.54v-2.03l.94-1.66,4.15,1.34v2.35c0,1.4-1.14,2.54-2.54,2.54Zm-12.19-5.05c-1.02-.46-1.63-1.61-1.49-2.82l2.47-7.06c.41-.87,.95-1.65,1.61-2.31,1.04-1.05,2.12-1.69,3.75-2.22,1.9-.62,3.56-1.05,4.79-1.33l-3.35,5.95-2.01-.49c-1.97-.4-3.92,.81-4.35,2.71-.38,1.67,.56,3.45,2.24,4.16l.44,.14-1.77,3.13c-.33,.17-1.32,.61-2.34,.15ZM26.8,9.85l-1.7,3.02-4.06-2.29,1.7-3.02,4.06,2.29ZM10.13,39.07l-1.83,1.32c-.29-.33-.63-.63-1.01-.84-.35-.19-.73-.3-1.12-.38l.18-2.23c.77,.1,1.51,.35,2.17,.74,.61,.36,1.16,.83,1.6,1.39Zm-4.04,1.09c.25,.06,.49,.14,.72,.26,.29,.16,.52,.35,.69,.54l-1.56,1.13,.16-1.93Zm10.59-12.37l-4.71-1.16,8.57-15.18,4.06,2.29-7.93,14.05Zm-7.65,9.03c-.71-.42-1.51-.7-2.33-.83l1.56-2.77,4.53,1.46-2.03,3.6c-.5-.58-1.09-1.08-1.74-1.46Zm13.53,1.11c-.7-.5-1.35-1.08-1.95-1.71-.06-.06-.13-.11-.21-.13l-13.21-4.27c-1.19-.51-1.88-1.79-1.61-3,.31-1.37,1.73-2.24,3.15-1.95l15.1,3.72c.27,.07,.54-.1,.6-.37,.07-.27-.1-.54-.37-.6l-6.39-1.57,5.23-9.27c.33-.06,.59-.1,.93-.12,1.84-.11,6.48,.44,12.42,6.79v13.49c-2.77,1.53-5.54,1.58-6.65,1.52-.47-.03-.83-.07-1.06-.1-.97-.13-3.49-.62-5.99-2.42Z" stroke-width="0"/></g><g id="uuid-8305137f-2ea7-4fa1-af9d-1ec7ab6445f1"></g></svg>