<?xml version="1.0" encoding="UTF-8"?><svg width="70" height="70" xmlns="http://www.w3.org/2000/svg" viewBox="-10 -10 70 70"><rect x="-10" y="-10" width="70" height="70" fill="white"/><g id="uuid-b60129f5-933c-4f6d-9815-f1f6d8007919"><circle cx="33.15" cy="18.22" r="7.85" fill="#ffcd00"/><polygon points="7.68 29.18 7.68 27.1 2.65 27.1 2.65 42.14 7.68 42.14 7.68 40.06 12.95 40.06 12.95 29.18 7.68 29.18" fill="#ffcd00"/><path d="M49.83,34.53c-.12-.94-.68-1.82-1.55-2.39-.94-.62-2.1-.8-3.2-.5l-11.36,2.28c.12-.75-.05-1.53-.5-2.17-.49-.7-1.24-1.17-2.02-1.27l-11.61-3.04s-.08-.02-.13-.02h-7.02v-.24c0-.28-.22-.5-.5-.5H6.61v-1.58c0-.28-.22-.5-.5-.5H.65c-.28,0-.5,.22-.5,.5v16.04c0,.28,.22,.5,.5,.5H6.11c.28,0,.5-.22,.5-.5v-1.58h5.34c.28,0,.5-.22,.5-.5v-.89l17.62,3.54c.07,.02,.15,.04,.22,.04h0s.06,.02,.09,.02c.09,0,.17-.03,.25-.07l16.01-3.21c1.99-.33,3.42-2.09,3.19-3.94ZM5.61,27.18v13.46H1.15v-15.04H5.61v1.58Zm5.84,11.37H6.61v-10.87h4.84v10.87Zm35.01-1.07l-16.15,3.24-17.85-3.58v-8.72h6.95l11.6,3.03c.57,.08,1.06,.39,1.4,.87,.32,.46,.44,1.02,.32,1.55-.12,.53-.46,1-.95,1.28-.5,.29-1.1,.36-1.67,.19l-11.66-2.93c-.21-.05-.42,.04-.53,.2-.03,.05-.06,.1-.08,.16-.07,.27,.1,.54,.36,.61l11.64,2.92c.29,.09,.59,.14,.9,.14,.54,0,1.07-.14,1.55-.42,.42-.25,.76-.59,1.02-.99l12-2.41s.03,0,.04,0c.82-.23,1.69-.1,2.39,.37,.63,.41,1.03,1.03,1.11,1.68,.14,1.15-.77,2.57-2.38,2.83Z" stroke-width="0"/><path d="M31.67,25.57c4.88,0,8.86-3.97,8.86-8.86s-3.97-8.86-8.86-8.86-8.86,3.97-8.86,8.86,3.97,8.86,8.86,8.86Zm7.86-8.86c0,4.33-3.52,7.86-7.86,7.86s-7.86-3.52-7.86-7.86,3.52-7.86,7.86-7.86,7.86,3.52,7.86,7.86Z" stroke-width="0"/><path d="M32.01,15.96c-.98-.29-1.33-.43-1.33-.95,0-.48,.31-.77,.93-.77,.35,0,.59,.09,.75,.23,.28,.25,.32,.59,.32,.67,.2,0,.54,0,.75,0,.16,0,.48,0,.64,0-.07-1.02-.67-1.82-2.04-1.95v-.92h-.72v.91c-1.17,.1-2.05,.79-2.05,1.97,0,1,.55,1.58,2.16,2.03,1,.29,1.39,.54,1.39,1.17,0,.49-.28,.83-1.07,.83-.74,0-1.15-.41-1.25-1.04h-1.4c.08,1.26,.92,2,2.22,2.12v.91h.72v-.91c1.56-.12,2.22-1.02,2.22-2.07,0-1-.47-1.7-2.24-2.22Z" stroke-width="0"/></g><g id="uuid-456a735a-e9c1-4589-a712-bcad00df7417"></g></svg>