<?xml version="1.0" encoding="UTF-8"?><svg width="70" height="70" xmlns="http://www.w3.org/2000/svg" viewBox="-10 -10 70 70"><rect x="-10" y="-10" width="70" height="70" fill="white"/><g id="uuid-68041505-2391-495c-9e36-7bb889573b86"><g><rect x="6.34" y="12.16" width="12.35" height="15.32" transform="translate(-10.45 15.16) rotate(-46.26)" fill="#ffcd00"/><rect x="32.55" y="13.3" width="15.32" height="12.35" transform="translate(-1.99 34.14) rotate(-45)" fill="#ffcd00"/><path d="M49.55,16.57l-9.44-9.44c-.19-.19-.52-.19-.71,0l-11.54,11.54c-.13,.13-.16,.3-.13,.46-1,.06-2.05,.54-3.07,1.41l-.03-.03c-.71-.68-1.64-1.06-2.6-1.06h-.02s-.09,.01-.13,.01c.17-.2,.17-.5-.03-.69L10.08,7.49c-.1-.09-.24-.12-.36-.14-.13,0-.26,.06-.35,.15L.14,17.15c-.19,.2-.18,.52,.02,.71l11.79,11.28c.09,.09,.22,.14,.35,.14h.01c.12,0,.23-.05,.32-.13,0,.05-.01,.1,0,.16,.05,.96,.46,1.87,1.18,2.55l.26,.25c-.13,.29-.2,.61-.2,.94,.01,.58,.25,1.12,.67,1.52,.42,.4,.96,.6,1.5,.6,.09,0,.18-.02,.27-.03-.05,.63,.17,1.27,.66,1.74,.41,.39,.94,.6,1.5,.6h.05c.07,0,.14-.02,.22-.03-.05,.63,.17,1.27,.66,1.74,.42,.4,.96,.6,1.5,.6,.09,0,.18-.02,.27-.03-.05,.63,.17,1.27,.66,1.74,.42,.4,.96,.6,1.5,.6,.33,0,.65-.08,.96-.23l.46,.44c.49,.46,1.11,.7,1.71,.7s1.21-.23,1.66-.7c.43-.45,.66-1.06,.62-1.7,0-.09-.01-.19-.03-.28,.1,.01,.18,.01,.29,.02,.64,0,1.23-.25,1.66-.7,.43-.45,.66-1.06,.62-1.7,0-.09-.01-.19-.03-.28,.1,.01,.17,0,.29,.02,.64,0,1.23-.25,1.66-.7,.43-.45,.66-1.06,.62-1.7,0-.09-.01-.19-.03-.28,.09,.01,.18,.02,.29,.02,.64,0,1.23-.25,1.66-.7,.42-.44,.64-1.02,.63-1.63,0-.33-.08-.64-.21-.94l.15-.15c.74-.74,1.13-1.71,1.19-2.7,.06,.02,.12,.04,.18,.04,.13,0,.26-.05,.35-.15l11.54-11.54c.2-.2,.2-.51,0-.71Zm-13.97,14.34l-.11,.11c-2.83-2.79-7.93-7.83-8.04-7.93-.09-.09-.21-.16-.34-.16h-.03c-.14,.01-.26,.07-.35,.18-.12,.13-1.77,1.72-2.86,2.77-.22,.21-.5,.32-.83,.32-.31,0-.61-.13-.82-.36-.45-.47-.43-1.21,.04-1.66l2.77-2.64s.08-.06,.09-.07c.81-.74,2.2-1.69,3.65-1.24l7.66,7.66c.26,1.05,0,2.21-.81,3.01Zm-.23,1.81c0,.35-.12,.68-.35,.92-.24,.25-.57,.39-.94,.39h0c-.38,0-.74-.15-1.02-.42l-3.04-2.9c-.1-.09-.24-.13-.36-.13-.13,0-.26,.06-.35,.16-.19,.2-.18,.51,.02,.7l3.04,2.9c.28,.27,.45,.62,.46,1,.02,.36-.11,.71-.35,.96-.24,.25-.57,.39-.94,.39h0c-.38,0-.74-.15-1.02-.42l-3.04-2.91c-.1-.09-.23-.15-.37-.13-.14,0-.27,.07-.36,.17-.18,.2-.16,.51,.03,.69l3.04,2.91c.28,.27,.45,.62,.46,1,.02,.36-.11,.71-.35,.96-.24,.25-.57,.39-.94,.39h0c-.38,0-.74-.15-1.02-.42l-3.04-2.9c-.1-.09-.24-.13-.36-.13-.13,0-.26,.06-.35,.16-.19,.2-.18,.51,.02,.7l3.04,2.9c.28,.27,.45,.62,.46,1,.02,.36-.11,.71-.35,.96-.51,.53-1.39,.52-1.96-.03l-.38-.36c.29-.39,.46-.86,.44-1.35-.01-.58-.25-1.12-.67-1.52-.49-.47-1.14-.65-1.77-.57,0-.07,.02-.14,.02-.22-.01-.58-.25-1.12-.67-1.52-.42-.4-.93-.61-1.55-.6-.07,0-.14,.02-.22,.03,0-.07,.02-.14,.02-.22-.01-.58-.25-1.12-.67-1.52-.42-.4-.97-.62-1.55-.6-.07,0-.14,.02-.22,.03,.05-.63-.17-1.27-.66-1.74-.42-.4-.97-.62-1.55-.6-.49,.01-.94,.19-1.31,.49l-.18-.17c-.53-.5-.84-1.17-.87-1.88-.03-.7,.2-1.35,.67-1.83l5.96-6.22c.47-.49,1.09-.75,1.8-.75,.69,0,1.35,.27,1.87,.75l-2.37,2.27c-.86,.83-.89,2.21-.07,3.07,.4,.42,.94,.65,1.52,.67,.6,.02,1.13-.2,1.55-.6,1.39-1.34,2.12-2.04,2.5-2.41l2.66,2.55c1.79,1.76,3.98,3.93,5.42,5.34,.02,.02,.05,.04,.08,.05,.09,.18,.14,.38,.14,.59Zm-12.86,8.05c-.47-.45-.49-1.19-.04-1.66,.23-.24,.54-.36,.85-.36,.29,0,.58,.11,.81,.32,.23,.22,.36,.51,.36,.82,0,.31-.11,.61-.32,.84-.45,.47-1.19,.49-1.66,.04Zm-2.42-2.31c-.47-.45-.49-1.19-.04-1.66,.22-.23,.51-.36,.82-.36h.03c.3,0,.59,.11,.81,.33,.23,.22,.36,.51,.36,.82,0,.31-.11,.61-.32,.84-.45,.47-1.19,.49-1.66,.04Zm-2.42-2.31c-.47-.45-.49-1.19-.04-1.66,.22-.23,.51-.36,.82-.36h.03c.3,0,.59,.11,.81,.32,.23,.22,.36,.51,.36,.82,0,.31-.11,.61-.33,.84-.22,.23-.51,.36-.82,.36-.31,.01-.61-.11-.84-.32Zm-2.42-2.31c-.23-.22-.36-.51-.36-.82,0-.31,.11-.61,.33-.84,.22-.23,.51-.36,.82-.36h.03c.3,0,.59,.11,.81,.33,.47,.45,.49,1.19,.04,1.66-.45,.47-1.19,.49-1.66,.04ZM1.21,17.48L9.75,8.56l11.07,10.59-8.54,8.92L1.21,17.48Zm27.72,1.54l10.83-10.83,8.73,8.73-10.83,10.83-8.73-8.73Z" stroke-width="0"/></g></g><g id="uuid-f094a411-f3ae-4521-907b-420643153d98"></g></svg>