<?xml version="1.0" encoding="UTF-8"?><svg width="70" height="70" id="uuid-ce5b4055-e52a-4407-8752-f101fa759f31" xmlns="http://www.w3.org/2000/svg" viewBox="-10 -10 70 70"><rect x="-10" y="-10" width="70" height="70" fill="white"/><path d="M8.15,16.42c3.7-6.91,10.77-11.17,18.6-11.17s14.9,4.26,18.6,11.17l1.74-1.74c-4.2-7.28-11.96-11.78-20.34-11.78S10.61,7.4,6.41,14.68l1.74,1.74Z" fill="#ffcd00" stroke-width="0"/><path d="M46.44,36.43l-1.32-.55-1.04-.45h0c.46-1.08,.91-2.16,1.37-3.24,.24-.58-.03-1.24-.61-1.48l-3.48-1.46c-.14-.06-.29-.09-.44-.09s-.29,.03-.43,.08c-.28,.11-.5,.33-.62,.61l-7.15,16.86c-.24,.58,.03,1.24,.61,1.48l3.48,1.46c.28,.12,.59,.12,.87,0,.28-.11,.5-.33,.62-.61l.86-2.03c.06-.14,.17-.25,.31-.3,.14-.06,.3-.06,.44,0l1.85,.77c1.08,.45,2.33-.05,2.79-1.13l3.04-7.16c.22-.52,.22-1.1,.01-1.62-.21-.52-.62-.93-1.14-1.15Z" fill="#ffcd00" stroke-width="0"/><path d="M20.78,46.69l-7.19-16.82h0c-.12-.28-.34-.49-.62-.61-.28-.11-.6-.11-.88,0l-3.5,1.45c-.58,.24-.86,.91-.61,1.48l1.38,3.23c-.35,.15-.7,.3-1.05,.45l-1.33,.55c-.53,.22-.94,.63-1.15,1.15-.21,.52-.21,1.1,.01,1.62l3.05,7.15c.46,1.07,1.72,1.58,2.8,1.13l1.86-.77c.07-.03,.15-.04,.22-.04s.15,.01,.22,.04c.14,.06,.25,.17,.31,.3l.87,2.03c.12,.28,.34,.49,.62,.61,.28,.11,.6,.11,.88,0l3.5-1.45c.58-.24,.86-.91,.61-1.48Z" fill="#ffcd00" stroke-width="0"/><path d="M45.52,34c1.48-3.06,2.28-6.45,2.28-9.92s-.82-6.92-2.28-9.93l.79-.79c.16-.16,.19-.4,.08-.6C42.07,4.98,33.87,.14,25,.14S7.93,4.98,3.6,12.77c-.11,.2-.07,.44,.08,.6l.79,.79c-1.46,3-2.28,6.37-2.28,9.93s.81,6.86,2.29,9.92c-1.26,.7-1.82,2.25-1.25,3.6l3.2,7.6c.3,.71,.85,1.25,1.56,1.54,.35,.14,.72,.21,1.08,.21s.76-.08,1.11-.23l1.61-.68,.72,1.71c.32,.76,1.07,1.22,1.85,1.22,.26,0,.52-.05,.77-.16l3.75-1.58c1.02-.43,1.49-1.6,1.07-2.62l-7.16-17c-.21-.49-.59-.88-1.09-1.08-.5-.2-1.04-.2-1.53,0l-3.75,1.58c-1.02,.43-1.5,1.6-1.07,2.62l1.01,2.4-.98,.42c-1.42-2.93-2.19-6.15-2.19-9.5s.73-6.38,2.03-9.17l.95,.95c.11,.11,.28,.17,.43,.14,.16-.03,.3-.13,.37-.27,3.43-6.92,10.34-11.23,18.02-11.23s14.59,4.3,18.02,11.23c.07,.14,.21,.25,.37,.27,.03,0,.05,0,.08,0,.13,0,.26-.05,.35-.15l.95-.95c1.3,2.79,2.03,5.9,2.03,9.17s-.77,6.57-2.19,9.5l-.99-.42,1.01-2.4c.21-.49,.21-1.04,0-1.53-.2-.5-.58-.88-1.08-1.09l-3.75-1.58c-.49-.21-1.04-.21-1.53,0-.5,.2-.88,.58-1.09,1.08l-7.16,17c-.43,1.02,.05,2.19,1.07,2.62l3.75,1.58c.25,.1,.51,.16,.78,.16s.51-.05,.75-.15c.49-.2,.88-.58,1.09-1.08l.72-1.71,1.61,.68c.36,.15,.74,.23,1.11,.23s.73-.07,1.08-.21c.71-.29,1.26-.84,1.56-1.54l3.2-7.6c.57-1.36,0-2.9-1.25-3.6ZM6.82,29.06l3.75-1.58c.25-.1,.52-.11,.77,0,.25,.1,.44,.29,.54,.54l7.16,17c.21,.51-.03,1.1-.53,1.31l-3.75,1.58c-.51,.22-1.1-.02-1.31-.53l-.92-2.17h0l-5.04-11.97h0l-1.21-2.86c-.21-.51,.02-1.1,.53-1.31Zm4.6,16.07l-1.61,.68c-.95,.4-2.05-.05-2.45-1l-3.2-7.6c-.4-.95,.05-2.05,1-2.45l1.61-.68,4.65,11.04ZM25,1.14c8.38,0,16.14,4.5,20.34,11.78l-1.74,1.74c-3.7-6.9-10.77-11.17-18.6-11.17S10.1,7.76,6.4,14.67l-1.74-1.74C8.86,5.65,16.62,1.14,25,1.14Zm20.85,36.07l-3.2,7.6c-.19,.46-.56,.82-1.02,1-.46,.19-.97,.19-1.43,0l-1.61-.68,4.65-11.04,1.61,.68c.95,.4,1.4,1.5,1,2.45Zm-10.61,10.7l-3.75-1.58c-.51-.21-.75-.8-.53-1.31l7.16-17c.1-.25,.3-.44,.54-.54,.12-.05,.25-.07,.38-.07s.26,.03,.39,.08l3.75,1.58c.25,.1,.44,.3,.54,.54,.1,.25,.1,.52,0,.77l-1.21,2.86h0l-5.04,11.97h0l-.92,2.17c-.21,.51-.8,.75-1.31,.53Z" stroke-width="0"/></svg>