<?xml version="1.0" encoding="UTF-8"?><svg width="70" height="70" id="uuid-66d335ac-37ed-43bb-8683-d5a1a7514384" xmlns="http://www.w3.org/2000/svg" viewBox="-10 -10 70 70"><rect x="-10" y="-10" width="70" height="70" fill="white"/><path d="M34.02,11.89c0-.72-.53-1.31-1.23-1.42,.18,.69,.29,1.41,.29,2.15,0,.21-.02,.41-.03,.62,.56-.2,.97-.73,.97-1.36Z" stroke-width="0"/><circle cx="16.43" cy="32.61" r="1.73" fill="none"/><path d="M36.42,26.18c-.67-3.06-1.34-6.13-2-9.19l-.4-6.14c-.65-4.07-3.92-7.18-7.76-7.22-3.88-.07-7.19,3.01-7.89,7.11,.12,0,.23,.03,.35,.03,.66,0,1.32-.06,1.97-.19,2.49-.48,4.31-1.76,5.45-2.83l5.43,2.15c.33,.85,.52,1.76,.52,2.72,0,4.17-3.39,7.55-7.55,7.55-2.84,0-5.31-1.57-6.6-3.89l-.14,2.01c-.54,2.66-1.08,5.32-1.62,7.98-2.64,1.45-4.42,4.25-4.43,7.46l-.02,15.38h29.34l.02-15.34c0-3.31-1.88-6.18-4.65-7.6Zm-19.99,8.15c-.95,0-1.73-.77-1.73-1.73s.77-1.73,1.73-1.73,1.73,.77,1.73,1.73-.77,1.73-1.73,1.73Z" fill="#ffcd00" stroke-width="0"/><path d="M35.47,23.71l-2.01-9.54c.91-.35,1.56-1.24,1.56-2.27,0-1.09-.72-2-1.7-2.31-.47-4.85-4.29-8.65-8.81-8.69-4.65-.1-8.6,3.83-9,8.86-.77,.41-1.31,1.21-1.31,2.15s.5,1.69,1.24,2.11l-1.59,9.64c-2.93,1.63-4.9,4.74-4.9,8.31l-.02,15.88c0,.13,.05,.26,.15,.35,.09,.09,.22,.15,.35,.15h30.34c.28,0,.5-.22,.5-.5l.02-15.84c0-3.54-1.93-6.64-4.82-8.29ZM9.95,31.95c0-3.8,2.51-7.03,5.98-8.11v6.09c-1.26,.24-2.23,1.34-2.23,2.68,0,1.5,1.22,2.73,2.73,2.73s2.73-1.22,2.73-2.73c0-1.33-.96-2.44-2.23-2.68v-6.34c.08-.01,.15-.03,.22-.04,0,0,0,.02,.01,.02l6.96,10.25v13.51h-7.2v-9.91c0-.28-.22-.5-.5-.5s-.5,.22-.5,.5v9.91h-6l.02-15.38Zm6.58-22.44c.49-4.35,3.92-7.7,7.97-7.63,3.84,.04,7.12,3.15,7.76,7.22l-6.06-2.4c-.18-.07-.39-.03-.54,.11-1.03,1.01-2.76,2.32-5.18,2.78-1.32,.25-2.65,.22-3.96-.08Zm.44,3.11c0-.68,.1-1.34,.27-1.97,.49,.07,.98,.11,1.47,.11,.66,0,1.32-.06,1.97-.19,2.49-.48,4.31-1.76,5.45-2.83l5.43,2.15c.33,.85,.52,1.76,.52,2.72,0,4.17-3.39,7.55-7.55,7.55s-7.55-3.39-7.55-7.55Zm16.08,.62c.01-.21,.03-.41,.03-.62,0-.75-.11-1.46-.29-2.15,.69,.1,1.23,.7,1.23,1.42,0,.63-.41,1.16-.97,1.36Zm-16.8-2.74c-.17,.68-.28,1.38-.28,2.11,0,.19,.02,.37,.03,.55-.47-.24-.8-.72-.8-1.28,0-.66,.45-1.21,1.05-1.38Zm8.28,10.67c3.8,0,7.03-2.5,8.14-5.94l1.67,7.92c-.96-.39-1.98-.63-3.07-.69h-.02s0,0-.01,0h-.01l-13.18-.02h-.01s0,0-.01,0h-.02c-1.08,.06-2.1,.29-3.05,.67l1.35-8.19c1.01,3.6,4.31,6.24,8.23,6.24Zm.09,11.58l-6.32-9.31,12.33,.02-6.01,9.29Zm-8.19-1.88c.95,0,1.73,.77,1.73,1.73s-.77,1.73-1.73,1.73-1.73-.77-1.73-1.73,.77-1.73,1.73-1.73Zm22.84,16.45h-5.92v-9.91c0-.28-.22-.5-.5-.5s-.5,.22-.5,.5v9.91h-7.22v-13.52l6.63-10.25s0-.02,.01-.04c.19,.02,.39,.05,.58,.09v5.37c-1.76,.22-3.3,1.59-4.06,3.64-.36,.97-.52,2.08-.45,3.2,.01,.26,.23,.47,.5,.47h2.61c.28,0,.5-.22,.5-.5s-.22-.5-.5-.5h-2.12c0-.82,.14-1.61,.4-2.32,.64-1.73,1.97-2.91,3.4-3.02,1.42-.1,2.78,.8,3.58,2.38,.54,1.07,.67,2.2,.68,2.97h-2.04c-.28,0-.5,.22-.5,.5s.22,.5,.5,.5h2.53c.27,0,.49-.21,.5-.47,.04-.82,0-2.41-.77-3.94-.84-1.65-2.22-2.7-3.74-2.89v-5.12c3.47,1.1,5.95,4.33,5.94,8.12l-.02,15.34Z" stroke-width="0"/></svg>