<?xml version="1.0" encoding="UTF-8"?><svg width="70" height="70" xmlns="http://www.w3.org/2000/svg" viewBox="-10 -10 70 70"><rect x="-10" y="-10" width="70" height="70" fill="white"/><g id="uuid-18b4082b-a961-46bf-aaea-a6ba1c6a9f1d"><path d="M11.39,17.74v-2.61h-3.24v2.62c.01,.13-.04,.26-.13,.36-.09,.09-.22,.15-.35,.15h-2.54v3.22h2.54c.13,0,.26,.05,.35,.14,.09,.09,.15,.22,.15,.35v2.56h3.22v-2.56c0-.28,.23-.5,.5-.5h2.62v-3.23h-2.62c-.28,0-.5-.23-.5-.5Z" fill="none" stroke-width="0"/><path d="M3.35,13.26v19.53H47.2v1.81H3.35v5.65H48.95V13.26H3.35Zm11.15,8.22h-2.62c-.28,0-.5,.22-.5,.5v2.56h-3.22v-2.56c0-.13-.05-.26-.15-.35-.09-.09-.22-.15-.35-.15h-2.55v-3.22h2.54c.13,0,.26-.05,.35-.14,.09-.09,.15-.22,.15-.36v-2.62h3.22v2.61c0,.28,.23,.5,.5,.5h2.62v3.23Z" fill="#ffcd00" stroke-width="0"/><path d="M47.7,10.51H1.1c-.28,0-.5,.22-.5,.5v27.99c0,.28,.22,.5,.5,.5H47.7c.28,0,.5-.22,.5-.5V11.01c0-.28-.22-.5-.5-.5Zm-.5,27.99H1.6v-2.9H47.2v2.9Zm0-3.9H1.6v-1.81H47.2v1.81Zm0-2.81H1.6V11.51H47.2V31.78Z" stroke-width="0"/><path d="M4.62,22.48h2.55v2.55c0,.28,.22,.5,.5,.5h4.22c.28,0,.5-.22,.5-.5v-2.56h2.62c.28,0,.5-.22,.5-.5v-4.23c0-.28-.22-.5-.5-.5h-2.62v-2.62c0-.28-.23-.5-.51-.5H7.64c-.13,0-.26,.05-.35,.15s-.15,.22-.15,.35v2.62h-2.52c-.13,0-.26,.05-.35,.14-.09,.09-.15,.22-.15,.35v4.23c0,.13,.05,.26,.14,.35s.21,.14,.35,.15Zm.5-4.23h2.54c.13,0,.26-.05,.35-.14,.09-.09,.15-.22,.15-.36v-2.62h3.22v2.61c0,.28,.23,.5,.5,.5h2.62v3.23h-2.62c-.28,0-.5,.22-.5,.5v2.56h-3.22v-2.56c0-.13-.05-.26-.15-.35-.09-.09-.22-.15-.35-.15h-2.55v-3.22Z" stroke-width="0"/><path d="M22.63,16.91h21.32c.28,0,.5-.22,.5-.5s-.22-.5-.5-.5H22.63c-.28,0-.5,.22-.5,.5s.22,.5,.5,.5Z" stroke-width="0"/><path d="M22.34,21.65h21.32c.28,0,.5-.22,.5-.5s-.22-.5-.5-.5H22.34c-.28,0-.5,.22-.5,.5s.22,.5,.5,.5Z" stroke-width="0"/></g><g id="uuid-c11d0e02-c6a8-42f7-a12c-671a9a02523f"></g></svg>