<?xml version="1.0" encoding="UTF-8"?><svg width="70" height="70" id="uuid-802abb13-078f-4521-a091-78fd645b048e" xmlns="http://www.w3.org/2000/svg" viewBox="-10 -10 70 70"><rect x="-10" y="-10" width="70" height="70" fill="white"/><path d="M32.57,25.58l-13.17-.02c-4.52,.22-8.09,3.95-8.09,8.5l-.02,15.38h29.34l.02-15.34c0-4.54-3.54-8.28-8.08-8.52Zm-16.53,9.15c-.95,0-1.73-.77-1.73-1.73s.77-1.73,1.73-1.73,1.73,.77,1.73,1.73-.77,1.73-1.73,1.73Z" fill="#ffcd00" stroke-width="0"/><path d="M20.29,10.97c2.49-.48,4.31-1.75,5.45-2.83l1.76,.7s.04,0,.06,0l6.06,2.4c-.65-4.07-3.92-7.18-7.76-7.22-.02,0-.05,0-.08,0-3.85,0-7.12,3.04-7.81,7.1,.12,0,.24,.03,.36,.03,.66,0,1.32-.06,1.96-.19Z" fill="#ffcd00" stroke-width="0"/><path d="M32.93,9.97c-.47-4.85-4.29-8.65-8.81-8.69-4.66-.07-8.6,3.83-9,8.86-.77,.41-1.31,1.21-1.31,2.15,0,1.17,.83,2.15,1.94,2.39,.77,3.93,4.24,6.9,8.39,6.9s7.61-2.96,8.39-6.88c1.19-.16,2.11-1.18,2.11-2.41,0-1.09-.72-2-1.7-2.31Zm-17.35,3.05c0,.19,.02,.37,.03,.55-.47-.24-.8-.72-.8-1.28,0-.66,.45-1.21,1.05-1.38-.17,.68-.28,1.38-.28,2.11Zm8.55,7.55c-4.17,0-7.55-3.39-7.55-7.55,0-.68,.1-1.34,.27-1.97,.49,.07,.99,.11,1.48,.11,.66,0,1.32-.06,1.96-.19,2.49-.48,4.31-1.75,5.45-2.83l5.43,2.15c.33,.85,.52,1.76,.52,2.72,0,4.17-3.39,7.55-7.55,7.55Zm1.68-13.47c-.18-.07-.39-.03-.54,.11-1.03,1.01-2.76,2.32-5.18,2.78-1.31,.25-2.65,.23-3.96-.08,.49-4.32,3.88-7.63,7.89-7.63,.03,0,.05,0,.08,0,3.84,.04,7.12,3.15,7.76,7.22l-6.06-2.4Zm6.84,6.54c.01-.21,.03-.41,.03-.62,0-.75-.11-1.46-.29-2.15,.69,.1,1.23,.7,1.23,1.42,0,.63-.41,1.16-.97,1.36Z" stroke-width="0"/><path d="M30.88,22.87h-.02s0,0-.01,0h-.01l-13.18-.02h-.01s0,0-.01,0h-.02c-5.07,.26-9.04,4.42-9.05,9.5l-.02,15.88c0,.13,.05,.26,.15,.35,.09,.09,.22,.15,.35,.15h30.34c.28,0,.5-.22,.5-.5l.02-15.84c0-5.07-3.96-9.25-9.02-9.52Zm-21.32,9.48c0-3.8,2.51-7.03,5.98-8.11v6.09c-1.26,.24-2.23,1.34-2.23,2.68,0,1.5,1.22,2.73,2.73,2.73s2.73-1.22,2.73-2.73c0-1.33-.96-2.44-2.23-2.68v-6.34c.08-.01,.15-.03,.22-.04,0,0,0,.02,.01,.02l6.96,10.25v13.51h-7.2v-9.91c0-.28-.22-.5-.5-.5s-.5,.22-.5,.5v9.91h-6l.02-15.38Zm14.67,.81l-6.32-9.31,12.33,.02-6.01,9.29Zm-8.19-1.88c.95,0,1.73,.77,1.73,1.73s-.77,1.73-1.73,1.73-1.73-.77-1.73-1.73,.77-1.73,1.73-1.73Zm22.84,16.45h-5.92v-9.91c0-.28-.22-.5-.5-.5s-.5,.22-.5,.5v9.91h-7.22v-13.52l6.63-10.25s0-.02,.01-.03c.19,.02,.39,.05,.58,.09v5.37c-1.76,.22-3.3,1.59-4.06,3.64-.36,.97-.52,2.08-.45,3.2,.01,.26,.23,.47,.5,.47h2.61c.28,0,.5-.22,.5-.5s-.22-.5-.5-.5h-2.12c0-.82,.14-1.61,.41-2.32,.64-1.73,1.97-2.91,3.4-3.02,1.41-.11,2.78,.8,3.58,2.38,.54,1.07,.67,2.2,.68,2.97h-2.04c-.28,0-.5,.22-.5,.5s.22,.5,.5,.5h2.53c.27,0,.49-.21,.5-.47,.04-.82,0-2.41-.77-3.94-.84-1.65-2.22-2.7-3.74-2.9v-5.12c3.46,1.1,5.95,4.33,5.94,8.12l-.02,15.34Z" stroke-width="0"/></svg>