<?xml version="1.0" encoding="UTF-8"?><svg width="70" height="70" id="uuid-db4d367f-25cc-43e8-9fea-bd046beb96d5" xmlns="http://www.w3.org/2000/svg" viewBox="-10 -10 70 70"><rect x="-10" y="-10" width="70" height="70" fill="white"/><path d="M33.51,23.41l-14.23-.02c-4.91,.24-8.78,4.29-8.78,9.22l-.02,16.66h31.79l.02-16.62c0-4.93-3.85-8.99-8.77-9.25Zm-17.72,10.02c-1.05,0-1.91-.85-1.91-1.91s.85-1.91,1.91-1.91,1.91,.85,1.91,1.91-.85,1.91-1.91,1.91Z" fill="#ffcd00" stroke-width="0"/><path d="M24.54,19.13c5.07,0,9.2-4.13,9.2-9.2S29.61,.73,24.54,.73,15.33,4.86,15.33,9.93s4.13,9.2,9.2,9.2Zm8.2-9.2c0,4.52-3.68,8.2-8.2,8.2s-8.2-3.68-8.2-8.2S20.01,1.73,24.54,1.73s8.2,3.68,8.2,8.2Z" stroke-width="0"/><path d="M31.82,20.61h-.02s0,0-.01,0h-.01l-14.24-.02h-.04c-5.46,.28-9.73,4.76-9.74,10.22l-.02,17.16c0,.13,.05,.26,.15,.35,.09,.09,.22,.15,.35,.15H41.01c.28,0,.5-.22,.5-.5l.02-17.11c0-5.46-4.26-9.96-9.71-10.25ZM8.74,30.81c0-4.15,2.74-7.66,6.55-8.82v6.68c-1.36,.24-2.41,1.42-2.41,2.86,0,1.6,1.3,2.91,2.91,2.91s2.91-1.3,2.91-2.91c0-1.43-1.04-2.62-2.41-2.86v-6.92c.1-.02,.2-.04,.31-.06,0,.02,.01,.03,.02,.05l7.53,11.08v14.65h-7.86v-10.75c0-.28-.22-.5-.5-.5s-.5,.22-.5,.5v10.75h-6.57l.02-16.66Zm15.89,.95l-6.91-10.17,13.47,.02-6.56,10.15Zm-8.85-2.14c1.05,0,1.91,.85,1.91,1.91s-.85,1.91-1.91,1.91-1.91-.85-1.91-1.91,.85-1.91,1.91-1.91Zm24.72,17.85h-6.48v-10.75c0-.28-.22-.5-.5-.5s-.5,.22-.5,.5v10.75h-7.88v-14.66l7.17-11.09s.01-.04,.02-.06c.23,.03,.46,.06,.69,.11v5.87c-1.9,.23-3.57,1.7-4.39,3.91-.39,1.04-.56,2.23-.49,3.44,.01,.26,.23,.47,.5,.47h2.82c.28,0,.5-.22,.5-.5s-.22-.5-.5-.5h-2.34c0-.9,.15-1.78,.44-2.56,.7-1.88,2.15-3.17,3.71-3.29,1.54-.12,3.04,.87,3.9,2.59,.6,1.19,.73,2.43,.74,3.26h-2.24c-.28,0-.5,.22-.5,.5s.22,.5,.5,.5h2.73c.27,0,.49-.21,.5-.47,.05-.88,0-2.59-.83-4.24-.9-1.79-2.41-2.92-4.05-3.11v-5.62c3.79,1.18,6.51,4.69,6.5,8.83l-.02,16.62Z" stroke-width="0"/></svg>