<?xml version="1.0" encoding="UTF-8"?><svg width="70" height="70" xmlns="http://www.w3.org/2000/svg" viewBox="-10 -10 70 70"><rect x="-10" y="-10" width="70" height="70" fill="white"/><g id="uuid-e8d82609-caa2-4397-b403-e8787f525ffa"><g><path d="M2.61,18c0,3.21,1.25,6.23,3.52,8.51l20.12,20.12,20.12-20.12c2.27-2.27,3.52-5.29,3.52-8.51s-1.25-6.23-3.52-8.51c-4.69-4.69-12.32-4.69-17.01,0l-2.75,2.75c-.09,.09-.22,.15-.35,.15s-.26-.05-.35-.15l-2.75-2.75c-2.35-2.35-5.43-3.52-8.51-3.52s-6.16,1.17-8.51,3.52-3.52,5.29-3.52,8.51Z" fill="#ffcd00" stroke-width="0"/><path d="M45.57,7.18c-5.08-5.08-13.35-5.08-18.43,0l-2.4,2.4-2.39-2.4C17.27,2.1,9.01,2.1,3.93,7.18,1.46,9.65,.11,12.92,.11,16.4s1.36,6.75,3.82,9.21l20.47,20.47c.09,.09,.22,.15,.35,.15s.26-.05,.35-.15l20.47-20.47c2.46-2.46,3.82-5.73,3.82-9.21s-1.36-6.75-3.82-9.21Zm-23.93,.71l2.75,2.75c.09,.09,.22,.15,.35,.15s.26-.05,.35-.15l2.75-2.75c4.69-4.69,12.32-4.69,17.01,0,2.27,2.27,3.52,5.29,3.52,8.51s-1.25,6.23-3.52,8.51l-20.12,20.12L4.63,24.91c-2.27-2.27-3.52-5.29-3.52-8.51s1.25-6.23,3.52-8.51,5.43-3.52,8.51-3.52,6.16,1.17,8.51,3.52Z" stroke-width="0"/></g></g><g id="uuid-868d3ba4-f534-4924-84ed-7f1d6e86df70"></g></svg>