<?xml version="1.0" encoding="UTF-8"?><svg width="70" height="70" id="uuid-10eaeb45-dc55-4cda-99a5-818c79f6db7a" xmlns="http://www.w3.org/2000/svg" viewBox="-10 -10 70 70"><rect x="-10" y="-10" width="70" height="70" fill="white"/><path d="M13.28,16.25c-.93-1.83-1.12-3.91-.59-5.87,.1-.37,.22-.74,.37-1.1,.14-.33,.31-.64,.5-.95,1-1.68,2.58-2.94,4.46-3.5,.66-.2,1.32-.33,1.99-.45-.06,.22-.14,.43-.18,.65-.03,.17-.05,.34-.06,.49-.48,.09-.96,.21-1.44,.35-.33,.1-.64,.23-.95,.38-1.19,.56-2.19,1.47-2.88,2.61-.16,.27-.32,.56-.44,.85-.84,1.95-.77,4.16,.18,6.05l.38,.74,.55,1.09,3.76,7.41c1.21,2.55,1.4,5.42,.65,8.05-.1,.34-.22,.68-.35,1.01-.42,1.09-1.01,2.13-1.78,3.06l-.6,.74c-.1,.13-.25,.19-.4,.2h-.02c-.12,0-.25-.04-.35-.12-.23-.19-.26-.53-.07-.77l.6-.74c.74-.89,1.28-1.91,1.67-2.97,.12-.31,.24-.63,.32-.96,.6-2.31,.4-4.8-.65-7.02l-3.32-6.56-.61-1.21-.74-1.46Z" fill="#ffcd00" stroke-width="0"/><path d="M12.28,36.73c.39-2.17,2.28-3.69,4.41-3.69,.26,0,.53,.03,.79,.07,.04,.01,.08,.03,.12,.04-.35,.94-.84,1.85-1.5,2.65l-.61,.74c-.26,.32-.38,.72-.34,1.13s.24,.78,.56,1.04c.27,.23,.62,.35,.98,.35h.07c.43-.02,.84-.23,1.12-.56l.61-.74c.73-.9,1.32-1.88,1.77-2.92,.72,.96,1.06,2.2,.83,3.47-.21,1.18-.87,2.2-1.85,2.88-.98,.69-2.17,.95-3.35,.73-2.42-.44-4.04-2.77-3.61-5.19Z" fill="#ffcd00" stroke-width="0"/><path d="M42.83,13.98l-.82,.3c-.25-.76-.56-1.5-.9-2.22l.9-.33c.61,.63,.88,1.37,.82,2.25Z" fill="#ffcd00" stroke-width="0"/><path d="M39.22,8.85c-.47-.65-.98-1.26-1.51-1.85l.66-.55c.79,.4,1.29,1.01,1.52,1.85l-.67,.55Z" fill="#ffcd00" stroke-width="0"/><path d="M22.15,5.46c-.11,0-.22,.01-.33,.02-.29,.02-.59,.03-.89,.07,.01-.01,.01-.02,.01-.03,.01-.05,.01-.11,.02-.16,.06-.34,.17-.66,.31-.98,.16-.38,.38-.72,.64-1.04,.27-.33,.56-.64,.92-.89,1-.69,2.2-.95,3.39-.74,10.45,1.89,17.41,11.93,15.53,22.39-.45,2.46-2.81,4.1-5.26,3.65-.07-.01-.13-.03-.2-.04,.18-.34,.34-.68,.49-1.03,0-.02,.01-.03,.02-.04,.13-.32,.26-.63,.37-.95l.12-.39c.08-.24,.16-.47,.22-.71,.11-.4,.2-.8,.27-1.2,.73-4.01-.15-8.06-2.47-11.41-2.06-2.96-5.03-5.05-8.46-6-.44-.12-.89-.22-1.35-.31-.45-.08-.9-.13-1.35-.17-.17-.01-.35-.02-.53-.03-.25-.02-.5-.02-.75-.02s-.48,0-.72,.01Z" fill="#ffcd00" stroke-width="0"/><path d="M41.37,13.64l.82-.3c.06-.88-.21-1.62-.82-2.25l-.9,.33c.34,.72,.65,1.46,.9,2.22Zm-4.3-7.28c.53,.59,1.04,1.2,1.51,1.85l.67-.55c-.23-.84-.73-1.45-1.52-1.85l-.66,.55Zm-15.89-1.52c.11-.01,.22-.02,.33-.02,.24-.01,.48-.01,.72-.01s.5,0,.75,.02c.18,.01,.36,.02,.53,.03,.45,.04,.9,.09,1.35,.17,.46,.09,.91,.19,1.35,.31,3.43,.95,6.4,3.04,8.46,6,2.32,3.35,3.2,7.4,2.47,11.41-.07,.4-.16,.8-.27,1.2-.06,.24-.14,.47-.22,.71l-.12,.39c-.11,.32-.24,.63-.37,.95-.01,.01-.02,.02-.02,.04-.15,.35-.31,.69-.49,1.03,.07,.01,.13,.03,.2,.04,2.45,.45,4.81-1.19,5.26-3.65,1.88-10.46-5.08-20.5-15.53-22.39-1.19-.21-2.39,.05-3.39,.74-.36,.25-.65,.56-.92,.89-.26,.32-.48,.66-.64,1.04-.14,.32-.25,.64-.31,.98-.01,.05-.01,.11-.02,.16,0,.01,0,.02,0,.03,.3-.04,.6-.05,.89-.07Zm2.11,7.26c-3.1-.56-6.17,1.09-8.01,3.96l1.59,3.16c2.89,.41,5.23,2.69,5.86,5.74,.05,.27-.12,.53-.39,.59-.04,.01-.07,.01-.1,.01-.24,0-.44-.16-.49-.4-.49-2.37-2.17-4.21-4.3-4.81l1.89,3.74c1.38,2.91,1.54,6.21,.57,9.18,.08,.09,.17,.18,.24,.27,1.24-1.37,2.24-2.29,3.56-3.27l.65-.48c2.35-1.73,4.58-3.36,5.18-6.72,.46-2.52,.04-5.07-1.16-7.17-1.2-2.08-3.01-3.43-5.09-3.8Zm-8.15,29.33c1.18,.22,2.37-.04,3.35-.73,.98-.68,1.64-1.7,1.85-2.88,.23-1.27-.11-2.51-.83-3.47-.45,1.04-1.04,2.02-1.77,2.92l-.61,.74c-.28,.33-.69,.54-1.12,.56h-.07c-.36,0-.71-.12-.98-.35-.32-.26-.52-.63-.56-1.04s.08-.81,.34-1.13l.61-.74c.66-.8,1.15-1.71,1.5-2.65-.04-.01-.08-.03-.12-.04-.26-.04-.53-.07-.79-.07-2.13,0-4.02,1.52-4.41,3.69-.43,2.42,1.19,4.75,3.61,5.19Zm-2.94-31.54c-.53,1.96-.34,4.04,.59,5.87l.74,1.46,.61,1.21,3.32,6.56c1.05,2.22,1.25,4.71,.65,7.02-.08,.33-.2,.65-.32,.96-.39,1.06-.93,2.08-1.67,2.97l-.6,.74c-.19,.24-.16,.58,.07,.77,.1,.08,.23,.12,.35,.12h.02c.15-.01,.3-.07,.4-.2l.6-.74c.77-.93,1.36-1.97,1.78-3.06,.13-.33,.25-.67,.35-1.01,.75-2.63,.56-5.5-.65-8.05l-3.76-7.41-.55-1.09-.38-.74c-.95-1.89-1.02-4.1-.18-6.05,.12-.29,.28-.58,.44-.85,.69-1.14,1.69-2.05,2.88-2.61,.31-.15,.62-.28,.95-.38,.48-.14,.96-.26,1.44-.35,.01-.15,.03-.32,.06-.49,.04-.22,.12-.43,.18-.65-.67,.12-1.33,.25-1.99,.45-1.88,.56-3.46,1.82-4.46,3.5-.19,.31-.36,.62-.5,.95-.15,.36-.27,.73-.37,1.1Zm-5.03,7.45c.56-3.13,2.05-5.86,4.13-7.97,.1-.33,.21-.65,.35-.97,1.05-2.44,3.09-4.27,5.59-5.02,.9-.26,1.82-.44,2.74-.56,.4-.71,.95-1.35,1.64-1.83,1.21-.84,2.68-1.16,4.14-.9,4.17,.75,7.81,2.75,10.62,5.53l.96-.78c.14-.11,.33-.14,.5-.07,1.36,.55,2.18,1.56,2.45,2.99,.04,.18-.03,.37-.17,.48l-.98,.8c.31,.48,.61,.98,.88,1.48l1.29-.47c.18-.06,.37-.03,.51,.09,1.09,.97,1.54,2.19,1.32,3.64-.02,.18-.15,.33-.32,.39l-1.18,.43c.8,2.86,1.01,5.93,.45,9.04-.48,2.67-2.82,4.54-5.44,4.54-.32,0-.65-.03-.98-.09-.16-.03-.34-.07-.52-.13-.95,1.54-2.17,2.93-3.67,4.13-.3,.25-.77,.56-1.36,.96-1.1,.74-2.59,1.74-3.63,2.73-1.31,1.24-1.44,2.86-1.59,4.74-.14,1.81-.3,3.87-1.66,5.8-.11,.16-2.58,3.68-6.93,3.68-.38,0-.77-.02-1.17-.08-5.46-.78-7.28-6.58-7.59-7.74-.07-.26,.09-.54,.35-.61,.27-.06,.54,.09,.62,.36,.17,.64,1.82,6.3,6.76,7,4.45,.63,7.03-3.03,7.14-3.18,1.2-1.71,1.35-3.54,1.49-5.31,.06-.75,.11-1.48,.25-2.19,.22-1.17,.65-2.26,1.64-3.2,1.1-1.04,2.64-2.07,3.76-2.83,.55-.37,1.03-.69,1.3-.91,1.49-1.2,2.69-2.6,3.6-4.15,0-.02,0-.04,.02-.05,.62-1.08,1.09-2.2,1.41-3.36,.11-.39,.2-.78,.27-1.18,.68-3.75-.15-7.53-2.31-10.66-2.17-3.12-5.42-5.22-9.16-5.89-.43-.08-.86-.13-1.29-.17-.25-.02-.5-.03-.75-.03-.16-.01-.32-.02-.48-.02-.33,0-.66,.02-.99,.04-.06,.01-.13,.01-.2,.02-.37,.03-.73,.07-1.1,.13-.88,.15-1.75,.37-2.58,.68-1.24,.6-2.25,1.63-2.81,2.95-.73,1.68-.67,3.57,.16,5.2l.11,.22c2.08-2.9,5.37-4.53,8.7-3.93,2.39,.43,4.44,1.96,5.78,4.29,1.33,2.31,1.78,5.1,1.29,7.85-.68,3.75-3.17,5.58-5.58,7.35l-.64,.47c-1.12,.83-2.13,1.7-3.58,3.33,.59,1.06,.83,2.32,.6,3.6-.26,1.44-1.07,2.69-2.27,3.53-.93,.64-2.01,.97-3.11,.97-.33,0-.66-.02-.98-.08-2.97-.54-4.96-3.39-4.42-6.36s3.39-4.95,6.36-4.42c.08,.02,.17,.04,.25,.06,.52-2.06,.34-4.28-.59-6.26l-2.82-5.57c-.01,.06-.03,.11-.04,.17-.26,1.44-.24,2.87,.06,4.25,.06,.27-.11,.54-.38,.59-.27,.06-.54-.11-.6-.38-.32-1.51-.35-3.07-.06-4.64,.08-.46,.2-.91,.33-1.35l-1.17-2.3c-.77-1.53-1.1-3.23-.96-4.9-1.37,1.76-2.35,3.86-2.78,6.21-.4,2.25-.26,4.59,.41,6.76,.09,.26-.06,.54-.33,.62-.26,.09-.54-.06-.62-.33-.72-2.32-.88-4.82-.44-7.23Z" stroke-width="0"/></svg>