<?xml version="1.0" encoding="UTF-8"?><svg width="70" height="70" xmlns="http://www.w3.org/2000/svg" viewBox="-10 -10 70 70"><rect x="-10" y="-10" width="70" height="70" fill="white"/><g id="uuid-007ce03b-177f-4493-a9d1-0e5e5353d402"><g><path d="M6.29,26.45h6.6l4.23-5.79c.1-.14,.26-.23,.43-.2,.17,0,.32,.1,.41,.25l6.81,11.59,6.8-17.67c.07-.19,.26-.32,.47-.32h0c.21,0,.39,.13,.47,.32l4.59,11.8,9.11,.03c2.15-2.22,3.34-5.13,3.34-8.23s-1.23-6.14-3.47-8.38c-4.62-4.62-12.14-4.62-16.76,0l-2.71,2.71c-.09,.09-.22,.15-.35,.15s-.26-.05-.35-.15l-2.71-2.71c-2.31-2.31-5.35-3.46-8.38-3.46s-6.07,1.15-8.38,3.46c-2.24,2.24-3.47,5.21-3.47,8.38s1.19,6.01,3.34,8.23Z" fill="#ffcd00" stroke-width="0"/><path d="M45.28,7.63c-5.01-5.01-13.16-5.01-18.18,0l-2.36,2.36-2.35-2.36c-5.01-5.01-13.16-5.01-18.18,0-5.01,5.01-5.01,13.16,0,18.17h0l20.18,20.18c.09,.09,.22,.15,.35,.15s.26-.05,.35-.15l20.18-20.18c5.01-5.01,5.01-13.17,0-18.18ZM13.3,4.87c3.04,0,6.07,1.16,8.38,3.46l2.71,2.71c.09,.09,.22,.15,.35,.15s.26-.05,.35-.15l2.71-2.71c4.62-4.62,12.14-4.62,16.76,0,2.24,2.24,3.47,5.21,3.47,8.38s-1.19,6.01-3.34,8.23l-9.11-.03-4.59-11.8c-.07-.19-.26-.32-.47-.32h0c-.21,0-.39,.13-.47,.32l-6.8,17.67-6.81-11.59c-.08-.15-.24-.24-.41-.25-.17-.02-.33,.07-.43,.2l-4.23,5.79H4.79c-2.15-2.22-3.34-5.13-3.34-8.23s1.23-6.14,3.47-8.38c2.31-2.31,5.35-3.46,8.38-3.46Zm-1.66,21.08c.16,0,.31-.08,.4-.21l3.93-5.38,6.95,11.83c.09,.15,.25,.25,.43,.25,.01,0,.03,0,.04,0,.19-.02,.36-.14,.43-.32l6.71-17.43,4.25,10.91c.07,.19,.26,.32,.46,.32l8.47,.03-18.98,18.97L5.77,25.95h5.87Z" stroke-width="0"/></g></g><g id="uuid-2f51ea01-e886-4340-bcc0-cc8103bd1186"></g></svg>