<?xml version="1.0" encoding="UTF-8"?><svg width="70" height="70" xmlns="http://www.w3.org/2000/svg" viewBox="-10 -10 70 70"><rect x="-10" y="-10" width="70" height="70" fill="white"/><g id="uuid-c3adde43-0646-45e5-b7da-a855130974c5"><g><path d="M13.46,24.92c-5.7,0-10.34,4.64-10.34,10.34s4.64,10.34,10.34,10.34,10.34-4.64,10.34-10.34-4.64-10.34-10.34-10.34Z" fill="#ffcd00" stroke-width="0"/><path d="M7.69,30.26c-.21-.18-.53-.14-.7,.07-.17,.21-.14,.53,.07,.7,.21,.17,1.24,1.08,1.3,2.57,.07,1.7-1.19,2.77-1.33,2.88-.21,.17-.25,.49-.08,.7,.1,.12,.24,.19,.39,.19,.11,0,.22-.04,.31-.11,.3-.24,1.79-1.55,1.7-3.7-.07-1.87-1.29-3-1.66-3.3Z" stroke-width="0"/><path d="M44.29,6.81c-3.12-3.25-7.14-5.04-11.3-5.04-9.03,0-16.38,8.1-16.38,18.06,0,.28,.22,.5,.5,.5,.02,0,.04,0,.06-.01,.25-.03,.44-.23,.44-.49,0-9.41,6.9-17.06,15.38-17.06,3.89,0,7.64,1.68,10.58,4.73,3.23,3.36,4.98,7.84,4.8,12.31-.35,8.94-8.29,13.72-8.67,13.94-.59,.42-1.09,.94-1.49,1.56-.7,1.09-.92,2.21-.97,2.95-.47,4.97-4.26,8.91-8.61,8.97-1.94,.06-3.76-.73-5.31-2.26-1.2-1.18-2.08-2.66-2.66-4.05,1.24-1.49,2.1-3.29,2.45-5.28,.6,.72,1.46,1.15,2.32,1.15,.25,0,.5-.04,.74-.11,.73-.23,1.33-.82,1.66-1.62,.38-.91,.33-1.94-.12-2.8-.51-1.18-3.11-7.22-3.66-10.54-.13-.81-.19-1.63-.19-1.64-.08-1.29,.01-2.58,.25-3.83,1.32,.07,5.52,.63,7.76,4.33,1.58,2.6,1.29,5.32,1.09,6.37-.05,.27,.13,.53,.4,.58,.03,0,.06,0,.09,0,.24,0,.45-.17,.49-.41,.22-1.17,.54-4.19-1.22-7.08-2.36-3.88-6.65-4.61-8.33-4.77,.58-1.44,2.21-4.57,5.78-5.77,4.24-1.42,8.53,.86,10.72,3.59,1.46,1.83,1.92,3.86,2.05,4.9,.28,2.13-.17,3.9-.61,5.02-.1,.26,.03,.55,.29,.65,.26,.1,.55-.03,.65-.29,.47-1.22,.97-3.17,.67-5.51-.15-1.15-.65-3.38-2.26-5.4-2.4-2.99-7.11-5.49-11.81-3.91-4.55,1.53-6.25,5.86-6.61,6.97,0,0,0,.02,0,.03l-.02,.07c-.32,1.49-.44,3-.34,4.5,0,.04,.06,.88,.2,1.74,.57,3.43,3.21,9.58,3.75,10.8,.32,.63,.36,1.36,.09,1.99-.21,.52-.6,.91-1.04,1.05-.75,.24-1.87-.2-2.37-1.32-.05-.11-.14-.19-.24-.24,0-.17,.03-.33,.03-.5,0-4.19-2.29-7.85-5.69-9.81-1.67-.96-3.59-1.52-5.65-1.52-6.25,0-11.34,5.09-11.34,11.34s5.09,11.34,11.34,11.34c3.11,0,5.92-1.26,7.97-3.29,.63,1.37,1.51,2.79,2.69,3.96,1.71,1.69,3.7,2.55,5.9,2.55,.04,0,.08,0,.12,0,4.94-.07,9.06-4.32,9.59-9.89,.05-.63,.23-1.58,.82-2.49,.33-.51,.74-.95,1.19-1.27,.36-.21,8.75-5.26,9.12-14.74,.19-4.74-1.67-9.49-5.08-13.04ZM1.62,33.68c0-5.7,4.64-10.34,10.34-10.34s10.34,4.64,10.34,10.34-4.64,10.34-10.34,10.34S1.62,39.38,1.62,33.68Z" stroke-width="0"/><path d="M10.18,28.24c-.22-.17-.53-.12-.7,.1-.17,.22-.12,.53,.1,.7,.38,.29,2.31,1.87,2.43,4.6,.13,2.78-1.7,4.54-2.07,4.87-.21,.18-.23,.5-.05,.71,.1,.11,.24,.17,.38,.17,.12,0,.24-.04,.33-.12,.43-.38,2.56-2.42,2.41-5.67-.15-3.17-2.38-5.01-2.83-5.35Z" stroke-width="0"/><path d="M13.15,26.05c-.22-.17-.53-.12-.7,.1-.17,.22-.12,.53,.1,.7,.56,.42,3.34,2.7,3.52,6.64,.19,4.02-2.46,6.57-3,7.03-.21,.18-.23,.5-.05,.71,.1,.11,.24,.17,.38,.17,.12,0,.24-.04,.33-.12,.59-.52,3.54-3.35,3.34-7.83-.2-4.39-3.3-6.93-3.92-7.4Z" stroke-width="0"/></g></g><g id="uuid-fe49a060-7ef0-4816-aa38-cc178b0d41ee"></g></svg>