<?xml version="1.0" encoding="UTF-8"?><svg width="70" height="70" xmlns="http://www.w3.org/2000/svg" viewBox="-10 -10 70 70"><rect x="-10" y="-10" width="70" height="70" fill="white"/><g id="uuid-615b3bf8-1946-4d22-8a10-d388befc495f"><g><path d="M3.19,18.92c0,2.88,1.12,5.58,3.16,7.62l17.8,17.8,2.02-10.52-5.73-4.96c-.2-.17-.23-.47-.07-.68l6.68-8.73-3.04-5.72-2.42-2.42c-2.1-2.1-4.86-3.15-7.62-3.15s-5.52,1.05-7.62,3.15c-2.03,2.03-3.16,4.74-3.16,7.62Z" fill="#ffcd00" stroke-width="0"/><path d="M19.94,26.91l6.59-8.61c.12-.16,.14-.37,.04-.54l-3.23-6.07s-.05-.08-.09-.12l-2.47-2.47c-4.59-4.59-12.06-4.59-16.65,0C1.91,11.32,.69,14.28,.69,17.42s1.22,6.1,3.45,8.32l18.41,18.41c.1,.1,.23,.15,.35,.15s.25-.05,.35-.14l.08-.08c.07-.07,.12-.16,.14-.26l2.22-11.59c.03-.17-.03-.35-.16-.47l-5.59-4.84Zm.13-17.11l2.42,2.42,3.04,5.72-6.68,8.73c-.16,.21-.13,.51,.07,.68l5.73,4.96-2.02,10.52L4.84,25.04c-2.03-2.03-3.16-4.74-3.16-7.62s1.12-5.58,3.16-7.62c2.1-2.1,4.86-3.15,7.62-3.15s5.52,1.05,7.62,3.15Z" stroke-width="0"/><path d="M49.31,18.92c0-2.88-1.12-5.58-3.16-7.62-4.2-4.2-11.03-4.2-15.23,0l-2.21,2.21,3.06,5.75c.09,.17,.07,.38-.04,.54l-6.58,8.61,5.59,4.84c.13,.12,.2,.3,.16,.47l-1.92,9.99,17.18-17.18c2.04-2.03,3.16-4.74,3.16-7.62Z" fill="#ffcd00" stroke-width="0"/><path d="M45.37,9.1c-4.59-4.59-12.06-4.59-16.65,0l-2.47,2.47c-.16,.16-.19,.39-.09,.59l3.08,5.79-6.68,8.73c-.16,.21-.13,.51,.07,.68l5.73,4.96-2.17,11.3c-.04,.21,.06,.43,.26,.54,.07,.04,.15,.06,.23,.06,.13,0,.26-.05,.35-.15l18.33-18.33c2.22-2.22,3.45-5.18,3.45-8.32s-1.22-6.1-3.45-8.32Zm-15.97,23.13c.03-.17-.03-.35-.16-.47l-5.59-4.84,6.58-8.61c.12-.16,.14-.37,.04-.54l-3.06-5.75,2.21-2.21c4.2-4.2,11.03-4.2,15.23,0,2.04,2.03,3.16,4.74,3.16,7.62s-1.12,5.58-3.16,7.62l-17.18,17.18,1.92-9.99Z" stroke-width="0"/></g></g><g id="uuid-7800ab55-f2c2-4f59-b11c-48bc59775b28"></g></svg>