<?xml version="1.0" encoding="UTF-8"?><svg width="70" height="70" id="uuid-2cf4eff8-e945-47fe-a893-6903f31e7cf3" xmlns="http://www.w3.org/2000/svg" viewBox="-10 -10 70 70"><rect x="-10" y="-10" width="70" height="70" fill="white"/><path d="M34.12,36c-3.36-.03-4.82-2.15-5.25-3.15-.66-.02-2.4,0-3.76,.02-.41,.87-1.83,3.08-5.57,3.08-2.79,0-4.47-1.88-5.4-3.5v1.44c0,4.69,3.81,8.5,8.5,8.5h8.27c4.69,0,8.5-3.81,8.5-8.5v-1.05c-.93,1.46-2.62,3.13-5.28,3.15Z" fill="#ffcd00" stroke-width="0"/><path d="M26.42,15c-5.81,0-10.79,4.33-11.58,10.07-.04,.27,.15,.53,.43,.56,.02,0,.05,0,.07,0,.25,0,.46-.18,.49-.43,.73-5.25,5.28-9.21,10.59-9.21,.28,0,.5-.22,.5-.5s-.22-.5-.5-.5Z" fill="none" stroke-width="0"/><path d="M29.77,11.88l-.78-5.62h-4.23l-.63,5.43,4.11-.02c.51,0,1.02,.08,1.53,.2Z" fill="#ffcd00" stroke-width="0"/><path d="M44.95,3.51H25.5V1.24c0-.28-.22-.5-.5-.5s-.5,.22-.5,.5V3.51H5.05c-.28,0-.5,.22-.5,.5s.22,.5,.5,.5H22l-.73,6.34c-4.89,.91-9.88,6.22-9.88,10.94v10.35c0,3.42,1.82,6.41,4.54,8.08l-4.05,8.03h-3.93c-.28,0-.5,.22-.5,.5s.22,.5,.5,.5h4.24c.19,0,.36-.11,.45-.27l4.18-8.27c1.24,.59,2.62,.94,4.09,.94h8.27c1.44,0,2.8-.33,4.03-.91l4.15,8.21c.08,.17,.26,.27,.45,.27h4.24c.28,0,.5-.22,.5-.5s-.22-.5-.5-.5h-3.93l-4.02-7.96c2.75-1.67,4.59-4.68,4.59-8.12v-10.35c0-5.09-4.76-10.46-9.54-11.06l-.87-6.22h16.71c.28,0,.5-.22,.5-.5s-.22-.5-.5-.5Zm-7.3,28.63c0,4.69-3.81,8.5-8.5,8.5h-8.27c-4.69,0-8.5-3.81-8.5-8.5v-1.44c.93,1.62,2.62,3.5,5.4,3.5,3.74,0,5.16-2.21,5.57-3.08,1.36-.02,3.1-.04,3.76-.02,.43,.99,1.89,3.12,5.25,3.15,2.66-.02,4.35-1.69,5.28-3.15v1.05Zm0-10.35v7.06c-.2,.59-1.6,4.4-5.23,4.4h-.04c-3.41-.03-4.38-2.61-4.43-2.74-.02-.09-.07-.17-.13-.23-.19-.19-.23-.23-4.81-.14-.21,0-.4,.14-.47,.35,0,.03-.93,2.73-4.76,2.73s-5.27-4.53-5.4-5v-6.42c0-4.62,5.59-10.09,10.32-10.09l5.54-.03c4.49,0,9.41,5.3,9.41,10.12Zm-9.56-11.14h-5.79l.71-6.14h4.23l.85,6.14Z" stroke-width="0"/><path d="M26.42,15c-5.81,0-10.79,4.33-11.58,10.07-.04,.27,.15,.53,.43,.56,.02,0,.05,0,.07,0,.25,0,.46-.18,.49-.43,.73-5.25,5.28-9.21,10.59-9.21,.28,0,.5-.22,.5-.5s-.22-.5-.5-.5Z" stroke-width="0"/></svg>