<?xml version="1.0" encoding="UTF-8"?><svg width="70" height="70" id="uuid-1ee32fdb-2abb-4340-9e9b-831e0e36b8dd" xmlns="http://www.w3.org/2000/svg" viewBox="-10 -10 70 70"><rect x="-10" y="-10" width="70" height="70" fill="white"/><path d="M43.03,34.35c0-.11-.03-.25-.05-.36v-.15l-.57-6.89c-.06-.77-.72-1.32-1.48-1.3-.9,.03-1.31,.73-1.39,1.54-.03,.31-.29,.63-.63,.55s-.37-.48-.39-.78l-.72-8.57c-.07-1.25-1.76-1.78-2.54-.81-.21,.26-.32,.57-.33,.9,0,.22,.03,.43-.15,.6-.34,.32-.8,.03-.85-.37l-.19-2.25c-.05-.77-.78-1.41-1.55-1.31-.78,.04-1.39,.79-1.32,1.55l.18,2.09c.04,.43-.4,.84-.81,.54-.21-.16-.2-.41-.27-.64s-.19-.42-.35-.58c-.61-.59-1.7-.45-2.19,.23-.19,.27-.27,.61-.24,.94l.48,5.82c.04,.79-1.04,.75-1-.02-.06-.78-.79-1.36-1.55-1.3-.04,.01-.07,.02-.1,.02-.47,.08-.85,.37-1.06,.78l.43-5.3c.06-.7-.36-1.29-1.04-1.48-.64-.18-1.36,.07-1.65,.69-.09,.19-.07,.41-.19,.57-.09,.12-.22,.2-.37,.21-.34,.04-.59-.24-.59-.57l.17-2.01c.14-1.23-1.43-2.05-2.37-1.22-.29,.25-.47,.6-.5,.98l-.19,2.25c-.02,.29-.21,.5-.51,.5-.34,0-.5-.28-.49-.59,.02-.37-.09-.75-.33-1.04-.79-.97-2.48-.44-2.54,.81l-.72,8.54c0,.67-1.04,.67-1.04,0-.17-1.72-2.69-1.71-2.85,.02l-.58,6.83s.01,.14,.01,.14l-.03,.24c-.01,.06-.02,.13-.02,.19-.28,3.25,1.15,6.34,3.82,8.25,.14,.1,.22,.27,.2,.45l-.38,4.57,9.38,.79,.41-4.88c.01-.17,.11-.31,.25-.4,1.14-.65,3.01-1.99,3.78-3.26,.79,1.36,1.94,2.46,3.32,3.26,.14,.09,.24,.23,.25,.4l.41,4.88,9.38-.79-.38-4.57c-.02-.18,.06-.35,.2-.45,2.67-1.91,4.1-5,3.82-8.25Z" fill="#ffcd00" stroke-width="0"/><g><path d="M40.71,18.01h6.02c.27,0,.5,.22,.5,.5s-.23,.5-.5,.5h-6.02c-.27,0-.5-.23-.5-.5s.23-.5,.5-.5Z" stroke-width="0"/><path d="M39.94,7.06l-4.01,4.01c-.1,.1-.23,.15-.36,.15-.12,0-.25-.05-.35-.15-.1-.09-.15-.22-.15-.35s.05-.25,.15-.35l4.01-4.01c.19-.2,.51-.2,.71,0,.09,.09,.14,.22,.14,.35s-.05,.26-.14,.35Z" stroke-width="0"/><path d="M25.22,2.71v6.02c0,.28-.22,.5-.5,.5s-.5-.22-.5-.5V2.71c0-.27,.23-.5,.5-.5s.5,.23,.5,.5Z" stroke-width="0"/><path d="M13.58,11.22l-4.01-4.01c-.1-.1-.14-.23-.14-.35,0-.13,.04-.26,.14-.36,.2-.19,.51-.19,.71,0l4.01,4.01c.1,.1,.15,.23,.15,.36,0,.12-.05,.25-.15,.35s-.23,.15-.35,.15c-.13,0-.26-.05-.36-.15Z" stroke-width="0"/><path d="M8.94,18.21c.28,0,.5,.23,.5,.5s-.22,.5-.5,.5H2.93c-.28,0-.5-.22-.5-.5s.22-.5,.5-.5h6.01Z" stroke-width="0"/><path d="M23.05,24.57l.06,.63,.12,1.43,.29,3.54,.33,3.9s.03,.14,.03,.15v.23c.02,.06,.02,.13,.02,.19,.11,1.29,.5,2.52,1.1,3.62,.18,.33,.39,.66,.61,.97,.77,1.07,1.76,1.98,2.94,2.65,.14,.09,.24,.23,.25,.4l.41,4.88,9.38-.79-.38-4.57c-.02-.18,.06-.35,.2-.45,2.67-1.91,4.1-5,3.82-8.25,0-.06-.01-.13-.02-.19l-.03-.17v-.15l-.57-6.89c-.07-.79-.77-1.37-1.55-1.31-.71,.06-1.26,.62-1.31,1.33,0,.02-.02,.04-.02,.06l.58,7.22c.03,.27-.18,.51-.45,.54h-.05c-.25,0-.47-.2-.49-.46l-.6-7.37-.72-8.57c-.07-.79-.77-1.38-1.56-1.31-.38,.03-.73,.21-.98,.5-.22,.27-.33,.59-.33,.93v.12l.99,11.84c.03,.28-.18,.52-.45,.54h-.05c-.25,0-.47-.2-.49-.46l-1-11.83h0l-.19-2.26c-.03-.38-.21-.73-.5-.98-.3-.25-.66-.37-1.05-.33-.39,.03-.73,.21-.98,.5-.25,.3-.37,.67-.34,1.05l.19,2.25h0l1,11.85c.02,.27-.18,.51-.46,.54h-.04c-.26,0-.48-.2-.5-.46l-.99-11.84c-.04-.38-.22-.73-.51-.98s-.67-.36-1.05-.33-.73,.21-.98,.5c-.25,.3-.37,.67-.33,1.05l.62,7.45h0l.07,.82,.03,.3,.27,3.27c.03,.28-.18,.52-.45,.54h-.05c-.25,0-.47-.19-.49-.46l-.28-3.26h0l-.24-2.86c-.04-.38-.21-.72-.5-.96-.27-.22-.59-.34-.93-.34h-.12s-.07,.02-.1,.02c-.48,.08-.87,.38-1.07,.8-.11,.22-.17,.47-.15,.74l.04,.48Zm-11.46,16.78c.14,.1,.22,.27,.2,.45l-.38,4.57,9.38,.79,.41-4.88c0-.17,.11-.31,.25-.4,1.18-.67,2.17-1.58,2.94-2.65-.83-1.35-1.35-2.88-1.48-4.5-.01-.09-.01-.18-.02-.26v-.14s-.03-.1-.03-.17l-.84-9.99c-.09-.99,.44-1.89,1.26-2.34l.32-3.8c.04-.38-.08-.75-.33-1.05-.25-.29-.6-.47-.98-.5s-.76,.08-1.05,.33-.47,.6-.51,.98l-.99,11.84c-.02,.26-.24,.46-.5,.46h-.04c-.28-.03-.48-.27-.46-.54l1-11.84,.19-2.26c.03-.38-.09-.75-.34-1.05-.25-.29-.59-.47-.98-.5-.37-.03-.75,.08-1.05,.33-.29,.25-.47,.6-.5,.98l-.19,2.26-1,11.83c-.02,.26-.24,.46-.49,.46h-.05c-.27-.02-.48-.26-.45-.54l.99-11.84c.03-.38-.09-.76-.33-1.05-.25-.29-.6-.47-.98-.5-.81-.07-1.49,.52-1.56,1.31l-.72,8.57s-.48,5.4-.48,5.4c.63,.15,1.2,.43,1.68,.82,2.13,1.72,1.62,4.77,1.6,4.9-.05,.24-.26,.41-.5,.41-.03,0-.05,0-.08-.01-.28-.05-.46-.31-.41-.58,0-.02,.44-2.59-1.23-3.94-.47-.37-1.03-.61-1.67-.7-.26-.04-.45-.28-.43-.54l.49-5.76c-.06-.71-.6-1.26-1.31-1.32-.78-.07-1.48,.52-1.55,1.31l-.58,6.83s.01,.14,.01,.14l-.03,.24c-.01,.06-.02,.13-.02,.19-.28,3.25,1.15,6.34,3.82,8.25Zm-.82,.64c-2.8-2.13-4.3-5.46-4-8.97,.01-.09,.02-.18,.03-.26l.02-.14s-.01-.11,0-.17l.57-6.83c.06-.65,.36-1.24,.86-1.66s1.13-.62,1.78-.57c.53,.05,1.02,.26,1.39,.59l.59-6.92c.11-1.34,1.3-2.35,2.63-2.23,.52,.04,1.01,.25,1.4,.59l.02-.29c.06-.65,.36-1.24,.86-1.66s1.13-.63,1.78-.57c.65,.05,1.24,.36,1.66,.86,.42,.49,.62,1.13,.56,1.78l-.02,.29c.44-.27,.95-.39,1.47-.35,.65,.05,1.24,.36,1.66,.86,.42,.49,.62,1.13,.57,1.78l-.29,3.42c.5-.03,.99,.09,1.41,.35l-.32-3.77c-.05-.65,.15-1.29,.57-1.78,.42-.5,1.01-.81,1.66-.86,.52-.04,1.03,.08,1.47,.35l-.02-.29c-.06-.65,.14-1.29,.56-1.78,.42-.5,1.01-.81,1.66-.86,.65-.06,1.28,.15,1.78,.57s.8,1.01,.86,1.66l.02,.29c.39-.34,.88-.55,1.4-.59,1.36-.11,2.52,.89,2.63,2.23l.59,6.92c.37-.33,.86-.54,1.39-.59,.66-.05,1.28,.15,1.78,.57s.8,1.01,.86,1.66l.57,6.83c.01,.06,.01,.13,0,.19l.02,.12c0,.08,.02,.17,.03,.26,.3,3.51-1.2,6.84-4,8.97l.4,4.79c.02,.28-.18,.52-.46,.54l-10.37,.87s-.03,.01-.05,.01c-.11,0-.23-.05-.32-.12-.1-.09-.16-.21-.17-.34l-.43-5.12c-1.11-.67-2.06-1.53-2.83-2.53-.77,1-1.72,1.86-2.83,2.53l-.43,5.12c-.01,.13-.07,.25-.17,.34-.09,.07-.21,.12-.32,.12-.02,0-.03-.01-.05-.01l-10.37-.87c-.28-.02-.48-.26-.46-.54l.4-4.79Z" stroke-width="0"/></g></svg>