<?xml version="1.0" encoding="utf-8"?> <!-- Generator: Adobe Illustrator 27.7.0, SVG Export Plug-In . SVG Version: 6.00 Build 0) --> <svg width="70" height="70" version="1.1" xmlns="http://www.w3.org/2000/svg" xmlns:xlink="http://www.w3.org/1999/xlink" x="0px" y="0px" viewBox="-10 -10 70 70" style="enable-background:new 0 0 50 50;" xml:space="preserve"><rect x="-10" y="-10" width="70" height="70" fill="white"/> <style type="text/css"> .st0{fill:#FFCD00;} .st1{display:none;} .st2{display:inline;fill:none;stroke:#EA008A;stroke-width:0.2;stroke-miterlimit:10;} .st3{font-family:'Roboto-Regular';} .st4{font-size:6px;} </style> <g id="Color"> <path class="st0" d="M41.0049,5.3105h-8.2354v13.0898h-2.0391V5.3105H19.2695v13.0898h-2.0391V5.3105h-5.2354 c-0.9209,0-1.6699,0.749-1.6699,1.6689v3.627c0,0.9199,0.749,1.6689,1.6699,1.6689h0.4209c0.2627,0,0.4814,0.2041,0.499,0.4668 l0.4609,6.8447c0.0674,0.8945,0.4492,1.7324,1.0732,2.3564c0.0938,0.0938,0.1465,0.2207,0.1465,0.3535v6.7976l-3.708,1.0002 c0.0267,3.4036,0.7588,7.5134,2.708,9.139c0.3403,0.284,0.6732,0.5295,1,0.7497v5.6904c0,2.0459,1.665,3.71,3.7109,3.71h16.3867 c2.0459,0,3.7109-1.6641,3.7109-3.71v-5.6904c0.3268-0.2202,0.6597-0.4657,1-0.7497c1.9492-1.6256,2.6813-5.7354,2.708-9.139 l-3.708-1.0002v-6.8132c0-0.1328,0.0527-0.2598,0.1455-0.3535c0.626-0.627,1.0088-1.4697,1.0762-2.3711l0.459-6.8145 c0.0176-0.2627,0.2363-0.4668,0.499-0.4668h0.4209c0.9209,0,1.6699-0.749,1.6699-1.6689v-3.627 C42.6748,6.0596,41.9258,5.3105,41.0049,5.3105z" stroke-width="0"/> </g> <g id="ICONS_00000031165542127692736420000002692518830807990202_"> <path d="M39.124,18.1279l0.4284-6.3574c1.4503-0.0261,2.6224-1.2087,2.6224-2.6641v-3.627c0-1.4717-1.1973-2.6689-2.6699-2.6689 h-5.7354V1.6738c0-0.2764-0.2236-0.5-0.5-0.5h-3.0391c-0.2764,0-0.5,0.2236-0.5,0.5v1.1367h-9.4609V1.6738 c0-0.2764-0.2236-0.5-0.5-0.5h-3.0391c-0.2764,0-0.5,0.2236-0.5,0.5v1.1367h-5.7354c-1.4727,0-2.6699,1.1973-2.6699,2.6689v3.627 c0,1.4554,1.1721,2.6381,2.6224,2.6641l0.4304,6.3867c0.082,1.0899,0.5402,2.0603,1.2178,2.8085v5.8635l-3.3379,0.9002 c-0.2168,0.0586-0.3682,0.2539-0.3701,0.4785c-0.0106,1.4572,0.1266,8.7167,3.708,10.7324v5.2334c0,2.5967,2.1133,4.71,4.7109,4.71 h16.3867c2.5977,0,4.7109-2.1133,4.7109-4.71v-5.2334c3.5814-2.0157,3.7186-9.2753,3.708-10.7324 c-0.002-0.2246-0.1533-0.4199-0.3701-0.4785l-3.3379-0.9002v-5.8784C38.583,20.1984,39.0418,19.2236,39.124,18.1279z M36.9043,39.5869h-3.2656V31.124c0-1.7988-1.4639-3.2627-3.2627-3.2627H19.624c-1.7988,0-3.2627,1.4639-3.2627,3.2627v8.4629 h-3.2656V21.8003c0.6563,0.3994,1.4093,0.6392,2.2119,0.6392h0.4854v2.4219c0,0.2764,0.2236,0.5,0.5,0.5h3.9141 c0.2764,0,0.5-0.2236,0.5-0.5v-2.4219h8.5859v2.4219c0,0.2764,0.2236,0.5,0.5,0.5h3.9141c0.2764,0,0.5-0.2236,0.5-0.5v-2.4219 h0.4619c0.8115,0,1.5729-0.2429,2.2354-0.6487V39.5869z M17.3613,39.5869V31.124c0-1.248,1.0146-2.2627,2.2627-2.2627h10.752 c1.248,0,2.2627,1.0146,2.2627,2.2627v8.4629H17.3613z M16.793,19.4004h2.9141v2.0391H16.793V19.4004z M33.207,19.4004v2.0391 H30.293v-2.0391H33.207z M30.293,22.4395h2.9141v1.9219H30.293V22.4395z M29.7305,18.413 c-0.2454,0.032-0.4375,0.2332-0.4375,0.4874v2.5391H20.707v-2.5391c0-0.2542-0.1921-0.4554-0.4375-0.4874v-6.6376h9.4609V18.413z M19.707,22.4395v1.9219H16.793v-1.9219H19.707z M34.6689,21.4395H34.207v-2.5391c0-0.2542-0.1921-0.4554-0.4375-0.4874v-6.6376 h4.78l-0.4236,6.2822C37.9834,19.9541,36.4648,21.4395,34.6689,21.4395z M39.5049,3.8105c0.9209,0,1.6699,0.749,1.6699,1.6689 v3.627c0,0.9199-0.749,1.6689-1.6699,1.6689h-5.7354V3.8105H39.5049z M32.7695,2.1738v16.2266h-2.0391V2.1738H32.7695z M29.7305,3.8105v6.9648h-9.4609V3.8105H29.7305z M17.2305,2.1738h2.0391v16.2266h-2.0391V2.1738z M8.8252,9.1064v-3.627 c0-0.9199,0.749-1.6689,1.6699-1.6689h5.7354v6.9648h-5.7354C9.5742,10.7754,8.8252,10.0264,8.8252,9.1064z M11.4504,11.7754h4.78 v6.6376c-0.2454,0.032-0.4375,0.2332-0.4375,0.4874v2.5391h-0.4854c-0.9006,0-1.7295-0.3778-2.3489-0.9921 c-0.0055-0.0058-0.0095-0.0123-0.0153-0.0178c-0.5978-0.6006-0.9985-1.4216-1.0674-2.3426L11.4504,11.7754z M9.3877,28.5947 l2.708-0.7305v9.8694C10.1465,36.1081,9.4144,31.9983,9.3877,28.5947z M33.1934,47.8838H16.8066 c-2.0459,0-3.7109-1.6641-3.7109-3.71v-3.5869h23.8086v3.5869C36.9043,46.2197,35.2393,47.8838,33.1934,47.8838z M40.6123,28.5947 c-0.0267,3.4036-0.7588,7.5134-2.708,9.139v-9.8694L40.6123,28.5947z" stroke-width="0"/> </g> <g id="Margin" class="st1"> <rect x="1" y="1" class="st2" /> </g> <g id="Guides" class="st1"> </g> <g id="LABELS"> <g> <g> <g> <g> <g> <g> <g> </g> </g> </g> </g> </g> </g> </g> </g> </svg> 