<?xml version="1.0" encoding="utf-8"?> <!-- Generator: Adobe Illustrator 27.7.0, SVG Export Plug-In . SVG Version: 6.00 Build 0) --> <svg width="70" height="70" version="1.1" xmlns="http://www.w3.org/2000/svg" xmlns:xlink="http://www.w3.org/1999/xlink" x="0px" y="0px" viewBox="-10 -10 70 70" style="enable-background:new 0 0 50 50;" xml:space="preserve"><rect x="-10" y="-10" width="70" height="70" fill="white"/> <style type="text/css"> .st0{fill:#FFCD00;} .st1{display:none;} .st2{display:inline;fill:none;stroke:#EA008A;stroke-width:0.2;stroke-miterlimit:10;} .st3{font-family:'Roboto-Regular';} .st4{font-size:6px;} </style> <g id="Color"> <path class="st0" d="M3.8823,43.9131c0.2178-0.8115,0.791-1.5928,1.7739-1.5928c0.1489,0,0.3081,0.0176,0.4766,0.0566 c0.1477,0.034,0.2965,0.0699,0.4445,0.1044l-0.2471,5.2052C6.1216,47.6264,5.91,47.57,5.7041,47.5068 C4.0327,46.9932,3.5181,45.2715,3.8823,43.9131z" stroke-width="0"/> <path class="st0" d="M24.2788,45.9258c-1.2661,2.0904-4.0828,3.0338-7.4713,3.1892l1.3706-4.7724 c2.6171-0.1311,4.8448-0.9892,6.2955-3.2322L45.751,3.2881l1.7959,1.0044L24.2788,45.9258z" stroke-width="0"/> </g> <g id="ICONS_00000031165542127692736420000002692518830807990202_"> <path d="M47.7212,2.5386l-2.6675-1.4917c-0.2402-0.1338-0.5454-0.0488-0.6797,0.1914L36.4313,15.358 c-0.0005,0.001-0.0015,0.0014-0.0021,0.0024c-0.0005,0.0009-0.0004,0.002-0.0009,0.0029L22.8682,39.4688 c-2.749,4.2471-8.897,2.7871-15.4043,1.2451c-0.6196-0.1475-1.2397-0.2949-1.8574-0.4365 c-1.5962-0.3691-2.9805,0.5381-3.4399,2.252c-0.4854,1.8105,0.2236,4.1113,2.4941,4.8076 c2.8071,0.8623,6.7578,1.6758,10.4561,1.6758c3.9419,0,7.5977-0.9248,9.2729-3.7031c0.0029-0.0039,0.0054-0.0088,0.0083-0.0137 L47.9136,3.2192C48.0483,2.978,47.9619,2.6733,47.7212,2.5386z M3.1323,42.7881c0.2178-0.8115,0.791-1.5928,1.7739-1.5928 c0.1489,0,0.3081,0.0176,0.4766,0.0566c0.1477,0.034,0.2965,0.0699,0.4445,0.1044l-0.2471,5.2052 C5.3716,46.5014,5.16,46.445,4.9541,46.3818C3.2827,45.8682,2.7681,44.1465,3.1323,42.7881z M6.5685,46.8355l0.249-5.2466 c0.1387,0.0328,0.2767,0.0647,0.4153,0.0976c3.1417,0.7455,6.3303,1.4951,9.1504,1.5477l-1.3712,4.7744 C12.3286,48.0081,9.3711,47.5662,6.5685,46.8355z M23.5288,44.8008c-1.2661,2.0904-4.0828,3.0338-7.4713,3.1892l1.3706-4.7724 c2.6171-0.1311,4.8448-0.9892,6.2955-3.2322l13.3333-23.7009l1.8355,1.0265L23.5288,44.8008z M39.3804,16.4377l-1.8331-1.0251 L45.001,2.1631l1.7959,1.0044L39.3804,16.4377z" stroke-width="0"/> </g> <g id="Margin" class="st1"> <rect x="1" y="1" class="st2" /> </g> <g id="Guides" class="st1"> </g> <g id="LABELS"> <g> <g> <g> <g> <g> <g> <g> </g> </g> </g> </g> </g> </g> </g> </g> </svg> 