<?xml version="1.0" encoding="UTF-8"?><svg width="70" height="70" xmlns="http://www.w3.org/2000/svg" viewBox="-10 -10 70 70"><rect x="-10" y="-10" width="70" height="70" fill="white"/><g id="uuid-b4d17e1b-06d9-488b-a48b-fbf17a8ef517"><path d="M41.04,39.44c-.5,.17-1.99,.61-3.74,.35-2.2-.33-4.5-1.74-5.95-3.78-1.22-1.46-1.95-3.33-1.95-5.37,0-4.63,3.77-8.39,8.39-8.39,1.17,0,2.28,.24,3.3,.68,.56,.09,1.41,.29,2.33,.79,.97,.53,1.63,1.17,2.01,1.61,0-4.2-.02-8.39-.03-12.59l-9.83-.03c-.12-.1-.29-.23-.53-.33-.12-.05-.23-.08-.33-.1v-.56h-.5V3.48H8.96V45.11h-3.62c.1,.83,.43,1.61,.99,2.28,.85,1.04,2.09,1.63,3.4,1.63h31.66c.45-.05,.92-.15,1.36-.32,.65-.25,1.23-.65,1.68-1.15,.22-.24,.52-.62,.74-1.14,.18-.42,.27-.87,.27-1.32,0-3.01,0-6.02,0-9.02-.45,.66-1.83,2.51-4.39,3.36ZM25.77,14.87c0,.28-.22,.5-.5,.5h-3.73v3.73c0,.28-.22,.5-.5,.5h-4.31c-.28,0-.5-.22-.5-.5v-3.73h-3.73c-.28,0-.5-.22-.5-.5v-4.31c0-.28,.22-.5,.5-.5h3.73v-3.73c0-.28,.22-.5,.5-.5h4.31c.28,0,.5,.22,.5,.5v3.73h3.73c.28,0,.5,.22,.5,.5v4.31Z" fill="#ffcd00" stroke-width="0"/><path d="M47.19,30.63c0-2.32-.85-4.45-2.26-6.09V12.19s0-.04-.01-.06c0-.02,0-.04-.01-.06-.02-.08-.06-.16-.12-.23L34.07,1.12c-.06-.06-.14-.1-.23-.12-.02,0-.04,0-.06-.01-.02,0-.04-.01-.07-.01H6.96c-.28,0-.5,.22-.5,.5V42.61H3.31c-.28,0-.5,.22-.5,.5,0,1.25,.43,2.43,1.25,3.42,1.04,1.27,2.56,1.99,4.17,1.99h31.29s.04-.01,.06-.01h.34c.58-.04,1.15-.17,1.69-.38,.79-.31,1.5-.79,2.06-1.4,.39-.42,.7-.9,.92-1.43,.23-.55,.34-1.12,.34-1.7v-6.88c1.4-1.64,2.26-3.77,2.26-6.09Zm-3.52,14.29c-.22,.52-.52,.91-.74,1.14-.45,.5-1.04,.9-1.68,1.15-.44,.17-.91,.28-1.36,.31h-.47c-1.27-.03-2.46-.61-3.29-1.62-.67-.81-1.02-1.77-1.02-2.78,0-.28-.22-.5-.5-.5H7.46V1.98h25.76V12.19c0,.28,.22,.5,.5,.5h10.21v10.84c-1.65-1.43-3.79-2.3-6.14-2.3-5.18,0-9.39,4.21-9.39,9.39s4.21,9.39,9.39,9.39c2.35,0,4.49-.87,6.14-2.3v5.87c0,.45-.09,.89-.27,1.32Zm-9.54-1.3c.1,1.06,.52,2.06,1.22,2.92,.31,.38,.67,.71,1.06,.99H8.23c-1.31,0-2.55-.59-3.4-1.63-.55-.68-.89-1.46-.99-2.28h30.29Zm3.67-4.59c-4.63,0-8.39-3.77-8.39-8.39s3.77-8.39,8.39-8.39,8.39,3.77,8.39,8.39-3.77,8.39-8.39,8.39Zm5.43-27.33h-9V2.68l9,9Z" stroke-width="0"/><path d="M38.16,29.81c-1.05-.31-1.43-.46-1.43-1.02,0-.52,.33-.83,1-.83,.37,0,.63,.09,.81,.25,.3,.27,.34,.63,.34,.72,.22,0,.58,0,.8,0,.17,0,.52,0,.69,0-.08-1.06-.68-1.91-2.07-2.09v-1.11h-1v1.1c-1.2,.14-2.08,.87-2.08,2.1,0,1.07,.59,1.69,2.31,2.17,1.08,.31,1.48,.58,1.48,1.26,0,.53-.3,.89-1.14,.89-.79,0-1.23-.44-1.34-1.12h-1.5c.08,1.31,.93,2.1,2.26,2.26v1.1h1v-1.1c1.59-.16,2.26-1.11,2.26-2.21s-.5-1.83-2.4-2.38Z" stroke-width="0"/><path d="M26.19,23.86H12.97c-.28,0-.5,.22-.5,.5s.22,.5,.5,.5h13.22c.28,0,.5-.22,.5-.5s-.22-.5-.5-.5Z" stroke-width="0"/><path d="M12.93,31.36h11.9c.28,0,.5-.22,.5-.5s-.22-.5-.5-.5H12.93c-.28,0-.5,.22-.5,.5s.22,.5,.5,.5Z" stroke-width="0"/><path d="M38.29,25.74h-1v1.1c-1.2,.14-2.08,.87-2.08,2.1,0,1.07,.59,1.69,2.31,2.17,1.08,.31,1.48,.58,1.48,1.26,0,.53-.3,.89-1.14,.89-.79,0-1.23-.44-1.34-1.12h-1.5c.08,1.31,.93,2.1,2.26,2.26v1.1h1v-1.1c1.59-.16,2.26-1.11,2.26-2.21s-.5-1.83-2.4-2.38c-1.05-.31-1.43-.46-1.43-1.02,0-.52,.33-.83,1-.83,.37,0,.63,.09,.81,.25,.3,.27,.34,.63,.34,.72,.22,0,.58,0,.8,0,.17,0,.52,0,.69,0-.08-1.06-.68-1.91-2.07-2.09v-1.11Z" fill="none" stroke-width="0"/><path d="M25.69,36.85H12.47c-.28,0-.5,.22-.5,.5s.22,.5,.5,.5h13.22c.28,0,.5-.22,.5-.5s-.22-.5-.5-.5Z" stroke-width="0"/><path d="M25.27,10.06h-3.73v-3.73c0-.28-.22-.5-.5-.5h-4.31c-.28,0-.5,.22-.5,.5v3.73h-3.73c-.28,0-.5,.22-.5,.5v4.31c0,.28,.22,.5,.5,.5h3.73v3.73c0,.28,.22,.5,.5,.5h4.31c.28,0,.5-.22,.5-.5v-3.73h3.73c.28,0,.5-.22,.5-.5v-4.31c0-.28-.22-.5-.5-.5Zm-.5,4.31h-3.73c-.28,0-.5,.22-.5,.5v3.73h-3.31v-3.73c0-.28-.22-.5-.5-.5h-3.73v-3.31h3.73c.28,0,.5-.22,.5-.5v-3.73h3.31v3.73c0,.28,.22,.5,.5,.5h3.73v3.31Z" stroke-width="0"/></g><g id="uuid-8bebc20b-6390-4bef-aaec-d92c08584305"></g></svg>