<?xml version="1.0" encoding="UTF-8"?><svg width="70" height="70" xmlns="http://www.w3.org/2000/svg" viewBox="-10 -10 70 70"><rect x="-10" y="-10" width="70" height="70" fill="white"/><g id="uuid-460892a1-bd39-46bf-a85c-fcd1d6ededf7"><g><path d="M23.54,22.04c.41,.43,1.76,2.05,1.66,4.49-.07,1.48-.69,2.94-1.72,4.02-3.53,4.01-5.59,8.04-6.13,11.99h18.07c-.54-3.95-2.6-7.98-6.14-12-1.02-1.06-1.64-2.53-1.71-4.01-.1-2.38,1.17-3.98,1.72-4.56,.67-.75,1.3-1.52,1.88-2.29h-9.56c.59,.79,1.24,1.58,1.94,2.36Z" fill="#ffcd00" stroke-width="0"/><polygon points="12.36 46.04 12.36 49.15 40.39 49.15 40.39 46.04 38.53 46.04 14.22 46.04 12.36 46.04" fill="#ffcd00"/><polygon points="12.36 6.71 14.22 6.71 38.53 6.71 40.39 6.71 40.39 3.6 12.36 3.6 12.36 6.71" fill="#ffcd00"/><path d="M39.64,5.46V1.35c0-.28-.22-.5-.5-.5H10.11c-.28,0-.5,.22-.5,.5V5.46c0,.28,.22,.5,.5,.5h1.84s0,.05,0,.08c-.1,5.55,2.34,11.13,7.24,16.6,.19,.2,.8,.93,.75,1.99-.04,.93-.56,1.56-.8,1.8-4.88,5.52-7.29,11.17-7.19,16.78,0,.03,0,.05,0,.08h-1.84c-.28,0-.5,.22-.5,.5v4.11c0,.28,.22,.5,.5,.5h29.02c.28,0,.5-.22,.5-.5v-4.11c0-.28-.22-.5-.5-.5h-1.84s0-.05,0-.08c.1-5.61-2.32-11.26-7.21-16.8-.22-.22-.74-.85-.78-1.78h0c-.05-1.07,.56-1.79,.76-2,4.9-5.46,7.33-11.04,7.23-16.59,0-.03,0-.05,0-.08h1.84c.28,0,.5-.22,.5-.5Zm-1,38.83v3.11H10.61v-3.11h28.02Zm-9.3-22.34c-.26,.27-1.09,1.26-1.03,2.72,.06,1.28,.77,2.13,1.05,2.42,4.7,5.33,7.04,10.75,6.95,16.1,0,.03,0,.07,0,.1H12.95s0-.06,0-.1c-.1-5.35,2.24-10.77,6.93-16.08,.3-.31,1.01-1.16,1.07-2.44,.06-1.41-.7-2.37-1.02-2.71-4.72-5.26-7.07-10.61-6.98-15.91,0-.03,0-.06,0-.1h23.34s0,.06,0,.1c.09,5.29-2.26,10.64-6.97,15.89ZM38.64,4.96H10.61V1.85h28.02v3.11Z" stroke-width="0"/><path d="M30.39,16.93h-11.52c-.19,0-.36,.1-.44,.27-.09,.17-.07,.36,.03,.52,.76,1.08,1.63,2.17,2.6,3.25,.35,.37,1.48,1.72,1.39,3.77-.05,1.24-.58,2.47-1.46,3.39-3.84,4.37-6.02,8.78-6.45,13.11-.01,.14,.03,.28,.13,.38,.09,.11,.23,.17,.37,.17h19.19c.14,0,.28-.06,.37-.17,.09-.1,.14-.24,.13-.38-.44-4.33-2.61-8.75-6.47-13.13-.87-.91-1.39-2.13-1.45-3.37-.09-2,.98-3.34,1.45-3.83,.94-1.05,1.79-2.12,2.54-3.18,.11-.15,.12-.35,.03-.52-.09-.17-.26-.27-.44-.27Zm-2.86,3.29c-.55,.58-1.82,2.18-1.72,4.56,.07,1.48,.69,2.94,1.71,4.01,3.54,4.02,5.6,8.06,6.14,12H15.59c.54-3.95,2.6-7.98,6.13-11.99,1.03-1.08,1.66-2.54,1.72-4.02,.1-2.44-1.25-4.06-1.66-4.49-.7-.78-1.35-1.57-1.94-2.36h9.56c-.58,.77-1.21,1.54-1.88,2.29Z" stroke-width="0"/></g></g><g id="uuid-929f9b90-596c-4673-a62f-9c06a691a0a2"></g></svg>