<?xml version="1.0" encoding="UTF-8"?><svg width="70" height="70" xmlns="http://www.w3.org/2000/svg" viewBox="-10 -10 70 70"><rect x="-10" y="-10" width="70" height="70" fill="white"/><g id="uuid-c1418cef-b6c9-4a5a-b6fc-b3dad81dce5c"><polygon points="45.26 40.36 42.2 43.44 32.82 34.05 34.36 32.52 36.07 31.18 45.26 40.36" fill="#ffcd00"/><path d="M30.22,32.31c1.54-1.06,2.87-2.4,3.92-3.94l2.41,2.42-.08.08-1.88,1.88-1.97,1.97-2.4-2.41Z" fill="#ffcd00" stroke-width="0"/><path d="M10.94,13.28c2.5-3.82,6.81-6.35,11.71-6.35s9.2,2.53,11.71,6.35c.19.29.37.59.54.9.81,1.46,1.35,3.08,1.59,4.79.05.36.09.72.11,1.08l.03.54c0,.11.02.23.02.34,0,.22-.03.44-.04.66-.08,1.65-.43,3.23-1.03,4.68-.14.34-.3.68-.47,1-.07.15-.15.3-.23.44-.16.3-.34.59-.53.88-.71,1.07-1.56,2.04-2.52,2.88-.44.39-.9.75-1.38,1.08-.14.09-.29.17-.44.26s-.29.19-.44.27c-2.05,1.17-4.41,1.85-6.92,1.85-2.71,0-5.23-.78-7.37-2.12-.64-.4-1.25-.84-1.82-1.34-1.34-1.17-2.46-2.59-3.28-4.2-.17-.32-.33-.66-.47-1-.6-1.45-.95-3.03-1.03-4.68-.01-.22-.03-.44-.03-.66,0-.11.01-.23.01-.34l.03-.54c.02-.36.06-.72.11-1.08.24-1.71.78-3.33,1.59-4.79.17-.31.35-.61.55-.9ZM11.9,15.61c-.48.98-.84,2.03-1.05,3.13-.11.61-.17,1.24-.19,1.87,0,.11-.01.21-.01.31,0,.24.02.47.03.7.1,1.66.53,3.23,1.24,4.64.17.35.36.68.56,1,.32.51.67,1,1.06,1.46.29.33.6.65.92.95.93.87,1.99,1.59,3.16,2.13,1.07.5,2.23.84,3.44,1,.52.07,1.05.12,1.59.12s1.06-.05,1.58-.12c1.21-.16,2.37-.5,3.44-1,1.17-.54,2.23-1.26,3.16-2.13.32-.3.63-.62.92-.95.2-.23.38-.46.56-.71.17-.24.34-.49.5-.75.21-.32.39-.65.57-1,.7-1.41,1.13-2.98,1.23-4.64.01-.24.04-.47.04-.7,0-.1-.02-.21-.02-.31-.02-.64-.08-1.26-.19-1.87-.21-1.1-.56-2.15-1.05-3.13-1.97-3.96-6.04-6.69-10.74-6.69s-8.78,2.73-10.75,6.69Z" fill="#ffcd00" stroke-width="0"/><path d="M14.61,30.66v-2.25c.49-1.95,2.19-3.43,4.26-3.53h7.52c2.1.1,3.8,1.58,4.29,3.53v2.05l-4.85,2.62s-2.62.34-2.72.34h-2.66l-5.84-2.76Z" fill="#ffcd00" stroke-width="0"/></g><g id="uuid-01f9e3a5-dd73-4cb1-9230-a652ba783071"><path d="M16.98,16.64c0-3.13,2.54-5.67,5.67-5.67s5.66,2.54,5.66,5.67c0,1.66-.74,3.24-2.01,4.32-1.02.86-2.32,1.34-3.65,1.34s-2.64-.48-3.66-1.34c-1.27-1.08-2.01-2.66-2.01-4.32ZM27.31,16.64c0-2.57-2.09-4.67-4.66-4.67s-4.67,2.1-4.67,4.67c0,1.37.61,2.67,1.66,3.56,1.68,1.42,4.33,1.42,6.01,0,1.05-.89,1.66-2.19,1.66-3.56Z" stroke-width="0"/><path d="M18.87,23.8c-2.07.1-3.77,1.58-4.26,3.53,1.69,1.8,3.96,3.04,6.52,3.39.5.07,1,.12,1.52.12s1.02-.05,1.51-.12c2.56-.35,4.83-1.59,6.52-3.39-.49-1.95-2.19-3.43-4.29-3.53h-7.52ZM14.46,25.26c.97-1.41,2.55-2.37,4.39-2.46h7.57c1.85.09,3.44,1.05,4.41,2.46.2.29.37.6.51.92.04.08.07.16.1.24l.18-.24c.23-.32.44-.65.63-1,.37-.65.67-1.35.89-2.07.23-.73.39-1.49.46-2.27.03-.33.05-.66.05-1,0-.03-.01-.06-.01-.09-.05-6.02-4.96-10.91-10.99-10.91s-10.95,4.89-11,10.92v.08c0,.34.02.67.05,1,.14,1.57.61,3.04,1.34,4.34.19.35.41.68.63,1l.18.24c.03-.08.07-.16.1-.24.14-.32.31-.63.51-.92ZM10.85,17.66c.21-1.1.57-2.15,1.05-3.13,1.97-3.96,6.04-6.69,10.75-6.69s8.77,2.73,10.74,6.69c.49.98.84,2.03,1.05,3.13.11.61.17,1.23.19,1.87,0,.1.02.21.02.31,0,.23-.03.46-.04.7-.1,1.66-.53,3.23-1.23,4.64-.18.35-.36.68-.57,1-.16.26-.33.51-.5.75-.18.25-.36.48-.56.71-.29.33-.6.65-.92.95-.93.87-1.99,1.59-3.16,2.13-1.07.5-2.23.84-3.44,1-.52.07-1.05.12-1.58.12s-1.07-.05-1.59-.12c-1.21-.16-2.37-.5-3.44-1-1.17-.54-2.23-1.26-3.16-2.13-.32-.3-.63-.62-.92-.95-.39-.46-.74-.95-1.06-1.46-.2-.32-.39-.65-.56-1-.71-1.41-1.14-2.98-1.24-4.64-.01-.23-.03-.46-.03-.7,0-.1.01-.2.01-.31.02-.63.08-1.26.19-1.87Z" stroke-width="0"/><path d="M43.28,25.18v-1.48c0-1.71-1.34-3.11-3.05-3.2h-2.62c-.07,1.64-.4,3.22-.96,4.68h6.63ZM35.62,12.35c1,1.72,1.66,3.65,1.91,5.71.75,0,1.5-.24,2.09-.73.72-.61,1.13-1.5,1.13-2.45,0-1.76-1.43-3.2-3.2-3.2-.73,0-1.39.26-1.93.67ZM35.08,28.23c-1.05,1.54-2.38,2.88-3.92,3.94l1.46,1.47,1.97-1.97,1.88-1.88.08-.08-1.47-1.48ZM35.3,32.38l-1.54,1.53,8.44,8.44,3.06-3.07-8.43-8.43-1.53,1.53ZM22.65,5.84c-4.9,0-9.21,2.53-11.71,6.35-.2.29-.38.59-.55.9-.81,1.46-1.35,3.08-1.59,4.79-.05.36-.09.72-.11,1.08l-.03.54c0,.11-.01.23-.01.34,0,.22.02.44.03.66.08,1.65.43,3.23,1.03,4.68.14.34.3.68.47,1,.82,1.61,1.94,3.03,3.28,4.2.57.5,1.18.94,1.82,1.34,2.14,1.34,4.66,2.12,7.37,2.12,2.51,0,4.87-.68,6.92-1.85.15-.08.29-.18.44-.27s.3-.17.44-.26c.48-.33.94-.69,1.38-1.08.96-.84,1.81-1.81,2.52-2.88.19-.29.37-.58.53-.88.08-.14.16-.29.23-.44.17-.32.33-.66.47-1,.6-1.45.95-3.03,1.03-4.68.01-.22.04-.44.04-.66,0-.11-.02-.23-.02-.34l-.03-.54c-.02-.36-.06-.72-.11-1.08-.24-1.71-.78-3.33-1.59-4.79-.17-.31-.35-.61-.54-.9-2.51-3.82-6.82-6.35-11.71-6.35ZM7.68,20.5h-2.65c-1.68.08-3.02,1.49-3.02,3.2v1.48h6.64c-.56-1.46-.9-3.04-.97-4.68ZM7.68,19.08c-.97,0-1.91-.36-2.65-.99-.95-.8-1.49-1.97-1.49-3.21,0-2.31,1.88-4.2,4.2-4.2.92,0,1.76.31,2.45.81,2.7-4.01,7.27-6.65,12.46-6.65s9.75,2.64,12.45,6.65c.69-.5,1.53-.81,2.45-.81,2.32,0,4.2,1.89,4.2,4.2,0,1.24-.54,2.41-1.49,3.21-.74.63-1.68.98-2.65.99,0,.14.02.28.02.42h2.63c2.26.11,4.02,1.96,4.02,4.2v1.98c0,.28-.23.5-.5.5h-7.56c-.19.4-.39.79-.61,1.17l2,2c.2.2.2.51,0,.71l-.07.08,8.78,8.79c.1.09.15.22.15.35s-.05.26-.15.35l-3.77,3.78c-.1.1-.22.14-.35.14s-.26-.04-.36-.14l-8.78-8.79-.08.08c-.1.09-.22.14-.36.14-.13,0-.26-.05-.35-.14l-1.98-1.98c-2.24,1.34-4.85,2.12-7.64,2.12-6.01,0-11.18-3.55-13.58-8.66H1.51c-.27,0-.5-.22-.5-.5v-1.98c0-2.24,1.76-4.09,4-4.2h2.65c.01-.14.02-.28.02-.42ZM9.67,12.35c-.54-.41-1.2-.67-1.93-.67-1.77,0-3.2,1.44-3.2,3.2,0,.95.41,1.84,1.14,2.45.58.49,1.33.73,2.08.73.25-2.06.91-3.99,1.91-5.71Z" stroke-width="0"/></g></svg>