<?xml version="1.0" encoding="UTF-8"?><svg width="70" height="70" xmlns="http://www.w3.org/2000/svg" viewBox="-10 -10 70 70"><rect x="-10" y="-10" width="70" height="70" fill="white"/><g id="uuid-6dea1ca3-21a5-4a78-a9d5-ededcb6e6cf7"><path d="M38.91,22.75l-1-1-1.18-1.17-2.14-2.14.24-.24v-.1l-.69-.69c-.08.11-.17.22-.25.33l-.14-.14c.29-.39.56-.79.78-1.22.4-.77.7-1.61.87-2.49.12-.57.18-1.17.18-1.78s-.06-1.21-.18-1.78c-.27-1.41-.88-2.7-1.72-3.8-.27-.35-.56-.69-.87-1-.45-.44-.95-.83-1.48-1.17-.64-.42-1.34-.76-2.09-1-.9-.3-1.87-.47-2.87-.47s-1.97.17-2.88.47c-.74.24-1.45.58-2.09,1-.53.34-1.03.73-1.48,1.17-.31.31-.6.65-.87,1-1.19,1.55-1.9,3.48-1.9,5.58,0,2.64,1.12,5.01,2.9,6.69.59.56,1.25,1.05,1.98,1.44,1.29.69,2.77,1.09,4.34,1.09s3.04-.4,4.33-1.09c.01-.01.03-.01.04-.02.42-.23.82-.5,1.2-.79l.14.14c-.11.08-.21.17-.33.25l.73.73.29-.29,2.96,2.97,1,1,1.18,1.17,1,1,7.4,7.4,1.82-1.82-9.22-9.23ZM26.87,19.66c-.35.04-.71.08-1.07.08s-.72-.04-1.07-.08c-1.08-.14-2.08-.49-2.98-1-.46-.26-.88-.56-1.27-.89-.35-.3-.66-.61-.95-.96-1.21-1.43-1.94-3.27-1.94-5.28,0-2.16.84-4.11,2.21-5.58.34-.37.71-.7,1.11-1,.67-.5,1.41-.89,2.22-1.17.83-.29,1.73-.46,2.67-.46s1.83.17,2.67.46c.8.28,1.54.67,2.21,1.17.4.3.77.63,1.12,1,1.36,1.47,2.2,3.42,2.2,5.58,0,1.91-.66,3.66-1.76,5.06-.05.07-.11.15-.17.22-.12.14-.24.27-.36.4-.34-1.19-1.39-2.07-2.68-2.13h-5.03c-1.28.06-2.34.96-2.67,2.16,1.09,1.14,2.55,1.92,4.19,2.15.33.04.66.08,1.01.08s.67-.04,1-.08c1.02-.14,1.95-.52,2.79-1.04-.16.1-.3.22-.46.31-.91.51-1.91.86-2.98,1Z" fill="#ffcd00" stroke-width="0"/></g><g id="uuid-5cb51517-4ed5-4771-a76d-03364a386ba3"><path d="M34.07,25.2h-16.69c-.27,0-.5.22-.5.5s.23.5.5.5h16.69c.28,0,.5-.23.5-.5s-.22-.5-.5-.5Z" stroke-width="0"/><path d="M34.07,28.45h-16.69c-.27,0-.5.22-.5.5s.23.5.5.5h16.69c.28,0,.5-.22.5-.5s-.22-.5-.5-.5Z" stroke-width="0"/><path d="M34.07,31.71h-16.69c-.27,0-.5.22-.5.5s.23.5.5.5h16.69c.28,0,.5-.23.5-.5s-.22-.5-.5-.5Z" stroke-width="0"/><path d="M34.07,35.1h-16.69c-.27,0-.5.23-.5.5s.23.5.5.5h16.69c.28,0,.5-.22.5-.5s-.22-.5-.5-.5Z" stroke-width="0"/><path d="M34.07,38.36h-16.69c-.27,0-.5.22-.5.5s.23.5.5.5h16.69c.28,0,.5-.22.5-.5s-.22-.5-.5-.5Z" stroke-width="0"/><path d="M34.07,41.61h-16.69c-.27,0-.5.23-.5.5s.23.5.5.5h16.69c.28,0,.5-.22.5-.5s-.22-.5-.5-.5Z" stroke-width="0"/><path d="M25.8,12.51c.83,0,1.64-.3,2.28-.84.8-.67,1.26-1.66,1.26-2.7,0-1.28-.69-2.4-1.71-3.02-.54-.33-1.16-.52-1.83-.52s-1.3.19-1.84.52c-1.02.62-1.71,1.74-1.71,3.02,0,1.04.46,2.03,1.26,2.7.64.54,1.45.84,2.29.84ZM25.8,6.43c1.4,0,2.54,1.14,2.54,2.54,0,.75-.33,1.45-.91,1.94-.91.77-2.36.77-3.27,0-.58-.49-.91-1.19-.91-1.94,0-1.4,1.14-2.54,2.55-2.54Z" stroke-width="0"/><path d="M19.53,16.82c.29.35.6.66.95.96.39.33.81.63,1.27.89.9.51,1.9.86,2.98,1,.35.04.7.08,1.07.08s.72-.04,1.07-.08c1.07-.14,2.07-.49,2.98-1,.35-.2.69-.43,1-.68.09-.07.18-.14.26-.21.35-.3.67-.61.96-.96.06-.07.12-.15.17-.22,1.1-1.4,1.76-3.15,1.76-5.06,0-2.16-.84-4.11-2.2-5.58-.35-.37-.72-.7-1.12-1-.67-.5-1.41-.89-2.21-1.17-.84-.29-1.74-.46-2.67-.46s-1.84.17-2.67.46c-.81.28-1.55.67-2.22,1.17-.4.3-.77.63-1.11,1-1.37,1.47-2.21,3.42-2.21,5.58,0,2.01.73,3.85,1.94,5.28ZM26.8,18.66c-.33.04-.66.08-1,.08s-.68-.04-1.01-.08c-1.64-.23-3.1-1.01-4.19-2.15.33-1.2,1.39-2.1,2.67-2.16h5.03c1.3.06,2.36.96,2.69,2.16-1.09,1.14-2.55,1.92-4.19,2.15ZM21.24,5.95c.5-.4,1.04-.74,1.63-1,.9-.4,1.88-.63,2.93-.63s2.03.23,2.92.63c.59.26,1.14.6,1.63,1,1.62,1.32,2.65,3.33,2.65,5.58,0,1.52-.47,2.93-1.28,4.09-.6-1.28-1.87-2.2-3.4-2.27h-5.08c-1.5.07-2.77.99-3.37,2.27-.81-1.17-1.28-2.57-1.28-4.09,0-2.25,1.04-4.26,2.65-5.58Z" stroke-width="0"/><path d="M14.17,25.2h-5.7c-.28,0-.5.22-.5.5s.22.5.5.5h5.7c.28,0,.5-.23.5-.5s-.22-.5-.5-.5Z" stroke-width="0"/><path d="M14.17,35.1h-5.7c-.28,0-.5.23-.5.5s.22.5.5.5h5.7c.28,0,.5-.22.5-.5s-.22-.5-.5-.5Z" stroke-width="0"/><path d="M38.01,20.43V3.28c0-.28-.23-.5-.5-.5h-6.47c-1.53-.92-3.33-1.47-5.24-1.47s-3.71.55-5.25,1.47h-6.84s-.04.01-.06.01c-.03.01-.04.01-.06.01-.09.03-.17.06-.23.13l-2.03,2.02H2.87c-.28,0-.5.22-.5.5v42.73c0,.28.22.5.5.5h32.46c.28,0,.5-.22.5-.5v-1.67h1.68c.27,0,.5-.22.5-.5v-19.11l7.05,7.05c.1.1.22.15.35.15s.26-.05.35-.15l2.53-2.53c.2-.19.2-.51,0-.7l-10.28-10.29ZM37.01,3.78v15.65l-1.02-1.01c.14-.2.12-.46-.05-.63l-.11-.11-1-1-.14-.14c.05-.09.1-.18.14-.26.48-.9.82-1.87,1-2.9.12-.6.18-1.22.18-1.85s-.06-1.25-.18-1.85c-.18-1.03-.52-2-1-2.9-.15-.28-.31-.56-.49-.83-.23-.35-.47-.68-.74-1-.36-.42-.75-.81-1.17-1.17h4.58ZM34.83,18.09v.1l-2.35,2.35-.73-.73c.93-.66,1.74-1.48,2.39-2.41l.69.69ZM20.83,3.78c.64-.42,1.35-.76,2.09-1,.91-.3,1.87-.47,2.88-.47s1.97.17,2.87.47c.75.24,1.45.58,2.09,1,.53.34,1.03.73,1.48,1.17.31.31.6.65.87,1,.84,1.1,1.45,2.39,1.72,3.8.12.57.18,1.17.18,1.78s-.06,1.21-.18,1.78c-.17.88-.47,1.72-.87,2.49-.26.5-.57.96-.91,1.4-.29.36-.6.7-.94,1.02-.2.2-.42.38-.64.56-.41.32-.84.61-1.3.86-.01.01-.03.01-.04.02-1.29.69-2.77,1.09-4.33,1.09s-3.05-.4-4.34-1.09c-.73-.39-1.39-.88-1.98-1.44-1.78-1.68-2.9-4.05-2.9-6.69,0-2.1.71-4.03,1.9-5.58.27-.35.56-.69.87-1,.45-.44.95-.83,1.48-1.17ZM11.75,5.95l1-1,.46-.46v6.96h-6.97l5.51-5.5ZM34.83,47.68H3.37V5.95h6.96l-5.65,5.65c-.06.06-.1.14-.12.23,0,.02,0,.04,0,.06s-.01.04-.01.06v34.06c0,.28.22.5.5.5h29.79v1.17ZM37.01,45.51H5.54V12.45h8.17c.28,0,.5-.22.5-.5V3.78h4.95c-.42.36-.81.75-1.17,1.17-.27.32-.51.65-.74,1-1.05,1.61-1.67,3.52-1.67,5.58,0,5.63,4.58,10.22,10.22,10.22,1.85,0,3.59-.51,5.09-1.38l1.24,1.23c.09.1.22.15.35.15.1,0,.2-.04.28-.1l2.07,2.08,1,1,1.18,1.17v19.61ZM45.41,32.89l-7.4-7.4-1-1-1.18-1.17-1-1-1.35-1.36,1.35-1.36.47-.46.53.53,1.18,1.17,1,1,9.22,9.23-1.82,1.82Z" stroke-width="0"/></g></svg>