<?xml version="1.0" encoding="UTF-8"?><svg width="70" height="70" id="uuid-d58a4bd5-31d4-4c4d-b03c-c50912377ff7" xmlns="http://www.w3.org/2000/svg" viewBox="-10 -10 70 70"><rect x="-10" y="-10" width="70" height="70" fill="white"/><g><path d="M48.94,44.84c.23,.19,.37,.43,.37,.7,0,.64-.8,1.18-1.75,1.18-.37,0-.73-.08-1.01-.22,1.17-.1,2.13-.77,2.39-1.66Z" fill="#ffcd00" stroke-width="0"/><path d="M47.56,44.37c.16,0,.31,.01,.45,.04-.06,.61-.83,1.1-1.74,1.1-.16,0-.31-.01-.45-.04,.05-.61,.83-1.1,1.74-1.1Z" fill="#ffcd00" stroke-width="0"/><path d="M45.62,39.44c0,1.27-1.46,2.3-3.26,2.3-.48,0-.93-.07-1.34-.21h.05c2.25,0,4.09-1.35,4.25-3.06,.19,.29,.3,.62,.3,.97Z" fill="#ffcd00" stroke-width="0"/><path d="M44.17,37.52c.1,.22,.16,.46,.16,.71,0,1.27-1.46,2.3-3.26,2.3-.67,0-1.3-.14-1.82-.39h-.01c-.1-.22-.15-.46-.15-.7,0-1.27,1.47-2.3,3.27-2.3,.67,0,1.3,.14,1.81,.38Z" fill="#ffcd00" stroke-width="0"/><path d="M41.15,26.67c2.44-1.44,3.91-3.88,3.91-6.49,0-.25-.01-.5-.04-.75,.15,.42,.25,.86,.3,1.32,.27,2.61-1.18,5.12-3.74,6.46-.12-.19-.27-.37-.43-.54Z" fill="#ffcd00" stroke-width="0"/><path d="M37.17,33.82c2.85-.3,5.02-2.3,5.05-4.54,.14,.26,.24,.55,.27,.89,.2,1.87-1.66,3.6-4.14,3.87-.77,.08-1.51,0-2.18-.2,.33,.02,.66,.01,1-.02Z" fill="#ffcd00" stroke-width="0"/><path d="M24.13,34.3c.48,0,.97-.03,1.46-.08,2.32-.24,4.52-1.05,6.4-2.36,.15,.19,.31,.37,.49,.53-1.68,1.13-3.64,1.84-5.7,2.05-1.39,.14-2.76,.06-4.06-.22,.47,.06,.94,.08,1.41,.08Z" fill="#ffcd00" stroke-width="0"/><path d="M28.79,13.48l1.52-1.52c.2-.2,.2-.51,0-.71s-.51-.19-.71,0l-1.51,1.52c-.2,.19-.2,.51,0,.71,.1,.09,.22,.14,.35,.14s.26-.05,.35-.14Zm1.75,3.74c.07,.22,.27,.36,.48,.36,.05,0,.1,0,.15-.03l2.06-.61c.26-.08,.41-.36,.33-.62-.07-.26-.35-.41-.62-.34l-2.06,.62c-.26,.08-.41,.35-.34,.62Zm-6.27-7.74c0-.27-.23-.5-.5-.5s-.5,.23-.5,.5v2.15c0,.28,.22,.5,.5,.5s.5-.22,.5-.5v-2.15Zm-7.05,1.77s-.05,.05-.06,.08l-1.42-.62c1.97-2.25,4.85-3.78,8.11-4.12,3.4-.36,6.62,.62,9.02,2.53,1.12,1.2,1.94,2.64,2.4,4.27,.07,.24,.3,.39,.54,.36l.16-.02,.3-.03c.1,.29,.2,.59,.29,.9,.07,.24,.3,.39,.54,.36l.16-.02c2.03-.21,3.95,.33,5.41,1.38,.75,.91,1.23,2.01,1.36,3.22,.28,2.69-1.27,5.27-3.96,6.58-.16,.07-.27,.22-.28,.4-.02,.17,.05,.34,.19,.44,.5,.39,1.12,1.04,1.22,2,.2,1.87-1.66,3.6-4.14,3.87-1.16,.12-2.28-.11-3.15-.6-.02-.04-.05-.08-.07-.12-.07-.12-.19-.21-.33-.24-.05-.01-.1-.01-.14-.01h-.01c-.33-.28-.61-.6-.81-.96-.07-.12-.19-.21-.33-.24-.15-.03-.29,0-.41,.09-1.82,1.38-4,2.24-6.32,2.48-1.44,.15-2.86,.06-4.2-.25l.53-2.56s.06,.01,.1,.01h3.7c.27,0,.5-.22,.5-.5s-.23-.5-.5-.5v-.9c.27,0,.5-.22,.5-.5s-.23-.5-.5-.5v-.94c.27,0,.5-.22,.5-.5v-1.09c0-.58,.26-1.11,.71-1.42,1.45-1.01,2.31-2.66,2.31-4.42,0-1.45-.56-2.81-1.6-3.83-1.03-1.02-2.39-1.57-3.85-1.55-1.21,.02-2.33,.46-3.23,1.17l-1.37-1.33c.13,0,.26-.05,.36-.14,.19-.2,.19-.52,0-.71l-1.52-1.52c-.19-.19-.51-.19-.71,0Z" fill="#ffcd00" stroke-width="0"/><path d="M17.01,17.07c0-.21-.14-.4-.36-.47l-2.06-.62c-.21-.06-.42,.03-.54,.19-.04,.05-.06,.09-.08,.15-.08,.26,.07,.54,.34,.62l2.06,.61s.09,.03,.14,.03c.22,0,.42-.14,.48-.36,.01-.05,.02-.1,.02-.15Zm-5.52-1.19c.41-.04,.84-.05,1.31-.03h.04c.21,0,.42-.16,.47-.38,.41-1.79,1.25-3.4,2.43-4.76l1.42,.62c-.13,.2-.11,.45,.06,.63l1.52,1.52c.1,.09,.23,.14,.35,.14l1.37,1.33c-.7,.55-1.26,1.27-1.62,2.09-.28,.63-.44,1.31-.45,2.03-.03,1.78,.82,3.46,2.28,4.48,.47,.33,.75,.87,.75,1.45v1.09c0,.28,.22,.5,.5,.5h3.7v.94h-3.7c-.28,0-.5,.23-.5,.5s.22,.5,.5,.5h3.7v.9h-3.7c-.28,0-.5,.23-.5,.5,0,.21,.12,.39,.3,.46,.03,.01,.06,.03,.1,.03l-.53,2.56s-.07-.01-.11-.02c-1.74-.41-3.34-1.18-4.7-2.24-.01,0-.01-.02-.02,0-.5-.55-.95-1.15-1.33-1.8-.1-.16-.26-.24-.43-.24-.05,0-.11,0-.16,.02-.01,0-.03,.01-.04,.01-.23-.32-.46-.66-.66-1-.1-.16-.26-.24-.43-.24-.05,0-.11,0-.16,.02-.56,.18-1.12,.3-1.67,.36-2.04,.21-3.97-.34-5.43-1.41-.75-.9-1.23-1.99-1.35-3.19-.38-3.63,2.62-6.93,6.69-7.36Z" fill="#ffcd00" stroke-width="0"/><path d="M12.87,29.05c-.98,.1-1.92,.03-2.81-.19,.53,.04,1.08,.03,1.63-.03,.49-.05,.99-.15,1.49-.29,.09,.14,.19,.28,.29,.42-.2,.04-.4,.07-.6,.09Z" fill="#ffcd00" stroke-width="0"/></g><g><path d="M46.27,42.16c-1.52,0-2.75,.97-2.75,2.17s1.23,2.18,2.75,2.18c.09,0,.19,0,.28-.01,1.17-.1,2.13-.77,2.39-1.66,.05-.16,.08-.34,.08-.51,0-1.2-1.23-2.17-2.75-2.17Zm0,3.35c-.16,0-.31-.01-.45-.04-.74-.14-1.3-.61-1.3-1.14,0-.64,.8-1.17,1.75-1.17s1.75,.53,1.75,1.17c0,.03,0,.06-.01,.08-.06,.61-.83,1.1-1.74,1.1Z" stroke-width="0"/><path d="M45.32,38.47c.01-.08,.01-.16,.01-.24,0-1.82-1.91-3.3-4.26-3.3s-4.27,1.48-4.27,3.3,1.87,3.27,4.19,3.3h.08c2.25,0,4.09-1.35,4.25-3.06Zm-4.25,2.06c-.67,0-1.3-.14-1.82-.39h-.01c-.87-.42-1.44-1.12-1.44-1.91,0-1.27,1.47-2.3,3.27-2.3,1.45,0,2.67,.67,3.1,1.59,.1,.22,.16,.46,.16,.71,0,1.27-1.46,2.3-3.26,2.3Z" stroke-width="0"/><path d="M42.22,29.28c0-.14,0-.28-.02-.42-.07-.6-.27-1.15-.62-1.65-.12-.19-.27-.37-.43-.54,2.44-1.44,3.91-3.88,3.91-6.49,0-.25-.01-.5-.04-.75h0c-.44-4.1-4.4-7.07-8.91-6.72-1.77-5.49-7.43-8.98-13.65-8.32-5.5,.58-10,4.27-11.32,9.24-.36,0-.71,.01-1.05,.05-4.61,.48-8.02,4.28-7.58,8.45,.39,3.68,3.61,6.46,7.55,6.73,.53,.04,1.08,.03,1.63-.03,.49-.05,.99-.15,1.49-.29,.09,.14,.19,.28,.29,.42,2.09,2.98,5.49,4.89,9.25,5.26,.47,.06,.94,.08,1.41,.08s.97-.03,1.46-.08c2.32-.24,4.52-1.05,6.4-2.36,.15,.19,.31,.37,.49,.53,.92,.87,2.24,1.4,3.69,1.45,.33,.02,.66,.01,1-.02,2.85-.3,5.02-2.3,5.05-4.54Zm-8.31,2.95c-.2-.11-.38-.23-.54-.37h-.01c-.33-.28-.61-.6-.81-.96-.07-.12-.19-.21-.33-.24-.15-.03-.29,0-.41,.09-1.82,1.38-4,2.24-6.32,2.48-1.44,.15-2.86,.06-4.2-.25-.04,0-.07-.01-.11-.02-1.74-.41-3.34-1.18-4.7-2.24-.01-.01-.01-.02-.02-.01-.73-.6-1.39-1.27-1.96-2.01-.23-.32-.46-.66-.66-1-.1-.16-.26-.24-.43-.24-.05,0-.11,0-.16,.02-.56,.18-1.12,.3-1.67,.36-2.04,.21-3.97-.34-5.43-1.41-1.46-1.03-2.45-2.59-2.64-4.4-.38-3.63,2.62-6.93,6.69-7.36,.41-.04,.84-.05,1.31-.03h.04c.21,0,.42-.16,.47-.38,1.08-4.76,5.32-8.33,10.54-8.88,4.07-.43,7.88,1.05,10.31,3.74,1.12,1.2,1.94,2.64,2.4,4.27,.07,.24,.3,.39,.54,.36l.16-.02,.3-.03c2.6-.18,4.98,.87,6.4,2.62,.75,.91,1.23,2.01,1.36,3.22,.28,2.69-1.27,5.27-3.96,6.58-.16,.07-.27,.22-.28,.4-.02,.17,.05,.34,.19,.44,.5,.39,1.12,1.04,1.22,2,.2,1.87-1.66,3.6-4.14,3.87-1.16,.12-2.28-.11-3.15-.6Z" stroke-width="0"/><path d="M32.94,15.98l-2.06,.62c-.26,.08-.41,.35-.34,.62,.07,.22,.27,.36,.48,.36,.05,0,.1,0,.15-.03l2.06-.61c.26-.08,.41-.36,.33-.62-.07-.26-.35-.41-.62-.34Z" stroke-width="0"/><path d="M29.6,11.25l-1.51,1.52c-.2,.19-.2,.51,0,.71,.1,.09,.22,.14,.35,.14s.26-.05,.35-.14l1.52-1.52c.2-.2,.2-.51,0-.71s-.51-.19-.71,0Z" stroke-width="0"/><path d="M25.62,27.53h-3.7c-.28,0-.5,.23-.5,.5s.22,.5,.5,.5h3.7c.27,0,.5-.22,.5-.5s-.23-.5-.5-.5Z" stroke-width="0"/><path d="M25.62,29.43h-3.7c-.28,0-.5,.23-.5,.5,0,.21,.12,.39,.3,.46,.03,0,.06,.03,.1,.03,.03,.01,.06,.01,.1,.01h3.7c.27,0,.5-.22,.5-.5s-.23-.5-.5-.5Z" stroke-width="0"/><path d="M23.77,12.13c.27,0,.5-.22,.5-.5v-2.15c0-.27-.23-.5-.5-.5s-.5,.23-.5,.5v2.15c0,.28,.22,.5,.5,.5Z" stroke-width="0"/><path d="M19.09,13.62c.13,0,.26-.05,.36-.14,.19-.2,.19-.52,0-.71l-1.52-1.52c-.19-.19-.51-.19-.71,0-.02,.03-.05,.05-.06,.08-.13,.2-.11,.45,.06,.63l1.52,1.52c.1,.09,.23,.14,.35,.14Z" stroke-width="0"/><path d="M23.69,13.78c-1.21,.02-2.33,.46-3.23,1.17-.7,.55-1.26,1.27-1.62,2.09-.28,.63-.44,1.31-.45,2.03-.03,1.78,.82,3.46,2.28,4.48,.47,.33,.75,.87,.75,1.45v1.09c0,.28,.22,.5,.5,.5h3.7c.27,0,.5-.22,.5-.5v-1.09c0-.58,.26-1.11,.71-1.42,1.45-1.01,2.31-2.66,2.31-4.42,0-1.45-.56-2.81-1.6-3.83-1.03-1.02-2.39-1.57-3.85-1.55Zm2.57,8.97c-.72,.5-1.14,1.34-1.14,2.25v.59h-2.7v-.59c0-.9-.44-1.75-1.17-2.26-1.19-.84-1.88-2.21-1.86-3.65,.04-2.3,2.01-4.27,4.31-4.31,1.19-.02,2.3,.43,3.14,1.26,.84,.83,1.3,1.94,1.3,3.12,0,1.43-.7,2.78-1.88,3.59Z" stroke-width="0"/><path d="M16.65,16.6l-2.06-.62c-.21-.06-.42,.03-.54,.19-.04,.05-.06,.09-.08,.15-.08,.26,.07,.54,.34,.62l2.06,.61s.09,.03,.14,.03c.22,0,.42-.14,.48-.36,.01-.05,.02-.1,.02-.15,0-.21-.14-.4-.36-.47Z" stroke-width="0"/></g></svg>