<?xml version="1.0" encoding="UTF-8"?><svg width="70" height="70" id="uuid-be73ea72-eae7-45cd-81e7-5e6982d2fba0" xmlns="http://www.w3.org/2000/svg" viewBox="-10 -10 70 70"><rect x="-10" y="-10" width="70" height="70" fill="white"/><path d="M39.34,13.32v1.31c0,.28-.22,.5-.5,.5h-7.99c.06,0,.12,0,.18,.01v9.51h-2.01V15.13h-1v9.52h-2.01V15.13h-1v9.52h-2.13V14.9c.28,0,.55,0,.83-.02-.05-.08-.08-.16-.08-.25v-1.31h-1.28v3.51c0,.28-.22,.5-.5,.5h-2.25v.2h-5.85v-1.44H3.18v23.35H49.11V14.63c0-.26,.2-.48,.46-.5v-.82h-10.23Zm-25.58,5.21h5.85v1.95h-5.85v-1.95Zm0,2.95h5.85v1.95h-5.85v-1.95Zm0,2.95h5.85v2.04h-5.85v-2.04Zm5.85,4.76v5.54h-2.42v-5.54h2.42Zm-5.85,0h2.42v5.54h-2.42v-5.54ZM4,16.4h6.19v1.95H4v-1.95Zm0,5.2h6.19v1.95H4v-1.95Zm1.33,12.77h-1.33v-3.85h1.33v3.85Zm7.43,3.32h-2.99l2.99-1.55v1.55Zm9.13,0H13.76v-1.96h8.13v1.96Zm0-2.96h-1.28v-5.54h1.28v5.54Zm5.47-4.8h1.33v3.85h-1.33v-3.85Zm-4.47,7.76v-1.85l9.17,1.85h-9.17Zm10.28-3.91h-1.33v-3.85h1.33v3.85Zm.87-9.12h-2.01V15.24c.09,.01,.19,.02,.28,.03,.57,.06,1.15,.15,1.72,.23v9.16Zm3.01,0h-2.01V15.63c.67,.1,1.34,.22,2.01,.35v8.67Zm5.15-8.25h1.36v3.17h-1.36v-3.17Zm0,5.92h1.36v3.17h-1.36v-3.17Zm.18,12.41h-2.06v-5.75h2.06v5.75Zm3.06,0h-2.06v-5.75h2.06v5.75Z" fill="#ffcd00" stroke-width="0"/><path d="M48.32,10.57h-11.23c-.28,0-.5,.22-.5,.5v1.31h-13.7v-1.31c0-.28-.22-.5-.5-.5h-2.28c-.28,0-.5,.22-.5,.5v3.51h-5.85v-.74c0-.28-.22-.5-.5-.5H.93c-.28,0-.5,.22-.5,.5v24.35c0,.28,.22,.5,.5,.5H47.86c.28,0,.5-.22,.5-.5V13.37c.25-.02,.46-.23,.46-.49v-1.81c0-.28-.22-.5-.5-.5Zm-.96,24.16h-.92v-6.25c0-.28-.22-.5-.5-.5h-6.11c-.28,0-.5,.22-.5,.5v6.25h-1.28V13.38h9.32v21.34Zm-7.04,0v-5.75h2.06v5.75h-2.06Zm3.06-5.75h2.06v5.75h-2.06v-5.75Zm-29.62-7.5h5.85v1.95h-5.85v-1.95Zm5.85-1h-5.85v-1.95h5.85v1.95Zm-5.85,3.95h5.85v2.04h-5.85v-2.04Zm8.13,13.26H13.76v-1.96h8.13v1.96Zm1.97-10.22v.72H8.51v-.72h15.34Zm-4.25,1.72v5.54h-2.42v-5.54h2.42Zm2.28,5.54h-1.28v-5.54h1.28v5.54Zm1-8.35v-.72h14.16v.72h-14.16Zm14.16-1.72h-2.01V15.63c.67,.1,1.34,.22,2.01,.35v8.67Zm-3.01,0h-2.01V15.24c.09,.01,.19,.02,.28,.03,.57,.06,1.15,.15,1.72,.23v9.16Zm-3.01,0h-2.01V14.99c.67,.04,1.34,.09,2.01,.15v9.51Zm-3.01,0h-2.01V14.88c.67,.01,1.34,.03,2.01,.06v9.71Zm-3.01,0h-2.13V14.9c.71-.02,1.42-.04,2.13-.04v9.79Zm-8.83,4.53v5.54h-2.42v-5.54h2.42Zm6.71,0h1.47c.28,0,.5-.22,.5-.5v-1.31h12.19v10.3l-14.16-2.85v-5.63Zm14.7-17.62h10.23v.81h-10.23v-.81Zm-.54,1.81v1.58c-1.53-.28-3.08-.52-4.62-.69-3.15-.35-6.36-.47-9.53-.37v-.52h14.16Zm-16.44-1.81h1.28v14.9h-1.28V11.57Zm-1,4.01v1.95h-5.85v-1.95h5.85ZM1.43,14.34H12.76v12.13h-4.75c-.28,0-.5,.22-.5,.5v1.72c0,.28,.22,.5,.5,.5h4.75v5.82l-5.16,2.68H1.43V14.34Zm11.33,21.8v1.55h-2.99l2.99-1.55Zm10.13,1.55v-1.85l9.17,1.85h-9.17Zm24.47,0h-9.32v-1.96h9.32v1.96Z" stroke-width="0"/><path d="M3.5,19.35h7.19c.28,0,.5-.22,.5-.5v-2.95c0-.28-.22-.5-.5-.5H3.5c-.28,0-.5,.22-.5,.5v2.95c0,.28,.22,.5,.5,.5Zm.5-2.95h6.19v1.95H4v-1.95Z" stroke-width="0"/><path d="M3.5,24.55h7.19c.28,0,.5-.22,.5-.5v-2.95c0-.28-.22-.5-.5-.5H3.5c-.28,0-.5,.22-.5,.5v2.95c0,.28,.22,.5,.5,.5Zm.5-2.95h6.19v1.95H4v-1.95Z" stroke-width="0"/><path d="M29.19,28.93h-2.33c-.28,0-.5,.22-.5,.5v4.85c0,.28,.22,.5,.5,.5h2.33c.28,0,.5-.22,.5-.5v-4.85c0-.28-.22-.5-.5-.5Zm-.5,4.85h-1.33v-3.85h1.33v3.85Z" stroke-width="0"/><path d="M33.67,28.93h-2.33c-.28,0-.5,.22-.5,.5v4.85c0,.28,.22,.5,.5,.5h2.33c.28,0,.5-.22,.5-.5v-4.85c0-.28-.22-.5-.5-.5Zm-.5,4.85h-1.33v-3.85h1.33v3.85Z" stroke-width="0"/><path d="M5.83,29.52H3.5c-.28,0-.5,.22-.5,.5v4.85c0,.28,.22,.5,.5,.5h2.33c.28,0,.5-.22,.5-.5v-4.85c0-.28-.22-.5-.5-.5Zm-.5,4.85h-1.33v-3.85h1.33v3.85Z" stroke-width="0"/><path d="M41.7,20.57h2.36c.28,0,.5-.22,.5-.5v-4.17c0-.28-.22-.5-.5-.5h-2.36c-.28,0-.5,.22-.5,.5v4.17c0,.28,.22,.5,.5,.5Zm.5-4.17h1.36v3.17h-1.36v-3.17Z" stroke-width="0"/><path d="M41.7,26.49h2.36c.28,0,.5-.22,.5-.5v-4.17c0-.28-.22-.5-.5-.5h-2.36c-.28,0-.5,.22-.5,.5v4.17c0,.28,.22,.5,.5,.5Zm.5-4.17h1.36v3.17h-1.36v-3.17Z" stroke-width="0"/></svg>