<?xml version="1.0" encoding="UTF-8"?><svg width="70" height="70" xmlns="http://www.w3.org/2000/svg" viewBox="-10 -10 70 70"><rect x="-10" y="-10" width="70" height="70" fill="white"/><g id="uuid-a10610a7-8ea1-4dfa-9f3d-bf888068739f"><path d="m42.48,31.55l-8.27,12.45,2.67-10.83c.04-.15,0-.3-.09-.42-.1-.13-.24-.2-.4-.2h-3.88l1.82-7.95h8.29l-3.41,6.19c-.1.15-.1.35-.02.51.09.15.26.25.44.25h2.84Z" fill="#ffcd00" stroke-width="0"/></g><g id="uuid-cb63ed14-b33a-4758-b275-1e6250cfad6b"><path d="m49.62,19.93c0,1.59-.43,3.16-1.23,4.52t0,.02l-.16.25c-.09.14-.25.23-.42.23h-5.66l-2.74,4.46h2.87c.19,0,.36.1.44.27.09.16.08.36-.02.51l-10.38,15.62c-.1.14-.25.22-.42.22-.06,0-.13,0-.2-.04-.22-.1-.34-.34-.28-.58l3.21-13h-3.87c-.16,0-.3-.07-.4-.18-.09-.12-.13-.28-.09-.43l1.57-6.86h-4.84s-.84,3.68-.84,3.68c-.06.23-.26.39-.49.39-.04,0-.08,0-.11,0-.27-.06-.44-.33-.38-.6l.79-3.47h-4.98l-.84,3.69c-.05.23-.26.39-.49.39-.03,0-.07,0-.11,0-.27-.06-.44-.33-.37-.6l.79-3.47h-4.98s-.84,3.69-.84,3.69c-.06.23-.26.39-.49.39-.04,0-.08,0-.11,0-.27-.06-.44-.33-.38-.6l.79-3.48h-4.97l-.85,3.7c-.05.23-.26.39-.49.39-.03,0-.07,0-.11,0-.27-.06-.44-.33-.37-.6l.79-3.48H2.13c-.19,0-.37-.12-.45-.29-.58-1.2-.85-2.55-.78-3.92.19-3.71,3.04-6.87,6.77-7.51.65-.11,1.3-.14,2-.08,1.48-6.52,7.32-11.21,14.06-11.21,6.21,0,11.6,3.87,13.6,9.69,1.05-.42,2.19-.64,3.32-.64,4.94,0,8.97,4.02,8.97,8.97Zm-2.09,4.01c.71-1.21,1.09-2.6,1.09-4.01,0-4.39-3.58-7.97-7.97-7.97-1.17,0-2.35.27-3.41.77-.13.06-.28.07-.42,0-.13-.06-.23-.18-.27-.32-1.72-5.69-6.87-9.51-12.82-9.51-6.42,0-11.96,4.57-13.17,10.86-.05.26-.3.43-.56.4-.78-.11-1.47-.1-2.16.01-3.27.57-5.77,3.33-5.94,6.58-.06,1.09.13,2.18.55,3.15l45.07.04h.01Zm-14.46,18.92l8.27-12.45h-2.84c-.18,0-.35-.1-.44-.25-.08-.16-.08-.36.02-.51l2.85-4.65h-8.09l-1.47,6.41h3.88c.16,0,.3.07.4.2.09.12.13.27.09.42l-2.67,10.83Z" stroke-width="0"/><path d="m24.88,31.92c.27.07.44.33.37.6l-.88,3.9c-.06.23-.26.39-.49.39-.04,0-.08,0-.11,0-.27-.06-.44-.33-.38-.6l.89-3.9c.06-.27.33-.44.6-.38Z" stroke-width="0"/><path d="m23.1,39.72c.27.06.44.33.37.6l-.89,3.9c-.05.23-.25.39-.48.39-.04,0-.08,0-.11-.01-.27-.06-.44-.33-.38-.6l.89-3.9c.06-.27.33-.44.6-.38Z" stroke-width="0"/><path d="m18.87,31.92c.27.07.44.33.38.6l-.89,3.9c-.05.23-.26.39-.49.39-.03,0-.07,0-.11,0-.27-.06-.44-.33-.37-.6l.89-3.9c.06-.27.32-.44.59-.38Z" stroke-width="0"/><path d="m12.87,31.92c.27.07.44.33.38.6l-.89,3.9c-.06.23-.26.39-.49.39-.04,0-.08,0-.11,0-.27-.06-.44-.33-.38-.6l.89-3.9c.06-.27.33-.44.6-.38Z" stroke-width="0"/><path d="m11.09,39.72c.27.06.44.33.37.6l-.88,3.9c-.06.23-.26.39-.49.39-.04,0-.08,0-.11-.01-.27-.06-.44-.33-.38-.6l.89-3.9c.06-.27.33-.44.6-.38Z" stroke-width="0"/><path d="m6.86,31.92c.27.07.44.33.38.6l-.89,3.9c-.05.23-.26.39-.49.39-.03,0-.07,0-.11,0-.27-.06-.44-.33-.37-.6l.89-3.9c.06-.27.32-.44.59-.38Z" stroke-width="0"/></g></svg>