<?xml version="1.0" encoding="UTF-8"?><svg width="70" height="70" id="uuid-6aa00524-15aa-4f12-97f6-a67de7dd4359" xmlns="http://www.w3.org/2000/svg" viewBox="-10 -10 70 70"><rect x="-10" y="-10" width="70" height="70" fill="white"/><path d="M26.25,3.06C13.29,3.06,2.75,13.6,2.75,26.56s10.54,23.5,23.5,23.5,23.5-10.54,23.5-23.5S39.2,3.06,26.25,3.06Zm.8,36.1h-4.61V19.25h4.61v19.91Zm-.38-24.1c-.48,.46-1.11,.68-1.92,.68s-1.45-.22-1.93-.68c-.47-.45-.71-1.01-.71-1.72s.23-1.26,.69-1.71c.47-.45,1.11-.67,1.95-.67s1.46,.22,1.93,.67c.47,.45,.7,1.01,.7,1.71s-.23,1.28-.71,1.72Z" fill="#ffcd00" stroke-width="0"/><g><path d="M27.05,39.16V19.25h-4.61v19.91h4.61Zm.5,1h-5.61c-.27,0-.5-.22-.5-.5V18.75c0-.28,.23-.5,.5-.5h5.61c.28,0,.5,.22,.5,.5v20.91c0,.28-.22,.5-.5,.5Z" stroke-width="0"/><path d="M21.11,13.34c0-.97,.34-1.79,1-2.43,.66-.63,1.55-.95,2.64-.95s1.96,.32,2.62,.95c.67,.64,1.01,1.45,1.01,2.43s-.34,1.81-1.02,2.45c-.67,.63-1.55,.95-2.61,.95s-1.95-.32-2.62-.95c-.67-.64-1.02-1.46-1.02-2.45Zm3.64-2.38c-.84,0-1.48,.22-1.95,.67-.46,.45-.69,1.01-.69,1.71s.24,1.27,.71,1.72c.48,.46,1.11,.68,1.93,.68s1.44-.22,1.92-.68c.48-.44,.71-1.01,.71-1.72s-.23-1.26-.7-1.71-1.11-.67-1.93-.67Z" stroke-width="0"/><path d="M24.75,49.56C11.24,49.56,.25,38.57,.25,25.06S11.24,.56,24.75,.56s24.5,10.99,24.5,24.5-10.99,24.5-24.5,24.5ZM24.75,1.56C11.79,1.56,1.25,12.1,1.25,25.06s10.54,23.5,23.5,23.5,23.5-10.54,23.5-23.5S37.7,1.56,24.75,1.56Z" stroke-width="0"/></g></svg>