<?xml version="1.0" encoding="utf-8"?> <!-- Generator: Adobe Illustrator 27.7.0, SVG Export Plug-In . SVG Version: 6.00 Build 0) --> <svg width="70" height="70" version="1.1" xmlns="http://www.w3.org/2000/svg" xmlns:xlink="http://www.w3.org/1999/xlink" x="0px" y="0px" viewBox="-10 -10 70 70" style="enable-background:new 0 0 50 50;" xml:space="preserve"><rect x="-10" y="-10" width="70" height="70" fill="white"/> <style type="text/css"> .st0{fill:#FFCD00;} .st1{fill:none;stroke:#221F1F;stroke-linecap:round;stroke-linejoin:round;stroke-miterlimit:10;} .st2{display:none;} .st3{display:inline;fill:none;stroke:#EA008A;stroke-width:0.2;stroke-miterlimit:10;} .st4{font-family:'Roboto-Regular';} .st5{font-size:6px;} </style> <g id="Color"> <path class="st0" d="M30.9629,20.6718c5.7568,2.0998,12.5673,4.0948,11.6772,11.6264c-0.0226,0.1151-0.0319,0.1978-0.0615,0.2798 c0.4124,0.2074,0.8038,0.508,1.1364,0.8514c-2.4459,0.2039-4.3743,2.2307-4.3743,4.7292c0,0.5274,0.1061,1.0257,0.2642,1.5h-3.73 c0.1581-0.4743,0.2642-0.9726,0.2642-1.5c0-2.6339-2.1352-4.769-4.769-4.769c-2.6339,0-4.7691,2.1352-4.7691,4.769 c0,0.5274,0.1061,1.0257,0.2642,1.5h-3.73c0.1581-0.4743,0.2642-0.9726,0.2642-1.5c0-2.6339-2.1352-4.769-4.769-4.769 c-2.6339,0-4.7691,2.1352-4.7691,4.769c0,0.5274,0.1061,1.0257,0.2642,1.5h-1.5308h-2.1992c0.1581-0.4743,0.2642-0.9726,0.2642-1.5 c0-0.9344-0.2789-1.7996-0.7434-2.5354c0.0016-0.0027,0.0029-0.0051,0.0045-0.0079c0.9006-1.3647,1.8013-2.6149,3.6326-3.3172 h-2.4683c-1.6505,0-3.033-1.1974-3.3527-2.8167c-0.924-4.68-0.2261-12.9664,1.3313-20.9094h14.0241 c1.2046,0,2.2226,0.8796,2.3948,2.0718c0.3136,2.1711,0.7894,4.7809,1.4459,6.6464l2.2736,2.0098l-0.6134,0.5411 C29.2865,20.0628,30.2219,20.4035,30.9629,20.6718z" stroke-width="0"/> <path class="st1" d="M39.7754,31.2952" stroke-width="0"/> </g> <g id="ICONS_00000031165542127692736420000002692518830807990202_"> <g> <path d="M5.8903,36.9465c-0.6695,0-1.2122,0.5427-1.2122,1.2122s0.5427,1.2122,1.2122,1.2122s1.2123-0.5427,1.2123-1.2122 S6.5598,36.9465,5.8903,36.9465z" stroke-width="0"/> <path d="M18.6301,36.9465c-0.6695,0-1.2123,0.5427-1.2123,1.2122s0.5428,1.2122,1.2123,1.2122s1.2122-0.5427,1.2122-1.2122 S19.2996,36.9465,18.6301,36.9465z" stroke-width="0"/> <circle cx="31.3699" cy="38.1587" r="1.2122"/> <circle cx="44.1097" cy="38.1587" r="1.2122"/> <path d="M44.1099,32.8896c-0.2178,0-0.425,0.0385-0.636,0.0643c-0.3047-0.8274-0.9846-1.6058-1.8352-2.1294 c0.8652-7.4843-5.4623-9.7651-11.0479-11.7767l-0.1283-0.0464c0.0364-0.0256,0.0817-0.0621,0.1171-0.0864 c0.1255-0.0869,0.2051-0.2266,0.2153-0.3789c0.0103-0.1514-0.0498-0.3008-0.1626-0.4033l-3.8667-3.5166 c-0.1797-0.1621-0.4482-0.1729-0.6401-0.0273c-0.1409,0.1078-0.2979,0.2376-0.4457,0.3546 c-0.4448-1.4713-0.8569-3.4778-1.2028-5.8712c-0.2095-1.4482-1.4248-2.5-2.8896-2.5H7.5635c-0.0067,0-0.0123,0.0036-0.0189,0.0038 c-0.0272,0.001-0.052,0.0104-0.0787,0.0158c-0.0423,0.0087-0.0834,0.0172-0.121,0.0358c-0.0076,0.0037-0.0165,0.003-0.024,0.0071 C7.3038,6.6443,7.2937,6.6614,7.278,6.6727C7.2439,6.6971,7.2126,6.7225,7.1857,6.7545c-0.0183,0.0216-0.032,0.0444-0.0464,0.0688 C7.1189,6.8578,7.1034,6.893,7.0917,6.9322c-0.0046,0.0153-0.0159,0.0275-0.019,0.0434 C5.3828,15.5928,4.873,23.6787,5.7412,28.0781c0.3687,1.8652,1.9849,3.2197,3.8433,3.2197h0.5811 c-0.776,0.6107-1.3588,1.3567-1.9155,2.1757c-0.7132-0.3611-1.5074-0.5839-2.3599-0.5839c-2.9053,0-5.269,2.3643-5.269,5.2695 s2.3638,5.2686,5.269,5.2686c2.7341,0,4.9623-2.1006,5.2185-4.7686h2.3027c0.2562,2.668,2.4844,4.7686,5.2185,4.7686 s4.9623-2.1006,5.2185-4.7686h2.3032c0.2562,2.668,2.4844,4.7686,5.2185,4.7686s4.9623-2.1006,5.2185-4.7686h2.3027 c0.2562,2.668,2.4844,4.7686,5.2185,4.7686c2.9053,0,5.269-2.3633,5.269-5.2686S47.0151,32.8896,44.1099,32.8896z M26.4038,15.6387l3.0991,2.8193c-2.186,1.6289-5.6943,4.8926-7.5,7.1445l-3.3003-2.4727 c1.7574-2.2234,4.6983-5.0345,7.0477-6.9612c0.0068-0.0057,0.014-0.0104,0.0204-0.0165 C25.9846,15.977,26.2014,15.7977,26.4038,15.6387z M23.4878,9.2148c0.0328,0.2276,0.067,0.4446,0.1008,0.6645l-2.4914,0.7945 c-0.2632,0.084-0.4082,0.3652-0.3247,0.6289c0.0679,0.2119,0.2646,0.3477,0.4766,0.3477c0.0503,0,0.1016-0.0078,0.1519-0.0234 l2.3489-0.7491c0.121,0.7128,0.2471,1.381,0.3788,2l-2.5266,0.8057c-0.2632,0.084-0.4082,0.3652-0.3247,0.6289 c0.0679,0.2119,0.2646,0.3477,0.4766,0.3477c0.0503,0,0.1016-0.0078,0.1519-0.0234l2.4436-0.7793 c0.1586,0.6548,0.3247,1.2383,0.4963,1.762c-0.7819,0.6517-1.6132,1.3873-2.447,2.1653 C18.6368,12.3574,13.4214,9.1906,9.996,7.5723h11.5914C22.5508,7.5723,23.3501,8.2637,23.4878,9.2148z M6.7227,27.8848 C5.897,23.7031,6.3647,16.0312,7.9404,7.7578c3.0673,1.2439,9.4231,4.4333,13.7233,10.7186 c-1.5705,1.5131-3.0632,3.1104-4.0665,4.4503c-0.1655,0.2207-0.1206,0.5342,0.1006,0.7002l4.0986,3.0703 c0.0898,0.0674,0.1953,0.0996,0.2993,0.0996c0.1523,0,0.3022-0.0693,0.4004-0.2002c1.5052-2.0076,4.7457-5.0872,7.0111-6.877 l0.7448,0.2696c0.5328,0.1918,1.0662,0.3855,1.5964,0.5828l-1.6633,1.8655c-0.1841,0.2061-0.166,0.5225,0.0405,0.7061 c0.0952,0.085,0.2139,0.127,0.3325,0.127c0.1372,0,0.2744-0.0566,0.373-0.167l1.9163-2.1492 c0.7281,0.2858,1.4397,0.5865,2.1198,0.9127l-1.7538,1.967c-0.1841,0.2061-0.166,0.5225,0.0405,0.7061 c0.0952,0.085,0.2139,0.127,0.3325,0.127c0.1372,0,0.2744-0.0566,0.373-0.167l1.9282-2.1626 c2.9793,1.6243,5.1165,3.9063,4.7993,7.9604H9.5845C8.2021,30.2979,6.9985,29.2832,6.7227,27.8848z M12.1578,31.2979h28.1327 c0.9506,0.2934,1.8458,1.0672,2.2015,1.8724c-1.9564,0.6372-3.3977,2.375-3.6007,4.4889h-2.3027 c-0.2562-2.6681-2.4844-4.7695-5.2185-4.7695s-4.9623,2.1014-5.2185,4.7695h-2.3032c-0.2562-2.6681-2.4844-4.7695-5.2185-4.7695 s-4.9623,2.1014-5.2185,4.7695h-2.3027c-0.1427-1.486-0.8928-2.7849-2.0128-3.6521C9.902,32.8246,10.7134,31.874,12.1578,31.2979z M5.8901,42.4277c-2.354,0-4.269-1.915-4.269-4.2686c0-2.3545,1.915-4.2695,4.269-4.2695s4.269,1.915,4.269,4.2695 C10.1592,40.5127,8.2441,42.4277,5.8901,42.4277z M18.6299,42.4277c-2.354,0-4.269-1.915-4.269-4.2686 c0-2.3545,1.915-4.2695,4.269-4.2695s4.269,1.915,4.269,4.2695C22.8989,40.5127,20.9839,42.4277,18.6299,42.4277z M31.3701,42.4277c-2.354,0-4.269-1.915-4.269-4.2686c0-2.3545,1.915-4.2695,4.269-4.2695s4.269,1.915,4.269,4.2695 C35.6392,40.5127,33.7241,42.4277,31.3701,42.4277z M44.1099,42.4277c-2.354,0-4.269-1.915-4.269-4.2686 c0-2.3545,1.915-4.2695,4.269-4.2695s4.269,1.915,4.269,4.2695C48.3789,40.5127,46.4639,42.4277,44.1099,42.4277z" stroke-width="0"/> </g> </g> <g id="Margin" class="st2"> <rect x="1" y="1" class="st3" /> </g> <g id="Guides" class="st2"> </g> <g id="LABELS"> <g> <g> <g> <g> <g> <g> <g> <g> <g> <g> </g> </g> </g> </g> </g> </g> </g> </g> </g> </g> </g> </svg> 