<?xml version="1.0" encoding="UTF-8"?><svg width="70" height="70" id="uuid-088b6938-87f7-4c54-bdff-9a0c839d6527" xmlns="http://www.w3.org/2000/svg" viewBox="-10 -10 70 70"><rect x="-10" y="-10" width="70" height="70" fill="white"/><g><rect x="12.11" y="41.55" width="12.38" height="6.7" transform="translate(-4.95 2.35) rotate(-6.48)" fill="#ffcd00"/><rect x="31.44" y="38.82" width="6.7" height="12.38" transform="translate(-13.86 74.5) rotate(-83.52)" fill="#ffcd00"/><circle cx="26.52" cy="15.27" r="11.78" fill="#ffcd00"/></g><g><path d="M37.8,13.77c0-7.06-5.74-12.8-12.8-12.8-4.44,0-8.36,2.28-10.66,5.73h-.1v.16c-1.29,2-2.04,4.37-2.04,6.92,0,7.06,5.74,12.8,12.8,12.8s12.8-5.74,12.8-12.8Zm-2.24,5.23h-5.46c.53-1.51,.88-3.23,.89-5.16h5.81c-.01,1.85-.46,3.6-1.24,5.16Zm1.19-6.16h-5.8c-.11-1.94-.54-3.66-1.14-5.16h5.28c.92,1.53,1.51,3.28,1.66,5.16Zm-6.76,1c-.01,1.94-.4,3.66-.96,5.16h-8.29c-.56-1.5-.94-3.22-.96-5.16h10.2Zm-10.17-1c.11-1.96,.59-3.68,1.23-5.16h7.67c.64,1.47,1.12,3.2,1.23,5.16h-10.14Zm14.6-6.16h-5.05c-1.03-2.14-2.34-3.72-3.27-4.67,3.4,.32,6.37,2.08,8.32,4.67ZM24.89,2.23c.79,.73,2.21,2.25,3.36,4.46h-6.72c1.15-2.21,2.57-3.73,3.36-4.46Zm-1.24-.18c-.93,.96-2.22,2.52-3.24,4.64h-4.84c1.9-2.53,4.78-4.27,8.08-4.64ZM14.9,7.69h5.07c-.6,1.49-1.04,3.22-1.14,5.16h-5.58c.15-1.88,.73-3.63,1.66-5.16Zm-1.7,6.16h5.59c.01,1.92,.37,3.64,.89,5.16h-5.25c-.78-1.56-1.22-3.3-1.24-5.16Zm1.8,6.16h5.07c1.09,2.58,2.63,4.44,3.67,5.5-3.69-.39-6.86-2.5-8.74-5.5Zm9.9,5.23c-.87-.81-2.54-2.6-3.73-5.23h7.47c-1.19,2.63-2.86,4.42-3.73,5.23Zm1.14,.28c1.04-1.05,2.59-2.93,3.68-5.52h5.29c-1.92,3.06-5.19,5.19-8.97,5.52Z" stroke-width="0"/><polygon points="3.57 36.57 3.57 36.57 3.57 36.57 3.57 36.57"/><path d="M22.93,38.34l-1.01,.11c-.56-2.41-1.15-4.94-1.18-5.09l-.4-1.97c-.03-.56-.29-1.07-.73-1.44-.43-.36-.98-.54-1.53-.51l-9.36-.29c-.75-.02-1.45,.26-1.93,.74l-1.59-7.62c-.26-1.23-1.56-2.03-2.92-1.8-.7,.12-1.31,.51-1.68,1.06-.33,.49-.45,1.07-.33,1.64l2.63,12.56s.02,.1,.04,.14l.17,.8,.02,.1c.1,.45,.29,.86,.58,1.2,.77,.93,2,1.16,2.47,1.25l1.71,.32c.49,.09,1.09,.21,1.73,.33-.22,.07-.37,.28-.34,.52l.86,7.62c.02,.13,.08,.25,.19,.33,.09,.07,.2,.11,.31,.11,.02,0,.04,0,.06,0l13.24-1.5c.13-.02,.25-.08,.33-.19,.08-.1,.12-.24,.11-.37l-.87-7.62c-.03-.28-.29-.47-.55-.44Zm-14.88,.23l-1.72-.32c-.4-.08-1.34-.25-1.88-.9-.18-.22-.3-.48-.37-.78l-.02-.11-.17-.78s-.02-.07-.03-.11L1.22,22.97c-.06-.3,0-.61,.18-.87,.22-.33,.6-.56,1.03-.64,.1-.02,.21-.03,.31-.03,.71,0,1.33,.43,1.46,1.04l1.89,9.02c.02,.31,.11,.79,.51,1.26,.42,.5,.96,.69,1.32,.78l7.01,.73s.04,0,.05,0c.25,0,.47-.19,.5-.45,.03-.27-.17-.52-.45-.55l-2.83-.29-4.1-.42c-.14-.04-.48-.15-.74-.45-.18-.21-.24-.43-.26-.58,0-.05-.01-.1-.01-.13,.05-.71,.78-1.27,1.59-1.24l8.95,.29h.46c.32-.01,.63,.08,.87,.28,.23,.19,.36,.45,.38,.8l.41,2.05h0s.59,2.55,1.16,4.99l-8.03,.91c-2-.37-3.65-.69-4.85-.91Zm3,8.84l-.75-6.63,12.25-1.39,.75,6.63-12.25,1.39Z" stroke-width="0"/><path d="M49.42,21.54c-.37-.55-.99-.94-1.68-1.06-1.36-.24-2.67,.57-2.92,1.8l-1.59,7.61c-.49-.47-1.19-.76-1.94-.73l-8.92,.29h-.4c-.57-.03-1.13,.15-1.56,.51-.44,.37-.7,.88-.72,1.37l-.41,2.04c-.04,.15-.63,2.68-1.18,5.08l-1.01-.11c-.27-.03-.52,.17-.55,.44l-.87,7.62c-.01,.13,.02,.26,.11,.37,.08,.1,.2,.17,.33,.19l13.24,1.5s.04,0,.06,0c.25,0,.47-.19,.5-.44l.87-7.62c.01-.13-.02-.26-.11-.37-.06-.08-.14-.12-.23-.15,.64-.12,1.23-.23,1.73-.33l1.72-.32c.46-.09,1.69-.32,2.46-1.25,.28-.34,.48-.75,.58-1.2l.02-.1,.16-.75s.04-.11,.04-.14l2.64-12.61c.12-.57,0-1.15-.33-1.64Zm-10.47,25.88l-12.25-1.39,.75-6.63,12.25,1.39-.75,6.63Zm7.2-11.87s-.03,.1-.04,.13l-.17,.79-.02,.11c-.06,.3-.18,.55-.37,.78-.54,.65-1.48,.83-1.88,.9l-1.72,.32c-1.19,.23-2.85,.54-4.85,.91l-8.03-.91c.57-2.44,1.16-4.98,1.16-4.98h0l.42-2.13c.02-.28,.15-.54,.38-.73,.24-.2,.55-.29,.9-.28l9.38-.29c.85-.02,1.56,.53,1.6,1.19v.03h0s0,.09-.01,.14c-.02,.15-.08,.37-.26,.58-.25,.29-.57,.4-.67,.44l-4.16,.43-2.84,.3c-.27,.03-.47,.27-.45,.55,.03,.26,.24,.45,.5,.45,.02,0,.04,0,.05,0l7.08-.74c.28-.07,.82-.27,1.25-.77,.4-.47,.49-.95,.51-1.26l1.89-9.02c.15-.71,.94-1.17,1.77-1.02,.43,.08,.81,.31,1.03,.64,.18,.27,.24,.58,.18,.87l-2.62,12.57Z" stroke-width="0"/></g></svg>