<?xml version="1.0" encoding="UTF-8"?><svg width="70" height="70" xmlns="http://www.w3.org/2000/svg" viewBox="-10 -10 70 70"><rect x="-10" y="-10" width="70" height="70" fill="white"/><g id="uuid-06231cb1-2693-4d9c-a33e-9154bdcad15c"><g><path d="M32.79,23.27l-12.9-.02c-4.4,.22-7.87,3.86-7.88,8.28l-.03,17.76,28.64,.05,.03-17.76c0-4.42-3.44-8.07-7.86-8.31Zm-11.05,9.43s0,.03,0,.04v1.17h0v1.71c0,.61-.5,1.11-1.11,1.11l-2.23,.06v-2.81c0-1.86,1.49-3.37,3.34-3.42v2.14Zm3.64,8.23c-1.51,0-2.5-.57-2.5-.95s1-.95,2.5-.95,2.5,.57,2.5,.95-1,.95-2.5,.95Zm3.44-4.2c-.61,0-1.11-.5-1.11-1.11v-1.68h0v-3.38c1.85,.04,3.34,1.56,3.34,3.42l.06,2.75h-2.29Z" fill="#ffcd00" stroke-width="0"/><path d="M31.38,20.55c-.06-.03-.13-.04-.2-.04h-12.93s0,0-.01,0c-4.96,.25-8.85,4.32-8.86,9.28l-.03,18.26c0,.28,.22,.5,.5,.5h6.09l23.56,.06h0c.28,0,.5-.22,.5-.5l.03-18.26c0-4.9-3.78-8.95-8.65-9.3Zm-6.01,18.47c1.51,0,2.5,.57,2.5,.95s-1,.95-2.5,.95-2.5-.57-2.5-.95,1-.95,2.5-.95Zm-14.99-9.23c0-4.42,3.48-8.06,7.9-8.28h6.03v8.42l-1.58,1.58v-1.03c0-.51-.41-.92-.92-.92-2.44,0-4.42,1.98-4.42,4.42v2.81c0,.52,.42,.94,.94,.94h2.29c1.16,0,2.11-.95,2.11-2.11v-1.68h0v-1.02l1.58-1.58v6.78c-1.45,.24-2.45,.95-2.45,1.86,0,.05,.02,.09,.02,.13h-1.03c-1.35,0-2.45,1.06-2.45,2.37s1.1,2.37,2.45,2.37h7.57c.8,0,1.45,.61,1.45,1.36s-.65,1.37-1.45,1.37h-3.66l-8.35-.02,.03-16.01c0-.28-.22-.5-.5-.5h0c-.28,0-.5,.22-.5,.5l-.03,16.01h-5.08l.03-17.77Zm11.35,2.91s0,.03,0,.04v1.17h0v1.71c0,.61-.5,1.11-1.11,1.11l-2.23,.06v-2.81c0-1.86,1.49-3.37,3.34-3.42v2.14Zm17.26,14.91h-5.08l.03-16.02c0-.28-.22-.5-.5-.5h0c-.28,0-.5,.22-.5,.5l-.03,16.01h-2.51c.29-.39,.47-.87,.47-1.38,0-1.31-1.1-2.37-2.45-2.37h-7.57c-.8,0-1.45-.61-1.45-1.36s.65-1.37,1.45-1.37h1.51s.06-.01,.09-.02c.62,.51,1.67,.84,2.91,.84,2,0,3.5-.84,3.5-1.95s-1.51-1.95-3.5-1.95c-.02,0-.04,0-.06,0v-6.47l1.39,1.39v.96h0v1.71c0,1.16,.95,2.11,2.11,2.11h2.29c.52,0,.94-.42,.94-.94v-2.81c0-2.44-1.98-4.42-4.42-4.42-.51,0-.92,.41-.92,.92v1.05l-1.39-1.39v-8.64h5.74s.06,.02,.09,.02c4.42,.24,7.88,3.89,7.87,8.31l-.03,17.76Zm-11.29-11.99v-1.68h0v-3.38c1.85,.04,3.34,1.56,3.34,3.42l.06,2.75h-2.29c-.61,0-1.11-.5-1.11-1.11Z" stroke-width="0"/><path d="M24.72,19.3c5.14,0,9.33-4.18,9.33-9.33S29.86,.65,24.72,.65,15.4,4.84,15.4,9.98s4.18,9.33,9.32,9.33Zm0-17.65c4.59,0,8.33,3.73,8.33,8.32s-3.73,8.33-8.33,8.33-8.32-3.73-8.32-8.33S20.13,1.65,24.72,1.65Z" stroke-width="0"/></g></g><g id="uuid-67646df2-4aea-46d5-9af2-6a599709bfdd"></g></svg>