<?xml version="1.0" encoding="UTF-8"?><svg width="70" height="70" xmlns="http://www.w3.org/2000/svg" viewBox="-10 -10 70 70"><rect x="-10" y="-10" width="70" height="70" fill="white"/><g id="uuid-6c3095f8-00a3-4644-bc94-c8f30695a878"><g><path d="M48.54,23.27c-.04-.06-.09-.12-.14-.17-.11-.13-.23-.26-.34-.37-.08-.07-.14-.13-.19-.17-.05-.04-.08-.06-.09-.07-.02-.01-.07-.05-.15-.1-.06-.04-.13-.08-.22-.14-.11-.06-.2-.1-.28-.14-.24-.11-.49-.21-.73-.57-.15-.23-.23-.45-.26-.65,0-.14-.02-.34-.04-.58-.03-.28-.05-.42-.1-.49-.15-.18-.36-.09-.8-.28-.12-.05-.24-.12-.29-.14-.09-.05-.15-.09-.21-.13-.04-.03-.07-.05-.09-.07-.4-.29-.65-.61-.86-.86-.1-.12-.21-.27-.31-.42-.07-.1-.16-.24-.25-.42-.11-.22-.24-.52-.33-.98-.06-.31-.08-.5-.08-.65,0,.01,.01,.02,.02,.03,0-.17,.02-.36,.05-.55,.09-.45,.26-.73,.39-.94,.12-.2,.12-.21,.11-.24-.03-.13-.22-.29-.47-.49-.13-.11-.22-.16-.3-.21-.01,.02-.02,.04-.03,.06-.04-.05-.08-.09-.13-.15-.29-.31-.3-.26-.38-.37-.3-.42-.13-.99-.23-1.45-.03-.15-.08-.21-.07-.36,0-.05,0-.11-.03-.14-.04-.04-.1,0-.19,.01-.12,.02-.11,0-.46-.01-.04,0-.04,0-.27,0-.17,0-.32,0-.41,0H3.05c0,.36-.06,.71-.14,1.04-.08,.34-.18,.59-.27,.79-.11,.27-.12,.33-.1,.39,.01,.04,.03,.06,.22,.16,.22,.11,.56,.28,.79,.7,.31,.56,.2,1.13,0,2.16-.1,.49-.18,.9-.42,1.4-.18,.36-.34,.57-.46,.71-.1,.13-.1,.13-.11,.17-.01,.23,.3,.57,.73,1.02,.2,.22,.33,.32,.43,.4,.14,.11,.27,.22,.4,.46,.27,.49,.22,.9,.17,1.3-.03,.2-.05,.42-.04,.69,.03,.67,.28,1.14,.7,1.93,.21,.41,.37,.61,.54,.83,.2,.26,.4,.53,.67,1.08,.36,.72,.56,1.11,.62,1.69,.09,.82-.15,1.45-.33,1.92-.04,.1-.08,.22-.11,.32,.06,0,.16-.02,.23-.03,.33-.03,.84-.08,1.14,.34,.25,.36,.12,.73,.03,.97-.08,.21-.12,.35-.08,.52,.03,.1,.05,.13,.18,.23,.16,.13,.37,.31,.55,.69,.18,.39,.16,.65,.13,1.02-.02,.24-.04,.56-.02,1.07,.01,.43,.04,.65,.07,.79,.03,.21,.05,.35-.02,.61-.1,.42-.3,.74-.49,.99h.03c-.05,.05-.1,.1-.15,.15-.08,.09-.14,.16-.17,.2,.26,.14,.66,.4,.92,.88,.05,.09,.09,.18,.12,.26,6.1,0,12.2,.01,18.32,.03,3.84,.01,7.68,.02,11.53,.04,.26,.05,.5,.14,.7,.29,.04,.02,.17,.1,.31,.24,.3,.31,.4,.69,.43,.96,.07,.14,.15,.3,.26,.47,.11,.17,.23,.33,.38,.5,.13-.36,.17-.69,.1-.98-.03-.14-.09-.28-.13-.4-.12-.32-.28-.73-.09-1.17,.16-.38,.5-.53,.89-.71,.55-.24,.95-.39,1.25-.5,.46-.17,.56-.21,.62-.32t.03-.12c.01-.15,.03-.37,.18-.75,.15-.36,.3-.56,.42-.71,.09-.12,.15-.2,.21-.36,.17-.42,.19-.8,.07-1.07-.06-.13-.1-.11-.47-.45-.38-.35-.57-.52-.62-.71-.02-.09-.08-.42,.36-.92,.09-.08,.2-.19,.3-.33,.07-.11,.12-.2,.13-.22,.08-.17,.09-.26,.1-.38,.01-.13,.03-.31,.14-.52,.31-.62,.89-.74,1.57-.88,.39-.08,.83-.17,1.36-.37,.7-.27,1.66-.63,1.94-1.35,.07-.19,.07-.29,.07-.48,0-.2,0-.47,.09-.9,.12-.57,.36-.88,.53-1.12,.1-.14,.16-.22,.18-.3h0s.01-.06,.01-.12c0-.05-.58-.91-1.42-2.05Zm-10.82,14.44s.09,.04,.12,.06c.03,.02,.05,.05,.07,.07-.05-.04-.11-.08-.2-.14Zm2.32-11.38l-2.28,2.28-2.28-2.28c-.43-.43-.43-1.14,0-1.57,.22-.22,.5-.32,.79-.32s.57,.11,.79,.32l.35,.35c.2,.2,.51,.2,.71,0l.35-.35c.43-.43,1.14-.43,1.57,0,.43,.43,.43,1.14,0,1.57Zm2.26-11.99c-.02-.07-.02-.12,0-.15h0s-.01,.1-.02,.15Z" fill="#ffcd00" stroke-width="0"/><path d="M38.12,25.11l.12-.12c-.34-.12-.69-.15-1.04-.1l.22,.22c.2,.2,.51,.2,.71,0Z" fill="none" stroke-width="0"/><path d="M8.56,35.82c-.02-.14-.05-.36-.07-.79-.02-.51,0-.83,.02-1.07,.03-.37,.05-.64-.13-1.02-.17-.37-.39-.55-.55-.69-.13-.11-.16-.13-.18-.23-.04-.17,0-.31,.08-.52,.09-.24,.22-.61-.03-.97-.3-.43-.81-.38-1.14-.34-.07,0-.16,.02-.23,.03,.03-.09,.07-.22,.11-.32,.18-.46,.42-1.1,.33-1.92-.06-.57-.26-.97-.62-1.69-.28-.55-.48-.82-.67-1.08-.17-.22-.32-.42-.54-.83-.42-.79-.67-1.27-.7-1.93-.01-.28,.02-.5,.04-.69,.05-.4,.1-.81-.17-1.3-.13-.24-.26-.35-.4-.46-.09-.08-.22-.18-.43-.4-.43-.46-.74-.79-.73-1.02,0-.04,0-.04,.11-.17,.11-.14,.28-.35,.46-.71,.25-.5,.33-.91,.42-1.4,.21-1.04,.32-1.61,0-2.16-.23-.42-.57-.59-.79-.7-.19-.1-.21-.12-.22-.16-.02-.06,0-.12,.1-.39,.08-.2,.18-.45,.27-.79,.08-.34,.13-.69,.14-1.04H40.36c-.02-.12-.02-.24-.02-.35,0-.11,0-.25-.02-.42-.03-.24-.07-.48-.13-.73H1.55c0,.36-.06,.71-.14,1.04-.08,.34-.18,.59-.27,.79-.11,.27-.12,.33-.1,.39,.01,.04,.03,.06,.22,.16,.22,.11,.56,.28,.79,.7,.31,.56,.2,1.13,0,2.16-.1,.49-.18,.9-.42,1.4-.18,.36-.34,.57-.46,.71-.1,.13-.1,.13-.11,.17-.01,.23,.3,.57,.73,1.02,.2,.22,.33,.32,.43,.4,.14,.11,.27,.22,.4,.46,.27,.49,.22,.9,.17,1.3-.03,.2-.05,.42-.04,.69,.03,.67,.28,1.14,.7,1.93,.21,.41,.37,.61,.54,.83,.2,.26,.4,.53,.67,1.08,.36,.72,.56,1.11,.62,1.69,.09,.82-.15,1.45-.33,1.92-.04,.1-.08,.22-.11,.32,.06,0,.16-.02,.23-.03,.33-.03,.84-.08,1.14,.34,.25,.36,.12,.73,.03,.97-.08,.21-.12,.35-.08,.52,.03,.1,.05,.13,.18,.23,.16,.13,.37,.31,.55,.69,.18,.39,.16,.65,.13,1.02-.02,.24-.04,.56-.02,1.07,.01,.43,.04,.65,.07,.79,.03,.21,.05,.35-.02,.61-.14,.6-.49,1-.71,1.26-.02,.02-.04,.05-.07,.08,.16,.07,.38,.18,.59,.41,.2,.2,.35,.45,.45,.74h.75c.19-.25,.39-.56,.49-.98,.06-.26,.05-.4,.02-.61Z" fill="none" stroke-width="0"/><path d="M46.28,20.99c-.06-.04-.1-.06-.15-.1,.04,.2,.11,.42,.26,.65,.24,.36,.49,.47,.73,.57,.09,.04,.18,.08,.28,.14-.46-.62-.77-.99-1.13-1.26Z" fill="none" stroke-width="0"/><path d="M44.61,19.21c-.01-.14-.02-.28-.02-.39,0-.28,0-.38-.1-.49-.06-.06-.09-.07-.28-.12-.19-.04-.45-.11-.78-.29,.11,.16,.21,.3,.31,.42,.2,.26,.46,.57,.86,.86Z" fill="none" stroke-width="0"/><path d="M39.22,39.95c.09-.25,.12-.47,.12-.68-.21-.16-.47-.25-.76-.31,.15,.32,.35,.65,.64,.99Z" fill="none" stroke-width="0"/><path d="M41.72,11.19s-.01-.09-.03-.14h-.19c.06,.05,.14,.09,.22,.14Z" fill="#ffcd00" stroke-width="0"/><path d="M42.3,14.34c0-.05,0-.11,.02-.16h0s-.03,.09,0,.16Z" fill="none" stroke-width="0"/><path d="M37.72,37.71c.08,.05,.15,.1,.2,.14-.03-.02-.04-.05-.07-.07-.04-.03-.09-.04-.12-.06Z" fill="none" stroke-width="0"/><g><path d="M48.56,22.13c-.72-.98-1.12-1.52-1.69-1.94-.38-.28-.65-.4-.85-.49-.19-.08-.22-.1-.3-.21-.14-.21-.14-.41-.14-.67,0-.32,0-.77-.37-1.17-.27-.3-.56-.36-.79-.42-.2-.04-.38-.09-.67-.28-.33-.23-.53-.48-.73-.73-.08-.11-.17-.21-.24-.32-.15-.2-.28-.43-.37-.72-.06-.21-.2-.63-.1-1.13,.05-.26,.14-.42,.24-.58l.02-.04c.15-.25,.33-.55,.22-1s-.43-.71-.8-1.02c-.11-.1-.21-.17-.3-.22-.08-.05-.16-.1-.22-.13h-.02c-.08-.05-.09-.06-.11-.09-.03-.04-.03-.07-.03-.27,0-.14,0-.32-.02-.54-.05-.42-.14-.84-.27-1.27-.07-.21-.26-.35-.48-.35H1.04c-.14,0-.27,.06-.37,.16-.09,.1-.14,.24-.13,.38,.03,.44,0,.86-.1,1.27-.07,.28-.15,.49-.22,.66-.13,.32-.26,.65-.13,1.07,.14,.45,.49,.63,.72,.75,.19,.09,.29,.15,.37,.29,.13,.23,.06,.62-.12,1.49-.09,.46-.15,.76-.34,1.14-.13,.26-.24,.4-.34,.53-.14,.18-.31,.38-.32,.75-.03,.66,.4,1.12,1,1.76,.25,.27,.41,.4,.53,.49,.11,.09,.12,.1,.16,.17,.11,.2,.09,.34,.05,.69-.03,.23-.06,.51-.05,.87,.04,.89,.36,1.5,.82,2.36,.25,.47,.45,.73,.62,.96,.18,.24,.34,.46,.58,.92,.33,.66,.48,.95,.52,1.35,.06,.58-.11,1.04-.27,1.45-.17,.44-.36,.94,.01,1.36,.33,.36,.81,.32,1.13,.29,.04,0,.08,0,.13-.01-.09,.25-.22,.62-.11,1.09,.1,.42,.34,.62,.51,.76,.12,.1,.2,.17,.28,.34,.07,.15,.07,.21,.04,.53-.02,.26-.04,.61-.03,1.17,.02,.49,.05,.74,.08,.9q.02,.15,0,.23c-.09,.36-.31,.62-.5,.84-.23,.27-.55,.63-.37,1.1,.12,.33,.4,.44,.57,.52,.13,.05,.24,.1,.36,.22,.15,.15,.25,.36,.29,.63,.04,.24,.25,.41,.49,.41,.54,0,1.08,0,1.62,0,16.27,.03,27.18,.05,28.04,0,.1,0,.43-.03,.66,.15,.13,.1,.19,.24,.24,.37,.01,.03,.03,.07,.04,.1,.24,.71,.75,1.43,1.5,2.15,.09,.09,.22,.14,.35,.14,.02,0,.04,0,.07,0,.15-.02,.28-.11,.36-.24,.12-.2,.22-.4,.3-.59,.26-.61,.33-1.19,.21-1.73-.04-.19-.11-.37-.17-.54-.08-.22-.13-.35-.12-.4,.05-.05,.3-.16,.39-.2,.52-.23,.9-.37,1.18-.48,.52-.19,.87-.32,1.12-.72,.16-.25,.17-.44,.18-.58,0-.11,.02-.21,.11-.45,.1-.24,.18-.35,.28-.48,.11-.14,.24-.31,.35-.6,.05-.14,.09-.28,.13-.41,.13-.52,.11-1.02-.07-1.43-.04-.08-.08-.14-.12-.21-.22-.35-.52-.55-.73-.68-.03-.02-.07-.04-.1-.07l.02-.02c.17-.16,.42-.39,.62-.81,.16-.33,.18-.55,.2-.71,0-.1,.01-.12,.04-.18,.08-.17,.29-.23,.88-.35,.41-.08,.91-.19,1.51-.42,.83-.31,2.08-.79,2.52-1.92,.14-.37,.14-.6,.14-.83,0-.18,0-.36,.07-.69,.08-.35,.21-.53,.36-.73,.1-.13,.21-.29,.29-.48,.06-.15,.11-.33,.11-.54,0-.47-.32-.9-.9-1.68Zm-.29,2.11c-.17,.23-.41,.55-.53,1.12-.09,.43-.09,.7-.09,.9s0,.28-.07,.48c-.28,.72-1.24,1.08-1.94,1.35-.52,.2-.97,.29-1.36,.37-.68,.14-1.26,.26-1.57,.88-.11,.22-.13,.39-.14,.52-.01,.12-.02,.2-.1,.38-.12,.25-.26,.39-.4,.52-.18,.17-.42,.4-.41,.8,.02,.48,.4,.71,.64,.87,.2,.13,.38,.24,.47,.45,.12,.27,.09,.65-.07,1.07-.06,.16-.12,.24-.21,.36-.12,.16-.26,.35-.42,.71-.16,.38-.17,.61-.18,.75q0,.08-.03,.12c-.07,.11-.17,.15-.62,.32-.3,.11-.7,.26-1.25,.5-.39,.18-.73,.33-.89,.71-.19,.44-.03,.85,.09,1.17,.05,.12,.1,.26,.13,.4,.02,.09,.01,.2,.01,.3,0,.21-.03,.44-.12,.68-.29-.34-.49-.66-.64-.99-.04-.09-.1-.19-.14-.28-.06-.18-.2-.6-.6-.91-.31-.24-.7-.36-1.17-.36-.06,0-.12,0-.18,0-.86,.05-14.04,.03-28.44,0h-.75c-.1-.29-.25-.53-.45-.74-.22-.22-.43-.33-.59-.41,.02-.03,.05-.06,.07-.08,.23-.27,.57-.67,.71-1.26,.06-.26,.05-.4,.02-.61-.02-.14-.05-.36-.07-.79-.02-.51,0-.83,.02-1.07,.03-.37,.05-.64-.13-1.02-.17-.37-.39-.55-.55-.69-.13-.11-.16-.13-.18-.23-.04-.17,0-.31,.08-.52,.09-.24,.22-.61-.03-.97-.3-.43-.81-.38-1.14-.34-.07,0-.16,.02-.23,.03,.03-.09,.07-.22,.11-.32,.18-.46,.42-1.1,.33-1.92-.06-.57-.26-.97-.62-1.69-.28-.55-.48-.82-.67-1.08-.17-.22-.32-.42-.54-.83-.42-.79-.67-1.27-.7-1.93-.01-.28,.02-.5,.04-.69,.05-.4,.1-.81-.17-1.3-.13-.24-.26-.35-.4-.46-.09-.08-.22-.18-.43-.4-.43-.46-.74-.79-.73-1.02,0-.04,0-.04,.11-.17,.11-.14,.28-.35,.46-.71,.25-.5,.33-.91,.42-1.4,.21-1.04,.32-1.61,0-2.16-.23-.42-.57-.59-.79-.7-.19-.1-.21-.12-.22-.16-.02-.06,0-.12,.1-.39,.08-.2,.18-.45,.27-.79,.08-.34,.13-.69,.14-1.04H40.19c.06,.25,.11,.49,.13,.73,.02,.17,.02,.31,.02,.42,0,.11,0,.23,.02,.35,.02,.14,.06,.29,.16,.45,.16,.25,.33,.35,.49,.44,.09,.05,.2,.11,.36,.24,.24,.2,.44,.37,.47,.49,0,.03,.01,.05-.11,.24-.12,.21-.3,.49-.39,.94-.15,.75,.05,1.39,.12,1.63,.2,.62,.52,1.03,.78,1.36,.22,.28,.49,.62,.95,.93,.08,.06,.16,.1,.24,.14,.32,.18,.58,.25,.78,.29,.19,.04,.22,.05,.28,.12,.09,.1,.1,.2,.1,.49,0,.12,0,.25,.02,.39,.02,.25,.09,.54,.29,.84,.24,.36,.49,.47,.73,.57,.14,.06,.3,.14,.51,.28,.05,.03,.09,.05,.15,.1,.36,.27,.66,.64,1.13,1.26,.11,.15,.22,.29,.35,.47,.33,.45,.71,.95,.71,1.1,0,.15-.05,.22-.2,.42Z" stroke-width="0"/><path d="M40.75,24.05c-.82-.82-2.16-.82-2.99,0-.82-.82-2.16-.82-2.99,0-.82,.82-.82,2.16,0,2.99l2.63,2.63c.1,.1,.23,.15,.35,.15s.26-.05,.35-.15l2.63-2.63c.82-.82,.82-2.16,0-2.99Zm-.71,2.28l-2.28,2.28-2.28-2.28c-.43-.43-.43-1.14,0-1.57,.22-.22,.5-.32,.79-.32s.57,.11,.79,.32l.35,.35c.2,.2,.51,.2,.71,0l.35-.35c.43-.43,1.14-.43,1.57,0,.43,.43,.43,1.14,0,1.57Z" stroke-width="0"/></g></g></g><g id="uuid-ce61018f-0ff0-4938-bd92-ee4a4d313649"></g></svg>