<?xml version="1.0" encoding="UTF-8"?><svg width="70" height="70" xmlns="http://www.w3.org/2000/svg" viewBox="-10 -10 70 70"><rect x="-10" y="-10" width="70" height="70" fill="white"/><g id="uuid-94d2355d-24c7-4808-83bd-d303b2d42d1c"><g><path d="M47.74,22.5c-.29-.21-.48-.3-.65-.37-.24-.11-.49-.21-.73-.57-.31-.47-.31-.91-.31-1.23,0-.28,0-.38-.1-.49-.06-.06-.09-.07-.27-.12-.24-.05-.57-.13-1.01-.43-.45-.31-.73-.65-.95-.93-.27-.35-.58-.74-.78-1.36-.08-.24-.28-.87-.12-1.63,.09-.45,.26-.73,.39-.94,.12-.2,.12-.21,.11-.24-.03-.13-.22-.29-.47-.49-.16-.13-.27-.19-.36-.24-.16-.09-.33-.18-.49-.44-.18-.29-.18-.55-.18-.8,0-.11,0-.25-.02-.42-.03-.24-.07-.48-.13-.73H3.1c0,.35-.06,.7-.14,1.04-.08,.34-.18,.59-.27,.79-.11,.27-.12,.32-.1,.39,.01,.04,.03,.06,.22,.16,.22,.11,.56,.28,.79,.7,.31,.56,.2,1.13-.01,2.17-.1,.5-.18,.89-.42,1.39-.18,.36-.34,.57-.45,.71-.1,.13-.1,.13-.11,.17-.01,.23,.3,.56,.73,1.02,.2,.22,.33,.32,.43,.4,.14,.11,.27,.22,.4,.46,.27,.49,.22,.9,.17,1.29-.02,.2-.05,.42-.04,.69,.03,.67,.28,1.14,.7,1.93,.21,.4,.37,.61,.53,.83,.2,.26,.4,.53,.67,1.08,.36,.72,.56,1.11,.62,1.68,.09,.82-.15,1.45-.33,1.91-.04,.1-.08,.22-.11,.31,.06,0,.16-.02,.23-.03,.33-.03,.84-.08,1.14,.34,.25,.36,.12,.73,.03,.97-.08,.21-.12,.35-.08,.52,.02,.1,.05,.12,.18,.23,.16,.13,.37,.31,.55,.69,.18,.38,.16,.65,.13,1.02-.02,.24-.04,.56-.02,1.07,.01,.43,.05,.65,.07,.79,.03,.21,.05,.35-.02,.61-.14,.6-.49,1-.71,1.26-.02,.02-.04,.05-.07,.08,.16,.07,.37,.18,.59,.41,.2,.2,.35,.45,.45,.73,14.66,.03,28.26,.05,29.14,0,.06,0,.12,0,.18,0,.47,0,.86,.12,1.17,.36,.4,.31,.54,.73,.6,.9,.14,.42,.4,.84,.77,1.27,.13-.36,.17-.69,.1-.98-.03-.15-.09-.28-.13-.4-.12-.32-.28-.72-.09-1.17,.16-.38,.5-.53,.89-.7,.54-.24,.94-.39,1.24-.5,.46-.17,.55-.21,.62-.32t.03-.12c.01-.15,.03-.37,.18-.75,.15-.36,.3-.56,.41-.71,.09-.12,.15-.2,.21-.36,.16-.41,.19-.8,.07-1.06-.1-.21-.27-.32-.47-.45-.25-.15-.62-.39-.64-.87-.02-.4,.23-.63,.41-.8,.14-.13,.28-.26,.4-.51,.08-.17,.09-.26,.1-.38,.01-.13,.03-.31,.14-.52,.31-.62,.89-.74,1.56-.88,.39-.08,.83-.17,1.36-.37,.7-.27,1.66-.63,1.93-1.35,.07-.19,.07-.29,.07-.48,0-.2,0-.47,.09-.9,.12-.56,.36-.88,.53-1.12,.15-.2,.2-.27,.19-.42,0-.14-.37-.65-.7-1.09-.69-.93-1.03-1.4-1.47-1.73Z" fill="#ffcd00" stroke-width="0"/><path d="M48.52,22.13c-.75-1.01-1.12-1.52-1.68-1.94-.38-.28-.65-.4-.85-.49-.19-.08-.22-.1-.3-.21-.14-.21-.14-.41-.14-.67,0-.32,0-.77-.36-1.17-.27-.3-.56-.36-.79-.42-.2-.04-.38-.09-.67-.28-.33-.23-.53-.48-.73-.73-.24-.3-.47-.59-.61-1.04-.06-.19-.2-.63-.1-1.13,.06-.28,.16-.44,.26-.62,.15-.25,.33-.55,.22-1-.11-.45-.43-.71-.8-1.02-.22-.19-.39-.28-.51-.35-.11-.06-.11-.06-.13-.09-.03-.04-.03-.07-.03-.27,0-.14,0-.32-.02-.54-.05-.42-.14-.85-.27-1.27-.07-.21-.26-.35-.48-.35H1.08c-.14,0-.27,.06-.37,.16-.09,.1-.14,.24-.13,.38,.03,.43,0,.86-.1,1.26-.07,.28-.15,.49-.22,.66-.13,.32-.26,.65-.13,1.06,.14,.45,.49,.63,.72,.74,.19,.09,.29,.15,.37,.29,.13,.23,.06,.62-.12,1.49-.09,.46-.15,.76-.34,1.14-.13,.26-.24,.4-.34,.52-.14,.18-.31,.38-.32,.74-.03,.66,.4,1.12,1,1.76,.25,.27,.41,.4,.53,.49,.11,.09,.12,.09,.16,.17,.11,.19,.09,.34,.05,.68-.03,.23-.06,.51-.05,.86,.04,.89,.36,1.5,.81,2.36,.25,.47,.44,.73,.62,.96,.18,.24,.34,.45,.58,.93,.33,.65,.47,.95,.52,1.34,.06,.58-.11,1.04-.27,1.45-.17,.44-.36,.94,.01,1.36,.33,.36,.81,.31,1.13,.28,.04,0,.08,0,.12-.01-.09,.25-.22,.62-.11,1.09,.1,.42,.34,.62,.51,.76,.12,.1,.2,.17,.28,.34,.07,.15,.07,.21,.04,.53-.02,.26-.04,.61-.03,1.17,.02,.49,.05,.74,.08,.9q.02,.15,0,.23c-.09,.36-.3,.61-.5,.84-.23,.27-.54,.63-.36,1.1,.12,.32,.4,.44,.57,.51,.13,.05,.24,.1,.35,.22,.15,.15,.25,.36,.29,.63,.04,.24,.25,.41,.49,.41,17.13,.04,28.72,.05,29.6,0,.11,0,.43-.03,.66,.15,.16,.13,.23,.31,.28,.46,.24,.7,.75,1.43,1.5,2.15,.09,.09,.22,.14,.35,.14,.02,0,.04,0,.07,0,.15-.02,.28-.11,.36-.24,.5-.84,.68-1.61,.52-2.32-.04-.19-.11-.37-.18-.54-.08-.22-.13-.35-.12-.4,.05-.05,.3-.16,.39-.2,.52-.23,.9-.37,1.18-.48,.52-.19,.87-.32,1.12-.72,.16-.25,.17-.44,.18-.58,0-.11,.02-.21,.11-.45,.1-.24,.19-.35,.28-.48,.11-.14,.24-.31,.35-.59,.27-.67,.29-1.32,.05-1.84-.22-.49-.6-.73-.86-.89-.03-.02-.07-.04-.1-.07l.02-.02c.17-.16,.41-.39,.62-.81,.16-.33,.18-.55,.2-.71,0-.1,.01-.13,.04-.17,.08-.17,.29-.23,.87-.35,.41-.08,.91-.19,1.51-.42,.83-.31,2.08-.79,2.51-1.92,.14-.37,.14-.6,.14-.84,0-.18,0-.36,.07-.69,.08-.35,.21-.53,.36-.73,.18-.24,.4-.53,.39-1.02,0-.47-.3-.87-.9-1.68Zm-.29,2.11c-.17,.23-.41,.55-.53,1.12-.09,.43-.09,.7-.09,.9s0,.28-.07,.48c-.27,.71-1.23,1.08-1.93,1.35-.52,.2-.97,.29-1.36,.37-.67,.14-1.26,.26-1.56,.88-.11,.22-.12,.39-.14,.52-.01,.12-.02,.2-.1,.38-.12,.25-.26,.39-.4,.51-.18,.17-.42,.4-.41,.8,.02,.48,.4,.71,.64,.87,.2,.13,.38,.24,.47,.45,.12,.27,.09,.65-.07,1.06-.06,.16-.12,.24-.21,.36-.12,.15-.27,.35-.41,.71-.16,.38-.17,.6-.18,.75q0,.08-.03,.12c-.07,.11-.16,.15-.62,.32-.3,.11-.7,.26-1.24,.5-.39,.18-.73,.33-.89,.7-.19,.44-.03,.84,.09,1.17,.05,.12,.1,.26,.13,.4,.07,.29,.03,.61-.1,.98-.37-.43-.63-.86-.77-1.27-.06-.18-.2-.6-.6-.9-.31-.24-.7-.36-1.17-.36-.06,0-.12,0-.18,0-.88,.05-14.47,.03-29.14,0-.1-.28-.25-.53-.45-.73-.22-.22-.43-.33-.59-.41,.02-.03,.05-.05,.07-.08,.23-.26,.57-.66,.71-1.26,.06-.26,.05-.4,.02-.61-.02-.14-.05-.36-.07-.79-.02-.51,0-.83,.02-1.07,.03-.37,.05-.64-.13-1.02-.17-.37-.39-.55-.55-.69-.13-.11-.15-.13-.18-.23-.04-.17,0-.31,.08-.52,.09-.24,.22-.61-.03-.97-.3-.43-.8-.37-1.14-.34-.07,0-.16,.02-.23,.03,.03-.09,.07-.21,.11-.31,.18-.46,.42-1.09,.33-1.91-.06-.57-.26-.96-.62-1.68-.27-.55-.48-.82-.67-1.08-.16-.22-.32-.42-.53-.83-.42-.79-.67-1.27-.7-1.93-.01-.28,.02-.5,.04-.69,.05-.4,.1-.81-.17-1.29-.13-.24-.26-.35-.4-.46-.1-.08-.22-.18-.43-.4-.43-.46-.74-.79-.73-1.02,0-.04,0-.04,.11-.17,.11-.14,.28-.35,.45-.71,.24-.5,.32-.89,.42-1.39,.21-1.04,.32-1.61,.01-2.17-.23-.42-.57-.59-.79-.7-.19-.1-.21-.11-.22-.16-.02-.06,0-.12,.1-.39,.08-.2,.18-.45,.27-.79,.08-.34,.13-.69,.14-1.04H40.16c.06,.24,.11,.49,.13,.73,.02,.17,.02,.31,.02,.42,0,.25,0,.51,.18,.8,.16,.25,.33,.35,.49,.44,.09,.05,.2,.11,.36,.24,.24,.2,.44,.36,.47,.49,0,.03,.01,.04-.11,.24-.12,.21-.3,.49-.39,.94-.15,.75,.05,1.39,.12,1.63,.2,.62,.51,1.01,.78,1.36,.22,.28,.49,.62,.95,.93,.44,.3,.77,.38,1.01,.43,.19,.04,.22,.05,.27,.12,.09,.1,.1,.2,.1,.49,0,.32,0,.76,.31,1.23,.24,.36,.49,.47,.73,.57,.17,.07,.36,.16,.65,.37,.44,.33,.79,.79,1.47,1.73,.33,.45,.7,.95,.7,1.09,0,.15-.05,.22-.19,.42Z" stroke-width="0"/></g></g><g id="uuid-31328f6c-7654-468c-84f2-e7e0ae3bdc14"></g></svg>