<?xml version="1.0" encoding="UTF-8"?><svg width="70" height="70" xmlns="http://www.w3.org/2000/svg" viewBox="-10 -10 70 70"><rect x="-10" y="-10" width="70" height="70" fill="white"/><g id="uuid-d66cf5d5-6aaa-4c4f-a0ee-c3c17313ac9b"><g><path d="M25.4,41.32c-3.96-3.15-6.46-7.65-7.04-12.68-1.19-10.38,6.29-19.79,16.66-20.98,3.67-.42,7.37,.28,10.71,1.98-4.39-4.36-10.26-6.78-16.46-6.78-.91,0-1.82,.05-2.74,.16C13.67,4.5,4.4,16.18,5.87,29.05c.71,6.24,3.82,11.82,8.73,15.73,4.91,3.9,11.06,5.66,17.29,4.95,5.28-.61,10.07-2.91,13.78-6.56-1.77,.94-4.03,1.89-6.33,2.15-5.03,.58-9.98-.84-13.94-3.99Z" fill="#ffcd00" stroke-width="0"/><path d="M38.56,23.83l-1.96-5.01-1.96,5.01c-.07,.18-.24,.31-.44,.32l-5.37,.31,4.16,3.41c.15,.12,.22,.32,.17,.51l-1.36,5.2,4.53-2.9c.17-.11,.38-.11,.54,0l4.53,2.9-1.36-5.2c-.05-.19,.02-.39,.17-.51l4.16-3.41-5.37-.31c-.19-.01-.37-.14-.44-.32Z" fill="#ffcd00" stroke-width="0"/><path d="M44.4,22.13c-.06-.2-.24-.33-.45-.34l-6.33-.37-2.31-5.9c-.15-.38-.78-.38-.93,0l-2.31,5.9-6.33,.37c-.21,.01-.38,.15-.45,.34-.06,.2,0,.41,.16,.54l4.9,4.02-1.6,6.13c-.05,.2,.02,.41,.19,.53,.17,.12,.39,.13,.56,.02l5.33-3.42,5.34,3.42c.08,.05,.18,.08,.27,.08,.1,0,.21-.03,.29-.1,.17-.12,.24-.33,.19-.53l-1.6-6.13,4.9-4.02c.16-.13,.22-.35,.16-.54Zm-5.94,3.99c-.15,.12-.22,.32-.17,.51l1.36,5.2-4.53-2.9c-.17-.11-.38-.11-.54,0l-4.53,2.9,1.36-5.2c.05-.19-.02-.39-.17-.51l-4.16-3.41,5.37-.31c.19-.01,.37-.14,.44-.32l1.96-5.01,1.96,5.01c.07,.18,.24,.31,.44,.32l5.37,.31-4.16,3.41Z" stroke-width="0"/><path d="M46.94,38.93c-.16-.22-.46-.28-.69-.13-.02,.01-.04,.03-.06,.04-1.43,1.01-5.05,3.3-8.72,3.72-4.76,.55-9.45-.8-13.2-3.78-3.75-2.98-6.12-7.25-6.67-12.01-1.13-9.83,5.95-18.74,15.78-19.87,4.44-.51,8.96,.72,12.71,3.47,.15,.11,.4,.1,.56,.03,.14-.06,.24-.19,.28-.33s0-.31-.09-.43C41.56,2.8,33.27-.7,24.68,.29,11.26,1.82,1.59,13.99,3.13,27.42c1.43,12.48,12.05,21.71,24.32,21.71,.93,0,1.87-.05,2.81-.16,6.63-.76,12.53-4.09,16.61-9.37,.19-.17,.22-.45,.08-.66Zm-16.8,9.04c-6.23,.71-12.38-1.04-17.29-4.95-4.92-3.9-8.02-9.49-8.73-15.73C2.65,14.43,11.92,2.75,24.79,1.28c.92-.1,1.83-.16,2.74-.16,6.2,0,12.06,2.42,16.46,6.78-3.33-1.71-7.04-2.4-10.71-1.98-10.38,1.19-17.85,10.6-16.66,20.98,.58,5.03,3.08,9.53,7.04,12.68,3.96,3.15,8.91,4.57,13.94,3.99,2.3-.26,4.56-1.21,6.33-2.15-3.71,3.66-8.5,5.96-13.78,6.56Z" stroke-width="0"/></g></g><g id="uuid-528a869d-c21e-482a-91f7-890e5a0b0129"></g></svg>