<?xml version="1.0" encoding="utf-8"?> <!-- Generator: Adobe Illustrator 27.7.0, SVG Export Plug-In . SVG Version: 6.00 Build 0) --> <svg width="70" height="70" version="1.1" xmlns="http://www.w3.org/2000/svg" xmlns:xlink="http://www.w3.org/1999/xlink" x="0px" y="0px" viewBox="-10 -10 70 70" style="enable-background:new 0 0 50 50;" xml:space="preserve"><rect x="-10" y="-10" width="70" height="70" fill="white"/> <style type="text/css"> .st0{fill:#FFCD00;} .st1{display:none;} .st2{display:inline;fill:none;stroke:#EA008A;stroke-width:0.2;stroke-miterlimit:10;} .st3{font-family:'Roboto-Regular';} .st4{font-size:6px;} </style> <g id="Color"> <path class="st0" d="M43.7803,42.3081c-0.9395,0-1.7031-0.7637-1.7031-1.7026s0.7637-1.7031,1.7031-1.7031 c0.9385,0,1.7021,0.7642,1.7021,1.7031S44.7188,42.3081,43.7803,42.3081z" stroke-width="0"/> <path class="st0" d="M8.9014,12.5781c-0.7461,0-1.4834,0.0708-2.1934,0.1675c1.0693-1.9399,3.2617-2.3691,5.0273-1.8896 c0.1709,0.0469,0.3584-0.002,0.4844-0.1284c0.127-0.127,0.1758-0.3115,0.1289-0.4844c-0.4785-1.7705-1.707-2.793-3.1201-3.5352 c2.5469-0.6758,4.6094-0.1836,5.8867,1.4346c0.1309,0.1665,0.3525,0.2314,0.5527,0.1641s0.3359-0.2539,0.3398-0.4653 c0.0205-1.2495,0.8174-2.4634,2.1299-3.248c1.0244-0.6123,2.1465-0.8403,3.0977-0.6504c-0.9912,1.0386-1.3086,2.5684-0.9023,4.4199 l-7.6455,5.0293C11.4502,12.7793,10.1621,12.5781,8.9014,12.5781z" stroke-width="0"/> <path class="st0" d="M8.5586,22.8398c-0.4414,0.1001-0.8994,0.019-1.2832-0.2246c-0.3848-0.2437-0.6504-0.6226-0.749-1.0664 c0,0,0,0,0-0.0005C6.4268,21.105,6.5059,20.6489,6.75,20.2651c0.2441-0.3843,0.6221-0.6504,1.0664-0.7495 c0.124-0.0278,0.248-0.041,0.3711-0.041c0.7803,0,1.4854,0.54,1.6621,1.3315C10.0537,21.7227,9.4756,22.6353,8.5586,22.8398z" stroke-width="0"/> <path class="st0" d="M35.8516,16.7646c-0.1748-0.7949-0.8809-1.3389-1.6631-1.3389c-0.1211,0-0.2422,0.0132-0.3643,0.0396 c-0.918,0.2017-1.501,1.1113-1.2998,2.0283c0.1072,0.4884,0.4177,0.8765,0.8207,1.1073c-0.9816-0.0435-1.8489-0.7285-2.0689-1.7308 c-0.2625-1.1965,0.4982-2.3834,1.6959-2.6465c0.1593-0.0344,0.3173-0.0516,0.4753-0.0516c0.1008,0,0.1995,0.0122,0.2977,0.0257 v-1.3701c0-1.5151-1.2324-2.748-2.748-2.748h-6.8512h-0.2853H22.923l0.3849,0.5439l0.208,0.5596 c0.894,0.9899,1.4391,2.283,1.4391,3.6747c0,3.0571-2.4873,5.5444-5.5449,5.5444c-1.4877,0-2.8352-0.5937-3.8308-1.5517 l-0.4149-0.1317l-0.9032-0.7401v10.1906H13.46v20.5742h21.5098V28.1694h-1.2246V18.765c0.2559,0.0696,0.5294,0.0877,0.8066,0.0275 c0.4453-0.0977,0.8252-0.3618,1.0703-0.7451C35.8672,17.6646,35.9492,17.209,35.8516,16.7646z M24.2148,45.9575 c-4.1357,0-7.501-3.3647-7.501-7.501s3.3652-7.501,7.501-7.501s7.501,3.3647,7.501,7.501S28.3506,45.9575,24.2148,45.9575z" stroke-width="0"/> </g> <g id="ICONS_00000031165542127692736420000002692518830807990202_"> <g> <circle cx="19.7875" cy="12.7324" r="0.9815"/> <circle cx="16.1083" cy="14.096" r="0.9815"/> </g> <g> <path d="M43.0303,37.1523c-1.3191,0-2.4168,0.951-2.6525,2.2031h-1.1522c-0.6572,0-1.1924-0.5352-1.1924-1.1929v-3.4692 c0-1.209-0.9834-2.1924-2.1924-2.1924h-1.3711v-6.3315c0-0.2764-0.2236-0.5-0.5-0.5h-0.7246v-6.6039 c0.064,0.0046,0.1266,0.0165,0.1914,0.0165c0.1914,0,0.3857-0.0205,0.5801-0.063c0.7051-0.1543,1.3076-0.5742,1.6973-1.1821 s0.5195-1.3311,0.3643-2.0361c-0.2901-1.3273-1.5154-2.1996-2.833-2.1061v-2.3671c0-2.0669-1.6816-3.748-3.748-3.748h-8.5107 c-0.0087,0-0.0158,0.0045-0.0244,0.0049c-0.2302-0.1226-0.4714-0.2245-0.718-0.3193c-0.3495-1.3807-0.4243-3.2032,1.1379-4.2052 c0.1494-0.0967,0.2373-0.2656,0.2285-0.4443C21.6025,2.4375,21.5,2.2769,21.3408,2.1948 c-1.3711-0.7085-3.2256-0.5503-4.8408,0.415c-1.2461,0.7446-2.1133,1.8267-2.4561,3.0181 C12.2588,4.0723,9.6504,3.854,6.5684,5.0332C6.3779,5.106,6.251,5.2871,6.2471,5.4912C6.2432,5.6948,6.3643,5.8804,6.5518,5.96 c1.8398,0.7822,2.8711,1.562,3.4102,2.6328c-2.293-0.2534-4.7705,0.7866-5.6689,3.5c-0.0547,0.166-0.0195,0.3486,0.0947,0.4819 c0.1133,0.1328,0.2842,0.1992,0.4609,0.1689c2.0566-0.3369,4.4229-0.5986,6.5029,0.541c0.0057,0.0031,0.0123,0.0018,0.0181,0.0046 c-0.0002,0.0231-0.0034,0.0454-0.0034,0.0686c0,1.1472,0.2987,2.225,0.8193,3.1635v5.0253l-2.0795-0.7426 c0.0448-0.3138,0.043-0.6389-0.0299-0.9662C9.75,18.3838,8.3076,17.4624,6.8477,17.79c-0.7041,0.1572-1.3047,0.5796-1.6914,1.189 c-0.3877,0.6099-0.5137,1.3335-0.3564,2.0381c0.1572,0.7046,0.5801,1.3057,1.1895,1.6924 c0.4385,0.2783,0.9355,0.4219,1.4434,0.4219c0.1973,0,0.3965-0.0215,0.5947-0.0659c0.7765-0.1732,1.3918-0.6713,1.7552-1.3154 l2.403,0.858v3.0614H11.46c-0.2764,0-0.5,0.2236-0.5,0.5v21.5742c0,0.2764,0.2236,0.5,0.5,0.5h22.5098 c0.2764,0,0.5-0.2236,0.5-0.5V33.501h1.3711c0.6572,0,1.1924,0.5347,1.1924,1.1924v3.4692c0,1.209,0.9834,2.1929,2.1924,2.1929 h1.1522c0.2358,1.2516,1.3335,2.2026,2.6525,2.2026c1.4902,0,2.7021-1.2124,2.7021-2.7026 C45.7324,38.3647,44.5205,37.1523,43.0303,37.1523z M7.8086,22.0898c-0.4414,0.1001-0.8994,0.019-1.2832-0.2246 c-0.3848-0.2437-0.6504-0.6226-0.749-1.0664c0,0,0,0,0-0.0005C5.6768,20.355,5.7559,19.8989,6,19.5151 c0.2441-0.3843,0.6221-0.6504,1.0664-0.7495c0.124-0.0278,0.248-0.041,0.3711-0.041c0.7803,0,1.4854,0.54,1.6621,1.3315 C9.3037,20.9727,8.7256,21.8853,7.8086,22.0898z M32.2451,18.833v6.8364h-3.0642c-0.4783-1.038-1.1808-1.9193-2.0366-2.6083 l4.7176-4.4969c0.1235,0.0889,0.2535,0.1667,0.3902,0.2338C32.2513,18.8102,32.2451,18.8206,32.2451,18.833z M22.6055,22.4468 c2.2929,0,4.3598,1.2503,5.4537,3.2227H17.147C18.2397,23.6933,20.3029,22.4468,22.6055,22.4468z M33.4385,14.6758 c0.7822,0,1.4883,0.5439,1.6631,1.3389c0.0977,0.4443,0.0156,0.8999-0.2295,1.2827c-0.2451,0.3833-0.625,0.6475-1.0703,0.7451 c-0.9199,0.1997-1.8262-0.3823-2.0273-1.2988c-0.2012-0.917,0.3818-1.8267,1.2998-2.0283 C33.1963,14.689,33.3174,14.6758,33.4385,14.6758z M29.4971,8.5796c1.5156,0,2.748,1.2329,2.748,2.748v2.6353 c-1.0872,0.5376-1.7185,1.7587-1.4473,2.9946c0.0712,0.3251,0.2002,0.6223,0.3711,0.8865l-4.8066,4.5818 c-0.0186,0.0176-0.027,0.0407-0.0422,0.0603c-1.1011-0.658-2.3721-1.0393-3.7146-1.0393c-0.1914,0-0.3766,0.0276-0.565,0.0422 l-0.9418-2.4212c1.9998-1.1212,3.3564-3.259,3.3564-5.7098c0-1.8467-0.7986-3.564-2.0945-4.7783H29.4971z M12.3662,13.3579 c0-0.1477,0.0102-0.2925,0.0212-0.4371l7.3011-4.8022c2.2248,0.7563,3.7665,2.8727,3.7665,5.2393 c0,3.0571-2.4873,5.5444-5.5449,5.5444C14.8535,18.9023,12.3662,16.415,12.3662,13.3579z M7.7764,11.4531 c-0.7461,0-1.4834,0.0708-2.1934,0.1675c1.0693-1.9399,3.2617-2.3691,5.0273-1.8896c0.1709,0.0469,0.3584-0.002,0.4844-0.1284 c0.127-0.127,0.1758-0.3115,0.1289-0.4844c-0.4785-1.7705-1.707-2.793-3.1201-3.5352c2.5469-0.6758,4.6094-0.1836,5.8867,1.4346 c0.1309,0.1665,0.3525,0.2314,0.5527,0.1641s0.3359-0.2539,0.3398-0.4653c0.0205-1.2495,0.8174-2.4634,2.1299-3.248 c1.0244-0.6123,2.1465-0.8403,3.0977-0.6504c-0.9912,1.0386-1.3086,2.5684-0.9023,4.4199l-7.6455,5.0293 C10.3252,11.6543,9.0371,11.4531,7.7764,11.4531z M13.1855,17.8738c1.1922,1.247,2.8673,2.0285,4.7246,2.0285 c0.8021,0,1.5675-0.1521,2.2783-0.4174l0.8376,2.1536c-1.3066,0.2894-2.493,0.9214-3.4421,1.8357l-4.3984-1.5705V17.8738z M13.1855,22.9651l3.6804,1.3141c-0.3254,0.4241-0.6015,0.8907-0.8317,1.3902h-2.8487V22.9651z M33.4697,47.2437H11.96V26.6694 h21.5098V47.2437z M43.0303,41.5581c-0.9395,0-1.7031-0.7637-1.7031-1.7026s0.7637-1.7031,1.7031-1.7031 c0.9385,0,1.7021,0.7642,1.7021,1.7031S43.9688,41.5581,43.0303,41.5581z" stroke-width="0"/> <path d="M22.7148,28.9556c-4.4121,0-8.001,3.5894-8.001,8.001s3.5889,8.001,8.001,8.001s8.001-3.5894,8.001-8.001 S27.127,28.9556,22.7148,28.9556z M22.7148,43.9575c-3.8604,0-7.001-3.1406-7.001-7.001s3.1406-7.001,7.001-7.001 s7.001,3.1406,7.001,7.001S26.5752,43.9575,22.7148,43.9575z" stroke-width="0"/> </g> </g> <g id="Margin" class="st1"> <rect x="1" y="1" class="st2" /> </g> <g id="Guides" class="st1"> </g> <g id="LABELS"> <g> </g> </g> </svg> 