<?xml version="1.0" encoding="utf-8"?> <!-- Generator: Adobe Illustrator 27.7.0, SVG Export Plug-In . SVG Version: 6.00 Build 0) --> <svg width="70" height="70" version="1.1" xmlns="http://www.w3.org/2000/svg" xmlns:xlink="http://www.w3.org/1999/xlink" x="0px" y="0px" viewBox="-10 -10 70 70" style="enable-background:new 0 0 50 50;" xml:space="preserve"><rect x="-10" y="-10" width="70" height="70" fill="white"/> <style type="text/css"> .st0{fill:#FFCD00;} .st1{display:none;} .st2{display:inline;fill:none;stroke:#EA008A;stroke-width:0.2;stroke-miterlimit:10;} .st3{font-family:'Roboto-Regular';} .st4{font-size:6px;} </style> <g id="Color"> <path class="st0" d="M21.6382,4.3701l1.1958,0.7207c0.1592,0.0957,0.3574,0.0957,0.5166,0l1.3272-0.7207v3.8173 c-1.06-0.3423-2.0332-0.6595-3.0396-0.9484V4.3701z" stroke-width="0"/> <path class="st0" d="M3.2563,37.1143l20.1416,0.3232c-5.2407-1.8906-12.127-3.3145-17.6694-2.7393 c-0.1436,0.0146-0.2812-0.0312-0.3867-0.126c-0.105-0.0947-0.165-0.2295-0.165-0.3711V9.8535H3.2563V37.1143z" stroke-width="0"/> <path class="st0" d="M48.9937,9.8535h-1.9204v24.9648c0,0.2529-0.189,0.4658-0.4404,0.4961l-10.8986,1.3109l5.6984-6.4661 l1.271-3.8535l-3.6631,1.7451L23.5723,45.6035l2.3926,2.1074l9.3454-10.6045h13.6834V9.8535z" stroke-width="0"/> </g> <g id="ICONS_00000031165542127692736420000002692518830807990202_"> <g> <path d="M48.3687,7.7285h-2.4204V5.4404c0-0.1445-0.0625-0.2812-0.1714-0.377c-0.1084-0.0957-0.2549-0.1377-0.396-0.1182 L25.0708,7.7139C24.8601,7.623,24.6383,7.537,24.4209,7.449V2.3594c0-0.1807-0.0972-0.3467-0.2544-0.4355 c-0.1567-0.0889-0.3501-0.085-0.5039,0.0078l-1.6953,1.0225l-1.6958-1.0225c-0.1548-0.0928-0.3472-0.0967-0.5039-0.0078 c-0.1572,0.0889-0.2544,0.2549-0.2544,0.4355v3.4802c-5.124-1.351-10.8587-1.9779-15.0176-1.5134 C4.2427,4.3545,4.0518,4.5684,4.0518,4.8232v2.9053H1.6313c-0.2764,0-0.5,0.2236-0.5,0.5v28.2529c0,0.2764,0.2236,0.5,0.5,0.5H25 h2.7211l-6.3544,7.2109c-0.0879,0.0996-0.1323,0.2305-0.124,0.3623c0.0083,0.1328,0.0688,0.2559,0.1685,0.3438l1.1963,1.0539 l-1.1968,1.3582c-0.1826,0.207-0.1626,0.5225,0.0444,0.7051c0.0952,0.084,0.2129,0.125,0.3306,0.125 c0.1382,0,0.2764-0.0576,0.375-0.1699l1.1965-1.3579l1.1966,1.0542c0.0952,0.084,0.2129,0.125,0.3306,0.125 c0.1382,0,0.2764-0.0576,0.375-0.1689l6.6513-7.5474c0.0002-0.0002,0.0004-0.0002,0.0005-0.0004s0.0002-0.0005,0.0004-0.0007 l2.7258-3.0931h13.7313c0.2764,0,0.5-0.2236,0.5-0.5V8.2285C48.8687,7.9521,48.645,7.7285,48.3687,7.7285z M20.5132,3.2451 l1.1958,0.7207c0.1592,0.0957,0.3574,0.0957,0.5166,0l1.1953-0.7207v3.8173c-0.9282-0.3423-1.9014-0.6595-2.9077-0.9484V3.2451z M23.7184,8.2397c0.0059,0.0026,0.0115,0.0048,0.0175,0.0072c0.261,0.1025,0.5125,0.2091,0.7642,0.3157v27.1859 c-5.8536-2.4008-13.6252-3.6874-19.4482-3.2026V5.2754C10.3661,4.7869,18.0766,6.0276,23.7184,8.2397z M2.1313,8.7285h1.9204 v24.3477c0,0.0089,0.0046,0.0162,0.005,0.025c0.0004,0.0092-0.0035,0.0175-0.0026,0.0268 c0.0027,0.0264,0.0161,0.0481,0.0227,0.073c0.0082,0.0314,0.0145,0.0624,0.0283,0.091c0.015,0.0311,0.0355,0.0566,0.0563,0.0836 c0.0182,0.0237,0.0344,0.0475,0.0565,0.0677c0.0257,0.0234,0.0551,0.0398,0.0852,0.0574c0.0253,0.0149,0.0489,0.0306,0.0769,0.041 c0.0324,0.012,0.0665,0.0155,0.1014,0.0204c0.0239,0.0035,0.0453,0.0142,0.0703,0.0142c0.0093,0,0.017-0.0048,0.0262-0.0053 c0.0088-0.0005,0.0167,0.0034,0.0256,0.0024c5.1598-0.5317,12.0963,0.4426,17.7301,2.4082H2.1313V8.7285z M25.5,35.9814V8.6647 l19.4482-2.651V33.25l-7.8553,0.9451l4.0326-4.5759c0.0462-0.0526,0.079-0.1122,0.0995-0.1747 c0-0.0001,0.0001-0.0001,0.0001-0.0001l1.6694-5.0615c0.063-0.1895,0.0063-0.3994-0.144-0.5312 c-0.1509-0.1328-0.3652-0.1631-0.5454-0.0762l-4.812,2.292c-0.0001,0.0001-0.0001,0.0001-0.0002,0.0002 c-0.0592,0.0281-0.1138,0.0679-0.1599,0.1199l-8.6306,9.7939H25.5z M31.4913,39.0383l-2.276-2.006 c-0.0411-0.0363-0.0888-0.0585-0.1366-0.0789l8.5738-9.7292l2.3922,2.1083L31.4913,39.0383z M40.5128,28.4122l-2.0062-1.768 l3.072-1.4636L40.5128,28.4122z M24.8398,46.5859l-2.3926-2.1074l6.0117-6.8218c0.0262,0.0448,0.0541,0.0893,0.0952,0.1255 l2.2761,2.0062L24.8398,46.5859z M47.8687,35.9814h-12.35l0.5821-0.6605l9.4071-1.1315c0.2515-0.0303,0.4404-0.2432,0.4404-0.4961 V8.7285h1.9204V35.9814z" stroke-width="0"/> <path d="M9.0679,11.082c4.3564,0.0654,8.7842,1.1875,12.1553,2.1572c0.0459,0.0137,0.0928,0.0195,0.1382,0.0195 c0.2173,0,0.4175-0.1426,0.4805-0.3613c0.0762-0.2656-0.0767-0.543-0.3423-0.6191c-3.4307-0.9873-7.9419-2.1289-12.417-2.1963 c-0.2695-0.002-0.5034,0.2168-0.5073,0.4922C8.5713,10.8506,8.7915,11.0781,9.0679,11.082z" stroke-width="0"/> <path d="M9.0679,15.2393c4.3564,0.0654,8.7842,1.1875,12.1553,2.1572c0.0459,0.0137,0.0928,0.0195,0.1382,0.0195 c0.2173,0,0.4175-0.1426,0.4805-0.3613c0.0762-0.2656-0.0767-0.543-0.3423-0.6191c-3.4307-0.9873-7.9419-2.1289-12.417-2.1963 c-0.2695,0.0264-0.5034,0.2168-0.5073,0.4922C8.5713,15.0078,8.7915,15.2354,9.0679,15.2393z" stroke-width="0"/> <path d="M9.0674,19.3955c4.3633,0.0664,8.7881,1.1885,12.1558,2.1582c0.0459,0.0137,0.0928,0.0195,0.1382,0.0195 c0.2173,0,0.4175-0.1426,0.4805-0.3613c0.0767-0.2656-0.0767-0.543-0.3423-0.6191c-3.4268-0.9873-7.9355-2.1289-12.4165-2.1973 c-0.0029,0-0.0054,0-0.0078,0c-0.2729,0-0.4956,0.2188-0.5,0.4922C8.5713,19.1641,8.7915,19.3916,9.0674,19.3955z" stroke-width="0"/> <path d="M9.0679,23.5527c4.3564,0.0654,8.7842,1.1875,12.1553,2.1572c0.0459,0.0137,0.0928,0.0195,0.1382,0.0195 c0.2173,0,0.4175-0.1426,0.4805-0.3613c0.0762-0.2656-0.0767-0.543-0.3423-0.6191c-3.4307-0.9873-7.9419-2.1289-12.417-2.1963 c-0.2695-0.0254-0.5034,0.2158-0.5073,0.4922S8.7915,23.5488,9.0679,23.5527z" stroke-width="0"/> <path d="M9.0674,27.709c4.3574,0.0664,8.7852,1.1885,12.1558,2.1582c0.0459,0.0137,0.0928,0.0195,0.1382,0.0195 c0.2173,0,0.4175-0.1426,0.4805-0.3613c0.0762-0.2656-0.0767-0.543-0.3423-0.6191c-3.4302-0.9873-7.9414-2.1289-12.4165-2.1973 c-0.3252,0.0039-0.5039,0.2168-0.5078,0.4922C8.5713,27.4775,8.7915,27.7051,9.0674,27.709z" stroke-width="0"/> <path d="M28.9961,13.9189c0.022,0,0.0439-0.001,0.0664-0.0039l11.876-1.583c0.2739-0.0371,0.4663-0.2881,0.4297-0.5625 c-0.0366-0.2734-0.2861-0.4678-0.5615-0.4297l-11.876,1.583c-0.2739,0.0371-0.4663,0.2881-0.4297,0.5625 C28.5347,13.7363,28.749,13.9189,28.9961,13.9189z" stroke-width="0"/> <path d="M28.9961,18.0762c0.022,0,0.0439-0.001,0.0664-0.0039l11.876-1.583c0.2739-0.0371,0.4663-0.2881,0.4297-0.5625 c-0.0366-0.2734-0.2861-0.4639-0.5615-0.4297l-11.876,1.583c-0.2739,0.0371-0.4663,0.2881-0.4297,0.5625 C28.5347,17.8936,28.749,18.0762,28.9961,18.0762z" stroke-width="0"/> <path d="M41.3682,20.083c-0.0366-0.2734-0.2861-0.4648-0.5615-0.4297l-11.876,1.584c-0.2739,0.0371-0.4663,0.2881-0.4297,0.5625 c0.0337,0.251,0.248,0.4336,0.4951,0.4336c0.022,0,0.0439-0.001,0.0664-0.0039l11.876-1.584 C41.2124,20.6084,41.4048,20.3574,41.3682,20.083z" stroke-width="0"/> </g> </g> <g id="Margin" class="st1"> <rect x="1" y="1" class="st2" /> </g> <g id="Guides" class="st1"> </g> <g id="LABELS"> <g> <g> <g> <g> <g> <g> <g> <g> </g> </g> </g> </g> </g> </g> </g> </g> </g> </svg> 