<?xml version="1.0" encoding="UTF-8"?><svg width="70" height="70" id="uuid-13f12cf2-3aab-4675-af5e-a5a2678e1292" xmlns="http://www.w3.org/2000/svg" viewBox="-10 -10 70 70"><rect x="-10" y="-10" width="70" height="70" fill="white"/><path d="M41.57,30.28c-3.03,0-5.5,2.47-5.5,5.5s2.47,5.5,5.5,5.5,5.5-2.46,5.5-5.5-2.47-5.5-5.5-5.5Zm-6.5,5.5c0-3.58,2.91-6.5,6.5-6.5s6.5,2.92,6.5,6.5c0,1.45-1.33,3.97-1.34,3.98l-5.16,9.13-5.16-9.11c-.37-.71-1.34-2.79-1.34-4Z" fill="#ffcd00" stroke-width="0"/><path d="M4.01,7.78c0,2.48,2.02,4.5,4.5,4.5s4.5-2.02,4.5-4.5-2.02-4.5-4.5-4.5-4.5,2.02-4.5,4.5Zm-1,0c0-3.03,2.47-5.5,5.5-5.5s5.5,2.47,5.5,5.5c0,1.01-.82,2.79-1.14,3.38l-4.36,7.71-4.35-7.7c-.32-.6-1.15-2.37-1.15-3.39Z" fill="#ffcd00" stroke-width="0"/><g><path d="M38.17,49.38c0,.28-.22,.5-.5,.5h-1.99c-.28,0-.5-.22-.5-.5s.22-.5,.5-.5h1.99c.28,0,.5,.22,.5,.5Z" stroke-width="0"/><path d="M36.53,35.25c0,2.49,2.02,4.5,4.5,4.5s4.5-2.01,4.5-4.5-2.02-4.5-4.5-4.5-4.5,2.02-4.5,4.5Zm-1,0c0-3.03,2.47-5.5,5.5-5.5s5.5,2.47,5.5,5.5-2.47,5.5-5.5,5.5-5.5-2.46-5.5-5.5Z" stroke-width="0"/><path d="M41.03,28.75c-3.59,0-6.5,2.92-6.5,6.5,0,1.21,.97,3.29,1.34,4l5.16,9.11,5.16-9.13s1.34-2.53,1.34-3.98c0-3.58-2.92-6.5-6.5-6.5Zm-6.03,10.98c-.07-.13-1.47-2.78-1.47-4.48,0-4.13,3.36-7.5,7.5-7.5s7.5,3.37,7.5,7.5c0,1.7-1.41,4.35-1.47,4.47l-5.6,9.91c-.09,.15-.25,.25-.43,.25s-.35-.1-.44-.25l-5.59-9.9Z" stroke-width="0"/><path d="M33.69,48.88c.27,0,.5,.22,.5,.5s-.23,.5-.5,.5h-2c-.27,0-.5-.22-.5-.5s.23-.5,.5-.5h2Z" stroke-width="0"/><path d="M31.19,23.66c.06,.27-.11,.54-.38,.6-.03,.01-.07,.01-.1,.01-.23,0-.44-.16-.49-.39-.13-.59-.37-1.15-.71-1.66-.15-.23-.08-.54,.15-.69,.23-.16,.54-.09,.69,.14,.4,.61,.69,1.28,.84,1.99Z" stroke-width="0"/><path d="M31.28,25.82c-.11,.72-.34,1.41-.69,2.05-.1,.17-.27,.26-.44,.26-.08,0-.17-.02-.24-.06-.24-.14-.33-.44-.2-.68,.3-.53,.49-1.11,.58-1.71,.04-.27,.29-.46,.56-.42s.46,.29,.43,.56Z" stroke-width="0"/><path d="M29.7,48.88c.27,0,.5,.22,.5,.5s-.23,.5-.5,.5h-2c-.27,0-.5-.22-.5-.5s.23-.5,.5-.5h2Z" stroke-width="0"/><path d="M28.27,20.9c-.49-.36-1.03-.64-1.62-.81-.26-.09-.41-.36-.33-.63,.08-.26,.36-.41,.63-.33,.69,.21,1.34,.54,1.92,.97,.22,.17,.27,.48,.1,.7-.1,.13-.25,.2-.4,.2-.1,0-.21-.03-.3-.1Z" stroke-width="0"/><path d="M27.19,30.69c-.2,0-.39-.12-.46-.32-.1-.26,.03-.55,.28-.65,.57-.22,1.1-.53,1.56-.93,.21-.18,.52-.16,.7,.05,.19,.21,.16,.53-.05,.71-.55,.47-1.17,.85-1.85,1.11-.06,.02-.12,.03-.18,.03Z" stroke-width="0"/><path d="M25.71,48.88c.27,0,.5,.22,.5,.5s-.23,.5-.5,.5h-2c-.27,0-.5-.22-.5-.5s.23-.5,.5-.5h2Z" stroke-width="0"/><path d="M24.83,18.86c.28,0,.5,.22,.5,.49s-.22,.5-.5,.51h-1.99c-.28,0-.5-.21-.5-.49-.01-.28,.22-.5,.49-.5h2Z" stroke-width="0"/><path d="M25.75,30.57c0,.27-.22,.5-.49,.51h-2.01c-.27,.01-.49-.21-.5-.48,0-.28,.22-.51,.5-.51h2c.27-.01,.49,.2,.5,.48Z" stroke-width="0"/><path d="M21.72,48.88c.28,0,.5,.22,.5,.5s-.22,.5-.5,.5h-1.99c-.28,0-.5-.22-.5-.5s.22-.5,.5-.5h1.99Z" stroke-width="0"/><path d="M21.26,30.11c.27,0,.5,.22,.5,.5s-.22,.5-.5,.5l-1.99,.02c-.28,0-.5-.22-.5-.5-.01-.28,.22-.5,.49-.5l2-.02Z" stroke-width="0"/><path d="M20.85,19.88h-2c-.28,.01-.5-.21-.5-.49s.22-.5,.5-.5h1.99c.32-.03,.5,.21,.5,.49s-.22,.5-.49,.5Z" stroke-width="0"/><path d="M17.73,48.88c.28,0,.5,.22,.5,.5s-.22,.5-.5,.5h-1.99c-.28,0-.5-.22-.5-.5s.22-.5,.5-.5h1.99Z" stroke-width="0"/><path d="M17.27,30.14c.31,.01,.5,.22,.5,.5s-.22,.5-.49,.5l-2,.02c-.28,0-.5-.22-.5-.5s.22-.5,.49-.5l2-.02Z" stroke-width="0"/><path d="M17.35,19.4c.01,.28-.22,.5-.49,.5h-2c-.28,0-.5-.21-.5-.48s.22-.5,.5-.51h1.99c.28,0,.5,.21,.5,.49Z" stroke-width="0"/><path d="M12.87,19.93h-2c-.27,.01-.5-.21-.5-.49s.22-.5,.5-.5h2c.27-.01,.49,.21,.5,.48,0,.28-.23,.5-.5,.51Z" stroke-width="0"/><path d="M11.26,49.16c.05-.28,.31-.46,.58-.41,.52,.09,1.06,.13,1.59,.13h.31c.28,0,.5,.22,.5,.5s-.22,.5-.5,.5h-.31c-.59,0-1.18-.05-1.76-.15-.27-.04-.45-.3-.41-.57Z" stroke-width="0"/><path d="M13.29,31.17c-.63,.01-1.26,.09-1.88,.22-.03,.01-.07,.01-.1,.01-.23,0-.44-.15-.49-.39-.06-.27,.11-.53,.38-.59,.68-.15,1.38-.24,2.08-.25,.22,0,.5,.22,.5,.5,.01,.27-.21,.5-.49,.5Z" stroke-width="0"/><path d="M8.35,47.37c.52,.34,1.09,.64,1.67,.87,.26,.1,.39,.39,.28,.65-.07,.19-.26,.31-.46,.31-.06,0-.12-.01-.18-.03-.65-.26-1.28-.58-1.86-.97-.23-.15-.3-.46-.14-.69,.15-.23,.46-.3,.69-.14Z" stroke-width="0"/><path d="M7.4,32.13c.57-.41,1.18-.77,1.81-1.05,.25-.12,.55-.01,.66,.25,.12,.25,0,.54-.25,.66-.57,.26-1.12,.57-1.63,.95-.09,.06-.19,.09-.29,.09-.16,0-.31-.07-.41-.2-.16-.22-.11-.54,.11-.7Z" stroke-width="0"/><path d="M6.59,34.2c-.42,.47-.79,.99-1.1,1.53-.09,.16-.26,.25-.43,.25-.09,0-.17-.02-.25-.06-.24-.14-.32-.45-.19-.69,.35-.6,.76-1.17,1.23-1.69,.18-.21,.5-.23,.7-.04,.21,.18,.23,.5,.04,.7Z" stroke-width="0"/><path d="M5.72,44.7c.33,.53,.73,1.02,1.17,1.47,.2,.2,.19,.51,0,.71-.1,.09-.23,.14-.35,.14-.13,0-.26-.05-.36-.15-.49-.5-.93-1.05-1.31-1.64-.15-.23-.08-.54,.16-.69,.23-.14,.54-.08,.69,.16Z" stroke-width="0"/><path d="M4.47,7.25c0,1.93,1.57,3.5,3.5,3.5s3.5-1.57,3.5-3.5-1.57-3.5-3.5-3.5-3.5,1.57-3.5,3.5Zm-1,0c0-2.48,2.02-4.5,4.5-4.5s4.5,2.02,4.5,4.5-2.02,4.5-4.5,4.5S3.47,9.73,3.47,7.25Z" stroke-width="0"/><path d="M3.94,43.36c-.24-.66-.41-1.35-.5-2.04-.04-.28,.15-.53,.43-.56,.26-.05,.52,.15,.56,.42,.08,.63,.23,1.24,.45,1.83,.1,.26-.04,.55-.3,.64-.05,.02-.11,.03-.17,.03-.2,0-.39-.12-.47-.32Z" stroke-width="0"/><path d="M4.38,39.3c-.02,.26-.24,.46-.5,.46h-.04c-.27-.02-.48-.26-.45-.54,.05-.7,.19-1.39,.4-2.06,.08-.26,.35-.41,.62-.33,.26,.08,.41,.36,.33,.63-.19,.6-.31,1.22-.36,1.84Z" stroke-width="0"/><path d="M3.62,10.64l4.35,7.7,4.36-7.71c.32-.59,1.14-2.37,1.14-3.38,0-3.03-2.47-5.5-5.5-5.5S2.47,4.22,2.47,7.25c0,1.02,.83,2.79,1.15,3.39ZM1.47,7.25C1.47,3.67,4.39,.75,7.97,.75s6.5,2.92,6.5,6.5c0,1.47-1.21,3.76-1.26,3.86l-4.8,8.49c-.09,.16-.26,.26-.44,.26s-.34-.1-.43-.26L2.74,11.12c-.06-.11-1.27-2.4-1.27-3.87Z" stroke-width="0"/></g></svg>