<?xml version="1.0" encoding="utf-8"?> <!-- Generator: Adobe Illustrator 27.7.0, SVG Export Plug-In . SVG Version: 6.00 Build 0) --> <svg width="70" height="70" version="1.1" xmlns="http://www.w3.org/2000/svg" xmlns:xlink="http://www.w3.org/1999/xlink" x="0px" y="0px" viewBox="-10 -10 70 70" style="enable-background:new 0 0 50 50;" xml:space="preserve"><rect x="-10" y="-10" width="70" height="70" fill="white"/> <style type="text/css"> .st0{fill:#FFCD00;} .st1{display:none;} .st2{display:inline;fill:none;stroke:#EA008A;stroke-width:0.2;stroke-miterlimit:10;} .st3{font-family:'Roboto-Regular';} .st4{font-size:6px;} </style> <g id="Color"> <polygon class="st0" points="18.1055,10.9609 13.0312,6.1807 14.9629,4.3638 19.4229,9.7217 "/> <polygon class="st0" points="4.1533,40.6743 3.7568,38.0522 10.7002,37.4272 10.9707,39.2158 "/> </g> <g id="ICONS_00000031165542127692736420000002692518830807990202_"> <path d="M47.1348,34.4741c-3.833-6.439-11.5713-8.5088-20.7559-5.5649c-0.083-0.2896-0.166-0.5806-0.249-0.8721 c-1.7337-6.0536-3.708-12.8842-7.8675-18.0114l0.6888-0.6478c0.1924-0.1812,0.2109-0.481,0.042-0.6841l-5.1006-6.1279 c-0.0889-0.106-0.2168-0.1709-0.3545-0.1792c-0.1328-0.0015-0.2715,0.041-0.373,0.1348L10.459,5.0659 c-0.1006,0.0942-0.1572,0.2261-0.1572,0.3643c0,0.1377,0.0566,0.2695,0.1572,0.3638l5.8037,5.4673 c0.0967,0.0908,0.2197,0.1362,0.3428,0.1362s0.2461-0.0454,0.3428-0.1357l0.5831-0.5485 c3.9948,4.9495,5.8541,11.3715,7.6366,17.5992c0.0889,0.3091,0.1768,0.6172,0.2646,0.9238 c-2.0605,0.7827-3.9873,1.9971-6.0166,3.2764c-2.7979,1.7638-5.6947,3.5761-9.1723,4.3802l-0.1255-0.8304 c-0.0391-0.2607-0.2617-0.4443-0.5391-0.4233L1.6377,36.354c-0.1367,0.0122-0.2637,0.0811-0.3486,0.1895 s-0.1211,0.2471-0.1006,0.3833l0.5557,3.6724c0.0205,0.1362,0.0967,0.2583,0.21,0.3364c0.084,0.0586,0.1836,0.0889,0.2842,0.0889 c0.0352,0,0.0703-0.0034,0.1045-0.0112l7.7969-1.668c0.2588-0.0552,0.4297-0.3022,0.3896-0.5635l-0.1355-0.8962 c3.6756-0.8322,6.666-2.7057,9.5554-4.5272c1.959-1.2349,3.8203-2.4077,5.7627-3.1577c1.4053,4.8315,2.8779,9.2725,5.4688,12.1724 c3.3574,3.7583,6.8857,5.2573,9.8936,5.2573c1.8369,0,3.4805-0.5601,4.7705-1.5063 C48.6934,44.0332,50.1973,39.6201,47.1348,34.4741z M16.6055,10.2109l-5.0742-4.7803l1.9316-1.8169l4.46,5.3579L16.6055,10.2109z M2.6533,39.9243l-0.3965-2.6221l6.9434-0.625l0.2705,1.7886L2.6533,39.9243z M45.2529,45.3174 c-3.0381,2.228-8.335,1.9751-13.3262-3.6104c-2.459-2.752-3.8926-7.0991-5.2695-11.8369 c8.7178-2.8003,16.0361-0.9014,19.6182,5.1157C49.0176,39.5928,47.7373,43.4941,45.2529,45.3174z" stroke-width="0"/> </g> <g id="Margin" class="st1"> <rect x="1" y="1" class="st2" /> </g> <g id="Guides" class="st1"> </g> <g id="LABELS"> <g> <g> </g> </g> </g> </svg> 