<?xml version="1.0" encoding="utf-8"?> <!-- Generator: Adobe Illustrator 27.7.0, SVG Export Plug-In . SVG Version: 6.00 Build 0) --> <svg width="70" height="70" version="1.1" id="Layer_1" xmlns="http://www.w3.org/2000/svg" xmlns:xlink="http://www.w3.org/1999/xlink" x="0px" y="0px" viewBox="-10 -10 70 70" style="enable-background:new 0 0 50 50;" xml:space="preserve"><rect x="-10" y="-10" width="70" height="70" fill="white"/> <style type="text/css"> .st0{fill:#FFCD00;} .st1{display:none;} .st2{display:inline;fill:none;stroke:#EA008A;stroke-width:0.2;stroke-miterlimit:10;} .st3{font-family:'Roboto-Regular';} .st4{font-size:6px;} </style> <g id="Color"> <path class="st0" d="M49.2,37.4l-8.2,9c-0.3,0.3-0.6,0.5-1,0.5c-0.4,0-0.8-0.1-1-0.4l-6.3-6c2.6-0.2,5.2-1.4,7.1-3.5 c1.9-2,2.9-4.7,2.8-7.4l6.5,5.8c0.3,0.3,0.5,0.6,0.5,1C49.6,36.7,49.5,37.1,49.2,37.4z" stroke-width="0"/> <path class="st0" d="M22.5,22.6c2-2.1,4.6-3.2,7.3-3.2c0.3,0,0.6,0,0.9,0c-4.9-4-14.9-11.9-19.4-14.2C10.9,4.9,10.3,5,9.9,5.4 l-4.3,4.7c-0.4,0.4-0.4,1-0.1,1.5c1.8,2.8,6.7,8.4,14.5,16.6C20.2,26.1,21.1,24.2,22.5,22.6z" stroke-width="0"/> <path class="st0" d="M31.3,36.7c-1.7,0.1-3.3-0.5-4.6-1.7s-2-2.7-2.1-4.4c-0.1-1.7,0.5-3.3,1.7-4.6c1.1-1.2,2.7-2,4.4-2.1 c0.1,0,0.2,0,0.3,0c1.6,0,3.1,0.6,4.3,1.7c1.2,1.1,2,2.7,2.1,4.4c0.1,1.7-0.5,3.3-1.7,4.6C34.5,35.9,32.9,36.6,31.3,36.7z" stroke-width="0"/> <path class="st0" d="M44.3,14.2c-0.3,0.3-0.7,0.5-1.2,0.6c-0.9,0.2-1.8-0.2-1.9-0.8c-0.1-0.3,0-0.6,0.3-0.9 c0.3-0.3,0.7-0.5,1.2-0.6c0.2,0,0.3,0,0.5,0c0.7,0,1.4,0.4,1.5,0.9C44.7,13.6,44.6,13.9,44.3,14.2z" stroke-width="0"/> <path class="st0" d="M34,14.6c0.3-0.3,0.7-0.5,1.2-0.6c0.2,0,0.3,0,0.5,0c0.3,0,0.6,0.1,0.9,0.2c0.3,0.2,0.5,0.4,0.6,0.7 s0,0.6-0.3,0.9c-0.3,0.3-0.7,0.5-1.2,0.6c-0.9,0.2-1.8-0.2-1.9-0.8C33.7,15.2,33.8,14.9,34,14.6z" stroke-width="0"/> <path class="st0" d="M13.6,43.4c-0.7,0.6-1.7,0.7-2.1,0.2c-0.4-0.5-0.1-1.4,0.6-2c0.4-0.3,0.9-0.5,1.3-0.5c0.3,0,0.6,0.1,0.8,0.3 C14.6,41.9,14.3,42.8,13.6,43.4z" stroke-width="0"/> </g> <g id="ICONS_00000031165542127692736420000002692518830807990202_"> <g> <path d="M47.9,34.2l-7.3-6.4c-0.3-2.5-1.5-4.8-3.4-6.6c-2.1-1.9-4.7-2.8-7.3-2.8c0,0,0,0,0,0c-4-3.2-16-13-21.1-15.6 c-0.9-0.5-2-0.3-2.7,0.5L1.9,7.9c-0.7,0.8-0.8,1.9-0.2,2.7C4.7,15.5,15.4,26.6,19,30.3c0.2,2.6,1.4,5.1,3.5,7 c2,1.8,4.4,2.7,6.8,2.8l7.1,6.7c0.5,0.4,1.1,0.7,1.7,0.7c0,0,0.1,0,0.1,0c0.7,0,1.3-0.3,1.7-0.8l8.2-9c0.4-0.5,0.7-1.1,0.6-1.8 C48.7,35.3,48.4,34.7,47.9,34.2z M2.6,8.6l4.3-4.7c0.4-0.4,1-0.5,1.5-0.3c4.6,2.4,15.5,11.1,20,14.8c-2.5,0.3-4.8,1.5-6.6,3.4 c-1.8,2-2.7,4.4-2.8,6.9C10,19.5,4.4,13.2,2.5,10.1C2.2,9.7,2.2,9,2.6,8.6z M19.9,29.7c-0.1-2.6,0.8-5.2,2.6-7.1 c2-2.1,4.6-3.2,7.3-3.2c2.4,0,4.8,0.9,6.7,2.6c4,3.7,4.3,10,0.6,14c-3.7,4-10,4.3-14,0.6C21.2,34.8,20.1,32.3,19.9,29.7z M47.4,37 l-8.2,9c-0.3,0.3-0.6,0.5-1,0.5c-0.4,0-0.8-0.1-1-0.4l-6.3-6c2.6-0.2,5.2-1.4,7.1-3.5c1.9-2,2.9-4.7,2.8-7.4l6.5,5.8 c0.3,0.3,0.5,0.6,0.5,1C47.8,36.4,47.6,36.7,47.4,37z" stroke-width="0"/> <path d="M37.2,28.9c-0.1-2-0.9-3.8-2.4-5.1c-1.4-1.3-3.3-2-5.3-1.9c-2,0.1-3.8,0.9-5.1,2.4c-1.3,1.4-2,3.3-1.9,5.3 c0.1,2,0.9,3.8,2.4,5.1c1.4,1.2,3.1,1.9,4.9,1.9c0.1,0,0.2,0,0.3,0c2-0.1,3.8-0.9,5.1-2.4C36.6,32.8,37.3,30.9,37.2,28.9z M30.1,35.6c-1.7,0.1-3.3-0.5-4.6-1.7s-2-2.7-2.1-4.4c-0.1-1.7,0.5-3.3,1.7-4.6c1.1-1.2,2.7-2,4.4-2.1c0.1,0,0.2,0,0.3,0 c1.6,0,3.1,0.6,4.3,1.7c1.2,1.1,2,2.7,2.1,4.4c0.1,1.7-0.5,3.3-1.7,4.6C33.4,34.8,31.8,35.5,30.1,35.6z" stroke-width="0"/> <path d="M30.6,29.2l2.3-2.6c0.2-0.2,0.2-0.5,0-0.7c-0.2-0.2-0.5-0.2-0.7,0l-2.3,2.6l-2.6-2.3c-0.2-0.2-0.5-0.2-0.7,0 c-0.2,0.2-0.2,0.5,0,0.7l2.6,2.3l-2.3,2.5c-0.2,0.2-0.2,0.5,0,0.7c0.1,0.1,0.2,0.1,0.3,0.1c0.1,0,0.3-0.1,0.4-0.2l2.3-2.5l2.5,2.3 c0.1,0.1,0.2,0.1,0.3,0.1c0.1,0,0.3-0.1,0.4-0.2c0.2-0.2,0.2-0.5,0-0.7L30.6,29.2z" stroke-width="0"/> <path d="M34.4,16.6c0.2,0,0.4,0,0.7-0.1c0.7-0.1,1.3-0.5,1.7-1c0.4-0.4,0.6-0.9,0.5-1.4c0,0,0,0,0-0.1V8.4l6.5-1.3v4 c-0.6-0.3-1.4-0.5-2.2-0.3c-0.7,0.1-1.3,0.5-1.7,1c-0.5,0.5-0.6,1.1-0.5,1.7c0.2,1,1.2,1.7,2.5,1.7c0.2,0,0.4,0,0.7-0.1 c0.7-0.1,1.3-0.5,1.7-1c0.4-0.4,0.6-0.9,0.5-1.4c0,0,0,0,0-0.1V3.5c0-0.1-0.1-0.3-0.2-0.4S44.4,3,44.3,3l-7.5,1.5 c-0.2,0-0.4,0.3-0.4,0.5v7.6c-0.1,0-0.1-0.1-0.2-0.1c-0.6-0.3-1.3-0.4-2-0.2c-0.7,0.1-1.3,0.5-1.7,1c-0.5,0.5-0.6,1.1-0.5,1.7 C32.2,15.9,33.2,16.6,34.4,16.6z M43.6,13.4c-0.3,0.3-0.7,0.5-1.2,0.6c-0.9,0.2-1.8-0.2-1.9-0.8c-0.1-0.3,0-0.6,0.3-0.9 c0.3-0.3,0.7-0.5,1.2-0.6c0.2,0,0.3,0,0.5,0c0.7,0,1.4,0.4,1.5,0.9C43.9,12.8,43.8,13.2,43.6,13.4z M43.9,4.1v1.9l-6.5,1.3V5.4 L43.9,4.1z M33.3,13.9c0.3-0.3,0.7-0.5,1.2-0.6c0.2,0,0.3,0,0.5,0c0.3,0,0.6,0.1,0.9,0.2c0.3,0.2,0.5,0.4,0.6,0.7s0,0.6-0.3,0.9 c-0.3,0.3-0.7,0.5-1.2,0.6c-0.9,0.2-1.8-0.2-1.9-0.8C32.9,14.5,33,14.1,33.3,13.9z" stroke-width="0"/> <path d="M14.8,32.2l-1.4-2.6c-0.1-0.1-0.2-0.2-0.3-0.3c-0.1,0-0.3,0-0.4,0.1L9.5,32c-0.2,0.1-0.2,0.4-0.1,0.6l1.3,2.6c0,0,0,0,0,0 l2.1,4.1c-0.7,0-1.4,0.2-2.1,0.7C9.6,41,9.2,42.5,10,43.5c0.4,0.5,1,0.7,1.6,0.7c0.6,0,1.3-0.2,1.9-0.7c1.1-0.9,1.5-2.2,0.9-3.2 c0,0,0,0,0-0.1l-2.6-5.1l2.9-2.3C14.8,32.7,14.9,32.4,14.8,32.2z M12.9,42.7c-0.7,0.6-1.7,0.7-2.1,0.2c-0.4-0.5-0.1-1.4,0.6-2 c0.4-0.3,0.9-0.5,1.3-0.5c0.3,0,0.6,0.1,0.8,0.3C13.9,41.2,13.6,42.1,12.9,42.7z M11.3,34.2l-0.9-1.7l2.4-1.9l0.9,1.7L11.3,34.2z" stroke-width="0" /> </g> </g> <g id="Margin" class="st1"> <rect x="1" y="1" class="st2" /> </g> <g id="Guides" class="st1"> </g> <g id="LABELS"> </g> <g id="LABELS_00000039844130573586885290000009352211446235121312_"> <g> <g> <g> <g> <g> </g> </g> </g> </g> </g> </g> </svg> 