<?xml version="1.0" encoding="UTF-8"?><svg width="70" height="70" id="uuid-93126e36-a034-42d5-8bc0-974afbdbfc66" xmlns="http://www.w3.org/2000/svg" viewBox="-10 -10 70 70"><rect x="-10" y="-10" width="70" height="70" fill="white"/><path d="M34.65,3.99c-7.99,0-14.48,6.5-14.48,14.48,0,1.32,.18,2.64,.53,3.9,.05,.19,0,.39-.15,.51l-2.06,1.78,1.85,1.85c.2,.2,.2,.51,0,.71l-2.94,2.94c-.09,.09-.22,.15-.35,.15h-4.17v3.68c0,.28-.22,.5-.5,.5h-3.71v3.43c0,.28-.22,.5-.5,.5h-3.05v4.27c0,.13-.05,.26-.15,.35l-.6,.6v5.35l2.94-.08,1.52-.04,16.46-16.46c.17-.17,.44-.2,.64-.06l1.82,1.27,1.6-1.34c.12-.1,.29-.14,.44-.1,.03,0,3.13,.77,4.87,.77,7.99,0,14.48-6.5,14.48-14.48s-6.5-14.48-14.48-14.48Zm1.52,12.74c-1.88,0-3.4-1.53-3.4-3.4s1.53-3.4,3.4-3.4,3.4,1.53,3.4,3.4-1.53,3.4-3.4,3.4Z" fill="#ffcd00" stroke-width="0"/><path d="M36.18,8.93c-2.43,0-4.4,1.98-4.4,4.4s1.98,4.4,4.4,4.4,4.4-1.98,4.4-4.4-1.98-4.4-4.4-4.4Zm0,7.81c-1.88,0-3.4-1.53-3.4-3.4s1.53-3.4,3.4-3.4,3.4,1.53,3.4,3.4-1.53,3.4-3.4,3.4Z" stroke-width="0"/><path d="M32.9,1.24c-8.54,0-15.48,6.95-15.48,15.48,0,1.31,.16,2.6,.49,3.86l-2.23,1.93c-.1,.09-.17,.22-.17,.36,0,.14,.05,.27,.15,.37l1.87,1.87-2.44,2.44h-4.46c-.28,0-.5,.22-.5,.5v3.68h-3.71c-.28,0-.5,.22-.5,.5v3.43H2.86c-.28,0-.5,.22-.5,.5v4.57l-.6,.6c-.09,.09-.15,.22-.15,.35v6.07c0,.13,.05,.26,.15,.36,.09,.09,.22,.14,.35,.14h.01l5.17-.14c.13,0,.25-.06,.34-.15L23.94,31.67l1.79,1.25c.19,.13,.43,.12,.61-.03l1.7-1.42c.79,.19,3.28,.74,4.86,.74,8.54,0,15.48-6.95,15.48-15.48S41.44,1.24,32.9,1.24Zm0,29.97c-1.74,0-4.84-.76-4.87-.77-.15-.04-.32,0-.44,.1l-1.6,1.34-1.82-1.27c-.2-.14-.47-.12-.64,.06L7.07,47.13l-4.46,.12v-5.35l.6-.6c.09-.09,.15-.22,.15-.35v-4.27h3.05c.28,0,.5-.22,.5-.5v-3.43h3.71c.28,0,.5-.22,.5-.5v-3.68h4.17c.13,0,.26-.05,.35-.15l2.94-2.94c.2-.2,.2-.51,0-.71l-1.85-1.85,2.06-1.78c.15-.13,.21-.33,.15-.51-.35-1.26-.53-2.58-.53-3.9,0-7.99,6.5-14.48,14.48-14.48s14.48,6.5,14.48,14.48-6.5,14.48-14.48,14.48Z" stroke-width="0"/><path d="M21.61,27.06L4.98,43.67c-.2,.2-.2,.51,0,.71,.1,.1,.23,.15,.35,.15s.26-.05,.35-.15L22.32,27.77c.2-.2,.2-.51,0-.71-.2-.2-.51-.2-.71,0Z" stroke-width="0"/></svg>