<?xml version="1.0" encoding="UTF-8"?><svg width="70" height="70" id="uuid-fd50f1d1-b4c0-4183-aea0-1e62cb02333f" xmlns="http://www.w3.org/2000/svg" viewBox="-10 -10 70 70"><rect x="-10" y="-10" width="70" height="70" fill="white"/><path d="M2.54,22.53v19.15H49.96V22.53H2.54Zm31.51,14.71H4.24v-13.94h29.8v13.94Zm10.42-.53h-6.86v-12.46h6.86v12.46Z" fill="#ffcd00" stroke-width="0"/><g><path d="M23.81,17.49c1.2-1.5,2.99-1.58,3.33-1.58l11.77,.13c2.03-.02,3.72-1.62,3.84-3.63,.13-2.05-1.44-3.88-3.55-4.09l-15.71,.02c-.28,0-.5,.22-.5,.5s.22,.5,.5,.5h0l15.65-.02c1.53,.15,2.69,1.51,2.6,3.03-.09,1.49-1.35,2.68-2.85,2.69l-11.76-.13c-.43,0-2.63,.1-4.12,1.96-.64,.8-.93,1.64-1.05,2.35h1.03c.11-.53,.34-1.14,.8-1.72Z" stroke-width="0"/><g><path d="M.54,20.03c-.28,0-.5,.22-.5,.5v20.15c0,.28,.22,.5,.5,.5H48.96c.28,0,.5-.22,.5-.5V20.53c0-.28-.22-.5-.5-.5H22.9c0-.23,.05-.51,.11-.81h-1.03c-.05,.3-.08,.58-.08,.81H.54Zm47.93,1v19.15H1.04V21.03H48.46Z" stroke-width="0"/><path d="M3.67,33.49v3.71c0,.28,.22,.5,.5,.5h29.7c.28,0,.5-.22,.5-.5v-3.71h0v-3.71s0-.01,0-.02v-3.71s0-.02,0-.04v-2.27c0-.28-.22-.5-.5-.5H4.17c-.28,0-.5,.22-.5,.5v2.29s0,.02,0,.04v3.71s0,.01,0,.02v3.69Zm29.7,3.21h-6.43v-2.71h6.43v2.71Zm-2.71-12.46h2.71v1.27h-2.71v-1.27Zm0,2.32h2.71v2.71h-2.71v-2.71Zm-.5,3.71h3.21v2.71h-6.42v-2.71h3.21Zm-3.21-6.04h2.71v1.27h-2.71v-1.27Zm0,2.32h2.71v2.71h-2.71v-2.71Zm-1,6.43h-2.71v-2.71h2.71v2.71Zm-2.71-8.75h2.71v1.27h-2.71v-1.27Zm0,2.32h2.71v2.71h-2.71v-2.71Zm-3.71-2.32h2.71v1.27h-2.71v-1.27Zm0,2.32h2.71v2.71h-2.71v-2.71Zm2.71,3.71v2.71h-2.71v-2.71h2.71Zm-6.42-6.04h2.71v1.27h-2.71v-1.27Zm0,2.32h2.71v2.71h-2.71v-2.71Zm2.72,3.71v2.71h-2.71v-2.71h2.71Zm.5,3.71h6.92v2.71H12.1v-2.71h6.93Zm-6.93-1v-2.71h2.71v2.71h-2.71Zm0-8.75h2.71v1.27h-2.71v-1.27Zm0,2.32h2.71v2.71h-2.71v-2.71Zm-4.71,10.14h-2.71v-2.71h2.71v2.71Zm3.71,0h-2.71v-2.71h2.71v2.71Zm-2.71-12.46h2.71v1.27h-2.71v-1.27Zm0,2.32h2.71v2.71h-2.71v-2.71Zm2.72,3.71v2.71H4.67v-2.71h6.43Zm-6.43-6.04h2.71v1.27h-2.71v-1.27Zm0,2.32h2.71v2.71h-2.71v-2.71Z" stroke-width="0"/><path d="M37.54,37.71h3.71s.01,0,.02,0h3.69c.28,0,.5-.22,.5-.5v-11.14h0v-2.27c0-.28-.22-.5-.5-.5h-7.42c-.28,0-.5,.22-.5,.5v2.26h0v11.15c0,.28,.22,.5,.5,.5Zm4.22-13.41h2.71v1.27h-2.71v-1.27Zm0,2.27h2.71v2.71h-2.71v-2.71Zm0,3.71h2.71v2.71h-2.71v-2.71Zm0,3.71h2.71v2.71h-2.71v-2.71Zm-3.71-9.69h2.71v1.27h-2.71v-1.27Zm0,2.27h2.71v2.71h-2.71v-2.71Zm0,3.71h2.71v2.71h-2.71v-2.71Zm0,3.71h2.71v2.71h-2.71v-2.71Z" stroke-width="0"/></g></g></svg>