<?xml version="1.0" encoding="UTF-8"?><svg width="70" height="70" xmlns="http://www.w3.org/2000/svg" viewBox="-10 -10 70 70"><rect x="-10" y="-10" width="70" height="70" fill="white"/><g id="uuid-9d3e57ea-c628-4a9a-b068-dfdb03a4a223"><path d="M43.75,14.1c-1.78-1.77-3.86-2.69-5.95-2.69-2.98,.01-5.03,1.06-5.93,3.04-1.14,2.5-.31,6.36,1.94,8.99,.47,.55,.97,1.01,1.5,1.37,.23,.16,.29,.47,.13,.69-.1,.14-.25,.22-.41,.22-.1,0-.2-.03-.28-.09-.33-.22-.64-.48-.95-.77-.2,1.08-.92,2-1.94,2.44v1.94c1,.42,1.72,1.3,2.01,2.4,.55-.43,1.13-.72,1.74-.85,.27-.06,.54,.11,.59,.38,.06,.27-.11,.54-.38,.59-.62,.14-1.22,.49-1.78,1.06-.03,.03-.06,.04-.1,.07-.02,.04-.04,.08-.07,.11-1.71,1.93-2.76,5.88-1.46,8.89,.9,2.09,2.77,3.23,5.4,3.3,2.05,.06,4.07-.81,5.83-2.52,3.18-3.09,5.15-8.6,5.15-14.38s-1.88-11.06-5.04-14.2Z" fill="#ffcd00" stroke-width="0"/><path d="M18.92,20.17c-.31,.29-.62,.55-.95,.77-.09,.06-.19,.09-.28,.09-.16,0-.32-.08-.41-.22-.16-.23-.1-.54,.13-.7,.53-.36,1.03-.82,1.5-1.37,2.25-2.63,3.08-6.5,1.94-8.99-.91-1.98-2.96-3.03-5.93-3.04h-.03c-2.11,0-4.15,.93-5.93,2.7-3.15,3.14-5.04,8.45-5.04,14.2s1.97,11.29,5.15,14.38c1.76,1.71,3.77,2.58,5.83,2.52,2.63-.08,4.5-1.22,5.4-3.3,1.3-3.02,.26-6.97-1.46-8.89-.03-.03-.05-.07-.07-.11-.03-.02-.07-.04-.1-.07-.56-.57-1.15-.93-1.78-1.06-.27-.06-.44-.32-.38-.59,.06-.27,.32-.44,.59-.38,.61,.13,1.19,.42,1.74,.85,.29-1.1,1.01-1.98,2.01-2.4v-1.94c-1.03-.44-1.75-1.36-1.95-2.44Z" fill="#ffcd00" stroke-width="0"/><path d="M42.7,11.64c-1.96-1.95-4.25-2.99-6.63-2.99h-.03c-4.29,.02-6.09,1.98-6.84,3.62-1.44,3.15-.17,7.25,1.89,9.81,0,.14,0,.34,0,.41,0,1.02-.66,1.92-1.65,2.22-.22,.07-.46,.1-.69,.1-1.29,0-2.34-1.04-2.34-2.32v-.6c.03-3.4,.02-3.4-.18-3.6-.29-.29-.86-.06-.86,.35,0,.05,0,.1,.02,.15,.03,.37,.02,2.27,.02,3.09v.61c0,1.83,1.49,3.32,3.34,3.32,.11,0,.22-.01,.34-.02v1.46c-.12-.01-.23-.04-.35-.04-1.88,0-3.41,1.52-3.41,3.39v.74c.03,11.17,0,13.84-.02,14.1l.49,.08,.35,.35q.21-.21,.18-14.54v-.74c0-1.32,1.08-2.39,2.41-2.39,.21,0,.42,.03,.61,.08,.02,0,.04,0,.06,0,.01,0,.02,.02,.03,.02,1.04,.31,1.71,1.23,1.79,2.42-2.1,2.5-2.77,6.84-1.49,9.8,.74,1.72,2.44,3.8,6.29,3.91,.08,0,.15,0,.23,0,2.25,0,4.44-.97,6.33-2.8,3.42-3.32,5.45-8.96,5.45-15.1s-1.99-11.59-5.33-14.91Zm-.82,29.29c-1.76,1.71-3.78,2.57-5.83,2.52-2.63-.08-4.5-1.22-5.4-3.3-1.3-3.02-.26-6.97,1.46-8.89,.03-.03,.05-.07,.07-.11,.03-.02,.07-.04,.1-.07,.56-.57,1.15-.93,1.78-1.06,.27-.06,.44-.33,.38-.59-.06-.27-.33-.44-.59-.38-.61,.13-1.19,.42-1.74,.85-.29-1.1-1.01-1.98-2.01-2.4v-1.94c1.03-.44,1.75-1.36,1.95-2.44,.31,.29,.62,.55,.95,.77,.09,.06,.18,.09,.28,.09,.16,0,.32-.08,.41-.22,.16-.23,.1-.54-.13-.69-.53-.36-1.03-.82-1.5-1.37-2.25-2.63-3.08-6.5-1.94-8.99,.91-1.98,2.96-3.03,5.93-3.04,2.1,0,4.17,.92,5.95,2.69,3.15,3.14,5.04,8.45,5.04,14.2s-1.97,11.29-5.15,14.38Z" stroke-width="0"/><path d="M23.87,26.66v-.74c0-1.87-1.53-3.39-3.41-3.39-.12,0-.23,.03-.35,.04v-1.46c.11,.01,.22,.02,.33,.02,1.84,0,3.34-1.49,3.34-3.32v-.62c0-.82-.02-2.71,.01-3.09,.01-.05,.02-.1,.02-.15,0-.41-.57-.64-.86-.35-.2,.2-.2,.21-.18,3.6v.61c0,1.28-1.05,2.32-2.34,2.32-.24,0-.47-.04-.69-.1-.98-.3-1.65-1.19-1.65-2.22,0-.07,0-.27,0-.41,2.05-2.56,3.33-6.66,1.88-9.81-.75-1.64-2.55-3.61-6.84-3.62-2.4,.02-4.69,1.02-6.66,2.99C3.16,10.28,1.17,15.85,1.17,21.86s2.04,11.78,5.45,15.1c1.89,1.84,4.07,2.8,6.33,2.8,.08,0,.15,0,.23,0,3.85-.11,5.55-2.19,6.29-3.91,1.28-2.96,.6-7.3-1.49-9.8,.07-1.19,.75-2.12,1.79-2.42,.01,0,.03-.02,.04-.02,.02,0,.03,0,.05,0,.2-.05,.41-.08,.62-.08,1.33,0,2.41,1.07,2.41,2.39v.74q-.04,14.32,.18,14.54l.35-.35,.49-.08c-.03-.27-.06-2.93-.03-14.1Zm-6.76-1.46c-.55-.43-1.13-.72-1.74-.85-.27-.06-.54,.11-.59,.38-.06,.27,.11,.54,.38,.59,.62,.13,1.22,.49,1.78,1.06,.03,.03,.06,.05,.1,.07,.02,.04,.04,.08,.07,.11,1.71,1.93,2.76,5.88,1.46,8.89-.9,2.09-2.77,3.23-5.4,3.3-2.06,.06-4.07-.81-5.83-2.52-3.18-3.09-5.15-8.6-5.15-14.38s1.88-11.06,5.04-14.2c1.77-1.76,3.82-2.7,5.93-2.7h.03c2.98,.01,5.03,1.06,5.93,3.04,1.14,2.5,.31,6.36-1.94,8.99-.47,.55-.97,1.01-1.5,1.37-.23,.16-.29,.47-.13,.7,.1,.14,.25,.22,.41,.22,.1,0,.2-.03,.28-.09,.33-.22,.64-.49,.95-.77,.2,1.08,.92,2,1.94,2.44v1.94c-1,.42-1.72,1.3-2.01,2.4Z" stroke-width="0"/></g><g id="uuid-6f3b1476-44c9-4408-91df-965a8f259e87"></g></svg>