<?xml version="1.0" encoding="utf-8"?> <!-- Generator: Adobe Illustrator 27.7.0, SVG Export Plug-In . SVG Version: 6.00 Build 0) --> <svg width="70" height="70" version="1.1" xmlns="http://www.w3.org/2000/svg" xmlns:xlink="http://www.w3.org/1999/xlink" x="0px" y="0px" viewBox="-10 -10 70 70" style="enable-background:new 0 0 50 50;" xml:space="preserve"><rect x="-10" y="-10" width="70" height="70" fill="white"/> <style type="text/css"> .st0{fill:#FFCD00;} .st1{display:none;} .st2{display:inline;fill:none;stroke:#EA008A;stroke-width:0.2;stroke-miterlimit:10;} .st3{font-family:'Roboto-Regular';} .st4{font-size:6px;} </style> <g id="Color"> <rect x="29.8906" y="10.7646" class="st0" width="3.8857" height="1.7686"/> <path class="st0" d="M18.0215,19.4121c-0.8818,0-2.0967-0.3047-2.8623-1.1621c-0.4785-0.5352-0.7148-1.2168-0.7051-2.0312h8.7373 c-0.0742,0.6758-0.2549,1.1299-0.5479,1.3809c-0.3008,0.2588-0.7852,0.3438-1.4902,0.2568 c-1.3047-0.166-1.7578,0.4795-2.0898,0.9463C18.793,19.1826,18.6299,19.4121,18.0215,19.4121z" stroke-width="0"/> <rect x="25.8066" y="37.8252" class="st0" width="3.5215" height="1.7695"/> <path class="st0" d="M11.1436,24.6318c-4.4395,0-8.0518,3.6123-8.0518,8.0518s3.6123,8.0518,8.0518,8.0518 s8.0518-3.6123,8.0518-8.0518S15.583,24.6318,11.1436,24.6318z M11.1436,38.7568c-3.3486,0-6.0732-2.7246-6.0732-6.0732 s2.7246-6.0732,6.0732-6.0732s6.0732,2.7246,6.0732,6.0732S14.4922,38.7568,11.1436,38.7568z" stroke-width="0"/> <path class="st0" d="M40.3564,24.6318c-4.4395,0-8.0518,3.6123-8.0518,8.0518s3.6123,8.0518,8.0518,8.0518 s8.0518-3.6123,8.0518-8.0518S44.7959,24.6318,40.3564,24.6318z M40.3564,38.7568c-3.3486,0-6.0732-2.7246-6.0732-6.0732 s2.7246-6.0732,6.0732-6.0732s6.0732,2.7246,6.0732,6.0732S43.7051,38.7568,40.3564,38.7568z" stroke-width="0"/> </g> <g id="ICONS_00000031165542127692736420000002692518830807990202_"> <path d="M39.6064,22.8818c-0.7403,0-1.4562,0.0991-2.1453,0.2676l-2.5197-8.2959c1.249-1.0781,1.1465-2.1436,0.96-2.7041 c-0.2722-0.8198-1.0607-1.5046-1.875-1.6936V9.5146c0-0.2764-0.2236-0.5-0.5-0.5h-4.8857c-0.2764,0-0.5,0.2236-0.5,0.5v2.7686 c0,0.2764,0.2236,0.5,0.5,0.5h4.8857c0.2764,0,0.5-0.2236,0.5-0.5v-0.7759c0.386,0.1669,0.7806,0.519,0.9268,0.9576 c0.252,0.7588-0.3438,1.4033-0.8887,1.8105c-0.168,0.126-0.2402,0.3438-0.1787,0.5459l0.7245,2.3853L20.869,21.7822l-1.41-3.4384 c-0.009-0.0219-0.0264-0.0367-0.0381-0.0566c0.1782-0.1639,0.3992-0.2455,0.8613-0.1885c0.9932,0.1221,1.7354-0.0381,2.2617-0.4902 c0.5957-0.5098,0.8916-1.3438,0.9326-2.624c0.0039-0.1348-0.0469-0.2666-0.1406-0.3633c-0.0947-0.0977-0.2236-0.1523-0.3594-0.1523 h-9.7412c-0.2549,0-0.4688,0.1914-0.4971,0.4443c-0.1445,1.29,0.1748,2.415,0.9248,3.2539 c0.9854,1.1025,2.5107,1.4951,3.6084,1.4951c0.7065,0,1.136-0.235,1.4348-0.5175l1.2495,3.0472l-3.3522,3.1737 c-1.6226-1.5349-3.8054-2.4836-6.21-2.4836c-4.9912,0-9.0518,4.0605-9.0518,9.0518s4.0605,9.0518,9.0518,9.0518 c4.8224,0,8.7645-3.7936,9.0264-8.5518h1.6387c0.366,1.4828,1.6975,2.5898,3.291,2.5898c0.342,0,0.6659-0.066,0.9776-0.1605 L25.9,36.0752h-1.3433c-0.2764,0-0.5,0.2236-0.5,0.5v2.7695c0,0.2764,0.2236,0.5,0.5,0.5h4.5215c0.2764,0,0.5-0.2236,0.5-0.5 v-2.7695c0-0.2764-0.2236-0.5-0.5-0.5h-2.0717l-0.7689-1.6272c0.9103-0.6107,1.5115-1.6485,1.5115-2.825 c0-0.6872-0.2084-1.3254-0.5606-1.8608l8.4566-9.1492l0.8591,2.8281c-3.4654,1.2703-5.9494,4.5923-5.9494,8.4924 c0,4.9912,4.0605,9.0518,9.0518,9.0518s9.0518-4.0605,9.0518-9.0518S44.5977,22.8818,39.6064,22.8818z M33.0264,11.7832h-3.8857 v-1.7686h3.8857V11.7832z M17.2715,18.6621c-0.8818,0-2.0967-0.3047-2.8623-1.1621c-0.4785-0.5352-0.7148-1.2168-0.7051-2.0312 h8.7373c-0.0742,0.6758-0.2549,1.1299-0.5479,1.3809c-0.3008,0.2588-0.7852,0.3438-1.4902,0.2568 c-1.3047-0.166-1.7578,0.4795-2.0898,0.9463C18.043,18.4326,17.8799,18.6621,17.2715,18.6621z M28.5781,38.8447h-3.5215v-1.7695 h3.5215V38.8447z M16.4415,31.4336c-0.1019-1.2404-0.5759-2.3757-1.3131-3.2938l1.4405-1.3638 c1.0692,1.2779,1.7419,2.8922,1.8511,4.6576H16.4415z M10.8599,30.8034c-0.1439-0.0594-0.3008-0.0941-0.4662-0.0941 c-0.6762,0-1.2244,0.5482-1.2244,1.2244s0.5482,1.2244,1.2244,1.2244c0.497,0,0.9205-0.299,1.1124-0.7244h3.9102 c-0.2552,2.5604-2.3961,4.5732-5.0227,4.5732c-2.7979,0-5.0732-2.2754-5.0732-5.0732s2.2754-5.0732,5.0732-5.0732 c1.2681,0,2.4146,0.4839,3.3049,1.2556L10.8599,30.8034z M11.6492,31.4336l2.7378-2.592c0.5689,0.7329,0.9324,1.6194,1.0293,2.592 H11.6492z M10.3936,39.9854c-4.4395,0-8.0518-3.6123-8.0518-8.0518s3.6123-8.0518,8.0518-8.0518 c2.1189,0,4.0436,0.8292,5.4828,2.1721l-1.4384,1.3619c-1.0753-0.9637-2.4904-1.5555-4.0444-1.5555 c-3.3486,0-6.0732,2.7246-6.0732,6.0732s2.7246,6.0732,6.0732,6.0732c3.1799,0,5.7921-2.4582,6.0479-5.5732H18.42 C18.1597,36.6399,14.6642,39.9854,10.3936,39.9854z M20.9694,31.4336H19.42c-0.1118-2.031-0.8883-3.8854-2.1259-5.3442 l3.0686-2.9052l2.2653,5.5244C21.681,29.2704,21.0349,30.2712,20.9694,31.4336z M25.8001,33.5222l-0.9984-2.113 c-0.1172-0.25-0.416-0.3535-0.666-0.2383c-0.249,0.1182-0.3564,0.416-0.2383,0.666l1.0004,2.1173 c-0.1768,0.0417-0.3589,0.0692-0.5483,0.0692c-1.3232,0-2.3994-1.0771-2.3994-2.4004s1.0762-2.3994,2.3994-2.3994 s2.3994,1.0762,2.3994,2.3994C26.749,32.3989,26.373,33.083,25.8001,33.5222z M26.5107,29.0213 c-0.5894-0.4905-1.3364-0.7977-2.1611-0.7977c-0.2755,0-0.5398,0.042-0.7965,0.1042L21.2495,22.71l13.6517-4.5458l0.4068,1.3393 L26.5107,29.0213z M39.6064,39.9854c-4.4395,0-8.0518-3.6123-8.0518-8.0518c0-3.4495,2.1849-6.3909,5.2402-7.5351l0.5753,1.8939 c-2.2442,0.8931-3.837,3.0826-3.837,5.6412c0,3.3486,2.7246,6.0732,6.0732,6.0732s6.0732-2.7246,6.0732-6.0732 s-2.7246-6.0732-6.0732-6.0732c-0.4393,0-0.8669,0.0494-1.2799,0.1384l-0.5748-1.8927c0.5966-0.1415,1.2155-0.2242,1.8547-0.2242 c4.4395,0,8.0518,3.6123,8.0518,8.0518S44.0459,39.9854,39.6064,39.9854z M39.6063,33.158c0.6762,0,1.2244-0.5482,1.2244-1.2244 c0-0.6191-0.4669-1.1099-1.0635-1.1919l-1.1486-3.7816c0.3199-0.0634,0.6496-0.0999,0.9879-0.0999 c2.7979,0,5.0732,2.2754,5.0732,5.0732s-2.2754,5.0732-5.0732,5.0732s-5.0732-2.2754-5.0732-5.0732 c0-2.1086,1.2936-3.918,3.1281-4.6827l1.1458,3.7721c-0.2558,0.2244-0.4252,0.5436-0.4252,0.9106 C38.3819,32.6099,38.9301,33.158,39.6063,33.158z" stroke-width="0"/> </g> <g id="Margin" class="st1"> <rect x="1" y="1" class="st2" /> </g> <g id="Guides" class="st1"> </g> <g id="LABELS"> <g> <g> <g> <g> <g> <g> </g> </g> </g> </g> </g> </g> </g> </svg> 