<?xml version="1.0" encoding="utf-8"?> <!-- Generator: Adobe Illustrator 27.7.0, SVG Export Plug-In . SVG Version: 6.00 Build 0) --> <svg width="70" height="70" version="1.1" xmlns="http://www.w3.org/2000/svg" xmlns:xlink="http://www.w3.org/1999/xlink" x="0px" y="0px" viewBox="-10 -10 70 70" style="enable-background:new 0 0 50 50;" xml:space="preserve"><rect x="-10" y="-10" width="70" height="70" fill="white"/> <style type="text/css"> .st0{fill:#FFCD00;} .st1{display:none;} .st2{display:inline;fill:none;stroke:#EA008A;stroke-width:0.2;stroke-miterlimit:10;} .st3{font-family:'Roboto-Regular';} .st4{font-size:6px;} </style> <g id="Color"> <path class="st0" d="M8.9624,23.981l23.9077,9.4282L31.708,7.7363L11.5796,3.5986L8.9624,23.981z" stroke-width="0"/> <path class="st0" d="M28.2827,36.7261l2.2183,4.3945l3.0752-4.3091L28.2827,36.7261z" stroke-width="0"/> <path class="st0" d="M35.1211,35.8418l5.2935,0.085l-2.2183-4.3945L35.1211,35.8418z" stroke-width="0"/> <path class="st0" d="M22.1123,43.0796l-1.0562,5.188l4.7271-1.3735L22.1123,43.0796z" stroke-width="0"/> <path class="st0" d="M18.5913,37.1992l3.6709,3.8149l1.0562-5.188L18.5913,37.1992z" stroke-width="0"/> </g> <g id="ICONS_00000031165542127692736420000002692518830807990202_"> <path d="M40.9302,35.4648l-2.9639-5.8716c-0.0786-0.1567-0.2339-0.2603-0.4082-0.2734c-0.1738-0.0093-0.3433,0.0659-0.4453,0.208 l-3.7176,5.2099c-0.3987-0.7381-0.8544-1.4876-1.3727-2.242L30.8145,5.8022c-0.0008-0.0172-0.0081-0.0323-0.0106-0.0491 c-0.0034-0.0234-0.008-0.0455-0.0148-0.0685c-0.0121-0.0407-0.0294-0.0776-0.0508-0.1134 c-0.0071-0.0119-0.0084-0.0256-0.0166-0.0371c-0.0037-0.0052-0.0095-0.0074-0.0133-0.0125 c-0.0329-0.0428-0.0721-0.0794-0.1173-0.1097c-0.0062-0.0042-0.0109-0.0106-0.0172-0.0145 c-0.048-0.0291-0.101-0.0509-0.1583-0.0626L9.3779,1.0107C9.3748,1.0101,9.3717,1.0114,9.3686,1.0108 C9.3115,1.0001,9.253,1.0022,9.195,1.0118C9.1878,1.0131,9.1805,1.0109,9.1733,1.0125c-0.0652,0.0139-0.1287,0.04-0.1865,0.0813 C8.9297,1.1345,8.8843,1.1853,8.8502,1.2418c-0.0079,0.013-0.0092,0.0289-0.0159,0.0427c-0.0223,0.0461-0.0423,0.093-0.0497,0.1432 C8.784,1.431,8.7817,1.4337,8.7812,1.437L6.0459,22.7397C6.0385,22.7979,6.042,22.8552,6.054,22.91 c0.0014,0.0063,0.0055,0.012,0.0071,0.0184c0.014,0.0536,0.0365,0.1034,0.0668,0.1492c0.0034,0.0051,0.0037,0.0112,0.0073,0.0162 c0.006,0.0084,0.016,0.0113,0.0224,0.0192c0.0372,0.0463,0.0821,0.0848,0.1348,0.1158c0.0143,0.0084,0.0265,0.0181,0.0415,0.025 c0.0088,0.0041,0.0154,0.0112,0.0245,0.0148l24.8419,9.7966c0.4606,0.6707,0.8701,1.338,1.2325,1.9956l-6.0865-0.0979 c-0.1611-0.0137-0.3384,0.0864-0.4316,0.2344c-0.0928,0.1484-0.1016,0.3345-0.0225,0.4907l2.9639,5.8716 c0.0786,0.1562,0.2339,0.2603,0.4082,0.2734c0.0127,0.001,0.0254,0.0015,0.0381,0.0015c0.1606,0,0.3125-0.0776,0.4072-0.2095 l3.5267-4.9419c1.2984,2.9674,1.4672,5.5402,0.2912,6.8242c-1.3638,1.4912-4.4043,1.0537-8.3379-1.1978 c-1.1927-0.6822-2.3721-1.1498-3.5347-1.4189l1.3082-6.4258c0.0352-0.1714-0.022-0.3486-0.1509-0.4673 c-0.1289-0.1191-0.3105-0.1621-0.4785-0.1123l-6.3159,1.8345c-0.168,0.0488-0.2983,0.1816-0.3433,0.3511 c-0.0454,0.1689,0.0015,0.3496,0.1226,0.4756l3.9292,4.0833c-1.1119-0.0372-2.2054,0.1178-3.2749,0.4743 c-3.0493,1.0171-5.7734,3.7212-7.2866,7.2329c-0.1094,0.2534,0.0073,0.5479,0.2612,0.6567c0.0645,0.0278,0.1313,0.041,0.1978,0.041 c0.1934,0,0.3774-0.1128,0.459-0.3022c1.4028-3.2544,3.9019-5.7515,6.6851-6.6802c1.1981-0.399,2.4357-0.5122,3.7031-0.3556 l-1.309,6.4323c-0.0352,0.1714,0.0225,0.3486,0.1509,0.4673c0.0938,0.0864,0.2148,0.1323,0.3389,0.1323 c0.0464,0,0.0938-0.0063,0.1396-0.02l6.3159-1.835c0.168-0.0488,0.2983-0.1816,0.3433-0.3511 c0.0454-0.1689-0.0015-0.3496-0.1226-0.4756l-3.6836-3.8273c0.6761,0.2444,1.3593,0.5638,2.0483,0.9582 c5.9907,3.4282,8.5684,2.1016,9.5723,1.0049c1.4842-1.6203,1.3508-4.6494-0.1979-8.0953l6.4093,0.1027c0.0024,0,0.0054,0,0.0078,0 c0.1719,0,0.332-0.0884,0.4238-0.2344C41.0005,35.8071,41.0093,35.6211,40.9302,35.4648z M29.376,40.3706l-2.2183-4.3945 l5.2935,0.0854L29.376,40.3706z M21.8184,35.0762l-1.0562,5.188l-3.6709-3.8149L21.8184,35.0762z M20.3062,47.5176l1.0562-5.188 l3.6709,3.8145L20.3062,47.5176z M30.9536,30.991L19.1259,14.4301L29.857,6.766L30.9536,30.991z M30.14,31.572L7.5808,22.6755 l10.7315-7.6644L30.14,31.572z M18.5449,13.6166L10.4244,2.2466L29.0919,6.084L18.5449,13.6166z M9.611,2.8277l8.1204,11.3699 l-10.5476,7.533L9.611,2.8277z M34.3711,35.0918l3.0752-4.3096l2.2183,4.3945L34.3711,35.0918z" stroke-width="0"/> </g> <g id="Margin" class="st1"> <rect x="1" y="1" class="st2" /> </g> <g id="Guides" class="st1"> </g> <g id="LABELS"> <g> <g> <g> <g> <g> <g> </g> </g> </g> </g> </g> </g> </g> </svg> 