<?xml version="1.0" encoding="UTF-8"?><svg width="70" height="70" xmlns="http://www.w3.org/2000/svg" viewBox="-10 -10 70 70"><rect x="-10" y="-10" width="70" height="70" fill="white"/><g id="uuid-45ba3ce7-43c4-440a-949c-3fc2cd2f49b2"><path d="M37.23,20.65c.52-1.31,1.8-5.05,.02-8.03-1.5-2.49-4.4-3.19-6.45-3.68-6.78-1.61-14.42-2.91-22.69-3.85-.76,5.05-1.53,10.1-2.29,15.15,3.51,.35,7.36,.58,11.5,.57,2.86,0,5.57-.12,8.12-.31,.03,0,.26,0,.42,.17,.11,.13,.12,.29,.12,.31,0,.05,0,.1-.01,.13-.54,2.5-.99,5.24-1.28,8.19-.74,7.59-.19,14.26,.73,19.59,2.69-.17,5.38-.34,8.07-.51,.68-5.07,1.36-10.14,2.05-15.21,.56-4.13,1.14-8.38,1.7-12.51Z" fill="#ffcd00" stroke-width="0"/><path d="M29.28,6.22c-6.93-1.65-14.73-2.97-23.19-3.92-.28-.03-.52,.17-.55,.44-.03,.27,.17,.52,.44,.55,.13,.01,.25,.03,.37,.04,8.27,.94,15.91,2.24,22.69,3.85,1.97,.47,4.95,1.18,6.45,3.68,1.63,2.72,.69,6.2-.02,8.03-.01,.04-.02,.07-.03,.11l-3.72,27.61-.09,.63c-.04,.27,.16,.53,.43,.56,.02,0,.05,0,.07,0,.25,0,.46-.18,.5-.43l3.8-28.18c.77-2.01,1.75-5.79-.08-8.85-1.72-2.86-5.07-3.66-7.07-4.14Z" stroke-width="0"/><path d="M24.11,18.91c-.1-.12-.26-.19-.42-.17-2.69,.21-5.41,.31-8.12,.31-1.05,0-2.09,0-3.13-.04-2.73-.08-5.49-.26-8.21-.54-.29-.03-.52,.17-.55,.44-.03,.27,.17,.52,.44,.55,2.74,.29,5.53,.47,8.28,.55,1.24,.03,2.49,.04,3.74,.03,2.31-.02,4.63-.1,6.93-.26-.68,3.05-1.04,6.56-1.2,10.03-.39,8.42,.42,16.64,.86,17.7,.08,.19,.27,.31,.46,.31,.06,0,.13-.01,.19-.04,.26-.1,.38-.4,.27-.65-.31-.75-1.09-7.9-.86-15.75,.12-4.09,.52-8.38,1.41-12.03,.04-.16,0-.32-.1-.44Z" stroke-width="0"/><path d="M44.39,19.43l-5.18-2.99c-.24-.14-.54-.06-.68,.18s-.06,.54,.18,.68l5.18,2.99c.08,.05,.16,.07,.25,.07,.17,0,.34-.09,.43-.25,.14-.24,.06-.54-.18-.68Z" stroke-width="0"/><path d="M45.82,13.07h-5.98c-.28,0-.5,.22-.5,.5s.22,.5,.5,.5h5.98c.28,0,.5-.22,.5-.5s-.22-.5-.5-.5Z" stroke-width="0"/><path d="M38.52,10.53c.09,.16,.26,.25,.43,.25,.08,0,.17-.02,.25-.07l5.18-2.99c.24-.14,.32-.44,.18-.68-.14-.24-.45-.32-.68-.18l-5.18,2.99c-.24,.14-.32,.44-.18,.68Z" stroke-width="0"/><path d="M36.29,8.3c.08,.05,.16,.07,.25,.07,.17,0,.34-.09,.43-.25l2.99-5.18c.14-.24,.06-.54-.18-.68-.24-.14-.54-.06-.68,.18l-2.99,5.18c-.14,.24-.06,.54,.18,.68Z" stroke-width="0"/></g><g id="uuid-a641f243-6920-4a84-a05e-6d00a3231967"></g></svg>