<?xml version="1.0" encoding="UTF-8"?><svg width="70" height="70" xmlns="http://www.w3.org/2000/svg" viewBox="-10 -10 70 70"><rect x="-10" y="-10" width="70" height="70" fill="white"/><g id="uuid-b94e5a1a-a107-462a-b0db-01398bfe2c19"><g id="uuid-612a8269-c493-4eb2-9b5f-145e2ecb27b3"><g><path d="M20.07,4.82l3.95,11.2-5.75-6.35,1.01-1.01c.1-.1,.15-.23,.15-.36s-.05-.26-.15-.35l-2.3-2.31,2.49-2.5,.59,1.67s.01,.01,.01,.01Z" fill="#ffcd00" stroke-width="0"/><path d="M30.37,2.6l-.54,1.53c-2.94-.64-6.01-.65-8.95,0l-.54-1.52c3.31-.71,6.67-.71,10.03,0Z" fill="#ffcd00" stroke-width="0"/><path d="M26.7,16.02L31.24,3.14l2.5,2.5-2.31,2.31c-.09,.09-.14,.22-.14,.35s.05,.26,.14,.36l1.01,1.01-5.74,6.35Z" fill="#ffcd00" stroke-width="0"/><path d="M33.08,19.91h-4.82c-.27,0-.5,.22-.5,.5s.23,.5,.5,.5h4.82c.28,0,.5-.22,.5-.5s-.22-.5-.5-.5Zm-10.7,1c.28,0,.5-.22,.5-.5s-.22-.5-.5-.5-.5,.22-.5,.5,.22,.5,.5,.5Zm0,5.61c.28,0,.5-.23,.5-.5s-.22-.5-.5-.5-.5,.22-.5,.5,.22,.5,.5,.5Zm0,5.6c.28,0,.5-.22,.5-.5s-.22-.5-.5-.5-.5,.23-.5,.5,.22,.5,.5,.5Zm0,5.61c.28,0,.5-.22,.5-.5s-.22-.5-.5-.5-.5,.22-.5,.5,.22,.5,.5,.5Zm0,5.61c.28,0,.5-.23,.5-.5s-.22-.5-.5-.5-.5,.22-.5,.5,.22,.5,.5,.5ZM32.94,2.85l-1.87-1.86s-.01-.01-.01-.01c-.05-.05-.11-.09-.18-.11-.01-.01-.02,0-.03-.01t-.02-.01C26.95-.06,23.05-.05,19.25,.85c-.01,.01-.02,.01-.02,.01-.01,.01-.02,0-.03,.01-.07,.02-.13,.06-.18,.11t-.01,.01l-1.86,1.85c-4.85,.44-8.64,4.57-8.64,9.46V31.67c0,.28,.22,.5,.5,.5h4.34v17.16c0,.28,.23,.5,.5,.5h22.3c.27,0,.5-.22,.5-.5v-17.16h4.34c.28,0,.5-.22,.5-.5V12.3c0-4.86-3.74-8.97-8.55-9.45Zm-2.02-.6l2.5,2.5-2.31,2.31c-.09,.09-.14,.22-.14,.35s.05,.26,.14,.36l1.01,1.01-5.74,6.35L30.92,2.25Zm-.87-.54l-.54,1.53c-2.94-.64-6.01-.65-8.95-.01l-.54-1.52c3.31-.71,6.67-.71,10.03,0Zm-10.9,.54l.59,1.67s.01,.01,.01,.01l3.95,11.2-5.75-6.35,1.01-1.01c.1-.1,.15-.23,.15-.36s-.05-.26-.15-.35l-2.3-2.31,2.49-2.5Zm5.35,46.58H14.35v-4.99h1.05c1.93,0,3.5-1.57,3.5-3.5v-4.77c0-.28-.22-.5-.5-.5h-4.05V14.66c0-.28-.22-.5-.5-.5s-.5,.22-.5,.5V31.17h-3.84V12.3c0-3.93,2.73-7.3,6.42-8.24l-.33,.34c-.1,.09-.15,.22-.15,.35s.05,.26,.15,.36l2.3,2.3-.99,1c-.19,.18-.2,.49-.02,.68l7.61,8.42v31.32Zm-10.15-5.99v-6.77h3.55v4.27c0,1.38-1.12,2.5-2.5,2.5h-1.05ZM20.89,4.18c2.73-.57,5.57-.57,8.29,.01l-4.14,11.73-4.15-11.74Zm14.76,38.66h-1.05c-1.38,0-2.5-1.12-2.5-2.5v-4.27h3.55v6.77Zm4.84-11.67h-3.84V14.66c0-.28-.23-.5-.5-.5s-.5,.22-.5,.5v20.41h-4.05c-.28,0-.5,.22-.5,.5v4.77c0,1.93,1.57,3.5,3.5,3.5h1.05v4.99h-10.15V17.59l7.68-8.5c.18-.19,.18-.5-.01-.68l-1-1,2.31-2.3c.09-.1,.15-.23,.15-.36s-.06-.26-.15-.35l-.31-.31c3.64,.97,6.32,4.32,6.32,8.21V31.17Z" stroke-width="0"/></g></g></g><g id="uuid-5cf81a69-7a38-4148-8dfc-19427f08ccbc"></g></svg>