<?xml version="1.0" encoding="UTF-8"?><svg width="70" height="70" xmlns="http://www.w3.org/2000/svg" viewBox="-10 -10 70 70"><rect x="-10" y="-10" width="70" height="70" fill="white"/><g id="uuid-72cb0533-0a42-4825-92ba-9b4da2e35305"><path d="M43.78,18.12c1.17,1.3,1.77,2.98,1.68,4.73-.1,1.75-.86,3.36-2.16,4.53-2.69,2.42-6.85,2.21-9.27-.48s-2.2-6.84.49-9.26c1.21-1.1,2.75-1.69,4.38-1.69.11,0,.23.01.35.01,1.75.09,3.36.86,4.53,2.16Z" fill="#ffcd00" stroke-width="0"/><path d="M21.06,18.28l19.36,21.49c-.75.41-1.71.7-2.92.7-4.13,0-5.44-3.37-5.49-3.51-.07-.2-.26-.32-.47-.33-.21,0-.39.13-.47.32-.05.15-1.41,3.52-5.33,3.52s-5.37-3.38-5.43-3.53c-.07-.18-.26-.31-.46-.31h0c-.2.01-.38.13-.46.32,0,.04-1.39,3.52-5.5,3.52-1.61,0-2.77-.52-3.59-1.17l11.22-10.1c.1-.09.16-.21.16-.35.01-.13-.04-.26-.12-.36l-8.25-9.15c-.64-.71-.93-1.66-.8-2.6.12-.94.66-1.78,1.46-2.3L31.11,3.47c1.5-.96,3.51-.52,4.47.98.47.73.62,1.6.44,2.44-.19.85-.69,1.57-1.42,2.04l-13.43,8.59c-.13.08-.21.21-.23.36-.02.14.03.29.12.4Z" fill="#ffcd00" stroke-width="0"/></g><g id="uuid-7ddc298c-1b3d-45da-bc97-b3acd1d1b132"><path d="M48.52,39.75c.28,0,.5.23.5.5s-.22.5-.5.5c-3.23,0-5.05-2.06-5.84-3.27-.74,1.23-2.49,3.27-5.9,3.27s-5.2-2.04-5.96-3.27c-.77,1.22-2.54,3.27-5.8,3.27s-5.1-2.08-5.88-3.29c-.77,1.22-2.58,3.29-5.98,3.29s-4.95-1.87-5.74-3.11c-1.56,3.04-5.74,3.11-5.94,3.11-.27,0-.5-.22-.5-.49s.22-.5.49-.51c.05,0,4.57-.09,5.39-3.46.05-.21.24-.37.46-.38s.42.13.5.34c.02.07.31.84,1.02,1.65l10.91-9.83-7.91-8.78c-.84-.93-1.22-2.17-1.05-3.4.16-1.24.86-2.33,1.91-3.01L29.85,1.91c1.96-1.27,4.59-.69,5.85,1.28.61.96.82,2.09.57,3.2-.24,1.1-.9,2.05-1.85,2.66l-12.94,8.28,19.06,21.15c1.18-.97,1.61-2.15,1.64-2.23.07-.2.25-.33.46-.34.22-.02.39.12.47.3.07.15,1.6,3.54,5.41,3.54ZM39.7,39.05l-19.36-21.49c-.09-.11-.14-.26-.12-.4.02-.15.1-.28.23-.36l13.43-8.59c.73-.47,1.23-1.19,1.42-2.04.18-.84.03-1.71-.44-2.44-.96-1.5-2.97-1.94-4.47-.98L13.24,13.72c-.8.52-1.34,1.36-1.46,2.3-.13.94.16,1.89.8,2.6l8.25,9.15c.08.1.13.23.12.36,0,.14-.06.26-.16.35l-11.22,10.1c.82.65,1.98,1.17,3.59,1.17,4.11,0,5.49-3.48,5.5-3.52.08-.19.26-.31.46-.32h.01c.2,0,.39.13.46.31.06.15,1.51,3.53,5.43,3.53s5.28-3.37,5.33-3.52c.08-.19.26-.32.47-.32.21.01.4.13.47.33.05.14,1.36,3.51,5.49,3.51,1.21,0,2.17-.29,2.92-.7Z" stroke-width="0"/><path d="M48.52,46.76c.28,0,.5.22.5.5s-.22.5-.5.5c-3.23,0-5.05-2.06-5.84-3.28-.74,1.23-2.49,3.28-5.9,3.28s-5.2-2.05-5.96-3.27c-.77,1.22-2.54,3.27-5.8,3.27s-5.1-2.08-5.88-3.3c-.77,1.22-2.58,3.3-5.98,3.3s-4.95-1.88-5.74-3.11c-1.56,3.03-5.74,3.11-5.94,3.11-.3.02-.5-.22-.5-.5s.22-.5.49-.5c.05,0,4.57-.09,5.39-3.46.05-.22.24-.37.46-.38.22,0,.42.12.5.33.05.15,1.27,3.51,5.34,3.51s5.49-3.49,5.5-3.52c.08-.19.26-.32.46-.32h.01c.2,0,.39.12.46.31.06.14,1.51,3.53,5.43,3.53s5.28-3.38,5.33-3.52c.08-.19.26-.32.47-.32s.4.13.47.32c.05.15,1.36,3.52,5.49,3.52s5.35-3.36,5.4-3.51c.07-.19.25-.32.46-.33.22-.02.39.11.47.3.07.14,1.6,3.54,5.41,3.54Z" stroke-width="0"/><path d="M43.8,16.73c1.35,1.5,2.04,3.44,1.93,5.45-.1,2.02-.98,3.88-2.48,5.23-1.41,1.26-3.19,1.94-5.06,1.94-.13,0-.26,0-.4-.01-2.01-.11-3.87-.99-5.22-2.49-2.79-3.1-2.54-7.89.56-10.67,1.5-1.36,3.43-2.04,5.45-1.94,2.01.11,3.87.99,5.22,2.49ZM44.74,22.13c.09-1.75-.51-3.43-1.68-4.73s-2.78-2.07-4.53-2.16c-.12,0-.24-.01-.35-.01-1.63,0-3.17.59-4.38,1.69-2.69,2.42-2.91,6.57-.49,9.26s6.58,2.9,9.27.48c1.3-1.17,2.06-2.78,2.16-4.53Z" stroke-width="0"/></g></svg>