<?xml version="1.0" encoding="UTF-8"?><svg width="70" height="70" id="uuid-613fc2ea-aee7-4193-8b5b-85dc3641df43" xmlns="http://www.w3.org/2000/svg" viewBox="-10 -10 70 70"><rect x="-10" y="-10" width="70" height="70" fill="white"/><path d="M45.83,38.58V10.97H6.67v27.61H2.61v1.44c0,.83,.68,1.51,1.51,1.51H48.38c.83,0,1.51-.68,1.51-1.51v-1.44h-4.06Zm-5.66-6.13H9.33V13.1h30.83v19.35Z" fill="#ffcd00" stroke-width="0"/><path d="M40.67,12.1H8.83c-.28,0-.5,.22-.5,.5v20.35c0,.28,.22,.5,.5,.5h31.83c.28,0,.5-.22,.5-.5V12.6c0-.28-.22-.5-.5-.5Zm-.5,20.35H9.33V13.1h30.83v19.35Z" stroke-width="0"/><path d="M48.89,36.08h-3.56V8.97c0-.28-.22-.5-.5-.5H4.67c-.28,0-.5,.22-.5,.5v27.11H.61c-.28,0-.5,.22-.5,.5v1.95c0,1.38,1.12,2.5,2.5,2.5H46.89c1.38,0,2.5-1.12,2.5-2.5v-1.95c0-.28-.22-.5-.5-.5ZM5.17,9.47H44.33v26.61H5.17V9.47Zm43.21,29.06c0,.83-.67,1.5-1.5,1.5H2.61c-.83,0-1.5-.67-1.5-1.5v-1.45H48.39v1.45Z" stroke-width="0"/></svg>