<?xml version="1.0" encoding="UTF-8"?><svg width="70" height="70" xmlns="http://www.w3.org/2000/svg" viewBox="-10 -10 70 70"><rect x="-10" y="-10" width="70" height="70" fill="white"/><g id="uuid-a92608f8-bf8e-4cc5-a8c5-c95a75a7d5f7"><path d="M25.29,37.5c2.94,0,5.34,2.4,5.34,5.35s-2.4,5.34-5.34,5.34-5.35-2.39-5.35-5.34,2.4-5.35,5.35-5.35Z" fill="#ffcd00" stroke-width="0"/></g><g id="uuid-4e516bf3-1678-4bd2-8fed-88de326c47a7"><path d="M47.57,41.63c.28,0,.5.22.5.5s-.22.5-.5.5h-11.33c-.27,0-.5-.23-.5-.5s.23-.5.5-.5h11.33Z" stroke-width="0"/><path d="M45.85,34.38c.09.26-.04.55-.3.64l-1.92.7c-.05.02-.11.03-.17.03-.2,0-.39-.13-.47-.33-.09-.26.04-.54.3-.64l1.92-.7c.26-.09.54.04.64.3Z" stroke-width="0"/><path d="M40.3,35.87c.26-.09.55.04.64.3.1.26-.04.54-.3.64l-4.94,1.8c-.06.02-.12.03-.17.03-.21,0-.4-.13-.47-.33-.1-.26.04-.55.3-.64l4.94-1.8Z" stroke-width="0"/><path d="M39.56,28.9c.21-.18.53-.16.7.06.18.21.16.52-.06.7l-6.37,5.35c-.09.08-.21.12-.32.12-.14,0-.29-.06-.39-.18-.17-.21-.15-.53.07-.71l6.37-5.34Z" stroke-width="0"/><path d="M33.67,24.58l-3.85,6.68c-.09.16-.26.25-.43.25-.09,0-.18-.02-.25-.07-.24-.13-.33-.44-.19-.68l3.86-6.68c.14-.24.44-.32.68-.18s.32.44.18.68Z" stroke-width="0"/><path d="M25.07.97v29.11c0,.27-.23.5-.5.5s-.5-.23-.5-.5V.97c0-.27.22-.5.5-.5s.5.23.5.5Z" stroke-width="0"/><path d="M29.91,42.13c0-2.95-2.4-5.35-5.34-5.35s-5.35,2.4-5.35,5.35,2.4,5.34,5.35,5.34,5.34-2.39,5.34-5.34ZM30.91,42.13c0,3.5-2.84,6.34-6.34,6.34s-6.35-2.84-6.35-6.34,2.85-6.35,6.35-6.35,6.34,2.85,6.34,6.35Z" stroke-width="0"/><path d="M19.31,31.26l-5.81-10.07c-.14-.24-.06-.54.18-.68s.55-.06.69.18l5.81,10.07c.14.24.06.55-.18.68-.08.05-.17.07-.25.07-.17,0-.34-.09-.44-.25Z" stroke-width="0"/><path d="M12.89,41.63c.28,0,.5.22.5.5s-.22.5-.5.5H1.56c-.28,0-.5-.23-.5-.5s.22-.5.5-.5h11.33Z" stroke-width="0"/><path d="M10.93,30.03l5.02,4.21c.21.18.24.5.06.71-.1.12-.24.18-.39.18-.11,0-.22-.04-.32-.12l-5.01-4.21c-.21-.18-.24-.49-.06-.7.17-.22.49-.24.7-.07Z" stroke-width="0"/><path d="M8.92,28.35c.21.18.24.49.06.7-.09.12-.24.18-.38.18-.11,0-.23-.04-.32-.11l-.88-.74c-.21-.18-.24-.5-.06-.71.17-.21.49-.23.7-.06l.88.74Z" stroke-width="0"/><path d="M3.24,33.83l10.54,3.84c.26.09.39.38.29.64-.07.2-.26.33-.47.33-.05,0-.11-.01-.17-.03l-10.53-3.84c-.26-.09-.39-.38-.3-.64.1-.25.38-.39.64-.3Z" stroke-width="0"/></g></svg>