<?xml version="1.0" encoding="UTF-8"?><svg width="70" height="70" xmlns="http://www.w3.org/2000/svg" viewBox="-10 -10 70 70"><rect x="-10" y="-10" width="70" height="70" fill="white"/><g id="uuid-dc93cd71-c28f-4193-a575-40697f4e847a"><g><g><path d="M48.61,42.5v2.14c0,1.68-1.36,3.05-3.04,3.05H27.24c-.99,0-1.8-.81-1.8-1.81s.81-1.81,1.8-1.81h15.71l1.03,1.4c.1,.14,.25,.21,.4,.21,.11,0,.21-.04,.3-.1,.22-.17,.27-.48,.1-.7l-.96-1.31,.96-1.3c.17-.23,.12-.54-.1-.7-.02-.02-.04-.02-.06-.03-.22-.12-.49-.07-.64,.13l-1.03,1.4h-15.71c-.18,0-.35-.03-.51-.08-.75-.22-1.29-.91-1.29-1.72,0-1,.81-1.81,1.8-1.81h18.33c1.68,0,3.04,1.36,3.04,3.04Z" fill="#ffcd00" stroke-width="0"/><path d="M46.81,30.23c.99,0,1.8,.81,1.8,1.81s-.81,1.8-1.8,1.8h-15.71l-1.03-1.4c-.17-.22-.48-.27-.7-.1-.1,.07-.16,.18-.18,.29v.23c0,.06,.03,.12,.07,.18l.97,1.3-.97,1.31c-.1,.14-.11,.31-.06,.46,.03,.09,.08,.18,.17,.24,.09,.07,.19,.1,.3,.1,.15,0,.3-.07,.4-.21l.1-.13,.93-1.27h15.71c.99,0,1.8,.82,1.8,1.81s-.81,1.81-1.8,1.81H28.48c-.13,0-.26-.02-.38-.04-.89-.11-1.67-.6-2.15-1.31-.2-.3-.34-.64-.43-1-.05-.23-.08-.46-.08-.7v-2.13c0-1.6,1.23-2.89,2.79-3.02,.08-.01,.16-.03,.25-.03h18.33Z" fill="#ffcd00" stroke-width="0"/><path d="M43.33,18.06H5.99c.2-2.49,2.36-4.58,5.34-5.4,.63-.18,1.29-.3,1.98-.35,.27-.02,.54-.03,.82-.03,.75,0,1.49,.08,2.21,.23,.19,.03,.37-.04,.48-.18,.05-.06,.09-.13,.11-.21,.06-.27-.12-.53-.39-.59-.78-.17-1.59-.25-2.41-.25-.92,0-1.81,.12-2.64,.31-.37,.09-.73,.19-1.07,.31,.23-4.5,4.72-8.1,10.22-8.1,3.33,0,6.37,1.37,8.26,3.54,.39,.45,.74,.92,1.03,1.43-2.13,.24-4.14,.89-5.87,1.94-.23,.14-.31,.45-.17,.69,.15,.24,.46,.31,.69,.17,1.73-1.05,3.75-1.67,5.91-1.85,.42-.04,.85-.06,1.28-.06,4,0,7.52,1.55,9.6,3.9,1.15,1.3,1.86,2.84,1.96,4.5Z" fill="#ffcd00" stroke-width="0"/></g><path d="M48.59,41.76v2.14c0,2.23-1.81,4.05-4.04,4.05H26.22c-1.55,0-2.8-1.26-2.8-2.81,0-.73,.28-1.39,.74-1.89H6.36c-1.4,0-2.59-1.09-2.69-2.49l-1.42-18.31c-.93-.35-1.59-1.24-1.59-2.29v-.39c0-1.35,1.1-2.45,2.45-2.45h.86c.17-2.43,1.89-4.55,4.42-5.74-.01-.02-.01-.04-.01-.06,0-5.22,5.04-9.46,11.24-9.46,4.56,0,8.68,2.35,10.4,5.88,.24-.01,.48-.02,.73-.02,6.77,0,12.29,4.18,12.56,9.4h1.42c1.35,0,2.45,1.1,2.45,2.45v.39c0,1.26-.95,2.28-2.17,2.42l-.46,5.91h1.24c1.54,0,2.8,1.26,2.8,2.81,0,.95-.48,1.8-1.21,2.3,.73,.51,1.21,1.36,1.21,2.31,0,1.15-.7,2.14-1.69,2.58,1.02,.73,1.69,1.92,1.69,3.27Zm-1,2.14v-2.14c0-1.68-1.36-3.04-3.04-3.04H26.22c-.99,0-1.8,.81-1.8,1.81,0,.81,.54,1.5,1.29,1.72,.16,.05,.33,.08,.51,.08h15.71l1.03-1.4c.15-.2,.42-.25,.64-.13,.02,.01,.04,.01,.06,.03,.22,.16,.27,.47,.1,.7l-.96,1.3,.96,1.31c.17,.22,.12,.53-.1,.7-.09,.06-.19,.1-.3,.1-.15,0-.3-.07-.4-.21l-1.03-1.4h-15.71c-.99,0-1.8,.81-1.8,1.81s.81,1.81,1.8,1.81h18.33c1.68,0,3.04-1.37,3.04-3.05Zm-1.41-23.74v-.39c0-.8-.65-1.45-1.45-1.45H3.11c-.8,0-1.45,.65-1.45,1.45v.39c0,.8,.65,1.45,1.45,1.45H44.73c.8,0,1.45-.65,1.45-1.45Zm1.41,11.14c0-1-.81-1.81-1.8-1.81H27.46c-.09,0-.17,.02-.25,.03-1.56,.13-2.79,1.42-2.79,3.02v2.13c0,.24,.03,.47,.08,.7,.09,.36,.23,.7,.43,1,.48,.71,1.26,1.2,2.15,1.31,.12,.02,.25,.04,.38,.04h18.33c.99,0,1.8-.81,1.8-1.81s-.81-1.81-1.8-1.81h-15.71l-.93,1.27-.1,.13c-.1,.14-.25,.21-.4,.21-.11,0-.21-.03-.3-.1-.09-.06-.14-.15-.17-.24-.05-.15-.04-.32,.06-.46l.97-1.31-.97-1.3c-.04-.06-.06-.12-.08-.18v-.23c.03-.11,.09-.22,.19-.29,.22-.17,.53-.12,.7,.1l1.03,1.4h15.71c.99,0,1.8-.81,1.8-1.8Zm-4.04-2.81l.46-5.88h-7.35l-.27,5.88h7.16ZM6.03,17.32H42.31c-.1-1.66-.81-3.2-1.96-4.5-2.08-2.35-5.6-3.9-9.6-3.9-.43,0-.86,.02-1.28,.06-2.16,.18-4.18,.8-5.91,1.85-.23,.14-.54,.07-.69-.17-.14-.24-.06-.55,.17-.69,1.73-1.05,3.74-1.7,5.87-1.94-.29-.51-.64-.98-1.03-1.43-1.89-2.17-4.93-3.54-8.26-3.54-5.5,0-9.99,3.6-10.22,8.1,.34-.12,.7-.22,1.07-.31,.83-.19,1.72-.31,2.64-.31,.82,0,1.63,.08,2.41,.25,.27,.06,.45,.32,.39,.59-.02,.08-.06,.15-.11,.21-.11,.14-.29,.21-.48,.18-.72-.15-1.46-.23-2.21-.23-.28,0-.55,0-.82,.03-.69,.05-1.35,.17-1.98,.35-2.98,.82-5.14,2.91-5.34,5.4h1.06Zm29.36,11.17l.27-5.88h-7.35l-.09,5.88h7.17Zm-8.17,0l.09-5.88h-7.35l.09,5.88h7.17Zm-2.39,1h-4.76l.09,5.88h3.32c-.04-.23-.06-.46-.06-.7v-2.13c0-1.23,.55-2.31,1.41-3.05Zm.28,8.46c-.56-.4-1.01-.95-1.31-1.58h-3.62l.09,5.88h3.76c-.38-.48-.61-1.07-.61-1.72,0-1.16,.69-2.15,1.69-2.58Zm-5.84,4.3l-.09-5.88h-6.93l.27,5.88h6.75Zm-.11-6.88l-.09-5.88h-7.14l.28,5.88h6.95Zm-.11-6.88l-.09-5.88h-7.35l.28,5.88h7.16Zm-7.53,13.76l-.27-5.88H4.33l.33,4.31c.07,.88,.81,1.57,1.7,1.57h5.16Zm-.31-6.88l-.28-5.88H3.8l.45,5.88h6.96Zm-.32-6.88l-.28-5.88H3.27l.45,5.88h7.17Z" stroke-width="0"/></g></g><g id="uuid-9a5a6d7a-9ee0-4d87-b527-51e548ec77ef"></g></svg>