<?xml version="1.0" encoding="UTF-8"?><svg width="70" height="70" id="uuid-4f6d30c8-0ec3-4397-8168-07432e09c7f1" xmlns="http://www.w3.org/2000/svg" viewBox="-10 -10 70 70"><rect x="-10" y="-10" width="70" height="70" fill="white"/><path d="M28.59,7.27c.06-.13,.06-.28,0-.41l-1.13-2.5h7.06v5.41h-7.06l1.13-2.5Z" fill="#ffcd00" stroke-width="0"/><path d="M35.21,21.75c-.05-.2-.18-.36-.36-.46-.04-.03-.09-.03-.14-.05-.14-.04-.29-.06-.43-.02l-4.72,1.29c-.15,.05-.3,.02-.43-.07l-2.93-2.16c-.29-.21-.63-.34-.99-.38l-3.42-.37c-.39-.04-.78,.03-1.12,.21l-3.63,1.8c-.43,.22-.77,.58-.96,1.03l-1.82,4.36c-.08,.18-.08,.39,0,.58,.07,.19,.22,.33,.41,.41,.39,.17,.84-.03,.99-.41l1.82-4.35c.05-.11,.14-.2,.24-.26l2.53-1.26c.07-.03,.15-.05,.23-.05,.12,0,.24,.05,.33,.13,.16,.14,.21,.36,.13,.55-.01,.04-1.08,2.77-1.85,4.95-.13,.37-.25,.72-.36,1.05-.15,.44-.21,1.12,.91,1.91,.01,.01,.02,.02,.03,.03l.1,3.78c0,.09-.02,.18-.06,.26l-3.04,5.54c-.1,.18-.12,.38-.06,.58,.05,.19,.18,.35,.36,.45,.36,.2,.84,.06,1.04-.3l3.03-5.54c.18-.31,.27-.68,.25-1.04l-.06-2.81,.99,.57,3.66,2.15c.1,.06,.18,.15,.22,.25l2.28,5.87c.19,.39,.6,.52,.61,.52,.45,.17,.91-.02,1.08-.42,.09-.19,.1-.41,.02-.61l-2.37-6.29c-.14-.37-.37-.68-.68-.91l-4.23-2.85c-.18-.12-.26-.35-.2-.56l2.09-6.95c.04-.16,.16-.28,.32-.33,.15-.05,.32-.02,.45,.07l3.25,2.39c.19,.13,.44,.18,.66,.12l5.3-1.46s.02,0,.03-.02c.18-.06,.34-.17,.43-.34,.1-.18,.13-.38,.07-.58Z" fill="#ffcd00" stroke-width="0"/><g><path d="M25.38,15.04c0-.95-.76-1.71-1.7-1.71s-1.71,.76-1.71,1.71,.76,1.7,1.71,1.7,1.7-.76,1.7-1.7Zm1,0c0,1.49-1.21,2.7-2.7,2.7s-2.71-1.21-2.71-2.7,1.21-2.71,2.71-2.71,2.7,1.21,2.7,2.71Z" stroke-width="0"/><path d="M27.34,6.06c.06,.13,.06,.28,0,.41l-1.13,2.5h7.78V3.56h-7.78l1.13,2.5Zm-10.05,33.94l3.03-5.54c.18-.31,.27-.68,.25-1.04l-.05-1.65-1.56-.91,.09,2.61c0,.09-.02,.18-.06,.26l-3.04,5.54c-.1,.18-.12,.38-.06,.58,.05,.19,.18,.35,.36,.45,.36,.2,.84,.06,1.04-.3Zm-2.85-18.34c.28-.67,.79-1.21,1.44-1.54l3.62-1.8c.52-.26,1.1-.36,1.67-.3l3.43,.37c.53,.05,1.04,.25,1.47,.57l2.74,2.01,4.48-1.24c.23-.06,.47-.07,.7-.04V9.97h-8.56c-.17,0-.33-.09-.42-.23s-.1-.32-.03-.48l1.35-3-1.35-2.99c-.07-.16-.06-.34,.03-.48s.25-.23,.42-.23h8.56v-.32c0-.28,.22-.5,.5-.5s.5,.22,.5,.5V20.18c.22,.22,.38,.48,.47,.79,.12,.45,.06,.92-.17,1.33-.08,.15-.19,.27-.3,.38v14.96c0,.28-.22,.5-.5,.5s-.5-.22-.5-.5v-14.44l-5.07,1.39c-.51,.14-1.08,.04-1.51-.28l-2.68-1.96-1.78,5.92,3.95,2.65c.48,.36,.83,.83,1.03,1.37l2.37,6.29c.17,.45,.16,.94-.03,1.38-.3,.67-.97,1.08-1.66,1.08-.22,0-.44-.04-.65-.12-.04-.01-.81-.24-1.22-1.07l-2.23-5.74-2.97-1.74,.03,1.02c.02,.54-.11,1.08-.37,1.56l-3.04,5.53c-.31,.57-.9,.92-1.54,.92-.3,0-.59-.08-.85-.22-.41-.23-.71-.6-.84-1.05-.14-.46-.08-.93,.14-1.35l2.98-5.41-.12-3.21c-1.12-1-1.11-2.02-.87-2.73,.48-1.44,1.27-3.53,1.77-4.84l-1.21,.61-1.75,4.18c-.37,.87-1.42,1.32-2.31,.94-.43-.18-.77-.52-.95-.95-.18-.44-.18-.92,0-1.35l1.83-4.36Zm-.49,5.74c.39,.17,.84-.03,.99-.41l1.82-4.35c.05-.11,.14-.2,.24-.26l2.53-1.26c.07-.03,.15-.05,.23-.05,.12,0,.24,.05,.33,.13,.16,.14,.21,.36,.13,.55-.01,.04-1.08,2.77-1.85,4.95-.13,.37-.25,.72-.36,1.05-.15,.44-.21,1.12,.91,1.91,.02,.02,.04,.03,.06,.05l1.49,.88,1.03,.59,3.66,2.15c.1,.06,.18,.15,.22,.25l2.28,5.87c.19,.39,.6,.52,.61,.52,.45,.17,.91-.02,1.08-.42,.09-.19,.1-.41,.02-.61l-2.37-6.29c-.14-.37-.37-.68-.68-.91l-4.23-2.85c-.18-.12-.26-.35-.2-.56l2.09-6.95c.04-.16,.16-.28,.32-.33,.15-.05,.32-.02,.45,.07l3.25,2.39c.19,.13,.44,.18,.66,.12l5.3-1.46s.02-.01,.03-.02c.18-.06,.34-.17,.43-.34,.1-.18,.13-.38,.07-.58-.05-.2-.18-.36-.36-.46-.04-.03-.09-.03-.14-.05-.14-.04-.29-.06-.43-.02l-4.72,1.29c-.15,.05-.3,.02-.43-.07l-2.93-2.16c-.29-.21-.63-.34-.99-.38l-3.42-.37c-.39-.04-.78,.03-1.12,.21l-3.63,1.8c-.43,.22-.77,.58-.96,1.03l-1.82,4.36c-.08,.18-.08,.39,0,.58,.07,.19,.22,.33,.41,.41Z" stroke-width="0"/><path d="M30.08,43.35H11.44l-2.89,5.27c-.09,.16-.26,.26-.44,.26h-3.43c-.27,0-.5-.23-.5-.5s.23-.5,.5-.5h3.13l2.9-5.27c.09-.16,.26-.26,.44-.26H29.93l4.29-2.8c.08-.05,.17-.08,.27-.08,.04,0,.07,0,.11,.01,.13,.03,.24,.11,.31,.22l5.28,8.18h5.63c.28,0,.5,.22,.5,.5s-.22,.5-.5,.5h-5.9c-.17,0-.33-.09-.42-.23l-5.16-7.99-3.99,2.61c-.08,.05-.17,.08-.27,.08Z" stroke-width="0"/></g></svg>