<?xml version="1.0" encoding="UTF-8"?><svg width="70" height="70" xmlns="http://www.w3.org/2000/svg" viewBox="-10 -10 70 70"><rect x="-10" y="-10" width="70" height="70" fill="white"/><g id="uuid-4ac4b031-13bd-4f34-9379-8dd40ecb5c27"><g><path d="M46.48,2.93C23.31,8.39,6.92,19.39,7.33,29.32c.13,3.11,1.98,7.95,5.7,11.46,.12,.12,.23,.24,.36,.35,.13,.11,.26,.2,.39,.31,3.98,3.34,9.06,4.6,12.19,4.33,9.83-.85,18.57-18.38,21.05-41.95,.04-.35,.08-.7,.11-1.06-.22,.05-.43,.1-.65,.16Z" fill="#ffcd00" stroke-width="0"/><path d="M46.49,.33c-.12-.11-.28-.15-.44-.11C21.72,5.67,4.37,17.32,4.8,27.93c.13,3.31,2.09,8.46,6.04,12.17l-7.84,8.87c-.18,.21-.16,.52,.04,.71,.1,.08,.21,.12,.33,.12,.14,0,.28-.06,.37-.17l7.83-8.86c3.83,3.22,8.66,4.62,12.01,4.62,.33,0,.64-.01,.93-.04,10.56-.91,19.87-19.67,22.14-44.59,.01-.16-.05-.32-.17-.42ZM5.8,27.89C5.39,17.96,21.78,6.96,44.94,1.5L27.01,21.8l-.43-6.98c-.02-.28-.26-.49-.53-.47-.28,.02-.49,.25-.47,.53l.49,7.98-14.58,16.49c-3.72-3.52-5.57-8.35-5.7-11.46Zm18.64,16.46c-3.14,.26-8.21-.99-12.19-4.33l5.92-6.7,11.48-.71c.28-.02,.49-.25,.47-.53-.02-.28-.26-.49-.53-.47l-10.49,.65,7.85-8.89h0l8.78-9.93,3.82-.24c.28-.02,.49-.25,.47-.53-.02-.28-.25-.49-.53-.47l-2.82,.17L45.49,2.4c-2.48,23.57-11.22,41.1-21.05,41.95Z" stroke-width="0"/></g></g><g id="uuid-65ec6572-2868-4352-9586-a2daaba5cd30"></g></svg>