<?xml version="1.0" encoding="UTF-8"?><svg width="70" height="70" xmlns="http://www.w3.org/2000/svg" viewBox="-10 -10 70 70"><rect x="-10" y="-10" width="70" height="70" fill="white"/><g id="uuid-b89e1622-e94e-40ca-8593-10e146d261a0"><g><path d="M40.81,45.45h-.5v-4.02h-3.45c-.01-9.4-.03-18.79-.04-28.19h2.98v-3.91H12.71v3.91h2.93c.03,9.4,.05,18.79,.08,28.19h-3.52v4.02h-2.8v3.93H43.11v-3.93h-2.3Zm-9.44-9.92h-13.23V15.72h13.23v19.81Z" fill="#ffcd00" stroke-width="0"/><g><path d="M42.11,43.41h-2.3v-3.98c0-.28-.22-.5-.5-.5h-2.99V12.31h2.47c.28,0,.5-.22,.5-.5V7.34c0-.28-.22-.5-.5-.5h-9.25V3.85c0-.13-.05-.26-.15-.35l-2.73-2.73c-.2-.2-.51-.2-.71,0s-.2,.51,0,.71l2.58,2.58v2.78H10.71c-.28,0-.5,.22-.5,.5v4.48c0,.28,.22,.5,.5,.5h2.47v26.62h-2.99c-.28,0-.5,.22-.5,.5v3.98h-2.3c-.28,0-.5,.22-.5,.5v4.48c0,.28,.22,.5,.5,.5H42.11c.28,0,.5-.22,.5-.5v-4.48c0-.28-.22-.5-.5-.5ZM11.21,7.84h27.08v3.48H11.21v-3.48Zm2.97,4.48h21.14v26.62H14.18V12.31Zm-3.49,27.62h28.12v3.48H10.69v-3.48Zm30.92,7.95H7.89v-3.48H41.61v3.48Z" stroke-width="0"/><path d="M31.87,14.72h-14.23c-.28,0-.5,.22-.5,.5v20.81c0,.28,.22,.5,.5,.5h14.23c.28,0,.5-.22,.5-.5V15.22c0-.28-.22-.5-.5-.5Zm-.5,20.81h-13.23V15.72h13.23v19.81Z" stroke-width="0"/></g></g></g><g id="uuid-8cc4ff18-e31f-4a03-9b72-74f3846fd40c"></g></svg>