<?xml version="1.0" encoding="UTF-8"?><svg width="70" height="70" xmlns="http://www.w3.org/2000/svg" viewBox="-10 -10 70 70"><rect x="-10" y="-10" width="70" height="70" fill="white"/><g id="uuid-0b306d4f-412d-4215-aed5-9b0d54f4bc46"><g><path d="M46.29,29.58c3.43,5.06,3.75,15.19,2.98,16.25-.1,.17-.79,.75-5.57,.86h-.16c-1.72,.05-32.17,.47-34.26,.39-2.3-.08-5.14-1.02-6.33-2.91-.81-1.28,0-2.6,2.62-4.28,6.02-3.85,12.34-6.94,18.81-9.19,1.22-.43,2.5-.85,3.81-1.25,.48,.28,1.01,.48,1.58,.57l.66,.1c.27,.04,.53-.15,.57-.42s-.15-.53-.42-.57l-.65-.1c-1.62-.25-2.84-1.56-2.96-3.2l-1.23-16.38c-.07-.9,.17-1.8,.68-2.54,.7-1.04,1.84-1.68,3.12-1.74,.36-.02,.73,.12,1.01,.37,.88,.79,1.31,.91,1.56,.94,.51,.06,.95-.24,1.34-.5,.2-.13,.51-.33,.62-.32,.14,.01,.41,.26,.6,.44,.34,.3,.72,.65,1.2,.67,.51,.03,.93-.3,1.3-.59,.19-.15,.47-.36,.59-.36,.15,0,.43,.22,.65,.4,.35,.28,.79,.59,1.23,.58,.52-.01,.92-.37,1.28-.69,.16-.14,.43-.38,.54-.39,.16-.01,.46,.19,.7,.36,.38,.26,.79,.54,1.24,.48,.42-.04,.94-.34,1.58-.92,.31-.27,.68-.41,1.04-.37,1.17,.12,2.19,.87,2.65,1.96,.22,.5,.31,1.06,.25,1.61l-1.66,17c-.18,1.88-1.55,3.42-3.4,3.82-.27,.06-.44,.32-.38,.59,.05,.24,.26,.4,.49,.4,.03,0,.07-.01,.1-.01,.84-.18,1.59-.56,2.22-1.06Z" fill="#ffcd00" stroke-width="0"/><path d="M45.77,27.61c3.62,5.17,4.26,16.08,3.07,17.53-.44,.8-2.36,1.21-6.37,1.3h-.16c-.24,.01-26.77,.4-33.11,.4-.59,0-1.01,0-1.21-.01-2.37-.09-5.66-1.03-7.14-3.38-1.7-2.68,1.67-4.84,2.94-5.65,6.07-3.89,12.47-7.02,19.01-9.3,1.02-.36,2.09-.71,3.18-1.05-.71-.73-1.17-1.71-1.26-2.79l-1.23-16.39c-.08-1.12,.22-2.25,.85-3.18,.87-1.28,2.33-2.09,3.89-2.17,.63-.03,1.26,.2,1.74,.63,.58,.52,.91,.68,1,.69,.15,.03,.45-.19,.67-.34,.37-.25,.78-.52,1.25-.49,.49,.04,.87,.39,1.21,.7,.17,.15,.44,.4,.56,.41h.01c.14,0,.43-.22,.64-.39,.35-.26,.73-.59,1.21-.56,.49,0,.9,.33,1.26,.61,.18,.14,.47,.37,.58,.37,.16,0,.44-.25,.64-.43,.34-.31,.69-.62,1.14-.65,.51-.04,.95,.27,1.34,.53,.17,.12,.46,.32,.56,.32h.01c.14-.02,.49-.2,1.01-.67s1.18-.7,1.82-.63c1.52,.16,2.85,1.14,3.46,2.56,.29,.66,.4,1.39,.33,2.11l-1.66,16.99c-.11,1.11-.56,2.12-1.24,2.93Zm2.25,16.97c.77-1.06,.45-11.19-2.98-16.25-.63,.5-1.38,.88-2.22,1.06-.03,0-.07,.01-.1,.01-.23,0-.44-.16-.49-.4-.06-.27,.11-.53,.38-.59,1.85-.4,3.22-1.94,3.4-3.82l1.66-17c.06-.55-.03-1.11-.25-1.61-.46-1.09-1.48-1.84-2.65-1.96-.36-.04-.73,.1-1.04,.37-.64,.58-1.16,.88-1.58,.92-.45,.06-.86-.22-1.24-.48-.24-.17-.54-.37-.7-.36-.11,.01-.38,.25-.54,.39-.36,.32-.76,.68-1.28,.69-.44,.01-.88-.3-1.23-.58-.22-.18-.5-.4-.65-.4-.12,0-.4,.21-.59,.36-.37,.29-.79,.62-1.3,.59-.48-.02-.86-.37-1.2-.67-.19-.18-.46-.43-.6-.44-.11-.01-.42,.19-.62,.32-.39,.26-.83,.56-1.34,.5-.25-.03-.68-.15-1.56-.94-.28-.25-.65-.39-1.01-.37-1.28,.06-2.42,.7-3.12,1.74-.51,.74-.75,1.64-.68,2.54l1.23,16.38c.12,1.64,1.34,2.95,2.96,3.2l.65,.1c.27,.04,.46,.3,.42,.57s-.3,.46-.57,.42l-.66-.1c-.57-.09-1.1-.29-1.58-.57-1.31,.4-2.59,.82-3.81,1.25-6.47,2.25-12.79,5.34-18.81,9.19-2.62,1.68-3.43,3-2.62,4.28,1.19,1.89,4.03,2.83,6.33,2.91,2.09,.08,32.54-.34,34.26-.39h.16c4.78-.11,5.47-.69,5.57-.86Z" stroke-width="0"/><path d="M45.92,7.46c.11,.25-.01,.54-.26,.65-.26,.11-.55,0-.66-.26l-.07-.15c-.14-.33-.44-.31-.53-.3-.09,.02-.39,.09-.42,.44l-.24,2.29c-.03,.26-.25,.45-.5,.45h-.05c-.28-.03-.48-.28-.45-.55l.24-2.29c.07-.69,.58-1.22,1.27-1.33,.68-.1,1.33,.26,1.6,.89l.07,.16Z" stroke-width="0"/><path d="M42.65,33.77c.15,.24,.07,.54-.16,.69-.09,.05-.18,.07-.26,.07-.17,0-.34-.08-.43-.24l-1.66-2.7c-.14-.24-.07-.54,.17-.69,.23-.14,.54-.07,.68,.17l1.66,2.7Z" stroke-width="0"/><path d="M38.25,10.29c.06,.27-.1,.54-.37,.61-.26,.06-.54-.1-.6-.37l-.55-2.23c-.09-.36-.39-.38-.48-.38h-.01c-.09,0-.39,.02-.48,.37l-.58,2.25c-.06,.22-.26,.37-.48,.37-.04,0-.08,0-.13-.01-.26-.07-.42-.34-.36-.61l.58-2.25c.17-.67,.76-1.12,1.45-1.12h.01c.7,0,1.28,.46,1.45,1.14l.55,2.23Z" stroke-width="0"/><path d="M36.58,31.33v4.32c0,.27-.22,.5-.5,.5s-.5-.23-.5-.5v-4.32c0-.28,.23-.5,.5-.5s.5,.22,.5,.5Z" stroke-width="0"/><path d="M31.86,30.9c.24,.15,.31,.45,.17,.69l-1.66,2.7c-.09,.16-.26,.24-.43,.24-.09,0-.18-.02-.26-.07-.23-.15-.31-.45-.16-.69l1.65-2.7c.15-.24,.46-.31,.69-.17Z" stroke-width="0"/><path d="M29.72,10.03c.03,.27-.17,.52-.45,.55h-.05c-.25,0-.47-.19-.5-.45l-.24-2.29c-.03-.35-.33-.42-.42-.44-.09-.01-.39-.03-.53,.3l-.07,.15c-.11,.26-.4,.37-.66,.26-.25-.11-.37-.4-.26-.65l.07-.16c.27-.63,.92-.99,1.6-.89,.69,.11,1.2,.64,1.27,1.33l.24,2.29Z" stroke-width="0"/></g></g><g id="uuid-c983eef0-6995-4655-ba76-6c3133e7648d"></g></svg>