<?xml version="1.0" encoding="UTF-8"?><svg width="70" height="70" xmlns="http://www.w3.org/2000/svg" viewBox="-10 -10 70 70"><rect x="-10" y="-10" width="70" height="70" fill="white"/><g id="uuid-976eff57-894e-49e8-9c9d-abc4205635ab"><g><g><path d="M29.17,46.75h-7.33c.66,1.45,2.05,2.46,3.67,2.46s3-1.01,3.67-2.46Z" fill="#ffcd00" stroke-width="0"/><path d="M26.5,13.05c-6.65,0-12.05,5.41-12.05,12.05,0,4.32,2.34,8.33,6.11,10.48,.16,.09,.25,.25,.25,.43v3.87h11.38v-3.87c0-.18,.1-.35,.25-.43,3.77-2.14,6.11-6.16,6.11-10.48,0-6.65-5.41-12.05-12.05-12.05Z" fill="#ffcd00" stroke-width="0"/></g><g><path d="M25,10.55c-7.2,0-13.05,5.86-13.05,13.05,0,4.58,2.43,8.84,6.36,11.2v3.58h-1.12c-.36,0-.66,.3-.66,.66v3.12s.02,.07,.02,.11c0,.03-.02,.06-.02,.1v3.34c0,.28,.27,.55,.55,.55h3.18c.73,2.02,2.57,3.46,4.74,3.46s4.01-1.44,4.74-3.46h3.18c.28,0,.55-.27,.55-.55v-3.34s-.02-.06-.02-.1c0-.04,.02-.07,.02-.11v-3.12c0-.36-.3-.66-.66-.66h-1.12v-3.58c3.93-2.35,6.36-6.62,6.36-11.2,0-7.2-5.85-13.05-13.05-13.05Zm-3.67,35.7h7.33c-.66,1.45-2.05,2.46-3.67,2.46s-3-1.01-3.67-2.46Zm-3.8-1v-2.44h14.94v2.44h-14.94Zm14.94-3.44h-14.94v-2.44h14.94v2.44Zm-1.53-7.74c-.16,.09-.25,.25-.25,.43v3.87h-11.38v-3.87c0-.18-.1-.35-.25-.43-3.77-2.14-6.11-6.16-6.11-10.48,0-6.65,5.41-12.05,12.05-12.05s12.05,5.41,12.05,12.05c0,4.32-2.34,8.33-6.11,10.48Z" stroke-width="0"/><path d="M20.32,14.89c-.98,.53-2.8,1.77-3.99,4.08-1.1,2.12-1.17,4.14-1.04,5.46,.03,.26,.24,.45,.5,.45,.02,0,.03,0,.05,0,.27-.03,.48-.27,.45-.55-.02-.22-.04-.5-.04-.82,0-1.05,.17-2.54,.97-4.08,.83-1.6,1.99-2.62,2.88-3.23,.26-.18,.5-.32,.7-.43,.24-.13,.33-.44,.2-.68-.13-.24-.44-.33-.68-.2Z" stroke-width="0"/><path d="M47.62,21.02h-8.06c-.28,0-.5,.22-.5,.5s.22,.5,.5,.5h8.06c.28,0,.5-.22,.5-.5s-.22-.5-.5-.5Z" stroke-width="0"/><path d="M35.73,13.6c.13,0,.26-.05,.35-.15l5.7-5.7c.2-.2,.2-.51,0-.71s-.51-.2-.71,0l-5.7,5.7c-.2,.2-.2,.51,0,.71,.1,.1,.23,.15,.35,.15Z" stroke-width="0"/><path d="M14.25,13.45c.1,.1,.23,.15,.35,.15s.26-.05,.35-.15c.2-.2,.2-.51,0-.71l-5.7-5.7c-.2-.2-.51-.2-.71,0s-.2,.51,0,.71l5.7,5.7Z" stroke-width="0"/><path d="M10.44,21.35H2.38c-.28,0-.5,.22-.5,.5s.22,.5,.5,.5H10.44c.28,0,.5-.22,.5-.5s-.22-.5-.5-.5Z" stroke-width="0"/><path d="M25,9.35c.28,0,.5-.22,.5-.5V.79c0-.28-.22-.5-.5-.5s-.5,.22-.5,.5V8.85c0,.28,.22,.5,.5,.5Z" stroke-width="0"/></g></g></g><g id="uuid-2d32c012-357d-4e4f-8773-240d8b86ec81"></g></svg>