<?xml version="1.0" encoding="UTF-8"?><svg width="70" height="70" xmlns="http://www.w3.org/2000/svg" viewBox="-10 -10 70 70"><rect x="-10" y="-10" width="70" height="70" fill="white"/><g id="uuid-4505cfaa-bdc5-48cd-8b64-428070a24049"><path d="M26.82,17.46c-.09-.16-.08-.35,.02-.51l8.1-12.73h-10.7L12.61,22.79h13.65c.16,0,.3,.07,.4,.2,.09,.12,.12,.29,.08,.44l-6.79,23.68,20.87-29.38h-13.57c-.18,0-.35-.1-.44-.26Z" fill="#ffcd00" stroke-width="0"/><path d="M40.48,15.24c-.09-.17-.26-.27-.44-.27h-13.62L34.52,2.24c.1-.15,.1-.35,.02-.51-.09-.16-.26-.26-.44-.26h-11.89c-.17,0-.33,.09-.42,.24L9.54,21.27c-.1,.15-.1,.35-.01,.51s.26,.26,.44,.26h13.89l-7.41,25.85c-.07,.23,.04,.48,.26,.59,.07,.03,.14,.05,.22,.05,.16,0,.31-.07,.41-.21L40.45,15.76c.11-.15,.12-.35,.04-.52Zm-22.28,30.11l6.79-23.68c.04-.15,.01-.31-.08-.44-.09-.13-.24-.2-.4-.2H10.86L22.48,2.47h10.7l-8.1,12.73c-.1,.15-.1,.35-.02,.51,.09,.16,.26,.26,.44,.26h13.57l-20.87,29.38Z" stroke-width="0"/></g><g id="uuid-6af0802a-c670-45df-823e-9afbf65d5917"></g></svg>