<?xml version="1.0" encoding="UTF-8"?><svg width="70" height="70" id="uuid-aa30017e-8696-47a9-bd99-799156df2cf2" xmlns="http://www.w3.org/2000/svg" viewBox="-10 -10 70 70"><rect x="-10" y="-10" width="70" height="70" fill="white"/><path d="M47.44,4.86c-1.47-1.46-3.44-2.18-5.48-2.18-2.44,0-4.99,1.02-6.96,3.01l-7.09,7.16c-1.77,1.78-2.81,4.07-2.94,6.43-.07,1.21,.12,2.35,.51,3.4l4.21-4.24c.19-.31,.47-.84,.57-1.56,.15-1.13-.24-2.01-.41-2.35l7.43-6.88c.16-.24,.49-.65,1.05-.94,.6-.32,1.15-.33,1.49-.33,.33,0,.87,0,1.43,.28,.71,.36,.59,.74,1.54,1.38,.34,.23,.53,.29,.62,.54,.12,.31-.03,.62-.28,1.18-.59,1.34-.14,.52-.62,1.48-.32,.63-.76,1.47-1.33,2.47-1.92,1.76-3.85,3.53-5.77,5.29-.02,.1-.22,1.16-1.12,1.54-.34,.14-.65,.14-.86,.12l-.44,.99c-.12,.02-.31,.06-.5,.17-.39,.22-.55,.59-.61,.72,1.25-.87,2.5-1.75,3.74-2.62-.27-.57-.63-1.2-1.1-1.84-1.26-1.73-2.74-2.79-3.8-3.41-.64,1.27-1.28,2.53-1.93,3.8,.37,.39,.7,.58,.84,.49,.02-.01,.13-.1,.05-.49-1.4,1.41-2.8,2.83-4.21,4.24,.1,.27,.24,.61,.44,.97l-2.28,2.3c-.38-.21-.72-.35-.97-.44-.9-.33-1.86-.5-2.84-.5-2.44,0-4.99,1.02-6.97,3.01l-7.09,7.16c-1.77,1.78-2.81,4.07-2.94,6.43-.13,2.34,.66,4.48,2.22,6.02,1.56,1.54,3.7,2.31,6.04,2.16,2.36-.15,4.63-1.21,6.4-3l7.09-7.16c2.73-2.75,3.59-6.6,2.47-9.69-.1-.27-.24-.61-.43-.98l2.33-2.35c.39,.2,.74,.33,.99,.42h0c1.01,.36,2.12,.51,3.27,.43,2.36-.15,4.63-1.22,6.4-3l7.09-7.16c3.63-3.66,3.96-9.25,.72-12.45Zm-27.56,29.43c-.11,.37-.18,.57-.36,.76-.14,.15-.3,.24-.41,.28-2.22,2.33-4.44,4.66-6.66,6.99-.43,.25-1.08,.57-1.93,.77-.68,.16-1.3,.28-1.98,.06-1.41-.46-1.89-2.04-1.93-2.15-.51-1.75,.67-3.18,.77-3.3,2.5-2.5,4.99-4.99,7.49-7.49,0-.13,.04-.34,.17-.55,.43-.72,1.57-.84,1.65-.66,.04,.09-.12,.32-1.16,.99l-.11,1.27c.55,.89,1.44,2.07,2.85,3.05,.43,.3,.85,.54,1.25,.74l.52-1.48c-.05,.3-.11,.54-.17,.72Z" fill="#ffcd00" stroke-width="0"/><path d="M46.65,2.65c-3.62-3.59-9.84-3.21-13.86,.84l-7.09,7.16c-1.94,1.96-3.08,4.47-3.23,7.08-.08,1.51,.19,2.94,.75,4.22l-1.29,1.3c-3.56-1.53-8.1-.63-11.27,2.57l-7.09,7.16c-1.94,1.96-3.08,4.47-3.23,7.08-.14,2.63,.75,5.04,2.51,6.79,1.62,1.6,3.79,2.47,6.17,2.47,.21,0,.42,0,.64-.02,2.61-.17,5.11-1.33,7.05-3.29l7.09-7.16c3.14-3.16,4.01-7.64,2.52-11.16l1.36-1.37c1.07,.44,2.24,.68,3.47,.68,.21,0,.42,0,.64-.02,2.61-.17,5.11-1.34,7.05-3.29l7.09-7.16c4.02-4.05,4.34-10.27,.72-13.86ZM23.09,38.14l-7.09,7.16c-1.77,1.78-4.04,2.85-6.4,3-2.34,.15-4.48-.62-6.04-2.16-1.56-1.54-2.34-3.68-2.22-6.02,.13-2.36,1.17-4.65,2.94-6.43l7.09-7.16c1.97-1.99,4.53-3.01,6.97-3.01,.98,0,1.94,.17,2.84,.5l-4.2,4.24c-.88,.16-1.75,.58-2.45,1.29l-7.19,7.26c-.8,.81-1.28,1.85-1.34,2.94-.06,1.11,.32,2.12,1.06,2.86,.7,.7,1.64,1.04,2.61,1.04,1.12,0,2.29-.46,3.19-1.37l7.19-7.26c.65-.65,1.06-1.44,1.23-2.25l4.28-4.32c1.12,3.1,.26,6.94-2.47,9.69Zm-7.03-4.62c.95,.97,2.07,1.25,2.73,1.34l-6.65,6.72c-1.29,1.3-3.25,1.44-4.39,.32-.54-.54-.81-1.28-.77-2.1,.05-.84,.42-1.65,1.05-2.29l6.73-6.79s0,.02,0,.03c.07,.61,.32,1.78,1.3,2.78Zm2.74,.33c-.53-.09-1.34-.33-2.03-1.03-.66-.67-.9-1.44-.98-1.95l15.32-15.46c.56,.17,1.28,.5,1.91,1.15,.61,.62,.93,1.3,1.1,1.84l-15.32,15.46ZM30.97,14.36l6.39-6.44c.63-.64,1.44-1.02,2.28-1.07,.07,0,.13,0,.2,0,.74,0,1.41,.26,1.9,.76,.54,.53,.81,1.28,.77,2.1-.05,.84-.42,1.65-1.05,2.29l-6.31,6.37c-.17-.68-.56-1.64-1.41-2.51-.91-.92-1.95-1.32-2.66-1.49-.04,0-.07,0-.11,0Zm14.25,1.45l-7.09,7.16c-1.77,1.78-4.04,2.85-6.4,3-1.16,.08-2.26-.07-3.27-.43l4.29-4.33c.83-.19,1.61-.62,2.24-1.25l7.19-7.26c.8-.81,1.28-1.85,1.34-2.94,.06-1.11-.32-2.12-1.06-2.86-.75-.74-1.77-1.12-2.87-1.04-1.08,.07-2.12,.55-2.93,1.37l-7.19,7.26c-.7,.71-1.11,1.58-1.26,2.46l-4.21,4.24c-.4-1.04-.58-2.19-.51-3.4,.13-2.36,1.17-4.65,2.94-6.43l7.09-7.16c1.97-1.99,4.53-3.01,6.96-3.01,2.04,0,4,.72,5.48,2.18,3.23,3.2,2.91,8.79-.72,12.45Z" stroke-width="0"/><path d="M19.1,13.64c.08,.18,.27,.29,.45,.29,.07,0,.14-.01,.21-.05,.25-.12,.36-.42,.24-.67l-3.06-6.55c-.12-.25-.42-.36-.67-.24-.25,.12-.36,.42-.24,.67l3.06,6.55Z" stroke-width="0"/><path d="M15.48,16.55c.1,.09,.22,.13,.34,.13,.14,0,.27-.05,.37-.16,.19-.2,.17-.52-.03-.71l-5.33-4.88c-.2-.19-.52-.17-.71,.03-.19,.2-.17,.52,.03,.71l5.33,4.88Z" stroke-width="0"/><path d="M6.45,18.15l6.79,2.46c.06,.02,.11,.03,.17,.03,.2,0,.4-.13,.47-.33,.09-.26-.04-.55-.3-.64l-6.79-2.46c-.26-.09-.55,.04-.64,.3-.09,.26,.04,.55,.3,.64Z" stroke-width="0"/><path d="M31.04,35.62c-.12-.25-.42-.35-.67-.23-.25,.12-.35,.42-.23,.67l3.19,6.48c.09,.18,.26,.28,.45,.28,.07,0,.15-.02,.22-.05,.25-.12,.35-.42,.23-.67l-3.19-6.48Z" stroke-width="0"/><path d="M34.6,32.65c-.21-.18-.52-.16-.71,.05-.18,.21-.16,.52,.05,.71l5.43,4.77c.09,.08,.21,.12,.33,.12,.14,0,.28-.06,.38-.17,.18-.21,.16-.52-.05-.71l-5.43-4.77Z" stroke-width="0"/><path d="M43.6,30.86l-6.84-2.33c-.26-.09-.54,.05-.63,.31-.09,.26,.05,.55,.31,.63l6.84,2.33c.05,.02,.11,.03,.16,.03,.21,0,.4-.13,.47-.34,.09-.26-.05-.55-.31-.63Z" stroke-width="0"/></svg>