<?xml version="1.0" encoding="UTF-8"?><svg width="70" height="70" xmlns="http://www.w3.org/2000/svg" viewBox="-10 -10 70 70"><rect x="-10" y="-10" width="70" height="70" fill="white"/><g id="uuid-012c0faa-1ea7-4115-89f0-75a41e1ba09a"><path d="M42.01,11.21c-4.47-2.1-9.84-1.75-12.17-1.46-.32,.12-.43,.2-.42,.25,.01,.05,.16,.07,.16,.06,0-.03-1.66-.56-3.13-.78-.7-.11-1.61-.17-2.65-.17-5.91,0-16.3,2.1-19.08,10.6-2.19,6.66,.61,15.11,3.67,20.33,1.51,2.58,2.61,3.56,2.88,3.61,1.53-.06,15.04-10.96,17.05-12.98,3.38-3.38,2.09-6.67,1.99-6.92-.13-.18-.14-.42,0-.6,.15-.19,.41-.25,.62-.15,.05,.02,.1,.06,.14,.11h0c.09,.09,2.21,2.3,5.58,.34,.11-.06,.37-.21,.75-.42,8.96-5.01,11.05-6.55,11.44-7.01-.32-.72-3.41-3.2-6.83-4.81Z" fill="#ffcd00" stroke-width="0"/><path d="M40.69,8.56c-5.78-2.71-12.72-1.59-13.84-1.38-.58-.29-1.24-.52-2-.63-4.88-.75-19.36,.49-22.84,11.1-2.66,8.12,1.54,17.81,4.45,22.26,.86,1.32,2.07,2.9,2.95,2.99,.02,0,.03,0,.05,0,2.26,0,16.76-12.22,17.81-13.27,2.64-2.64,2.75-5.29,2.55-6.7,1.18,.6,3.13,1.07,5.58-.35,.1-.06,.36-.2,.73-.41,11.98-6.7,11.98-7.32,11.98-7.81,0-1.38-4.47-4.39-7.42-5.78Zm-5.04,12.72c-.38,.21-.64,.36-.75,.42-3.38,1.96-5.5-.25-5.58-.34h0s-.09-.08-.14-.11c-.22-.11-.48-.05-.62,.15-.14,.18-.13,.43,0,.6,.11,.25,1.4,3.53-1.99,6.92-2.01,2.01-15.52,12.92-17.05,12.98-.27-.05-1.37-1.03-2.88-3.61-3.06-5.22-5.86-13.67-3.67-20.33C5.75,9.45,16.13,7.35,22.04,7.35c1.05,0,1.95,.07,2.65,.17,3.88,.6,4.77,4.39,4.8,4.55,.06,.27,.33,.44,.6,.38,.27-.06,.44-.32,.38-.59,0-.03-.52-2.28-2.39-3.87,2.34-.29,7.7-.64,12.17,1.46,3.42,1.6,6.51,4.09,6.83,4.81-.39,.46-2.49,2-11.44,7.01Z" stroke-width="0"/></g><g id="uuid-e9eeb132-043b-472b-b97a-4a541e96b0bb"></g></svg>