<?xml version="1.0" encoding="UTF-8"?><svg width="70" height="70" xmlns="http://www.w3.org/2000/svg" viewBox="-10 -10 70 70"><rect x="-10" y="-10" width="70" height="70" fill="white"/><g id="uuid-f09f7ea1-aaaa-4df3-8ced-ad4120817fed"><path d="M47.47,8.59H20.7v8.93h26.77V8.59Zm-23.76,7.18l2.02-1.5,2.59,1.5h-4.6Zm4.6-1.16c.08-1.13,1.02-2.03,2.17-2.03,.92,0,1.73,.58,2.04,1.43l-2.63,1.52-1.58-.92Zm3.16,1.16l7.68-4.43,5.64,4.43h-13.32Z" fill="#ffcd00" stroke-width="0"/><path d="M46.18,32.63c-.28,0-.5-.22-.5-.5v-.85c0-1.38-1.12-2.49-2.49-2.49h-8.67c-1.38,0-2.49,1.12-2.49,2.49l-1.18-.05c0-1.38-1.12-2.49-2.49-2.49h-8.67c-1.38,0-2.49,1.12-2.49,2.49v.9c0,.28-.22,.5-.5,.5h-2.61v9.78H48.8v-9.78h-2.61Z" fill="#ffcd00" stroke-width="0"/><rect x="4.7" y="12.08" width="7.65" height="8.77" fill="#ffcd00"/><path d="M18.45,16.78h27.77s.02,0,.03,0c.04,0,.07-.01,.1-.02,.03,0,.06-.01,.08-.03,.03-.01,.05-.03,.08-.05,.03-.02,.06-.04,.08-.07,0,0,.02-.01,.02-.02,.01-.02,.02-.04,.03-.06,.02-.03,.03-.06,.05-.09,.01-.03,.02-.07,.02-.1,0-.02,.01-.04,.01-.06V6.34c0-.28-.22-.5-.5-.5H18.45c-.28,0-.5,.22-.5,.5v9.93c0,.28,.22,.5,.5,.5Zm20.68-5.43l5.64,4.43h-13.32l7.68-4.43Zm-9.26,4.18l-1.58-.92c.08-1.13,1.02-2.03,2.17-2.03,.92,0,1.73,.58,2.04,1.43l-2.63,1.52Zm-1.57,.25h-4.6l2.02-1.5,2.59,1.5ZM18.95,6.84h26.77V15.25l-6.23-4.89c-.16-.13-.38-.14-.56-.04l-5.55,3.2c-.49-1.14-1.63-1.93-2.92-1.93-1.51,0-2.78,1.07-3.1,2.49l-1.43-.83c-.17-.1-.39-.09-.55,.03l-3.37,2.5h-3.08V6.84Z" stroke-width="0"/><path d="M47.55,29.88h-2.61v-.35c0-1.93-1.57-3.49-3.49-3.49h-8.67c-1.34,0-2.49,.76-3.07,1.87-.58-1.13-1.74-1.92-3.1-1.92h-8.67c-1.93,0-3.49,1.57-3.49,3.49v.4h-2.61c-.28,0-.5,.22-.5,.5v10.78c0,.28,.22,.5,.5,.5h1.49v2c0,.28,.22,.5,.5,.5s.5-.22,.5-.5v-2h30.76v2c0,.28,.22,.5,.5,.5s.5-.22,.5-.5v-2h1.49c.28,0,.5-.22,.5-.5v-10.78c0-.28-.22-.5-.5-.5Zm-32.12,6h28.51v2.18H15.43v-2.18Zm17.34-8.85h8.67c1.38,0,2.49,1.12,2.49,2.49v5.36h-13.66v-5.36c0-1.38,1.12-2.49,2.49-2.49Zm-17.34,2.44c0-1.38,1.12-2.49,2.49-2.49h8.67c1.38,0,2.49,1.12,2.49,2.49v5.41H15.43v-5.41Zm31.62,11.18H12.31v-9.78h2.11v7.68c0,.28,.22,.5,.5,.5h29.51c.28,0,.5-.22,.5-.5v-7.68h2.11v9.78Z" stroke-width="0"/><path d="M11.1,20.1c.28,0,.5-.22,.5-.5V9.83c0-.28-.22-.5-.5-.5H2.45c-.28,0-.5,.22-.5,.5v9.77c0,.28,.22,.5,.5,.5h3.83v23.06h-1.59c-.28,0-.5,.22-.5,.5s.22,.5,.5,.5h4.19c.28,0,.5-.22,.5-.5s-.22-.5-.5-.5h-1.59V20.1h3.83ZM2.95,10.33h7.65v8.77H2.95V10.33Z" stroke-width="0"/></g><g id="uuid-2852403f-6ba6-487e-b198-6bc4ec485663"></g></svg>