<?xml version="1.0" encoding="UTF-8"?><svg width="70" height="70" xmlns="http://www.w3.org/2000/svg" viewBox="-10 -10 70 70"><rect x="-10" y="-10" width="70" height="70" fill="white"/><g id="uuid-e43f561a-7bc7-4718-8695-878101d3b0ba"><path d="M34.2,5.91L3.61,27.25l14.08,20.19,30.59-21.34,1.4-15.98-15.49-4.21Zm9.83,6.98c-.1,.55-.4,1.03-.86,1.34h0c-.46,.32-1.01,.44-1.56,.34-.55-.1-1.03-.4-1.35-.86-.32-.46-.44-1.01-.34-1.56s.4-1.03,.86-1.35c.36-.25,.78-.37,1.19-.37,.66,0,1.31,.31,1.71,.89,.32,.46,.44,1.01,.34,1.56Z" fill="#ffcd00" stroke-width="0"/><path d="M48.6,7.51L32.48,3.13c-.14-.04-.29-.01-.42,.07L.87,24.96c-.23,.16-.28,.47-.12,.7l14.65,21.01c.1,.14,.25,.21,.41,.21,.1,0,.2-.03,.29-.09l31.19-21.76c.12-.08,.2-.22,.21-.37l1.46-16.63c.02-.24-.13-.46-.37-.53Zm-2.07,16.84L15.94,45.69,1.86,25.5,32.45,4.16l15.49,4.21-1.4,15.98Z" stroke-width="0"/><path d="M41.43,15.56c.18,.03,.37,.05,.55,.05,.63,0,1.24-.19,1.76-.56,.68-.47,1.13-1.18,1.27-1.99,.14-.81-.04-1.63-.51-2.31-.97-1.39-2.9-1.74-4.29-.77-.68,.47-1.13,1.18-1.27,1.99-.15,.81,.03,1.63,.51,2.31,.47,.68,1.18,1.13,1.99,1.27Zm-1.51-3.4c.1-.55,.4-1.03,.86-1.35,.36-.25,.78-.37,1.19-.37,.66,0,1.31,.31,1.71,.89,.32,.46,.44,1.01,.34,1.56-.1,.55-.4,1.03-.86,1.34h0c-.46,.32-1.01,.44-1.56,.34-.55-.1-1.03-.4-1.35-.86-.32-.46-.44-1.01-.34-1.56Z" stroke-width="0"/><polygon points="10.54 32.11 8.18 28.74 7.34 29.32 10.17 33.37 12.77 31.55 12.31 30.88 10.54 32.11"/><path d="M15.01,27.11l-.13-.18c-.28-.4-.59-.7-.95-.9-.36-.2-.72-.29-1.1-.27-.38,.02-.73,.15-1.07,.38s-.58,.53-.73,.87c-.15,.35-.19,.72-.12,1.12,.07,.4,.24,.8,.52,1.2l.14,.2c.27,.39,.59,.68,.94,.88,.35,.2,.72,.29,1.09,.26,.38-.02,.73-.15,1.07-.38,.34-.24,.58-.53,.73-.87,.15-.35,.19-.72,.12-1.12-.07-.4-.24-.8-.52-1.2Zm-.81,2.5c-.29,.2-.58,.24-.9,.12-.31-.12-.61-.39-.9-.8l-.14-.2c-.29-.42-.44-.8-.44-1.12,0-.32,.14-.58,.42-.78,.28-.2,.58-.24,.88-.12s.61,.38,.9,.81l.14,.2c.29,.42,.44,.8,.44,1.12,0,.32-.14,.58-.42,.78Z" stroke-width="0"/><path d="M17.98,27.02c-.53,.37-.96,.34-1.27-.11l-.84,.58c.18,.26,.41,.44,.68,.55s.58,.12,.91,.06c.33-.06,.66-.21,.97-.42,.45-.31,.74-.66,.86-1.05,.13-.38,.07-.75-.18-1.1-.22-.32-.51-.5-.88-.56-.36-.06-.83,0-1.41,.19-.31,.1-.57,.16-.76,.16-.2,0-.34-.06-.43-.19-.1-.14-.12-.29-.07-.46,.05-.17,.18-.32,.38-.46,.21-.15,.41-.21,.6-.19,.19,.02,.35,.13,.48,.31l.83-.58c-.17-.24-.38-.42-.64-.52-.26-.1-.54-.13-.84-.08-.3,.05-.59,.18-.88,.38-.29,.2-.51,.43-.68,.69-.16,.26-.25,.52-.25,.77,0,.26,.07,.5,.22,.71,.29,.42,.76,.6,1.39,.52,.23-.03,.53-.09,.88-.2,.35-.11,.62-.16,.79-.15,.17,0,.31,.09,.42,.25,.1,.15,.12,.3,.07,.45-.05,.16-.18,.31-.38,.45Z" stroke-width="0"/><polygon points="19.01 22.18 21.36 25.56 22.2 24.98 19.85 21.6 21.09 20.74 20.61 20.06 17.32 22.36 17.79 23.04 19.01 22.18"/><path d="M25.63,22.58l-.3-1.03,1.46-1.02,.86,.64,.89-.62-4.34-2.99-.77,.54,1.32,5.1,.89-.62Zm.46-2.57l-1.01,.71-.55-1.87,1.57,1.16Z" stroke-width="0"/><polygon points="29.71 19.73 27.86 17.07 31.34 18.6 32.17 18.02 29.35 13.97 28.52 14.55 30.38 17.22 26.89 15.69 26.06 16.27 28.88 20.32 29.71 19.73"/><path d="M31.28,12.62l-1.25,.87,2.82,4.05,1.25-.88c.35-.25,.61-.55,.78-.91,.17-.36,.23-.74,.18-1.14-.05-.4-.21-.79-.47-1.17l-.13-.19c-.26-.38-.58-.66-.94-.84-.36-.19-.74-.26-1.14-.23-.39,.04-.77,.18-1.12,.43Zm1.44,.47c.32,.09,.62,.35,.91,.76l.15,.21c.27,.4,.4,.77,.37,1.1-.02,.33-.2,.61-.53,.84l-.4,.28-1.89-2.7,.41-.29c.33-.23,.65-.3,.97-.2Z" stroke-width="0"/><polygon points="19.54 33.05 17.93 34.17 17.2 33.12 19.01 31.87 18.54 31.19 15.9 33.03 18.72 37.08 19.56 36.5 18.4 34.84 20.01 33.72 19.54 33.05"/><path d="M23.78,30.68l-.13-.18c-.28-.4-.59-.7-.95-.9-.36-.2-.72-.29-1.1-.27-.38,.02-.73,.15-1.07,.38s-.58,.53-.73,.87c-.15,.35-.19,.72-.12,1.12,.07,.4,.24,.8,.52,1.2l.14,.2c.27,.39,.59,.68,.94,.88,.35,.2,.72,.29,1.09,.26,.38-.02,.73-.15,1.07-.38,.34-.24,.58-.53,.73-.87,.15-.35,.19-.72,.12-1.12-.07-.4-.24-.8-.52-1.2Zm-.81,2.5c-.29,.2-.58,.24-.9,.12-.31-.12-.61-.39-.9-.8l-.14-.2c-.29-.42-.44-.79-.44-1.12,0-.32,.14-.58,.42-.78,.28-.2,.58-.24,.88-.12,.31,.11,.61,.38,.9,.81l.14,.2c.29,.42,.44,.79,.44,1.12,0,.32-.14,.58-.42,.78Z" stroke-width="0"/><path d="M25.94,26.03l-.84,.58,1.88,2.7c.34,.5,.27,.91-.2,1.24-.22,.16-.44,.22-.65,.19-.21-.03-.41-.18-.59-.45l-1.86-2.67-.83,.58,1.88,2.7c.31,.43,.69,.68,1.15,.74,.45,.06,.92-.08,1.39-.41,.48-.33,.77-.73,.87-1.18,.1-.45,0-.9-.32-1.34l-1.86-2.67Z" stroke-width="0"/><polygon points="29.04 23.86 30.91 26.53 27.42 24.99 26.58 25.58 29.41 29.63 30.24 29.04 28.38 26.38 31.87 27.91 32.7 27.33 29.88 23.28 29.04 23.86"/><path d="M34.07,21.73c-.36-.19-.74-.26-1.14-.23-.39,.04-.77,.18-1.12,.43l-1.25,.87,2.82,4.05,1.25-.88c.35-.25,.61-.55,.78-.91,.17-.36,.23-.74,.18-1.14-.05-.4-.21-.79-.47-1.17l-.13-.19c-.26-.38-.58-.66-.94-.84Zm.09,3.58l-.4,.28-1.89-2.7,.41-.29c.33-.23,.65-.3,.97-.2,.32,.09,.62,.35,.91,.76l.15,.21c.27,.4,.4,.77,.37,1.1-.02,.33-.2,.61-.53,.84Z" stroke-width="0"/></g><g id="uuid-5d443c9c-63e0-4f86-a307-a007506f4cb5"></g></svg>