<?xml version="1.0" encoding="UTF-8"?><svg width="70" height="70" xmlns="http://www.w3.org/2000/svg" viewBox="-10 -10 70 70"><rect x="-10" y="-10" width="70" height="70" fill="white"/><g id="uuid-b64bc89b-f7b0-4431-a078-1a76bb46fcdb"><g><path d="M49.36,26.97c-2.27-1-4.88-1.38-7.57-1.1-.16,.01-.32-.04-.42-.17-.11-.12-.15-.28-.12-.44,.59-2.65,.52-5.27-.2-7.61-3.14,.33-6.26,1.82-8.82,4.22-.13,.12-.31,.17-.48,.11-.17-.05-.3-.19-.34-.36-.83-3.35-2.59-6.26-4.99-8.23-2.4,1.98-4.16,4.88-4.99,8.23-.04,.17-.17,.31-.34,.36-.17,.05-.35,0-.48-.11-2.56-2.4-5.68-3.89-8.82-4.22-.72,2.34-.78,4.96-.19,7.61,.03,.16,0,.32-.12,.44s-.26,.18-.42,.17c-2.7-.28-5.31,.1-7.57,1.1,.99,4.38,4.22,8.31,8.7,10.57,4.22,2.12,8.94,2.48,12.96,.98,.08-.03,.63-.21,.77-.25,.16-.05,.88-.05,1.04,0,.13,.04,.57,.22,.59,.22,.06,0,.12,.01,.17,.03,4.02,1.5,8.74,1.14,12.96-.98,4.49-2.26,7.71-6.19,8.7-10.57Z" fill="#ffcd00" stroke-width="0"/><path d="M48.39,24.55c-2.36-1.13-5.05-1.58-7.77-1.4,.49-2.68,.35-5.4-.5-7.87-.07-.22-.28-.36-.51-.34-3.31,.25-6.53,1.67-9.21,3.97-.98-3.32-2.85-6.23-5.43-8.23-.18-.14-.43-.14-.61,0-2.58,2-4.45,4.91-5.43,8.23-2.68-2.3-5.9-3.72-9.21-3.97-.24-.02-.44,.12-.51,.34-.84,2.47-.99,5.19-.49,7.87-2.73-.18-5.41,.27-7.77,1.4-.21,.1-.32,.32-.28,.55,.94,4.83,4.42,9.19,9.31,11.66,2.65,1.33,5.49,2,8.25,2,1.85,0,3.65-.31,5.34-.92,.2,.02,.4,.05,.6,.06h1.01c.2-.02,.4-.04,.6-.06,1.68,.61,3.49,.92,5.34,.92,2.76,0,5.6-.67,8.25-2,4.89-2.46,8.37-6.82,9.31-11.66,.04-.22-.07-.45-.28-.55Zm-9.49,11.31c-3.54,1.78-7.44,2.3-10.95,1.55,3.87-1.07,7.44-3.7,9.88-7.39,1.21-1.84,2.07-3.83,2.57-5.85,2.52-.21,5,.15,7.2,1.12-.99,4.38-4.22,8.31-8.7,10.57Zm-28.49,0c-4.49-2.26-7.71-6.19-8.7-10.57,2.2-.97,4.69-1.33,7.21-1.12,.5,2.03,1.35,4.02,2.57,5.85,2.44,3.69,6.01,6.33,9.88,7.39-3.51,.74-7.41,.23-10.95-1.55Zm-.39-19.89c3.11,.33,6.12,1.77,8.6,4.03-.31,1.36-.49,2.79-.49,4.24,0,4.89,1.87,9.45,5.04,12.52-4.22-.66-8.22-3.31-10.85-7.29-2.77-4.19-3.62-9.2-2.3-13.5Zm14.64-4.26c3.47,2.85,5.53,7.5,5.53,12.53s-2.06,9.67-5.53,12.53c-3.47-2.85-5.52-7.5-5.52-12.53s2.06-9.67,5.52-12.53Zm12.34,17.76c-2.63,3.98-6.63,6.63-10.85,7.29,3.17-3.07,5.04-7.63,5.04-12.52,0-1.45-.17-2.87-.49-4.24,2.48-2.25,5.49-3.7,8.6-4.03,1.32,4.29,.47,9.31-2.3,13.5Z" stroke-width="0"/></g></g><g id="uuid-fbd9467a-c0ed-41cc-bd21-27659b776532"></g></svg>