<?xml version="1.0" encoding="UTF-8"?><svg width="70" height="70" id="uuid-ce06d94c-0a53-4c97-8850-e237efc0829a" xmlns="http://www.w3.org/2000/svg" viewBox="-10 -10 70 70"><rect x="-10" y="-10" width="70" height="70" fill="white"/><path d="M47.14,24.1c.8,0,1.45,.65,1.45,1.45s-.65,1.45-1.45,1.45c-.62,0-1.15-.4-1.35-.95-.06-.16-.1-.32-.1-.5s.04-.34,.1-.5c.2-.55,.73-.95,1.35-.95Z" fill="#ffcd00" stroke-width="0"/><path d="M41.94,16.99c.8,0,1.45,.65,1.45,1.45s-.65,1.45-1.45,1.45c-.22,0-.42-.05-.61-.14-.31-.14-.56-.4-.7-.71-.09-.18-.14-.39-.14-.6,0-.8,.65-1.45,1.45-1.45Z" fill="#ffcd00" stroke-width="0"/><path d="M41.94,31.21c.8,0,1.45,.65,1.45,1.45s-.65,1.45-1.45,1.45-1.45-.65-1.45-1.45c0-.21,.05-.42,.14-.6,.14-.31,.39-.57,.7-.71,.19-.09,.39-.14,.61-.14Z" fill="#ffcd00" stroke-width="0"/><path d="M34.3,6.32c0,.63-.39,1.16-.95,1.36-.15,.06-.32,.1-.5,.1-.17,0-.34-.04-.5-.1-.55-.2-.95-.73-.95-1.36,0-.8,.65-1.45,1.45-1.45s1.45,.65,1.45,1.45Z" fill="#ffcd00" stroke-width="0"/><path d="M33.35,43.42c.56,.2,.95,.73,.95,1.36,0,.8-.65,1.45-1.45,1.45s-1.45-.65-1.45-1.45c0-.63,.4-1.16,.95-1.36,.16-.06,.33-.1,.5-.1,.18,0,.35,.04,.5,.1Z" fill="#ffcd00" stroke-width="0"/><rect x="22.25" y="22.06" width="8.78" height="8.78" fill="#ffcd00"/><path d="M27.19,4.15c0,.62-.4,1.15-.95,1.35-.16,.06-.32,.1-.5,.1s-.34-.04-.5-.1c-.55-.2-.95-.73-.95-1.35,0-.8,.65-1.45,1.45-1.45s1.45,.65,1.45,1.45Z" fill="#ffcd00" stroke-width="0"/><path d="M26.24,45.6c.55,.2,.95,.73,.95,1.35,0,.8-.65,1.45-1.45,1.45s-1.45-.65-1.45-1.45c0-.62,.4-1.15,.95-1.35,.16-.06,.32-.1,.5-.1s.34,.04,.5,.1Z" fill="#ffcd00" stroke-width="0"/><path d="M20.08,6.32c0,.63-.4,1.16-.95,1.36-.16,.06-.33,.1-.5,.1-.18,0-.35-.04-.5-.1-.56-.2-.95-.73-.95-1.36,0-.8,.65-1.45,1.45-1.45s1.45,.65,1.45,1.45Z" fill="#ffcd00" stroke-width="0"/><path d="M19.13,43.42c.55,.2,.95,.73,.95,1.36,0,.8-.65,1.45-1.45,1.45s-1.45-.65-1.45-1.45c0-.63,.39-1.16,.95-1.36,.15-.06,.32-.1,.5-.1,.17,0,.34,.04,.5,.1Z" fill="#ffcd00" stroke-width="0"/><path d="M10.99,18.44c0,.21-.05,.42-.14,.6-.14,.31-.39,.57-.7,.71-.19,.09-.39,.14-.61,.14-.8,0-1.45-.65-1.45-1.45s.65-1.45,1.45-1.45,1.45,.65,1.45,1.45Z" fill="#ffcd00" stroke-width="0"/><path d="M5.69,25.05c.06,.16,.1,.32,.1,.5s-.04,.34-.1,.5c-.2,.55-.73,.95-1.35,.95-.8,0-1.45-.65-1.45-1.45s.65-1.45,1.45-1.45c.62,0,1.15,.4,1.35,.95Z" fill="#ffcd00" stroke-width="0"/><path d="M10.89,32.16c.06,.16,.1,.32,.1,.5s-.04,.34-.1,.5c-.2,.55-.73,.95-1.35,.95-.8,0-1.45-.65-1.45-1.45s.65-1.45,1.45-1.45c.62,0,1.15,.4,1.35,.95Z" fill="#ffcd00" stroke-width="0"/><path d="M46.4,22.55c1.35,0,2.45,1.1,2.45,2.45s-1.1,2.45-2.45,2.45c-1.18,0-2.16-.84-2.4-1.95h-9.44v2.72h3.25c.13,0,.25,.05,.35,.14l1.7,1.71c.39-.26,.85-.41,1.34-.41,1.35,0,2.45,1.1,2.45,2.45s-1.1,2.45-2.45,2.45-2.45-1.09-2.45-2.45c0-.49,.15-.95,.4-1.34l-1.55-1.55h-3.04v4.84c0,.28-.22,.5-.5,.5h-4.84v1.95l3.25,3.25c.09,.09,.14,.22,.14,.35v1.72c1.12,.23,1.95,1.22,1.95,2.4,0,1.35-1.09,2.45-2.45,2.45s-2.45-1.1-2.45-2.45c0-1.18,.84-2.17,1.95-2.4v-1.51l-3.25-3.25c-.09-.09-.14-.22-.14-.35v-2.16h-2.72v9.44c1.11,.24,1.95,1.22,1.95,2.4,0,1.35-1.1,2.45-2.45,2.45s-2.45-1.1-2.45-2.45c0-1.18,.84-2.16,1.95-2.4v-9.44h-2.72v2.16c0,.13-.05,.26-.14,.35l-3.25,3.25v1.51c1.11,.23,1.95,1.22,1.95,2.4,0,1.35-1.1,2.45-2.45,2.45s-2.45-1.1-2.45-2.45c0-1.18,.83-2.17,1.95-2.4v-1.72c0-.13,.05-.26,.14-.35l3.25-3.25v-1.95h-4.84c-.28,0-.5-.22-.5-.5v-4.84h-3.04l-1.55,1.55c.25,.39,.4,.85,.4,1.34,0,1.36-1.1,2.45-2.45,2.45s-2.45-1.09-2.45-2.45,1.1-2.45,2.45-2.45c.49,0,.95,.15,1.34,.41l1.7-1.71c.1-.09,.22-.14,.35-.14h3.25v-2.72H6c-.24,1.11-1.22,1.95-2.4,1.95-1.35,0-2.45-1.1-2.45-2.45s1.1-2.45,2.45-2.45c1.18,0,2.16,.84,2.4,1.95H15.44v-2.72h-3.25c-.13,0-.25-.05-.35-.14l-1.7-1.71c-.39,.26-.85,.41-1.34,.41-1.35,0-2.45-1.1-2.45-2.45s1.1-2.45,2.45-2.45,2.45,1.09,2.45,2.45c0,.49-.15,.95-.4,1.34l1.55,1.55h3.04v-4.84c0-.28,.22-.5,.5-.5h4.84v-1.95l-3.25-3.25c-.09-.09-.14-.22-.14-.35v-1.72c-1.12-.23-1.95-1.22-1.95-2.4,0-1.35,1.09-2.45,2.45-2.45s2.45,1.1,2.45,2.45c0,1.18-.84,2.17-1.95,2.4v1.51l3.25,3.25c.09,.09,.14,.22,.14,.35v2.16h2.72V6c-1.11-.24-1.95-1.22-1.95-2.4,0-1.35,1.1-2.45,2.45-2.45s2.45,1.1,2.45,2.45c0,1.18-.84,2.16-1.95,2.4V15.44h2.72v-2.16c0-.13,.05-.26,.14-.35l3.25-3.25v-1.51c-1.11-.23-1.95-1.22-1.95-2.4,0-1.35,1.1-2.45,2.45-2.45s2.45,1.1,2.45,2.45c0,1.18-.83,2.17-1.95,2.4v1.72c0,.13-.05,.26-.14,.35l-3.25,3.25v1.95h4.84c.28,0,.5,.22,.5,.5v4.84h3.04l1.55-1.55c-.25-.39-.4-.85-.4-1.34,0-1.36,1.1-2.45,2.45-2.45s2.45,1.09,2.45,2.45-1.1,2.45-2.45,2.45c-.49,0-.95-.15-1.34-.41l-1.7,1.71c-.1,.09-.22,.14-.35,.14h-3.25v2.72h9.44c.24-1.11,1.22-1.95,2.4-1.95Zm1.45,2.45c0-.8-.65-1.45-1.45-1.45-.62,0-1.15,.4-1.35,.95-.06,.16-.1,.32-.1,.5s.04,.34,.1,.5c.2,.55,.73,.95,1.35,.95,.8,0,1.45-.65,1.45-1.45Zm-5.2-7.11c0-.8-.65-1.45-1.45-1.45s-1.45,.65-1.45,1.45c0,.21,.05,.42,.14,.6,.14,.31,.39,.57,.7,.71,.19,.09,.39,.14,.61,.14,.8,0,1.45-.65,1.45-1.45Zm0,14.22c0-.8-.65-1.45-1.45-1.45-.22,0-.42,.05-.61,.14-.31,.14-.56,.4-.7,.71-.09,.18-.14,.39-.14,.6,0,.8,.65,1.45,1.45,1.45s1.45-.65,1.45-1.45Zm-9.09,1.45V16.44H16.44v17.12h17.12Zm-.95-26.43c.56-.2,.95-.73,.95-1.36,0-.8-.65-1.45-1.45-1.45s-1.45,.65-1.45,1.45c0,.63,.4,1.16,.95,1.36,.16,.06,.33,.1,.5,.1,.18,0,.35-.04,.5-.1Zm.95,37.1c0-.63-.39-1.16-.95-1.36-.15-.06-.32-.1-.5-.1-.17,0-.34,.04-.5,.1-.55,.2-.95,.73-.95,1.36,0,.8,.65,1.45,1.45,1.45s1.45-.65,1.45-1.45ZM25.5,4.95c.55-.2,.95-.73,.95-1.35,0-.8-.65-1.45-1.45-1.45s-1.45,.65-1.45,1.45c0,.62,.4,1.15,.95,1.35,.16,.06,.32,.1,.5,.1s.34-.04,.5-.1Zm.95,41.45c0-.62-.4-1.15-.95-1.35-.16-.06-.32-.1-.5-.1s-.34,.04-.5,.1c-.55,.2-.95,.73-.95,1.35,0,.8,.65,1.45,1.45,1.45s1.45-.65,1.45-1.45ZM18.39,7.13c.55-.2,.95-.73,.95-1.36,0-.8-.65-1.45-1.45-1.45s-1.45,.65-1.45,1.45c0,.63,.39,1.16,.95,1.36,.15,.06,.32,.1,.5,.1,.17,0,.34-.04,.5-.1Zm.95,37.1c0-.63-.4-1.16-.95-1.36-.16-.06-.33-.1-.5-.1-.18,0-.35,.04-.5,.1-.56,.2-.95,.73-.95,1.36,0,.8,.65,1.45,1.45,1.45s1.45-.65,1.45-1.45ZM10.11,18.49c.09-.18,.14-.39,.14-.6,0-.8-.65-1.45-1.45-1.45s-1.45,.65-1.45,1.45,.65,1.45,1.45,1.45c.22,0,.42-.05,.61-.14,.31-.14,.56-.4,.7-.71Zm.14,13.62c0-.21-.05-.42-.14-.6-.14-.31-.39-.57-.7-.71-.19-.09-.39-.14-.61-.14-.8,0-1.45,.65-1.45,1.45s.65,1.45,1.45,1.45,1.45-.65,1.45-1.45Zm-5.2-7.11c0-.18-.04-.34-.1-.5-.2-.55-.73-.95-1.35-.95-.8,0-1.45,.65-1.45,1.45s.65,1.45,1.45,1.45c.62,0,1.15-.4,1.35-.95,.06-.16,.1-.32,.1-.5Z" stroke-width="0"/><path d="M30.58,20.11v9.78c0,.28-.22,.5-.5,.5h-9.78c-.28,0-.5-.22-.5-.5v-9.78c0-.28,.22-.5,.5-.5h9.78c.28,0,.5,.22,.5,.5Zm-1,9.28v-8.78h-8.78v8.78h8.78Z" stroke-width="0"/></svg>