<?xml version="1.0" encoding="UTF-8"?><svg width="70" height="70" xmlns="http://www.w3.org/2000/svg" viewBox="-10 -10 70 70"><rect x="-10" y="-10" width="70" height="70" fill="white"/><g id="uuid-2692fc49-3070-4f15-a809-30425d0757e2"><g><path d="M36.82,34.9l.25-.23-2.03-2.1c.1-.32,.23-.64,.39-.99,.02-.04,.04-.09,.06-.13,.26-.48,.47-.97,.65-1.48,.03-.08,.06-.18,.08-.27,.05-.16,.11-.32,.15-.49v-.02s.04-.14,.09-.37c.23-1.06,.3-2.15,.2-3.22,0-.05,0-.09,0-.13-.27-3.1-1.3-5.42-2.44-7.1v-6.69c-3.2-.03-6.41-.05-9.62-.08h-1.38c.03-2.98,.05-5.96,.08-8.95H3.76V43.02h30.44v-4.3c.21-.37,.31-.75,.36-1.15l11.65,12.3,2.5-2.4-11.9-12.57Zm-6.8-4.44c-2.96,2.82-7.67,2.71-10.49-.26-1.37-1.43-2.09-3.32-2.04-5.3,.05-1.98,.87-3.82,2.3-5.19,1.43-1.37,3.28-2.04,5.11-2.04,1.96,0,3.92,.77,5.38,2.3,1.37,1.43,2.09,3.32,2.04,5.3-.05,1.98-.87,3.82-2.3,5.19Z" fill="#ffcd00" stroke-width="0"/><g><path d="M7.3,8.02h10.95c.28,0,.5-.22,.5-.5s-.22-.5-.5-.5H7.3c-.28,0-.5,.22-.5,.5s.22,.5,.5,.5Z" stroke-width="0"/><path d="M20.02,36.35H7.3c-.28,0-.5,.22-.5,.5s.22,.5,.5,.5h12.72c.28,0,.5-.22,.5-.5s-.22-.5-.5-.5Z" stroke-width="0"/><path d="M32.72,37.22v4.3H2.28V1.13H22.28V11.08c0,.28,.22,.5,.5,.5h9.95v5.36c.12,.12,.25,.23,.37,.35,.22,.24,.43,.48,.63,.73v-6.95c0-.07-.01-.13-.04-.19-.03-.06-.06-.12-.11-.16L23.13,.28s-.1-.08-.16-.11c-.06-.03-.13-.04-.19-.04H1.78c-.28,0-.5,.22-.5,.5V42.02c0,.28,.22,.5,.5,.5h31.44c.28,0,.5-.22,.5-.5v-3.9l-.91-.96s-.06,.04-.09,.06ZM23.28,1.84l8.74,8.74h-8.74V1.84Z" stroke-width="0"/><g><path d="M30.27,19.98c-1.46-1.53-3.41-2.3-5.38-2.3-1.84,0-3.68,.68-5.11,2.04-1.44,1.37-2.25,3.21-2.3,5.19-.05,1.98,.68,3.86,2.04,5.3,2.82,2.96,7.53,3.08,10.49,.26,1.44-1.37,2.25-3.21,2.3-5.19,.05-1.98-.68-3.86-2.04-5.3Zm-8.49,9.28s-.09,.07-.15,.09c-.17,.06-.36,.02-.48-.12-.54-.6-1.47-1.89-1.57-3.76-.12-2.19,.99-3.74,1.47-4.3,.16-.19,.44-.21,.63-.05,.19,.16,.21,.44,.05,.63-.41,.48-1.36,1.8-1.26,3.67,.09,1.59,.88,2.69,1.34,3.2,.17,.18,.15,.47-.03,.63Z" fill="none" stroke-width="0"/><path d="M34.11,31.65c-.41,.58-.88,1.13-1.41,1.64-.51,.49-1.06,.92-1.64,1.3l1.44,1.51h0l.22-.2,.63-.6,2.22-2.12-1.45-1.52Z" fill="none" stroke-width="0"/><path d="M32.37,17.98c-2.02-2.12-4.74-3.2-7.47-3.2-2.56,0-5.11,.94-7.11,2.84-4.12,3.92-4.28,10.46-.36,14.58,1.9,2,4.46,3.13,7.21,3.2,2.75,.08,5.37-.94,7.36-2.84,4.12-3.92,4.28-10.46,.36-14.58Zm-7.47,15.53c-2.23,0-4.45-.88-6.1-2.61-1.55-1.63-2.37-3.76-2.32-6.01s.98-4.34,2.61-5.89c3.36-3.2,8.7-3.07,11.9,.29,1.55,1.63,2.37,3.76,2.32,6.01s-.98,4.34-2.61,5.89c-1.63,1.55-3.72,2.32-5.8,2.32Z" fill="none" stroke-width="0"/><rect x="38.75" y="33.09" width="3.26" height="16.42" transform="translate(-17.34 39.23) rotate(-43.59)" fill="none"/><path d="M31,19.29c-3.2-3.36-8.54-3.49-11.9-.29-1.63,1.55-2.56,3.64-2.61,5.89s.77,4.38,2.32,6.01c1.65,1.74,3.87,2.61,6.1,2.61,2.09,0,4.18-.77,5.8-2.32,1.63-1.55,2.56-3.64,2.61-5.89s-.77-4.38-2.32-6.01Zm-.98,11.18c-2.96,2.82-7.67,2.71-10.49-.26-1.37-1.43-2.09-3.32-2.04-5.3,.05-1.98,.87-3.82,2.3-5.19,1.43-1.37,3.28-2.04,5.11-2.04,1.96,0,3.92,.77,5.38,2.3,1.37,1.43,2.09,3.32,2.04,5.3-.05,1.98-.87,3.82-2.3,5.19Z" stroke-width="0"/><path d="M48.29,45.79l-11.67-12.26c.09-.09,.14-.21,.15-.34,0-.13-.05-.26-.14-.36l-1.96-2.06c2.31-3.97,2.01-9.06-.94-12.75-.2-.25-.41-.5-.63-.73-.12-.12-.25-.23-.37-.35-4.26-4.09-10.99-4.21-15.39-.24H7.3c-.28,0-.5,.22-.5,.5s.22,.5,.5,.5h9.04c-1.09,1.26-1.85,2.72-2.29,4.25H7.3c-.28,0-.5,.22-.5,.5s.22,.5,.5,.5h6.51c-.27,1.4-.27,2.84,0,4.25H7.3c-.28,0-.5,.22-.5,.5s.22,.5,.5,.5h6.73c.48,1.71,1.37,3.32,2.68,4.69,2.08,2.19,4.89,3.43,7.91,3.51,.1,0,.19,0,.29,0,1.86,0,3.66-.45,5.27-1.3l1.94,2.04c.1,.1,.23,.16,.36,.16,.09,0,.17-.03,.25-.07,.03-.02,.06-.03,.09-.06l-.34-.36c-.09-.1-.14-.22-.14-.36h0c0,.13,.05,.26,.14,.36l.34,.36,.91,.96,10.76,11.3c.1,.1,.23,.16,.36,.16,.12,0,.25-.05,.34-.14l3.08-2.94c.1-.09,.15-.22,.16-.35,0-.13-.05-.26-.14-.36Zm-23.64-10.39c-2.75-.07-5.32-1.2-7.21-3.2-3.92-4.12-3.76-10.66,.36-14.58,1.99-1.9,4.55-2.84,7.11-2.84,2.73,0,5.45,1.07,7.47,3.2,3.92,4.12,3.76,10.66-.36,14.58-2,1.9-4.61,2.92-7.36,2.84Zm8.06,.48l-.22,.2h0l-1.44-1.51c.58-.38,1.13-.81,1.64-1.3,.53-.51,1-1.06,1.41-1.64l1.45,1.52-2.22,2.12-.63,.6Zm12.15,12.48l-11.32-11.89,2.36-2.25,11.32,11.89-2.36,2.25Z" stroke-width="0"/><path d="M20.47,25.43c-.1-1.87,.85-3.19,1.26-3.67,.16-.19,.14-.47-.05-.63-.19-.16-.47-.14-.63,.05-.48,.56-1.59,2.11-1.47,4.3,.1,1.87,1.03,3.15,1.57,3.76,.13,.14,.32,.18,.48,.12,.05-.02,.1-.05,.15-.09,.18-.17,.2-.45,.03-.63-.46-.51-1.26-1.61-1.34-3.2Z" stroke-width="0"/></g></g></g></g><g id="uuid-0facdabf-208d-4a71-9aee-dd2cfc9e68a6"></g></svg>