<?xml version="1.0" encoding="UTF-8"?><svg width="70" height="70" xmlns="http://www.w3.org/2000/svg" viewBox="-10 -10 70 70"><rect x="-10" y="-10" width="70" height="70" fill="white"/><g id="uuid-6779373f-6901-442c-8816-2860577b86ce"><g><path d="M46.51,49.8H5.99V22.36c-.02-.11-.07-.45,.12-.77,.08-.12,.16-.2,.2-.23,.3-.26,1.96-1.66,4.24-3.59,.01,2.44,.03,4.89,.04,7.33,4.72,3.28,9.44,6.57,14.16,9.85,5.02-3.49,10.04-6.98,15.05-10.48,.05-2.8,.1-5.6,.15-8.4l6.13,5.2c.07,.06,.16,.15,.23,.27,.22,.34,.2,.71,.2,.8v27.44Z" fill="#ffcd00" stroke-width="0"/><g><path d="M46,19.89c0-.08-.02-.16-.06-.23,0-.02-.02-.03-.03-.04-.02-.03-.04-.07-.07-.09l-5.88-4.98V.7c0-.28-.22-.5-.5-.5H10.05c-.28,0-.5,.22-.5,.5V14.54l-5.88,4.98s-.05,.06-.07,.09c-.01,.02-.02,.03-.03,.04-.04,.07-.06,.15-.06,.23,0,0,0,.01,0,.02v28.9c0,.28,.22,.5,.5,.5H45.51c.28,0,.5-.22,.5-.5V19.9s0-.01,0-.02Zm-20.38,14.46l19.38-13.49v26.98l-19.38-13.49Zm-1.75,0L4.49,47.84V20.86l19.38,13.49ZM10.55,1.2h28.4V23.86l-14.2,9.88-14.2-9.88V1.2Zm14.2,33.76l19.16,13.34H5.59l19.16-13.34Zm19.94-15.1l-4.74,3.3v-7.31l4.74,4.01Zm-35.14,3.3l-4.74-3.3,4.74-4.01v7.31Z" stroke-width="0"/><path d="M13.49,9.23h22.51c.28,0,.5-.22,.5-.5s-.22-.5-.5-.5H13.49c-.28,0-.5,.22-.5,.5s.22,.5,.5,.5Z" stroke-width="0"/><path d="M13.49,15.98h22.51c.28,0,.5-.22,.5-.5s-.22-.5-.5-.5H13.49c-.28,0-.5,.22-.5,.5s.22,.5,.5,.5Z" stroke-width="0"/><path d="M13.49,22.38h22.51c.28,0,.5-.22,.5-.5s-.22-.5-.5-.5H13.49c-.28,0-.5,.22-.5,.5s.22,.5,.5,.5Z" stroke-width="0"/></g></g></g><g id="uuid-2afeaa07-13a9-41ce-a576-c5ef62830914"></g></svg>