<?xml version="1.0" encoding="UTF-8"?><svg width="70" height="70" xmlns="http://www.w3.org/2000/svg" viewBox="-10 -10 70 70"><rect x="-10" y="-10" width="70" height="70" fill="white"/><g id="uuid-41f9d074-d4da-4a93-8222-4f3740b1bdfa"><g><path d="M49.48,11.03H3.02v31.23c15.49-.01,30.97-.02,46.46-.03V11.03h0Z" fill="#ffcd00" stroke-width="0"/><path d="M48.95,8.09s0-.02,0-.02h0c-.03-.09-.09-.16-.16-.21-.02-.01-.03-.02-.05-.03-.08-.05-.16-.08-.25-.08H1.02c-.09,0-.18,.03-.25,.08-.02,.01-.03,.02-.05,.03-.07,.05-.13,.12-.16,.21h0s0,.02,0,.03c-.02,.05-.03,.1-.03,.15V41.28c0,.28,.22,.5,.5,.5H48.48c.28,0,.5-.22,.5-.5V8.24c0-.05-.01-.1-.03-.15ZM28.31,26.63L47.98,9.35v30.97l-19.67-13.69ZM47.15,8.74L24.75,28.42,2.35,8.74H47.15ZM21.26,26.68L1.52,40.42V9.35L21.26,26.68Zm.77,.68l2.39,2.1c.09,.08,.21,.12,.33,.12s.24-.04,.33-.12l2.45-2.16,19.35,13.47H2.76l19.27-13.41Z" stroke-width="0"/></g></g><g id="uuid-552a18f9-f11a-442f-bf4c-82c394f944b5"></g></svg>