<?xml version="1.0" encoding="UTF-8"?><svg width="70" height="70" xmlns="http://www.w3.org/2000/svg" viewBox="-10 -10 70 70"><rect x="-10" y="-10" width="70" height="70" fill="white"/><g id="uuid-810e66d8-abb2-447e-8fee-3e3874a8c62e"><path d="M4.04,12.44v27.88H48.71V12.44H4.04Zm39.36,9.14h-5.8v-7.66h5.8v7.66Z" fill="#ffcd00" stroke-width="0"/><path d="M47.46,9.69H1.79c-.28,0-.5,.22-.5,.5v28.88c0,.28,.22,.5,.5,.5H47.46c.28,0,.5-.22,.5-.5V10.19c0-.28-.22-.5-.5-.5Zm-.5,28.88H2.29V10.69H46.96v27.88Z" stroke-width="0"/><path d="M37.1,22.58h6.8c.28,0,.5-.22,.5-.5V13.42c0-.28-.22-.5-.5-.5h-6.8c-.28,0-.5,.22-.5,.5v8.66c0,.28,.22,.5,.5,.5Zm.5-8.66h5.8v7.66h-5.8v-7.66Z" stroke-width="0"/><path d="M12.81,21.4H30.68c.28,0,.5-.22,.5-.5s-.22-.5-.5-.5H12.81c-.28,0-.5,.22-.5,.5s.22,.5,.5,.5Z" stroke-width="0"/><path d="M12.81,25.65H30.68c.28,0,.5-.22,.5-.5s-.22-.5-.5-.5H12.81c-.28,0-.5,.22-.5,.5s.22,.5,.5,.5Z" stroke-width="0"/><path d="M12.81,29.9H30.68c.28,0,.5-.22,.5-.5s-.22-.5-.5-.5H12.81c-.28,0-.5,.22-.5,.5s.22,.5,.5,.5Z" stroke-width="0"/></g><g id="uuid-247bd80d-0980-4e1b-8061-a58bc38dc115"></g></svg>