<?xml version="1.0" encoding="UTF-8"?><svg width="70" height="70" id="uuid-2875232a-e0e4-4f04-a032-6ddbe9226558" xmlns="http://www.w3.org/2000/svg" viewBox="-10 -10 70 70"><rect x="-10" y="-10" width="70" height="70" fill="white"/><path d="M39.86,21.91c-.28,0-.5-.22-.5-.5v-3.32c0-.28,.22-.5,.5-.5h.32v-2.67c0-.28,.22-.5,.5-.5h1.21v-2.43H10.85v2.43h1.21c.28,0,.5,.22,.5,.5v2.67h.32c.28,0,.5,.22,.5,.5v3.32c0,.28-.22,.5-.5,.5H3.33v18.84H49.42V21.91h-9.55ZM7.63,35.09h-3.04v-3.59h3.04v3.59Zm0-7.67h-3.04v-3.59h3.04v3.59Zm12.53-10.58h2.77v14.89h-2.77v-14.89Zm-6.15,0h2.77v14.89h-2.77v-14.89Zm12.66,22.17H14.81v-2.92h11.86v2.92Zm2.41-7.28h-2.77v-14.89h2.77v14.89Zm6.15,0h-2.77v-14.89h2.77v14.89Zm9.35,3.49h-3.04v-3.59h3.04v3.59Zm0-7.67h-3.04v-3.59h3.04v3.59Z" fill="#ffcd00" stroke-width="0"/><path d="M48.17,19.16h-9.55v-2.32h.32c.28,0,.5-.22,.5-.5v-2.67h1.21c.28,0,.5-.22,.5-.5v-3.43c0-.28-.22-.5-.5-.5H8.6c-.28,0-.5,.22-.5,.5v3.43c0,.28,.22,.5,.5,.5h1.21v2.67c0,.28,.22,.5,.5,.5h.32v2.32H1.08c-.28,0-.5,.22-.5,.5v19.84c0,.28,.22,.5,.5,.5H48.17c.28,0,.5-.22,.5-.5V19.66c0-.28-.22-.5-.5-.5ZM1.58,39.01V20.16H10.64v18.84H1.58ZM9.1,10.24h31.04v2.43H9.1v-2.43Zm28.51,21.45h-1.38v-14.85h1.38v14.85Zm-6.15,0h-1.38v-14.85h1.38v14.85Zm-6.15,0h-1.38v-14.85h1.38v14.85Zm-6.15,0h-1.38v-14.85h1.38v14.85Zm-5.15-14.85h2.77v14.89h-2.77v-14.89Zm6.15,0h2.77v14.89h-2.77v-14.89Zm6.15,0h2.77v14.89h-2.77v-14.89Zm6.15,0h2.77v14.89h-2.77v-14.89Zm5.97-3.17v2.17H10.82v-2.17h27.61Zm-25.42,3.17v14.85h-1.38v-14.85h1.38Zm-1.38,15.89h25.97v6.28h-9.94v-3.42c0-.28-.22-.5-.5-.5H14.31c-.28,0-.5,.22-.5,.5v3.42h-2.17v-6.28Zm15.03,6.28H14.81v-2.92h11.86v2.92Zm20.99,0h-9.05V20.16h9.05v18.84Z" stroke-width="0"/><path d="M41.04,28.55h4.04c.28,0,.5-.22,.5-.5v-4.59c0-.28-.22-.5-.5-.5h-4.04c-.28,0-.5,.22-.5,.5v4.59c0,.28,.22,.5,.5,.5Zm.5-4.59h3.04v3.59h-3.04v-3.59Z" stroke-width="0"/><path d="M41.04,36.22h4.04c.28,0,.5-.22,.5-.5v-4.59c0-.28-.22-.5-.5-.5h-4.04c-.28,0-.5,.22-.5,.5v4.59c0,.28,.22,.5,.5,.5Zm.5-4.59h3.04v3.59h-3.04v-3.59Z" stroke-width="0"/><path d="M8.13,22.83H4.09c-.28,0-.5,.22-.5,.5v4.59c0,.28,.22,.5,.5,.5h4.04c.28,0,.5-.22,.5-.5v-4.59c0-.28-.22-.5-.5-.5Zm-.5,4.59h-3.04v-3.59h3.04v3.59Z" stroke-width="0"/><path d="M8.13,30.49H4.09c-.28,0-.5,.22-.5,.5v4.59c0,.28,.22,.5,.5,.5h4.04c.28,0,.5-.22,.5-.5v-4.59c0-.28-.22-.5-.5-.5Zm-.5,4.59h-3.04v-3.59h3.04v3.59Z" stroke-width="0"/></svg>