<?xml version="1.0" encoding="UTF-8"?><svg width="70" height="70" xmlns="http://www.w3.org/2000/svg" viewBox="-10 -10 70 70"><rect x="-10" y="-10" width="70" height="70" fill="white"/><g id="uuid-7f35aa90-b34d-4506-8001-51806308b029"><g><circle cx="26.27" cy="14.92" r="12.25" fill="#ffcd00"/><g><path d="M38.02,13.4C38.02,6.09,32.07,.13,24.75,.13S11.48,6.09,11.48,13.4c0,6.14,4.19,11.3,9.86,12.81l1.46,23.19c.02,.26,.23,.47,.5,.47h3.21c.27,0,.49-.21,.5-.47l1.17-23.19c5.66-1.52,9.84-6.68,9.84-12.8Zm-14.25,35.47l-1.41-22.42c.78,.14,1.57,.23,2.39,.23s1.63-.09,2.42-.23l-1.13,22.43h-2.27Zm.98-23.2c-6.77,0-12.27-5.5-12.27-12.27S17.99,1.13,24.75,1.13s12.27,5.5,12.27,12.27-5.5,12.27-12.27,12.27Z" stroke-width="0"/><path d="M19.97,5c-1.01,.62-3.46,2.41-4.41,5.75-.72,2.53-.21,4.74,.16,5.83,.07,.21,.27,.34,.47,.34,.05,0,.11,0,.16-.03,.26-.09,.4-.37,.31-.63-.33-.98-.79-2.97-.14-5.23,.85-2.99,3.06-4.61,3.96-5.16,.24-.14,.31-.45,.17-.69-.14-.24-.45-.31-.69-.17Z" stroke-width="0"/></g></g></g><g id="uuid-f256cad2-4aed-465a-a6a9-c18819ff2360"></g></svg>