<?xml version="1.0" encoding="UTF-8"?><svg width="70" height="70" id="uuid-d6d8435a-40bd-419a-aacd-3b3375874800" xmlns="http://www.w3.org/2000/svg" viewBox="-10 -10 70 70"><rect x="-10" y="-10" width="70" height="70" fill="white"/><path d="M42.69,11.81c-.93-.67-2.05-.99-3.24-.99-5.03,0-8.53,4.75-9.06,5.51-2.89,4.12-2.58,8.61-2.42,10.04,.07,.42,.42,2.09,1.95,3.25,2.13,1.61,4.66,.8,4.88,.73,1.7-.53,5.22-1.92,7.53-5.43,2.69-4.11,3.53-10.83,.36-13.1Z" fill="#ffcd00" stroke-width="0"/><path d="M22.32,26.3c.56-1.3,2.27-5.67,.46-10.32-1.8-4.62-6.9-9.06-10.57-7.75-1.82,.65-3.17,2.3-3.8,4.66-.96,3.57-.03,6.62,.52,8.03,1.78,4.59,5.48,6.91,6.89,7.7,.31,.13,2.12,.87,4.09-.02,1.51-.68,2.21-1.9,2.41-2.3Z" fill="#ffcd00" stroke-width="0"/><path d="M46.17,13c-.27,.07-.43,.34-.37,.6,.56,2.29,.16,5.12-1.11,7.78-.12,.25-.01,.55,.24,.67,.07,.03,.14,.05,.21,.05,.19,0,.37-.1,.45-.28,1.37-2.86,1.8-5.94,1.18-8.45-.07-.27-.34-.43-.6-.37Z" stroke-width="0"/><path d="M18.71,9.58l-.07,.03c.07,.06,.15,.11,.22,.18-.05-.07-.1-.14-.15-.2Z" stroke-width="0"/><path d="M23.96,35.69c.11-.03,.21-.08,.28-.18l2.91-4.05c.18-.25,.33-.52,.46-.79-.1,.12-.21,.23-.3,.36l-3.35,4.66Z" fill="none" stroke-width="0"/><path d="M41.52,9.24c-1.84-1.32-4.3-1.54-6.91-.61-2.55,.91-4.96,2.81-6.79,5.35-.05,.07-.09,.14-.13,.2-.01,.01-.03,.02-.04,.04-.02,.03-.03,.06-.04,.09-2.34,3.42-3.25,7.44-2.35,10.58,.22,.77,.26,1.55,.13,2.28v.02c-.13,.67-.39,1.31-.79,1.87l-2.36,3.28-1.17-3.27c-.23-.65-.31-1.34-.24-2.02v-.02c.08-.75,.33-1.48,.75-2.16,1.73-2.76,1.97-6.88,.67-10.81,0-.03,0-.06-.01-.09,0-.02-.02-.03-.03-.05-.03-.08-.04-.15-.07-.23-1.05-2.95-2.84-5.44-5.04-7.02-2.26-1.62-4.67-2.09-6.81-1.33-4.34,1.55-6.08,7.82-3.88,13.97,.03,.08,.06,.15,.09,.22,0,.02,0,.04,0,.06,0,.02,.02,.03,.03,.04,1.48,3.89,4.28,6.94,7.38,7.99,1.46,.49,2.57,1.56,3.06,2.92l2.18,6.1-2.63,3.66c-.34,.47-.47,1.05-.38,1.62,.09,.57,.41,1.08,.88,1.41,.38,.28,.83,.41,1.27,.41,.68,0,1.34-.31,1.77-.9l.88-1.22,.7,1.95c.32,.89,1.16,1.44,2.05,1.44,.24,0,.49-.04,.73-.13,1.13-.4,1.72-1.65,1.32-2.78l-1.71-4.78,4.11-5.72c.4-.55,.91-1,1.5-1.33h0c.67-.38,1.43-.6,2.25-.64,3.26-.15,6.79-2.3,9.29-5.62,.02-.02,.04-.03,.06-.05,.01-.02,.01-.04,.02-.05,.05-.07,.1-.12,.15-.19h0c3.81-5.31,3.87-11.81,.13-14.5ZM10.62,6.28c.55-.2,1.13-.3,1.73-.3,1.35,0,2.78,.51,4.16,1.49,.52,.38,1.02,.81,1.49,1.29L6.48,12.88c.27-3.18,1.74-5.74,4.13-6.6Zm-4.17,7.67l12.27-4.38c.99,1.21,1.81,2.66,2.41,4.26l-13.84,4.94c-.56-1.64-.83-3.29-.83-4.83Zm3.83,9.98c-1.06-1.17-1.96-2.61-2.63-4.23l13.78-4.92c.5,1.67,.72,3.36,.64,4.93-.05,0-.11,0-.16,.02l-11.47,4.1c-.06,.02-.12,.06-.16,.1Zm6.08,3.97c-.6-.54-1.32-.97-2.12-1.24-1.13-.38-2.22-1.07-3.21-1.98l10.94-3.91c-.19,1.33-.6,2.55-1.23,3.56-.45,.72-.74,1.51-.86,2.3l-3.52,1.26Zm1.56,2.3c-.19-.54-.48-1.04-.82-1.5l2.72-.97c.02,.57,.12,1.14,.31,1.68l1.4,3.92-1.67,2.32-1.95-5.45Zm6.86,12.24c.22,.61-.1,1.28-.71,1.5-.61,.22-1.28-.1-1.5-.71l-.93-2.6,1.67-2.32,1.48,4.13Zm2.53-11.42l-8.07,11.23c-.38,.53-1.12,.65-1.64,.27-.25-.18-.42-.46-.47-.76-.05-.31,.02-.62,.21-.88l8.08-11.23c.34-.47,.59-.99,.76-1.53l2.35,1.69c-.46,.34-.87,.74-1.2,1.21Zm4.52-2.38c-.85,.04-1.66,.25-2.38,.6l-3.03-2.18c.1-.8,.05-1.63-.19-2.45-.33-1.15-.38-2.43-.19-3.77l9.43,6.78c-1.2,.6-2.44,.96-3.63,1.01Zm4.57-1.53s-.06-.09-.11-.12l-9.89-7.11c-.05-.04-.11-.06-.17-.08,.36-1.53,1.04-3.09,1.98-4.56l11.88,8.54c-1.09,1.36-2.35,2.5-3.69,3.33Zm4.3-4.12l-11.93-8.58c1.01-1.37,2.21-2.54,3.49-3.43l10.58,7.6c-.43,1.48-1.14,2.98-2.14,4.41Zm-7.53-12.58c.58-.33,1.18-.61,1.79-.83,.96-.34,1.89-.51,2.76-.51,1.22,0,2.32,.33,3.23,.99,2.07,1.49,2.77,4.35,2.15,7.49l-9.92-7.13Z" stroke-width="0"/><path d="M49.51,15.18c-.02-.28-.26-.49-.53-.47-.28,.02-.49,.25-.47,.53,.08,1.41-.15,2.95-.66,4.47-.09,.26,.05,.55,.31,.63,.05,.02,.11,.03,.16,.03,.21,0,.4-.13,.47-.34,.55-1.64,.8-3.31,.71-4.84Z" stroke-width="0"/><path d="M5.93,6.77c.15-.23,.07-.54-.16-.69-.24-.15-.54-.07-.69,.16-1.67,2.7-2.42,5.71-2.08,8.27,.03,.25,.25,.43,.5,.43,.02,0,.04,0,.07,0,.27-.04,.47-.29,.43-.56-.32-2.33,.39-5.11,1.94-7.61Z" stroke-width="0"/><path d="M2.36,7.43c-.25-.12-.55,0-.66,.25-.72,1.57-1.15,3.2-1.23,4.74-.01,.28,.2,.51,.47,.53h.03c.26,0,.48-.21,.5-.47,.08-1.41,.47-2.92,1.14-4.37,.12-.25,0-.55-.25-.66Z" stroke-width="0"/></svg>