<?xml version="1.0" encoding="UTF-8"?><svg width="70" height="70" xmlns="http://www.w3.org/2000/svg" viewBox="-10 -10 70 70"><rect x="-10" y="-10" width="70" height="70" fill="white"/><g id="uuid-209fc3ed-4212-4e54-8482-8da344b42a29"><path d="M42.85,39.14c1.56-2.56,2.41-3.97,2.54-5.27,.12-1.26-.12-2.55-.72-3.85l-10.6,1.37v7.16l5.68,5.56c.9-1.4,1.79-2.82,2.64-4.22l.46-.76Z" fill="#ffcd00" stroke-width="0"/><path d="M43.66,27.51c-.09-.19-.3-.29-.51-.27l-.61,.08c-.74-1.64-1.45-3.51-1.45-4.6,0-.71,.16-1.61,.34-2.65,.42-2.39,.93-5.35-.18-7.87C38.24,5.33,28.74-.58,18.67,1.83,6.5,4.74,5.23,14.48,5.33,21.55c.06,4.2,1.28,6.61,2.57,9.17,.99,1.96,2.01,3.98,2.59,6.99,1.1,5.73-.56,8.34-1.35,9.6-.17,.26-.3,.47-.37,.64-.11,.25,0,.55,.26,.66,.06,.03,.13,.04,.2,.04,.19,0,.38-.11,.46-.3,.06-.13,.16-.29,.29-.5,.87-1.36,2.67-4.2,1.49-10.32-.61-3.15-1.66-5.24-2.68-7.26-1.24-2.45-2.41-4.76-2.46-8.73-.11-7.3,1.23-16.02,12.57-18.74,6.49-1.56,17.56,.98,21.44,9.79,.99,2.24,.5,5.04,.11,7.3-.19,1.09-.35,2.03-.35,2.83,0,1.19,.68,3.06,1.41,4.74l-9.57,1.23-9.6-6.31c-.6-1.73-2.12-2.97-3.91-2.97-1.07,0-2.11,.46-2.91,1.29-.87,.9-1.34,2.11-1.29,3.32,.09,2.41,2.22,3.69,2.28,3.72,.07,.05,.13,.12,.18,.19,.07,.11,.12,.25,.13,.41,.14,1.49,1.26,2.63,2.61,2.65h.03c.61,0,1.18-.24,1.64-.7,.39-.38,.65-.87,.82-1.33l9.55,8.42,5.35,5.24s0,.03,0,.04c-1.11,.85-5.08-.88-7.61-2.41-.16-.09-.35-.1-.5,0-.16,.09-.25,.25-.25,.44v7.07c0,.28,.22,.5,.5,.5s.5-.22,.5-.5v-6.2c1.98,1.12,6.45,3.35,8.11,1.79l.17,.17c.09,.09,.22,.14,.35,.14,.02,0,.04,0,.06,0,.15-.02,.28-.1,.36-.23,1.02-1.58,2.03-3.18,2.99-4.76l.46-.76c1.63-2.68,2.53-4.16,2.68-5.69,.15-1.55-.18-3.14-.97-4.72Zm-11.34,9.3v-7.16l10.6-1.37c.6,1.3,.84,2.6,.72,3.85-.13,1.3-.98,2.71-2.54,5.27l-.46,.76c-.85,1.4-1.73,2.82-2.64,4.22l-5.68-5.56Zm-10.31-9.02c-.08-.1-.2-.17-.33-.19-.02,0-.04-.01-.06-.01-.28,0-.5,.22-.5,.5s-.21,1-.71,1.49c-.28,.28-.62,.39-.96,.42-.82-.01-1.54-.78-1.63-1.73-.02-.31-.12-.61-.29-.86-.12-.19-.27-.35-.48-.49-.02-.01-1.75-1.05-1.82-2.92-.04-.94,.33-1.88,1.01-2.58,.61-.63,1.39-.98,2.19-.98,1.76,0,3.2,1.61,3.2,3.59,0,.25,.19,.46,.44,.49,.02,0,.04,.01,.06,.01,.28,0,.5-.22,.5-.5,0-.09-.02-.17-.02-.25l8.72,5.73v6.44l-9.08-8.01c-.07-.06-.15-.09-.23-.11Z" stroke-width="0"/><path d="M20.54,27.04c-.1-.03-.2-.04-.29,0,.16-.48,.47-1.41,.55-2,.02-.19,.04-.37,.04-.38,.02-.32,0-.65-.07-1.01-.05-.21-.37-1.27-1.31-1.66-.98-.4-1.94,.2-2.42,.93-.22,.34-.38,.78-.42,1.24-.04,.42,0,.85,.12,1.24,.08,.26,.37,.41,.63,.33,.26-.08,.41-.36,.33-.63-.06-.19-.12-.48-.08-.83,.03-.3,.13-.58,.27-.8,.19-.29,.68-.77,1.2-.55,.41,.17,.65,.7,.71,.94,.04,.25,.06,.5,.05,.75,0,0,0,.15-.03,.29-.06,.48-.35,1.38-.56,1.98-.12,.29-.12,.62,0,.91,.1,.23,.27,.41,.48,.49,.09,.03,.18,.05,.27,.05,.11,0,.23-.02,.34-.07,.23-.11,.42-.32,.52-.59,.09-.26-.05-.53-.31-.62Z" stroke-width="0"/></g><g id="uuid-e2bf51b4-b982-4777-ae45-e39617939073"></g></svg>