<?xml version="1.0" encoding="UTF-8"?><svg width="70" height="70" xmlns="http://www.w3.org/2000/svg" viewBox="-10 -10 70 70"><rect x="-10" y="-10" width="70" height="70" fill="white"/><g id="uuid-354565e9-868b-421d-8179-8433717f8a54"><path d="M25.02,24.05c.05-.23,.25-.39,.49-.39h3.21v-3.39h-3.21c-.23,0-.44-.16-.49-.39-.24-1.09-.67-2.14-1.28-3.09-.13-.2-.1-.46,.07-.62l2.27-2.28-2.39-2.39-2.27,2.27c-.17,.17-.42,.2-.62,.07-.96-.61-2-1.04-3.09-1.29-.23-.05-.39-.25-.39-.49v-3.21h-3.39v3.2c0,.23-.16,.44-.39,.49-1.09,.24-2.14,.67-3.09,1.29-.2,.13-.46,.1-.62-.07l-2.28-2.27-2.39,2.39,2.27,2.27c.17,.17,.19,.42,.07,.62-.61,.96-1.04,2-1.29,3.09-.05,.23-.25,.39-.49,.39H2.5v3.39h3.21c.23,0,.44,.16,.49,.39,.24,1.1,.67,2.14,1.28,3.09,.13,.2,.1,.46-.07,.62l-2.27,2.28,2.39,2.39,2.27-2.27c.17-.17,.42-.2,.62-.07,.96,.61,2,1.04,3.09,1.29,.23,.05,.39,.25,.39,.49v3.21h3.39v-3.2c0-.23,.16-.44,.39-.49,1.09-.24,2.14-.67,3.09-1.29,.2-.13,.46-.1,.62,.07l2.28,2.27,2.39-2.39-2.27-2.27c-.17-.17-.19-.42-.07-.62,.61-.96,1.04-2,1.29-3.09Zm-10.91,.54c-2.3,0-4.16-1.86-4.16-4.16s1.86-4.16,4.16-4.16,4.16,1.86,4.16,4.16-1.86,4.16-4.16,4.16Z" fill="#ffcd00" stroke-width="0"/><path d="M14.11,15.26c-2.86,0-5.19,2.33-5.19,5.19s2.33,5.19,5.19,5.19,5.19-2.33,5.19-5.19-2.33-5.19-5.19-5.19Zm0,9.39c-2.31,0-4.19-1.88-4.19-4.19s1.88-4.19,4.19-4.19,4.19,1.88,4.19,4.19-1.88,4.19-4.19,4.19Z" stroke-width="0"/><g><path d="M46.72,36.16c.32-.82,.49-1.67,.51-2.53,0-.23,.17-.43,.4-.48l2.35-.47-.47-2.38-2.35,.47c-.23,.05-.46-.08-.56-.29-.35-.79-.83-1.51-1.44-2.15-.16-.17-.18-.43-.05-.62l1.33-2-2.02-1.35-1.33,2c-.13,.2-.38,.27-.6,.19-.81-.32-1.66-.49-2.53-.51-.23,0-.43-.17-.48-.4l-.47-2.35-2.38,.47,.47,2.35c.05,.23-.08,.46-.29,.56-.79,.35-1.51,.83-2.15,1.44-.17,.16-.43,.19-.62,.05l-2-1.33-1.35,2.02,2,1.33c.2,.13,.27,.38,.19,.6-.32,.82-.49,1.67-.51,2.53,0,.23-.17,.43-.4,.48l-2.35,.47,.47,2.38,2.35-.47c.23-.05,.46,.08,.56,.29,.35,.79,.83,1.51,1.44,2.15,.16,.17,.18,.43,.05,.62l-1.33,2,2.02,1.35,1.33-2c.09-.14,.25-.22,.42-.22,.06,0,.12,.01,.18,.03,.81,.32,1.66,.49,2.53,.51,.23,0,.43,.17,.48,.4l.47,2.35,2.38-.47-.47-2.35c-.05-.23,.07-.46,.29-.56,.79-.35,1.51-.83,2.15-1.44,.17-.16,.43-.19,.62-.05l2,1.33,1.35-2.02-2-1.33c-.2-.13-.27-.38-.19-.6Zm-8.22-.82c-1.75,0-3.17-1.42-3.17-3.17s1.42-3.17,3.17-3.17,3.17,1.42,3.17,3.17-1.42,3.17-3.17,3.17Z" fill="#ffcd00" stroke-width="0"/><g><path d="M23.3,25.83c.5-.84,.87-1.74,1.11-2.68h3.31c.28,0,.5-.23,.5-.51v-4.38c0-.28-.22-.5-.5-.5h-3.31c-.24-.94-.62-1.84-1.11-2.68l2.34-2.35c.19-.2,.19-.51,0-.71l-3.1-3.09c-.2-.2-.51-.2-.71,0l-2.34,2.34c-.84-.5-1.74-.87-2.68-1.11v-3.31c0-.28-.23-.5-.51-.5h-4.38c-.13,0-.26,.05-.35,.15s-.15,.22-.15,.35v3.31c-.94,.24-1.84,.62-2.68,1.11l-2.35-2.34c-.2-.19-.51-.19-.71,0l-3.1,3.1c-.2,.2-.2,.51,0,.71l2.34,2.34c-.5,.84-.87,1.74-1.12,2.68H.52c-.28,0-.5,.23-.5,.51v4.38c0,.28,.22,.5,.5,.5H3.83c.24,.94,.62,1.84,1.11,2.68l-2.34,2.35c-.19,.2-.19,.51,0,.71l3.1,3.1c.2,.2,.51,.2,.71,0l2.34-2.34c.84,.5,1.74,.87,2.68,1.11v3.31c0,.28,.23,.5,.51,.5h4.38c.28,0,.5-.22,.5-.5v-3.31c.94-.24,1.84-.62,2.68-1.11l2.35,2.34c.2,.19,.51,.19,.71,0l3.1-3.1c.2-.2,.2-.51,0-.71l-2.34-2.34Zm-1.11,5.09l-2.28-2.27c-.17-.16-.42-.19-.62-.07-.96,.61-2,1.04-3.09,1.29-.23,.05-.39,.25-.39,.49v3.2h-3.38v-3.21c0-.23-.17-.44-.4-.49-1.1-.24-2.14-.67-3.09-1.29-.2-.13-.46-.1-.62,.07l-2.27,2.27-2.39-2.39,2.27-2.28c.17-.17,.19-.42,.07-.62-.61-.96-1.04-2-1.28-3.09-.05-.23-.25-.39-.49-.39H1.02v-3.38h3.21c.23,0,.44-.17,.49-.4,.24-1.09,.67-2.14,1.29-3.09,.13-.2,.1-.46-.07-.62l-2.27-2.27,2.39-2.39,2.28,2.27c.16,.17,.43,.19,.62,.07,.96-.61,2-1.04,3.09-1.29,.23-.05,.39-.25,.39-.49v-3.2h3.38v3.21c0,.23,.17,.44,.4,.49,1.1,.24,2.14,.67,3.09,1.29,.2,.13,.46,.1,.62-.07l2.27-2.27,2.39,2.39-2.27,2.28c-.17,.17-.19,.42-.07,.62,.61,.96,1.04,2,1.28,3.09,.05,.23,.25,.39,.49,.39h3.21v3.38h-3.21c-.23,0-.44,.17-.49,.4-.24,1.1-.67,2.14-1.29,3.09-.13,.2-.1,.46,.07,.62l2.27,2.27-2.39,2.39Z" stroke-width="0"/><path d="M48.89,28.11c-.03-.13-.1-.24-.21-.32-.11-.07-.24-.1-.38-.07l-2.46,.49c-.32-.64-.71-1.23-1.19-1.77l1.39-2.09c.15-.23,.09-.54-.14-.69l-2.85-1.9c-.23-.15-.54-.09-.69,.14l-1.39,2.08c-.68-.23-1.38-.37-2.09-.42l-.49-2.46c-.05-.27-.32-.45-.59-.39l-3.36,.67c-.13,.03-.24,.1-.32,.21-.07,.11-.1,.25-.07,.38l.49,2.46c-.64,.32-1.23,.71-1.77,1.19l-2.09-1.39c-.23-.15-.54-.09-.69,.14l-1.9,2.85c-.07,.11-.1,.25-.07,.38,.03,.13,.1,.24,.21,.32l2.09,1.39c-.23,.68-.37,1.38-.42,2.09l-2.46,.5c-.27,.05-.45,.32-.39,.59l.67,3.36c.03,.13,.1,.24,.21,.32,.11,.07,.24,.1,.38,.07l2.46-.49c.32,.64,.71,1.23,1.19,1.77l-1.39,2.09c-.15,.23-.09,.54,.14,.69l2.85,1.9c.11,.07,.25,.1,.38,.07,.13-.03,.24-.1,.32-.21l1.39-2.08c.68,.23,1.38,.37,2.09,.42l.49,2.46c.05,.24,.26,.4,.49,.4,.03,0,.07,0,.1,0l3.36-.67c.13-.03,.24-.1,.32-.21,.07-.11,.1-.25,.07-.38l-.49-2.46c.64-.32,1.23-.71,1.77-1.19l2.09,1.39c.23,.15,.54,.09,.69-.14l1.9-2.85c.15-.23,.09-.54-.14-.69l-2.08-1.39c.23-.68,.37-1.38,.42-2.09l2.46-.49c.27-.05,.45-.32,.39-.59l-.67-3.36Zm-2.76,3.54c-.23,.05-.4,.25-.4,.48-.02,.87-.19,1.72-.51,2.53-.08,.22,0,.47,.19,.6l2,1.33-1.35,2.02-2-1.33c-.19-.13-.45-.11-.62,.05-.63,.61-1.35,1.09-2.15,1.44-.21,.09-.33,.33-.29,.56l.47,2.35-2.38,.47-.47-2.35c-.05-.23-.25-.4-.48-.4-.87-.02-1.72-.19-2.53-.51-.06-.02-.12-.03-.18-.03-.16,0-.32,.08-.42,.22l-1.33,2-2.02-1.35,1.33-2c.13-.19,.11-.45-.05-.62-.61-.63-1.09-1.35-1.44-2.15-.09-.21-.32-.34-.56-.29l-2.35,.47-.47-2.38,2.35-.47c.23-.05,.4-.25,.4-.48,.02-.86,.19-1.71,.51-2.53,.08-.22,0-.47-.19-.6l-2-1.33,1.35-2.02,2,1.33c.2,.13,.45,.11,.62-.05,.63-.61,1.35-1.09,2.15-1.44,.21-.09,.34-.33,.29-.56l-.47-2.35,2.38-.47,.47,2.35c.05,.23,.25,.4,.48,.4,.87,.02,1.72,.19,2.53,.51,.22,.09,.47,0,.6-.19l1.33-2,2.02,1.35-1.33,2c-.13,.2-.11,.45,.05,.62,.61,.63,1.09,1.35,1.44,2.15,.09,.21,.32,.34,.56,.29l2.35-.47,.47,2.38-2.35,.47Z" stroke-width="0"/></g><path d="M41.12,28.92c-.87-.7-1.96-1.01-3.06-.89-2.29,.25-3.94,2.31-3.7,4.6,.23,2.13,2.04,3.72,4.14,3.72,.15,0,.3,0,.46-.02,1.11-.12,2.1-.67,2.8-1.53,.7-.87,1.02-1.96,.89-3.06-.12-1.11-.67-2.1-1.53-2.8Zm-.14,5.24c-.53,.66-1.29,1.07-2.13,1.17-1.76,.19-3.31-1.07-3.5-2.81-.09-.84,.15-1.67,.68-2.33,.53-.66,1.29-1.07,2.13-1.17,.12-.01,.23-.02,.35-.02,.72,0,1.41,.24,1.98,.7,.66,.53,1.07,1.29,1.17,2.13,.09,.84-.15,1.67-.68,2.33Z" stroke-width="0"/></g></g><g id="uuid-09d5d3c0-f64e-47b7-951e-d96b65ce3b1c"></g></svg>