<?xml version="1.0" encoding="UTF-8"?><svg width="70" height="70" xmlns="http://www.w3.org/2000/svg" viewBox="-10 -10 70 70"><rect x="-10" y="-10" width="70" height="70" fill="white"/><g id="uuid-e7633cdd-b71c-4ef9-a26e-f4ddbbf4eed0"><g><path d="M33.01,36.85c-9.22-3.26-18.44-6.53-27.65-9.79v-1.12c9.22-3.26,18.44-6.53,27.65-9.79v20.7Z" fill="#ffcd00" stroke-width="0"/><g><path d="M33.74,10.64c-1.23,0-2.23,1-2.23,2.23v.72L3.83,23.39c-.14-.85-.87-1.51-1.76-1.51-.99,0-1.79,.8-1.79,1.79v2.65c0,.99,.8,1.79,1.79,1.79,.89,0,1.63-.65,1.76-1.51l5.33,1.89-.92,2.6c-.09,.26,.04,.55,.3,.64l10.97,3.88c.06,.02,.11,.03,.17,.03,.21,0,.4-.13,.47-.33l.92-2.6,10.44,3.7v.72c0,1.23,1,2.23,2.23,2.23s2.23-1,2.23-2.23V12.87c0-1.23-1-2.23-2.23-2.23Zm-14.37,23.88l-10.02-3.55,.75-2.11,10.02,3.55-.75,2.11Zm15.61,2.62c0,.68-.55,1.23-1.23,1.23s-1.23-.55-1.23-1.23V12.87c0-.68,.55-1.23,1.23-1.23s1.23,.55,1.23,1.23v24.26ZM2.06,27.12c-.44,0-.79-.36-.79-.79v-2.65c0-.44,.36-.79,.79-.79s.79,.36,.79,.79v2.65c0,.44-.36,.79-.79,.79Zm1.79-1.56v-1.12L31.51,14.65v20.7L3.86,25.56Z" stroke-width="0"/><path d="M38.08,19.16c.1,0,.19-.03,.28-.09l11.15-7.52c.23-.15,.29-.47,.13-.69-.15-.23-.47-.29-.69-.13l-11.15,7.52c-.23,.15-.29,.47-.13,.69,.1,.14,.25,.22,.42,.22Z" stroke-width="0"/><path d="M38.08,25.5h9.75c.28,0,.5-.22,.5-.5s-.22-.5-.5-.5h-9.75c-.28,0-.5,.22-.5,.5s.22,.5,.5,.5Z" stroke-width="0"/><path d="M38.36,30.92c-.23-.15-.54-.09-.69,.13-.15,.23-.09,.54,.13,.69l11.15,7.52c.09,.06,.18,.09,.28,.09,.16,0,.32-.08,.42-.22,.15-.23,.09-.54-.13-.69l-11.15-7.52Z" stroke-width="0"/></g></g></g><g id="uuid-a2076d19-820a-45d5-8bfb-376a5405e50a"></g></svg>