<?xml version="1.0" encoding="UTF-8"?><svg width="70" height="70" xmlns="http://www.w3.org/2000/svg" viewBox="-10 -10 70 70"><rect x="-10" y="-10" width="70" height="70" fill="white"/><g id="uuid-d04ab6c9-12c8-4902-bdd1-a3e563cdc75f"><path d="M20.03,6c0,.08-.03.19-.1.24-.07.06-.15.11-.23.09-.21-.03-.38-.04-.54-.04-1.96,0-3.55,1.59-3.55,3.55,0,.92.35,1.79.99,2.45.07.07.09.17.07.27s-.09.17-.18.21c-1.38.54-2.27,1.84-2.27,3.31,0,1.64,1.12,3.06,2.71,3.45.1.02.18.1.21.19.03.1,0,.21-.06.28-.58.65-.89,1.49-.89,2.35,0,1.9,1.49,3.45,3.38,3.55.11,0,.21.07.25.17.67,1.48,2.15,2.43,3.77,2.43.5,0,.99-.09,1.46-.27V2.77c-.46-.21-.95-.32-1.46-.32-1.96,0-3.55,1.59-3.55,3.55h0Z" fill="#ffcd00" stroke-width="0"/><path d="M35.95,12.76c-.09-.03-.16-.12-.18-.21s0-.19.07-.27c.64-.67.99-1.54.99-2.46,0-1.97-1.6-3.56-3.56-3.56-.17,0-.34.02-.54.04-.08.02-.17-.01-.23-.07-.07-.06-.1-.14-.1-.22,0-2.02-1.59-3.61-3.56-3.61-.51,0-1,.11-1.46.32v25.53c.47.18.96.27,1.46.27,1.62,0,3.1-.96,3.77-2.43.04-.1.14-.17.25-.17,1.9-.09,3.39-1.65,3.39-3.55,0-.87-.32-1.7-.89-2.36-.07-.08-.09-.18-.06-.28.03-.1.11-.17.21-.19,1.6-.39,2.72-1.81,2.72-3.45,0-1.48-.89-2.78-2.27-3.32h0Z" fill="#ffcd00" stroke-width="0"/><polygon points="40.46 42.95 39.74 49.35 27.89 48 28.62 41.61 28.96 41.64 29.96 41.76 34.58 42.28 37.95 42.66 40.46 42.95" fill="#ffcd00"/><polygon points="23.86 41.61 24.58 48 12.74 49.35 12.01 42.95 14.53 42.66 17.89 42.28 22.51 41.76 23.51 41.64 23.86 41.61" fill="#ffcd00"/></g><g id="uuid-b8cdc3d4-68b4-44e4-8772-2e260160ff61"><path d="M47.46,22.42c-1.33-.23-2.61.55-2.86,1.75l-1.53,7.36c-.48-.45-1.15-.71-1.87-.69l-9.74.27c-.68.02-1.27.5-1.42,1.17-.16.75-.44,1.98-.74,3.35-.31,1.38-.64,2.9-.94,4.22l-.95-.1c-.28-.04-.52.16-.55.44l-.84,7.39c-.02.13.02.26.11.36.08.11.2.17.33.19l12.84,1.46h.06c.25,0,.46-.19.49-.44l.84-7.39c.02-.14-.02-.27-.1-.37-.06-.08-.14-.12-.23-.15,1.67-.32,3.15-.61,4.28-.83.99-.19,1.76-.95,1.97-1.94l2.81-13.42c.12-.55,0-1.12-.32-1.6-.37-.53-.96-.91-1.64-1.03ZM38.92,48.54l-11.85-1.35.73-6.39.34.03,1,.12,4.62.52,3.37.38,2.51.29-.72,6.4ZM45.63,38.27c-.13.59-.59,1.04-1.18,1.16-1.78.35-4.44.86-7.36,1.41l-7.73-.87c.59-2.64,1.33-5.99,1.66-7.47.05-.22.24-.38.47-.39l9.74-.27c.8-.04,1.49.51,1.53,1.22-.01.15-.05.4-.26.64-.24.27-.55.39-.64.42l-6.79.7c-.28.03-.48.28-.45.55.03.26.25.45.5.45h.05l6.87-.72c.28-.07.81-.27,1.22-.75.39-.45.48-.93.49-1.23l1.83-8.74c.14-.68.91-1.12,1.7-.97.42.07.78.29.99.6.17.26.23.56.18.84l-2.82,13.42Z" stroke-width="0"/><path d="M32.38,26.51c2.26-.26,3.98-2.16,3.98-4.46,0-.84-.24-1.67-.69-2.38,1.64-.69,2.73-2.3,2.73-4.13,0-1.63-.87-3.1-2.25-3.89.53-.75.82-1.65.82-2.58,0-2.48-2.02-4.49-4.49-4.49h-.14c-.25-2.24-2.15-3.99-4.46-3.99-.72,0-1.41.17-2.05.5-.16.08-.27.25-.27.44v26.82c0,.2.12.38.3.46.64.28,1.32.42,2.02.42,1.89,0,3.63-1.06,4.5-2.72ZM26.56,19.72c.23-.05.54-.08.89.05.78.29.98,1.12.99,1.16.06.23.26.38.49.38.04,0,.08,0,.12-.01.26-.07.43-.34.37-.6-.04-.15-.37-1.4-1.63-1.87-.45-.17-.88-.17-1.23-.12v-4.14c.12-.44.46-.79.9-.9.65-.15,1.14.31,1.16.33.2.19.51.19.71-.01.19-.19.19-.51,0-.7-.33-.33-1.14-.82-2.1-.59-.24.06-.45.17-.66.3V1.85c.42-.17.86-.26,1.32-.26,1.81,0,3.29,1.4,3.45,3.21-.43.19-.94.51-1.39,1.04-.23.28-.4.61-.55.94-.03-.01-.06-.03-.09-.04-.63-.21-1.19-.07-1.4,0-.27.08-.41.36-.33.62.09.27.37.41.63.33.09-.03.43-.12.78,0,.38.12.49.38.5.41.08.19.27.31.47.31.06,0,.12-.01.19-.04.25-.1.37-.39.27-.65-.03-.06-.09-.19-.19-.32.11-.33.27-.65.49-.92.42-.49.91-.74,1.27-.86.16-.02.33-.04.5-.04,1.92,0,3.49,1.57,3.49,3.49,0,.9-.35,1.75-.97,2.4-.23.22-.71.57-1.39.64-.4.04-.74-.03-.99-.12-.1-.33-.26-.58-.37-.72-.18-.21-.49-.24-.71-.07-.21.18-.24.49-.06.7.07.09.23.32.22.63,0,.25-.11.43-.17.52-.16.23-.11.54.12.7.09.06.19.09.29.09.15,0,.31-.07.41-.21.12-.18.21-.39.27-.6.23.05.49.09.77.09.1,0,.2,0,.31-.01.78-.08,1.36-.41,1.73-.69,1.2.58,1.97,1.77,1.97,3.12,0,1.61-1.09,3-2.65,3.38-.37.07-.92.1-1.52-.13-.82-.32-1.25-.94-1.44-1.27.06-.48-.05-1-.37-1.43-.16-.22-.48-.26-.7-.1-.22.16-.27.48-.1.7.24.33.27.75.08,1.03-.17.26-.47.33-.56.34-.28.05-.46.3-.42.57.04.25.25.43.49.43.03,0,.06-.01.08-.01.2-.03.63-.15,1-.5.33.42.84.88,1.58,1.17.49.19.96.25,1.36.25.14,0,.28-.01.4-.02.46.61.73,1.34.73,2.1,0,1.66-1.16,3.05-2.72,3.4,0-.36-.05-.78-.25-1.22-.33-.74-.99-1.29-1.79-1.54.06-.19.01-.41-.15-.54-.22-.18-.53-.15-.71.06-.1.13-.28.3-.55.41-.31.13-.6.11-.78.08-.28-.06-.53.12-.59.39-.05.28.13.54.4.59.13.02.28.04.45.04.26,0,.57-.04.89-.17.02,0,.05-.03.07-.04.02,0,.04.02.07.02.8.04,1.49.47,1.79,1.12.22.48.16.95.1,1.21-.68,1.44-2.13,2.37-3.71,2.37-.45,0-.89-.08-1.32-.22v-8.29Z" stroke-width="0"/><path d="M24.97,1.09c-.64-.33-1.33-.5-2.05-.5-2.29,0-4.19,1.73-4.45,3.99h-.15c-2.47,0-4.49,2.01-4.49,4.49,0,.93.29,1.83.82,2.58-1.38.79-2.25,2.26-2.25,3.89,0,1.83,1.09,3.44,2.73,4.13-.45.71-.69,1.54-.69,2.38,0,2.3,1.72,4.2,3.98,4.46.87,1.66,2.61,2.72,4.5,2.72.7,0,1.38-.14,2.02-.42.18-.08.3-.26.3-.46V1.53c0-.19-.11-.36-.27-.44ZM24.24,12.86c-.29-.1-.62-.17-1.01-.2-.14-.3-.27-.59-.37-.9-.14-.46-.23-.94-.28-1.42-.03-.27-.28-.48-.55-.45-.27.03-.47.28-.45.55.06.55.17,1.09.33,1.61.07.23.15.46.24.68-.69.15-1.23.43-1.57.68-.22.16-.27.47-.11.7.1.13.25.21.4.21.11,0,.21-.03.3-.1.3-.22.8-.49,1.47-.56.68-.07,1.23.1,1.6.26v7.01c-.18-.07-.36-.18-.5-.37-.34-.45-.32-1.14.06-1.67.16-.23.11-.54-.12-.7-.23-.16-.54-.11-.7.12-.63.89-.65,2.04-.04,2.85.38.52.91.74,1.3.83v6.02c-.43.14-.87.22-1.32.22-1.58,0-3.03-.93-3.71-2.37-.06-.26-.12-.73.11-1.21.27-.61.9-1.01,1.64-1.1.39.54.96.69,1.2.73h.08c.24,0,.45-.17.49-.42.05-.27-.14-.53-.41-.57-.09-.01-.4-.08-.57-.34-.19-.29-.16-.7.09-1.03.16-.23.11-.54-.11-.7-.22-.17-.53-.12-.7.1-.29.39-.4.84-.38,1.28-1,.18-1.85.76-2.24,1.63-.2.44-.25.86-.25,1.22-1.56-.35-2.72-1.74-2.72-3.4,0-.76.27-1.49.73-2.1.12.01.26.02.4.02.4,0,.87-.06,1.36-.25.83-.32,1.37-.87,1.69-1.32.15.1.3.19.46.26.32.13.63.17.89.17.17,0,.32-.02.45-.04.27-.05.45-.32.4-.59-.05-.27-.31-.44-.59-.4-.18.04-.46.06-.77-.07-.27-.11-.46-.28-.56-.41-.02-.02-.05-.04-.07-.06-.03-.02-.05-.05-.09-.06-.02-.01-.04-.01-.06-.02-.04-.02-.08-.03-.12-.04-.04,0-.08.01-.12.02h-.07s-.1.05-.15.08c-.01.01-.02.01-.02.02-.03.02-.05.05-.07.08-.02.03-.05.05-.06.07h0c-.15.3-.6,1.03-1.5,1.38-.6.23-1.16.2-1.52.13-1.56-.38-2.65-1.77-2.65-3.38,0-1.35.77-2.54,1.97-3.12.37.28.95.61,1.73.68.11,0,.21.02.31.02.6,0,1.09-.16,1.41-.31.25-.12.36-.41.24-.66-.11-.25-.41-.36-.66-.25-.27.12-.69.26-1.21.21-.68-.07-1.16-.42-1.39-.64-.62-.65-.97-1.5-.97-2.4,0-1.92,1.57-3.49,3.49-3.49.17,0,.34.02.5.04.36.12.85.37,1.27.86.18.22.31.47.42.74-.56.4-.81.96-.87,1.16-.08.26.06.54.33.63.05.01.1.02.15.02.21,0,.41-.14.47-.35.04-.09.21-.58.73-.8.45-.18.86-.04.97,0,.26.11.55-.01.66-.27.1-.25-.02-.54-.27-.65-.21-.09-.68-.23-1.25-.13-.15-.36-.33-.7-.58-.99-.44-.53-.96-.85-1.39-1.04.15-1.79,1.63-3.21,3.46-3.21.46,0,.9.09,1.32.26v11.01Z" stroke-width="0"/><path d="M23.42,39.75l-.95.1c-.59-2.65-1.35-6.07-1.68-7.57-.15-.67-.73-1.15-1.42-1.17l-9.74-.27c-.72-.02-1.39.24-1.86.7l-1.54-7.37c-.25-1.2-1.53-1.98-2.85-1.75-.68.12-1.28.5-1.65,1.03-.32.48-.44,1.05-.32,1.6l2.82,13.42c.2.99.98,1.75,1.96,1.94.97.19,2.48.48,4.28.83-.08.03-.16.07-.22.15-.09.1-.12.23-.11.37l.84,7.39c.03.25.25.44.5.44h.05l12.84-1.46c.13-.02.26-.08.34-.19.08-.1.12-.23.1-.36l-.84-7.39c-.03-.28-.27-.48-.55-.44ZM6.38,39.43c-.59-.12-1.05-.57-1.17-1.16l-2.82-13.42c-.06-.28,0-.58.17-.84.22-.31.58-.53.99-.6.1-.02.2-.03.3-.03.68,0,1.28.41,1.4,1l1.83,8.74c.01.3.1.77.5,1.23.41.48.93.67,1.29.76l6.79.71h.05c.26,0,.47-.19.5-.45.03-.27-.17-.52-.45-.55l-6.72-.69c-.16-.04-.47-.16-.71-.43-.22-.26-.26-.53-.26-.68.05-.68.71-1.23,1.54-1.18l9.73.27c.23.01.43.17.47.39.33,1.48,1.07,4.83,1.66,7.47l-7.73.87c-3.12-.59-5.87-1.12-7.36-1.41ZM11.92,48.54l-.73-6.4,2.52-.29,3.36-.38,4.62-.52,1-.12.35-.03.72,6.39-11.84,1.35Z" stroke-width="0"/></g></svg>