<?xml version="1.0" encoding="UTF-8"?><svg width="70" height="70" id="uuid-3e517edb-1d8f-41c6-9402-cc75df7a6a55" xmlns="http://www.w3.org/2000/svg" viewBox="-10 -10 70 70"><rect x="-10" y="-10" width="70" height="70" fill="white"/><path d="M48.73,35.99s0-.07,.01-.11l-.03-9.41c-1.54-.32-3.11-.58-4.67-.77-3.39-.43-3.75-.61-3.87-.81l-11.88-13.82-8.04,10.48c-.07,.17-.16,.26-.64,.19v.03s-.07-.03-.09-.04c-.82-.14-2.64-.66-6.84-1.89l-2.46,2.79v1.43l-2.09,1.37v-.44l-4.71,5.34-.04,10.79,11.6,.86s.07,0,.1,0c.03,0,.06-.02,.08-.02,.06,0,.12,0,.18,0l6.5-.9c.1-.01,.21,0,.3,.05l6.06,1.63,4.38-.04c.7,0,1.38,0,2.07,0,.04-.01,.08-.02,.12-.02l9.64-.09s.06,0,.09,0l4.23-.04v-6.54ZM11.23,21.78l3.91,.9v1.84l-3.93-.63,.02-2.11Zm-.05,5.94l3.97,.42v1.76l-3.98-.22,.02-1.95Zm-3.04,1.41l2.04-1.12-.02,1.79-2.02,.77v-1.44Zm0,10.71v-2.91l2.11-.1v3.17l-2.11-.16Zm5.35-5.97s-.03,0-.04,0l-2.75,.34c-.25,.03-.44,.24-.44,.5v1.11l-3.39,.16,1.07-3.54,11.72,.33v1.43l-6.12-.34s-.03,0-.05,0Zm.52,6.27v-5.25l5.64,.31v.64s0,.07,.01,.1v3.42l-5.65,.78Zm5.66-10l-3.52-.19v-1.71l3.52,.37v1.53Zm0-4.9l-3.52-.56v-1.77l3.52,.81v1.52Zm1.05-3.65l2.14-2.93v7.28l-2.16,1.49v-5.36l.02-.47Zm2.14,8.02v3.63l-2.16,.33v-2.61s0-.03,0-.04h0l2.15-1.32Zm3.17,11.24l-5.32-1.43v-4.83l5.32-.82v7.09Zm0-8.1l-2.17,.33v-3.99s-.01-.06-.02-.09l2.19-1.33v5.07Zm0-9h-.01l-2.15,1.49v-7.97l2.17-2.98v9.46Zm3.14,3.94l3.32-1.58,.02,6.23-3.36,.31,.02-4.96Zm1.64,13.23c-.57,0-1.14,0-1.7,.02l.03-7.28,3.37-.31,.02,7.56-1.72,.02Zm1.9-18.41l-2.6,1.4v-6.68l4.98,5.21c-.72,0-1.44,0-2.15,.01-.08,0-.16,.02-.23,.06Zm7.76,12.13v6.18l-6.93,.07-.02-7.6c1.15-.03,2.3-.05,3.45-.04,1.17,.01,2.35,.06,3.51,.12v1.27Zm0-6.95v4.68c-1.16-.06-2.33-.11-3.49-.12-1.15-.01-2.31,0-3.47,.04l-.02-6.43c1.16-.04,2.32-.06,3.47-.03,3.08,.06,6.18,.37,9.23,.89l-5.27,.48c-.26,.02-.46,.24-.46,.5Zm1,.46l5.5-.5v4.16l-5.5,.51v-4.17Zm1.81,12.65v-5.8l3.71-.24v6l-3.71,.04Z" fill="#ffcd00" stroke-width="0"/><path d="M47.98,34.3s.01-.04,.01-.07l-.03-7.11h0v-2.81c0-.24-.17-.44-.4-.49-1.7-.36-3.43-.65-5.15-.87-1.04-.13-2.09-.23-3.15-.31-.02-.04-.02-.08-.05-.11l-12.32-14.34c-.1-.11-.24-.19-.39-.17-.15,0-.29,.08-.38,.2l-8.31,10.83-6.74-1.97-.17-.05h0c-.08-.02-.15-.03-.23-.01h0s-.01,.01-.02,.01c-.03,0-.05,.02-.07,.03-.04,.02-.08,.02-.11,.05h0s-.02,.03-.04,.05c-.01,.01-.03,.01-.04,.02L.8,28.05c-.08,.09-.12,.21-.12,.33l-.04,11.44c0,.26,.2,.48,.46,.5l12.11,.9h.04s.04,0,.07,0h.13s.03,0,.04,0h.03s.05,0,.07,0l6.53-.91,6.16,1.66s.09,.02,.13,.02h0l2.2-.02h0c.74-.01,1.48-.02,2.23-.02,.73,0,1.46,0,2.19,0h0s.06-.01,.09-.02l8.76-.09h.89s.03,0,.05,0l4.68-.05c.27,0,.5-.23,.5-.5v-6.97Zm-1,6.47l-3.72,.04v-5.8l3.71-.24v6Zm-4.71,.05h-.81v-5.69l.81-.05v5.74Zm-8.74,.09l-.02-7.6c1.15-.03,2.3-.05,3.45-.04,1.17,.01,2.35,.06,3.51,.12v7.45l-6.93,.07Zm-2.72,.03c-.57,0-1.14,0-1.7,.02l.03-7.28,3.37-.31,.02,7.56-1.72,.02Zm-3.79,.04v-7.3l1.12,.03-.03,7.26h-1.08Zm-7.35-20.34v2.07l-8.42-1.94v-2.58l8.42,2.45Zm17.27,5.21c3.08,.06,6.18,.37,9.23,.89l-5.27,.48c-.26,.02-.46,.24-.46,.5v4.68c-1.16-.06-2.33-.11-3.49-.12-1.15-.01-2.31,0-3.47,.04l-.02-6.43c1.16-.04,2.32-.06,3.47-.03Zm10.02,5.99l-5.51,.51v-4.17l5.5-.5v4.16Zm-17.79-5.23v-1.03l3.3-1.77v1.22l-3.3,1.58Zm-8.47,3.17v-1.1l5.32-3.51v1.37l-5.32,3.24Zm-1.04,.38l-3.52-.19v-1.71l3.52,.37v1.53Zm-4.52-.25l-3.98-.22,.02-1.95,3.97,.42v1.76Zm4.52-2.29l-8.49-.89,.03-1.81,8.47,1.35v1.35Zm0-2.36l-3.52-.56v-1.77l3.52,.81v1.52Zm-9.49,2.76l-.02,1.79-2.02,.77v-1.44l2.04-1.12Zm-.04,2.87v.63l-1.54-.04,1.54-.58Zm1-.2l8.52,.47v.62l-8.53-.24v-.86Zm15.89-5.49l1.15,.43v1.15l-1.15-.34v-1.25Zm-11.88-.66l-3.93-.63,.02-2.11,3.91,.9v1.84Zm-4.97,2.34l-2.03,1.12v-1.37l2.06-1.36-.02,1.61Zm10.53,4.11s0-.03,0-.04h0l2.15-1.32v3.63l-2.16,.33v-2.61Zm3.14-1.95l2.19-1.33v5.07l-2.17,.33v-3.99s-.01-.06-.02-.09Zm3.19-1.55l1.14,.34-.02,4.9-1.12-.03v-5.21Zm2.14,.23l3.32-1.58,.02,6.23-3.36,.31,.02-4.96Zm-18.96-3.66l-2.07,1.37v-1.28l2.09-1.84-.02,1.75Zm9.45,8.72v1.43l-6.12-.34s-.03,0-.05,0c-.02,0-.03,0-.04,0l-2.75,.34c-.25,.03-.44,.24-.44,.5v1.11l-3.39,.16,1.07-3.54,11.72,.33Zm-8.41,2.38l1.75-.22v.26l-.02,4.99-1.73-.14v-4.89Zm2.75-.26l5.64,.31v.64s0,.07,.01,.1v3.42l-5.65,.78v-5.25Zm6.69-.29l5.32-.82v7.09l-5.32-1.43v-4.83Zm20.76-.47v-.78l5.51-.51v.94l-5.51,.36Zm-4.49-9.29c-1.16-.02-2.33,0-3.49,.03v-1.41c2.94-.04,5.9,.11,8.81,.48,1.56,.2,3.13,.46,4.67,.78v1.13c-3.3-.6-6.65-.94-9.99-1.01Zm-4.04-2.38c-.08,0-.16,.02-.23,.06l-2.6,1.4v-6.68l4.98,5.21c-.72,0-1.44,0-2.15,.01Zm-3.83,2l-.47,.25-1.62-.61V14.02l2.08,2.18v8.27Zm-3.08-.7h-.01l-2.15,1.49v-7.97l2.17-2.98v9.46Zm-3.17,2.18l-2.16,1.49v-5.36l.02-.47,2.14-2.93v7.28Zm-12.62-5l-2.1,1.85v-1.56l2.12-2.4-.02,2.11Zm.01,15.87v3.17l-2.11-.16v-2.91l2.11-.1Zm26.25-14.33l-9.48-9.91v-2.71l10.89,12.68c-.47-.03-.94-.04-1.41-.05Zm-17.65-3.15l7.17-9.35v2.63l-5.4,7.42s-.02-.01-.03-.02c0-.02,0-.04-.02-.05-.06-.08-.15-.15-.26-.18l-1.4-.41-.07-.03ZM1.68,28.57l5.46-6.19v9.34s-.04,.04-.05,.07l-1.39,4.58c-.05,.16-.02,.32,.08,.45,.09,.12,.24,.19,.39,.19h.02l.94-.05v2.79l-5.5-.41,.04-10.79Z" stroke-width="0"/></svg>