<?xml version="1.0" encoding="UTF-8"?><svg width="70" height="70" xmlns="http://www.w3.org/2000/svg" viewBox="-10 -10 70 70"><rect x="-10" y="-10" width="70" height="70" fill="white"/><g id="uuid-b9a063d5-cf08-4fff-a7b2-45167d6e2caa"><g><g><rect x="16.22" y="3.11" width="20.55" height="32.02" rx="8.9" ry="8.9" fill="#ffcd00"/><polygon points="22.89 45.93 14.79 45.93 14.79 49.39 38.21 49.39 38.21 45.93 30.11 45.93 22.89 45.93" fill="#ffcd00"/></g><g><path d="M23.62,34.63h2.76c5.46,0,9.9-4.44,9.9-9.9V10.51c0-5.46-4.44-9.9-9.9-9.9h-2.76c-5.46,0-9.9,4.44-9.9,9.9v14.23c0,5.46,4.44,9.9,9.9,9.9ZM14.72,10.51c0-4.91,3.99-8.9,8.9-8.9h2.76c4.91,0,8.9,3.99,8.9,8.9v14.23c0,4.91-3.99,8.9-8.9,8.9h-2.76c-4.91,0-8.9-3.99-8.9-8.9V10.51Z" stroke-width="0"/><path d="M37.21,43.43h-8.1v-4.08c6.95-1.01,12.31-6.99,12.31-14.22,0-.28-.22-.5-.5-.5s-.5,.22-.5,.5c0,7.38-6,13.38-13.38,13.38h-4.08c-7.38,0-13.38-6-13.38-13.38,0-.28-.22-.5-.5-.5s-.5,.22-.5,.5c0,7.23,5.36,13.21,12.31,14.22v4.08H12.79c-.28,0-.5,.22-.5,.5v4.46c0,.28,.22,.5,.5,.5h24.42c.28,0,.5-.22,.5-.5v-4.46c0-.28-.22-.5-.5-.5Zm-15.32-3.91h6.22v3.91h-6.22v-3.91Zm14.82,8.37H13.29v-3.46h23.42v3.46Z" stroke-width="0"/><path d="M19.64,9.89h10.72c.28,0,.5-.22,.5-.5s-.22-.5-.5-.5h-10.72c-.28,0-.5,.22-.5,.5s.22,.5,.5,.5Z" stroke-width="0"/><path d="M19.64,18.28h10.72c.28,0,.5-.22,.5-.5s-.22-.5-.5-.5h-10.72c-.28,0-.5,.22-.5,.5s.22,.5,.5,.5Z" stroke-width="0"/><path d="M19.64,26.67h10.72c.28,0,.5-.22,.5-.5s-.22-.5-.5-.5h-10.72c-.28,0-.5,.22-.5,.5s.22,.5,.5,.5Z" stroke-width="0"/></g></g></g><g id="uuid-a6dd4bad-7607-4b91-ba4c-c061b5988717"></g></svg>