<?xml version="1.0" encoding="UTF-8"?><svg width="70" height="70" id="uuid-dbf4cb95-8791-4a71-a0e7-788eafdd5da1" xmlns="http://www.w3.org/2000/svg" viewBox="-10 -10 70 70"><rect x="-10" y="-10" width="70" height="70" fill="white"/><path d="M32.66,13.02L12.67,34.98l.9,.9c.2,.2,.2,.51,0,.71l-2.95,2.95,.95,.95,2.95-2.95c.2-.2,.51-.2,.71,0l.9,.9,21.96-19.98-5.43-5.43Zm-5.3,8.13l-1.06-1.06,3.02-3.02,1.06,1.06-3.02,3.02Z" fill="#ffcd00" stroke-width="0"/><path d="M44.37,3.06c-3.23-3.23-8.48-3.23-11.7,0-1.56,1.56-2.42,3.64-2.42,5.85,0,.44,.04,.87,.11,1.3L9.78,32.82c-.18,.2-.17,.5,.02,.69l.88,.88-2.95,2.95c-.2,.2-.2,.51,0,.71l.57,.57-3.88,3.88c-.76,.75-1.17,1.76-1.16,2.84,.01,1.05,.45,2.05,1.19,2.75,.73,.69,1.68,1.03,2.62,1.03,1.01,0,2.03-.39,2.79-1.16l11.55-11.55c.45-.5,1.1-.76,1.75-.75,.55,.02,1.05,.25,1.33,.61,.52,.65,.44,1.93-.51,2.75l-5.23,5.23c-.2,.2-.2,.51,0,.71s.51,.2,.71,0l5.2-5.21c1.25-1.06,1.53-2.94,.62-4.1-.47-.6-1.23-.96-2.09-.99-.96-.04-1.88,.36-2.51,1.06l-11.53,11.53c-1.1,1.12-2.9,1.16-4.02,.11-.55-.52-.87-1.26-.88-2.03,0-.8,.3-1.55,.87-2.12l3.88-3.88,.38,.38c.1,.1,.23,.15,.35,.15s.26-.05,.35-.15l2.95-2.95,.88,.88c.1,.1,.23,.15,.35,.15,.12,0,.24-.04,.34-.13l22.61-20.58c.43,.07,.86,.11,1.29,.11,2.12,0,4.24-.81,5.85-2.42s2.42-3.64,2.42-5.85-.86-4.29-2.42-5.85Zm-.71,.71c1.37,1.37,2.13,3.2,2.13,5.14,0,1.78-.64,3.45-1.79,4.77L33.75,3.43c1.36-1.19,3.07-1.79,4.77-1.79,1.86,0,3.73,.71,5.14,2.13ZM14.29,36.59l-3.45-3.45L30.83,11.18l5.43,5.43L14.29,36.59Zm-4.55,2.05l-.95-.95,2.6-2.6,.95,.95-2.6,2.6Zm27.37-22.6l-5.73-5.73c-.09-.46-.14-.93-.14-1.41,0-1.78,.64-3.45,1.79-4.77l10.25,10.25c-1.74,1.52-4.04,2.07-6.19,1.65Z" stroke-width="0"/><path d="M29.66,16.01c-.2-.2-.51-.2-.71,0l-3.72,3.72c-.09,.09-.15,.22-.15,.35s.05,.26,.15,.35l1.77,1.77c.09,.09,.22,.15,.35,.15s.26-.05,.35-.15l3.72-3.72c.09-.09,.15-.22,.15-.35s-.05-.26-.15-.35l-1.77-1.77Zm-2.31,5.14l-1.06-1.06,3.02-3.02,1.06,1.06-3.02,3.02Z" stroke-width="0"/></svg>