<?xml version="1.0" encoding="UTF-8"?><svg width="70" height="70" xmlns="http://www.w3.org/2000/svg" viewBox="-10 -10 70 70"><rect x="-10" y="-10" width="70" height="70" fill="white"/><g id="uuid-7cbf49b1-e55c-4b0e-a0c1-aae19b7f32cd"><polygon points="37.1 23.84 37.1 34.75 25.85 39.79 25.85 28.87 37.1 23.84" fill="#ffcd00"/><polygon points="25.94 28.44 25.94 39.41 9.78 34.7 9.78 23.73 25.94 28.44" fill="#ffcd00"/></g><g id="uuid-919256bc-3e06-4118-8165-74db5d003346"><path d="M35.93,13.92l-6.74-5.45-2.71,9.68,9.45-4.23ZM36.37,21.72v-6.91l-10.16,4.56v6.91l10.16-4.56ZM36.37,33.73v-10.91l-10.16,4.55v10.92l10.16-4.56ZM36.37,42.75v-7.92l-10.16,4.55v7.93l10.16-4.56ZM25.21,39.43l-16.16-4.71v7.98l16.16,4.71v-7.98ZM9.05,33.68l16.16,4.71v-10.97l-16.16-4.71v10.97ZM9.05,21.67l16.16,4.71v-6.96l-16.16-4.71v6.96ZM16.06,4.09V1.26c0-.15.07-.3.19-.39.13-.1.29-.13.44-.09l12.36,3.34c.21.06.37.26.37.48v2.77l7.77,6.28s.09.09.12.15c.04.07.06.14.06.22v8.01h0v12.01h0v9.04c0,.19-.11.37-.29.45l-11.16,5.01c-.07.02-.14.04-.21.04-.04,0-.09,0-.13-.02l-17.17-5c-.21-.07-.36-.26-.36-.48V14.04s.01-.03.01-.05c.01-.05.02-.09.04-.14.01-.02.02-.05.03-.07.02-.02.02-.04.04-.06l7.89-9.63ZM28.3,7.96l-11.56-3.13-7.32,8.94,15.95,4.65,2.93-10.46ZM17.06,3.88l11.36,3.07v-1.97l-11.36-3.06v1.96Z" stroke-width="0"/></g></svg>