<?xml version="1.0" encoding="UTF-8"?><svg width="70" height="70" xmlns="http://www.w3.org/2000/svg" viewBox="-10 -10 70 70"><rect x="-10" y="-10" width="70" height="70" fill="white"/><g id="uuid-1b37b835-b18f-440d-8d6e-e0eb4e0578e2"><polygon points="30.43 3 30.43 5.26 30.2 5.26 22.2 5.26 21.97 5.26 21.97 3 30.43 3" fill="#ffcd00"/><circle cx="29.16" cy="33.91" r="6.51" fill="#ffcd00"/></g><g id="uuid-7110096f-ac66-4650-b532-df16a610b4ac"><path d="M28.44,26.68c-3.59,0-6.51,2.92-6.51,6.51s2.92,6.51,6.51,6.51,6.51-2.92,6.51-6.51-2.92-6.51-6.51-6.51ZM20.93,33.19c0-4.14,3.37-7.51,7.51-7.51s7.51,3.37,7.51,7.51-3.37,7.51-7.51,7.51-7.51-3.37-7.51-7.51Z" stroke-width="0"/><path d="M21.18,21.93c-.59,1.02-1.32,1.65-2.18,1.88-.18.05-.36.07-.53.07-.4,0-.77-.11-1.06-.33-.36-.28-.56-.7-.56-1.18v-6.66c0-2.05.42-2.88,1.25-3.79.63-.67,1.52-.95,2.38-.74.97.24,1.74,1.06,2.05,2.2.33,1.21.15,5.94-1.35,8.55ZM21.57,13.64c-.22-.78-.71-1.33-1.33-1.49-.11-.02-.23-.04-.34-.04-.39,0-.77.17-1.06.49-.6.65-.99,1.22-.99,3.11v6.66c0,.17.05.29.17.38.17.13.45.17.72.1.59-.16,1.12-.64,1.57-1.42,1.37-2.37,1.51-6.84,1.26-7.79Z" stroke-width="0"/><path d="M21.48,4.54h8.23v-2.26h-8.46v2.26h.23ZM20.76,8.45c-3.21.39-5.76,2.87-6.06,5.89-.02.22-.03.45-.03.68v5.86c0,1.09-.39,2.16-1.09,3.01l-.76.93c-.55.67-.85,1.51-.85,2.37v14.17c0,3.82,3.1,6.92,6.92,6.92h1.72c.49,0,.95-.22,1.26-.61l.48-.59c.24-.31.61-.48,1.01-.48s.76.17,1.01.48l.47.59c.31.39.77.61,1.27.61h5c3.82,0,6.92-3.1,6.92-6.92v-25.24c0-4.09-2.42-6.47-7.85-7.72-.71-.16-1.2-.77-1.2-1.49v-1.37h-7v1.45c0,.61-.36,1.16-.92,1.41-.04.02-.09.03-.14.03l-.16.02ZM20.25,1.78c0-.27.23-.5.5-.5h9.46c.28,0,.5.23.5.5v3.26c0,.27-.22.5-.5.5h-.23v1.37c0,.25.17.46.43.52,3.7.85,8.62,2.68,8.62,8.69v25.24c0,4.37-3.55,7.92-7.92,7.92h-5c-.8,0-1.55-.36-2.05-.98l-.47-.59c-.16-.2-.31-.19-.46,0l-.47.59c-.5.62-1.25.98-2.05.98h-1.72c-4.37,0-7.92-3.55-7.92-7.92v-14.17c0-1.09.38-2.16,1.08-3.01l.76-.93c.55-.67.86-1.51.86-2.37v-5.86c0-.26.01-.52.03-.78.35-3.48,3.27-6.33,6.94-6.78h.08c.16-.1.26-.28.26-.47v-1.45h-.23c-.27,0-.5-.23-.5-.5V1.78Z" stroke-width="0"/></g></svg>