<?xml version="1.0" encoding="utf-8"?> <!-- Generator: Adobe Illustrator 27.7.0, SVG Export Plug-In . SVG Version: 6.00 Build 0) --> <svg width="70" height="70" version="1.1" xmlns="http://www.w3.org/2000/svg" xmlns:xlink="http://www.w3.org/1999/xlink" x="0px" y="0px" viewBox="-10 -10 70 70" style="enable-background:new 0 0 50 50;" xml:space="preserve"><rect x="-10" y="-10" width="70" height="70" fill="white"/> <style type="text/css"> .st0{fill:#FFCD00;} .st1{display:none;} .st2{display:inline;fill:none;stroke:#EA008A;stroke-width:0.2;stroke-miterlimit:10;} .st3{font-family:'Roboto-Regular';} .st4{font-size:6px;} </style> <g id="Color"> <path class="st0" d="M35.6616,48.0801c-0.1465,0.0918-0.2358,0.252-0.2358,0.4248v1.3535H17.5742v-1.3535 c0-0.1729-0.0894-0.333-0.2358-0.4248c-5.756-3.5782-9.3926-10.2306-9.6268-17.4883h37.5768 C45.0543,37.8495,41.4176,44.5018,35.6616,48.0801z" stroke-width="0"/> <path class="st0" d="M38.3525,16.7197l-1.6395-0.8962c-0.0009-0.0006-0.0012-0.0016-0.0021-0.0022 c-0.0032-0.0023-0.0071-0.0024-0.0104-0.0046l-1.1171-0.6107l6.3516-11.6172c0.4175-0.7637,1.3784-1.0449,2.1411-0.6289 c0.7632,0.418,1.0449,1.3789,0.6279,2.1416L38.3525,16.7197z" stroke-width="0"/> </g> <g id="ICONS_00000031165542127692736420000002692518830807990202_"> <path d="M44.811,22.999c0-0.2764-0.2236-0.5-0.5-0.5h-8.2776c0.2852-2.005,0.6024-4.0782,0.9718-5.8862l0.1813,0.0991 c0.0762,0.042,0.1582,0.0615,0.2393,0.0615c0.1768,0,0.3481-0.0938,0.439-0.2598l1.4271-2.6102 c0.0001-0.0001,0.0001-0.0001,0.0002-0.0002c0.0001-0.0001,0.0001-0.0002,0.0001-0.0003l5.1644-9.446 c0.6812-1.2471,0.2212-2.8174-1.0259-3.499c-1.2476-0.6816-2.8169-0.2207-3.498,1.0254l-5.1637,9.4453 c-0.0002,0.0004-0.0006,0.0006-0.0009,0.001s-0.0002,0.0009-0.0004,0.0013L33.3413,14.04 c-0.064,0.1172-0.0786,0.2539-0.0415,0.3809c0.0376,0.127,0.124,0.2344,0.2402,0.2979l0.176,0.0962 c-1.723,1.6779-3.8652,3.5228-5.7927,5.1743c-1.04,0.8911-2.033,1.743-2.892,2.5098H5.689c-0.2764,0-0.5,0.2236-0.5,0.5v5.3506 c0,0.0706,0.0057,0.1401,0.0063,0.2106c-0.0007,0.011-0.0063,0.0204-0.0063,0.0316c0,0.0152,0.0073,0.0279,0.0086,0.0427 c0.0913,7.6786,3.8465,14.7768,9.8766,18.6458v1.5781c0,0.2764,0.2236,0.5,0.5,0.5h18.8516c0.2764,0,0.5-0.2236,0.5-0.5v-1.5781 c6.0302-3.869,9.7853-10.9672,9.8766-18.6458c0.0013-0.0148,0.0086-0.0275,0.0086-0.0427c0-0.0112-0.0056-0.0206-0.0063-0.0316 c0.0006-0.0704,0.0063-0.14,0.0063-0.2106V22.999z M43.811,23.499v4.5928h-8.5829c0.182-1.1377,0.364-2.4345,0.5551-3.8096 c0.0358-0.2573,0.0724-0.5203,0.1092-0.7832H43.811z M31.9064,28.0918c0.038-0.0963,0.0778-0.1887,0.1151-0.2861 c0.4558-1.1902,0.9815-2.6992,1.5375-4.3066h1.3235c-0.0302,0.2159-0.0605,0.4335-0.09,0.6455 c-0.1992,1.4325-0.3878,2.7799-0.5778,3.9473H31.9064z M26.197,28.0918c0.4169-0.7472,0.9525-1.5657,1.5989-2.4434 c0.4664-0.6341,1.032-1.3668,1.6451-2.1494h3.0596c-0.5109,1.4758-0.9932,2.8541-1.4127,3.9482 c-0.0841,0.2192-0.1719,0.4313-0.259,0.6445H26.197z M22.867,28.0918c0.0026-1.4333,0.6614-2.8387,1.8986-3.999 c0.1998-0.1876,0.4233-0.39,0.649-0.5938h2.7589c-0.4305,0.555-0.836,1.0843-1.1832,1.5557 c-0.8135,1.1051-1.4523,2.1218-1.9211,3.0371H22.867z M30.2277,22.499c0.2398-0.3035,0.4818-0.6093,0.7294-0.9219 c1.3643-1.7222,2.8706-3.6319,4.1514-5.3735c-0.767,1.9896-1.5519,4.2415-2.2618,6.2953H30.2277z M33.9053,22.499 c0.6465-1.8705,1.3476-3.873,2.0375-5.6799c-0.3484,1.7769-0.648,3.7656-0.9194,5.6799H33.9053z M40.8101,2.4639 c0.4175-0.7637,1.3784-1.0449,2.1411-0.6289c0.7632,0.418,1.0449,1.3789,0.6279,2.1416l-4.9248,9.0084l-2.7689-1.5137 L40.8101,2.4639z M35.4059,12.3482l2.7689,1.5137l-0.9473,1.7328l-1.6395-0.8962c-0.0009-0.0006-0.0012-0.0016-0.0021-0.0022 c-0.0032-0.0023-0.0071-0.0024-0.0104-0.0046l-1.1171-0.6107L35.4059,12.3482z M28.5737,20.748 c1.8752-1.6063,3.9496-3.3942,5.6646-5.0488c-1.2565,1.7034-2.7294,3.5699-4.065,5.2568c-0.4198,0.5298-0.8247,1.0423-1.2186,1.543 h-2.4131C27.1783,21.9437,27.8657,21.3546,28.5737,20.748z M23.951,23.499c-1.3561,1.3292-2.0818,2.9357-2.0829,4.5928H6.189 V23.499H23.951z M34.1616,46.5801c-0.1465,0.0918-0.2358,0.252-0.2358,0.4248v1.3535H16.0742v-1.3535 c0-0.1729-0.0894-0.333-0.2358-0.4248c-5.756-3.5782-9.3926-10.2306-9.6268-17.4883h37.5768 C43.5543,36.3495,39.9176,43.0018,34.1616,46.5801z" stroke-width="0"/> </g> <g id="Margin" class="st1"> <rect x="1" y="1" class="st2" /> </g> <g id="Guides" class="st1"> </g> <g id="LABELS"> <g> <g> <g> <g> <g> <g> </g> </g> </g> </g> </g> </g> </g> </svg> 