<?xml version="1.0" encoding="UTF-8"?><svg width="70" height="70" xmlns="http://www.w3.org/2000/svg" viewBox="-10 -10 70 70"><rect x="-10" y="-10" width="70" height="70" fill="white"/><g id="uuid-2a649209-a937-4925-a402-0fb7bcb66ca1"><g><g><circle cx="20.14" cy="16.8" r="10.65" fill="#ffcd00"/><circle cx="9.54" cy="39.63" r="6.95" fill="#ffcd00"/><circle cx="42.97" cy="27.41" r="6.95" fill="#ffcd00"/></g><g><path d="M48.67,22.78c-1.63-4.07-6.27-6.06-10.33-4.43-1.1,.44-2.05,1.11-2.84,1.94l-5.66-2.43c.57-2.35,.42-4.81-.5-7.1-2.4-5.99-9.22-8.92-15.21-6.52-2.9,1.16-5.18,3.38-6.41,6.26-1.23,2.87-1.27,6.05-.11,8.96,.8,2.01,2.11,3.67,3.71,4.91l-2.5,5.84c-1.25-.12-2.53,.05-3.73,.53-1.97,.79-3.52,2.3-4.35,4.25-.84,1.95-.86,4.11-.07,6.08,1.24,3.1,4.24,5,7.39,5,.98,0,1.98-.18,2.94-.57,4.07-1.63,6.05-6.26,4.43-10.33-.4-.99-.97-1.87-1.7-2.61l2.55-5.96c.72,.14,1.46,.22,2.21,.22,1.45,0,2.91-.27,4.33-.84,1.79-.71,3.33-1.83,4.55-3.26l5.99,2.57c-.06,1.14,.11,2.3,.55,3.39,.79,1.97,2.3,3.52,4.25,4.35,1,.43,2.07,.65,3.13,.65,1,0,2-.19,2.96-.57,4.07-1.63,6.05-6.26,4.43-10.33Zm-10.12,9.34c-1.71-.73-3.03-2.08-3.72-3.81-1.42-3.56,.31-7.61,3.87-9.03,.84-.34,1.72-.5,2.57-.5,2.76,0,5.37,1.65,6.46,4.37,1.42,3.56-.31,7.61-3.87,9.04-1.73,.69-3.61,.67-5.32-.06ZM8.54,19.1c-1.06-2.65-1.03-5.56,.1-8.19,1.13-2.63,3.21-4.66,5.86-5.72,1.3-.52,2.64-.77,3.96-.77,4.25,0,8.28,2.55,9.95,6.73,1.06,2.65,1.03,5.56-.1,8.19-1.12,2.63-3.21,4.66-5.86,5.72-5.48,2.19-11.72-.48-13.91-5.96ZM1.59,40.72c-.69-1.72-.67-3.61,.06-5.32,.73-1.71,2.08-3.03,3.81-3.72,.84-.34,1.72-.5,2.57-.5,2.76,0,5.37,1.65,6.46,4.37,1.42,3.56-.31,7.61-3.87,9.04-3.56,1.42-7.61-.31-9.04-3.87Zm11.35-8.84c-.54-.42-1.12-.78-1.76-1.05-.44-.19-.89-.33-1.34-.43l2.32-5.43c.97,.62,2.03,1.1,3.13,1.41l-2.36,5.5Zm15.06-9.96c.48-.68,.9-1.4,1.23-2.18,.13-.29,.23-.59,.33-.89l5.28,2.26c-.33,.47-.62,.97-.85,1.5-.23,.54-.39,1.09-.5,1.65l-5.49-2.35Z" stroke-width="0"/><path d="M11.68,12.16c.87-1.81,2.25-2.81,3-3.25,.24-.14,.32-.45,.18-.68s-.45-.32-.68-.18c-.84,.5-2.4,1.63-3.39,3.68-1.03,2.14-.9,4.14-.74,5.15,.04,.24,.25,.42,.49,.42,.03,0,.05,0,.08,0,.27-.04,.46-.3,.41-.58-.15-.89-.26-2.67,.65-4.55Z" stroke-width="0"/><path d="M3.78,34.79c-.57,.76-.96,1.66-1.1,2.6-.13,.82-.08,1.64,.14,2.45,.06,.22,.26,.37,.48,.37,.04,0,.09,0,.13-.02,.27-.07,.42-.35,.35-.62-.19-.67-.23-1.35-.12-2.03,.12-.77,.44-1.52,.91-2.15,.17-.22,.12-.53-.1-.7-.22-.17-.54-.12-.7,.1Z" stroke-width="0"/><path d="M36.87,24.7c.23-.97,.71-1.66,1.08-2.07,.18-.21,.16-.52-.04-.71-.21-.18-.52-.16-.71,.04-.44,.5-1.02,1.34-1.3,2.5-.19,.8-.21,1.65-.04,2.46,.05,.24,.26,.4,.49,.4,.03,0,.07,0,.1,0,.27-.05,.45-.32,.39-.59-.13-.67-.12-1.37,.04-2.03Z" stroke-width="0"/></g></g></g><g id="uuid-3514d8ff-881d-48e3-9972-cc3e07373dc9"></g></svg>