<?xml version="1.0" encoding="UTF-8"?><svg width="70" height="70" xmlns="http://www.w3.org/2000/svg" viewBox="-10 -10 70 70"><rect x="-10" y="-10" width="70" height="70" fill="white"/><g id="uuid-7cebad5e-1b33-446e-9542-930a97172524"><path d="M13.4,29.54c-3.33-2.97-6.66-5.95-10-8.92v9.45c3.35,3.05,6.69,6.1,10.04,9.15l35.66-6.51v-9.79c-11.9,2.21-23.8,4.42-35.7,6.63Z" fill="#ffcd00" stroke-width="0"/><path d="M48.59,31.68s.01-.03,.01-.05v-10.8s-.01-.06-.02-.09c0-.02,0-.04-.01-.06-.03-.08-.07-.15-.13-.2h0l-10.42-9.55c-.12-.11-.27-.15-.43-.12L1.31,17.5s-.02,.01-.03,.02c-.07,.02-.13,.05-.19,.09-.01,0-.02,.01-.03,.02-.06,.06-.1,.13-.13,.2,0,0-.01,.01-.01,.02,0,.01,0,.03,0,.04,0,.03-.02,.06-.02,.1v10.8h0c0,.05,.01,.09,.02,.13,0,.02,0,.05,.02,.07,.01,.03,.03,.05,.05,.07,.02,.03,.04,.06,.06,.09h0l10.42,9.55s.06,.04,.09,.05c.02,.01,.04,.03,.06,.04,.06,.02,.12,.04,.19,.04,.03,0,.06,0,.09,0l36.28-6.71s.03-.01,.05-.02c.03-.01,.07-.02,.1-.04,.03-.01,.05-.03,.08-.05,.03-.02,.05-.04,.07-.07,.02-.02,.04-.05,.05-.08,.02-.03,.03-.06,.04-.09,.01-.03,.02-.06,.02-.1ZM1.9,22.87l9.42,8.62v2.12L1.9,25v-2.12Zm10.42,8.67l35.28-6.52v2.63l-35.28,6.52v-2.63Zm35.28-7.54L12.32,30.53v-2.59l35.28-6.52v2.59Zm-35.63,2.98L2.48,18.3l35.05-6.48,9.49,8.69L11.97,26.99Zm-.65,.76v2.39L1.9,21.52v-2.39l9.42,8.62Zm-9.42-1.39l9.42,8.62v2.22L1.9,28.57v-2.22Zm10.42,8.84l35.28-6.52v2.54l-35.28,6.52v-2.54Z" stroke-width="0"/><path d="M34.13,13.4l-12.89,2.38h0l-12.89,2.38c-.19,.03-.34,.17-.39,.35-.05,.18,0,.38,.14,.51,.25,.23,.37,.45,.32,.61-.05,.18-.35,.43-1.01,.56-.19,.03-.34,.17-.39,.35-.05,.18,0,.38,.14,.51l3.47,3.18c.12,.11,.27,.15,.43,.12,1.29-.24,3.07,.19,3.88,.94,.09,.08,.21,.13,.34,.13,.03,0,.06,0,.09,0l25.87-4.78c.19-.03,.34-.17,.39-.35,.05-.18,0-.38-.14-.51-.25-.23-.37-.45-.32-.61,.05-.17,.32-.41,.94-.54,.18-.04,.33-.18,.38-.36,.05-.18,0-.38-.14-.5l-3.47-3.18c-.12-.11-.28-.15-.43-.12-1.29,.24-3.07-.19-3.88-.94-.12-.11-.27-.15-.43-.12Zm4.24,2.08l2.68,2.45c-.45,.23-.74,.56-.85,.96-.05,.2-.09,.52,.08,.89l-8.98,1.66c.16-.22,.28-.45,.35-.69,.26-.9-.12-1.88-1.06-2.74-1.08-.99-2.76-1.72-4.58-2.1l8.07-1.49c1.04,.81,2.82,1.24,4.29,1.06Zm-27.25,7.85l-2.66-2.43c.48-.23,.79-.57,.91-.98,.06-.2,.09-.53-.07-.91l8.9-1.64c-.16,.22-.28,.45-.35,.69-.26,.9,.12,1.88,1.06,2.74,1.08,.99,2.75,1.72,4.57,2.11l-8.07,1.49c-.87-.68-2.28-1.1-3.58-1.1-.24,0-.48,.01-.71,.04Zm10.29-6.57c.57-.1,1.17-.16,1.79-.16,2.52,0,5.26,.84,6.7,2.15,.65,.59,.92,1.21,.78,1.73-.21,.71-1.18,1.3-2.6,1.56-2.9,.53-6.71-.36-8.49-2-.65-.59-.92-1.21-.78-1.73,.21-.71,1.18-1.3,2.6-1.56Z" stroke-width="0"/><path d="M15.39,20.82c-.27-.25-.76-.38-1.17-.3-.33,.06-.56,.25-.64,.51-.07,.24,.01,.5,.22,.69,.22,.2,.58,.32,.93,.32,.08,0,.17,0,.25-.02,.33-.06,.56-.25,.64-.51,.07-.24-.01-.5-.22-.69Z" stroke-width="0"/><path d="M34.11,17.98c.22,.2,.58,.32,.93,.32,.08,0,.17,0,.25-.02,.33-.06,.56-.25,.64-.51,.07-.24-.01-.5-.22-.69-.27-.25-.77-.37-1.17-.3-.33,.06-.56,.25-.64,.51-.07,.24,.01,.5,.22,.69Z" stroke-width="0"/><path d="M27.45,19.59c-.18-.16-.4-.29-.65-.39-.24-.09-.54-.16-.86-.19-.33-.04-.72-.05-1.22-.04-.45,.01-.81,0-1.04-.05-.21-.04-.36-.1-.44-.18-.03-.03-.04-.04-.05-.05,.04-.03,.14-.1,.45-.15,.31-.06,.59-.06,.85,0,.25,.05,.45,.15,.6,.28,.06,.05,.14,.08,.21,.06l.65-.12c.09-.02,.17-.09,.2-.18,.03-.09,0-.19-.07-.25-.19-.18-.45-.32-.76-.44-.31-.11-.65-.18-1.01-.21-.23-.02-.46,0-.69,.01-.02-.02-.03-.05-.05-.07l-.36-.33c-.2-.19-.52-.17-.71,.03-.17,.19-.17,.46-.01,.65-.16,.08-.29,.18-.38,.3-.11,.15-.31,.53,.16,.96,.24,.22,.59,.38,1.02,.48,.41,.09,.96,.13,1.62,.12,.5,0,.87,0,1.1,.05,.2,.04,.36,.11,.47,.21,.02,.02,.03,.03,.04,.04-.04,.03-.16,.1-.49,.16-.33,.06-.65,.07-.94,.02-.27-.05-.49-.14-.63-.27-.06-.05-.13-.08-.21-.06l-.64,.12c-.09,.02-.17,.09-.19,.18-.03,.09,0,.19,.07,.25,.2,.18,.47,.33,.8,.44,.32,.1,.67,.17,1.06,.19,.09,0,.18,0,.27,0,.1,0,.2-.02,.3-.03,.01,.02,.02,.03,.04,.05l.36,.33c.1,.09,.22,.13,.34,.13,.14,0,.27-.05,.37-.16,.15-.16,.16-.39,.07-.57,.23-.09,.41-.2,.53-.34,.12-.14,.34-.52-.15-.97Z" stroke-width="0"/></g><g id="uuid-3765b1c4-ad29-4a99-a198-76d0c94c8c5c"></g></svg>