<?xml version="1.0" encoding="UTF-8"?><svg width="70" height="70" xmlns="http://www.w3.org/2000/svg" viewBox="-10 -10 70 70"><rect x="-10" y="-10" width="70" height="70" fill="white"/><g id="uuid-45624efc-961f-4ae7-b786-c3f7447489c8"><g><path d="M14.07,16c0-3.23,.65-6.37,1.93-9.33-7.06,4.03-11.39,11.42-11.39,19.61,0,12.47,10.15,22.62,22.62,22.62,8.04,0,15.36-4.21,19.43-11.07-2.87,1.19-5.88,1.79-8.98,1.79-13.02,0-23.62-10.6-23.62-23.62Z" fill="#ffcd00" stroke-width="0"/><path d="M33.3,24.75c-.07,.15-.21,.25-.38,.27l-2.14,.31,1.55,1.51c.12,.12,.17,.28,.14,.44l-.37,2.13,1.92-1.01c.15-.08,.32-.08,.47,0l1.91,1.01-.37-2.13c-.03-.16,.03-.33,.14-.44l1.55-1.51-2.14-.31c-.16-.02-.3-.13-.38-.27l-.96-1.94-.96,1.94Z" fill="#ffcd00" stroke-width="0"/><path d="M26.37,9.96l-.49,2.84,2.55-1.34c.15-.08,.32-.08,.47,0l2.55,1.34-.49-2.84c-.03-.16,.03-.33,.14-.44l2.07-2.01-2.85-.41c-.16-.02-.3-.13-.38-.27l-1.28-2.59-1.28,2.59c-.07,.15-.21,.25-.38,.27l-2.85,.41,2.06,2.01c.12,.12,.17,.28,.14,.44Z" fill="#ffcd00" stroke-width="0"/><path d="M45.59,14.1l-.82-1.66-.82,1.66c-.07,.15-.21,.25-.38,.27l-1.84,.27,1.33,1.29c.12,.12,.17,.28,.14,.44l-.31,1.83,1.64-.86c.07-.04,.15-.06,.23-.06s.16,.02,.23,.06l1.64,.86-.31-1.83c-.03-.16,.03-.33,.14-.44l1.33-1.29-1.84-.27c-.16-.02-.3-.13-.38-.27Z" fill="#ffcd00" stroke-width="0"/><path d="M46.11,34.8c-3.14,1.54-6.48,2.32-9.92,2.32-12.47,0-22.62-10.15-22.62-22.62,0-3.58,.83-7.03,2.47-10.25,.1-.19,.06-.42-.09-.58s-.38-.19-.58-.1C7.2,7.59,2.12,15.71,2.12,24.78c0,13.02,10.6,23.62,23.62,23.62,8.92,0,16.98-4.95,21.04-12.92,.1-.19,.06-.42-.09-.58-.15-.15-.38-.19-.58-.1Zm-20.37,12.6c-12.47,0-22.62-10.15-22.62-22.62,0-8.19,4.33-15.58,11.39-19.61-1.28,2.96-1.93,6.09-1.93,9.33,0,13.02,10.6,23.62,23.62,23.62,3.1,0,6.11-.6,8.98-1.79-4.07,6.87-11.39,11.07-19.43,11.07Z" stroke-width="0"/><path d="M23.84,8.55l-.61,3.58c-.03,.19,.04,.38,.2,.49,.09,.06,.19,.1,.29,.1,.08,0,.16-.02,.23-.06l3.22-1.69,3.22,1.69c.17,.09,.37,.08,.53-.04,.15-.11,.23-.3,.2-.49l-.61-3.58,2.6-2.54c.14-.13,.19-.33,.13-.51-.06-.18-.22-.31-.4-.34l-3.6-.52-1.61-3.26c-.08-.17-.26-.28-.45-.28s-.36,.11-.45,.28l-1.61,3.26-3.6,.52c-.19,.03-.34,.16-.4,.34-.06,.18,0,.38,.13,.51l2.6,2.54Zm1.67-2.96c.16-.02,.3-.13,.38-.27l1.28-2.59,1.28,2.59c.07,.15,.21,.25,.38,.27l2.85,.41-2.07,2.01c-.12,.12-.17,.28-.14,.44l.49,2.84-2.55-1.34c-.15-.08-.32-.08-.47,0l-2.55,1.34,.49-2.84c.03-.16-.03-.33-.14-.44l-2.06-2.01,2.85-.41Z" stroke-width="0"/><path d="M32.31,19.96l-1.29,2.61-2.88,.42c-.19,.03-.34,.16-.4,.34-.06,.18,0,.38,.13,.51l2.09,2.03-.49,2.87c-.03,.19,.04,.38,.2,.49,.16,.11,.36,.13,.53,.04l2.58-1.36,2.58,1.36c.07,.04,.15,.06,.23,.06,.1,0,.21-.03,.29-.1,.15-.11,.23-.3,.2-.49l-.49-2.87,2.09-2.03c.14-.13,.19-.33,.13-.51-.06-.18-.22-.31-.4-.34l-2.88-.42-1.29-2.61c-.17-.34-.73-.34-.9,0Zm1.78,3.57l2.14,.31-1.55,1.51c-.12,.12-.17,.28-.14,.44l.37,2.13-1.91-1.01c-.15-.08-.32-.08-.47,0l-1.92,1.01,.37-2.13c.03-.16-.03-.33-.14-.44l-1.55-1.51,2.14-.31c.16-.02,.3-.13,.38-.27l.96-1.94,.96,1.94c.07,.15,.21,.25,.38,.27Z" stroke-width="0"/><path d="M47.85,12.63c-.06-.18-.22-.31-.4-.34l-2.58-.38-1.15-2.34c-.17-.34-.73-.34-.9,0l-1.15,2.34-2.58,.38c-.19,.03-.35,.16-.4,.34s0,.38,.13,.51l1.87,1.82-.44,2.57c-.03,.19,.04,.38,.2,.49,.09,.06,.19,.1,.29,.1,.08,0,.16-.02,.23-.06l2.31-1.21,2.31,1.21c.17,.09,.37,.08,.53-.04,.15-.11,.23-.3,.2-.49l-.44-2.57,1.87-1.82c.14-.13,.19-.33,.13-.51Zm-2.88,1.8c-.12,.12-.17,.28-.14,.44l.31,1.83-1.64-.86c-.07-.04-.15-.06-.23-.06s-.16,.02-.23,.06l-1.64,.86,.31-1.83c.03-.16-.03-.33-.14-.44l-1.33-1.29,1.84-.27c.16-.02,.3-.13,.38-.27l.82-1.66,.82,1.66c.07,.15,.21,.25,.38,.27l1.84,.27-1.33,1.29Z" stroke-width="0"/></g></g><g id="uuid-53b478a6-9dc2-42f5-aea7-dd6ef46790e6"></g></svg>