<?xml version="1.0" encoding="UTF-8"?><svg width="70" height="70" xmlns="http://www.w3.org/2000/svg" viewBox="-10 -10 70 70"><rect x="-10" y="-10" width="70" height="70" fill="white"/><g id="uuid-5e922af7-1a76-4d28-bb43-7bd49d2b72c5"><path d="M30.04,25.22c1.61,.88,5.3,1.45,9.4,1.45,6.48,0,10.02-1.33,10.02-2.02s-3.54-2.01-10.02-2.01c-4.15,0-7.96,.6-9.49,1.49-.15,.09-.33,.09-.48,.01-.15-.08-.25-.23-.27-.39-.19-1.83-.66-3.41-1.31-4.35-.08-.12-.11-.26-.07-.4s.12-.25,.24-.32c.82-.46,1.33-1.33,1.33-2.27,0-1.43-1.17-2.6-2.61-2.6s-2.61,1.17-2.61,2.6c0,.94,.51,1.8,1.33,2.26,.12,.07,.21,.19,.24,.32,.03,.14,0,.28-.08,.4-.64,.92-1.12,2.48-1.31,4.27-.02,.17-.12,.32-.28,.39-.15,.08-.33,.07-.48-.02-1.5-.91-5.34-1.53-9.55-1.53-6.48,0-10.02,1.33-10.02,2.02s3.54,2.02,10.02,2.02c4.09,0,7.89-.59,9.46-1.48,.08-.04,.16-.06,.25-.06s.17,.02,.25,.07c.15,.09,.25,.25,.25,.43,0,2.19,.36,4.16,.98,5.5,.06,.13,.06,.29,0,.42-.64,1.37-1.01,3.37-1.01,5.49,0,4.02,1.34,7.03,2.53,7.03s2.52-2.89,2.52-7.03c0-2.08-.35-4.06-.97-5.43-.06-.13-.06-.28,0-.42,.62-1.33,.98-3.31,.99-5.42,0-.18,.09-.34,.25-.43,.15-.09,.34-.09,.49,0Z" fill="#ffcd00" stroke-width="0"/><path d="M37.69,25.92c5.31,0,11.02-.94,11.02-3.02s-5.71-3.01-11.02-3.01c-3.88,0-7.4,.5-9.33,1.3-.09-.6-.21-1.16-.35-1.68,.05-.05,.09-.11,.11-.17,.53-.45,1.48-1.4,3.33-3.24l3.46-3.45c.1-.1,.16-.24,.15-.39l-.33-5.21,4.37-5.6c.17-.22,.13-.53-.09-.7-.22-.17-.53-.13-.7,.09l-4.49,5.75c-.08,.1-.11,.22-.1,.34l.33,5.18c-.87,.87-5.07,5.06-6.37,6.36-.13-.34-.27-.65-.43-.93,.88-.68,1.41-1.73,1.41-2.86,0-1.78-1.3-3.25-3.01-3.54V2.22c0-.28-.22-.5-.5-.5s-.5,.22-.5,.5V11.1c-1.8,.2-3.21,1.71-3.21,3.56,0,1.12,.53,2.17,1.4,2.85-.15,.27-.29,.58-.42,.9l-6.45-6.44,.33-5.18c0-.12-.03-.24-.1-.34L11.7,.71c-.17-.22-.48-.26-.7-.09-.22,.17-.26,.48-.09,.7l4.37,5.6-.33,5.21c0,.14,.04,.28,.15,.39l3.46,3.45c1.85,1.85,2.8,2.8,3.33,3.25,.02,.08,.07,.15,.12,.21l.06-.06h.02c-.15,.54-.28,1.12-.38,1.73-1.92-.82-5.47-1.34-9.41-1.34-5.31,0-11.02,.94-11.02,3.02s5.71,3.02,11.02,3.02c3.78,0,7.25-.48,9.21-1.26,.02,.65,.09,1.27,.18,1.88-.05,.01-.09,.02-.14,.04l-9.49,5.26c-.16,.09-.26,.27-.26,.45l.22,7.08-3.6,2.12c-.24,.14-.32,.45-.18,.68,.09,.16,.26,.25,.43,.25,.09,0,.17-.02,.25-.07l3.86-2.27c.16-.09,.25-.26,.25-.45l-.22-7.07,9.05-5.02c.16,.74,.36,1.42,.61,2.01-.07,.03-.14,.06-.19,.12l-5.11,5.45c-.09,.09-.14,.22-.14,.35l.11,9.79-2.94,3.37c-.18,.21-.16,.52,.05,.71,.09,.08,.21,.12,.33,.12,.14,0,.28-.06,.38-.17l3.06-3.52c.08-.09,.12-.21,.12-.33l-.11-9.78,3.83-4.09c-.25,1.13-.4,2.39-.4,3.71,0,4.58,1.52,8.03,3.53,8.03s3.52-3.45,3.52-8.03c0-1.25-.13-2.45-.36-3.54l3.79,4.04-.11,9.78c0,.12,.04,.24,.12,.33l3.06,3.52c.1,.11,.24,.17,.38,.17,.12,0,.23-.04,.33-.12,.21-.18,.23-.5,.05-.71l-2.94-3.37,.11-9.79c0-.13-.05-.25-.14-.35l-5.11-5.45s-.09-.07-.14-.1c0-.01-.01-.03-.02-.05,.25-.58,.45-1.25,.61-1.97l9.01,5-.22,7.07c0,.18,.09,.35,.25,.45l3.86,2.27c.08,.05,.17,.07,.25,.07,.17,0,.34-.09,.43-.25,.14-.24,.06-.54-.18-.68l-3.6-2.12,.22-7.08c0-.19-.09-.36-.26-.45l-9.49-5.26s-.06-.02-.09-.03c.09-.6,.16-1.22,.19-1.88,1.97,.77,5.36,1.24,9.16,1.24Zm-10.14-2.01c0,2.11-.37,4.09-.99,5.42-.06,.13-.06,.28,0,.42,.61,1.37,.97,3.34,.97,5.43,0,4.14-1.33,7.03-2.52,7.03s-2.53-3.01-2.53-7.03c0-2.12,.37-4.12,1.01-5.49,.06-.13,.06-.29,0-.42-.62-1.34-.98-3.31-.98-5.5,0-.18-.09-.34-.25-.43-.08-.05-.17-.07-.25-.07s-.17,.02-.25,.06c-1.57,.88-5.37,1.48-9.46,1.48-6.48,0-10.02-1.33-10.02-2.02s3.54-2.02,10.02-2.02c4.21,0,8.05,.61,9.55,1.53,.15,.09,.33,.1,.48,.02,.15-.08,.26-.22,.28-.39,.2-1.79,.68-3.35,1.31-4.27,.08-.12,.11-.26,.08-.4-.03-.14-.12-.25-.24-.32-.82-.46-1.33-1.33-1.33-2.26,0-1.43,1.17-2.6,2.61-2.6s2.61,1.17,2.61,2.6c0,.94-.51,1.81-1.33,2.27-.12,.07-.21,.19-.24,.32s0,.28,.07,.4c.64,.94,1.12,2.52,1.31,4.35,.02,.17,.12,.32,.27,.39,.15,.08,.33,.07,.48-.01,1.52-.89,5.33-1.49,9.49-1.49,6.48,0,10.02,1.33,10.02,2.01s-3.54,2.02-10.02,2.02c-4.1,0-7.79-.57-9.4-1.45-.15-.08-.34-.08-.49,0-.15,.09-.24,.25-.25,.43Z" stroke-width="0"/></g><g id="uuid-495ea384-dd66-4ae8-81af-c0d036c99e23"></g></svg>