<?xml version="1.0" encoding="UTF-8"?><svg width="70" height="70" id="uuid-4ef68573-71d1-4c79-94ac-6f6f3f8ca0e9" xmlns="http://www.w3.org/2000/svg" viewBox="-10 -10 70 70"><rect x="-10" y="-10" width="70" height="70" fill="white"/><path d="M49.27,44.58l-12.61-23.44-.38,.71,1.29,2.39-.54,2.19-1.38-1.3c-.18-.17-.47-.18-.66-.02l-1.99,1.64-.95-1.98,.85-1.59-5.99-14.26-.49,1.16,1.96,4.67-.6,4.73-2.81-3.86c-.09-.13-.24-.2-.39-.21-.17,0-.31,.07-.4,.19l-.18,.22-5.62,13.36c-.07,.17-.23,.29-.42,.3-.19,.02-.36-.07-.46-.23l-1.9-2.94-.29,.45,.85,1.32-3.02,3.42-.46-.66L3.86,44.58H49.27Z" fill="#ffcd00" stroke-width="0"/><path d="M48.83,43.09l-13.45-24.99c-.17-.32-.71-.32-.88,0l-2.04,3.79L25.66,5.7c-.16-.37-.77-.37-.92,0l-3.7,8.81h0l-4.91,11.69-1.8-2.8c-.18-.29-.66-.29-.84,0L.81,43.06c-.1,.15-.11,.35-.02,.51s.26,.26,.44,.26H48.39c.18,0,.34-.09,.43-.24,.09-.15,.09-.34,.01-.49ZM28.39,14.77l-.6,4.73-2.81-3.86c-.09-.13-.24-.2-.39-.21-.17,0-.31,.07-.4,.19l-2.12,2.68-.06-3.5,3.2-7.61,3.19,7.58Zm-7.3,4.94c0,.21,.14,.4,.34,.47,.2,.06,.42,0,.55-.16l2.58-3.25,3.16,4.35c.1,.13,.25,.21,.4,.21,.04,0,.08,0,.12-.02,.2-.05,.35-.22,.37-.42l.54-4.26,2.7,6.42-8.09,15.03-6.99-10.84,4.26-10.13,.04,2.62Zm16.48,4.54l-.54,2.19-1.38-1.3c-.18-.17-.47-.18-.66-.02l-1.99,1.64-.95-1.98,2.9-5.39,2.61,4.85Zm-21.39,3.86l-3.02,3.42-1.92-2.79,2.67-4.15,2.27,3.52Zm-5.53,1.54l2.05,2.97c.09,.13,.23,.21,.38,.21h.03c.14,0,.28-.06,.37-.17l3.26-3.68,6.49,10.08-2.02,3.76H2.15l8.49-13.18Zm29.54,13.18H22.34l9.12-16.96,.91,1.9c.07,.14,.19,.24,.34,.27,.04,0,.07,.01,.11,.01,.12,0,.23-.04,.32-.11l2.14-1.77,1.68,1.58c.13,.12,.31,.17,.48,.12,.17-.05,.3-.19,.34-.36l.48-1.94,9.29,17.26h-7.38Z" stroke-width="0"/></svg>