<?xml version="1.0" encoding="UTF-8"?><svg width="70" height="70" id="uuid-6e39ad8a-4c8b-47b4-a3d1-ee7b01cff585" xmlns="http://www.w3.org/2000/svg" viewBox="-10 -10 70 70"><rect x="-10" y="-10" width="70" height="70" fill="white"/><path d="M23.44,16.76c-3.36-3.38-7.64-3.19-8.29-3.16-.87,.05-4.33,.34-7.14,3.16-3.5,3.51-3.17,8.1-3.11,8.75v11.49c0,5.97,4.85,10.82,10.82,10.82s10.82-4.85,10.82-10.82v-11.87c.05-.64,.28-4.97-3.11-8.37Z" fill="#ffcd00" stroke-width="0"/><path d="M47.27,42.12c-.3-.02-.51,.19-.53,.47-.19,3.09-2.48,5.64-5.32,5.93-1.53,.15-3.14-.4-4.4-1.52-1.37-1.22-2.17-2.98-2.2-4.81V12.63c.24-3.31-.94-6.57-3.26-8.94C29.42,1.5,26.57,.31,23.72,.47c-5.24,.28-9.62,4.97-9.96,10.56-6.38,.25-11.5,5.5-11.5,11.95v12.54c0,6.6,5.37,11.97,11.97,11.97s11.97-5.37,11.97-11.97v-12.54c0-6.42-5.09-11.66-11.44-11.94,.33-5.07,4.28-9.31,9.01-9.56,2.55-.12,5.13,.93,7.09,2.93,2.11,2.16,3.2,5.13,2.97,8.2v29.6c.03,2.13,.95,4.15,2.53,5.55,1.3,1.16,2.93,1.8,4.55,1.8,.21,0,.41,0,.62-.03,3.32-.34,5.99-3.29,6.22-6.86,.02-.28-.19-.51-.47-.53ZM13.73,12.03v10.45H3.28c.26-5.65,4.8-10.19,10.45-10.45Zm.5,34.46c-6.05,0-10.97-4.92-10.97-10.97v-12.04H25.2v12.04c0,6.05-4.92,10.97-10.97,10.97Zm10.95-24.01H14.73V12.03c5.65,.26,10.19,4.8,10.45,10.45Z" stroke-width="0"/></svg>