<?xml version="1.0" encoding="UTF-8"?><svg width="70" height="70" xmlns="http://www.w3.org/2000/svg" viewBox="-10 -10 70 70"><rect x="-10" y="-10" width="70" height="70" fill="white"/><g id="uuid-edfd0e13-f0d4-4f2a-95a7-de69c9d695f6"><g><path d="M15.3,38.51c0,.14-.06,.27-.15,.36-.1,.09-.23,.14-.37,.14-.17,0-.34-.01-.5-.01-.9,0-1.81,.1-2.72,.3-2.21,.49-4.17,1.49-5.5,2.84-1.28,1.29-1.82,2.72-1.53,4.04,.62,2.81,4.77,4.29,9.26,3.3,4.04-.89,7.09-3.54,7.1-6.17l.15-26.59c0-.25,.19-.46,.44-.49l20.28-2.35c.14-.02,.28,.03,.39,.12s.17,.23,.17,.37v19.51c0,.14-.06,.27-.15,.36-.1,.09-.23,.14-.37,.14-1.06-.05-2.14,.05-3.22,.29-2.21,.49-4.17,1.49-5.5,2.84-1.28,1.29-1.82,2.72-1.53,4.04,.29,1.32,1.38,2.39,3.08,3.03,1.77,.66,3.97,.76,6.18,.27,4.04-.89,7.09-3.54,7.1-6.17l.15-29.03V2.74L15.3,6.53v31.98Z" fill="#ffcd00" stroke-width="0"/><path d="M47.38,.34c-.11-.1-.25-.14-.39-.12L13.24,4.13c-.25,.03-.44,.24-.44,.5v31.92c-.98,0-1.97,.11-2.96,.32-5.03,1.1-8.53,4.72-7.79,8.07,.59,2.68,3.72,4.39,7.54,4.39,.94,0,1.92-.1,2.92-.32,4.56-1,7.88-4.01,7.88-7.15l.15-26.14,19.28-2.23V31.91h-.02c-.97,0-1.95,.11-2.94,.32-2.4,.53-4.53,1.63-6,3.11-1.52,1.54-2.16,3.3-1.8,4.96,.36,1.66,1.68,2.99,3.71,3.75,1.95,.73,4.35,.84,6.75,.31,4.56-1,7.88-4.01,7.88-7.15l.15-25.09V.71c0-.14-.06-.28-.17-.37Zm-.83,7.85l-.15,29.03c0,2.63-3.05,5.29-7.1,6.17-2.21,.49-4.41,.39-6.18-.27-1.7-.63-2.79-1.71-3.08-3.03-.29-1.32,.25-2.75,1.53-4.04,1.33-1.34,3.29-2.35,5.5-2.84,1.08-.24,2.16-.34,3.22-.29,.14,0,.27-.04,.37-.14,.1-.09,.15-.22,.15-.36V12.91c0-.14-.06-.28-.17-.37s-.25-.14-.39-.12l-20.28,2.35c-.25,.03-.44,.24-.44,.49l-.15,26.59c0,2.63-3.05,5.29-7.1,6.17-4.49,.99-8.65-.5-9.26-3.3-.62-2.81,2.54-5.89,7.03-6.88,.91-.2,1.82-.3,2.72-.3,.17,0,.34,0,.5,.01,.14,0,.27-.04,.37-.14,.1-.09,.15-.22,.15-.36V5.07L46.55,1.27v6.92Z" stroke-width="0"/></g></g><g id="uuid-32a2efb1-e9ba-495d-8c04-21d0c5ae1af6"></g></svg>