<?xml version="1.0" encoding="UTF-8"?><svg width="70" height="70" xmlns="http://www.w3.org/2000/svg" viewBox="-10 -10 70 70"><rect x="-10" y="-10" width="70" height="70" fill="white"/><g id="uuid-5e416ca0-d4fc-43ff-b4e3-fb1f60cfcc47"><g><circle cx="15.39" cy="5.08" r="1.86" fill="#ffcd00"/><circle cx="11.51" cy="18.29" r="1.77" fill="#ffcd00"/><path d="M23.54,6.37c.87,0,1.58-.71,1.58-1.58s-.71-1.58-1.58-1.58-1.58,.71-1.58,1.58,.71,1.58,1.58,1.58Z" fill="#ffcd00" stroke-width="0"/><path d="M33.72,26.23s-.05-.01-.08-.02h-11.47c-3.94,.2-7.04,3.44-7.04,7.39l-.03,15.89h6.14l13.4,.04h6.08l.03-15.88c0-3.95-3.08-7.2-7.02-7.41Z" fill="#ffcd00" stroke-width="0"/><path d="M41.24,13.31c-.98,0-1.77,.79-1.77,1.77s.79,1.77,1.77,1.77,1.77-.79,1.77-1.77-.79-1.77-1.77-1.77Z" fill="#ffcd00" stroke-width="0"/><path d="M13.63,6.18c1.57,0,2.86-1.28,2.86-2.86S15.21,.47,13.63,.47s-2.86,1.28-2.86,2.86,1.28,2.86,2.86,2.86Zm0-4.71c1.02,0,1.86,.83,1.86,1.86s-.83,1.86-1.86,1.86-1.86-.83-1.86-1.86,.83-1.86,1.86-1.86Z" stroke-width="0"/><path d="M39.49,10.56c-1.53,0-2.77,1.24-2.77,2.77s1.24,2.77,2.77,2.77,2.77-1.24,2.77-2.77-1.24-2.77-2.77-2.77Zm0,4.54c-.98,0-1.77-.79-1.77-1.77s.79-1.77,1.77-1.77,1.77,.79,1.77,1.77-.79,1.77-1.77,1.77Z" stroke-width="0"/><path d="M21.79,5.62c1.42,0,2.58-1.16,2.58-2.58s-1.16-2.58-2.58-2.58-2.58,1.16-2.58,2.58,1.16,2.58,2.58,2.58Zm0-4.16c.87,0,1.58,.71,1.58,1.58s-.71,1.58-1.58,1.58-1.58-.71-1.58-1.58,.71-1.58,1.58-1.58Z" stroke-width="0"/><path d="M9.76,13.76c-1.53,0-2.77,1.24-2.77,2.77s1.24,2.77,2.77,2.77,2.77-1.24,2.77-2.77-1.24-2.77-2.77-2.77Zm0,4.54c-.98,0-1.77-.79-1.77-1.77s.79-1.77,1.77-1.77,1.77,.79,1.77,1.77-.79,1.77-1.77,1.77Z" stroke-width="0"/><path d="M32.19,23.5c-.06-.03-.13-.04-.2-.04h-11.61s0,0-.01,0c-4.48,.22-7.99,3.91-8,8.38l-.03,16.39c0,.28,.22,.5,.5,.5l26.61,.05h0c.13,0,.26-.05,.35-.15,.09-.09,.15-.22,.15-.35l.03-16.39c0-4.42-3.4-8.07-7.8-8.4Zm6.77,24.29h-5.08l.03-14.33c0-.28-.22-.5-.5-.5h0c-.28,0-.5,.22-.5,.5l-.03,14.32-13.4-.03,.03-14.32c0-.28-.22-.5-.5-.5h0c-.28,0-.5,.22-.5,.5l-.03,14.32h-5.14l.03-15.9c0-3.94,3.1-7.19,7.04-7.39h11.47s.05,.02,.08,.02c3.94,.21,7.03,3.47,7.02,7.41l-.03,15.89Z" stroke-width="0"/><path d="M26.17,22.48c4.64,0,8.42-3.78,8.42-8.42s-3.78-8.42-8.42-8.42-8.42,3.78-8.42,8.42,3.78,8.42,8.42,8.42Zm0-15.85c4.09,0,7.42,3.33,7.42,7.42s-3.33,7.42-7.42,7.42-7.42-3.33-7.42-7.42,3.33-7.42,7.42-7.42Z" stroke-width="0"/></g></g><g id="uuid-c258a1ef-56a5-442a-ad30-7eca875dcfb8"></g></svg>