<?xml version="1.0" encoding="UTF-8"?><svg width="70" height="70" xmlns="http://www.w3.org/2000/svg" viewBox="-10 -10 70 70"><rect x="-10" y="-10" width="70" height="70" fill="white"/><g id="uuid-1c9a68ce-cf54-48fe-9979-d2c2d7642c1c"><path d="M10.53,30.47v-9.65c0-.28.23-.5.5-.5h18.44c-.13-.59-.19-1.2-.21-1.82H8.4v13.47h28.26v-4.73c-.75-.22-1.46-.53-2.13-.9v4.13H10.53Z" fill="#ffcd00" stroke-width="0"/><path d="M42.51,40.22h-1v-8.56H3.55v9.78h-1v1.78h39.97v-3ZM9.32,37.75c-1.27,0-2.3-1.03-2.3-2.3s1.03-2.3,2.3-2.3,2.3,1.03,2.3,2.3-1.03,2.3-2.3,2.3ZM27.21,38h-10.94v-3.09h10.94v3.09ZM34.27,37.75c-1.27,0-2.3-1.03-2.3-2.3s1.03-2.3,2.3-2.3,2.3,1.03,2.3,2.3-1.03,2.3-2.3,2.3Z" fill="#ffcd00" stroke-width="0"/></g><g id="uuid-e508fa60-3414-4ce0-ab14-cc3516889a10"><path d="M9.5,32.85c-1.47,0-2.66,1.2-2.66,2.66s1.2,2.67,2.66,2.67,2.66-1.2,2.66-2.67-1.2-2.66-2.66-2.66ZM9.5,37.17c-.92,0-1.66-.75-1.66-1.67s.75-1.66,1.66-1.66,1.66.75,1.66,1.66-.75,1.67-1.66,1.67Z" stroke-width="0"/><path d="M34.44,32.85c-1.47,0-2.66,1.2-2.66,2.66s1.2,2.67,2.66,2.67,2.66-1.2,2.66-2.67-1.2-2.66-2.66-2.66ZM34.44,37.17c-.92,0-1.66-.75-1.66-1.67s.75-1.66,1.66-1.66,1.66.75,1.66,1.66-.75,1.67-1.66,1.67Z" stroke-width="0"/><path d="M27.47,34.45h-11.2c-.28,0-.5.22-.5.5v2.73c0,.28.22.5.5.5h11.2c.28,0,.5-.22.5-.5v-2.73c0-.28-.22-.5-.5-.5ZM26.97,37.17h-10.2v-1.73h10.2v1.73Z" stroke-width="0"/><path d="M39.03,27.79c5.7,0,10.34-4.64,10.34-10.35s-4.64-10.35-10.34-10.35-9.96,4.28-10.31,9.67H7.34c-.28,0-.5.22-.5.5v6.88h-3.9c-.28,0-.5.22-.5.5v2.65c0,.28.22.5.5.5h3.9v2.13H2.51c-.28,0-.51.24-.51.52v9.27h-.51c-.28,0-.5.22-.5.5v2.78c0,.28.22.5.5.5h4.23v3.99c0,.71.58,1.29,1.29,1.29h3.04c.71,0,1.29-.58,1.29-1.29v-3.99h21.21v3.99c0,.71.58,1.29,1.29,1.29h3.09c.71,0,1.29-.58,1.29-1.29v-3.99h4.23c.28,0,.5-.22.5-.5v-2.78c0-.28-.22-.5-.5-.5h-.51v-9.27c0-.28-.24-.52-.51-.52h-4.33v-2.31c.62.12,1.27.19,1.93.19ZM6.73,26.79h-3.3v-1.65h3.3v1.65ZM39.03,8.1c2.4,0,4.58.91,6.23,2.4l-1.91,1.91c-.27-.24-.58-.45-.93-.62-.7-.34-1.51-.51-2.44-.51h-4.8v9.29l-1.21,1.21-1,1-.88.88c-.8-.89-1.44-1.94-1.85-3.1-.12-.33-.22-.66-.3-1-.14-.59-.22-1.19-.24-1.82,0-.11-.02-.21-.02-.32,0-.23.02-.46.03-.68.35-4.84,4.39-8.67,9.31-8.67ZM42.04,15.38c0,.59-.18,1.04-.53,1.35-.35.32-.86.47-1.53.47h0l2.05-2.05c0,.08.02.15.02.23ZM37.71,17.2v-3.86h2.32c.63.01,1.12.2,1.47.57.06.06.1.13.15.19l-3.1,3.1h-.84ZM32.97,29.92H10.97v-9.34h18.2c.68,2.12,2.03,3.95,3.8,5.23v4.11ZM7.84,17.76h20.86c.02.62.08,1.23.21,1.82H10.47c-.28,0-.5.22-.5.5v9.84h-2.14v-12.15ZM41.95,42.48H1.98v-1.78h39.97v1.78ZM10.34,47.47c0,.16-.13.29-.29.29h-3.04c-.16,0-.29-.13-.29-.29v-3.99h3.63v3.99ZM37.23,47.47c0,.16-.13.29-.29.29h-3.09c-.16,0-.29-.13-.29-.29v-3.99h3.68v3.99ZM40.95,30.92v8.79H2.99v-8.79h37.96ZM36.1,29.92h-2.13v-3.46c.67.38,1.38.68,2.13.9v2.56ZM36.1,26.31c-.76-.25-1.47-.6-2.13-1.02-.35-.23-.68-.47-1-.74-.06-.05-.12-.11-.17-.16l.17-.17,1-1,1.21-1.21v1.6h2.53v-4.13l.2-.2h2.02c1.46,0,2.6-.35,3.43-1.04.83-.7,1.24-1.65,1.24-2.85,0-.79-.19-1.5-.57-2.13-.01-.02-.03-.04-.04-.06l1.97-1.97c1.49,1.66,2.4,3.84,2.4,6.23,0,5.15-4.19,9.35-9.34,9.35-.66,0-1.3-.07-1.93-.2-.34-.07-.67-.17-1-.27Z" stroke-width="0"/></g></svg>