<?xml version="1.0" encoding="UTF-8"?><svg width="70" height="70" xmlns="http://www.w3.org/2000/svg" viewBox="-10 -10 70 70"><rect x="-10" y="-10" width="70" height="70" fill="white"/><g id="uuid-feebee7c-8d29-4694-8946-e487ec676913"><path d="M36.64,35.45l-.11-.14c-4.72-5.76-9.68-12.15-14.76-19-.05-.07-.1-.15-.15-.22-.57-.78-1.34-2.02-1.88-3.67-.45-1.39-.54-2.49-.7-4.45-.09-1.14-.16-2.69-.11-4.56-1.02,0-2.04,0-3.06,0,.05,4.44,.1,8.88,.15,13.33,.2,2.84,.32,5.88,.32,9.09-.01,3.99-.22,7.71-.54,11.13-.59,.57-1.46,1.57-1.94,3.04-1.11,3.42,.95,6.56,1.34,7.17,.36,.55,.71,.96,.95,1.22,.37-.42,.91-.99,1.64-1.61,1-.86,3.58-3.02,7.16-3.59,2.02-.32,6.04-.39,6.61,1.25,.44,1.27-1.29,3.34-4.03,4.98,6.83,.76,11.79-3.2,12.42-7.24,.35-2.27-1.34-4.33-3.31-6.73Z" fill="#ffcd00" stroke-width="0"/><path d="M35.67,33.06l-.11-.14c-4.71-5.74-9.66-12.12-14.73-18.96-.59-.8-1.08-1.67-1.47-2.58-.21-.5-.41-1-.56-1.53-.28-.97-.45-1.98-.51-2.98l-.04-1.76-.08-3.28c0-.28-.2-.5-.51-.49-.28,0-.49,.24-.49,.51l.12,5.05c.06,1.1,.24,2.18,.55,3.22,.44,1.52,1.14,2.94,2.05,4.21,.05,.07,.09,.15,.15,.22,5.08,6.85,10.04,13.25,14.76,19l.11,.14c1.96,2.39,3.66,4.46,3.31,6.73-.73,4.73-9.68,6.73-12.42,7.24h0c-.27,.05-.45,.31-.4,.58,.04,.24,.25,.41,.49,.41,.03,0,.06,0,.09,0,3.71-.68,12.42-2.84,13.23-8.07,.42-2.71-1.5-5.04-3.52-7.52Z" stroke-width="0"/><path d="M30.43,42.26c.12-.25,.01-.55-.23-.67-1.87-.9-3.82-1.3-5.71-1.26-2.18,.05-4.26,.69-5.96,1.96-1.05,.79-1.93,1.79-2.61,2.97-.24,.42-.66,.68-1.15,.72-.49,.03-.98-.17-1.29-.57-1.52-1.91-2.08-4.4-1.49-6.68,.73-2.83,3.13-5.03,6.11-5.6,.27-.05,.45-.31,.4-.59-.05-.27-.31-.45-.59-.4-3.36,.64-6.06,3.13-6.89,6.33-.66,2.58-.04,5.4,1.68,7.55,.48,.6,1.2,.95,1.96,.95,.06,0,.12,0,.19,0,.82-.06,1.53-.5,1.94-1.22,.62-1.07,1.4-1.96,2.35-2.67,1.57-1.17,3.5-1.75,5.54-1.77,1.68-.01,3.42,.36,5.1,1.16,.25,.12,.55,.01,.67-.23Z" stroke-width="0"/></g><g id="uuid-8b7944e1-33fb-45d9-ba02-0469abd8eb25"></g></svg>