<?xml version="1.0" encoding="UTF-8"?><svg width="70" height="70" id="uuid-bf0bbb11-c839-44fd-91a8-ab14238db893" xmlns="http://www.w3.org/2000/svg" viewBox="-10 -10 70 70"><rect x="-10" y="-10" width="70" height="70" fill="white"/><g><g><path d="M43.4,38.96c-.32,1.04-.65,2.1-.98,3.14-10.78-3.39-22.33-3.39-33.12,0-.33-1.04-.66-2.1-.98-3.14,5.71-1.79,11.62-2.69,17.55-2.69s11.83,.9,17.54,2.69Z" fill="#ffcd00" stroke-width="0"/><polygon points="31.79 25.99 31.79 29.35 27.63 29.35 27.63 33.52 25.86 33.52 24.27 33.52 24.27 29.35 20.09 29.35 20.09 25.99 24.27 25.99 24.27 21.82 27.63 21.82 27.63 25.99 31.79 25.99" fill="#ffcd00"/><path d="M49.48,19.67c-.33,1.04-.66,2.1-.99,3.14-6.77-2.13-13.76-3.29-20.77-3.46-8.26-.19-16.52,.96-24.49,3.46-.33-1.04-.66-2.1-.99-3.14,1.81-.58,3.65-1.08,5.5-1.51,11.92-2.83,24.33-2.83,36.25,0,1.85,.43,3.68,.94,5.5,1.51Z" fill="#ffcd00" stroke-width="0"/></g><g><path d="M30.57,24.27h-3.66v-3.66c0-.28-.22-.5-.5-.5h-3.36c-.28,0-.5,.22-.5,.5v3.66h-3.67c-.28,0-.5,.22-.5,.5v3.36c0,.28,.22,.5,.5,.5h3.67v3.67c0,.28,.22,.5,.5,.5h3.36c.28,0,.5-.22,.5-.5v-3.67h3.66c.28,0,.5-.22,.5-.5v-3.36c0-.28-.22-.5-.5-.5Zm-.5,3.36h-3.66c-.28,0-.5,.22-.5,.5v3.67h-2.36v-3.67c0-.28-.22-.5-.5-.5h-3.67v-2.36h3.67c.28,0,.5-.22,.5-.5v-3.66h2.36v3.66c0,.28,.22,.5,.5,.5h3.66v2.36Z" stroke-width="0"/><path d="M48.71,18.22c-.06-.12-.17-.21-.29-.25-1.75-.55-3.51-1.04-5.23-1.44l-1.44-6.7c-.24-1.12-1.25-1.94-2.4-1.94H9.93c-1.15,0-2.16,.82-2.39,1.94l-1.45,6.7c-1.72,.41-3.48,.89-5.23,1.44-.13,.04-.23,.13-.29,.25-.06,.12-.07,.25-.03,.38l2.83,8.99c1.08,3.43,2.16,6.87,3.25,10.3,.32,1.04,.65,2.1,.99,3.14,.08,.26,.37,.41,.63,.33,10.74-3.38,22.08-3.38,32.82,0,.05,.02,.1,.02,.15,.02,.21,0,.41-.14,.48-.35,.33-1.04,.66-2.1,.99-3.14,1.09-3.43,2.17-6.87,3.25-10.3l2.83-8.99c.04-.13,.03-.26-.03-.38ZM8.52,10.04c.14-.66,.73-1.14,1.41-1.14h29.43c.68,0,1.28,.48,1.42,1.15l1.34,6.24c-11.45-2.59-23.5-2.59-34.95,0l1.35-6.24Zm32.36,30.22c-10.63-3.24-21.83-3.24-32.46,0-.23-.72-.46-1.45-.68-2.18,10.99-3.34,22.86-3.34,33.83,0-.23,.73-.45,1.45-.68,2.18Zm4.08-12.97c-1.03,3.28-2.06,6.56-3.1,9.83-11.16-3.4-23.24-3.4-34.43,0-1.04-3.28-2.07-6.56-3.1-9.83l-1.69-5.36c7.73-2.38,15.76-3.5,23.85-3.3,6.86,.17,13.63,1.29,20.16,3.3l-1.69,5.36Zm1.99-6.32c-6.62-2.04-13.49-3.17-20.44-3.34-8.2-.2-16.34,.94-24.17,3.35l-.69-2.2c1.67-.52,3.35-.97,4.99-1.35,11.78-2.79,24.24-2.79,36.03,0,1.64,.38,3.31,.83,4.98,1.35l-.69,2.19Z" stroke-width="0"/></g></g></svg>