<?xml version="1.0" encoding="UTF-8"?><svg width="70" height="70" id="uuid-41a84a5b-8af7-471c-9306-ebd0083966c3" xmlns="http://www.w3.org/2000/svg" viewBox="-10 -10 70 70"><rect x="-10" y="-10" width="70" height="70" fill="white"/><path d="M13.19,47.16c0,1.29,1.05,2.33,2.33,2.33s2.33-1.05,2.33-2.33-1.05-2.33-2.33-2.33-2.33,1.05-2.33,2.33Z" fill="#ffcd00" stroke-width="0"/><path d="M23.74,47.11c0,1.29,1.05,2.33,2.33,2.33s2.33-1.05,2.33-2.33-1.05-2.33-2.33-2.33-2.33,1.05-2.33,2.33Z" fill="#ffcd00" stroke-width="0"/><path d="M37.61,9.29c.15-1.36-.23-2.6-1.09-3.55-.98-1.1-2.54-1.72-4.27-1.72h-12.37c-1.65,0-3.07,.56-3.98,1.59-.86,.96-1.22,2.25-1.05,3.73,.81,6.1,2.92,14.7,5.04,14.7h12.37c2.13,0,4.41-8.62,5.36-14.74Z" fill="#ffcd00" stroke-width="0"/><path d="M34.7,47.13c0,1.29,1.05,2.33,2.33,2.33s2.33-1.05,2.33-2.33-1.05-2.33-2.33-2.33-2.33,1.05-2.33,2.33Z" fill="#ffcd00" stroke-width="0"/><path d="M15.95,29.72h-.07c-1.19,0-2.17,.97-2.17,2.17v.47c0,1.19,.97,2.17,2.17,2.17h20.57c1.19,0,2.17-.97,2.17-2.17v-.47c0-1.19-.97-2.17-2.17-2.17H15.95Z" fill="#ffcd00" stroke-width="0"/><path d="M42.05,19.86h-3.56c-.28,0-.5,.22-.5,.5v2.15c0,1.93-1.22,3.67-3.11,4.43-.02,0-.04,.03-.06,.04-.04,0-.08-.01-.12-.01h-9.81v-3.69h5.62c3.75,0,5.95-12.98,6.35-15.61,.18-1.67-.28-3.18-1.33-4.35-1.17-1.31-3-2.06-5.02-2.06h-12.37c-1.94,0-3.62,.68-4.73,1.92-1.05,1.18-1.5,2.74-1.3,4.52,.35,2.6,2.27,15.58,6.03,15.58h5.75v3.69H14.3c-1.84-.77-3.03-2.49-3.03-4.39v-2.15c0-.27-.23-.5-.5-.5h-3.56c-.28,0-.5,.22-.5,.5s.22,.5,.5,.5h3.07v1.65c0,1.89,.96,3.62,2.52,4.69-1.08,.5-1.84,1.59-1.84,2.87v.47c0,1.75,1.42,3.17,3.17,3.17h9.76v3.83h-5.63c-2.57,0-4.66,1.99-4.87,4.51-1.66,.19-2.95,1.59-2.95,3.3,0,1.84,1.5,3.33,3.33,3.33s3.33-1.5,3.33-3.33c0-1.63-1.17-2.98-2.72-3.27,.19-1.98,1.84-3.54,3.87-3.54h5.63v3.47c-1.63,.22-2.89,1.6-2.89,3.29,0,1.84,1.5,3.33,3.33,3.33s3.33-1.5,3.33-3.33c0-1.65-1.2-3.01-2.77-3.28v-3.48h5.99c2.02,0,3.66,1.54,3.86,3.51-1.58,.26-2.78,1.63-2.78,3.28,0,1.84,1.5,3.33,3.33,3.33s3.33-1.5,3.33-3.33c0-1.68-1.26-3.07-2.88-3.29-.21-2.51-2.3-4.5-4.86-4.5h-5.99v-3.83h9.81c1.75,0,3.17-1.42,3.17-3.17v-.47c0-1.19-.67-2.22-1.65-2.76,1.71-1.06,2.77-2.87,2.77-4.86v-1.65h3.07c.28,0,.5-.22,.5-.5s-.22-.5-.5-.5ZM13.1,7.58c-.17-1.48,.2-2.77,1.05-3.73,.92-1.03,2.33-1.59,3.98-1.59h12.37c1.73,0,3.29,.63,4.27,1.72,.86,.96,1.23,2.19,1.09,3.55-.94,6.12-3.23,14.74-5.36,14.74h-12.37c-2.12,0-4.22-8.6-5.04-14.7Zm3,37.83c0,1.29-1.05,2.33-2.33,2.33s-2.33-1.05-2.33-2.33,1.05-2.33,2.33-2.33,2.33,1.05,2.33,2.33Zm10.56-.05c0,1.29-1.05,2.33-2.33,2.33s-2.33-1.05-2.33-2.33,1.05-2.33,2.33-2.33,2.33,1.05,2.33,2.33Zm10.96,.02c0,1.29-1.05,2.33-2.33,2.33s-2.33-1.05-2.33-2.33,1.05-2.33,2.33-2.33,2.33,1.05,2.33,2.33Zm-.76-15.24v.47c0,1.19-.97,2.17-2.17,2.17H14.13c-1.19,0-2.17-.97-2.17-2.17v-.47c0-1.19,.97-2.17,2.17-2.17h20.57c1.19,0,2.17,.97,2.17,2.17Z" stroke-width="0"/></svg>