<?xml version="1.0" encoding="UTF-8"?><svg width="70" height="70" xmlns="http://www.w3.org/2000/svg" viewBox="-10 -10 70 70"><rect x="-10" y="-10" width="70" height="70" fill="white"/><g id="uuid-6218e5dc-516b-45e0-b337-3d9bc7e861d5"><rect x="29.8" y="12.76" width="13.19" height="2.23" transform="translate(19.68 49.06) rotate(-85.47)" fill="#ffcd00"/><path d="M30.81,33.16c-.11-.27-.43-.86-1.09-1.28-.59-.38-1.18-.46-1.57-.46h-6.21c-.24,0-.45-.17-.49-.41l-1.08-5.59c-.03-.15,.01-.31,.11-.42,.1-.12,.25-.19,.4-.17,.02,0,.09,0,.11,.01h5.32c1.17,0,2.13-.95,2.13-2.12s-.95-2.13-2.13-2.13h-4.95c-.16,0-.31-.07-.4-.2l-3.45-4.62s-.04-.05-.06-.08c-.59-.91-1.49-1.42-2.35-1.36-.94,.07-1.58,.83-1.64,.92-.41,.52-.6,1.17-.52,1.83l1.96,17.09c.13,1.1,.99,1.99,2.09,2.16,.1,.02,.18,.02,.26,.03,.01,0,.13,.01,.14,.02,.05,0,.09,.01,.14,.01h8.72c.22,0,.41,.14,.48,.35l3.27,10.73c.19,.63,.62,1.16,1.21,1.47,.59,.31,1.26,.38,1.89,.18,.63-.19,1.16-.62,1.47-1.21,.31-.58,.38-1.26,.18-1.89l-3.91-12.86Z" fill="#ffcd00" stroke-width="0"/><rect x="33.69" y="24.75" width="10.44" height="2.23" fill="#ffcd00"/><path d="M33.94,43.97l-3.93-12.9c-.17-.42-.6-1.21-1.49-1.79-.8-.51-1.59-.62-2.11-.62h-5.8l-.89-4.58h4.84c1.72,0,3.13-1.4,3.13-3.13s-1.4-3.13-3.13-3.13h-4.7l-3.34-4.47-.02-.03c-.79-1.18-2.02-1.84-3.23-1.75-1.33,.11-2.19,1.1-2.35,1.3-.58,.73-.84,1.64-.73,2.56l1.96,17.09c.18,1.55,1.38,2.79,2.97,3.04,.11,.01,.21,.03,.37,.04,.09,.01,.18,.02,.28,.02h8.35l3.16,10.37c.27,.89,.87,1.62,1.69,2.06,.51,.27,1.07,.41,1.63,.41,.34,0,.68-.05,1.02-.15,.89-.27,1.62-.87,2.06-1.69,.44-.82,.53-1.76,.26-2.65h0Zm-1.14,2.18c-.31,.58-.83,1.01-1.47,1.21-.63,.19-1.31,.13-1.89-.18-.58-.31-1.01-.83-1.21-1.47l-3.27-10.73c-.06-.21-.26-.35-.48-.35H15.77s-.09,0-.14-.01c-.01,0-.13-.02-.14-.02-.08,0-.15-.01-.26-.03-1.1-.17-1.96-1.06-2.09-2.16l-1.96-17.09c-.08-.66,.11-1.31,.52-1.83,.07-.09,.7-.85,1.64-.92,.86-.06,1.76,.45,2.35,1.36,.02,.03,.04,.05,.06,.08l3.45,4.62c.09,.13,.24,.2,.4,.2h4.95c1.17,0,2.13,.95,2.13,2.13s-.95,2.13-2.13,2.13h-5.32s-.09-.01-.11-.01c-.15-.01-.3,.06-.4,.17-.1,.12-.14,.27-.11,.42l1.08,5.59c.05,.24,.25,.41,.49,.41h6.21c.39,0,.98,.08,1.57,.46,.66,.43,.98,1.02,1.09,1.28l3.91,12.86c.19,.63,.13,1.31-.18,1.89Z" stroke-width="0"/><path d="M45.79,25.22h-2.41v-2.73c0-.28-.22-.5-.5-.5h-2.3V12.82c0-.19-.1-.36-.27-.44l-3.43-1.79,.43-5.37c.01-.13-.03-.26-.12-.36-.09-.1-.21-.16-.34-.17l-3.22-.25c-.28-.01-.52,.18-.54,.46l-1.12,14.15c-.01,.13,.03,.26,.12,.36,.09,.1,.21,.16,.34,.17l3.22,.25h.04c.26,0,.48-.2,.5-.46l.61-7.69,2.78,1.45v8.87h-8.14c-.28,0-.5,.22-.5,.5v2.73h-7.64c-.28,0-.5,.22-.5,.5s.22,.5,.5,.5h22.48c.28,0,.5-.22,.5-.5s-.22-.5-.5-.5Zm-10.56-6.44l-2.22-.18,1.04-13.15,2.22,.18-1.04,13.15Zm-3.29,6.44v-2.23h10.44v2.23h-10.44Z" stroke-width="0"/><path d="M13.79,10.67c2.4,0,4.36-1.95,4.36-4.36s-1.96-4.36-4.36-4.36-4.36,1.95-4.36,4.36,1.95,4.36,4.36,4.36Zm0-7.71c1.85,0,3.36,1.51,3.36,3.36s-1.51,3.36-3.36,3.36-3.36-1.51-3.36-3.36,1.51-3.36,3.36-3.36Z" stroke-width="0"/><path d="M21.85,38l-8.03-.12c-.46,0-1.65-.09-2.63-1.01-.75-.7-1.01-1.55-1.09-1.95l-2.08-19.58c-.03-.27-.28-.47-.55-.44-.27,.03-.47,.28-.44,.55l2.09,19.63c.11,.56,.44,1.63,1.39,2.52,1.25,1.18,2.75,1.29,3.32,1.29l1.71,.03v9.34h-4.28c-.28,0-.5,.22-.5,.5s.22,.5,.5,.5h9.57c.28,0,.5-.22,.5-.5s-.22-.5-.5-.5h-4.28v-9.32l5.3,.08h0c.27,0,.5-.22,.5-.49,0-.28-.22-.5-.49-.51Z" stroke-width="0"/></g><g id="uuid-c2e4cece-cf2c-4e26-a0e9-94b0667f8355"></g></svg>