<?xml version="1.0" encoding="UTF-8"?><svg width="70" height="70" id="uuid-58e6c233-f1f6-4068-b220-cdedfd4145f4" xmlns="http://www.w3.org/2000/svg" viewBox="-10 -10 70 70"><rect x="-10" y="-10" width="70" height="70" fill="white"/><polygon points="36.98 31.98 36.56 31.98 36.56 47.52 49.42 47.52 49.42 31.98 36.98 31.98" fill="#ffcd00"/><polygon points="47.11 28.9 49.42 28.9 49.42 25.24 49.42 21.73 47.11 21.73 47.11 28.9" fill="#ffcd00"/><rect x="14.56" y="30.98" height="16.54" fill="#ffcd00"/><g><polygon points="28.51 3.98 25.75 3.98 25.75 4.02 25.75 5.32 28.51 5.32 28.51 3.98" fill="#ffcd00"/><path d="M31.46,25v-3.83h-2.12v-4.22h-.43v-3.8c-.22-1.69-1.33-2.97-2.66-2.97s-2.44,1.29-2.66,2.97v3.8h-.43v4.22h-2.12v3.83H5.39v-3.27H3.08v25.79H15.56v-15.54h5.53v15.54h2v-15.54h4.28v15.54h2v-15.54h4.19v15.54h2v-15.54h13.86v-6.98H31.46Z" fill="#ffcd00" stroke-width="0"/></g><path d="M48.42,19.23h-3.3c-.28,0-.5,.22-.5,.5v3.01h-13.65v-3.01c0-.28-.22-.5-.5-.5h-1.62v-3.83c0-.25-.19-.45-.43-.49v-2.77h.6c.28,0,.5-.22,.5-.5s-.22-.5-.5-.5h-.68c-.19-1.76-1.46-3.16-3.08-3.4v-1.92h3.26c.28,0,.5-.22,.5-.5V2.98c0-.28-.22-.5-.5-.5h-3.76c-.28,0-.5,.22-.5,.5V7.74c-1.62,.25-2.89,1.64-3.08,3.4h-.68c-.28,0-.5,.22-.5,.5s.22,.5,.5,.5h.6v2.77c-.24,.03-.43,.23-.43,.49v3.83h-1.62c-.28,0-.5,.22-.5,.5v3.01H4.89v-3.01c0-.28-.22-.5-.5-.5H1.08c-.28,0-.5,.22-.5,.5v26.79c0,.28,.22,.5,.5,.5H48.42c.28,0,.5-.22,.5-.5V19.73c0-.28-.22-.5-.5-.5Zm-.5,1v7.17h-2.3v-7.17h2.3Zm-3.3,3.51v4.16c0,.28,.22,.5,.5,.5h2.8v1.08h-11.34l-5.61-2.94v-2.8h13.65ZM22.09,12.14h5.33v2.76h-5.33v-2.76Zm-.43,3.76h6.19v3.33h-6.19v-3.33Zm-.5,4.33h8.81v5.79l-4.98-2.61c-.15-.08-.32-.08-.46,0l-4.98,2.61v-5.79h1.62Zm11.41,9.25H15.08l9.67-5.06,9.67,5.06h-1.86Zm-18.5,1h2v15.54h-2v-15.54Zm3,0h2.53v15.54h-2.53v-15.54Zm3.53,0h2v15.54h-2v-15.54Zm3,0h2.28v15.54h-2.28v-15.54Zm3.28,0h2v15.54h-2v-15.54Zm3,0h2.19v15.54h-2.19v-15.54Zm3.19,0h2v15.54h-2v-15.54ZM25.25,3.48h2.76v1.34h-2.76v-1.34Zm-.5,5.21c1.29,0,2.37,1.04,2.58,2.41h-5.16c.21-1.37,1.29-2.41,2.58-2.41Zm-6.21,15.06v2.8l-5.61,2.94H1.58v-1.08h2.8c.28,0,.5-.22,.5-.5v-4.16h13.65Zm-14.65-3.51v7.17H1.58v-7.17H3.89ZM1.58,30.48H13.06v15.54H1.58v-15.54Zm46.33,15.54h-11.86v-15.54h11.86v15.54Z" stroke-width="0"/><path d="M9.56,32.23H5.44c-.28,0-.5,.22-.5,.5v4.12c0,.28,.22,.5,.5,.5h4.12c.28,0,.5-.22,.5-.5v-4.12c0-.28-.22-.5-.5-.5Zm-.5,4.12h-3.12v-3.12h3.12v3.12Z" stroke-width="0"/><path d="M9.56,39.15H5.44c-.28,0-.5,.22-.5,.5v4.12c0,.28,.22,.5,.5,.5h4.12c.28,0,.5-.22,.5-.5v-4.12c0-.28-.22-.5-.5-.5Zm-.5,4.12h-3.12v-3.12h3.12v3.12Z" stroke-width="0"/><path d="M40.12,37.36h4.12c.28,0,.5-.22,.5-.5v-4.12c0-.28-.22-.5-.5-.5h-4.12c-.28,0-.5,.22-.5,.5v4.12c0,.28,.22,.5,.5,.5Zm.5-4.12h3.12v3.12h-3.12v-3.12Z" stroke-width="0"/><path d="M40.12,44.27h4.12c.28,0,.5-.22,.5-.5v-4.12c0-.28-.22-.5-.5-.5h-4.12c-.28,0-.5,.22-.5,.5v4.12c0,.28,.22,.5,.5,.5Zm.5-4.12h3.12v3.12h-3.12v-3.12Z" stroke-width="0"/></svg>