<?xml version="1.0" encoding="UTF-8"?><svg width="70" height="70" xmlns="http://www.w3.org/2000/svg" viewBox="-10 -10 70 70"><rect x="-10" y="-10" width="70" height="70" fill="white"/><g id="uuid-e9ab6e35-638a-48b1-b94b-3df360bcd2e6"><g><path d="M26.45,13.39c-3.56-.41-7.17-.57-10.74-.45-3.31,.11-6.65,.45-9.91,1.02v27.48c3.27-.46,6.59-.7,9.89-.72,.15,0,.3,0,.45,0,3.44,0,6.91,.25,10.32,.73,5.55-1.24,11.1-2.48,16.65-3.72V9.54c-5.55,1.28-11.1,2.56-16.65,3.84Z" fill="#ffcd00" stroke-width="0"/><g><path d="M49.11,12.95h-2.42v-.91c0-.24-.17-.45-.41-.49-1.22-.23-2.45-.42-3.68-.59v-3.53c0-.15-.07-.3-.19-.39s-.27-.13-.42-.1l-17.11,3.88c-.06,.01-.12,.04-.17,.08-3.56-.43-7.17-.59-10.75-.46-3.43,.12-6.88,.49-10.25,1.11-.24,.04-.41,.25-.41,.49v.91H.89c-.28,0-.5,.22-.5,.5v29.12c0,.28,.22,.5,.5,.5H49.11c.28,0,.5-.22,.5-.5V13.45c0-.28-.22-.5-.5-.5Zm-24.62-1.06v28.06c-3.33-.48-6.71-.72-10.08-.72-.15,0-.3,0-.44,0-3.22,.02-6.47,.26-9.67,.72V12.46c3.19-.57,6.45-.91,9.69-1.02,3.5-.12,7.03,.04,10.5,.45Zm17.11,24.36l-16.11,3.65V11.71l16.11-3.65v28.18Zm4.09,3.7c-3.24-.47-6.53-.71-9.79-.72-1.08,0-2.17,.03-3.25,.08l9.56-2.17c.23-.05,.39-.25,.39-.49V11.96c1.03,.14,2.07,.3,3.09,.49v27.49ZM1.39,13.95h1.91v26.57c0,.15,.06,.28,.17,.38,.11,.1,.26,.13,.4,.12,3.34-.51,6.74-.77,10.1-.79,3.5-.02,7.04,.23,10.52,.73v1.12H1.39V13.95Zm47.22,28.12H25.49v-1.11c3.43-.5,6.91-.75,10.4-.74,3.41,.01,6.85,.28,10.22,.79,.02,0,.05,0,.08,0,.12,0,.23-.04,.33-.12,.11-.09,.17-.23,.17-.38V13.95h1.92v28.12Z" stroke-width="0"/><path d="M38.65,12.89l-10.81,2.6c-.27,.06-.43,.33-.37,.6,.06,.23,.26,.38,.49,.38,.04,0,.08,0,.12-.01l10.81-2.6c.27-.06,.43-.33,.37-.6-.06-.27-.33-.43-.6-.37Z" stroke-width="0"/><path d="M38.39,19.09l-10.81,2.6c-.27,.06-.43,.33-.37,.6,.06,.23,.26,.38,.49,.38,.04,0,.08,0,.12-.01l10.81-2.6c.27-.06,.43-.33,.37-.6s-.33-.43-.6-.37Z" stroke-width="0"/><path d="M38.39,25.29l-10.81,2.6c-.27,.06-.43,.33-.37,.6,.06,.23,.26,.38,.49,.38,.04,0,.08,0,.12-.01l10.81-2.6c.27-.06,.43-.33,.37-.6-.06-.27-.33-.43-.6-.37Z" stroke-width="0"/><path d="M38.39,31.48l-10.81,2.6c-.27,.06-.43,.33-.37,.6,.06,.23,.26,.38,.49,.38,.04,0,.08,0,.12-.01l10.81-2.6c.27-.06,.43-.33,.37-.6-.06-.27-.33-.43-.6-.37Z" stroke-width="0"/><path d="M20.03,15.89H7.72c-.28,0-.5,.22-.5,.5s.22,.5,.5,.5h12.31c.28,0,.5-.22,.5-.5s-.22-.5-.5-.5Z" stroke-width="0"/><path d="M20.03,21.75H7.72c-.28,0-.5,.22-.5,.5s.22,.5,.5,.5h12.31c.28,0,.5-.22,.5-.5s-.22-.5-.5-.5Z" stroke-width="0"/><path d="M20.03,27.95H7.72c-.28,0-.5,.22-.5,.5s.22,.5,.5,.5h12.31c.28,0,.5-.22,.5-.5s-.22-.5-.5-.5Z" stroke-width="0"/><path d="M20.03,34.21H7.72c-.28,0-.5,.22-.5,.5s.22,.5,.5,.5h12.31c.28,0,.5-.22,.5-.5s-.22-.5-.5-.5Z" stroke-width="0"/></g></g></g><g id="uuid-db255881-0c83-4892-8eb8-8e1fe52d173d"></g></svg>