<?xml version="1.0" encoding="UTF-8"?><svg width="70" height="70" xmlns="http://www.w3.org/2000/svg" viewBox="-10 -10 70 70"><rect x="-10" y="-10" width="70" height="70" fill="white"/><g id="uuid-9f421a68-dcab-450f-ae50-f6b075f21b37"><g><path d="M26.64,5.11C14.71,5.11,5,14.82,5,26.75s9.71,21.64,21.64,21.64,21.64-9.71,21.64-21.64S38.57,5.11,26.64,5.11Zm8.26,9.4c.75-.41,1.56-.6,2.37-.6,1.76,0,3.46,.93,4.36,2.58,1.31,2.4,.42,5.42-1.98,6.73-2.4,1.31-5.42,.42-6.73-1.98-1.31-2.4-.42-5.42,1.98-6.73Zm-26.09,1.71c.9-1.65,2.6-2.58,4.36-2.58,.8,0,1.62,.19,2.37,.61,2.4,1.31,3.29,4.33,1.98,6.73-1.31,2.4-4.33,3.29-6.73,1.98-1.16-.63-2.01-1.68-2.38-2.95-.37-1.27-.23-2.61,.4-3.77Zm9.33,17.01c-.37,1.27-1.22,2.32-2.38,2.95-2.4,1.31-5.42,.42-6.73-1.98-1.31-2.4-.42-5.42,1.98-6.73,.75-.41,1.56-.61,2.37-.61,1.76,0,3.46,.93,4.36,2.58,.63,1.16,.78,2.5,.4,3.77ZM24.72,6.6c2.73,0,4.96,2.22,4.96,4.96s-2.22,4.96-4.96,4.96-4.96-2.22-4.96-4.96,2.22-4.96,4.96-4.96Zm2.66,18.75c0,1.37-1.12,2.49-2.49,2.49s-2.49-1.12-2.49-2.49,1.12-2.49,2.49-2.49,2.49,1.12,2.49,2.49Zm-2.59,18.35c-2.73,0-4.96-2.22-4.96-4.96s2.22-4.96,4.96-4.96,4.96,2.22,4.96,4.96-2.22,4.96-4.96,4.96Zm16.62-9.76c-.63,1.16-1.68,2.01-2.95,2.38-1.27,.37-2.61,.23-3.77-.41-1.16-.63-2.01-1.68-2.38-2.95-.37-1.27-.23-2.61,.41-3.77,.63-1.16,1.68-2.01,2.95-2.38,.46-.14,.94-.2,1.4-.2,.82,0,1.63,.21,2.37,.61,1.16,.63,2.01,1.68,2.38,2.95,.37,1.27,.23,2.61-.4,3.77Z" fill="#ffcd00" stroke-width="0"/><path d="M25,2.36C12.52,2.36,2.36,12.52,2.36,25s10.15,22.64,22.64,22.64,22.64-10.15,22.64-22.64S37.48,2.36,25,2.36Zm0,44.27c-11.93,0-21.64-9.71-21.64-21.64S13.07,3.36,25,3.36s21.64,9.71,21.64,21.64-9.71,21.64-21.64,21.64Z" stroke-width="0"/><path d="M21.39,25.35c0,1.93,1.57,3.49,3.49,3.49s3.49-1.57,3.49-3.49-1.57-3.49-3.49-3.49-3.49,1.57-3.49,3.49Zm5.99,0c0,1.37-1.12,2.49-2.49,2.49s-2.49-1.12-2.49-2.49,1.12-2.49,2.49-2.49,2.49,1.12,2.49,2.49Z" stroke-width="0"/><path d="M24.72,17.51c3.29,0,5.96-2.67,5.96-5.96s-2.67-5.96-5.96-5.96-5.96,2.67-5.96,5.96,2.67,5.96,5.96,5.96Zm0-10.92c2.73,0,4.96,2.22,4.96,4.96s-2.22,4.96-4.96,4.96-4.96-2.22-4.96-4.96,2.22-4.96,4.96-4.96Z" stroke-width="0"/><path d="M24.79,32.78c-3.29,0-5.96,2.67-5.96,5.96s2.67,5.96,5.96,5.96,5.96-2.67,5.96-5.96-2.67-5.96-5.96-5.96Zm0,10.92c-2.73,0-4.96-2.22-4.96-4.96s2.22-4.96,4.96-4.96,4.96,2.22,4.96,4.96-2.22,4.96-4.96,4.96Z" stroke-width="0"/><path d="M39.91,26.33c-1.4-.76-3.01-.94-4.53-.49s-2.79,1.46-3.55,2.86-.94,3.01-.49,4.53c.45,1.53,1.47,2.79,2.86,3.55,.89,.48,1.86,.73,2.85,.73,.56,0,1.13-.08,1.69-.24,1.53-.45,2.79-1.47,3.55-2.86,.76-1.4,.94-3.01,.49-4.53-.45-1.53-1.46-2.79-2.86-3.55Zm1.5,7.61c-.63,1.16-1.68,2.01-2.95,2.38-1.27,.37-2.61,.23-3.77-.41-1.16-.63-2.01-1.68-2.38-2.95-.37-1.27-.23-2.61,.41-3.77,.63-1.16,1.68-2.01,2.95-2.38,.46-.14,.94-.2,1.4-.2,.82,0,1.63,.21,2.37,.61,1.16,.63,2.01,1.68,2.38,2.95,.37,1.27,.23,2.61-.4,3.77Z" stroke-width="0"/><path d="M10.3,23.83c.89,.48,1.86,.73,2.85,.73,.56,0,1.13-.08,1.69-.24,1.53-.45,2.79-1.46,3.55-2.86,1.57-2.88,.51-6.51-2.38-8.09-2.89-1.57-6.51-.51-8.09,2.38-.76,1.4-.94,3.01-.49,4.53,.45,1.53,1.46,2.79,2.86,3.55Zm-1.5-7.61c.9-1.65,2.6-2.58,4.36-2.58,.8,0,1.62,.19,2.37,.61,2.4,1.31,3.29,4.33,1.98,6.73-1.31,2.4-4.33,3.29-6.73,1.98-1.16-.63-2.01-1.68-2.38-2.95-.37-1.27-.23-2.61,.4-3.77Z" stroke-width="0"/><path d="M18.6,28.98c-1.57-2.88-5.2-3.95-8.09-2.38-2.88,1.57-3.95,5.2-2.38,8.09,1.08,1.98,3.13,3.1,5.24,3.1,.96,0,1.94-.23,2.85-.73,1.4-.76,2.41-2.02,2.86-3.55,.45-1.53,.28-3.14-.49-4.53Zm-.47,4.25c-.37,1.27-1.22,2.32-2.38,2.95-2.4,1.31-5.42,.42-6.73-1.98-1.31-2.4-.42-5.42,1.98-6.73,.75-.41,1.56-.61,2.37-.61,1.76,0,3.46,.93,4.36,2.58,.63,1.16,.78,2.5,.4,3.77Z" stroke-width="0"/><path d="M37.28,24.83c.96,0,1.94-.23,2.85-.73,2.88-1.57,3.95-5.2,2.38-8.08-1.57-2.88-5.2-3.95-8.08-2.38s-3.95,5.2-2.38,8.09c1.08,1.98,3.13,3.1,5.24,3.1Zm-2.39-10.31c.75-.41,1.56-.6,2.37-.6,1.76,0,3.46,.93,4.36,2.58,1.31,2.4,.42,5.42-1.98,6.73-2.4,1.31-5.42,.42-6.73-1.98-1.31-2.4-.42-5.42,1.98-6.73Z" stroke-width="0"/></g></g><g id="uuid-ec8b1fdc-3fba-4f14-bb61-ef43da0698fa"></g></svg>