<?xml version="1.0" encoding="UTF-8"?><svg width="70" height="70" xmlns="http://www.w3.org/2000/svg" viewBox="-10 -10 70 70"><rect x="-10" y="-10" width="70" height="70" fill="white"/><g id="uuid-8c478800-aba7-44ff-9453-f007f0c99c9f"><g><path d="M14.59,21.82h8.21c.28,0,.5-.22,.5-.5v-2.13l2.4,1.67,1.9-1.9c1.2-1.19,1.85-2.78,1.85-4.47s-.66-3.28-1.85-4.47c-1.19-1.19-2.78-1.85-4.47-1.85s-3.28,.66-4.47,1.85l-1.5,1.5c-.2,.2-.51,.2-.71,0l-1.5-1.5c-1.19-1.19-2.78-1.85-4.47-1.85s-3.28,.66-4.47,1.85c-1.2,1.19-1.85,2.78-1.85,4.47s.66,3.28,1.85,4.47l10.8,10.8,4.86-4.86h-6.99l-.08-3.07Z" fill="#ffcd00" stroke-width="0"/><path d="M46.74,24.8c-1.19-1.19-2.78-1.85-4.47-1.85s-3.28,.66-4.47,1.85l-1.5,1.5c-.2,.2-.51,.2-.71,0l-1.5-1.5c-1.19-1.19-2.78-1.85-4.47-1.85-.28,0-.55,.02-.82,.06l.5,.35-5.69,3.95c-.21,.63-.32,1.29-.32,1.97,0,1.69,.66,3.28,1.85,4.47l10.8,10.8,10.8-10.8c1.2-1.19,1.85-2.78,1.85-4.47s-.66-3.28-1.85-4.47Z" fill="#ffcd00" stroke-width="0"/><path d="M45.7,22.34c-2.86-2.86-7.5-2.86-10.36,0l-1.15,1.14-1.14-1.14c-1.74-1.74-4.13-2.41-6.39-2.04l-1.45-1.01,1.34-1.34c2.86-2.86,2.86-7.5,0-10.36s-7.51-2.86-10.36,0l-1.14,1.14-1.14-1.14c-2.86-2.86-7.51-2.86-10.36,0s-2.86,7.5,0,10.36l11.15,11.15c.09,.09,.22,.15,.35,.15s.26-.05,.35-.15l3.23-3.23h2.1c-.12,.53-.19,1.08-.19,1.64,0,1.96,.76,3.8,2.15,5.18l11.15,11.15c.09,.09,.22,.15,.35,.15s.26-.05,.35-.15l11.15-11.15c1.38-1.38,2.15-3.22,2.15-5.18s-.76-3.8-2.15-5.18Zm-23.94,3.54h.54v2.59c0,.19,.1,.36,.27,.44,.07,.04,.15,.06,.23,.06,.1,0,.2-.03,.29-.09l7.37-5.12c.13-.09,.21-.25,.21-.41s-.08-.32-.21-.41l-2.51-1.74c1.66,.02,3.22,.67,4.39,1.85l1.5,1.5c.09,.09,.22,.15,.35,.15s.26-.05,.35-.15l1.5-1.5c1.19-1.19,2.78-1.85,4.47-1.85s3.28,.66,4.47,1.85,1.85,2.78,1.85,4.47-.66,3.28-1.85,4.47l-10.8,10.8-10.8-10.8c-1.2-1.19-1.85-2.78-1.85-4.47,0-.56,.08-1.11,.22-1.64ZM8.73,6.45c1.62,0,3.24,.62,4.47,1.85l1.5,1.5c.09,.09,.22,.15,.35,.15s.26-.05,.35-.15l1.5-1.5c2.47-2.47,6.48-2.47,8.95,0,1.19,1.19,1.85,2.78,1.85,4.47s-.66,3.28-1.85,4.47l-1.47,1.47-1.3-.9c-.15-.11-.35-.12-.52-.03-.16,.09-.27,.26-.27,.44v2.57H14.08c-.13,.01-.26,.07-.36,.16s-.15,.23-.14,.36l.1,4.07c0,.27,.23,.49,.5,.49h3.03l-2.17,2.17L4.25,17.25c-1.19-1.19-1.85-2.78-1.85-4.47s.66-3.28,1.85-4.47c1.23-1.23,2.85-1.85,4.47-1.85Zm5.94,18.43l-.08-3.07h8.21c.28,0,.5-.22,.5-.5v-2.13l6,4.17-6,4.17v-2.13c0-.28-.22-.5-.5-.5H14.67Z" stroke-width="0"/></g></g><g id="uuid-5517b309-8676-417e-9ba1-910215f817d8"></g></svg>