<?xml version="1.0" encoding="UTF-8"?><svg width="70" height="70" xmlns="http://www.w3.org/2000/svg" viewBox="-10 -10 70 70"><rect x="-10" y="-10" width="70" height="70" fill="white"/><g id="uuid-56293697-bfca-41ee-b250-b7ab81b2571e"><g><path d="M35.55,7.39H9.75V49.56H42.75V7.39h-7.2ZM15.05,34.56c-1.47,0-2.66-1.19-2.66-2.66s1.19-2.66,2.66-2.66,2.66,1.19,2.66,2.66-1.19,2.66-2.66,2.66Zm9.7,0c-1.47,0-2.66-1.19-2.66-2.66s1.19-2.66,2.66-2.66,2.66,1.19,2.66,2.66-1.19,2.66-2.66,2.66Zm0-14.37c-1.47,0-2.66-1.19-2.66-2.66s1.19-2.66,2.66-2.66,2.66,1.19,2.66,2.66-1.19,2.66-2.66,2.66Zm9.7,14.37c-1.47,0-2.66-1.19-2.66-2.66s1.19-2.66,2.66-2.66,2.66,1.19,2.66,2.66-1.19,2.66-2.66,2.66Z" fill="#ffcd00" stroke-width="0"/><path d="M41.75,4.89h-7.81c-.33-1.23-1.44-2.14-2.78-2.14h-3.65c-.24-1.31-1.39-2.31-2.77-2.31s-2.53,1-2.77,2.31h-3.65c-1.33,0-2.44,.91-2.78,2.14H7.75c-.28,0-.5,.22-.5,.5V48.56c0,.28,.22,.5,.5,.5H41.75c.28,0,.5-.22,.5-.5V5.39c0-.28-.22-.5-.5-.5Zm-23.42-1.14h4.1c.28,0,.5-.22,.5-.5,0-1,.81-1.81,1.81-1.81s1.81,.81,1.81,1.81c0,.28,.22,.5,.5,.5h4.1c1.04,0,1.89,.85,1.89,1.89v1.02H16.45v-1.02c0-1.04,.85-1.89,1.89-1.89Zm22.92,44.3H8.25V5.89h7.2v1.27c0,.28,.22,.5,.5,.5h17.6c.28,0,.5-.22,.5-.5v-1.27h7.2V48.06Z" stroke-width="0"/><path d="M34.95,28.28v-3.41s0-.02,0-.03c0-.01,0-.02,0-.03,0-.28-.22-.5-.5-.5h-9.2v-3.16c1.78-.25,3.16-1.76,3.16-3.61,0-2.02-1.64-3.66-3.66-3.66s-3.66,1.64-3.66,3.66c0,1.85,1.38,3.36,3.16,3.61v3.16H15.05c-.28,0-.5,.22-.5,.5,0,.01,0,.02,0,.03,0,.01,0,.02,0,.03v3.41c-1.78,.25-3.16,1.76-3.16,3.61,0,2.02,1.64,3.66,3.66,3.66s3.66-1.64,3.66-3.66c0-1.85-1.38-3.36-3.16-3.61v-2.98h8.7v2.98c-1.78,.25-3.16,1.76-3.16,3.61,0,2.02,1.64,3.66,3.66,3.66s3.66-1.64,3.66-3.66c0-1.85-1.38-3.36-3.16-3.61v-2.98h8.7v2.98c-1.78,.25-3.16,1.76-3.16,3.61,0,2.02,1.64,3.66,3.66,3.66s3.66-1.64,3.66-3.66c0-1.85-1.38-3.36-3.16-3.61Zm-17.24,3.61c0,1.47-1.19,2.66-2.66,2.66s-2.66-1.19-2.66-2.66,1.19-2.66,2.66-2.66,2.66,1.19,2.66,2.66Zm9.7,0c0,1.47-1.19,2.66-2.66,2.66s-2.66-1.19-2.66-2.66,1.19-2.66,2.66-2.66,2.66,1.19,2.66,2.66Zm-2.66-11.7c-1.47,0-2.66-1.19-2.66-2.66s1.19-2.66,2.66-2.66,2.66,1.19,2.66,2.66-1.19,2.66-2.66,2.66Zm9.7,14.37c-1.47,0-2.66-1.19-2.66-2.66s1.19-2.66,2.66-2.66,2.66,1.19,2.66,2.66-1.19,2.66-2.66,2.66Z" stroke-width="0"/></g></g><g id="uuid-99cc2fe6-dbbd-4493-b7c4-2ca4bbc8ee73"></g></svg>