<?xml version="1.0" encoding="UTF-8"?><svg width="70" height="70" xmlns="http://www.w3.org/2000/svg" viewBox="-10 -10 70 70"><rect x="-10" y="-10" width="70" height="70" fill="white"/><g id="uuid-c704f640-dbf5-4d6f-ad6a-34486f374a33"><path d="M24.98,37.6v1.55h1.75v-1.55c0-.28,.22-.5,.5-.5h1.55v-1.75h-1.55c-.28,0-.5-.22-.5-.5v-1.55h-1.75v1.55c0,.28-.22,.5-.5,.5h-1.55v1.75h1.55c.28,0,.5,.22,.5,.5Z" fill="#ffcd00" stroke-width="0"/><path d="M41.95,19.45v-3.32c0-1.77-1.44-3.21-3.21-3.21H14.92c-1.77,0-3.21,1.44-3.21,3.21v3.32h-2.83v5.84h2.41c.02,.33,.05,.67,.07,1l1.23,19.07c.22,2.14,.61,3.24,2.1,3.24h23.97c1.55,0,1.96-.99,2.28-3.22l1.35-19.09c.02-.33,.04-.67,.06-1h2.27v-5.84h-2.67Zm-9.82,16.96l-7.16,7.45-7.12-7.12c-2.16-2.16-2.3-5.15-.33-7.11,.91-.91,2.08-1.4,3.3-1.4,.06,0,.12,0,.18,0,1.27,.05,2.5,.61,3.48,1.58,.09,.09,.22,.15,.35,.15s.26-.05,.35-.15c2.04-2.04,5.03-2.11,6.96-.18,1.87,1.87,1.87,4.91,0,6.78Z" fill="#ffcd00" stroke-width="0"/><path d="M24.62,44.93c.09,.09,.22,.15,.35,.15h0c.13,0,.26-.06,.36-.15l7.5-7.81c2.26-2.26,2.26-5.93,0-8.19s-5.6-2.26-8.02-.15c-1.09-.95-2.42-1.49-3.79-1.55-1.55-.06-3.07,.54-4.23,1.69-2.37,2.37-2.23,5.96,.33,8.52l7.48,7.48Zm-7.11-15.3c.91-.91,2.08-1.4,3.3-1.4,.06,0,.12,0,.18,0,1.27,.05,2.5,.61,3.48,1.58,.09,.09,.22,.15,.35,.15s.26-.05,.35-.15c2.04-2.04,5.03-2.11,6.96-.18,1.87,1.87,1.87,4.91,0,6.78l-7.16,7.45-7.12-7.12c-2.16-2.16-2.3-5.15-.33-7.11Z" stroke-width="0"/><path d="M8.01,3.15H42.02v13.55h1V2.65c0-.28-.22-.5-.5-.5H7.51c-.28,0-.5,.22-.5,.5v14.05h1V3.15Z" stroke-width="0"/><path d="M21.43,37.1h1.55v1.55c0,.28,.22,.5,.5,.5h2.75c.28,0,.5-.22,.5-.5v-1.55h1.55c.28,0,.5-.22,.5-.5v-2.75c0-.28-.22-.5-.5-.5h-1.55v-1.55c0-.28-.22-.5-.5-.5h-2.75c-.28,0-.5,.22-.5,.5v1.55h-1.55c-.28,0-.5,.22-.5,.5v2.75c0,.28,.22,.5,.5,.5Zm.5-2.75h1.55c.28,0,.5-.22,.5-.5v-1.55h1.75v1.55c0,.28,.22,.5,.5,.5h1.55v1.75h-1.55c-.28,0-.5,.22-.5,.5v1.55h-1.75v-1.55c0-.28-.22-.5-.5-.5h-1.55v-1.75Z" stroke-width="0"/><path d="M43.37,16.7h-2.17v-2.32c0-2.32-1.89-4.21-4.21-4.21H13.17c-2.32,0-4.21,1.89-4.21,4.21v2.32h-2.33c-.28,0-.5,.22-.5,.5v6.84c0,.28,.22,.5,.5,.5h1.98l1.23,19.15c.16,1.56,.43,4.16,3.1,4.16h23.97c2.67,0,3.02-2.35,3.27-4.11l1.35-19.2h1.83c.28,0,.5-.22,.5-.5v-6.84c0-.28-.22-.5-.5-.5Zm-.5,6.84H7.13v-5.84H42.87v5.84ZM9.96,14.38c0-1.77,1.44-3.21,3.21-3.21h23.82c1.77,0,3.21,1.44,3.21,3.21v2.32H9.96v-2.32Zm29.23,29.25c-.33,2.22-.73,3.22-2.28,3.22H12.94c-1.49,0-1.88-1.1-2.1-3.24l-1.23-19.07h30.93l-1.35,19.09Z" stroke-width="0"/></g><g id="uuid-1ebe9ab5-79c0-4840-a8ce-5d384a84551e"></g></svg>