<?xml version="1.0" encoding="UTF-8"?><svg width="70" height="70" id="uuid-ddb381eb-8670-4c22-91b6-6d4db86c7451" xmlns="http://www.w3.org/2000/svg" viewBox="-10 -10 70 70"><rect x="-10" y="-10" width="70" height="70" fill="white"/><polygon points="25.74 49.48 25.74 22.03 18.98 22.03 18.98 49.48 19.89 49.48 24.82 49.48 25.74 49.48" fill="#ffcd00"/><path d="M28.35,12.23c2.69-1.83,5.38-3.67,8.07-5.5l-.42-1.33-9.76,.12-.32-1.02-12.14,3.81,2.74,8.74,1.62-.51v-1.17l4.93-1.55v1.17l5.59-1.75-.31-1Z" fill="#ffcd00" stroke-width="0"/><path d="M35.82,5.04l-.66-2.1c-.07-.23-.3-.4-.52-.38l-9.36,.1-.24-.77c-.04-.14-.14-.25-.26-.32-.13-.07-.27-.08-.41-.04L11.2,5.68c-.28,.09-.44,.39-.35,.68l3.06,9.77c.04,.14,.14,.25,.26,.32,.08,.04,.16,.06,.25,.06,.05,0,.11,0,.16-.02l2.48-.78v3.51h-.38c-.3,0-.54,.24-.54,.54v28.52c0,.3,.24,.54,.54,.54h7.84c.3,0,.54-.24,.54-.54V19.74c0-.3-.24-.54-.54-.54h-.38v-5.73l3.6-1.13c.28-.09,.44-.39,.35-.68l-.24-.77,7.74-5.26c.2-.13,.28-.38,.21-.61Zm-8.9,6.44l-12.14,3.81-2.74-8.74,12.14-3.81,2.74,8.74Zm-9.69,36.25V20.28h6.76v27.45h-6.76Zm5.85-28.52h-4.93v-3.84l4.93-1.55v5.39Zm4.46-9.37l-1.91-6.09,8.63-.1,.42,1.33-7.14,4.85Z" stroke-width="0"/></svg>