<?xml version="1.0" encoding="UTF-8"?><svg width="70" height="70" xmlns="http://www.w3.org/2000/svg" viewBox="-10 -10 70 70"><rect x="-10" y="-10" width="70" height="70" fill="white"/><g id="uuid-a2a3695b-7df1-4274-a305-4f0e08dd3a7d"><g><g><rect x="17.85" y="30.5" width="15.3" height="2.34" fill="#ffcd00"/><polygon points="15.73 40.29 15.73 38.7 8.63 38.7 8.85 40.29 15.73 40.29" fill="#ffcd00"/><polygon points="42.52 38.7 35.42 38.7 35.42 40.29 42.3 40.29 42.52 38.7" fill="#ffcd00"/><polygon points="35.56 14.4 47.89 14.4 28.13 3.91 35.56 14.4" fill="#ffcd00"/><polygon points="24.87 3.07 5.11 13.56 17.44 13.56 24.87 3.07" fill="#ffcd00"/></g><path d="M48.63,12.96L25.23,.54s-.03,0-.04-.01h-.02s-.05-.03-.07-.04c-.02,0-.04,0-.06,0-.02,0-.05,0-.07,0-.02,0-.04,0-.06,0-.03,0-.06,.02-.09,.03-.02,0-.03,0-.05,.01L1.37,12.96c-.2,.11-.31,.34-.25,.56s.26,.38,.49,.38H24.5v15.09H14.68c-.28,0-.5,.22-.5,.5s.22,.5,.5,.5h1.66v2.84c0,.28,.22,.5,.5,.5h7.65v14.35h-3.77c-.28,0-.5,.22-.5,.5,0,.13,.05,.24,.13,.33h-4.42l-1.07-7.72h.76c.28,0,.5-.22,.5-.5v-2.58c0-.28-.22-.5-.5-.5H7.88l-1.78-12.67c-.04-.27-.3-.47-.56-.43-.27,.04-.46,.29-.43,.56l1.83,13s-.01,.07,0,.1l.38,2.53v.05h0s.01,.03,.01,.05c.01,.04,.02,.09,.04,.13,0,.02,.02,.03,.03,.04,.02,.03,.05,.07,.08,.09,.03,.02,.06,.03,.09,.05,.02,.01,.04,.03,.06,.04,.06,.02,.11,.03,.18,.03h.38l-1.07,7.72H3.53c-.28,0-.5,.22-.5,.5s.22,.5,.5,.5H46.47c.28,0,.5-.22,.5-.5s-.22-.5-.5-.5h-3.59l-1.07-7.72h.38c.06,0,.12-.01,.18-.03,.02,0,.03-.02,.05-.03,.03-.02,.07-.03,.1-.06,.02-.02,.03-.04,.05-.06,.02-.02,.04-.04,.06-.07,.02-.03,.02-.06,.03-.09,0-.03,.02-.05,.03-.07h0v-.03l.38-2.55s0-.07,0-.11l1.82-12.99c.04-.27-.15-.53-.43-.56-.27-.03-.53,.15-.56,.43l-1.78,12.67h-7.74c-.28,0-.5,.22-.5,.5v2.58c0,.28,.22,.5,.5,.5h.76l-1.07,7.72h-4.42c.08-.09,.13-.2,.13-.33,0-.28-.22-.5-.5-.5h-3.77v-14.35h7.65c.28,0,.5-.22,.5-.5v-2.84h1.66c.28,0,.5-.22,.5-.5s-.22-.5-.5-.5h-9.82V13.9h22.89c.23,0,.43-.16,.49-.38s-.05-.46-.25-.56ZM15.13,38.2v1.58h-6.88l-.22-1.58h7.1Zm-5.93,2.58h4.65l1.07,7.72h-6.8l1.07-7.72Zm25.67-2.58h7.1l-.22,1.58h-6.88v-1.58Zm1.27,2.58h4.65l1.07,7.72h-6.8l1.07-7.72Zm-3.49-8.45h-15.3v-2.34h15.3v2.34ZM17.16,12.9L25,1.85l7.84,11.06h-15.67ZM23.37,2.41l-7.44,10.49H3.61L23.37,2.41Zm10.69,10.49L26.63,2.41l19.76,10.49h-12.32Z" stroke-width="0"/></g></g><g id="uuid-98500da4-5f72-401d-abcd-c9310a23a3bb"></g></svg>