<?xml version="1.0" encoding="utf-8"?> <!-- Generator: Adobe Illustrator 27.7.0, SVG Export Plug-In . SVG Version: 6.00 Build 0) --> <svg width="70" height="70" version="1.1" xmlns="http://www.w3.org/2000/svg" xmlns:xlink="http://www.w3.org/1999/xlink" x="0px" y="0px" viewBox="-10 -10 70 70" style="enable-background:new 0 0 50 50;" xml:space="preserve"><rect x="-10" y="-10" width="70" height="70" fill="white"/> <style type="text/css"> .st0{fill:#FFCD00;} .st1{display:none;} .st2{display:inline;fill:none;stroke:#EA008A;stroke-width:0.2;stroke-miterlimit:10;} .st3{font-family:'Roboto-Regular';} .st4{font-size:6px;} </style> <g id="Color"> <path class="st0" d="M25.5942,15.8296c0.2231-1.8813,0.4541-3.8262,1.354-5.6821c1.3242-2.729,3.7461-4.7153,6.6455-5.4492 c2.7451-0.6953,5.5503-0.2104,7.6958,1.3315c2.1455,1.541,3.5,4.0444,3.7168,6.8682c0.229,2.9824-0.8809,5.9116-3.0454,8.0371 c-1.4717,1.4458-3.2412,2.2842-4.9521,3.0942c-2.0126,0.9532-4.067,1.931-5.4977,3.8975c-0.0078,0.0083-0.0184,0.0121-0.0257,0.021 c-0.0099,0.0121-0.0125,0.027-0.0211,0.0397c-0.6606,0.9265-1.1846,2.0696-1.5024,3.5301 c-1.6235-1.0044-3.2471-2.0884-4.8345-3.2295c-1.4478-1.04-2.9204-2.1768-4.3853-3.3843c1.2919-0.7728,2.2112-1.6415,2.8799-2.5714 c0.0091-0.0119,0.0221-0.0188,0.0302-0.0317c0.0062-0.0098,0.0065-0.0211,0.0119-0.0312 C25.0603,20.2894,25.3322,18.0359,25.5942,15.8296z" stroke-width="0"/> <path class="st0" d="M26.3115,34.8564c-0.1558,0.4985-0.3916,0.9692-0.7007,1.3999c-0.7642,1.064-1.8975,1.7666-3.1904,1.978 c-1.293,0.2129-2.5908-0.0918-3.6558-0.8574c-2.1963-1.5781-2.6997-4.6494-1.1211-6.8462c0.3081-0.4292,0.6792-0.8027,1.103-1.1099 c0.0396-0.0287,0.0668-0.0667,0.0953-0.1035c1.1591,0.9252,2.3613,1.8412,3.5892,2.7236c1.3026,0.9359,2.632,1.8362,3.9534,2.6818 C26.3558,34.764,26.3273,34.8059,26.3115,34.8564z" stroke-width="0"/> </g> <g id="ICONS_00000031165542127692736420000002692518830807990202_"> <g> <path d="M32.8398,8.812c1.1792-0.7632,2.6743-0.729,3.8105,0.0874c1.1343,0.8149,1.644,2.2212,1.2979,3.5835 c-0.0684,0.2676,0.0938,0.5396,0.3613,0.6074c0.041,0.0107,0.0825,0.0156,0.1235,0.0156c0.2231,0,0.4268-0.1504,0.4839-0.377 c0.4487-1.7632-0.2124-3.5854-1.6831-4.6416c-1.4717-1.0591-3.4092-1.103-4.937-0.1152 c-0.2319,0.1499-0.2983,0.4595-0.1484,0.6914C32.2979,8.895,32.6069,8.9619,32.8398,8.812z" stroke-width="0"/> <path d="M35.937,23.4331c1.7856-0.8457,3.6328-1.7207,5.2246-3.2842c2.3755-2.333,3.5938-5.5503,3.3418-8.8271 c-0.2393-3.1187-1.7446-5.8906-4.1299-7.6045C37.9883,2.0039,34.8813,1.46,31.8481,2.229 c-3.1855,0.8066-5.8462,2.9868-7.2993,5.9819c-0.9736,2.0073-1.2148,4.0376-1.4478,6.0005 c-0.2461,2.0731-0.4786,3.9753-1.5186,5.6429c-5.8479-3.6411-12.4712-6.6886-13.9829-4.5848 c-1.4362,1.9995,2.9897,7.0378,8.9636,11.9243c-0.4683,0.3552-0.886,0.7721-1.2321,1.2539 c-0.0187,0.0261-0.0333,0.0538-0.0516,0.08c-3.3187-0.1979-6.3683,1.162-8.1794,3.6822 c-3.0439,4.2368-1.7153,10.418,2.9614,13.7788c1.9863,1.4268,4.2617,2.1191,6.4561,2.1191c2.9727,0,5.7964-1.271,7.5483-3.7085 c1.836-2.5559,2.1375-5.9195,0.8345-9.034c0.0069-0.0095,0.0161-0.0165,0.0229-0.0261c0.3501-0.4872,0.6146-1.0219,0.8016-1.5841 c4.9067,3.057,9.5872,5.2383,12.172,5.2379c0.814,0,1.4204-0.2163,1.7607-0.689c1.4889-2.0745-3.3973-7.2993-8.5969-11.6161 C32.3097,25.1584,34.0439,24.3298,35.937,23.4331z M24.0942,14.3296c0.2231-1.8813,0.4541-3.8262,1.354-5.6821 c1.3242-2.729,3.7461-4.7153,6.6455-5.4492c2.7451-0.6953,5.5503-0.2104,7.6958,1.3315c2.1455,1.541,3.5,4.0444,3.7168,6.8682 c0.229,2.9824-0.8809,5.9116-3.0454,8.0371c-1.4717,1.4458-3.2412,2.2842-4.9521,3.0942c-2.0126,0.9532-4.067,1.931-5.4977,3.8975 c-0.0078,0.0083-0.0184,0.0121-0.0257,0.021c-0.0099,0.0121-0.0125,0.027-0.0211,0.0397 c-0.6606,0.9265-1.1846,2.0696-1.5024,3.5301c-1.6235-1.0044-3.2471-2.0884-4.8345-3.2295 c-1.4478-1.04-2.9204-2.1768-4.3853-3.3843c1.2919-0.7728,2.2112-1.6415,2.8799-2.5714c0.0091-0.0119,0.0221-0.0188,0.0302-0.0317 c0.0062-0.0098,0.0065-0.0211,0.0119-0.0312C23.5603,18.7894,23.8322,16.5359,24.0942,14.3296z M20.9751,37.7299 c0.4321,1.4686,0.237,2.9292-0.564,4.0435c-1.5957,2.2236-5.0615,2.4741-7.7231,0.5605c-2.6626-1.9131-3.5293-5.2773-1.9326-7.499 c0.785-1.093,2.0826-1.7437,3.5822-1.8212c0.2762,1.4293,1.0711,2.761,2.3436,3.6757c1.0156,0.7295,2.2075,1.1108,3.4336,1.1108 C20.4001,37.8003,20.6876,37.7719,20.9751,37.7299z M23.2539,43.8159c-2.7246,3.7881-8.3799,4.3984-12.6084,1.3604 C6.416,42.1377,5.1904,36.582,7.9131,32.7925c1.5175-2.1119,4.0335-3.2975,6.8093-3.2762 c-0.353,0.802-0.5096,1.6569-0.4903,2.5038c-1.7825,0.1063-3.3339,0.902-4.2892,2.231c-1.918,2.6699-0.9487,6.6602,2.1611,8.8955 c1.3745,0.9873,2.9404,1.4692,4.4258,1.4692c1.8755,0,3.623-0.7686,4.6938-2.2588c0.9749-1.3575,1.2248-3.1131,0.722-4.8651 c0.8221-0.2652,1.577-0.6863,2.2057-1.2738C25.1039,38.874,24.7943,41.6713,23.2539,43.8159z M24.8115,33.3564 c-0.1558,0.4985-0.3916,0.9692-0.7007,1.3999c-0.7642,1.064-1.8975,1.7666-3.1904,1.978 c-1.293,0.2129-2.5908-0.0918-3.6558-0.8574c-2.1963-1.5781-2.6997-4.6494-1.1211-6.8462 c0.3081-0.4292,0.6792-0.8027,1.103-1.1099c0.0396-0.0287,0.0668-0.0667,0.0953-0.1035c1.1591,0.9252,2.3613,1.8412,3.5892,2.7236 c1.3026,0.9359,2.632,1.8362,3.9534,2.6818C24.8558,33.264,24.8273,33.3059,24.8115,33.3564z M38.8457,37.7207 c-0.8828,1.2256-7.9043-1.2188-17.3306-7.9922c-9.4277-6.7739-13.9858-12.647-13.103-13.8755 c0.6286-0.8784,4.9466,0.066,12.5821,4.8147c-0.6755,0.8036-1.591,1.5449-2.8633,2.2126 c-0.1475,0.0776-0.2471,0.2236-0.2646,0.3896c-0.0181,0.1655,0.0483,0.3296,0.1758,0.4365c1.667,1.397,3.3501,2.707,5.002,3.894 c1.8096,1.3003,3.665,2.5283,5.5156,3.6499c0.0796,0.0479,0.1694,0.0723,0.2593,0.0723c0.0718,0,0.1431-0.0151,0.21-0.0464 c0.1514-0.0698,0.2573-0.2104,0.2837-0.3745c0.225-1.4061,0.6304-2.5019,1.1689-3.3936 C37.2496,33.1349,39.4634,36.8596,38.8457,37.7207z" stroke-width="0"/> </g> </g> <g id="Margin" class="st1"> <rect x="1" y="1" class="st2" /> </g> <g id="Guides" class="st1"> </g> <g id="LABELS"> <g> <g> <g> <g> <g> </g> </g> </g> </g> </g> </g> </svg> 