<?xml version="1.0" encoding="UTF-8"?><svg width="70" height="70" xmlns="http://www.w3.org/2000/svg" viewBox="-10 -10 70 70"><rect x="-10" y="-10" width="70" height="70" fill="white"/><g id="uuid-1099340f-372c-4eb8-a90e-2df0e27409e5"><g><path d="M23.86,22.82c-.71,.23-1.04,.75-1.63,1.71-.25,.4-.54,.86-.9,1.38-.8,1.12-1.75,2.17-2.84,3.12,4.77,.27,8.38-.75,8.96-2.57,.23-.74,.08-1.96-.66-2.78-.73-.8-1.96-1.16-2.93-.85Z" fill="none" stroke-width="0"/><path d="M35.07,40.62c-2.21-.75-4.96-1.68-5.8-4.08-1-2.84,1.47-5.57,4.08-8.45,2.46-2.71,5.19-5.74,5.65-9.36,.03-.98-.07-2.29-.5-3.73-1.09,.99-2.13,1.91-3.11,2.73-.46,.39-.94,.78-1.43,1.18-.6,.48-1.19,.94-1.78,1.38-2.04,1.54-3.61,2.52-4.5,2.91-.05-.07-.1-.14-.16-.2-.07-.08-.15-.14-.22-.21,.46-.86,1.57-2.33,3.28-4.24,.45-.5,.91-1,1.39-1.51,.48-.51,.96-1,1.43-1.47,.98-.98,2.05-2.01,3.24-3.1,.15-.13,.29-.26,.43-.39-2.19-3-5.48-4.78-6-5.05-2.28-1.18-4.74-1.7-7.2-1.7-6.21,0-12.47,3.33-16.16,7.82-5.7,6.94-6.17,17.41-1.11,24.9,5.6,8.29,15.34,9.06,18.19,9.09,5.35,.05,10.88-1.85,12.7-3.69,.39-.4,.6-.77,.59-1.09-.02-.75-1.48-1.24-3.03-1.77ZM23.2,8.71c.34-.08,.68-.12,1.02-.12,1.94,0,3.7,1.32,4.18,3.28,.27,1.12,.09,2.27-.5,3.25-.6,.98-1.54,1.67-2.66,1.95-1.12,.27-2.27,.09-3.25-.5-.98-.6-1.67-1.54-1.95-2.65-.56-2.3,.85-4.63,3.15-5.2Zm-11.9,26.54c-.84,.21-1.7,.07-2.44-.38-.74-.45-1.25-1.15-1.46-1.99-.42-1.73,.64-3.47,2.37-3.9,.26-.06,.51-.09,.76-.09,1.45,0,2.77,.99,3.13,2.46,.42,1.73-.64,3.48-2.37,3.9Zm.54-12.43c-1.98,.48-3.98-.73-4.47-2.71-.23-.96-.08-1.95,.43-2.8,.51-.84,1.32-1.44,2.28-1.67,.29-.07,.59-.11,.88-.11,1.66,0,3.18,1.13,3.59,2.82,.48,1.98-.73,3.99-2.71,4.47Zm10.1,18.62c-.68,.16-1.37,.06-1.97-.3s-1.01-.93-1.18-1.61-.06-1.37,.3-1.97,.93-1.01,1.61-1.18c.21-.05,.41-.07,.62-.07,1.17,0,2.24,.8,2.53,1.98,.34,1.39-.52,2.8-1.91,3.14Zm5.49-14.99c-.58,1.82-4.18,2.84-8.96,2.57,1.09-.95,2.04-2,2.84-3.12,.37-.51,.65-.97,.9-1.38,.6-.96,.92-1.48,1.63-1.71,.97-.31,2.2,.05,2.93,.85,.74,.82,.89,2.04,.66,2.78Z" fill="#ffcd00" stroke-width="0"/><path d="M9.86,14.67c-1.22,.3-2.25,1.05-2.9,2.12-.65,1.07-.85,2.33-.55,3.55,.3,1.22,1.05,2.25,2.12,2.9,.74,.45,1.58,.68,2.43,.68,.37,0,.75-.04,1.12-.14,1.22-.3,2.25-1.05,2.9-2.12s.85-2.33,.55-3.55c-.61-2.51-3.16-4.06-5.68-3.45Zm1.99,8.15c-1.98,.48-3.98-.73-4.47-2.71-.23-.96-.08-1.95,.43-2.8,.51-.84,1.32-1.44,2.28-1.67,.29-.07,.59-.11,.88-.11,1.66,0,3.18,1.13,3.59,2.82,.48,1.98-.73,3.99-2.71,4.47Z" stroke-width="0"/><path d="M9.54,28.02c-2.26,.55-3.65,2.84-3.1,5.11,.27,1.1,.95,2.02,1.91,2.61,.67,.41,1.42,.62,2.18,.62,.34,0,.68-.04,1.01-.12,2.26-.55,3.65-2.84,3.1-5.11-.55-2.26-2.84-3.65-5.11-3.1Zm1.77,7.24c-.84,.21-1.7,.07-2.44-.38-.74-.45-1.25-1.15-1.46-1.99-.42-1.73,.64-3.47,2.37-3.9,.26-.06,.51-.09,.76-.09,1.45,0,2.77,.99,3.13,2.46,.42,1.73-.64,3.48-2.37,3.9Z" stroke-width="0"/><path d="M24.83,38.06c-.47-1.93-2.42-3.12-4.35-2.64-.93,.23-1.72,.81-2.22,1.63s-.65,1.79-.42,2.72c.4,1.64,1.88,2.75,3.5,2.75,.28,0,.57-.03,.86-.1,1.93-.47,3.11-2.42,2.64-4.35h0Zm-2.88,3.38c-.68,.16-1.37,.06-1.97-.3s-1.01-.93-1.18-1.61-.06-1.37,.3-1.97,.93-1.01,1.61-1.18c.21-.05,.41-.07,.62-.07,1.17,0,2.24,.8,2.53,1.98,.34,1.39-.52,2.8-1.91,3.14Z" stroke-width="0"/><path d="M29.37,11.63c-.69-2.84-3.56-4.59-6.41-3.89-2.84,.69-4.58,3.57-3.89,6.41,.34,1.37,1.19,2.54,2.4,3.27,.84,.51,1.78,.77,2.74,.77,.42,0,.85-.05,1.27-.15,1.38-.34,2.54-1.19,3.27-2.4s.95-2.63,.62-4.01Zm-1.47,3.49c-.6,.98-1.54,1.67-2.66,1.95-1.12,.27-2.27,.09-3.25-.5-.98-.6-1.67-1.54-1.95-2.65-.56-2.3,.85-4.63,3.15-5.2,.34-.08,.68-.12,1.02-.12,1.94,0,3.7,1.32,4.18,3.28,.27,1.12,.09,2.27-.5,3.25Z" stroke-width="0"/><path d="M49.15,3.12c-.43-.47-1.35-.62-4.88,1.83-2.11,1.47-4.68,3.54-7.31,5.9-2.3-3.72-6.31-5.9-6.91-6.21C21.55,.26,10.87,4.45,5.46,11.03-.52,18.29-1.01,29.27,4.29,37.12c5.87,8.7,16.03,9.49,19.01,9.53,.09,0,.18,0,.28,0,5.1,0,10.94-1.76,13.14-3.98,.6-.6,.89-1.21,.88-1.81-.03-1.44-1.73-2.02-3.7-2.69-2.11-.72-4.5-1.53-5.18-3.46-.8-2.28,1.37-4.68,3.88-7.45,2.79-3.09,5.93-6.56,5.98-10.97,.41-.37,.73-.65,.88-.79,2.97-2.73,5.63-5.46,7.47-7.68,2.74-3.31,2.67-4.23,2.24-4.7ZM31.85,26.59c-2.61,2.88-5.07,5.61-4.08,8.45,.84,2.39,3.59,3.33,5.8,4.08,1.55,.53,3.01,1.02,3.03,1.77,0,.31-.2,.69-.59,1.09-1.82,1.83-7.35,3.73-12.7,3.69-2.85-.04-12.59-.8-18.19-9.09C.06,29.07,.53,18.6,6.23,11.66c3.7-4.49,9.95-7.82,16.16-7.82,2.46,0,4.91,.52,7.2,1.7,.58,.3,4.51,2.42,6.63,5.99-.08,.07-.16,.14-.23,.21-.94,.86-7.66,7.09-9.45,10.49-.92-.51-2.02-.67-2.98-.36-1.06,.34-1.53,1.09-2.17,2.13-.24,.39-.52,.83-.87,1.32-.98,1.37-2.19,2.61-3.61,3.71-.16,.13-.23,.34-.18,.53s.23,.34,.43,.36c.99,.1,1.93,.14,2.83,.14,4.55,0,7.75-1.21,8.41-3.31,.23-.74,.19-1.79-.22-2.73,2.56-1.08,6.8-4.6,9.32-6.79-.46,3.61-3.2,6.64-5.65,9.36Zm-4.32-3.59c-.07-.08-.15-.14-.22-.21,.46-.86,1.57-2.33,3.28-4.24l1.6,1.74c-2.04,1.54-3.61,2.52-4.5,2.91-.05-.07-.1-.14-.16-.2Zm-.09,3.45c-.58,1.82-4.18,2.84-8.96,2.57,1.09-.95,2.04-2,2.84-3.12,.37-.51,.65-.97,.9-1.38,.6-.96,.92-1.48,1.63-1.71,.97-.31,2.2,.05,2.93,.85,.74,.82,.89,2.04,.66,2.78Zm3.83-8.64c.45-.49,.93-.99,1.45-1.52l1.91,2.08c-.57,.47-1.12,.91-1.64,1.31l-1.72-1.87Zm7.5-3.05c-1.19,1.09-2.31,2.08-3.37,2.97l-1.97-2.15c.98-.98,2.05-2.01,3.24-3.1,6.09-5.59,10.63-8.54,11.7-8.63-.18,1.07-3.52,5.34-9.6,10.92Z" stroke-width="0"/></g></g><g id="uuid-54a4868c-1cda-4651-8a9d-fc1983000502"></g></svg>