<?xml version="1.0" encoding="UTF-8"?><svg width="70" height="70" id="uuid-e5c8f770-4051-4036-9149-580293fec283" xmlns="http://www.w3.org/2000/svg" viewBox="-10 -10 70 70"><rect x="-10" y="-10" width="70" height="70" fill="white"/><path d="M30.79,8.7c-.44-1.05-1.65-1.56-2.7-1.14l-1.15,.46c-.76,.31-1.64,.3-2.39-.03l-.67-.29c-1.19-.51-2.57-.43-3.7,.22-1,.58-2.22,.56-3.2-.05l-1.08-.67-.26-3.9h15.01l1,2.76,1.38-2.76h5.7l-.22,3.21-.48,.36c-.59,.45-1.35,.61-2.08,.44l-.25-.07c-.95-.22-1.91,.23-2.35,1.1l-.2,.4c-.42,.84-.33,1.82,.23,2.48,.31,.37,.48,.82,.48,1.3,0,.64-.29,1.23-.8,1.62s-1.17,.52-1.81,.35c-.67-.18-1.22-.73-1.4-1.4-.19-.7-.03-1.4,.44-1.92,.64-.72,.83-1.66,.5-2.47Z" fill="#ffcd00" stroke-width="0"/><path d="M16.61,26.51v3.41c0,.69,.47,1.29,1.14,1.46l1.29,.31c3.36,.83,5.71,3.82,5.71,7.29v5.74c.26-.37,.69-.61,1.18-.61,.81,0,1.46,.65,1.46,1.45s-.65,1.46-1.46,1.46c-.49,0-.92-.24-1.18-.62v.75c0,1.34,1.09,2.43,2.43,2.43s2.44-1.09,2.44-2.43v-8.17c0-3.47,2.35-6.46,5.71-7.29l1.29-.31c.67-.17,1.14-.77,1.14-1.46v-3.41H16.61Z" fill="#ffcd00" stroke-width="0"/><g><g><path d="M24.48,45.56c0,.32,.1,.61,.27,.84v-1.68c-.17,.24-.27,.52-.27,.84Z" stroke-width="0"/><path d="M25.93,47.02c.81,0,1.46-.65,1.46-1.46s-.65-1.45-1.46-1.45c-.49,0-.92,.24-1.18,.61v1.68c.26,.37,.69,.62,1.18,.62Zm0-1.91c.26,0,.46,.2,.46,.45s-.2,.46-.46,.46-.45-.2-.45-.46,.2-.45,.45-.45Z" stroke-width="0"/></g><path d="M15.36,16.89v7.37h21.15v-7.37H15.36Zm4.07-9.36c-1.31,.77-2.93,.74-4.23-.06l-.46-.29,.58,8.71h21.23l.63-9.34c-.81,.52-1.78,.7-2.71,.48l-.26-.06c-.49-.12-.99,.11-1.21,.56l-.21,.41c-.24,.48-.2,1.03,.1,1.38,.47,.55,.72,1.24,.72,1.95,0,.96-.43,1.84-1.19,2.42-.54,.41-1.19,.63-1.86,.63-.27,0-.55-.04-.82-.11-1.01-.27-1.84-1.1-2.11-2.11-.27-1.03-.03-2.07,.66-2.85,.39-.43,.51-.96,.32-1.42-.22-.55-.85-.81-1.4-.59l-1.14,.46c-1.01,.41-2.17,.39-3.17-.04l-.67-.29c-.9-.39-1.95-.33-2.8,.16Zm3.07,30.2c0-3-2.03-5.6-4.95-6.31l-1.29-.32c-1.12-.28-1.9-1.28-1.9-2.43v-12.28L13.32,1.05H30.1l.45,1.24,.62-1.24h7.38l-1.04,15.36v12.26c0,1.15-.78,2.15-1.9,2.43l-1.29,.32c-2.92,.71-4.95,3.31-4.95,6.31v8.17c0,1.89-1.54,3.43-3.43,3.43s-3.44-1.54-3.44-3.43v-8.17ZM15.73,6.62c.98,.61,2.2,.63,3.2,.05,1.13-.65,2.51-.73,3.7-.22l.67,.29c.75,.33,1.63,.34,2.39,.03l1.15-.46c1.05-.42,2.26,.09,2.7,1.14,.33,.81,.14,1.75-.5,2.47-.47,.52-.63,1.22-.44,1.92,.18,.67,.73,1.22,1.4,1.4,.64,.17,1.3,.04,1.81-.35s.8-.98,.8-1.62c0-.48-.17-.93-.48-1.3-.56-.66-.65-1.64-.23-2.48l.2-.4c.44-.87,1.4-1.32,2.35-1.1l.25,.07c.73,.17,1.49,.01,2.08-.44l.48-.36,.22-3.21h-5.7l-1.38,2.76-1-2.76H14.39l.26,3.9,1.08,.67Zm2.06,23.82c3.36,.83,5.71,3.82,5.71,7.29v8.17c0,1.34,1.09,2.43,2.43,2.43s2.44-1.09,2.44-2.43v-8.17c0-3.47,2.35-6.46,5.71-7.29l1.29-.31c.67-.17,1.14-.77,1.14-1.46v-3.41H15.36v3.41c0,.69,.47,1.29,1.14,1.46l1.29,.31Z" stroke-width="0"/></g></svg>