<?xml version="1.0" encoding="UTF-8"?><svg width="70" height="70" xmlns="http://www.w3.org/2000/svg" viewBox="-10 -10 70 70"><rect x="-10" y="-10" width="70" height="70" fill="white"/><g id="uuid-9009cdd2-e34f-4d94-9812-4992eb9665e1"><path d="M28.78,16.61c-.22-.27-.51-.48-.84-.59,.49-.09,.92-.21,1.25-.34l2.45-.56,.39-1.63c.03-.14,.12-.25,.25-.32,.12-.07,.27-.08,.41-.03l2.92,1.02,2.67-.75,.19-1.07c.03-.16,.13-.29,.27-.36,.14-.07,.31-.07,.45,0l1.54,.81,3.52-.87c-1.25-.74-4.11-2.19-7.97-2.13-4.84,.08-8.21,2.49-9.47,3.53-.44-1.33-1.57-4.09-4.29-6.5-2.95-2.61-6.1-3.33-7.44-3.56l2.11,2.95,1.69,.38c.16,.04,.29,.14,.35,.29s.05,.31-.03,.45l-.54,.93,1.07,1.49,1.89,.49c.15,.04,.27,.15,.33,.29,.06,.14,.05,.3-.02,.44l-.58,1.05,.33,.46c.31,.09,.65,.22,1.01,.39,.52,.24,.95,.51,1.3,.76h0c-.14,.19-.24,.4-.3,.63-3.44-1.3-6.27-1.79-7.71-1.79-1.11,0-2.14,.16-2.14,.16-.6,.09-1.2,.21-1.82,.39-3.33,.93-5.66,2.85-7.03,4.3l3.62-.17,1.24-1.21c.11-.11,.28-.16,.43-.13,.16,.03,.29,.13,.36,.27l.49,.97,2.77-.04,2.5-1.81c.12-.08,.26-.11,.4-.08,.14,.03,.26,.12,.33,.24l.84,1.45h4.27c-.15,.19-.26,.43-.31,.69-.33,.04-.66,.09-.99,.13-2.14,.84-4.6,2.3-6.57,4.86-2.11,2.74-2.83,5.67-3.06,7.66l2.8-2.3,.27-1.71c.03-.16,.12-.29,.27-.37,.14-.07,.31-.07,.45,0l.96,.48,1.41-1.16,.36-1.92c.03-.15,.13-.28,.26-.35,.13-.07,.3-.07,.44,0l1.08,.51,1.46-1.2,.38-1.53c.07-.27,.34-.43,.61-.36l1.01,.25c.29-.27,.58-.53,.87-.8,.8-.11,1.43-.72,1.56-1.51,.17,.86,.92,1.5,1.83,1.5,.4,0,.76-.13,1.07-.34l1.54,.97,.99-.32c.26-.08,.54,.06,.63,.32l.48,1.5,1.54,1.1,1.05-.58c.14-.08,.3-.08,.44-.02,.14,.06,.25,.18,.29,.33l.49,1.89,1.49,1.07,.93-.54c.14-.08,.31-.09,.45-.03,.15,.06,.25,.19,.29,.35l.38,1.69,2.95,2.11c-.28-1.54-1.07-4.61-3.56-7.44-3.33-3.77-7.65-4.81-9.98-5.1Zm-4.94-.58h.01s.07-.14,.12-.27c.1,.13,.21,.26,.34,.36-.15-.05-.3-.08-.47-.1Zm1.65,1.45h0Z" fill="#ffcd00" stroke-width="0"/><path d="M44.28,10.2c-1.63-1.12-5.02-2.97-9.52-2.92-3.83,.06-6.88,1.49-9.01,2.95-.82-1.9-2.09-3.92-4.08-5.67C18.3,1.6,14.5,.8,12.53,.59c-.21-.03-.39,.08-.49,.25-.1,.17-.09,.38,.03,.54l2.91,4.06c.07,.1,.18,.17,.3,.2l1.21,.27-.36,.62c-.1,.17-.09,.38,.03,.54l1.36,1.9c.07,.1,.17,.16,.28,.19l1.44,.37-.42,.76c-.04,.07-.05,.15-.05,.23-2.34-.62-5.29-.89-8.52,.01-4.32,1.21-7.05,3.97-8.3,5.51-.12,.15-.15,.36-.06,.54,.09,.17,.26,.27,.45,.27h.02l4.99-.23c.12,0,.24-.06,.33-.14l.89-.87,.32,.64c.09,.17,.24,.31,.45,.28l3.25-.04c.1,0,.2-.03,.29-.09l2.18-1.58,.71,1.24c.09,.17,.25,.26,.46,.25l.58-.04c-1.63,.93-3.29,2.24-4.72,4.09-2.73,3.55-3.27,7.4-3.35,9.38,0,.2,.1,.38,.28,.47,.07,.03,.15,.05,.22,.05,.11,0,.23-.04,.32-.11l3.85-3.17c.09-.08,.16-.19,.18-.31l.19-1.23,.64,.32c.18,.09,.39,.06,.54-.06l1.8-1.49c.09-.07,.15-.18,.17-.29l.28-1.46,.78,.37c.17,.08,.38,.06,.53-.07l1.83-1.51c.08-.07,.14-.16,.17-.26l.3-1.2,.77,.19c.15,.04,.32,0,.44-.1l2-1.65c2.11,4.19,3.49,8.67,4.1,13.35,.75,5.71,.29,11.67-1.31,17.22-.08,.27,.08,.54,.34,.62,.05,.01,.09,.02,.14,.02,.22,0,.42-.14,.48-.36,1.64-5.69,2.1-11.78,1.34-17.63-.59-4.48-1.86-8.79-3.79-12.84,.2,.06,.41,.1,.64,.1,.19,0,.38-.03,.56-.08l1.53,1.1c.13,.09,.29,.12,.44,.07l.75-.24,.38,1.18c.03,.1,.1,.19,.18,.25l1.93,1.38c.16,.11,.37,.12,.53,.03l.76-.42,.37,1.44c.03,.11,.1,.21,.19,.28l1.9,1.36c.16,.12,.37,.13,.54,.02l.62-.36,.27,1.21c.03,.12,.1,.22,.2,.3l4.06,2.91c.09,.06,.19,.09,.29,.09,.09,0,.17-.02,.25-.07,.17-.1,.27-.29,.25-.48-.21-1.97-1-5.77-3.97-9.14-2.49-2.82-5.51-4.21-7.98-4.9l.63-.14c.18-.04,.33-.19,.37-.37l.33-1.39,2.54,.89c.1,.04,.2,.04,.3,0l3.12-.88c.18-.05,.32-.2,.36-.39l.13-.71,1.1,.58c.11,.06,.23,.07,.35,.04l4.85-1.19c.19-.05,.34-.2,.37-.4,.04-.19-.05-.39-.21-.5Zm-5.06,1.08l-1.54-.81c-.14-.07-.31-.08-.45,0-.14,.07-.24,.2-.27,.36l-.19,1.07-2.67,.75-2.92-1.02c-.14-.05-.28-.04-.41,.03-.12,.07-.21,.18-.25,.32l-.39,1.63-2.45,.56c-.63-.09-1.16-.13-1.56-.15,.13-.29,.2-.6,.2-.94,0-.61-.24-1.17-.63-1.59,2.01-1.51,5.1-3.16,9.08-3.22,3.47-.06,6.23,1.12,7.97,2.13l-3.52,.87Zm-1.34,14.26l-.38-1.69c-.04-.16-.14-.28-.29-.35-.15-.06-.31-.05-.45,.03l-.93,.54-1.49-1.07-.49-1.89c-.04-.15-.15-.27-.29-.33-.14-.06-.3-.05-.44,.02l-1.05,.58-1.54-1.1-.48-1.5c-.08-.26-.37-.41-.63-.32l-.99,.32-.92-.66c.49-.43,.8-1.05,.8-1.76,0-.41-.12-.79-.3-1.13,2.51,.42,6.28,1.61,9.25,4.98,2.29,2.59,3.2,5.47,3.56,7.44l-2.95-2.11Zm-17.31-6.84c-.27-.07-.54,.1-.61,.36l-.38,1.53-1.46,1.2-1.08-.51c-.14-.07-.3-.06-.44,0-.14,.07-.24,.2-.26,.35l-.36,1.92-1.41,1.16-.96-.48c-.14-.07-.31-.07-.45,0-.14,.07-.24,.21-.27,.37l-.27,1.71-2.8,2.3c.23-1.99,.95-4.92,3.06-7.66,1.97-2.56,4.42-4.02,6.57-4.86l.4-.02c-.04,.17-.07,.35-.07,.53,0,1.13,.8,2.07,1.85,2.3l-.04,.03-1.01-.25Zm-5.27-5.1c-.14-.03-.28,0-.4,.08l-2.5,1.81-2.77,.04-.49-.97c-.07-.14-.21-.24-.36-.27-.16-.03-.32,.02-.43,.13l-1.24,1.21-3.62,.17c1.38-1.46,3.71-3.37,7.03-4.3,1.39-.39,2.72-.54,3.97-.54,3.07,0,5.61,.94,7.19,1.71-.02,.14-.04,.27-.04,.42,0,.44,.13,.85,.34,1.2-.63,.04-1.18,.33-1.58,.77l-3.91,.24-.84-1.45c-.07-.12-.19-.21-.33-.24Zm4.54-3.1l.58-1.05c.08-.14,.08-.3,.02-.44-.06-.14-.18-.25-.33-.29l-1.89-.49-1.07-1.49,.54-.93c.08-.14,.09-.3,.03-.45s-.19-.25-.35-.29l-1.69-.38-2.11-2.95c1.97,.36,4.85,1.28,7.44,3.56,1.93,1.71,3.15,3.68,3.92,5.52-.03,.02-.06,.05-.09,.07-.27-.11-.56-.17-.87-.17-.8,0-1.5,.4-1.93,1.01-.53-.26-1.16-.52-1.87-.78l-.33-.46Zm2.28,4.77c.75,0,1.35,.61,1.35,1.35s-.61,1.35-1.35,1.35-1.35-.61-1.35-1.35,.61-1.35,1.35-1.35Zm1.85-3.53c.75,0,1.35,.61,1.35,1.35s-.61,1.35-1.35,1.35-1.35-.61-1.35-1.35,.61-1.35,1.35-1.35Zm.65,4.63c0-.75,.61-1.35,1.35-1.35s1.35,.61,1.35,1.35-.61,1.35-1.35,1.35-1.35-.61-1.35-1.35Z" stroke-width="0"/></g><g id="uuid-9d2d7e70-9b06-44ce-8634-a17d4936943a"></g></svg>