<?xml version="1.0" encoding="UTF-8"?><svg width="70" height="70" xmlns="http://www.w3.org/2000/svg" viewBox="-10 -10 70 70"><rect x="-10" y="-10" width="70" height="70" fill="white"/><g id="uuid-08d944c3-98d8-4d1b-b1de-6d6d7b5ea4e3"><path d="M49.27,9.39c-.35-.17-2.1,.81-3.51,1.59-3.94,2.19-10.59,5.85-18.75,5.75-1.38-.06-2.32-.12-3.19-.18-1.39-.09-2.59-.17-5.11-.21-.18,0-.36,0-.54,0-5.77,.22-10.47,5.15-10.47,11.01s4.94,11.01,11.02,11.01c3.08,0,5.94-1.25,8.03-3.52,0,0,.01,0,.02-.02,0,0,0-.02,.02-.03,.06-.07,.12-.13,.19-.19,.12-.13,.22-.23,.29-.31,.69-.78,2.17-1.57,3.18-1.71,.04,0,3.36-.5,7.88-6.92,1.63-2.31,3.4-4.45,5.11-6.52,3.17-3.83,5.9-7.13,5.89-9.45,0-.25-.05-.32-.05-.32Z" fill="#ffcd00" stroke-width="0"/><path d="M48.03,6.78c-.82-.48-2.13,.25-4.51,1.57-3.86,2.14-10.31,5.7-18.24,5.63-1.36-.06-2.28-.12-3.15-.18-1.25-.08-2.34-.16-4.36-.2,.11-.21,.17-.45,.17-.69,0-.95-.77-1.72-1.72-1.72-8.15,0-14.79,6.62-14.79,14.75s6.63,14.75,14.79,14.75c2.95,0,5.83-.88,8.25-2.5-.21,1.53,.12,2.77,.99,3.71,1.11,1.2,2.75,1.45,3.93,1.45,.72,0,1.27-.09,1.41-.12,.45-.08,.84-.34,1.1-.72,.26-.38,.36-.84,.27-1.29-.08-.45-.34-.84-.72-1.1-.38-.26-.84-.35-1.29-.27-.67,.12-1.85,.08-2.18-.28-.15-.16-.22-.64,.02-1.51,.75-2.75,1.17-4.76-.4-5.61-.06-.03-.13-.06-.19-.09,.48-.26,1-.46,1.39-.52,.15-.02,3.75-.48,8.58-7.34,1.6-2.28,3.36-4.4,5.06-6.45,3.29-3.98,6.13-7.41,6.12-10.1,0-.57-.19-.97-.54-1.18Zm-20.98,31.02c-.31,1.14-.24,1.97,.21,2.46,.75,.81,2.53,.69,3.1,.58,.19-.04,.38,0,.54,.11,.16,.11,.27,.27,.3,.46,.04,.19,0,.38-.11,.54s-.27,.27-.46,.3c-.23,.04-2.99,.53-4.43-1.03-.81-.88-.99-2.16-.54-3.81l.08-.3c.06-.21-.03-.43-.21-.55-.08-.05-.18-.08-.27-.08-.11,0-.22,.04-.32,.11-2.44,1.99-5.54,3.09-8.72,3.09-7.6,0-13.79-6.17-13.79-13.75s6.19-13.75,13.79-13.75c.4,0,.72,.32,.72,.72s-.44,.69-.84,.69c-.07,0-.13,.01-.18,.04-6.09,.48-10.97,5.74-10.97,11.97,0,6.62,5.39,12.01,12.02,12.01,3.37,0,6.48-1.36,8.77-3.84,.01-.01,.02-.03,.03-.05,0,0,.01,0,.02-.01h.01l.03-.04,.1-.11c.39-.36,.84-.45,1.22-.25,.74,.4,.72,1.49-.09,4.46Zm14.63-20.39c-1.71,2.07-3.48,4.21-5.11,6.52-4.52,6.42-7.84,6.92-7.88,6.92-1.01,.14-2.49,.93-3.18,1.71-.06,.08-.16,.18-.29,.31-.06,.06-.13,.12-.19,.19,0,0-.01,.02-.02,.03,0,0-.02,0-.02,.02-2.09,2.27-4.95,3.52-8.03,3.52-6.07,0-11.02-4.94-11.02-11.01s4.7-10.79,10.47-11.01h0c.18,0,.36,0,.54,0,2.52,.03,3.72,.11,5.11,.21,.87,.06,1.81,.12,3.19,.18,8.16,.1,14.81-3.56,18.75-5.75,1.41-.78,3.16-1.76,3.51-1.59,0,0,.05,.07,.05,.32,.01,2.32-2.73,5.63-5.89,9.45Z" stroke-width="0"/><path d="M38.82,14.61c-.07,.06-4.96,4.44-10.52,6.89l1.69-2.79c.14-.24,.07-.54-.17-.69-.24-.14-.54-.07-.69,.17l-2.26,3.74c-.03,.05-.05,.11-.06,.17-1.65,.6-3.32,1-4.92,1.02-7.91,.08-13.7,4.75-13.94,4.95-.21,.17-.24,.49-.07,.7,.1,.12,.24,.18,.39,.18,.11,0,.22-.04,.32-.11,.04-.03,3.05-2.45,7.56-3.81l4.39,1.4c.05,.02,.1,.02,.15,.02,.21,0,.41-.14,.48-.35,.08-.26-.06-.54-.32-.63l-2.88-.92c1.24-.26,2.56-.43,3.94-.44,7.92-.08,17.2-8.41,17.59-8.76,.2-.19,.22-.5,.03-.71-.19-.2-.5-.22-.71-.03Z" stroke-width="0"/></g><g id="uuid-5b9a14ae-1c75-4e73-9131-e4856143909f"></g></svg>