<?xml version="1.0" encoding="UTF-8"?><svg width="70" height="70" id="uuid-e973dd23-a983-4613-94bc-8ce5666e5796" xmlns="http://www.w3.org/2000/svg" viewBox="-10 -10 70 70"><rect x="-10" y="-10" width="70" height="70" fill="white"/><path d="M42.34,13.82l-13.13-.06h-.87l-.02-12.03H7.63V48.27H42.37c0-11.48-.02-22.96-.03-34.45Z" fill="#ffcd00" stroke-width="0"/><g><path d="M43.38,14.7s0-.04-.01-.06c-.02-.08-.06-.16-.12-.23L29.68,.84c-.06-.06-.14-.1-.23-.12-.02,0-.04,0-.06-.01-.02,0-.04-.01-.07-.01H7.1c-.28,0-.5,.22-.5,.5V48.8c0,.28,.22,.5,.5,.5H42.9c.28,0,.5-.22,.5-.5V14.76s0-.04-.01-.06ZM7.6,48.3V1.7H28.83V14.76c0,.28,.22,.5,.5,.5h13.06V48.3H7.6ZM29.83,14.26V2.4l11.86,11.86h-11.86Z" stroke-width="0"/><path d="M12.53,10.23h12.47c.28,0,.5-.22,.5-.5s-.22-.5-.5-.5H12.53c-.28,0-.5,.22-.5,.5s.22,.5,.5,.5Z" stroke-width="0"/><path d="M36.95,20.25H12.53c-.28,0-.5,.22-.5,.5s.22,.5,.5,.5h24.42c.28,0,.5-.22,.5-.5s-.22-.5-.5-.5Z" stroke-width="0"/><path d="M36.95,25.72H12.53c-.28,0-.5,.22-.5,.5s.22,.5,.5,.5h24.42c.28,0,.5-.22,.5-.5s-.22-.5-.5-.5Z" stroke-width="0"/><path d="M27.88,41.61H12.53c-.28,0-.5,.22-.5,.5s.22,.5,.5,.5h15.35c.28,0,.5-.22,.5-.5s-.22-.5-.5-.5Z" stroke-width="0"/><path d="M34.9,31.2H12.53c-.28,0-.5,.22-.5,.5s.22,.5,.5,.5h22.37c.28,0,.5-.22,.5-.5s-.22-.5-.5-.5Z" stroke-width="0"/></g></svg>