<?xml version="1.0" encoding="utf-8"?> <!-- Generator: Adobe Illustrator 27.7.0, SVG Export Plug-In . SVG Version: 6.00 Build 0) --> <svg width="70" height="70" version="1.1" xmlns="http://www.w3.org/2000/svg" xmlns:xlink="http://www.w3.org/1999/xlink" x="0px" y="0px" viewBox="-10 -10 70 70" style="enable-background:new 0 0 50 50;" xml:space="preserve"><rect x="-10" y="-10" width="70" height="70" fill="white"/> <style type="text/css"> .st0{fill:#FFCD00;} .st1{display:none;} .st2{display:inline;fill:none;stroke:#EA008A;stroke-width:0.2;stroke-miterlimit:10;} .st3{font-family:'Roboto-Regular';} .st4{font-size:6px;} </style> <g id="Color"> <path class="st0" d="M24.1128,18.6777c-0.0791-0.2314-0.3159-0.3555-0.5552-0.3145c-0.2412,0.041-0.4175,0.2666-0.4175,0.5107 v28.8135c0,1.0664-0.8677,1.9346-1.9346,1.9346s-1.9346-1.2094-1.9346-2.2758v0.3412c0-0.2764-0.2236-0.8412-0.5-0.8412 s-0.5,0.2236-0.5,0.5v0.3412c0,1.0664-0.8677,1.9346-1.9341,1.9346c-1.0669,0-1.9346-0.8682-1.9346-1.9346V31.0986 c0-0.2764-0.2236-0.5-0.5-0.5s-0.5,0.2236-0.5,0.5l0,0c0,0.7529-0.6133,1.3662-1.3667,1.3662s-1.3667-0.6133-1.3667-1.3662v-11.873 c0-3.0557,2.4858-5.541,5.541-5.541h5.1226c2.3193,0,4.4121,1.4629,5.2031,3.6318l3.6255,10.584 c0.1187,0.3447,0.0957,0.7148-0.0645,1.043s-0.439,0.5742-0.7842,0.6934c-0.7104,0.2441-1.4917-0.1357-1.7363-0.8486 L24.1128,18.6777z" stroke-width="0"/> <path class="st0" d="M42.3311,38.8916c0,0.4307-0.3506,0.7812-0.7812,0.7812s-0.7812-0.3506-0.7812-0.7812v0.168 c0-0.2764-0.2236-0.5-0.5-0.5s-0.5,0.2236-0.5,0.5v9.3915c0,0.6455-0.5254,1.1709-1.1714,1.1709 c-0.6455,0-1.1709-0.5254-1.1709-1.1709v-0.56c0-0.2764-0.2236-0.5-0.5-0.5s-0.5,0.2236-0.5,0.5v0.56 c0,0.3438-0.1504,0.6689-0.4131,0.8926c-0.2661,0.2275-0.606,0.3184-0.958,0.2617c-0.5537-0.0908-0.9712-0.625-0.9712-1.2441 V33.1592c0-0.1914-0.1089-0.3652-0.2808-0.4492c-0.1719-0.083-0.375-0.0625-0.5273,0.0557l-2.9175,2.2871 c-0.2803,0.2812-0.6641,0.3896-1.0532,0.3096c-0.3887-0.085-0.6914-0.3477-0.8394-0.7432l-1.7656-4.1182 c-0.0732-0.1953-0.0654-0.4072,0.0215-0.5967c0.0447-0.0974,0.1976-0.3147,0.3763-0.4169c0.3549,0.532,0.7134,1.0527,1.327,1.1714 l1.011,2.7299c0.0591,0.1592,0.1953,0.2783,0.3618,0.3145c0.1685,0.0391,0.3403-0.0137,0.4604-0.1348l2.2168-2.2168 c0.6152-0.6152,1.4331-0.9541,2.3022-0.9541h4.2979c1.7954,0,3.2559,1.4609,3.2559,3.2559V38.8916z" stroke-width="0"/> </g> <g id="ICONS_00000031165542127692736420000002692518830807990202_"> <g> <path d="M35.4263,27.2344c1.8813,0,3.4116-1.5303,3.4116-3.4121c0-1.8809-1.5303-3.4111-3.4116-3.4111 s-3.4116,1.5303-3.4116,3.4111C32.0146,25.7041,33.5449,27.2344,35.4263,27.2344z M35.4263,21.4111 c1.3296,0,2.4116,1.082,2.4116,2.4111c0,1.3301-1.082,2.4121-2.4116,2.4121s-2.4116-1.082-2.4116-2.4121 C33.0146,22.4932,34.0967,21.4111,35.4263,21.4111z" stroke-width="0"/> <path d="M17.2715,10.2275c2.5776,0,4.6748-2.0967,4.6748-4.6748s-2.0972-4.6748-4.6748-4.6748s-4.6748,2.0967-4.6748,4.6748 S14.6938,10.2275,17.2715,10.2275z M17.2715,1.8779c2.0264,0,3.6748,1.6484,3.6748,3.6748s-1.6484,3.6748-3.6748,3.6748 s-3.6748-1.6484-3.6748-3.6748S15.2451,1.8779,17.2715,1.8779z" stroke-width="0"/> <path d="M37.5752,27.8975h-4.2979c-1.1362,0-2.2051,0.4434-3.0093,1.2471l-1.6655,1.665L27.9768,29.12 c0.0536-0.0144,0.1077-0.0196,0.1609-0.038c0.5977-0.2051,1.0801-0.6309,1.3574-1.1992c0.2778-0.5684,0.3174-1.2109,0.1118-1.8076 l-3.6284-10.5918c-0.938-2.5713-3.4082-4.2988-6.146-4.2988H14.71c-3.6069,0-6.541,2.9346-6.541,6.541v11.873 c0,1.3047,1.0615,2.3662,2.3667,2.3662c0.5101,0,0.9799-0.1658,1.3667-0.4412v14.6639c0,1.6182,1.3164,2.9346,2.9346,2.9346 c1.0124,0,1.9065-0.5158,2.4341-1.2983c0.5276,0.7825,1.4219,1.2983,2.4346,1.2983c1.6182,0,2.9346-1.3164,2.9346-2.9346 l-0.0005-25.8447l2.3544,6.8715c-0.297,0.1832-0.5334,0.4498-0.682,0.774c-0.1978,0.4326-0.2153,0.916-0.04,1.3848l1.7656,4.1182 c0.2563,0.6875,0.8374,1.1914,1.5547,1.3477c0.7178,0.1572,1.4546-0.0605,1.9277-0.5391l2.064-1.6143v14.1758 c0,1.1035,0.7783,2.0625,1.8101,2.2305c0.1196,0.0195,0.2393,0.0293,0.3579,0.0293c0.5151,0,1.0142-0.1797,1.4087-0.5156 c0.1003-0.0851,0.1857-0.1828,0.2678-0.2827c0.3984,0.4838,0.9943,0.7993,1.6688,0.7993c1.1973,0,2.1714-0.9736,2.1714-2.1709 v-7.9666c0.2369,0.1168,0.4997,0.1883,0.7812,0.1883c0.9824,0,1.7812-0.7988,1.7812-1.7812v-5.2383 C41.8311,29.8066,39.9219,27.8975,37.5752,27.8975z M22.6128,17.1777c-0.0791-0.2314-0.3159-0.3555-0.5552-0.3145 c-0.2412,0.041-0.4175,0.2666-0.4175,0.5107v28.8135c0,1.0664-0.8677,1.9346-1.9346,1.9346s-1.9346-0.8682-1.9346-1.9346V31.0938 c0-0.2764-0.2236-0.5-0.5-0.5s-0.5,0.2236-0.5,0.5v15.0938c0,1.0664-0.8677,1.9346-1.9341,1.9346 c-1.0669,0-1.9346-0.8682-1.9346-1.9346V17.96c0-0.2764-0.2236-0.5-0.5-0.5s-0.5,0.2236-0.5,0.5v11.6387 c0,0.7529-0.6133,1.3662-1.3667,1.3662s-1.3667-0.6133-1.3667-1.3662v-11.873c0-3.0557,2.4858-5.541,5.541-5.541h5.1226 c2.3193,0,4.4121,1.4629,5.2031,3.6318l3.6255,10.584c0.1187,0.3447,0.0957,0.7148-0.0645,1.043s-0.439,0.5742-0.7842,0.6934 c-0.7104,0.2441-1.4917-0.1357-1.7363-0.8486L22.6128,17.1777z M40.8311,37.3916c0,0.4307-0.3506,0.7812-0.7812,0.7812 s-0.7812-0.3506-0.7812-0.7812v-5.0371c0-0.2764-0.2236-0.5-0.5-0.5s-0.5,0.2236-0.5,0.5v14.5967 c0,0.6455-0.5254,1.1709-1.1714,1.1709c-0.6455,0-1.1709-0.5254-1.1709-1.1709v-7.2393c0-0.2764-0.2236-0.5-0.5-0.5 s-0.5,0.2236-0.5,0.5v7.2393c0,0.3438-0.1504,0.6689-0.4131,0.8926c-0.2661,0.2275-0.606,0.3184-0.958,0.2617 c-0.5537-0.0908-0.9712-0.625-0.9712-1.2441V31.6592c0-0.1914-0.1089-0.3652-0.2808-0.4492 c-0.1719-0.083-0.375-0.0625-0.5273,0.0557l-2.9175,2.2871c-0.2803,0.2812-0.6641,0.3896-1.0532,0.3096 c-0.3887-0.085-0.6914-0.3477-0.8394-0.7432l-1.7656-4.1182c-0.0732-0.1953-0.0654-0.4072,0.0215-0.5967 c0.0447-0.0974,0.1085-0.1819,0.1855-0.2521c0.3549,0.532,0.9043,0.8879,1.5178,1.0066l1.011,2.7299 c0.0591,0.1592,0.1953,0.2783,0.3618,0.3145c0.1685,0.0391,0.3403-0.0137,0.4604-0.1348l2.2168-2.2168 c0.6152-0.6152,1.4331-0.9541,2.3022-0.9541h4.2979c1.7954,0,3.2559,1.4609,3.2559,3.2559V37.3916z" stroke-width="0"/> </g> </g> <g id="Margin" class="st1"> <rect x="1" y="1" class="st2" /> </g> <g id="Guides" class="st1"> </g> <g id="LABELS"> <g> <g> <g> <g> <g> <g> <g> <g> </g> </g> </g> </g> </g> </g> </g> </g> </g> </svg> 