<?xml version="1.0" encoding="UTF-8"?><svg width="70" height="70" xmlns="http://www.w3.org/2000/svg" viewBox="-10 -10 70 70"><rect x="-10" y="-10" width="70" height="70" fill="white"/><g id="uuid-dff99dea-aba7-4533-94fc-a40ac3de67cb"><path d="M10.53,30.47v-9.65c0-.28.23-.5.5-.5h18.44c-.13-.59-.19-1.2-.21-1.82H8.4v13.47h28.26v-4.73c-.75-.22-1.46-.53-2.13-.9v4.13H10.53Z" fill="#ffcd00" stroke-width="0"/><path d="M42.51,40.22h-1v-8.56H3.55v9.78h-1v1.78h39.97v-3ZM9.32,37.75c-1.27,0-2.3-1.03-2.3-2.3s1.03-2.3,2.3-2.3,2.3,1.03,2.3,2.3-1.03,2.3-2.3,2.3ZM27.21,38h-10.94v-3.09h10.94v3.09ZM34.27,37.75c-1.27,0-2.3-1.03-2.3-2.3s1.03-2.3,2.3-2.3,2.3,1.03,2.3,2.3-1.03,2.3-2.3,2.3Z" fill="#ffcd00" stroke-width="0"/></g><g id="uuid-436d59be-9a01-4474-b090-f084c015e24c"><path d="M41.84,15.15c-.03-.4-.15-.75-.36-1.04-.05-.07-.09-.13-.15-.19-.36-.37-.85-.57-1.47-.58h-2.32v3.86h2.26c.67,0,1.18-.15,1.53-.47.36-.31.53-.76.53-1.35,0-.08-.01-.15-.02-.23ZM35,22v-10.71h4.8c.92,0,1.74.17,2.44.51.35.17.66.37.93.61.25.23.47.49.65.77.01.02.02.04.04.06.37.62.56,1.33.56,2.12,0,1.21-.41,2.16-1.24,2.85-.82.7-1.96,1.05-3.42,1.05h-2.02l-.2.2v4.13h-2.54v-1.59Z" stroke-width="0"/><path d="M34.27,33.85c-.92,0-1.67.74-1.67,1.66s.75,1.66,1.67,1.66,1.66-.74,1.66-1.66-.75-1.66-1.66-1.66ZM31.6,35.51c0-1.47,1.2-2.66,2.67-2.66s2.66,1.19,2.66,2.66-1.2,2.66-2.66,2.66-2.67-1.19-2.67-2.66Z" stroke-width="0"/><path d="M26.79,37.17v-1.72h-10.19v1.72h10.19ZM27.79,34.95v2.72c0,.28-.22.5-.5.5h-11.19c-.28,0-.5-.22-.5-.5v-2.72c0-.28.22-.5.5-.5h11.19c.28,0,.5.22.5.5Z" stroke-width="0"/><path d="M9.32,38.17c-1.47,0-2.67-1.19-2.67-2.66s1.2-2.66,2.67-2.66,2.66,1.19,2.66,2.66-1.19,2.66-2.66,2.66ZM10.98,35.51c0-.92-.75-1.66-1.66-1.66s-1.67.74-1.67,1.66.75,1.66,1.67,1.66,1.66-.74,1.66-1.66Z" stroke-width="0"/><path d="M38.85,8.1c-4.92,0-8.96,3.83-9.31,8.66-.02.23-.04.45-.04.68,0,.11.02.21.02.32.02.62.1,1.23.24,1.82.08.34.18.67.3,1,.41,1.15,1.04,2.2,1.85,3.1.22.24.46.48.7.7.06.06.12.11.18.16.31.27.65.52,1,.75.66.42,1.37.77,2.13,1.02.33.11.66.2,1,.28.63.13,1.27.2,1.93.2,5.15,0,9.34-4.2,9.34-9.35,0-2.4-.91-4.58-2.4-6.23-.22-.25-.46-.49-.71-.71-1.65-1.49-3.83-2.4-6.23-2.4ZM33.67,47.77h3.09c.16,0,.29-.14.29-.3v-3.99h-3.68v3.99c0,.16.14.3.3.3ZM33.79,29.92h2.13v-2.56c-.75-.22-1.46-.53-2.13-.9v3.46ZM10.79,29.92h22v-4.11c-1.77-1.29-3.12-3.11-3.8-5.23H10.79v9.34ZM6.55,26.79v-1.65h-3.29v1.65h3.29ZM6.83,47.77h3.03c.17,0,.3-.14.3-.3v-3.99h-3.63v3.99c0,.16.13.3.3.3ZM7.66,17.76v12.16h2.13v-9.84c0-.28.23-.5.5-.5h18.44c-.13-.59-.19-1.2-.21-1.82H7.66ZM10.29,30.92H2.81v8.78h37.96v-8.78H10.29ZM1.81,42.48h39.97v-1.78H1.81v1.78ZM2.26,27.29v-2.65c0-.27.22-.5.5-.5h3.9v-6.88c0-.28.22-.5.5-.5h21.38c.35-5.39,4.83-9.66,10.31-9.66s10.34,4.64,10.34,10.34-4.64,10.35-10.34,10.35c-.66,0-1.3-.07-1.93-.19v2.32h4.33c.28,0,.52.23.52.51v9.27h.51c.27,0,.5.23.5.5v2.78c0,.28-.23.5-.5.5h-4.23v3.99c0,.71-.58,1.3-1.29,1.3h-3.09c-.71,0-1.3-.59-1.3-1.3v-3.99H11.16v3.99c0,.71-.58,1.3-1.3,1.3h-3.03c-.72,0-1.3-.59-1.3-1.3v-3.99H1.31c-.28,0-.5-.22-.5-.5v-2.78c0-.27.22-.5.5-.5h.5v-9.27c0-.28.24-.51.52-.51h4.33v-2.13h-3.9c-.28,0-.5-.23-.5-.5Z" stroke-width="0"/></g></svg>