<?xml version="1.0" encoding="UTF-8"?><svg width="70" height="70" xmlns="http://www.w3.org/2000/svg" viewBox="-10 -10 70 70"><rect x="-10" y="-10" width="70" height="70" fill="white"/><g id="uuid-43b402c6-9a2a-4d18-8d69-13f271a5a4ac"><g><circle cx="19.46" cy="13.66" r=".64" fill="#ffcd00"/><path d="M17.64,23.79c-4,8.38-8,16.77-12,25.15,8.38-4,16.77-8,25.15-12-4.38-4.38-8.77-8.77-13.15-13.15Z" fill="#ffcd00" stroke-width="0"/><path d="M32.29,7.1l.71,1.35,.64-1.38c.07-.15,.21-.26,.37-.28l1.5-.26-1.12-1.03c-.12-.11-.18-.28-.16-.44l.22-1.51-1.33,.75c-.14,.08-.32,.09-.47,.01l-1.37-.67,.3,1.49c.03,.16-.02,.33-.13,.45l-1.06,1.09,1.51,.18c.16,.02,.31,.12,.38,.26Z" fill="#ffcd00" stroke-width="0"/><circle cx="46.08" cy="30.61" r=".64" fill="#ffcd00"/><path d="M44.95,12.45l.55,.34-.07-.64c-.02-.16,.05-.33,.17-.43l.49-.42-.63-.13c-.16-.03-.29-.15-.36-.3l-.25-.6-.32,.56c-.08,.14-.23,.24-.39,.25l-.64,.05,.43,.48c.11,.12,.15,.29,.11,.45l-.15,.63,.59-.26c.06-.03,.13-.04,.2-.04,.09,0,.18,.02,.26,.07Z" fill="#ffcd00" stroke-width="0"/><path d="M25.2,29.94h0l-9.1-9.1c-.12-.12-.28-.17-.44-.14-.16,.03-.3,.13-.37,.28L2.38,48.04c-.09,.19-.05,.42,.1,.57,.1,.1,.22,.15,.35,.15,.07,0,.15-.02,.22-.05l27.06-12.91c.15-.07,.25-.21,.28-.37,.03-.16-.02-.32-.14-.44l-5.05-5.05ZM6.29,46.05l-2.4,1.15,2.4-5.03v3.89Zm6.02-2.87l-5.02,2.39v-5.51l5.02-10.52v13.63Zm6.02-2.87l-5.02,2.39v-15.25l2.58-5.41,2.44,2.44v15.83Zm6.02-2.87l-5.02,2.39v-14.35l5.02,5.02v6.94Zm1-.48v-5.46l3.7,3.7-3.7,1.76Z" stroke-width="0"/><path d="M20.15,21.74c-.17,.22-.13,.53,.09,.7,.09,.07,.2,.11,.31,.11,.15,0,.3-.07,.39-.19,1.28-1.64,2.24-3.46,2.86-5.42,1.25-3.96,.79-7.52,.18-9.81-.07-.27-.34-.43-.61-.36-.27,.07-.43,.34-.35,.61,.57,2.16,1.01,5.52-.17,9.26-.58,1.84-1.49,3.56-2.7,5.1Z" stroke-width="0"/><path d="M30.45,15.76c-.22-.16-.53-.12-.7,.1l-5.65,7.6c-.16,.22-.12,.54,.1,.7,.09,.07,.19,.1,.3,.1,.15,0,.3-.07,.4-.2l5.65-7.6c.16-.22,.12-.54-.1-.7Z" stroke-width="0"/><path d="M42.92,28.29c-1.62-.85-4.93-2.13-8.91-1.18-2.01,.48-3.9,1.48-5.48,2.89-.21,.18-.22,.5-.04,.71,.1,.11,.24,.17,.37,.17,.12,0,.24-.04,.33-.13,1.01-.91,2.71-2.11,5.04-2.66,3.8-.91,7.01,.46,8.21,1.09,.24,.13,.55,.03,.67-.21,.13-.25,.03-.55-.21-.68Z" stroke-width="0"/><path d="M29.41,25.05c.1,.13,.25,.2,.4,.2,.1,0,.21-.03,.3-.1l8.12-5.98c.22-.16,.27-.48,.11-.7-.16-.22-.48-.27-.7-.11l-8.12,5.98c-.22,.16-.27,.48-.11,.7Z" stroke-width="0"/><path d="M27.88,6.48l2.26,.27,1.06,2.01c.09,.16,.26,.27,.44,.27h.01c.19,0,.36-.12,.44-.29l.95-2.06,2.24-.39c.19-.03,.34-.17,.39-.35s0-.38-.14-.51l-1.67-1.54,.32-2.25c.03-.19-.06-.38-.21-.48-.16-.11-.36-.12-.53-.02l-1.98,1.11-2.04-1c-.17-.09-.38-.06-.53,.05-.15,.12-.22,.31-.19,.49l.44,2.23-1.58,1.63c-.13,.14-.18,.34-.11,.52,.06,.18,.22,.31,.41,.33Zm2.18-1.97c.11-.12,.16-.29,.13-.45l-.3-1.49,1.37,.67c.15,.08,.32,.07,.47-.01l1.33-.75-.22,1.51c-.02,.16,.04,.33,.16,.44l1.12,1.03-1.5,.26c-.16,.03-.3,.13-.37,.28l-.64,1.38-.71-1.35c-.08-.15-.22-.24-.38-.26l-1.51-.18,1.06-1.09Z" stroke-width="0"/><path d="M39.82,17.85c.1,0,.19-.03,.28-.08l.83-.55c.23-.15,.29-.46,.14-.69-.15-.23-.46-.29-.69-.14l-.83,.55c-.23,.15-.29,.46-.14,.69,.1,.14,.25,.22,.42,.22Z" stroke-width="0"/><path d="M31.75,14.6l.77-1.01c.17-.22,.13-.53-.09-.7-.22-.17-.53-.12-.7,.09l-.77,1.01c-.17,.22-.13,.53,.09,.7,.09,.07,.2,.1,.3,.1,.15,0,.3-.07,.4-.2Z" stroke-width="0"/><path d="M45.94,28.5c-.9,0-1.64,.73-1.64,1.64s.73,1.64,1.64,1.64,1.64-.73,1.64-1.64-.73-1.64-1.64-1.64Zm0,2.27c-.35,0-.64-.29-.64-.64s.29-.64,.64-.64,.64,.29,.64,.64-.29,.64-.64,.64Z" stroke-width="0"/><path d="M45.82,13.59c.08,.05,.17,.07,.26,.07s.19-.03,.27-.08c.16-.1,.25-.29,.23-.48l-.15-1.39,1.06-.91c.14-.12,.21-.32,.16-.5-.05-.18-.19-.33-.38-.37l-1.37-.29-.54-1.29c-.07-.18-.24-.29-.43-.31-.19-.03-.37,.08-.47,.25l-.7,1.21-1.39,.11c-.19,.01-.35,.14-.42,.31-.07,.18-.03,.38,.09,.52l.94,1.04-.32,1.36c-.04,.19,.02,.38,.17,.5,.15,.12,.35,.15,.52,.07l1.27-.57,1.19,.73Zm-1.95-1.49l.15-.63c.04-.16,0-.33-.11-.45l-.43-.48,.64-.05c.16-.01,.31-.11,.39-.25l.32-.56,.25,.6c.06,.15,.2,.26,.36,.3l.63,.13-.49,.42c-.12,.11-.19,.27-.17,.43l.07,.64-.55-.34c-.08-.05-.17-.07-.26-.07-.07,0-.14,.01-.2,.04l-.59,.26Z" stroke-width="0"/><path d="M18.82,14.8c.9,0,1.64-.73,1.64-1.64s-.73-1.64-1.64-1.64-1.64,.73-1.64,1.64,.73,1.64,1.64,1.64Zm0-2.27c.35,0,.64,.29,.64,.64s-.29,.64-.64,.64-.64-.29-.64-.64,.29-.64,.64-.64Z" stroke-width="0"/></g></g><g id="uuid-100d02de-d71f-4a65-863f-d269d3c59659"></g></svg>