<?xml version="1.0" encoding="UTF-8"?><svg width="70" height="70" id="uuid-c95369c0-f360-44a2-9bb8-937d8f916192" xmlns="http://www.w3.org/2000/svg" viewBox="-10 -10 70 70"><rect x="-10" y="-10" width="70" height="70" fill="white"/><path d="M36.76,14.71c-2.25-1.42-5.88-2.68-10.37-.54-.34,.16-.6,.03-.72-.04-1.72-.85-3.32-1.18-4.76-1.18-2.21,0-4.06,.77-5.42,1.62-4.65,2.88-7.9,9.25-7.9,15.48,0,10.26,8.27,18.61,18.44,18.61s18.44-8.35,18.44-18.61c0-6.15-3.17-12.46-7.71-15.33Z" fill="#ffcd00" stroke-width="0"/><polygon points="24.22 11.99 24.22 12 24.22 11.99 24.22 11.99"/><path d="M42.37,34.94l-.09,.48,.2-.46s-.06-.02-.11-.02Z" fill="#ffcd00" stroke-width="0"/><path d="M35.54,12.15c-3.17-2.01-6.65-2.36-10.13-1.09,.15-.56,.18-1.16,.11-1.78,1.14-.38,2.65-1.09,3.71-2.4,1.99-2.46,1.63-5.98,1.61-6.13-.03-.27-.28-.46-.55-.44-.15,.01-3.67,.39-5.66,2.85-.53,.66-.9,1.3-1.16,2-.95-1.07-2.17-2.01-3.58-2.74-.25-.13-.55-.03-.67,.22-.13,.25-.03,.55,.22,.67,1.93,.99,3.48,2.41,4.37,4,.84,1.5,.98,2.96,.41,4.13-4.67-2.27-8.56-.96-11,.55-4.93,3.05-8.37,9.77-8.37,16.33,0,10.81,8.72,19.61,19.44,19.61s19.44-8.8,19.44-19.61c0-6.58-3.29-13.08-8.18-16.17Zm-11.31-6.03c.2-.85,.57-1.58,1.18-2.33,1.31-1.61,3.47-2.21,4.46-2.4,.02,1.01-.11,3.25-1.42,4.86-.88,1.09-2.15,1.7-3.14,2.04-.15-.49-.35-.98-.63-1.47-.13-.24-.28-.47-.44-.7Zm-.01,5.87h0Zm1.35,34.87c-7.24-1.97-12.25-8.43-12.46-16.09-.18-6.58,3.46-12.78,9.29-15.81,.25-.13,.34-.43,.21-.67-.13-.24-.43-.34-.67-.21-6.17,3.21-10.02,9.77-9.83,16.73,.2,7.1,4.29,13.23,10.46,16.04-9.36-.88-16.72-8.84-16.72-18.52,0-6.23,3.25-12.6,7.9-15.48,1.36-.84,3.21-1.62,5.42-1.62,1.44,0,3.04,.33,4.76,1.18,.12,.06,.38,.2,.72,.04,4.49-2.13,8.12-.88,10.37,.54,4.54,2.87,7.71,9.17,7.71,15.33,0,9.82-7.59,17.87-17.16,18.54Z" stroke-width="0"/></svg>