<?xml version="1.0" encoding="UTF-8"?><svg width="70" height="70" xmlns="http://www.w3.org/2000/svg" viewBox="-10 -10 70 70"><rect x="-10" y="-10" width="70" height="70" fill="white"/><g id="uuid-886a81c2-eb6c-4889-aaf7-1cbdf7c21fd9"><path d="M37.68,28.43v-5.19c0-1.76-1.43-3.2-3.2-3.2-1.52,0-2.78,1.06-3.12,2.47v-.93c0-1.78-1.45-3.23-3.22-3.23-.66,0-1.25.2-1.76.53-.52.34-.92.82-1.18,1.39l1-14.29c-.01-.79-.34-1.57-.94-2.16-.59-.58-1.38-.91-2.21-.89-.84,0-1.62.33-2.21.93-.58.59-.9,1.38-.89,2.21l-1.12,17.68c-.01.23-.19.43-.42.46-.24.04-.46-.09-.54-.31L11.74,7.73c-.63-1.59-2.45-2.38-4.05-1.74-.78.3-1.39.9-1.72,1.66-.33.77-.34,1.62-.03,2.39l7.07,18.56c.04.1.05.2.02.3-1.08,4.26-1.5,6.48.73,10.43.7,1.09,1.56,2.07,2.57,2.91.11.1.17.24.17.39v6.29h15.58v-5.81c0-.15.07-.3.2-.39,3.48-2.67,5.25-7.07,4.71-11.61-.1.06-.21.12-.31.17l-.2-1.11,1.2-1.74Z" fill="#ffcd00" stroke-width="0"/></g><g id="uuid-08b1f359-115b-482a-ab14-460fc3912072"><path d="M27.08,18.14c-.61,0-1.16.19-1.64.49-.48.32-.86.76-1.1,1.29-.17.37-.27.79-.27,1.23v2.77c1.06-.01,2.11.36,2.88,1.13,1.56,1.56,1.56,4.1,0,5.66l-1.77,1.77c.52.42,1.18.69,1.9.69,1.65,0,3-1.35,3-3v-9.02c0-1.66-1.35-3.01-3-3.01ZM31.08,27.04c0,1.66,1.35,3,3.01,3s3-1.34,3-3v-4.86c0-1.65-1.34-3-3-3s-3.01,1.35-3.01,3v4.86ZM5.22,9.32l7.07,18.56c.04.1.05.2.02.3-1.08,4.26-1.5,6.48.73,10.43.7,1.09,1.56,2.07,2.57,2.91.11.1.17.24.17.39v6.29h15.58v-5.81c0-.15.07-.3.2-.39,3.48-2.67,5.25-7.07,4.71-11.61-.63.41-1.37.65-2.18.65-1.2,0-2.27-.54-3.01-1.38v.51c0,2.2-1.79,4-4,4-1,0-1.9-.38-2.6-.98l-.93.92c1.38,2.11,1.16,4.71,1.15,4.82-.03.26-.24.46-.5.46h-.04c-.28-.03-.48-.27-.46-.55,0-.02.22-2.63-1.2-4.48-.15-.2-.13-.48.05-.66l1.25-1.25.72-.72,1.72-1.72c1.17-1.18,1.17-3.08,0-4.26-.58-.57-1.37-.85-2.17-.84-.34,0-.68.07-1,.18-.4.14-.77.36-1.08.66l-6.49,6.53c-.19.19-.51.19-.7,0-.2-.2-.2-.51,0-.71l6.48-6.52c.5-.5,1.13-.82,1.79-.99v-2.91c0-1.21.56-2.29,1.41-3.02l1-12.88c0-.79-.34-1.57-.94-2.16-.59-.58-1.38-.91-2.21-.89-.84,0-1.62.33-2.21.93-.58.59-.9,1.38-.89,2.21l-1.12,17.68c-.01.23-.19.43-.42.46-.24.04-.46-.09-.54-.31L11.02,7.01c-.63-1.59-2.45-2.38-4.05-1.74-.78.3-1.39.9-1.72,1.66-.33.77-.34,1.62-.03,2.39ZM11.95,6.65l5.31,14,.97-15.33c0-1.07.41-2.11,1.18-2.89.78-.79,1.81-1.23,2.91-1.23,1.14-.02,2.14.41,2.93,1.18.78.77,1.22,1.81,1.23,2.91l-.94,12.16c.47-.19.99-.31,1.54-.31,1.75,0,3.22,1.14,3.77,2.71.73-1.01,1.9-1.67,3.24-1.67,2.21,0,4,1.8,4,4v4.86c0,.96-.35,1.84-.92,2.53.84,5.05-.99,10.03-4.81,13.07v6.06c0,.27-.22.5-.5.5H15.28c-.27,0-.5-.23-.5-.5v-6.57c-1.01-.87-1.88-1.88-2.59-2.99,0,0,0-.02-.01-.02-2.4-4.24-1.97-6.72-.88-11.03L4.29,9.69c-.41-1.02-.39-2.14.04-3.15.44-1.01,1.24-1.8,2.27-2.2,1.02-.41,2.14-.39,3.15.04,1.02.44,1.8,1.24,2.2,2.27Z" stroke-width="0"/></g></svg>