<?xml version="1.0" encoding="UTF-8"?><svg width="70" height="70" xmlns="http://www.w3.org/2000/svg" viewBox="-10 -10 70 70"><rect x="-10" y="-10" width="70" height="70" fill="white"/><g id="uuid-0667f49e-a236-4b85-975d-c68c83636eb9"><path d="M35.92,24.6c-.09-.08-.16-.19-.17-.31-.89-5.76-4.68-9.94-9.01-9.94s-8.12,4.19-9.02,9.96c-.02,.12-.08,.23-.17,.31-3.12,2.61-4.91,6.41-4.91,10.4,0,7.57,6.33,13.72,14.11,13.72s14.11-6.16,14.11-13.72c0-4-1.8-7.8-4.94-10.42Z" fill="#ffcd00" stroke-width="0"/><path d="M34.95,22.2c-.82-4.91-3.64-8.73-7.17-10.07,1.42-.5,3.26-1.41,4.59-3.05,2.4-2.96,2.15-7.05,2.13-7.23,0-.14-.08-.27-.18-.35-.11-.09-.25-.13-.38-.11-.17,.02-4.23,.63-6.63,3.59-.59,.73-1.01,1.45-1.33,2.14-.03-.12-.05-.25-.09-.37-.64-2.15-2.11-4.27-4.13-5.96-.21-.18-.53-.15-.7,.06-.18,.21-.15,.53,.06,.7,1.87,1.57,3.23,3.51,3.82,5.48,.54,1.82,.35,3.45-.53,4.6-4.53,.35-8.41,4.68-9.4,10.59-3.26,2.8-5.13,6.82-5.13,11.05,0,8.12,6.78,14.72,15.11,14.72s15.11-6.6,15.11-14.72c0-4.24-1.88-8.26-5.16-11.07Zm-8.79-12.23s.03-.06,.03-.09c.15-1.06,.6-2.67,1.9-4.27,1.65-2.04,4.28-2.85,5.43-3.12-.02,1.18-.27,3.92-1.92,5.95-1.73,2.14-4.49,2.92-5.6,3.16-.04,0-.07,.03-.11,.05-.1-.01-.2-.01-.3-.02,.28-.51,.47-1.06,.57-1.66Zm-1.16,37.02c-7.78,0-14.11-6.16-14.11-13.72,0-4,1.79-7.79,4.91-10.4,.09-.08,.15-.19,.17-.31,.89-5.77,4.69-9.96,9.02-9.96s8.11,4.18,9.01,9.94c.02,.12,.08,.23,.17,.31,3.14,2.62,4.94,6.42,4.94,10.42,0,7.57-6.33,13.72-14.11,13.72Z" stroke-width="0"/></g><g id="uuid-1aa29835-a3f4-49d6-8151-be6d168eb58b"></g></svg>