<?xml version="1.0" encoding="UTF-8"?><svg width="70" height="70" xmlns="http://www.w3.org/2000/svg" viewBox="-10 -10 70 70"><rect x="-10" y="-10" width="70" height="70" fill="white"/><g id="uuid-830e8dd1-7b4b-4f22-913e-7a28563fcc9b"><g><path d="M22.99,15.81c.09,.1,.15,.22,.14,.36-.01,.83,.3,1.62,.89,2.22,1.17,1.19,3.23,1.19,4.4,0,.58-.59,.9-1.38,.89-2.22,0-.13,.05-.26,.14-.36,.09-.1,.22-.15,.36-.15h1.19c0-1.38,.01-2.32,.03-2.97-1.21,.95-3.26,2.25-4.84,2.25-1.84,0-3.57-.71-4.86-1.98v2.69h1.31c.13,0,.26,.05,.36,.15Z" fill="#ffcd00" stroke-width="0"/><path d="M12.21,39.2c-1.36,.15-1.72,.89-1.73,.92-.11,.24-.38,.36-.63,.27l-1.52-.55c-.21-.08-.34-.28-.33-.5,0,0,.03-.7-.42-1.15-.31-.31-.78-.45-1.43-.42-.48,.02-.89,.23-1.26,.63-1.01,1.11-1.32,3.39-1.26,4.35,.03,.59,.52,1.05,1.04,1.54,.39,.36,.78,.73,1.01,1.19,.41,.81,.93,3.06,1.14,3.98h4.17c-.3-1.65-.83-5.45,.51-6.58,.72-.61,1.78-.77,2.71-.91,.56-.09,1.34-.21,1.48-.41,.02-.03,.02-.09,0-.18-.18-.57-2.88-2.16-3.5-2.16Z" fill="#ffcd00" stroke-width="0"/><path d="M23.24,6.99c.09,.1,.15,.22,.14,.36-.01,.83,.3,1.62,.89,2.22,1.17,1.19,3.23,1.19,4.4,0,.58-.59,.9-1.38,.89-2.22,0-.13,.05-.26,.14-.36,.09-.1,.22-.15,.36-.15h1.19c0-1.38,.01-2.32,.03-2.97-1.21,.95-3.26,2.25-4.84,2.25-1.84,0-3.57-.71-4.86-1.98v2.69h1.31c.13,0,.26,.05,.36,.15Z" fill="#ffcd00" stroke-width="0"/><path d="M39.95,33.01c0-.24,.1-.6,.5-.88,.25-.18,.72-.34,1.59-.63,1.72-.58,4.91-1.66,4.97-3.03,.07-1.44-1.16-3.67-3.13-5.67-2.42-2.47-5.26-3.96-7.46-3.9-2.01,.05-3.65,1.35-5.24,2.61-1.55,1.23-3.01,2.38-4.76,2.36-1.71-.03-3.23-1.16-4.84-2.35-1.7-1.26-3.46-2.56-5.5-2.61-2.17-.09-5.04,1.44-7.46,3.9-1.97,2.01-3.19,4.23-3.13,5.67,.06,1.37,3.26,2.45,4.97,3.03,.87,.29,1.34,.46,1.59,.63,.4,.28,.5,.63,.5,.88,.02,.63-.48,1.23-1.07,1.74,1.01,.7,3.99,2.3,5.16,2.89,.02-.02,.03-.04,.05-.05,.27-.3,.78-.86,1.93-.78,.63,.04,1.5,.38,2.52,.77,1.24,.47,3.06,1.17,3.72,.87-.33-.34-1.36-.96-2.21-1.46-2.96-1.77-7.02-4.18-5.68-7.2,1.31-2.98,5.67-1.92,8.28-1.28,.5,.12,.93,.23,1.22,.27,.3-.04,.74-.16,1.24-.29,2.43-.62,6.51-1.66,7.81,1.3,1.33,3.02-2.72,5.44-5.68,7.2-.85,.51-1.88,1.12-2.21,1.46,.66,.3,2.48-.4,3.72-.87,1.01-.39,1.89-.72,2.52-.77,1.16-.08,1.66,.48,1.93,.78,.01,.02,.03,.03,.05,.05,1.15-.58,4.15-2.19,5.16-2.89-.61-.54-1.09-1.12-1.07-1.74Z" fill="#ffcd00" stroke-width="0"/><path d="M46.6,37.79c-.65-.03-1.13,.12-1.44,.43-.44,.45-.41,1.14-.41,1.15,.01,.22-.12,.43-.33,.5l-1.52,.56c-.25,.09-.53-.03-.63-.28-.01-.02-.37-.76-1.74-.92-.6,0-3.31,1.59-3.49,2.17-.02,.08-.02,.14,0,.18,.14,.21,.92,.33,1.48,.41,.93,.14,1.99,.31,2.71,.91,1.34,1.13,.81,4.93,.51,6.58h4.17c.21-.92,.73-3.17,1.14-3.98,.23-.46,.63-.83,1.01-1.19,.52-.49,1.01-.95,1.04-1.54,.06-.97-.26-3.24-1.27-4.35-.36-.4-.77-.61-1.25-.63Z" fill="#ffcd00" stroke-width="0"/><path d="M40.51,33.05c.02-.18-.05-.36-.27-.54-.95-.77-1.04-1.11-1.04-1.21,0,0,0-.04,.08-.1,.14-.1,.77-.31,1.33-.5,2.21-.75,5.56-1.88,5.65-3.93,.08-1.73-1.23-4.19-3.41-6.42-2.65-2.7-5.74-4.25-8.2-4.2-2.34,.06-4.2,1.53-5.83,2.82-1.41,1.11-2.71,2.19-4.12,2.14-1.38-.02-2.78-1.06-4.27-2.16-1.74-1.29-3.71-2.75-6.07-2.81-2.5-.05-5.56,1.5-8.2,4.2-2.19,2.23-3.49,4.69-3.41,6.42,.1,2.05,3.44,3.18,5.65,3.93,.56,.19,1.19,.4,1.33,.5,.08,.06,.08,.09,.08,.1,0,.11-.09,.44-1.11,1.28l-.22,.21,.03,.27c.08,.71,3.83,2.68,6.06,3.79,.57,.28,.94-.13,1.12-.33,.23-.25,.45-.49,1.12-.45,.48,.03,1.37,.37,2.23,.7,1.96,.75,3.99,1.52,4.94,.53,.17-.18,.24-.4,.21-.64-.09-.65-.96-1.2-2.77-2.28-2.64-1.57-6.26-3.73-5.28-5.94,.97-2.21,4.83-1.27,7.13-.71,.59,.14,1.05,.26,1.4,.3h.13c.36-.05,.85-.17,1.43-.32,2.13-.54,5.69-1.45,6.65,.73,.98,2.21-2.64,4.37-5.28,5.94-1.81,1.08-2.68,1.62-2.77,2.28-.03,.23,.04,.46,.21,.64,.32,.34,.77,.47,1.29,.47,1.02,0,2.35-.51,3.65-1,.86-.33,1.75-.67,2.23-.7,.67-.05,.89,.19,1.12,.45,.18,.2,.56,.62,1.12,.33,2.23-1.11,5.98-3.09,6.06-3.79Zm-6.44,2.79c-.27-.3-.77-.86-1.93-.78-.63,.04-1.5,.38-2.52,.77-1.24,.47-3.06,1.17-3.72,.87,.33-.34,1.36-.96,2.21-1.46,2.96-1.77,7.02-4.18,5.68-7.2-1.3-2.96-5.38-1.92-7.81-1.3-.51,.13-.95,.24-1.24,.29-.29-.04-.72-.15-1.22-.27-2.61-.63-6.97-1.7-8.28,1.28-1.33,3.02,2.72,5.44,5.68,7.2,.85,.51,1.88,1.12,2.21,1.46-.66,.29-2.48-.4-3.72-.87-1.01-.39-1.89-.72-2.52-.77-1.15-.08-1.66,.48-1.93,.78-.01,.02-.03,.03-.05,.05-1.17-.59-4.15-2.19-5.16-2.89,.58-.52,1.09-1.11,1.07-1.74,0-.24-.1-.6-.5-.88-.25-.18-.72-.34-1.59-.63-1.72-.58-4.91-1.66-4.97-3.03-.07-1.44,1.16-3.67,3.13-5.67,2.42-2.47,5.29-3.99,7.46-3.9,2.04,.05,3.8,1.35,5.5,2.61,1.61,1.2,3.14,2.32,4.84,2.35,1.75,.02,3.21-1.13,4.76-2.36,1.59-1.26,3.23-2.56,5.24-2.61,2.2-.06,5.04,1.44,7.46,3.9,1.97,2.01,3.19,4.23,3.13,5.67-.06,1.37-3.26,2.45-4.97,3.03-.87,.29-1.34,.46-1.59,.63-.4,.28-.5,.63-.5,.88-.02,.62,.46,1.2,1.07,1.74-1.01,.7-4.01,2.31-5.16,2.89-.02-.02-.03-.04-.05-.05Z" stroke-width="0"/><path d="M10.36,36.45c-1.28,.14-1.96,.71-2.29,1.11l-.83-.31c-.04-.4-.19-1.03-.68-1.53-.51-.52-1.25-.77-2.2-.73-.75,.03-1.41,.36-1.95,.96-1.29,1.43-1.58,4.04-1.52,5.08,.06,.99,.75,1.63,1.36,2.21,.34,.31,.65,.61,.8,.91,.37,.74,.95,3.24,1.14,4.14,.05,.23,.25,.4,.49,.4h5.18c.15,0,.29-.07,.39-.19,.1-.12,.13-.27,.1-.42-.46-2.17-.75-5.53,.06-6.21,.51-.43,1.42-.57,2.22-.69,.95-.15,1.76-.27,2.15-.84,.19-.27,.24-.59,.16-.96-.25-1.14-3.66-3.04-4.58-2.94Zm3.59,3.34c-.14,.21-.92,.33-1.48,.41-.93,.14-1.99,.31-2.71,.91-1.34,1.13-.81,4.93-.51,6.58H5.08c-.21-.92-.73-3.17-1.14-3.98-.23-.46-.63-.83-1.01-1.19-.52-.49-1.01-.95-1.04-1.54-.06-.97,.26-3.24,1.26-4.35,.36-.4,.77-.61,1.26-.63,.65-.03,1.13,.11,1.43,.42,.45,.45,.42,1.15,.42,1.15-.01,.22,.12,.43,.33,.5l1.52,.55c.25,.09,.52-.03,.63-.27,.01-.03,.37-.77,1.73-.92,.62,0,3.32,1.59,3.5,2.16,.02,.09,.02,.15,0,.18Z" stroke-width="0"/><path d="M46.84,36c-.54-.6-1.2-.93-1.95-.96-.94-.04-1.68,.2-2.2,.73-.49,.5-.64,1.13-.68,1.52l-.83,.31c-.33-.4-1.01-.97-2.29-1.11-.9-.09-4.33,1.8-4.58,2.94-.08,.37-.03,.69,.16,.96,.39,.57,1.21,.69,2.15,.84,.8,.12,1.71,.26,2.22,.69,.81,.68,.52,4.04,.06,6.21-.03,.15,0,.3,.1,.42,.09,.12,.24,.19,.39,.19h5.18c.24,0,.44-.17,.49-.4,.19-.9,.77-3.39,1.14-4.14,.15-.3,.47-.6,.8-.91,.61-.57,1.3-1.22,1.36-2.21,.06-1.04-.23-3.66-1.52-5.08Zm.52,5.02c-.03,.59-.52,1.05-1.04,1.54-.39,.36-.78,.73-1.01,1.19-.41,.81-.93,3.06-1.14,3.98h-4.17c.3-1.65,.83-5.45-.51-6.58-.72-.61-1.78-.77-2.71-.91-.56-.09-1.34-.21-1.48-.41-.02-.03-.02-.09,0-.18,.18-.58,2.89-2.16,3.49-2.17,1.37,.15,1.73,.89,1.74,.92,.1,.25,.38,.37,.63,.28l1.52-.56c.21-.08,.34-.28,.33-.5,0,0-.03-.69,.41-1.15,.31-.31,.79-.46,1.44-.43,.48,.02,.89,.23,1.25,.63,1.01,1.11,1.32,3.39,1.27,4.35Z" stroke-width="0"/><path d="M19.32,6.09h1.33c.1,.91,.5,1.76,1.15,2.42,.77,.79,1.81,1.22,2.91,1.22s2.14-.43,2.91-1.22c.65-.66,1.05-1.51,1.15-2.42h1.22c.28,0,.5-.22,.5-.5,0-1.59,.03-4.17,.05-4.5,.03-.18-.04-.37-.19-.48-.17-.13-.41-.14-.58-.01-.04,.03-.07,.05-.1,.08-.67,.62-3.26,2.69-4.99,2.69-1.82,0-3.52-.82-4.66-2.24-.1-.13-.2-.26-.29-.4-.12-.18-.35-.26-.56-.2-.21,.06-.35,.26-.35,.48V5.59c0,.28,.22,.5,.5,.5Zm.5-3.69c1.3,1.27,3.03,1.98,4.86,1.98,1.58,0,3.64-1.3,4.84-2.25-.01,.65-.02,1.59-.03,2.97h-1.19c-.13,0-.26,.05-.36,.15-.09,.1-.15,.22-.14,.36,.01,.83-.3,1.62-.89,2.22-1.17,1.19-3.23,1.19-4.4,0-.58-.59-.9-1.38-.89-2.22,0-.13-.05-.26-.14-.36-.09-.1-.22-.15-.36-.15h-1.31V2.4Z" stroke-width="0"/><path d="M19.07,14.91h1.33c.1,.91,.5,1.76,1.15,2.42,.77,.79,1.81,1.22,2.91,1.22s2.14-.43,2.91-1.22c.65-.66,1.05-1.51,1.15-2.42h1.22c.28,0,.5-.22,.5-.5,0-1.59,.03-4.17,.05-4.5,.03-.18-.04-.37-.19-.48-.17-.13-.41-.14-.58-.01-.04,.03-.07,.05-.1,.08-.67,.62-3.26,2.69-4.99,2.69-1.82,0-3.52-.82-4.66-2.24h0c-.1-.13-.2-.26-.29-.4-.12-.18-.35-.26-.56-.2-.21,.06-.35,.26-.35,.48v4.57c0,.28,.22,.5,.5,.5Zm.5-3.69c1.3,1.27,3.03,1.98,4.86,1.98,1.58,0,3.64-1.3,4.84-2.25-.01,.65-.02,1.59-.03,2.97h-1.19c-.13,0-.26,.05-.36,.15-.09,.1-.15,.22-.14,.36,.01,.83-.3,1.62-.89,2.22-1.17,1.19-3.23,1.19-4.4,0-.58-.59-.9-1.38-.89-2.22,0-.13-.05-.26-.14-.36-.09-.1-.22-.15-.36-.15h-1.31v-2.69Z" stroke-width="0"/></g></g><g id="uuid-cde01cb9-c09d-4f4a-84d6-e7b0e760ff02"></g></svg>