<?xml version="1.0" encoding="UTF-8"?><svg width="70" height="70" xmlns="http://www.w3.org/2000/svg" viewBox="-10 -10 70 70"><rect x="-10" y="-10" width="70" height="70" fill="white"/><g id="uuid-6ac5ab28-8cba-4828-92fb-71dd856757d4"><g><path d="M7.36,42.33c1.45,1.37,2.9,2.74,4.35,4.11,11.75-12.45,23.5-24.89,35.25-37.34l-4.35-4.08C30.86,17.45,19.11,29.89,7.36,42.33Z" fill="#ffcd00" stroke-width="0"/><path d="M48.14,3.73c0-.13-.06-.26-.16-.35l-2.78-2.62c-.1-.09-.22-.14-.36-.14-.13,0-.26,.06-.35,.16l-2.28,2.41-.78-.74c-.2-.19-.52-.18-.71,.02l-4.76,5.04c-.03-.07-.06-.14-.12-.2l-2.17-2.05s-.03-.02-.04-.03l1.49-1.59c.19-.2,.18-.52-.02-.71-.2-.19-.52-.18-.71,.02l-12.96,13.75c-.19,.2-.18,.52,.02,.71,.1,.09,.22,.14,.34,.14,.13,0,.27-.05,.36-.16l10.79-11.45s.02,.03,.03,.04l2.17,2.05c.06,.06,.13,.09,.2,.11L4.68,40.62c-.11,.12-.15,.27-.12,.42l-2.66,7.67c-.06,.19-.01,.39,.13,.53,.09,.09,.22,.14,.34,.14,.06,0,.13-.01,.19-.04l7.51-3.09s.04,.01,.05,.01h.01c.13,0,.26-.06,.35-.16L41.47,13.3h0l5.06-5.36c.09-.1,.14-.23,.14-.36,0-.13-.06-.26-.16-.35l-.78-.74,2.28-2.41c.09-.1,.14-.23,.14-.36ZM5.86,40.83L36.05,8.87l4.35,4.11L10.2,44.94l-4.35-4.11Zm-.49,.91l3.95,3.73-6.12,2.52,2.17-6.25ZM41.08,12.25l-4.35-4.11,4.37-4.63,4.35,4.11-4.37,4.63Zm1.86-8.38l1.94-2.05,2.05,1.94-1.94,2.05-2.05-1.94Z" stroke-width="0"/></g></g><g id="uuid-50432ce0-942c-4a0a-9c96-b509b5092706"></g></svg>