<?xml version="1.0" encoding="UTF-8"?><svg width="70" height="70" xmlns="http://www.w3.org/2000/svg" viewBox="-10 -10 70 70"><rect x="-10" y="-10" width="70" height="70" fill="white"/><g id="uuid-da7ca314-e838-420f-8583-865c935836b1"><g><path d="M44.63,33.63h-.94c-.24,0-.43-.19-.43-.43v-5.98c-.28,.44-.62,.84-1.03,1.18-1.87,1.58-4.81,1.58-6.68,0-1.17-.99-1.84-2.43-1.84-3.95,0-1.32,.51-2.51,1.33-3.43h-2.99c-.51,.03-.99,.15-1.45,.34,.13,.49,.2,1,.2,1.52,0,1.81-.79,3.51-2.18,4.68-.23,.19-.48,.36-.73,.52v4.75c0,.24-.19,.43-.43,.43h-2.18c-.24,0-.43-.19-.43-.43v-3.83c-.06,0-.12,.02-.18,.02-1.44,0-2.85-.51-3.95-1.45-1.38-1.17-2.18-2.88-2.18-4.68,0-.65,.1-1.27,.29-1.86h-4.52c.82,.92,1.33,2.11,1.33,3.43,0,1.52-.67,2.97-1.84,3.95-1.19,1-2.8,1.36-4.31,1.09v3.71c0,.24-.19,.43-.43,.43h-.96c-2.77,.14-4.95,2.43-4.95,5.22v2.6H15.28c.24,0,.43,.19,.43,.43v.65h21.34v-.65c0-.24,.19-.43,.43-.43h12.12v-2.6c0-2.79-2.18-5.08-4.97-5.22Z" fill="#ffcd00" stroke-width="0"/><path d="M30.48,16.89c.96,.81,2.19,1.26,3.45,1.26s2.48-.45,3.45-1.26c1.21-1.02,1.9-2.51,1.9-4.08,0-2.95-2.4-5.35-5.35-5.35s-5.35,2.4-5.35,5.35c0,1.57,.69,3.06,1.9,4.08Zm3.45-8.43c2.4,0,4.35,1.95,4.35,4.35,0,1.28-.56,2.49-1.54,3.32-1.57,1.33-4.04,1.33-5.6,0-.98-.83-1.54-2.04-1.54-3.32,0-2.4,1.95-4.35,4.35-4.35Z" stroke-width="0"/><path d="M11.98,16.89c.96,.81,2.19,1.26,3.45,1.26s2.48-.45,3.45-1.26c1.21-1.02,1.9-2.51,1.9-4.08,0-2.95-2.4-5.35-5.35-5.35s-5.34,2.4-5.34,5.35c0,1.57,.69,3.06,1.9,4.08Zm3.45-8.43c2.4,0,4.35,1.95,4.35,4.35,0,1.28-.56,2.49-1.54,3.32-1.57,1.33-4.04,1.33-5.6,0-.98-.83-1.54-2.04-1.54-3.32,0-2.4,1.95-4.35,4.34-4.35Z" stroke-width="0"/><path d="M43.04,31.04h-.47v-1.66c.1-.07,.21-.13,.3-.21,1.39-1.18,2.19-2.9,2.19-4.72,0-3.41-2.77-6.18-6.18-6.18-.41,0-.81,.04-1.19,.12-.07,0-.14-.03-.21-.03h-7.13c-.05,0-.1,.02-.16,.02-1.31-1.6-3.3-2.63-5.53-2.63s-4.22,1.03-5.53,2.63c-.05,0-.1-.02-.16-.02h-7.13c-.07,0-.14,.02-.21,.03-.39-.08-.78-.12-1.19-.12-3.41,0-6.18,2.77-6.18,6.18,0,1.82,.8,3.54,2.19,4.72,.09,.08,.2,.14,.3,.21v1.66h-.49c-3.3,.16-5.88,2.87-5.88,6.17v3.05c0,.28,.22,.5,.5,.5H13.02v.59c0,.28,.22,.5,.5,.5h22.31c.28,0,.5-.22,.5-.5v-.59h12.11c.28,0,.5-.22,.5-.5v-3.05c0-3.3-2.58-6.01-5.9-6.17Zm4.9,8.72h-11.61v-1.97c0-2.25-1.04-4.25-2.68-5.56,.35-.1,.72-.16,1.09-.18h8.28c2.76,.14,4.93,2.41,4.93,5.17v2.55Zm-33.93,1.09v-3.06c0-3.27,2.56-5.96,5.81-6.13h9.67c3.27,.16,5.83,2.85,5.83,6.13v3.06H14.02Zm-12.61-3.63c0-2.76,2.16-5.04,4.9-5.17H14.58c.39,.02,.75,.09,1.11,.19-1.63,1.31-2.68,3.31-2.68,5.56v1.97H1.41v-2.55ZM10.46,19.27c2.86,0,5.18,2.32,5.18,5.18,0,1.52-.67,2.97-1.84,3.95-1.87,1.58-4.81,1.58-6.68,0-1.17-.99-1.84-2.43-1.84-3.95,0-2.86,2.32-5.18,5.18-5.18Zm0,11.36c1.46,0,2.87-.52,3.99-1.46,1.39-1.18,2.19-2.9,2.19-4.72,0-2.11-1.07-3.98-2.69-5.09h4.53c-.6,1.04-.94,2.24-.94,3.53,0,2.1,.92,4.09,2.53,5.45,1.29,1.09,2.92,1.69,4.6,1.69s3.31-.6,4.6-1.69c1.61-1.36,2.53-3.35,2.53-5.45,0-1.28-.35-2.48-.94-3.53h4.53c-1.62,1.11-2.69,2.98-2.69,5.09,0,1.82,.8,3.54,2.19,4.72,1.11,.94,2.53,1.46,3.99,1.46,.94,0,1.85-.24,2.68-.64v1.05h-6.86c-.75,.04-1.46,.21-2.11,.49-.92-.5-1.96-.81-3.08-.87h-9.72c-1.11,.06-2.15,.37-3.07,.87-.66-.28-1.37-.45-2.13-.49H7.78v-1.05c.83,.4,1.75,.64,2.68,.64Zm20.35-7.75c0,1.81-.79,3.51-2.18,4.68-1.11,.94-2.51,1.45-3.95,1.45s-2.85-.51-3.95-1.45c-1.38-1.17-2.18-2.88-2.18-4.68,0-3.38,2.75-6.13,6.13-6.13s6.13,2.75,6.13,6.13Zm11.42,5.52c-1.87,1.58-4.81,1.58-6.68,0-1.17-.99-1.84-2.43-1.84-3.95,0-2.86,2.32-5.18,5.18-5.18s5.18,2.32,5.18,5.18c0,1.52-.67,2.97-1.84,3.95Z" stroke-width="0"/><path d="M24.86,32.83c0,.24,.19,.43,.43,.43h2.18c.24,0,.43-.19,.43-.43v-4.75c-.91,.57-1.96,.88-3.04,.92v3.83Z" fill="none" stroke-width="0"/></g></g><g id="uuid-095e590c-7e64-4017-920a-964a76981e17"></g></svg>