<?xml version="1.0" encoding="UTF-8"?><svg width="70" height="70" xmlns="http://www.w3.org/2000/svg" viewBox="-10 -10 70 70"><rect x="-10" y="-10" width="70" height="70" fill="white"/><g id="uuid-e6f98668-1dd5-4600-95f7-febdfd1e1aae"><g><path d="M44.6,29.6h-8.23c-.65,.03-1.31,.2-1.93,.5-.15,.07-.33,.06-.47-.02-.85-.51-1.83-.8-2.82-.85h-9.62c-.96,.05-1.94,.34-2.79,.85-.14,.08-.32,.09-.47,.02-.62-.3-1.28-.46-1.96-.5H8.07c-2.72,.14-4.88,2.4-4.88,5.15v2.53H15.24c.28,0,.5,.22,.5,.5v.58h21.2v-.58c0-.28,.22-.5,.5-.5h12.05v-2.53c0-2.75-2.15-5.01-4.9-5.15Z" fill="#ffcd00" stroke-width="0"/><path d="M34.84,25c1.11,.94,2.52,1.45,3.97,1.45s2.86-.52,3.97-1.45c1.39-1.17,2.18-2.89,2.18-4.7,0-3.39-2.76-6.15-6.15-6.15s-6.15,2.76-6.15,6.15c0,1.81,.8,3.52,2.18,4.7Zm3.97-9.85c2.84,0,5.15,2.31,5.15,5.15,0,1.52-.67,2.95-1.83,3.93-1.86,1.57-4.79,1.57-6.64,0-1.16-.98-1.83-2.42-1.83-3.93,0-2.84,2.31-5.15,5.15-5.15Z" stroke-width="0"/><path d="M42.93,26.85h-8.29c-.75,.04-1.45,.21-2.1,.49-.92-.5-1.95-.81-3.07-.86h-9.67c-1.11,.06-2.14,.37-3.05,.86-.65-.28-1.37-.45-2.12-.49H6.35c-3.28,.16-5.85,2.86-5.85,6.15v3.03c0,.28,.22,.5,.5,.5H13.05v.58c0,.28,.22,.5,.5,.5h22.2c.28,0,.5-.22,.5-.5v-.58h12.05c.28,0,.5-.22,.5-.5v-3.03c0-3.28-2.57-5.98-5.88-6.15Zm4.88,8.68h-11.55v-1.96c0-2.24-1.04-4.23-2.67-5.54,.35-.09,.71-.16,1.09-.18h8.24c2.75,.14,4.9,2.4,4.9,5.15v2.53Zm-33.76,1.08v-3.04c0-3.26,2.55-5.93,5.78-6.09h9.62c3.25,.16,5.8,2.84,5.8,6.09v3.04H14.05Zm-12.55-3.61c0-2.75,2.15-5.01,4.88-5.15H14.61c.38,.02,.75,.09,1.1,.18-1.62,1.3-2.66,3.3-2.66,5.53v1.96H1.5v-2.53Z" stroke-width="0"/><path d="M6.54,25c1.11,.94,2.52,1.45,3.97,1.45s2.86-.52,3.97-1.45c1.39-1.17,2.18-2.89,2.18-4.7,0-3.39-2.76-6.15-6.15-6.15s-6.15,2.76-6.15,6.15c0,1.81,.8,3.52,2.18,4.7Zm3.97-9.85c2.84,0,5.15,2.31,5.15,5.15,0,1.52-.67,2.95-1.83,3.93-1.86,1.57-4.79,1.57-6.64,0-1.16-.98-1.83-2.42-1.83-3.93,0-2.84,2.31-5.15,5.15-5.15Z" stroke-width="0"/><path d="M20.08,24.16c1.28,1.08,2.91,1.68,4.58,1.68s3.3-.6,4.58-1.68c1.6-1.35,2.52-3.33,2.52-5.42,0-3.91-3.19-7.1-7.1-7.1s-7.1,3.19-7.1,7.1c0,2.09,.92,4.07,2.52,5.42Zm10.68-5.42c0,1.8-.79,3.49-2.17,4.66-1.1,.93-2.5,1.44-3.93,1.44s-2.83-.51-3.93-1.44c-1.38-1.16-2.17-2.86-2.17-4.66,0-3.36,2.74-6.1,6.1-6.1s6.1,2.74,6.1,6.1Z" stroke-width="0"/></g></g><g id="uuid-156ef1ea-a291-41ab-81c1-84c1d3b6b529"></g></svg>