<?xml version="1.0" encoding="UTF-8"?><svg width="70" height="70" xmlns="http://www.w3.org/2000/svg" viewBox="-10 -10 70 70"><rect x="-10" y="-10" width="70" height="70" fill="white"/><g id="uuid-ef2e4105-24a4-47f1-b3d4-86bf3bc1ecab"><g><path d="M24.72,5.93c.48,0,.86-.39,.86-.86s-.39-.86-.86-.86-.86,.39-.86,.86,.39,.86,.86,.86Z" stroke-width="0"/><g><polygon points="36.51 18.52 16.44 18.54 12.59 49.47 40.36 49.47 36.51 18.52" fill="#ffcd00"/><path d="M35.64,16.13c-.01-.1-.06-.18-.12-.25v-4.48h0c0-5.99-4.87-10.86-10.86-10.86S13.81,5.41,13.81,11.39l-.03,4.45c-.07,.08-.13,.18-.14,.29l-3.99,32.04c-.02,.15,.03,.3,.13,.41s.24,.18,.39,.18h28.95c.15,0,.29-.06,.39-.18s.15-.26,.13-.41l-3.99-32.04Zm-20.82-.46l.02-2.4h19.65v2.4H14.82ZM24.67,1.58c5.41,0,9.82,4.4,9.82,9.82v.84H14.85v-.84c0-5.41,4.41-9.82,9.83-9.82ZM10.76,47.72l3.85-30.93,20.07-.02,3.85,30.95H10.76Z" stroke-width="0"/><path d="M20.51,7.81c.48,0,.86-.39,.86-.86s-.39-.86-.86-.86-.86,.39-.86,.86,.39,.86,.86,.86Z" stroke-width="0"/><path d="M28.81,7.81c.48,0,.86-.39,.86-.86s-.39-.86-.86-.86-.86,.39-.86,.86,.39,.86,.86,.86Z" stroke-width="0"/><path d="M18.58,19.73c-.29-.04-.55,.16-.59,.45l-3.17,24.16c-.04,.29,.16,.55,.45,.59,.02,0,.05,0,.07,0,.26,0,.48-.19,.52-.45l3.17-24.16c.04-.29-.16-.55-.45-.59Z" stroke-width="0"/><path d="M31.16,20.17c-.04-.29-.3-.49-.59-.45-.29,.04-.49,.3-.45,.59l3.17,24.16c.03,.26,.26,.45,.52,.45,.02,0,.05,0,.07,0,.29-.04,.49-.3,.45-.59l-3.17-24.16Z" stroke-width="0"/><path d="M27.06,33.72c-.51-.24-1.1-.37-1.76-.37h-3.48v8.91h1.84v-3.14h1.61c1.06,0,1.88-.25,2.48-.76,.6-.5,.9-1.19,.9-2.06,0-.58-.14-1.09-.41-1.54-.27-.45-.66-.8-1.17-1.04Zm-.65,3.57c-.25,.23-.62,.34-1.11,.34h-1.64v-2.8h1.68c.45,0,.81,.15,1.06,.42,.26,.27,.39,.62,.39,1.06s-.13,.75-.38,.98Z" stroke-width="0"/></g></g></g><g id="uuid-fbf39cd5-9928-49a8-b0d9-2332f4130c4d"></g></svg>