<?xml version="1.0" encoding="UTF-8"?><svg width="70" height="70" id="uuid-7d1c964f-1244-4e85-b817-8f611fbdc3f4" xmlns="http://www.w3.org/2000/svg" viewBox="-10 -10 70 70"><rect x="-10" y="-10" width="70" height="70" fill="white"/><polygon points="25.22 48.98 25.22 27.86 21.39 27.86 21.39 48.98 22.34 48.98 24.26 48.98 25.22 48.98" fill="#ffcd00"/><path d="M19.99,5.15c-.14-.06-.29-.09-.43-.09-.21,0-.42,.06-.61,.19-.31,.21-.49,.54-.49,.92v11.36c0,.38,.18,.71,.49,.92,.31,.21,.69,.25,1.04,.1l.61-.25V5.4l-.61-.25Z" fill="#ffcd00" stroke-width="0"/><path d="M33.65,10.83l-8.36-3.47c-.93-.39-1.86-.77-2.79-1.16v11.31c.93-.39,1.86-.77,2.79-1.16l8.36-3.47c.43-.18,.68-.56,.68-1.02s-.26-.85-.68-1.02Z" fill="#ffcd00" stroke-width="0"/><path d="M32.3,8.12l-8.76-3.64V1.54c0-.29-.23-.52-.52-.52h-2.95c-.29,0-.52,.23-.52,.52v1.28l-.92-.38c-.66-.28-1.42-.2-2.02,.2-.6,.4-.96,1.07-.96,1.79V15.78c0,.72,.36,1.39,.96,1.79,.36,.24,.77,.36,1.19,.36,.28,0,.56-.05,.82-.17l.92-.38v7.69h-.44c-.29,0-.52,.23-.52,.52v22.16c0,.29,.23,.52,.52,.52h4.87c.29,0,.52-.23,.52-.52V25.59c0-.29-.23-.52-.52-.52h-.44V15.72l8.76-3.64c.82-.34,1.32-1.1,1.32-1.98s-.51-1.64-1.32-1.98Zm-11.71,39.11h-.96V26.11h3.83v21.12h-2.87Zm0-22.16V2.06h1.92V25.07h-1.92Zm-3.4-8.37c-.31-.21-.49-.54-.49-.92V4.42c0-.38,.18-.71,.49-.92,.19-.12,.4-.19,.61-.19,.14,0,.29,.03,.43,.09l1.32,.55v12.31l-1.32,.55c-.35,.14-.73,.11-1.04-.1Zm6.35-11.1l8.36,3.47c.43,.18,.68,.56,.68,1.02s-.26,.85-.68,1.02l-8.36,3.47V5.6Z" stroke-width="0"/></svg>