<?xml version="1.0" encoding="UTF-8"?><svg width="70" height="70" id="uuid-f9574973-bc8e-47b5-bfd8-6625d15d33c0" xmlns="http://www.w3.org/2000/svg" viewBox="-10 -10 70 70"><rect x="-10" y="-10" width="70" height="70" fill="white"/><g><path d="M21.05,19.39v11.59c-.02,.51-.33,.97-.77,1.18-.49,.24-1.11,.14-1.5-.25-.34-.33-.38-.77-.39-.93v-11.08c-.03-.28-.22-2.84,1.69-4.47,1.07-.91,2.29-1.1,2.9-1.14l6.35-.02h0c.65,0,1.9,.08,3.03,.94,2.03,1.55,1.84,4.23,1.83,4.38v11.39c0,.73-.6,1.32-1.33,1.32s-1.33-.59-1.33-1.32v-11.59c0-.27-.22-.5-.5-.5s-.5,.23-.5,.5v28.73c0,1.04-.84,1.88-1.87,1.88s-1.87-.84-1.87-1.88v-15.66c0-.27-.23-.5-.5-.5s-.5,.23-.5,.5v15.66c0,1.04-.84,1.88-1.88,1.88s-1.87-.84-1.87-1.88V19.39c0-.27-.22-.5-.5-.5s-.5,.23-.5,.5Z" fill="#ffcd00" stroke-width="0"/><path d="M26.3,2.42c2.24,0,4.06,1.83,4.06,4.07s-1.82,4.07-4.06,4.07-4.07-1.83-4.07-4.07,1.82-4.07,4.07-4.07Z" fill="#ffcd00" stroke-width="0"/></g><g><path d="M25.01,10.35c2.79,0,5.06-2.27,5.06-5.07S27.8,.21,25.01,.21s-5.07,2.28-5.07,5.07,2.27,5.07,5.07,5.07Zm0-9.14c2.24,0,4.06,1.83,4.06,4.07s-1.82,4.07-4.06,4.07-4.07-1.83-4.07-4.07,1.82-4.07,4.07-4.07Z" stroke-width="0"/><path d="M31.69,13.2c-1.37-1.04-2.88-1.17-3.66-1.14l-6.37,.02c-.76,.05-2.23,.28-3.51,1.38-2.31,1.96-2.08,4.99-2.05,5.28v11.04c.01,.29,.09,1.05,.69,1.64,.69,.68,1.75,.85,2.63,.44,.12-.06,.23-.13,.34-.2v15.25c0,1.59,1.29,2.88,2.87,2.88,.99,0,1.86-.5,2.38-1.26,.51,.76,1.38,1.26,2.37,1.26,1.58,0,2.87-1.29,2.87-2.88v-15.23c.38,.26,.84,.41,1.33,.41,1.28,0,2.33-1.04,2.33-2.32v-11.35c.02-.34,.2-3.37-2.22-5.22Zm1.22,5.18v11.39c0,.73-.6,1.32-1.33,1.32s-1.33-.59-1.33-1.32v-11.59c0-.27-.22-.5-.5-.5s-.5,.23-.5,.5v28.73c0,1.04-.84,1.88-1.87,1.88s-1.87-.84-1.87-1.88v-15.66c0-.27-.23-.5-.5-.5s-.5,.23-.5,.5v15.66c0,1.04-.84,1.88-1.88,1.88s-1.87-.84-1.87-1.88V18.18c0-.27-.22-.5-.5-.5s-.5,.23-.5,.5v11.59c-.02,.51-.33,.97-.77,1.18-.49,.24-1.11,.14-1.5-.25-.34-.33-.38-.77-.39-.93v-11.08c-.03-.28-.22-2.84,1.69-4.47,1.07-.91,2.29-1.1,2.9-1.14l6.35-.02h.01c.65-.01,1.9,.08,3.03,.94,2.03,1.55,1.84,4.23,1.83,4.38Z" stroke-width="0"/></g></svg>