<?xml version="1.0" encoding="UTF-8"?><svg width="70" height="70" id="uuid-67597cf2-be51-456a-b637-059d1f85601b" xmlns="http://www.w3.org/2000/svg" viewBox="-10 -10 70 70"><rect x="-10" y="-10" width="70" height="70" fill="white"/><path d="M16.08,23.83c2.27,1.92,5.16,2.98,8.12,2.98s5.85-1.06,8.12-2.98c2.84-2.4,4.47-5.91,4.47-9.62,0-6.95-5.65-12.6-12.6-12.6S11.61,7.27,11.61,14.21c0,3.71,1.63,7.21,4.47,9.62ZM24.21,2.62c6.39,0,11.6,5.2,11.6,11.6,0,3.42-1.5,6.64-4.12,8.85-2.09,1.77-4.75,2.74-7.48,2.74s-5.39-.97-7.48-2.74c-2.62-2.21-4.12-5.44-4.12-8.85,0-6.39,5.2-11.6,11.6-11.6Z" stroke-width="0"/><path d="M34.77,31.56H17.12c-6.16,.31-11.01,5.4-11.01,11.59v5.99H45.81v-5.99c0-6.19-4.85-11.28-11.03-11.59Z" fill="#ffcd00" stroke-width="0"/><path d="M33.05,28.81H15.34c-6.72,.33-11.98,5.86-11.98,12.58v6.49c0,.28,.22,.5,.5,.5H44.56c.28,0,.5-.22,.5-.5v-6.49c0-6.72-5.26-12.25-12.01-12.58Zm11.01,18.58H4.36v-5.99c0-6.19,4.85-11.28,11.01-11.58h17.66c6.19,.31,11.03,5.4,11.03,11.58v5.99Z" stroke-width="0"/></svg>