<?xml version="1.0" encoding="UTF-8"?><svg width="70" height="70" xmlns="http://www.w3.org/2000/svg" viewBox="-10 -10 70 70"><rect x="-10" y="-10" width="70" height="70" fill="white"/><g id="uuid-df3f299b-4ba6-4600-bffb-85a566f1e727"><g><path d="M26.4,4.2C14.16,4.2,4.2,14.16,4.2,26.4s9.96,22.2,22.2,22.2,22.2-9.96,22.2-22.2S38.64,4.2,26.4,4.2Zm-8.31,12.55c.37,.4,.57,.89,.57,1.42,0,.75-.39,1.42-1.04,1.79-.12,.07-.21,.19-.24,.33-.03,.14,0,.28,.09,.4,.27,.36,.41,.8,.41,1.25,0,1.14-.92,2.06-2.06,2.06s-2.06-.92-2.06-2.06c0-.74,.4-1.42,1.04-1.78,.12-.07,.21-.19,.24-.33,.03-.14,0-.29-.09-.4-.27-.37-.43-.82-.43-1.26,0-.73,.37-1.39,1-1.77,.13-.08,.22-.21,.24-.36,.02-.15-.03-.3-.13-.41-.36-.38-.56-.88-.56-1.42,0-1.14,.93-2.06,2.07-2.06s2.06,.92,2.06,2.06c0,.73-.37,1.39-1,1.77-.13,.08-.21,.21-.24,.36-.02,.15,.03,.3,.13,.41Zm18.07,20.3c-.36,.41-.87,.66-1.42,.7-.55,.04-1.08-.14-1.49-.51-.55-.49-.81-1.23-.66-1.95,.03-.14,0-.29-.09-.4s-.22-.19-.36-.2c-.46-.04-.89-.22-1.23-.51-.54-.47-.8-1.21-.67-1.91,.03-.15-.02-.3-.12-.42-.09-.11-.23-.17-.38-.17h-.02c-.53,.02-1.04-.16-1.44-.51-.41-.36-.66-.87-.7-1.42-.04-.55,.15-1.08,.51-1.5,.36-.41,.87-.66,1.42-.7,.55-.04,1.08,.14,1.49,.51,.54,.47,.8,1.21,.67,1.91-.03,.15,.02,.3,.11,.41s.25,.18,.39,.17c.54-.03,1.05,.17,1.44,.51,.56,.49,.81,1.23,.66,1.97-.03,.14,0,.28,.09,.4s.22,.19,.36,.2c.45,.04,.87,.21,1.21,.51,.41,.36,.66,.87,.7,1.42s-.14,1.08-.51,1.49Z" fill="#ffcd00" stroke-width="0"/><path d="M24.65,1.4C11.83,1.4,1.4,11.83,1.4,24.65s10.43,23.25,23.25,23.25,23.25-10.43,23.25-23.25S37.47,1.4,24.65,1.4Zm0,45.45c-12.24,0-22.2-9.96-22.2-22.2S12.41,2.45,24.65,2.45s22.2,9.96,22.2,22.2-9.96,22.2-22.2,22.2Z" stroke-width="0"/><path d="M28.57,11.02l4.53,2.13c.07,.03,.14,.05,.21,.05,.19,0,.37-.11,.45-.29,.12-.25,.01-.55-.24-.67l-4.53-2.13c-.25-.12-.55-.01-.67,.24s-.01,.55,.24,.67Z" stroke-width="0"/><path d="M11.59,31.64c-.19-.2-.51-.2-.71,0-.2,.19-.2,.51,0,.71l4.17,4.21c.1,.1,.23,.15,.36,.15s.25-.05,.35-.14c.2-.19,.2-.51,0-.71l-4.17-4.21Z" stroke-width="0"/><path d="M24.77,38.41l-6.62-1.48c-.27-.06-.54,.11-.6,.38-.06,.27,.11,.54,.38,.6l6.62,1.48s.07,.01,.11,.01c.23,0,.44-.16,.49-.39,.06-.27-.11-.54-.38-.6Z" stroke-width="0"/><path d="M36.57,19.59c.08,.19,.27,.29,.46,.29,.07,0,.14-.01,.21-.04,.25-.11,.36-.41,.25-.66l-1.88-4.18c-.11-.25-.41-.36-.66-.25-.25,.11-.36,.41-.25,.66l1.88,4.18Z" stroke-width="0"/><path d="M15.82,25.01c1.69,0,3.06-1.37,3.06-3.06,0-.5-.12-.98-.34-1.41,.7-.58,1.12-1.45,1.12-2.37,0-.59-.17-1.17-.5-1.66,.65-.58,1.03-1.41,1.03-2.29,0-1.69-1.37-3.06-3.06-3.06s-3.07,1.37-3.07,3.06c0,.6,.17,1.17,.49,1.67-.64,.58-1.03,1.41-1.03,2.29,0,.49,.12,.98,.35,1.42-.7,.57-1.12,1.44-1.12,2.36,0,1.69,1.37,3.06,3.06,3.06Zm-1.02-4.84c.12-.07,.21-.19,.24-.33,.03-.14,0-.29-.09-.4-.27-.37-.43-.82-.43-1.26,0-.73,.37-1.39,1-1.77,.13-.08,.22-.21,.24-.36,.02-.15-.03-.3-.13-.41-.36-.38-.56-.88-.56-1.42,0-1.14,.93-2.06,2.07-2.06s2.06,.92,2.06,2.06c0,.73-.37,1.39-1,1.77-.13,.08-.21,.21-.24,.36-.02,.15,.03,.3,.13,.41,.37,.4,.57,.89,.57,1.42,0,.75-.39,1.42-1.04,1.79-.12,.07-.21,.19-.24,.33-.03,.14,0,.28,.09,.4,.27,.36,.41,.8,.41,1.25,0,1.14-.92,2.06-2.06,2.06s-2.06-.92-2.06-2.06c0-.74,.4-1.42,1.04-1.78Z" stroke-width="0"/><path d="M35.35,32.71c.03-.91-.35-1.8-1.04-2.4-.44-.39-.99-.64-1.58-.72,0-.86-.38-1.71-1.04-2.28-.62-.54-1.4-.81-2.22-.75-.82,.05-1.56,.42-2.1,1.04-.54,.62-.81,1.41-.76,2.23,.05,.82,.42,1.56,1.04,2.1,.45,.4,1,.64,1.58,.73,0,.86,.38,1.7,1.04,2.28,.37,.32,.81,.55,1.3,.67-.03,.9,.34,1.79,1.04,2.39,.56,.49,1.27,.76,2.01,.76,.07,0,.14,0,.21,0,.82-.05,1.56-.42,2.1-1.04s.81-1.4,.75-2.22c-.05-.82-.42-1.56-1.04-2.1-.37-.33-.81-.56-1.28-.67Zm.82,4.34c-.36,.41-.87,.66-1.42,.7-.55,.04-1.08-.14-1.49-.51-.55-.49-.81-1.23-.66-1.95,.03-.14,0-.29-.09-.4s-.22-.19-.36-.2c-.46-.04-.89-.22-1.23-.51-.54-.47-.8-1.21-.67-1.91,.03-.15-.02-.3-.12-.42-.09-.11-.23-.17-.38-.17h-.02c-.53,.02-1.04-.16-1.44-.51-.41-.36-.66-.87-.7-1.42-.04-.55,.15-1.08,.51-1.5,.36-.41,.87-.66,1.42-.7,.55-.04,1.08,.14,1.49,.51,.54,.47,.8,1.21,.67,1.91-.03,.15,.02,.3,.11,.41s.25,.18,.39,.17c.54-.03,1.05,.17,1.44,.51,.56,.49,.81,1.23,.66,1.97-.03,.14,0,.28,.09,.4s.22,.19,.36,.2c.45,.04,.87,.21,1.21,.51,.41,.36,.66,.87,.7,1.42s-.14,1.08-.51,1.49Z" stroke-width="0"/></g></g><g id="uuid-bdb6e75b-cc5d-4347-8a73-00fde7a3c03a"></g></svg>