<?xml version="1.0" encoding="UTF-8"?><svg width="70" height="70" xmlns="http://www.w3.org/2000/svg" viewBox="-10 -10 70 70"><rect x="-10" y="-10" width="70" height="70" fill="white"/><g id="uuid-66dbd478-514b-44d6-8844-a3f1fabbfd98"><g><path d="M36.03,24.98h.01c-.66-2.9-1.31-5.8-1.97-8.71-.14-2.01-.27-4.01-.41-6.02-.63-3.91-3.78-6.89-7.47-6.92-3.69-.04-6.9,2.88-7.59,6.8,.09,0,.17,.02,.26,.02,.64,0,1.27-.06,1.89-.18,2.4-.46,4.16-1.69,5.27-2.72l5.22,2.07c.31,.81,.49,1.69,.49,2.61,0,4.01-3.26,7.27-7.27,7.27-2.66,0-4.98-1.44-6.25-3.57l-.06,.98c-.55,2.82-1.1,5.64-1.65,8.47h0c-2.43,1.4-4.06,4.01-4.07,7.01l-.02,17.29,27.89,.04,.02-17.29c0-3.09-1.73-5.79-4.3-7.15Zm-2.41-13.75c0,.59-.38,1.09-.9,1.28,.01-.19,.03-.38,.03-.57,0-.71-.1-1.4-.27-2.06,.65,.11,1.14,.67,1.14,1.35Zm-10.04,11.07h2.1v1.88h-2.1v-1.88Zm-1,2.3l-.43,1.46-2.58-3.76h3.01v2.3Zm2.05,5.08l-1.76-2.56,.58-1.95h2.34l.58,1.96-1.75,2.55Zm2.47-3.61l-.42-1.43v-2.35h3.01l-2.58,3.77Zm7.56,2.77h-4.41v-1.22h4.41v1.22Z" fill="#ffcd00" stroke-width="0"/><path d="M35.04,22.51l-1.92-9.09c.88-.35,1.5-1.2,1.5-2.2,0-1.05-.69-1.93-1.64-2.25-.46-4.68-4.15-8.35-8.52-8.39-.03,0-.06,0-.08,0-4.47,0-8.23,3.73-8.62,8.56-.75,.4-1.26,1.18-1.26,2.09s.48,1.64,1.2,2.05l-1.52,9.26c-2.69,1.58-4.48,4.5-4.48,7.82l-.02,17.79c0,.28,.22,.5,.5,.5l14.47,.02h.02l14.4,.02h0c.13,0,.26-.05,.35-.15s.15-.22,.15-.35l.02-17.79c0-3.35-1.81-6.3-4.53-7.87Zm-24.36,7.83c0-4.31,3.39-7.85,7.67-8.07l5.78,8.43v16.94h-6.81l.02-15.6c0-.28-.22-.5-.5-.5h0c-.28,0-.5,.22-.5,.5l-.02,15.59h-5.67l.02-17.3Zm6.1-21.44c.48-4.18,3.82-7.37,7.67-7.33,3.69,.04,6.84,3.02,7.47,6.92l-5.82-2.31c-.18-.07-.39-.03-.54,.11-.99,.98-2.66,2.23-4.99,2.68-1.26,.24-2.54,.22-3.8-.08Zm.43,3.02c0-.65,.09-1.28,.26-1.88,.47,.07,.94,.1,1.41,.1,.64,0,1.27-.06,1.89-.18,2.4-.46,4.16-1.69,5.27-2.72l5.22,2.07c.31,.81,.49,1.69,.49,2.61,0,4.01-3.26,7.27-7.27,7.27s-7.27-3.26-7.27-7.27Zm15.52,.57c.01-.19,.03-.38,.03-.57,0-.71-.1-1.4-.27-2.06,.65,.11,1.14,.67,1.14,1.35,0,.59-.38,1.09-.9,1.28Zm-16.26-2.59c-.16,.65-.26,1.32-.26,2.02,0,.17,.02,.33,.03,.5-.44-.23-.74-.68-.74-1.21,0-.62,.41-1.13,.97-1.31Zm8.01,10.29c3.66,0,6.76-2.39,7.85-5.68l1.57,7.44c-.92-.37-1.91-.61-2.96-.67h-.26s-.02,0-.03,0h-12.31c-1.09,.04-2.12,.3-3.07,.69l1.27-7.74c1,3.44,4.18,5.96,7.94,5.96Zm.16,9.47l-1.76-2.56,.58-1.95h2.34l.58,1.96-1.75,2.55Zm1.05-5.51h-2.1v-1.88h2.1v1.88Zm-3.1-1.88v2.3l-.43,1.46-2.58-3.76h3.01Zm4.1,2.35v-2.35h3.01l-2.58,3.77-.42-1.43Zm11.86,23.04h-5.59l.02-15.59c0-.28-.22-.5-.5-.5h0c-.28,0-.5,.22-.5,.5l-.02,15.59h-6.82V30.72l5.77-8.42c4.31,.23,7.67,3.78,7.67,8.09l-.02,17.29Z" stroke-width="0"/><path d="M35.17,26.62h-5.41c-.28,0-.5,.22-.5,.5v2.22c0,.28,.22,.5,.5,.5h5.41c.28,0,.5-.22,.5-.5v-2.22c0-.28-.22-.5-.5-.5Zm-.5,2.22h-4.41v-1.22h4.41v1.22Z" stroke-width="0"/></g></g><g id="uuid-8cbedb80-9427-4584-a840-c1447885a29c"></g></svg>