<?xml version="1.0" encoding="UTF-8"?><svg width="70" height="70" id="uuid-adb8d4c9-3742-4478-8209-cee1c57697e1" xmlns="http://www.w3.org/2000/svg" viewBox="-10 -10 70 70"><rect x="-10" y="-10" width="70" height="70" fill="white"/><g id="uuid-119e5748-288d-4840-bf35-e60f75dc1bad"><path d="M47.8,20.25c-.22-.06-.37-.26-.37-.48v-5.12l-4.13-1.5v1.41c0,.16-.08,.31-.2,.4s-.29,.12-.44,.08l-3.5-1.08-21.82,6.22v10.26c0,.28-.22,.5-.5,.5H8.55l-5.42-.62v1.78h.57v-.7l2.6-.05v.84l-1,.02c.09,.09,.14,.22,.14,.35v1.84c0,.27-.22,.49-.49,.5l-1.83,.04v4.66l5.47,.57h10.37l4.68-.37c.06,0,.13,0,.19,.02l9.78,.53,5.49,.37,3.58-.77c.82-.22,1.68-.45,2.55-.67,.87-.22,1.72-.43,2.57-.64l1.73-.41,.04-4.05c0-.24,.18-.44,.41-.49v-12.83l-2.2-.61ZM14.84,38.51H7.3v-7.18h7.54v7.18Zm11.62-19.04l1.26-.34-.02,11.74-1.24,.04v-11.44Zm-8.23,2.21l1.26-.31-.02,5.31s0,.1,.02,.15v2.3l-1.26-.17v-7.28Zm3.21,11.63v4.86l-3.72,.29v-8.56l3.72,.49v2.92Zm.91-12.73l1.26-.31-.02,10.73-1.15,.04v-1.09c0-.1-.04-.2-.09-.28v-9.1Zm.09,17.59v-4.37l8.87-.15,.03,5-8.9-.48Zm9.38-7.44l-1.24,.04v-12.43l1.26-.37-.02,12.76Zm5.08,3.54l-2.11,.03V17.16l2.11-.44v17.56Zm1.66-.04l-.66,.02V16.83l.69,.27-.02,17.15Z" fill="#ffcd00" stroke-width="0"/><path d="M48.88,18.35l-2.2-.61v-5.09c0-.21-.13-.4-.33-.47l-5.13-1.86s-.03,0-.05,0c-.04-.01-.09-.02-.14-.01-.03,0-.05,0-.08,0-.01,0-.03,0-.04,0l-3.65,1h0l-22.33,6.36c-.21,.06-.36,.26-.36,.48v10.14H6.82l-5.89-.67c-.14-.02-.28,.03-.39,.12s-.17,.23-.17,.37v2.85h0s.02,.08,.02,.12c0,.03,0,.06,.02,.08,.08,.18,.25,.3,.46,.3h.03l1.79-.04v.84l-1.7,.03h-.13c-.27,0-.49,.23-.49,.5v5.6c0,.26,.19,.47,.45,.5l5.92,.62s.03,0,.05,0h10.46l4.62-.37s.02,0,.03,0l9.9,.53h0l5.55,.38h.03s.07,0,.11-.01l3.65-.79h.02c.84-.23,1.7-.46,2.56-.68,.86-.22,1.71-.43,2.56-.63l2.11-.5c.22-.05,.38-.25,.39-.48l.04-4.01c.24-.04,.42-.25,.42-.49v-13.65c0-.22-.15-.42-.37-.48Zm-.63,13.69l-4.58,.64v-14.75l4.58,1.28v12.83Zm-10.34-15.21l.69,.27-.02,17.15-.66,.02V16.83Zm-1,17.45l-2.11,.03V17.16l2.11-.44v17.56Zm3.65-22.05l-1.36-.42,1.36-.37v.79Zm-3.65,.21v3.25l-2.71,.56c-.23,.05-.4,.25-.4,.49v18.06c0,.13,.05,.26,.15,.36,.09,.09,.22,.14,.35,.14h0l2.6-.03v3.75l-4.56-.31-.03-5.58c0-.13-.05-.26-.15-.35s-.22-.14-.36-.14l-9.36,.16v-.76l1.66-.05c.27,0,.48-.23,.48-.5l.02-11.86c0-.15-.07-.3-.19-.39-.12-.09-.28-.13-.43-.09l-2.26,.55c-.22,.06-.38,.26-.38,.49v9.18l-.85-.11v-8.53c0-.15-.07-.3-.19-.4-.12-.09-.28-.13-.43-.09l-2.26,.56c-.22,.05-.38,.26-.38,.49v5.83s-.01,0-.02,0h-1.65v-8.6l21.33-6.08Zm-5.56,26.22l-8.9-.48v-4.37l8.87-.15,.03,5Zm-24.04-.15v-7.18h7.54v7.18H7.3Zm12.2-9.38l-1.26-.17v-7.28l1.26-.31v7.76Zm-2.78,.2h0v9.17h-.88v-10.39h.88v1.22Zm1,9.13v-8.56l3.72,.49v7.78l-3.72,.29Zm4.63-8.79v-9.1l1.26-.31-.02,10.73-1.15,.04v-1.09c0-.1-.04-.2-.09-.28Zm-7.51,.65H7.3v-1.05h7.54v1.05Zm-8.54-1.11v1.12l-3.11,.06h-.73l-1.08,.04v-1.78l4.92,.56Zm0,2.12v.84l-2.6,.05v-.84l2.6-.05Zm0,1.84v5.27l-4.92-.51v-4.66l1.83-.04h0l3.09-.06Zm34.25,5.19l-2.65,.57v-3.69l1.18-.03c.27,0,.49-.23,.49-.5l.02-17.97c0-.21-.13-.39-.32-.47l-1.37-.53v-3.3l2.65,.82v25.1Zm5.52-1.39c-.85,.21-1.71,.42-2.57,.64-.65,.17-1.3,.33-1.94,.5V11.49l4.13,1.5v4.46l-2.38-.66c-.15-.04-.31-.01-.44,.08-.12,.09-.2,.24-.2,.4v15.98c0,.14,.06,.28,.17,.38,.09,.08,.21,.12,.33,.12,.02,0,.05,0,.07,0l4.6-.64-.04,3.47-1.73,.41Z" stroke-width="0"/><path d="M45.09,20.37c-.28,0-.5,.22-.5,.5v9.65c0,.28,.22,.5,.5,.5s.5-.22,.5-.5v-9.65c0-.28-.22-.5-.5-.5Z" stroke-width="0"/><path d="M46.32,21.34v8.87c0,.28,.22,.5,.5,.5s.5-.22,.5-.5v-8.87c0-.28-.22-.5-.5-.5s-.5,.22-.5,.5Z" stroke-width="0"/><path d="M30.08,31.8h.02l2.24-.07c.27,0,.48-.23,.48-.5l.02-13.91c0-.16-.07-.31-.2-.4-.13-.09-.29-.13-.44-.08l-2.26,.66c-.21,.06-.36,.26-.36,.48v13.32c0,.14,.06,.27,.15,.36,.09,.09,.22,.14,.35,.14Zm.5-13.45l1.26-.37-.02,12.76-1.24,.04v-12.43Z" stroke-width="0"/><path d="M25.96,31.94h.02l2.24-.07c.27,0,.48-.23,.48-.5l.02-12.88c0-.16-.07-.3-.2-.4-.12-.09-.29-.13-.43-.09l-2.26,.61c-.22,.06-.37,.26-.37,.48v12.34c0,.14,.06,.27,.15,.36,.09,.09,.22,.14,.35,.14Zm.5-12.46l1.26-.34-.02,11.74-1.24,.04v-11.44Z" stroke-width="0"/></g></svg>