<?xml version="1.0" encoding="UTF-8"?><svg width="70" height="70" xmlns="http://www.w3.org/2000/svg" viewBox="-10 -10 70 70"><rect x="-10" y="-10" width="70" height="70" fill="white"/><g id="uuid-0e81a00b-61c1-40f1-a57a-4c55660ace93"><g><path d="M20.77,9.97c2.4-.46,4.16-1.69,5.26-2.72l1.76,.7s.04,0,.06,0l5.82,2.31c-.63-3.91-3.78-6.89-7.47-6.92-3.71-.05-6.9,2.88-7.59,6.8,.09,0,.17,.02,.26,.02,.64,0,1.27-.06,1.89-.18Z" fill="#ffcd00" stroke-width="0"/><path d="M16.36,13.54c.75,3.79,4.1,6.67,8.11,6.67s7.35-2.86,8.11-6.64c1.15-.17,2.04-1.15,2.04-2.34,0-1.05-.69-1.94-1.64-2.25-.46-4.68-4.15-8.35-8.52-8.39-.03,0-.06,0-.08,0-4.47,0-8.23,3.73-8.62,8.56-.75,.4-1.26,1.18-1.26,2.09,0,1.14,.8,2.09,1.87,2.32Zm.42-4.63c.48-4.18,3.79-7.38,7.67-7.33,3.69,.04,6.84,3.02,7.47,6.92l-5.82-2.31c-.18-.07-.39-.03-.54,.11-.99,.98-2.66,2.23-4.99,2.68-1.26,.24-2.54,.22-3.8-.08Zm7.7,10.29c-4.01,0-7.27-3.26-7.27-7.27,0-.65,.09-1.28,.26-1.88,.47,.06,.94,.1,1.42,.1,.64,0,1.27-.06,1.89-.18,2.4-.46,4.16-1.69,5.26-2.72l5.22,2.07c.31,.81,.49,1.69,.49,2.61,0,4.01-3.26,7.27-7.27,7.27Zm8-9.33c.65,.11,1.14,.67,1.14,1.35,0,.59-.38,1.09-.9,1.28,.01-.19,.03-.38,.03-.57,0-.71-.1-1.4-.27-2.06Zm-16.02,.04c-.16,.65-.26,1.32-.26,2.02,0,.17,.02,.33,.03,.5-.44-.23-.74-.68-.74-1.21,0-.62,.41-1.13,.97-1.31Z" stroke-width="0"/><path d="M32.67,24.04h-.26s-.06,0-.09,0h-3.82l-1.4,2.04-.42-1.43v-.61h-1v.14h-2.1v-.14h-1v.57l-.43,1.46-1.39-2.03h-.63c-4.29,.21-7.67,3.75-7.68,8.07l-.02,17.29,27.89,.04,.02-17.29c0-4.31-3.36-7.86-7.67-8.09Zm-8.03,5.64l-1.76-2.56,.58-1.95h2.34l.58,1.96-1.75,2.55Zm10.03-.84h-4.41v-1.22h4.41v1.22Z" fill="#ffcd00" stroke-width="0"/><path d="M30.94,21.3s-.05,0-.06,0h-.2s-.02,0-.03,0h-12.31c-4.85,.23-8.65,4.21-8.66,9.06l-.02,17.79c0,.28,.22,.5,.5,.5l14.47,.02h.02l14.4,.02h0c.28,0,.5-.22,.5-.5l.02-17.79c0-4.85-3.79-8.84-8.63-9.09ZM10.68,30.35c0-4.31,3.39-7.85,7.67-8.07l5.78,8.43v16.94h-6.81l.02-15.6c0-.28-.22-.5-.5-.5h0c-.28,0-.5,.22-.5,.5l-.02,15.59h-5.67l.02-17.3Zm13.95-.67l-1.76-2.56,.58-1.95h2.34l.58,1.96-1.75,2.55Zm-1.05-7.39h2.1v1.88h-2.1v-1.88Zm-1,0v2.3l-.43,1.46-2.58-3.76h3.01Zm4.53,3.78l-.42-1.43v-2.35h3.01l-2.58,3.77Zm11.44,21.61h-5.59l.02-15.59c0-.28-.22-.5-.5-.5h0c-.28,0-.5,.22-.5,.5l-.02,15.59h-6.82V30.72l5.77-8.42c4.31,.23,7.67,3.78,7.67,8.09l-.02,17.29Z" stroke-width="0"/><path d="M35.67,29.34v-2.22c0-.28-.22-.5-.5-.5h-5.41c-.28,0-.5,.22-.5,.5v2.22c0,.28,.22,.5,.5,.5h5.41c.28,0,.5-.22,.5-.5Zm-1-.5h-4.41v-1.22h4.41v1.22Z" stroke-width="0"/></g></g><g id="uuid-4fef002f-30ab-42b7-be70-b401122600f9"></g></svg>