<?xml version="1.0" encoding="UTF-8"?><svg width="70" height="70" xmlns="http://www.w3.org/2000/svg" viewBox="-10 -10 70 70"><rect x="-10" y="-10" width="70" height="70" fill="white"/><g id="uuid-41d7a141-5c4c-4102-ac12-41ec9d58db45"><g><path d="M24.12,14.31s-2.88,.03-4.51,1.76c-1.38,1.47-1.64,3.2-1.66,4.1v.21c0,1.32-.02,3.76-.07,8.56-.06,.65,.14,1.25,.56,1.7,.39,.41,.91,.64,1.42,.63,1.01-.03,1.85-.94,1.88-2.02v-.12c0-.09,.03-.17,.07-.24v-8.01c0-.28,.22-.5,.5-.5s.5,.22,.5,.5v8.24c0,.09-.03,.17-.07,.24v17.81c.02,1.22,1.04,2.23,2.26,2.25h.03c1.21,0,2.21-.96,2.29-2.16v-.05s0-.06,.01-.09h1s0,.05-.01,.07c0,0,0,.01,0,.02,0,.05,0,.1,0,.15,.04,1.11,1.02,2.07,2.21,2.07s2.21-.99,2.21-2.21V20.51c0-.24,.17-.44,.4-.49,.23-.04,.47,.08,.56,.3l3.28,7.81c.43,1.02,1.61,1.5,2.63,1.08,.49-.21,.88-.59,1.08-1.1s.2-1.05,0-1.54c-1.87-4.35-3.13-7.29-3.53-8.42-.11-.32-.36-1.01-.97-1.72h0s-.3-.31-.65-.62c-1.47-1.28-3.36-1.52-4.7-1.5-.31-.02-6.44,0-6.72,0Z" fill="#ffcd00" stroke-width="0"/><path d="M40.94,26.67h-1.05c.28-.73,.27-1.52-.03-2.24-1.81-4.2-3.12-7.25-3.52-8.39-.11-.32-.41-1.16-1.16-2.02,0,0-.33-.35-.73-.7-1.35-1.18-3.21-1.78-5.36-1.75h-6.71c-.13,0-3.31,.02-5.24,2.07-1.61,1.71-1.9,3.71-1.93,4.75v.24c0,1.27-.02,3.61-.06,8.05h-5.5c-2.62,0-4.76,2-4.76,4.46v16.59c0,.28,.22,.5,.5,.5s.5-.22,.5-.5V31.13c0-1.91,1.69-3.46,3.76-3.46h5.5c.05,.7,.33,1.37,.82,1.9,.58,.62,1.37,.96,2.18,.95,.7-.02,1.35-.32,1.85-.78v15.69c.03,1.76,1.49,3.21,3.24,3.24h.05c1.15,0,2.18-.61,2.77-1.52,.57,.91,1.58,1.52,2.73,1.52,1.77,0,3.21-1.44,3.21-3.21V27.67h2.93c.84,.87,2.15,1.2,3.33,.71,.39-.16,.73-.41,1.02-.71h1.68c1.76,0,3.2,1.55,3.2,3.46v16.59c0,.28,.22,.5,.5,.5s.5-.22,.5-.5V31.13c0-2.46-1.88-4.46-4.2-4.46Zm-5.71-.29l-3.28-7.81c-.09-.22-.33-.34-.56-.3-.23,.05-.4,.25-.4,.49v7.91h-9.93v-7.54c0-.28-.22-.5-.5-.5s-.5,.22-.5,.5v7.54h-3.93c.05-4.45,.06-6.78,.06-8.05v-.21c.03-.9,.28-2.63,1.66-4.1,1.63-1.73,4.48-1.76,4.51-1.76h6.72c1.33-.02,3.23,.22,4.7,1.5,.35,.31,.65,.62,.65,.62,.61,.7,.85,1.39,.97,1.72,.41,1.14,1.66,4.08,3.53,8.42,.21,.49,.21,1.04,0,1.54-.21,.5-.59,.89-1.08,1.09-1.02,.42-2.2-.06-2.63-1.08Zm-6.45,21.29c-1.2,0-2.18-.96-2.21-2.09,0-.04,0-.09,0-.13,0,0,0-.01,0-.02,0-.02,.01-.03,.01-.05v-14.14c0-.28-.22-.5-.5-.5s-.5,.22-.5,.5v14.12s-.01,.07-.01,.1v.04c-.07,1.22-1.07,2.15-2.32,2.17-1.22-.02-2.23-1.03-2.26-2.25V27.67h10v17.78c0,1.22-.99,2.21-2.21,2.21Zm-12.09-18.78c-.31-.33-.5-.75-.56-1.21h3.84c-.11,1-.9,1.81-1.86,1.84-.51,0-1.04-.21-1.42-.63Zm15.3-2.21v-5.43l2.28,5.43h-2.28Z" stroke-width="0"/><path d="M25.72,10.98c2.87,0,5.2-2.33,5.2-5.2S28.59,.58,25.72,.58s-5.2,2.33-5.2,5.2,2.33,5.2,5.2,5.2Zm4.2-5.2c0,2.32-1.89,4.2-4.2,4.2s-4.2-1.89-4.2-4.2,1.89-4.2,4.2-4.2,4.2,1.89,4.2,4.2Z" stroke-width="0"/></g></g><g id="uuid-df27bfc2-c3a8-44ee-8ced-0a7fb5ea45c9"></g></svg>