<?xml version="1.0" encoding="utf-8"?> <!-- Generator: Adobe Illustrator 27.7.0, SVG Export Plug-In . SVG Version: 6.00 Build 0) --> <svg width="70" height="70" version="1.1" xmlns="http://www.w3.org/2000/svg" xmlns:xlink="http://www.w3.org/1999/xlink" x="0px" y="0px" viewBox="-10 -10 70 70" style="enable-background:new 0 0 50 50;" xml:space="preserve"><rect x="-10" y="-10" width="70" height="70" fill="white"/> <style type="text/css"> .st0{fill:#FFCD00;} .st1{display:none;} .st2{display:inline;fill:none;stroke:#EA008A;stroke-width:0.2;stroke-miterlimit:10;} .st3{font-family:'Roboto-Regular';} .st4{font-size:6px;} </style> <g id="Color"> <rect x="3.4751" y="11.6168" transform="matrix(0.9241 -0.3821 0.3821 0.9241 -3.1053 10.2273)" class="st0" width="41.4423" height="2.63"/> <path class="st0" d="M49.3643,33.6953h-2.1426v-9.7275H5.7783v9.7275H3.6357v3.9819h3.715L8.1533,48.604h1.9678l0.8036-10.9268 h31.1509l0.8033,10.9268h1.9678l0.8028-10.9268h3.7148V33.6953z M8.4297,29.3667c0-0.2764,0.2236-0.5,0.5-0.5h35.1406 c0.2764,0,0.5,0.2236,0.5,0.5v4.3286H8.4297V29.3667z" stroke-width="0"/> </g> <g id="ICONS_00000031165542127692736420000002692518830807990202_"> <path d="M48.3643,31.1953h-1.6426v-9.2275c0-0.2764-0.2236-0.5-0.5-0.5h-1.9155L39.2741,7.8325l3.9183-1.6201 c0.2549-0.1055,0.376-0.3979,0.2705-0.6528l-1.3867-3.3545c-0.0508-0.1226-0.1475-0.2202-0.2705-0.271 c-0.1221-0.0498-0.2588-0.0508-0.3828,0L2.2002,18.1509c-0.2549,0.1055-0.376,0.3979-0.2705,0.6528l1.3486,3.2628v9.1288H1.6357 c-0.2764,0-0.5,0.2236-0.5,0.5v4.9819c0,0.2764,0.2236,0.5,0.5,0.5h3.285l0.7687,10.4634c0.0195,0.2612,0.2373,0.4634,0.499,0.4634 h2.8975c0.2617,0,0.4795-0.2021,0.499-0.4634l0.7697-10.4634h29.2908l0.7697,10.4634c0.0195,0.2612,0.2373,0.4634,0.499,0.4634 h2.8975c0.2617,0,0.4795-0.2021,0.499-0.4634l0.7687-10.4634h3.285c0.2764,0,0.5-0.2236,0.5-0.5v-4.9819 C48.8643,31.4189,48.6406,31.1953,48.3643,31.1953z M43.2408,21.4678H6.2962L38.3497,8.2147L43.2408,21.4678z M41.3428,3.0493 l1.0049,2.4302L4.0498,21.3145l-1.0049-2.4307L41.3428,3.0493z M4.2783,22.4678h41.4434v8.7275h-2.6514v-3.3286 c0-0.2764-0.2236-0.5-0.5-0.5H7.4297c-0.2764,0-0.5,0.2236-0.5,0.5v3.3286H4.2783V22.4678z M37.2139,31.1953v-2.8286h4.8564v2.8286 H37.2139z M31.3564,31.1953v-2.8286h4.8574v2.8286H31.3564z M25.5,31.1953v-2.8286h4.8564v2.8286H25.5z M19.6436,31.1953v-2.8286 H24.5v2.8286H19.6436z M13.7861,31.1953v-2.8286h4.8574v2.8286H13.7861z M7.9297,31.1953v-2.8286h4.8564v2.8286H7.9297z M8.6211,47.104H6.6533l-0.7291-9.9268h3.4269L8.6211,47.104z M43.3467,47.104h-1.9678l-0.73-9.9268h3.4269L43.3467,47.104z M47.8643,36.1772H2.1357v-3.9819h45.7285V36.1772z" stroke-width="0"/> </g> <g id="Margin" class="st1"> <rect x="1" y="1" class="st2" /> </g> <g id="Guides" class="st1"> </g> <g id="LABELS"> <g> <g> <g> <g> <g> </g> </g> </g> </g> </g> </g> </svg> 