<?xml version="1.0" encoding="UTF-8"?><svg width="70" height="70" id="uuid-325cf5ae-424d-4838-b898-eaa8955efaac" xmlns="http://www.w3.org/2000/svg" viewBox="-10 -10 70 70"><rect x="-10" y="-10" width="70" height="70" fill="white"/><path d="M49.87,44.89H2.63V19.57c0-6.48,5.08-11.85,11.34-11.96,4.36-.08,8.37,2.27,10.43,6.13,1.95,3.66,5.88,5.94,10.26,5.95h5.73c5.23,.02,9.48,4.28,9.48,9.51v15.69Zm-40.92-2.24H47.87c.28,0,.5-.23,.5-.5v-13.59c0-.27-.22-.5-.5-.5H4.63c-.28,0-.5,.23-.5,.5v13.59c0,.27,.22,.5,.5,.5h4.32Z" fill="#ffcd00" stroke-width="0"/><g><path d="M42.3,26.81H3.38c-.28,0-.5,.23-.5,.5v14.34c0,.27,.22,.5,.5,.5H46.62c.28,0,.5-.23,.5-.5v-14.34c0-.27-.22-.5-.5-.5h-4.32ZM7.2,41.15H3.88v-13.34h2.36v6.93c0,.27,.22,.5,.5,.5h.46v5.91Zm4.33,0h-3.33v-5.91h.46c.28,0,.5-.23,.5-.5v-6.93h1.41v6.93c0,.27,.22,.5,.5,.5h.46v5.91Zm4.32,0h-3.32v-5.91h.46c.27,0,.5-.23,.5-.5v-6.93h2.36v13.34Zm4.33,0h-3.33v-13.34h2.36v6.93c0,.27,.23,.5,.5,.5h.47v5.91Zm4.32,0h-3.32v-5.91h.46c.27,0,.5-.23,.5-.5v-6.93h1.4v6.93c0,.27,.22,.5,.5,.5h.46v5.91Zm4.32,0h-3.32v-5.91h.46c.28,0,.5-.23,.5-.5v-6.93h1.4v6.93c0,.27,.23,.5,.5,.5h.46v5.91Zm4.33,0h-3.33v-5.91h.47c.27,0,.5-.23,.5-.5v-6.93h2.36v13.34Zm4.32,0h-3.32v-13.34h2.36v6.93c0,.27,.23,.5,.5,.5h.46v5.91Zm4.33,0h-3.33v-5.91h.46c.28,0,.5-.23,.5-.5v-6.93h1.41v6.93c0,.27,.22,.5,.5,.5h.46v5.91Zm1.96-6.41v-6.93h2.36v13.34h-3.32v-5.91h.46c.28,0,.5-.23,.5-.5Z" stroke-width="0"/><path d="M39.14,17.45h-5.73c-4.01-.02-7.6-2.1-9.38-5.43-2.23-4.2-6.6-6.74-11.33-6.66C5.91,5.48,.38,11.3,.38,18.32v25.82c0,.28,.22,.5,.5,.5H49.12c.28,0,.5-.22,.5-.5V27.95c0-5.78-4.7-10.49-10.48-10.5Zm9.48,26.19H1.38V18.32C1.38,11.84,6.46,6.47,12.72,6.36c4.36-.08,8.37,2.27,10.43,6.13,1.95,3.66,5.88,5.94,10.26,5.95h5.73c5.23,.02,9.48,4.28,9.48,9.51v15.69Z" stroke-width="0"/></g></svg>