<?xml version="1.0" encoding="UTF-8"?><svg width="70" height="70" xmlns="http://www.w3.org/2000/svg" viewBox="-10 -10 70 70"><rect x="-10" y="-10" width="70" height="70" fill="white"/><g id="uuid-c3d11fb0-f667-4486-8f30-0cb0a5283d67"><g><path d="M24.52,16.99c-1.57,0-5.7,.67-5.85,.44-1.11-1.53-2.8-2.15-3.67-2.37-.33,.75-.84,2.28-.5,3.96,.04,.19-3.39,2.65-4.41,3.86-1.03,1.22-1.84,2.6-2.39,4.11-.07,.19-.24,.32-.44,.33l-1.81,.1c.52,.74,.85,1.86,.85,3.18s-.33,2.45-.85,3.19l2.21,.19c.18,.02,.33,.12,.41,.29,.56,1.21,1.3,2.32,2.17,3.31,.84,.94,1.8,1.76,2.86,2.44l1,.89v5.47h4.17v-3.33s0-.03,0-.04v-.87s0-.03,.01-.04c.05-.04,.23,.06,.54,.31,1.39,.42,3.34,.84,5.7,.87,2.13,.02,3.93-.29,5.25-.63,.28-.08,.58-.2,.88-.37,.04-.02,.08-.05,.12-.07v1.3s0,.03,0,.04v2.83h4.17v-5.87c.15-.07,.3-.14,.46-.22,.19-.1,.37-.19,.54-.29,3.77-2.5,5.92-6.06,5.92-9.86,0-7.25-7.78-13.14-17.34-13.14Z" fill="#ffcd00" stroke-width="0"/><circle cx="27.17" cy="9.3" r="3.18" fill="#ffcd00"/><g><path d="M25.67,10.98c1.75,0,3.18-1.43,3.18-3.18s-1.43-3.18-3.18-3.18-3.18,1.43-3.18,3.18,1.43,3.18,3.18,3.18Z" fill="none" stroke-width="0"/><path d="M49.33,26.43c-1.21,.14-2.15,.2-2.89,.22,.09-.3,.12-.62,.05-.96-.17-.75-.88-1.56-1.75-1.56h-.02c-.55,0-1.11,.35-1.51,.92-.37,.52-.49,1.1-.34,1.53,.14,.41,.5,.8,1.64,.98-.12,.09-.23,.17-.3,.21-.06,.04-.13,.06-.19,.09-.63,.32-1.3,.38-1.85,.32-.33-.03-.62-.09-.84-.15-.41-7.52-8.45-13.54-18.3-13.54-1.77,0-3.53,.2-5.24,.59-1.53-1.9-3.79-2.46-4.46-2.59-.21-.04-.44,.06-.54,.26-.28,.55-1.14,2.43-.82,4.6-1.58,.87-2.97,2-4.13,3.38-1.04,1.23-1.86,2.61-2.45,4.1l-2.95,.16s-.03,0-.04,.01c-1.3,.06-2.27,1.79-2.27,4.09s1.01,4.1,2.34,4.1c.05,0,.1-.02,.15-.02l3.18,.27c.59,1.19,1.33,2.3,2.21,3.29,1.04,1.17,2.25,2.17,3.61,2.96v5.68c0,.28,.22,.5,.5,.5h5.17c.28,0,.5-.22,.5-.5v-3.2c3.45,.8,7.06,.8,10.51,0v3.2c0,.28,.22,.5,.5,.5h5.17c.28,0,.5-.22,.5-.5v-5.69c4.25-2.61,6.74-6.45,6.9-10.61,.34,.08,.75,.14,1.2,.14,.68,0,1.45-.14,2.18-.59,.05-.03,.63-.39,1.13-.97,.9,0,2.06-.06,3.58-.23,.27-.03,.47-.28,.44-.55-.03-.27-.3-.47-.55-.44ZM2.46,32.2c-.63,0-1.34-1.33-1.34-3.1s.71-3.1,1.34-3.1,1.34,1.33,1.34,3.1-.71,3.1-1.34,3.1Zm31.99,6.3v-.44c0-.28-.22-.5-.5-.5s-.5,.22-.5,.5v6.82h-4.17v-2.83s0-.03,0-.04v-1.37c0-.28-.22-.5-.5-.5s-.5,.22-.5,.5v.51c-3.44,.84-7.06,.84-10.51,0v-.52c0-.28-.22-.5-.5-.5s-.5,.22-.5,.5v.87s0,.03,0,.04v3.33h-4.17v-6.82c0-.28-.22-.5-.5-.5s-.5,.22-.5,.5v.45c-1.06-.68-2.02-1.5-2.86-2.44-.88-.99-1.61-2.1-2.17-3.31-.08-.16-.23-.27-.41-.29l-2.21-.19c.52-.74,.85-1.86,.85-3.19s-.33-2.44-.85-3.18l1.81-.1c.2-.01,.37-.14,.44-.33,.55-1.51,1.36-2.89,2.39-4.11,1.02-1.21,2.24-2.2,3.61-2.99,0,.02,0,.03,.01,.05,.11,.33,.22,.64,.34,.9,.08,.19,.27,.3,.46,.3,.07,0,.14-.01,.2-.04,.25-.11,.37-.41,.25-.66-.11-.24-.21-.51-.3-.8-.07-.22-.12-.42-.17-.62-.34-1.68,.17-3.21,.5-3.96,.86,.22,2.55,.84,3.67,2.37,.15,.24,.31,.5,.46,.77,.13,.25,.25,.48,.35,.71,.08,.18,.27,.29,.46,.29,.07,0,.14-.01,.21-.05,.25-.11,.36-.41,.25-.66-.11-.25-.24-.5-.38-.77-.05-.09-.09-.16-.14-.24,1.52-.32,3.08-.49,4.65-.49,9.56,0,17.34,5.9,17.34,13.14,0,3.81-2.14,7.36-5.92,9.86Zm10.91-11.86c-1.41-.08-1.54-.38-1.54-.39-.03-.08,.02-.34,.22-.62,.2-.29,.49-.49,.7-.49h0c.3,0,.69,.38,.77,.77,.05,.24-.02,.49-.15,.73Z" stroke-width="0"/><path d="M30.1,17.79c-1.35-.43-2.74-.73-4.14-.91-1.53-.19-3.08-.23-4.62-.11-.28,.02-.48,.26-.46,.54,.02,.28,.29,.48,.54,.46,1.47-.11,2.96-.08,4.42,.1,1.34,.17,2.67,.46,3.96,.87,.05,.02,.1,.02,.15,.02,.21,0,.41-.14,.48-.35,.08-.26-.06-.54-.33-.63Z" stroke-width="0"/><path d="M11.67,21.41c-1.03,0-1.86,.84-1.86,1.86s.84,1.86,1.86,1.86,1.86-.84,1.86-1.86-.84-1.86-1.86-1.86Zm0,2.73c-.48,0-.86-.39-.86-.86s.39-.86,.86-.86,.86,.39,.86,.86-.39,.86-.86,.86Z" stroke-width="0"/><path d="M25.67,11.98c2.3,0,4.18-1.88,4.18-4.18s-1.88-4.18-4.18-4.18-4.18,1.88-4.18,4.18,1.88,4.18,4.18,4.18Zm0-7.36c1.75,0,3.18,1.43,3.18,3.18s-1.43,3.18-3.18,3.18-3.18-1.43-3.18-3.18,1.43-3.18,3.18-3.18Z" stroke-width="0"/></g></g></g><g id="uuid-3d3b7180-828b-4939-baa5-93eb135a6c7a"></g></svg>