<?xml version="1.0" encoding="UTF-8"?><svg width="70" height="70" id="uuid-49a79ca3-be15-4370-8e0b-278a40d61360" xmlns="http://www.w3.org/2000/svg" viewBox="-10 -10 70 70"><rect x="-10" y="-10" width="70" height="70" fill="white"/><path d="M48.04,18.56l-14.08-14.17c-.66-.66-1.53-1-2.4-1s-1.73,.33-2.38,.98L4.06,29.34c-.64,.63-.99,1.48-.99,2.39,0,.91,.34,1.76,.98,2.4l14.08,14.17c1.31,1.32,3.46,1.33,4.78,.02l25.11-24.96c.64-.63,.99-1.48,.99-2.39,0-.91-.34-1.76-.98-2.4ZM11.99,32.13c-1.3,1.29-3.4,1.28-4.69-.01-.62-.63-.97-1.46-.96-2.35,0-.89,.35-1.72,.98-2.34,.65-.64,1.49-.96,2.34-.96s1.71,.33,2.35,.98c.62,.63,.97,1.46,.96,2.35,0,.89-.35,1.72-.98,2.34Zm5.08-14.48c.65-.64,1.49-.96,2.34-.96s1.71,.33,2.35,.98c1.29,1.3,1.28,3.4-.01,4.69s-3.4,1.28-4.69-.01c-1.29-1.3-1.28-3.4,.01-4.69Zm4.72,24.42c-.63,.62-1.49,.98-2.35,.96-.89,0-1.72-.35-2.34-.98-1.29-1.3-1.28-3.4,.01-4.69,.63-.62,1.46-.96,2.34-.96h.01c.89,0,1.72,.35,2.34,.98,1.29,1.3,1.28,3.4-.01,4.69ZM26.81,7.93c.65-.64,1.49-.96,2.34-.96s1.71,.33,2.35,.98c.62,.63,.97,1.46,.96,2.35,0,.89-.35,1.72-.98,2.34-1.3,1.29-3.4,1.28-4.69-.01-.62-.63-.97-1.46-.96-2.35,0-.89,.35-1.72,.98-2.34Zm4.79,24.42c-1.3,1.29-3.4,1.28-4.69-.01-.62-.63-.97-1.46-.96-2.35,0-.89,.35-1.72,.98-2.34,.65-.64,1.49-.96,2.34-.96s1.71,.33,2.35,.98c.62,.63,.97,1.46,.96,2.35,0,.89-.35,1.72-.98,2.34Zm9.74-9.72c-1.3,1.29-3.4,1.28-4.69-.01-.62-.63-.97-1.46-.96-2.35,0-.89,.35-1.72,.98-2.34,.65-.64,1.49-.96,2.34-.96s1.71,.33,2.35,.98c.62,.63,.97,1.46,.96,2.35,0,.89-.35,1.72-.98,2.34Z" fill="#ffcd00" stroke-width="0"/><path d="M47,16.52L32.91,2.34c-1.7-1.71-4.48-1.72-6.2-.02L1.6,27.29c-.83,.82-1.28,1.92-1.29,3.1,0,1.17,.45,2.28,1.27,3.1l14.08,14.17c.86,.86,1.98,1.29,3.11,1.29s2.24-.42,3.09-1.27l25.11-24.96c.83-.82,1.28-1.92,1.29-3.1,0-1.17-.45-2.28-1.27-3.1ZM27.42,3.03c1.32-1.32,3.47-1.31,4.78,.01l6.58,6.62-9.6,9.55-8.97-9.02,7.2-7.16Zm1.77,35.95l-9.18-9.24,9.17-9.11,9.18,9.24-9.17,9.11Zm-9.89-9.95l-8.97-9.02,9.17-9.12,8.97,9.02-9.17,9.11ZM1.32,30.38c0-.91,.36-1.75,.99-2.39l7.32-7.27,8.97,9.02-9.72,9.66-6.58-6.62c-.63-.64-.98-1.49-.98-2.4Zm19.85,16.58c-1.32,1.31-3.47,1.31-4.78-.01l-6.8-6.84,9.72-9.66,9.18,9.24-7.32,7.27Zm25.11-24.96l-7.21,7.16-9.18-9.24,9.61-9.55,6.8,6.84c.63,.64,.98,1.49,.98,2.4,0,.91-.36,1.75-.99,2.39Z" stroke-width="0"/><path d="M26.09,13.32c.84,.85,1.95,1.27,3.06,1.27s2.2-.42,3.04-1.25c.82-.81,1.27-1.9,1.27-3.05s-.44-2.24-1.26-3.06-1.9-1.27-3.05-1.27h-.01c-1.15,0-2.23,.45-3.04,1.26-.82,.81-1.27,1.9-1.27,3.05,0,1.15,.44,2.24,1.26,3.06Zm.72-5.4c.65-.64,1.49-.96,2.34-.96s1.71,.33,2.35,.98c.62,.63,.97,1.46,.96,2.35,0,.89-.35,1.72-.98,2.34-1.3,1.29-3.4,1.28-4.69-.01-.62-.63-.97-1.46-.96-2.35,0-.89,.35-1.72,.98-2.34Z" stroke-width="0"/><path d="M35.96,17.21c-.82,.81-1.27,1.9-1.27,3.05,0,1.15,.44,2.24,1.26,3.06,.81,.82,1.9,1.27,3.05,1.27h.01c1.15,0,2.23-.45,3.04-1.26,.82-.81,1.27-1.9,1.27-3.05,0-1.15-.44-2.24-1.26-3.06-1.68-1.69-4.42-1.7-6.11-.02Zm5.38,5.41c-1.3,1.29-3.4,1.28-4.69-.01-.62-.63-.97-1.46-.96-2.35,0-.89,.35-1.72,.98-2.34,.65-.64,1.49-.96,2.34-.96s1.71,.33,2.35,.98c.62,.63,.97,1.46,.96,2.35,0,.89-.35,1.72-.98,2.34Z" stroke-width="0"/><path d="M16.36,16.94c-1.69,1.68-1.7,4.42-.02,6.11,.84,.85,1.95,1.27,3.06,1.27s2.2-.42,3.04-1.25c1.69-1.68,1.7-4.42,.02-6.11-1.68-1.69-4.42-1.7-6.11-.02Zm5.38,5.42c-1.3,1.29-3.4,1.28-4.69-.01-1.29-1.3-1.28-3.4,.01-4.69,.65-.64,1.49-.96,2.34-.96s1.71,.33,2.35,.98c1.29,1.3,1.28,3.4-.01,4.69Z" stroke-width="0"/><path d="M32.32,26.95c-.81-.82-1.9-1.27-3.05-1.27h-.01c-1.15,0-2.23,.45-3.04,1.26-.82,.81-1.27,1.9-1.27,3.05s.44,2.24,1.26,3.06c.84,.85,1.95,1.27,3.06,1.27s2.2-.42,3.04-1.25c.82-.81,1.27-1.9,1.27-3.05,0-1.15-.44-2.24-1.26-3.06Zm-.72,5.4c-1.3,1.29-3.4,1.28-4.69-.01-.62-.63-.97-1.46-.96-2.35,0-.89,.35-1.72,.98-2.34,.65-.64,1.49-.96,2.34-.96s1.71,.33,2.35,.98c.62,.63,.97,1.46,.96,2.35,0,.89-.35,1.72-.98,2.34Z" stroke-width="0"/><path d="M9.65,34.1c1.1,0,2.2-.42,3.04-1.25,.82-.81,1.27-1.9,1.27-3.05,0-1.15-.44-2.24-1.26-3.06-.81-.82-1.9-1.27-3.05-1.27h-.01c-1.15,0-2.23,.45-3.04,1.26-.82,.81-1.27,1.9-1.27,3.05s.44,2.24,1.26,3.06c.84,.85,1.95,1.27,3.06,1.27Zm-2.34-6.67c.65-.64,1.49-.96,2.34-.96s1.71,.33,2.35,.98c.62,.63,.97,1.46,.96,2.35,0,.89-.35,1.72-.98,2.34-1.3,1.29-3.4,1.28-4.69-.01-.62-.63-.97-1.46-.96-2.35,0-.89,.35-1.72,.98-2.34Z" stroke-width="0"/><path d="M22.51,36.67c-.81-.82-1.9-1.27-3.05-1.27h-.01c-1.15,0-2.23,.45-3.04,1.26-.82,.81-1.27,1.9-1.27,3.05s.44,2.24,1.26,3.06c.81,.82,1.9,1.27,3.05,1.27h.01c1.15,0,2.23-.45,3.04-1.26,1.69-1.68,1.7-4.42,.02-6.11Zm-.72,5.4c-.63,.62-1.49,.98-2.35,.96-.89,0-1.72-.35-2.34-.98-1.29-1.3-1.28-3.4,.01-4.69,.63-.62,1.46-.96,2.34-.96h.01c.89,0,1.72,.35,2.34,.98,1.29,1.3,1.28,3.4-.01,4.69Z" stroke-width="0"/></svg>