<?xml version="1.0" encoding="UTF-8"?><svg width="70" height="70" xmlns="http://www.w3.org/2000/svg" viewBox="-10 -10 70 70"><rect x="-10" y="-10" width="70" height="70" fill="white"/><g id="uuid-1ac97cc8-3f0d-4e83-9f98-f7e380f3d0c6"><g><path d="M26.72,4C14.33,4,4.25,14.04,4.25,26.38s10.08,22.38,22.46,22.38,22.46-10.04,22.46-22.38S39.1,4,26.72,4Z" fill="#ffcd00" stroke-width="0"/><path d="M24.96,1.25c-6.52,0-12.42,2.66-16.67,6.95-.01,0-.02,.01-.03,.02-.01,.01-.02,.03-.03,.04C4.07,12.48,1.5,18.26,1.5,24.63c0,12.89,10.53,23.38,23.46,23.38s23.46-10.49,23.46-23.38S37.9,1.25,24.96,1.25ZM2.5,24.63c0-5.93,2.33-11.33,6.13-15.34l31.73,31.61c-4.02,3.78-9.44,6.1-15.39,6.1-12.39,0-22.46-10.04-22.46-22.38Zm38.57,15.58L9.33,8.58c4.05-3.91,9.56-6.33,15.63-6.33,12.39,0,22.46,10.04,22.46,22.38,0,6.05-2.43,11.55-6.36,15.58Z" stroke-width="0"/></g></g><g id="uuid-0b47f655-aeaf-4cc9-beb8-4c22eb40b0f8"></g></svg>