<?xml version="1.0" encoding="UTF-8"?><svg width="70" height="70" xmlns="http://www.w3.org/2000/svg" viewBox="-10 -10 70 70"><rect x="-10" y="-10" width="70" height="70" fill="white"/><g id="uuid-54ef19fe-08ec-4542-867a-14dd2fe2f399"><g><path d="M26.58,9.78h-.15c-5.97,0-12.01,.37-17.98,1.06l10.33,21.63s.03-.04,.04-.06c.06-.08,.11-.16,.17-.24,.08-.1,.16-.19,.25-.27,.07-.07,.13-.14,.2-.2,.09-.09,.19-.16,.29-.24,.07-.06,.14-.11,.22-.17,.11-.07,.22-.13,.33-.19,.08-.04,.15-.09,.23-.13,.12-.06,.25-.1,.37-.15,.08-.03,.15-.07,.24-.09,.14-.04,.29-.07,.44-.1,.07-.01,.14-.04,.21-.05,.22-.03,.45-.05,.67-.05,1.6,0,2.99,.85,3.78,2.12,.63,.74,1.13,1.7,1.07,2.83-.12,2.32-2.5,3.77-3.63,4.46-.4,.24-.75,.41-1,.52,1.27,2.72,2.55,5.44,3.82,8.16l9.91-20.75c-.06-.02,4.77-10.16,4.83-10.12l3.29-6.9c-5.95-.7-11.98-1.07-17.95-1.07Zm-9.78,8.56c-1.44,0-2.62-1.17-2.62-2.62s1.17-2.62,2.62-2.62,2.62,1.17,2.62,2.62-1.17,2.62-2.62,2.62Zm13.6,10.87s0-.02,0-.02c0,.03,0,.05,0,.08,0-.02-.01-.04-.01-.06Zm4.95-3.78c-.09-.02-.17-.04-.25-.07-.11-.04-.23-.07-.34-.12-.14-.06-.27-.12-.41-.19-.1-.05-.21-.11-.31-.17-.13-.08-.25-.17-.36-.26-.09-.07-.18-.14-.27-.21-.11-.1-.22-.21-.32-.32-.08-.08-.16-.16-.23-.25-.1-.12-.18-.25-.26-.37-.06-.09-.12-.18-.18-.27-.08-.14-.14-.29-.21-.43-.04-.09-.09-.19-.13-.28-.06-.17-.1-.34-.14-.51-.02-.09-.05-.17-.07-.26-.05-.27-.07-.54-.07-.82,0-2.59,2.11-4.69,4.69-4.69,.27,0,.53,.03,.79,.07,.09,.02,.17,.04,.26,.06,.17,.04,.34,.08,.51,.14,.1,.04,.19,.08,.29,.12,.15,.06,.29,.13,.43,.21,.1,.06,.19,.12,.28,.18,.08,.05,.15,.11,.22,.16l-3.94,8.25Z" fill="#ffcd00" stroke-width="0"/><path d="M16.8,12.11c-1.99,0-3.62,1.62-3.62,3.62s1.62,3.62,3.62,3.62,3.62-1.62,3.62-3.62-1.62-3.62-3.62-3.62Zm0,6.23c-1.44,0-2.62-1.17-2.62-2.62s1.17-2.62,2.62-2.62,2.62,1.17,2.62,2.62-1.17,2.62-2.62,2.62Z" stroke-width="0"/><circle cx="20.98" cy="23.55" r=".61"/><path d="M30.21,10.7c-.47,0-.85,.38-.85,.85s.38,.85,.85,.85,.85-.38,.85-.85-.38-.85-.85-.85Z" stroke-width="0"/><circle cx="29.75" cy="27.71" r=".84"/><path d="M10.07,9.93c-.32,0-.58,.26-.58,.58s.26,.58,.58,.58,.58-.26,.58-.58-.26-.58-.58-.58Z" stroke-width="0"/><path d="M30.41,29.21s0,.04,.01,.06c0-.03,0-.05,0-.08,0,0,0,.02,0,.02Z" fill="none" stroke-width="0"/><path d="M44.19,2.89c-6.23-1.09-12.6-1.65-18.92-1.67-6.55-.01-13.12,.54-19.6,1.68-1.41,.35-2.47,1.51-2.62,2.89-.18,1.65,.94,3.22,2.61,3.66,.04,.01,.08,.02,.13,.02,.02,0,.04,0,.06,0,.02,0,.04,0,.06,0l11.46,23.99,3.09,6.46,4.1,8.58c.08,.17,.26,.28,.45,.28s.37-.11,.45-.28l10.63-22.26,4.29-8.99,3.72-7.78s.07,0,.1,0c1.54-.29,2.68-1.55,2.77-3.07,.1-1.67-1.09-3.17-2.78-3.49ZM21.25,39.27l-2.89-6.04c.04-.08,.07-.17,.12-.25,.05-.09,.09-.18,.14-.27,.06-.11,.13-.21,.21-.31,.06-.08,.11-.16,.17-.24,.08-.1,.16-.19,.25-.27,.07-.07,.13-.14,.2-.2,.09-.09,.19-.16,.29-.24,.07-.06,.14-.11,.22-.17,.11-.07,.22-.13,.33-.19,.08-.04,.15-.09,.23-.13,.12-.06,.25-.1,.37-.15,.08-.03,.15-.07,.24-.09,.14-.04,.29-.07,.44-.1,.07-.01,.14-.04,.21-.05,.22-.03,.45-.05,.67-.05,2.46,0,4.47,2,4.47,4.47s-2,4.47-4.47,4.47c-.2,0-.41-.02-.63-.06-.07-.01-.14-.03-.21-.05-.12-.02-.23-.06-.35-.09Zm14.1-13.84c-.09-.02-.17-.04-.25-.07-.11-.04-.23-.07-.34-.12-.14-.06-.27-.12-.41-.19-.1-.05-.21-.11-.31-.17-.13-.08-.25-.17-.36-.26-.09-.07-.18-.14-.27-.21-.11-.1-.22-.21-.32-.32-.08-.08-.16-.16-.23-.25-.1-.12-.18-.25-.26-.37-.06-.09-.12-.18-.18-.27-.08-.14-.14-.29-.21-.43-.04-.09-.09-.19-.13-.28-.06-.17-.1-.34-.14-.51-.02-.09-.05-.17-.07-.26-.05-.27-.07-.54-.07-.82,0-2.59,2.11-4.69,4.69-4.69,.27,0,.53,.03,.79,.07,.09,.02,.17,.04,.26,.06,.17,.04,.34,.08,.51,.14,.1,.04,.19,.08,.29,.12,.15,.06,.29,.13,.43,.21,.1,.06,.19,.12,.28,.18,.08,.05,.15,.11,.22,.16l-3.94,8.25Zm4.39-9.18c-.06-.04-.13-.07-.19-.11-.1-.07-.21-.13-.31-.19-.18-.1-.36-.19-.54-.26-.11-.05-.22-.09-.33-.13-.2-.07-.41-.13-.62-.17-.1-.02-.2-.05-.3-.07-.31-.05-.62-.09-.94-.09-3.14,0-5.69,2.55-5.69,5.69,0,.33,.03,.66,.09,.98,.02,.11,.05,.21,.08,.32,.05,.21,.1,.41,.17,.61,.04,.12,.1,.23,.15,.35,.08,.17,.15,.35,.24,.51,.07,.12,.14,.23,.22,.34,.1,.15,.2,.3,.31,.44,.09,.11,.18,.21,.27,.31,.12,.13,.24,.25,.37,.37,.1,.09,.21,.18,.32,.26,.14,.11,.28,.21,.43,.3,.12,.08,.24,.15,.37,.21,.16,.08,.32,.16,.49,.23,.13,.05,.26,.11,.4,.15,.06,.02,.12,.05,.19,.07l-9.91,20.75-3.2-6.69c.22,.03,.43,.04,.64,.04,3.02,0,5.47-2.45,5.47-5.47s-2.45-5.47-5.47-5.47c-.26,0-.52,.02-.78,.06-.08,.01-.16,.03-.24,.05-.17,.03-.34,.07-.51,.12-.09,.03-.18,.06-.27,.09-.15,.05-.3,.11-.45,.18-.09,.04-.17,.08-.26,.12-.15,.08-.29,.16-.43,.25-.07,.05-.15,.09-.21,.14-.17,.12-.33,.25-.49,.39-.03,.03-.07,.05-.1,.08-.18,.17-.35,.36-.51,.56-.04,.06-.08,.12-.12,.18-.08,.11-.17,.23-.25,.35L6.96,9.34c5.96-.7,12-1.06,17.98-1.06h.15c5.97,0,12,.37,17.95,1.07l-3.29,6.9Zm4.34-7.79c-6.29-.78-12.68-1.18-19-1.18h-.15c-6.35,0-12.78,.4-19.11,1.18-1.15-.34-1.91-1.42-1.78-2.55,.11-.97,.86-1.79,1.83-2.03,6.38-1.12,12.89-1.67,19.39-1.65,6.27,.02,12.58,.57,18.75,1.65,1.19,.23,2.03,1.28,1.96,2.45-.06,1.02-.85,1.91-1.88,2.14Z" stroke-width="0"/></g></g><g id="uuid-e30b7127-9b64-436e-8d48-445dbe5745f4"></g></svg>