<?xml version="1.0" encoding="UTF-8"?><svg width="70" height="70" xmlns="http://www.w3.org/2000/svg" viewBox="-10 -10 70 70"><rect x="-10" y="-10" width="70" height="70" fill="white"/><g id="uuid-695a9509-2355-4fae-9357-c20a6e4dccf2"><g><path d="M25.79,15.29c-1.21,0-2.2,.99-2.2,2.2s.99,2.2,2.2,2.2,2.2-.99,2.2-2.2-.99-2.2-2.2-2.2Z" fill="none" stroke-width="0"/><path d="M20.67,21.48c-.38,0-.69,.31-.69,.69s.31,.69,.69,.69,.69-.31,.69-.69-.31-.69-.69-.69Z" fill="none" stroke-width="0"/><path d="M34.89,24.23c.48,0,.88-.39,.88-.88s-.39-.88-.88-.88-.88,.39-.88,.88,.39,.88,.88,.88Z" fill="none" stroke-width="0"/><path d="M28.33,34.11c-2.94,1.07-5.94,1.9-8.81,2.47-.96,.19-1.9,.34-2.83,.47-.02,0-.04,0-.06,0,1.82,1.57,4.85,3.54,8.81,3.78,2.89,.17,5.26-.64,5.83-.85,.55-.2,2.83-1.06,4.9-2.97,3.18-2.93,4.2-6.78,4.53-9.15-.59,.41-1.19,.81-1.84,1.21-3.09,1.92-6.73,3.67-10.53,5.04Z" fill="#ffcd00" stroke-width="0"/><path d="M40.17,25.11l.21-.15h0c.14-.1,.26-.2,.39-.29-.12-1.17-.38-2.31-.78-3.4-.53-1.46-1.3-2.83-2.28-4.07-.88-1.12-1.92-2.1-3.1-2.91-2.49-1.73-5.42-2.62-8.37-2.62-1.67,0-3.35,.29-4.95,.87-4.48,1.63-7.89,5.36-9.12,9.98-.37,1.38-.53,2.8-.48,4.22,.05,1.55,.34,3.06,.86,4.5,.45,1.23,1.07,2.39,1.85,3.47,3.89-.43,8.43-1.53,12.97-3.18,4.9-1.78,9.44-4.05,12.79-6.41Zm-5.27-2.63c.48,0,.88,.39,.88,.88s-.39,.88-.88,.88-.88-.39-.88-.88,.39-.88,.88-.88Zm-14.23,.37c-.38,0-.69-.31-.69-.69s.31-.69,.69-.69,.69,.31,.69,.69-.31,.69-.69,.69Zm5.12-3.17c-1.21,0-2.2-.99-2.2-2.2s.99-2.2,2.2-2.2,2.2,.99,2.2,2.2-.99,2.2-2.2,2.2Z" fill="#ffcd00" stroke-width="0"/><path d="M49.32,16.13c-1.37-3.77-7.27-5.37-15.78-4.29-4.14-2.81-9.39-3.48-14.09-1.77-4.73,1.72-8.34,5.63-9.69,10.49C2.73,25.15-.66,30.08,.69,33.79c1.08,2.97,5.14,4.61,11.01,4.61,1.53,0,3.19-.12,4.95-.35,2.5,1.53,5.31,2.31,8.14,2.31,1.79,0,3.59-.31,5.33-.94,4.45-1.62,7.87-5.11,9.42-9.6,7.43-4.65,11.18-9.89,9.8-13.7ZM10.66,21.01c1.23-4.63,4.65-8.37,9.13-10,1.61-.58,3.29-.87,4.96-.87,2.95,0,5.89,.9,8.38,2.63,1.17,.82,2.22,1.8,3.1,2.92,.98,1.24,1.75,2.61,2.28,4.08,.54,1.48,.83,3.06,.86,4.68-3.26,2.25-7.63,4.42-12.34,6.13-4.85,1.76-9.71,2.91-13.71,3.24-.99-1.25-1.76-2.62-2.29-4.07-.52-1.44-.81-2.95-.87-4.5-.05-1.42,.11-2.84,.48-4.23Zm26.92-5.18c3.9-.19,6.5,.49,7.01,1.9,.52,1.42-1.08,3.64-4.24,6.01-.09-1.49-.38-2.94-.88-4.32-.46-1.27-1.1-2.47-1.88-3.59ZM9.49,27.9c.05,.26,.11,.52,.18,.78,.03,.11,.05,.22,.09,.33,.1,.36,.21,.72,.34,1.07,.14,.38,.29,.75,.46,1.12,.05,.12,.11,.23,.17,.34,.12,.25,.25,.5,.39,.74,.07,.13,.15,.26,.22,.38,.14,.23,.28,.45,.43,.68,.08,.12,.16,.25,.25,.37,.04,.05,.07,.11,.11,.16-.09,0-.18,.01-.27,.01-.25,0-.49,.01-.73,.01-.21,0-.42,0-.62,0-.24,0-.47-.02-.69-.03-.19-.01-.37-.03-.55-.05-.21-.02-.41-.05-.61-.07-.18-.03-.34-.06-.5-.09-.17-.03-.34-.07-.5-.11-.16-.04-.31-.09-.46-.14-.13-.04-.26-.09-.38-.13-.15-.06-.28-.13-.4-.2-.09-.05-.19-.1-.27-.15-.13-.09-.23-.19-.33-.29-.05-.05-.11-.09-.16-.14-.13-.16-.23-.32-.3-.5-.06-.18-.09-.37-.09-.57,0-.07,.02-.14,.03-.21,.01-.14,.03-.28,.07-.43,.03-.09,.07-.18,.1-.28,.05-.14,.11-.28,.18-.43,.05-.1,.12-.21,.18-.31,.09-.15,.18-.29,.28-.44,.08-.11,.17-.22,.26-.34,.12-.15,.24-.31,.38-.47,.1-.12,.21-.23,.33-.35,.15-.16,.31-.32,.49-.49,.12-.12,.25-.24,.39-.36,.19-.17,.39-.34,.59-.51,.14-.12,.29-.24,.44-.36,.08-.07,.18-.13,.26-.2,0,.05,.01,.11,.02,.16,.01,.12,.03,.24,.04,.36,.03,.26,.07,.52,.12,.77,.02,.13,.05,.26,.07,.38Zm20.27,10.59c-3.8,1.38-7.92,1.12-11.5-.67,.28-.05,.57-.11,.85-.16,.35-.06,.7-.13,1.06-.2,.59-.12,1.18-.25,1.77-.4,.35-.08,.69-.16,1.04-.25,.64-.17,1.29-.35,1.93-.54,.3-.09,.6-.17,.91-.26,.95-.29,1.89-.61,2.83-.95,.92-.33,1.82-.69,2.71-1.06,.28-.12,.56-.25,.84-.37,.59-.26,1.19-.52,1.76-.79,.32-.15,.63-.31,.95-.47,.52-.26,1.04-.52,1.54-.79,.32-.17,.64-.35,.95-.52,.23-.13,.48-.26,.71-.39-1.61,3.64-4.59,6.44-8.36,7.81Zm9.09-9.42c-3.09,1.92-6.73,3.67-10.53,5.04-2.94,1.07-5.94,1.9-8.81,2.47-.96,.19-1.9,.34-2.83,.47-7.97,1.07-13.88-.34-15.06-3.6-1.11-3.04,1.86-7.38,7.79-11.46-.01,.06-.01,.13-.02,.19-.06,.37-.11,.75-.15,1.12-.01,.14-.02,.28-.03,.42-.02,.34-.03,.68-.03,1.02,0,.09,0,.17,0,.26-.03,.02-.05,.04-.07,.06-.43,.32-.83,.63-1.2,.94-.04,.03-.07,.06-.11,.09-.37,.31-.71,.62-1.02,.92-.03,.03-.06,.06-.09,.09-.31,.3-.59,.6-.84,.9-.02,.03-.04,.05-.07,.08-.25,.29-.47,.59-.65,.87-.02,.02-.03,.05-.04,.07-.18,.29-.34,.57-.46,.84,0,.02-.01,.04-.02,.06-.12,.28-.21,.55-.27,.81,0,.01,0,.02,0,.04-.06,.27-.08,.53-.07,.78v.02c.02,.26,.06,.5,.15,.74,.08,.23,.21,.45,.36,.65,.05,.06,.11,.12,.16,.18,.12,.13,.24,.26,.38,.38,.08,.06,.17,.12,.25,.18,.15,.1,.31,.2,.49,.29,.1,.05,.21,.1,.32,.15,.19,.08,.4,.16,.62,.23,.12,.04,.23,.08,.36,.11,.26,.07,.54,.13,.82,.18,.11,.02,.21,.04,.32,.06,.41,.06,.85,.11,1.32,.14,.04,0,.08,0,.11,0,.38,.02,.78,.04,1.2,.04,.06,0,.13,0,.19,0,.08,0,.16,0,.25,0,.43,0,.87-.03,1.34-.06h.26l.96-.09-.02-.02c3.96-.4,8.63-1.53,13.3-3.22,4.9-1.78,9.44-4.05,12.79-6.41l.21-.15h0c4.04-2.89,5.87-5.58,5.14-7.58-.72-1.98-3.79-2.87-8.67-2.52-.05-.07-.12-.13-.17-.19-.22-.26-.45-.51-.69-.76-.1-.1-.2-.21-.3-.31-.27-.26-.55-.51-.83-.76-.05-.04-.1-.09-.15-.13,7.35-.75,12.54,.66,13.67,3.76,1.2,3.31-2.54,8.25-9.53,12.6Z" stroke-width="0"/><path d="M25.79,20.69c1.76,0,3.2-1.44,3.2-3.2s-1.44-3.2-3.2-3.2-3.2,1.44-3.2,3.2,1.44,3.2,3.2,3.2Zm0-5.4c1.21,0,2.2,.99,2.2,2.2s-.99,2.2-2.2,2.2-2.2-.99-2.2-2.2,.99-2.2,2.2-2.2Z" stroke-width="0"/><path d="M20.67,23.85c.93,0,1.69-.76,1.69-1.69s-.76-1.69-1.69-1.69-1.69,.76-1.69,1.69,.76,1.69,1.69,1.69Zm0-2.37c.38,0,.69,.31,.69,.69s-.31,.69-.69,.69-.69-.31-.69-.69,.31-.69,.69-.69Z" stroke-width="0"/><path d="M34.89,25.23c1.03,0,1.88-.84,1.88-1.88s-.84-1.88-1.88-1.88-1.88,.84-1.88,1.88,.84,1.88,1.88,1.88Zm0-2.75c.48,0,.88,.39,.88,.88s-.39,.88-.88,.88-.88-.39-.88-.88,.39-.88,.88-.88Z" stroke-width="0"/></g></g><g id="uuid-0acb647b-f4d8-4887-aea8-3a4138550229"></g></svg>