<?xml version="1.0" encoding="UTF-8"?><svg width="70" height="70" xmlns="http://www.w3.org/2000/svg" viewBox="-10 -10 70 70"><rect x="-10" y="-10" width="70" height="70" fill="white"/><g id="uuid-34a81e46-3a59-4664-8776-c7a30b34e878"><g><path d="M45.13,32.5c1.41-.8,2.38-2.1,2.68-3.62,.3-1.52-.1-3.09-1.1-4.37-1.41,.8-2.38,2.1-2.68,3.62-.3,1.52,.1,3.09,1.1,4.37Z" fill="#ffcd00" stroke-width="0"/><path d="M39.97,40.85c1.1,1.19,2.58,1.84,4.13,1.79,1.55-.05,2.99-.8,4-2.06-1.1-1.19-2.58-1.84-4.13-1.79-1.55,.05-2.99,.8-4,2.06Z" fill="#ffcd00" stroke-width="0"/><path d="M39.2,39.68c-1.19-1.1-1.84-2.58-1.79-4.13,.05-1.55,.8-2.99,2.06-4,1.19,1.1,1.84,2.58,1.79,4.13-.05,1.55-.8,2.99-2.06,4Z" fill="#ffcd00" stroke-width="0"/><path d="M29.98,45.59c.45,1.56,1.5,2.8,2.91,3.44,1.41,.64,3.03,.61,4.5-.07-.45-1.55-1.5-2.8-2.91-3.44-1.41-.64-3.03-.61-4.5,.07Z" fill="#ffcd00" stroke-width="0"/><path d="M29.59,44.11c-.6-1.51-.53-3.13,.19-4.5,.72-1.37,2.02-2.34,3.6-2.71,.6,1.51,.53,3.13-.19,4.5-.72,1.37-2.02,2.34-3.6,2.71Z" fill="#ffcd00" stroke-width="0"/><path d="M22.7,45.56c-.45,1.56-1.5,2.8-2.91,3.44-1.41,.64-3.03,.61-4.5-.07,.45-1.55,1.5-2.8,2.91-3.44,1.41-.64,3.03-.61,4.5,.07Z" fill="#ffcd00" stroke-width="0"/><path d="M23,44.17c.62-1.5,.58-3.12-.12-4.5-.7-1.38-1.98-2.37-3.56-2.76-.62,1.5-.58,3.12,.12,4.5,.7,1.38,1.98,2.38,3.56,2.76Z" fill="#ffcd00" stroke-width="0"/><path d="M12.68,40.85c-1.1,1.19-2.58,1.84-4.13,1.79-1.55-.05-2.99-.8-4-2.06,1.1-1.19,2.58-1.84,4.13-1.79,1.55,.05,2.99,.8,4,2.06Z" fill="#ffcd00" stroke-width="0"/><path d="M13.46,39.68c1.19-1.1,1.84-2.58,1.79-4.13-.05-1.55-.8-2.99-2.06-4-1.19,1.1-1.84,2.58-1.79,4.13,.05,1.55,.8,2.99,2.06,4Z" fill="#ffcd00" stroke-width="0"/><path d="M7.16,32.47c1-1.27,1.4-2.85,1.1-4.37-.3-1.52-1.27-2.82-2.68-3.62-1,1.27-1.4,2.85-1.1,4.37,.3,1.52,1.27,2.82,2.68,3.62Z" fill="#ffcd00" stroke-width="0"/><path d="M28.98,42.36c.07-.03,.14-.08,.21-.11,0-.09,0-.17,0-.26l-.21,.37Z" fill="#ffcd00" stroke-width="0"/><path d="M20.41,45.04c.12,0,.25,.01,.37,.03,.06-.12,.14-.23,.19-.35l-.56,.33Z" fill="#ffcd00" stroke-width="0"/><path d="M41.18,36.46c.01-.06,.03-.12,.04-.18-.05,.07-.1,.14-.16,.21,.04-.01,.08-.02,.12-.03Z" fill="#ffcd00" stroke-width="0"/><path d="M11.19,6.59c.3,3.39,.85,6.79,1.65,10.11,1.09,4.53,1.75,7.26,3.51,10.1,2.24,3.62,5.83,6.57,10.39,8.54,4.49-1.99,8.06-4.94,10.32-8.55,1.83-2.93,2.53-5.78,3.6-10.1,.81-3.31,1.37-6.71,1.65-10.09-4.88-2.38-10.11-3.59-15.56-3.59s-10.68,1.21-15.56,3.58Zm15.04,1.4c.01,.07,.04,.31,.22,.47,.08,.07,.18,.1,.25,.11,.4,1.02,.81,2.04,1.21,3.06l4.82,1.02c.06-.01,.14-.03,.25-.03,.31,0,.7,.09,.72,.22,0,.05-.04,.14-.36,.28l-1.6,1.98-2.06,1.68c.36,1.75,.72,3.5,1.07,5.26,0,0,.01,.02,.01,.03,0,.19-1.33,.56-2.32,.05-.25-.13-.42-.28-.52-.39l-2.56-1.54-2.92,1.35-2.12,1.05c-.2,.2-.34,.29-.41,.25-.1-.06-.08-.36,.08-.91,.3-1.75,.61-3.5,.91-5.26-.99-.83-1.98-1.67-2.97-2.5-.53-.35-.78-.86-.66-1.27,.03-.09,.09-.22,.25-.36l4.9-.85,2.92-4.84c.69,.55,.87,.92,.91,1.16Z" fill="#ffcd00" stroke-width="0"/><g><path d="M41.56,4.35C36.46,1.8,30.97,.51,25.25,.51S14.04,1.8,8.94,4.35c-.18,.09-.29,.28-.27,.49,.29,3.55,.87,7.12,1.71,10.6,1.08,4.46,1.79,7.4,3.64,10.39,2.38,3.85,6.2,6.97,11.05,9.02,.06,.03,.13,.04,.2,.04s.14-.01,.2-.04c4.77-2.07,8.56-5.19,10.96-9.02,1.92-3.06,2.63-5.98,3.72-10.4,.85-3.48,1.43-7.04,1.71-10.59,.02-.2-.09-.4-.27-.49Zm-2.4,10.84c-1.06,4.32-1.76,7.18-3.6,10.1-2.26,3.61-5.82,6.56-10.32,8.55-4.56-1.97-8.15-4.92-10.39-8.54-1.76-2.85-2.42-5.58-3.51-10.1-.8-3.32-1.36-6.72-1.65-10.11,4.88-2.38,10.11-3.58,15.56-3.58s10.68,1.21,15.56,3.59c-.28,3.39-.84,6.78-1.65,10.09Z" stroke-width="0"/><path d="M24.85,6.1l-2.62,5.2-5.77,.79c-.19,.03-.35,.16-.41,.34-.06,.18-.01,.38,.12,.51l4.14,4.09-1.03,5.73c-.03,.19,.04,.38,.2,.49,.15,.11,.36,.13,.53,.04l2.17-1.12,3-1.55,1.09,.58,4.04,2.16c.07,.04,.16,.06,.24,.06,.1,0,.2-.03,.29-.09,.03-.02,.04-.06,.07-.08,.1-.11,.16-.25,.13-.4l-.94-5.74,2.88-2.77,1.32-1.27c.14-.13,.19-.33,.13-.51-.06-.18-.21-.31-.4-.34l-5.75-.88-2.54-5.24c-.08-.17-.26-.28-.45-.28h0c-.19,0-.36,.11-.45,.28Zm1.54,3.64l1.1,2.28c.07,.15,.21,.25,.38,.28l.58,.09,4.44,.68-1.14,1.1-2.52,2.42c-.12,.11-.17,.28-.15,.44l.82,5-4.47-2.39c-.07-.04-.16-.06-.24-.06s-.16,.02-.23,.06l-2.56,1.32-1.95,1.01,.89-4.99c.03-.15-.02-.29-.12-.4-.01-.01-.01-.03-.02-.04l-2.09-2.07-1.51-1.5,5.02-.69c.16-.02,.3-.12,.38-.27l2.28-4.53,1.11,2.28Z" stroke-width="0"/><path d="M47.69,38.76c-1.31-1.64-3.21-2.53-5.2-2.48-.45,.01-.88,.08-1.31,.19-.04,0-.08,.01-.12,.03,.05-.07,.1-.14,.16-.21,1.03-1.31,1.91-2.74,2.62-4.27,.25-.13,.49-.27,.72-.42,1.44-.95,2.43-2.38,2.76-4.04,.13-.68,.14-1.37,.05-2.04-.17-1.26-.73-2.48-1.64-3.5-.15-.17-.39-.21-.59-.12-1.88,.91-3.19,2.56-3.57,4.52-.36,1.83,.13,3.72,1.34,5.23-.48,1.03-1.07,2-1.71,2.93-.19,.28-.37,.57-.57,.84,.09-.4,.16-.81,.17-1.23,0-.33-.02-.66-.06-.98-.21-1.62-1.06-3.12-2.42-4.22-.18-.14-.42-.15-.6-.02-1.71,1.21-2.72,3.05-2.77,5.05-.05,1.87,.75,3.65,2.2,4.94-1.2,.95-2.52,1.75-3.92,2.41-.69,.32-1.38,.62-2.11,.86,.61-.52,1.12-1.14,1.49-1.87h0c.55-1.07,.76-2.25,.65-3.44-.07-.78-.28-1.57-.65-2.32-.1-.2-.32-.31-.54-.28-2.06,.36-3.77,1.58-4.68,3.35-.86,1.67-.9,3.63-.14,5.43-.82,.1-1.66,.17-2.51,.17-.46,0-.92-.02-1.38-.06-.3-.02-.61-.05-.91-.08,.48-1.12,.65-2.31,.5-3.44-.09-.7-.3-1.38-.63-2.02-.91-1.77-2.62-2.99-4.68-3.35-.22-.04-.44,.07-.54,.28-.91,1.89-.91,3.99,0,5.76,.41,.8,.99,1.48,1.68,2.02-2.32-.72-4.46-1.87-6.34-3.33,.06-.05,.12-.11,.18-.17,1.4-1.29,2.18-3.03,2.13-4.87,0-.21-.03-.42-.06-.63-.23-1.75-1.19-3.33-2.72-4.42-.18-.13-.43-.12-.6,.02-1.63,1.31-2.54,3.2-2.48,5.2,.02,.6,.13,1.18,.31,1.74-.91-1.11-1.68-2.33-2.34-3.62-.13-.25-.26-.51-.38-.77,1.07-1.39,1.53-3.07,1.32-4.73-.02-.13-.03-.27-.06-.4-.39-1.96-1.69-3.6-3.57-4.52-.2-.1-.44-.05-.59,.12-1.39,1.56-1.97,3.58-1.59,5.54,.39,1.96,1.69,3.6,3.57,4.52,0,0,.01,0,.02,0,.02,0,.03,.02,.05,.02,.73,1.56,1.62,3.02,2.69,4.34-.38-.08-.76-.14-1.15-.15-1.95-.04-3.89,.85-5.2,2.48-.14,.17-.15,.42-.02,.6,1.07,1.51,2.63,2.47,4.35,2.71,.23,.03,.46,.05,.69,.06h0c.06,0,.12,0,.17,0,1.77,0,3.44-.77,4.68-2.12,.03-.03,.05-.05,.08-.08,1.53,1.17,3.22,2.14,5.04,2.86-.24,.07-.47,.16-.69,.26-1.82,.81-3.14,2.44-3.61,4.48-.05,.22,.05,.44,.25,.55,.74,.41,1.53,.67,2.33,.78,.3,.04,.6,.07,.9,.07,.86,0,1.72-.18,2.52-.53,1.4-.62,2.5-1.75,3.14-3.16,.17-.36,.31-.73,.41-1.13,.81,.1,1.63,.16,2.47,.16,.92,0,1.81-.08,2.7-.19,.51,1.96,1.79,3.54,3.57,4.32,.54,.24,1.11,.39,1.69,.47,.27,.04,.55,.06,.82,.06,1.1,0,2.21-.29,3.23-.85,.11-.06,.18-.15,.22-.26,.04-.09,.05-.19,.03-.29-.47-2.04-1.79-3.67-3.61-4.48-.27-.12-.55-.22-.84-.29,1.84-.74,3.55-1.73,5.09-2.93,1.06,1.24,2.47,2.02,4,2.23,.28,.04,.57,.07,.86,.07,.06,0,.12,0,.17,0h0c1.79-.05,3.46-.88,4.66-2.29,.13-.16,.27-.31,.39-.49,.13-.18,.12-.43-.02-.6Zm-5.15-12.15c.3-1.52,1.27-2.83,2.69-3.63,.44,.57,.76,1.19,.96,1.84,.25,.82,.31,1.69,.14,2.54-.25,1.28-.98,2.4-2.05,3.2l.38-1.6c.06-.27-.1-.54-.37-.6-.11-.02-.21,0-.3,.03-.15,.06-.26,.18-.3,.34l-.41,1.74c-.73-1.17-1-2.53-.74-3.86Zm-36.91,1.8c-.06-.27-.32-.44-.59-.38-.27,.06-.44,.32-.38,.59l.36,1.69,.06,.27c-1.08-.8-1.82-1.93-2.08-3.23-.3-1.52,.1-3.1,1.1-4.38,.79,.45,1.44,1.06,1.91,1.77,.37,.56,.64,1.19,.77,1.86,.26,1.31,0,2.66-.72,3.83l-.43-2.02Zm3.27,11.49h0l1.69-.02c-1.01,.84-2.25,1.29-3.53,1.25-.85-.02-1.67-.26-2.4-.68-.61-.34-1.16-.8-1.62-1.37,1.09-1.2,2.62-1.86,4.13-1.81,1.36,.04,2.65,.61,3.63,1.61h-1.23l-.68,.02c-.28,0-.5,.23-.5,.5,0,.27,.23,.5,.5,.5Zm2.96-4.36c-.18-.02-.36,.11-.45,.28-.03,.07-.05,.14-.06,.21v1.55c-.9-.96-1.41-2.16-1.45-3.44-.04-1.55,.61-3.04,1.81-4.14,.57,.46,1.03,1.02,1.37,1.62,.41,.73,.65,1.55,.68,2.4,.04,1.38-.48,2.7-1.43,3.75l.02-1.74c0-.28-.22-.5-.5-.5Zm8.93,9.52c-.55,1.08-1.4,1.95-2.49,2.44-.83,.37-1.72,.5-2.62,.42-.64-.06-1.28-.23-1.9-.52,.47-1.56,1.52-2.79,2.94-3.42,1.2-.53,2.54-.58,3.81-.17l-1.36,.79c-.22,.13-.3,.39-.2,.62,0,.02,0,.04,.02,.06,.09,.16,.26,.25,.43,.25,.09,0,.17-.02,.25-.07l.74-.43,.56-.33c-.05,.12-.13,.23-.19,.35Zm.98-2.97l-.86-1.54c-.13-.24-.44-.33-.68-.19-.24,.13-.33,.44-.19,.68l.76,1.36c-.39-.15-.74-.36-1.08-.58-.72-.49-1.32-1.13-1.73-1.91-.71-1.38-.76-3.01-.15-4.51,1.41,.34,2.58,1.16,3.33,2.31,.09,.14,.18,.28,.26,.44,.62,1.21,.74,2.61,.34,3.96Zm6.17,.07c-.42-1.36-.32-2.79,.32-4.03,.71-1.38,2-2.37,3.58-2.75,.25,.61,.38,1.25,.41,1.88,.04,.91-.14,1.82-.56,2.63-.54,1.05-1.43,1.85-2.51,2.35-.07,.03-.14,.08-.21,.11l.21-.37,.47-.84c.13-.24,.05-.55-.19-.68-.01,0-.02,0-.03-.01-.24-.11-.52-.03-.65,.2l-.83,1.5Zm5.02,1.81c.92,.41,1.67,1.09,2.22,1.93,.3,.46,.56,.94,.72,1.49-1.47,.69-3.09,.74-4.51,.1-.25-.11-.49-.25-.71-.4-.82-.54-1.48-1.31-1.91-2.24l1.21,.7,.03,.02c.08,.05,.17,.07,.25,.07,.17,0,.34-.09,.43-.25,.02-.04,.03-.08,.04-.11,.06-.22-.02-.45-.22-.57l-1.5-.87c.14-.05,.29-.07,.44-.11,.55-.15,1.11-.22,1.67-.19,.63,.03,1.25,.17,1.84,.43Zm5.39-8.13c0-.27-.23-.5-.5-.5h0c-.19,0-.35,.11-.43,.27-.04,.07-.06,.15-.06,.23l.02,1.96c-.97-1.05-1.49-2.38-1.45-3.77,.04-1.55,.78-3,2.05-4.03,.54,.49,.97,1.07,1.27,1.7,.37,.76,.56,1.59,.54,2.44-.04,1.27-.54,2.47-1.41,3.42l-.02-1.73Zm8.09,3.47c-1.01,1.12-2.37,1.77-3.82,1.82-.85,.03-1.67-.18-2.43-.55-.48-.24-.93-.52-1.34-.89l1.94,.02h0c.27,0,.5-.22,.5-.5,0-.28-.22-.5-.5-.5h-.64l-1.08-.02c.51-.47,1.09-.82,1.71-1.06,.54-.21,1.11-.34,1.7-.36,1.55-.05,3.04,.61,4.14,1.81-.07,.08-.14,.15-.21,.23Z" stroke-width="0"/></g></g></g><g id="uuid-262322b8-f586-4524-989e-7142c16f2369"></g></svg>