<?xml version="1.0" encoding="UTF-8"?><svg width="70" height="70" id="uuid-82984c8b-99c4-4f81-abc3-0a2b06cb20a0" xmlns="http://www.w3.org/2000/svg" viewBox="-10 -10 70 70"><rect x="-10" y="-10" width="70" height="70" fill="white"/><polygon points="39.91 26.25 19.76 38.32 19.76 14.18 39.91 26.25" fill="#ffcd00"/><g><path d="M18.26,11.61c-.15-.09-.34-.09-.5,0-.16,.09-.25,.25-.25,.43v25.92c0,.18,.09,.34,.25,.43,.08,.05,.16,.07,.25,.07s.17-.03,.25-.07l21.63-12.96c.15-.09,.25-.25,.25-.43s-.1-.34-.25-.43L18.26,11.61Zm.25,25.46V12.93l20.15,12.07-20.15,12.07Z" stroke-width="0"/><path d="M25,1.5C12.04,1.5,1.5,12.04,1.5,25s10.54,23.5,23.5,23.5,23.5-10.54,23.5-23.5S37.96,1.5,25,1.5Zm0,46c-12.41,0-22.5-10.09-22.5-22.5S12.59,2.5,25,2.5s22.5,10.09,22.5,22.5-10.09,22.5-22.5,22.5Z" stroke-width="0"/></g></svg>