<?xml version="1.0" encoding="UTF-8"?><svg width="70" height="70" xmlns="http://www.w3.org/2000/svg" viewBox="-10 -10 70 70"><rect x="-10" y="-10" width="70" height="70" fill="white"/><g id="uuid-95c71263-8a55-4bde-97d1-6b92b935244e"><g><path d="M42.03,31.45c-.11-.13-.15-.3-.1-.46,.05-.16,.17-.29,.33-.34,.81-.26,1.57-.59,2.26-.99l5.26-3.04-5.26-3.04c-.4-.23-.85-.45-1.39-.67-.15-.06-.26-.19-.29-.34-.04-.15,0-.32,.1-.44,.38-.46,.67-.85,.91-1.25l3.21-5.16-6.07-.2c-.8-.03-1.63,.04-2.46,.19-.17,.03-.33-.02-.45-.14-.12-.12-.16-.29-.13-.45,.18-.83,.27-1.65,.27-2.45V6.6l-5.26,3.04c-.4,.23-.81,.51-1.28,.87-.12,.1-.29,.13-.44,.08-.15-.04-.28-.16-.33-.31-.21-.56-.41-1.01-.62-1.41l-2.86-5.36-3.21,5.16c-.42,.68-.78,1.43-1.07,2.23-.06,.16-.19,.28-.35,.32-.16,.04-.33,0-.46-.12-.63-.57-1.29-1.06-1.99-1.46l-5.26-3.04v6.07c0,.47,.04,.96,.12,1.54,.02,.16-.03,.32-.15,.43-.11,.11-.27,.16-.43,.13-.59-.1-1.08-.15-1.54-.17l-6.07-.2,2.86,5.36c.38,.7,.85,1.39,1.4,2.03,.11,.13,.15,.3,.1,.46-.05,.16-.17,.29-.33,.34-.81,.26-1.57,.59-2.26,.99l-5.26,3.04,5.26,3.04c.4,.23,.85,.45,1.39,.67,.15,.06,.26,.19,.29,.34,.04,.15,0,.32-.1,.44-.38,.46-.67,.85-.91,1.25l-3.21,5.16,6.07,.2c.8,.03,1.62-.04,2.46-.19,.17-.03,.33,.02,.45,.14,.12,.12,.16,.29,.13,.45-.18,.83-.27,1.65-.27,2.45v6.07l5.26-3.04c.4-.23,.81-.51,1.28-.87,.09-.07,.2-.1,.31-.1,.05,0,.09,0,.14,.02,.15,.04,.28,.16,.33,.31,.21,.56,.41,1.01,.62,1.41l2.86,5.36,3.21-5.16c.42-.68,.78-1.43,1.06-2.23,.06-.16,.19-.28,.35-.32,.16-.04,.33,0,.46,.12,.63,.57,1.3,1.06,1.99,1.46l5.26,3.04v-6.07c0-.46-.04-.95-.12-1.54-.02-.16,.03-.32,.15-.43,.11-.11,.28-.16,.43-.13,.58,.1,1.07,.15,1.54,.17l6.07,.2-2.86-5.36c-.38-.7-.85-1.39-1.4-2.03Zm-17.97-2.32c-.06-.06-.09-.13-.12-.2,.07,.09,.14,.18,.22,.27-.04-.02-.07-.03-.1-.06Zm.84-.39c-2.14,0-3.87-1.74-3.87-3.88s1.74-3.87,3.87-3.87,3.88,1.74,3.88,3.87-1.74,3.88-3.88,3.88Z" fill="#ffcd00" stroke-width="0"/><path d="M49.22,25.31c.15-.09,.25-.25,.25-.43s-.1-.34-.25-.43l-6.01-3.47c-.3-.17-.61-.33-.92-.48,.2-.27,.41-.54,.59-.83l3.67-5.89c.09-.15,.1-.34,.02-.5-.08-.16-.25-.26-.42-.26l-6.94-.23c-.67-.02-1.32,.02-1.97,.1,.1-.64,.17-1.29,.17-1.96V3.98c0-.18-.1-.34-.25-.43-.15-.09-.35-.09-.5,0l-6.01,3.47c-.3,.17-.58,.36-.86,.55-.13-.31-.27-.62-.44-.92L26.08,.53c-.08-.16-.25-.26-.42-.26-.17,0-.35,.08-.44,.24l-3.67,5.89c-.35,.57-.64,1.15-.9,1.75-.5-.41-1.04-.79-1.61-1.12l-6.01-3.47c-.15-.09-.35-.09-.5,0-.15,.09-.25,.25-.25,.43v6.94c0,.34,.02,.68,.05,1.02-.33-.04-.67-.07-1.01-.08l-6.94-.23c-.18-.01-.35,.08-.44,.24-.09,.15-.1,.34-.02,.5l3.27,6.12c.31,.59,.68,1.13,1.07,1.65-.6,.23-1.2,.5-1.78,.84L.47,24.44c-.15,.09-.25,.25-.25,.43s.1,.34,.25,.43l6.01,3.47c.3,.17,.61,.31,.92,.45-.2,.28-.4,.56-.59,.85l-3.67,5.89c-.09,.15-.1,.34-.02,.5,.08,.16,.25,.26,.42,.26l6.94,.23c.14,0,.28,0,.42,0,.52,0,1.03-.04,1.54-.11-.1,.64-.16,1.29-.16,1.96v6.94c0,.18,.1,.34,.25,.43,.08,.04,.16,.07,.25,.07s.17-.02,.25-.07l6.01-3.47c.3-.17,.58-.36,.86-.55,.13,.31,.28,.62,.44,.92l3.27,6.12c.08,.16,.25,.26,.42,.26h.02c.17,0,.33-.09,.42-.24l3.67-5.89c.35-.57,.64-1.15,.9-1.75,.5,.41,1.04,.79,1.62,1.12l6.01,3.47c.08,.04,.16,.07,.25,.07s.17-.02,.25-.07c.15-.09,.25-.25,.25-.43v-6.94c0-.34-.02-.68-.05-1.02,.33,.04,.67,.07,1.01,.08l6.94,.23h.02c.17,0,.33-.09,.42-.24,.09-.15,.1-.34,.02-.5l-3.27-6.12c-.31-.59-.68-1.14-1.07-1.65,.61-.23,1.2-.5,1.78-.83l6.01-3.47Zm-12.81,13.52v6.07l-5.26-3.04c-4.35-2.51-6.46-7.43-5.52-12.19,1.21-.18,2.27-.8,3.01-1.71,4.57,1.57,7.76,5.84,7.76,10.86Zm-23.12,6.07v-6.07c0-5.05,3.24-9.36,7.86-10.9,.72,.89,1.74,1.52,2.91,1.73,.95,4.76-1.16,9.69-5.51,12.2l-5.26,3.04Zm0-33.98V4.85l5.26,3.04c4.36,2.51,6.46,7.44,5.51,12.2-1.17,.21-2.19,.84-2.91,1.73-4.62-1.54-7.86-5.84-7.86-10.9Zm23.12-6.07v6.07c0,5.01-3.19,9.29-7.76,10.86-.75-.9-1.8-1.52-3.01-1.71-.94-4.75,1.16-9.68,5.52-12.19l5.26-3.04Zm-7.62,20.03c0,2.14-1.74,3.88-3.88,3.88s-3.87-1.74-3.87-3.88,1.74-3.87,3.87-3.87,3.88,1.74,3.88,3.87Zm-8.44-1.67c-.19,.52-.31,1.08-.31,1.67s.12,1.15,.31,1.67c-3.64,3.24-8.99,3.89-13.37,1.37l-5.26-3.04,5.26-3.04c4.38-2.53,9.73-1.87,13.37,1.37Zm9.09,3.43c.21-.55,.34-1.14,.34-1.76s-.13-1.21-.34-1.76c3.64-3.16,8.93-3.78,13.26-1.28l5.26,3.04-5.26,3.04c-4.33,2.5-9.62,1.88-13.26-1.28Zm9.73-12.85l6.07,.2-3.21,5.16c-.21,.34-.44,.66-.68,.97-2.48-.94-5.13-1.04-7.59-.38,1.58-1.58,2.72-3.58,3.27-5.81,.7-.11,1.41-.15,2.14-.13ZM22.4,6.92l3.21-5.16,2.86,5.36c.19,.35,.35,.71,.5,1.07-2.05,1.68-3.46,3.92-4.13,6.38-.58-2.16-1.74-4.15-3.4-5.74,.26-.66,.58-1.3,.96-1.91Zm-14.33,11.09l-2.86-5.36,6.07,.2c.4,.01,.79,.05,1.18,.1,.43,2.62,1.66,4.96,3.46,6.77-2.16-.58-4.46-.57-6.67,.08-.44-.55-.83-1.15-1.18-1.79Zm2.44,17.96l-6.07-.2,3.21-5.16c.21-.34,.44-.66,.68-.97,1.43,.54,2.91,.82,4.38,.82,1.09,0,2.16-.16,3.2-.44-1.58,1.58-2.72,3.58-3.27,5.82-.7,.11-1.41,.15-2.14,.13Zm16.77,6.86l-3.21,5.16-2.86-5.36c-.19-.35-.35-.71-.5-1.07,2.05-1.68,3.46-3.92,4.13-6.38,.58,2.16,1.74,4.15,3.4,5.74-.26,.66-.58,1.3-.96,1.91Zm14.33-11.09l2.86,5.36-6.07-.2c-.4-.01-.79-.05-1.17-.1-.43-2.62-1.67-4.96-3.47-6.77,1.04,.28,2.12,.43,3.2,.43,1.16,0,2.33-.18,3.47-.51,.44,.55,.84,1.15,1.18,1.79Z" stroke-width="0"/></g><path d="M24.22,29.26s.07,.04,.1,.06c-.08-.09-.15-.18-.22-.27,.02,.07,.06,.15,.12,.2Z" fill="none" stroke-width="0"/></g><g id="uuid-dae565a7-5b83-4239-9cce-6369289c5b41"></g></svg>