<?xml version="1.0" encoding="UTF-8"?><svg width="70" height="70" xmlns="http://www.w3.org/2000/svg" viewBox="-10 -10 70 70"><rect x="-10" y="-10" width="70" height="70" fill="white"/><g id="uuid-40e16347-b130-4611-8ed5-57e89b46c383"><path d="M46.85,7.46l-3.18-2.36c-1.51.76-8.47,3.93-14.78.64l-3.17-1.83-3.15,1.82c-6.32,3.3-13.29.13-14.8-.63l-3.18,2.36c3.55,4.8,3.7,8.03,2.39,15.49-1.29,7.35-2.63,14.95,4.16,18.36,1.99,1,4.12,1.4,6.18,1.79,3.37.65,6.58,1.25,8.4,4.39,1.82-3.14,5.03-3.74,8.4-4.39,2.06-.39,4.19-.79,6.18-1.79,6.79-3.41,5.45-11.01,4.16-18.36-1.31-7.46-1.16-10.69,2.39-15.49ZM38.05,20.94l-6.21,5.97,1.4,8.49c.03.19-.05.38-.2.49-.09.06-.19.09-.3.09-.08,0-.16-.02-.23-.06l-7.59-4.06-7.65,3.95c-.17.09-.38.07-.53-.04-.15-.11-.23-.3-.19-.49l1.51-8.47-6.12-6.06c-.13-.13-.18-.33-.12-.51s.22-.31.41-.34l8.52-1.17,3.87-7.7c.09-.17.26-.27.45-.27s.36.11.45.28l3.75,7.75,8.51,1.3c.19.03.34.16.4.34s.01.38-.13.51Z" fill="#ffcd00" stroke-width="0"/></g><g id="uuid-1d91885c-8350-440f-953f-5c1311e9d2ec"><path d="M28.49,19.46l-3.43-7.07-3.53,7.02c-.07.15-.22.25-.38.27l-7.78,1.07,5.58,5.53c.12.11.17.28.14.44l-1.38,7.74,6.98-3.61c.07-.03.15-.05.23-.05s.16.02.24.06l6.93,3.7-1.28-7.75c-.02-.16.03-.33.15-.44l5.67-5.45-7.77-1.18c-.16-.03-.3-.13-.37-.28ZM25.52,11.04l3.75,7.75,8.51,1.3c.19.03.34.16.4.34s.01.38-.13.51l-6.21,5.97,1.4,8.49c.03.19-.05.38-.2.49-.09.06-.19.09-.3.09-.08,0-.16-.02-.23-.06l-7.59-4.06-7.65,3.95c-.17.09-.38.07-.53-.04s-.23-.3-.19-.49l1.51-8.47-6.12-6.06c-.13-.13-.18-.33-.12-.51s.22-.31.41-.34l8.52-1.17,3.87-7.7c.09-.17.26-.27.45-.27s.36.11.45.28Z" stroke-width="0"/><path d="M25,46.77c1.82-3.14,5.03-3.74,8.4-4.39,2.06-.39,4.19-.79,6.18-1.79,6.79-3.41,5.45-11.01,4.16-18.36-1.31-7.46-1.16-10.69,2.39-15.49l-3.18-2.36c-1.51.76-8.47,3.93-14.78.64l-3.17-1.83-3.15,1.82c-6.32,3.3-13.29.13-14.8-.63l-3.18,2.36c3.55,4.8,3.7,8.03,2.39,15.49-1.29,7.35-2.63,14.95,4.16,18.36,1.99,1,4.12,1.4,6.18,1.79,3.37.65,6.58,1.25,8.4,4.39ZM44.73,22.05c1.35,7.72,2.75,15.69-4.7,19.43-2.11,1.06-4.31,1.48-6.44,1.89-3.56.67-6.64,1.26-8.13,4.71-.08.18-.26.3-.46.3s-.38-.12-.46-.3c-1.49-3.45-4.57-4.04-8.13-4.71-2.13-.41-4.33-.83-6.44-1.89-7.45-3.74-6.05-11.71-4.7-19.43,1.31-7.45,1.14-10.34-2.5-15.11-.08-.11-.12-.24-.1-.38.02-.13.09-.25.2-.33l3.84-2.84c.16-.12.37-.14.54-.04.08.04,7.63,4.17,14.12.78l3.38-1.95c.15-.09.35-.09.5,0l3.4,1.96c6.47,3.37,14.02-.75,14.1-.79.17-.1.38-.08.54.04l3.84,2.84c.11.08.18.2.2.33.02.14-.02.27-.1.38-3.64,4.77-3.81,7.66-2.5,15.11Z" stroke-width="0"/></g></svg>