<?xml version="1.0" encoding="UTF-8"?><svg width="70" height="70" xmlns="http://www.w3.org/2000/svg" viewBox="-10 -10 70 70"><rect x="-10" y="-10" width="70" height="70" fill="white"/><g id="uuid-35285295-27a0-4a2d-91d6-db3e8f7bebc0"><g><path d="M12.26,12.33l2.44,37.03h23.03l2.44-37.03H12.26Zm12.46,22.75c-3.69,0-6.68-2.25-6.68-5.01s3-5.01,6.68-5.01,6.68,2.25,6.68,5.01-3,5.01-6.68,5.01Z" fill="#ffcd00" stroke-width="0"/><path d="M39.59,10.42v-.06s0-.05,0-.08c-.04-1.48-.66-2.82-1.65-3.78,0-.03,0-.06,0-.09,0-2.17-1.77-3.94-3.94-3.94-.67,0-1.29,.18-1.84,.48-.45-1.08-1.51-1.84-2.75-1.84-.98,0-1.84,.48-2.38,1.21-.72-1-1.88-1.66-3.21-1.66-1.4,0-2.63,.74-3.33,1.84-.1,0-.19-.02-.29-.02-.87,0-1.72,.22-2.47,.62-.55-.65-1.36-1.08-2.28-1.08-1.65,0-2.98,1.34-2.98,2.98,0,.24,.04,.47,.09,.69-1.58,.92-2.65,2.61-2.72,4.56,0,.04-.02,.08-.02,.12v.19c.02,.18,.03,.35,.05,.53l2.44,37.03c.02,.26,.24,.47,.5,.47h23.79c.26,0,.48-.2,.5-.47l2.44-36.98c.03-.23,.05-.46,.05-.69v-.02ZM15.27,5.94c.16,0,.31,.02,.47,.04l.13,.02c.2,.03,.4-.07,.5-.25,.79-1.41,2.26-2.29,3.84-2.29,2.11,0,3.94,1.52,4.35,3.61,.04,.2,.2,.36,.4,.4,.2,.03,.41-.05,.51-.23,.82-1.31,2.22-2.1,3.74-2.1,1.02,0,1.99,.36,2.8,1.04,.14,.12,.33,.15,.51,.08,.53-.21,1.08-.32,1.63-.32,2.24,0,4.08,1.7,4.38,3.88H10.9c.3-2.19,2.14-3.88,4.38-3.88ZM23.83,1.64c1.62,0,2.94,1.32,2.94,2.94,0,.06-.01,.11-.02,.16-.56,.29-1.07,.67-1.5,1.14-.64-1.59-2-2.78-3.64-3.23,.54-.62,1.33-1.02,2.21-1.02Zm10.33,3.3c-.58,0-1.16,.1-1.72,.29-.27-.2-.55-.37-.83-.51,.53-.76,1.41-1.26,2.41-1.26,1.37,0,2.51,.94,2.84,2.2-.79-.46-1.71-.72-2.69-.72Zm-8.94,42.63v-11.52c2.78-.14,5.15-1.44,6.35-3.28l-.98,14.8h-5.37Zm-6.37,0l-.98-14.8c1.2,1.85,3.57,3.14,6.35,3.28v11.52h-5.37ZM24.21,10.83v13.24c-3.05,.15-5.62,1.71-6.67,3.85l-1.13-17.09h7.8Zm.5,14.22c3.69,0,6.68,2.25,6.68,5.01s-3,5.01-6.68,5.01-6.68-2.25-6.68-5.01,3-5.01,6.68-5.01Zm.5-.98V10.83h7.8l-1.13,17.09c-1.05-2.14-3.62-3.69-6.67-3.85ZM10.86,10.83h4.55l2.43,36.75h-4.55L10.86,10.83ZM31.59,47.58l2.43-36.75h4.55l-2.42,36.75h-4.55ZM29.41,2.1c.9,0,1.66,.61,1.9,1.44-.26,.24-.48,.51-.66,.82-.46-.13-.94-.21-1.43-.21s-1,.08-1.47,.21c-.02-.34-.08-.66-.18-.97,.28-.75,1-1.28,1.85-1.28Zm-15.94,2.89c0-1.09,.89-1.98,1.98-1.98,.57,0,1.08,.24,1.44,.63-.47,.37-.89,.82-1.23,1.34-.13-.02-.26-.03-.4-.03-.62,0-1.22,.11-1.77,.31-.01-.09-.03-.17-.03-.26Z" stroke-width="0"/></g></g><g id="uuid-6de4f731-ae8e-4217-b650-eab13c4b829a"></g></svg>