<?xml version="1.0" encoding="UTF-8"?><svg width="70" height="70" xmlns="http://www.w3.org/2000/svg" viewBox="-10 -10 70 70"><rect x="-10" y="-10" width="70" height="70" fill="white"/><g id="uuid-6cc6968f-c8f5-4403-942c-7ba144464297"><g><rect x="14.65" y="8.97" width="23.37" height="35.56" fill="#ffcd00"/><path d="M36.77,6.22H12.4c-.28,0-.5,.22-.5,.5V43.28c0,.28,.22,.5,.5,.5h24.37c.28,0,.5-.22,.5-.5V6.72c0-.28-.22-.5-.5-.5Zm-.5,36.56H12.9V7.22h23.37V42.78Z" stroke-width="0"/><path d="M42.14,41.67c-.05-.02-.11-.03-.16-.03-.65,0-1.18-.54-1.18-1.2s.53-1.2,1.21-1.2c.28,0,.5-.22,.5-.5v-2.54c0-.17-.1-.34-.24-.43-.08-.06-.18-.09-.28-.09-.65,0-1.18-.54-1.18-1.2s.53-1.19,1.17-1.19h0c.14,.02,.29-.03,.39-.12,.11-.1,.17-.23,.17-.38l-.03-2.8s0-.1-.01-.12c-.03-.25-.24-.44-.5-.44-.65,0-1.18-.54-1.18-1.2s.51-1.2,1.17-1.2c.03,0,.09,0,.12-.01,.23-.05,.4-.25,.4-.49v-2.55c0-.28-.25-.5-.52-.5-.65,0-1.17-.53-1.17-1.2s.51-1.2,1.25-1.2c.26-.03,.45-.24,.45-.5v-3.61c0-.28-.25-.5-.53-.5-.64,0-1.14-.53-1.14-1.2s.46-1.14,1.05-1.19c.12,.03,.24,.01,.35-.04,.17-.09,.27-.26,.27-.44v-2.58c0-.28-.25-.5-.53-.5-.64,0-1.14-.53-1.14-1.2s.5-1.2,1.15-1.2c.07,0,.16-.03,.23-.05,.18-.08,.3-.26,.3-.46v-3.48c0-.23-.16-.43-.37-.48-.17-.07-.37-.04-.51,.08-.78,.67-1.55,.45-2.02,.02-.47-.44-.5-1.16-.06-1.66l.08-.09c.12-.15,.14-.36,.06-.53s-.26-.28-.45-.28h-4.02c-.28,0-.5,.25-.5,.52,0,.65-.53,1.18-1.18,1.18s-1.18-.53-1.18-1.18c0-.04,0-.1-.02-.14-.05-.23-.24-.36-.49-.38l-2.52,.02c-.27,0-.49,.26-.5,.53-.02,.63-.54,1.15-1.18,1.15s-1.16-.5-1.18-1.18c0-.27-.22-.5-.5-.5l-3.57-.02c-.14-.02-.26,.05-.36,.15-.09,.09-.15,.22-.15,.35,0,.65-.53,1.18-1.18,1.18s-1.18-.53-1.18-1.18c0-.28-.25-.5-.52-.5h-2.5c-.28,0-.5,.22-.5,.5,0,.65-.53,1.18-1.18,1.18s-1.18-.53-1.18-1.18c0-.28-.23-.5-.51-.5h-3.69c-.19,0-.37,.11-.45,.28-.08,.17-.06,.38,.05,.53l.16,.19c.47,.46,.49,1.18,.06,1.65-.43,.47-1.16,.5-1.65,.07l-.15-.13c-.15-.13-.36-.16-.53-.07-.18,.08-.29,.26-.29,.45v3.58c0,.21,.16,.41,.36,.48,.05,.02,.11,.03,.16,.03,.64,0,1.16,.53,1.16,1.18s-.52,1.18-1.19,1.18c-.28,0-.5,.22-.5,.5v2.51c0,.17,.11,.34,.25,.43,.08,.05,.18,.08,.28,.08,.64,0,1.16,.53,1.16,1.18s-.52,1.17-1.15,1.17h0c-.14-.02-.29,.03-.39,.12s-.17,.23-.17,.38l.02,2.76s0,.1,.01,.12c.03,.25,.24,.43,.5,.43,.64,0,1.16,.53,1.16,1.18s-.5,1.18-1.15,1.18c-.03,0-.09,0-.12,.01-.23,.05-.4,.25-.4,.49v2.52c0,.28,.25,.5,.52,.5,.64,0,1.15,.52,1.15,1.18s-.5,1.18-1.23,1.18c-.25,.03-.44,.24-.44,.5v3.56c0,.28,.25,.5,.53,.5,.63,0,1.12,.52,1.12,1.18s-.45,1.13-1.03,1.17c-.12-.03-.24-.01-.35,.04-.17,.09-.27,.26-.27,.44v2.55c0,.28,.25,.5,.53,.5,.63,0,1.12,.52,1.12,1.18s-.5,1.18-1.13,1.18c-.18,0-.39,.17-.47,.33-.04,.07-.06,.16-.06,.24v3.95c-.01,.21,.11,.39,.3,.47s.41,.04,.55-.11c.45-.47,1.21-.5,1.68-.06,.48,.44,.51,1.18,.06,1.69l-.08,.09c-.12,.15-.14,.36-.06,.53,.08,.17,.26,.28,.45,.28h4.07c.28,0,.5-.25,.5-.52,0-.66,.54-1.2,1.2-1.2s1.2,.54,1.2,1.2c0,.04,0,.1,.02,.14,.05,.23,.25,.39,.49,.39h0l2.55-.02c.27,0,.49-.26,.5-.53,.02-.64,.55-1.17,1.2-1.17s1.18,.51,1.2,1.2c0,.27,.22,.5,.5,.5l3.61,.02c.13-.02,.26-.05,.36-.15,.09-.09,.15-.22,.15-.35,0-.66,.54-1.2,1.2-1.2s1.2,.54,1.2,1.2c0,.28,.25,.5,.52,.5h2.53c.28,0,.5-.22,.5-.5,0-.66,.54-1.2,1.2-1.2s1.2,.54,1.2,1.2c0,.28,.23,.5,.51,.5h3.73c.19,0,.37-.11,.45-.28,.08-.17,.06-.38-.05-.53l-.16-.2c-.47-.46-.5-1.21-.06-1.68,.44-.48,1.18-.51,1.68-.07l.15,.13c.15,.13,.36,.15,.53,.07,.18-.08,.29-.26,.29-.45v-3.62c0-.21-.16-.41-.37-.48Zm-3.03,3.75c-.62,.67-.74,1.6-.41,2.36h-2.33c-.23-.97-1.1-1.7-2.14-1.7s-1.91,.73-2.14,1.7h-1.67c-.23-.97-1.1-1.7-2.14-1.7s-1.91,.72-2.14,1.69l-2.73-.02c-.22-.98-1.09-1.7-2.14-1.7s-1.89,.71-2.13,1.7l-1.68,.02c-.22-.98-1.1-1.71-2.14-1.71s-1.91,.72-2.14,1.72h-2.75c.28-.8,.08-1.72-.58-2.33-.62-.57-1.47-.72-2.21-.46v-2.67c.96-.21,1.66-1.07,1.66-2.13s-.69-1.9-1.65-2.12v-1.64c.96-.22,1.65-1.07,1.65-2.12s-.69-1.9-1.65-2.12v-2.68c.95-.22,1.67-1.09,1.67-2.12s-.71-1.9-1.67-2.12v-1.64c.96-.22,1.67-1.09,1.67-2.12s-.72-1.9-1.68-2.12l-.02-1.92c.98-.21,1.71-1.08,1.71-2.13s-.72-1.9-1.69-2.12v-1.64c.96-.22,1.69-1.09,1.69-2.12s-.72-1.9-1.69-2.12v-2.22c.81,.3,1.74,.11,2.36-.56,.61-.66,.74-1.58,.41-2.33h2.29c.23,.96,1.09,1.68,2.12,1.68s1.89-.72,2.12-1.68h1.64c.23,.96,1.09,1.68,2.12,1.68s1.89-.71,2.12-1.67l2.68,.02c.22,.97,1.08,1.68,2.12,1.68s1.88-.69,2.11-1.68h1.65c.22,.95,1.09,1.68,2.12,1.68s1.89-.71,2.12-1.7h2.7c-.27,.79-.08,1.7,.58,2.3,.64,.59,1.61,.89,2.58,.48v2.2c-.97,.21-1.67,1.08-1.67,2.15s.69,1.92,1.67,2.14v1.67c-.97,.22-1.67,1.08-1.67,2.14s.7,1.92,1.67,2.14v2.72c-.97,.22-1.69,1.1-1.69,2.14s.72,1.92,1.69,2.14v1.67c-.97,.22-1.69,1.1-1.69,2.14s.73,1.92,1.7,2.14l.02,1.95c-.99,.21-1.73,1.09-1.73,2.15s.73,1.92,1.71,2.14v1.66c-.98,.22-1.71,1.1-1.71,2.14s.73,1.92,1.71,2.14v2.26c-.81-.31-1.76-.12-2.39,.56Z" stroke-width="0"/></g></g><g id="uuid-3990f1b9-21ff-46dd-b145-2e9a6f14500c"></g></svg>