<?xml version="1.0" encoding="UTF-8"?><svg width="70" height="70" id="uuid-4c6231e9-6904-45e4-8375-4337f373cbcb" xmlns="http://www.w3.org/2000/svg" viewBox="-10 -10 70 70"><rect x="-10" y="-10" width="70" height="70" fill="white"/><circle cx="25.5" cy="10.91" r="2.18" fill="#ffcd00"/><g><path d="M33.89,48.65s0-.04,0-.06h0L26.16,13.37c1.18-.47,2.02-1.61,2.02-2.96,0-1.76-1.43-3.18-3.18-3.18s-3.18,1.43-3.18,3.18c0,1.32,.8,2.45,1.95,2.93l-7.73,35.23h0s0,.05,0,.07c0,.04,0,.09,0,.13,0,.03,.02,.06,.03,.09,.01,.03,.02,.06,.04,.09,.02,.04,.05,.06,.09,.09,.02,.01,.02,.03,.04,.05h0c.05,.04,.12,.07,.19,.09,.04,0,.07,.01,.11,.01,.07,0,.14-.02,.2-.05,.02,0,.03-.02,.05-.03,.05-.03,.09-.06,.13-.11,0,0,.02-.01,.02-.02l8.04-10.89,8.04,10.89s.02,.01,.02,.02c.04,.04,.08,.08,.13,.11,.02,0,.03,.02,.05,.03,.06,.03,.13,.05,.2,.05,.04,0,.07,0,.11-.01,.07-.02,.13-.05,.19-.08h0s.03-.03,.04-.05c.03-.03,.06-.06,.09-.09,.02-.03,.03-.06,.04-.09,.01-.03,.03-.05,.03-.09,0-.04,0-.09,0-.13ZM27.18,10.42c0,1.2-.98,2.18-2.18,2.18s-2.18-.98-2.18-2.18,.98-2.18,2.18-2.18,2.18,.98,2.18,2.18Zm-2.18,3.18c.06,0,.12-.01,.18-.02l3.73,16.99h-7.9l3.73-16.99c.09,0,.17,.03,.26,.03Zm3.54,17.97l-3.58,4.85-3.58-4.85h7.16Zm-11.03,14.95l3.13-14.26,3.7,5.01-6.83,9.25Zm11.77-14.26l3.13,14.26-6.83-9.25,3.7-5.01Z" stroke-width="0"/><path d="M24.96,5.44c.28,0,.5-.22,.5-.5V1.3c0-.28-.22-.5-.5-.5s-.5,.22-.5,.5v3.63c0,.28,.22,.5,.5,.5Z" stroke-width="0"/><path d="M20.74,6.92c.1,.1,.23,.15,.35,.15s.26-.05,.35-.15c.2-.2,.2-.51,0-.71l-2.57-2.57c-.2-.2-.51-.2-.71,0s-.2,.51,0,.71l2.57,2.57Z" stroke-width="0"/><path d="M20.02,10.46c0-.28-.22-.5-.5-.5h-3.63c-.28,0-.5,.22-.5,.5s.22,.5,.5,.5h3.63c.28,0,.5-.22,.5-.5Z" stroke-width="0"/><path d="M20.8,13.96l-2.57,2.57c-.2,.2-.2,.51,0,.71,.1,.1,.23,.15,.35,.15s.26-.05,.35-.15l2.57-2.57c.2-.2,.2-.51,0-.71s-.51-.2-.71,0Z" stroke-width="0"/><path d="M28.55,13.91c-.2,.2-.2,.51,0,.71l2.57,2.57c.1,.1,.23,.15,.35,.15s.26-.05,.35-.15c.2-.2,.2-.51,0-.71l-2.57-2.57c-.2-.2-.51-.2-.71,0Z" stroke-width="0"/><path d="M34.11,9.87h-3.63c-.28,0-.5,.22-.5,.5s.22,.5,.5,.5h3.63c.28,0,.5-.22,.5-.5s-.22-.5-.5-.5Z" stroke-width="0"/><path d="M28.85,7.01c.13,0,.26-.05,.35-.15l2.57-2.57c.2-.2,.2-.51,0-.71s-.51-.2-.71,0l-2.57,2.57c-.2,.2-.2,.51,0,.71,.1,.1,.23,.15,.35,.15Z" stroke-width="0"/></g></svg>