<?xml version="1.0" encoding="UTF-8"?><svg width="70" height="70" xmlns="http://www.w3.org/2000/svg" viewBox="-10 -10 70 70"><rect x="-10" y="-10" width="70" height="70" fill="white"/><g id="uuid-097937c2-f9a4-4df4-a6b7-3ccc17a76647"><path d="M38.52,28.66l4.25-3.94c.28-.26,.45-.62,.47-1,.02-.38-.12-.75-.38-1.03-.54-.58-1.45-.62-2.03-.09h0c-.2,.16-.49,.14-.67-.04-.18-.19-.19-.49,0-.69h0l1.67-1.53c.58-.54,.62-1.45,.09-2.03-.54-.58-1.45-.62-2.03-.09l-1.66,1.53h0c-.32,.15-.66,.02-.76-.22-.07-.16-.03-.36,.09-.52h0s.05-.07,.08-.11c.65-.57,1.31-1.13,1.96-1.7,.01,0,.03-.02,.04-.03l.1-.1c.6-.52,1.21-1.05,1.81-1.57l-.08-.02,.69-.63c.28-.26,.45-.62,.46-1,.02-.38-.12-.75-.38-1.03-.26-.28-.61-.45-1-.46-.38-.01-.75,.12-1.03,.37h0c-.26,.23-.63,.17-.79-.06-.13-.19-.09-.48,.11-.67l1.67-1.53c.28-.26,.45-.61,.47-1,.02-.38-.12-.75-.38-1.03-.54-.59-1.45-.62-2.03-.09l-1.66,1.53h0c-.24,.2-.58,.15-.74-.07-.14-.19-.12-.48,.07-.67h0c.28-.26,.45-.62,.46-1,.02-.38-.12-.75-.38-1.03-.26-.28-.62-.45-1-.46-.38-.02-.75,.12-1.03,.38l-5.95,5.46c-.3-.31-.59-.62-.89-.93,.1-.44,0-.92-.32-1.27-.26-.28-.62-.45-1-.46-.39-.02-.75,.12-1.03,.38l-5.05,4.63s-.09,.1-.09,.11l-.18,.15c-.05,.04-.1,.08-.15,.13-2.4,2.21-3.44,5.44-2.77,8.65,.04,.17-.02,.35-.15,.47l-3.38,3.1,3.06,3.33c.31,.33,.62,.65,.94,.98,0,.65,.04,1.32,.18,1.98,.04,.17-.02,.35-.15,.47l-3.24,2.98,6.29,7,3.55-3.26c.12-.11,.29-.16,.45-.12,2.97,.69,6.08-.12,8.32-2.18,.05-.05,.09-.09,.14-.14l.11-.12s.1-.08,.12-.1l7.43-6.81c.28-.26,.45-.61,.46-1,.02-.38-.12-.75-.38-1.04h0c-.26-.28-.61-.45-1-.46-.38-.02-.75,.12-1.03,.38-.2,.16-.48,.14-.66-.04-.17-.17-.19-.45-.03-.65Z" fill="#ffcd00" stroke-width="0"/><path d="M42.49,22.01c.03-.65-.2-1.27-.64-1.75-.36-.4-.83-.64-1.32-.74l.22-.2c.99-.91,1.06-2.46,.15-3.45-.35-.38-.79-.62-1.26-.73l1.42-1.3c.99-.91,1.06-2.46,.15-3.45-.35-.39-.81-.64-1.32-.74l.22-.2c.48-.44,.76-1.04,.79-1.69,.03-.65-.2-1.27-.64-1.75-.91-.99-2.45-1.06-3.45-.15l-.22,.2c-.05-.5-.26-.98-.63-1.38-.91-.99-2.46-1.06-3.45-.15l-5.12,4.7c-.05-.5-.27-.98-.63-1.38-.44-.48-1.04-.76-1.69-.79-.65-.03-1.27,.2-1.75,.64l-5.04,4.63c-.05,.05-.1,.1-.12,.13l-.1,.08c-.07,.06-.14,.11-.2,.17-2.6,2.38-3.75,5.85-3.13,9.31l-3.26,3-.04-.05c-.09-.1-.21-.16-.35-.17-.13,0-.26,.04-.36,.13l-3.02,2.71c-.1,.09-.16,.21-.17,.35,0,.13,.04,.26,.13,.36l5.23,5.82-.54,.5-.05-.06c-.19-.21-.5-.22-.71-.04l-3.48,3.13c-.1,.09-.16,.21-.17,.35,0,.13,.04,.26,.13,.36l7.77,8.65c.09,.1,.21,.16,.35,.17h.03c.12,0,.24-.04,.33-.13l3.48-3.13c.21-.18,.22-.5,.04-.71l-.1-.11,3.36-3.09c3.21,.66,6.55-.25,8.97-2.47,.07-.06,.13-.13,.19-.19l.08-.08c.05-.04,.1-.07,.15-.12l7.38-6.78c.48-.44,.76-1.04,.79-1.69s-.2-1.27-.64-1.75c-.35-.39-.81-.64-1.32-.74l2.79-2.56c.48-.44,.76-1.04,.79-1.69Zm-7.8,6.77h0l-2.42,2.22c-.2,.19-.22,.5-.03,.71,.1,.11,.23,.16,.37,.16,.12,0,.24-.04,.34-.13l2.42-2.22h0l2.1-1.92c.28-.26,.65-.4,1.03-.38,.38,.02,.74,.18,1,.46h0c.26,.28,.39,.65,.38,1.04-.02,.38-.18,.74-.46,1l-7.43,6.81s-.1,.08-.12,.1l-.11,.12s-.09,.09-.14,.14c-2.24,2.06-5.35,2.87-8.32,2.18-.16-.04-.33,0-.45,.12l-3.55,3.26-6.29-7,3.24-2.98c.13-.12,.19-.3,.15-.47-.67-3.21,.37-6.45,2.77-8.65,.05-.04,.1-.08,.15-.13l.18-.15s.09-.1,.09-.11l5.05-4.63c.28-.26,.66-.4,1.03-.38,.38,.02,.74,.18,1,.46,.48,.52,.51,1.31,.06,1.87-.01,.02-.01,.04-.02,.05l-5.32,4.92c-.2,.19-.22,.5-.03,.71,.1,.11,.23,.16,.37,.16,.12,0,.24-.04,.34-.13l5.43-5.02h0l6.33-5.82c.59-.54,1.5-.5,2.03,.09,.54,.58,.5,1.5-.09,2.03h0l-8.75,8.04c-.2,.19-.22,.5-.03,.71,.1,.11,.23,.16,.37,.16,.12,0,.24-.04,.34-.13l8.75-8.03h0l1.66-1.53c.58-.54,1.5-.5,2.03,.09,.54,.58,.5,1.5-.09,2.03l-1.67,1.53h0l-8.75,8.04c-.2,.19-.22,.5-.03,.71,.1,.11,.23,.16,.37,.16,.12,0,.24-.04,.34-.13l8.75-8.04h0c.59-.54,1.5-.5,2.03,.09,.26,.28,.39,.65,.38,1.03-.02,.38-.18,.74-.47,1l-6.33,5.81Zm-19.1-6.19c.13-.12,.19-.3,.15-.47-.67-3.21,.37-6.45,2.77-8.65,.05-.05,.1-.09,.15-.13l.18-.15s.09-.1,.09-.11l5.05-4.63c.28-.26,.65-.4,1.03-.38,.38,.02,.74,.18,1,.46,.48,.52,.5,1.29,.07,1.85l-4.26,3.91c-.19,.18-.22,.48-.05,.68,.41,.5,.66,1.06,.75,1.65,.32,2.13-1.74,3.72-1.76,3.74-.11,.08-.17,.19-.19,.32l-1.67,1.53c-.05,.05-.09,.1-.11,.13l-.1,.09c-.07,.06-.14,.11-.2,.17-1.84,1.69-2.95,4-3.21,6.43l-3.06-3.33,3.38-3.1ZM34.21,4.89c.38,.02,.74,.18,1,.46,.26,.28,.39,.65,.38,1.03-.02,.38-.18,.74-.46,1h0l-8.75,8.04c-.2,.19-.22,.5-.03,.71,.1,.11,.23,.16,.37,.16,.12,0,.24-.04,.34-.13l8.75-8.03h0l1.66-1.53c.58-.54,1.5-.5,2.03,.09,.26,.28,.39,.65,.38,1.03-.02,.38-.18,.74-.47,1l-1.67,1.53-4.19,3.85c-.14,.08-.28,.18-.41,.3l-5.12,4.7c-.05-.5-.27-.98-.63-1.38-.44-.48-1.04-.76-1.69-.79-.66-.02-1.27,.2-1.75,.64l-.52,.48c.12-.48,.16-1.01,.08-1.57-.09-.61-.32-1.21-.68-1.75l3.9-3.58s.08-.03,.11-.06l6.33-5.82c.28-.26,.66-.4,1.03-.38Zm3.64,10.53c-.14,.08-.28,.18-.41,.3l-.22,.2c-.06-.51-.27-.99-.63-1.38-.35-.38-.79-.62-1.26-.73l3.09-2.83h0c.28-.26,.65-.39,1.03-.38,.38,.02,.74,.18,1,.46,.26,.28,.39,.65,.38,1.03-.02,.38-.18,.74-.46,1l-2.52,2.32ZM8.72,28.07l2.27-2.04,4.24,4.72c.02,.39,.06,.77,.13,1.16l-1.75,1.61-4.89-5.44Zm7.51,17.97l-7.1-7.91,2.61-2.35s.03,.05,.05,.08l7.04,7.67s.07,.06,.11,.08l-2.7,2.43Z" stroke-width="0"/></g><g id="uuid-f82cebd1-9ecc-44c3-9025-fb5059ac2552"></g></svg>