<?xml version="1.0" encoding="UTF-8"?><svg width="70" height="70" xmlns="http://www.w3.org/2000/svg" viewBox="-10 -10 70 70"><rect x="-10" y="-10" width="70" height="70" fill="white"/><g id="uuid-585e003c-746d-44d9-9c7c-e2978a91dab0"><g><path d="M33.14,5.16c-.59,.03-1.19,.56-1.89,1.18-1.09,.96-2.45,2.16-4.55,2.16s-3.43-1.22-4.5-2.19c-.68-.62-1.27-1.17-1.85-1.19-2.35-.11-5.26,.42-6.84,5.58-1.35,4.42-2.06,13.27-2.23,15.53h5.44c.13,0,.26,.05,.36,.15,.09,.1,.15,.22,.14,.36l-.3,20.63c1.38,.24,5.95,.99,9.83,1.03,2.39,.03,5.05-.26,6.85-.51h0c1.33-.18,2.41-.37,2.96-.47l-.3-20.63c0-.13,.05-.26,.14-.36,.09-.1,.22-.15,.36-.15h5.44c-.16-2.25-.88-11.1-2.23-15.53-1.57-5.16-4.48-5.7-6.84-5.58Z" fill="#ffcd00" stroke-width="0"/><path d="M39.19,8.7c-1.35-4.42-3.91-6.47-7.84-6.29-.94,.04-1.7,.72-2.5,1.43-1.01,.9-2.16,1.91-3.89,1.91s-2.84-1.02-3.82-1.93c-.79-.72-1.54-1.41-2.48-1.45-3.94-.19-6.49,1.87-7.84,6.29-1.58,5.18-2.28,15.83-2.31,16.29,0,.14,.04,.27,.13,.37,.09,.1,.23,.16,.36,.16h5.47l-.3,20.54c0,.24,.17,.45,.41,.5,.06,.01,5.73,1.07,10.41,1.12,.1,0,.21,0,.31,0,2.38,0,4.93-.28,6.69-.52,1.99-.27,3.42-.56,3.43-.56,.24-.05,.41-.26,.4-.5l-.3-20.54h5.47c.14,0,.27-.06,.36-.16,.09-.1,.14-.24,.13-.37-.03-.45-.73-11.1-2.31-16.29Zm-3.7,15.82l-.48-13.06c-.01-.28-.25-.5-.52-.48-.28,.01-.49,.24-.48,.52l.49,13.33c0,.05,.02,.1,.03,.14,0,.02-.01,.04-.01,.06l.3,20.63c-.56,.1-1.63,.29-2.96,.47h0c-1.8,.25-4.46,.53-6.85,.51-3.87-.04-8.45-.79-9.83-1.03l.21-14.18c.06-.08,.1-.17,.1-.27l.51-13.78c.01-.28-.21-.51-.48-.52-.28-.03-.51,.21-.52,.48l-.26,7.13h-5.2c.16-2.25,.88-11.1,2.23-15.53,1.57-5.16,4.48-5.69,6.84-5.58,.58,.03,1.17,.57,1.85,1.19,1.07,.98,2.39,2.19,4.5,2.19s3.46-1.2,4.55-2.16c.7-.62,1.31-1.15,1.89-1.18,2.35-.11,5.26,.42,6.84,5.58,1.35,4.42,2.06,13.27,2.23,15.53h-4.97Z" stroke-width="0"/><path d="M31.33,28.43c-.28,0-.5,.22-.5,.5v13.71c0,.28,.22,.5,.5,.5s.5-.22,.5-.5v-13.71c0-.28-.22-.5-.5-.5Z" stroke-width="0"/><path d="M27.37,35.42c-.28,0-.5,.22-.5,.5v3.94c0,.28,.22,.5,.5,.5s.5-.22,.5-.5v-3.94c0-.28-.22-.5-.5-.5Z" stroke-width="0"/></g></g><g id="uuid-3021adbf-ce56-43e3-9ad3-a569862734c3"></g></svg>