<?xml version="1.0" encoding="UTF-8"?><svg width="70" height="70" xmlns="http://www.w3.org/2000/svg" viewBox="-10 -10 70 70"><rect x="-10" y="-10" width="70" height="70" fill="white"/><g id="uuid-4110324f-980f-4d26-8abd-3e480ad26582"><polygon points="42.01 16.19 11.56 16.25 11.56 37.31 42.01 37.31 42.01 16.19" fill="#ffcd00"/><path d="M49.8,24.57c0-2.56-3.72-4.57-8.53-4.68v-5.95c0-.28-.22-.5-.5-.5H9.24c-.28,0-.5,.22-.5,.5v5.98C3.92,20.03,.2,22.05,.2,24.6s3.72,4.57,8.53,4.68v6.78c0,.28,.22,.5,.5,.5h31.53c.28,0,.5-.22,.5-.5v-6.81c4.82-.11,8.53-2.13,8.53-4.68Zm-12.86,3.48l-23.87,.02v-3.82l23.87,.17v3.63Zm-23.87,1.02l23.87-.02v6.52H13.06v-6.5Zm23.87-5.65l-23.87-.17V14.44h23.87v8.97ZM1.2,24.6c0-1.94,3.41-3.58,7.53-3.68v7.37c-4.12-.11-7.53-1.75-7.53-3.68ZM9.74,14.44h2.33v21.13h-2.33V14.44Zm30.53,21.13h-2.33V14.44h2.33v21.13Zm1-7.31v-7.37c4.12,.11,7.53,1.75,7.53,3.68s-3.41,3.58-7.53,3.68Z" stroke-width="0"/></g><g id="uuid-0a228bee-27b5-47ac-ba01-993642199293"></g></svg>