<?xml version="1.0" encoding="UTF-8"?><svg width="70" height="70" xmlns="http://www.w3.org/2000/svg" viewBox="-10 -10 70 70"><rect x="-10" y="-10" width="70" height="70" fill="white"/><g id="uuid-f5f925de-bf4b-4467-8f4c-fdd278bde102"><g><path d="M48.9,7.73H7.89v9.19c.81-.84,1.95-1.36,3.2-1.36,2.47,0,4.48,2.01,4.48,4.48,0,1.32-.58,2.56-1.59,3.42-1.61,1.37-4.16,1.37-5.78,0-.12-.1-.21-.22-.32-.33v4.43l7.52-.1c1.43,0,2.74,.66,3.64,1.86,.15,.15,.25,.3,.33,.45l.64,1.33-1.06,1.57-.85,1.25h0c-.11,.17-.2,.35-.27,.53h1.12l1.96-2.89,.09-.13,2.17-3.21c.1-.15,.27-.23,.44-.23,.1,0,.2,.03,.29,.09l2.01,1.36c.24,.16,.3,.49,.14,.73l-2.9,4.28h25.74V7.73Z" fill="#ffcd00" stroke-width="0"/><path d="M47.65,4.98H5.64c-.28,0-.5,.22-.5,.5v10.65c0,.28,.22,.5,.5,.5s.5-.22,.5-.5V5.98H47.15v26.72H26.64c-.28,0-.5,.22-.5,.5s.22,.5,.5,.5h21c.28,0,.5-.22,.5-.5V5.48c0-.28-.22-.5-.5-.5Z" stroke-width="0"/><path d="M7.56,24.22c.99,.83,2.24,1.29,3.53,1.29s2.55-.46,3.53-1.29c1.24-1.04,1.94-2.57,1.94-4.18,0-3.02-2.46-5.48-5.48-5.48s-5.48,2.46-5.48,5.48c0,1.61,.71,3.14,1.94,4.18Zm3.53-8.66c2.47,0,4.48,2.01,4.48,4.48,0,1.32-.58,2.56-1.59,3.42-1.61,1.37-4.16,1.37-5.78,0-1.01-.85-1.59-2.1-1.59-3.42,0-2.47,2.01-4.48,4.48-4.48Z" stroke-width="0"/><path d="M16.69,32.86h-.34c-.28,0-.5,.22-.5,.5v1.08h1.91l-.62-1.3c-.08-.17-.26-.28-.45-.28Z" fill="#ffcd00" stroke-width="0"/><path d="M17.8,34.52s.02-.04,.03-.06c0,0,0-.02,.01-.03h-.08l.04,.08Z" stroke-width="0"/><path d="M18.11,33.91h0c-.12,.18-.21,.36-.28,.55,.07-.19,.16-.38,.28-.55Z" stroke-width="0"/><polygon points="20.02 31.1 20.02 31.1 18.96 32.66 20.02 31.1"/><path d="M20.92,31.55l-1.98,2.92c-.13,.19-.21,.4-.26,.61,.04-.21,.13-.42,.26-.61l1.98-2.93Z" stroke-width="0"/><path d="M19.09,36.6c-.3-.33-.45-.76-.44-1.19,0,.43,.14,.86,.44,1.19Z" stroke-width="0"/><path d="M29.55,21.34c-.24-.14-.54-.07-.69,.17l-3.77,6.16-.63-.42c-.7-.47-1.65-.29-2.12,.41l-1.68,2.49-.38-.8c-.12-.25-.29-.48-.47-.67-1.05-1.4-2.65-2.21-4.4-2.21l-8.63,.12c-3.29,.6-5.68,3.46-5.68,6.8v11.15c0,.28,.22,.5,.5,.5h14.75c.28,0,.5-.22,.5-.5v-9.66l.75,1.58c.24,.5,.63,.91,1.12,1.19h0s.09,.08,.11,.09c.47,.32,1,.47,1.53,.47,.88,0,1.74-.42,2.27-1.2l4.23-6.26c.47-.7,.29-1.65-.41-2.12h0l-.56-.38,3.8-6.2c.14-.24,.07-.54-.17-.69Zm-11.44,12.57c-.12,.18-.21,.36-.28,.55,0,.02-.02,.04-.03,.06l-.66-1.38c-.08-.17-.26-.28-.45-.28h-.34c-.28,0-.5,.22-.5,.5v10.66H6.47v-10.38c0-.28-.22-.5-.5-.5s-.5,.22-.5,.5v10.38H2.1v-10.65c0-2.86,2.04-5.3,4.77-5.81l8.54-.11c1.43,0,2.74,.66,3.64,1.86,.15,.15,.25,.3,.33,.45l.64,1.33-1.06,1.57-.85,1.25h0Zm7.94-3.76l-4.23,6.26c-.54,.79-1.62,1-2.4,.48,0,0-.08-.07-.09-.07-.09-.07-.18-.15-.25-.23-.3-.33-.45-.76-.44-1.19,0-.11,.01-.22,.04-.32,.04-.21,.13-.42,.26-.61l1.98-2.92,.09-.13,2.17-3.21c.1-.15,.27-.23,.44-.23,.1,0,.2,.03,.29,.09l2.01,1.36c.24,.16,.3,.49,.14,.73Z" stroke-width="0"/></g></g><g id="uuid-a2fa64cf-259d-4abf-b110-381e6fee50eb"></g></svg>