<?xml version="1.0" encoding="UTF-8"?><svg width="70" height="70" xmlns="http://www.w3.org/2000/svg" viewBox="-10 -10 70 70"><rect x="-10" y="-10" width="70" height="70" fill="white"/><g id="uuid-52fccfd7-be0c-4013-be69-d14e606a0ec0"><g><path d="M7.03,7.54v26.48H45.47V7.54H7.03Zm9.48,20.64h-4.77v-7.59h4.77v7.59Zm10.74,0h-4.77v-12.18h4.77v12.18Zm10.74,0h-4.77V12.6h4.77v15.57Z" fill="#ffcd00" stroke-width="0"/><path d="M44.47,5.04H25.25V1.43h.84c.28,0,.5-.22,.5-.5s-.22-.5-.5-.5h-2.69c-.28,0-.5,.22-.5,.5s.22,.5,.5,.5h.84v3.61H5.03c-.28,0-.5,.22-.5,.5v27.48c0,.28,.22,.5,.5,.5h15.27l-7.72,15.05h-1.04c-.28,0-.5,.22-.5,.5s.22,.5,.5,.5h2.69c.28,0,.5-.22,.5-.5s-.22-.5-.5-.5h-.53l7.72-15.05h2.82v15.05h-.84c-.28,0-.5,.22-.5,.5s.22,.5,.5,.5h2.69c.28,0,.5-.22,.5-.5s-.22-.5-.5-.5h-.84v-15.05h3.05l7.72,15.05h-.52c-.28,0-.5,.22-.5,.5s.22,.5,.5,.5h2.69c.28,0,.5-.22,.5-.5s-.22-.5-.5-.5h-1.04l-7.72-15.05h15.05c.28,0,.5-.22,.5-.5V5.54c0-.28-.22-.5-.5-.5Zm-.5,27.48H5.53V6.04H43.97v26.48Z" stroke-width="0"/><path d="M17.01,19.59h-5.77c-.28,0-.5,.22-.5,.5v8.59c0,.28,.22,.5,.5,.5h5.77c.28,0,.5-.22,.5-.5v-8.59c0-.28-.22-.5-.5-.5Zm-.5,8.59h-4.77v-7.59h4.77v7.59Z" stroke-width="0"/><path d="M27.75,15h-5.77c-.28,0-.5,.22-.5,.5v13.18c0,.28,.22,.5,.5,.5h5.77c.28,0,.5-.22,.5-.5V15.5c0-.28-.22-.5-.5-.5Zm-.5,13.18h-4.77v-12.18h4.77v12.18Z" stroke-width="0"/><path d="M38.49,11.6h-5.77c-.28,0-.5,.22-.5,.5V28.68c0,.28,.22,.5,.5,.5h5.77c.28,0,.5-.22,.5-.5V12.1c0-.28-.22-.5-.5-.5Zm-.5,16.57h-4.77V12.6h4.77v15.57Z" stroke-width="0"/></g></g><g id="uuid-a866c09d-2e40-46ed-bdc6-473849c48b4c"></g></svg>