<?xml version="1.0" encoding="UTF-8"?><svg width="70" height="70" xmlns="http://www.w3.org/2000/svg" viewBox="-10 -10 70 70"><rect x="-10" y="-10" width="70" height="70" fill="white"/><g id="uuid-be5d8c7d-9ede-45c7-b91a-de3c84a89f57"><g><path d="M40.97,14.13h-13.24v4.25h-6.2v-4.25H9.27v6h2.51v10.65h9.83v4.02H11.78v13.14h29.19V20.13h2.51v-6h-2.51Zm-14.33,32.06h-4.02V19.38h4.02v26.81Zm12.61-11.39h-11.61v-4.02h11.61v4.02Z" fill="#ffcd00" stroke-width="0"/><path d="M42.23,11.38h-15.27c2.31-.64,5.63-2.04,6.48-4.92,.18-.6,.67-2.66-.51-3.76-1.23-1.15-3.35-.44-3.97-.19-2.68,1.06-3.84,4.17-4.33,6.44-.5-2.27-1.65-5.38-4.33-6.44-.62-.25-2.74-.96-3.97,.19-1.18,1.11-.69,3.16-.51,3.76,.85,2.88,4.17,4.28,6.48,4.92H7.02c-.28,0-.5,.22-.5,.5v7c0,.28,.22,.5,.5,.5h2.01v27.31c0,.28,.22,.5,.5,.5h30.19c.28,0,.5-.22,.5-.5v-11.25s.03-.1,.03-.15v-5.02c0-.05-.01-.1-.03-.15v-10.75h2.01c.28,0,.5-.22,.5-.5v-7c0-.28-.22-.5-.5-.5Zm-3.01,8v10.4h-11.58v-10.4h11.58ZM29.33,3.43c.53-.21,1.18-.37,1.76-.37,.46,0,.88,.1,1.16,.36,.61,.57,.51,1.84,.23,2.75-.89,3.03-5.39,4.21-7.14,4.56,.22-1.73,1.05-6.14,3.99-7.3Zm-12.55,2.74c-.27-.91-.37-2.18,.23-2.75,.28-.26,.7-.37,1.16-.37,.58,0,1.23,.16,1.76,.37,2.94,1.16,3.77,5.57,3.99,7.3-1.75-.35-6.25-1.52-7.14-4.56ZM7.52,18.38v-6h13.01v6H7.52Zm14.1,27.81H10.03v-10.39h11.58v10.39Zm0-11.39H10.06v-4.02h11.55v4.02Zm0-5.02H10.03v-10.4h11.58v10.4Zm5.02,16.42h-4.02V19.38h4.02v26.81Zm-4.52-27.81h-.59v-6h6.2v6h-5.61Zm17.1,27.81h-11.58v-10.39h11.58v10.39Zm.03-11.39h-11.61v-4.02h11.61v4.02Zm2.48-16.42h-13.01v-6h13.01v6Z" stroke-width="0"/></g></g><g id="uuid-dfa83e1c-972a-4e75-a433-d89a3b837cbd"></g></svg>