<?xml version="1.0" encoding="UTF-8"?><svg width="70" height="70" xmlns="http://www.w3.org/2000/svg" viewBox="-10 -10 70 70"><rect x="-10" y="-10" width="70" height="70" fill="white"/><g id="uuid-45b73896-755f-427f-982b-baef3e805bf9"><g><path d="M44.59,12.97l-1.94-1.54h0c-.72-.57-1.43-1.14-2.15-1.71l-.82-.66c-.43-.34-.87-.69-1.3-1.03l-1.07-.85c-.22,.01-.58,.04-1.05,.06-2.38,.14-9.45,.56-10.56,.76L7.02,31.79c-.63,.8-.91,1.8-.79,2.82s.63,1.93,1.43,2.56l14.9,11.7c1.66,1.3,4.07,1.01,5.38-.65l18.61-23.7c-.24-1.54-1.7-10.32-1.95-11.55Zm-7.22,1.67c-.86,1.1-2.46,1.29-3.55,.43-1.1-.86-1.29-2.46-.43-3.55,.5-.63,1.24-.97,1.99-.97,.55,0,1.1,.18,1.56,.54,1.1,.86,1.29,2.46,.43,3.55Z" fill="#ffcd00" stroke-width="0"/><path d="M43.6,10.54l-3.44-2.74,5.22-6.68c.17-.22,.13-.53-.09-.7-.22-.17-.53-.13-.7,.09l-5.21,6.67-3.33-2.65c-.1-.08-.23-.12-.36-.11-.07,0-.53,.03-1.22,.07-10.9,.64-10.99,.75-11.19,1.01L4.48,29.42c-1.65,2.09-1.28,5.14,.82,6.78l14.9,11.7c.88,.69,1.93,1.03,2.98,1.03,1.43,0,2.85-.63,3.8-1.85l18.74-23.87c.08-.1,.12-.24,.1-.37-.01-.12-1.85-12.01-2.22-12.31ZM26.19,46.47c-1.3,1.66-3.72,1.95-5.38,.65l-14.9-11.7c-.8-.63-1.31-1.54-1.43-2.56s.16-2.02,.79-2.82L23.95,6.25c1.11-.2,8.18-.61,10.56-.76,.47-.03,.84-.05,1.05-.06l3.19,2.54-1.62,2.07c-1.5-.86-3.44-.53-4.53,.86-1.2,1.53-.93,3.75,.6,4.96,.65,.51,1.41,.75,2.18,.75,1.05,0,2.08-.46,2.78-1.35,1.1-1.4,.96-3.36-.23-4.61l1.61-2.06,3.31,2.63c.26,1.23,1.71,10.01,1.95,11.55l-18.61,23.7Zm11.18-31.83c-.86,1.1-2.46,1.29-3.55,.43-1.1-.86-1.29-2.46-.43-3.55,.5-.63,1.24-.97,1.99-.97,.55,0,1.1,.18,1.56,.54,1.1,.86,1.29,2.46,.43,3.55Z" stroke-width="0"/><path d="M29.16,22.31l-1.07-.84-1.07,1.36c-1.86-1.22-3.97-1.22-5.36,.54-1.17,1.49-1.03,3,.85,5.55,1.16,1.6,1.43,2.43,.69,3.37-.57,.73-1.39,.92-2.57,0-1.1-.87-1.23-1.96-.64-3.02l-2.08-1.64c-1.36,1.97-.98,4.05,.83,5.75l-1.07,1.36,1.07,.84,1.07-1.36c2.46,1.64,4.5,1.08,5.74-.49,1.17-1.48,1.3-3.09-.73-5.93-1.13-1.58-1.48-2.2-.87-2.98,.56-.72,1.36-.79,2.29-.06,.52,.41,.77,.82,.85,1.23,.13,.7-.22,1.25-.3,1.37,.3,.24,.81,.64,1.11,.87,.24,.19,.72,.57,.96,.75,1.08-1.6,1.12-3.5-.76-5.3l1.07-1.37Z" stroke-width="0"/></g></g><g id="uuid-b1775541-451c-417b-a7c1-08ba3157c5ba"></g></svg>