<?xml version="1.0" encoding="UTF-8"?><svg width="70" height="70" id="uuid-ddbcdccd-a818-47ef-8b55-c9d991dcc78e" xmlns="http://www.w3.org/2000/svg" viewBox="-10 -10 70 70"><rect x="-10" y="-10" width="70" height="70" fill="white"/><path d="M14.97,40.07h19.79c.28,0,.5-.22,.5-.5,0-.03-.01-.06-.02-.09H14.49s-.02,.06-.02,.09c0,.28,.22,.5,.5,.5Z" fill="none" stroke-width="0"/><path d="M34.77,39.07H14.97c-.24,0-.44,.18-.48,.41h20.76c-.04-.23-.24-.41-.48-.41Z" fill="#ffcd00" stroke-width="0"/><path d="M3.54,16.53v22.95h6.43v-12.48h29.87v11.16s-.01,.04-.01,.07,.01,.05,.01,.07v1.18h9.38V16.53H3.54Z" fill="#ffcd00" stroke-width="0"/><path d="M35.26,32.96H14.97c-.28,0-.5,.22-.5,.5s.22,.5,.5,.5h20.28c.28,0,.5-.22,.5-.5s-.22-.5-.5-.5Z" fill="#ffcd00" stroke-width="0"/><path d="M38.98,19.29c-.71,0-1.28,.57-1.28,1.28s.57,1.28,1.28,1.28,1.28-.57,1.28-1.28-.57-1.28-1.28-1.28Z" stroke-width="0"/><path d="M34.77,39.07H14.97c-.28,0-.5,.22-.5,.5s.22,.5,.5,.5h19.79c.28,0,.5-.22,.5-.5s-.22-.5-.5-.5Z" stroke-width="0"/><path d="M35.26,32.96H14.97c-.28,0-.5,.22-.5,.5s.22,.5,.5,.5h20.28c.28,0,.5-.22,.5-.5s-.22-.5-.5-.5Z" stroke-width="0"/><path d="M47.96,13.78h-7.44V5.86c0-1.6-1.71-2.9-3.81-2.9H12.77c-2.1,0-3.81,1.3-3.81,2.9v7.92H1.29c-.28,0-.5,.22-.5,.5v23.95c0,.28,.22,.5,.5,.5h7.68v7.81c0,.28,.22,.5,.5,.5h30.87c.28,0,.5-.22,.5-.5v-7.81h7.13c.28,0,.5-.22,.5-.5V14.28c0-.28-.22-.5-.5-.5ZM9.97,5.86c0-1.03,1.29-1.9,2.81-1.9h23.94c1.52,0,2.81,.87,2.81,1.9v7.92H9.97V5.86Zm0,40.17V27h29.87v11.16s-.01,.04-.01,.07,.01,.05,.01,.07v7.74H9.97Zm37.5-8.31h-6.63v-11.23c0-.28-.22-.5-.5-.5H9.47c-.28,0-.5,.22-.5,.5v11.23H1.79V14.78H47.46v22.95Z" stroke-width="0"/></svg>