<?xml version="1.0" encoding="utf-8"?> <!-- Generator: Adobe Illustrator 27.7.0, SVG Export Plug-In . SVG Version: 6.00 Build 0) --> <svg width="70" height="70" version="1.1" xmlns="http://www.w3.org/2000/svg" xmlns:xlink="http://www.w3.org/1999/xlink" x="0px" y="0px" viewBox="-10 -10 70 70" style="enable-background:new 0 0 50 50;" xml:space="preserve"><rect x="-10" y="-10" width="70" height="70" fill="white"/> <style type="text/css"> .st0{fill:#FFCD00;} .st1{display:none;} .st2{display:inline;fill:none;stroke:#EA008A;stroke-width:0.2;stroke-miterlimit:10;} .st3{font-family:'Roboto-Regular';} .st4{font-size:6px;} </style> <g id="Color"> <path class="st0" d="M21.0708,19.144h10.8584l0.7983-7.8267c0.0176-0.1729,0.124-0.3242,0.2808-0.3999l4.877-2.3472 c0.2026-1.647-0.7275-3.5508-2.2378-4.5171c-0.8853-0.5669-2.7104-1.2734-4.9731,0.3579c-0.1128,0.0811-0.251,0.1089-0.3833,0.0859 c-2.502,0.4409-5.1172,0.4399-7.6201-0.0068c-0.1216,0.0171-0.2437-0.0063-0.3452-0.0791 c-2.2637-1.6328-4.0884-0.9248-4.9731-0.3579c-1.5103,0.9663-2.4404,2.8701-2.2378,4.5171l4.877,2.3472 c0.1567,0.0757,0.2632,0.2271,0.2808,0.3999L21.0708,19.144z" stroke-width="0"/> <g> <path class="st0" d="M11.3291,32.7563c-2.5527,4.2241-5.1753,10.877-5.5337,16.6934l41.4092-0.0005 c-0.3594-5.7612-3.0098-12.4282-5.5913-16.6924C31.793,32.9951,27.8848,25.4902,26.5,21.4106 C25.1128,25.5,21.2397,33.0459,11.3291,32.7563z" stroke-width="0"/> </g> <g> <path class="st0" d="M10.3257,31.7036c0.2539,0.019,0.5034,0.0327,0.75,0.0435l0.853,0.0361L11.48,32.5093 c-2.5996,4.2085-5.3193,11.0093-5.6846,16.9404l41.4092-0.0005c-0.3662-5.873-3.1138-12.6875-5.7417-16.9385l-0.4507-0.7285 l0.856-0.0337c0.2651-0.0107,0.5332-0.0249,0.8062-0.0454c-1.1626-4.3584-6.0137-9.041-10.4253-11.5591H20.751 C16.3389,22.6626,11.4878,27.3447,10.3257,31.7036z" stroke-width="0"/> </g> </g> <g id="ICONS_00000031165542127692736420000002692518830807990202_"> <g> <path d="M41.2095,31.1985c0.2112-0.0167,0.4193-0.0289,0.6353-0.0526c0.1392-0.0151,0.2656-0.0879,0.3486-0.2007 s0.1147-0.2554,0.0879-0.3926c-0.9307-4.7472-6.121-9.9139-10.8704-12.6758l0.7835-7.6797l4.8604-2.3394 c0.1421-0.0684,0.2437-0.2002,0.2739-0.355c0.4116-2.1133-0.6997-4.5488-2.6421-5.792c-1.8154-1.162-3.958-1.0505-5.9131,0.2725 c-2.4753,0.4556-5.0714,0.4556-7.5466,0c-1.9552-1.3248-4.0983-1.434-5.9133-0.2725c-1.9424,1.2432-3.0537,3.6787-2.6421,5.792 c0.0303,0.1548,0.1318,0.2866,0.2739,0.355l4.8604,2.3394l0.7835,7.6797c-4.7495,2.7618-9.9398,7.9286-10.8704,12.6758 c-0.0269,0.1372,0.0049,0.2798,0.0879,0.3926s0.2095,0.1855,0.3486,0.2007c0.2163,0.0236,0.4241,0.0359,0.6353,0.0526 C6.319,35.3063,3.5134,42.0458,3.27,48.436c-0.0054,0.1406,0.0483,0.2764,0.1484,0.375c0.1001,0.0991,0.2407,0.1538,0.3774,0.1436 l25.4199-0.0035c0.0101,0.0006,0.0202,0.004,0.0303,0.004c0.0042,0,0.0076-0.0039,0.0118-0.004l8.4254-0.0012 c0.0039,0.0004,0.0072,0.0029,0.0111,0.0032c0.0146,0.0015,0.0293,0.002,0.0439,0.002c0.0094,0,0.0179-0.0046,0.0273-0.0052 l8.3276-0.0012l0.1108,0.0059c0.0088,0.0005,0.0176,0.0005,0.0264,0.0005c0.1309,0,0.2573-0.0513,0.3511-0.144 c0.1001-0.0986,0.1538-0.2344,0.1484-0.375C46.4866,42.0458,43.681,35.3063,41.2095,31.1985z M41.1743,30.2041 c-4.0722,0.3068-12.4738-0.4971-15.5206-11.5601h5.0906C35.1581,21.1619,40.012,25.8434,41.1743,30.2041z M28.1874,3.0726 C27.5162,4.9828,26.0331,6.7178,25,7.5938c-1.0331-0.876-2.5162-2.611-3.1874-4.5212C22.8659,3.2278,23.9316,3.3276,25,3.3276 S27.1341,3.2278,28.1874,3.0726z M13.6147,7.0703c-0.2026-1.647,0.7275-3.5508,2.2378-4.5171 c0.8662-0.5547,2.6309-1.2427,4.8262,0.2544c0.6787,2.5552,2.8081,4.9175,4.0215,5.8267c0.1777,0.1328,0.4219,0.1328,0.5996,0 c1.2134-0.9092,3.3428-3.2715,4.0215-5.8267c2.1948-1.499,3.9595-0.8096,4.8262-0.2544c1.5103,0.9663,2.4404,2.8701,2.2378,4.5171 l-4.877,2.3472c-0.1567,0.0757-0.2632,0.2271-0.2808,0.3999l-0.7984,7.8267H19.5709l-0.7984-7.8267 c-0.0176-0.1729-0.124-0.3242-0.2808-0.3999L13.6147,7.0703z M19.2556,18.644h5.0906 C21.2988,29.708,12.894,30.5118,8.8257,30.2041C9.988,25.8434,14.8419,21.1619,19.2556,18.644z M38.2205,47.9493 c-0.1978-5.6846-1.5272-11.0009-2.3192-13.7066c-0.0776-0.2646-0.3545-0.4185-0.6206-0.3394 c-0.2646,0.0776-0.417,0.3555-0.3394,0.6206c0.7772,2.6546,2.0811,7.8636,2.2792,13.4254l-7.4805,0.0001 c-0.0659-5.648-0.5062-10.927-0.7689-13.6149c-0.0269-0.2744-0.2632-0.4683-0.5464-0.4487 c-0.2744,0.0269-0.4756,0.2715-0.4487,0.5464c0.2609,2.6694,0.6981,7.9115,0.7639,13.5173l-7.48,0.0001 c0.0659-5.606,0.5031-10.8479,0.7639-13.5174c0.0269-0.2749-0.1743-0.5195-0.4487-0.5464 c-0.2783-0.0205-0.519,0.1743-0.5464,0.4487c-0.2627,2.688-0.703,7.967-0.7689,13.6151l-7.4802,0.0001 c0.1976-5.5624,1.5013-10.7709,2.2789-13.4257c0.0776-0.2651-0.0747-0.543-0.3394-0.6206 c-0.2642-0.0757-0.543,0.0752-0.6206,0.3394c-0.792,2.7057-2.1214,8.0223-2.3192,13.707l-7.4846,0.0001 c0.3787-6.2874,3.2275-12.8559,5.6318-16.6928c0.1375,0.003,0.2794,0.0117,0.4146,0.0117c9.499,0,13.2895-7.3114,14.6586-11.3583 c1.3689,4.0469,5.1585,11.3583,14.6588,11.3583c0.135,0,0.277-0.0087,0.4146-0.0117c2.4038,3.8364,5.2526,10.4054,5.6318,16.6923 L38.2205,47.9493z" stroke-width="0"/> <path d="M22.2075,11.0708l1.6624,0.8198l-1.4515,0.7158c-0.2476,0.1221-0.3496,0.4219-0.2271,0.6694 c0.0869,0.1768,0.2642,0.2788,0.4487,0.2788c0.0742,0,0.1494-0.0166,0.2207-0.0518L25,12.4479l2.1392,1.055 c0.0713,0.0352,0.1465,0.0518,0.2207,0.0518c0.1846,0,0.3618-0.1025,0.4487-0.2788c0.1226-0.2476,0.0205-0.5474-0.2271-0.6694 l-1.4515-0.7158l1.6624-0.8198c0.2476-0.1221,0.3496-0.4219,0.2271-0.6694s-0.4209-0.3501-0.6694-0.2271L25,11.3333l-2.3501-1.159 c-0.2485-0.1221-0.5474-0.0195-0.6694,0.2271C21.8579,10.6489,21.96,10.9487,22.2075,11.0708z" stroke-width="0"/> </g> </g> <g id="Margin" class="st1"> <rect x="1" y="1" class="st2" /> </g> <g id="Guides" class="st1"> </g> <g id="LABELS"> <g> <g> </g> </g> </g> </svg> 