<?xml version="1.0" encoding="utf-8"?> <!-- Generator: Adobe Illustrator 27.7.0, SVG Export Plug-In . SVG Version: 6.00 Build 0) --> <svg width="70" height="70" version="1.1" xmlns="http://www.w3.org/2000/svg" xmlns:xlink="http://www.w3.org/1999/xlink" x="0px" y="0px" viewBox="-10 -10 70 70" style="enable-background:new 0 0 50 50;" xml:space="preserve"><rect x="-10" y="-10" width="70" height="70" fill="white"/> <style type="text/css"> .st0{fill:#FFCD00;} .st1{display:none;} .st2{display:inline;fill:none;stroke:#EA008A;stroke-width:0.2;stroke-miterlimit:10;} .st3{font-family:'Roboto-Regular';} .st4{font-size:6px;} </style> <g id="Color"> <path class="st0" d="M26.4771,2.3486c0.5537,0,1.0044,0.4502,1.0044,1.0039s-0.4507,1.0044-1.0044,1.0044 s-1.0039-0.4507-1.0039-1.0044S25.9233,2.3486,26.4771,2.3486z" stroke-width="0"/> <path class="st0" d="M22.4653,3.3525c0-0.5537,0.4502-1.0039,1.0039-1.0039s1.0039,0.4502,1.0039,1.0039 s-0.4502,1.0044-1.0039,1.0044S22.4653,3.9062,22.4653,3.3525z" stroke-width="0"/> <path class="st0" d="M34.2593,14.4883c-0.3564-1.5444-3.7485-4.5845-7.0952-5.2725c-1.0859-0.2236-2.0815-0.0122-2.9644,0.6265 c-0.3527,0.2547-0.672,0.5792-0.9553,0.9425c-0.2181-0.2569-0.3737-0.4857-0.6177-0.8242 c-1.2112-1.7283-2.2396-2.9396-4.3928-3.468c-0.0525,3.1566,0.9915,4.6784,3.3983,5.0413c0.4344,0.069,0.7227,0.0927,1.0666,0.098 c-0.3104,0.5913-0.5264,1.2375-0.6025,1.8846c-0.2744,2.3335,0.0845,10.0049,0.0884,10.0825 c0.0127,0.2705-0.1924,0.5024-0.4629,0.522c-3.084,0.2261-11.2729,2.9722-11.4424,7.8193 c-0.0699,2.0078,0.0629,4.2393,0.3633,6.7178c1.1667,0.0145,2.2227,0.4537,3.0534,1.1555c0.0167,0.0051,0.0344,0.0076,0.051,0.0129 c0.1733-2.5214,1.5946-6.2221,4.9419-6.4228c0.9009-0.0562,1.6924,0.2261,2.3652,0.8325c0.9733,0.8761,1.6333,2.4393,1.9625,4.5507 c0.3526-0.0818,0.7156-0.1348,1.0927-0.1348c0.9407,0,1.8069,0.2849,2.5478,0.7545l0.9034-0.5266V19.8848 c0-1.5298,0.3135-2.4868,0.9863-3.0122c0.7915-0.6172,1.8945-0.5098,3.3071-0.1562c0.8516,0.2114,1.5596,0.0908,2-0.3418 C34.2832,15.9536,34.4346,15.248,34.2593,14.4883z" stroke-width="0"/> <circle class="st0" cx="42.1538" cy="46.6675" r="1.0537"/> </g> <g id="ICONS_00000031165542127692736420000002692518830807990202_"> <g> <g> <g> <circle cx="25.8469" cy="10.3337" r="1.0984"/> <circle cx="24.1096" cy="43.505" r="1.396"/> <circle cx="10.583" cy="43.505" r="1.396"/> </g> <path d="M44.3062,38.022c-2.3243-1.7593-9.9058-3.3696-17.2456,0.5513V18.3848c0-1.1641,0.2026-1.9121,0.6016-2.2236 c0.501-0.3906,1.4731-0.2183,2.4497,0.0249c1.1997,0.3013,2.2451,0.0884,2.9429-0.5977c0.6792-0.667,0.9331-1.7231,0.6792-2.8247 c-0.4391-1.9016-3.7685-4.8488-7.1318-5.8404V4.9111c0.8627-0.2236,1.5044-1.0018,1.5044-1.9336 c0-1.105-0.8989-2.0039-2.0044-2.0039c-0.6019,0-1.1363,0.2723-1.5039,0.6937c-0.3676-0.4214-0.902-0.6937-1.5039-0.6937 c-1.105,0-2.0039,0.8989-2.0039,2.0039c0,0.9318,0.6415,1.7099,1.5039,1.9336v2.2412c0,0.0321,0.0125,0.0601,0.0182,0.0905 c-0.1672,0.0934-0.3387,0.1736-0.4982,0.2889c-0.0919,0.0664-0.1779,0.1446-0.2664,0.218 c-1.376-1.9448-2.6564-3.359-5.5056-3.8601c-0.1416-0.0244-0.2856,0.0117-0.3975,0.1011 c-0.1118,0.0889-0.1807,0.2217-0.1885,0.3647c-0.1372,2.5406,0.1536,5.9415,4.0356,6.6354 c-0.0839,0.301-0.1531,0.6043-0.1889,0.9085c-0.2466,2.0962-0.0142,8.0356,0.0615,9.7734 c-3.7104,0.4702-11.6992,3.4292-11.8843,8.7324c-0.0843,2.4116,0.0921,5.0938,0.5245,8.1653 c-1.8638,0.8643-3.1627,2.7484-3.1627,4.9343c0,3,2.4409,5.4409,5.4409,5.4409s5.4409-2.4409,5.4409-5.4409 c0-2.0433-1.1337-3.8254-2.8038-4.7554c0.0012-0.0133,0.0071-0.0244,0.0074-0.0381c0.0508-2.3154,1.332-5.6484,4.021-5.8096 c0.6313-0.0381,1.1631,0.1514,1.6362,0.5771c1.0342,0.9313,1.681,2.9805,1.8389,5.7743 c-1.2504,0.9977-2.0552,2.5314-2.0552,4.2516c0,3,2.4409,5.4409,5.4409,5.4409s5.4409-2.4409,5.4409-5.4409 c0-1.6447-0.7366-3.1181-1.8938-4.1166c6.6085-3.4557,13.7796-2.2851,16.0461-0.5689c0.4536,0.3428,0.5757,0.6177,0.5425,0.7485 c-0.0503,0.1992-0.5195,0.5947-1.9595,0.8159c-3.7891,0.5815-7.8345,2.0786-7.7637,3.9902 c0.0464,1.2606,1.8271,2.0559,5.2585,2.3754c0.209,0.9124,1.0236,1.5967,1.9984,1.5967c1.1323,0,2.0537-0.9214,2.0537-2.0537 s-0.9214-2.0537-2.0537-2.0537c-0.9443,0-1.7336,0.6443-1.9725,1.5138c-3.3335-0.3167-4.2708-1.0292-4.2853-1.4152 c-0.0288-0.7905,2.5879-2.3008,6.916-2.9653c1.6455-0.2529,2.5796-0.7773,2.7773-1.5586 C45.3213,39.3906,45.2505,38.7368,44.3062,38.022z M26.1021,1.9736c0.5537,0,1.0044,0.4502,1.0044,1.0039 s-0.4507,1.0044-1.0044,1.0044s-1.0039-0.4507-1.0039-1.0044S25.5483,1.9736,26.1021,1.9736z M22.0903,2.9775 c0-0.5537,0.4502-1.0039,1.0039-1.0039s1.0039,0.4502,1.0039,1.0039s-0.4502,1.0044-1.0039,1.0044S22.0903,3.5312,22.0903,2.9775 z M23.5942,4.9111c0.3965-0.1028,0.7424-0.3231,1.0039-0.623c0.2615,0.2999,0.6074,0.5201,1.0039,0.623v1.7975 c-0.6932-0.1058-1.3667-0.0626-2.0078,0.1212V4.9111z M16.7339,4.9927c2.1533,0.5283,3.1816,1.7397,4.3928,3.468 c-0.3961,0.4675-0.7361,1.0016-0.9946,1.5733C17.7253,9.6711,16.6814,8.1492,16.7339,4.9927z M20.494,14.9114 c0.86,0.1552,1.5158,0.9056,1.5158,1.8098c0,0.8836-0.6257,1.6225-1.4568,1.8006C20.5197,17.3575,20.4941,16.0743,20.494,14.9114 z M18.2988,24.9526c0,1.7134-1.394,3.1074-3.1074,3.1074c-1.4644,0-2.7437-1.0391-3.0415-2.4707 c-0.0016-0.0074-0.0067-0.0128-0.0086-0.0201c1.7109-1.1497,3.7814-1.9764,5.5378-2.4586 C18.0736,23.6437,18.2988,24.2854,18.2988,24.9526z M15.0239,43.5049c0,2.4487-1.9922,4.4409-4.4409,4.4409 s-4.4409-1.9922-4.4409-4.4409s1.9922-4.4409,4.4409-4.4409S15.0239,41.0562,15.0239,43.5049z M19.5542,32.7363 c-0.6729-0.6064-1.4644-0.8887-2.3652-0.8325c-3.3473,0.2007-4.7686,3.9014-4.9419,6.4228 c-0.525-0.1691-1.0836-0.2626-1.6641-0.2626c-0.4538,0-0.8924,0.062-1.3141,0.1672c-0.4031-2.9272-0.5696-5.4915-0.4896-7.7907 c0.0585-1.6732,1.0828-3.0894,2.5126-4.2447c0.5364,1.6785,2.1059,2.8643,3.8995,2.8643c2.2646,0,4.1074-1.8428,4.1074-4.1074 c0-0.7435-0.2029-1.4678-0.5785-2.0992c0.5703-0.1214,1.0849-0.2018,1.5013-0.2323c0.2705-0.0195,0.4756-0.2515,0.4629-0.522 c-0.0015-0.0289-0.0521-1.1113-0.101-2.5773c1.369-0.2037,2.4261-1.3759,2.4261-2.8007c0-1.453-1.1002-2.6413-2.5088-2.809 c0.0126-0.771,0.0414-1.4378,0.0952-1.8956c0.1685-1.4312,0.9941-2.873,2.1035-3.6743c0.8828-0.6387,1.8784-0.8501,2.9644-0.6265 c3.3467,0.688,6.7388,3.728,7.0952,5.2725c0.1753,0.7598,0.0239,1.4653-0.4053,1.8862c-0.4404,0.4326-1.1484,0.5532-2,0.3418 c-1.4126-0.3535-2.5156-0.4609-3.3071,0.1562c-0.6729,0.5254-0.9863,1.4824-0.9863,3.0122v20.0471 c-0.6067-0.2342-1.2629-0.3679-1.9512-0.3679c-0.8727,0-1.6953,0.2116-2.4271,0.5784 C21.4528,35.8304,20.7267,33.7917,19.5542,32.7363z M28.5503,43.5049c0,2.4487-1.9922,4.4409-4.4409,4.4409 s-4.4409-1.9922-4.4409-4.4409s1.9922-4.4409,4.4409-4.4409S28.5503,41.0562,28.5503,43.5049z M41.7788,45.2388 c0.5811,0,1.0537,0.4727,1.0537,1.0537s-0.4727,1.0537-1.0537,1.0537s-1.0537-0.4727-1.0537-1.0537 S41.1978,45.2388,41.7788,45.2388z" stroke-width="0"/> </g> </g> </g> <g id="Margin" class="st1"> <rect x="1" y="1" class="st2" /> </g> <g id="Guides" class="st1"> </g> <g id="LABELS"> <g> <g> </g> </g> </g> </svg> 