<?xml version="1.0" encoding="UTF-8"?><svg width="70" height="70" id="uuid-cf671442-f786-46ed-8236-87369dfbdb9b" xmlns="http://www.w3.org/2000/svg" viewBox="-10 -10 70 70"><rect x="-10" y="-10" width="70" height="70" fill="white"/><path d="M40.77,23.75c-1.14,1.26-2.21,2.04-3.95,2.04-2.76,0-5.01-2.25-5.01-5.01s2.25-5.01,5.01-5.01c1.4,0,2.73,.65,3.96,1.94,.18,.15,1.08,.02,1.96-.25V4.54H9.99V37.28h13.56c.21,0,.4,.13,.47,.33,.28,.77,.86,2.64,.12,3.35-1.1,1.04-1.63,2.1-1.63,3.24,0,2.21,1.8,4.01,4.01,4.01s4.01-1.8,4.01-4.01c0-1.38-.63-2.23-1.72-3.22-.73-.67-.22-2.54,0-3.21h0c0-.29,.22-.51,.5-.51h0l13.43,.03,.02-13.32c-.75-.21-1.77-.37-1.99-.21Z" fill="#ffcd00" stroke-width="0"/><path d="M41.74,21.4s-2.64-.98-3.46-.08c-1.02,1.12-1.83,1.72-3.22,1.72-2.21,0-4.01-1.8-4.01-4.01s1.8-4.01,4.01-4.01c1.13,0,2.19,.53,3.24,1.63,.71,.75,2.58,.17,3.35-.12,.2-.07,.33-.26,.33-.47V2.29c0-.28-.22-.5-.5-.5H7.74c-.28,0-.5,.22-.5,.5V36.03c0,.28,.22,.5,.5,.5h13.7c.28,.87,.4,1.77,.25,1.96-1.29,1.23-1.94,2.56-1.94,3.96,0,2.77,2.25,5.01,5.01,5.01s5.01-2.25,5.01-5.01c0-1.75-.79-2.81-2.04-3.95-.16-.22,0-1.24,.21-1.99l13.53,.03c.17,.01,.26-.05,.35-.15,.09-.09,.15-.22,.15-.35l.03-14.19c0-.18-.1-.35-.26-.44Zm-.76,14.13l-13.43-.03h0c-.28,0-.5,.22-.5,.5h0c-.22,.69-.73,2.56,0,3.22,1.09,.99,1.72,1.84,1.72,3.22,0,2.21-1.8,4.01-4.01,4.01s-4.01-1.8-4.01-4.01c0-1.13,.53-2.19,1.63-3.24,.75-.71,.17-2.58-.12-3.35-.07-.2-.26-.33-.47-.33H8.24V2.79H40.98V15.7c-.88,.28-1.77,.4-1.96,.25-1.23-1.29-2.56-1.94-3.96-1.94-2.76,0-5.01,2.25-5.01,5.01s2.25,5.01,5.01,5.01c1.74,0,2.81-.78,3.95-2.04,.22-.16,1.24,0,1.99,.21l-.02,13.32Z" stroke-width="0"/></svg>