<?xml version="1.0" encoding="UTF-8"?><svg width="70" height="70" id="uuid-1ec9ea36-fd4c-4ba6-9d10-eca45c6bdaea" xmlns="http://www.w3.org/2000/svg" viewBox="-10 -10 70 70"><rect x="-10" y="-10" width="70" height="70" fill="white"/><path d="M36.91,9.07h-.76v1.38h.77c.24,0,.42-.06,.55-.18,.13-.12,.2-.29,.2-.5s-.06-.39-.19-.51c-.12-.12-.31-.19-.57-.19Z" stroke-width="0"/><path d="M45.43,3.34H8.07c-2.22,0-4.03,1.81-4.03,4.03V44.72c0,2.22,1.81,4.03,4.03,4.03H45.43c2.22,0,4.03-1.81,4.03-4.03V7.37c0-2.22-1.81-4.03-4.03-4.03Zm-9.62,30.03h-6.89c-.28,0-.5,.22-.5,.5v6.89h-6.54v-6.89c0-.28-.22-.5-.5-.5h-6.89v-6.54h6.89c.28,0,.5-.22,.5-.5v-6.89h6.54v6.89c0,.28,.22,.5,.5,.5h6.89v6.54Z" fill="#ffcd00" stroke-width="0"/><path d="M10.57,8.51c-.3-.18-.64-.28-1.02-.28s-.72,.09-1.02,.28c-.3,.18-.53,.45-.69,.79-.16,.34-.25,.74-.25,1.2v.23c0,.44,.09,.83,.25,1.17,.16,.34,.4,.6,.7,.79,.3,.18,.64,.28,1.02,.28,.12,0,.24,0,.35-.03l.98,.79,.6-.53-.77-.6c.25-.19,.44-.45,.58-.76s.21-.69,.21-1.12v-.21c0-.45-.08-.85-.25-1.19-.16-.34-.39-.61-.69-.79Zm-.02,2.21c0,.48-.09,.84-.26,1.09-.17,.25-.42,.37-.73,.37s-.57-.13-.75-.39-.26-.62-.26-1.09v-.22c0-.48,.09-.84,.26-1.09,.17-.25,.42-.37,.74-.37s.57,.13,.74,.38c.17,.25,.26,.62,.26,1.1v.22Z" stroke-width="0"/><path d="M15.21,12.53c.31-.29,.47-.69,.47-1.2v-3.03h-.95v3.06c0,.56-.28,.84-.81,.84-.26,0-.46-.07-.6-.21-.14-.14-.22-.36-.22-.66v-3.04h-.95v3.07c0,.5,.17,.89,.48,1.17s.74,.43,1.28,.43,.98-.15,1.29-.44Z" stroke-width="0"/><rect x="16.53" y="8.3" width=".95" height="4.6"/><path d="M20.11,12.97c.54,0,.97-.14,1.3-.43s.51-.67,.55-1.17h-.95c-.02,.28-.1,.49-.25,.62-.14,.13-.36,.2-.66,.2-.32,0-.56-.11-.71-.34-.15-.23-.23-.59-.23-1.09v-.35c0-.48,.08-.83,.24-1.05s.39-.34,.71-.34c.29,0,.51,.07,.65,.2,.14,.13,.22,.35,.25,.65h.95c-.05-.51-.24-.91-.56-1.2s-.75-.43-1.28-.43c-.38,0-.72,.09-1.01,.27-.29,.18-.51,.44-.67,.78-.16,.34-.23,.73-.23,1.17v.28c0,.69,.17,1.24,.51,1.64s.8,.6,1.39,.6Z" stroke-width="0"/><polygon points="23.54 11.59 24.03 11.06 25.21 12.9 26.34 12.9 24.66 10.34 26.3 8.3 25.13 8.3 23.96 9.81 23.54 10.38 23.54 8.3 22.59 8.3 22.59 12.9 23.54 12.9 23.54 11.59"/><path d="M28.36,12.97c.54,0,.97-.14,1.3-.43s.51-.67,.55-1.17h-.95c-.02,.28-.1,.49-.25,.62-.14,.13-.36,.2-.66,.2-.32,0-.56-.11-.71-.34-.15-.23-.23-.59-.23-1.09v-.35c0-.48,.08-.83,.24-1.05s.39-.34,.71-.34c.29,0,.51,.07,.65,.2,.14,.13,.22,.35,.25,.65h.95c-.05-.51-.24-.91-.56-1.2s-.75-.43-1.28-.43c-.38,0-.72,.09-1.01,.27-.29,.18-.51,.44-.67,.78-.16,.34-.23,.73-.23,1.17v.28c0,.69,.17,1.24,.51,1.64s.8,.6,1.39,.6Z" stroke-width="0"/><path d="M31.78,11.95h1.66l.32,.95h1.01l-1.72-4.6h-.88l-1.71,4.6h1.01l.32-.95Zm.83-2.49l.58,1.72h-1.15l.57-1.72Z" stroke-width="0"/><path d="M38.4,10.48c.14-.21,.2-.47,.2-.79,0-.44-.15-.79-.44-1.03-.3-.24-.71-.36-1.26-.36h-1.71v4.6h.95v-1.69h.76l.86,1.69h1.02v-.04l-1-1.88c.28-.12,.48-.29,.62-.5Zm-.94-.21c-.13,.12-.31,.18-.55,.18h-.77v-1.38h.76c.26,0,.44,.06,.57,.19,.12,.12,.19,.29,.19,.51s-.07,.38-.2,.5Z" stroke-width="0"/><polygon points="40.28 10.91 42.1 10.91 42.1 10.16 40.28 10.16 40.28 9.07 42.41 9.07 42.41 8.3 39.33 8.3 39.33 12.9 42.42 12.9 42.42 12.14 40.28 12.14 40.28 10.91"/><path d="M43.68,.59H6.32C3.55,.59,1.3,2.84,1.3,5.62V42.97c0,2.77,2.26,5.03,5.03,5.03H43.68c2.77,0,5.03-2.26,5.03-5.03V5.62c0-2.77-2.26-5.03-5.03-5.03Zm4.03,42.38c0,2.22-1.81,4.03-4.03,4.03H6.32c-2.22,0-4.03-1.81-4.03-4.03V5.62C2.3,3.4,4.1,1.59,6.32,1.59H43.68c2.22,0,4.03,1.81,4.03,4.03V42.97Z" stroke-width="0"/><path d="M36.31,25.83h-6.89v-6.89c0-.28-.22-.5-.5-.5h-7.54c-.28,0-.5,.22-.5,.5v6.89h-6.89c-.28,0-.5,.22-.5,.5v7.54c0,.28,.22,.5,.5,.5h6.89v6.89c0,.28,.22,.5,.5,.5h7.54c.28,0,.5-.22,.5-.5v-6.89h6.89c.28,0,.5-.22,.5-.5v-7.54c0-.28-.22-.5-.5-.5Zm-.5,7.54h-6.89c-.28,0-.5,.22-.5,.5v6.89h-6.54v-6.89c0-.28-.22-.5-.5-.5h-6.89v-6.54h6.89c.28,0,.5-.22,.5-.5v-6.89h6.54v6.89c0,.28,.22,.5,.5,.5h6.89v6.54Z" stroke-width="0"/></svg>