<?xml version="1.0" encoding="UTF-8"?><svg width="70" height="70" xmlns="http://www.w3.org/2000/svg" viewBox="-10 -10 70 70"><rect x="-10" y="-10" width="70" height="70" fill="white"/><g id="uuid-49f6cdb9-5c99-4f49-ae48-1926225ba5f5"><g><g><polygon points="24.4 39.71 23.9 39.71 23.9 36.2 11.62 36.2 11.62 39.71 11.12 39.71 8.16 39.71 8.16 49.55 27.36 49.55 27.36 39.71 24.4 39.71" fill="#ffcd00"/><path d="M37.04,5.09l-1.9,5.45c-.07,.21-.28,.35-.51,.33-.23-.02-.41-.18-.46-.4l-.71-3.51c-2.41,1.51-4.57,3.38-6.4,5.55-.51,.6-1.01,1.25-1.53,1.99l-.57,5.73c-.02,.22-.19,.41-.41,.44-.22,.04-.44-.08-.54-.28l-.85-1.82c-1.82,3.83-2.69,7.96-2.51,11.88l.08,1.02c.76-.08,1.81-.21,3.03-.49,5.19-1.16,8.81-3.68,10.43-4.95,3.76-2.94,5.88-6.26,6.97-8.29l-3.49-.47c-.2-.03-.37-.18-.42-.37-.05-.2,.03-.41,.19-.53l6.14-4.4c.85-2.94,1.16-5.95,.91-8.76-2.46,.17-4.97,.79-7.47,1.86Z" fill="#ffcd00" stroke-width="0"/></g><path d="M43.7,.9c-.03-.26-.26-.44-.52-.44-2.8,.12-5.66,.81-8.5,2.05-.13,.06-.23,.16-.27,.29l-1.38,3.94-.49-2.42c-.03-.16-.14-.29-.29-.36-.15-.07-.32-.06-.46,.03-2.76,1.63-5.2,3.7-7.26,6.14-.55,.65-1.09,1.36-1.66,2.17-.05,.07-.08,.15-.09,.24l-.4,4.05-.51-1.1c-.08-.17-.25-.28-.44-.29-.18-.03-.37,.1-.45,.27-2.4,4.59-3.46,9.7-3.01,14.43-.91,1.17-1.8,2.37-2.68,3.57h-5.93c-.28,0-.5,.22-.5,.5v3.01h-2.96c-.28,0-.5,.22-.5,.5v10.83c0,.28,.22,.5,.5,.5H26.11c.28,0,.5-.22,.5-.5v-10.83c0-.28-.22-.5-.5-.5h-2.96v-3.01c0-.28-.22-.5-.5-.5h-6.11c.68-.93,1.38-1.85,2.08-2.76,6.87-.33,13.62-3.84,18.54-9.66,1.32-1.56,2.49-3.31,3.49-5.18,.08-.14,.08-.32,0-.46s-.22-.25-.38-.27l-2.96-.4,5.26-3.76c.09-.06,.16-.16,.19-.26,.98-3.32,1.3-6.62,.94-9.79ZM25.61,37.96v9.83H6.41v-9.83H25.61Zm-3.46-3.51v2.51H9.87v-2.51h12.28ZM41.85,10.24l-6.14,4.4c-.17,.12-.24,.33-.19,.53,.05,.2,.22,.35,.42,.37l3.49,.47c-.88,1.57-1.9,3.04-3.02,4.37-4.52,5.35-10.65,8.68-16.94,9.24,.47-.6,.94-1.19,1.41-1.78,3.36-4.13,6.99-8.12,10.79-11.87,.2-.19,.2-.51,0-.71-.19-.2-.51-.2-.71,0-3.82,3.77-7.48,7.79-10.86,11.95-.4,.49-.8,1-1.19,1.5-.17-3.92,.69-8.06,2.51-11.88l.85,1.82c.09,.2,.31,.32,.54,.28,.22-.04,.39-.22,.41-.44l.57-5.73c.52-.74,1.02-1.39,1.53-1.99,1.84-2.17,3.99-4.04,6.4-5.55l.71,3.51c.04,.22,.23,.38,.46,.4,.22,.01,.43-.12,.51-.33l1.9-5.45c2.5-1.07,5.01-1.69,7.47-1.86,.25,2.81-.06,5.83-.91,8.76Z" stroke-width="0"/></g></g><g id="uuid-2ec70827-8d84-4937-8e41-d12989a405fa"></g></svg>