<?xml version="1.0" encoding="UTF-8"?><svg width="70" height="70" id="uuid-15977898-2995-41b6-9879-7099337e6f43" xmlns="http://www.w3.org/2000/svg" viewBox="-10 -10 70 70"><rect x="-10" y="-10" width="70" height="70" fill="white"/><g><path d="M12.22,15.93v6.9H2.99v-7.02L5.43,7.09h3.83l-1.77,8.24c-.03,.15,0,.3,.1,.42,.09,.11,.24,.18,.39,.18h4.24Z" fill="#ffcd00" stroke-width="0"/><path d="M49.59,29.59v7.02l-2.44,8.72h-3.83l1.77-8.24c.03-.15,0-.3-.1-.42-.09-.11-.24-.18-.39-.18h-4.24v-6.9h9.23Z" fill="#ffcd00" stroke-width="0"/><path d="M36.03,29.59v7.02l-2.43,8.72h-3.81l1.77-8.24c.03-.15-.01-.3-.1-.42-.1-.11-.24-.18-.39-.18h-4.28v-6.9h9.24Z" fill="#ffcd00" stroke-width="0"/><path d="M25.79,15.93v6.9h-9.24v-7.02l2.43-8.72h3.81l-1.77,8.24c-.03,.15,0,.3,.1,.42,.1,.11,.24,.18,.39,.18h4.28Z" fill="#ffcd00" stroke-width="0"/></g><g><path d="M48.8,27.38h-10.23c-.28,0-.5,.22-.5,.5v7.9c0,.27,.22,.5,.5,.5h4.12l-1.76,8.24c-.04,.15,0,.3,.1,.42,.09,.12,.23,.18,.38,.18h4.83c.22,0,.42-.14,.48-.36l2.57-9.15s0-.09,0-.14v-7.59c0-.28-.22-.5-.5-.5Zm-.5,8.02l-2.44,8.72h-3.83l1.77-8.24c.03-.15,0-.3-.1-.42-.09-.11-.24-.18-.39-.18h-4.24v-6.9h9.23v7.02Z" stroke-width="0"/><path d="M35.24,27.38h-10.24c-.28,0-.5,.22-.5,.5v7.9c0,.27,.22,.5,.5,.5h4.16l-1.77,8.24c-.03,.15,.01,.3,.1,.42,.1,.12,.24,.18,.39,.18h4.81c.23,0,.43-.14,.49-.36l2.54-9.15s.02-.09,.02-.14v-7.59c0-.28-.22-.5-.5-.5Zm-.5,8.02l-2.43,8.72h-3.81l1.77-8.24c.03-.15-.01-.3-.1-.42-.1-.11-.24-.18-.39-.18h-4.28v-6.9h9.24v7.02Z" stroke-width="0"/><path d="M25.5,22.12v-7.9c0-.27-.22-.5-.5-.5h-4.16l1.77-8.24c.03-.15,0-.3-.1-.42-.1-.12-.24-.18-.39-.18h-4.81c-.23,0-.43,.14-.49,.36l-2.54,9.15s-.02,.09-.02,.14v7.59c0,.28,.22,.5,.5,.5h10.24c.28,0,.5-.22,.5-.5Zm-1-.5H15.26v-7.02l2.43-8.72h3.81l-1.77,8.24c-.03,.15,0,.3,.1,.42,.1,.11,.24,.18,.39,.18h4.28v6.9Z" stroke-width="0"/><path d="M11.43,13.72H7.31l1.76-8.24c.04-.15,0-.3-.1-.42-.09-.12-.23-.18-.38-.18H3.76c-.22,0-.42,.14-.48,.36L.71,14.39s-.01,.09-.01,.14v7.59c0,.28,.22,.5,.5,.5H11.43c.28,0,.5-.22,.5-.5v-7.9c0-.27-.22-.5-.5-.5Zm-.5,7.9H1.7v-7.02L4.14,5.88h3.83l-1.77,8.24c-.03,.15,0,.3,.1,.42,.09,.11,.24,.18,.39,.18h4.24v6.9Z" stroke-width="0"/></g></svg>