<?xml version="1.0" encoding="UTF-8"?><svg width="70" height="70" id="uuid-995c3326-0f5f-4e6a-b6d8-21e253d06955" xmlns="http://www.w3.org/2000/svg" viewBox="-10 -10 70 70"><rect x="-10" y="-10" width="70" height="70" fill="white"/><path d="M32.01,4.76l-5.77,15.43c-.11,.3,.04,.63,.34,.74,1.7,.64,2.84,2.27,2.84,4.07,0,.25-.04,.49-.07,.71-.03,.15,0,.31,.1,.43,.09,.13,.22,.21,.38,.24l17.38,2.91c-.97,5.04-3.62,9.49-7.35,12.74l-11.22-13.61c-.2-.25-.57-.28-.81-.08-1.61,1.32-3.91,1.33-5.52,0-.12-.1-.27-.14-.42-.13-.15,.01-.29,.09-.39,.21l-11.28,13.67c-.14-.12-.27-.26-.41-.38,4.15,4.69,10.2,7.65,16.94,7.65,12.47,0,22.62-10.15,22.62-22.62,0-10.66-7.41-19.61-17.35-21.99Z" fill="#ffcd00" stroke-width="0"/><path d="M20.68,26.15c.09-.12,.12-.28,.1-.43-.04-.23-.07-.47-.07-.72,0-1.8,1.14-3.43,2.84-4.07,.3-.11,.45-.44,.34-.74l-5.41-14.48c-8.39,3.31-14.34,11.49-14.34,21.04,0,.78,.04,1.56,.12,2.32l16.06-2.69c.15-.03,.29-.11,.38-.23Z" fill="#ffcd00" stroke-width="0"/><path d="M48.77,25c0-10.15-6.4-18.84-15.38-22.24,0,0,0,0-.02,0h-.01c-2.6-.98-5.42-1.53-8.37-1.53s-5.68,.52-8.25,1.48h-.03C7.68,6.09,1.23,14.8,1.23,25c0,1.33,.12,2.64,.33,3.92,0,0,0,.01,0,.02,0,0,0,.01,0,.02,1.89,11.23,11.68,19.82,23.44,19.82,5.75,0,11.04-2.06,15.15-5.47h0c5.26-4.37,8.61-10.95,8.61-18.3Zm-1.16,0c0,1.07-.08,2.12-.22,3.15l-16.83-2.82c0-.11,.01-.22,.01-.33,0-2.08-1.21-3.99-3.06-4.92l5.99-16.03c8.26,3.37,14.11,11.49,14.11,20.95ZM16.6,4.01l6.01,16.07c-1.85,.92-3.06,2.84-3.06,4.92,0,.11,0,.23,.01,.33L2.61,28.17c-.15-1.04-.23-2.1-.23-3.17C2.38,15.5,8.28,7.35,16.6,4.01Zm-5.49,38.82l10.92-13.25c1.82,1.22,4.24,1.22,6.06,0l10.87,13.19c-3.85,3.03-8.7,4.85-13.97,4.85s-10.05-1.79-13.89-4.79Zm28.75-.8l-11.22-13.61c-.2-.25-.57-.28-.81-.08-1.61,1.32-3.91,1.33-5.52,0-.12-.1-.27-.14-.42-.13-.15,.01-.29,.09-.39,.21l-11.28,13.67c-3.76-3.25-6.44-7.72-7.42-12.78l17.51-2.93c.15-.03,.29-.11,.38-.23s.12-.28,.1-.43c-.04-.23-.07-.47-.07-.72,0-1.8,1.14-3.43,2.84-4.07,.3-.11,.45-.44,.34-.74L17.68,3.6c2.3-.79,4.76-1.22,7.32-1.22s5.1,.45,7.43,1.26l-6.18,16.55c-.11,.3,.04,.63,.34,.74,1.7,.64,2.84,2.27,2.84,4.07,0,.25-.04,.49-.07,.71-.03,.15,0,.31,.1,.43,.09,.13,.22,.21,.38,.24l17.38,2.91c-.97,5.04-3.62,9.49-7.35,12.74Z" stroke-width="0"/></svg>