<?xml version="1.0" encoding="UTF-8"?><svg width="70" height="70" xmlns="http://www.w3.org/2000/svg" viewBox="-10 -10 70 70"><rect x="-10" y="-10" width="70" height="70" fill="white"/><g id="uuid-94599003-d7a2-4a28-8010-1de46829e282"><g><path d="M37.91,27.31v-8.6c0-1.07-.87-1.93-1.93-1.93-.96,0-1.75,.69-1.9,1.64-.15,.51-.42,.57-.61,.54-.35-.1-.47-.33-.41-.72V7.52c0-1.07-.87-1.93-1.94-1.93s-1.93,.87-1.93,1.93h0c0,.28-.22,.5-.5,.5s-.5-.22-.5-.5c0-.01,0-.03,0-.04v-2.8c0-1.07-.87-1.93-1.93-1.93s-1.93,.87-1.93,1.93v2.84h-.02c-.03,.24-.23,.44-.49,.44s-.45-.19-.49-.44h0s0-.03,0-.05v-.02h0c-.04-1.04-.88-1.87-1.93-1.87s-1.93,.87-1.93,1.93V15.62s0,.02,0,.02c0,.28-.22,.5-.5,.5s-.48-.21-.5-.48h0v-.93c0-1.07-.87-1.93-1.93-1.93s-1.93,.87-1.93,1.93v13.04c0,.08,0,.17,0,.25,0,4.09,2.12,7.7,5.32,9.78v12.06h12.06v-11.68c3.55-2,5.95-5.8,5.95-10.16,0-.09,0-.18-.01-.26v-.36s.01-.07,.01-.1Z" fill="#ffcd00" stroke-width="0"/><path d="M37.54,17.17c0-1.62-1.32-2.95-2.95-2.95-.74,0-1.43,.27-1.95,.73V5.93c0-1.62-1.32-2.95-2.95-2.95-.75,0-1.43,.28-1.95,.74v-.64c0-1.62-1.32-2.95-2.95-2.95s-2.95,1.32-2.95,2.95v.64c-.52-.46-1.2-.74-1.95-.74-1.62,0-2.95,1.32-2.95,2.95v5.04c-.52-.46-1.2-.74-1.95-.74-1.62,0-2.95,1.32-2.95,2.95v12.63c0,.08,0,.15,.02,.22v.18c-.02,.11-.02,.21-.02,.32,0,4.27,2.12,8.04,5.35,10.35v12.1c0,.28,.22,.5,.5,.5h13.13c.28,0,.5-.22,.5-.5v-11.68c3.58-2.25,5.98-6.23,5.98-10.77,0-.11,0-.22-.01-.33v-.15c0-.08,.01-.16,.01-.24v-8.64Zm-6.98,31.31h-12.13v-10.95c1.88,1.09,4.05,1.73,6.38,1.73,2.07,0,4.02-.51,5.75-1.39v10.61Zm5.98-22.67s0,.07-.01,.1v.36c0,.09,.01,.18,.01,.27,0,6.47-5.26,11.73-11.73,11.73s-11.73-5.26-11.73-11.73c0-.08,0-.17,.01-.25V13.18c-.01-1.07,.86-1.95,1.93-1.95s1.95,.87,1.95,1.95v3.59h0v4.14c0,.28,.22,.5,.5,.5s.5-.22,.5-.5v-5.55h0V5.93c0-1.07,.87-1.95,1.95-1.95s1.95,.87,1.95,1.95h0v14.98c0,.28,.22,.5,.5,.5s.5-.22,.5-.5V5.93h0V3.07c0-1.07,.87-1.95,1.95-1.95s1.95,.87,1.95,1.95V20.91c0,.28,.22,.5,.5,.5s.5-.22,.5-.5V5.93c0-1.07,.87-1.95,1.95-1.95s1.95,.87,1.95,1.95v10.84l.04,.3v6.64c-.84,.12-1.6,.4-2.26,.85-2.79,1.88-2.47,5.7-2.46,5.86,.02,.26,.24,.46,.5,.46,.02,0,.03,0,.05,0,.28-.03,.48-.27,.45-.54,0-.03-.28-3.38,2.02-4.94,.64-.43,1.39-.68,2.23-.73,.26-.02,.47-.23,.47-.5v-7.32c.16-.94,.95-1.62,1.91-1.62,1.07,0,1.95,.87,1.95,1.95v8.64Z" stroke-width="0"/></g></g><g id="uuid-9998b9a6-a52c-4ce5-aee2-e9e672877f0f"></g></svg>