<?xml version="1.0" encoding="UTF-8"?><svg width="70" height="70" xmlns="http://www.w3.org/2000/svg" viewBox="-10 -10 70 70"><rect x="-10" y="-10" width="70" height="70" fill="white"/><g id="uuid-4ed9d23b-80d5-4f9d-8889-3394989a99ea"><path d="M39.06,36.56c0-1.94,1.58-3.51,3.51-3.51,.44,0,.86,.09,1.25,.24v-5H9.67v5.59c.77,.65,1.26,1.6,1.26,2.68s-.5,2.03-1.26,2.68v9.94H43.83v-9.34c-.39,.15-.81,.24-1.25,.24-1.94,0-3.51-1.58-3.51-3.51Z" fill="#ffcd00" stroke-width="0"/><path d="M19.4,16.33c1.56,1.32,3.54,2.05,5.58,2.05s4.02-.73,5.58-2.05c1.95-1.65,3.07-4.06,3.07-6.61,0-4.77-3.88-8.65-8.65-8.65s-8.65,3.88-8.65,8.65c0,2.55,1.12,4.96,3.07,6.61ZM24.98,2.07c4.22,0,7.65,3.43,7.65,7.65,0,2.25-.99,4.38-2.72,5.84-1.38,1.17-3.13,1.81-4.94,1.81s-3.56-.64-4.94-1.81c-1.73-1.46-2.72-3.59-2.72-5.84,0-4.22,3.43-7.65,7.65-7.65Z" stroke-width="0"/><path d="M47.09,36.56c0-2.32-1.76-4.21-4.01-4.46v-6.06c0-.28-.22-.5-.5-.5h-3.21c-1.26-3.28-4.35-5.66-8.06-5.84h-12.65c-3.71,.18-6.81,2.56-8.06,5.84h-3.17c-.28,0-.5,.22-.5,.5v6.06c-2.25,.25-4.01,2.15-4.01,4.46s1.76,4.21,4.01,4.46v6.9c0,.28,.22,.5,.5,.5H42.58c.28,0,.5-.22,.5-.5v-6.9c2.25-.25,4.01-2.15,4.01-4.46Zm-36.15,0c0,1.94-1.58,3.51-3.51,3.51s-3.51-1.58-3.51-3.51,1.58-3.51,3.51-3.51,3.51,1.58,3.51,3.51Zm-3.01,4.46c2.25-.25,4.01-2.15,4.01-4.46s-1.76-4.21-4.01-4.46v-5.56H24.49v20.88H7.92v-6.4Zm10.76-20.32h12.42c.08,.02,.17,.02,.26,0,3.12,.2,5.73,2.14,6.92,4.84H11.68c1.2-2.73,3.86-4.69,7.01-4.84Zm6.82,26.72v-1.38h.01V26.54h16.56v5.56c-2.25,.25-4.01,2.15-4.01,4.46s1.76,4.21,4.01,4.46v6.4H25.5Zm13.56-10.86c0-1.94,1.58-3.51,3.51-3.51s3.51,1.58,3.51,3.51-1.58,3.51-3.51,3.51-3.51-1.58-3.51-3.51Z" stroke-width="0"/></g><g id="uuid-c766a39c-0475-44da-986f-88c86c7f93cb"></g></svg>