<?xml version="1.0" encoding="UTF-8"?><svg width="70" height="70" xmlns="http://www.w3.org/2000/svg" viewBox="-10 -10 70 70"><rect x="-10" y="-10" width="70" height="70" fill="white"/><g id="uuid-83393685-668c-4813-a0a4-a869dccd8331"><g><path d="M37.73,43.23c-.49,.13-1.57,.4-2.78,.25-2.38-.29-4.89-2.16-6.09-4.69-.77-1.22-1.22-2.66-1.22-4.21,0-4.37,3.55-7.92,7.92-7.92,1.12,0,2.19,.24,3.16,.66,1.41,.27,2.71,.87,3.8,1.72-.01-5.77-.03-11.53-.04-17.3-3.37,.02-6.73,.03-10.1,.05v-1h-.5V3.15H8.03V49.35H42.51l.1-9.33c-.65,.79-2.25,2.53-4.88,3.21Z" fill="#ffcd00" stroke-width="0"/><g><path d="M44.47,34.58c0-2.38-.94-4.54-2.46-6.14V11.29s0-.04-.01-.07c0-.02,0-.04-.01-.06-.02-.08-.06-.16-.12-.23L31.72,.8h0c-.06-.06-.14-.1-.22-.12-.02,0-.04,0-.06-.01-.02,0-.04-.01-.07-.01H6.03c-.28,0-.5,.22-.5,.5V48.35c0,.28,.22,.5,.5,.5H41.51c.28,0,.5-.22,.5-.5v-7.63c1.52-1.6,2.46-3.76,2.46-6.14ZM6.53,47.85V1.65H30.87V11.29c0,.28,.22,.5,.5,.5h9.64v15.75c-1.51-1.17-3.4-1.88-5.46-1.88-4.92,0-8.92,4-8.92,8.92s4,8.92,8.92,8.92c2.06,0,3.95-.71,5.46-1.88v6.22H6.53Zm29.03-5.34c-4.37,0-7.92-3.55-7.92-7.92s3.55-7.92,7.92-7.92,7.92,3.55,7.92,7.92-3.55,7.92-7.92,7.92Zm4.75-31.71h-8.44V2.36l8.44,8.44Z" stroke-width="0"/><path d="M39.32,30.17c-.24-.14-.54-.06-.68,.18l-4.29,7.34-1.92-2.36c-.18-.21-.49-.24-.7-.07-.21,.17-.25,.49-.07,.7l2.38,2.91c.1,.12,.24,.18,.39,.18,.01,0,.03,0,.04,0,.16-.01,.31-.1,.39-.25l4.65-7.96c.14-.24,.06-.54-.18-.68Z" stroke-width="0"/><path d="M11.77,17.54h23.78c.28,0,.5-.22,.5-.5s-.22-.5-.5-.5H11.77c-.28,0-.5,.22-.5,.5s.22,.5,.5,.5Z" stroke-width="0"/><path d="M11.77,25.25H28.12c.28,0,.5-.22,.5-.5s-.22-.5-.5-.5H11.77c-.28,0-.5,.22-.5,.5s.22,.5,.5,.5Z" stroke-width="0"/><path d="M11.77,32.96h11.05c.28,0,.5-.22,.5-.5s-.22-.5-.5-.5H11.77c-.28,0-.5,.22-.5,.5s.22,.5,.5,.5Z" stroke-width="0"/><path d="M23.66,39.66H11.77c-.28,0-.5,.22-.5,.5s.22,.5,.5,.5h11.89c.28,0,.5-.22,.5-.5s-.22-.5-.5-.5Z" stroke-width="0"/><path d="M11.77,9.84h14.13c.28,0,.5-.22,.5-.5s-.22-.5-.5-.5H11.77c-.28,0-.5,.22-.5,.5s.22,.5,.5,.5Z" stroke-width="0"/></g><path d="M32.42,35.33c-.18-.21-.49-.24-.7-.07-.21,.17-.25,.49-.07,.7l2.38,2.91c.1,.12,.24,.18,.39,.18,.01,0,.03,0,.04,0,.16-.01,.31-.1,.39-.25l4.65-7.96c.14-.24,.06-.54-.18-.68-.24-.14-.54-.06-.68,.18l-4.29,7.34-1.92-2.36Z" fill="none" stroke-width="0"/></g></g><g id="uuid-2bce5162-00a9-4c80-aba5-c351fdd3fafc"></g></svg>