<?xml version="1.0" encoding="UTF-8"?><svg width="70" height="70" xmlns="http://www.w3.org/2000/svg" viewBox="-10 -10 70 70"><rect x="-10" y="-10" width="70" height="70" fill="white"/><g id="uuid-1af3d165-0080-418d-8673-0b9d62e2cc8b"><path d="M31.2,15.52c-.12-.57-.74-2.36-.36-5.14-1.61-.46-3.31-.72-5.09-.72-9.25,0-16.77,6.66-16.77,14.85v17.59h-4.64v3.73h42.71v-3.73h-4.53v-17.59c0-.92-.11-1.81-.29-2.69l-.71-1.55s-2.45.66-2.59.66-2.59-.35-2.59-.35l-2.41-1.01-1.68-1.51-1.06-2.54Z" fill="#ffcd00" stroke-width="0"/></g><g id="uuid-f7848288-5d7e-4442-a136-9412ad8a5d54"><polygon points="37.98 9.9 35.45 10.69 35.45 8.97 39.87 7.38 40.09 7.38 40.09 15.55 40.09 17.54 40.09 18.06 37.98 18.06 37.98 14.42 37.98 12.96 37.98 9.9"/><path d="M14.46,8.31c-2.71,1.5-5.01,3.6-6.65,6.06-.1.14-.25.22-.42.22-.09,0-.19-.03-.27-.08-.23-.16-.29-.47-.14-.7,1.72-2.59,4.14-4.79,6.99-6.37.25-.13.55-.05.68.19.14.24.05.55-.19.68Z" stroke-width="0"/><path d="M.9,12.25C3.41,7.68,7.51,3.85,12.43,1.47c.25-.12.55-.02.67.23s.01.55-.23.67C8.13,4.66,4.19,8.34,1.77,12.74c-.09.16-.26.26-.44.26-.08,0-.16-.02-.24-.07-.24-.13-.33-.43-.19-.68Z" stroke-width="0"/><path d="M13.66,5.32c-3.76,1.93-6.84,4.77-8.9,8.22-.09.16-.26.24-.43.24-.08,0-.17-.02-.25-.07-.24-.14-.32-.45-.17-.68,2.15-3.61,5.36-6.58,9.29-8.6.24-.13.55-.03.67.22.13.24.03.54-.21.67Z" stroke-width="0"/><path d="M38.53,5.24c-2.8,0-5.24,1.54-6.53,3.81-.17.29-.31.59-.44.9-.35.87-.54,1.81-.54,2.81,0,4.14,3.37,7.51,7.51,7.51.86,0,1.68-.15,2.45-.42.32-.11.63-.24.93-.39,2.45-1.24,4.14-3.78,4.14-6.7,0-4.15-3.38-7.52-7.52-7.52ZM24.44,48.35c1.4,0,2.54-1.13,2.57-2.52h-5.14c.03,1.39,1.17,2.52,2.57,2.52ZM27.26,4.88c0-1.42-1.15-2.58-2.57-2.58s-2.58,1.16-2.58,2.58,1.16,2.57,2.58,2.57,2.57-1.15,2.57-2.57ZM6.98,23.51c0-8.1,6.85-14.78,15.64-15.73-.91-.64-1.51-1.7-1.51-2.9,0-1.98,1.61-3.58,3.58-3.58s3.57,1.6,3.57,3.58c0,1.19-.59,2.24-1.49,2.89,1.49.15,2.92.47,4.27.93,1.45-2.65,4.26-4.46,7.49-4.46,4.7,0,8.52,3.82,8.52,8.52,0,3.39-2,6.31-4.87,7.68.22.99.34,2.02.34,3.07v16.59h4.03c.27,0,.5.22.5.5v4.73c0,.28-.23.5-.5.5h-18.54c-.03,1.94-1.62,3.52-3.57,3.52s-3.54-1.58-3.57-3.52H2.84c-.28,0-.5-.22-.5-.5v-4.73c0-.28.22-.5.5-.5h4.14v-16.59ZM42.02,41.1H3.34v3.73h42.71v-3.73h-4.03ZM24.75,8.66c-9.25,0-16.77,6.66-16.77,14.85v16.59h33.54v-16.59c0-.92-.11-1.81-.29-2.69-.85.29-1.76.45-2.7.45-4.7,0-8.51-3.82-8.51-8.51,0-1.11.21-2.17.6-3.14-1.83-.61-3.8-.96-5.87-.96Z" stroke-width="0"/></g></svg>