<?xml version="1.0" encoding="UTF-8"?><svg width="70" height="70" id="uuid-2c5b52c9-755a-41b5-b826-18a3e11524dc" xmlns="http://www.w3.org/2000/svg" viewBox="-10 -10 70 70"><rect x="-10" y="-10" width="70" height="70" fill="white"/><path d="M43.56,31.79l-5.53,5.53-.71,.71-5.53,5.53c-.79-3.3,.17-6.75,2.59-9.18,1.87-1.86,4.35-2.86,6.9-2.86,.75,0,1.52,.09,2.28,.27Z" fill="#ffcd00" stroke-width="0"/><polygon points="29.63 21.93 28.92 21.22 23.08 15.39 15.39 23.08 21.22 28.92 21.93 29.63 27.76 35.46 35.46 27.76 29.63 21.93" fill="#ffcd00"/><rect x="29.63" y="7.88" width="17.67" height="9.01" transform="translate(2.52 30.84) rotate(-45.02)" fill="#ffcd00"/><rect x="3.56" y="33.95" width="17.66" height="9.01" transform="translate(-23.56 20.02) rotate(-45)" fill="#ffcd00"/><path d="M49,39.81c.28,0,.5,.22,.5,.5,0,2.45-.96,4.76-2.69,6.5-1.74,1.73-4.05,2.69-6.5,2.69-.28,0-.5-.22-.5-.5s.22-.5,.5-.5c2.19,0,4.24-.85,5.79-2.4s2.4-3.6,2.4-5.79c0-.28,.22-.5,.5-.5Z" stroke-width="0"/><path d="M36.78,37.49l-6.14,6.13c-.09,.09-.22,.14-.35,.14-.04,0-.08,0-.12-.01-.17-.04-.3-.17-.36-.33-1.22-3.73-.33-7.75,2.29-10.61l-1.38-1.39-3.85,3.85c-.1,.1-.23,.15-.36,.15s-.25-.05-.35-.15l-6.19-6.19-1.52,1.53,3.18,3.18c.2,.2,.2,.51,0,.71l-13.2,13.2c-.1,.09-.22,.15-.35,.15-.14,0-.26-.06-.36-.15L.65,40.63c-.1-.1-.15-.23-.15-.36s.05-.26,.15-.35l13.2-13.2c.09-.1,.22-.15,.35-.15s.26,.05,.36,.15l3.18,3.18,1.52-1.52-6.18-6.19c-.2-.2-.2-.51,0-.71l1.19-1.19-2.38-2.38c-.19-.2-.19-.52,0-.71l5.31-5.31c.19-.19,.51-.19,.71,0l2.38,2.38,1.19-1.19c.2-.2,.51-.2,.71,0l6.19,6.18,1.52-1.52-3.18-3.18c-.1-.1-.15-.23-.15-.36s.05-.26,.15-.35L39.92,.65c.19-.19,.52-.19,.71,0l7.07,7.07c.2,.2,.2,.51,0,.71l-13.2,13.2c-.09,.09-.22,.15-.35,.15-.14,0-.26-.06-.36-.15l-3.18-3.18-1.53,1.52,6.19,6.19c.1,.09,.15,.22,.15,.35,0,.14-.05,.26-.15,.36l-3.85,3.85,1.39,1.38c2.87-2.62,6.88-3.51,10.61-2.29,.16,.06,.29,.19,.33,.36s-.01,.35-.13,.47l-6.14,6.14,1.93,1.93c.7-.39,1.6-.3,2.19,.3,.3,.29,.47,.68,.52,1.09v.05c0,.05,.02,.1,.02,.15,0,.11-.03,.22-.05,.32,0,.05,0,.1-.02,.14-.05,.19-.12,.38-.23,.54t0,.02c-.06,.1-.14,.19-.23,.28-.36,.36-.83,.54-1.3,.54s-.94-.18-1.29-.54c-.6-.59-.69-1.49-.3-2.19l-1.93-1.92Zm-2.63-16.92l12.49-12.5-6.37-6.36-12.49,12.49,6.37,6.37Zm2.63,15.5l5.53-5.53c-.76-.18-1.53-.27-2.28-.27-2.55,0-5.03,1-6.9,2.86-2.42,2.43-3.38,5.88-2.59,9.18l5.53-5.53,.71-.71Zm4.11,4.82c.32-.32,.32-.84,0-1.16-.06-.06-.13-.1-.2-.14-.03-.01-.05-.04-.08-.05-.06-.02-.12-.02-.19-.03-.05-.01-.1-.02-.16-.02-.02,.01-.03,.01-.05,.01-.18,.03-.35,.09-.48,.23-.14,.13-.2,.3-.23,.48-.02,.24,.04,.5,.23,.68,.24,.25,.59,.3,.89,.18,.1-.04,.19-.1,.27-.18Zm-14.38-6.68l7.7-7.7-5.83-5.83-.71-.71-5.84-5.83-1.19,1.19-5.31,5.31-1.19,1.19,5.83,5.84,.71,.71,5.83,5.83Zm-18.43,12.43l12.49-12.49-6.37-6.37L1.71,40.27l6.37,6.37Zm6.9-27.06l4.6-4.6-2.03-2.03-4.6,4.6,2.03,2.03Z" stroke-width="0"/><path d="M46.59,39.81c.27,0,.5,.22,.5,.5,0,1.81-.71,3.51-1.99,4.79s-2.98,1.99-4.79,1.99c-.28,0-.5-.23-.5-.5s.22-.5,.5-.5c1.54,0,2.99-.6,4.08-1.7,1.1-1.09,1.7-2.54,1.7-4.08,0-.28,.22-.5,.5-.5Z" stroke-width="0"/><path d="M44.17,39.81c.28,0,.5,.22,.5,.5,0,1.17-.45,2.26-1.28,3.08-.82,.83-1.91,1.28-3.08,1.28-.28,0-.5-.22-.5-.5s.22-.5,.5-.5c.9,0,1.74-.35,2.38-.98,.63-.64,.98-1.48,.98-2.38,0-.28,.23-.5,.5-.5Z" stroke-width="0"/></svg>