<?xml version="1.0" encoding="utf-8"?> <!-- Generator: Adobe Illustrator 27.7.0, SVG Export Plug-In . SVG Version: 6.00 Build 0) --> <svg width="70" height="70" version="1.1" xmlns="http://www.w3.org/2000/svg" xmlns:xlink="http://www.w3.org/1999/xlink" x="0px" y="0px" viewBox="-10 -10 70 70" style="enable-background:new 0 0 50 50;" xml:space="preserve"><rect x="-10" y="-10" width="70" height="70" fill="white"/> <style type="text/css"> .st0{fill:#FFCD00;} .st1{display:none;} .st2{display:inline;fill:none;stroke:#EA008A;stroke-width:0.2;stroke-miterlimit:10;} .st3{font-family:'Roboto-Regular';} .st4{font-size:6px;} </style> <g id="Color"> <path class="st0" d="M3.7197,14.8369c0-0.9648,0.7842-1.749,1.749-1.749h10.7531c0.0051,0.0002,0.0093,0.0029,0.0145,0.0029 s0.0094-0.0027,0.0145-0.0029h9.9503c0.9648,0,1.749,0.7842,1.749,1.749v11.1543c0,0.9648-0.7842,1.749-1.749,1.749H5.4688 c-0.9648,0-1.749-0.7842-1.749-1.749V14.8369z" stroke-width="0"/> <polygon class="st0" points="39.1162,30.5986 38.5361,29.7109 48.7559,23.8467 49.2002,28.6396 "/> <path class="st0" d="M37.082,40.5117c0-2.7354,2.2246-4.96,4.96-4.96c0.6374,0,1.2423,0.1311,1.8026,0.351l0.3436-5.2704 l-1.0253,0.1992l-3.6111,4.5714c-4.2805-3.2712-7.5787-4.5851-12.3145-3.5767c-1.9307,0.4102-3.2959,1.2012-5.0244,2.2021 c-1.6155,0.9363-3.4384,1.9853-6.1873,3.0229c1.6036,1.0693,2.6629,2.893,2.6629,4.9604c0,0.6723-0.1171,1.3165-0.3231,1.9199 h19.5398c-0.1278-0.3742-0.2065-0.7685-0.2591-1.1711C37.2975,42.0823,37.082,41.3253,37.082,40.5117z" stroke-width="0"/> <path class="st0" d="M6.4229,41.6849c-0.0925-0.378-0.1553-0.7671-0.1553-1.1732c0-0.0862,0.0211-0.1666,0.0255-0.2517 c-1.5987,1.0859-2.7623,2.4704-3.0001,3.6716h3.4227c-0.2061-0.6034-0.3231-1.2476-0.3231-1.9199 C6.3926,41.9,6.4165,41.795,6.4229,41.6849z" stroke-width="0"/> </g> <g id="ICONS_00000031165542127692736420000002692518830807990202_"> <g> <g> <g> <circle cx="20.6354" cy="16.1112" r="0.911"/> <circle cx="18.0781" cy="18.6685" r="0.911"/> <circle cx="20.6354" cy="21.2258" r="0.911"/> <circle cx="23.1927" cy="18.6685" r="0.911"/> <g> <path d="M11.2275,37.4004c-1.7158,0-3.1113,1.3955-3.1113,3.1113s1.3955,3.1123,3.1113,3.1123s3.1123-1.3965,3.1123-3.1123 S12.9434,37.4004,11.2275,37.4004z M11.2275,42.624c-1.1641,0-2.1113-0.9473-2.1113-2.1123 c0-1.1641,0.9473-2.1113,2.1113-2.1113c1.165,0,2.1123,0.9473,2.1123,2.1113C13.3398,41.6768,12.3926,42.624,11.2275,42.624z" stroke-width="0" /> <path d="M48.1797,21.4795c-0.0156-0.1699-0.1172-0.3193-0.2676-0.3975c-0.1514-0.0791-0.3311-0.0742-0.4795,0.0098 l-11.3545,6.5156c-0.1191,0.0684-0.2051,0.1836-0.2373,0.3174s-0.0078,0.2744,0.0684,0.3896l1.0547,1.6123 c0.0928,0.1436,0.251,0.2266,0.418,0.2266c0.0312,0,0.0635-0.0029,0.0957-0.0088l2.6801-0.5206l-2.2802,2.8867 c-1.8026-1.317-3.6106-2.3665-5.5912-2.9613v-4.5705c0.9241-0.226,1.6143-1.0552,1.6143-2.0481 c0-1.166-0.9482-2.1143-2.1143-2.1143s-2.1143,0.9482-2.1143,2.1143c0,0.9929,0.6901,1.8221,1.6143,2.0481v4.3135 c-1.7372-0.3722-3.6188-0.3986-5.7578,0.0554c-2.085,0.4434-3.583,1.3115-5.3164,2.3154 c-1.7344,1.0049-3.7002,2.1436-6.8359,3.2471c-0.0192,0.0068-0.0325,0.0212-0.0504,0.03 c-0.6537-0.2469-1.3589-0.3884-2.0981-0.3884c-1.9009,0-3.5928,0.8979-4.6849,2.2883 c-2.7362,1.2075-5.4732,3.6888-5.4196,6.1024c0.0059,0.2725,0.2285,0.4893,0.5,0.4893h4.4141 c1.0235,1.8126,2.9649,3.041,5.1904,3.041c2.2261,0,4.1678-1.2284,5.1913-3.041h20.4327 c1.0235,1.8126,2.9649,3.041,5.1904,3.041c3.2861,0,5.96-2.6738,5.96-5.9609c0-2.8444-2.0046-5.2264-4.6742-5.8164 l0.3755-5.7602l4.6327-0.9c0.252-0.0498,0.4258-0.2812,0.4023-0.5371L48.1797,21.4795z M30.6719,22.9307 c0-0.6143,0.5-1.1143,1.1143-1.1143s1.1143,0.5,1.1143,1.1143s-0.5,1.1143-1.1143,1.1143S30.6719,23.5449,30.6719,22.9307z M2.168,42.4316c0.261-1.3186,1.6316-2.8624,3.476-3.9845c-0.2391,0.6444-0.3763,1.338-0.3763,2.0646 c0,0.6723,0.1171,1.3165,0.3231,1.9199H2.168z M11.2275,45.4727c-2.7354,0-4.96-2.2256-4.96-4.9609s2.2246-4.96,4.96-4.96 s4.9609,2.2246,4.9609,4.96S13.9629,45.4727,11.2275,45.4727z M16.8654,42.4316c0.2061-0.6034,0.3231-1.2476,0.3231-1.9199 c0-2.0674-1.0593-3.8911-2.6629-4.9604c2.749-1.0377,4.5718-2.0866,6.1873-3.0229c1.7285-1.001,3.0938-1.792,5.0244-2.2021 c5.2788-1.1241,8.7672,0.6292,13.8262,4.7724c-2.0509,0.9431-3.4814,3.012-3.4814,5.4131c0,0.6723,0.1171,1.3165,0.3231,1.9199 H16.8654z M47.002,40.5117c0,2.7354-2.2246,4.9609-4.96,4.9609s-4.96-2.2256-4.96-4.9609s2.2246-4.96,4.96-4.96 S47.002,37.7764,47.002,40.5117z M42.3339,34.5665c-0.0974-0.0048-0.1934-0.0148-0.2919-0.0148 c-0.4716,0-0.9283,0.0609-1.3685,0.1649c-0.6738-0.5612-1.3367-1.0982-1.9959-1.606l2.9853-3.7792l1.0253-0.1992 L42.3339,34.5665z M37.6162,29.0986l-0.5801-0.8877l10.2197-5.8643l0.4443,4.793L37.6162,29.0986z" stroke-width="0"/> <path d="M38.9307,40.5117c0,1.7158,1.3955,3.1123,3.1113,3.1123s3.1113-1.3965,3.1113-3.1123s-1.3955-3.1113-3.1113-3.1113 S38.9307,38.7959,38.9307,40.5117z M44.1533,40.5117c0,1.165-0.9473,2.1123-2.1113,2.1123s-2.1113-0.9473-2.1113-2.1123 c0-1.1641,0.9473-2.1113,2.1113-2.1113S44.1533,39.3477,44.1533,40.5117z" stroke-width="0"/> <path d="M3.9688,27.2402h20.7324c1.5156,0,2.749-1.2334,2.749-2.749V13.3369c0-1.5156-1.2334-2.749-2.749-2.749h-9.4648V5.7131 c0.9241-0.226,1.6143-1.0552,1.6143-2.0481c0-1.165-0.9482-2.1133-2.1143-2.1133S12.6221,2.5,12.6221,3.665 c0,0.9929,0.6901,1.8221,1.6143,2.0481v4.8748H3.9688c-1.5156,0-2.749,1.2334-2.749,2.749v11.1543 C1.2197,26.0068,2.4531,27.2402,3.9688,27.2402z M13.6221,3.665c0-0.6143,0.5-1.1133,1.1143-1.1133s1.1143,0.499,1.1143,1.1133 s-0.5,1.1143-1.1143,1.1143S13.6221,4.2793,13.6221,3.665z M2.2197,13.3369c0-0.9648,0.7842-1.749,1.749-1.749h10.7531 c0.0051,0.0002,0.0093,0.0029,0.0145,0.0029s0.0094-0.0027,0.0145-0.0029h9.9503c0.9648,0,1.749,0.7842,1.749,1.749v11.1543 c0,0.9648-0.7842,1.749-1.749,1.749H3.9688c-0.9648,0-1.749-0.7842-1.749-1.749V13.3369z" stroke-width="0"/> <path d="M9.5967,24.0391c2.8262,0,5.125-2.2988,5.125-5.125s-2.2988-5.125-5.125-5.125s-5.126,2.2988-5.126,5.125 S6.7705,24.0391,9.5967,24.0391z M5.5213,19.4141h1.842c0.1931,0.862,0.8713,1.5402,1.7333,1.7333v1.8411 C7.225,22.7588,5.751,21.2851,5.5213,19.4141z M9.5967,17.6221c0.7129,0,1.292,0.5791,1.292,1.292s-0.5791,1.292-1.292,1.292 s-1.292-0.5791-1.292-1.292S8.8838,17.6221,9.5967,17.6221z M10.0967,22.9885v-1.8411 c0.862-0.1931,1.5402-0.8713,1.7333-1.7333h1.8411C13.4413,21.285,11.9677,22.7587,10.0967,22.9885z M13.6711,18.4141H11.83 c-0.1931-0.862-0.8713-1.5402-1.7333-1.7333v-1.8411C11.9677,15.0694,13.4413,16.5431,13.6711,18.4141z M9.0967,14.8396v1.8411 c-0.862,0.1931-1.5402,0.8713-1.7333,1.7333h-1.842C5.751,16.543,7.225,15.0693,9.0967,14.8396z" stroke-width="0"/> </g> </g> </g> </g> </g> <g id="Margin" class="st1"> <rect x="1" y="1" class="st2" /> </g> <g id="Guides" class="st1"> </g> <g id="LABELS"> <g> <g> <g> <g> <g> <g> </g> </g> </g> </g> </g> </g> </g> </svg> 