<?xml version="1.0" encoding="UTF-8"?><svg width="70" height="70" id="uuid-34879d18-bd29-418d-bb85-d6b441434b7b" xmlns="http://www.w3.org/2000/svg" viewBox="-10 -10 70 70"><rect x="-10" y="-10" width="70" height="70" fill="white"/><path d="M34.96,22.16l-12.35,17.39,3.99-13.92c.04-.15,.01-.32-.08-.44-.1-.13-.25-.2-.4-.2h-8.29l7.11-11.36h6.32l-4.94,7.76c-.09,.15-.1,.35-.01,.51,.08,.16,.25,.26,.44,.26h8.21Z" fill="#ffcd00" stroke-width="0"/><path d="M49.54,15.12c.25,.12,.35,.43,.22,.67l-2.75,5.34c-.07,.12-.18,.21-.31,.25-.05,.01-.09,.02-.14,.02-.09,0-.18-.03-.26-.07l-5.12-3.14c-.24-.14-.31-.45-.17-.69,.15-.23,.46-.31,.69-.16l4.12,2.52C43.46,10.25,34.91,3.54,25,3.54S5.84,10.88,3.93,20.99c-.04,.24-.25,.41-.49,.41-.03,0-.06,0-.09-.01-.27-.05-.45-.31-.4-.58C4.95,10.22,14.22,2.54,25,2.54s19.21,6.95,21.74,16.92l2.13-4.13c.13-.24,.43-.34,.67-.21Z" stroke-width="0"/><path d="M46.65,28.61c.27,.05,.45,.31,.4,.58-2,10.59-11.27,18.27-22.05,18.27S5.79,40.51,3.26,30.54l-2.13,4.13c-.09,.17-.26,.27-.45,.27-.07,0-.15-.02-.22-.06-.25-.13-.35-.43-.22-.67l2.75-5.34c.07-.12,.18-.21,.31-.25,.14-.04,.28-.02,.4,.05l5.12,3.14c.24,.14,.31,.45,.17,.69-.15,.23-.46,.3-.69,.16l-4.12-2.52c2.37,9.61,10.91,16.32,20.82,16.32s19.16-7.34,21.07-17.45c.05-.27,.32-.45,.58-.4Z" stroke-width="0"/><path d="M35.12,20.35c.09,.17,.07,.37-.04,.52l-14.6,20.56c-.1,.14-.25,.21-.41,.21-.07,0-.15-.01-.22-.05-.22-.1-.33-.35-.26-.59l4.61-16.09H15.68c-.19,0-.35-.1-.44-.26s-.08-.35,.01-.51l7.74-12.35c.09-.15,.25-.24,.42-.24h7.51c.18,0,.35,.1,.44,.26s.08,.36-.02,.51l-4.93,7.76h8.27c.18,0,.35,.1,.44,.27Zm-13.76,18.12l12.35-17.39h-8.21c-.19,0-.36-.1-.44-.26-.09-.16-.08-.36,.01-.51l4.94-7.76h-6.32l-7.11,11.36h8.29c.15,0,.3,.07,.4,.2,.09,.12,.12,.29,.08,.44l-3.99,13.92Z" stroke-width="0"/></svg>