<?xml version="1.0" encoding="UTF-8"?><svg width="70" height="70" xmlns="http://www.w3.org/2000/svg" viewBox="-10 -10 70 70"><rect x="-10" y="-10" width="70" height="70" fill="white"/><g id="uuid-4c69bb88-1b50-4b93-8bdb-451b453eee2f"><g><path d="M22.65,3V12H3.12V49.5H49.37V3H22.65Zm-6.23,39.14c0,.71-.58,1.29-1.29,1.29H6.65c-.71,0-1.29-.58-1.29-1.29v-.34c0-.71,.58-1.29,1.29-1.29H15.12c.71,0,1.29,.58,1.29,1.29v.34Zm0-8.48c0,.71-.58,1.29-1.29,1.29H6.65c-.71,0-1.29-.58-1.29-1.29v-.34c0-.71,.58-1.29,1.29-1.29H15.12c.71,0,1.29,.58,1.29,1.29v.34Zm0-8.48c0,.71-.58,1.29-1.29,1.29H6.65c-.71,0-1.29-.58-1.29-1.29v-.34c0-.71,.58-1.29,1.29-1.29H15.12c.71,0,1.29,.58,1.29,1.29v.34Zm0-8.48c0,.71-.58,1.29-1.29,1.29H6.65c-.71,0-1.29-.58-1.29-1.29v-.34c0-.71,.58-1.29,1.29-1.29H15.12c.71,0,1.29,.58,1.29,1.29v.34Zm15.36,24.57h-6.29v-6.29h6.29v6.29Zm0-13.38h-6.29v-6.29h6.29v6.29Zm0-13.38h-6.29v-6.29h6.29v6.29Zm11.76,26.75h-6.29v-6.29h6.29v6.29Zm0-13.38h-6.29v-6.29h6.29v6.29Zm0-13.38h-6.29v-6.29h6.29v6.29Z" fill="#ffcd00" stroke-width="0"/><path d="M48.38,.5H20.65c-.28,0-.5,.22-.5,.5V9.5H1.13c-.28,0-.5,.22-.5,.5V48.5c0,.28,.22,.5,.5,.5H48.38c.28,0,.5-.22,.5-.5V1c0-.28-.22-.5-.5-.5ZM20.15,48H1.63V10.5H20.15V48Zm27.73,0H21.15V1.5h26.73V48Z" stroke-width="0"/><path d="M44.04,7.23h-7.29c-.28,0-.5,.22-.5,.5v7.29c0,.28,.22,.5,.5,.5h7.29c.28,0,.5-.22,.5-.5V7.73c0-.28-.22-.5-.5-.5Zm-.5,7.29h-6.29v-6.29h6.29v6.29Z" stroke-width="0"/><path d="M44.04,20.61h-7.29c-.28,0-.5,.22-.5,.5v7.29c0,.28,.22,.5,.5,.5h7.29c.28,0,.5-.22,.5-.5v-7.29c0-.28-.22-.5-.5-.5Zm-.5,7.29h-6.29v-6.29h6.29v6.29Z" stroke-width="0"/><path d="M44.04,33.98h-7.29c-.28,0-.5,.22-.5,.5v7.29c0,.28,.22,.5,.5,.5h7.29c.28,0,.5-.22,.5-.5v-7.29c0-.28-.22-.5-.5-.5Zm-.5,7.29h-6.29v-6.29h6.29v6.29Z" stroke-width="0"/><path d="M32.27,7.23h-7.29c-.28,0-.5,.22-.5,.5v7.29c0,.28,.22,.5,.5,.5h7.29c.28,0,.5-.22,.5-.5V7.73c0-.28-.22-.5-.5-.5Zm-.5,7.29h-6.29v-6.29h6.29v6.29Z" stroke-width="0"/><path d="M32.27,20.61h-7.29c-.28,0-.5,.22-.5,.5v7.29c0,.28,.22,.5,.5,.5h7.29c.28,0,.5-.22,.5-.5v-7.29c0-.28-.22-.5-.5-.5Zm-.5,7.29h-6.29v-6.29h6.29v6.29Z" stroke-width="0"/><path d="M32.27,33.98h-7.29c-.28,0-.5,.22-.5,.5v7.29c0,.28,.22,.5,.5,.5h7.29c.28,0,.5-.22,.5-.5v-7.29c0-.28-.22-.5-.5-.5Zm-.5,7.29h-6.29v-6.29h6.29v6.29Z" stroke-width="0"/><path d="M15.12,31.03H6.65c-1.26,0-2.29,1.03-2.29,2.29v.34c0,1.26,1.03,2.29,2.29,2.29H15.12c1.26,0,2.29-1.03,2.29-2.29v-.34c0-1.26-1.03-2.29-2.29-2.29Zm1.29,2.63c0,.71-.58,1.29-1.29,1.29H6.65c-.71,0-1.29-.58-1.29-1.29v-.34c0-.71,.58-1.29,1.29-1.29H15.12c.71,0,1.29,.58,1.29,1.29v.34Z" stroke-width="0"/><path d="M15.12,14.07H6.65c-1.26,0-2.29,1.03-2.29,2.29v.34c0,1.26,1.03,2.29,2.29,2.29H15.12c1.26,0,2.29-1.03,2.29-2.29v-.34c0-1.26-1.03-2.29-2.29-2.29Zm1.29,2.63c0,.71-.58,1.29-1.29,1.29H6.65c-.71,0-1.29-.58-1.29-1.29v-.34c0-.71,.58-1.29,1.29-1.29H15.12c.71,0,1.29,.58,1.29,1.29v.34Z" stroke-width="0"/><path d="M15.12,22.55H6.65c-1.26,0-2.29,1.03-2.29,2.29v.34c0,1.26,1.03,2.29,2.29,2.29H15.12c1.26,0,2.29-1.03,2.29-2.29v-.34c0-1.26-1.03-2.29-2.29-2.29Zm1.29,2.64c0,.71-.58,1.29-1.29,1.29H6.65c-.71,0-1.29-.58-1.29-1.29v-.34c0-.71,.58-1.29,1.29-1.29H15.12c.71,0,1.29,.58,1.29,1.29v.34Z" stroke-width="0"/><path d="M15.12,39.51H6.65c-1.26,0-2.29,1.03-2.29,2.29v.34c0,1.26,1.03,2.29,2.29,2.29H15.12c1.26,0,2.29-1.03,2.29-2.29v-.34c0-1.26-1.03-2.29-2.29-2.29Zm1.29,2.63c0,.71-.58,1.29-1.29,1.29H6.65c-.71,0-1.29-.58-1.29-1.29v-.34c0-.71,.58-1.29,1.29-1.29H15.12c.71,0,1.29,.58,1.29,1.29v.34Z" stroke-width="0"/></g></g><g id="uuid-b9560bab-a41a-4e32-8293-71cdb166b856"></g></svg>