<?xml version="1.0" encoding="UTF-8"?><svg width="70" height="70" xmlns="http://www.w3.org/2000/svg" viewBox="-10 -10 70 70"><rect x="-10" y="-10" width="70" height="70" fill="white"/><g id="uuid-ab991ae9-622e-450c-aff1-334aa945e0b1"><g><path d="M43.6,11.65l-10.08,.02s0-.28-.18-.43c-.19-.17-.5-.18-.75,0l-.34-.27,.14-7.69H9.13V49.47H43.62l-.02-37.83ZM17.94,7.28c1.43,0,2.58,1.16,2.58,2.58,0,.76-.33,1.48-.92,1.97-.93,.79-2.4,.79-3.33,0-.58-.49-.92-1.21-.92-1.97,0-1.43,1.16-2.58,2.58-2.58Zm4.08,14.9H13.86v-5.14c0-1.19,.93-2.16,2.09-2.22h3.97c1.18,.06,2.1,1.04,2.1,2.22v5.14Z" fill="#ffcd00" stroke-width="0"/><path d="M42.85,11.11s0-.04-.01-.06c-.02-.08-.06-.16-.12-.22h0L32.58,.67h0c-.06-.06-.14-.1-.22-.12-.02,0-.04-.01-.07-.01-.02,0-.04-.01-.06-.01H6.88c-.28,0-.5,.22-.5,.5V48.22c0,.28,.22,.5,.5,.5H42.37c.28,0,.5-.22,.5-.5V11.17s-.01-.04-.01-.06ZM7.38,47.72V1.53H31.72V11.17c0,.28,.22,.5,.5,.5h9.64V47.72H7.38ZM32.72,10.67V2.23l8.44,8.44h-8.44Z" stroke-width="0"/><path d="M22.52,23.19c.28,0,.5-.22,.5-.5v-5.64c0-1.72-1.35-3.13-3.07-3.22h-4.03c-1.72,.09-3.07,1.5-3.07,3.22v5.64c0,.28,.22,.5,.5,.5h9.16Zm-8.66-6.14c0-1.19,.93-2.16,2.09-2.22h3.97c1.18,.06,2.1,1.04,2.1,2.22v5.14H13.86v-5.14Z" stroke-width="0"/><path d="M17.94,13.45c.85,0,1.67-.3,2.31-.85,.81-.68,1.27-1.68,1.27-2.74,0-1.98-1.61-3.58-3.58-3.58s-3.58,1.61-3.58,3.58c0,1.06,.46,2.05,1.27,2.74,.65,.55,1.47,.85,2.31,.85Zm0-6.17c1.43,0,2.58,1.16,2.58,2.58,0,.76-.33,1.48-.92,1.97-.93,.79-2.4,.79-3.33,0-.58-.49-.92-1.21-.92-1.97,0-1.43,1.16-2.58,2.58-2.58Z" stroke-width="0"/><path d="M35.89,27.43H13.53c-.28,0-.5,.22-.5,.5s.22,.5,.5,.5h22.35c.28,0,.5-.22,.5-.5s-.22-.5-.5-.5Z" stroke-width="0"/><path d="M35.89,41.97H13.53c-.28,0-.5,.22-.5,.5s.22,.5,.5,.5h22.35c.28,0,.5-.22,.5-.5s-.22-.5-.5-.5Z" stroke-width="0"/><path d="M35.89,34.7H13.53c-.28,0-.5,.22-.5,.5s.22,.5,.5,.5h22.35c.28,0,.5-.22,.5-.5s-.22-.5-.5-.5Z" stroke-width="0"/><path d="M35.89,20.16h-9.75c-.28,0-.5,.22-.5,.5s.22,.5,.5,.5h9.75c.28,0,.5-.22,.5-.5s-.22-.5-.5-.5Z" stroke-width="0"/></g></g><g id="uuid-b6080a5b-e888-4dc7-a7c1-21cc8561fb49"></g></svg>