<?xml version="1.0" encoding="UTF-8"?><svg width="70" height="70" id="uuid-70fb96ff-87d1-447b-98eb-8ddbc6bac1b3" xmlns="http://www.w3.org/2000/svg" viewBox="-10 -10 70 70"><rect x="-10" y="-10" width="70" height="70" fill="white"/><path d="M38.31,16.32v19.86l-11.45-6.86c-.08-.05-.17-.07-.26-.07-.08,0-.17,.02-.25,.06-.15,.09-.25,.26-.25,.44v6.43L9.53,26.25l16.57-9.93v6.43c0,.18,.1,.35,.25,.44,.16,.09,.35,.08,.51-.01l11.45-6.86Z" fill="#ffcd00" stroke-width="0"/><g><path d="M37.8,13.76c-.15-.09-.34-.09-.5,0l-11.45,6.86v-6.43c0-.18-.1-.34-.25-.43-.16-.09-.35-.09-.51,0L7.05,24.57c-.15,.09-.24,.25-.24,.43s.09,.34,.24,.43l18.04,10.81c.08,.05,.17,.07,.26,.07s.17-.02,.25-.07c.15-.08,.25-.25,.25-.43v-6.43l11.45,6.86c.16,.09,.35,.09,.5,0,.16-.08,.26-.25,.26-.43V14.19c0-.18-.1-.34-.26-.43Zm-.74,21.17l-11.45-6.86c-.08-.05-.17-.07-.26-.07-.08,0-.17,.02-.25,.06-.15,.09-.25,.26-.25,.44v6.43L8.28,25,24.85,15.07v6.43c0,.18,.1,.35,.25,.44,.16,.09,.35,.08,.51-.01l11.45-6.86v19.86Z" stroke-width="0"/><path d="M44.88,3.3H5.12c-1.93,0-3.5,1.57-3.5,3.5V43.2c0,1.92,1.57,3.5,3.5,3.5H44.88c1.93,0,3.5-1.58,3.5-3.5V6.8c0-1.93-1.57-3.5-3.5-3.5Zm2.5,39.9c0,1.37-1.12,2.5-2.5,2.5H5.12c-1.38,0-2.5-1.13-2.5-2.5V6.8c0-1.37,1.12-2.5,2.5-2.5H44.88c1.38,0,2.5,1.13,2.5,2.5V43.2Z" stroke-width="0"/></g></svg>