<?xml version="1.0" encoding="UTF-8"?><svg width="70" height="70" xmlns="http://www.w3.org/2000/svg" viewBox="-10 -10 70 70"><rect x="-10" y="-10" width="70" height="70" fill="white"/><g id="uuid-1afd00a3-a5a8-4e4e-908f-4187a640238f"><g><path d="M17.95,44.54c-.06,0-.11,.02-.16,.04l2.52,3.6,.12-.47-2.07-2.96c-.1-.14-.25-.21-.41-.21Z" fill="none" stroke-width="0"/><path d="M37.1,32.61l-.61-2.28c3.36-2.89,5.51-7.16,5.51-11.93,0-3.95-1.47-7.55-3.88-10.32-2.89-3.31-7.13-5.42-11.86-5.42-8.68,0-15.74,7.06-15.74,15.74,0,4.73,2.1,8.97,5.41,11.85,.25,.21,.5,.41,.76,.61-1.45,5.44-2.91,10.88-4.36,16.32l2.18-1.04,3.25-1.55c.07-.03,.14-.05,.21-.05,.16,0,.31,.08,.41,.21l.93,1.32,2.52,3.6,.12-.47,3.33-12.78,.24-.94,.35-1.38c.13,0,.26,.02,.39,.02,.33,0,.65-.03,.97-.05,.13,.53,.26,1.05,.39,1.58l3.8,14.02,.81-1.16,2.65-3.78c.14-.2,.41-.27,.62-.16l5.43,2.59-3.55-13.53-.27-1.04Zm-7.49-17.85c1.05,.31,2.11,.63,3.16,.94l-1.13,1.1-2.4,2.34,.89,5.17c.03,.16-.04,.32-.15,.43-.02,.02-.03,.04-.05,.06-.15,.11-.36,.13-.53,.04l-3.48-1.83-1.16-.61-2.44,1.28-2.2,1.16c-.07,.04-.15,.06-.23,.06-.1,0-.21-.03-.29-.1-.02-.01-.03-.04-.04-.06,.38-1.33,.76-2.66,1.14-3.98l-.55-.78,.14-.83-3.16-3.08c.08-.35,.37-.8,.84-1.23,1.53-.13,3.06-.26,4.6-.39,.63-1.48,1.27-2.95,1.9-4.43,.34,0,.78,.04,1.25,.18l1.81,3.67,1.62,.24,.46,.65Z" fill="#ffcd00" stroke-width="0"/><path d="M25,34.11s.03,0,.05,0l-.03-.09-.02,.09Z" stroke-width="0"/><g><path d="M36.44,30.44l-.34-1.29c3.3-3.06,5.38-7.42,5.38-12.26,0-1.44-.2-2.83-.55-4.17C39.08,5.5,32.53,.15,24.74,.15,15.51,.15,8,7.66,8,16.89c0,5.15,2.34,9.77,6.02,12.84l-4.45,16.74c-.05,.19,.01,.39,.16,.51,.15,.12,.36,.15,.53,.07l2.38-1.14,3.64-1.73,.58,.83,3.25,4.63c.09,.13,.25,.21,.41,.21,.03,0,.06,0,.09,0,.19-.03,.35-.18,.39-.37l.18-.69,3.57-13.72,.25-.95,.02-.09,.03,.09,.27,.99,.14,.53,3.75,13.85c.05,.19,.21,.33,.4,.36,.03,0,.06,0,.09,0,.16,0,.31-.08,.41-.21l.95-1.35,2.88-4.11,1.07,.51,4.95,2.36c.17,.08,.37,.05,.51-.06,0,0,.01,0,.02,0,.15-.12,.21-.32,.17-.51l-3.93-14.96-.28-1.07Zm-12.44,3.55l-.24,.94-3.33,12.78-.12,.47-2.52-3.6-.93-1.32c-.1-.14-.25-.21-.41-.21-.07,0-.15,.02-.21,.05l-3.25,1.55-2.18,1.04,4.06-15.26c.15,.11,.31,.21,.46,.31,.04,.03,.08,.06,.13,.09,.42,.28,.86,.55,1.3,.79h.02c.47,.26,.95,.5,1.44,.71,.03,.01,.06,.02,.08,.03,.16,.07,.32,.13,.49,.19l-.2,.73-1.64,6.06c-.07,.27,.09,.54,.35,.61,.04,.01,.09,.02,.13,.02,.22,0,.42-.15,.48-.37l1.59-5.88,.23-.84c.08,.02,.15,.04,.23,.06,.2,.06,.41,.11,.62,.16,.2,.05,.39,.11,.59,.15,.1,.02,.19,.05,.29,.07,.5,.1,1.01,.18,1.52,.23,.08,0,.16,.01,.24,.02,.29,.03,.58,.05,.88,.07l-.1,.37Zm.74-1.36c-.51,0-1.01-.03-1.5-.08-.13-.01-.27-.03-.4-.05-.36-.04-.71-.1-1.07-.16-.16-.03-.31-.06-.47-.1-.33-.07-.66-.16-.98-.25-.15-.04-.3-.09-.44-.13-.34-.11-.68-.24-1.02-.37-.11-.04-.22-.09-.33-.13-1.51-.65-2.89-1.54-4.12-2.61-3.31-2.89-5.41-7.13-5.41-11.85,0-8.68,7.06-15.74,15.74-15.74,4.73,0,8.97,2.11,11.86,5.42,2.41,2.77,3.88,6.37,3.88,10.32,0,4.83-2.19,9.15-5.62,12.04-.09,.07-.18,.15-.26,.22-.28,.22-.56,.44-.86,.64-.11,.08-.22,.16-.33,.23-.33,.22-.67,.43-1.02,.62-.06,.04-.13,.08-.19,.11-.43,.23-.86,.44-1.31,.63-.06,.03-.12,.05-.18,.07-1.84,.76-3.86,1.18-5.97,1.18Zm9.24,10.46c-.22-.11-.48-.04-.62,.16l-2.65,3.78-.81,1.16-3.8-14.02-.14-.53c1.28-.11,2.53-.37,3.74-.75h.02c.19-.07,.37-.12,.56-.19l.24,.88,.26,.98,1.36,5.03c.06,.22,.26,.37,.48,.37,.04,0,.09,0,.13-.02,.27-.07,.42-.35,.35-.61l-1.37-5.06-.27-.99-.25-.94,.06-.02s.09-.03,.14-.05c.42-.18,.82-.39,1.22-.6,.08-.04,.16-.09,.24-.13,.37-.21,.73-.42,1.08-.66,.07-.05,.15-.09,.22-.14,.38-.26,.75-.52,1.1-.81l.31,1.2,.27,1.04,3.55,13.53-5.43-2.59Z" stroke-width="0"/><path d="M38.04,16.89c0-3.28-1.2-6.27-3.17-8.59-2.44-2.87-6.07-4.71-10.13-4.71-7.33,0-13.3,5.97-13.3,13.3,0,4.06,1.83,7.69,4.71,10.13,2.32,1.97,5.32,3.16,8.59,3.16,7.33,0,13.3-5.97,13.3-13.3Zm-13.3,12.3c-5.12,0-9.52-3.15-11.37-7.61-.6-1.45-.93-3.03-.93-4.69,0-6.78,5.52-12.3,12.3-12.3,1.66,0,3.24,.33,4.68,.93,4.46,1.85,7.61,6.24,7.61,11.37,0,6.78-5.52,12.3-12.3,12.3Z" stroke-width="0"/><path d="M32.69,14.63l-5.19-.75-2.32-4.7c-.17-.34-.73-.34-.9,0l-2.32,4.7-5.19,.75c-.19,.03-.34,.16-.4,.34-.06,.18,0,.38,.13,.51l3.75,3.66-.89,5.17c-.03,.19,.04,.38,.2,.49,.09,.06,.19,.1,.29,.1,.08,0,.16-.02,.23-.06l2.2-1.16,2.44-1.28,1.16,.61,3.48,1.83c.17,.09,.37,.08,.53-.04,.02-.02,.03-.04,.05-.06,.11-.11,.18-.27,.15-.43l-.89-5.17,2.4-2.34,1.35-1.32c.14-.13,.19-.33,.13-.51-.06-.18-.22-.31-.4-.34Zm-2.32,1.99l-2.04,1.99c-.12,.11-.17,.28-.14,.44l.76,4.43-3.98-2.09c-.14-.08-.32-.08-.46,0l-1.99,1.05-1.98,1.04,.76-4.43c.02-.12-.02-.24-.08-.34-.02-.03-.03-.07-.06-.1l-1.64-1.6-1.58-1.54,4.45-.65c.16-.02,.3-.13,.38-.27l1.99-4.03,1.15,2.33,.84,1.69c.07,.15,.21,.25,.38,.27l.58,.08,3.86,.56-1.18,1.15Z" stroke-width="0"/></g></g></g><g id="uuid-e121c9e8-6a4f-4bde-8121-9227c75513f2"></g></svg>