<?xml version="1.0" encoding="UTF-8"?><svg width="70" height="70" xmlns="http://www.w3.org/2000/svg" viewBox="-10 -10 70 70"><rect x="-10" y="-10" width="70" height="70" fill="white"/><g id="uuid-12640226-e14e-4a0f-82b5-d5514e8439b6"><g><path d="M48.67,8.63l-9.6-5.54c-3.43,5.94-6.86,11.88-10.29,17.82-.79-.14-1.6-.22-2.43-.22s-1.67,.09-2.48,.23c-3.41-5.94-6.83-11.89-10.24-17.83L4.01,8.63c3.52,6.07,7.03,12.13,10.55,18.2-1.65,2.34-2.63,5.19-2.63,8.27,0,7.94,6.46,14.41,14.41,14.41s14.41-6.46,14.41-14.41c0-3.05-.96-5.89-2.59-8.22,3.5-6.08,7.01-12.16,10.51-18.24Zm-17.29,24.47l-2.48,2.61,.61,4.54c.03,.19,.04,.27-.11,.39-.09,.06,.46,.28,.36,.28-.08,0-.04,.23-.11,.19l-4.64-2.61-3.92,1.9c-.17,.09-.59,.64-.74,.52s.05-1.38,.08-1.57l.55-3.72-2.34-2.37c-.14-.13-.32,.16-.37-.02-.29-1.11,.12-1.47,.31-1.49l4.18-.55,2.08-4.05,.7,.25h0l.33,.72,1.43,3.06,3.94,.58c.19,.03,1.1,.18,1.16,.36,.06,.18-.88,.86-1.01,.99Z" fill="#ffcd00" stroke-width="0"/><g><path d="M32.53,31.52l-4.99-.76-2.2-4.54c-.08-.17-.26-.28-.45-.28h0c-.19,0-.36,.11-.45,.28l-2.27,4.51-5,.69c-.19,.03-.35,.16-.41,.34-.06,.18-.01,.38,.12,.51l3.59,3.55-.89,4.97c-.03,.19,.04,.38,.2,.49s.36,.13,.53,.04l4.49-2.32,4.45,2.38c.07,.04,.15,.06,.24,.06,.1,0,.2-.03,.29-.09,.15-.11,.23-.3,.2-.49l-.82-4.98,3.64-3.5c.14-.13,.19-.33,.13-.51-.06-.18-.21-.31-.4-.34Zm-4.25,3.81c-.12,.11-.17,.28-.15,.44l.7,4.24-3.79-2.03c-.07-.04-.15-.06-.24-.06s-.16,.02-.23,.06l-3.82,1.97,.76-4.23c.03-.16-.02-.33-.14-.44l-3.06-3.02,4.26-.59c.16-.02,.3-.12,.38-.27l1.93-3.84,1.87,3.87c.07,.15,.21,.25,.37,.28l4.25,.65-3.1,2.98Z" stroke-width="0"/><path d="M48.34,6.91c-.03-.13-.12-.24-.23-.3L37.64,.56c-.24-.14-.55-.06-.68,.18l-10.2,17.66c-.63-.08-1.26-.13-1.91-.13s-1.28,.05-1.91,.13L12.74,.75c-.14-.24-.44-.32-.68-.18L1.58,6.61c-.11,.07-.2,.18-.23,.3s-.02,.26,.05,.38L11.87,25.42c-1.53,2.39-2.43,5.23-2.43,8.27,0,8.5,6.91,15.41,15.41,15.41s15.41-6.91,15.41-15.41c0-3.04-.9-5.88-2.43-8.27L48.29,7.29c.07-.11,.08-.25,.05-.38ZM2.52,7.22L12.12,1.68l9.75,16.89c-1.79,.35-3.47,1.02-4.98,1.94l-4.71-8.16c-.14-.24-.45-.32-.68-.18-.24,.14-.32,.44-.18,.68l4.73,8.2c-1.37,.95-2.56,2.12-3.56,3.46L2.52,7.22Zm36.74,26.46c0,7.94-6.46,14.41-14.41,14.41s-14.41-6.46-14.41-14.41,6.46-14.41,14.41-14.41,14.41,6.46,14.41,14.41Zm-2.06-9.18c-.98-1.31-2.15-2.47-3.49-3.41l4.76-8.25c.14-.24,.06-.54-.18-.68-.24-.14-.54-.06-.68,.18l-4.73,8.2c-1.53-.94-3.23-1.62-5.05-1.98L37.57,1.68l9.6,5.54-9.98,17.28Z" stroke-width="0"/><path d="M24.84,21.28c-6.84,0-12.41,5.57-12.41,12.41s5.57,12.41,12.41,12.41,12.41-5.57,12.41-12.41-5.57-12.41-12.41-12.41Zm0,23.81c-6.29,0-11.41-5.12-11.41-11.41s5.12-11.41,11.41-11.41,11.41,5.12,11.41,11.41-5.12,11.41-11.41,11.41Z" stroke-width="0"/></g></g></g><g id="uuid-a08dd226-fd6d-4e10-9404-cb7dc9d2f35c"></g></svg>