<?xml version="1.0" encoding="utf-8"?> <!-- Generator: Adobe Illustrator 27.7.0, SVG Export Plug-In . SVG Version: 6.00 Build 0) --> <svg width="70" height="70" version="1.1" xmlns="http://www.w3.org/2000/svg" xmlns:xlink="http://www.w3.org/1999/xlink" x="0px" y="0px" viewBox="-10 -10 70 70" style="enable-background:new 0 0 50 50;" xml:space="preserve"><rect x="-10" y="-10" width="70" height="70" fill="white"/> <style type="text/css"> .st0{fill:#FFCD00;} .st1{display:none;} .st2{display:inline;fill:none;stroke:#EA008A;stroke-width:0.2;stroke-miterlimit:10;} .st3{font-family:'Roboto-Regular';} .st4{font-size:6px;} </style> <g id="Color"> <path class="st0" d="M15.8721,15.1533c0-2.4521,1.9941-4.4468,4.4463-4.4468h12.1494c2.4521,0,4.4463,1.9946,4.4463,4.4468 c0,2.4517-1.9941,4.4463-4.4463,4.4463H20.3184C17.8662,19.5996,15.8721,17.605,15.8721,15.1533z" stroke-width="0"/> <path class="st0" d="M13.5166,25.0459c0-2.4517,1.9941-4.4463,4.4463-4.4463h2.3555h12.1494h2.3555 c2.4521,0,4.4463,1.9946,4.4463,4.4463s-1.9941,4.4463-4.4463,4.4463H17.9629C15.5107,29.4922,13.5166,27.4976,13.5166,25.0459z" stroke-width="0"/> <path class="st0" d="M11.1611,34.9385c0-2.4517,1.9941-4.4463,4.4463-4.4463h2.3555h16.8604h2.3555 c2.4521,0,4.4463,1.9946,4.4463,4.4463s-1.9941,4.4463-4.4463,4.4463H15.6074C13.1553,39.3848,11.1611,37.3901,11.1611,34.9385z" stroke-width="0"/> </g> <g id="ICONS_00000031165542127692736420000002692518830807990202_"> <path d="M39.9375,37.8848h-1.1243c1.396-0.9871,2.3118-2.6105,2.3118-4.4463c0-2.7618-2.0684-5.0447-4.7364-5.3945 c1.4359-0.9818,2.3809-2.6313,2.3809-4.498c0-2.7618-2.0684-5.0447-4.7364-5.3945c1.4359-0.9818,2.3809-2.6313,2.3809-4.498 c0-3.0034-2.4434-5.4468-5.4463-5.4468H30.499l0.4922-3.1079c0.2637-1.6621-0.8164-3.2158-2.459-3.5376 C27.4043,1.3408,26.1504,1.2192,25,1.2192c-1.1484,0-2.4023,0.1216-3.5312,0.3418c-1.6426,0.3218-2.7227,1.876-2.459,3.5391 l0.4948,3.1064h-0.6862c-3.0029,0-5.4463,2.4434-5.4463,5.4468c0,1.8668,0.945,3.5163,2.3809,4.498 c-2.668,0.3498-4.7364,2.6328-4.7364,5.3945c0,1.8668,0.945,3.5163,2.3809,4.498c-2.668,0.3498-4.7364,2.6328-4.7364,5.3945 c0,1.8358,0.9158,3.4592,2.3118,4.4463h-0.9104c-1.3769,0-2.4971,1.1206-2.4971,2.4976v1.0269c0,1.8208,0.9902,3.4668,2.584,4.2959 C15.041,48.2471,20.9248,48.7808,25,48.7808s9.96-0.5337,14.8506-3.0762c1.5938-0.8286,2.584-2.4741,2.584-4.2949v-1.0273 C42.4346,39.0054,41.3145,37.8848,39.9375,37.8848z M19.998,4.9429c-0.1797-1.1284,0.5508-2.1826,1.6621-2.4004 C22.7275,2.334,23.9141,2.2192,25,2.2192c1.0879,0,2.2744,0.1147,3.3408,0.3232c1.1113,0.2178,1.8418,1.2715,1.6621,2.3994 L29.486,8.2065h-8.9681L19.998,4.9429z M14.3721,13.6533c0-2.4521,1.9941-4.4468,4.4463-4.4468h12.1494 c2.4521,0,4.4463,1.9946,4.4463,4.4468c0,2.4517-1.9941,4.4463-4.4463,4.4463H18.8184 C16.3662,18.0996,14.3721,16.105,14.3721,13.6533z M12.0166,23.5459c0-2.4517,1.9941-4.4463,4.4463-4.4463h2.3555h12.1494h2.3555 c2.4521,0,4.4463,1.9946,4.4463,4.4463s-1.9941,4.4463-4.4463,4.4463H16.4629C14.0107,27.9922,12.0166,25.9976,12.0166,23.5459z M9.6611,33.4385c0-2.4517,1.9941-4.4463,4.4463-4.4463h2.3555h16.8604h2.3555c2.4521,0,4.4463,1.9946,4.4463,4.4463 s-1.9941,4.4463-4.4463,4.4463H14.1074C11.6553,37.8848,9.6611,35.8901,9.6611,33.4385z M41.4346,41.4097 c0,1.4463-0.7832,2.752-2.0449,3.4072C34.6777,47.2666,28.9639,47.7808,25,47.7808c-3.9629,0-9.6768-0.5142-14.3896-2.9629 c-1.2617-0.6562-2.0449-1.9624-2.0449-3.4087v-1.0269c0-0.8257,0.6719-1.4976,1.4971-1.4976h4.0449h21.5713h4.2588 c0.8252,0,1.4971,0.6719,1.4971,1.4976V41.4097z" stroke-width="0"/> </g> <g id="Margin" class="st1"> <rect x="1" y="1" class="st2" /> </g> <g id="Guides" class="st1"> </g> <g id="LABELS"> <g> <g> <g> <g> <g> <g> <g> </g> </g> </g> </g> </g> </g> </g> </g> </svg> 