<?xml version="1.0" encoding="UTF-8"?><svg width="70" height="70" xmlns="http://www.w3.org/2000/svg" viewBox="-10 -10 70 70"><rect x="-10" y="-10" width="70" height="70" fill="white"/><g id="uuid-3d6b9ede-2765-45ee-b554-5d8825d64d81"><g><path d="M18.36,9.9c-2.19,0-4.29,.48-6.23,1.42-1.05,.5-2.02,1.12-2.9,1.84-3.37,2.75-5.3,6.83-5.3,11.17,0,2.6,.7,5.14,2.02,7.35,.51,.86,1.12,1.68,1.83,2.43,2.72,2.95,6.58,4.63,10.59,4.63,7.95,0,14.42-6.47,14.42-14.42s-6.47-14.43-14.42-14.43Zm.06,26.52c-3.17,0-6.17-1.22-8.44-3.45-.78-.77-1.44-1.62-1.96-2.54-1.07-1.83-1.63-3.92-1.63-6.04,0-3.6,1.6-6.99,4.38-9.3,.93-.76,1.96-1.37,3.04-1.82,1.47-.61,3.02-.91,4.61-.91,6.63,0,12.03,5.4,12.03,12.03s-5.4,12.03-12.03,12.03Z" fill="#ffcd00" stroke-width="0"/><path d="M35.15,14.82c-2.19,0-4.29,.48-6.23,1.42-1.05,.5-2.02,1.12-2.9,1.84-3.37,2.75-5.3,6.83-5.3,11.17,0,2.6,.7,5.14,2.02,7.35,.51,.86,1.12,1.68,1.83,2.43,2.72,2.95,6.58,4.63,10.59,4.63,7.95,0,14.42-6.47,14.42-14.42s-6.47-14.43-14.42-14.43Zm.06,26.52c-3.17,0-6.17-1.22-8.44-3.45-.78-.77-1.44-1.62-1.96-2.54-1.07-1.83-1.63-3.92-1.63-6.04,0-3.6,1.6-6.99,4.38-9.3,.93-.76,1.96-1.37,3.04-1.82,1.47-.61,3.02-.91,4.61-.91,6.63,0,12.03,5.4,12.03,12.03s-5.4,12.03-12.03,12.03Z" fill="#ffcd00" stroke-width="0"/><path d="M33.4,12.07c-1.66,0-3.26,.27-4.8,.77-2.83-3.51-7.15-5.76-12-5.76-2.35,0-4.59,.51-6.66,1.51-1.12,.53-2.16,1.19-3.1,1.96-3.6,2.94-5.66,7.3-5.66,11.95,0,2.78,.75,5.5,2.16,7.86,.54,.92,1.2,1.8,1.95,2.6,2.9,3.15,7.03,4.95,11.32,4.95,1.68,0,3.28-.28,4.8-.77,.22,.27,.44,.55,.68,.81,2.91,3.15,7.03,4.95,11.32,4.95,8.5,0,15.42-6.92,15.42-15.42s-6.92-15.43-15.42-15.43Zm-10.59,25.21c-.71-.75-1.32-1.57-1.83-2.43-1.32-2.21-2.02-4.75-2.02-7.35,0-4.35,1.93-8.42,5.3-11.17,.88-.72,1.86-1.34,2.9-1.84,1.94-.94,4.03-1.42,6.23-1.42,7.95,0,14.42,6.47,14.42,14.43s-6.47,14.42-14.42,14.42c-4.01,0-7.87-1.69-10.59-4.63Zm.82-21.73c-3.6,2.94-5.66,7.3-5.66,11.95,0,2.01,.4,3.99,1.14,5.82-.79,.18-1.61,.28-2.45,.28-2.91,0-5.66-1.12-7.74-3.16-.71-.7-1.32-1.48-1.8-2.33-.98-1.68-1.5-3.59-1.5-5.54,0-3.3,1.47-6.41,4.02-8.53,.86-.69,1.79-1.25,2.79-1.67,1.35-.56,2.77-.84,4.23-.84,3.09,0,5.89,1.29,7.9,3.34-.31,.22-.63,.43-.93,.67Zm-7.03,21.38c-4.01,0-7.87-1.69-10.59-4.63-.71-.75-1.32-1.57-1.82-2.43-1.32-2.21-2.02-4.75-2.02-7.35,0-4.35,1.93-8.42,5.3-11.17,.88-.72,1.86-1.34,2.9-1.84,1.94-.94,4.03-1.42,6.23-1.42,4.41,0,8.37,2,11.01,5.14-.29,.12-.59,.23-.88,.37-.46,.22-.9,.47-1.34,.74-2.2-2.33-5.3-3.79-8.74-3.79-1.59,0-3.14,.31-4.61,.91-1.08,.45-2.1,1.06-3.04,1.82-2.78,2.31-4.38,5.7-4.38,9.3,0,2.13,.56,4.22,1.63,6.04,.52,.92,1.19,1.77,1.96,2.54,2.27,2.22,5.26,3.45,8.44,3.45,.99,0,1.95-.13,2.87-.36,.18,.38,.38,.75,.6,1.11,.19,.33,.42,.64,.64,.95-1.32,.4-2.71,.62-4.16,.62Z" stroke-width="0"/><path d="M33.46,15.53c-1.59,0-3.14,.31-4.61,.91-1.08,.45-2.1,1.06-3.04,1.82-2.79,2.31-4.38,5.7-4.38,9.3,0,2.13,.56,4.22,1.63,6.04,.52,.92,1.18,1.77,1.96,2.54,2.27,2.22,5.26,3.45,8.44,3.45,6.63,0,12.03-5.4,12.03-12.03s-5.4-12.03-12.03-12.03Zm-7.74,19.9c-.1-.1-.18-.21-.27-.31,3.97-2.79,6.57-7.4,6.57-12.61,0-2.01-.4-3.92-1.1-5.68,.83-.19,1.67-.3,2.53-.3,6.08,0,11.03,4.95,11.03,11.03s-4.95,11.03-11.03,11.03c-2.91,0-5.66-1.12-7.74-3.16Zm1.98-12.86c0,3.65-1.79,6.89-4.54,8.9-.47-1.24-.73-2.57-.73-3.91,0-3.3,1.47-6.41,4.02-8.53,.17-.14,.35-.24,.53-.37,.46,1.22,.73,2.53,.73,3.91Zm1,0c0-1.59-.32-3.1-.88-4.49,.46-.27,.93-.51,1.41-.71,.24-.1,.49-.18,.73-.26,.68,1.67,1.06,3.5,1.06,5.41,0,4.91-2.47,9.26-6.24,11.86-.32-.41-.61-.83-.86-1.27-.13-.22-.23-.46-.35-.7,3.09-2.18,5.12-5.77,5.12-9.83Z" stroke-width="0"/></g></g><g id="uuid-e9e9437e-79e5-4565-b65e-8a941f415b01"></g></svg>