<?xml version="1.0" encoding="UTF-8"?><svg width="70" height="70" id="uuid-f51a2a99-6528-4b95-ac89-4042d4ec85cc" xmlns="http://www.w3.org/2000/svg" viewBox="-10 -10 70 70"><rect x="-10" y="-10" width="70" height="70" fill="white"/><g><polygon points="48.04 33.81 48.04 36.76 47.98 36.85 45.52 40.24 42.59 40.24 41.59 40.24 38.74 40.24 37.77 40.24 38.74 38.9 39.64 37.66 41.59 34.96 42.42 33.81 42.59 33.81 48.04 33.81" fill="#ffcd00"/><polygon points="32.21 33.81 29.58 37.44 27.55 40.24 19.8 40.24 22.43 36.62 24.46 33.81 32.21 33.81" fill="#ffcd00"/><polygon points="14.24 33.81 13.4 34.98 12.37 36.4 10.55 38.91 9.58 40.24 9.55 40.24 4.04 40.24 4.04 37.19 6.49 33.81 9.55 33.81 10.55 33.81 13.4 33.81 14.24 33.81" fill="#ffcd00"/><polygon points="48.04 22.8 48.04 25.75 47.98 25.84 45.52 29.23 42.59 29.23 41.59 29.23 38.74 29.23 37.77 29.23 38.74 27.89 39.64 26.65 41.59 23.95 42.42 22.8 42.59 22.8 48.04 22.8" fill="#ffcd00"/><path d="M40.17,12.38c1.9,0,3.45,1.55,3.45,3.45,0,.96-.4,1.82-1.03,2.45-.29,.28-.63,.51-1,.68-.43,.2-.91,.32-1.42,.32s-.99-.12-1.43-.32c-.37-.17-.71-.4-1-.68-.63-.63-1.02-1.49-1.02-2.45,0-1.9,1.55-3.45,3.45-3.45Z" fill="#ffcd00" stroke-width="0"/><polygon points="32.21 22.8 29.58 26.43 27.55 29.23 19.8 29.23 22.43 25.61 24.46 22.8 32.21 22.8" fill="#ffcd00"/><path d="M11.97,12.38c1.9,0,3.45,1.55,3.45,3.45,0,.96-.39,1.82-1.02,2.45-.29,.28-.63,.51-1,.68-.44,.2-.92,.32-1.43,.32s-.99-.12-1.42-.32c-.37-.17-.71-.4-1-.68-.63-.63-1.03-1.49-1.03-2.45,0-1.9,1.55-3.45,3.45-3.45Z" fill="#ffcd00" stroke-width="0"/><polygon points="14.24 22.8 13.4 23.97 12.37 25.39 10.55 27.9 9.58 29.23 9.55 29.23 4.04 29.23 4.04 26.18 6.49 22.8 9.55 22.8 10.55 22.8 13.4 22.8 14.24 22.8" fill="#ffcd00"/></g><g><path d="M48.69,14.31c.27,0,.5,.22,.5,.5s-.23,.5-.5,.5h-2.87c-.28,0-.5-.22-.5-.5s.22-.5,.5-.5h2.87Z" stroke-width="0"/><path d="M48.06,35.95v3.82c0,.28-.22,.5-.5,.5h-5.95v1.72h4c.28,0,.5,.22,.5,.5v2.78c0,.28-.22,.5-.5,.5h-12.85c-.28,0-.5-.22-.5-.5v-2.78c0-.28,.22-.5,.5-.5h4v-1.72H13.42v1.72h4c.28,0,.5,.22,.5,.5v2.78c0,.28-.22,.5-.5,.5H4.57c-.28,0-.5-.22-.5-.5v-2.78c0-.28,.22-.5,.5-.5h4v-1.72H2.56c-.27,0-.5-.22-.5-.5v-7.43c0-.27,.23-.5,.5-.5h6.01v-2.58H2.56c-.27,0-.5-.22-.5-.5v-7.43c0-.27,.23-.5,.5-.5h6.01v-2.25c-1.22-.8-2.03-2.16-2.03-3.72,0-2.45,2-4.45,4.45-4.45s4.45,2,4.45,4.45c0,1.56-.81,2.93-2.02,3.72v2.25h23.34v-2.25c-1.21-.79-2.02-2.16-2.02-3.72,0-2.45,1.99-4.45,4.45-4.45s4.45,2,4.45,4.45c0,1.56-.81,2.92-2.03,3.72v2.25h5.95c.28,0,.5,.23,.5,.5v7.43c0,.28-.22,.5-.5,.5h-5.95v2.58h5.95c.28,0,.5,.23,.5,.5v3.61Zm-1,3.32v-1.78l-1.28,1.78h1.28Zm0-3.48v-2.95h-5.62l-.83,1.15-1.95,2.7-.9,1.24-.97,1.34h7.75l2.46-3.39,.06-.09Zm0-7.53v-1.78l-1.28,1.78h1.28Zm0-3.48v-2.95h-5.62l-.83,1.15-1.95,2.7-.9,1.24-.97,1.34h7.75l2.46-3.39,.06-.09Zm-1.95,19.99v-1.78h-11.85v1.78h11.85Zm-2.47-29.91c0-1.9-1.55-3.45-3.45-3.45s-3.45,1.55-3.45,3.45c0,.96,.39,1.82,1.02,2.45,.29,.28,.63,.51,1,.68,.44,.2,.92,.32,1.43,.32s.99-.12,1.42-.32c.37-.17,.71-.4,1-.68,.63-.63,1.03-1.49,1.03-2.45Zm-2.03,27.13v-1.72h-2.85v1.72h2.85Zm0-10.15v-2.58h-2.85v2.58h2.85Zm0-11.01v-1.78c-.45,.16-.92,.26-1.42,.26s-.98-.1-1.43-.26v1.78h2.85Zm-2.27,3.59l1.87-2.59h-7.75l-2.03,2.81-2.62,3.62h7.75l1.2-1.67,1-1.38,.58-.79Zm0,11.01l1.87-2.59h-7.75l-2.03,2.81-2.62,3.62h7.75l1.2-1.67,1-1.38,.58-.79Zm-1.58-3.59v-2.58H13.42v2.58h23.34Zm-8.16-6.38l2.63-3.63h-7.75l-2.03,2.81-2.63,3.62h7.75l2.03-2.8Zm0,11.01l2.63-3.63h-7.75l-2.03,2.81-2.63,3.62h7.75l2.03-2.8Zm-8.98-11.01l2.62-3.63h-7.75l-1.07,1.49-1,1.38-.71,.98-1.87,2.58h7.75l2.03-2.8Zm0,11.01l2.62-3.63h-7.75l-1.07,1.49-1,1.38-.71,.98-1.87,2.58h7.75l2.03-2.8Zm-2.7,8.3v-1.78H5.07v1.78h11.85Zm-2.48-29.91c0-1.9-1.55-3.45-3.45-3.45s-3.45,1.55-3.45,3.45c0,.96,.4,1.82,1.03,2.45,.29,.28,.63,.51,1,.68,.43,.2,.91,.32,1.42,.32s.99-.12,1.43-.32c.37-.17,.71-.4,1-.68,.63-.63,1.02-1.49,1.02-2.45Zm-2.02,8.14l.84-1.17H5.51l-2.45,3.38v3.05h5.54l.97-1.33,1.82-2.51,1.03-1.42Zm0,11.01l.84-1.17H5.51l-2.45,3.38v3.05h5.54l.97-1.33,1.82-2.51,1.03-1.42Zm0,7.98v-1.72h-2.85v1.72h2.85Zm0-10.15v-2.58h-2.85v2.58h2.85Zm0-11.01v-1.78c-.45,.16-.93,.26-1.43,.26s-.97-.1-1.42-.26v1.78h2.85Zm-9.36,2.67l1.21-1.67h-1.21v1.67Zm0,11.01l1.21-1.67h-1.21v1.67Z" stroke-width="0"/><path d="M46.11,7.87c.1,.1,.14,.23,.14,.35,0,.13-.04,.26-.14,.36l-1.92,1.91c-.09,.1-.22,.15-.35,.15s-.26-.05-.35-.15c-.1-.1-.15-.22-.15-.35s.05-.26,.15-.36l1.91-1.91c.2-.19,.51-.19,.71,0Z" stroke-width="0"/><path d="M39.64,5.36v2.87c0,.28-.22,.5-.5,.5s-.5-.22-.5-.5v-2.87c0-.28,.22-.5,.5-.5s.5,.22,.5,.5Z" stroke-width="0"/><path d="M34.82,9.85c.1,.1,.15,.23,.15,.36s-.05,.25-.15,.35-.23,.15-.35,.15c-.13,0-.26-.05-.36-.15l-1.91-1.91c-.1-.1-.15-.23-.15-.36,0-.12,.05-.25,.15-.35,.19-.2,.51-.2,.71,0l1.91,1.91Z" stroke-width="0"/><path d="M32.56,14.41c.28,0,.5,.22,.5,.5s-.22,.5-.5,.5h-2.87c-.28,0-.5-.22-.5-.5s.22-.5,.5-.5h2.87Z" stroke-width="0"/><path d="M20.49,14.31c.28,0,.5,.22,.5,.5s-.22,.5-.5,.5h-2.87c-.28,0-.5-.22-.5-.5s.22-.5,.5-.5h2.87Z" stroke-width="0"/><path d="M17.91,7.87c.1,.1,.15,.23,.15,.35,0,.13-.05,.26-.15,.36l-1.91,1.91c-.1,.1-.23,.15-.36,.15-.12,0-.25-.05-.35-.15s-.15-.22-.15-.35,.05-.26,.15-.36l1.92-1.91c.19-.19,.51-.19,.7,0Z" stroke-width="0"/><path d="M11.44,5.36v2.87c0,.28-.22,.5-.5,.5s-.5-.22-.5-.5v-2.87c0-.28,.23-.5,.5-.5s.5,.22,.5,.5Z" stroke-width="0"/><path d="M6.62,9.85c.1,.1,.15,.23,.15,.36s-.05,.25-.15,.35c-.09,.1-.22,.15-.35,.15s-.25-.05-.35-.15l-1.92-1.91c-.09-.1-.14-.23-.14-.36,0-.12,.05-.25,.14-.35,.2-.2,.51-.2,.71,0l1.91,1.91Z" stroke-width="0"/><path d="M4.36,14.41c.28,0,.5,.22,.5,.5s-.22,.5-.5,.5H1.49c-.27,0-.5-.22-.5-.5s.23-.5,.5-.5h2.87Z" stroke-width="0"/></g></svg>