<?xml version="1.0" encoding="UTF-8"?><svg width="70" height="70" id="uuid-70ecbd4d-04be-48ba-9d46-b698cf75d426" xmlns="http://www.w3.org/2000/svg" viewBox="-10 -10 70 70"><rect x="-10" y="-10" width="70" height="70" fill="white"/><path d="M8.82,4.93c0-.94-.76-1.7-1.7-1.7s-1.71,.76-1.71,1.7,.76,1.7,1.71,1.7,1.7-.76,1.7-1.7Z" fill="#ffcd00" stroke-width="0"/><path d="M47.55,4.94c0-.93-.75-1.68-1.68-1.68s-1.68,.75-1.68,1.68,.75,1.68,1.68,1.68,1.68-.75,1.68-1.68Z" fill="#ffcd00" stroke-width="0"/><path d="M45.71,14.66h-3.3v-4.43c0-1.05-.85-1.91-1.91-1.91H12.79c-1.05,0-1.91,.85-1.91,1.91v4.43h-3.82c-1.05,0-1.91,.85-1.91,1.91v6.21c0,1.05,.86,1.91,1.91,1.91h3.82v4.22c0,1.05,.86,1.91,1.91,1.91h9.31v5.95H9.26c-.82,0-1.49,.67-1.49,1.49v11.04H45.52v-11.04c0-.82-.67-1.49-1.49-1.49h-13.31v-5.95h9.78c1.05,0,1.91-.85,1.91-1.91v-4.22h3.3c1.05,0,1.91-.85,1.91-1.91v-6.21c0-1.05-.85-1.91-1.91-1.91Zm-28.4,3.6c-1.21,0-2.2-.99-2.2-2.2s.99-2.2,2.2-2.2,2.2,.99,2.2,2.2-.99,2.2-2.2,2.2Zm15.11,0c-1.21,0-2.2-.99-2.2-2.2s.99-2.2,2.2-2.2,2.2,.99,2.2,2.2-.99,2.2-2.2,2.2Z" fill="#ffcd00" stroke-width="0"/><path d="M44.79,12.02V6.1c1.29-.2,2.29-1.31,2.29-2.66,0-1.49-1.21-2.7-2.7-2.7s-2.7,1.21-2.7,2.7c0,1.28,.89,2.34,2.09,2.62v5.83h-2.08v-3.4c0-1.61-1.31-2.93-2.93-2.93H11.04c-1.61,0-2.93,1.31-2.93,2.93v3.4h-2.08V6.11c1.31-.2,2.32-1.32,2.32-2.68,0-1.5-1.22-2.73-2.73-2.73S2.89,1.92,2.89,3.43c0,1.29,.91,2.37,2.12,2.65v5.84c-1.47,.15-2.63,1.39-2.63,2.9v6.21c0,1.61,1.31,2.93,2.93,2.93h2.8v3.2c0,1.61,1.31,2.93,2.93,2.93h8.29v3.91H7.51c-1.38,0-2.51,1.13-2.51,2.51v11.55c0,.28,.23,.51,.51,.51H44.28c.14,.01,.27-.04,.36-.14s.15-.23,.15-.36v-11.56c0-1.38-1.13-2.51-2.51-2.51h-12.29v-3.91h8.76c1.61,0,2.93-1.31,2.93-2.93v-3.2h2.28c1.61,0,2.93-1.31,2.93-2.93v-6.21c0-1.33-.89-2.44-2.1-2.8Zm-2.09-8.58c0-.93,.75-1.68,1.68-1.68s1.68,.75,1.68,1.68-.75,1.68-1.68,1.68-1.68-.75-1.68-1.68Zm-38.79-.01c0-.94,.76-1.7,1.71-1.7s1.7,.76,1.7,1.7-.76,1.7-1.7,1.7-1.71-.76-1.71-1.7Zm1.4,19.51c-1.05,0-1.91-.85-1.91-1.91v-6.21c0-1.05,.86-1.91,1.91-1.91h2.8v10.02h-2.8Zm38.46,13.56v11.05H6.02v-11.05c0-.82,.67-1.49,1.49-1.49H42.29c.82,0,1.49,.67,1.49,1.49Zm-14.8-2.51h-8.62v-3.91h8.62v3.91Zm11.69-6.83c0,1.05-.85,1.91-1.91,1.91H11.04c-1.05,0-1.91-.85-1.91-1.91V8.49c0-1.05,.86-1.91,1.91-1.91h27.72c1.05,0,1.91,.85,1.91,1.91V27.15Zm5.21-6.13c0,1.05-.85,1.91-1.91,1.91h-2.28V12.91h2.28c1.05,0,1.91,.85,1.91,1.91v6.21Z" stroke-width="0"/><path d="M20.54,16.06c0-1.78-1.45-3.22-3.22-3.22s-3.22,1.45-3.22,3.22,1.45,3.22,3.22,3.22,3.22-1.45,3.22-3.22Zm-3.22,2.2c-1.21,0-2.2-.99-2.2-2.2s.99-2.2,2.2-2.2,2.2,.99,2.2,2.2-.99,2.2-2.2,2.2Z" stroke-width="0"/><path d="M32.42,12.83c-1.78,0-3.22,1.45-3.22,3.22s1.45,3.22,3.22,3.22,3.22-1.45,3.22-3.22-1.45-3.22-3.22-3.22Zm0,5.42c-1.21,0-2.2-.99-2.2-2.2s.99-2.2,2.2-2.2,2.2,.99,2.2,2.2-.99,2.2-2.2,2.2Z" stroke-width="0"/><path d="M30.52,22.63c-1.57,1.24-3.47,1.9-5.48,1.9s-4-.7-5.57-1.97c-.22-.18-.54-.14-.72,.08-.18,.22-.14,.54,.08,.72,1.75,1.42,3.96,2.2,6.21,2.2s4.36-.73,6.11-2.12c.22-.17,.26-.5,.08-.72-.17-.22-.5-.26-.72-.08Z" stroke-width="0"/></svg>