<?xml version="1.0" encoding="UTF-8"?><svg width="70" height="70" id="uuid-eba37dde-643e-4dd6-88d2-746d0b7235e0" xmlns="http://www.w3.org/2000/svg" viewBox="-10 -10 70 70"><rect x="-10" y="-10" width="70" height="70" fill="white"/><path d="M44.02,44.49c-.44-2.07-1.01-4.03-1.71-5.88-.47-1.24-1.17-3.04-2.48-5.2-1-1.65-2.01-2.95-2.85-3.93,0-.06,0-.12,0-.19,0-7.63-2.18-13.49-3.63-16.66-1.81-3.84-4.25-7.22-7.22-9.87-2.97,2.65-5.41,6.03-7.22,9.87-.98,2.13-2.08,5.01-2.8,8.52-.26,1.24-.83,4.29-.82,8.14,0,.18,.01,.35,.02,.53v-.05c-.73,.9-1.62,2.11-2.52,3.64-.25,.42-1.41,2.38-2.48,5.2-.7,1.85-1.27,3.82-1.71,5.88h9.68v-.05c.11,.3,.23,.61,.35,.89h1.49l-.82,4.59c1.46-.59,2.91-1.19,4.37-1.78,.04-.01,.1-.03,.17-.03,.1,0,.19,.02,.23,.04l2.01,1.75c.53-.56,1.06-1.12,1.59-1.68,.04-.03,.16-.13,.34-.15,.2-.02,.34,.07,.38,.09,1.52,.57,3.04,1.15,4.56,1.72l-1.04-4.48h1.72c.13-.3,.27-.63,.41-.97v.07h10Zm-19.32-15.8c-2.49,0-4.52-2.1-4.52-4.69s2.03-4.69,4.52-4.69,4.52,2.1,4.52,4.69-2.03,4.69-4.52,4.69Z" fill="#ffcd00" stroke-width="0"/><g><path d="M39.19,31.39c-.82-1.39-1.73-2.68-2.71-3.86-.06-10.93-4.35-21.13-11.51-27.33-.19-.16-.47-.16-.65,0-7.21,6.24-11.52,16.55-11.52,27.58,0,.06,0,.12,0,.18-.85,1.06-1.65,2.2-2.37,3.43-2.05,3.48-3.54,7.52-4.43,12-.03,.15,0,.3,.1,.42,.1,.12,.24,.18,.39,.18h11.15l-1,5.15c-.04,.18,.03,.36,.17,.48,.09,.07,.2,.11,.32,.11,.06,0,.13-.01,.19-.04l4.94-2.01,2.01,1.78c.2,.18,.51,.17,.69-.03l1.7-1.79,5.33,2.01c.17,.07,.37,.03,.51-.09,.14-.12,.2-.31,.15-.5l-1.28-5.07h11.77c.15,0,.29-.07,.39-.18,.09-.12,.13-.27,.1-.42-.89-4.48-2.38-8.52-4.43-12ZM24.64,1.25c2.97,2.65,5.41,6.03,7.22,9.87h-14.43c1.81-3.84,4.25-7.22,7.22-9.87ZM7.09,42.99c.88-4.13,2.29-7.86,4.19-11.09,.49-.83,1-1.62,1.55-2.37,.2,4.69,1.18,9.29,2.87,13.45H7.09Zm24.34,5.39l-4.74-1.79c-.19-.07-.4-.02-.54,.12l-1.59,1.68-1.88-1.67c-.14-.13-.34-.16-.52-.09l-4.37,1.78,.85-4.37h11.71l1.09,4.33Zm1.07-5.39h-15.73c-1.95-4.66-2.98-9.91-2.98-15.21,0-5.56,1.13-10.93,3.19-15.66h15.11c.07,0,.13-.01,.19-.04,2.07,4.74,3.2,10.12,3.2,15.7s-1.03,10.55-2.98,15.21Zm1.07,0c1.74-4.29,2.72-9.04,2.88-13.88,.67,.88,1.3,1.8,1.88,2.79,1.9,3.23,3.31,6.96,4.19,11.09h-8.95Z" stroke-width="0"/><path d="M24.7,18.31c-3.04,0-5.52,2.55-5.52,5.69s2.48,5.69,5.52,5.69,5.52-2.55,5.52-5.69-2.48-5.69-5.52-5.69Zm0,10.37c-2.49,0-4.52-2.1-4.52-4.69s2.03-4.69,4.52-4.69,4.52,2.1,4.52,4.69-2.03,4.69-4.52,4.69Z" stroke-width="0"/></g></svg>