<?xml version="1.0" encoding="utf-8"?> <!-- Generator: Adobe Illustrator 27.7.0, SVG Export Plug-In . SVG Version: 6.00 Build 0) --> <svg width="70" height="70" version="1.1" xmlns="http://www.w3.org/2000/svg" xmlns:xlink="http://www.w3.org/1999/xlink" x="0px" y="0px" viewBox="-10 -10 70 70" style="enable-background:new 0 0 50 50;" xml:space="preserve"><rect x="-10" y="-10" width="70" height="70" fill="white"/> <style type="text/css"> .st0{fill:#FFCD00;} .st1{display:none;} .st2{display:inline;fill:none;stroke:#EA008A;stroke-width:0.2;stroke-miterlimit:10;} .st3{font-family:'Roboto-Regular';} .st4{font-size:6px;} </style> <g id="Color"> <path class="st0" d="M45.0293,38.1855c-1.3018,0.7119-2.7334,1.3677-4.2539,1.9482c-0.249,0.0938-0.5332-0.0229-0.6387-0.2715 c-2.7139-6.3677-2.9844-13.5649-0.7812-20.813c0.0391-0.1289,0.1289-0.2368,0.249-0.2988 c0.1191-0.0625,0.2598-0.0742,0.3877-0.0298c0.4297,0.1431,0.9707,0.3936,1.6543,0.7104c0.8311,0.3853,1.8486,0.8569,3.0059,1.2861 l1.9414-1.9341c-1.0078-2.1582-2.7793-5.0972-4.6914-6.7295c-0.1631-0.1387-0.2188-0.3647-0.1406-0.5635 c0.3682-0.938,0.2734-2.2417-0.2549-3.4888c-0.002-0.0039-0.0039-0.0078-0.0059-0.0117c-0.0352-0.083-0.0713-0.165-0.1084-0.2456 c-0.1689,0.0708-0.3457,0.1694-0.5342,0.2979c-0.0889,0.0605-0.1924,0.0977-0.3008,0.0864l-0.21-0.0073 c-1.2816-0.0428-2.4658,0.1295-3.5549,0.4674c0.0658-0.0308,0.1324-0.0653,0.1978-0.0943 c0.0955-0.1605,0.2018-0.3258,0.3145-0.4921c-5.1204,1.1062-8.2996,5.8624-9.0717,10.9144 c0.4416-0.0587,0.8898-0.1282,1.3531-0.2238c0.0002-0.0013,0.0006-0.0026,0.0009-0.0039l0.1286,0.4201 c0.6064,1.9736,0.4883,3.6294-0.3418,4.7881c-0.8252,1.1538-2.335,1.7632-4.3672,1.7632c-0.0059,0-0.0117,0-0.0186,0 c-2.0078-0.0181-3.4414-0.6074-4.2646-1.7515c-0.6971-0.9705-0.9047-2.3217-0.6307-3.9401c-0.531-0.1297-1.0432-0.252-1.5245-0.345 c-1.5029-0.2891-2.623-0.1255-3.6299,0.5332c-0.1924,0.1245-0.4453,0.105-0.6133-0.0522c-1.5566-1.4419-6.1406-3.9106-7.959-2.1465 c-1.0146,0.9868-1.0977,2.4604-1.1934,4.167c-0.1104,1.9663-0.2344,4.1655-1.7295,6.2998c3.8516-0.2607,5.165-5.2026,5.5635-7.4414 c0.0459-0.2583,0.2793-0.4365,0.5449-0.4097c1.1865,0.125,2.7734,0.5083,3.376,0.9727c0.1973,0.1514,0.2529,0.4238,0.1318,0.6401 c-1.2471,2.2256-0.4219,4.6602,0.4365,6.5327c1.5342,3.3423,1.4238,6.9629-0.3398,11.0684 c-0.1064,0.25-0.3916,0.3691-0.6455,0.2666c-1.4277-0.5723-2.6592-1.1504-3.7646-1.7666c-1.1514-0.6411-3.165-0.4771-4.2793,0.5996 c7.3076,4.6069,15.7803,6.7969,24.541,6.3408c7.1982-0.375,14.1494-2.5679,20.1406-6.3481 C48.0176,37.7661,45.7783,37.7764,45.0293,38.1855z M37.5166,41.0532c-0.0654,0.1216-0.1777,0.2109-0.3105,0.2466 c-2.6738,0.7188-5.4844,1.1587-8.3506,1.3086c-0.7715,0.04-1.5371,0.0601-2.2969,0.0601c-3.7334,0-7.3213-0.4844-10.6943-1.4463 c-0.1338-0.0381-0.2451-0.1294-0.3086-0.2529c-0.0625-0.123-0.0723-0.2666-0.0254-0.397 c1.9082-5.3115,6.2812-10.7334,10.9453-10.8193c7.1367-0.1606,10.6953,9.7749,11.0742,10.9048 C37.5938,40.7886,37.582,40.9316,37.5166,41.0532z" stroke-width="0"/> </g> <g id="ICONS_00000031165542127692736420000002692518830807990202_"> <g> <g> <g> <g> <circle cx="39.3116" cy="13.4193" r="0.8725"/> <path d="M48.8076,37.231c-1.2715-1.9893-4.4961-2.1133-5.7588-1.4224c-1.1318,0.6191-2.3672,1.1953-3.6777,1.7148 c-2.3848-5.8867-2.6299-12.4917-0.7109-19.167c0.3076,0.1309,0.6699,0.2983,1.0664,0.4824 c0.9189,0.4258,2.0625,0.9556,3.3857,1.4277c0.1807,0.0659,0.3838,0.0195,0.5205-0.1167l2.4131-2.4043 c0.1475-0.1465,0.1885-0.3691,0.1035-0.5586c-1.0244-2.2861-2.8164-5.3193-4.8418-7.1675 c0.4736-1.6045-0.0439-3.4131-0.7246-4.6206c-0.1055-0.1885-0.3271-0.2842-0.5312-0.2456 c-0.4052,0.0793-0.7881,0.2516-1.1438,0.4777c-0.0139-0.0016-0.0256-0.009-0.0398-0.0095 c-7.67-0.2894-12.232,6.2891-12.8759,12.9534c-2.6343,0.0292-4.8537-0.5093-6.7413-0.9749 c-0.7061-0.1743-1.3682-0.3374-1.9932-0.458c-1.6006-0.3091-2.8955-0.1567-4.041,0.4805 c-1.6748-1.3628-6.5967-4.2612-9.0479-1.8813c-1.2939,1.2583-1.3916,2.9922-1.4941,4.8276 c-0.1162,2.0513-0.2471,4.376-2.1123,6.4941c-0.123,0.1396-0.1582,0.3354-0.0918,0.5088 c0.0654,0.1733,0.2227,0.2959,0.4072,0.3184c5.125,0.6133,6.9385-4.8867,7.5244-7.7642 c0.8232,0.123,1.5928,0.3315,2.0557,0.5229c-1.1338,2.4785-0.2725,5.019,0.6299,6.9868 c1.3535,2.9497,1.3018,6.1611-0.1621,9.8042c-1.1953-0.4956-2.2441-0.9966-3.1934-1.5254 c-1.709-0.9541-4.6074-0.6006-5.9268,1.3013c-0.0771,0.1108-0.1055,0.2485-0.0791,0.3813 c0.0254,0.1323,0.1045,0.249,0.2178,0.3228c6.9492,4.5132,14.959,6.8677,23.2949,6.8677c0.7705,0,1.5449-0.0205,2.3213-0.0605 c7.5615-0.3945,14.8574-2.7485,21.0986-6.8076C48.8896,37.77,48.9561,37.4624,48.8076,37.231z M37.7374,6.6473 c-0.4788,0.5245-0.8586,1.0726-1.0948,1.4553c-2.2949,1.0586-6.1387,3.7485-7.4814,10.1646 c-0.7507,0.1413-1.4626,0.2153-2.1564,0.2618C27.6204,12.7127,31.4335,7.0535,37.7374,6.6473z M29.2379,19.2559 c0.5574,1.8127,0.4716,3.3134-0.2701,4.35c-0.7393,1.0332-2.1367,1.5576-3.9785,1.5542 c-1.8369-0.0166-3.1348-0.5356-3.8594-1.5435c-0.7582-1.0541-0.8585-2.6865-0.3098-4.6223 C23.1454,19.5023,25.9036,19.8632,29.2379,19.2559z M24.9932,29.2529c5.0322-0.1235,8.5117,5.8389,9.9316,9.7173 c-2.4512,0.6201-5.0127,1.0034-7.6221,1.1392c-4.2559,0.2246-8.3369-0.1836-12.1416-1.2041 C17.0039,34.1895,20.9707,29.3271,24.9932,29.2529z M27.5078,43.728c-8.75,0.4595-17.2344-1.7344-24.541-6.3408 c1.1143-1.0767,3.1279-1.2407,4.2793-0.5996c1.1055,0.6162,2.3369,1.1943,3.7646,1.7666 c0.2539,0.1025,0.5391-0.0166,0.6455-0.2666c1.7637-4.105,1.874-7.7256,0.3398-11.0688 c-0.8584-1.8721-1.6836-4.3066-0.4365-6.5322c0.1211-0.2163,0.0654-0.4888-0.1318-0.6401 c-0.6025-0.4644-2.1895-0.8477-3.376-0.9727c-0.2656-0.0269-0.499,0.1514-0.5449,0.4097 c-0.3984,2.2388-1.7119,7.1807-5.5635,7.4414c1.4951-2.1343,1.6191-4.3335,1.7295-6.2998 c0.0957-1.7065,0.1787-3.1802,1.1934-4.167c1.8154-1.7651,6.4023,0.7046,7.959,2.1465 c0.168,0.1572,0.4209,0.1768,0.6133,0.0522c1.0068-0.6587,2.127-0.8223,3.6299-0.5332 c0.6084,0.1177,1.2549,0.2773,1.9434,0.4473c0.2691,0.0663,0.5504,0.1343,0.8326,0.202 c-0.6265,2.2396-0.4724,4.1111,0.4731,5.4274c0.8484,1.1804,2.2531,1.8258,4.167,1.9365v2.1599 c-4.4772,0.4395-8.6132,5.6515-10.4541,10.7757c-0.0469,0.1304-0.0371,0.2739,0.0254,0.397 c0.0635,0.1235,0.1748,0.2148,0.3086,0.2529c3.373,0.9619,6.9609,1.4463,10.6943,1.4463c0.7598,0,1.5254-0.02,2.2969-0.0601 c2.8643-0.1494,5.6748-0.5898,8.3506-1.3086c0.1328-0.0356,0.2451-0.125,0.3105-0.2466s0.0771-0.2646,0.0332-0.3955 c-0.3698-1.1026-3.7694-10.5858-10.5654-10.894v-2.1198c1.9501-0.0836,3.4339-0.7495,4.2969-1.9559 c0.9719-1.3593,1.0783-3.2653,0.3214-5.5145c1.2414-6.2615,4.9692-8.7794,7.0907-9.7223 c0.0947-0.042,0.1738-0.1123,0.2266-0.2012c0.5977-1.0044,1.5303-2.1284,2.4736-2.5098c0.499,1.0474,0.8457,2.5352,0.3682,3.75 c-0.0781,0.1987-0.0225,0.4248,0.1406,0.5635c1.9121,1.6323,3.6836,4.5713,4.6914,6.7295l-1.9414,1.9341 c-1.1572-0.4292-2.1748-0.9009-3.0059-1.2861c-0.6836-0.3169-1.2246-0.5674-1.6543-0.7104 c-0.1279-0.0444-0.2686-0.0327-0.3877,0.0298c-0.1201,0.062-0.21,0.1699-0.249,0.2988 c-2.2031,7.248-1.9326,14.4453,0.7812,20.813c0.1055,0.2485,0.3896,0.3652,0.6387,0.2715 c1.5205-0.5806,2.9521-1.2363,4.2539-1.9478c0.749-0.4111,2.9883-0.4199,4.1191,0.6938 C41.6582,41.1602,34.707,43.353,27.5078,43.728z" stroke-width="0"/> </g> </g> </g> </g> </g> <g id="Margin" class="st1"> <rect x="1" y="1" class="st2" /> </g> <g id="Guides" class="st1"> </g> <g id="LABELS"> <g> <g> <g> <g> <g> <g> <g> </g> </g> </g> </g> </g> </g> </g> </g> </svg> 