<?xml version="1.0" encoding="utf-8"?> <!-- Generator: Adobe Illustrator 27.7.0, SVG Export Plug-In . SVG Version: 6.00 Build 0) --> <svg width="70" height="70" version="1.1" xmlns="http://www.w3.org/2000/svg" xmlns:xlink="http://www.w3.org/1999/xlink" x="0px" y="0px" viewBox="-10 -10 70 70" style="enable-background:new 0 0 50 50;" xml:space="preserve"><rect x="-10" y="-10" width="70" height="70" fill="white"/> <style type="text/css"> .st0{fill:#FFCD00;} .st1{display:none;} .st2{display:inline;fill:none;stroke:#EA008A;stroke-width:0.2;stroke-miterlimit:10;} .st3{font-family:'Roboto-Regular';} .st4{font-size:6px;} </style> <g id="Color"> <path class="st0" d="M49.1938,16.2329c-0.1401-0.2192-0.354-0.3447-0.6357-0.3721l-6.3089-0.724 c-0.8465-2.5426-3.204-5.0932-7.1223-5.84c-2.6318-0.499-6.7109,0.4561-9.0835,3.2192c-2.1714,2.5298-2.519,6.126-1.0049,10.3989 c0.353,0.9951-0.1616,2.1113-1.147,2.4883c-4.707,1.8018-9.6411,2.043-14.269,0.7046c-0.811-0.2354-1.6411-0.688-2.4434-1.1255 c-0.9053-0.4937-1.8335-1-2.4575-1c-0.1992,0-0.3677,0.0518-0.4941,0.1719c-0.8755,0.8315-1.2363,9.3511,2.6709,14.7227 c1.6636,2.2876,3.9321,3.7324,5.7231,4.7358c0.2505,0.1406,0.5576,0.2148,0.8872,0.2148h19.0493 c0.3413,0,0.6562-0.0786,0.9111-0.2266c1.5518-0.9043,3.1206-2.3481,4.1963-3.8623c3.0015-4.2236,3.0825-8.7637,0.2168-12.144 c-0.8462-0.998-1.1729-1.9009-0.999-2.7593c0.21-1.0332,1.1519-1.9585,2.8794-2.8296c0.6631-0.3343,1.2073-0.7838,1.6486-1.3073 c1.4315-0.025,3.7066-0.1825,4.4832-0.4046c1.8604-0.5312,2.8374-1.3726,3.3721-2.9028 C49.4121,16.9746,49.3843,16.5308,49.1938,16.2329z" stroke-width="0"/> </g> <g id="ICONS_00000031165542127692736420000002692518830807990202_"> <g> <g> <circle cx="36.7489" cy="14.1413" r="1.2238"/> <g> <path d="M21.0674,27.9849c-1.3394,0.0557-2.4692,0.3599-3.562,0.6543c-1.9473,0.5239-3.9614,1.0669-7.5327,0.3979 c-0.2749-0.0503-0.5327,0.1279-0.5835,0.3989c-0.0513,0.2715,0.1279,0.5327,0.3989,0.5835 c3.7954,0.7114,6.0166,0.1138,7.9771-0.4146c1.0879-0.293,2.1152-0.5698,3.3438-0.6211 c3.708-0.1494,5.6533,0.7207,6.7139,3.0176c0.0845,0.1831,0.2656,0.2905,0.4546,0.2905c0.0698,0,0.1411-0.0146,0.209-0.0459 c0.251-0.1162,0.3604-0.4131,0.2446-0.6636C27.4863,28.8892,25.1963,27.8169,21.0674,27.9849z" stroke-width="0"/> <path d="M48.5366,14.1943c-0.3057-0.4775-0.7964-0.772-1.3726-0.8276l-5.6973-0.6592 c-0.0006-0.0001-0.0012,0.0002-0.0018,0.0002c-1.1041-2.6271-3.6396-5.1287-7.6505-5.8932 c-2.9082-0.5562-7.4131,0.5015-10.0298,3.5503c-1.6865,1.9648-3.2612,5.5347-1.1885,11.3843 c0.1729,0.4883-0.0791,1.0356-0.562,1.2207c-4.502,1.7231-9.2168,1.957-13.6333,0.6772 c-0.7065-0.2046-1.4878-0.6304-2.2432-1.0425c-1.5078-0.8223-3.0674-1.6729-4.1187-0.6753 c-1.4272,1.3555-1.4409,10.5479,2.5508,16.0356c1.7979,2.4722,4.3096,4.0493,6.0425,5.02 c0.3999,0.2241,0.8755,0.3428,1.3765,0.3428h19.0493c0.5176,0,1.0063-0.125,1.4141-0.3623 c1.6689-0.9727,3.3545-2.5229,4.5088-4.1475c3.2832-4.6201,3.3442-9.6182,0.1641-13.3696 c-0.6353-0.749-0.8906-1.3755-0.7812-1.9141c0.1426-0.7031,0.9331-1.4214,2.3491-2.1357 c0.6633-0.3344,1.232-0.7712,1.7132-1.2778c0.3459,0.0147,0.6823,0.0253,0.9953,0.0253c1.2915,0,2.3223-0.126,3.2476-0.3901 c2.1562-0.6162,3.4028-1.7065,4.042-3.5347C48.959,15.5107,48.894,14.7534,48.5366,14.1943z M38.2627,20.5059 c-1.7275,0.8711-2.6694,1.7964-2.8794,2.8296c-0.1738,0.8584,0.1528,1.7612,0.999,2.7593 c2.8657,3.3804,2.7847,7.9204-0.2168,12.144c-1.0757,1.5142-2.6445,2.958-4.1963,3.8623 c-0.2549,0.1479-0.5698,0.2266-0.9111,0.2266H12.0088c-0.3296,0-0.6367-0.0742-0.8872-0.2148 c-1.791-1.0034-4.0596-2.4482-5.7231-4.7358c-3.9072-5.3716-3.5464-13.8911-2.6709-14.7227 c0.1265-0.1201,0.2949-0.1719,0.4941-0.1719c0.624,0,1.5522,0.5063,2.4575,1c0.8022,0.4375,1.6323,0.8901,2.4434,1.1255 c4.6279,1.3384,9.562,1.0972,14.269-0.7046c0.9854-0.377,1.5-1.4932,1.147-2.4883c-1.5142-4.2729-1.1665-7.8691,1.0049-10.3989 c2.3726-2.7632,6.4517-3.7183,9.0835-3.2192c4.563,0.8696,7.0156,4.1855,7.4219,7.0864 C41.395,17.3501,40.353,19.4521,38.2627,20.5059z M47.7666,15.8911c-0.5347,1.5303-1.5117,2.3716-3.3721,2.9028 c-0.8877,0.2538-1.9169,0.3602-3.2226,0.3439c0.7657-1.2427,1.0963-2.7617,0.8676-4.3937 c-0.0457-0.3257-0.1204-0.6566-0.2116-0.9883l5.2302,0.605c0.2817,0.0273,0.4956,0.1528,0.6357,0.3721 C47.8843,15.0308,47.9121,15.4746,47.7666,15.8911z" stroke-width="0"/> </g> </g> </g> </g> <g id="Margin" class="st1"> <rect x="1" y="1" class="st2" /> </g> <g id="Guides" class="st1"> </g> <g id="LABELS"> <g> <g> <g> <g> <g> </g> </g> </g> </g> </g> </g> </svg> 