<?xml version="1.0" encoding="UTF-8"?><svg width="70" height="70" xmlns="http://www.w3.org/2000/svg" viewBox="-10 -10 70 70"><rect x="-10" y="-10" width="70" height="70" fill="white"/><g id="uuid-23af03e0-6058-4958-9d40-3c6792cd1311"><path d="M9.71,3.83l-2.91,2.5,1.06,1.23c.22,.25,.43,.51,.65,.76l1.94,2.25h0c.34,.4,.68,.79,1.02,1.19l1.79,2.08h0c.21,.24,.42,.48,.62,.72l2.18,2.54c.21,.24,.42,.48,.62,.72l2.18,2.54h0c.21,.24,.42,.48,.62,.72l2.18,2.54h0c.21,.24,.42,.48,.62,.72l2.19,2.54h0c.93,1.09,1.87,2.17,2.8,3.26h0c.21,.25,.42,.49,.62,.73l2.19,2.54c.21,.24,.42,.48,.62,.72h0l2.18,2.54c.21,.24,.42,.48,.62,.72l2.18,2.54h0c.21,.24,.42,.48,.62,.72h0l2.18,2.54c.21,.24,.42,.48,.62,.72l2.33,2.71c.61,.71,1.22,1.42,1.83,2.13l.5,.59,2.91-2.5L9.71,3.83Z" fill="#ffcd00" stroke-width="0"/><path d="M46.04,44.84L8.39,1.05c-.18-.21-.5-.23-.71-.05l-3.67,3.16c-.1,.09-.16,.21-.17,.34s.03,.26,.12,.36L41.61,48.65c.1,.11,.24,.17,.38,.17,.12,0,.23-.04,.33-.12l3.67-3.16c.1-.09,.16-.21,.17-.34,0-.13-.03-.26-.12-.36Zm-4,2.78l-1.68-1.96,.42-.36,.61-.52h0l.85-.73c.21-.18,.23-.5,.05-.71-.18-.21-.5-.23-.71-.05l-1.17,1-.36,.31h0l-.35,.3-2.33-2.71s.07-.03,.1-.06l.68-.58c.21-.18,.23-.5,.05-.71s-.5-.23-.71-.05l-.68,.58s-.05,.06-.07,.09l-2.18-2.54s.07-.03,.1-.06l.68-.58c.21-.18,.23-.5,.05-.71-.18-.21-.5-.23-.71-.05l-.68,.58s-.05,.06-.07,.1l-2.18-2.54s.07-.03,.1-.06l.68-.58c.21-.18,.23-.5,.05-.71-.18-.21-.5-.23-.71-.05l-.68,.58s-.05,.06-.07,.1l-2.18-2.54s.07-.03,.1-.06l.68-.59c.21-.18,.23-.5,.05-.71-.18-.21-.5-.23-.71-.05l-.68,.59s-.05,.06-.07,.09l-2.19-2.54s.07-.03,.1-.06l.68-.58c.21-.18,.23-.5,.05-.71s-.5-.23-.71-.05l-.68,.58s-.05,.06-.07,.09l-2.18-2.54s.07-.03,.1-.06l.68-.58c.21-.18,.23-.5,.05-.71-.18-.21-.5-.23-.71-.05l-.68,.58s-.05,.06-.07,.09l-2.19-2.54s.07-.03,.1-.06l.68-.58c.21-.18,.23-.5,.05-.71-.18-.21-.5-.23-.71-.05l-.68,.58s-.05,.06-.07,.09l-2.18-2.54s.07-.03,.1-.06l.68-.58c.21-.18,.23-.5,.05-.71-.18-.21-.5-.23-.71-.05l-.68,.58s-.05,.06-.07,.09l-2.18-2.54s.07-.03,.1-.06l.68-.58c.21-.18,.23-.5,.05-.71-.18-.21-.5-.23-.71-.05l-.68,.58s-.05,.06-.07,.09l-2.18-2.54s.07-.03,.1-.06l.68-.58c.21-.18,.23-.5,.05-.71-.18-.21-.5-.23-.71-.05l-.68,.58s-.05,.06-.07,.09l-2.18-2.54s.07-.03,.1-.06l.68-.58c.21-.18,.23-.5,.05-.71-.18-.21-.5-.23-.71-.05l-.68,.58s-.05,.06-.07,.09l-1.94-2.25,1.94-1.67c.21-.18,.23-.5,.05-.71-.18-.21-.5-.23-.71-.05l-1.94,1.67-1.06-1.23,2.91-2.5L44.96,45.11l-2.91,2.5Z" stroke-width="0"/></g><g id="uuid-87bb4ab2-193c-4b7c-9480-0553a0f9b905"></g></svg>