<?xml version="1.0" encoding="UTF-8"?><svg width="70" height="70" xmlns="http://www.w3.org/2000/svg" viewBox="-10 -10 70 70"><rect x="-10" y="-10" width="70" height="70" fill="white"/><g id="uuid-4843748f-e13c-46dc-b03e-81c767faf4de"><g><path d="M47.61,18.34c-.41-.49-.84-1-.92-1.56-.08-.62,.17-1.26,.42-1.88,.2-.52,.43-1.1,.3-1.34-.17-.3-.82-.37-1.44-.43-.58-.06-1.17-.11-1.63-.38-.46-.26-.81-.75-1.15-1.22-.35-.48-.74-1.03-1.09-1.03h0c-.28,0-.67,.5-1.01,.93-.41,.53-.84,1.07-1.41,1.31-.53,.22-1.18,.11-1.81,0-.33-.06-.69-.12-.98-.12-.26,0-.44,.09-.54,.13-.56,.2-1.03,.62-1.33,.92-.3-1.52-.96-2.97-1.97-4.22-.85,.42-1.6,.97-2.28,1.59l.02-.03c-.19-.4-.51-.87-1.03-1.17-.26-.15-.34-.13-.91-.36-.79-.32-1.2-.47-1.4-.73-.34-.43-.42-1.02-.49-1.6-.04-.35-.12-.93-.27-1.02-.19-.11-.71,.16-1.09,.35-.45,.23-.92,.47-1.39,.48-.49,.02-.94-.22-1.4-.44-.32-.15-.73-.34-.97-.34-.05,0-.1,0-.13,.03-.15,.09-.2,.68-.24,1.03-.05,.58-.11,1.18-.44,1.62-.3,.41-.85,.59-1.38,.78-.42,.15-.95,.33-1.05,.56-.07,.18,.17,.66,.34,1.01,.27,.55,.56,1.12,.46,1.69,0,.03-.02,.06-.03,.11-.14,.45-.32,.77-.48,1-.72-.44-1.5-.81-2.33-1.07-.17,.31-.35,.64-.51,1.01-.36,.81-.59,1.57-.73,2.22h0c0-.09-.02-.18-.05-.22-.16-.2-.71-.23-1.16-.26-.55-.03-1.12-.07-1.53-.37-.43-.33-.65-.88-.87-1.42-.14-.35-.35-.87-.52-.92-.22-.05-.64,.31-.98,.6-.38,.33-.77,.67-1.22,.79-.45,.12-.96,.02-1.45-.07-.27-.05-.58-.11-.82-.11-.15,0-.27,.02-.33,.09-.12,.13-.04,.69,.01,1.06,.08,.57,.17,1.16-.04,1.66-.19,.47-.67,.78-1.13,1.09-.37,.25-.83,.56-.87,.81-.02,.19,.32,.6,.57,.9,.39,.46,.8,.95,.84,1.52,.04,.54-.27,1.05-.58,1.54-.23,.37-.51,.83-.45,1.07s.54,.49,.92,.69c.35,.19,.71,.39,.98,.65H45.04c0,.25-.03,.5-.05,.75h.41c.43-.12,.82-.28,.96-.51h0c.17-.31,0-.93-.15-1.48-.18-.65-.37-1.32-.16-1.9,.22-.62,.8-1.06,1.37-1.48,.43-.32,.92-.69,.96-.98,.05-.37-.38-.88-.76-1.33Z" fill="#ffcd00" stroke-width="0"/><path d="M46.63,15.94c-.32-.38-.65-.77-.69-1.05-.05-.36,.16-.88,.36-1.38,.3-.76,.61-1.54,.24-2.2-.43-.76-1.38-.85-2.21-.93-.47-.05-.96-.09-1.23-.25-.27-.16-.56-.55-.84-.94-.49-.68-1.04-1.44-1.9-1.44h-.02c-.76,0-1.28,.67-1.78,1.32-.33,.42-.68,.86-1.01,1-.26,.11-.77,.02-1.26-.06-.78-.13-1.67-.29-2.31,.21-.05,.04-.07,.09-.11,.13-.44-1.29-1.13-2.51-2.06-3.58-.14-.17-.39-.22-.58-.13-.77,.35-1.48,.78-2.14,1.28,0-.02,0-.03-.01-.05-.28-.65-1.03-.88-1.69-1.08-.35-.11-.79-.24-.92-.4-.17-.21-.23-.69-.28-1.11-.09-.7-.18-1.43-.77-1.76-.66-.38-1.4,0-2.04,.33-.33,.17-.71,.37-.95,.37h0c-.23,0-.61-.18-.95-.34-.66-.31-1.4-.66-2.05-.26-.57,.35-.64,1.08-.71,1.79-.04,.42-.08,.9-.24,1.11-.12,.16-.55,.31-.9,.43-.65,.22-1.39,.48-1.65,1.14-.23,.59,.08,1.21,.38,1.82,.17,.34,.34,.7,.36,.96-.62-.3-1.26-.56-1.94-.75-.21-.06-.44,.03-.56,.22-.53,.84-.93,1.73-1.22,2.65-.18-.02-.35-.03-.52-.04-.37-.02-.82-.05-.98-.17-.21-.16-.39-.6-.55-.99-.26-.65-.54-1.33-1.18-1.51-.73-.21-1.35,.33-1.9,.81-.29,.26-.6,.52-.83,.58s-.62-.01-1-.08c-.71-.13-1.51-.28-2.05,.26-.47,.48-.36,1.2-.26,1.9,.06,.42,.13,.89,.03,1.14-.08,.19-.46,.44-.76,.64-.57,.38-1.21,.81-1.3,1.51-.08,.63,.36,1.16,.79,1.67,.28,.33,.59,.7,.61,.96,.02,.21-.23,.62-.43,.94-.35,.56-.74,1.2-.56,1.85,.18,.65,.84,1,1.42,1.31,.29,.16,.63,.34,.78,.51h-1.48c-.28,0-.5,.22-.5,.5,0,12.07,9.82,21.89,21.89,21.89s21.89-9.82,21.89-21.89c0-.28-.22-.5-.5-.5h-.08c.38-.68,.15-1.52-.05-2.25-.13-.48-.28-1.02-.18-1.3,.12-.33,.58-.67,1.02-1.01,.62-.46,1.26-.94,1.35-1.65,.1-.8-.48-1.49-.99-2.1ZM31.29,7.71c1.87,2.33,2.57,5.3,1.93,8.21-.1,.47-.25,.91-.41,1.35-.82-.65-1.76-1.16-2.77-1.5l.46-2.12c.06-.27-.11-.54-.38-.59-.27-.05-.54,.11-.59,.38l-.45,2.07c-.6-.13-1.22-.19-1.86-.19-.43,0-.86,.04-1.28,.1,.04-.35,.09-.7,.17-1.05,.64-2.91,2.51-5.32,5.18-6.66Zm-4.07,9.85c-3.72,0-6.74,2.99-6.8,6.7h-1.24c.06-4.39,3.64-7.94,8.04-7.94s7.98,3.55,8.04,7.94h-1.24c-.06-3.7-3.09-6.7-6.81-6.7Zm5.81,6.7h-11.61c.06-3.15,2.64-5.7,5.8-5.7s5.74,2.55,5.81,5.7ZM16.85,8.45c.09-.23,.62-.42,1.05-.56,.53-.18,1.08-.37,1.38-.78,.33-.44,.38-1.04,.44-1.62,.03-.35,.09-.94,.24-1.03,.03-.02,.08-.03,.13-.03,.24,0,.66,.2,.97,.34,.46,.22,.91,.46,1.4,.44,.47,0,.93-.25,1.39-.48,.38-.2,.9-.46,1.09-.35,.15,.09,.22,.67,.27,1.02,.07,.58,.15,1.18,.49,1.6,.32,.4,.87,.57,1.4,.73,.43,.13,.96,.3,1.06,.53,.05,.11-.02,.33-.12,.58-1.44,1.44-2.45,3.26-2.9,5.31-.11,.49-.17,.98-.21,1.47-.63,.16-1.23,.39-1.79,.68l-.04-2.21,1.91-1.98c.19-.2,.19-.51-.01-.71-.2-.19-.52-.19-.71,.01l-1.22,1.26-.04-2.72c0-.27-.23-.49-.5-.49h0c-.28,0-.5,.23-.49,.51l.04,2.72-1.26-1.22c-.2-.19-.51-.19-.71,.01-.19,.2-.19,.51,.01,.71l1.98,1.91,.04,2.43c-.96-2.19-2.55-3.98-4.56-5.18,.02-.07,.06-.14,.07-.21,.1-.57-.19-1.14-.46-1.69-.17-.35-.41-.83-.34-1.01Zm-2.04,2.73c3.06,.97,5.45,3.22,6.61,6.21v.03c-1.03,.86-1.86,1.95-2.43,3.19l-.77-1.98c-.1-.26-.39-.38-.65-.29-.26,.1-.39,.39-.29,.65l1.19,3.06c-.19,.71-.3,1.44-.31,2.21h-1.21c.06-.12,.11-.24,.13-.38,.08-.63-.36-1.16-.79-1.67-.28-.33-.59-.7-.61-.96-.02-.21,.23-.61,.43-.94,.35-.56,.74-1.2,.56-1.85-.18-.65-.84-1-1.42-1.31-.34-.18-.76-.4-.85-.59-.11-.23-.03-.71,.05-1.13,.11-.66,.23-1.34-.16-1.84-.11-.15-.25-.26-.4-.34,.23-.71,.53-1.4,.91-2.06ZM3.94,22.86c-.38-.2-.86-.46-.92-.69s.22-.69,.45-1.07c.3-.5,.62-1.01,.58-1.54-.05-.57-.45-1.05-.84-1.52-.25-.3-.59-.7-.57-.9,.03-.25,.5-.56,.87-.81,.46-.31,.94-.62,1.13-1.09,.21-.5,.12-1.09,.04-1.66-.05-.37-.14-.93-.01-1.06,.06-.06,.18-.09,.33-.09,.24,0,.55,.06,.82,.11,.49,.09,1,.19,1.45,.07,.45-.12,.84-.46,1.22-.79,.34-.29,.76-.65,.98-.6,.17,.05,.38,.57,.52,.92,.22,.54,.44,1.09,.87,1.42,.4,.3,.97,.34,1.53,.37,.45,.03,1,.06,1.16,.26,.12,.15,.03,.68-.04,1.06-.1,.6-.21,1.22,.04,1.74,.23,.48,.76,.77,1.28,1.04,.38,.21,.86,.46,.92,.69s-.22,.69-.45,1.07c-.3,.5-.62,1.01-.58,1.54,.05,.57,.45,1.05,.84,1.52,.25,.3,.59,.71,.57,.9-.02,.16-.21,.34-.44,.51h-3.8l.77-1.34c.14-.24,.05-.54-.18-.68-.24-.14-.55-.06-.68,.18l-.92,1.6-.8-2.94,1.37-2.39c.14-.24,.05-.54-.18-.68-.24-.14-.55-.06-.68,.18l-.87,1.52-.71-2.63c-.07-.27-.34-.42-.61-.35-.27,.07-.42,.35-.35,.61l.71,2.63-1.52-.87c-.24-.14-.55-.06-.68,.18-.14,.24-.05,.55,.18,.68l2.39,1.37,.79,2.92h-.17l-1.29-.74c-.24-.14-.55-.06-.68,.18-.1,.18-.08,.4,.04,.56h-2.45c-.02-.12-.06-.24-.11-.35-.23-.48-.76-.77-1.28-1.04Zm20.22,22.79c-9.93,0-18.27-6.97-20.38-16.27H44.54c-2.11,9.3-10.44,16.27-20.38,16.27Zm20.55-17.27H3.61c-.18-1.02-.31-2.06-.33-3.12H45.04c-.03,1.06-.15,2.1-.33,3.12Zm.95-9.48c-.56,.42-1.15,.86-1.37,1.48-.2,.58-.02,1.25,.16,1.9,.15,.55,.32,1.17,.15,1.48h0c-.13,.23-.53,.39-.96,.51h-5.2s0-.09,0-.14c-.07-.27-.34-.42-.61-.35l-1.57,.42c0-.34-.03-.68-.08-1.01l1.38-2.41,3.28-.89c.27-.07,.42-.35,.35-.61s-.34-.42-.61-.35l-2.32,.63,1.78-3.11c.14-.24,.05-.54-.18-.68-.24-.14-.55-.06-.68,.18l-1.78,3.11-.63-2.32c-.07-.27-.34-.42-.61-.35-.27,.07-.42,.35-.35,.61l.89,3.28-.83,1.44c-.44-1.43-1.22-2.71-2.26-3.74,.24-.59,.45-1.2,.59-1.83,.31-1.41,.31-2.83,.07-4.2,.06-.41,.14-.79,.31-.92,.13-.1,.32-.13,.54-.13,.3,0,.65,.06,.98,.12,.63,.11,1.28,.22,1.81,0,.57-.24,1-.78,1.41-1.31,.34-.44,.73-.93,1.01-.93h0c.35,0,.74,.54,1.09,1.03,.34,.47,.69,.96,1.15,1.22,.46,.26,1.05,.32,1.63,.38,.62,.06,1.27,.12,1.44,.43,.14,.24-.09,.83-.3,1.34-.25,.62-.5,1.26-.42,1.88,.08,.57,.5,1.07,.92,1.56,.38,.45,.81,.96,.76,1.33-.04,.29-.53,.66-.96,.98Z" stroke-width="0"/><path d="M27.22,19.44c-.28,0-.5,.22-.5,.5v1.2c0,.28,.22,.5,.5,.5s.5-.22,.5-.5v-1.2c0-.28-.22-.5-.5-.5Z" stroke-width="0"/><path d="M25.02,20.49c-.16-.22-.48-.27-.7-.11-.22,.16-.27,.47-.11,.7l.71,.97c.1,.13,.25,.21,.4,.21,.1,0,.21-.03,.29-.1,.22-.16,.27-.47,.11-.7l-.71-.97Z" stroke-width="0"/><path d="M24.31,22.89l-1.14-.37c-.27-.08-.54,.06-.63,.32-.08,.26,.06,.54,.32,.63l1.14,.37c.05,.02,.1,.02,.15,.02,.21,0,.41-.13,.48-.35,.08-.26-.06-.54-.32-.63Z" stroke-width="0"/><path d="M30.14,22.89c-.26,.08-.41,.37-.32,.63,.07,.21,.26,.35,.48,.35,.05,0,.1,0,.15-.02l1.14-.37c.26-.08,.41-.37,.32-.63-.08-.26-.36-.41-.63-.32l-1.14,.37Z" stroke-width="0"/><path d="M30.12,20.38c-.22-.16-.54-.11-.7,.11l-.71,.97c-.16,.22-.11,.54,.11,.7,.09,.06,.19,.1,.29,.1,.15,0,.31-.07,.4-.21l.71-.97c.16-.22,.11-.54-.11-.7Z" stroke-width="0"/></g></g><g id="uuid-d86e1f98-ce60-4e79-9ae7-ebee7e99ccdb"></g></svg>