<?xml version="1.0" encoding="UTF-8"?><svg width="70" height="70" xmlns="http://www.w3.org/2000/svg" viewBox="-10 -10 70 70"><rect x="-10" y="-10" width="70" height="70" fill="white"/><g id="uuid-47a59901-4459-43ba-8bfe-fc199b09e620"><g><path d="M24.7,6.03c.48,0,.86-.39,.86-.86s-.39-.86-.86-.86-.86,.39-.86,.86,.39,.86,.86,.86Z" stroke-width="0"/><path d="M20.56,7.81c.48,0,.86-.39,.86-.86s-.39-.86-.86-.86-.86,.39-.86,.86,.39,.86,.86,.86Z" stroke-width="0"/><path d="M28.85,7.81c.48,0,.86-.39,.86-.86s-.39-.86-.86-.86-.86,.39-.86,.86,.39,.86,.86,.86Z" stroke-width="0"/><g><polygon points="36.46 18.52 16.4 18.54 12.55 49.47 40.31 49.47 36.46 18.52" fill="#ffcd00"/><path d="M35.69,16.13c-.01-.1-.06-.18-.12-.25v-4.48h0c0-5.99-4.87-10.86-10.86-10.86S13.85,5.41,13.85,11.39l-.03,4.45c-.07,.08-.13,.18-.14,.29l-3.99,32.04c-.02,.15,.03,.3,.13,.41s.24,.18,.39,.18h28.95c.15,0,.29-.06,.39-.18s.15-.26,.13-.41l-3.99-32.04Zm-20.82-.46l.02-2.4h19.65v2.4H14.86ZM24.72,1.58c5.41,0,9.82,4.4,9.82,9.82v.84H14.89v-.84c0-5.41,4.41-9.82,9.83-9.82ZM10.8,47.72l3.85-30.93,20.07-.02,3.85,30.95H10.8Z" stroke-width="0"/><path d="M18.62,19.73c-.28-.04-.55,.16-.59,.45l-3.17,24.16c-.04,.29,.16,.55,.45,.59,.02,0,.05,0,.07,0,.26,0,.48-.19,.52-.45l3.17-24.16c.04-.29-.16-.55-.45-.59Z" stroke-width="0"/><path d="M31.2,20.17c-.04-.29-.3-.49-.59-.45-.29,.04-.49,.3-.45,.59l3.17,24.16c.03,.26,.26,.45,.52,.45,.02,0,.05,0,.07,0,.29-.04,.49-.3,.45-.59l-3.17-24.16Z" stroke-width="0"/><path d="M24.47,34.69c.46,0,.83,.11,1.08,.34s.39,.54,.39,.95h1.83c0-.53-.14-1.01-.41-1.43s-.66-.75-1.16-.98-1.06-.35-1.7-.35-1.2,.11-1.71,.32-.9,.51-1.17,.88-.41,.81-.41,1.29c0,.93,.51,1.66,1.52,2.21,.37,.2,.88,.4,1.51,.61,.64,.21,1.08,.4,1.32,.59,.24,.19,.37,.45,.37,.8,0,.32-.12,.57-.37,.74-.25,.18-.59,.27-1.02,.27-1.17,0-1.76-.49-1.76-1.47h-1.84c0,.58,.15,1.08,.44,1.52,.3,.44,.73,.78,1.29,1.03,.56,.25,1.19,.38,1.87,.38,.99,0,1.77-.22,2.36-.66,.58-.44,.88-1.04,.88-1.81,0-.69-.24-1.27-.72-1.74-.48-.46-1.24-.85-2.28-1.17-.57-.17-1-.35-1.29-.55-.29-.2-.44-.44-.44-.73,0-.31,.12-.56,.37-.75,.25-.19,.6-.29,1.05-.29Z" stroke-width="0"/></g></g></g><g id="uuid-dea65934-396e-42e1-934f-3fa99b67334a"></g></svg>