<?xml version="1.0" encoding="UTF-8"?><svg width="70" height="70" id="uuid-04b4a635-1fa3-4b1f-8018-ad8572e6c5ab" xmlns="http://www.w3.org/2000/svg" viewBox="-10 -10 70 70"><rect x="-10" y="-10" width="70" height="70" fill="white"/><path d="M36.81,16.83h-.5v-5.55h-10.8v5.55h-4.63V49.48h20.05V16.83h-4.13Zm-.07,17.92h-3.74c-.28,0-.5,.22-.5,.5v3.74h-4.69v-.75h-.75v-3.49h-3.48v-.75h-.75v-4.69h3.73c.28,0,.5-.22,.5-.5v-3.73h4.69v.75h.75v3.48h3.49v.75h.75v4.69Z" fill="#ffcd00" stroke-width="0"/><path d="M15.35,10.73h0s-.04-.09-.07-.14l-1.7-2.94-1.69,2.92c-.04,.07-.07,.12-.1,.17-.15,.29-.22,.6-.22,.92,0,1.11,.9,2.01,2.01,2.01s2.01-.9,2.01-2.01c0-.32-.07-.62-.22-.91v-.02Z" fill="#ffce0a" stroke-width="0"/><path d="M39.94,14.33h-4.13v-5.05c0-.28-.22-.5-.5-.5h-5.4V1.52h2.82c.28,0,.5-.22,.5-.5s-.22-.5-.5-.5H12.07c-.28,0-.5,.22-.5,.5s.22,.5,.5,.5H28.91v7.26h-5.4c-.28,0-.5,.22-.5,.5v5.05h-4.13c-.28,0-.5,.22-.5,.5V48.48c0,.28,.22,.5,.5,.5h21.05c.28,0,.5-.22,.5-.5V14.83c0-.28-.22-.5-.5-.5Zm-15.92-4.55h10.8v4.55h-10.8v-4.55Zm15.42,38.2H19.39V15.33h20.05V47.98Z" stroke-width="0"/><path d="M14.74,8.77c-.04-.08-.08-.15-.12-.2l-2.12-3.67c-.09-.15-.25-.25-.43-.25s-.34,.1-.43,.25l-2.11,3.65c-.04,.07-.08,.14-.13,.24-.22,.43-.33,.89-.33,1.36,0,1.66,1.35,3.01,3.01,3.01s3.01-1.35,3.01-3.01c0-.48-.11-.93-.33-1.36v-.02Zm-2.68,3.39c-1.11,0-2.01-.9-2.01-2.01,0-.32,.07-.62,.22-.92,.03-.05,.06-.1,.1-.17l1.69-2.92,1.7,2.94s.06,.09,.07,.12h0v.03c.15,.29,.23,.59,.23,.91,0,1.11-.9,2.01-2.01,2.01Z" stroke-width="0"/><path d="M26.56,34h-2.98v.75h3.48v-.25c0-.28-.22-.5-.5-.5Z" fill="none" stroke-width="0"/><path d="M32.26,29.31h.25v-3.48h-.75v2.98c0,.28,.22,.5,.5,.5Z" fill="none" stroke-width="0"/><path d="M35.99,34h-3.74c-.28,0-.5,.22-.5,.5v3.74h-3.94v.75h4.69v-3.74c0-.28,.22-.5,.5-.5h3.74v-4.69h-.75v3.94Z" fill="none" stroke-width="0"/><path d="M36.49,28.31h-3.74v-3.73c0-.28-.22-.5-.5-.5h-5.69c-.28,0-.5,.22-.5,.5v3.73h-3.73c-.28,0-.5,.22-.5,.5v5.69c0,.28,.22,.5,.5,.5h3.73v3.74c0,.28,.22,.5,.5,.5h5.69c.28,0,.5-.22,.5-.5v-3.74h3.74c.28,0,.5-.22,.5-.5v-5.69c0-.28-.22-.5-.5-.5Zm-.5,5.69h-3.74c-.28,0-.5,.22-.5,.5v3.74h-4.69v-3.74c0-.28-.22-.5-.5-.5h-3.73v-4.69h3.73c.28,0,.5-.22,.5-.5v-3.73h4.69v3.73c0,.28,.22,.5,.5,.5h3.74v4.69Z" stroke-width="0"/></svg>