<?xml version="1.0" encoding="utf-8"?> <!-- Generator: Adobe Illustrator 27.7.0, SVG Export Plug-In . SVG Version: 6.00 Build 0) --> <svg width="70" height="70" version="1.1" xmlns="http://www.w3.org/2000/svg" xmlns:xlink="http://www.w3.org/1999/xlink" x="0px" y="0px" viewBox="-10 -10 70 70" style="enable-background:new 0 0 50 50;" xml:space="preserve"><rect x="-10" y="-10" width="70" height="70" fill="white"/> <style type="text/css"> .st0{fill:#FFCD00;} .st1{display:none;} .st2{display:inline;fill:none;stroke:#EA008A;stroke-width:0.2;stroke-miterlimit:10;} .st3{font-family:'Roboto-Regular';} .st4{font-size:6px;} </style> <g id="Color"> <path class="st0" d="M48.0195,13.5547l-6.6558-5.8564c-0.1216-0.1064-0.1836-0.2646-0.1675-0.4258 c0.1753-1.7188-0.4819-2.8086-1.2109-3.127c-0.498-0.2158-1.0259-0.0703-1.4434,0.4043l-8.1659,9.2811l4.452,8.8322l7.9868,1.2432 l5.4688-6.2148c0.5171-0.5879,0.7744-1.3418,0.7246-2.123C48.958,14.7871,48.6069,14.0723,48.0195,13.5547z M45.0513,18.2236 c-0.4526,0.5146-1.0781,0.8213-1.7612,0.8652c-0.0562,0.0039-0.1123,0.0059-0.168,0.0059c-0.623,0-1.2173-0.2236-1.6895-0.6396 l-4.8604-4.2764c-1.061-0.9336-1.1646-2.5566-0.2314-3.6182c0.9336-1.0625,2.5566-1.1641,3.6182-0.2305l4.8604,4.2764 C45.8809,15.5391,45.9849,17.1621,45.0513,18.2236z" stroke-width="0"/> <path class="st0" d="M38.2886,38.6605l2.7969-1.4818l-1.6729-3.1562l-2.7189,1.4396c-1.4014-1.718-3.4745-2.8304-5.7889-2.8664 c-0.0415-0.001-0.0835-0.001-0.125-0.001c-2.0503,0-3.9785,0.7891-5.4414,2.2295c-1.4937,1.4707-2.3164,3.4346-2.3164,5.5303 v5.2666c0,0.9971,0.8115,1.8086,1.8086,1.8086h11.9009c0.9971,0,1.8086-0.8115,1.8086-1.8086v-4.9697 c0-0.6894-0.0939-1.3564-0.2535-1.9971C38.2871,38.6564,38.288,38.6584,38.2886,38.6605z" stroke-width="0"/> </g> <g id="ICONS_00000031165542127692736420000002692518830807990202_"> <g> <path d="M48.8809,13.6289c-0.0669-1.0479-0.5376-2.0068-1.3262-2.6992l-6.4668-5.6904c0.1411-2.2109-0.8799-3.4717-1.8276-3.8848 c-0.8965-0.3926-1.8916-0.1396-2.5942,0.6602l-7.9175,8.999c-0.0002,0.0002-0.0002,0.0007-0.0004,0.0009l-0.0001,0.0001 L1.0327,42.6387c-0.1816,0.207-0.1616,0.5215,0.0449,0.7041l4.127,3.6436c0.0928,0.082,0.2109,0.125,0.3311,0.125 c0.0508,0,0.1021-0.0078,0.1519-0.0234l2.0767-0.6621c0.1479-0.0469,0.2656-0.1602,0.3184-0.3066l0.7896-2.1846l2.2847,0.415 c0.2397,0.0381,0.4766-0.0918,0.5596-0.3223l0.79-2.1836l2.2847,0.415c0.2393,0.04,0.4766-0.0928,0.5596-0.3223l0.79-2.1836 l2.2847,0.4141c0.2388,0.0391,0.4761-0.0918,0.5596-0.3223l0.79-2.1836l0.8149,0.1484c-0.0406,0.3446-0.0679,0.6923-0.0679,1.0449 v5.2666c0,1.5488,1.2598,2.8086,2.8086,2.8086h11.9009c1.4067,0,2.5641-1.0425,2.7667-2.3936h2.8471v1.2021 c0,0.2764,0.2236,0.5,0.5,0.5s0.5-0.2236,0.5-0.5v-1.7021c0-0.2764-0.2236-0.5-0.5-0.5H38.04v-4.3848 c0-0.4964-0.0493-0.9809-0.125-1.4567l2.5801-1.3666c0.1172-0.0615,0.2051-0.168,0.2441-0.2949 c0.0391-0.126,0.0259-0.2637-0.0361-0.3809l-2.1411-4.04c-0.1299-0.2441-0.4336-0.3379-0.6758-0.207l-2.4706,1.3088 c-0.544-0.5547-1.1553-1.0382-1.8226-1.4325l0.7184-1.9857l2.2847,0.415c0.2407,0.04,0.4766-0.0918,0.5596-0.3223l0.7896-2.1836 l2.2847,0.415c0.1226,0.0205,0.252-0.0029,0.3579-0.0703l3.0635-1.9521c0.2256-0.1436,0.2983-0.4395,0.165-0.6709l-1.2842-2.2314 c-0.0124-0.0215-0.0322-0.0347-0.0471-0.0536l5.4246-6.1651C48.603,15.6885,48.9482,14.6768,48.8809,13.6289z M37.9126,32.5225 l1.6729,3.1562l-1.888,1.0005c-0.3268-1.1776-0.8751-2.2617-1.6027-3.1943L37.9126,32.5225z M37.04,39.1514v4.9697 c0,0.9971-0.8115,1.8086-1.8086,1.8086H23.3306c-0.9971,0-1.8086-0.8115-1.8086-1.8086v-5.2666 c0-2.0957,0.8228-4.0596,2.3164-5.5303c1.4629-1.4404,3.3911-2.2295,5.4414-2.2295c0.0415,0,0.0835,0,0.125,0.001 C33.6147,31.1611,37.04,34.7754,37.04,39.1514z M42.7109,25.0107l-2.4951,1.5898l-2.5078-0.4551 c-0.2422-0.0391-0.4761,0.0918-0.5596,0.3223l-0.7896,2.1836l-2.2847-0.415c-0.2422-0.0381-0.4761,0.0918-0.5596,0.3223 l-0.8181,2.2617c-1.0109-0.4476-2.1164-0.7064-3.2762-0.7245c-2.3813-0.0469-4.5981,0.8574-6.2837,2.5156 c-1.1917,1.1734-1.9958,2.6278-2.3703,4.2136l-1.2288-0.2233c-0.2368-0.041-0.4766,0.0918-0.5596,0.3223l-0.79,2.1836 l-2.2847-0.4141c-0.2402-0.04-0.4766,0.0928-0.5596,0.3223l-0.79,2.1836l-2.2847-0.415 c-0.2397-0.0381-0.4766,0.0918-0.5596,0.3223l-0.79,2.1836l-2.2847-0.415c-0.2393-0.04-0.4761,0.0918-0.5596,0.3223 l-0.8496,2.3506l-1.5718,0.501l-3.5405-3.126l26.8981-30.6925l4.6917,9.3077c0.0718,0.1436,0.208,0.2432,0.3662,0.2686 l7.5415,1.2247c0.0099,0.0553,0.0246,0.1105,0.0542,0.162L42.7109,25.0107z M47.1587,15.8164l-5.4688,6.2148l-7.209-1.1709 l-4.7583-9.4404l7.6943-8.7451c0.4175-0.4746,0.9453-0.6201,1.4434-0.4043c0.729,0.3184,1.3862,1.4082,1.2109,3.127 c-0.0161,0.1611,0.0459,0.3193,0.1675,0.4258l6.6558,5.8564c0.5874,0.5176,0.9385,1.2324,0.9888,2.0137 C47.9331,14.4746,47.6758,15.2285,47.1587,15.8164z" stroke-width="0"/> <path d="M38.834,8.4551c-1.0615-0.9336-2.6846-0.832-3.6182,0.2305c-0.9331,1.0615-0.8296,2.6846,0.2314,3.6182l4.8604,4.2764 c0.4722,0.416,1.0664,0.6396,1.6895,0.6396c0.0557,0,0.1118-0.002,0.168-0.0059c0.6831-0.0439,1.3086-0.3506,1.7612-0.8652 c0.9336-1.0615,0.8296-2.6846-0.2319-3.6172L38.834,8.4551z M43.1753,15.6885c-0.5698,0.6465-1.5601,0.71-2.207,0.1416 l-4.8604-4.2764c-0.6475-0.5703-0.7104-1.5605-0.1411-2.208c0.3086-0.3506,0.7402-0.5293,1.1743-0.5293 c0.3672,0,0.7358,0.1279,1.0327,0.3887l4.8604,4.2764C43.6812,14.0508,43.7446,15.041,43.1753,15.6885z" stroke-width="0"/> <path d="M36.0098,17.45c-0.3438,0.3907-0.3057,0.9861,0.085,1.3298c0.3907,0.3438,0.9861,0.3057,1.3299-0.085 c0.3438-0.3907,0.3057-0.9861-0.085-1.3298C36.9489,17.0212,36.3535,17.0592,36.0098,17.45z" stroke-width="0"/> <path d="M24.3916,38.8545c0,2.6953,2.1934,4.8887,4.8892,4.8887c2.6963,0,4.8896-2.1934,4.8896-4.8887 c0-2.6963-2.1934-4.8896-4.8896-4.8896C26.585,33.9648,24.3916,36.1582,24.3916,38.8545z M33.1704,38.8545 c0,2.1445-1.7451,3.8887-3.8896,3.8887s-3.8892-1.7441-3.8892-3.8887s1.7446-3.8896,3.8892-3.8896S33.1704,36.71,33.1704,38.8545z " stroke-width="0"/> </g> </g> <g id="Margin" class="st1"> <rect x="1" y="1" class="st2" /> </g> <g id="Guides" class="st1"> </g> <g id="LABELS"> <g> <g> <g> <g> <g> <g> <g> </g> </g> </g> </g> </g> </g> </g> </g> </svg> 