<?xml version="1.0" encoding="UTF-8"?><svg width="70" height="70" id="uuid-c0ab3a86-6fd1-42f3-b113-3d1c23781933" xmlns="http://www.w3.org/2000/svg" viewBox="-10 -10 70 70"><rect x="-10" y="-10" width="70" height="70" fill="white"/><path d="M40.19,40.65c-.12,.13-.25,.24-.41,.33-.34,.18-.74,.23-1.12,.11-.37-.11-.68-.36-.87-.71L18.68,5.07c-.49-.92-1.47-1.47-2.53-1.4l-2.08,.13,.17,1.92s-.01,.04-.01,.07l.53-.05h.01c1.11,0,2.09,.67,2.48,1.67l14.06,36.55c1.04,2.35,3.22,3.99,5.95,4.48,3.02,.55,6.08-.42,8.2-2.58,2.11-2.17,2.89-5.36,2.17-8.34-.19-.79-.48-1.56-.88-2.3l-.66-1.23c-1.62-3-1.95-5.59-1.93-7.23,0-1.46,.56-2.85,1.56-3.91l.03-.04-11.45-1.46c.52,1,.75,2.11,.64,3.25-.15,1.69,.03,4.39,1.77,7.6l.26,.49,1.93,3.56,1.1,2.04c.86,1.59,.19,2.36,.19,2.36Z" fill="#ffcd00" stroke-width="0"/><g><path d="M30.76,35.73c-.76,.41-1.04,1.35-.63,2.11,.2,.37,.53,.64,.93,.75,.14,.05,.29,.07,.44,.07,.26,0,.51-.06,.74-.19,.37-.2,.64-.53,.76-.93,.12-.4,.07-.82-.12-1.18-.41-.76-1.36-1.04-2.12-.63Zm1.01,1.86c-.13,.07-.29,.09-.43,.05-.14-.05-.26-.14-.33-.28-.15-.27-.05-.61,.22-.75,.09-.05,.18-.07,.27-.07,.2,0,.39,.1,.5,.29,.14,.27,.04,.61-.23,.76Z" stroke-width="0"/><path d="M31.02,32.17c-.2-.36-.53-.63-.93-.75s-.82-.07-1.19,.12c-.75,.41-1.04,1.36-.63,2.12,.29,.52,.82,.82,1.38,.82,.25,0,.5-.06,.74-.19,.76-.41,1.04-1.36,.63-2.12Zm-1.11,1.24c-.27,.15-.61,.04-.76-.23-.14-.27-.04-.61,.23-.76,.08-.04,.17-.06,.27-.06,.05,0,.1,0,.16,.02,.14,.04,.26,.14,.33,.27,.15,.27,.04,.61-.23,.76Z" stroke-width="0"/><path d="M29.03,27.84c-.2-.37-.52-.63-.92-.75-.4-.12-.83-.08-1.19,.12-.37,.2-.64,.53-.76,.93-.11,.4-.07,.82,.13,1.19,.2,.36,.52,.63,.93,.75,.14,.04,.29,.07,.44,.07,.26,0,.51-.07,.74-.19,.76-.41,1.04-1.36,.63-2.12Zm-1.1,1.24c-.27,.14-.62,.04-.76-.23-.07-.13-.09-.28-.05-.43,.05-.14,.14-.26,.27-.33,.09-.04,.18-.07,.27-.07,.05,0,.11,.01,.16,.03,.14,.04,.26,.14,.33,.27,.15,.27,.05,.61-.22,.76Z" stroke-width="0"/><path d="M26.47,24.1c-.21-.38-.69-.53-1.08-.32-.38,.21-.53,.69-.32,1.08,.21,.39,.7,.53,1.08,.32,.39-.21,.53-.69,.32-1.08Z" stroke-width="0"/><path d="M25.12,21.21c-.21-.38-.69-.53-1.08-.32-.38,.21-.53,.69-.32,1.08s.7,.53,1.08,.32c.39-.21,.53-.69,.32-1.08Z" stroke-width="0"/><path d="M23.81,18.3c-.21-.39-.69-.53-1.08-.32-.38,.21-.53,.69-.32,1.08,.21,.38,.69,.53,1.08,.32,.39-.21,.53-.69,.32-1.08Z" stroke-width="0"/><path d="M22.46,15.42c-.21-.38-.7-.53-1.08-.32-.39,.21-.53,.69-.32,1.08,.21,.39,.69,.53,1.08,.32,.38-.21,.53-.69,.32-1.08Z" stroke-width="0"/><path d="M45.72,32.26c-1.52-2.8-1.83-5.22-1.81-6.75,.01-1.2,.47-2.35,1.29-3.23l.69-.75c.13-.14,.17-.33,.11-.51-.07-.18-.23-.3-.41-.33l-13.41-1.71c-.2-.02-.37,.06-.48,.22-.11,.16-.11,.36-.02,.53l.4,.7c.5,.85,.71,1.83,.62,2.83-.17,1.83,.02,4.73,1.88,8.16l3.67,6.79c.06,.11,.07,.24,.04,.36-.04,.12-.12,.22-.23,.28s-.24,.07-.36,.04c-.12-.04-.22-.12-.28-.23L21.96,10.09l.94-.51,.12,.24c.1,.17,.27,.26,.44,.26,.09,0,.17-.01,.24-.06,.25-.13,.34-.43,.2-.67l-.73-1.36c-.13-.24-.44-.33-.68-.2s-.33,.43-.2,.68l.13,.23-.93,.51-1.55-2.86,.93-.5,.13,.24c.09,.16,.27,.26,.44,.26,.08,0,.16-.02,.24-.06,.24-.13,.33-.44,.2-.68l-.73-1.35c-.13-.25-.44-.34-.68-.21-.24,.14-.33,.44-.2,.68l.13,.24-.93,.5-1.16-2.13c-.68-1.26-2.06-2.01-3.48-1.92l-6.85,.44c-.09,0-.18,.04-.25,.09-1.29,.91-2.97,1.36-5.13,1.39-.14,0-.27,.06-.36,.16-.1,.11-.14,.24-.13,.38l.18,2.02c.02,.27,.26,.47,.53,.45l10.73-.86c.66,.03,1.28,.41,1.52,1.03l8.83,22.96-.98,.53-.81-2.12c-.1-.25-.39-.38-.65-.28-.26,.1-.39,.39-.29,.64l6.09,15.83c.08,.2,.27,.32,.47,.32,.06,0,.12-.01,.18-.03,.26-.1,.38-.39,.28-.65l-.63-1.64,.98-.53,.6,1.54c1.19,2.68,3.63,4.54,6.69,5.09,.62,.11,1.23,.16,1.84,.16,2.72,0,5.34-1.07,7.26-3.03,2.97-3.05,3.57-7.9,1.45-11.82l-.66-1.23Zm-9.01,.94c-.21-.38-.25-.82-.13-1.23,.12-.42,.4-.76,.78-.96,.24-.13,.51-.2,.77-.2,.16,0,.31,.02,.47,.07,.25,.07,.46,.21,.65,.38l-1.35,.73c-.25,.13-.34,.44-.2,.68,.09,.17,.26,.26,.43,.26,.09,0,.17-.02,.24-.06l1.35-.73c.05,.25,.04,.51-.03,.76-.13,.41-.4,.75-.78,.96-.38,.21-.82,.25-1.24,.13-.41-.13-.76-.41-.96-.79ZM3.24,5.32l-.09-1c2.06-.09,3.71-.57,5.03-1.47l1.35-.08,.17,1.97s.01,.04,.01,.06l-6.47,.52Zm7.45-.6s.01-.04,0-.06l-.17-1.96,1.3-.08,.17,1.94s.01,.03,.02,.05l-1.32,.11ZM27.2,41.14l-3.92-10.19,.98-.53,3.92,10.19-.98,.53Zm17.01,3.47c-2.12,2.16-5.18,3.13-8.2,2.58-2.73-.49-4.91-2.13-5.95-4.48L16,6.16c-.39-1-1.37-1.67-2.48-1.67h-.01l-.53,.05s.01-.05,.01-.07l-.17-1.92,2.08-.13c1.06-.07,2.04,.48,2.53,1.4l19.11,35.31c.19,.35,.5,.6,.87,.71,.38,.12,.78,.07,1.12-.11,.16-.09,.29-.2,.41-.33,.33,.55,.85,.96,1.48,1.15,.25,.07,.5,.11,.75,.11,.43,0,.85-.11,1.24-.32,.62-.33,1.07-.89,1.27-1.56,.15-.51,.14-1.03-.01-1.53l.46-.25c.12-.07,.21-.18,.24-.31,.03-.12,.02-.25-.04-.37-.13-.24-.44-.33-.68-.2l-.46,.25c-.33-.4-.77-.7-1.28-.85-.67-.2-1.38-.12-1.99,.21-.55,.3-.94,.77-1.17,1.31l-1.1-2.04c.16,.03,.33,.06,.49,.06,.43,0,.85-.11,1.24-.32,.62-.34,1.07-.89,1.27-1.56,.15-.51,.14-1.04-.01-1.53l.46-.25c.24-.13,.33-.44,.2-.68s-.44-.33-.68-.2l-.46,.25c-.33-.4-.77-.7-1.28-.85-.67-.2-1.38-.13-1.99,.21-.55,.29-.95,.77-1.17,1.31l-.26-.49c-1.74-3.21-1.92-5.91-1.77-7.6,.11-1.14-.12-2.25-.64-3.25l11.45,1.46-.03,.04c-1,1.06-1.55,2.45-1.56,3.91-.02,1.64,.31,4.23,1.93,7.23l.66,1.23c.4,.74,.69,1.51,.88,2.3,.72,2.98-.06,6.17-2.17,8.34Zm-3.48-6.34c.09,.17,.26,.26,.44,.26,.08,0,.16-.01,.23-.06l1.35-.73c.05,.25,.04,.51-.03,.76-.12,.41-.4,.76-.78,.96-.38,.21-.82,.25-1.24,.13-.41-.12-.75-.4-.96-.78s-.25-.82-.13-1.24c.13-.41,.4-.76,.78-.96,.25-.13,.51-.2,.77-.2,.42,0,.81,.17,1.12,.45l-1.35,.74c-.25,.13-.34,.43-.2,.67Z" stroke-width="0"/></g></svg>