<?xml version="1.0" encoding="UTF-8"?><svg width="70" height="70" id="uuid-52f62251-3692-4e9c-b39b-5aa07212607a" xmlns="http://www.w3.org/2000/svg" viewBox="-10 -10 70 70"><rect x="-10" y="-10" width="70" height="70" fill="white"/><path d="M35.71,18.16l-2.68-2.58L3.64,47.82c.02,.07,.09,.23,.33,.47,.31,.3,.57,.4,.72,.43L29.92,23.87h0c.59-.58,1.18-1.17,1.78-1.75l.85-.83h0c.24-.23,.48-.47,.71-.7h0l2.46-2.42Z" fill="#ffcd00" stroke-width="0"/><path d="M48.53,1.72c-.14-.19-.39-.27-.61-.17-.46,.2-11.19,4.85-14.68,9.24l-.12,.16c-.06,.08-.1,.18-.1,.29l-.08,2.82-.83-.8h0s-.09-.08-.15-.1h0c-.06-.02-.12-.04-.18-.04h0c-.1,0-.18,.02-.26,.07h0s-.07,.05-.1,.08h0v.02L1.5,46.08c-.05,.08-.42,.76,.53,1.68,.68,.65,1.29,.73,1.55,.73,.05,0,.08,0,.1,0,.11-.01,.22-.06,.3-.14l31.54-31.08c.1-.09,.15-.22,.15-.36s-.06-.26-.15-.36l-.25-.24L48.48,2.35c.16-.17,.18-.44,.05-.63Zm-16.52,17.61l-1.33-1.26c-.2-.19-.52-.18-.71,.02-.19,.2-.18,.52,.02,.71l1.31,1.23-1.67,1.65-1.24-1.17c-.2-.19-.52-.18-.71,.02-.19,.2-.18,.52,.02,.71l1.22,1.15L3.44,47.48c-.15-.03-.41-.13-.72-.43-.25-.24-.32-.4-.33-.47L31.78,14.33l2.68,2.58-2.46,2.42Zm5.4-6.78l-2.85,3.05-.64-.62,.1-3.57h.01c2.36-2.99,8.52-6.23,11.93-7.87l-8.55,9Z" stroke-width="0"/></svg>