<?xml version="1.0" encoding="UTF-8"?><svg width="70" height="70" xmlns="http://www.w3.org/2000/svg" viewBox="-10 -10 70 70"><rect x="-10" y="-10" width="70" height="70" fill="white"/><g id="uuid-8dd4c3d2-71be-45be-9497-94d331ac65ce"><g><g><polygon points="17.23 45.39 17.23 48.51 35.3 48.51 35.3 45.39 32.54 45.39 19.99 45.39 17.23 45.39" fill="#ffcd00"/><rect x="20.44" y="42.33" width="11.64" height="3.05" fill="#ffcd00"/><path d="M11.33,33.88c4.59,0,8.37-2.66,8.71-6.02H2.62c.34,3.36,4.12,6.02,8.71,6.02Z" fill="#ffcd00" stroke-width="0"/><path d="M26.26,9.78c-1.47,0-2.67,1.2-2.67,2.67s1.2,2.67,2.67,2.67,2.67-1.2,2.67-2.67-1.2-2.67-2.67-2.67Z" fill="#ffcd00" stroke-width="0"/><path d="M41.19,33.88c4.59,0,8.37-2.66,8.71-6.02h-17.42c.34,3.36,4.12,6.02,8.71,6.02Z" fill="#ffcd00" stroke-width="0"/></g><path d="M48.93,25.36h-2.03l-6.58-13.92h2.85c.28,0,.5-.22,.5-.5s-.22-.5-.5-.5h-14.79c-.22-1.62-1.5-2.89-3.12-3.12V1.99c0-.28-.22-.5-.5-.5s-.5,.22-.5,.5V7.33c-1.62,.22-2.89,1.5-3.12,3.12H6.36c-.28,0-.5,.22-.5,.5s.22,.5,.5,.5h2.85L2.62,25.36H.6c-.28,0-.5,.22-.5,.5,0,4.14,4.37,7.52,9.73,7.52s9.74-3.37,9.74-7.52c0-.28-.22-.5-.5-.5h-2.03l-6.58-13.92h10.69c.22,1.62,1.5,2.89,3.12,3.12v25.27h-5.78c-.28,0-.55,.27-.55,.55v3.04h-2.71c-.28,0-.5,.22-.5,.5v3.59c0,.28,.22,.5,.5,.5h19.07c.28,0,.5-.22,.5-.5v-3.59c0-.28-.22-.5-.5-.5h-2.71v-3.04c0-.28-.27-.55-.55-.55h-5.78V14.56c1.62-.22,2.89-1.5,3.12-3.12h10.69l-6.58,13.92h-2.03c-.28,0-.5,.22-.5,.5,0,4.14,4.37,7.52,9.73,7.52s9.74-3.37,9.74-7.52c0-.28-.22-.5-.5-.5Zm-30.39,1c-.34,3.36-4.12,6.02-8.71,6.02S1.47,29.72,1.12,26.36H18.54Zm-2.61-1H3.73l6.1-12.9,6.1,12.9Zm17.86,19.06v2.59H15.73v-2.59h18.07Zm-3.21-3.59v2.59h-11.64v-2.59h11.64Zm-5.82-27.22c-1.47,0-2.67-1.2-2.67-2.67s1.2-2.67,2.67-2.67,2.67,1.2,2.67,2.67-1.2,2.67-2.67,2.67Zm14.93-1.15l6.1,12.9h-12.2l6.1-12.9Zm0,19.91c-4.59,0-8.37-2.66-8.71-6.02h17.42c-.34,3.36-4.12,6.02-8.71,6.02Z" stroke-width="0"/></g></g><g id="uuid-01eceb1d-bd78-4261-ac9b-01579d49889e"></g></svg>