<?xml version="1.0" encoding="UTF-8"?><svg width="70" height="70" id="uuid-3f0469a4-cdcb-4146-bd74-b4f3da9fa136" xmlns="http://www.w3.org/2000/svg" viewBox="-10 -10 70 70"><rect x="-10" y="-10" width="70" height="70" fill="white"/><path d="M29,10.48l-.64,.64c-.2,.2-.2,.51,0,.71,.1,.1,.23,.15,.35,.15s.26-.05,.35-.15l.64-.64c.2-.2,.2-.51,0-.71s-.51-.2-.71,0Z" fill="#ffcd00" stroke-width="0"/><path d="M21.46,10.26c-.2-.2-.51-.2-.71,0s-.2,.51,0,.71l.64,.64c.1,.1,.23,.15,.35,.15s.26-.05,.35-.15c.2-.2,.2-.51,0-.71l-.64-.64Z" fill="#ffcd00" stroke-width="0"/><path d="M25.05,8.53c-.28,0-.5,.22-.5,.5v.9c0,.28,.22,.5,.5,.5s.5-.22,.5-.5v-.9c0-.28-.22-.5-.5-.5Z" fill="#ffcd00" stroke-width="0"/><path d="M42.93,4.42H10.57c-1.38,0-2.5,1.12-2.5,2.5l1.99,39.64c0,1.43,1.56,2.52,2.91,2.52h27.35c1.4,0,3.1-1.15,3.1-2.5l2-39.69c0-1.35-1.12-2.48-2.5-2.48ZM25.51,15.7v-2.46c.01-.28-.21-.5-.48-.5h0c-.27,0-.5,.22-.5,.5v2.47H15.89c.24-5.37,4.27-9.66,9.2-9.66s8.96,4.28,9.2,9.65c-1.25,0-4.68,.01-8.79,.01Z" fill="#ffcd00" stroke-width="0"/><path d="M25.09,5.05c-5.63,0-10.21,5-10.21,11.16,0,.28,.22,.5,.5,.5h9.78c5.37,0,9.65-.01,9.65-.01,.28,0,.5-.22,.5-.5,0-6.14-4.58-11.14-10.21-11.14Zm.41,10.66v-2.46c.01-.28-.21-.5-.48-.5h0c-.27,0-.5,.22-.5,.5v2.47H15.89c.24-5.37,4.27-9.66,9.2-9.66s8.96,4.28,9.2,9.65c-1.25,0-4.68,.01-8.79,.01Z" stroke-width="0"/><path d="M25.05,8.53c-.28,0-.5,.22-.5,.5v.9c0,.28,.22,.5,.5,.5s.5-.22,.5-.5v-.9c0-.28-.22-.5-.5-.5Z" stroke-width="0"/><path d="M21.46,10.26c-.2-.2-.51-.2-.71,0s-.2,.51,0,.71l.64,.64c.1,.1,.23,.15,.35,.15s.26-.05,.35-.15c.2-.2,.2-.51,0-.71l-.64-.64Z" stroke-width="0"/><path d="M29,10.48l-.64,.64c-.2,.2-.2,.51,0,.71,.1,.1,.23,.15,.35,.15s.26-.05,.35-.15l.64-.64c.2-.2,.2-.51,0-.71s-.51-.2-.71,0Z" stroke-width="0"/><path d="M41.18,1.67H8.82c-1.93,0-3.5,1.57-3.5,3.52l1.99,39.64c0,2,2.06,3.5,3.91,3.5h27.35c1.9,0,4.1-1.53,4.1-3.48l2-39.69c0-1.93-1.57-3.5-3.5-3.5Zm.5,43.16c0,1.35-1.71,2.5-3.1,2.5H11.23c-1.35,0-2.91-1.09-2.91-2.52L6.32,5.17c0-1.38,1.12-2.5,2.5-2.5H41.18c1.38,0,2.5,1.12,2.5,2.48l-2,39.69Z" stroke-width="0"/></svg>