<?xml version="1.0" encoding="UTF-8"?><svg width="70" height="70" xmlns="http://www.w3.org/2000/svg" viewBox="-10 -10 70 70"><rect x="-10" y="-10" width="70" height="70" fill="white"/><g id="uuid-9e36f5f8-43a5-44e3-9fa2-af2bb877171a"><path d="M33.98,23.43c-.71-.11-1.42-.21-2.12-.32h0c-.44-.06-.88-.13-1.31-.19,.14-.22,.29-.44,.43-.66h0c.63-.95,1.27-1.91,1.9-2.87l7.82-11.85c-3.76-1.21-6.64,1.89-6.77,2.03,0,0-4.39,6.2-8.71,12.28l-.18,.25c-.37-.05-.74-.11-1.11-.16l-5.57-.82c-.23-.04-.41-.23-.42-.46v-.15h-.01c-.25-2.52-2.34-4.79-5.2-5.65-3.69-1.11-7.45,.49-8.38,3.57-.92,3.08,1.33,6.49,5.02,7.6,1.5,.45,3.09,.47,4.49,.04,.05-.01,.1-.02,.15-.02,.02,0,.03,0,.05,0,.51,.05,3.05,.35,6.42,.74,.38,.04,.76,.09,1.14,.13l-.49,.69c-1.52,2.14-2.79,3.94-3.52,4.97l-.62,.87c-.04,.06-.09,.1-.15,.14-1.25,.76-2.3,1.96-2.96,3.37-1.64,3.49-.6,7.44,2.31,8.81,2.91,1.36,6.61-.37,8.25-3.86,1.3-2.77,.96-5.88-.84-7.74-.16-.17-.19-.43-.05-.63,.23-.34,1.74-2.61,3.77-5.7h0c.05-.08,.11-.17,.17-.26,.37,.04,.74,.08,1.11,.13,7.31,.84,14.6,1.67,14.6,1.67,.13,0,4.37-.08,5.98-3.7l-15.19-2.25Zm-22.03-3.97c-.15,.5-.53,.9-1.06,1.13-.56,.24-1.23,.27-1.87,.08-.64-.19-1.18-.58-1.52-1.1-.32-.49-.41-1.03-.26-1.53,.15-.5,.53-.9,1.06-1.13,.32-.14,.66-.21,1.02-.21,.28,0,.57,.04,.85,.13,.64,.19,1.18,.58,1.52,1.1,.32,.49,.41,1.03,.26,1.53Zm7.42,18.81c-.31,.67-.85,1.18-1.47,1.41-.48,.17-.96,.16-1.38-.04-.41-.19-.73-.54-.9-1.02-.23-.63-.18-1.38,.14-2.05,.31-.67,.85-1.19,1.48-1.41,.22-.08,.44-.12,.65-.12,.25,0,.5,.05,.72,.16,.41,.19,.72,.54,.9,1.02,.23,.63,.18,1.38-.14,2.05Z" fill="#ffcd00" stroke-width="0"/><path d="M48.54,23.26c-.08-.13-.21-.21-.35-.23l-15.81-2.34c-.63-.09-1.26-.19-1.88-.28,.49-.73,.98-1.48,1.46-2.21l8.16-12.37c.08-.12,.1-.28,.06-.42-.04-.14-.15-.26-.28-.32-4.7-2.03-8.44,2.02-8.51,2.11,0,0-4.29,6.05-8.56,12.08l-5.69-.84c-.39-2.83-2.72-5.33-5.88-6.28-4.22-1.27-8.53,.63-9.62,4.24-1.08,3.61,1.47,7.58,5.69,8.84,1.65,.5,3.41,.52,4.97,.07,.64,.07,2.84,.32,5.76,.66-1.3,1.84-2.38,3.36-3.03,4.28l-.56,.79c-1.37,.86-2.53,2.19-3.26,3.75-1.87,3.99-.62,8.53,2.79,10.14,.81,.38,1.67,.56,2.53,.56,2.78,0,5.62-1.85,7.04-4.9,1.41-3,1.09-6.38-.75-8.56,.51-.77,1.77-2.67,3.39-5.12,7.48,.86,15.11,1.72,15.17,1.73,.06,0,5.57-.08,7.2-4.94,.05-.14,.03-.29-.05-.42Zm-36.24,1.04s-.04,0-.05,0c-.05,0-.1,0-.15,.02-1.4,.42-2.99,.41-4.49-.04-3.69-1.11-5.94-4.52-5.02-7.6,.93-3.08,4.68-4.68,8.38-3.57,2.85,.86,4.94,3.13,5.2,5.65h0v.15c.03,.23,.21,.42,.44,.46l5.57,.82-3.46,4.85c-3.37-.39-5.91-.68-6.42-.74Zm9.53,8.11c1.8,1.86,2.14,4.98,.84,7.74-1.64,3.49-5.34,5.22-8.25,3.86-2.91-1.37-3.95-5.32-2.31-8.81,.66-1.42,1.72-2.61,2.96-3.37,.06-.04,.11-.08,.15-.14l.62-.87c.73-1.03,2-2.82,3.52-4.97l4.1-5.76c4.32-6.08,8.71-12.28,8.71-12.28,.13-.14,3.01-3.24,6.77-2.03l-7.82,11.85c-.63,.96-1.26,1.92-1.9,2.87h0c-1.31,1.98-2.57,3.9-3.68,5.58h0c-2.03,3.08-3.54,5.36-3.77,5.7-.13,.2-.11,.46,.05,.63Zm19.6-4.79s-7.29-.83-14.6-1.67c.94-1.43,1.98-3.01,3.05-4.63,.78,.11,1.56,.23,2.35,.35l15.19,2.25c-1.62,3.62-5.85,3.69-5.98,3.7Z" stroke-width="0"/><path d="M10.46,15.88c-.87-.26-1.78-.22-2.56,.12-.81,.35-1.38,.98-1.62,1.76-.24,.78-.1,1.62,.38,2.36,.46,.71,1.2,1.25,2.07,1.51,.38,.11,.76,.17,1.14,.17,.5,0,.98-.1,1.42-.29,.81-.35,1.38-.98,1.62-1.76,.24-.78,.1-1.62-.38-2.36-.46-.71-1.2-1.25-2.07-1.51Zm1.49,3.58c-.15,.5-.53,.9-1.06,1.13-.56,.24-1.23,.27-1.87,.08-.64-.19-1.18-.58-1.52-1.1-.32-.49-.41-1.03-.26-1.53,.15-.5,.53-.9,1.06-1.13,.32-.14,.66-.21,1.02-.21,.28,0,.57,.04,.85,.13,.64,.19,1.18,.58,1.52,1.1,.32,.49,.41,1.03,.26,1.53Z" stroke-width="0"/><path d="M24.49,24.64c.55-.24,.79-.89,.55-1.44-.24-.55-.89-.79-1.44-.55s-.79,.89-.55,1.44c.24,.55,.89,.79,1.44,.55Z" stroke-width="0"/><path d="M19.03,34.3c-.65-.31-1.41-.34-2.14-.08-.88,.31-1.62,1.02-2.05,1.93-.43,.92-.49,1.94-.17,2.82,.26,.72,.77,1.28,1.42,1.58,.36,.17,.75,.25,1.14,.25,.33,0,.67-.06,1.01-.18,.87-.31,1.61-1.02,2.03-1.92,.43-.92,.49-1.94,.17-2.82-.26-.72-.77-1.28-1.41-1.58Zm.34,3.98c-.31,.67-.85,1.18-1.47,1.41-.48,.17-.96,.16-1.38-.04-.41-.19-.73-.54-.9-1.02-.23-.63-.18-1.38,.14-2.05,.31-.67,.85-1.19,1.48-1.41,.22-.08,.44-.12,.65-.12,.25,0,.5,.05,.72,.16,.41,.19,.72,.54,.9,1.02,.23,.63,.18,1.38-.14,2.05Z" stroke-width="0"/></g><g id="uuid-eab47f3e-9819-479b-ba38-b83e464b6f2b"></g></svg>