<?xml version="1.0" encoding="UTF-8"?><svg width="70" height="70" id="uuid-3724eb33-e4f2-4280-b74c-2ea74d898020" xmlns="http://www.w3.org/2000/svg" viewBox="-10 -10 70 70"><rect x="-10" y="-10" width="70" height="70" fill="white"/><g><path d="M25.69,13.31l6.85-9.6,5.7,.87c.86,.13,1.66,.52,2.29,1.11l9.04,8.53-6.65,7.54-3.36-2.94v28.65c-9.12,1.79-18.24,1.79-27.37,0V18.82l-3.36,2.94L2.18,14.22,11.23,5.69c.63-.59,1.42-.98,2.28-1.11l5.7-.87,6.48,9.6Zm10.65,13.54v-8.22h-8.7v8.22c0,.55,.44,1,1,1h6.7c.55,0,1-.45,1-1Z" fill="#ffcd00" stroke-width="0"/><g><polygon points="30.04 24.41 31.43 24.41 31.43 22.68 33.16 22.68 33.16 21.3 31.43 21.3 31.43 19.57 30.04 19.57 30.04 21.3 28.32 21.3 28.32 22.68 30.04 22.68 30.04 24.41"/><path d="M48.66,12.61l-9.04-8.53c-.71-.67-1.59-1.09-2.56-1.24l-5.67-.87c-3.81-1.05-9.77-1.04-13.51,0l-5.7,.87c-.95,.14-1.83,.57-2.55,1.24L.59,12.61c-.2,.19-.21,.49-.03,.7l6.65,7.54c.18,.21,.5,.23,.7,.04l2.53-2.21v27.55c0,.24,.17,.44,.4,.49,4.58,.9,9.18,1.35,13.79,1.35s9.21-.45,13.78-1.35c.23-.05,.4-.25,.4-.49V18.67l2.53,2.21c.21,.18,.52,.16,.7-.04l6.65-7.54c.18-.2,.16-.51-.03-.69ZM30.45,2.78l-5.99,8.4L18.78,2.79c3.43-.79,8.23-.79,11.66,0Zm11.18,17.02l-2.98-2.61c-.15-.13-.36-.16-.54-.08-.18,.08-.29,.26-.29,.46v28.24c-8.75,1.67-17.61,1.67-26.37,0V17.57c0-.2-.11-.37-.29-.46-.18-.08-.39-.05-.54,.08l-2.99,2.61L1.63,13,10.32,4.8c.56-.53,1.26-.87,2.01-.98l5.39-.83,6.11,9.05-.97,1.36c-.16,.22-.11,.54,.12,.7,.09,.06,.19,.09,.29,.09,.16,0,.31-.07,.41-.21L31.52,3l5.4,.82c.76,.11,1.46,.45,2.02,.98l8.69,8.2-6,6.8Z" stroke-width="0"/><path d="M35.09,16.88h-8.7c-.28,0-.5,.22-.5,.5v8.22c0,.83,.67,1.5,1.5,1.5h6.7c.83,0,1.5-.67,1.5-1.5v-8.22c0-.28-.22-.5-.5-.5Zm-.5,8.72c0,.28-.22,.5-.5,.5h-6.7c-.28,0-.5-.22-.5-.5v-7.72h7.7v7.72Z" stroke-width="0"/></g></g></svg>