<?xml version="1.0" encoding="utf-8"?> <!-- Generator: Adobe Illustrator 27.7.0, SVG Export Plug-In . SVG Version: 6.00 Build 0) --> <svg width="70" height="70" version="1.1" xmlns="http://www.w3.org/2000/svg" xmlns:xlink="http://www.w3.org/1999/xlink" x="0px" y="0px" viewBox="-10 -10 70 70" style="enable-background:new 0 0 50 50;" xml:space="preserve"><rect x="-10" y="-10" width="70" height="70" fill="white"/> <style type="text/css"> .st0{fill:#FFCD00;} .st1{display:none;} .st2{display:inline;fill:none;stroke:#EA008A;stroke-width:0.2;stroke-miterlimit:10;} .st3{font-family:'Roboto-Regular';} .st4{font-size:6px;} </style> <g id="Color"> <path class="st0" d="M25.1094,45.668c0.0835,1.1675,0.6577,2.9771,1.3906,3.7217c0.7515-0.7637,1.3364-2.6479,1.3965-3.8101 c-0.0229-0.0483-0.0376-0.1006-0.041-0.1553c-0.0176-0.2622,0.124-0.4937,0.3853-0.5288c2.2842-0.3071,4.3228-1.2236,6.0586-2.7251 c0.186-0.1606,0.4624-0.1621,0.6504-0.0034c0.0903,0.0771,0.1475,0.1802,0.168,0.2896c1.936,3.0635,7.2593,4.207,9.0518,4.5889 c0.834-1.6802,1.0059-3.3706,0.5098-5.0293c-0.7051-2.3589-2.8354-4.6753-5.6987-6.1963 c-0.2163-0.1147-0.3179-0.3696-0.2393-0.6016c0.6562-1.9404,1.0645-4.0688,1.2129-6.3252 c0.1538-2.3457-0.0796-4.5835-0.6948-6.6509c-0.0713-0.2407,0.0464-0.4966,0.2754-0.5991c0.0928-0.041,0.1929-0.0527,0.2896-0.0361 c5.0161-1.3862,5.8745-6.3218,5.5737-9.2686c-3.1655-1.0273-5.1782,0.5288-7.126,2.0356c-0.7549,0.584-1.4707,1.1372-2.23,1.5195 c-0.0127,0.0142-0.0264,0.0278-0.0415,0.04c-0.189,0.1587-0.4507,0.1836-0.6348,0.0205c-1.2793-1.1279-2.7725-1.9614-4.4395-2.4771 c-0.2358-0.0728-0.3833-0.3076-0.3462-0.5522c0.0146-0.0972,0.0566-0.1846,0.1177-0.2544C32.3242,7.8091,29.3794,5.0801,26.5,3.625 c-2.8911,1.4609-5.8477,4.2051-4.1787,9.1021c0.0405,0.0586,0.0684,0.1255,0.0791,0.1978 c0.0371,0.2446-0.0908,0.4795-0.3267,0.5522c-1.667,0.5156-3.1602,1.3491-4.4395,2.4771c-0.1855,0.1636-0.4624,0.167-0.6523,0.0078 c-0.0361-0.0308-0.0674-0.0654-0.0933-0.1035c-0.7334-0.3804-1.4282-0.918-2.1602-1.4839 c-1.9482-1.5068-3.9604-3.0625-7.1265-2.0361c-0.3022,2.9595,0.5645,7.9238,5.6372,9.2856c0.0752-0.002,0.145,0.0088,0.2134,0.0391 c0.229,0.1025,0.3594,0.3384,0.2881,0.5791c-0.6152,2.0679-0.8486,4.3057-0.6943,6.6509c0.1489,2.2695,0.5596,4.4067,1.2212,6.353 c0.0791,0.2329-0.0234,0.4893-0.2417,0.6035c-2.8691,1.5015-5.0039,3.7954-5.7114,6.1362 c-0.5024,1.6611-0.3281,3.3613,0.5161,5.0596c1.8013-0.3838,7.1714-1.5371,9.0815-4.6367c0.0264-0.0859,0.0752-0.1646,0.146-0.2251 c0.187-0.1606,0.4546-0.1768,0.6416-0.0137c1.7358,1.5015,3.7749,2.4185,6.0596,2.7256c0.2612,0.0352,0.4502,0.2661,0.4326,0.5288 C25.1855,45.5146,25.1562,45.5977,25.1094,45.668z" stroke-width="0"/> </g> <g id="ICONS_00000031165542127692736420000002692518830807990202_"> <g> <g> <g> <circle cx="26.6868" cy="6.0901" r="0.8869"/> <circle cx="23.3132" cy="6.0901" r="0.8869"/> <path d="M38.2977,33.7028c0.6022-1.8881,1.0045-3.9717,1.1539-6.2443c0.1519-2.3091-0.066-4.4873-0.5922-6.4827 c5.6-1.7221,6.4219-7.4035,5.9936-10.5745c-0.0249-0.1841-0.1494-0.3389-0.3237-0.4028 c-3.8516-1.4082-6.3569,0.5278-8.3696,2.085c-0.6714,0.5189-1.3097,1.0035-1.9434,1.3431 c-1.1772-0.972-2.5185-1.7151-3.9913-2.2327c1.7603-5.7745-2.3419-8.7858-5.0073-10.0767c-0.1377-0.0664-0.2979-0.0664-0.4355,0 c-2.6654,1.2909-6.7676,4.3022-5.0073,10.0767c-1.4728,0.5175-2.814,1.2607-3.9913,2.2327 c-0.6337-0.3396-1.272-0.8242-1.9434-1.3431c-2.0132-1.5571-4.5166-3.4946-8.3696-2.085 c-0.1743,0.064-0.2988,0.2188-0.3237,0.4028c-0.4283,3.171,0.3936,8.8524,5.9936,10.5745 c-0.5262,1.9954-0.7441,4.1736-0.5922,6.4827c0.1494,2.2726,0.5518,4.3562,1.1539,6.2443 c-2.9786,1.575-5.1223,3.8837-5.8854,6.368c-0.6284,2.0454-0.3564,4.1597,0.8086,6.2842 c0.0894,0.1626,0.2588,0.2598,0.4385,0.2598c0.0366,0,0.0732-0.0039,0.1099-0.0122l0.3486-0.0757 c1.817-0.3872,7.1646-1.5335,9.4754-4.7141c1.6321,1.2814,3.5296,2.1229,5.6272,2.4896 c0.1274,1.4055,0.8585,3.8788,2.1127,4.6522c0.0801,0.0493,0.1714,0.0742,0.2622,0.0742s0.1821-0.0249,0.2622-0.0742 c1.2543-0.7734,1.9853-3.2467,2.1127-4.6522c2.0976-0.3668,3.9951-1.2083,5.6272-2.4896 c2.3109,3.1805,7.6584,4.3268,9.4754,4.7141l0.3486,0.0757c0.0366,0.0083,0.0732,0.0122,0.1099,0.0122 c0.1797,0,0.3491-0.0972,0.4385-0.2598c1.165-2.1245,1.437-4.2388,0.8086-6.2842C43.42,37.5864,41.2764,35.2777,38.2977,33.7028 z M38.4536,27.3931c-0.2279,3.4676-1.0466,6.4893-2.3301,8.9615l-4.8574-4.3673c-0.0226-0.0203-0.0503-0.0289-0.0752-0.0443 v-9.5459c0.0075-0.0046,0.0166-0.0024,0.0239-0.0074l5.6737-3.9005C38.1141,21.0251,38.6726,24.0667,38.4536,27.3931z M25.3794,43.5028v-7.5002l5.3939-3.1138l4.8498,4.3605C33.3089,41.1021,29.738,43.3765,25.3794,43.5028z M14.377,37.2493 l4.7557-4.2759l5.2468,3.0292V43.49C20.1307,43.2876,16.648,41.0304,14.377,37.2493z M24.3794,11.3555v6.9783l-5.2878,3.0529 l-5.5223-3.7964c0.4946-0.8577,1.0702-1.6495,1.7325-2.3569C17.5667,12.8151,20.6996,11.4916,24.3794,11.3555z M34.6982,15.2334 c0.6623,0.7074,1.2379,1.4992,1.7325,2.3569l-5.6322,3.8719l-5.4191-3.1284V11.345 C29.1644,11.4301,32.3837,12.7621,34.6982,15.2334z M24.8794,35.1367l-5.311-3.0664v-9.8042l5.311-3.0664l5.3115,3.0664v9.8042 L24.8794,35.1367z M36.7715,12.8745c1.9478-1.5073,3.9609-3.0635,7.1265-2.0361c0.295,2.8924-0.5389,7.689-5.3101,9.1772 c-0.2778-0.8489-0.6248-1.6523-1.0258-2.4151c-0.0145-0.0481-0.0297-0.0964-0.0596-0.1401 c-0.0053-0.0076-0.0136-0.0113-0.0192-0.0186c-0.5724-1.058-1.2518-2.0334-2.0555-2.8916 c-0.1361-0.1454-0.2864-0.2722-0.4282-0.4103C35.5931,13.7846,36.1701,13.3397,36.7715,12.8745z M25,2.125 c2.8221,1.426,5.6937,4.0817,4.2761,8.7634c-1.3346-0.3654-2.763-0.5598-4.2761-0.5598c-0.0337,0-0.0656,0.0042-0.0991,0.0043 c-0.0076-0.0004-0.0139-0.0043-0.0215-0.0043c-0.0118,0-0.0217,0.0059-0.0334,0.0067c-1.4554,0.0125-2.8337,0.2003-4.1221,0.553 C19.3063,6.2067,22.1779,3.551,25,2.125z M6.1021,10.8384c3.166-1.0264,5.1782,0.5293,7.1265,2.0361 c0.6014,0.4651,1.1784,0.9101,1.7719,1.2655c-0.1417,0.1381-0.2921,0.2649-0.4282,0.4103 c-0.8036,0.8582-1.483,1.8336-2.0554,2.8916c-0.0056,0.0073-0.014,0.0109-0.0193,0.0186 c-0.0301,0.0438-0.0453,0.0923-0.0599,0.1407c-0.4009,0.7627-0.7478,1.5658-1.0256,2.4145 C6.6409,18.5273,5.8071,13.7308,6.1021,10.8384z M13.1115,18.4892l5.4569,3.7514v9.8955l-4.6918,4.2185 c-1.2836-2.4723-2.1022-5.494-2.3301-8.9615C11.3274,24.0667,11.8859,21.0251,13.1115,18.4892z M7.3301,45.5454 c-0.8838-1.7661-1.0713-3.5073-0.5571-5.1812c0.6735-2.1917,2.5832-4.2487,5.2514-5.6968 c0.9866,2.6546,2.4208,4.8458,4.2132,6.4866C14.2003,44.0658,9.0812,45.1721,7.3301,45.5454z M25,47.8867 c-0.6653-0.686-1.208-2.2878-1.3571-3.4346c0.3916,0.0378,0.7901,0.0578,1.1943,0.0624 c0.0146,0.0013,0.0272,0.0085,0.0422,0.0085c0.0088,0,0.0162-0.0046,0.0248-0.005c0.0325,0.0002,0.0632,0.005,0.0958,0.005 c0.4612,0,0.9121-0.028,1.3571-0.0709C26.208,45.5989,25.6653,47.2007,25,47.8867z M42.6699,45.5454 c-1.7511-0.3733-6.8702-1.4796-8.9075-4.3914c1.7924-1.6408,3.2266-3.832,4.2132-6.4866 c2.6682,1.4481,4.5779,3.5051,5.2514,5.6968C43.7412,42.0381,43.5537,43.7793,42.6699,45.5454z" stroke-width="0"/> </g> </g> </g> </g> <g id="Margin" class="st1"> <rect x="1" y="1" class="st2" /> </g> <g id="Guides" class="st1"> </g> <g id="LABELS"> <g> <g> <g> <g> <g> <g> </g> </g> </g> </g> </g> </g> </g> </svg> 