<?xml version="1.0" encoding="utf-8"?> <!-- Generator: Adobe Illustrator 27.7.0, SVG Export Plug-In . SVG Version: 6.00 Build 0) --> <svg width="70" height="70" version="1.1" xmlns="http://www.w3.org/2000/svg" xmlns:xlink="http://www.w3.org/1999/xlink" x="0px" y="0px" viewBox="-10 -10 70 70" style="enable-background:new 0 0 50 50;" xml:space="preserve"><rect x="-10" y="-10" width="70" height="70" fill="white"/> <style type="text/css"> .st0{fill:#FFCD00;} .st1{display:none;} .st2{display:inline;fill:none;stroke:#EA008A;stroke-width:0.2;stroke-miterlimit:10;} .st3{font-family:'Roboto-Regular';} .st4{font-size:6px;} </style> <g id="Color"> <path class="st0" d="M33.8676,37.5557l-4.8097-12.8292c-0.0001-0.0002-0.0002-0.0002-0.0003-0.0004 c-0.0001-0.0002,0-0.0005-0.0001-0.0008l-0.1753-0.4677l0.9343-0.3563l19.2396-7.3379l-0.7227-1.8955l-4.8211,1.8386 c-0.0004,0.0002-0.0007,0.0005-0.0012,0.0007c-0.0005,0.0002-0.001,0.0001-0.0015,0.0002l-14.5693,5.5563l-0.9993,0.3811 c-0.532-0.5215-1.2243-0.7341-1.8162-0.7341c-0.8711,0-1.9688,0.4434-2.4351,1.6875l-0.2922,0.7794l-1.2461,0.4753l-14.1337,5.39 c-0.0005,0.0002-0.0008,0.0006-0.0013,0.0008c-0.0005,0.0002-0.0011,0.0001-0.0016,0.0003l-4.8211,1.8386l0.7236,1.8955 l17.2845-6.592l1.246-0.4752l-4.0656,10.8445h-0.3463h-2.0244v2.1182h20.2266v-2.1182h-2.0244H33.8676z" stroke-width="0"/> </g> <g id="ICONS_00000031165542127692736420000002692518830807990202_"> <g> <g> <g> <circle cx="25" cy="23.0922" r="1.1201"/> <path d="M49.0439,15.5493l-1.0791-2.8301c-0.0474-0.124-0.1421-0.2241-0.2627-0.2783 c-0.1216-0.0532-0.2578-0.0581-0.3828-0.0107l-4.8223,1.8391l-0.9492-2.4896l0.9477-0.3612 c0.2578-0.0986,0.3872-0.3872,0.2891-0.6455c-0.0986-0.2578-0.3882-0.3892-0.6455-0.2891l-1.4139,0.5389 c-0.0004,0.0001-0.0008,0.0001-0.0012,0.0002s-0.0006,0.0005-0.001,0.0006l-1.4141,0.5389 c-0.2578,0.0986-0.3872,0.3872-0.2891,0.6455c0.0762,0.1992,0.2661,0.3218,0.4673,0.3218c0.0591,0,0.1196-0.0103,0.1782-0.0327 l0.9478-0.3612l0.9492,2.4898l-14.5732,5.5578c-0.5743-0.3801-1.258-0.5975-1.9892-0.5975c-1.5161,0-2.8394,0.917-3.3716,2.3369 l-0.1335,0.3563L7.0023,27.8063l-0.9488-2.4901l0.948-0.3611c0.2578-0.0981,0.3872-0.3872,0.2891-0.6455 c-0.0986-0.2583-0.3877-0.3882-0.6455-0.2891l-2.8306,1.0786c-0.2578,0.0981-0.3872,0.3872-0.2891,0.6455 c0.0762,0.1992,0.2661,0.3218,0.4673,0.3218c0.0591,0,0.1196-0.0107,0.1782-0.0332l0.9479-0.361l0.9492,2.4904L1.2451,30.002 c-0.124,0.0469-0.2241,0.1416-0.2783,0.2627s-0.0581,0.2588-0.0107,0.3828l1.0801,2.8301 c0.0762,0.1992,0.2661,0.3213,0.4673,0.3213c0.0591,0,0.1196-0.0107,0.1782-0.0332l16.9272-6.4558l-3.0445,8.1208h-2.1777 c-0.2764,0-0.5,0.2236-0.5,0.5v3.1182c0,0.2764,0.2236,0.5,0.5,0.5h21.2266c0.2764,0,0.5-0.2236,0.5-0.5v-3.1182 c0-0.2764-0.2236-0.5-0.5-0.5h-2.1777L29.0427,23.713l19.7122-7.5181C49.0127,16.0962,49.1421,15.8076,49.0439,15.5493z M2.7925,32.6533l-0.7236-1.8955L6.89,28.9193c0.0005-0.0002,0.0011-0.0001,0.0016-0.0003 c0.0005-0.0002,0.0008-0.0006,0.0013-0.0008l14.1337-5.39l-0.9496,2.5331L2.7925,32.6533z M35.1133,38.5488H14.8867v-2.1182 h2.0244h16.1777h2.0244V38.5488z M17.6323,35.4307l4.9326-13.1572c0.4663-1.2441,1.564-1.6875,2.4351-1.6875 s1.9688,0.4434,2.4351,1.6875l0.4974,1.3268c0.0001,0.0002,0,0.0005,0.0001,0.0008c0.0001,0.0002,0.0002,0.0002,0.0003,0.0004 l4.4348,11.8292H17.6323z M28.6915,22.7764l-0.3199-0.8535c-0.1364-0.3638-0.326-0.6932-0.5562-0.9839l14.5693-5.5563 c0.0005-0.0002,0.001-0.0001,0.0015-0.0002c0.0004-0.0002,0.0007-0.0005,0.0012-0.0007l4.8211-1.8386l0.7227,1.8955 L28.6915,22.7764z" stroke-width="0"/> </g> </g> </g> </g> <g id="Margin" class="st1"> <rect x="1" y="1" class="st2" /> </g> <g id="Guides" class="st1"> </g> <g id="LABELS"> <g> <g> <g> <g> <g> <g> <g> <g> </g> </g> </g> </g> </g> </g> </g> </g> </g> </svg> 