<?xml version="1.0" encoding="utf-8"?> <!-- Generator: Adobe Illustrator 27.7.0, SVG Export Plug-In . SVG Version: 6.00 Build 0) --> <svg width="70" height="70" version="1.1" xmlns="http://www.w3.org/2000/svg" xmlns:xlink="http://www.w3.org/1999/xlink" x="0px" y="0px" viewBox="-10 -10 70 70" style="enable-background:new 0 0 50 50;" xml:space="preserve"><rect x="-10" y="-10" width="70" height="70" fill="white"/> <style type="text/css"> .st0{fill:#FFCD00;} .st1{display:none;} .st2{display:inline;fill:none;stroke:#EA008A;stroke-width:0.2;stroke-miterlimit:10;} .st3{font-family:'Roboto-Regular';} .st4{font-size:6px;} </style> <g id="Color"> <path class="st0" d="M44.3652,13.1025H12.25c-2.6846,0-4.8691,2.1836-4.8691,4.8682v10.6807h3.6562v3.1748h2.2627v-3.1748h3.8271 l2.0439-4.71c0.0801-0.1826,0.2598-0.3008,0.459-0.3008h8.8984c2.0303,0,3.6816,1.6514,3.6816,3.6816v13.3672H3.7803v5.9375v0.6295 v1.6332h42.3115V14.8301C46.0918,13.8779,45.3174,13.1025,44.3652,13.1025z M38.3594,25.335c-2.2959,0-4.1631-1.8672-4.1631-4.1631 s1.8672-4.1631,4.1631-4.1631s4.1641,1.8672,4.1641,4.1631S40.6553,25.335,38.3594,25.335z" stroke-width="0"/> </g> <g id="ICONS_00000031165542127692736420000002692518830807990202_"> <g> <path d="M48.2197,14.3359h-2.6279v-1.0059c0-1.5039-1.2227-2.7275-2.7266-2.7275h-2.9551V8.3906h2.7422 c0.2764,0,0.5-0.2236,0.5-0.5s-0.2236-0.5-0.5-0.5h-0.5869V2.1104h0.5869c0.2764,0,0.5-0.2236,0.5-0.5s-0.2236-0.5-0.5-0.5H36.167 c-0.2764,0-0.5,0.2236-0.5,0.5s0.2236,0.5,0.5,0.5h0.5869v5.2803H36.167c-0.2764,0-0.5,0.2236-0.5,0.5s0.2236,0.5,0.5,0.5h2.7432 v2.2119H10.75c-3.2363,0-5.8691,2.6328-5.8691,5.8682v11.1807c0,0.2764,0.2236,0.5,0.5,0.5h3.1562v2.6748 c0,0.2764,0.2236,0.5,0.5,0.5h1.1338c-0.0002,0.0052-0.0029,0.0095-0.0029,0.0146v4.2764c0,0.2764,0.2236,0.5,0.5,0.5 s0.5-0.2236,0.5-0.5v-4.2764c0-0.0052-0.0027-0.0095-0.0029-0.0146h1.1348c0.2764,0,0.5-0.2236,0.5-0.5v-2.6748h3.1553 c0.1992,0,0.3789-0.1182,0.459-0.3008l2.0439-4.71h8.5703c1.4785,0,2.6816,1.2031,2.6816,2.6816v12.3672H1.7803 c-0.2764,0-0.5,0.2236-0.5,0.5v9.2002c0,0.2764,0.2236,0.5,0.5,0.5h43.3115c0.2764,0,0.5-0.2236,0.5-0.5v-9.2002V26.873h2.6279 c0.2764,0,0.5-0.2236,0.5-0.5V14.8359C48.7197,14.5596,48.4961,14.3359,48.2197,14.3359z M37.7539,2.1104h3.3115v5.2803h-3.3115 V2.1104z M11.7998,30.3262H9.5371v-2.1748h2.2627V30.3262z M27.0283,22.1406h-8.8984c-0.1992,0-0.3789,0.1182-0.459,0.3008 l-2.0439,4.71H5.8809V23.043h8.2559c0.2764,0,0.5-0.2236,0.5-0.5s-0.2236-0.5-0.5-0.5H5.8809v-5.5723 c0-2.6846,2.1846-4.8682,4.8691-4.8682h32.1152c0.9521,0,1.7266,0.7754,1.7266,1.7275v24.8594H30.71V25.8223 C30.71,23.792,29.0586,22.1406,27.0283,22.1406z M44.5918,39.1895v4.9375H2.2803v-4.9375H44.5918z M2.2803,47.3896V45.127h42.3115 v2.2627H2.2803z M47.7197,25.873h-2.1279V15.3359h2.1279V25.873z" stroke-width="0"/> <path d="M37.2344,25.21c2.8477,0,5.1641-2.3164,5.1641-5.1631s-2.3164-5.1631-5.1641-5.1631 c-2.8467,0-5.1631,2.3164-5.1631,5.1631S34.3877,25.21,37.2344,25.21z M37.2344,15.8838c2.2959,0,4.1641,1.8672,4.1641,4.1631 S39.5303,24.21,37.2344,24.21s-4.1631-1.8672-4.1631-4.1631S34.9385,15.8838,37.2344,15.8838z" stroke-width="0"/> <path d="M37.2344,27.2529c-1.9209,0-3.4844,1.5635-3.4844,3.4854c0,1.9209,1.5635,3.4844,3.4844,3.4844 s3.4844-1.5635,3.4844-3.4844C40.7188,28.8164,39.1553,27.2529,37.2344,27.2529z M37.2344,33.2227 c-1.3701,0-2.4844-1.1143-2.4844-2.4844s1.1143-2.4854,2.4844-2.4854s2.4844,1.1152,2.4844,2.4854 S38.6045,33.2227,37.2344,33.2227z" stroke-width="0"/> </g> </g> <g id="Margin" class="st1"> <rect x="1" y="1" class="st2" /> </g> <g id="Guides" class="st1"> </g> <g id="LABELS"> <g> <g> <g> <g> <g> <g> </g> </g> </g> </g> </g> </g> </g> </svg> 