<?xml version="1.0" encoding="UTF-8"?><svg width="70" height="70" id="uuid-1ce0bbb2-1817-49f0-92bf-2e70d1a4a4a8" xmlns="http://www.w3.org/2000/svg" viewBox="-10 -10 70 70"><rect x="-10" y="-10" width="70" height="70" fill="white"/><path d="M45.62,19.17c.23,.23,.35,.54,.35,.89,0,.33-.12,.64-.35,.87l-12.05,11.95-2.13-2.24,8.16-8.16c.14-.14,.19-.36,.11-.54-.08-.19-.26-.31-.46-.31-22.5,0-24.44,17-24.61,20.23h-3.15c.22-3.44,2.6-23.37,27.7-23.39,.09,0,.17-.01,.25-.04,.18-.08,.31-.26,.31-.46,0-.16-.08-.3-.19-.39l-8.12-8.22,2.23-2.14,11.95,11.95Z" fill="#ffcd00" stroke-width="0"/><g><path d="M33.42,5.65c-.41-.41-1.11-.41-1.52,0l-2.13,2.14c-.42,.42-.42,1.09,0,1.51l7.32,7.32c-27.26,.68-27.58,24.64-27.58,24.88,0,.28,.22,.5,.5,.5h4.16c.28,0,.5-.22,.5-.5,0-.79,.26-19.07,22.39-19.72l-7.29,7.3c-.42,.41-.42,1.09,0,1.51l2.13,2.13c.42,.42,1.1,.42,1.52,0l11.94-11.94c.43-.43,.66-.99,.65-1.58,.01-.61-.22-1.17-.65-1.6l-11.94-11.94Zm11.24,14.41l-12.05,11.95-2.13-2.24,8.16-8.16c.14-.14,.19-.36,.11-.54-.08-.19-.26-.31-.46-.31-22.5,0-24.44,17-24.61,20.23h-3.15c.22-3.44,2.6-23.37,27.7-23.39,.09,0,.17-.01,.25-.04,.18-.08,.31-.26,.31-.46,0-.16-.08-.3-.19-.39l-8.12-8.22,2.23-2.14,11.95,11.95c.23,.23,.35,.54,.35,.89,0,.33-.12,.64-.35,.87Z" stroke-width="0"/><path d="M42.51,27.42c-.28,0-.5,.22-.5,.5v17.43H6.01V9.35H25.12c.28,0,.5-.23,.5-.5s-.22-.5-.5-.5H5.51c-.28,0-.5,.22-.5,.5V45.85c0,.27,.22,.5,.5,.5H42.51c.27,0,.5-.23,.5-.5V27.92c0-.28-.23-.5-.5-.5Z" stroke-width="0"/></g></svg>