<?xml version="1.0" encoding="UTF-8"?><svg width="70" height="70" id="uuid-4bc87cbc-f686-46e5-9add-546a3c3fe34a" xmlns="http://www.w3.org/2000/svg" viewBox="-10 -10 70 70"><rect x="-10" y="-10" width="70" height="70" fill="white"/><polygon points="44.02 22.56 33.58 22.56 32.84 27.45 45.05 27.45 44.02 22.56" fill="#ffcd00"/><polygon points="25.15 20.37 14.72 20.37 13.98 25.27 26.19 25.27 25.15 20.37" fill="#ffcd00"/><polygon points="23.21 12.1 16.79 12.1 16.37 14.9 23.8 14.9 23.21 12.1" fill="#ffcd00"/><path d="M10.7,33.64c-.31,0-.57,.26-.57,.57s.26,.57,.57,.57,.57-.26,.57-.57-.26-.57-.57-.57Z" stroke-width="0"/><path d="M41.1,31.02l-3.29,8.22c-.08,.19-.26,.31-.46,.31h-13.19c-.19,0-.36-.11-.45-.28l-4.13-8.26H6.08l4.52,16.07H44.54l4.74-16.07h-8.18Z" fill="#ffcd00" stroke-width="0"/><polygon points="42.07 15.27 35.65 15.28 35.23 18.06 42.66 18.06 42.07 15.27" fill="#ffcd00"/><polygon points="41.07 9.06 36.71 9.06 36.45 10.78 41.44 10.78 41.07 9.06" fill="#ffcd00"/><path d="M48.61,28.47c-.09-.13-.24-.2-.4-.2h-9.19c-.2,0-.39,.12-.46,.31l-.83,2.09v-3.97h6.21c.15,0,.29-.07,.39-.19s.13-.27,.1-.42l-1.25-5.9c-.05-.23-.25-.4-.49-.4h-4.96v-2.49h3.82c.15,0,.29-.07,.39-.19s.13-.27,.1-.42l-.81-3.79c-.05-.23-.25-.4-.49-.4h-3.01v-2.49h2.59c.15,0,.29-.07,.39-.19s.13-.27,.1-.42l-.58-2.72c-.05-.23-.25-.4-.49-.4h-2.01V3.41c0-.28-.22-.5-.5-.5s-.5,.22-.5,.5v2.9h-2.18c-.25,0-.46,.18-.49,.43l-.41,2.72c-.02,.14,.02,.29,.12,.4,.09,.11,.23,.17,.38,.17h2.59v2.49h-3.24c-.25,0-.46,.18-.49,.42l-.58,3.79c-.02,.14,.02,.29,.12,.4,.09,.11,.23,.17,.38,.17h3.82v2.49h-5.32c-.25,0-.46,.18-.49,.42l-.89,5.9c-.02,.14,.02,.29,.12,.4s.23,.17,.38,.17h6.21v6.43s0,.02,0,.02l-1.46,3.64h-12.54l-3.87-7.74v-4.54h6.21c.15,0,.29-.07,.39-.19s.13-.27,.1-.42l-1.25-5.9c-.05-.23-.25-.4-.49-.4h-4.96v-3.47h3.82c.15,0,.29-.07,.39-.19s.13-.27,.1-.42l-.8-3.8c-.05-.23-.25-.4-.49-.4h-3.01V3.41c0-.28-.22-.5-.5-.5s-.5,.22-.5,.5v5.94h-3.24c-.25,0-.46,.18-.49,.42l-.57,3.8c-.02,.14,.02,.29,.12,.4s.23,.17,.38,.17h3.82v3.47h-5.31c-.25,0-.46,.18-.49,.42l-.89,5.9c-.02,.14,.02,.29,.12,.4s.23,.17,.38,.17h6.21v3.75H3.75l-2.38-.79c-.26-.08-.54,.05-.63,.32-.09,.26,.05,.54,.32,.63l2.2,.74,4.73,16.82c.06,.21,.26,.36,.48,.36H43.17c.22,0,.42-.15,.48-.36l5.04-17.07c.04-.15,.02-.31-.08-.44Zm-13.9-19.44l.26-1.72h4.36l.36,1.72h-4.98Zm-1.23,7.29l.42-2.78,6.42-.02,.59,2.79h-7.44Zm-2.39,9.39l.74-4.9h10.44l1.04,4.9h-12.22ZM14.62,13.15l.42-2.8h6.42l.59,2.8h-7.44Zm-2.39,10.37l.74-4.9h10.44l1.04,4.9H12.23Zm30.57,21.82H8.85L4.33,29.27h13.51l4.13,8.26c.08,.17,.26,.28,.45,.28h13.19c.2,0,.39-.12,.46-.31l3.29-8.22h8.18l-4.74,16.07Z" stroke-width="0"/><path d="M10.7,32.64c-.87,0-1.57,.7-1.57,1.57s.7,1.57,1.57,1.57,1.57-.7,1.57-1.57-.7-1.57-1.57-1.57Zm0,2.14c-.31,0-.57-.26-.57-.57s.26-.57,.57-.57,.57,.26,.57,.57-.26,.57-.57,.57Z" stroke-width="0"/><path d="M41.72,35.77c.87,0,1.57-.7,1.57-1.57s-.7-1.57-1.57-1.57-1.57,.7-1.57,1.57,.7,1.57,1.57,1.57Zm0-2.14c.31,0,.57,.26,.57,.57s-.26,.57-.57,.57-.57-.26-.57-.57,.26-.57,.57-.57Z" stroke-width="0"/><path d="M15.97,32.64c-.87,0-1.57,.7-1.57,1.57s.7,1.57,1.57,1.57,1.57-.7,1.57-1.57-.7-1.57-1.57-1.57Zm0,2.14c-.31,0-.57-.26-.57-.57s.26-.57,.57-.57,.57,.26,.57,.57-.26,.57-.57,.57Z" stroke-width="0"/></svg>