<?xml version="1.0" encoding="UTF-8"?><svg width="70" height="70" xmlns="http://www.w3.org/2000/svg" viewBox="-10 -10 70 70"><rect x="-10" y="-10" width="70" height="70" fill="white"/><g id="uuid-341adc47-7f81-4c44-b0d7-ccff8ee61e6a"><g><path d="M48.63,25.68c.57,1.44,.88,3.02,.87,4.55,0,.77-.09,1.57-.25,2.37l-.04,.16c-.13,.67-.28,1.36-.61,1.9-.2,.32-.51,.45-1.09,.59-1.02,.25-2.11,.32-3.14,.37-.49,.03-.98,.04-1.48,.05h-.1c-.28,.01-33.97,.49-36.26,.39-.51-.02-1.09-.17-1.58-.41-1.45-.73-2.33-2.4-2.19-4.14,.09-1.17,.61-2.13,1.61-3.04,.35-.31,.77-.63,1.28-.96,2.05-1.35,4.36-2.28,6.56-3.09,2.47-.91,5.06-1.63,7.56-2.33l.9-.25s.08-.01,.13-.01c.16,0,.32,.08,.4,.21,.22,.37,1.37,2.24,2.27,2.62,.44,.18,.92,.05,1.39-.07,.36-.09,.74-.19,.98-.11,.15,.05,.36,.32,.55,.56,.31,.41,.67,.87,1.21,1.02,.49,.13,.97-.06,1.43-.25,.34-.13,.68-.28,.89-.23,.17,.04,.43,.29,.65,.51,.35,.36,.76,.77,1.3,.84,.51,.07,.99-.19,1.41-.42,.31-.17,.64-.34,.84-.33,.18,.01,.46,.24,.71,.43,.4,.31,.84,.66,1.39,.68,.5-.02,.96-.32,1.35-.6,.27-.19,.58-.42,.79-.42,.19-.06,.49,.18,.76,.34,.43,.26,.91,.55,1.45,.51,.52-.06,.92-.43,1.28-.76,.25-.22,.52-.48,.73-.51,.18-.03,.51,.12,.8,.26,.46,.2,.97,.44,1.5,.32,.24-.05,.7-.23,1.83-1.22,.3-.26,.7-.36,1.08-.26,.38,.09,.68,.35,.84,.73Z" fill="#ffcd00" stroke-width="0"/><path d="M48.29,24.03c.64,1.59,.97,3.29,.96,4.95,0,.84-.09,1.71-.27,2.58l-.04,.15c-.15,.72-.31,1.53-.74,2.23-.45,.72-1.2,.91-1.7,1.03-1.1,.27-2.25,.35-3.33,.4-.5,.02-1,.04-1.5,.05h-.11c-.25,.01-28.47,.41-35.08,.41-.62,0-1.04-.01-1.24-.02-.65-.02-1.37-.21-1.99-.52-1.81-.91-2.91-2.97-2.74-5.11,.12-1.42,.75-2.63,1.94-3.7,.39-.35,.85-.69,1.4-1.06,2.13-1.4,4.51-2.36,6.76-3.19,2.52-.92,5.12-1.65,7.64-2.35l.9-.25c.58-.16,1.18,.06,1.56,.53,6.44-4.52,9.3-6.39,10.21-6.23,.79,.13,.95,1.12,1.05,1.72l.04,.2c.19,.88,.4,1.87,.89,2.69,1.01,1.67,3.04,1.76,4.16,1.67,.84-.07,1.58-.58,2.39-1.66,.13-.17,.28-.46,.45-.76,.62-1.12,1.66-3.01,3.27-2.14,.77,.4,1.24,1.28,1.59,1.93,.42,.77,.79,1.64,1.14,2.67,.14,.41,.27,.83,.38,1.25,0,0,.11,.3,.28,1.2,.08,.01,.15,.01,.22,.02,.7,.17,1.25,.65,1.51,1.31Zm-.04,4.95c0-1.53-.3-3.11-.87-4.55-.16-.38-.46-.64-.84-.73-.38-.1-.78,0-1.08,.26-1.13,.99-1.59,1.17-1.83,1.22-.53,.12-1.04-.12-1.5-.32-.29-.14-.62-.29-.8-.26-.21,.03-.48,.29-.73,.51-.36,.33-.76,.7-1.28,.76-.54,.04-1.02-.25-1.45-.51-.27-.16-.57-.4-.76-.34-.21,0-.52,.23-.79,.42-.39,.28-.85,.58-1.35,.6-.55-.02-.99-.37-1.39-.68-.25-.19-.53-.42-.71-.43-.2-.01-.53,.16-.84,.33-.42,.23-.9,.49-1.41,.42-.54-.07-.95-.48-1.3-.84-.22-.22-.48-.47-.65-.51-.21-.05-.55,.1-.89,.23-.46,.19-.94,.38-1.43,.25-.54-.15-.9-.61-1.21-1.02-.19-.24-.4-.51-.55-.56-.24-.08-.62,.02-.98,.11-.47,.12-.95,.25-1.39,.07-.9-.38-2.05-2.25-2.27-2.62-.08-.13-.24-.21-.4-.21-.05,0-.09,0-.13,0l-.9,.25c-2.5,.7-5.09,1.42-7.56,2.33-2.2,.81-4.51,1.74-6.56,3.09-.51,.33-.93,.65-1.28,.96-1,.91-1.52,1.87-1.61,3.04-.14,1.74,.74,3.41,2.19,4.14,.49,.24,1.07,.39,1.58,.41,2.29,.1,35.98-.38,36.26-.39h.1c.5,0,.99-.02,1.48-.05,1.03-.05,2.12-.12,3.14-.37,.58-.14,.89-.27,1.09-.59,.33-.54,.48-1.23,.61-1.9l.04-.16c.16-.8,.25-1.6,.25-2.37Zm-2.69-6.19c-.14-.75-.23-.99-.23-.99-.12-.45-.24-.84-.37-1.22-.34-.98-.69-1.8-1.08-2.53-.3-.56-.68-1.26-1.18-1.52-.62-.33-1.14,.32-1.92,1.74-.2,.35-.36,.65-.53,.88-.62,.82-1.62,1.93-3.11,2.06-2.3,.19-4.16-.6-5.1-2.16-.57-.96-.8-2.03-1.01-2.99-.01-.06-.03-.15-.04-.24-.04-.2-.14-.81-.27-.92-.41,.02-1.96,.98-3.8,2.2l1.81,1.81c.2,.19,.2,.51,0,.7-.1,.1-.22,.15-.35,.15s-.26-.05-.36-.15l-1.95-1.95c-.38,.26-.77,.53-1.17,.8l1.97,1.96c.19,.19,.19,.51,0,.71-.1,.09-.23,.14-.36,.14-.12,0-.25-.05-.35-.14l-2.08-2.09s-.01,0-.01-.01c-1.02,.7-1.99,1.39-2.8,1.95,.46,.68,1.01,1.37,1.33,1.5,.13,.06,.49-.04,.76-.11,.48-.12,1.02-.27,1.55-.09,.43,.15,.73,.53,1.02,.9,.23,.3,.46,.6,.68,.66,.16,.05,.5-.09,.8-.21,.45-.18,.96-.38,1.46-.28,.47,.1,.82,.45,1.16,.79,.24,.24,.52,.52,.73,.55,.18,.04,.5-.15,.79-.31,.41-.23,.89-.49,1.4-.45,.48,.04,.87,.35,1.25,.65,.27,.21,.58,.45,.79,.46,.18,0,.48-.22,.75-.41,.38-.28,.82-.59,1.33-.61,.48,0,.91,.24,1.32,.49,.3,.18,.63,.38,.83,.36,.19-.02,.46-.27,.7-.49,.35-.33,.75-.69,1.25-.77,.48-.07,.94,.13,1.38,.34,.31,.14,.67,.3,.87,.26,.03-.01,.34-.1,1.38-1,.23-.2,.49-.33,.76-.42Z" stroke-width="0"/><path d="M46.84,26.98c.22,.17,.26,.48,.09,.7-.1,.12-.25,.19-.4,.19-.11,0-.21-.03-.31-.1l-1.48-1.16c-.22-.17-.26-.49-.09-.71,.17-.21,.48-.25,.7-.08l1.49,1.16Z" stroke-width="0"/><path d="M43.6,28.98c.18,.2,.17,.52-.03,.7-.1,.09-.22,.13-.34,.13-.14,0-.27-.05-.37-.16l-1.82-1.99c-.19-.21-.18-.52,.03-.71,.2-.18,.52-.17,.7,.03l1.83,2Z" stroke-width="0"/><path d="M38.75,30.45c.12,.24,.02,.54-.23,.67-.07,.03-.14,.05-.22,.05-.18,0-.36-.11-.45-.28l-1.4-2.85c-.13-.25-.02-.55,.22-.67,.25-.12,.55-.02,.67,.23l1.41,2.85Z" stroke-width="0"/><path d="M32.78,27.57v3.77c0,.28-.22,.5-.5,.5s-.5-.22-.5-.5v-3.77c0-.27,.22-.5,.5-.5s.5,.23,.5,.5Z" stroke-width="0"/><path d="M28.16,26.34c.25,.12,.35,.42,.23,.67l-1.41,2.85c-.09,.17-.26,.28-.45,.28-.07,0-.15-.02-.22-.06-.25-.12-.35-.42-.23-.67l1.41-2.84c.12-.25,.42-.35,.67-.23Z" stroke-width="0"/><path d="M24.51,25.17c.21,.18,.22,.5,.03,.7l-1.82,2c-.1,.11-.23,.16-.37,.16-.12,0-.24-.04-.33-.13-.21-.19-.22-.5-.04-.71l1.83-1.99c.18-.2,.5-.22,.7-.03Z" stroke-width="0"/><path d="M21.24,23.73c.17,.22,.13,.53-.08,.7l-1.49,1.16c-.09,.07-.2,.11-.31,.11-.15,0-.29-.07-.39-.2-.17-.21-.13-.53,.08-.7l1.49-1.16c.22-.17,.53-.13,.7,.09Z" stroke-width="0"/></g></g><g id="uuid-d588f3bb-6bf6-4037-83fc-2297f411d06b"></g></svg>