<?xml version="1.0" encoding="UTF-8"?><svg width="70" height="70" id="uuid-20d19579-cb90-4f7f-8410-93b6737ea93a" xmlns="http://www.w3.org/2000/svg" viewBox="-10 -10 70 70"><rect x="-10" y="-10" width="70" height="70" fill="white"/><polygon points="46.39 29.77 48.97 14.69 16.42 13.97 23.97 31.78 46.39 29.77" fill="#ffcd00"/><path d="M22.37,44.03c0,1.86,1.51,3.37,3.37,3.37s3.37-1.51,3.37-3.37-1.51-3.37-3.37-3.37-3.37,1.51-3.37,3.37Z" fill="#ffcd00" stroke-width="0"/><path d="M43.95,40.5c-1.86,0-3.37,1.51-3.37,3.37s1.51,3.37,3.37,3.37,3.37-1.51,3.37-3.37-1.51-3.37-3.37-3.37Z" fill="#ffcd00" stroke-width="0"/><path d="M47.42,37.53H20.99c-1.14,0-1.91-.27-2.17-.75-.23-.42-.06-.95,.18-1.31,.85-1.29,3.49-4.42,3.52-4.45h0l22.6-2.04c.23-.02,.41-.19,.45-.41l2.74-16.03c.02-.14-.01-.29-.11-.4-.09-.11-.23-.18-.37-.18l-33.57-.74-2.47-6.11c-.07-.16-.21-.28-.39-.31L2.27,3.35c-.28-.04-.53,.14-.57,.42-.04,.27,.14,.53,.42,.57l8.84,1.39,2.51,6.2h0l7.97,18.81c-.74,.88-2.56,3.09-3.27,4.17-.5,.76-.59,1.66-.22,2.33,.31,.58,1.1,1.28,3.05,1.28h.8c-1.29,.76-2.17,2.15-2.17,3.75,0,2.41,1.96,4.37,4.37,4.37s4.37-1.96,4.37-4.37c0-1.6-.88-2.99-2.17-3.75h13.53c-1.15,.79-1.9,2.11-1.9,3.6,0,2.41,1.96,4.37,4.37,4.37s4.37-1.96,4.37-4.37c0-1.49-.75-2.81-1.9-3.6h2.74c.28,0,.5-.22,.5-.5s-.22-.5-.5-.5Zm-.2-24.59l-2.57,15.08-22.42,2.02L14.67,12.22l32.55,.72Zm-19.85,29.34c0,1.86-1.51,3.37-3.37,3.37s-3.37-1.51-3.37-3.37,1.51-3.37,3.37-3.37,3.37,1.51,3.37,3.37Zm18.21-.15c0,1.86-1.51,3.37-3.37,3.37s-3.37-1.51-3.37-3.37,1.51-3.37,3.37-3.37,3.37,1.51,3.37,3.37Z" stroke-width="0"/></svg>