<?xml version="1.0" encoding="UTF-8"?><svg width="70" height="70" id="uuid-9a7ea724-f218-4824-8c2d-2f13a694eb9b" xmlns="http://www.w3.org/2000/svg" viewBox="-10 -10 70 70"><rect x="-10" y="-10" width="70" height="70" fill="white"/><path d="M39.11,48.52c-1.12-1.25-3.41-3.49-6.55-4.95h.01c.55-.75,1.28-1.96,1.57-3.59,.1-.53,.13-1.02,.14-1.45v-9.36c-2.05,1.75-4.6,2.73-7.3,2.84h-1c-2.71-.11-5.25-1.09-7.3-2.84v9.36c0,.42,.04,.89,.13,1.4,.29,1.63,1.03,2.85,1.58,3.6h0c-3.26,1.54-5.49,3.96-6.53,5.1-.35,.38-.69,.78-1.01,1.19h27.3c-.33-.45-.68-.88-1.04-1.29Z" fill="#ffcd00" stroke-width="0"/><path d="M38.35,46.35c-1.05-1.18-3.1-3.19-5.9-4.71,.83-1.34,1.32-2.92,1.32-4.62v-10.51c0-.2-.12-.39-.31-.46-.19-.08-.4-.03-.55,.11-1.99,2.05-4.62,3.22-7.44,3.34V8.52L31.72,1.01c.12-.15,.15-.36,.07-.53-.08-.18-.26-.29-.45-.29h-12.71c-.19,0-.37,.11-.45,.29-.08,.17-.06,.38,.07,.53l6.24,7.51V29.5c-2.82-.13-5.45-1.29-7.44-3.34-.14-.15-.36-.19-.55-.11-.19,.08-.31,.26-.31,.46v10.51c0,1.69,.48,3.26,1.31,4.6-2.89,1.6-4.88,3.75-5.86,4.82-.6,.65-1.16,1.35-1.68,2.07-.11,.15-.12,.35-.04,.52,.09,.17,.26,.27,.44,.27h29.26c.18,0,.35-.1,.44-.26s.08-.36-.02-.51c-.51-.77-1.07-1.5-1.67-2.18ZM19.69,1.2h10.58l-5.29,6.36L19.69,1.2Zm-2.51,35.83v-9.36c2.05,1.75,4.6,2.73,7.3,2.84v4.09c0,.28,.22,.5,.5,.5s.5-.22,.5-.5v-4.09c2.71-.11,5.25-1.09,7.3-2.84v9.36c0,1.53-.45,2.96-1.22,4.17-2.17-1.03-4.73-1.72-7.6-1.53-2.1,.14-3.96,.72-5.58,1.49-.76-1.2-1.2-2.62-1.2-4.14Zm-5.83,11.28c.32-.41,.66-.81,1.01-1.19,1.52-1.66,5.57-6.05,11.67-6.46,6.72-.44,11.74,4.29,13.58,6.35,.36,.41,.71,.84,1.04,1.29H11.35Z" stroke-width="0"/></svg>