<?xml version="1.0" encoding="UTF-8"?><svg width="70" height="70" xmlns="http://www.w3.org/2000/svg" viewBox="-10 -10 70 70"><rect x="-10" y="-10" width="70" height="70" fill="white"/><g id="uuid-275ffb21-dec8-4090-a594-a4229ae0c9d1"><path d="M23.53,12.65v-1.22h0v-.89h-4.05v2.11c-2.34,.27-4.17,2.24-4.17,4.66v.28h12.36v-.28c0-2.4-1.81-4.36-4.13-4.65Z" fill="#ffcd00" stroke-width="0"/><path d="M27.94,.89c-4.2,0-7.71,2.98-8.53,6.94h-2.19c-.28,0-.5,.22-.5,.5v1.77c-2.4,.67-4.17,2.88-4.17,5.49v.28h-1.07c-.28,0-.5,.22-.5,.5s.22,.5,.5,.5H27.98c.28,0,.5-.22,.5-.5s-.22-.5-.5-.5h-1.07v-.28c0-2.6-1.75-4.8-4.13-5.48v-1.78c0-.28-.22-.5-.5-.5h-1.83c.8-3.4,3.86-5.94,7.5-5.94,4.25,0,7.71,3.46,7.71,7.71V48.56c0,.28,.22,.5,.5,.5s.5-.22,.5-.5V9.6c0-4.8-3.91-8.71-8.71-8.71Zm-2.03,14.99H13.55v-.28c0-2.6,2.11-4.71,4.71-4.71h2.94c2.6,0,4.71,2.11,4.71,4.71v.28Zm-4.13-5.99h-4.05v-1.05h4.05v1.05Z" stroke-width="0"/><path d="M14.34,18.92c-.28,0-.5,.22-.5,.5v2c0,.28,.22,.5,.5,.5s.5-.22,.5-.5v-2c0-.28-.22-.5-.5-.5Z" stroke-width="0"/><path d="M14.34,24.3c-.28,0-.5,.22-.5,.5v3.39c0,.28,.22,.5,.5,.5s.5-.22,.5-.5v-3.39c0-.28-.22-.5-.5-.5Z" stroke-width="0"/><path d="M14.34,31.07c-.28,0-.5,.22-.5,.5v3.39c0,.28,.22,.5,.5,.5s.5-.22,.5-.5v-3.39c0-.28-.22-.5-.5-.5Z" stroke-width="0"/><path d="M14.34,37.85c-.28,0-.5,.22-.5,.5v2c0,.28,.22,.5,.5,.5s.5-.22,.5-.5v-2c0-.28-.22-.5-.5-.5Z" stroke-width="0"/><path d="M19.73,20.85c-.28,0-.5,.22-.5,.5v2c0,.28,.22,.5,.5,.5s.5-.22,.5-.5v-2c0-.28-.22-.5-.5-.5Z" stroke-width="0"/><path d="M19.73,26.65c-.28,0-.5,.22-.5,.5v3.8c0,.28,.22,.5,.5,.5s.5-.22,.5-.5v-3.8c0-.28-.22-.5-.5-.5Z" stroke-width="0"/><path d="M19.73,34.26c-.28,0-.5,.22-.5,.5v3.8c0,.28,.22,.5,.5,.5s.5-.22,.5-.5v-3.8c0-.28-.22-.5-.5-.5Z" stroke-width="0"/><path d="M19.73,41.87c-.28,0-.5,.22-.5,.5v2c0,.28,.22,.5,.5,.5s.5-.22,.5-.5v-2c0-.28-.22-.5-.5-.5Z" stroke-width="0"/><path d="M25.12,18.92c-.28,0-.5,.22-.5,.5v2c0,.28,.22,.5,.5,.5s.5-.22,.5-.5v-2c0-.28-.22-.5-.5-.5Z" stroke-width="0"/><path d="M25.12,25c-.28,0-.5,.22-.5,.5v4.09c0,.28,.22,.5,.5,.5s.5-.22,.5-.5v-4.09c0-.28-.22-.5-.5-.5Z" stroke-width="0"/><path d="M25.12,33.18c-.28,0-.5,.22-.5,.5v2c0,.28,.22,.5,.5,.5s.5-.22,.5-.5v-2c0-.28-.22-.5-.5-.5Z" stroke-width="0"/></g><g id="uuid-a58d0024-357a-43b1-8dcb-1e7a343f833c"></g></svg>