<?xml version="1.0" encoding="UTF-8"?><svg width="70" height="70" xmlns="http://www.w3.org/2000/svg" viewBox="-10 -10 70 70"><rect x="-10" y="-10" width="70" height="70" fill="white"/><g id="uuid-06bd27cc-0f26-44a5-96c5-8dd2ae789b14"><g><path d="M37.72,23.53s-.05-.02-.07-.03c-.15-.07-.3-.1-.45-.11-.04,0-.1-.01-.14-.02l-5.15-.62c-.35-.04-.71,.08-.97,.34-.03,.03-.06,.05-.09,.07l-.12,.07-1.92,1.5c-.25,.19-.4,.47-.44,.78-.04,.31,.05,.62,.24,.87,.19,.25,.47,.4,.78,.44,.31,.04,.62-.05,.87-.24l1.68-1.32c.1-.08,.24-.13,.37-.1l4.17,.5c.11,.01,.21,.06,.28,.13l1.45,1.37s.07,.08,.09,.12c.25,.45,.79,1.65,.43,3.06-.37,1.49-1.59,2.67-3.17,3.09h-.01l-2.07,.49c-.12,.03-.26,0-.38-.06l-3.57-2.21c-.09-.06-.16-.14-.2-.24l-1.03-2.58c-.12-.29-.34-.52-.63-.64-.29-.12-.61-.13-.9-.01s-.52,.34-.64,.63c-.12,.29-.13,.61-.01,.9l1.24,3.11c.13,.34,.38,.52,.57,.61,.04,.02,.08,.05,.11,.08l4.41,2.73c.16,.1,.35,.15,.55,.16,.18,0,.34,.11,.42,.27,.08,.16,.07,.35-.03,.5-.09,.18-.24,.24-.45,.23l-4.6-.26c-.11,0-.21-.05-.29-.11l-2.14-1.78c-.24-.2-.55-.29-.86-.27-.31,.03-.59,.18-.79,.42-.41,.5-.35,1.24,.15,1.66l2.58,2.14c.22,.18,.5,.29,.79,.26,.05,0,.11,0,.15,.02l5.17,.29c.11,0,.23,0,.37-.04,.03,0,.12-.02,.15-.02l1.31-.25c.18-.04,.37,.04,.49,.18,.1,.13,.14,.32,.09,.48-.05,.16-.17,.29-.34,.34l-8.72,2.3c-.3,.08-.56,.27-.71,.54-.16,.27-.2,.59-.12,.89,.17,.63,.8,1,1.44,.84l6.84-1.8s.08-.02,.13-.02c.17,0,.33,.09,.42,.24,.12,.19,.1,.43-.05,.59l-2.3,2.65c-.42,.49-.37,1.23,.12,1.66,.49,.43,1.23,.37,1.66-.12l3.89-4.48,8.53-10.46-1.58-6.77-6.99-3.01Z" fill="#ffcd00" stroke-width="0"/><path d="M24.49,26.03c-.41-.5-1.15-.58-1.65-.17l-1.65,1.34c-.1,.08-.24,.12-.37,.11l-4.17-.43c-.11-.01-.21-.06-.29-.13l-1.47-1.34s-.07-.08-.1-.12c-.25-.44-.81-1.63-.49-3.05,.35-1.5,1.54-2.7,3.12-3.15h.01l2.06-.53c.13-.04,.26-.01,.38,.05l3.61,2.15c.09,.05,.16,.14,.21,.24l1.08,2.57c.12,.29,.35,.51,.64,.63s.61,.12,.9,0c.29-.12,.51-.35,.63-.64,.12-.29,.12-.61,0-.9l-1.3-3.09c-.14-.33-.39-.51-.58-.6-.04-.02-.09-.06-.12-.08l-4.45-2.65c-.16-.1-.35-.15-.55-.15-.17,0-.33-.1-.41-.24-.09-.15-.09-.33-.02-.48,.1-.14,.31-.27,.47-.29l4.6,.18c.11,0,.21,.04,.29,.11l2.17,1.74c.25,.2,.55,.28,.86,.25,.31-.03,.59-.19,.79-.43,.4-.51,.32-1.25-.18-1.65l-2.61-2.1c-.28-.23-.58-.26-.8-.25-.04,.01-.1,0-.14-.01l-5.18-.2c-.1-.01-.22,.01-.37,.05-.03,0-.11,.02-.15,.02l-1.31,.27c-.19,.05-.38-.03-.5-.18-.1-.13-.14-.32-.09-.48,.05-.16,.17-.29,.33-.34l8.68-2.45c.3-.08,.55-.28,.71-.56,.15-.27,.19-.59,.11-.89-.18-.62-.83-.99-1.45-.81l-6.81,1.92c-.21,.06-.44-.03-.56-.21-.12-.18-.1-.42,.04-.59l2.26-2.69c.42-.5,.35-1.24-.15-1.66-.5-.41-1.24-.35-1.65,.15l-3.81,4.55L6.7,19.42l1.69,6.74,7.04,2.89s.05,.01,.08,.03c.15,.06,.3,.1,.46,.1,.04,0,.1,.01,.14,.02l5.16,.53c.36,.03,.71-.09,.96-.36,.03-.03,.06-.06,.1-.08l.11-.07,1.89-1.54c.5-.41,.58-1.15,.17-1.65Z" fill="#ffcd00" stroke-width="0"/><path d="M23.45,26.96c.93-.75,1.07-2.13,.32-3.06-.09-.11-.19-.21-.3-.3,.02,0,.04,.02,.06,.03,.54,.22,1.13,.22,1.66,0,.54-.22,.95-.64,1.17-1.18,.22-.54,.22-1.13,0-1.66l-1.3-3.09c-.21-.49-.58-.88-.99-1.06-.02-.02-.06-.05-.08-.06l-3.17-1.88,2.04,.08,2.04,1.64c.45,.36,1.03,.53,1.6,.47,.58-.06,1.1-.35,1.46-.8,.75-.94,.6-2.31-.34-3.06l-2.61-2.1c-.41-.33-.93-.48-1.38-.47-.02,0-.08-.01-.1-.01l-2.78-.11,4.39-1.24c.56-.16,1.02-.52,1.31-1.03s.35-1.09,.2-1.65c-.33-1.15-1.53-1.82-2.68-1.5l-5.25,1.48,1.22-1.45c.77-.92,.65-2.29-.27-3.07-.45-.37-1.01-.55-1.59-.5-.58,.05-1.1,.32-1.48,.77l-3.82,4.56L4.57,17.11s-.06,0-.09,0l-3.29,.83c-.27,.07-.43,.34-.36,.61l1.96,7.81c.03,.13,.12,.24,.23,.31,.08,.05,.17,.07,.26,.07,.04,0,.08,0,.12-.01l3.29-.83c.09-.02,.17-.08,.23-.14l6.7,2.75s.04,.02,.07,.02c.25,.1,.49,.14,.67,.14l.1,.02,5.2,.54c.08,0,.15,.01,.23,.01,.58,0,1.13-.23,1.49-.61,.06-.04,.12-.08,.18-.12l1.89-1.54Zm-19.81-1.33l-1.72-6.84,2.32-.58,1.72,6.84-2.32,.58Zm17.29,2.09l-.11,.07s-.07,.05-.1,.08c-.25,.26-.6,.39-.96,.36l-5.16-.53s-.1-.02-.14-.02c-.15,0-.3-.04-.46-.1-.02-.01-.05-.02-.08-.03l-7.04-2.89-1.69-6.74L13.55,7.32l3.81-4.55c.42-.5,1.16-.56,1.65-.15,.5,.42,.56,1.16,.15,1.66l-2.26,2.69c-.14,.17-.16,.41-.04,.59,.12,.18,.34,.27,.56,.21l6.81-1.92c.62-.18,1.27,.19,1.45,.81,.08,.3,.05,.62-.11,.89-.15,.27-.4,.47-.71,.56l-8.68,2.45c-.16,.04-.28,.18-.33,.34-.05,.16-.01,.35,.09,.48,.12,.15,.31,.23,.5,.18l1.31-.27s.11-.01,.15-.02c.14-.04,.27-.06,.37-.05l5.18,.2s.11,.02,.14,.01c.21-.01,.52,.02,.8,.25l2.61,2.1c.5,.41,.59,1.15,.18,1.65-.2,.24-.48,.4-.79,.43-.32,.03-.62-.06-.86-.25l-2.17-1.74c-.08-.07-.19-.11-.29-.11l-4.6-.18c-.16,.01-.38,.14-.47,.29-.08,.15-.07,.33,.02,.48,.09,.15,.24,.24,.41,.24,.21,0,.39,.06,.55,.15l4.45,2.65s.09,.06,.12,.08c.19,.09,.44,.27,.58,.6l1.3,3.09c.12,.29,.12,.61,0,.9-.12,.29-.34,.52-.63,.64-.29,.12-.61,.12-.9,0s-.52-.34-.64-.63l-1.08-2.57c-.04-.1-.11-.18-.21-.24l-3.61-2.15c-.11-.07-.25-.09-.38-.05l-2.06,.52h-.01c-1.58,.45-2.78,1.65-3.12,3.15-.33,1.42,.23,2.61,.49,3.05,.03,.04,.06,.09,.1,.12l1.47,1.34c.08,.07,.18,.12,.29,.13l4.17,.43c.13,.01,.26-.02,.37-.11l1.65-1.34c.5-.41,1.25-.33,1.65,.17,.41,.5,.33,1.25-.17,1.65l-1.89,1.54Zm2.03-4.43c-.72-.32-1.6-.23-2.25,.3l-1.49,1.21-3.8-.39-1.29-1.18c-.21-.38-.58-1.25-.34-2.26,.26-1.14,1.19-2.06,2.41-2.41l1.86-.47,3.29,1.96,1.01,2.42c.14,.33,.35,.61,.61,.83Z" stroke-width="0"/><path d="M49.17,31.25l-1.83-7.84c-.03-.13-.11-.24-.22-.31-.11-.07-.25-.09-.38-.06l-3.31,.77c-.1,.02-.17,.08-.24,.14l-6.65-2.86s-.04-.02-.07-.02c-.24-.1-.46-.14-.67-.15-.02,0-.08-.02-.1-.02l-5.19-.63c-.66-.08-1.31,.15-1.74,.58-.06,.03-.11,.07-.17,.11l-1.92,1.5c-.46,.36-.75,.87-.82,1.45-.07,.58,.09,1.15,.45,1.6,.09,.11,.19,.21,.29,.31-.02,0-.04-.02-.06-.03-.54-.23-1.12-.24-1.67-.02-.54,.22-.96,.63-1.19,1.16-.23,.54-.24,1.13-.02,1.67l1.24,3.11c.2,.49,.57,.89,.97,1.08,.02,.01,.06,.05,.08,.06l3.13,1.94-2.04-.12-2.01-1.67c-.45-.37-1.01-.54-1.59-.49-.58,.05-1.1,.33-1.47,.78-.77,.92-.64,2.3,.28,3.06l2.58,2.14c.41,.34,.93,.52,1.37,.49h.1l2.78,.17-4.41,1.16c-.56,.15-1.03,.51-1.32,1.01-.29,.5-.37,1.09-.22,1.65,.15,.56,.51,1.03,1.01,1.33,.5,.29,1.09,.38,1.65,.22l5.28-1.39-1.24,1.43c-.79,.91-.69,2.28,.22,3.07,.41,.36,.92,.53,1.42,.53,.61,0,1.21-.25,1.64-.75l3.9-4.49,8.38-10.27s.06,0,.09-.01l3.31-.77c.27-.06,.44-.33,.37-.6Zm-12.92,11.01l-3.89,4.48c-.42,.49-1.17,.54-1.66,.12-.49-.42-.54-1.17-.12-1.66l2.3-2.65c.14-.17,.16-.41,.05-.59-.09-.15-.25-.24-.42-.24-.04,0-.08,0-.13,.02l-6.84,1.8c-.63,.17-1.27-.21-1.44-.84-.08-.3-.04-.62,.12-.89,.16-.27,.41-.46,.71-.54l8.72-2.3c.16-.04,.28-.18,.34-.34,.05-.16,.01-.35-.09-.48-.12-.15-.3-.22-.49-.18l-1.31,.25s-.12,.01-.15,.02c-.14,.04-.26,.05-.37,.04l-5.17-.29s-.1-.01-.15-.02c-.29,.03-.57-.08-.79-.26l-2.58-2.14c-.5-.41-.57-1.16-.15-1.66,.2-.24,.48-.39,.79-.42,.31-.02,.62,.07,.86,.27l2.14,1.78c.08,.07,.18,.11,.29,.11l4.6,.26c.21,.01,.36-.05,.45-.23,.1-.15,.11-.34,.03-.5-.08-.16-.24-.27-.42-.27-.21,0-.39-.07-.55-.16l-4.41-2.73s-.08-.06-.11-.08c-.18-.09-.43-.27-.57-.61l-1.24-3.11c-.12-.29-.11-.61,.01-.9,.12-.29,.35-.51,.64-.63s.61-.11,.9,.01c.29,.12,.51,.35,.63,.64l1.03,2.58c.04,.1,.11,.18,.2,.24l3.57,2.21c.11,.07,.25,.09,.38,.06l2.07-.49h.01c1.59-.42,2.8-1.61,3.17-3.1,.35-1.41-.18-2.61-.43-3.06-.02-.05-.06-.09-.09-.12l-1.45-1.37c-.08-.07-.18-.12-.28-.13l-4.17-.5c-.13-.02-.26,.02-.37,.1l-1.68,1.32c-.25,.19-.56,.28-.87,.24-.31-.04-.59-.19-.78-.44-.19-.25-.28-.55-.24-.87,.04-.31,.19-.59,.44-.78l1.92-1.5,.12-.07s.06-.04,.09-.07c.26-.26,.61-.38,.97-.34l5.15,.62s.1,.02,.14,.02c.15,0,.3,.04,.45,.11,.02,.01,.05,.02,.07,.03l6.99,3.01,1.58,6.77-8.53,10.46Zm-9.13-16.12c.2,.09,.42,.16,.65,.18,.57,.07,1.15-.09,1.6-.45l1.51-1.19,3.8,.46,1.27,1.2c.2,.39,.55,1.26,.3,2.27-.28,1.13-1.22,2.04-2.45,2.37l-1.87,.44-3.25-2.01-.97-2.43c-.13-.33-.33-.61-.59-.84Zm18.62,5.4l-1.6-6.87,2.33-.54,1.6,6.87-2.33,.54Z" stroke-width="0"/></g></g><g id="uuid-4cc883ef-cba5-479f-b0b5-7dd01925a6c7"></g></svg>