<?xml version="1.0" encoding="UTF-8"?><svg width="70" height="70" id="uuid-5c06dab4-1409-4a9e-a0bc-051a0453c76e" xmlns="http://www.w3.org/2000/svg" viewBox="-10 -10 70 70"><rect x="-10" y="-10" width="70" height="70" fill="white"/><polygon points="44.21 22.26 11.44 27.75 11.44 31.49 42.71 26.25 42.71 26.99 44.21 26.74 44.21 22.26" fill="#ffcd00"/><path d="M43.71,35.54v-2.7l-32.27,5.41v2.73l31.84-4.93c.24-.04,.42-.25,.42-.49Z" fill="#ffcd00" stroke-width="0"/><path d="M43.57,16.34c-1.3-1.08-2.73-1.98-4.25-2.68-.95-.44-1.89-.77-2.8-1.03-.88-.19-1.86-.34-2.9-.47-.4,.55-1.04,.92-1.78,.92-.83,0-1.55-.47-1.92-1.15-.17,0-.34,.02-.5,.03l-14.14,8.06,22.18-3.44,5.25-.81v.72l.86-.13Z" fill="#ffcd00" stroke-width="0"/><path d="M49.22,33.21c-.21-2.41-2.24-4.43-5.51-5.89V15.17s-.01-.06-.02-.09c0-.02,0-.05-.02-.07-.02-.07-.06-.13-.11-.19,0,0,0-.02-.01-.02h-.01v-.02c-1.59-1.46-3.37-2.65-5.3-3.54-1.13-.52-2.24-.89-3.31-1.18-.32-1.23-1.36-2.17-2.64-2.35,.13-.66,.39-1.38,.93-1.99,.25-.28,.53-.53,.85-.73,.23-.15,.3-.46,.15-.69-.15-.23-.46-.3-.69-.15-.4,.26-.76,.57-1.07,.92-.73,.84-1.06,1.81-1.2,2.66-.98,.18-1.79,.81-2.24,1.66-.46,.01-.9,.03-1.3,.07-.07,0-.14,.03-.21,.06L9.19,19.97c-.16,.09-.25,.26-.25,.43h0v8.29c-.54,.24-1.07,.49-1.57,.75-4.51,2.36-6.85,5.22-6.6,8.06,.45,5.04,8.86,8.42,19.98,8.42,1.66,0,3.39-.08,5.16-.23,6.4-.57,12.33-2.14,16.71-4.43,4.51-2.36,6.85-5.22,6.6-8.06ZM31.18,8.79c0,.35,.02,.64,.05,.85,.03,.25,.25,.44,.5,.44,.02,0,.04,0,.06,0,.27-.03,.47-.28,.44-.55-.02-.2-.04-.48-.04-.82,1.05,.17,1.86,1.07,1.86,2.16,0,1.21-.99,2.2-2.2,2.2s-2.2-.99-2.2-2.2c0-.98,.65-1.8,1.54-2.08Zm-3.26,1.66c.24-.02,.5-.03,.77-.04-.02,.16-.05,.31-.05,.47,0,1.76,1.43,3.2,3.2,3.2s3.04-1.3,3.17-2.95c.91,.26,1.85,.59,2.8,1.03,1.52,.7,2.95,1.6,4.25,2.68l-30.02,4.65,15.88-9.05ZM9.94,20.83l27.52-4.27,5.25-.81v3.99L9.94,25.24v-4.4Zm0,5.42l32.77-5.49v4.48L9.94,30.73v-4.48Zm0,5.49l32.77-5.49v3.99l-32.77,5.49v-3.99Zm0,5l32.77-5.49v3.86l-32.77,5.08v-3.45Zm32.22,3.64c-4.26,2.23-10.06,3.76-16.33,4.32-12.59,1.11-23.61-2.21-24.06-7.28-.21-2.38,2-4.96,6.06-7.09,.35-.18,.73-.36,1.1-.53v10.97c0,.15,.06,.29,.17,.38,.09,.08,.21,.12,.33,.12,.03,0,.05,0,.08,0l33.77-5.23c.24-.04,.42-.25,.42-.49v-7.08c2.68,1.27,4.35,2.93,4.52,4.83,.21,2.38-2,4.96-6.06,7.09Z" stroke-width="0"/></svg>