<?xml version="1.0" encoding="UTF-8"?><svg width="70" height="70" id="uuid-ad880d0f-5b79-4863-a434-62cd0152eab8" xmlns="http://www.w3.org/2000/svg" viewBox="-10 -10 70 70"><rect x="-10" y="-10" width="70" height="70" fill="white"/><g><path d="M27.16,21.66c-.31,.28-.67,.42-1,.42-.25,0-.49-.08-.65-.26-.36-.41-.22-1.13,.32-1.62,.22-.19,.46-.31,.7-.37,.33-.07,.65-.19,.9-.41l1.26-1.14,1.05-.95h.01l2.7-2.45,1-.9L44.96,3.6c.09-.09,.21-.13,.33-.13,.14,0,.28,.05,.37,.16,.19,.21,.17,.52-.03,.71l-10.85,9.79-.98,.89-2.66,2.39-1.04,.94-2,1.81c-.25,.22-.4,.53-.51,.85-.07,.23-.22,.46-.43,.65Z" fill="#ffcd00" stroke-width="0"/><path d="M8.56,1.54l9.59,12.31,.73,.94,1.07,1.37c.21,.27,.5,.44,.81,.57,.23,.09,.45,.25,.62,.48,.02,.02,.03,.05,.05,.07,.19,.28,.28,.57,.28,.84,0,.05,0,.1,0,.15-.03,.24-.11,.45-.29,.58-.14,.12-.31,.17-.5,.17-.37,0-.79-.21-1.08-.6-.02-.01-.02-.03-.03-.05-.16-.21-.26-.44-.29-.66-.01-.11-.05-.21-.07-.32-.06-.22-.14-.43-.28-.61l-1.46-1.89-.73-.93L7.77,2.15c-.17-.22-.13-.53,.09-.7,.09-.07,.2-.11,.3-.11,.15,0,.3,.07,.4,.2Z" fill="#ffcd00" stroke-width="0"/><path d="M31.21,45.86c-1.56,.09-3.18,.14-4.83,.14s-3.28-.05-4.84-.14l-1-.07c-3.74-.26-7.1-.77-9.68-1.47l-1-.29c-1.17-.36-2.14-.77-2.85-1.22-.54-.34-1.18-.85-1.18-1.4v-15.59c.87,.73,2.27,1.36,4.03,1.89l1,.28c2.71,.7,6.1,1.18,9.68,1.43l1,.06c1.6,.1,3.22,.14,4.84,.14s3.23-.04,4.83-.14l1-.06c3.58-.25,6.97-.73,9.68-1.43l1-.28c1.76-.53,3.16-1.16,4.03-1.89v15.59c0,.55-.64,1.06-1.18,1.4-.7,.45-1.68,.86-2.85,1.22l-1,.29c-2.58,.7-5.94,1.21-9.68,1.47l-1,.07Z" fill="#ffcd00" stroke-width="0"/></g><path d="M46.79,4.04c.02-.4-.12-.78-.38-1.08-.29-.31-.69-.49-1.12-.49-.37,0-.73,.13-1,.38l-12.19,11c-2.27-.19-4.64-.29-6.97-.29-1.93,0-3.88,.07-5.78,.2L9.35,.92c-.29-.37-.72-.58-1.19-.58-.33,0-.66,.12-.92,.32-.65,.51-.77,1.45-.26,2.1L15.8,14.09c-6.81,.81-12.22,2.53-12.22,5.06v24.65c0,3.63,11.1,5.59,21.55,5.59s21.54-1.96,21.54-5.59V19.15c0-2.33-4.57-3.97-10.6-4.84l10.23-9.23c.29-.27,.47-.64,.49-1.04ZM25.13,14.56c2.1,0,4.09,.08,5.95,.21l-2.76,2.49c-.32-.01-.65-.02-.98-.03-.19,0-.39-.01-.59-.01-.54-.01-1.08-.02-1.62-.02s-1.09,0-1.63,.02c-.2,0-.39,.01-.59,.01-.12,.01-.25,.01-.37,.01-.09-.22-.21-.44-.37-.65-.27-.35-.63-.62-1.02-.79-.21-.08-.34-.17-.41-.25l-.65-.84c1.59-.09,3.27-.15,5.04-.15Zm-.36,7.93c.35,.38,.84,.59,1.39,.59,.58,0,1.19-.24,1.67-.67,.33-.3,.58-.68,.71-1.08,.07-.22,.15-.36,.23-.43l2.72-2.45c5.27,.41,9.73,1.31,12.22,2.52-3.3,1.6-10.05,2.66-17.55,2.75-.34,.01-.68,.01-1.03,.01-7.91,0-15.14-1.09-18.59-2.76,2.48-1.2,6.92-2.11,12.15-2.52,.09,.21,.21,.41,.35,.59,.48,.61,1.18,.98,1.87,.98,.42,0,.8-.13,1.12-.38,.44-.34,.67-.85,.7-1.4,.79-.02,1.59-.04,2.4-.04,.71,0,1.42,.02,2.12,.03l-.49,.44c-.08,.08-.23,.14-.45,.19-.42,.09-.81,.3-1.15,.6-.96,.87-1.13,2.2-.39,3.03ZM7.77,2.15c-.17-.22-.13-.53,.09-.7,.09-.07,.2-.11,.3-.11,.15,0,.3,.07,.4,.2l9.59,12.31,.73,.94,1.07,1.37c.21,.27,.5,.44,.81,.57,.23,.09,.45,.25,.62,.48,.02,.02,.03,.05,.05,.07,.19,.28,.28,.57,.28,.84,0,.05,0,.1-.01,.15-.03,.24-.11,.45-.29,.58-.14,.12-.31,.17-.5,.17-.37,0-.79-.21-1.08-.6-.02-.01-.02-.03-.03-.05-.16-.21-.26-.44-.29-.66-.01-.11-.05-.21-.07-.32-.06-.22-.14-.43-.28-.61l-1.46-1.89-.73-.93L7.77,2.15Zm8.75,12.86l1.85,2.38s.03,.05,.04,.08c-.09,0-.18,.01-.28,.02-.26,.02-.53,.05-.79,.07-.23,.02-.44,.05-.66,.07-.26,.03-.52,.05-.77,.08-.23,.03-.44,.06-.66,.08-.24,.04-.48,.07-.72,.1-.21,.03-.42,.06-.64,.09-.22,.04-.45,.07-.68,.11-.2,.03-.41,.07-.61,.11-.21,.03-.43,.07-.64,.11-.2,.04-.39,.08-.58,.12-.21,.04-.41,.09-.61,.13-.18,.04-.36,.08-.54,.13-.19,.04-.39,.09-.57,.14-.18,.04-.34,.09-.51,.13-.18,.05-.35,.1-.53,.16-.16,.04-.31,.09-.46,.14-.17,.06-.33,.11-.49,.17l-.42,.15c-.15,.06-.3,.11-.44,.17-.13,.06-.25,.11-.38,.17l-.39,.18c-.11,.06-.22,.11-.33,.17-.07,.04-.14,.07-.2,.11-.47-.33-.93-.77-.93-1.23,0-1.61,4.63-3.34,11.94-4.14ZM4.58,24.57c.87,.73,2.27,1.36,4.03,1.89v4.28c-.76,.22-1.32,.92-1.32,1.75v4.68c0,.84,.56,1.53,1.32,1.75v3.86c-1.17-.36-2.14-.77-2.85-1.22-.54-.34-1.18-.85-1.18-1.4v-15.59Zm36.06,6.17c-.77,.22-1.33,.92-1.33,1.75v4.68c0,.84,.56,1.53,1.33,1.75v4.15c-2.58,.7-5.94,1.21-9.68,1.47v-3.88c.77-.22,1.33-.92,1.33-1.75v-4.68c0-.83-.56-1.53-1.33-1.75v-4.31c3.58-.25,6.97-.73,9.68-1.43v4Zm.5,.92c.46,0,.83,.37,.83,.83v4.68c0,.46-.37,.83-.83,.83s-.83-.37-.83-.83v-4.68c0-.46,.37-.83,.83-.83Zm-9.85,2.57v4.68c0,.46-.37,.83-.83,.83s-.82-.37-.82-.83v-4.68c0-.46,.37-.83,.82-.83s.83,.37,.83,.83Zm-1.33-1.75c-.76,.22-1.32,.92-1.32,1.75v4.68c0,.83,.56,1.53,1.32,1.75v3.95c-1.56,.09-3.18,.14-4.83,.14s-3.28-.05-4.84-.14v-3.95c.76-.22,1.33-.92,1.33-1.75v-4.68c0-.83-.57-1.53-1.33-1.75v-4.25c1.6,.1,3.22,.14,4.84,.14s3.23-.04,4.83-.14v4.25Zm-9.34,1.75v4.68c0,.46-.37,.83-.83,.83s-.83-.37-.83-.83v-4.68c0-.46,.37-.83,.83-.83s.83,.37,.83,.83Zm-1.33-1.75c-.77,.22-1.33,.92-1.33,1.75v4.68c0,.83,.56,1.53,1.33,1.75v3.88c-3.74-.26-7.1-.77-9.68-1.47v-4.15c.77-.22,1.33-.91,1.33-1.75v-4.68c0-.83-.56-1.53-1.33-1.75v-4c2.71,.7,6.1,1.18,9.68,1.43v4.31Zm-9.35,.01v4.68c0,.46-.37,.83-.83,.83s-.82-.37-.82-.83v-4.68c0-.46,.37-.83,.82-.83s.83,.37,.83,.83Zm35.73,10.52v.79c0,2.17-8.44,4.59-20.54,4.59s-20.55-2.42-20.55-4.59v-1.87c.19,.16,.4,.32,.64,.47,0,.01,.01,.01,.01,.01,3.22,2.03,11.03,3.34,19.9,3.34s16.67-1.31,19.9-3.34h0c.24-.16,.45-.32,.64-.48v1.08Zm0-2.85c0,.55-.64,1.06-1.18,1.4-.7,.45-1.68,.86-2.85,1.22v-3.86c.76-.22,1.33-.91,1.33-1.75v-4.68c0-.83-.57-1.53-1.33-1.75v-4.28c1.76-.53,3.16-1.16,4.03-1.89v15.59Zm0-17.37c0,2.17-8.44,4.58-20.54,4.58s-20.55-2.41-20.55-4.58v-1.87c.18,.15,.39,.31,.62,.45h.01s.01,.02,.02,.02c3.22,2.03,11.03,3.34,19.9,3.34s16.62-1.3,19.87-3.32c.01-.01,.02-.01,.03-.02,.24-.15,.45-.31,.64-.47v1.87Zm0-3.64c0,.46-.46,.9-.92,1.23-.07-.04-.14-.07-.21-.11-.1-.06-.21-.11-.33-.17-.12-.06-.26-.12-.39-.18-.12-.06-.25-.11-.38-.17-.14-.06-.29-.11-.44-.17-.14-.05-.27-.1-.42-.15-.16-.06-.32-.11-.49-.17-.15-.05-.3-.1-.46-.14-.17-.06-.35-.11-.53-.16-.17-.04-.33-.09-.5-.13-.19-.05-.38-.1-.58-.14-.18-.05-.35-.09-.54-.13-.2-.04-.4-.09-.61-.13-.19-.04-.38-.08-.58-.12-.21-.04-.42-.08-.64-.11-.2-.04-.4-.08-.61-.11-.22-.04-.45-.07-.68-.11-.21-.03-.42-.06-.64-.09-.24-.03-.48-.06-.72-.1-.22-.02-.43-.05-.65-.08-.26-.03-.52-.05-.77-.08-.22-.02-.44-.05-.67-.07-.13-.01-.27-.02-.4-.04l2.6-2.35c6.51,.86,10.56,2.48,10.56,3.98Zm-.04-14.81l-10.85,9.79-.98,.89-2.66,2.39-1.04,.94-2,1.81c-.25,.22-.4,.53-.51,.85-.07,.23-.22,.46-.43,.65-.31,.28-.67,.42-1,.42-.25,0-.49-.08-.65-.26-.36-.41-.22-1.13,.32-1.62,.22-.19,.46-.31,.7-.37,.33-.07,.65-.19,.9-.41l1.26-1.14,1.05-.95h.01l2.7-2.45,1-.9L44.96,3.6c.09-.09,.21-.13,.33-.13,.14,0,.28,.05,.37,.16,.19,.21,.17,.52-.03,.71Z" stroke-width="0"/></svg>