<?xml version="1.0" encoding="UTF-8"?><svg width="70" height="70" xmlns="http://www.w3.org/2000/svg" viewBox="-10 -10 70 70"><rect x="-10" y="-10" width="70" height="70" fill="white"/><g id="uuid-68a5a484-4c5e-4393-92aa-c149e62ea201"><g><path d="M26,23.38c-1.45,0-2.62,1.18-2.62,2.62s1.18,2.62,2.62,2.62,2.62-1.18,2.62-2.62-1.18-2.62-2.62-2.62Z" fill="#ffcd00" stroke-width="0"/><path d="M45.96,36.52l-6.46-3.73,5.19-1.39c.27-.07,.43-.35,.35-.61-.07-.27-.35-.42-.61-.35l-6.16,1.65-5.39-3.11,3.15-.84c.27-.07,.42-.35,.35-.61-.07-.27-.34-.42-.61-.35l-4.11,1.1-3.3-1.91c.17-.42,.27-.88,.27-1.36s-.1-.94-.27-1.36l3.3-1.91,4.11,1.1s.09,.02,.13,.02c.22,0,.42-.15,.48-.37,.07-.27-.09-.54-.35-.61l-3.15-.84,5.39-3.11,6.16,1.65s.09,.02,.13,.02c.22,0,.42-.15,.48-.37,.07-.27-.09-.54-.35-.61l-5.19-1.39,6.46-3.73c.24-.14,.32-.44,.18-.68-.14-.24-.44-.32-.68-.18l-6.46,3.73,1.39-5.19c.07-.27-.09-.54-.35-.61-.26-.07-.54,.09-.61,.35l-1.65,6.16-5.39,3.11,.84-3.15c.07-.27-.09-.54-.35-.61-.27-.06-.54,.09-.61,.35l-1.1,4.11-3.31,1.91c-.57-.72-1.39-1.22-2.34-1.35v-3.82l3.01-3.01c.2-.2,.2-.51,0-.71s-.51-.2-.71,0l-2.3,2.3v-6.22l4.51-4.51c.2-.2,.2-.51,0-.71-.2-.2-.51-.2-.71,0l-3.8,3.8V1.09c0-.28-.22-.5-.5-.5s-.5,.22-.5,.5v7.46l-3.8-3.8c-.2-.2-.51-.2-.71,0-.2,.2-.2,.51,0,.71l4.51,4.51v6.22l-2.3-2.3c-.2-.2-.51-.2-.71,0s-.2,.51,0,.71l3.01,3.01v3.82c-.95,.13-1.78,.63-2.34,1.35l-3.31-1.91-1.1-4.11c-.07-.27-.34-.42-.61-.35-.27,.07-.42,.35-.35,.61l.84,3.14-5.39-3.11-1.65-6.16c-.07-.27-.35-.42-.61-.35-.27,.07-.43,.35-.35,.61l1.39,5.19-6.46-3.73c-.24-.14-.54-.06-.68,.18-.14,.24-.06,.54,.18,.68l6.46,3.73-5.19,1.39c-.27,.07-.43,.35-.35,.61,.06,.22,.26,.37,.48,.37,.04,0,.09,0,.13-.02l6.16-1.65,5.39,3.11-3.15,.84c-.27,.07-.42,.35-.35,.61,.06,.22,.26,.37,.48,.37,.04,0,.09,0,.13-.02l4.11-1.1,3.3,1.91c-.17,.42-.27,.88-.27,1.36s.1,.94,.27,1.36l-3.3,1.91-4.11-1.1c-.27-.07-.54,.09-.61,.35-.07,.27,.09,.54,.35,.61l3.15,.84-5.39,3.11-6.16-1.65c-.26-.07-.54,.09-.61,.35-.07,.27,.09,.54,.35,.61l5.19,1.39-6.46,3.73c-.24,.14-.32,.44-.18,.68,.09,.16,.26,.25,.43,.25,.08,0,.17-.02,.25-.07l6.46-3.73-1.39,5.19c-.07,.27,.09,.54,.35,.61,.04,.01,.09,.02,.13,.02,.22,0,.42-.15,.48-.37l1.65-6.16,5.39-3.11-.84,3.14c-.07,.27,.09,.54,.35,.61,.04,.01,.09,.02,.13,.02,.22,0,.42-.15,.48-.37l1.1-4.11,3.31-1.91c.57,.72,1.39,1.22,2.34,1.35v3.82l-3.01,3.01c-.2,.2-.2,.51,0,.71,.1,.1,.23,.15,.35,.15s.26-.05,.35-.15l2.3-2.3v6.22l-4.51,4.51c-.2,.2-.2,.51,0,.71,.1,.1,.23,.15,.35,.15s.26-.05,.35-.15l3.8-3.8v7.46c0,.28,.22,.5,.5,.5s.5-.22,.5-.5v-7.46l3.8,3.8c.1,.1,.23,.15,.35,.15s.26-.05,.35-.15c.2-.2,.2-.51,0-.71l-4.51-4.51v-6.22l2.3,2.3c.1,.1,.23,.15,.35,.15s.26-.05,.35-.15c.2-.2,.2-.51,0-.71l-3.01-3.01v-3.82c.95-.13,1.78-.63,2.34-1.35l3.31,1.91,1.1,4.11c.06,.22,.26,.37,.48,.37,.04,0,.09,0,.13-.02,.27-.07,.42-.35,.35-.61l-.84-3.15,5.39,3.11,1.65,6.16c.06,.22,.26,.37,.48,.37,.04,0,.09,0,.13-.02,.27-.07,.42-.35,.35-.61l-1.39-5.19,6.46,3.73c.08,.05,.17,.07,.25,.07,.17,0,.34-.09,.43-.25,.14-.24,.06-.54-.18-.68Zm-20.96-8.9c-1.45,0-2.62-1.18-2.62-2.62s1.18-2.62,2.62-2.62,2.62,1.18,2.62,2.62-1.18,2.62-2.62,2.62Z" stroke-width="0"/></g></g><g id="uuid-7e1e4dfb-2c05-44e0-a8e4-560de2cfcfe0"></g></svg>