<?xml version="1.0" encoding="UTF-8"?><svg width="70" height="70" xmlns="http://www.w3.org/2000/svg" viewBox="-10 -10 70 70"><rect x="-10" y="-10" width="70" height="70" fill="white"/><g id="uuid-2061da96-b6e9-4f25-950c-7a5d75c6d975"><g><path d="M15.34,19.94c.12,.08,.25,.15,.37,.24,.13,.09,.25,.19,.37,.29,.1,.08,.19,.15,.29,.23,.04,.03,.07,.07,.1,.1,.05-.36,.05-.58-.03-.62-.01,0-.16-.07-.47-.19-.13-.05-.26-.11-.4-.16-.16-.05-.32-.1-.47-.14-.11-.03-.22-.07-.34-.1,.08,.04,.17,.08,.25,.13,.11,.07,.22,.14,.33,.21Z" fill="none" stroke-width="0"/><path d="M36.28,6.12c-9.59-2.94-19.78,2.48-22.73,12.09-.09,.26-.15,.52-.21,.78,.05,.01,.1,.03,.15,.04,.12,.04,.24,.1,.36,.14,.14,.06,.28,.11,.42,.17,.12,.05,.22,.12,.34,.17,.05,.03,.1,.06,.16,.08,.11,.03,.22,.06,.34,.1,.16,.05,.32,.09,.47,.14,.13,.05,.26,.11,.4,.16,.31,.12,.46,.19,.47,.19,.08,.04,.08,.26,.03,.62,.17,.16,.34,.32,.5,.49,1.89,2.02,2.7,4.73,2.21,7.43-.08,.48-.19,.94-.35,1.39-.46,1.34-1.23,2.55-2.29,3.54-.23,.22-.49,.42-.75,.61,.12,.25,.26,.49,.41,.71,.65,.91,1.52,1.41,2.13,1.68,.62,.59,1.41,1.25,2.36,1.89,.84,.57,1.73,1.06,2.65,1.49,.09,.03,.18,.06,.27,.09,1.83,.55,3.7,.83,5.56,.83,.35,0,.71-.03,1.06-.05-.1,.26-.21,.5-.33,.75,.92,.05,1.83,.06,2.75-.03h0c7.38-.68,13.54-5.69,15.7-12.76,2.91-9.61-2.51-19.81-12.09-22.72Z" fill="#ffcd00" stroke-width="0"/><path d="M34.82,3.41C24.71,.31,13.95,6.03,10.85,16.15c-.15,.46-.27,.91-.35,1.38-2.43,.03-4.8,.97-6.56,2.61C.01,23.8-.2,29.98,3.47,33.91c2.32,2.49,5.7,3.56,8.97,2.9-.27,2.76,.64,5.47,2.57,7.54,1.78,1.9,4.19,3,6.8,3.08,.11,0,.22,0,.33,0,2.48,0,4.83-.92,6.64-2.62,1.21-1.13,2.1-2.51,2.57-4,7.63-.84,13.98-6.08,16.23-13.43,3.07-10.14-2.65-20.9-12.75-23.97ZM4.2,33.22c-3.29-3.52-3.1-9.06,.42-12.35,1.67-1.56,3.97-2.41,6.29-2.33,.18,0,.35,.03,.52,.05,.13,.01,.27,.02,.4,.04,.15,.02,.29,.05,.44,.08,.13,.03,.27,.05,.4,.08,.14,.03,.27,.08,.4,.12,.14,.04,.28,.08,.41,.12,.12,.04,.24,.1,.36,.14,.14,.06,.28,.11,.42,.17,.12,.05,.22,.12,.34,.17,.14,.07,.27,.13,.41,.21,.11,.07,.22,.14,.33,.21,.12,.08,.25,.15,.37,.24,.13,.09,.56,.44,.66,.52,.21,.19,.41,.38,.61,.59,1.89,2.02,2.7,4.73,2.21,7.43-.08,.48-.19,.94-.35,1.39-.46,1.34-1.23,2.55-2.29,3.54-.25,.23-.52,.45-.8,.65-.16,.1-1.97,1.13-2.85,1.38h0c-3.12,.89-6.46-.05-8.7-2.45Zm23.9,10.86c-1.7,1.59-3.92,2.42-6.25,2.34-2.34-.08-4.51-1.06-6.1-2.77-1.82-1.95-2.62-4.54-2.25-7.14,.72-.26,1.65-.74,2.25-1.07,2.19,2.14,4.91,3.75,7.89,4.66,1.83,.55,3.7,.83,5.56,.83,.35,0,.71-.03,1.06-.05-.44,1.18-1.16,2.28-2.15,3.19Zm18.52-16.99c-2.16,7.08-8.32,12.09-15.7,12.76h0c-2.33,.23-4.68,0-6.99-.7-2.76-.84-5.27-2.31-7.32-4.26,.22-.17,.44-.33,.64-.51,1.57-1.47,2.59-3.37,2.94-5.49,.54-3.01-.36-6.03-2.47-8.28-.22-.23-.44-.45-.68-.66-.1-.08-.2-.16-.3-.24-.14-.12-.28-.24-.43-.35-.13-.09-.27-.17-.4-.26-.13-.08-.25-.17-.38-.25-.15-.09-.3-.16-.45-.24-.12-.06-.25-.13-.38-.19-.15-.07-.31-.13-.47-.19-.13-.05-.26-.11-.4-.16-.16-.05-.32-.1-.47-.14-.14-.04-.29-.09-.43-.13-.15-.04-.31-.06-.47-.09-.16-.03-.31-.07-.47-.09-.15-.02-.31-.03-.46-.05,.07-.38,.16-.75,.29-1.13C14.75,6.85,24.94,1.43,34.53,4.37c9.58,2.92,15,13.11,12.09,22.72Z" stroke-width="0"/><path d="M28.28,9.46c-3.05-.1-6,.71-8.56,2.35-.23,.15-.3,.46-.15,.69,.15,.23,.46,.3,.69,.15,2.38-1.53,5.14-2.29,7.98-2.19,5.32,.18,10.14,3.45,12.27,8.33,.08,.19,.27,.3,.46,.3,.07,0,.14-.01,.2-.04,.25-.11,.37-.41,.26-.66-2.29-5.23-7.46-8.73-13.16-8.92Z" stroke-width="0"/></g></g><g id="uuid-c05d9b08-4b54-4fdd-99bd-cb188f3a4c47"></g></svg>