<?xml version="1.0" encoding="UTF-8"?><svg width="70" height="70" xmlns="http://www.w3.org/2000/svg" viewBox="-10 -10 70 70"><rect x="-10" y="-10" width="70" height="70" fill="white"/><g id="uuid-8a1244f3-ff1b-4c7a-863f-749bb917355c"><path d="M30.01,4.24l-4.22,3.68-4.27-3.72c1.34-.26,2.72-.4,4.13-.4,1.49,0,2.95.16,4.36.44Z" fill="#ffcd00" stroke-width="0"/><path d="M47.34,23.24l-4.92-2.95,2.26-5.32c1.41,2.5,2.33,5.29,2.66,8.27Z" fill="#ffcd00" stroke-width="0"/><path d="M35.8,39.93l5.85.52c-2,2.15-4.43,3.9-7.15,5.11l1.3-5.63Z" fill="#ffcd00" stroke-width="0"/><path d="M15.07,39.7l1.3,5.67c-2.64-1.25-5-3.02-6.94-5.17l5.64-.5Z" fill="#ffcd00" stroke-width="0"/><path d="M6.71,14.81l2.18,5.11-4.87,2.92c.37-2.89,1.3-5.6,2.69-8.03Z" fill="#ffcd00" stroke-width="0"/><polygon points="35.2 23.46 31.6 34.52 19.96 34.52 16.37 23.46 25.78 16.61 35.2 23.46" fill="#ffcd00"/></g><g id="uuid-22f79ec6-fa92-4d31-95ed-b9bb976890ad"><path d="M46.62,22.52c-.33-2.98-1.25-5.77-2.66-8.27l-2.26,5.32,4.92,2.95ZM29.29,3.52c-1.41-.28-2.87-.44-4.36-.44-1.41,0-2.79.14-4.13.4l4.27,3.72,4.22-3.68ZM40.93,39.73l-5.85-.52-1.3,5.63c2.72-1.21,5.15-2.96,7.15-5.11ZM41.04,20.34l-5.57,2.57-3.67,11.29,3.15,3.99,6.8.61c3.12-3.78,5-8.62,5-13.89,0-.39-.01-.78-.03-1.16l-5.68-3.41ZM43.33,13.19c-2.92-4.56-7.48-7.97-12.84-9.39l-4.92,4.29v6.93s9.55,6.95,9.55,6.95l5.56-2.57,2.65-6.21ZM15.65,44.65l-1.3-5.67-5.64.5c1.94,2.15,4.3,3.92,6.94,5.17ZM31,34.8h-11.91l-3.8,3.8,1.5,6.55c2.52,1.01,5.27,1.58,8.14,1.58,2.72,0,5.32-.51,7.72-1.42l1.5-6.52-3.15-3.99ZM19.24,33.8h11.64l3.6-11.06-9.42-6.85-9.41,6.85,3.59,11.06ZM24.57,8.09l-4.99-4.34c-5.39,1.37-9.99,4.75-12.95,9.29l2.55,6,5.83,2.92,9.55-6.94v-6.93ZM3.11,24.91c0,5.15,1.81,9.9,4.81,13.64l6.6-.59,3.79-3.79-3.66-11.27-5.83-2.93-5.65,3.38c-.03.52-.06,1.03-.06,1.56ZM5.99,14.09c-1.39,2.43-2.32,5.14-2.69,8.03l4.87-2.92-2.18-5.11ZM6.73,38.65c-2.9-3.83-4.62-8.59-4.62-13.74,0-.32,0-.62.03-.93.01-.41.04-.82.08-1.22.33-3.57,1.49-6.9,3.29-9.81.21-.34.43-.68.65-1,2.98-4.3,7.38-7.52,12.52-8.99.39-.11.78-.21,1.18-.3,1.63-.37,3.33-.58,5.07-.58s3.59.23,5.29.63c.39.09.78.2,1.17.31,5.11,1.51,9.48,4.76,12.41,9.06.23.34.45.67.65,1.02,1.81,2.97,2.95,6.4,3.23,10.05.03.4.05.8.06,1.21,0,.18.01.36.01.55,0,5.27-1.8,10.12-4.81,13.99-.25.32-.51.63-.77.94-2.34,2.7-5.3,4.84-8.66,6.21-.37.15-.75.29-1.13.42-2.33.81-4.84,1.26-7.45,1.26-2.76,0-5.41-.5-7.86-1.4-.39-.14-.76-.3-1.13-.46-3.29-1.41-6.18-3.58-8.46-6.28-.26-.31-.51-.62-.75-.94Z" stroke-width="0"/></g></svg>