<?xml version="1.0" encoding="UTF-8"?><svg width="70" height="70" id="uuid-ceee2c3a-8303-4a60-becf-11007921d59e" xmlns="http://www.w3.org/2000/svg" viewBox="-10 -10 70 70"><rect x="-10" y="-10" width="70" height="70" fill="white"/><path d="M14.28,17.4c-.87-.67-1.84-.74-2.34-.72l-5.05,.02c-.48,.03-1.43,.18-2.25,.88-1.49,1.26-1.33,3.25-1.31,3.47v8.82c0,.11,.04,.43,.28,.67,.28,.27,.72,.35,1.08,.18,.33-.15,.54-.49,.55-.86,0-.27,.26-.47,.51-.49,.27,0,.49,.23,.49,.5v13.64c0,.77,.62,1.39,1.39,1.39s1.39-.62,1.39-1.39c0-.28,.22-.5,.5-.5s.5,.22,.5,.5c0,.77,.62,1.39,1.39,1.39s1.39-.62,1.39-1.39v-13.64c0-.28,.22-.5,.5-.5s.5,.22,.5,.5c0,.52,.44,.95,.95,.95s.95-.44,.95-.95v-9.06c0-.13,.16-2.21-1.41-3.41Z" fill="#ffcd00" stroke-width="0"/><path d="M47.98,17.4c-.87-.67-1.84-.74-2.34-.72l-5.05,.02c-.48,.03-1.43,.18-2.25,.88-1.49,1.26-1.33,3.25-1.31,3.47v8.82c0,.11,.04,.43,.28,.67,.28,.27,.72,.35,1.08,.18,.33-.15,.54-.49,.55-.86,0-.27,.26-.47,.51-.49,.27,0,.49,.23,.49,.5v13.64c0,.77,.62,1.39,1.39,1.39s1.39-.62,1.39-1.39c0-.28,.22-.5,.5-.5s.5,.22,.5,.5c0,.77,.62,1.39,1.39,1.39s1.39-.62,1.39-1.39v-13.64c0-.28,.22-.5,.5-.5s.5,.22,.5,.5c0,.52,.44,.95,.95,.95s.95-.44,.95-.95v-9.06c0-.13,.16-2.21-1.41-3.41Z" fill="#ffcd00" stroke-width="0"/><path d="M46.83,14.85c-1.12-.85-2.34-.95-2.98-.93l-5.07,.02c-.62,.03-1.81,.23-2.86,1.12-1.87,1.59-1.68,4.06-1.66,4.28v8.78c0,.25,.07,.88,.58,1.37,.58,.57,1.47,.72,2.21,.37,.04-.02,.08-.04,.12-.06v11.95c0,1.32,1.07,2.39,2.39,2.39,.77,0,1.45-.36,1.89-.93,.44,.56,1.12,.93,1.89,.93,1.32,0,2.39-1.07,2.39-2.39v-11.93c.28,.16,.61,.25,.95,.25,1.08,0,1.95-.88,1.95-1.95v-9.02c.02-.28,.16-2.74-1.8-4.24Zm.8,4.2v9.06c0,.52-.44,.95-.95,.95s-.95-.44-.95-.95v-9.21c0-.28-.22-.5-.5-.5s-.5,.22-.5,.5v22.85c0,.77-.62,1.39-1.39,1.39s-1.39-.62-1.39-1.39v-12.46c0-.28-.22-.5-.5-.5s-.5,.22-.5,.5v12.46c0,.77-.62,1.39-1.39,1.39s-1.39-.62-1.39-1.39v-13.64h0v-9.21c0-.28-.22-.5-.5-.5s-.5,.22-.5,.5v9.2c-.01,.37-.23,.71-.55,.86-.36,.17-.8,.1-1.08-.18-.24-.24-.27-.56-.28-.67v-8.82c-.02-.22-.18-2.21,1.31-3.47,.82-.7,1.77-.85,2.24-.88l5.05-.02h.02c.5-.01,1.47,.05,2.34,.72,1.57,1.2,1.42,3.28,1.41,3.41Z" stroke-width="0"/><path d="M41.45,13.38c2.28,0,4.13-1.85,4.13-4.13s-1.85-4.13-4.13-4.13-4.13,1.85-4.13,4.13,1.85,4.13,4.13,4.13Zm3.13-4.13c0,1.73-1.41,3.13-3.13,3.13s-3.13-1.41-3.13-3.13,1.41-3.13,3.13-3.13,3.13,1.41,3.13,3.13Z" stroke-width="0"/><path d="M14.99,19.1c.02-.28,.16-2.74-1.8-4.24-1.12-.85-2.34-.95-2.98-.93l-5.07,.02c-.62,.03-1.81,.23-2.86,1.12-1.87,1.59-1.68,4.06-1.66,4.28v8.78c0,.25,.07,.88,.58,1.37,.58,.57,1.47,.72,2.21,.37,.04-.02,.08-.04,.12-.06v11.95c0,1.32,1.07,2.39,2.39,2.39,.77,0,1.45-.36,1.89-.93,.44,.56,1.12,.93,1.89,.93,1.32,0,2.39-1.07,2.39-2.39v-11.93c.28,.16,.61,.25,.95,.25,1.08,0,1.95-.88,1.95-1.95v-9.02Zm-1-.04v9.06c0,.52-.44,.95-.95,.95s-.95-.44-.95-.95v-9.21c0-.28-.22-.5-.5-.5s-.5,.22-.5,.5v22.85c0,.77-.62,1.39-1.39,1.39s-1.39-.62-1.39-1.39v-12.46c0-.28-.22-.5-.5-.5s-.5,.22-.5,.5v12.46c0,.77-.62,1.39-1.39,1.39s-1.39-.62-1.39-1.39V18.9c0-.28-.22-.5-.5-.5s-.5,.22-.5,.5v9.2c-.01,.37-.23,.71-.55,.86-.36,.17-.8,.1-1.08-.18-.24-.24-.27-.56-.28-.67v-8.82c-.02-.22-.18-2.21,1.31-3.47,.82-.7,1.77-.85,2.24-.88l5.05-.02h.02c.5-.01,1.47,.05,2.34,.72,1.57,1.2,1.42,3.28,1.41,3.41Z" stroke-width="0"/><path d="M7.81,13.38c2.28,0,4.13-1.85,4.13-4.13s-1.85-4.13-4.13-4.13-4.13,1.85-4.13,4.13,1.85,4.13,4.13,4.13Zm0-7.27c1.73,0,3.13,1.41,3.13,3.13s-1.41,3.13-3.13,3.13-3.13-1.41-3.13-3.13,1.41-3.13,3.13-3.13Z" stroke-width="0"/><path d="M30.87,25.33c0-.12-.05-.24-.14-.34l-2.16-2.24c-.19-.2-.51-.2-.71-.01-.2,.19-.2,.51-.01,.71l1.35,1.4h-9.17l1.35-1.41c.19-.2,.19-.52-.01-.71-.2-.19-.51-.19-.71,.01l-2.16,2.24c-.09,.1-.14,.22-.14,.34v.02h0s0,.05,.01,.07c0,.04,0,.08,.02,.12,.02,.04,.04,.07,.07,.11,.01,.02,.02,.04,.03,.05h0l2.15,2.24c.1,.1,.23,.15,.36,.15s.25-.05,.35-.14c.2-.19,.2-.51,.01-.71l-1.34-1.39h9.15l-1.35,1.4c-.19,.2-.19,.52,.01,.71,.1,.09,.22,.14,.35,.14s.26-.05,.36-.15l2.16-2.24c.09-.1,.14-.22,.14-.34v-.03Z" stroke-width="0"/></svg>