<?xml version="1.0" encoding="UTF-8"?><svg width="70" height="70" xmlns="http://www.w3.org/2000/svg" viewBox="-10 -10 70 70"><rect x="-10" y="-10" width="70" height="70" fill="white"/><g id="uuid-953ceaa4-594a-4f15-b402-31e0798d88cc"><path d="M25.16,39.95l-6.55-4.81c-.13-.09-.2-.24-.2-.4v-14.64h-.02v-3.14H9.01v16.77c1.88,.7,3.23,2.49,3.23,4.61,0,1.28-.49,2.46-1.38,3.39l-.39-.29c.59,.85,1.51,1.76,2.96,2.63l5.65,4.15c1.1,.81,2.46,1.14,3.81,.94,1.35-.21,2.55-.93,3.36-2.03,1.67-2.28,1.18-5.49-1.1-7.17Z" fill="#ffcd00" stroke-width="0"/><path d="M42.41,27.29l-6.55-4.81c-.13-.09-.2-.24-.2-.4V7.43h-.02v-3.14h-9.37V21.06c1.88,.7,3.23,2.49,3.23,4.61,0,1.25-.47,2.42-1.33,3.33,.53,.76,1.31,1.6,2.52,2.39l5.65,4.15c2.28,1.67,5.49,1.18,7.17-1.1,1.67-2.28,1.18-5.49-1.1-7.17Z" fill="#ffcd00" stroke-width="0"/><path d="M24,37.39l-6.35-4.66v-14.89s-.01-.06-.02-.08v-3.05c0-.28-.22-.5-.5-.5H6.76c-.28,0-.5,.22-.5,.5v18.14s-.02,.07-.02,.11v3.33c-.05,2.02,.88,3.93,2.5,5.12l1.87,1.37s.02,0,.03,0l6.1,4.48c1.06,.78,2.32,1.19,3.61,1.19,.31,0,.63-.02,.94-.07,1.62-.25,3.04-1.11,4.01-2.43,2-2.72,1.41-6.57-1.31-8.57Zm-2.85,10.01c-1.36,.21-2.71-.13-3.81-.94l-5.65-4.15c1-1.09,1.56-2.51,1.56-3.98,0-3.27-2.66-5.93-5.93-5.93-.02,0-.03,0-.05,0v-14.06h9.39v14.64c0,.16,.08,.31,.2,.4l6.55,4.81c2.28,1.67,2.77,4.89,1.1,7.17-.81,1.1-2,1.83-3.36,2.03Zm-11.81-6.8c-1.35-.99-2.13-2.59-2.09-4.38v-2.82s.04,0,.06,0c2.72,0,4.93,2.21,4.93,4.93,0,1.28-.49,2.46-1.38,3.39l-1.53-1.12Zm7.3-23.26H7.26v-2.14h9.37v2.14Z" stroke-width="0"/><path d="M41.26,24.74l-6.35-4.66V5.18s-.01-.06-.02-.09V2.04c0-.28-.22-.5-.5-.5h-10.37c-.28,0-.5,.22-.5,.5V20.19s-.01,.07-.01,.11v3.33c-.05,2.02,.88,3.93,2.5,5.12l1.87,1.37s.02,0,.03,0l6.1,4.48c1.09,.8,2.36,1.19,3.62,1.19,1.89,0,3.75-.86,4.95-2.5,2-2.72,1.41-6.57-1.31-8.57Zm-6.66,9.07l-5.65-4.15c1-1.09,1.56-2.51,1.56-3.98,0-3.27-2.66-5.93-5.93-5.93-.02,0-.03,0-.05,0V5.68h9.39v14.64c0,.16,.08,.31,.2,.4l6.55,4.81c2.28,1.67,2.77,4.89,1.1,7.17-1.67,2.28-4.89,2.77-7.17,1.1ZM24.52,2.54h9.37v2.14h-9.37V2.54Zm2.08,25.4c-1.35-.99-2.13-2.59-2.09-4.38v-2.82s.04,0,.06,0c2.72,0,4.93,2.21,4.93,4.93,0,1.28-.49,2.46-1.38,3.39l-1.53-1.12Z" stroke-width="0"/></g><g id="uuid-72561087-76ed-4ee9-aa13-82fe3bb0bd32"></g></svg>