<?xml version="1.0" encoding="UTF-8"?><svg width="70" height="70" xmlns="http://www.w3.org/2000/svg" viewBox="-10 -10 70 70"><rect x="-10" y="-10" width="70" height="70" fill="white"/><g id="uuid-2a56d194-dce2-4427-95f4-2e0f0d20a1bf"><g><polygon points="19.07 49.24 33.93 49.24 35.46 31.99 18.11 38.42 19.07 49.24" fill="#ffcd00"/><polygon points="16.45 19.67 17.46 31.09 34.46 24.79 34.37 25.81 36.06 25.19 36.55 19.67 16.45 19.67" fill="#ffcd00"/><path d="M37.65,14.1h-11.52l1.08-7.94,7.86-4.47c.24-.14,.32-.44,.19-.68-.14-.24-.44-.33-.68-.19l-8.07,4.59s0,0-.02,.01c-.04,.02-.06,.05-.09,.08-.02,.02-.04,.04-.05,.06-.02,.03-.03,.05-.04,.08-.01,.03-.03,.06-.03,.1,0,.01,0,.02-.01,.03l-1.13,8.32H12.35c-.28,0-.5,.22-.5,.5v3.08c0,.28,.22,.5,.5,.5h1.6l2.67,30.11c.02,.26,.24,.46,.5,.46h15.77c.26,0,.48-.2,.5-.46l2.67-30.11h1.6c.28,0,.5-.22,.5-.5v-3.08c0-.28-.22-.5-.5-.5Zm-5.23,33.65h-14.85l-.96-10.83,17.34-6.43-1.53,17.25Zm1.63-18.34s-.05,0-.08,.01l-17.45,6.47-.38-4.31,18.32-6.79-.41,4.62Zm.51-5.72l-18.51,6.86-1.1-12.37h20.09l-.49,5.51Zm2.59-6.51H12.85v-2.08h24.3v2.08Z" stroke-width="0"/></g></g><g id="uuid-077f124a-46d9-4ab1-86b3-6a800238eedf"></g></svg>