<?xml version="1.0" encoding="UTF-8"?><svg width="70" height="70" id="uuid-6a96fd11-ca96-4256-91a7-86c6f5a72bfe" xmlns="http://www.w3.org/2000/svg" viewBox="-10 -10 70 70"><rect x="-10" y="-10" width="70" height="70" fill="white"/><polygon points="47.62 22.1 49.32 40.71 20.39 40.71 22.1 22.1 47.62 22.1" fill="#ffcd00"/><g><path d="M48.62,39.42c.01,.14-.04,.28-.13,.38-.1,.1-.23,.16-.37,.16h-11.96v4.04h2.94c.28,0,.5,.23,.5,.5v3.75c0,.28-.22,.5-.5,.5h-11.99c-.27,0-.5-.22-.5-.5v-3.75c0-.27,.23-.5,.5-.5h2.94v-4.04h-11.95c-.15,0-.28-.06-.37-.16-.1-.1-.15-.24-.13-.38l1.43-15.69,.36-3.92c.02-.26,.24-.46,.5-.46h26.44c.25,0,.47,.2,.49,.46l1.8,19.61Zm-1.05-.46l-.56-6.1h-8.6l.19,6.1h8.97Zm-.65-7.1l-.5-5.51h-8.21l.17,5.51h8.54Zm-.59-6.51l-.46-5h-7.84l.15,5h8.15Zm-7.73,22.4v-2.75h-10.99v2.75h10.99Zm-1-8.79l-.19-6.1h-8.6l-.19,6.1h8.98Zm-.22-7.1l-.17-5.51h-8.21l-.16,5.51h8.54Zm-.2-6.51l-.15-5h-7.84l-.16,5h8.15Zm-2.02,18.6v-3.99h-4.11v3.99h4.11Zm-7.13-18.6l.16-5h-7.84l-.46,5h8.14Zm-.2,6.51l.17-5.51h-8.2l-.51,5.51h8.54Zm-.21,7.1l.18-6.1h-8.6l-.56,6.1h8.98Z" stroke-width="0"/><path d="M28.53,6.03c.2,.19,.2,.51,0,.71l-5.6,5.6c1.23,1.4,1.99,3.22,1.99,5.23,0,.27-.23,.5-.5,.5s-.5-.23-.5-.5c0-3.82-3.11-6.92-6.92-6.92s-6.92,3.1-6.92,6.92,3.1,6.92,6.92,6.92c.27,0,.5,.22,.5,.5s-.23,.5-.5,.5c-2.01,0-3.83-.76-5.23-1.99l-5.6,5.6c-.1,.1-.23,.15-.36,.15s-.25-.05-.35-.15c-.2-.19-.2-.51,0-.7l5.6-5.61c-1.13-1.28-1.84-2.92-1.96-4.72H1.18c-.28,0-.5-.23-.5-.5s.22-.5,.5-.5h7.92c.12-1.81,.83-3.45,1.96-4.73L5.46,6.74c-.2-.2-.2-.52,0-.71,.19-.2,.51-.2,.71,0l5.6,5.6c1.28-1.13,2.92-1.84,4.73-1.96V1.75c0-.28,.22-.5,.5-.5s.5,.22,.5,.5v7.92c1.8,.12,3.44,.83,4.72,1.96l5.61-5.6c.19-.2,.51-.2,.7,0Z" stroke-width="0"/></g></svg>