<?xml version="1.0" encoding="UTF-8"?><svg width="70" height="70" xmlns="http://www.w3.org/2000/svg" viewBox="-10 -10 70 70"><rect x="-10" y="-10" width="70" height="70" fill="white"/><g id="uuid-7d09f721-7a2c-4713-9975-5e1286586807"><path d="M4.43,28.38c.23,5.93,4.44,11.3,11.1,14.08,.2,.08,.33,.29,.3,.51-.02,.22-.18,.4-.4,.44-3.22,.65-3.92,1.39-3.92,1.62,0,.83,4.81,2.44,13.61,2.44s13.61-1.61,13.61-2.44c0-.23-.7-.97-3.88-1.62-.22-.04-.38-.22-.4-.44s.1-.43,.31-.51c6.68-2.78,10.9-8.15,11.12-14.09H4.43Z" fill="#ffcd00" stroke-width="0"/><path d="M48.18,7.34l-2.82-2.15c-.11-.08-.24-.12-.37-.1-.13,.02-.25,.09-.33,.19l-15.49,20.34H2.12c-.28,0-.5,.22-.5,.5,0,6.28,4.15,11.8,10.36,14.88-1.93,.52-3.27,1.26-3.27,2.27,0,2.72,9.56,3.44,14.61,3.44s14.61-.72,14.61-3.44c0-1.01-1.32-1.74-3.22-2.26,6.22-3.08,10.38-8.6,10.38-14.9,0-.28-.22-.5-.5-.5h-9.72l13.39-17.59c.17-.22,.12-.53-.1-.7Zm-11.24,35.95c0,.83-4.81,2.44-13.61,2.44s-13.61-1.61-13.61-2.44c0-.43,1.31-1.07,3.79-1.59,2.96,1.22,6.31,1.91,9.85,1.91s6.88-.69,9.83-1.9c2.45,.52,3.75,1.15,3.75,1.58Zm-13.58-.68c-11.23,0-20.4-7.12-20.73-15.98H44.09c-.33,8.86-9.51,15.98-20.73,15.98Zm10.27-16.98h-3.2L45.15,6.29l2.03,1.54-13.55,17.8Z" stroke-width="0"/><path d="M19.07,22.32c.1,.1,.23,.16,.36,.16,.12,0,.25-.05,.34-.14,.2-.19,.21-.51,.02-.71-.17-.19-4.23-4.61,.01-9.42,1.66-1.88,2.37-3.71,2.12-5.42-.32-2.22-2.15-3.39-2.23-3.44-.23-.15-.54-.08-.69,.16-.15,.23-.08,.54,.15,.69,.02,0,1.53,.99,1.78,2.75,.2,1.41-.43,2.96-1.88,4.6-4.85,5.5-.04,10.71,.01,10.77Z" stroke-width="0"/><path d="M10.08,22.23c.1,.1,.23,.16,.36,.16,.12,0,.25-.05,.34-.14,.2-.19,.21-.5,.02-.71-.12-.12-2.83-3.09,.01-6.31,1.18-1.34,1.69-2.64,1.51-3.88-.23-1.61-1.56-2.46-1.62-2.49-.23-.15-.54-.08-.69,.16-.15,.23-.08,.54,.16,.69,0,0,.99,.63,1.16,1.79,.14,.93-.29,1.96-1.27,3.07-3.45,3.91-.02,7.62,.01,7.66Z" stroke-width="0"/><path d="M27.16,22.23c.1,.1,.23,.16,.36,.16,.12,0,.25-.05,.34-.14,.2-.19,.21-.5,.02-.71-.12-.12-2.83-3.09,.01-6.31,1.18-1.34,1.69-2.64,1.51-3.88-.23-1.61-1.56-2.46-1.62-2.49-.23-.15-.54-.08-.69,.16-.15,.23-.08,.54,.16,.69,0,0,.99,.63,1.16,1.79,.14,.93-.29,1.96-1.27,3.07-3.45,3.91-.02,7.62,.01,7.66Z" stroke-width="0"/></g><g id="uuid-1f8060fe-7601-4131-97f9-9f638f928f5d"></g></svg>