<?xml version="1.0" encoding="UTF-8"?><svg width="70" height="70" xmlns="http://www.w3.org/2000/svg" viewBox="-10 -10 70 70"><rect x="-10" y="-10" width="70" height="70" fill="white"/><g id="uuid-7a993166-7f96-41d2-98c8-85408423ddf7"><g><path d="M50,23.3c0-6.46-5.25-11.71-11.71-11.71H14.38c-6.46,0-11.71,5.25-11.71,11.71s4.82,11.29,10.98,11.67c.15,0,.28,.08,.37,.2l4.3,5.73,4.28-5.69c.09-.13,.24-.2,.4-.2h15.29c6.46,0,11.71-5.25,11.71-11.71Z" fill="#ffcd00" stroke-width="0"/><path d="M36.62,9.1H12.71C5.7,9.1,0,14.8,0,21.8,0,28.42,5.11,33.93,11.69,34.46l4.57,6.08c.09,.13,.24,.2,.4,.2s.31-.07,.4-.2l4.53-6.03h15.04c7.01,0,12.71-5.7,12.71-12.71s-5.7-12.71-12.71-12.71Zm-15.69,24.62l-4.28,5.69-4.3-5.73c-.09-.12-.22-.19-.37-.2-6.16-.38-10.98-5.51-10.98-11.67S6.25,10.1,12.71,10.1h23.91c6.46,0,11.71,5.25,11.71,11.71s-5.25,11.71-11.71,11.71h-15.29c-.16,0-.31,.07-.4,.2Z" stroke-width="0"/></g></g><g id="uuid-4e94ca38-ff52-4ebb-b46e-4b7355b3722b"></g></svg>