<?xml version="1.0" encoding="UTF-8"?><svg width="70" height="70" xmlns="http://www.w3.org/2000/svg" viewBox="-10 -10 70 70"><rect x="-10" y="-10" width="70" height="70" fill="white"/><g id="uuid-944cd1d4-b874-4549-a4ee-e7712fb5b24a"><g><path d="M36.87,9.48H15.63c-6.64,0-12.04,5.84-12.04,13.01s4.96,12.56,11.29,12.97c.24,.02,.43,.2,.46,.43l.96,7.09,7.84-7.35c.09-.09,.22-.14,.34-.14h12.39c6.64,0,12.04-5.84,12.04-13.02s-5.4-13.01-12.04-13.01Zm-12.12,20.32c-4.79,0-8.67-3.88-8.67-8.67s3.88-8.67,8.67-8.67,8.67,3.88,8.67,8.67-3.88,8.67-8.67,8.67Z" fill="#ffcd00" stroke-width="0"/><path d="M35.37,6.98H14.13C6.94,6.98,1.09,13.26,1.09,20.99c0,7.23,5.16,13.27,11.82,13.94l1.03,7.66c.02,.19,.15,.34,.33,.4,.05,.02,.11,.03,.17,.03,.12,0,.25-.05,.34-.14l8.4-7.88h12.2c7.19,0,13.04-6.29,13.04-14.02s-5.85-14.01-13.04-14.01Zm0,27.03h-12.39c-.13,0-.25,.05-.34,.14l-7.84,7.35-.96-7.09c-.03-.24-.23-.42-.46-.43-6.33-.42-11.29-6.12-11.29-12.97S7.49,7.98,14.13,7.98h21.25c6.64,0,12.04,5.84,12.04,13.01s-5.4,13.02-12.04,13.02Z" stroke-width="0"/><path d="M24.75,11.66c-5.22,0-9.47,4.25-9.47,9.47s4.25,9.47,9.47,9.47,9.47-4.25,9.47-9.47-4.25-9.47-9.47-9.47Zm-.08,17.64c-.63-.6-1.7-1.79-2.51-3.49h5.03c-.81,1.71-1.89,2.89-2.51,3.49Zm-2.93-4.49c-.37-1.02-.62-2.18-.65-3.49h7.15c-.03,1.3-.28,2.47-.65,3.49h-5.85Zm-5.45-3.49h3.8c.02,1.29,.25,2.45,.59,3.49h-3.55c-.51-1.06-.81-2.24-.84-3.49Zm8.38-8.42c.56,.53,1.46,1.52,2.23,2.93h-4.45c.76-1.4,1.67-2.4,2.23-2.93Zm2.71,3.93c.43,1.01,.75,2.17,.85,3.49h-7.11c.09-1.32,.42-2.48,.85-3.49h5.41Zm-7.26,3.49h-3.8c.12-1.26,.52-2.45,1.14-3.49h3.42c-.4,1.02-.68,2.19-.77,3.49Zm9.13,1h3.96c-.03,1.25-.33,2.43-.84,3.49h-3.7c.34-1.03,.56-2.2,.59-3.49Zm-.02-1c-.09-1.3-.37-2.46-.77-3.49h3.58c.62,1.04,1.02,2.22,1.14,3.49h-3.95Zm2.12-4.49h-3.33c-.66-1.34-1.46-2.38-2.1-3.08,2.19,.3,4.11,1.44,5.43,3.08Zm-7.94-3.06c-.64,.7-1.43,1.73-2.08,3.06h-3.17c1.29-1.6,3.14-2.72,5.25-3.06Zm-5.71,13.03h3.37c.71,1.64,1.66,2.88,2.39,3.68-2.4-.37-4.47-1.74-5.76-3.68Zm8.16,3.71c.74-.79,1.7-2.05,2.42-3.71h3.52c-1.32,1.99-3.47,3.38-5.94,3.71Z" stroke-width="0"/></g></g><g id="uuid-03b60191-a22e-44cb-9e29-ff998f3456b1"></g></svg>