<?xml version="1.0" encoding="UTF-8"?><svg width="70" height="70" xmlns="http://www.w3.org/2000/svg" viewBox="-10 -10 70 70"><rect x="-10" y="-10" width="70" height="70" fill="white"/><g id="uuid-2ab7d776-7771-4e6d-8ee9-7bdc8367a4b7"><path d="M46.26,4.81c-1.28-1.14-3.32-1.31-5.75-.47-2.53,.87-5.14,2.72-7.36,5.2-3.3,3.71-5.04,8.12-4.43,11.23,0,.04,.01,.08,0,.12,0,.12-.05,.24-.13,.33L6.08,46.52l3.32,2.95L31.84,24.24c.11-.12,.28-.19,.44-.17,3.14,.33,7.47-1.96,10.79-5.7h0c2.98-3.35,4.72-7.33,4.54-10.39-.08-1.36-.55-2.46-1.36-3.18Z" fill="#ffcd00" stroke-width="0"/><path d="M45.2,2.28c-1.57-1.41-3.98-1.65-6.79-.68-2.7,.93-5.47,2.88-7.8,5.5-3.42,3.85-5.25,8.48-4.72,11.87L3.2,44.46c-.09,.1-.14,.24-.13,.38,0,.14,.07,.27,.17,.36l4.1,3.65c.1,.09,.22,.13,.35,.13h.03c.14,0,.27-.07,.36-.18L30.7,23.38c3.48,.22,7.91-2.13,11.41-6.07,3.16-3.55,5-7.82,4.81-11.14-.1-1.64-.69-2.99-1.71-3.9Zm-3.88,14.34c-3.32,3.74-7.65,6.03-10.79,5.7-.17-.02-.33,.05-.44,.17L7.65,47.72l-3.32-2.95L26.84,19.47c.08-.09,.13-.21,.13-.33,0-.04,0-.08,0-.12-.6-3.1,1.14-7.51,4.43-11.23,2.21-2.48,4.82-4.33,7.36-5.2,2.43-.84,4.47-.67,5.75,.47,.81,.72,1.28,1.82,1.36,3.18,.18,3.06-1.56,7.04-4.54,10.39h0Z" stroke-width="0"/><path d="M41.56,12.38c-.25-.15-.57-.06-.72,.18-1.14,1.93-2.73,3.56-4.6,4.7-1.25,.77-2.62,1.32-4.07,1.64-.28,.06-.46,.34-.4,.62,.05,.24,.27,.41,.51,.41,.04,0,.08,0,.11-.01,1.56-.35,3.04-.95,4.39-1.77,2.02-1.23,3.73-2.98,4.96-5.06,.15-.25,.06-.57-.18-.72Z" stroke-width="0"/></g><g id="uuid-04e4790b-6bee-4811-bd8a-3a39bf93de8e"></g></svg>