<?xml version="1.0" encoding="UTF-8"?><svg width="70" height="70" id="uuid-5769d86a-30f5-458b-b74a-193fd0b03b5e" xmlns="http://www.w3.org/2000/svg" viewBox="-10 -10 70 70"><rect x="-10" y="-10" width="70" height="70" fill="white"/><path d="M41.09,17.75c-.02-.06-.04-.13-.04-.19V8.01h0v-1h4V3.22H23.06l1.9,3.79h8.11v10.54c0,.11-.04,.23-.11,.31l-9.47,11.73v19.69h22.49V29.52l-4.88-11.77Zm-.92,19.18h-3.95c-.28,0-.5,.22-.5,.5v3.95h-4.98v-3.95c0-.28-.22-.5-.5-.5h-3.95v-4.98h3.95c.28,0,.5-.22,.5-.5v-3.95h4.98v3.95c0,.28,.22,.5,.5,.5h3.95v4.98Z" fill="#ffcd00" stroke-width="0"/><path d="M45.44,27.73l-4.88-11.77V6.51h3.51c.28,0,.5-.22,.5-.5V1.22c0-.28-.22-.5-.5-.5H20.75c-.17,0-.33,.09-.43,.24-.09,.15-.1,.33-.02,.49l2.4,4.79c.08,.17,.26,.28,.45,.28h5.66l-1.93,4.81c-.1,.26,.02,.55,.28,.65,.06,.02,.12,.04,.19,.04,.2,0,.39-.12,.46-.31l2.07-5.18h.68V15.88l-9.47,11.73c-.07,.09-.11,.2-.11,.31v20.36c0,.28,.22,.5,.5,.5h23.49c.28,0,.5-.22,.5-.5V27.92c0-.07-.01-.13-.04-.19ZM23.46,5.51l-1.9-3.79h22v3.79H23.46Zm21.02,42.27H21.98V28.09l9.47-11.73c.07-.09,.11-.2,.11-.31V6.51h7.99v9.54c0,.07,.01,.13,.04,.19l4.88,11.77v19.76Z" stroke-width="0"/><path d="M36.72,27c0-.28-.22-.5-.5-.5h-5.98c-.28,0-.5,.22-.5,.5v3.95h-3.95c-.28,0-.5,.22-.5,.5v5.98c0,.28,.22,.5,.5,.5h3.95v3.95c0,.28,.22,.5,.5,.5h5.98c.28,0,.5-.22,.5-.5v-3.95h3.95c.28,0,.5-.22,.5-.5v-5.98c0-.28-.22-.5-.5-.5h-3.95v-3.95Zm3.45,4.95v4.98h-3.95c-.28,0-.5,.22-.5,.5v3.95h-4.98v-3.95c0-.28-.22-.5-.5-.5h-3.95v-4.98h3.95c.28,0,.5-.22,.5-.5v-3.95h4.98v3.95c0,.28,.22,.5,.5,.5h3.95Z" stroke-width="0"/><path d="M17.79,2.99h1c.28,0,.5-.22,.5-.5,0-.28-.22-.5-.5-.5h-1c-.28,0-.5,.22-.5,.5,0,.28,.22,.5,.5,.5Z" stroke-width="0"/><path d="M8.46,2.96h2.33c.28,0,.5-.22,.5-.49,0-.28-.22-.5-.5-.5h-2.33c-.28,0-.5,.22-.5,.49,0,.28,.22,.5,.5,.5Z" stroke-width="0"/><path d="M13.13,2.97h2.33c.28,0,.5-.22,.5-.49,0-.28-.22-.5-.5-.5h-2.33c-.28,0-.5,.22-.5,.49,0,.28,.22,.5,.5,.5Z" stroke-width="0"/><path d="M6.13,1.95h-1c-.28,0-.5,.22-.5,.5,0,.28,.22,.5,.5,.5h1c.28,0,.5-.22,.5-.5,0-.28-.22-.5-.5-.5Z" stroke-width="0"/><path d="M19.31,4.33c.26-.09,.4-.38,.3-.64-.09-.26-.38-.39-.64-.3l-.94,.34c-.26,.09-.4,.38-.3,.64,.07,.2,.27,.33,.47,.33,.06,0,.11,0,.17-.03l.94-.34Z" stroke-width="0"/><path d="M14.09,5.67c.07,.2,.27,.33,.47,.33,.06,0,.11,0,.17-.03l1.82-.65c.26-.09,.4-.38,.3-.64s-.38-.39-.64-.3l-1.82,.65c-.26,.09-.4,.38-.3,.64Z" stroke-width="0"/><path d="M13.21,5.98c-.09-.26-.38-.39-.64-.3l-1.82,.65c-.26,.09-.4,.38-.3,.64,.07,.2,.27,.33,.47,.33,.06,0,.11,0,.17-.03l1.82-.65c.26-.09,.4-.38,.3-.64Z" stroke-width="0"/><path d="M9.57,7.29c-.09-.26-.38-.39-.64-.3l-1.82,.65c-.26,.09-.4,.38-.3,.64,.07,.2,.27,.33,.47,.33,.06,0,.11,0,.17-.03l1.82-.65c.26-.09,.4-.38,.3-.64Z" stroke-width="0"/><path d="M5.29,8.29l-.94,.34c-.26,.09-.4,.38-.3,.64,.07,.2,.27,.33,.47,.33,.06,0,.11,0,.17-.03l.94-.34c.26-.09,.4-.38,.3-.64-.09-.26-.38-.39-.64-.3Z" stroke-width="0"/><path d="M19.23,4.83l-.76,.65c-.21,.18-.24,.49-.06,.71,.1,.12,.24,.18,.38,.18,.11,0,.23-.04,.32-.12l.76-.65c.21-.18,.24-.49,.06-.71-.18-.21-.49-.24-.71-.06Z" stroke-width="0"/><path d="M14.54,8.8l-1.31,1.11c-.21,.18-.24,.49-.06,.71,.1,.12,.24,.18,.38,.18,.11,0,.23-.04,.32-.12l1.31-1.11c.21-.18,.24-.49,.06-.71-.18-.21-.49-.24-.7-.06Z" stroke-width="0"/><path d="M17.16,6.58l-1.31,1.11c-.21,.18-.24,.49-.06,.71,.1,.12,.24,.18,.38,.18,.11,0,.23-.04,.32-.12l1.31-1.11c.21-.18,.24-.49,.06-.71-.18-.21-.49-.24-.7-.06Z" stroke-width="0"/><path d="M11.91,11.02l-1.31,1.11c-.21,.18-.24,.49-.06,.7,.1,.12,.24,.18,.38,.18,.11,0,.23-.04,.32-.12l1.31-1.11c.21-.18,.24-.49,.06-.7-.18-.21-.49-.24-.7-.06Z" stroke-width="0"/><path d="M9.29,13.24l-.76,.65c-.21,.18-.24,.49-.06,.71,.1,.12,.24,.18,.38,.18,.11,0,.23-.04,.32-.12l.76-.65c.21-.18,.24-.49,.06-.71-.18-.21-.49-.24-.71-.06Z" stroke-width="0"/></svg>