<?xml version="1.0" encoding="UTF-8"?><svg width="70" height="70" xmlns="http://www.w3.org/2000/svg" viewBox="-10 -10 70 70"><rect x="-10" y="-10" width="70" height="70" fill="white"/><g id="uuid-c55a155b-ccb7-4825-a2a1-9f7897dd6e24"><g><g><path d="M4.41,12.23H49.19c-.66-4.86-10.9-8.88-22.94-8.88S3.97,7.36,3.31,12.23h1.11Z" fill="#ffcd00" stroke-width="0"/><polygon points="48.09 42.39 40.74 42.39 11.76 42.39 4.41 42.39 3.27 42.39 3.27 47.54 16.28 47.54 17.28 47.54 17.28 49.15 35.22 49.15 35.22 47.54 36.22 47.54 49.23 47.54 49.23 42.39 48.09 42.39" fill="#ffcd00"/></g><path d="M48.23,39.89h-1.14v-6.66s0-.02,0-.03v-.09s0-.01,0-.02v-7.16h0v-.04s0-.01,0-.02v-7.27h0v-.08h0v-6.79h1.14c.28,0,.5-.22,.5-.5C48.73,5.41,38.2,.85,24.75,.85S.77,5.41,.77,11.23c0,.28,.22,.5,.5,.5h1.14v6.79h0v21.38H1.27c-.28,0-.5,.22-.5,.5v6.15c0,.28,.22,.5,.5,.5H14.78v1.12c0,.28,.22,.5,.5,.5h18.94c.28,0,.5-.22,.5-.5v-1.12h13.51c.28,0,.5-.22,.5-.5v-6.15c0-.28-.22-.5-.5-.5Zm-.5,6.15h-13.01v-.99c0-.28-.22-.5-.5-.5H15.28c-.28,0-.5,.22-.5,.5v.99H1.77v-5.15H47.73v5.15Zm-31.95,1.62v-2.11h17.94v2.11H15.78ZM24.75,1.85c12.04,0,22.28,4.02,22.94,8.88H1.81C2.47,5.86,12.71,1.85,24.75,1.85Zm14.99,32.46l2.46,2.44-2.46,2.44v-4.88Zm.27-1.15l2.91-2.88,2.91,2.88-2.91,2.88-2.91-2.88Zm-.27-1.15v-4.88l2.46,2.44-2.46,2.44Zm.19-6.11l2.98-2.96,2.98,2.96-2.98,2.96-2.98-2.96Zm-.19-1.22v-4.88l2.46,2.44-2.46,2.44Zm.17-6.12l3-2.98,3,2.98-3,2.98-3-2.98Zm-.17-1.24v-4.88l2.46,2.44-2.46,2.44Zm.71-5.58h4.92l-2.46,2.44-2.46-2.44Zm-1.71,0v2.62H10.76v-2.62h27.99ZM9.76,24.68l-2.46-2.44,2.46-2.44v4.88Zm-.19,1.22l-2.98,2.96-2.98-2.96,2.98-2.96,2.98,2.96Zm.19,1.23v4.88l-2.46-2.44,2.46-2.44Zm0-14.7v4.88l-2.46-2.44,2.46-2.44Zm-3.17,1.73l-2.46-2.44h4.92l-2.46,2.44Zm3,4.39l-3,2.98-3-2.98,3-2.98,3,2.98Zm-3.71,3.68l-2.46,2.44v-4.89l2.46,2.45Zm-2.46,4.88l2.46,2.44-2.46,2.44v-4.89Zm3.18,3.15l2.91,2.88-2.91,2.88-2.91-2.88,2.91-2.88Zm3.17,4.03v4.88l-2.46-2.44,2.46-2.44Zm-.71,5.58H4.13l2.46-2.44,2.46,2.44Zm1.71,0v-6.64s0-.05,0-.07v-.05s0-.04,0-.06v-7.11s0-.03,0-.05c0-.02,0-.03,0-.05v-7.23s0-.03,0-.05v-.02s0-.04,0-.06v-3.14h2.97v1.61h-.79c-.28,0-.5,.22-.5,.5s.22,.5,.5,.5h2.58c.28,0,.5-.22,.5-.5s-.22-.5-.5-.5h-.79v-1.61h6.02v1.61h-.79c-.28,0-.5,.22-.5,.5s.22,.5,.5,.5h2.58c.28,0,.5-.22,.5-.5s-.22-.5-.5-.5h-.79v-1.61h6.02v1.61h-.79c-.28,0-.5,.22-.5,.5s.22,.5,.5,.5h2.58c.28,0,.5-.22,.5-.5s-.22-.5-.5-.5h-.79v-1.61h6.02v1.61h-.79c-.28,0-.5,.22-.5,.5s.22,.5,.5,.5h2.58c.28,0,.5-.22,.5-.5s-.22-.5-.5-.5h-.79v-1.61h2.97v3.14s0,.03,0,.04v.05s0,.01,0,.02v7.26s0,.02,0,.03v.02h0v7.18h0v.1s0,.01,0,.02v6.67H10.76Zm32.16-2.44l2.46,2.44h-4.92l2.46-2.44Zm.71-.71l2.46-2.44v4.88l-2.46-2.44Zm0-7.18l2.46-2.44v4.89l-2.46-2.44Zm0-7.33l2.46-2.44v4.89l-2.46-2.44Zm0-7.37l2.46-2.44v4.89l-2.46-2.44Zm-37.75,0l-2.46,2.44v-4.89l2.46,2.44Zm0,21.87l-2.47,2.45v-4.89l2.47,2.45Z" stroke-width="0"/></g></g><g id="uuid-67dc3b0f-1782-479d-8bb8-5eebc4c4d924"></g></svg>