<?xml version="1.0" encoding="UTF-8"?><svg width="70" height="70" xmlns="http://www.w3.org/2000/svg" viewBox="-10 -10 70 70"><rect x="-10" y="-10" width="70" height="70" fill="white"/><g id="uuid-da96896b-9531-4698-ad69-13ce4d835b23"><path d="M36.11,13.01c0,.13-.05,.26-.15,.35s-.22,.15-.35,.15h-8.77v7.95c0,.28-.22,.5-.5,.5h-7.75v7.94c0,.28-.22,.5-.5,.5H9.65v8.13c0,.28-.23,.5-.51,.5l-5.85,.02v7.65H49.46V6.05h-13.34v6.97Z" fill="#ffcd00" stroke-width="0"/><path d="M48.21,3.3h-14.34c-.28,0-.5,.22-.5,.5v6.97h-8.71c-.29-.03-.56,.2-.56,.5v7.95h-7.75c-.28,0-.5,.22-.5,.5v7.94H7.4c-.28,0-.5,.23-.5,.5v8.13l-5.85,.02c-.28,0-.5,.22-.5,.5v8.65c0,.28,.22,.5,.5,.5H48.21c.28,0,.5-.22,.5-.5V3.8c0-.28-.22-.5-.5-.5Zm-.5,41.66H1.54v-7.65l5.85-.02c.28,0,.5-.22,.5-.5v-8.13h8.45c.28,0,.5-.23,.5-.5v-7.94h7.75c.28,0,.5-.22,.5-.5v-7.95h8.77c.13,0,.26-.05,.35-.15s.15-.22,.15-.35V4.3h13.34V44.95Z" stroke-width="0"/></g><g id="uuid-884578e2-5a88-4cce-baeb-a3da1a6203a0"></g></svg>