<?xml version="1.0" encoding="UTF-8"?><svg width="70" height="70" xmlns="http://www.w3.org/2000/svg" viewBox="-10 -10 70 70"><rect x="-10" y="-10" width="70" height="70" fill="white"/><g id="uuid-4a51e620-e809-4d88-99f9-62cb4c155621"><path d="M38.38,23.69c0,.28-.22,.5-.5,.5h-11.13v6.22c0,.28-.22,.5-.5,.5H15.12v6.22c0,.28-.22,.5-.5,.5H3.49v10.64H49.01V17.55h-10.63v6.14Z" fill="#ffcd00" stroke-width="0"/><path d="M48.01,15.05h-11.63c-.28,0-.5,.22-.5,.5v6.14h-11.13c-.28,0-.5,.22-.5,.5v6.22H13.12c-.28,0-.5,.22-.5,.5v6.22H1.49c-.28,0-.5,.22-.5,.5v11.64c0,.28,.22,.5,.5,.5H48.01c.28,0,.5-.22,.5-.5V15.55c0-.28-.22-.5-.5-.5Zm-.5,31.71H1.99v-10.64H13.12c.28,0,.5-.22,.5-.5v-6.22h11.13c.28,0,.5-.22,.5-.5v-6.22h11.13c.28,0,.5-.22,.5-.5v-6.14h10.63v30.71Z" stroke-width="0"/><path d="M21.05,8.68c-.08,.27,.08,.54,.34,.62l6.88,2L9.1,21.85c-.24,.13-.33,.44-.2,.68,.09,.17,.26,.26,.44,.26,.08,0,.16-.02,.24-.06L28.67,12.22l-1.98,6.81c-.08,.27,.08,.54,.34,.62,.05,.01,.09,.02,.14,.02,.22,0,.42-.14,.48-.36l2.3-7.92s0-.02,0-.03c.05-.13,.04-.28-.03-.41,0-.01-.02-.02-.03-.03-.06-.13-.16-.24-.31-.28l-7.92-2.3c-.27-.08-.54,.08-.62,.34Z" stroke-width="0"/><path d="M1.18,13.29c.06,.11,.16,.18,.27,.22,.03,.01,.05,.03,.08,.04l7.89,2.4s.1,.02,.15,.02c.21,0,.41-.14,.48-.35,.08-.26-.07-.54-.33-.62l-6.79-2.07L22.15,2.67c.24-.13,.34-.43,.21-.68-.13-.25-.44-.34-.68-.21L2.37,12.09l2.09-6.86c.08-.26-.07-.54-.33-.62-.27-.08-.54,.07-.62,.33L1.1,12.83c-.05,.15-.01,.3,.07,.42,0,.01,0,.03,.01,.04Z" stroke-width="0"/></g><g id="uuid-4b2b4c26-faf7-42d7-8568-e571d8104986"></g></svg>