<?xml version="1.0" encoding="utf-8"?> <!-- Generator: Adobe Illustrator 27.7.0, SVG Export Plug-In . SVG Version: 6.00 Build 0) --> <svg width="70" height="70" version="1.1" xmlns="http://www.w3.org/2000/svg" xmlns:xlink="http://www.w3.org/1999/xlink" x="0px" y="0px" viewBox="-10 -10 70 70" style="enable-background:new 0 0 50 50;" xml:space="preserve"><rect x="-10" y="-10" width="70" height="70" fill="white"/> <style type="text/css"> .st0{fill:#FFCD00;} .st1{display:none;} .st2{display:inline;fill:none;stroke:#EA008A;stroke-width:0.2;stroke-miterlimit:10;} .st3{font-family:'Roboto-Regular';} .st4{font-size:6px;} </style> <g id="Color"> <path class="st0" d="M22.1982,16.1953c-2.0684-1.3398-4.3921-1.9795-6.6904-1.9795c-4.0508,0-8.0229,1.9873-10.3828,5.6328 c-1.7925,2.7686-2.3994,6.0684-1.7095,9.2939c0.6899,3.2246,2.5947,5.9873,5.3628,7.7793c2.7686,1.7939,6.0688,2.4004,9.2935,1.71 s5.9878-2.5947,7.7798-5.3633C29.5513,27.5547,27.9126,19.8955,22.1982,16.1953z M23.8062,31.9443 c-1.895,2.9258-5.083,4.5205-8.3335,4.5205c-1.8452,0-3.7095-0.5127-5.3701-1.5879c-2.2217-1.4385-3.7505-3.6562-4.3042-6.2451 c-0.5537-2.5879-0.0669-5.2363,1.3716-7.458c2.3518-3.6321,6.6924-5.2033,10.6756-4.2307 c0.0335,0.0071,0.0685,0.0091,0.0991,0.0225c1.0136,0.2587,2.0038,0.6751,2.9294,1.2745c1.764,1.1422,3.0814,2.7804,3.8305,4.7008 c0.0245,0.0425,0.04,0.0878,0.0511,0.137c0.1702,0.4561,0.3188,0.9225,0.4225,1.4073 C25.7319,27.0732,25.2446,29.7227,23.8062,31.9443z" stroke-width="0"/> <path class="st0" d="M47.1402,45.858L29.4433,34.3997l0.4804-0.7421l-3.5573-2.3035c-0.3203,0.8139-0.724,1.6082-1.2173,2.3701 c-0.4738,0.732-1.0123,1.4061-1.6036,2.0208l3.5422,2.2935l0.043-0.0663V37.972l0.0001-0.0001l0.1069-0.1651l17.6965,11.4584 L47.1402,45.858z" stroke-width="0"/> <rect x="42.0756" y="3.332" class="st0" width="0.9633" height="1.5688"/> <path class="st0" d="M43.9188,6.3988V4.9662c-0.834-0.1904-1.4922-0.8486-1.6831-1.6826h-1.4316 c-0.228,0.9951-1.1201,1.7393-2.1826,1.7393s-1.9546-0.7441-2.1826-1.7393h-1.4316c-0.228,0.9951-1.1201,1.7393-2.1826,1.7393 c-1.063,0-1.9551-0.7441-2.1831-1.7393h-1.4316c-0.228,0.9951-1.1201,1.7393-2.1826,1.7393s-1.9546-0.7441-2.1826-1.7393H23.413 c-0.228,0.9951-1.1201,1.7393-2.1826,1.7393c-1.063,0-1.9551-0.7441-2.1831-1.7393h-1.4312 c-0.1909,0.834-0.8491,1.4922-1.6831,1.6826v1.3066c0.9946,0.2275,1.7393,1.1201,1.7393,2.1826s-0.7446,1.9541-1.7393,2.1816 v1.4326c0.0376,0.0086,0.0692,0.0296,0.106,0.0402v0.69h0.9358v-0.1436c0.2592,0.2598,0.4603,0.5809,0.5728,0.9452 c0.6229,0.0843,1.2433,0.2014,1.8557,0.3759v-6.723c0-0.2764,0.2236-0.5,0.5-0.5h20.0601c0.2764,0,0.5,0.2236,0.5,0.5v14.248 c0,0.2764-0.2236,0.5-0.5,0.5H28.1677c0.4296,1.116,0.7139,2.2814,0.8347,3.4697h1.6391c0.228-0.9941,1.1201-1.7383,2.1831-1.7383 c0.1425,0,0.281,0.0154,0.4161,0.041v0.8324h1.3477c0.196,0.2525,0.345,0.5433,0.4188,0.8649h1.4316 c0.228-0.9941,1.1201-1.7383,2.1826-1.7383c0.1561,0,0.3069,0.0206,0.4541,0.0511v0.8498h1.3305 c0.1853,0.2464,0.3269,0.5273,0.398,0.8373h1.4316c0.1914-0.834,0.8491-1.4912,1.6831-1.6816v-1.4326 c-0.3743-0.0856-0.713-0.2656-0.9901-0.5132v-1.1182h-0.6722c-0.0453-0.1773-0.077-0.36-0.077-0.5513 c0-1.0625,0.7446-1.9551,1.7393-2.1826v-1.4316c-0.351-0.0803-0.668-0.2468-0.935-0.4709v-1.1433h-0.7227 c-0.0482-0.1825-0.0816-0.371-0.0816-0.5684c0-1.0625,0.7446-1.9551,1.7393-2.1826v-1.4326 c-0.2932-0.0671-0.5603-0.1973-0.7974-0.3672V9.0843h-0.8777c-0.0377-0.1625-0.0641-0.3291-0.0641-0.5029 C42.1796,7.5189,42.9242,6.6263,43.9188,6.3988z" stroke-width="0"/> <path class="st0" d="M24.1238,24.9925c-0.0129-0.3524-0.1776-0.7294-0.289-1.0585H17.993c-0.2764,0-0.5-0.2236-0.5-0.5v-5.3394 c-0.5779-0.1155-1.1597-0.1938-1.7417-0.1938c-0.9934,0-1.9763,0.1784-2.9131,0.5002v0.7009 c1.251,0.2344,2.2002,1.335,2.2002,2.6533c0,1.3174-0.9492,2.418-2.2002,2.6523v2.0273c0.2006,0.0376,0.3898,0.1042,0.5722,0.1837 v1.3051h1.3571c0.1006,0.209,0.1805,0.4301,0.2245,0.6646h2.0264c0.2349-1.251,1.3354-2.2002,2.6533-2.2002 c0.3721,0,0.7232,0.0825,1.0461,0.2192v1.11h1.2792c0.1566,0.2648,0.2694,0.5584,0.3281,0.871h1.0969 C23.8554,27.7585,24.1857,26.6852,24.1238,24.9925z" stroke-width="0"/> </g> <g id="ICONS_00000031165542127692736420000002692518830807990202_"> <g> <path d="M24.1782,23.4854c-0.1037-0.4847-0.2524-0.9512-0.4225-1.4073c-0.0112-0.0492-0.0267-0.0945-0.0511-0.137 c-0.7491-1.9204-2.0665-3.5587-3.8305-4.7008c-0.9256-0.5994-1.9158-1.0159-2.9294-1.2745 c-0.0306-0.0134-0.0656-0.0154-0.0991-0.0225c-3.9832-0.9727-8.3238,0.5985-10.6756,4.2307 c-1.4385,2.2217-1.9253,4.8701-1.3716,7.458c0.5537,2.5889,2.0825,4.8066,4.3042,6.2451 c1.6606,1.0752,3.5249,1.5879,5.3701,1.5879c3.2505,0,6.4385-1.5947,8.3335-4.5205 C24.2446,28.7227,24.7319,26.0732,24.1782,23.4854z M22.504,21.6855h-5.2594v-4.5833c0.7186,0.2338,1.4219,0.5479,2.0854,0.9778 C20.7225,18.9812,21.803,20.228,22.504,21.6855z M14.5029,16.6523c0.582,0,1.1638,0.0783,1.7417,0.1938v5.3394 c0,0.2764,0.2236,0.5,0.5,0.5h6.1714c0.1115,0.3291,0.2104,0.6639,0.2841,1.0088c0.2615,1.2217,0.2583,2.4571,0.0154,3.6455 h-2.1389c-0.2349-1.251-1.3354-2.2002-2.6533-2.2002s-2.4185,0.9492-2.6533,2.2002h-2.0264 c-0.2046-1.0889-1.0649-1.9492-2.1538-2.1533v-2.0273c1.251-0.2344,2.2002-1.335,2.2002-2.6523 c0-1.3184-0.9492-2.4189-2.2002-2.6533v-0.7009C12.5267,16.8307,13.5095,16.6523,14.5029,16.6523z M21.9663,30.4014 c-2.6699,4.124-8.1987,5.3057-12.3198,2.6357c-1.998-1.293-3.3721-3.2871-3.8701-5.6143s-0.0601-4.709,1.2334-6.7061 c0.9139-1.4113,2.1677-2.4653,3.5801-3.151v0.7408c0,0.2764,0.2236,0.5,0.5,0.5c0.9375,0,1.7002,0.7627,1.7002,1.7002 c0,0.9365-0.7627,1.6992-1.7002,1.6992c-0.2764,0-0.5,0.2236-0.5,0.5v2.9336c0,0.2764,0.2236,0.5,0.5,0.5 c0.9375,0,1.7002,0.7627,1.7002,1.7002c0,0.2764,0.2236,0.5,0.5,0.5h2.9336c0.2764,0,0.5-0.2236,0.5-0.5 c0-0.9375,0.7627-1.7002,1.6997-1.7002s1.6997,0.7627,1.6997,1.7002c0,0.2764,0.2236,0.5,0.5,0.5h2.3223 C22.7083,29.0567,22.3876,29.7507,21.9663,30.4014z" stroke-width="0"/> <path d="M47.8506,43.5L30.2435,32.0999l0.0432-0.0667c0.1499-0.2314,0.0835-0.541-0.1479-0.6914l-2.8996-1.8784 c0.4249-1.39,0.6205-2.8204,0.5828-4.2397h2.0151c0.2764,0,0.5-0.2236,0.5-0.5c0-0.6826,0.5562-1.2383,1.2393-1.2383 s1.2388,0.5557,1.2388,1.2383c0,0.2764,0.2236,0.5,0.5,0.5h2.3193c0.2764,0,0.5-0.2236,0.5-0.5 c0-0.6826,0.5557-1.2383,1.2388-1.2383s1.2388,0.5557,1.2388,1.2383c0,0.2764,0.2236,0.5,0.5,0.5h2.3193 c0.2764,0,0.5-0.2236,0.5-0.5c0-0.6826,0.5562-1.2383,1.2393-1.2383c0.2764,0,0.5-0.2236,0.5-0.5V20.666 c0-0.2764-0.2236-0.5-0.5-0.5c-0.6831,0-1.2393-0.5557-1.2393-1.2393s0.5562-1.2393,1.2393-1.2393c0.2764,0,0.5-0.2236,0.5-0.5 v-2.3184c0-0.2764-0.2236-0.5-0.5-0.5c-0.6831,0-1.2393-0.5557-1.2393-1.2393s0.5562-1.2393,1.2393-1.2393 c0.2764,0,0.5-0.2236,0.5-0.5V9.0713c0-0.2764-0.2236-0.5-0.5-0.5c-0.6831,0-1.2393-0.5557-1.2393-1.2383 c0-0.6836,0.5562-1.2393,1.2393-1.2393c0.2764,0,0.5-0.2236,0.5-0.5V3.2744c0-0.2764-0.2236-0.5-0.5-0.5 c-0.6831,0-1.2393-0.5557-1.2393-1.2393c0-0.2764-0.2236-0.5-0.5-0.5h-2.3193c-0.2764,0-0.5,0.2236-0.5,0.5 c0,0.6836-0.5557,1.2393-1.2388,1.2393s-1.2388-0.5557-1.2388-1.2393c0-0.2764-0.2236-0.5-0.5-0.5h-2.3193 c-0.2764,0-0.5,0.2236-0.5,0.5c0,0.6836-0.5557,1.2393-1.2388,1.2393s-1.2393-0.5557-1.2393-1.2393c0-0.2764-0.2236-0.5-0.5-0.5 h-2.3193c-0.2764,0-0.5,0.2236-0.5,0.5c0,0.6836-0.5557,1.2393-1.2388,1.2393S24.54,2.2188,24.54,1.5352 c0-0.2764-0.2236-0.5-0.5-0.5h-2.3193c-0.2764,0-0.5,0.2236-0.5,0.5c0,0.6836-0.5557,1.2393-1.2388,1.2393 s-1.2393-0.5557-1.2393-1.2393c0-0.2764-0.2236-0.5-0.5-0.5h-2.3188c-0.2764,0-0.5,0.2236-0.5,0.5 c0,0.6836-0.5562,1.2393-1.2393,1.2393c-0.2764,0-0.5,0.2236-0.5,0.5v2.1934c0,0.2764,0.2236,0.5,0.5,0.5 c0.6831,0,1.2393,0.5557,1.2393,1.2393c0,0.6826-0.5562,1.2383-1.2393,1.2383c-0.2764,0-0.5,0.2236-0.5,0.5v2.3193 c0,0.2764,0.2236,0.5,0.5,0.5c0.3895,0,0.7266,0.1942,0.955,0.4808c-4.5928-0.2162-9.1802,1.9307-11.8544,6.0602 c-1.9375,2.9922-2.5933,6.5596-1.8477,10.0459c0.7461,3.4863,2.8047,6.4727,5.7969,8.4102 c2.1875,1.416,4.6816,2.1475,7.2271,2.1475c0.9375,0,1.8813-0.0986,2.8193-0.2998c2.2894-0.4899,4.3556-1.5552,6.0585-3.07 l2.8766,1.862c0.084,0.0537,0.1777,0.0801,0.271,0.0801c0.1641,0,0.3247-0.0801,0.4204-0.2285l0.0428-0.0661l17.6071,11.4001 c0.082,0.0527,0.1763,0.0801,0.272,0.0801c0.0347,0,0.0698-0.0039,0.1045-0.0107c0.1299-0.0283,0.2432-0.1064,0.3154-0.2178 l2.7495-4.2471C48.1484,43.96,48.082,43.6504,47.8506,43.5z M14.6846,10.8213V9.3887c0.9946-0.2275,1.7393-1.1191,1.7393-2.1816 s-0.7446-1.9551-1.7393-2.1826V3.7178c0.834-0.1904,1.4922-0.8486,1.6831-1.6826h1.4312c0.228,0.9951,1.1201,1.7393,2.1831,1.7393 c1.0625,0,1.9546-0.7441,2.1826-1.7393h1.4316c0.228,0.9951,1.1201,1.7393,2.1826,1.7393s1.9546-0.7441,2.1826-1.7393h1.4316 c0.228,0.9951,1.1201,1.7393,2.1831,1.7393c1.0625,0,1.9546-0.7441,2.1826-1.7393h1.4316 c0.228,0.9951,1.1201,1.7393,2.1826,1.7393s1.9546-0.7441,2.1826-1.7393h1.4316c0.1909,0.834,0.8491,1.4922,1.6831,1.6826v1.4326 c-0.9946,0.2275-1.7393,1.1201-1.7393,2.1826s0.7446,1.9541,1.7393,2.1816v1.4326c-0.9946,0.2275-1.7393,1.1201-1.7393,2.1826 s0.7446,1.9551,1.7393,2.1826v1.4316c-0.9946,0.2275-1.7393,1.1201-1.7393,2.1826s0.7446,1.9551,1.7393,2.1826v1.4326 c-0.834,0.1904-1.4917,0.8477-1.6831,1.6816h-1.4316c-0.228-0.9941-1.1201-1.7383-2.1826-1.7383s-1.9546,0.7441-2.1826,1.7383 h-1.4316c-0.228-0.9941-1.1201-1.7383-2.1826-1.7383c-1.063,0-1.9551,0.7441-2.1831,1.7383H27.754 c-0.1208-1.1884-0.4051-2.3537-0.8347-3.4697h11.7956c0.2764,0,0.5-0.2236,0.5-0.5V6.0059c0-0.2764-0.2236-0.5-0.5-0.5H18.6548 c-0.2764,0-0.5,0.2236-0.5,0.5v6.723c-0.6124-0.1745-1.2328-0.2916-1.8557-0.3759 C16.0637,11.5904,15.4588,10.9986,14.6846,10.8213z M21.7422,14.3555h-0.0005c-0.829-0.5364-1.6976-0.9608-2.5869-1.2928V6.5059 h19.0601v13.248H26.4852C25.4587,17.6229,23.8687,15.7325,21.7422,14.3555z M17.0718,37.6318 c-3.2246,0.6904-6.5249,0.084-9.2935-1.71c-2.7681-1.792-4.6729-4.5547-5.3628-7.7793c-0.6899-3.2256-0.083-6.5254,1.7095-9.2939 c2.3599-3.6455,6.332-5.6328,10.3828-5.6328c2.2983,0,4.6221,0.6396,6.6904,1.9795c5.7144,3.7002,7.353,11.3594,3.6533,17.0732 C23.0596,35.0371,20.2964,36.9414,17.0718,37.6318z M24.0878,34.8323c0.5913-0.6147,1.1298-1.2888,1.6036-2.0208 c0.4933-0.7619,0.897-1.5562,1.2173-2.3701l2.2666,1.4677l-2.7929,4.3144l-0.0001,0.0001v0.0001l-0.043,0.0663L24.0878,34.8323z M44.6812,47.4756L27.4938,36.3469l2.2058-3.407l17.1876,11.1285L44.6812,47.4756z" stroke-width="0"/> <path d="M8.9243,27.333c-0.6934-2.3291,0.1021-4.2764,0.4761-5.0059c0.126-0.2461,0.0293-0.5469-0.2168-0.6738 c-0.2451-0.125-0.5469-0.0283-0.6729,0.2168c-0.4292,0.8369-1.3418,3.0723-0.5444,5.748 c0.6782,2.2764,2.2065,3.5918,3.0566,4.1729c0.0864,0.0586,0.1846,0.0869,0.2817,0.0869c0.1597,0,0.3164-0.0762,0.4131-0.2178 c0.1562-0.2285,0.0977-0.5391-0.1304-0.6953C10.8462,30.459,9.5146,29.3135,8.9243,27.333z" stroke-width="0"/> </g> </g> <g id="Margin" class="st1"> <rect x="1" y="1" class="st2" /> <rect x="1" y="1" class="st2" /> </g> <g id="Guides" class="st1"> </g> <g id="LABELS"> <g> <g> <g> <g> <g> <g> </g> </g> </g> </g> </g> </g> </g> </svg> 