<?xml version="1.0" encoding="UTF-8"?><svg width="70" height="70" xmlns="http://www.w3.org/2000/svg" viewBox="-10 -10 70 70"><rect x="-10" y="-10" width="70" height="70" fill="white"/><g id="uuid-a87539cf-1382-4c73-ab7b-4c507384bdd7"><g><path d="M17.28,21.28l6.29,3.31-1.2-7c-.03-.16,.03-.33,.14-.44l5.09-4.96-7.03-1.02c-.16-.02-.3-.13-.38-.27l-3.15-6.37-3.15,6.37c-.07,.15-.21,.25-.38,.27l-7.03,1.02,5.09,4.96c.12,.12,.17,.28,.14,.44l-1.2,7,6.29-3.31c.14-.08,.32-.08,.46,0Z" fill="#ffcd00" stroke-width="0"/><path d="M25.04,37.66l-2.48-5.03-2.48,5.03c-.07,.15-.21,.25-.38,.27l-5.55,.81,4.01,3.91c.12,.12,.17,.28,.14,.44l-.95,5.53,4.96-2.61c.14-.08,.32-.08,.46,0l4.96,2.61-.95-5.52c-.03-.16,.03-.33,.14-.44l4.01-3.91-5.55-.81c-.16-.02-.3-.13-.38-.27Z" fill="#ffcd00" stroke-width="0"/><path d="M41.22,21.81l-2.2-4.45-2.2,4.45c-.07,.15-.21,.25-.38,.27l-4.91,.71,3.55,3.46c.12,.12,.17,.28,.14,.44l-.84,4.89,4.39-2.31c.07-.04,.15-.06,.23-.06s.16,.02,.23,.06l4.39,2.31-.84-4.89c-.03-.16,.03-.33,.14-.44l3.55-3.46-4.91-.71c-.16-.02-.3-.13-.38-.27Z" fill="#ffcd00" stroke-width="0"/><path d="M22.5,24.44c.17,.09,.37,.07,.53-.04,.15-.11,.23-.3,.2-.49l-1.33-7.74,5.63-5.48c.14-.13,.19-.33,.13-.51-.06-.18-.21-.31-.4-.34l-7.78-1.13L16,1.66c-.08-.17-.26-.28-.45-.28s-.36,.11-.45,.28l-3.48,7.05-7.78,1.13c-.19,.03-.34,.16-.4,.34-.06,.18,0,.38,.13,.51l5.63,5.48-1.33,7.74c-.03,.19,.04,.38,.2,.49,.09,.06,.19,.1,.29,.1,.08,0,.16-.02,.23-.06l6.96-3.66,6.96,3.66Zm-13.48-1.36l1.2-7c.03-.16-.03-.33-.14-.44l-5.09-4.96,7.03-1.02c.16-.02,.3-.13,.38-.27l3.15-6.37,3.15,6.37c.07,.15,.21,.25,.38,.27l7.03,1.02-5.09,4.96c-.12,.12-.17,.28-.14,.44l1.2,7-6.29-3.31c-.14-.08-.32-.08-.46,0l-6.29,3.31Z" stroke-width="0"/><path d="M30.62,36.4l-6.29-.91-2.81-5.7c-.08-.17-.26-.28-.45-.28s-.36,.11-.45,.28l-2.81,5.7-6.29,.91c-.19,.03-.34,.16-.4,.34-.06,.18,0,.38,.13,.51l4.55,4.44-1.07,6.26c-.03,.19,.04,.38,.2,.49,.15,.11,.36,.13,.53,.04l5.63-2.96,5.63,2.96c.07,.04,.15,.06,.23,.06,.1,0,.21-.03,.29-.1,.15-.11,.23-.3,.2-.49l-1.08-6.26,4.55-4.44c.14-.13,.19-.33,.13-.51-.06-.18-.21-.31-.4-.34Zm-5.16,4.76c-.12,.12-.17,.28-.14,.44l.95,5.52-4.96-2.61c-.14-.08-.32-.08-.46,0l-4.96,2.61,.95-5.53c.03-.16-.03-.33-.14-.44l-4.01-3.91,5.55-.81c.16-.02,.3-.13,.38-.27l2.48-5.03,2.48,5.03c.07,.15,.21,.25,.38,.27l5.55,.81-4.01,3.91Z" stroke-width="0"/><path d="M46.56,20.79c-.06-.18-.22-.31-.4-.34l-5.66-.82-2.53-5.12c-.17-.34-.73-.34-.9,0l-2.53,5.12-5.66,.82c-.19,.03-.34,.16-.4,.34-.06,.18,0,.38,.13,.51l4.09,3.99-.97,5.63c-.03,.19,.04,.38,.2,.49,.09,.06,.19,.1,.29,.1,.08,0,.16-.02,.23-.06l5.06-2.66,5.06,2.66c.17,.09,.37,.07,.53-.04,.15-.11,.23-.3,.2-.49l-.97-5.63,4.09-3.99c.14-.13,.19-.33,.13-.51Zm-5.1,3.97c-.12,.12-.17,.28-.14,.44l.84,4.89-4.39-2.31c-.07-.04-.15-.06-.23-.06s-.16,.02-.23,.06l-4.39,2.31,.84-4.89c.03-.16-.03-.33-.14-.44l-3.55-3.46,4.91-.71c.16-.02,.3-.13,.38-.27l2.2-4.45,2.2,4.45c.07,.15,.21,.25,.38,.27l4.91,.71-3.55,3.46Z" stroke-width="0"/></g></g><g id="uuid-5886a005-0354-4536-9f59-4c484f5ff5c6"></g></svg>