<?xml version="1.0" encoding="utf-8"?> <!-- Generator: Adobe Illustrator 27.7.0, SVG Export Plug-In . SVG Version: 6.00 Build 0) --> <svg width="70" height="70" version="1.1" id="Layer_1" xmlns="http://www.w3.org/2000/svg" xmlns:xlink="http://www.w3.org/1999/xlink" x="0px" y="0px" viewBox="-10 -10 70 70" style="enable-background:new 0 0 50 50;" xml:space="preserve"><rect x="-10" y="-10" width="70" height="70" fill="white"/> <style type="text/css"> .st0{fill:#FFCD00;} .st1{display:none;} .st2{display:inline;fill:none;stroke:#EA008A;stroke-width:0.2;stroke-miterlimit:10;} .st3{font-family:'Roboto-Regular';} .st4{font-size:6px;} </style> <g id="Color"> <rect x="10.6" y="41.2" class="st0" height="4.3"/> <path class="st0" d="M28.8,7.5c-13.1,0-20.6,2.3-20.6,6.2c0,1.3,0.8,2.4,2.4,3.3V38h36V17.3l0.3-0.1c1.2-0.7,2.6-1.8,2.6-3.4 C49.3,9.8,41.8,7.5,28.8,7.5z M16.2,33.5h-3.8v-2.2c1.1,0,2.4-0.1,3.8-0.1V33.5z M16.2,27.8c-1.5,0.1-2.8,0.1-3.8,0.2v-2.3 c1-0.1,2.3-0.2,3.8-0.3V27.8z M16.2,22.1c-1.5,0.1-2.8,0.3-3.8,0.4v-2.3c1-0.2,2.3-0.4,3.8-0.5V22.1z M16.2,16.2 c-1.5,0.2-2.8,0.4-3.8,0.6v-2.3c1-0.3,2.3-0.5,3.8-0.8V16.2z M30.7,33.5H24V31c1.7,0,2.9,0,3.2,0c0.4,0,1.7,0,3.5,0L30.7,33.5 L30.7,33.5z M30.7,27.5c-1.6,0-2.9-0.1-3.5-0.1c-0.5,0-1.7,0-3.2,0.1V25c1.4,0,2.5-0.1,3.2-0.1c0.8,0,2,0,3.5,0.1V27.5z M30.7,21.6 c-1.4-0.1-2.6-0.1-3.5-0.1c-0.9,0-2,0-3.2,0.1V19c1.2,0,2.3-0.1,3.2-0.1c1,0,2.2,0,3.5,0.1V21.6z M30.7,15.6 c-1.2-0.1-2.4-0.1-3.5-0.1c-1,0-2.1,0-3.2,0.1V13c2.3-0.1,4.4-0.1,6.7,0L30.7,15.6L30.7,15.6z M42.1,33.5h-3.8v-2.4 c1.4,0,2.7,0.1,3.8,0.1V33.5z M42.1,28c-1-0.1-2.3-0.1-3.8-0.2v-2.4c1.5,0.1,2.8,0.2,3.8,0.3V28z M42.1,22.5 c-1.1-0.1-2.3-0.3-3.8-0.4v-2.4c1.5,0.2,2.8,0.3,3.8,0.5V22.5z M42.1,16.9c-1.1-0.2-2.3-0.4-3.8-0.6v-2.5c1.5,0.2,2.8,0.5,3.8,0.8 V16.9z" stroke-width="0"/> </g> <g id="ICONS_00000031165542127692736420000002692518830807990202_"> <g> <path d="M46.7,36.5H46V16.3c1.8-1.1,2.8-2.5,2.8-4.1C48.8,6.3,37.1,5,27.3,5S5.7,6.3,5.7,12.2c0,1.7,0.9,3,2.8,4.1v20.2H2.7 c-0.8,0-1.5,0.7-1.5,1.5s0.7,1.5,1.5,1.5h1.7v4.8c0,0.3,0.2,0.5,0.5,0.5s0.5-0.2,0.5-0.5v-4.8h3.1v4.9C8.5,44.8,8.7,45,9,45h36.6 c0.3,0,0.5-0.2,0.5-0.5v-4.9h0.5c0.8,0,1.5-0.7,1.5-1.5S47.5,36.5,46.7,36.5z M35.1,36.5V10c6.3,0.6,9.9,2,9.9,3v23.6L35.1,36.5 L35.1,36.5z M27.3,9.6c2.5,0,4.8,0.1,6.8,0.3v26.7H20.5V9.9C22.5,9.7,24.8,9.6,27.3,9.6z M6.7,12.2C6.7,8.3,14.2,6,27.3,6 s20.6,2.3,20.6,6.2c0,1.3-0.9,2.3-1.8,3V13c0-2.9-9.4-4.4-18.8-4.4S8.5,10.1,8.5,13v2.2C7.3,14.3,6.7,13.3,6.7,12.2z M9.5,13 c0-1,3.7-2.4,10-3v26.6h-10V13z M9.5,39.6h8.2V44H9.5V39.6z M36,39.6V44h-8.2v-4.4H36z M26.8,44h-8.2v-4.4h8.2V44z M45.1,44H37 v-4.4h8.2V44z M46.7,38.6h-44c-0.3,0-0.5-0.2-0.5-0.5s0.2-0.5,0.5-0.5h44c0.3,0,0.5,0.2,0.5,0.5S46.9,38.6,46.7,38.6z" stroke-width="0"/> <path d="M23.5,22.6c1.5-0.1,2.8-0.1,3.7-0.1c1,0,2.4,0,3.9,0.1c0,0,0,0,0,0c0.1,0,0.3,0,0.3-0.1c0.1-0.1,0.2-0.2,0.2-0.4v-3.6 c0-0.3-0.2-0.5-0.5-0.5c-1.5-0.1-2.8-0.1-4-0.1c-1.1,0-2.4,0-3.8,0.1c-0.3,0-0.5,0.2-0.5,0.5v3.6c0,0.1,0.1,0.3,0.2,0.4 C23.3,22.6,23.4,22.6,23.5,22.6z M24,19c1.2,0,2.3-0.1,3.2-0.1c1,0,2.2,0,3.5,0.1v2.6c-1.4-0.1-2.6-0.1-3.5-0.1 c-0.9,0-2,0-3.2,0.1V19z" stroke-width="0"/> <path d="M23.5,28.6c1.8,0,3.2-0.1,3.7-0.1c0.6,0,2.1,0,3.9,0.1c0,0,0,0,0,0c0.1,0,0.3-0.1,0.3-0.1c0.1-0.1,0.2-0.2,0.2-0.4v-3.5 c0-0.3-0.2-0.5-0.5-0.5c-1.7-0.1-3.1-0.1-4-0.1c-0.8,0-2.2,0-3.8,0.1c-0.3,0-0.5,0.2-0.5,0.5v3.5c0,0.1,0.1,0.3,0.2,0.4 C23.3,28.5,23.4,28.6,23.5,28.6z M24,25c1.4,0,2.5-0.1,3.2-0.1c0.8,0,2,0,3.5,0.1v2.5c-1.6,0-2.9-0.1-3.5-0.1 c-0.5,0-1.7,0-3.2,0.1V25z" stroke-width="0"/> <path d="M23.5,34.5h7.7c0.3,0,0.5-0.2,0.5-0.5v-3.5c0-0.3-0.2-0.5-0.5-0.5c-2,0-3.6-0.1-4-0.1c-0.4,0-1.8,0-3.8,0 c-0.3,0-0.5,0.2-0.5,0.5V34C23,34.2,23.2,34.5,23.5,34.5z M24,31c1.7,0,2.9,0,3.2,0c0.4,0,1.7,0,3.5,0v2.5H24L24,31L24,31z" stroke-width="0"/> <path d="M23.5,16.6c1.3-0.1,2.6-0.1,3.7-0.1c1.2,0,2.5,0,3.9,0.1c0,0,0,0,0,0c0.1,0,0.3,0,0.3-0.1c0.1-0.1,0.2-0.2,0.2-0.4v-3.6 c0-0.3-0.2-0.5-0.5-0.5c-2.6-0.1-5.1-0.1-7.7,0c-0.3,0-0.5,0.2-0.5,0.5v3.6c0,0.1,0.1,0.3,0.2,0.4C23.3,16.6,23.4,16.6,23.5,16.6z M24,13c2.3-0.1,4.4-0.1,6.7,0v2.6c-1.2-0.1-2.4-0.1-3.5-0.1c-1,0-2.1,0-3.2,0.1L24,13L24,13z" stroke-width="0"/> <path d="M16.7,24.4c-2,0.1-3.6,0.3-4.8,0.4c-0.3,0-0.4,0.2-0.4,0.5v3.3c0,0.1,0.1,0.3,0.2,0.4c0.1,0.1,0.2,0.1,0.3,0.1 c0,0,0,0,0,0c1.2-0.1,2.8-0.2,4.8-0.2c0.3,0,0.5-0.2,0.5-0.5v-3.4c0-0.1-0.1-0.3-0.2-0.4C16.9,24.4,16.8,24.4,16.7,24.4z M16.2,27.8c-1.5,0.1-2.8,0.1-3.8,0.2v-2.3c1-0.1,2.3-0.2,3.8-0.3V27.8z" stroke-width="0"/> <path d="M16.6,18.6c-2,0.2-3.6,0.4-4.9,0.7c-0.2,0-0.4,0.3-0.4,0.5V23c0,0.1,0.1,0.3,0.2,0.4c0.1,0.1,0.2,0.1,0.3,0.1 c0,0,0,0,0.1,0c1.2-0.2,2.8-0.4,4.8-0.5c0.3,0,0.5-0.2,0.5-0.5v-3.5c0-0.1-0.1-0.3-0.2-0.4C16.9,18.6,16.8,18.6,16.6,18.6z M16.2,22.1c-1.5,0.1-2.8,0.3-3.8,0.4v-2.3c1-0.2,2.3-0.4,3.8-0.5V22.1z" stroke-width="0"/> <path d="M17,12.8c-0.1-0.1-0.3-0.1-0.4-0.1c-2,0.3-3.6,0.6-4.9,1c-0.2,0.1-0.4,0.3-0.4,0.5v3.3c0,0.2,0.1,0.3,0.2,0.4 c0.1,0.1,0.2,0.1,0.3,0.1c0,0,0.1,0,0.1,0c1.2-0.3,2.9-0.6,4.8-0.8c0.3,0,0.4-0.2,0.4-0.5v-3.5C17.2,13,17.1,12.9,17,12.8z M16.2,16.2c-1.5,0.2-2.8,0.4-3.8,0.6v-2.3c1-0.3,2.3-0.5,3.8-0.8V16.2z" stroke-width="0"/> <path d="M16.7,30.1c-1.8,0-3.5,0.1-4.8,0.1c-0.3,0-0.5,0.2-0.5,0.5V34c0,0.3,0.2,0.5,0.5,0.5h4.8c0.3,0,0.5-0.2,0.5-0.5v-3.4 c0-0.1-0.1-0.3-0.2-0.4C17,30.1,16.8,30.1,16.7,30.1z M16.2,33.5h-3.8v-2.2c1.1,0,2.4-0.1,3.8-0.1V33.5z" stroke-width="0"/> <path d="M42.7,24.8c-1.2-0.1-2.9-0.3-4.8-0.4c-0.1,0-0.3,0-0.4,0.1c-0.1,0.1-0.2,0.2-0.2,0.4v3.4c0,0.3,0.2,0.5,0.5,0.5 c2,0.1,3.6,0.2,4.8,0.2c0,0,0,0,0,0c0.1,0,0.2,0,0.3-0.1c0.1-0.1,0.2-0.2,0.2-0.4v-3.3C43.1,25,43,24.8,42.7,24.8z M42.1,28 c-1-0.1-2.3-0.1-3.8-0.2v-2.4c1.5,0.1,2.8,0.2,3.8,0.3V28z" stroke-width="0"/> <path d="M42.7,19.3c-1.3-0.3-2.9-0.5-4.9-0.7c-0.1,0-0.3,0-0.4,0.1c-0.1,0.1-0.2,0.2-0.2,0.4v3.5c0,0.3,0.2,0.5,0.5,0.5 c1.9,0.2,3.6,0.3,4.8,0.5c0,0,0,0,0.1,0c0.1,0,0.2,0,0.3-0.1c0.1-0.1,0.2-0.2,0.2-0.4v-3.3C43.1,19.5,43,19.3,42.7,19.3z M42.1,22.5c-1.1-0.1-2.3-0.3-3.8-0.4v-2.4c1.5,0.2,2.8,0.3,3.8,0.5V22.5z" stroke-width="0"/> <path d="M42.8,13.6c-1.3-0.4-2.9-0.7-4.9-1c-0.1,0-0.3,0-0.4,0.1c-0.1,0.1-0.2,0.2-0.2,0.4v3.5c0,0.3,0.2,0.5,0.4,0.5 c1.9,0.2,3.5,0.5,4.8,0.8c0,0,0.1,0,0.1,0c0.1,0,0.2,0,0.3-0.1c0.1-0.1,0.2-0.2,0.2-0.4v-3.3C43.1,13.9,43,13.7,42.8,13.6z M42.1,16.9c-1.1-0.2-2.3-0.4-3.8-0.6v-2.5c1.5,0.2,2.8,0.5,3.8,0.8V16.9z" stroke-width="0"/> <path d="M42.7,30.2c-1.3-0.1-3-0.1-4.8-0.1c-0.1,0-0.3,0-0.4,0.1c-0.1,0.1-0.2,0.2-0.2,0.4V34c0,0.3,0.2,0.5,0.5,0.5h4.8 c0.3,0,0.5-0.2,0.5-0.5v-3.2C43.1,30.5,42.9,30.3,42.7,30.2z M42.1,33.5h-3.8v-2.4c1.4,0,2.7,0.1,3.8,0.1V33.5z" stroke-width="0"/> </g> </g> <g id="Margin" class="st1"> <rect x="1" y="1" class="st2" /> </g> <g id="Guides" class="st1"> </g> <g id="LABELS"> </g> <g id="LABELS_00000167377699811949459170000016891265877873138337_"> <g> <g> <g> <g> <g> </g> </g> </g> </g> </g> </g> </svg> 