<?xml version="1.0" encoding="UTF-8"?><svg width="70" height="70" id="uuid-a87902ef-34a3-4690-b6a7-e0849e597b03" xmlns="http://www.w3.org/2000/svg" viewBox="-10 -10 70 70"><rect x="-10" y="-10" width="70" height="70" fill="white"/><path d="M35.64,3.58H16.86L3.58,16.86v18.78l13.28,13.28h18.78l13.28-13.28V16.86L35.64,3.58Zm-.86,26.85c0,.07,.01,.15,.01,.22,0,5.54-4.51,10.04-10.04,10.04s-10.04-4.51-10.04-10.04c0-.07,0-.15,.01-.22v-11.3c-.01-.89,.71-1.61,1.6-1.61s1.61,.72,1.61,1.61v3.09h0v3.57c0,.28,.22,.5,.5,.5s.5-.22,.5-.5V12.88c0-.89,.72-1.61,1.61-1.61s1.61,.72,1.61,1.61v12.92c0,.28,.22,.5,.5,.5s.5-.22,.5-.5V10.42c0-.89,.72-1.61,1.61-1.61s1.61,.72,1.61,1.61v15.38c0,.28,.22,.5,.5,.5s.5-.22,.5-.5V12.88c0-.89,.72-1.61,1.61-1.61s1.61,.72,1.61,1.61v9.35l.03,.29v5.64c-.71,.11-1.35,.35-1.92,.74-2.44,1.65-2.16,4.98-2.15,5.12,.02,.26,.24,.45,.5,.45,.02,0,.03,0,.05,0,.27-.03,.48-.27,.45-.54,0-.03-.24-2.87,1.72-4.2,.54-.37,1.18-.57,1.89-.62,.26-.02,.47-.23,.47-.5v-6.29c.13-.78,.79-1.35,1.58-1.35,.89,0,1.61,.72,1.61,1.61v7.53l-.02,.11v.21Z" fill="#ffcd00" stroke-width="0"/><path d="M48.28,14.8L34.7,1.22c-.09-.09-.22-.15-.35-.15H15.15c-.13,0-.26,.05-.35,.15L1.22,14.8c-.09,.09-.15,.22-.15,.35v19.2c0,.13,.05,.26,.15,.35l13.58,13.58c.09,.09,.22,.15,.35,.15h19.2c.13,0,.26-.05,.35-.15l13.58-13.58c.09-.09,.15-.22,.15-.35V15.15c0-.13-.05-.26-.15-.35Zm-.85,19.34l-13.28,13.28H15.36L2.08,34.14V15.36L15.36,2.08h18.78l13.28,13.28v18.78Z" stroke-width="0"/><path d="M35.79,22.58c0-1.44-1.17-2.61-2.61-2.61-.61,0-1.17,.2-1.61,.55v-7.64c0-1.44-1.17-2.61-2.61-2.61-.61,0-1.17,.21-1.61,.56v-.41c0-1.44-1.17-2.61-2.61-2.61s-2.61,1.17-2.61,2.61v.41c-.44-.35-1-.56-1.61-.56-1.44,0-2.61,1.17-2.61,2.61v4.2c-.44-.35-1-.56-1.61-.56-1.44,0-2.61,1.17-2.61,2.61v10.89c0,.07,0,.14,.02,.19v.15c-.02,.09-.02,.19-.02,.29,0,6.09,4.95,11.04,11.04,11.04s11.04-4.95,11.04-11.04c0-.1,0-.19-.01-.29v-.12c0-.07,.01-.14,.01-.21v-7.45Zm-1.01,7.85c0,.07,.01,.15,.01,.22,0,5.54-4.51,10.04-10.04,10.04s-10.04-4.51-10.04-10.04c0-.07,0-.15,.01-.22v-11.3c-.01-.89,.71-1.61,1.6-1.61s1.61,.72,1.61,1.61v3.09h0v3.57c0,.28,.22,.5,.5,.5s.5-.22,.5-.5V12.88c0-.89,.72-1.61,1.61-1.61s1.61,.72,1.61,1.61v12.92c0,.28,.22,.5,.5,.5s.5-.22,.5-.5V10.42c0-.89,.72-1.61,1.61-1.61s1.61,.72,1.61,1.61v15.38c0,.28,.22,.5,.5,.5s.5-.22,.5-.5V12.88c0-.89,.72-1.61,1.61-1.61s1.61,.72,1.61,1.61v9.35l.03,.29v5.64c-.71,.11-1.35,.35-1.92,.74-2.44,1.65-2.16,4.98-2.15,5.12,.02,.26,.24,.45,.5,.45,.02,0,.03,0,.05,0,.27-.03,.48-.27,.45-.54,0-.03-.24-2.87,1.72-4.2,.54-.37,1.18-.57,1.89-.62,.26-.02,.47-.23,.47-.5v-6.29c.13-.78,.79-1.35,1.58-1.35,.89,0,1.61,.72,1.61,1.61v7.53l-.02,.11v.21Z" stroke-width="0"/></svg>