<?xml version="1.0" encoding="UTF-8"?><svg width="70" height="70" xmlns="http://www.w3.org/2000/svg" viewBox="-10 -10 70 70"><rect x="-10" y="-10" width="70" height="70" fill="white"/><g id="uuid-ecea4e38-e679-41ec-8ca2-03cc7cdd0ac9"><g><path d="M39.03,13.66c.52-.71,1.05-1.41,1.57-2.12l-2.23-1.65c-.54,.72-1.08,1.45-1.62,2.17-2.49-1.53-5.34-2.53-8.38-2.85V5.04h1.86V2.98h-7.95v2.07h1.86v4.16c-3.05,.32-5.9,1.33-8.4,2.86-.53-.72-1.07-1.45-1.6-2.17l-2.23,1.65c.52,.72,1.04,1.44,1.56,2.16-4.51,3.7-7.4,9.31-7.4,15.58,0,11.13,9.06,20.19,20.19,20.19s20.19-9.06,20.19-20.19c0-6.29-2.89-11.91-7.41-15.62Zm-14.28,30.21c-8.84,0-16.04-7.19-16.04-16.04S15.91,11.8,24.75,11.8s16.04,7.19,16.04,16.04-7.19,16.04-16.04,16.04Z" fill="#ffcd00" stroke-width="0"/><path d="M38.87,12.08l1.33-1.8c.16-.22,.12-.54-.11-.7l-3.03-2.24c-.11-.08-.24-.11-.37-.09-.13,.02-.25,.09-.33,.2l-1.36,1.85c-2.17-1.2-4.58-2.02-7.13-2.4v-2.31h1.36c.28,0,.5-.22,.5-.5V1.03c0-.28-.22-.5-.5-.5h-8.95c-.28,0-.5,.22-.5,.5v3.07c0,.28,.22,.5,.5,.5h1.36v2.31c-2.55,.38-4.96,1.19-7.13,2.4l-1.36-1.85c-.08-.11-.2-.18-.33-.2-.13-.02-.27,.01-.37,.09l-3.03,2.24c-.11,.08-.18,.2-.2,.33-.02,.13,.01,.26,.09,.37l1.33,1.8c-4.33,3.88-7.07,9.5-7.07,15.75,0,11.68,9.5,21.19,21.19,21.19s21.19-9.5,21.19-21.19c0-6.26-2.74-11.87-7.07-15.75Zm-14.12,35.94c-11.13,0-20.19-9.06-20.19-20.19S13.62,7.65,24.75,7.65s20.19,9.06,20.19,20.19-9.06,20.19-20.19,20.19ZM36.87,8.45l2.23,1.65-.97,1.32c-.72-.58-1.48-1.11-2.27-1.59l1.01-1.37ZM20.78,1.53h7.95V3.6h-7.95V1.53Zm1.86,3.07h4.23v2.16c-.7-.07-1.4-.11-2.12-.11s-1.42,.04-2.12,.11v-2.16Zm-12.23,5.5l2.23-1.65,1.01,1.37c-.79,.49-1.55,1.01-2.27,1.59l-.98-1.32Z" stroke-width="0"/><path d="M30.26,12.74c6.13,2.26,10.52,8.14,10.52,15.04,0,8.84-7.19,16.04-16.04,16.04-6.9,0-12.78-4.39-15.04-10.52,1.81,7.46,8.53,13.02,16.54,13.02,9.39,0,17.04-7.64,17.04-17.04,0-8.01-5.56-14.73-13.02-16.54Z" fill="none" stroke-width="0"/><path d="M24.75,10.8c-9.39,0-17.04,7.64-17.04,17.04s7.64,17.04,17.04,17.04,17.04-7.64,17.04-17.04-7.64-17.04-17.04-17.04Zm0,33.07c-8.84,0-16.04-7.19-16.04-16.04S15.91,11.8,24.75,11.8s16.04,7.19,16.04,16.04-7.19,16.04-16.04,16.04Z" stroke-width="0"/><circle cx="24.75" cy="27.84" r="1.48"/><path d="M24.75,16.21c.28,0,.5-.22,.5-.5v-1.98c0-.28-.22-.5-.5-.5s-.5,.22-.5,.5v1.98c0,.28,.22,.5,.5,.5Z" stroke-width="0"/><path d="M14.55,17.87c-.2-.19-.52-.17-.71,.03-.19,.2-.17,.52,.03,.71l1.46,1.34c.1,.09,.22,.13,.34,.13,.13,0,.27-.05,.37-.16,.19-.2,.17-.52-.03-.71l-1.46-1.34Z" stroke-width="0"/><path d="M24.75,39.46c-.28,0-.5,.22-.5,.5v1.98c0,.28,.22,.5,.5,.5s.5-.22,.5-.5v-1.98c0-.28-.22-.5-.5-.5Z" stroke-width="0"/><path d="M12.5,27.34h-1.98c-.28,0-.5,.22-.5,.5s.22,.5,.5,.5h1.98c.28,0,.5-.22,.5-.5s-.22-.5-.5-.5Z" stroke-width="0"/><path d="M38.84,27.34h-1.98c-.28,0-.5,.22-.5,.5s.22,.5,.5,.5h1.98c.28,0,.5-.22,.5-.5s-.22-.5-.5-.5Z" stroke-width="0"/><path d="M33.98,35.69c-.2-.19-.52-.17-.71,.03-.19,.2-.17,.52,.03,.71l1.46,1.34c.1,.09,.22,.13,.34,.13,.13,0,.27-.05,.37-.16,.19-.2,.17-.52-.03-.71l-1.46-1.34Z" stroke-width="0"/><path d="M15.34,35.69l-1.46,1.34c-.2,.19-.22,.5-.03,.71,.1,.11,.23,.16,.37,.16,.12,0,.24-.04,.34-.13l1.46-1.34c.2-.19,.22-.5,.03-.71-.19-.2-.5-.22-.71-.03Z" stroke-width="0"/><path d="M34.77,17.87l-1.46,1.34c-.2,.19-.22,.5-.03,.71,.1,.11,.23,.16,.37,.16,.12,0,.24-.04,.34-.13l1.46-1.34c.2-.19,.22-.5,.03-.71-.19-.2-.5-.21-.71-.03Z" stroke-width="0"/><path d="M26.8,29.23c.27-.4,.43-.88,.43-1.4,0-1.2-.85-2.2-1.98-2.43v-5.7c-.01-.28-.24-.5-.51-.5h0c-.28,0-.5,.22-.5,.5v5.7c-1.12,.23-1.97,1.23-1.97,2.43,0,1.37,1.11,2.48,2.48,2.48,.49,0,.94-.15,1.32-.39l2.71,2.49c.1,.09,.22,.13,.34,.13,.13,0,.27-.05,.37-.16,.19-.2,.17-.52-.03-.71l-2.66-2.44Zm-2.05-2.88c.82,0,1.48,.67,1.48,1.48s-.67,1.48-1.48,1.48-1.48-.67-1.48-1.48,.67-1.48,1.48-1.48Z" stroke-width="0"/></g></g><g id="uuid-034952ec-8824-4604-9a7d-8347dd2418f9"></g></svg>