<?xml version="1.0" encoding="UTF-8"?><svg width="70" height="70" xmlns="http://www.w3.org/2000/svg" viewBox="-10 -10 70 70"><rect x="-10" y="-10" width="70" height="70" fill="white"/><g id="uuid-fefffbb5-d2e9-48bc-83ed-52da880f2385"><g><path d="M41.69,21.05c-1.39-2.36-3.86-3.76-6.59-3.76H17.66c-2.74,0-5.2,1.41-6.59,3.76-1.39,2.36-1.44,5.19-.12,7.59l8.72,15.84c1.37,2.48,3.88,3.97,6.71,3.97s5.34-1.48,6.71-3.97l8.72-15.84c1.32-2.4,1.28-5.24-.12-7.59Z" fill="#ffcd00" stroke-width="0"/><path d="M40.8,18.79c-.82-1.39-1.97-2.48-3.33-3.21,2.16-1.85,3.6-4.48,3.99-7.4,.03-.24-.11-.47-.34-.54-2.56-.81-5.29-.59-7.71,.57,0-1.8-.4-3.6-1.22-5.24-.11-.22-.37-.33-.61-.25-3.07,1.02-5.52,3.4-6.75,6.51-.19-1.3-.52-2.57-1-3.77-.53-1.31-1.23-2.56-2.08-3.71-.16-.22-.48-.27-.7-.1-.22,.16-.27,.48-.1,.7,.8,1.08,1.46,2.25,1.95,3.49,.27,.68,.49,1.38,.66,2.1-1.34-2.47-3.51-4.33-6.13-5.21-.24-.08-.5,.03-.61,.25-.82,1.64-1.21,3.44-1.22,5.24-2.42-1.15-5.15-1.38-7.71-.57-.23,.07-.38,.3-.34,.54,.4,2.96,1.87,5.62,4.08,7.47-1.29,.73-2.38,1.8-3.17,3.13-1.57,2.66-1.62,5.87-.13,8.58l8.72,15.84c1.55,2.81,4.38,4.49,7.59,4.49s6.04-1.68,7.59-4.49l8.72-15.84c1.49-2.71,1.44-5.92-.13-8.58Zm-7.44-9.44c2.18-1.19,4.68-1.5,7.05-.87-.46,2.66-1.88,5.02-3.96,6.64-.97-.37-2.02-.58-3.11-.58h-1.74c.39-.61,.73-1.26,1-1.96,.41-1.04,.65-2.13,.75-3.23Zm-7.6,.26c1.06-2.7,3.13-4.79,5.73-5.79,1.18,2.65,1.26,5.69,.19,8.4-.33,.84-.77,1.61-1.28,2.32h-5.33c-.15-1.66,.07-3.35,.69-4.93ZM17.53,3.82c2.6,1,4.67,3.09,5.73,5.79,.62,1.58,.84,3.27,.69,4.93h-5.33c-.51-.71-.95-1.48-1.28-2.32-1.06-2.71-.99-5.75,.19-8.4Zm-8.93,4.66c2.37-.63,4.87-.32,7.05,.87,.1,1.1,.34,2.19,.75,3.23,.27,.69,.61,1.34,1,1.96h-1.5c-1.15,0-2.26,.22-3.27,.63-2.11-1.61-3.56-4-4.03-6.69Zm31.45,18.41l-8.72,15.84c-1.37,2.48-3.88,3.97-6.71,3.97s-5.34-1.48-6.71-3.97l-8.72-15.84c-1.32-2.4-1.28-5.24,.12-7.59,1.39-2.36,3.86-3.76,6.59-3.76h17.44c2.74,0,5.2,1.41,6.59,3.76,1.39,2.36,1.44,5.19,.12,7.59Z" stroke-width="0"/><path d="M13.71,18.28c-.28,0-.5,.22-.5,.5v2.02c0,.28,.22,.5,.5,.5s.5-.22,.5-.5v-2.02c0-.28-.22-.5-.5-.5Z" stroke-width="0"/><path d="M19.17,18.28c-.28,0-.5,.22-.5,.5v2.02c0,.28,.22,.5,.5,.5s.5-.22,.5-.5v-2.02c0-.28-.22-.5-.5-.5Z" stroke-width="0"/><path d="M24.63,18.28c-.28,0-.5,.22-.5,.5v2.02c0,.28,.22,.5,.5,.5s.5-.22,.5-.5v-2.02c0-.28-.22-.5-.5-.5Z" stroke-width="0"/><path d="M30.08,18.28c-.28,0-.5,.22-.5,.5v2.02c0,.28,.22,.5,.5,.5s.5-.22,.5-.5v-2.02c0-.28-.22-.5-.5-.5Z" stroke-width="0"/><path d="M35.54,18.28c-.28,0-.5,.22-.5,.5v2.02c0,.28,.22,.5,.5,.5s.5-.22,.5-.5v-2.02c0-.28-.22-.5-.5-.5Z" stroke-width="0"/><path d="M16.44,25.84c-.28,0-.5,.22-.5,.5v2.02c0,.28,.22,.5,.5,.5s.5-.22,.5-.5v-2.02c0-.28-.22-.5-.5-.5Z" stroke-width="0"/><path d="M21.9,25.84c-.28,0-.5,.22-.5,.5v2.02c0,.28,.22,.5,.5,.5s.5-.22,.5-.5v-2.02c0-.28-.22-.5-.5-.5Z" stroke-width="0"/><path d="M27.35,25.84c-.28,0-.5,.22-.5,.5v2.02c0,.28,.22,.5,.5,.5s.5-.22,.5-.5v-2.02c0-.28-.22-.5-.5-.5Z" stroke-width="0"/><path d="M32.81,25.84c-.28,0-.5,.22-.5,.5v2.02c0,.28,.22,.5,.5,.5s.5-.22,.5-.5v-2.02c0-.28-.22-.5-.5-.5Z" stroke-width="0"/><path d="M19.17,33.39c-.28,0-.5,.22-.5,.5v2.02c0,.28,.22,.5,.5,.5s.5-.22,.5-.5v-2.02c0-.28-.22-.5-.5-.5Z" stroke-width="0"/><path d="M24.63,33.39c-.28,0-.5,.22-.5,.5v2.02c0,.28,.22,.5,.5,.5s.5-.22,.5-.5v-2.02c0-.28-.22-.5-.5-.5Z" stroke-width="0"/><path d="M30.08,33.39c-.28,0-.5,.22-.5,.5v2.02c0,.28,.22,.5,.5,.5s.5-.22,.5-.5v-2.02c0-.28-.22-.5-.5-.5Z" stroke-width="0"/><path d="M21.9,40.95c-.28,0-.5,.22-.5,.5v2.02c0,.28,.22,.5,.5,.5s.5-.22,.5-.5v-2.02c0-.28-.22-.5-.5-.5Z" stroke-width="0"/><path d="M27.35,40.95c-.28,0-.5,.22-.5,.5v2.02c0,.28,.22,.5,.5,.5s.5-.22,.5-.5v-2.02c0-.28-.22-.5-.5-.5Z" stroke-width="0"/></g></g><g id="uuid-1b24e0cc-df2f-4535-bf69-446e3b70b5df"></g></svg>