<?xml version="1.0" encoding="UTF-8"?><svg width="70" height="70" xmlns="http://www.w3.org/2000/svg" viewBox="-10 -10 70 70"><rect x="-10" y="-10" width="70" height="70" fill="white"/><g id="uuid-c1b26f59-ebb7-45a7-a653-bedf3082e561"><g><path d="M26.5,15.92c-5.83,0-10.58,4.75-10.58,10.58s4.75,10.58,10.58,10.58,10.58-4.75,10.58-10.58-4.75-10.58-10.58-10.58Z" fill="#ffcd00" stroke-width="0"/><path d="M48.61,24.5h-12.06c-.12-2.81-1.25-5.37-3.03-7.31l8.53-8.53c.2-.2,.2-.51,0-.71s-.51-.2-.71,0l-8.53,8.53c-1.95-1.79-4.5-2.91-7.31-3.03V1.39c0-.28-.22-.5-.5-.5s-.5,.22-.5,.5V13.45c-2.81,.12-5.37,1.25-7.31,3.03L8.66,7.95c-.2-.2-.51-.2-.71,0s-.2,.51,0,.71l8.53,8.53c-1.79,1.95-2.91,4.5-3.03,7.31H1.39c-.28,0-.5,.22-.5,.5s.22,.5,.5,.5H13.45c.12,2.81,1.25,5.37,3.03,7.31l-8.53,8.53c-.2,.2-.2,.51,0,.71,.1,.1,.23,.15,.35,.15s.26-.05,.35-.15l8.53-8.53c1.95,1.79,4.5,2.91,7.31,3.03v12.06c0,.28,.22,.5,.5,.5s.5-.22,.5-.5v-12.06c2.81-.12,5.37-1.25,7.31-3.03l8.53,8.53c.1,.1,.23,.15,.35,.15s.26-.05,.35-.15c.2-.2,.2-.51,0-.71l-8.53-8.53c1.79-1.95,2.91-4.5,3.03-7.31h12.06c.28,0,.5-.22,.5-.5s-.22-.5-.5-.5Zm-23.61,11.08c-5.83,0-10.58-4.75-10.58-10.58s4.75-10.58,10.58-10.58,10.58,4.75,10.58,10.58-4.75,10.58-10.58,10.58Z" stroke-width="0"/></g></g><g id="uuid-1cefb1b6-dc9b-4886-88d4-0f18fdad0f8b"></g></svg>