<?xml version="1.0" encoding="UTF-8"?><svg width="70" height="70" xmlns="http://www.w3.org/2000/svg" viewBox="-10 -10 70 70"><rect x="-10" y="-10" width="70" height="70" fill="white"/><g id="uuid-432c842e-a85e-49b7-b08c-352882e7ae18"><path d="M44.78,29.9c1.15,1.22,1.74,2.81,1.64,4.45l-.22,3.79c-.13,2.22-1.44,4.14-3.52,5.16-2.2,1.07-4.79.89-6.78-.48-3.4-2.34-5.92-5.61-7.51-9.71-.45-1.16-.3-2.42.41-3.45.78-1.14,2.1-1.82,3.52-1.82h7.61c1.85,0,3.61.75,4.85,2.06Z" fill="#ffcd00" stroke-width="0"/><path d="M22.64,29.65c.71,1.04.86,2.3.41,3.46-1.59,4.1-4.11,7.37-7.51,9.71-1.99,1.36-4.59,1.55-6.78.48-2.08-1.02-3.39-2.94-3.52-5.16l-.22-3.79c-.1-1.65.49-3.23,1.64-4.45,1.24-1.31,3-2.06,4.85-2.06h7.61c1.42,0,2.74.68,3.52,1.81Z" fill="#ffcd00" stroke-width="0"/></g><g id="uuid-df34728b-2184-48ae-b003-2a6d94f4e418"><path d="M34.8,32.38c.2-.2.52-.2.71,0l5.2,5.2c.2.2.2.51,0,.71-.09.1-.22.15-.35.15s-.26-.05-.35-.15l-5.21-5.2c-.19-.2-.19-.51,0-.71Z" stroke-width="0"/><path d="M34.48,35.73l2.41,2.41c.19.19.19.51,0,.7-.1.1-.23.15-.35.15-.13,0-.26-.05-.36-.15l-2.4-2.4c-.2-.2-.2-.51,0-.71s.51-.19.7,0Z" stroke-width="0"/><path d="M14.9,37.58c.2.2.2.52,0,.71-.1.1-.23.15-.35.15-.13,0-.26-.05-.36-.15l-5.21-5.21c-.2-.2-.2-.51,0-.71.2-.19.51-.19.71,0l5.21,5.21Z" stroke-width="0"/><path d="M10.36,38.85l-2.41-2.41c-.19-.2-.19-.51,0-.71.2-.2.51-.2.71,0l2.41,2.41c.19.19.19.51,0,.71-.1.09-.23.14-.36.14-.12,0-.25-.05-.35-.14Z" stroke-width="0"/><path d="M27.67,32.39c1.59,4.1,4.11,7.37,7.51,9.71,1.99,1.37,4.58,1.55,6.78.48,2.08-1.02,3.39-2.94,3.52-5.16l.22-3.79c.1-1.64-.49-3.23-1.64-4.45-1.24-1.31-3-2.06-4.85-2.06h-7.61c-1.42,0-2.74.68-3.52,1.82-.71,1.03-.86,2.29-.41,3.45ZM21.51,27.12c.48.34.9.76,1.23,1.25.6.88.88,1.88.84,2.89.97-.39,1.92-.38,2.85.03-.06-1.01.22-2.03.83-2.92.33-.49.75-.91,1.23-1.25h-6.98ZM8.04,42.58c2.19,1.07,4.79.88,6.78-.48,3.4-2.34,5.92-5.61,7.51-9.71.45-1.16.3-2.42-.41-3.46-.78-1.13-2.1-1.81-3.52-1.81h-7.61c-1.85,0-3.61.75-4.85,2.06-1.15,1.22-1.74,2.8-1.64,4.45l.22,3.79c.13,2.22,1.44,4.14,3.52,5.16ZM5.22,28.49c1.42-1.51,3.45-2.37,5.57-2.37h28.42c2.12,0,4.15.86,5.57,2.37,1.35,1.43,2.03,3.28,1.92,5.2l-.02.3h1.24l-3.55-23.36c-.34-1.6-1.47-2.93-3.03-3.53l-1.06-.4c-.26-.1-.39-.39-.29-.65s.39-.39.64-.29l1.07.41c1.88.71,3.24,2.32,3.65,4.28l3.64,23.96c.03.15-.02.29-.11.4-.1.12-.23.18-.38.18h-1.87l-.15,2.49c-.15,2.58-1.68,4.82-4.08,6-1.09.53-2.26.79-3.43.79-1.53,0-3.06-.46-4.36-1.35-3.56-2.46-6.21-5.88-7.88-10.17-.02-.06-.03-.13-.06-.19-.01-.01-.03-.01-.04-.02-1.05-.73-2.12-.75-3.28-.07-.02.09-.05.19-.08.28-1.67,4.29-4.32,7.71-7.88,10.17-1.3.89-2.83,1.35-4.36,1.35-1.17,0-2.34-.26-3.43-.79-2.4-1.18-3.93-3.42-4.08-6l-.15-2.49h-1.87c-.15,0-.28-.06-.38-.18-.09-.11-.14-.25-.11-.4l3.64-23.93c.41-1.99,1.77-3.6,3.65-4.31l1.06-.41c.26-.1.55.03.65.29s-.03.55-.29.65l-1.06.4c-1.56.6-2.69,1.93-3.03,3.56l-3.55,23.33h1.24l-.02-.3c-.11-1.92.57-3.77,1.92-5.2Z" stroke-width="0"/></g></svg>