<?xml version="1.0" encoding="UTF-8"?><svg width="70" height="70" xmlns="http://www.w3.org/2000/svg" viewBox="-10 -10 70 70"><rect x="-10" y="-10" width="70" height="70" fill="white"/><g id="uuid-dd10a77c-938e-40f1-bbae-0f958f6001fb"><path d="M31.21,36.51c4.14-.67,8.48-.66,12.91.02.7.1,1.21.74,1.15,1.44-.2,2.28-.66,4.48-1.38,6.52-.56,1.61-2.27,2.77-4.26,2.89-1.34.08-2.69.08-4.02,0-1.98-.13-3.68-1.25-4.21-2.79-.65-1.88-1.1-4.11-1.33-6.63-.06-.71.44-1.34,1.14-1.45Z" fill="#ffcd00" stroke-width="0"/><path d="M8.1,44.49c-.71-2.04-1.17-4.24-1.37-6.52-.06-.7.44-1.34,1.14-1.44,2.24-.35,4.46-.52,6.64-.52s4.23.17,6.28.5c.7.11,1.2.74,1.13,1.45-.22,2.52-.67,4.75-1.32,6.63-.54,1.54-2.23,2.66-4.21,2.79-1.34.08-2.69.08-4.02,0-1.99-.12-3.71-1.28-4.27-2.89Z" fill="#ffcd00" stroke-width="0"/></g><g id="uuid-8359b6ab-c256-451c-ad25-5688d2605e86"><path d="M34.47,37.74c.2-.19.51-.19.71,0l5.29,5.29c.2.2.2.51,0,.71-.1.1-.23.14-.35.14-.13,0-.26-.04-.36-.14l-5.29-5.29c-.19-.2-.19-.51,0-.71Z" stroke-width="0"/><path d="M34.14,41.15l2.44,2.45c.2.19.2.51,0,.7-.1.1-.23.15-.35.15-.13,0-.26-.05-.36-.15l-2.44-2.44c-.2-.2-.2-.51,0-.71.19-.2.51-.2.71,0Z" stroke-width="0"/><path d="M29.73,44.19c-.67-1.95-1.14-4.26-1.37-6.86-.12-1.23.75-2.34,1.97-2.53,4.24-.68,8.69-.67,13.22.02,1.22.19,2.1,1.29,1.99,2.52-.2,2.36-.68,4.64-1.42,6.76-.69,1.98-2.76,3.42-5.15,3.56-.68.04-1.35.06-2.03.06s-1.41-.02-2.11-.06c-2.38-.16-4.43-1.55-5.1-3.47ZM30.49,35.79c-.7.11-1.2.74-1.14,1.45.23,2.52.68,4.75,1.33,6.63.53,1.54,2.23,2.66,4.21,2.79,1.33.08,2.68.08,4.02,0,1.99-.12,3.7-1.28,4.26-2.89.72-2.04,1.18-4.24,1.38-6.52.06-.7-.45-1.34-1.15-1.44-4.43-.68-8.77-.69-12.91-.02Z" stroke-width="0"/><path d="M11.51,37.74l5.29,5.29c.2.2.2.51,0,.71-.1.1-.22.14-.35.14s-.26-.04-.36-.14l-5.29-5.29c-.19-.2-.19-.51,0-.71.2-.19.52-.19.71,0Z" stroke-width="0"/><path d="M10.47,41.15l2.44,2.45c.2.19.2.51,0,.7-.1.1-.22.15-.35.15s-.26-.05-.35-.15l-2.45-2.44c-.2-.2-.2-.51,0-.71s.51-.2.71,0Z" stroke-width="0"/><path d="M7.38,43.77c.56,1.61,2.28,2.77,4.27,2.89,1.33.08,2.68.08,4.02,0,1.98-.13,3.67-1.25,4.21-2.79.65-1.88,1.1-4.11,1.32-6.63.07-.71-.43-1.34-1.13-1.45-2.05-.33-4.15-.5-6.28-.5s-4.4.17-6.64.52c-.7.1-1.2.74-1.14,1.44.2,2.28.66,4.48,1.37,6.52ZM6.44,44.1c-.74-2.12-1.22-4.4-1.43-6.76-.1-1.23.77-2.33,1.99-2.52,4.54-.69,8.98-.7,13.22-.02,1.22.19,2.09,1.3,1.98,2.53-.24,2.6-.7,4.91-1.38,6.86-.66,1.92-2.71,3.31-5.09,3.47-.7.04-1.41.06-2.11.06s-1.36-.02-2.03-.06c-2.39-.14-4.46-1.58-5.15-3.56Z" stroke-width="0"/><path d="M39.75,4.12c-.3-.11-.64.04-.76.34-.11.3.04.65.34.76l1.08.41c1.56.59,2.69,1.92,3.02,3.55l2.42,23.42c.85.09,1.65.19,2.38.31l-3.64-23.94c-.42-2.03-1.83-3.7-3.76-4.44l-1.08-.41ZM4.71,32.6l2.4-23.37c.35-1.68,1.48-3.01,3.04-3.6l1.08-.41c.3-.12.45-.46.34-.76-.12-.3-.46-.45-.76-.34l-1.08.41c-1.93.74-3.34,2.41-3.77,4.47l-3.64,23.91c.73-.12,1.53-.22,2.39-.31ZM4.98,8.82c.5-2.42,2.14-4.36,4.39-5.22l1.08-.41c.82-.31,1.74.1,2.05.92.31.81-.1,1.73-.92,2.05l-1.08.41c-1.23.47-2.13,1.52-2.4,2.81l-2.38,23.13c5.6-.49,12.81-.38,15.21.36.38.13.72.28,1.03.46.9.52,2.01.78,3.29.78s2.45-.26,3.35-.78c.3-.18.65-.33,1.02-.46h.01c2.4-.74,9.6-.85,15.2-.36l-2.38-23.18c-.26-1.24-1.16-2.29-2.4-2.76l-1.07-.41c-.82-.32-1.23-1.24-.92-2.05.31-.82,1.23-1.23,2.04-.92l1.09.41c2.25.86,3.89,2.8,4.39,5.19l3.69,24.32v.04s0,.02,0,.03v4.27c0,.28-.23.5-.5.5-.83,0-1.52.6-1.64,1.42-.27,1.85-.71,3.64-1.3,5.33-.93,2.67-3.65,4.59-6.76,4.78-.71.05-1.43.07-2.14.07s-1.49-.03-2.23-.07c-3.1-.2-5.79-2.08-6.7-4.69-.57-1.65-1.01-3.58-1.29-5.74-.03-.25-.22-.46-.47-.52-.65-.15-1.3-.15-1.94,0-.25.06-.44.27-.48.52-.28,2.15-.71,4.09-1.28,5.74-.91,2.61-3.6,4.49-6.7,4.69-1.45.09-2.92.09-4.37,0-3.12-.19-5.83-2.11-6.76-4.78-.59-1.69-1.03-3.48-1.3-5.33-.13-.82-.81-1.42-1.64-1.42-.28,0-.5-.22-.5-.5v-3.94c0-.06.01-.12.03-.17-.03-.07-.04-.15-.03-.23l3.7-24.29ZM4.41,39.23c.26,1.78.68,3.51,1.25,5.14.8,2.3,3.16,3.95,5.88,4.11,1.41.09,2.84.09,4.24,0,2.71-.17,5.05-1.79,5.82-4.01.55-1.6.97-3.46,1.24-5.55.09-.66.58-1.21,1.24-1.36.4-.1.8-.15,1.2-.15s.8.05,1.2.15c.65.15,1.15.7,1.24,1.36.27,2.09.68,3.96,1.24,5.55.77,2.22,3.11,3.84,5.81,4.01,1.41.09,2.84.09,4.25,0,2.71-.16,5.08-1.81,5.88-4.11.56-1.63.99-3.36,1.25-5.14.17-1.15,1.03-2.03,2.13-2.23v-3.07c-5.32-.9-15.54-.97-18.35-.11-.3.1-.58.23-.83.37-1.06.61-2.33.92-3.8.92s-2.79-.31-3.84-.92c-.25-.14-.53-.27-.84-.37-2.79-.86-13.02-.79-18.34.11v3.07c1.1.2,1.96,1.08,2.13,2.23Z" stroke-width="0"/></g></svg>