<?xml version="1.0" encoding="UTF-8"?><svg width="70" height="70" xmlns="http://www.w3.org/2000/svg" viewBox="-10 -10 70 70"><rect x="-10" y="-10" width="70" height="70" fill="white"/><g id="uuid-727760fe-19d3-46e8-a46a-ae5bc779aab1"><path d="M48.52,28c-1.75-.57-5.39-1.75-8.68-6.25-4.49-6.13-8.29-9.24-11.96-9.77-2.81-.4-3.79-.19-4.97,.18-1.04,.33-1.33,.65-1.36,.68,0,.01-.05,.1-.1,.18-.12,.23-.4,.34-.64,.24l-.17-.06h0s-.04-.02-.07-.02c-.36-.14-.7-.24-1.01-.32l-4.6-.05c-.92,.27-1.81,.65-2.63,1.12-.38,.22-.73,.44-1.04,.67l-6.62,6.27c-.09,.13-.43,.67-.38,1.38,.04,.5,.24,.87,.41,1.1,.43,.45,.9,.95,1.37,1.45,.15,.16,.29,.31,.43,.47-.02-.1-.03-.2-.03-.3,0-.8,.65-1.45,1.45-1.45s1.45,.65,1.45,1.45-.65,1.45-1.45,1.45c-.15,0-.28-.03-.42-.07,.32,.34,.64,.69,.95,1.03,.7,1.13,2.21,.91,2.63-.1,.09-.22,.33-.34,.56-.3,.23,.05,.4,.25,.4,.49v1.99h.08c.14,0,.28,.06,.37,.16,.09,.1,.14,.24,.13,.38l-1.38,14.51c.94,.03,1.69,.79,1.69,1.74v.27h-1.89l-.07,.74s-.01,.09-.03,.13c-.08,.21-.12,.41-.12,.61v.27h3.98l1.49-15.58c.02-.26,.24-.45,.5-.45h1.26c.26,0,.47,.2,.5,.45l1.13,11.85c.1-.02,.21-.03,.31-.03h.45c.96,0,1.74,.78,1.74,1.74v.27h-2.31l.17,1.75h3.98v-.27c0-.2-.04-.4-.12-.61-.02-.04-.03-.08-.03-.13l-1.65-17.26c-.01-.14,.03-.28,.13-.38,.09-.1,.23-.16,.37-.16h.08v-.14c0-.16,.08-.31,.21-.41,.13-.09,.3-.12,.46-.06,.81,.29,1.51-.05,1.89-.69,.01-.02,.05-.08,.07-.1l.11-.12c.11-.12,.27-.18,.43-.16,.16,.02,.3,.11,.38,.25l.97,1.81,5.48,9.22c1.04-1.56,3.77-5.17,7.25-5.95,3.6-.82,7.08-3.06,9.15-4.9-.18-.07-.44-.16-.68-.23ZM7.1,20.28l2.12-1.74v4.11l-2.12-2.37Zm8.39-3.84c-2.04,0-3.1-.68-3.1-.97s1.05-.97,3.1-.97,3.1,.68,3.1,.97-1.05,.97-3.1,.97Zm6.68,10.78c-.88,0-1.59-.71-1.59-1.59s.71-1.59,1.59-1.59,1.59,.71,1.59,1.59-.71,1.59-1.59,1.59Zm-.2-4.89v-3.82l2.1,1.72-2.1,2.1Z" fill="#ffcd00" stroke-width="0"/><path d="M47,25.3c-1.78-.57-5.08-1.65-8.18-5.89-4.72-6.45-8.61-9.58-12.62-10.17-2.76-.39-3.94-.24-5.41,.22-1.15,.37-1.63,.76-1.82,.98-.34-.12-.69-.23-1.05-.31-.02,0-.04,0-.05,0-.02,0-.03-.01-.05-.01l-4.73-.05h0s-.05,.01-.07,.01c-.02,0-.05,0-.07,0-.02,0-.04,.01-.05,.02h0c-1,.29-1.96,.7-2.86,1.21-.39,.22-.76,.46-1.18,.77l-6.73,6.38c-.27,.36-.7,1.11-.63,2.12,.05,.73,.35,1.28,.64,1.67,.47,.5,.93,.99,1.4,1.5,.79,.85,1.57,1.69,2.34,2.54,.43,.69,1.2,1.15,2.07,1.15,.48,0,.92-.14,1.3-.38v1.18c0,.28,.22,.5,.5,.5h.03l-1.59,16.67c-.09,.27-.15,.56-.15,.87v.77s.01,.06,.02,.09,0,.06,.02,.09c.01,.04,.04,.07,.06,.11,.01,.02,.02,.04,.03,.05h0s.08,.07,.12,.1c.01,0,.02,.02,.04,.03,.06,.03,.13,.04,.2,.04h4.93c.07,0,.13-.01,.19-.04,.02,0,.04-.02,.06-.04,.03-.02,.07-.04,.1-.07,.02-.02,.03-.04,.05-.06,.02-.03,.04-.06,.06-.09,.01-.03,.02-.05,.02-.08,0-.03,.02-.05,.02-.08l1.49-15.58h.35l1.49,15.58s.02,.05,.02,.08c0,.03,.01,.06,.03,.09,.01,.03,.04,.06,.06,.08,.02,.02,.03,.05,.05,.07,.03,.03,.06,.04,.09,.06,.02,.01,.04,.03,.06,.04,.06,.02,.12,.04,.18,.04h4.94c.07,0,.14-.01,.2-.04,.01,0,.02-.02,.04-.03,.05-.02,.09-.05,.12-.09h0s.02-.04,.03-.06c.02-.03,.05-.07,.06-.11,.01-.03,.01-.06,.02-.09s.02-.06,.02-.09v-.77c0-.31-.06-.59-.15-.87l-1.59-16.67h.03c.28,0,.5-.22,.5-.5v-.03c.07,0,.13,.02,.2,.02,.72,0,1.37-.29,1.84-.77l.62,1.16,5.91,9.94c.09,.15,.25,.24,.43,.24h0c.18,0,.34-.1,.43-.25,.03-.05,3.11-5.3,7.05-6.18,4.8-1.09,8.6-4.24,9.64-5.17,.14-.13,.53-.47,.43-.93-.11-.51-.64-.68-1.52-.96Zm-16.02,12.04l-5.48-9.22-.8-1.5,3.94-4.33c.43-.65,.64-1.35,.61-2.02-.05-1.04-.66-1.77-.92-2.09-1.78-2.15-6.4-6.05-6.45-6.1-.33-.27-.68-.52-1.04-.74-.27-.17-.55-.32-.83-.46,.2-.13,.54-.3,1.09-.47,1.18-.37,2.17-.58,4.97-.18,3.67,.54,7.47,3.64,11.96,9.77,3.29,4.51,6.93,5.68,8.68,6.25,.24,.08,.5,.16,.68,.23-2.07,1.84-5.55,4.09-9.15,4.9-3.48,.78-6.21,4.4-7.25,5.95Zm-8.8,8.93v.27h-3.93v-.27c0-.96,.78-1.74,1.74-1.74h.45c.96,0,1.74,.78,1.74,1.74Zm-1.74-2.74h-.45c-.79,0-1.49,.34-1.99,.87l-1.28-13.44c-.02-.26-.24-.45-.5-.45h-1.26c-.26,0-.47,.2-.5,.45l-1.28,13.44c-.5-.53-1.2-.87-1.99-.87h-.45c-.53,0-1.02,.16-1.44,.42l1.45-15.22h9.68l1.45,15.22c-.42-.26-.91-.42-1.44-.42Zm-7.5,3.01h-3.93v-.27c0-.96,.78-1.74,1.74-1.74h.45c.96,0,1.74,.78,1.74,1.74v.27ZM4.25,23.06c-.47-.5-.94-1-1.37-1.45-.17-.23-.37-.6-.41-1.1-.05-.71,.29-1.25,.38-1.38l6.62-6.27c.31-.22,.66-.45,1.04-.67,.72-.41,1.5-.74,2.3-1,.12-.04,.23-.09,.34-.12l4.57,.05c.1,.02,.2,.07,.3,.1,.29,.08,.57,.16,.85,.27,.49,.2,.97,.43,1.42,.71,.32,.2,.64,.43,.93,.66,.05,.04,4.59,3.89,6.32,5.97,.33,.39,.66,.87,.69,1.5,.02,.47-.12,.95-.39,1.36l-3.14,3.44c-.21-1.04-1.03-1.85-2.08-2.04l2.53-2.53c.1-.1,.15-.24,.15-.38,0-.14-.07-.27-.18-.36l-3.34-2.74c-.15-.12-.36-.15-.53-.07-.17,.08-.29,.26-.29,.45v5.61H10.22v-5.58s-.02-.07-.03-.1c-.03-.15-.11-.28-.26-.35-.17-.08-.38-.06-.53,.07l-3.34,2.74c-.05,.04-.1,.1-.13,.16-.01,.02-.01,.04-.02,.06-.01,.04-.03,.08-.04,.12h0s0,.06,.01,.09c0,.04,0,.08,.02,.12,.01,.03,.03,.05,.04,.07,.02,.03,.03,.06,.05,.09l1.79,1.99c-1.11,.06-2.02,.86-2.25,1.91-.43-.47-.85-.93-1.29-1.4Zm4.97-4.52v4.11l-2.12-2.37,2.12-1.74Zm12.75-.03l2.1,1.72-2.1,2.1v-3.82Zm-15.49,6.47c0-.8,.65-1.45,1.45-1.45s1.45,.65,1.45,1.45-.65,1.45-1.45,1.45-1.45-.65-1.45-1.45Zm3.74-.82v-.1h9.89c-.33,.44-.54,.97-.54,1.56,0,.87,.43,1.63,1.09,2.1H10.22v-1.92c.09-.26,.15-.53,.15-.82s-.06-.57-.15-.82Zm10.35,1.47c0-.88,.71-1.59,1.59-1.59s1.59,.71,1.59,1.59-.71,1.59-1.59,1.59-1.59-.71-1.59-1.59Z" stroke-width="0"/><path d="M11.39,15.47c0,1.29,2.06,1.97,4.1,1.97s4.1-.68,4.1-1.97c0-.15-.03-.29-.09-.43,0-.02-.01-.03-.02-.05-.94-2.1-8.09-1.94-8.09,.47Zm4.1,.97c-2.04,0-3.1-.68-3.1-.97s1.05-.97,3.1-.97,3.1,.68,3.1,.97-1.05,.97-3.1,.97Z" stroke-width="0"/><path d="M28.7,13.83c-.24-.14-.54-.06-.69,.17s-.06,.54,.17,.69c2.54,1.51,5.19,4.19,8.11,8.19,.1,.13,.25,.2,.4,.2,.1,0,.21-.03,.29-.1,.22-.16,.27-.48,.11-.7-3-4.11-5.76-6.87-8.41-8.46Z" stroke-width="0"/><path d="M7.51,26.36c-.33-.36-.66-.72-1-1.08,.11,.52,.5,.93,1,1.08Z" stroke-width="0"/><path d="M15.44,9.06c2.33,0,4.23-1.9,4.23-4.23S17.77,.59,15.44,.59s-4.23,1.9-4.23,4.23,1.9,4.23,4.23,4.23Zm0-7.47c1.78,0,3.23,1.45,3.23,3.23s-1.45,3.23-3.23,3.23-3.23-1.45-3.23-3.23,1.45-3.23,3.23-3.23Z" stroke-width="0"/></g><g id="uuid-395e3a38-156b-410c-a3ad-92c9c5d2ef11"></g></svg>