<?xml version="1.0" encoding="UTF-8"?><svg width="70" height="70" xmlns="http://www.w3.org/2000/svg" viewBox="-10 -10 70 70"><rect x="-10" y="-10" width="70" height="70" fill="white"/><g id="uuid-eb519364-732b-44d9-9ffb-b6cb3f34f302"><g><path d="M41.6,10.03c-.23-.05-.39-.25-.4-.48,0-.2-.08-1.94-1.51-2.87-.79-.51-1.63-.53-2.06-.49-.15,.02-.29-.04-.4-.15s-.16-.25-.14-.4l.19-2.18c-.83,.61-1.6,1.29-2.31,2.03,0,0-1.06,1.11-1.92,2.39-.91,1.36-2.07,3.86-2.77,7.2l6.57,1.39-.36,1.68-6.76-1.43c-.24,.71-.48,1.42-.72,2.13-2.17,1.2-4.19,2.65-6,4.3-7.12,6.49-9.73,14.83-10.66,20.69-.03,.46-.25,.92-.63,1.25-.36,.32-.82,.49-1.29,.45-.86-.06-1.57-.77-1.66-1.66v-9.68c0-.55-.45-1-1-1s-1,.45-1,1v10.5c.03,2.56,2,4.69,4.49,4.84,.1,0,.19,0,.28,0h15.15c.67,0,1.22-.55,1.22-1.22s-.55-1.22-1.22-1.22c-1.28,0-2.56,0-3.84-.01,.89-1.2,1.74-2.12,2.4-2.79,.91-.92,1.87-1.89,3.36-2.79,.96-.59,1.89-1,2.73-1.3l.98-.28,.82,9.61h3.43c.67,0,1.22-.55,1.22-1.22s-.55-1.22-1.22-1.22h-.58c-.28,0-.5-.22-.5-.5V30.52c0-.07,.02-.14,.05-.2h0c.54-1.16,.99-2.36,1.33-3.58,.55-1.98,.81-4.04,.81-6.12,.77-2.71,1.21-4.43,1.29-5.18,0,0,.2-.43,.53-1.44,.07-.2,.26-.34,.47-.34l2.29-.02c.47,.02,.92-.06,1.36-.19,.44-.14,.85-.34,1.22-.61,.21-.18,.54-.54,.73-1.08,.11-.31,.13-.61,.13-.85l-4.11-.86Zm-10.43,15.88c-1.51,0-2.73-1.23-2.73-2.73s1.23-2.73,2.73-2.73,2.73,1.23,2.73,2.73-1.23,2.73-2.73,2.73Z" fill="#ffcd00" stroke-width="0"/><polygon points="31.83 21.53 30.5 21.53 30.5 22.52 29.52 22.52 29.52 23.84 30.5 23.84 30.5 24.83 31.83 24.83 31.83 23.84 32.82 23.84 32.82 22.52 31.83 22.52 31.83 21.53" fill="#ffcd00"/><path d="M45.17,8.9c-.03-.21-.19-.37-.39-.41l-4.1-.86c-.09-.76-.47-2.34-1.94-3.29-.74-.48-1.51-.63-2.09-.66l.24-2.69c.02-.19-.08-.37-.24-.47-.16-.1-.37-.09-.53,0-2.15,1.4-3.96,3.18-5.37,5.3-1.86,2.79-2.64,5.59-2.95,7.7-.27-.05-.53,.12-.58,.39l-.56,2.66c-.01,.05,0,.1,0,.15-2.08,1.19-4.03,2.59-5.78,4.19-7.34,6.69-10.02,15.26-10.98,21.31-.01,.24-.12,.45-.3,.6-.16,.14-.36,.21-.56,.2-.38-.03-.7-.35-.74-.71v-9.63c0-1.1-.9-2-2-2s-2,.9-2,2v10.51c.03,3.08,2.42,5.64,5.43,5.84,.12,0,.23,.01,.44,0h3.17s.02,0,.03,0h11.85c1.22,0,2.22-1,2.22-2.22s-1-2.22-2.22-2.22h-1.72c1.7-1.99,3.93-4,6.45-4.86l.76,8.84c.02,.26,.24,.46,.5,.46h3.89c1.22,0,2.22-1,2.22-2.22s-1-2.22-2.22-2.22h-.08v-15.48c.55-1.17,1-2.39,1.34-3.63,.57-2.06,.85-4.2,.85-6.36,.09-.07,.16-.17,.19-.29l.56-2.66c.04-.18-.03-.36-.17-.48,.22-.46,.43-.93,.63-1.41,.16-.4,.31-.79,.44-1.16l1.92-.02c.57,.03,1.12-.07,1.66-.24,.54-.17,1.05-.42,1.53-.78,.34-.29,.8-.79,1.06-1.55,.18-.53,.23-1.11,.14-1.66Zm-9.77,16.33c-.34,1.22-.79,2.42-1.33,3.57h0c-.03,.07-.05,.14-.05,.21v16.09c0,.28,.22,.5,.5,.5h.58c.67,0,1.22,.55,1.22,1.22s-.55,1.22-1.22,1.22h-3.43l-1.38-16.06c-.01-.17-.11-.31-.26-.4-.36-.2-.67-.45-.94-.75-.71-.81-.86-1.77-.88-2.27-.01-.28-.26-.53-.52-.48-.28,.01-.49,.25-.48,.52,.03,.63,.21,1.84,1.13,2.89,.28,.32,.61,.6,.97,.83l.55,6.38c-2.86,.9-5.35,3.17-7.21,5.35-.31-4.53-2.65-7.94-5.58-7.94-.28,0-.5,.22-.5,.5s.22,.5,.5,.5c2.45,0,4.46,3.31,4.61,7.48h-2.84c-.28,0-.5,.22-.5,.5s.22,.5,.5,.5h6.38c.67,0,1.22,.55,1.22,1.22s-.55,1.22-1.22,1.22H13.87v-2.94c0-.28-.22-.5-.5-.5s-.5,.22-.5,.5v2.94h-2.8c-.09,0-.19,0-.28,0-2.49-.16-4.47-2.29-4.49-4.84v-10.5c0-.55,.45-1,1-1s1,.45,1,1v9.68c.09,.88,.81,1.6,1.67,1.66,.47,.04,.92-.13,1.29-.45,.38-.33,.6-.79,.63-1.25,.93-5.85,3.54-14.19,10.66-20.69,1.81-1.65,3.83-3.09,6-4.3l.63,.06,8.04,1.7c0,2.08-.26,4.14-.81,6.12Zm1.12-7.08l-8.8-1.86,.36-1.68,8.8,1.86-.36,1.68Zm7.56-7.91c-.18,.54-.51,.9-.73,1.08-.37,.27-.78,.47-1.22,.61-.44,.14-.89,.21-1.36,.19l-2.29,.02c-.21,0-.4,.14-.47,.34-.15,.46-.33,.94-.53,1.44-.21,.51-.45,1.01-.69,1.51l-8.04-1.7c.29-2,1.02-4.68,2.8-7.35,1.14-1.71,2.56-3.19,4.22-4.42l-.19,2.18c-.01,.15,.04,.29,.14,.4s.25,.16,.4,.15c.42-.04,1.26-.02,2.06,.49,1.44,.92,1.51,2.67,1.51,2.87,0,.23,.17,.43,.4,.48l4.11,.86c0,.24-.02,.54-.13,.85Z" stroke-width="0"/><path d="M37.93,6.9h-1.5c-.28,0-.5,.22-.5,.5s.22,.5,.5,.5h1.5c.28,0,.5-.22,.5-.5s-.22-.5-.5-.5Z" stroke-width="0"/><path d="M31.17,26.91c2.06,0,3.73-1.67,3.73-3.73s-1.67-3.73-3.73-3.73-3.73,1.67-3.73,3.73,1.67,3.73,3.73,3.73Zm0-6.47c1.51,0,2.73,1.23,2.73,2.73s-1.23,2.73-2.73,2.73-2.73-1.23-2.73-2.73,1.23-2.73,2.73-2.73Z" stroke-width="0"/><polygon points="30.5 24.83 31.83 24.83 31.83 23.84 32.82 23.84 32.82 22.52 31.83 22.52 31.83 21.53 30.5 21.53 30.5 22.52 29.52 22.52 29.52 23.84 30.5 23.84 30.5 24.83"/></g></g><g id="uuid-c67f3074-db62-4b7e-9145-18267af0a440"></g></svg>