<?xml version="1.0" encoding="utf-8"?> <!-- Generator: Adobe Illustrator 27.7.0, SVG Export Plug-In . SVG Version: 6.00 Build 0) --> <svg width="70" height="70" version="1.1" xmlns="http://www.w3.org/2000/svg" xmlns:xlink="http://www.w3.org/1999/xlink" x="0px" y="0px" viewBox="-10 -10 70 70" style="enable-background:new 0 0 50 50;" xml:space="preserve"><rect x="-10" y="-10" width="70" height="70" fill="white"/> <style type="text/css"> .st0{fill:#FFCD00;} .st1{display:none;} .st2{display:inline;fill:none;stroke:#EA008A;stroke-width:0.2;stroke-miterlimit:10;} .st3{font-family:'Roboto-Regular';} .st4{font-size:6px;} </style> <g id="Color"> <g> <path class="st0" d="M15.0146,24.228c-2.3027,0-7.6582,0.5352-7.6582,5.4941c0,5.0981,5.8613,5.4941,7.6582,5.4941 c4.2227,0,7.6582-2.4648,7.6582-5.4941S19.2373,24.228,15.0146,24.228z M14.4775,32.2606c-2.915,0-5.278-1.6402-5.278-3.6635 c0-2.0233,2.363-3.6635,5.278-3.6635s5.2781,1.6402,5.2781,3.6635C19.7556,30.6204,17.3925,32.2606,14.4775,32.2606z" stroke-width="0"/> <path class="st0" d="M35.418,24.4995c-1.655,0-3.1849,0.3636-4.4386,0.9747c0.7977-0.3361,1.7238-0.5405,2.725-0.5405 c2.915,0,5.2781,1.6402,5.2781,3.6635c0,2.0233-2.3631,3.6635-5.2781,3.6635s-5.278-1.6402-5.278-3.6635 c0-0.7307,0.3164-1.4078,0.8475-1.9794c-0.9467,0.869-1.5141,1.941-1.5141,3.1044c0,2.8794,3.4355,5.2222,7.6582,5.2222 c1.7969,0,7.6582-0.3765,7.6582-5.2222C43.0762,25.0083,37.7207,24.4995,35.418,24.4995z" stroke-width="0"/> </g> </g> <g id="ICONS_00000031165542127692736420000002692518830807990202_"> <g> <path d="M46.2617,18.2412c-3.3022-3.0739-10.312-4.9817-20.1342-1.2495l-0.2174-0.5743 c-0.0986-0.2573-0.3877-0.3892-0.6445-0.2905l-3.5361,1.3384c-0.124,0.0469-0.2246,0.1416-0.2793,0.2622 c-0.0547,0.1211-0.0586,0.2583-0.0117,0.3823l0.1771,0.4678c-3.3724,0.7555-6.0793,0.0562-8.4964-0.8453 c-4.668-1.7383-9.1895-0.0215-10.8633,2.6445c-0.8711,1.3877-1.1123,2.9736-0.6621,4.3506 c0.3051,0.933,1.0651,2.1807,2.9222,3.1512c-0.8409,0.1434-1.5621,0.5354-2.0335,1.1437 C1.918,29.75,1.7529,30.6841,2.0176,31.6519C2.0781,31.874,2.2803,32.02,2.5,32.02c0.043,0,0.0879-0.0059,0.1318-0.0176 c0.2666-0.0728,0.4229-0.3477,0.3506-0.6143c-0.1797-0.6572-0.0762-1.2798,0.29-1.7534c0.4131-0.5327,1.1016-0.8247,1.9424-0.8247 c0.0088,0.0002,0.0184-0.0001,0.0278,0.0002c0.118,3.8786,3.4032,6.281,8.647,6.281c4.7744,0,8.6582-2.9131,8.6582-6.4941 c0-0.0921-0.0134-0.1817-0.0184-0.2729c0.7342-0.3243,1.3696-0.3697,1.5614-0.3697c0.1919,0,0.8278,0.0454,1.5632,0.3701 c-0.0055,0.091-0.0192,0.1805-0.0192,0.2725c0,3.4312,3.8838,6.2222,8.6582,6.2222c5.1542,0,8.4144-2.2249,8.6367-5.8294 c1.4119,0.103,2.3531,0.9232,2.7881,2.4617c0.0625,0.2202,0.2627,0.3638,0.4814,0.3638c0.0449,0,0.0908-0.0059,0.1357-0.019 c0.2656-0.0752,0.4209-0.3516,0.3457-0.6172c-0.4611-1.6295-1.4563-2.6714-2.8446-3.0461 c2.3718-0.5674,4.0222-1.8745,4.5848-3.6771C49.0576,22.416,48.25,20.0928,46.2617,18.2412z M25.1514,17.2393l0.4512,1.1904 l-2.6006,0.9849l-0.4512-1.1909L25.1514,17.2393z M13.8896,34.0913c-1.7969,0-7.6582-0.396-7.6582-5.4941 c0-4.959,5.3555-5.4941,7.6582-5.4941c4.2227,0,7.6582,2.4648,7.6582,5.4941S18.1123,34.0913,13.8896,34.0913z M34.293,33.8193 c-4.2227,0-7.6582-2.3428-7.6582-5.2222c0-2.8799,3.4355-5.2227,7.6582-5.2227c2.3027,0,7.6582,0.5088,7.6582,5.2227 C41.9512,33.4429,36.0898,33.8193,34.293,33.8193z M47.4668,24.1582c-0.5183,1.6599-2.1695,2.7776-4.648,3.1569 c-0.6481-3.1176-3.7294-4.9406-8.5258-4.9406c-4.1599,0-7.6414,2.1198-8.4693,4.9348c-0.7832-0.3027-1.448-0.3547-1.7328-0.3547 c-0.283,0-0.9406,0.0505-1.7166,0.3478c-0.8024-2.9627-4.3012-5.1994-8.4846-5.1994c-4.759,0-7.8326,1.8713-8.5134,5.0784 c-1.4796-0.6755-2.4593-1.6231-2.8323-2.7649c-0.3574-1.0938-0.1533-2.3721,0.5596-3.5083 c1.4619-2.3262,5.4746-3.8013,9.666-2.2383c2.4743,0.9218,5.4965,1.7143,9.2035,0.8522l0.2701,0.7137 c0.0469,0.1245,0.1416,0.2246,0.2627,0.2793c0.0645,0.0293,0.1348,0.0439,0.2051,0.0439c0.0596,0,0.1201-0.0107,0.1768-0.0322 l3.5361-1.3389c0.2588-0.0981,0.3887-0.3867,0.291-0.645l-0.2335-0.6166c9.3925-3.5692,16.0168-1.8217,19.0987,1.0468 C47.2803,20.5562,47.9854,22.4941,47.4668,24.1582z" stroke-width="0"/> <path d="M14.4775,24.4336c-3.1865,0-5.7783,1.8677-5.7783,4.1636s2.5918,4.1636,5.7783,4.1636s5.7783-1.8677,5.7783-4.1636 S17.6641,24.4336,14.4775,24.4336z M14.4775,31.7607c-2.6348,0-4.7783-1.4189-4.7783-3.1636s2.1436-3.1636,4.7783-3.1636 s4.7783,1.4189,4.7783,3.1636S17.1123,31.7607,14.4775,31.7607z" stroke-width="0"/> <path d="M33.7041,24.4336c-3.1855,0-5.7773,1.8677-5.7773,4.1636s2.5918,4.1636,5.7773,4.1636 c3.1865,0,5.7783-1.8677,5.7783-4.1636S36.8906,24.4336,33.7041,24.4336z M33.7041,31.7607c-2.6338,0-4.7773-1.4189-4.7773-3.1636 s2.1436-3.1636,4.7773-3.1636c0.5136,0,0.9993,0.0679,1.4633,0.1677l-2.6098,2.699c-0.1924,0.1987-0.1865,0.5151,0.0117,0.707 c0.0977,0.0938,0.2227,0.1406,0.3477,0.1406c0.1309,0,0.2617-0.0508,0.3594-0.1523l2.9667-3.0681 c1.3406,0.5609,2.2394,1.5441,2.2394,2.6697C38.4824,30.3418,36.3389,31.7607,33.7041,31.7607z" stroke-width="0"/> <path d="M35.9238,27.9541l-1.8223,1.8999c-0.1904,0.1992-0.1836,0.5161,0.0156,0.707c0.0967,0.0928,0.2207,0.1392,0.3457,0.1392 c0.1318,0,0.2627-0.0518,0.3613-0.1538l1.8223-1.8999c0.1904-0.1992,0.1836-0.5161-0.0156-0.707S36.1152,27.7549,35.9238,27.9541z " stroke-width="0"/> <path d="M17.0244,27.3096l-1.8213,1.8999c-0.1904,0.1997-0.1836,0.5161,0.0156,0.707c0.0967,0.0928,0.2217,0.1392,0.3457,0.1392 c0.1318,0,0.2627-0.0518,0.3613-0.1538l1.8213-1.8999c0.1904-0.1997,0.1836-0.5161-0.0156-0.707S17.2158,27.1113,17.0244,27.3096z " stroke-width="0"/> </g> </g> <g id="Margin" class="st1"> <rect x="1" y="1" class="st2" /> </g> <g id="Guides" class="st1"> </g> <g id="LABELS"> <g> <g> <g> </g> </g> </g> </g> </svg> 