<?xml version="1.0" encoding="UTF-8"?><svg width="70" height="70" xmlns="http://www.w3.org/2000/svg" viewBox="-10 -10 70 70"><rect x="-10" y="-10" width="70" height="70" fill="white"/><g id="uuid-e63ea20d-f7cf-4005-81ed-fda587644d67"><path d="M47.5,4.05l-7.5,3.06c-9.26,10.59-18.52,21.19-27.77,31.78l-3.34-3.1-2.61,2.81,2.89,2.68c-1.24,1.33-2.48,2.66-3.71,3.99l4.08,3.78c1.24-1.33,2.48-2.65,3.72-3.98l2.87,2.66,2.61-2.81-3.35-3.11c9.88-10.02,19.75-20.04,29.62-30.06l2.49-7.71Z" fill="#ffcd00" stroke-width="0"/><path d="M46.9,1.07c-.14-.13-.35-.17-.53-.1l-8.6,3.51c-.07,.03-.14,.08-.19,.13l-2.5,2.85c-3.8-1.14-7.32-3.15-10.21-5.92-.19-.19-.5-.19-.69,0-4.17,4-9.62,6.45-15.37,6.91-.2,.02-.37,.15-.44,.35-.83,2.58-1.25,5.26-1.25,7.96,0,6,2.09,11.67,5.67,16.19l-2.4,2.75-2.94-2.73c-.1-.09-.23-.13-.36-.13-.13,0-.26,.06-.35,.16l-3.29,3.55c-.19,.2-.18,.52,.03,.71l2.52,2.34-3.37,3.63c-.09,.1-.14,.23-.13,.36s.06,.26,.16,.35l4.81,4.46c.1,.09,.22,.13,.34,.13,.13,0,.27-.05,.37-.16l3.37-3.63,2.52,2.34c.09,.09,.21,.13,.34,.13h.02c.13,0,.26-.06,.35-.16l3.29-3.55c.19-.2,.18-.52-.03-.71l-2.96-2.75,2.43-2.47c2.05,1.55,4.35,2.83,6.85,3.73,.06,.02,.11,.03,.17,.03s.12,0,.17-.03c10.31-3.74,17.23-13.6,17.23-24.54,0-1.24-.1-2.48-.27-3.7l2.41-2.44c.05-.05,.1-.12,.12-.2l2.86-8.84c.06-.19,0-.39-.14-.52ZM8.12,16.77c0-2.49,.37-4.96,1.1-7.34,5.69-.53,11.1-2.94,15.3-6.83,2.83,2.62,6.2,4.54,9.84,5.7l-2.27,2.6c-2.6-.92-5.06-2.24-7.26-3.92-.18-.14-.43-.14-.61,0-3.39,2.59-7.41,4.34-11.62,5.06-.2,.04-.36,.19-.41,.39-.3,1.42-.45,2.86-.45,4.3,0,4.64,1.55,9.03,4.24,12.58l-2.52,2.88c-3.37-4.32-5.34-9.71-5.34-15.42Zm23.25-5.06l-14.71,16.82c-2.49-3.35-3.92-7.46-3.92-11.81,0-1.26,.12-2.52,.36-3.76,4.12-.75,8.05-2.46,11.41-4.96,2.1,1.56,4.41,2.8,6.85,3.71ZM7.78,47.31l-4.08-3.78,3.03-3.26,4.08,3.78-3.03,3.26Zm9.2-4.13l-2.61,2.81-9.85-9.13,2.61-2.81,9.85,9.13Zm7.54-2.88c-2.3-.85-4.41-2.03-6.3-3.45l2.8-2.84c1.04,.69,2.14,1.31,3.31,1.82,.06,.03,.13,.04,.2,.04s.13-.01,.2-.04c7.4-3.2,12.25-10.33,12.55-18.32l3.48-3.53c.1,.93,.17,1.86,.17,2.79,0,10.46-6.58,19.89-16.4,23.54Zm-2.8-7.01l14.48-14.69c-.67,7.07-5.09,13.3-11.68,16.23-.98-.44-1.91-.96-2.8-1.53ZM43.26,10.01L14.34,39.36l-3.21-2.98L38.25,5.37l7.5-3.06-2.49,7.71Z" stroke-width="0"/></g><g id="uuid-3c0a3f3e-61dc-4e12-8925-9a7897e95c33"></g></svg>