<?xml version="1.0" encoding="UTF-8"?><svg width="70" height="70" id="uuid-dba8d0ae-335e-40c9-807e-62f0584c30f4" xmlns="http://www.w3.org/2000/svg" viewBox="-10 -10 70 70"><rect x="-10" y="-10" width="70" height="70" fill="white"/><path d="M36.74,35.37l.78-.58L22.81,14.97l-1.4,1.04c-.22-.3-.45-.6-.67-.91l4.53-3.36-.68-.91-4.11,3.05h0l-.41,.31c-1.96-2.66-3.93-5.31-5.89-7.97l2.47-1.83-.68-.91-7.39,5.48,.68,.91,2.65-1.97c1.98,2.64,3.97,5.28,5.95,7.93l-4.74,3.52,.68,.91,4.74-3.52c.23,.3,.45,.6,.68,.9l-1.22,.91,14.71,19.81,.77-.57c.87,.6,1.75,1.21,2.62,1.81,.57-.43,.82-.61,.82-.61h0l.82-.61c-.33-1.01-.66-2.01-.99-3.02Z" fill="#ffcd00" stroke-width="0"/><path d="M44.28,48.68l-8.12-10.93,.71-.53c.17-.13,.24-.35,.18-.56l-.88-2.68,.6-.45h0l.34-.25c.22-.16,.27-.48,.1-.7-.15-.2-.41-.25-.63-.14L21.79,12.52l2.73-2.03c.11-.08,.18-.2,.2-.33,.02-.13-.01-.27-.09-.37l-1.28-1.72c-.17-.22-.48-.27-.7-.1l-4.12,3.06-4.72-6.35,2.07-1.54c.22-.16,.27-.48,.1-.7l-1.27-1.72c-.08-.11-.2-.18-.33-.2-.13-.02-.26,.01-.37,.09L5.83,6.7c-.22,.16-.27,.48-.1,.7l1.27,1.72c.08,.11,.2,.18,.33,.2,.02,0,.05,0,.07,0,.11,0,.21-.03,.3-.1l2.25-1.67,4.72,6.35-4.29,3.19c-.22,.16-.27,.48-.1,.7l1.27,1.72c.1,.13,.25,.2,.4,.2,.1,0,.21-.03,.3-.1l3.12-2.32,14.79,19.92c-.21,.17-.25,.47-.09,.68,.1,.13,.25,.2,.4,.2,.1,0,.21-.03,.3-.1l.38-.28h0l.6-.45,2.31,1.62c.09,.06,.19,.09,.29,.09s.21-.03,.3-.1l.71-.53,8.12,10.93c.1,.13,.25,.2,.4,.2,.1,0,.21-.03,.3-.1,.22-.16,.27-.48,.1-.7ZM7.5,8.12l-.68-.91L14.21,1.72l.68,.91-7.39,5.48Zm3.24-1.16l2.26-1.68,4.72,6.35-2.26,1.68-4.72-6.35Zm1.3,11.55l-.68-.91,7.35-5.46h0l4.11-3.06,.68,.91-11.47,8.52Zm9.01-5.29l14.71,19.81-4.82,3.58-14.71-19.81,4.82-3.58Zm13.28,24.63l-1.74-1.22,2.72-2.02,.66,2.02-.82,.61h-.01l-.81,.61Z" stroke-width="0"/></svg>