<?xml version="1.0" encoding="UTF-8"?><svg width="70" height="70" xmlns="http://www.w3.org/2000/svg" viewBox="-10 -10 70 70"><rect x="-10" y="-10" width="70" height="70" fill="white"/><g id="uuid-b9be6de1-dcda-48a0-8437-9d88b9e0aec9"><path d="M40.19,30.43l-2.42-6.64c-.29-.78-.49-1.59-.61-2.42-.07-.41-.12-.82-.14-1.23l-.78-14c-.07-1.28-1.06-2.29-2.36-2.41-2.42-.23-4.86-.34-7.29-.34s-4.88.11-7.3.34c-1.3.12-2.29,1.13-2.36,2.41l-.58,10.5h5.17c.44,0,.84.17,1.15.48.3.32.47.73.46,1.16l-.07,2.93-.03,1.01-.13,5.94c-.02.88-.73,1.57-1.61,1.57h-6.91l-.19.86c-.09.43,0,.88.25,1.23.25.35.62.58,1.04.63.81.1,1.62.17,2.44.25l-1.74,16.69h.16l3.91-16.47c4.45.33,8.93.36,13.38.07.08,0,.16-.02.24-.02.1,0,.2-.02.3-.02l3.92,16.44h.15l-1.72-16.64c.8-.07,1.59-.16,2.38-.25.48-.06.9-.33,1.15-.74.25-.4.3-.89.14-1.33Z" fill="#ffcd00" stroke-width="0"/></g><g id="uuid-d062e99b-91b9-4fc3-8ff4-fcb3f506ef79"><path d="M37.52,48.67l-1.62-15.64c-.74.07-1.48.13-2.22.18l3.69,15.46h.15ZM19.3,33.18c-.74-.05-1.48-.11-2.21-.19l-1.63,15.68h.16l3.68-15.49ZM26.66,33.48c-2.12,0-4.23-.08-6.35-.22l-1.71,7.2h15.78l-1.7-7.17c-2.01.12-4.01.19-6.02.19ZM14.76,31.73c6.02.76,12.11.94,18.15.54.08-.01.16-.02.24-.02,1.68-.12,3.36-.27,5.03-.47.48-.06.9-.33,1.15-.74.25-.4.3-.89.14-1.33l-2.42-6.64c-.29-.78-.49-1.59-.61-2.42-.07-.41-.12-.82-.14-1.23l-.78-14c-.07-1.28-1.06-2.29-2.36-2.41-2.42-.23-4.86-.34-7.29-.34s-4.88.11-7.3.34c-1.3.12-2.29,1.13-2.36,2.41l-.58,10.5h5.17c.44,0,.84.17,1.15.48.3.32.47.73.46,1.16l-.07,2.93c3.59-.35,7.22-.25,10.8.32.18.03.33.15.39.31.03.08.04.17.02.26-.04.25-.25.42-.49.42h-.08c-3.54-.57-7.12-.66-10.67-.3l-.13,5.94c-.02.88-.73,1.57-1.61,1.57h-6.91l-.19.86c-.09.43,0,.88.25,1.23s.62.58,1.04.63ZM15.07,16.92h-4.17c-.15,0-.3-.07-.39-.19-.1-.13-.13-.29-.09-.44l.62-2.35h-2.84c-.25,0-.48.16-.57.39l-4.68,12.87c-.07.18-.04.38.07.55.12.16.3.26.5.26h17.05c.34,0,.6-.26.61-.59l.13-5.81.02-1.01.08-3.06c0-.17-.06-.32-.18-.44-.11-.12-.26-.18-.43-.18h-5.73ZM14.62,15.92l.11-1.98h-2.65l-.53,1.98h3.07ZM16.09,32.88c-.48-.05-.97-.1-1.45-.16-.7-.09-1.33-.47-1.74-1.04-.41-.59-.56-1.32-.41-2.02l.14-.65H3.52c-.52,0-1.02-.26-1.31-.69-.3-.43-.38-.98-.2-1.47l4.68-12.86c.23-.63.84-1.05,1.51-1.05h6.59l.42-7.57c.1-1.78,1.48-3.19,3.27-3.36,4.9-.45,9.87-.45,14.77,0,1.8.17,3.17,1.58,3.27,3.36l.78,13.99c.06,1.16.3,2.29.69,3.37l2.42,6.64c.26.73.18,1.53-.23,2.19-.41.67-1.09,1.11-1.88,1.21-.46.06-.94.1-1.41.15l1.68,16.2c.02.14-.03.28-.12.39-.1.1-.23.16-.37.16h-1.11c-.23,0-.43-.16-.49-.38l-1.86-7.83h-16.26l-1.86,7.83c-.06.22-.26.38-.49.38h-1.1c-.15,0-.28-.06-.37-.16-.1-.11-.15-.25-.13-.39l1.68-16.24Z" stroke-width="0"/></g></svg>