<?xml version="1.0" encoding="UTF-8"?><svg width="70" height="70" id="uuid-d0955d58-a3a6-418a-b078-47ec9ce04865" xmlns="http://www.w3.org/2000/svg" viewBox="-10 -10 70 70"><rect x="-10" y="-10" width="70" height="70" fill="white"/><path d="M46.17,35.52c.18-1.13,.29-2.27,.29-3.42,0-.39-.03-.78-.06-1.17-1.22-10.19-9.9-18.11-20.41-18.11-11.34,0-20.57,9.23-20.57,20.57,0,4.78,1.68,9.44,4.73,13.12,.22,.26,.54,.41,.88,.41,.36,0,.66-.14,.88-.41,3.52-4.16,8.65-6.55,14.09-6.55s10.57,2.39,14.09,6.55c.22,.26,.54,.41,.88,.41h0c.34,0,.66-.15,.87-.42,2.63-3.17,4.23-7.08,4.63-11.16-.1,.06-.19,.12-.29,.17Zm-4.94,7.96c-.08,.12-.22,.21-.36,.22-.15,.02-.3-.04-.4-.14-3.9-3.8-9.03-5.89-14.47-5.89s-10.58,2.09-14.47,5.89c-.09,.09-.22,.14-.35,.14-.02,0-.04,0-.05,0-.15-.02-.28-.1-.36-.22-.23-.35-.45-.71-.66-1.07-.01,0-.02,0-.03,0-.02,0-.04,0-.05,0-.15-.02-.28-.1-.36-.22-1.99-3.01-3.04-6.5-3.04-10.1,0-10.08,8.2-18.28,18.28-18.28,5.86,0,11.06,2.78,14.41,7.07,3.08,3.27,4.97,7.66,4.97,12.5,0,3.6-1.05,7.09-3.04,10.1Z" fill="#ffcd00" stroke-width="0"/><path d="M49.28,32.1c0-2.14-1.4-3.94-3.33-4.59-.55-2.52-1.54-4.87-2.89-6.98,.34-.67,.53-1.4,.53-2.17,0-1.3-.51-2.52-1.42-3.43-1.5-1.5-3.75-1.79-5.56-.91-2.12-1.38-4.5-2.4-7.05-2.97-.67-1.88-2.45-3.24-4.56-3.24s-3.85,1.32-4.54,3.17c-2.6,.54-5.03,1.57-7.2,2.97-1.79-.81-3.97-.49-5.43,.98-1.46,1.46-1.78,3.61-1,5.39-1.43,2.18-2.48,4.64-3.04,7.27-1.8,.71-3.07,2.46-3.07,4.51s1.29,3.8,3.09,4.51c.72,3.38,2.23,6.56,4.46,9.24,.41,.49,1,.77,1.65,.78,.66-.01,1.23-.28,1.64-.76,3.33-3.94,8.19-6.2,13.32-6.2s9.99,2.26,13.32,6.2c.41,.48,1.01,.76,1.64,.76h.01c.64,0,1.24-.29,1.64-.78,2.21-2.66,3.71-5.82,4.44-9.16,1.94-.64,3.35-2.45,3.35-4.59Zm-9.43,13.53h0c-.34,0-.66-.15-.88-.41-3.52-4.16-8.65-6.55-14.09-6.55s-10.57,2.39-14.09,6.55c-.22,.26-.52,.4-.88,.41-.34,0-.66-.15-.88-.41-3.05-3.68-4.73-8.34-4.73-13.12,0-11.34,9.23-20.57,20.57-20.57s20.57,9.23,20.57,20.57c0,4.78-1.68,9.44-4.73,13.12-.22,.26-.54,.41-.87,.42Zm-1.12-31.13c.99,0,1.98,.38,2.73,1.13,.73,.73,1.13,1.7,1.13,2.73,0,.41-.08,.8-.2,1.18-1.34-1.86-2.96-3.49-4.81-4.85,.38-.12,.76-.19,1.15-.19Zm-13.74-5.69c1.46,0,2.71,.82,3.37,2.02-1.14-.19-2.3-.31-3.49-.31-1.1,0-2.17,.11-3.23,.27,.66-1.18,1.91-1.98,3.35-1.98ZM8.54,15.64c.75-.75,1.74-1.13,2.73-1.13,.33,0,.66,.06,.98,.14-1.8,1.31-3.38,2.88-4.7,4.67-.33-1.28,0-2.69,.99-3.68ZM1.72,32.1c0-1.4,.75-2.61,1.87-3.29-.17,1.08-.28,2.17-.28,3.29s.1,2.2,.27,3.28c-1.11-.68-1.86-1.89-1.86-3.28Zm44.45,3.42c.18-1.13,.29-2.27,.29-3.42s-.12-2.31-.3-3.43c1.26,.64,2.13,1.93,2.13,3.43s-.87,2.78-2.11,3.42Z" stroke-width="0"/><path d="M4.59,19.24s.1,0,.14-.02c.26-.08,.41-.36,.33-.62-.38-1.28-.09-2.64,.79-3.65,.18-.21,.16-.52-.05-.71-.21-.18-.52-.16-.71,.05-1.11,1.27-1.48,2.99-1,4.6,.07,.22,.26,.36,.48,.36Z" stroke-width="0"/><path d="M2.34,17.56h.02c.28-.01,.49-.25,.48-.52-.03-.66,.11-1.33,.42-1.92,.12-.25,.03-.55-.22-.67-.25-.12-.55-.03-.67,.22-.38,.75-.56,1.59-.52,2.42,.01,.27,.23,.48,.5,.48Z" stroke-width="0"/><path d="M42.99,13.17c1.18,.63,1.94,1.8,2.03,3.14,.02,.26,.24,.47,.5,.47h.04c.28-.02,.48-.26,.46-.53-.12-1.68-1.07-3.16-2.55-3.95-.24-.13-.55-.04-.68,.21s-.04,.55,.21,.68Z" stroke-width="0"/><path d="M46.73,14.33c.07,.21,.26,.34,.48,.34,.05,0,.1,0,.16-.02,.26-.09,.41-.37,.32-.63-.26-.8-.73-1.52-1.35-2.08-.2-.19-.52-.17-.71,.03-.19,.2-.17,.52,.03,.71,.49,.45,.86,1.02,1.07,1.65Z" stroke-width="0"/><path d="M23.65,6.5c1.23-.52,2.62-.37,3.71,.4,.09,.06,.19,.09,.29,.09,.16,0,.31-.07,.41-.21,.16-.23,.1-.54-.12-.7-1.38-.96-3.13-1.15-4.68-.5-.25,.11-.37,.4-.27,.65,.11,.25,.4,.37,.66,.27Z" stroke-width="0"/><path d="M24.96,4.12c.66-.1,1.33-.03,1.96,.21,.06,.02,.12,.03,.18,.03,.2,0,.39-.12,.47-.32,.1-.26-.03-.55-.29-.65-.79-.3-1.64-.39-2.47-.26-.27,.04-.46,.3-.42,.57,.04,.27,.3,.46,.57,.42Z" stroke-width="0"/><path d="M42.16,32.1c0-.99-.1-1.95-.26-2.89-.81,.71-1.33,1.73-1.33,2.89s.53,2.19,1.34,2.9c.16-.95,.25-1.92,.25-2.9Z" fill="none" stroke-width="0"/><path d="M25,16.53c1.15,0,2.16-.52,2.87-1.32-.62-.06-1.25-.1-1.88-.1-1.23,0-2.43,.13-3.59,.36,.69,.65,1.59,1.06,2.6,1.06Z" fill="none" stroke-width="0"/><path d="M34.91,18.06c-.09,1.09,.27,2.21,1.1,3.04,.82,.82,1.93,1.18,3.01,1.1-1.13-1.6-2.52-3-4.11-4.14Z" fill="none" stroke-width="0"/><path d="M43.16,32.1c0,3.6-1.05,7.09-3.04,10.1-.08,.12-.22,.21-.36,.22-.15,.02-.3-.04-.4-.14-3.9-3.8-9.03-5.89-14.47-5.89s-10.58,2.09-14.47,5.89c-.09,.08-.2,.13-.32,.14,.21,.36,.42,.72,.66,1.07,.08,.12,.22,.21,.36,.22,.02,0,.04,0,.05,0,.13,0,.26-.05,.35-.14,3.9-3.8,9.03-5.89,14.47-5.89s10.58,2.09,14.47,5.89c.11,.1,.25,.16,.4,.14,.15-.02,.28-.1,.36-.22,1.99-3,3.04-6.5,3.04-10.1,0-4.83-1.9-9.22-4.97-12.5,2.42,3.1,3.87,6.98,3.87,11.21Z" fill="none" stroke-width="0"/><path d="M25,17.53c-1.51,0-2.85-.7-3.74-1.78-1.85,.5-3.59,1.27-5.17,2.29,.09,1.35-.36,2.73-1.39,3.76-.95,.95-2.19,1.42-3.44,1.42-.15,0-.29-.01-.44-.03-1.03,1.53-1.83,3.23-2.36,5.04,1.19,.88,1.97,2.28,1.97,3.88,0,1.75-.93,3.27-2.32,4.12,.42,1.73,1.11,3.38,2.05,4.92,4.03-3.72,9.23-5.76,14.73-5.76s10.7,2.04,14.72,5.76c.96-1.57,1.65-3.27,2.08-5.04-1.27-.88-2.11-2.34-2.11-4s.84-3.12,2.11-4c-.42-1.78-1.12-3.45-2.05-4.97-.29,.05-.59,.08-.89,.08-1.24,0-2.49-.47-3.44-1.42-1.18-1.18-1.63-2.83-1.33-4.37-1.42-.89-2.99-1.56-4.65-2-.1-.02-.2-.03-.3-.05-.87,1.29-2.35,2.15-4.02,2.15Z" fill="none" stroke-width="0"/><path d="M20.92,15.3c-1.76,.42-3.42,1.1-4.93,2.01,.05,.24,.08,.49,.1,.73,1.57-1.02,3.31-1.79,5.17-2.29-.12-.15-.23-.3-.34-.46Z" fill="#ffcd00" stroke-width="0"/><path d="M29.02,15.39c.1,.02,.2,.03,.3,.05-.09-.02-.18-.06-.28-.08,0,.01-.02,.02-.03,.03Z" fill="#ffcd00" stroke-width="0"/><path d="M10.17,23.08c-.92,1.5-1.62,3.15-2.05,4.9,.12,.07,.23,.16,.34,.24,.53-1.81,1.33-3.51,2.36-5.04-.22-.02-.44-.06-.66-.11Z" fill="#ffcd00" stroke-width="0"/><path d="M24.88,36.39c5.44,0,10.58,2.09,14.47,5.89,.11,.1,.25,.16,.4,.14,.15-.02,.28-.1,.36-.22,1.99-3,3.04-6.5,3.04-10.1,0-4.22-1.45-8.11-3.87-11.21-2.61-2.78-6.07-4.74-9.97-5.46,1.66,.44,3.22,1.12,4.65,2-.3,1.53,.15,3.18,1.33,4.37,.95,.95,2.19,1.42,3.44,1.42,.3,0,.59-.03,.89-.08,.93,1.52,1.63,3.19,2.05,4.97-1.27,.88-2.11,2.34-2.11,4s.84,3.13,2.11,4c-.42,1.77-1.11,3.47-2.08,5.04-4.03-3.72-9.23-5.76-14.72-5.76s-10.7,2.04-14.73,5.76c-.94-1.53-1.62-3.19-2.05-4.92,1.39-.86,2.32-2.38,2.32-4.12,0-1.59-.78-2.99-1.97-3.88-.1,.35-.19,.71-.27,1.06,.76,.7,1.24,1.7,1.24,2.81,0,1.26-.61,2.36-1.55,3.07-.07-.37-.11-.74-.15-1.11,.11,2.95,.91,5.8,2.36,8.36,.12,0,.23-.05,.32-.14,3.9-3.8,9.03-5.89,14.47-5.89Zm11.13-15.29c-.83-.83-1.19-1.95-1.1-3.04,1.59,1.14,2.98,2.54,4.11,4.14-1.08,.08-2.18-.28-3.01-1.1Zm4.56,11.01c0-1.16,.52-2.18,1.33-2.89,.16,.94,.26,1.9,.26,2.89s-.09,1.95-.25,2.9c-.81-.71-1.34-1.74-1.34-2.9Z" stroke-width="0"/><path d="M14.7,21.8c1.03-1.03,1.48-2.41,1.39-3.76-.35,.22-.68,.46-1.01,.71-.08,.85-.44,1.69-1.09,2.34s-1.54,1.03-2.42,1.1c-.26,.33-.51,.65-.75,1,.15,.02,.29,.03,.44,.03,1.24,0,2.49-.47,3.44-1.42Z" stroke-width="0"/><path d="M25,17.53c1.67,0,3.15-.86,4.02-2.15-.38-.06-.76-.14-1.15-.18-.71,.8-1.72,1.32-2.87,1.32-1.02,0-1.92-.42-2.6-1.06-.39,.08-.76,.18-1.14,.28,.89,1.08,2.23,1.78,3.74,1.78Z" stroke-width="0"/><path d="M7.6,32.1c0-1.05,.11-2.07,.29-3.06,.1,.08,.2,.16,.3,.25,.08-.36,.17-.71,.27-1.06-.11-.08-.22-.17-.34-.24,.43-1.75,1.13-3.4,2.05-4.9,.22,.05,.44,.08,.66,.11,.23-.35,.49-.67,.75-1-.27,.02-.54,.02-.81-.02,1.18-1.67,2.63-3.12,4.31-4.28,.04,.29,.04,.57,.01,.86,.33-.25,.66-.48,1.01-.71-.02-.25-.05-.49-.1-.73,1.51-.91,3.17-1.6,4.93-2.01,.1,.16,.22,.31,.34,.46,.38-.1,.75-.21,1.14-.28-.13-.13-.27-.25-.39-.39,.94-.16,1.89-.26,2.87-.26,1.05,0,2.08,.11,3.08,.29-.03,.04-.07,.06-.1,.1,.39,.04,.77,.11,1.15,.18,0-.01,.02-.02,.03-.03,.09,.02,.18,.06,.28,.08,3.9,.72,7.36,2.69,9.97,5.46-3.35-4.3-8.56-7.07-14.41-7.07-10.08,0-18.28,8.2-18.28,18.28,0,3.6,1.05,7.09,3.04,10.1,.08,.12,.22,.21,.36,.22,.02,0,.04,0,.05,0,.01,0,.02,0,.03,0-1.45-2.56-2.26-5.41-2.36-8.36-.08-.65-.13-1.3-.13-1.95Z" stroke-width="0"/><path d="M24.88,13.82c-10.08,0-18.28,8.2-18.28,18.28,0,3.6,1.05,7.09,3.04,10.1,.08,.12,.22,.21,.36,.22,.02,0,.04,0,.05,0,.01,0,.02,0,.03,0,.21,.36,.42,.72,.66,1.07,.08,.12,.22,.21,.36,.22,.02,0,.04,0,.05,0,.13,0,.26-.05,.35-.14,3.9-3.8,9.03-5.89,14.47-5.89s10.58,2.09,14.47,5.89c.11,.1,.25,.16,.4,.14,.15-.02,.28-.1,.36-.22,1.99-3,3.04-6.5,3.04-10.1,0-4.83-1.9-9.22-4.97-12.5-3.35-4.3-8.56-7.07-14.41-7.07Zm.12,2.71c-1.21,0-2.28-.57-2.99-1.45,.94-.16,1.89-.26,2.87-.26,1.05,0,2.08,.11,3.08,.29-.71,.86-1.77,1.42-2.96,1.42Z" fill="none" stroke-width="0"/></svg>