<?xml version="1.0" encoding="UTF-8"?><svg width="70" height="70" xmlns="http://www.w3.org/2000/svg" viewBox="-10 -10 70 70"><rect x="-10" y="-10" width="70" height="70" fill="white"/><g id="uuid-3dbc1408-1eca-401a-970c-23c7926efa01"><g><path d="M34.28,25.89c-.28,0-.53-.22-.53-.5v-5.99c0-3.34-6.55-6.17-14.3-6.17s-14.21,2.79-14.3,6.1h0l-.02,14.76c0,3.18,5.99,5.94,13.35,6.15,.38,0,25.85,.01,29.75,.01l.1-14.37h-14.07Zm-16.71-5.67c-3.5,0-5.94-1.26-5.94-2.4s2.44-2.4,5.94-2.4,5.94,1.26,5.94,2.4-2.44,2.4-5.94,2.4Z" fill="#ffcd00" stroke-width="0"/><path d="M47.46,23.29c-.09-.09-.22-.15-.35-.15h-14.1v-5.49c0-4.02-6.72-7.17-15.3-7.17S2.41,13.64,2.41,17.65v14.69c-.01,2.25,2.11,4.23,5.51,5.54,.09,.1,.22,.17,.37,.17,.02,0,.03,0,.05-.01,2.33,.83,5.2,1.36,8.39,1.45,.28,0,29.05,.01,30.28,.01,.27,0,.5-.22,.5-.5l.11-15.37c0-.13-.05-.26-.15-.36Zm-15.46-.15h-4.37c1.95-.77,3.46-1.77,4.37-2.91v2.91Zm-14.3-11.65c7.75,0,14.3,2.82,14.3,6.17s-6.55,6.17-14.3,6.17-14.27-2.81-14.3-6.15v-.09h0c.09-3.31,6.6-6.1,14.3-6.1Zm28.79,27.02c-.61,0-1.77,0-3.27,0v-7.38c0-.28-.22-.5-.5-.5s-.5,.22-.5,.5v7.38c-.86,0-1.81,0-2.82,0v-5.39c0-.28-.22-.5-.5-.5s-.5,.22-.5,.5v5.39c-.94,0-1.91,0-2.91,0v-7.33c0-.28-.22-.5-.5-.5s-.5,.22-.5,.5v7.33c-.93,0-1.88,0-2.82,0v-5.33c0-.28-.22-.5-.5-.5s-.5,.22-.5,.5v5.33c-.97,0-1.94,0-2.88,0v-7.44c0-.28-.22-.5-.5-.5s-.5,.22-.5,.5v7.43c-.98,0-1.93,0-2.82,0v-5.44c0-.28-.22-.5-.5-.5s-.5,.22-.5,.5v5.44c-1.06,0-2.04,0-2.88,0v-7.32c0-.28-.22-.5-.5-.5s-.5,.22-.5,.5v7.32c-1.4,0-2.27,0-2.34,0-.16,0-.32-.02-.48-.02v-5.3c0-.28-.22-.5-.5-.5s-.5,.22-.5,.5v5.24c-.92-.07-1.81-.18-2.66-.33v-7.02c0-.28-.22-.5-.5-.5s-.5,.22-.5,.5v6.83c-1.01-.21-1.96-.48-2.82-.78v-4.05c0-.28-.22-.5-.5-.5s-.5,.22-.5,.5v3.67c-2.69-1.13-4.39-2.7-4.39-4.39v-12.12c2.18,2.71,7.68,4.59,14.31,4.59,2.36,0,4.58-.25,6.56-.68h22.34l-.1,14.37Z" stroke-width="0"/><path d="M17.57,21.22c3.95,0,6.94-1.46,6.94-3.4s-2.98-3.4-6.94-3.4-6.94,1.46-6.94,3.4,2.98,3.4,6.94,3.4Zm0-5.8c3.5,0,5.94,1.26,5.94,2.4s-2.44,2.4-5.94,2.4-5.94-1.26-5.94-2.4,2.44-2.4,5.94-2.4Z" stroke-width="0"/></g></g><g id="uuid-fc4c43f8-46ee-4f05-ad8e-465f17620e84"></g></svg>