<?xml version="1.0" encoding="UTF-8"?><svg width="70" height="70" id="uuid-d176e822-2579-45ac-85c6-a751c7b19904" xmlns="http://www.w3.org/2000/svg" viewBox="-10 -10 70 70"><rect x="-10" y="-10" width="70" height="70" fill="white"/><path d="M41.23,30.92l.67,2.32h-2.34c-.08,0-.15,.02-.23,.02l.26-1.39" fill="#ffcd00" stroke-width="0"/><path d="M47.58,34.31l-1.46-5.01c-.52-1.77-2.17-3.01-4.01-3.01h-9.23c-2.38,.12-4.31,1.9-4.71,4.19v1.59l-.29-.33-.2-.23c-.21-.25-.39-.51-.56-.79-.2-.33-.37-.68-.5-1.05l-1.79-5.25c-.63-1.82-2.34-3.04-4.26-3.04H10.77c-2.88,.15-5.15,2.53-5.15,5.44v10.45h15.58v-9.12c0-.25,.18-.46,.42-.5,.25-.04,.48,.11,.56,.35l1.3,4.09c.19,.61,.52,1.19,.96,1.66l3.19,3.51h0l.9,1h0l.27,.3c.35,.4,.86,.62,1.39,.62,.69,0,1.29-.36,1.63-.91h.01c.1-.18,.18-.37,.22-.57,.03-.14,.05-.29,.05-.43h5.45v-.02h7.81c.73,.01,1.41-.32,1.85-.91,.44-.59,.57-1.33,.36-2.03Z" fill="#ffcd00" stroke-width="0"/><g><path d="M32.53,20.84c1.82,1.55,4.7,1.55,6.53,0,1.14-.96,1.79-2.37,1.79-3.86,0-2.79-2.27-5.07-5.06-5.07s-5.06,2.28-5.06,5.07c0,1.49,.65,2.9,1.8,3.86Zm3.26-9.93c3.34,0,6.06,2.72,6.06,6.07,0,1.78-.78,3.47-2.15,4.63-1.09,.92-2.48,1.43-3.91,1.43s-2.82-.51-3.91-1.43c-1.37-1.16-2.15-2.85-2.15-4.63,0-3.35,2.72-6.07,6.06-6.07Z" stroke-width="0"/><path d="M27.55,44.39h8.3l5.43-3.89h-8.3l-5.43,3.89Zm-1.62,1H15.9c-.22,0-.41-.14-.48-.35-.06-.21,.01-.43,.19-.56l6.83-4.89c.09-.06,.19-.09,.29-.09h20.1c.22,0,.41,.14,.48,.34,.06,.21,0,.44-.19,.56l-6.83,4.89c-.08,.06-.18,.1-.29,.1h-10.08Zm-8.46-1h8.3l5.44-3.89h-8.31l-5.43,3.89Z" stroke-width="0"/><path d="M20.24,11.69c0-3.01-2.44-5.45-5.44-5.45s-5.44,2.44-5.44,5.45c0,1.6,.7,3.11,1.93,4.15,1.96,1.66,5.06,1.66,7.02,0,1.23-1.04,1.93-2.55,1.93-4.15Zm-11.88,0c0-3.56,2.89-6.45,6.44-6.45s6.44,2.89,6.44,6.45c0,1.89-.83,3.69-2.28,4.92-1.17,.98-2.64,1.52-4.16,1.52s-2.99-.54-4.16-1.52c-1.45-1.23-2.28-3.03-2.28-4.92Z" stroke-width="0"/><path d="M31.62,25.04c-2.38,.12-4.31,1.9-4.71,4.19,.09,.13,.16,.26,.26,.37l3.97,4.55c.45,.52,.69,1.18,.7,1.86h4.46c-.31-.43-.51-.94-.51-1.51,0-.9,.48-1.68,1.2-2.13l.36-1.94c.05-.27,.32-.45,.58-.4,.28,.06,.45,.32,.4,.59l-.26,1.39c.08,0,.15-.02,.23-.02h2.34l-.67-2.32c-.08-.26,.07-.54,.34-.61,.27-.08,.54,.07,.62,.34l.85,2.95c.05,.15,.02,.32-.08,.44-.09,.13-.24,.2-.4,.2h-3c-.15,0-.29,.03-.43,.07-.62,.19-1.08,.76-1.08,1.44,0,.49,.23,.91,.59,1.19,.26,.2,.57,.32,.92,.32h5.81c.73,0,1.41-.33,1.85-.92s.57-1.33,.36-2.03l-1.46-5.01c-.52-1.77-2.17-3.01-4.01-3.01h-9.23Zm-9.18,8.14c-.53-.58-.94-1.29-1.18-2.04l-.32-1.02v5.9h4.08l-2.58-2.84ZM3.36,25.57c0-3.44,2.69-6.27,6.13-6.44h9.82c2.35,0,4.44,1.5,5.2,3.72l1.73,5.05c.84-2.17,2.9-3.74,5.36-3.86h9.25c2.29,0,4.33,1.53,4.97,3.73l1.46,5.01c.3,1.01,.11,2.07-.52,2.91-.1,.12-.21,.22-.32,.33h1.68c.27,0,.5,.23,.5,.5s-.23,.5-.5,.5h-10.99l-.15,.8c-.05,.25-.26,.41-.49,.41-.03,0-.06,0-.1-.01-.27-.05-.45-.31-.39-.58l.11-.62h-4.44c-.41,1.12-1.49,1.91-2.71,1.91-.83,0-1.61-.34-2.15-.94l-.88-.97H1.88c-.28,0-.5-.22-.5-.5s.22-.5,.5-.5h1.49v-10.45Zm5,10.45v-8.45c0-.27,.23-.5,.5-.5s.5,.23,.5,.5v8.45h10.58v-9.12c0-.25,.18-.46,.42-.5,.25-.04,.48,.11,.56,.35l1.3,4.09c.19,.61,.52,1.19,.96,1.66l3.19,3.51h0l.9,1h.01l.27,.3c.35,.4,.86,.62,1.39,.62,.69,0,1.29-.36,1.63-.91h.01c.1-.18,.18-.37,.22-.57,.03-.14,.05-.29,.05-.43h0c0-.45-.17-.87-.47-1.21l-3.76-4.32-.2-.23c-.21-.25-.39-.51-.56-.79-.2-.33-.37-.68-.5-1.05l-1.79-5.25c-.63-1.82-2.34-3.04-4.26-3.04H9.52c-2.88,.15-5.15,2.53-5.15,5.44v10.45h4Z" stroke-width="0"/></g></svg>