<?xml version="1.0" encoding="UTF-8"?><svg width="70" height="70" xmlns="http://www.w3.org/2000/svg" viewBox="-10 -10 70 70"><rect x="-10" y="-10" width="70" height="70" fill="white"/><g id="uuid-2133fbe3-72b0-4100-9220-51e9a86e4a24"><path d="M39.43,10.54s.11,.01,.12,.01h.01c1.95,0,3.49-1.68,3.49-3.75s-1.55-3.76-3.45-3.76-3.45,1.69-3.45,3.76c.01,.19-.08,.44-.24,.53s-.37,.15-.53,.04c-2.42-1.69-5.5-2.61-8.67-2.61-2.73,0-5.36,.67-7.61,1.95-.13,.08-.29,.09-.44,.03-.14-.06-.25-.18-.29-.32-.44-1.52-1.88-2.58-3.51-2.58-2.02,0-3.66,1.57-3.66,3.51,0,1.63,1.16,3.03,2.82,3.41,.15,.03,.28,.14,.34,.28,.06,.14,.06,.3,0,.44-.71,1.37-1.07,2.82-1.07,4.32,0,4.08,2.71,7.63,6.72,9.54h-.03c-.98,.36-3.86,1.57-5.79,4.68-.23,.37-1.69,2.87-1.69,5.64,0,6.7,6.61,12.15,14.74,12.15,6.79,0,14.83-5.08,14.74-12.15-.06-4.29-3.1-8.41-7.7-10.75,3.55-1.99,5.88-5.33,5.88-9.12,0-1.56-.4-3.07-1.19-4.51-.09-.16-.08-.36,.02-.51,.1-.15,.28-.24,.46-.23Zm-14.12,.8c.64,0,1.26,.1,1.75,.2l-1.78,1.78-1.72-1.8c.6-.14,1.1-.19,1.76-.19Zm-6.97,6.04c0-2.26,2.02-4.17,4.8-4.83l1.77,1.84c.09,.1,.22,.15,.36,.15h0c.13,0,.26-.05,.35-.15l1.84-1.84c2.77,.67,4.78,2.58,4.78,4.83,0,2.81-3.12,5.09-6.95,5.09s-6.95-2.28-6.95-5.09Z" fill="#ffcd00" stroke-width="0"/><path d="M45.54,29.9l-5.16-6.09c-1.48-1.75-4.04-2.05-5.91-.74,3.01-2.21,4.92-5.43,4.92-9.03,0-1.47-.32-2.9-.95-4.27,2.17-.31,3.86-2.31,3.86-4.72,0-2.63-2-4.76-4.45-4.76-2.22,0-4.07,1.75-4.4,4.03-2.46-1.49-5.44-2.31-8.49-2.31-2.7,0-5.31,.62-7.59,1.8-.73-1.63-2.4-2.72-4.26-2.72-2.57,0-4.66,2.02-4.66,4.51,0,1.9,1.21,3.55,3,4.21-.61,1.35-.92,2.78-.92,4.23,0,3.13,1.46,5.98,3.82,8.12-1.56-.43-3.29,0-4.44,1.27l-5.36,5.92c-1.62,1.79-1.48,4.59,.31,6.23,1.37,1.25,3.35,1.48,4.96,.65,.03,.14,.06,.28,.1,.42-1.22,1.42-1.89,3.25-1.89,5.19,0,4.28,3.3,7.76,7.35,7.76,2.29,0,4.44-1.13,5.83-3.03,.11,.02,.22,.03,.32,.06,.51,.11,1.02,.2,1.55,.27h.02c.78,.1,1.56,.17,2.37,.17,1.16,0,2.29-.11,3.39-.31,1.34,1.86,3.45,2.97,5.66,2.97,.13,0,.26,0,.39-.01,1.81-.11,3.49-.94,4.72-2.34,1.33-1.51,2-3.47,1.87-5.53-.07-1.31-.48-2.56-1.16-3.63,.18-.42,.33-.85,.45-1.29,1.44,.48,3.06,.2,4.24-.8,1.86-1.57,2.09-4.36,.52-6.21ZM12.61,9.72c.07-.14,.07-.3,0-.44-.07-.14-.19-.24-.34-.28-1.66-.38-2.82-1.78-2.82-3.41,0-1.94,1.64-3.51,3.66-3.51,1.63,0,3.07,1.06,3.51,2.58,.04,.15,.15,.27,.29,.32,.14,.06,.3,.05,.44-.03,2.25-1.28,4.88-1.95,7.61-1.95,3.17,0,6.25,.93,8.67,2.61,.16,.11,.36,.06,.53-.04s.26-.34,.24-.53c0-2.07,1.55-3.76,3.45-3.76s3.45,1.69,3.45,3.76-1.54,3.75-3.49,3.75h-.01s-.11-.01-.12-.01c-.18-.01-.36,.07-.46,.23-.1,.15-.11,.35-.02,.51,.79,1.44,1.19,2.95,1.19,4.51,0,6.08-6.02,11.03-13.43,11.03s-13.43-4.95-13.43-11.03c0-1.49,.36-2.94,1.07-4.32Zm27.61,24.18c0,6.7-6.61,12.15-14.74,12.15s-14.74-5.45-14.74-12.15c0-4.07,2.45-7.67,6.19-9.88,2.3,1.29,5.06,2.04,8.03,2.04,3.19,0,6.14-.88,8.53-2.35,4.04,2.17,6.73,5.92,6.73,10.18Zm-34.68,.94c-1.39-1.27-1.5-3.43-.25-4.81l5.36-5.92c1.24-1.37,3.36-1.49,4.75-.29-3.46,2.41-5.66,6.04-5.66,10.09,0,.39,.03,.77,.07,1.16-1.3,.94-3.08,.86-4.27-.22Zm9.85,13.76c-3.5,0-6.35-3.03-6.35-6.76,0-1.54,.48-3,1.36-4.18,1.43,4.01,5.09,7.2,9.77,8.61-1.2,1.47-2.94,2.33-4.78,2.33Zm25.11-6.71c.11,1.79-.46,3.5-1.62,4.81-1.06,1.2-2.49,1.91-4.03,2-1.85,.11-3.67-.72-4.9-2.19,4.4-1.09,8-3.75,9.87-7.2,.39,.79,.63,1.67,.69,2.59Zm3.88-6.54h0c-.93,.79-2.23,1.01-3.37,.59,.12-.66,.21-1.34,.21-2.03,0-4.13-2.29-7.81-5.87-10.23,1.39-.78,3.19-.49,4.27,.77l5.16,6.09c1.21,1.43,1.03,3.59-.4,4.81Z" stroke-width="0"/><path d="M25.3,23.47c4.39,0,7.95-2.73,7.95-6.09,0-2.55-2.06-4.73-4.97-5.64l.1-.1c.12-.12,.17-.3,.13-.47-.04-.17-.17-.31-.33-.36-.92-.29-1.99-.47-2.87-.47-1.02,0-1.74,.11-2.85,.45-.17,.05-.29,.18-.34,.35-.04,.17,0,.35,.12,.47l.11,.11c-2.94,.9-5.02,3.09-5.02,5.65,0,3.36,3.57,6.09,7.95,6.09Zm-2.15-10.92l1.77,1.84c.09,.1,.22,.15,.36,.15h0c.13,0,.26-.05,.35-.15l1.84-1.84c2.77,.67,4.78,2.58,4.78,4.83,0,2.81-3.12,5.09-6.95,5.09s-6.95-2.28-6.95-5.09c0-2.26,2.02-4.17,4.8-4.83Zm.41-1.01c.6-.14,1.1-.19,1.76-.19s1.26,.1,1.75,.2l-1.78,1.78-1.72-1.8Z" stroke-width="0"/><path d="M21.04,10.25c.57,0,1.04-.47,1.04-1.04s-.46-1.04-1.04-1.04-1.04,.47-1.04,1.04,.46,1.04,1.04,1.04Z" stroke-width="0"/><path d="M29.14,10.25c.58,0,1.04-.47,1.04-1.04s-.46-1.04-1.04-1.04-1.04,.47-1.04,1.04,.47,1.04,1.04,1.04Z" stroke-width="0"/></g><g id="uuid-40b8ff67-bf64-4780-ab95-4539c22c33e9"></g></svg>