<?xml version="1.0" encoding="utf-8"?> <!-- Generator: Adobe Illustrator 27.7.0, SVG Export Plug-In . SVG Version: 6.00 Build 0) --> <svg width="70" height="70" version="1.1" xmlns="http://www.w3.org/2000/svg" xmlns:xlink="http://www.w3.org/1999/xlink" x="0px" y="0px" viewBox="-10 -10 70 70" style="enable-background:new 0 0 50 50;" xml:space="preserve"><rect x="-10" y="-10" width="70" height="70" fill="white"/> <style type="text/css"> .st0{fill:#FFCD00;} .st1{display:none;} .st2{display:inline;fill:none;stroke:#EA008A;stroke-width:0.2;stroke-miterlimit:10;} .st3{font-family:'Roboto-Regular';} .st4{font-size:6px;} </style> <g id="Color"> <path class="st0" d="M40.9697,11.876c2.167,0,4.2773,1.124,5.436,3.1313c0.8369,1.4492,1.0591,3.1377,0.626,4.7539 c-0.4331,1.6167-1.4697,2.9678-2.9189,3.8042c-2.9917,1.7275-6.8306,0.6992-8.5581-2.293 c-1.7271-2.9917-0.6987-6.8311,2.293-8.5581C38.832,12.146,39.9072,11.876,40.9697,11.876z" stroke-width="0"/> <path class="st0" d="M26.5,3.5146c3.2584,0,5.9411,2.501,6.2357,5.6838c0.0001,0.0213,0.0002,0.0414,0.0032,0.0627 c0.0142,0.1714,0.0263,0.3436,0.0263,0.5186c0,3.4541-2.8105,6.2646-6.2651,6.2646s-6.2651-2.8105-6.2651-6.2646 C20.2349,6.3252,23.0454,3.5146,26.5,3.5146z" stroke-width="0"/> <path class="st0" d="M5.9683,19.7612c-0.4331-1.6162-0.2109-3.3047,0.626-4.7539c1.1592-2.0078,3.269-3.1313,5.436-3.1313 c1.062,0,2.1382,0.27,3.1221,0.8384c2.9912,1.7275,4.02,5.5669,2.293,8.5581c-1.728,2.9922-5.5679,4.021-8.5581,2.293 C7.438,22.729,6.4014,21.3779,5.9683,19.7612z" stroke-width="0"/> <path class="st0" d="M6.5942,37.9927c-0.8369-1.4492-1.0591-3.1377-0.626-4.7539c0.4331-1.6167,1.4697-2.9678,2.9189-3.8042 c0.9844-0.5684,2.0596-0.8384,3.1221-0.8384c2.1665,0,4.2769,1.124,5.436,3.1313c1.7271,2.9917,0.6987,6.8311-2.293,8.5581 C12.1606,42.0137,8.3213,40.9839,6.5942,37.9927z" stroke-width="0"/> <path class="st0" d="M26.5,49.4854c-3.2582,0-5.941-2.5009-6.2357-5.6835c-0.0002-0.0214-0.0003-0.0418-0.0032-0.0632 c-0.0142-0.1714-0.0262-0.3434-0.0262-0.5184c0-3.4541,2.8105-6.2646,6.2651-6.2646s6.2651,2.8105,6.2651,6.2646 C32.7651,46.6748,29.9546,49.4854,26.5,49.4854z" stroke-width="0"/> <path class="st0" d="M46.4058,37.9927c-1.629,2.8231-5.1374,3.8962-8.0423,2.5571c-0.017-0.0095-0.0331-0.0188-0.0513-0.0263 c-0.1563-0.0738-0.3121-0.1498-0.4645-0.2378c-2.9912-1.7275-4.02-5.5669-2.293-8.5581s5.5679-4.021,8.5581-2.293 c1.4492,0.8364,2.4858,2.1875,2.9189,3.8042C47.4648,34.855,47.2427,36.5435,46.4058,37.9927z" stroke-width="0"/> </g> <g id="ICONS_00000031165542127692736420000002692518830807990202_"> <path d="M43.7227,27.4629c-0.493-0.8149-0.7485-1.6426-0.7485-2.4629c0-0.8204,0.2567-1.6487,0.7503-2.4641 c2.9913-2.15,3.9277-6.272,2.0475-9.5286c-1.8809-3.2575-5.9202-4.5065-9.2773-2.9902c-0.9565,0.0142-1.7979-0.1733-2.5073-0.583 c-0.7104-0.41-1.2993-1.0461-1.759-1.8819C31.862,3.8867,28.7603,1.0146,25,1.0146c-3.7609,0-6.863,2.8731-7.2283,6.5395 c-0.4591,0.8345-1.0486,1.4698-1.759,1.8799c-0.7109,0.41-1.5543,0.6008-2.509,0.5821c-3.356-1.5146-7.3952-0.2657-9.2757,2.9911 c-1.8805,3.2572-0.9434,7.3802,2.0493,9.5298C6.7703,23.352,7.0259,24.1797,7.0259,25c0,0.8204-0.2567,1.6487-0.7503,2.4641 c-2.9913,2.1499-3.9277,6.272-2.0475,9.5286c1.3442,2.3281,3.791,3.6309,6.3037,3.6309c0.9953,0,1.9978-0.2157,2.9491-0.6415 c0.9606-0.0232,1.8158,0.1702,2.5319,0.5839c0.7104,0.41,1.2993,1.0461,1.759,1.8819c0.3663,3.6655,3.468,6.5375,7.2283,6.5375 c3.7609,0,6.863-2.8731,7.2283-6.5395c0.4591-0.8345,1.0486-1.4698,1.759-1.8799c0.7173-0.4137,1.5715-0.606,2.5343-0.5827 c0.9506,0.425,1.9523,0.6403,2.9467,0.6403c2.5122,0,4.9595-1.3027,6.3037-3.6309C47.6525,33.7355,46.7154,29.6124,43.7227,27.4629 z M32.2573,32.6458c-0.0051,0.0081-0.0134,0.0127-0.0181,0.0212c-0.4561,0.8203-1.0435,1.4419-1.7461,1.8477 c-0.7141,0.412-1.5604,0.6069-2.5207,0.5837c-0.9086-0.4095-1.9129-0.6428-2.9725-0.6428c-1.0675,0-2.0787,0.2372-2.9926,0.6525 c-0.0092-0.0002-0.0183-0.0055-0.0275-0.0051c-0.9551,0.0103-1.771-0.1836-2.4731-0.5884 c-0.7134-0.4119-1.3061-1.0505-1.7658-1.8907c-0.0995-0.9919-0.3996-1.9786-0.9295-2.8964 c-0.5339-0.9246-1.2452-1.6816-2.062-2.2654c-0.0045-0.0084-0.0043-0.0178-0.0093-0.0261 c-0.4819-0.8052-0.7266-1.6245-0.7266-2.436c0-0.825,0.2572-1.6586,0.7571-2.4789c0.8076-0.5818,1.5116-1.3325,2.0407-2.2487 c0.5344-0.9255,0.8345-1.9211,0.9314-2.9213c0.0047-0.0075,0.0135-0.0103,0.0178-0.0181c0.4561-0.8203,1.0435-1.4419,1.7461-1.8477 c0.7141-0.412,1.5612-0.6083,2.5206-0.5838c0.9086,0.4095,1.913,0.6429,2.9726,0.6429c1.0686,0,2.0807-0.2378,2.9954-0.6539 c0.0089,0.0014,0.0156,0.0053,0.0246,0.0065c0.9336-0.0151,1.771,0.1831,2.4731,0.5884c0.7134,0.4119,1.3061,1.0505,1.7658,1.8907 c0.0995,0.9919,0.3996,1.9786,0.9295,2.8964c0.5334,0.9238,1.2449,1.6784,2.0608,2.262c0.0049,0.0095,0.0049,0.0202,0.0105,0.0295 c0.4819,0.8052,0.7266,1.6245,0.7266,2.436c0,0.8237-0.2567,1.6561-0.7551,2.4753c-0.8088,0.5819-1.5131,1.3348-2.0427,2.2523 C32.6547,30.6522,32.3546,31.6466,32.2573,32.6458z M13.295,26.6578c-1.7361-0.7164-3.728-0.7573-5.5452-0.0062 C7.9292,26.1049,8.0259,25.5531,8.0259,25c0-0.55-0.0958-1.0988-0.2733-1.6428c0.8925,0.3683,1.8278,0.5461,2.7547,0.5461 c0.9564,0,1.9023-0.1912,2.7825-0.5535c-0.1791,0.5464-0.2762,1.0976-0.2762,1.6501 C13.0137,25.5553,13.1143,26.1091,13.295,26.6578z M36.7073,23.3486c0.881,0.363,1.8279,0.5547,2.7853,0.5547 c0.9263,0,1.8615-0.1777,2.7539-0.5458C42.0692,23.9013,41.9741,24.45,41.9741,25c0,0.5532,0.0973,1.105,0.2768,1.652 c-1.8165-0.7509-3.8076-0.7106-5.5433,0.0048c0.1805-0.5486,0.2787-1.102,0.2787-1.6568 C36.9863,24.4469,36.8866,23.8953,36.7073,23.3486z M39.4697,10.376c2.167,0,4.2773,1.124,5.436,3.1313 c0.8369,1.4492,1.0591,3.1377,0.626,4.7539c-0.4331,1.6167-1.4697,2.9678-2.9189,3.8042c-2.9917,1.7275-6.8306,0.6992-8.5581-2.293 c-1.7271-2.9917-0.6987-6.8311,2.293-8.5581C37.332,10.646,38.4072,10.376,39.4697,10.376z M33.4873,10.3003 c0.4794,0.2767,1.0082,0.4649,1.5726,0.5829c-1.5612,1.1977-2.523,2.9434-2.7715,4.8056 c-0.3848-0.4305-0.8149-0.7922-1.2952-1.0696c-0.4797-0.277-1.0079-0.4688-1.5724-0.5876c1.4866-1.1451,2.5164-2.8484,2.774-4.7964 C32.5789,9.6641,33.0084,10.0238,33.4873,10.3003z M25,2.0146c3.2584,0,5.9411,2.501,6.2357,5.6838 c0.0001,0.0213,0.0002,0.0414,0.0032,0.0627c0.0142,0.1714,0.0263,0.3436,0.0263,0.5186c0,3.4541-2.8105,6.2646-6.2651,6.2646 s-6.2651-2.8105-6.2651-6.2646C18.7349,4.8252,21.5454,2.0146,25,2.0146z M16.5127,10.3003 c0.4792-0.2769,0.9084-0.637,1.2924-1.0657c0.2577,1.9491,1.2885,3.6532,2.7762,4.7985c-0.5651,0.1177-1.0936,0.3089-1.5745,0.5861 c-0.4806,0.2776-0.9098,0.6417-1.2948,1.0726c-0.2479-1.8633-1.2099-3.6103-2.7719-4.8085 C15.5042,10.7653,16.033,10.577,16.5127,10.3003z M4.4683,18.2612c-0.4331-1.6162-0.2109-3.3047,0.626-4.7539 c1.1592-2.0078,3.269-3.1313,5.436-3.1313c1.062,0,2.1382,0.27,3.1221,0.8384c2.9912,1.7275,4.02,5.5669,2.293,8.5581 c-1.728,2.9922-5.5679,4.021-8.5581,2.293C5.938,21.229,4.9014,19.8779,4.4683,18.2612z M5.0942,36.4927 c-0.8369-1.4492-1.0591-3.1377-0.626-4.7539c0.4331-1.6167,1.4697-2.9678,2.9189-3.8042c0.9844-0.5684,2.0596-0.8384,3.1221-0.8384 c2.1665,0,4.2769,1.124,5.436,3.1313c1.7271,2.9917,0.6987,6.8311-2.293,8.5581C10.6606,40.5137,6.8213,39.4839,5.0942,36.4927z M16.5127,39.6997c-0.4788-0.2764-1.0054-0.4679-1.5688-0.5859c1.5589-1.1976,2.5195-2.9419,2.7678-4.8026 c0.3848,0.4305,0.8149,0.7922,1.2952,1.0696c0.4806,0.2774,1.0112,0.466,1.5773,0.584c-1.4891,1.1451-2.521,2.85-2.7789,4.8 C17.4211,40.3359,16.9916,39.9762,16.5127,39.6997z M25,47.9854c-3.2582,0-5.941-2.5009-6.2357-5.6835 c-0.0002-0.0214-0.0003-0.0418-0.0032-0.0632c-0.0142-0.1714-0.0262-0.3434-0.0262-0.5184c0-3.4541,2.8105-6.2646,6.2651-6.2646 s6.2651,2.8105,6.2651,6.2646C31.2651,45.1748,28.4546,47.9854,25,47.9854z M33.4873,39.6997 c-0.4792,0.2769-0.9084,0.637-1.2924,1.0657c-0.2578-1.9504-1.2899-3.6555-2.7792-4.8007 c0.5658-0.1178,1.0963-0.3063,1.5775-0.5839c0.4806-0.2776,0.9098-0.6417,1.2948-1.0726c0.2475,1.8605,1.2072,3.6048,2.7651,4.803 C34.4907,39.23,33.9653,39.4238,33.4873,39.6997z M44.9058,36.4927c-1.629,2.8231-5.1374,3.8962-8.0423,2.5571 c-0.017-0.0095-0.0331-0.0188-0.0513-0.0263c-0.1563-0.0738-0.3121-0.1498-0.4645-0.2378c-2.9912-1.7275-4.02-5.5669-2.293-8.5581 s5.5679-4.021,8.5581-2.293c1.4492,0.8364,2.4858,2.1875,2.9189,3.8042C45.9648,33.355,45.7427,35.0435,44.9058,36.4927z" stroke-width="0"/> </g> <g id="Margin" class="st1"> <rect x="1" y="1" class="st2" /> </g> <g id="Guides" class="st1"> </g> <g id="LABELS"> <g> <g> <g> <g> <g> </g> </g> </g> </g> </g> </g> </svg> 