<?xml version="1.0" encoding="utf-8"?> <!-- Generator: Adobe Illustrator 27.7.0, SVG Export Plug-In . SVG Version: 6.00 Build 0) --> <svg width="70" height="70" version="1.1" id="Layer_1" xmlns="http://www.w3.org/2000/svg" xmlns:xlink="http://www.w3.org/1999/xlink" x="0px" y="0px" viewBox="-10 -10 70 70" style="enable-background:new 0 0 50 50;" xml:space="preserve"><rect x="-10" y="-10" width="70" height="70" fill="white"/> <style type="text/css"> .st0{fill:#FFCD00;} .st1{display:none;} .st2{display:inline;fill:none;stroke:#EA008A;stroke-width:0.2;stroke-miterlimit:10;} .st3{font-family:'Roboto-Regular';} .st4{font-size:6px;} </style> <g id="Color"> <path class="st0" d="M35.2,5.2c-3.1,0.4-6.1,2-8.5,4.4c-4.9,5.1-5.6,12.5-1.5,16.5c1.7,1.7,4,2.5,6.5,2.5c3.4,0,7.1-1.6,10-4.5 c4.9-5.1,5.6-12.5,1.5-16.5C41.2,5.6,38.4,4.8,35.2,5.2z M23.9,27.5c-0.6-0.6-1.2-1.3-1.7-2.1c-0.1-0.2-0.3-0.3-0.5-0.2 c-0.2,0-0.4,0.2-0.4,0.4c-0.8,2.7-1.8,5-3.1,7.2c-0.1,0.2-0.1,0.5,0.1,0.6c0.1,0.1,0.2,0.1,0.3,0.1c0.1,0,0.2,0,0.3-0.1 c2.1-1.4,4.5-2.5,7.1-3.3c0.2-0.1,0.3-0.2,0.3-0.4c0-0.2-0.1-0.4-0.3-0.5C25.3,28.7,24.5,28.1,23.9,27.5z M47.9,15.3 c-0.3,3.7-1.9,7.3-4.7,10.1c-2.7,2.8-6.2,4.6-9.9,5c0,0-0.1,0-0.1,0C27,31.3,22,33.3,17.9,36.6c0,0,0,0,0,0.1 c-1.3,0-2.5,0.6-3.4,1.5l-1.7-1.6c4.6-4.8,7.1-10.6,7.9-18.2c0,0,0-0.1,0-0.1c0.3-3.6,2-7.2,4.7-10c2.8-2.9,6.3-4.7,10-5 c3.6-0.4,6.9,0.7,9.3,3C47,8.4,48.1,11.7,47.9,15.3z" stroke-width="0"/> <path class="st0" d="M18.2,38c-1.5,0-2.9,0.9-3.4,2.3c-0.3,0.9-0.3,1.9,0.1,2.8s1.1,1.6,2,1.9c0.9,0.3,1.9,0.3,2.8-0.1 c0.9-0.4,1.6-1.1,1.9-2l0,0c0.3-0.9,0.3-1.9-0.1-2.8c-0.4-0.9-1.1-1.6-2-1.9C19.1,38.1,18.7,38,18.2,38z" stroke-width="0"/> </g> <g id="ICONS_00000031165542127692736420000002692518830807990202_"> <g> <path d="M34.5,4.4c-3.1,0.4-6.1,2-8.5,4.4c-4.9,5.1-5.6,12.5-1.5,16.5c1.7,1.7,4,2.5,6.5,2.5c3.4,0,7.1-1.6,10-4.5 c4.9-5.1,5.6-12.5,1.5-16.5C40.4,4.9,37.6,4,34.5,4.4z M43.9,15.9l-1.5-1.4l1.7-1.8C44.2,13.8,44.1,14.8,43.9,15.9z M42,20.4 l-2.7-2.7l2.5-2.6l1.9,1.8C43.2,18.2,42.7,19.3,42,20.4z M34.8,26.2l-1.9-1.8l2.4-2.5l2.7,2.7C37,25.2,35.9,25.8,34.8,26.2z M32.2,23.6L29.4,21l2.5-2.6l2.7,2.7L32.2,23.6z M25.6,25l3.1-3.3l2.7,2.7l-2.2,2.3C27.9,26.4,26.7,25.8,25.6,25z M23,20.7 l2.2-2.3L28,21l-3.1,3.3C24,23.2,23.3,22,23,20.7z M23.1,16.2l1.5,1.4l-1.7,1.8C22.8,18.4,22.8,17.3,23.1,16.2z M25,11.7l2.7,2.7 l-2.5,2.6l-1.9-1.8C23.7,13.9,24.3,12.8,25,11.7z M32.2,6l1.9,1.8l-2.5,2.6l-2.7-2.7C29.9,7,31,6.4,32.2,6z M34.8,8.5l2.7,2.7 l-2.5,2.6l-2.7-2.7L34.8,8.5z M37.7,5.5c1.4,0.3,2.6,0.8,3.7,1.7l-3.1,3.3l-2.7-2.7L37.7,5.5C37.7,5.5,37.7,5.5,37.7,5.5z M34.4,14.4L31.9,17l-2.7-2.7l2.5-2.5L34.4,14.4z M31.2,17.7l-2.5,2.6L26,17.6l2.5-2.6L31.2,17.7z M32.6,17.7l2.5-2.6l2.7,2.7 l-2.5,2.6L32.6,17.7z M35.8,14.4l2.5-2.6l2.7,2.7l-2.5,2.6L35.8,14.4z M41.7,13.8L39,11.1l3.1-3.3c0.9,1,1.5,2.2,1.8,3.6 L41.7,13.8z M34.6,5.4c0.5-0.1,0.9-0.1,1.4-0.1c0.2,0,0.3,0,0.5,0l-1.7,1.8l-1.5-1.4C33.7,5.6,34.2,5.5,34.6,5.4z M26.7,9.5 c0.4-0.4,0.9-0.8,1.3-1.2l2.8,2.8l-2.5,2.5l-2.8-2.8C26,10.4,26.3,10,26.7,9.5z M30.5,26.8l1.7-1.8l1.5,1.4 C32.6,26.8,31.5,26.9,30.5,26.8z M40.3,22.6c-0.4,0.5-0.9,0.9-1.4,1.2l-2.8-2.8l2.5-2.6l2.8,2.8C41,21.7,40.7,22.2,40.3,22.6z" stroke-width="0"/> <path d="M23.1,26.8c-0.6-0.6-1.2-1.3-1.7-2.1c-0.1-0.2-0.3-0.3-0.5-0.2c-0.2,0-0.4,0.2-0.4,0.4c-0.8,2.7-1.8,5-3.1,7.2 c-0.1,0.2-0.1,0.5,0.1,0.6c0.1,0.1,0.2,0.1,0.3,0.1c0.1,0,0.2,0,0.3-0.1c2.1-1.4,4.5-2.5,7.1-3.3c0.2-0.1,0.3-0.2,0.3-0.4 c0-0.2-0.1-0.4-0.3-0.5C24.5,27.9,23.8,27.4,23.1,26.8z M19.2,30.8c0.8-1.5,1.4-3.1,2-4.8c0.4,0.5,0.8,1,1.2,1.4 c0.4,0.4,0.9,0.8,1.5,1.2C22.2,29.3,20.7,30,19.2,30.8z" stroke-width="0"/> <path d="M44.5,4.6C42,2.2,38.4,1,34.4,1.4c-3.9,0.4-7.7,2.3-10.6,5.3c-2.9,3-4.7,6.8-5,10.6c0,0.1,0,0.1,0,0.2 c-0.7,7.4-3.2,13-7.7,17.7L2,44.7c-0.2,0.2-0.2,0.5,0,0.7l3.2,3.1c0.1,0.1,0.2,0.1,0.3,0.1c0,0,0,0,0,0c0.1,0,0.3-0.1,0.4-0.2 l6.6-6.9c0.1,0.3,0.2,0.5,0.3,0.8c0.5,1.1,1.4,2,2.6,2.4c0.5,0.2,1.1,0.3,1.7,0.3c0.6,0,1.3-0.1,1.9-0.4c1.1-0.5,2-1.4,2.4-2.6 c0.4-1.2,0.4-2.4-0.1-3.6c-0.5-1.1-1.4-2-2.6-2.4c-0.1,0-0.2-0.1-0.3-0.1c3.8-2.9,8.4-4.6,14.1-5.4c0.1,0,0.1,0,0.1,0 c3.9-0.4,7.6-2.3,10.5-5.3c2.9-3,4.7-6.9,5-10.8C48.4,10.7,47.1,7.1,44.5,4.6z M5.6,47.5L3.1,45l8.2-8.5l1.8,1.7 c-0.1,0.2-0.2,0.4-0.3,0.7c-0.2,0.5-0.3,1-0.3,1.4c0,0,0,0,0,0L5.6,47.5z M15.8,44c-0.5-0.2-1-0.6-1.4-1c0.3-0.2,0.5-0.4,0.7-0.6 c0.3-0.3,0.9-0.4,1.4-0.2c0.5,0.2,0.9,0.6,0.9,1.1c0,0.3,0,0.6,0.1,0.9C16.9,44.2,16.3,44.2,15.8,44z M20.5,41.9 c-0.3,0.9-1,1.6-1.9,2c0,0-0.1,0-0.1,0c0-0.2-0.1-0.4-0.1-0.7c-0.1-0.8-0.7-1.6-1.6-1.9c-0.9-0.3-1.8-0.2-2.5,0.4 c-0.2,0.2-0.4,0.3-0.5,0.5c0,0,0-0.1-0.1-0.1c-0.4-0.9-0.4-1.9-0.1-2.8c0.4-1,1.1-1.7,2.1-2.1c0,0.2,0.1,0.4,0.1,0.7 c0.1,0.8,0.7,1.6,1.6,1.9c0.3,0.1,0.6,0.2,0.9,0.2c0.6,0,1.1-0.2,1.5-0.6c0.2-0.2,0.4-0.3,0.5-0.5c0,0,0,0.1,0.1,0.1 C20.8,40,20.9,41,20.5,41.9z M19.8,38.1c-0.3,0.2-0.5,0.4-0.7,0.6c-0.3,0.3-0.9,0.4-1.4,0.2c-0.5-0.2-0.9-0.6-0.9-1.1 c0-0.3,0-0.6-0.1-0.9c0.1,0,0.3,0,0.4,0c0.4,0,0.9,0.1,1.3,0.2C19,37.4,19.4,37.7,19.8,38.1z M47.1,14.6 c-0.3,3.7-1.9,7.3-4.7,10.1c-2.7,2.8-6.2,4.6-9.9,5c0,0-0.1,0-0.1,0c-6.1,0.8-11.1,2.8-15.3,6.1c0,0,0,0,0,0.1 c-1.3,0-2.5,0.6-3.4,1.5L12,35.8c4.6-4.8,7.1-10.6,7.9-18.2c0,0,0-0.1,0-0.1c0.3-3.6,2-7.2,4.7-10c2.8-2.9,6.3-4.7,10-5 c3.6-0.4,6.9,0.7,9.3,3C46.2,7.7,47.4,10.9,47.1,14.6z" stroke-width="0"/> </g> </g> <g id="Margin" class="st1"> <rect x="1" y="1" class="st2" /> </g> <g id="Guides" class="st1"> </g> <g id="LABELS"> </g> <g id="LABELS_00000077302481779557031380000013168828820986036903_"> <g> <g> <g> <g> <g> </g> </g> </g> </g> </g> </g> </svg> 