<?xml version="1.0" encoding="utf-8"?> <!-- Generator: Adobe Illustrator 27.7.0, SVG Export Plug-In . SVG Version: 6.00 Build 0) --> <svg width="70" height="70" version="1.1" xmlns="http://www.w3.org/2000/svg" xmlns:xlink="http://www.w3.org/1999/xlink" x="0px" y="0px" viewBox="-10 -10 70 70" style="enable-background:new 0 0 50 50;" xml:space="preserve"><rect x="-10" y="-10" width="70" height="70" fill="white"/> <style type="text/css"> .st0{fill:#FFCD00;} .st1{display:none;} .st2{display:inline;fill:none;stroke:#EA008A;stroke-width:0.2;stroke-miterlimit:10;} .st3{font-family:'Roboto-Regular';} .st4{font-size:6px;} </style> <g id="Color"> <path class="st0" d="M30.1245,38.1133c-0.0786-0.1846-0.2593-0.3047-0.46-0.3047h-8.8818c-0.4868,0-0.8828-0.3965-0.8828-0.8828 v-3.4004c0-0.4873,0.396-0.8838,0.8828-0.8838H30.877c0.4868,0,0.8833,0.3965,0.8833,0.8838v2.915 c0,0.8652,0.2231,2.2588,0.6929,3.2852C31.2754,39.5498,30.5098,39.0176,30.1245,38.1133z" stroke-width="0"/> <path class="st0" d="M19.7969,28.5586c0.4702-1.0264,0.6929-2.4189,0.6929-3.2842v-9.2207c0-0.4873,0.3965-0.8838,0.8833-0.8838 h10.0942c0.4868,0,0.8828,0.3965,0.8828,0.8838v9.7051c0,0.4863-0.396,0.8828-0.8828,0.8828h-8.8818 c-0.2007,0-0.3813,0.1201-0.46,0.3047C21.7402,27.8506,20.9746,28.3828,19.7969,28.5586z" stroke-width="0"/> <path class="st0" d="M16.2974,3.2695c-1.7227,0-3.124,1.4014-3.124,3.124v38.7109c0,0.6704,0.2167,1.2885,0.5775,1.7979 c0.5093,0.3607,1.1273,0.5772,1.7975,0.5772h18.9033c1.7227,0,3.124-1.4014,3.124-3.124V5.6445 c0-0.6704-0.2167-1.2885-0.5775-1.7979c-0.5093-0.3607-1.1273-0.5772-1.7975-0.5772H16.2974z M27.908,4.2851 c0.3565,0,0.6455,0.289,0.6455,0.6456c0,0.3565-0.289,0.6455-0.6455,0.6455s-0.6455-0.289-0.6455-0.6455 C27.2625,4.5741,27.5515,4.2851,27.908,4.2851z M21.8467,4.4307h2.9731c0.2764,0,0.5,0.2236,0.5,0.5s-0.2236,0.5-0.5,0.5h-2.9731 c-0.2764,0-0.5-0.2236-0.5-0.5S21.5703,4.4307,21.8467,4.4307z M36.4146,6.7939V44.704c0,0.8896-0.7241,1.6143-1.6138,1.6143 H16.6973c-0.6381,0-1.1859-0.3758-1.4476-0.9148c-0.5392-0.2617-0.9152-0.8101-0.9152-1.4484V6.0449 c0-0.8896,0.7241-1.6143,1.6138-1.6143h2.2568c0.2764,0,0.5,0.2236,0.5,0.5c0,1.208,0.9824,2.1904,2.1899,2.1904h8.21 c1.2075,0,2.1899-0.9824,2.1899-2.1904c0-0.2764,0.2236-0.5,0.5-0.5h2.2568c0.6381,0,1.186,0.3757,1.4477,0.9148 C36.0388,5.6071,36.4146,6.1555,36.4146,6.7939z" stroke-width="0"/> </g> <g id="ICONS_00000031165542127692736420000002692518830807990202_"> <g> <path d="M34.4517,1.5205H15.5483c-2.2739,0-4.124,1.8496-4.124,4.124v38.7109c0,2.2744,1.8501,4.124,4.124,4.124h18.9033 c2.2739,0,4.124-1.8496,4.124-4.124V5.6445C38.5757,3.3701,36.7256,1.5205,34.4517,1.5205z M37.5757,44.3555 c0,1.7227-1.4014,3.124-3.124,3.124H15.5483c-1.7227,0-3.124-1.4014-3.124-3.124V5.6445c0-1.7227,1.4014-3.124,3.124-3.124 h18.9033c1.7227,0,3.124,1.4014,3.124,3.124V44.3555z" stroke-width="0"/> <path d="M34.0518,4.4307h-2.2568c-0.2764,0-0.5,0.2236-0.5,0.5c0,1.208-0.9824,2.1904-2.1899,2.1904h-8.21 c-1.2075,0-2.1899-0.9824-2.1899-2.1904c0-0.2764-0.2236-0.5-0.5-0.5h-2.2568c-0.8896,0-1.6138,0.7246-1.6138,1.6143v37.9102 c0,0.8896,0.7241,1.6143,1.6138,1.6143h18.1035c0.8896,0,1.6138-0.7246,1.6138-1.6143V6.0449 C35.6655,5.1553,34.9414,4.4307,34.0518,4.4307z M34.6655,43.9551c0,0.3389-0.2754,0.6143-0.6138,0.6143H15.9482 c-0.3384,0-0.6138-0.2754-0.6138-0.6143V6.0449c0-0.3389,0.2754-0.6143,0.6138-0.6143h1.7959 c0.2407,1.5225,1.562,2.6904,3.1509,2.6904h8.21c1.5889,0,2.9102-1.168,3.1509-2.6904h1.7959 c0.3384,0,0.6138,0.2754,0.6138,0.6143V43.9551z" stroke-width="0"/> <path d="M31.6353,35.3154v-2.915c0-1.0391-0.8447-1.8838-1.8833-1.8838H19.6577c-1.0381,0-1.8828,0.8447-1.8828,1.8838v3.4004 c0,1.0381,0.8447,1.8828,1.8828,1.8828h8.5669c0.6997,1.3154,2.0625,1.9824,4.0566,1.9824c0.2021,0,0.3843-0.1221,0.4619-0.3086 s0.0347-0.4014-0.1084-0.5449C32.0156,38.1924,31.6353,36.3584,31.6353,35.3154z M28.9995,36.9883 c-0.0786-0.1846-0.2593-0.3047-0.46-0.3047h-8.8818c-0.4868,0-0.8828-0.3965-0.8828-0.8828v-3.4004 c0-0.4873,0.396-0.8838,0.8828-0.8838H29.752c0.4868,0,0.8833,0.3965,0.8833,0.8838v2.915c0,0.8652,0.2231,2.2588,0.6929,3.2852 C30.1504,38.4248,29.3848,37.8926,28.9995,36.9883z" stroke-width="0"/> <path d="M21.7754,26.5166h8.5669c1.0381,0,1.8828-0.8447,1.8828-1.8828v-9.7051c0-1.0391-0.8447-1.8838-1.8828-1.8838H20.248 c-1.0386,0-1.8833,0.8447-1.8833,1.8838v9.2207c0,1.1787-0.4272,2.9238-0.9995,3.4961c-0.1431,0.1426-0.186,0.3574-0.1084,0.5449 c0.0771,0.1865,0.2598,0.3086,0.4619,0.3086C19.7129,28.499,21.0757,27.832,21.7754,26.5166z M18.6719,27.4336 c0.4702-1.0264,0.6929-2.4189,0.6929-3.2842v-9.2207c0-0.4873,0.3965-0.8838,0.8833-0.8838h10.0942 c0.4868,0,0.8828,0.3965,0.8828,0.8838v9.7051c0,0.4863-0.396,0.8828-0.8828,0.8828h-8.8818c-0.2007,0-0.3813,0.1201-0.46,0.3047 C20.6152,26.7256,19.8496,27.2578,18.6719,27.4336z" stroke-width="0"/> <path d="M22.0176,22.2197h6.312c0.2764,0,0.5-0.2236,0.5-0.5s-0.2236-0.5-0.5-0.5h-6.312c-0.2764,0-0.5,0.2236-0.5,0.5 S21.7412,22.2197,22.0176,22.2197z" stroke-width="0"/> <circle cx="22.845" cy="34.1003" r="0.7061"/> <circle cx="26.8076" cy="34.1003" r="0.7061"/> <path d="M21.8467,5.4307h2.9731c0.2764,0,0.5-0.2236,0.5-0.5s-0.2236-0.5-0.5-0.5h-2.9731c-0.2764,0-0.5,0.2236-0.5,0.5 S21.5703,5.4307,21.8467,5.4307z" stroke-width="0"/> <path d="M27.908,5.5762c0.3565,0,0.6455-0.289,0.6455-0.6455c0-0.3566-0.289-0.6456-0.6455-0.6456s-0.6455,0.289-0.6455,0.6456 C27.2625,5.2872,27.5515,5.5762,27.908,5.5762z" stroke-width="0"/> <path d="M22.0176,18.3955h6.312c0.2764,0,0.5-0.2236,0.5-0.5s-0.2236-0.5-0.5-0.5h-6.312c-0.2764,0-0.5,0.2236-0.5,0.5 S21.7412,18.3955,22.0176,18.3955z" stroke-width="0"/> </g> </g> <g id="Margin" class="st1"> <rect x="1" y="1" class="st2" /> </g> <g id="Guides" class="st1"> </g> <g id="LABELS"> <g> <g> <g> <g> <g> <g> </g> </g> </g> </g> </g> </g> </g> </svg> 