<?xml version="1.0" encoding="UTF-8"?><svg width="70" height="70" id="uuid-4a3cd10e-3335-474e-8b70-e694183e6f3a" xmlns="http://www.w3.org/2000/svg" viewBox="-10 -10 70 70"><rect x="-10" y="-10" width="70" height="70" fill="white"/><path d="M30.64,31.48l-3.59-.02-4.42-.57-2.22-1.2H10.17c-4.07,0-7.38,3.55-7.38,7.91s3.04,7.63,6.92,7.88c.15,.01,.29,.09,.38,.21l2.62,3.73,2.61-3.7c.09-.14,.24-.21,.41-.21h9.86c4.07,0,7.38-3.55,7.38-7.91,0-1.67-.49-3.23-1.33-4.51l-1-1.61Zm-21.96,6.83c-1.08,0-1.96-.88-1.96-1.96s.88-1.96,1.96-1.96,1.97,.88,1.97,1.96-.88,1.96-1.97,1.96Zm5.98-1.96c0-1.08,.88-1.96,1.97-1.96s1.96,.88,1.96,1.96-.88,1.96-1.96,1.96-1.97-.88-1.97-1.96Zm9.91,1.96c-1.08,0-1.96-.88-1.96-1.96s.88-1.96,1.96-1.96,1.97,.88,1.97,1.96-.88,1.96-1.97,1.96Z" fill="#ffcd00" stroke-width="0"/><g><path d="M12.92,21.7l.46,.66,2.6-3.71c.1-.13,.25-.21,.41-.21h2.12c.04-.07,.07-.14,.1-.21h-3.26l-2.44,3.47Z" fill="#ffcd00" stroke-width="0"/><path d="M10.83,2.63c-4.07,0-7.37,3.54-7.37,7.9,0,2.03,.73,3.89,1.92,5.3,1.07,.79,2.33,1.28,3.71,1.37,.15,0,.29,.09,.37,.22l.68,.96c.08,0,.16,.02,.25,.03,.15,.01,.29,.09,.37,.22l1.56,2.21,2.38-3.4c.1-.13,.25-.21,.41-.21h4.21c1.54-1.93,3.83-3.16,6.39-3.16h5.15c.93-1.32,1.49-2.96,1.49-4.75,0-2.06-.74-3.92-1.95-5.33-1.18-.86-2.6-1.36-4.13-1.36H10.83Z" fill="#ffcd00" stroke-width="0"/><path d="M33.34,9.32c0,1.75-.48,3.38-1.3,4.75h.79c.5-1.06,.8-2.26,.8-3.54,0-.89-.14-1.74-.4-2.53,.06,.43,.1,.88,.1,1.33Z" fill="#ffcd00" stroke-width="0"/></g><g><path d="M24.53,33.5c-1.59,0-2.89,1.29-2.89,2.89s1.3,2.89,2.89,2.89,2.9-1.29,2.9-2.89-1.3-2.89-2.9-2.89Zm0,4.78c-1.04,0-1.89-.85-1.89-1.89s.85-1.89,1.89-1.89,1.9,.85,1.9,1.89-.85,1.89-1.9,1.89Z" stroke-width="0"/><path d="M16.59,33.5c-1.6,0-2.9,1.29-2.9,2.89s1.3,2.89,2.9,2.89,2.89-1.29,2.89-2.89-1.3-2.89-2.89-2.89Zm0,4.78c-1.05,0-1.9-.85-1.9-1.89s.85-1.89,1.9-1.89,1.89,.85,1.89,1.89-.85,1.89-1.89,1.89Z" stroke-width="0"/><path d="M8.64,33.5c-1.59,0-2.89,1.29-2.89,2.89s1.3,2.89,2.89,2.89,2.9-1.29,2.9-2.89-1.3-2.89-2.9-2.89Zm0,4.78c-1.04,0-1.89-.85-1.89-1.89s.85-1.89,1.89-1.89,1.9,.85,1.9,1.89-.85,1.89-1.9,1.89Z" stroke-width="0"/><path d="M42.46,19.01H24.37c-.28,0-.5,.22-.5,.5s.22,.5,.5,.5h18.09c.27,0,.5-.22,.5-.5s-.23-.5-.5-.5Z" stroke-width="0"/><path d="M42.46,22.48H24.37c-.28,0-.5,.22-.5,.5s.22,.5,.5,.5h18.09c.27,0,.5-.23,.5-.5s-.23-.5-.5-.5Z" stroke-width="0"/><path d="M37.83,25.94h-13.46c-.28,0-.5,.23-.5,.5s.22,.5,.5,.5h13.46c.28,0,.5-.22,.5-.5s-.22-.5-.5-.5Z" stroke-width="0"/><path d="M8.21,6.36H26.3c.27,0,.5-.23,.5-.5s-.23-.5-.5-.5H8.21c-.28,0-.5,.22-.5,.5s.22,.5,.5,.5Z" stroke-width="0"/><path d="M8.21,9.82H26.3c.27,0,.5-.22,.5-.5s-.23-.5-.5-.5H8.21c-.28,0-.5,.23-.5,.5s.22,.5,.5,.5Z" stroke-width="0"/><path d="M18.67,12.29H8.21c-.28,0-.5,.22-.5,.5s.22,.5,.5,.5h10.46c.28,0,.5-.22,.5-.5s-.22-.5-.5-.5Z" stroke-width="0"/><path d="M41.12,14.07h-9.08c.82-1.37,1.3-3,1.3-4.75C33.34,4.41,29.58,.42,24.97,.42H9.54C4.92,.42,1.17,4.41,1.17,9.32c0,4.61,3.32,8.45,7.61,8.86l2.9,4.12c.09,.14,.24,.22,.41,.22,.16,0,.31-.08,.41-.22l2.86-4.07h3.26c-.81,1.38-1.3,3-1.3,4.75,0,1.64,.43,3.18,1.17,4.5H8.88c-4.62,0-8.38,4-8.38,8.91,0,4.6,3.33,8.45,7.61,8.86l2.9,4.12c.1,.13,.25,.21,.41,.21s.32-.08,.41-.21l2.87-4.07h9.6c4.62,0,8.38-4,8.38-8.91,0-1.65-.43-3.18-1.17-4.51h3.79l2.87,4.08c.09,.13,.25,.21,.41,.21s.31-.08,.41-.21l2.9-4.12c4.28-.42,7.61-4.26,7.61-8.86,0-4.91-3.76-8.91-8.38-8.91Zm-26.02,3.16c-.16,0-.31,.08-.41,.21l-2.6,3.71-2.63-3.73c-.08-.13-.22-.21-.37-.22-3.88-.25-6.92-3.71-6.92-7.88S5.47,1.42,9.54,1.42h15.43c4.06,0,7.37,3.54,7.37,7.9,0,1.79-.56,3.43-1.49,4.75h-5.15c-2.56,0-4.85,1.23-6.39,3.16h-4.21Zm16.58,19.16c0,4.36-3.31,7.91-7.38,7.91H14.44c-.17,0-.32,.07-.41,.21l-2.61,3.7-2.62-3.73c-.09-.12-.23-.2-.38-.21-3.88-.25-6.92-3.72-6.92-7.88s3.31-7.91,7.38-7.91h10.25c1.53,2.07,3.91,3.4,6.57,3.4h4.65c.84,1.28,1.33,2.84,1.33,4.51Zm9.9-5.53c-.15,.01-.29,.09-.38,.21l-2.62,3.73-2.61-3.7c-.09-.14-.24-.22-.41-.22h-9.86c-2.07,0-3.94-.92-5.28-2.4-.28-.31-.54-.64-.77-1-.84-1.28-1.33-2.83-1.33-4.5,0-1.79,.56-3.43,1.5-4.75,.25-.36,.53-.69,.83-1,1.32-1.33,3.09-2.16,5.05-2.16h15.42c4.07,0,7.38,3.55,7.38,7.91s-3.04,7.62-6.92,7.88Z" stroke-width="0"/></g></svg>