<?xml version="1.0" encoding="UTF-8"?><svg width="70" height="70" id="uuid-7a6110fe-767d-4162-a58c-37b4320e1c4f" xmlns="http://www.w3.org/2000/svg" viewBox="-10 -10 70 70"><rect x="-10" y="-10" width="70" height="70" fill="white"/><path d="M32.58,17.28c0,.25,.2,.45,.45,.45h7.52c.25,0,.45-.2,.45-.45v-1.93h-8.41v1.93Z" fill="none" stroke-width="0"/><path d="M8.94,17.28c0,.25,.2,.45,.45,.45h7.52c.25,0,.45-.2,.45-.45v-1.93H8.94v1.93Z" fill="none" stroke-width="0"/><path d="M23.41,28.21h-.53v-1.05h0l-.04-8.15c-.27-4.27-3.82-7.61-8.07-7.61s-7.81,3.35-8.08,7.63l-.04,8.14h0v1.05h-.53c-1.16,0-2.11,.94-2.11,2.1h0v1.9c0,.28,.22,.5,.5,.5h3.74v-.5h10.06v.5h6.74c.28,0,.5-.22,.5-.5v-1.88h0c0-1.17-.95-2.12-2.11-2.12Zm-6.06-10.93c0,.25-.2,.45-.45,.45h-7.52c-.25,0-.45-.2-.45-.45v-1.93h8.41v1.93Z" fill="#ffcd00" stroke-width="0"/><path d="M49.17,30.31c0-1.16-.95-2.1-2.11-2.1h-.53v-1.05h0l-.04-8.15c-.27-4.27-3.82-7.61-8.07-7.61s-7.81,3.35-8.08,7.63l-.04,8.14h0v1.05h-.53c-1.16,0-2.11,.94-2.11,2.1h0v1.9c0,.28,.22,.5,.5,.5h3.74v-.5h10.06v.5h6.74c.28,0,.5-.22,.5-.5v-1.88h0Zm-8.17-13.05c0,.25-.2,.45-.45,.45h-7.52c-.25,0-.45-.2-.45-.45v-1.93h8.41v1.93Z" fill="#ffcd00" stroke-width="0"/><path d="M49.11,23.17v-.34c-.07-1.43-.94-2.5-2.04-2.5-.4,0-.76,.14-1.07,.39l-.02-3.23v-.03c-.3-4.8-4.29-8.56-9.07-8.56s-8.77,3.76-9.08,8.59l-.02,3.44c-.35-.37-.8-.6-1.29-.6-.62,0-1.17,.35-1.54,.91-.37-.56-.92-.91-1.54-.91-.4,0-.76,.14-1.07,.39l-.02-3.23v-.03c-.3-4.8-4.29-8.56-9.07-8.56s-8.77,3.76-9.08,8.59l-.02,3.44c-.35-.37-.8-.6-1.29-.6-1.1,0-1.98,1.08-2.04,2.5v.34h0v5.9c0,.28,.22,.5,.5,.5,.06,0,.11-.01,.16-.03v1.17c0,.83,.67,1.5,1.5,1.5H7.24l-.03,5.13h-2.79c-.28,0-.5,.22-.5,.5v2.76c0,.28,.22,.5,.5,.5H22.11c.28,0,.5-.22,.5-.5v-2.76c0-.28-.22-.5-.5-.5h-2.79l-.03-5.13h4.24c.83,0,1.5-.67,1.5-1.5v-1.15s.07,0,.1-.02v1.17c0,.83,.67,1.5,1.5,1.5h4.24l-.03,5.13h-2.79c-.28,0-.5,.22-.5,.5v2.76c0,.28,.22,.5,.5,.5h17.69c.28,0,.5-.22,.5-.5v-2.76c0-.28-.22-.5-.5-.5h-2.79l-.03-5.13h4.24c.83,0,1.5-.67,1.5-1.5v-1.15c.25-.03,.44-.23,.44-.49v-5.9h0Zm-25.68-1.85c.49,0,.93,.59,1.03,1.35h-2.05c.1-.76,.53-1.35,1.03-1.35Zm-18.24-3.8c.27-4.28,3.82-7.63,8.08-7.63s7.8,3.34,8.07,7.61l.04,8.2H5.14l.04-8.19Zm-2.31,3.8c.5,0,.94,.6,1.03,1.35H1.85c.1-.76,.53-1.35,1.03-1.35Zm-1.04,6.12v-3.77h2.32v2.08c-1.03,.16-1.88,.8-2.32,1.69Zm19.77,10.9v1.76H4.92v-1.76H21.61Zm-13.4-1l.03-5.13h10.05l.03,5.13H8.21Zm15.82-6.63c0,.28-.22,.5-.5,.5H3c-.28,0-.5-.22-.5-.5v-.7H24.03v.7Zm0-1.7H2.5v-.18c0-1.17,.95-2.12,2.12-2.12H21.91c1.17,0,2.12,.95,2.12,2.12v.18Zm.44-1.96c-.48-.69-1.23-1.16-2.09-1.29v-2.08h2.09v3.38Zm22.59-5.73c.49,0,.93,.59,1.03,1.35h-2.05c.1-.76,.53-1.35,1.03-1.35Zm-18.24-3.8c.27-4.28,3.82-7.63,8.08-7.63s7.8,3.34,8.07,7.61l.04,8.2H28.78l.04-8.19Zm-2.31,3.8c.5,0,.94,.6,1.03,1.35h-2.05c.1-.76,.53-1.35,1.03-1.35Zm-1.04,6.12v-3.77h2.32v2.08c-1.03,.16-1.88,.8-2.32,1.69Zm19.77,10.9v1.76H28.56v-1.76h16.69Zm-13.4-1l.03-5.13h10.05l.03,5.13h-10.1Zm15.82-6.63c0,.28-.22,.5-.5,.5H26.63c-.28,0-.5-.22-.5-.5v-.7h21.54v.7Zm0-1.7H26.13v-.18c0-1.17,.95-2.12,2.12-2.12h17.3c1.17,0,2.12,.95,2.12,2.12v.18Zm.44-1.96c-.48-.69-1.23-1.16-2.09-1.29v-2.08h2.09v3.38Z" stroke-width="0"/><path d="M17.86,14.34H8.44c-.28,0-.5,.22-.5,.5v2.43c0,.8,.65,1.45,1.45,1.45h7.52c.8,0,1.45-.65,1.45-1.45v-2.43c0-.28-.22-.5-.5-.5Zm-.5,2.93c0,.25-.2,.45-.45,.45h-7.52c-.25,0-.45-.2-.45-.45v-1.93h8.41v1.93Z" stroke-width="0"/><path d="M41.5,14.34h-9.41c-.28,0-.5,.22-.5,.5v2.43c0,.8,.65,1.45,1.45,1.45h7.52c.8,0,1.45-.65,1.45-1.45v-2.43c0-.28-.22-.5-.5-.5Zm-.5,2.93c0,.25-.2,.45-.45,.45h-7.52c-.25,0-.45-.2-.45-.45v-1.93h8.41v1.93Z" stroke-width="0"/></svg>