<?xml version="1.0" encoding="UTF-8"?><svg width="70" height="70" id="uuid-fd8e4357-1222-47f4-9673-31396fadad49" xmlns="http://www.w3.org/2000/svg" viewBox="-10 -10 70 70"><rect x="-10" y="-10" width="70" height="70" fill="white"/><g><path d="M46.81,44.37c.95,0,1.75,.53,1.75,1.17s-.8,1.18-1.75,1.18-1.75-.54-1.75-1.18,.8-1.17,1.75-1.17Z" fill="#ffcd00" stroke-width="0"/><ellipse cx="41.61" cy="39.44" rx="3.27" ry="2.3" fill="#ffcd00" stroke-width="0"/><path d="M44.57,20.75c.28,2.69-1.27,5.27-3.96,6.58-.15,.07-.26,.22-.28,.4-.02,.17,.06,.34,.2,.44,.5,.39,1.12,1.05,1.22,2,.19,1.87-1.66,3.6-4.14,3.87-1.94,.2-3.76-.57-4.51-1.93-.07-.12-.2-.21-.34-.24s-.29,0-.4,.09c-1.82,1.38-4.01,2.24-6.33,2.48-4.77,.5-9.35-1.67-11.65-5.53-.09-.16-.26-.24-.43-.24-.05,0-.1,0-.15,.02-.56,.18-1.12,.3-1.67,.36-4.07,.42-7.7-2.18-8.08-5.81-.18-1.75,.41-3.47,1.66-4.86,1.26-1.4,3.05-2.29,5.03-2.5,.42-.04,.84-.05,1.31-.03,.24,.03,.46-.15,.51-.38,1.09-4.76,5.32-8.33,10.55-8.88,5.88-.61,11.22,2.75,12.71,8.01,.06,.24,.29,.39,.54,.36l.16-.02c1.98-.21,3.9,.29,5.43,1.39,1.51,1.1,2.44,2.67,2.62,4.42Z" fill="#ffcd00" stroke-width="0"/></g><g><path d="M45.52,42.16c-1.52,0-2.75,.97-2.75,2.17s1.23,2.18,2.75,2.18,2.75-.98,2.75-2.18-1.23-2.17-2.75-2.17Zm0,3.35c-.95,0-1.75-.54-1.75-1.18s.8-1.17,1.75-1.17,1.75,.53,1.75,1.17-.8,1.18-1.75,1.18Z" stroke-width="0"/><path d="M44.59,38.23c0-1.82-1.92-3.3-4.27-3.3s-4.27,1.48-4.27,3.3,1.92,3.3,4.27,3.3,4.27-1.48,4.27-3.3Zm-4.27,2.3c-1.8,0-3.27-1.03-3.27-2.3s1.47-2.3,3.27-2.3,3.27,1.03,3.27,2.3-1.47,2.3-3.27,2.3Z" stroke-width="0"/><path d="M41.45,28.86c-.08-.82-.44-1.56-1.05-2.19,2.45-1.45,3.92-3.89,3.92-6.51,0-.24-.01-.49-.04-.73-.22-2.03-1.29-3.85-3.03-5.12-1.67-1.2-3.75-1.77-5.89-1.6-1.77-5.49-7.44-8.97-13.65-8.32-5.5,.58-9.99,4.27-11.31,9.24-.37-.01-.71,.01-1.05,.05-2.23,.23-4.24,1.23-5.67,2.82-1.45,1.6-2.13,3.6-1.91,5.63,.44,4.18,4.56,7.18,9.17,6.7,.5-.05,1-.15,1.5-.29,2.3,3.6,6.46,5.76,10.94,5.76,.49,0,.98-.03,1.47-.08,2.32-.24,4.51-1.05,6.39-2.36,1.06,1.4,3.07,2.18,5.18,1.96,3.03-.32,5.29-2.55,5.03-4.96Zm-9.64,2.04c-.07-.12-.2-.21-.34-.24-.14-.03-.29,0-.4,.09-1.82,1.38-4.01,2.24-6.33,2.48-4.77,.5-9.35-1.67-11.65-5.53-.09-.16-.26-.24-.43-.24-.05,0-.1,0-.15,.02-.56,.18-1.12,.3-1.67,.36-4.07,.42-7.7-2.18-8.08-5.81-.18-1.75,.41-3.47,1.66-4.86,1.26-1.4,3.05-2.29,5.03-2.5,.42-.04,.84-.05,1.31-.03,.24,.03,.46-.15,.51-.38,1.09-4.76,5.32-8.33,10.55-8.88,5.88-.61,11.22,2.75,12.71,8.01,.06,.24,.29,.39,.54,.36l.16-.02c1.98-.21,3.9,.29,5.43,1.39,1.51,1.1,2.44,2.67,2.62,4.42,.28,2.69-1.27,5.27-3.96,6.58-.15,.07-.26,.22-.28,.4-.02,.17,.06,.34,.2,.44,.5,.39,1.12,1.05,1.22,2,.19,1.87-1.66,3.6-4.14,3.87-1.94,.2-3.76-.57-4.51-1.93Z" stroke-width="0"/></g></svg>