<?xml version="1.0" encoding="UTF-8"?><svg width="70" height="70" xmlns="http://www.w3.org/2000/svg" viewBox="-10 -10 70 70"><rect x="-10" y="-10" width="70" height="70" fill="white"/><g id="uuid-d8183692-49ed-4d7e-b14f-b4279d702497"><path d="M39.18,38.94c.06-.02,.12-.04,.16-.07-.06-.08-.16-.18-.28-.29-.01,.13,.03,.26,.12,.36Z" fill="none" stroke-width="0"/><path d="M13.85,39.08c-.61-3.19-1.68-5.3-2.71-7.34-1.25-2.48-2.43-4.82-2.49-8.84-.11-7.39,1.24-16.22,12.73-18.97,4.9-1.17,12.36-.04,17.48,4.3C33.84,2.46,25.13,.86,19.63,2.18,8.14,4.93,6.79,13.76,6.9,21.15c.06,4.02,1.24,6.36,2.49,8.84,1.03,2.04,2.1,4.15,2.71,7.34,1.14,5.92-.48,8.8-1.39,10.25h2.67c.71-1.72,1.26-4.37,.47-8.5Z" fill="none" stroke-width="0"/><path d="M30.3,48.02s0,.04,0,.06c0,.27-.22,.5-.49,.5h-7.05c-.06,.03-.13,.04-.2,.04h0l-3.21-.05h-6.43c-.16,.28-.31,.53-.44,.75h15.97c1.26,0,2.08,0,2.62,.03v-7.09c0-.15,.08-.28,.19-.37-.35-.18-.67-.36-.94-.51v6.63Z" fill="#ffcd00" stroke-width="0"/><path d="M42.43,19.64c-.18,1.06-.34,1.97-.34,2.69,0,1.02,.61,2.69,1.28,4.23-.31-.94-.53-1.82-.53-2.48,0-.8,.17-1.76,.36-2.86,.4-2.28,.89-5.12-.11-7.39-.12-.27-.27-.53-.4-.79,.5,2.21,.1,4.6-.25,6.6Z" fill="#ffcd00" stroke-width="0"/><path d="M45.58,31.64c-.21-.41-.45-.9-.7-1.42-.03,.52-.32,1.02-.82,1.28l-2.87,1.49c.21,.82,.58,2.29,.58,2.66,0,.32,0,.72-2.86,1.47,.47,.38,.78,.67,1,.91,1.07-.27,2.18-.61,2.59-.81-.08-.47-.36-1.62-.62-2.6-.06-.23,.05-.46,.25-.57l3.22-1.67c.26-.14,.37-.46,.23-.72Z" fill="#ffcd00" stroke-width="0"/><path d="M37.5,37.28c-.16-.12-.23-.31-.19-.5,.04-.19,.19-.34,.38-.38,1.2-.28,2.6-.69,3.07-.93-.08-.47-.36-1.62-.62-2.6-.06-.23,.05-.46,.25-.57l3.22-1.67c.26-.14,.37-.46,.23-.72-1.03-2-2.75-5.64-2.75-7.56,0-.8,.17-1.76,.36-2.86,.4-2.28,.89-5.12-.11-7.39-.64-1.46-1.5-2.73-2.48-3.86-5.11-4.34-12.58-5.47-17.48-4.3-11.49,2.75-12.84,11.58-12.73,18.97,.06,4.02,1.24,6.36,2.49,8.84,1.03,2.04,2.1,4.15,2.71,7.34,.79,4.13,.25,6.78-.47,8.5h5.4v-10.26c0-1.32,1.07-2.39,2.4-2.39h14.41c.13,0,.26,.05,.36,.15s.15,.23,.14,.36l-.08,3.71c0,.27-.23,.49-.5,.49l-11.04,.03c-.76,0-1.39,.63-1.39,1.39l-.02,6.52h3.62c1.26,0,2.08,0,2.62,.02v-7.09c0-.18,.1-.35,.25-.44,.16-.09,.35-.09,.5,0,2.57,1.56,6.59,3.31,7.71,2.44,.02-.19,0-.64-.02-.95-.03-.51-.05-1.03,0-1.4,.12-.82,.83-1.06,1.25-1.2,.05-.02,.1-.03,.16-.05-.09-.1-.13-.23-.12-.36-.38-.37-1-.88-1.56-1.3Z" fill="#ffcd00" stroke-width="0"/><path d="M38.75,40.33c-.04,.27-.01,.77,0,1.2,.05,.95,.06,1.38-.2,1.64-.79,.79-2.25,.67-3.79,.21,2.01,.9,4.02,1.47,4.76,.9,.02-.19,0-.64-.02-.95-.03-.51-.05-1.03,0-1.4,.12-.82,.83-1.06,1.25-1.2,.1-.03,.24-.08,.33-.12-.18-.22-.61-.6-1.09-1-.22,.16-.48,.25-.68,.32-.45,.15-.55,.21-.58,.39Z" fill="#ffcd00" stroke-width="0"/><path d="M38.92,37.11c2.86-.75,2.86-1.14,2.86-1.47,0-.37-.37-1.84-.58-2.66l2.87-1.49c.5-.26,.79-.75,.82-1.28,.02-.26-.03-.54-.16-.79-.34-.66-.86-1.73-1.36-2.87-.67-1.54-1.28-3.22-1.28-4.23,0-.72,.16-1.63,.34-2.69,.35-1.99,.75-4.39,.25-6.6-.1-.46-.24-.92-.43-1.37C39.19,4.74,29.58-1.23,19.39,1.2,7.08,4.15,5.79,14.01,5.9,21.16c.06,4.25,1.29,6.69,2.6,9.28,1,1.98,2.03,4.03,2.62,7.08,1.12,5.81-.56,8.45-1.37,9.72-.17,.27-.3,.48-.37,.65-.07,.15-.05,.33,.04,.47,.09,.14,.25,.22,.42,.22h9.51l3.21,.05h0c.07,0,.14-.02,.2-.04h7.05c.27,0,.49-.23,.49-.5,0-.02,0-.04,0-.06v-6.63c.27,.15,.59,.33,.94,.51,1.01,.52,2.29,1.12,3.53,1.49,1.53,.46,3,.58,3.79-.21,.26-.26,.25-.69,.2-1.64-.02-.44-.05-.93,0-1.2,.02-.17,.13-.24,.58-.39,.2-.06,.46-.15,.68-.32,.2-.15,.37-.38,.39-.72,0-.13,.01-.36-.48-.89-.22-.24-.53-.53-1-.91Zm-16.83,3.94l-.02,6.53h-2.27v-10.26c0-.77,.63-1.39,1.4-1.39h13.9l-.06,2.71-10.56,.03c-1.31,0-2.38,1.07-2.39,2.39Zm17.09-2.12c-.06,.02-.12,.04-.16,.05-.43,.14-1.14,.37-1.25,1.2-.05,.37-.03,.89,0,1.4,.02,.31,.04,.75,.02,.95-1.12,.87-5.15-.88-7.71-2.44-.16-.09-.35-.1-.5,0-.16,.09-.25,.25-.25,.44v7.09c-.54-.02-1.36-.02-2.62-.02h-3.62l.02-6.52c0-.76,.63-1.39,1.39-1.39l11.04-.03c.27,0,.49-.22,.5-.49l.08-3.71c0-.13-.05-.26-.14-.36s-.22-.15-.36-.15h-14.41c-1.32,0-2.4,1.07-2.4,2.39v10.26H10.71c.91-1.45,2.52-4.33,1.39-10.25-.61-3.19-1.68-5.3-2.71-7.34-1.25-2.48-2.43-4.82-2.49-8.84-.11-7.39,1.24-16.22,12.73-18.97,5.5-1.32,14.22,.28,19.23,6.05,.98,1.13,1.83,2.4,2.48,3.86,1,2.27,.51,5.11,.11,7.39-.19,1.1-.36,2.06-.36,2.86,0,1.92,1.72,5.56,2.75,7.56,.13,.26,.03,.59-.23,.72l-3.22,1.67c-.21,.11-.31,.35-.25,.57,.26,.98,.54,2.13,.62,2.6-.47,.24-1.88,.65-3.07,.93-.19,.04-.33,.19-.38,.38-.04,.19,.03,.39,.19,.5,.56,.42,1.18,.93,1.56,1.3,.12,.11,.22,.22,.28,.29-.04,.02-.1,.04-.16,.07Z" stroke-width="0"/></g><g id="uuid-11981a8e-96ac-4782-af21-2afe4127aa28"></g></svg>