<?xml version="1.0" encoding="UTF-8"?><svg width="70" height="70" xmlns="http://www.w3.org/2000/svg" viewBox="-10 -10 70 70"><rect x="-10" y="-10" width="70" height="70" fill="white"/><g id="uuid-450295e1-f45a-4b9f-ad7b-aa66f1cd9746"><g><path d="M46.69,27.63l-1.36-.25c-.86-.31-1.72-.62-2.59-.94-.25,.63-.49,1.31-.39,1.36,.08,.04,.23-.52,.5-.5,1.28,.11,2.55,.21,3.83,.32,.18-.14,1.65-1.35,1.56-3.18-.02-.31-.07-1.32-.89-2.12-.77-.75-1.72-.81-1.98-.82h-11.3c-.6,.03-1.52-.08-2.27-.71-1.3-1.09-1.53-3.24-.54-5.11,.03-.05,.06-.09,.1-.13,1.24-1.17,3.3-3.6,3.21-6.78-.02-.76-.09-3.05-1.43-3.71-.66-.32-1.48-.35-2.22-.06-.82,.31-1.47,.93-1.81,1.75-.36,.66-8.26,15.05-10.58,17.6-.09,.1-.23,.16-.37,.16h-3.82v18.57l5.72-.03h0c.1,0,.19,.03,.28,.08,1.62,1.08,3.34,1.98,5.11,2.68,2.89,1.15,5.93,1.77,9.04,1.85h7.51c.29-.02,1-.12,1.63-.66,.93-.81,.93-1.98,.93-2.23,0-.17-.01-.93-.51-1.72-.66-1.06-1.71-1.4-2.01-1.49l-2.35,.32c-.3-.36-.47-.52-.5-.5-.04,.03,.14,.36,.54,1,.55-.17,1.1-.34,1.65-.5l.66-.32,2.52-.06c.28-.06,1.29-.33,1.98-1.3,.64-.89,.61-1.83,.6-2.21-.03-.85-.34-1.44-.41-1.57-.63-1.17-1.75-1.61-2.08-1.73l.39-1.16c-1.28-.85-2.53-.89-2.99-.35-.08,.1-.26,.36-.2,.92h2.74s.05,.2,.07,.59c.7-.1,1.4-.21,2.11-.31,.3-.06,1.09-.27,1.75-.97,.03-.04,.87-.95,.89-2.21,.02-1.46-1.06-2.9-2.73-3.57Z" fill="#ffcd00" stroke-width="0"/><path d="M48.91,29.71c0-1.72-1.1-3.19-2.7-3.71,.92-.71,1.51-1.8,1.53-3.02,.03-2.14-1.7-3.91-3.86-3.95h-11.32c-.46,.02-1.11-.05-1.62-.48-.91-.76-1.05-2.39-.33-3.81,1.37-1.3,3.56-3.96,3.46-7.48-.03-.91-.11-3.66-1.99-4.58-.91-.44-2.01-.48-3.02-.1-1.07,.4-1.93,1.24-2.35,2.25-.08,.15-7.85,14.31-10.28,17.2h-3.59v-1.03c0-.28-.22-.5-.5-.5H1.09c-.28,0-.5,.22-.5,.5v22.61c0,.28,.22,.5,.5,.5H12.35c.28,0,.5-.22,.5-.5v-1.01h3.36l2.22-.03c1.64,1.08,3.38,1.98,5.16,2.69,3,1.19,6.16,1.83,9.4,1.92h7.52c1.96,0,3.56-1.75,3.56-3.89,0-1.15-.46-2.18-1.18-2.89h.21c1.96,0,3.56-1.75,3.56-3.89,0-1.15-.46-2.19-1.19-2.9,1.97-.24,3.44-1.89,3.44-3.88Zm-3.56,2.89h-4.99c-.28,0-.5,.22-.5,.5s.22,.5,.5,.5h2.75c1.41,0,2.55,1.3,2.55,2.89s-1.15,2.89-2.56,2.89h-4.89c-.28,0-.5,.22-.5,.5s.22,.5,.5,.5h2.32c1.4,.01,2.54,1.31,2.54,2.89s-1.15,2.89-2.56,2.89h-7.51c-3.11-.08-6.15-.7-9.04-1.85-1.77-.7-3.49-1.6-5.11-2.68-.08-.05-.18-.08-.28-.08h0l-5.72,.03V23.03h3.82c.14,0,.27-.06,.37-.16,2.33-2.55,10.22-16.94,10.58-17.6,.34-.82,.98-1.44,1.81-1.75,.75-.28,1.56-.26,2.22,.06,1.34,.65,1.41,2.95,1.43,3.71,.09,3.18-1.97,5.61-3.21,6.78-.04,.04-.07,.08-.1,.13-.99,1.88-.76,4.03,.54,5.11,.75,.63,1.67,.74,2.27,.71h11.3c1.6,.03,2.89,1.34,2.87,2.93-.02,1.55-1.31,2.83-2.86,2.85h-2.53c-.28,0-.5,.22-.5,.5s.22,.5,.5,.5h2.54s.05,0,.07,0h1.34c1.46,.15,2.61,1.42,2.61,2.9s-1.15,2.74-2.56,2.89ZM1.59,21.5H11.85v21.61H1.59V21.5Z" stroke-width="0"/></g></g><g id="uuid-15485847-6153-4269-b2fc-334e59ea5da9"></g></svg>