<?xml version="1.0" encoding="UTF-8"?><svg width="70" height="70" id="uuid-e0af5141-a7ab-401f-a98b-112c07cf9ab6" xmlns="http://www.w3.org/2000/svg" viewBox="-10 -10 70 70"><rect x="-10" y="-10" width="70" height="70" fill="white"/><polygon points="45.24 32.68 37.34 32.68 29.46 32.68 23.04 32.68 15.16 32.68 7.26 32.68 7.26 34.44 10.11 34.44 10.11 48.98 42.39 48.98 42.39 34.44 45.24 34.44 45.24 32.68" fill="#ffcd00"/><path d="M24.5,20.64c.1,.1,.23,.15,.35,.15s.26-.05,.35-.15l2.69-2.69c.2-.2,.2-.51,0-.71s-.51-.2-.71,0l-2.69,2.69c-.2,.2-.2,.51,0,.71Z" fill="none" stroke-width="0"/><path d="M21.96,20.09c.13,0,.26-.05,.35-.15l4.54-4.54c.2-.2,.2-.51,0-.71s-.51-.2-.71,0l-4.54,4.54c-.2,.2-.2,.51,0,.71,.1,.1,.23,.15,.35,.15Z" fill="none" stroke-width="0"/><polygon points="45.24 3.52 7.26 3.52 7.26 13.04 8.61 13.04 8.61 12.54 40.89 12.54 40.89 13.04 45.24 13.04 45.24 3.52" fill="#ffcd00"/><path d="M44.24,12.54c.28,0,.5-.22,.5-.5V1.52c0-.28-.22-.5-.5-.5H5.26c-.28,0-.5,.22-.5,.5V12.04c0,.28,.22,.5,.5,.5h2.35V30.18h-2.35c-.28,0-.5,.22-.5,.5v2.76c0,.28,.22,.5,.5,.5h2.35v14.04c0,.28,.22,.5,.5,.5H41.39c.28,0,.5-.22,.5-.5v-14.04h2.35c.28,0,.5-.22,.5-.5v-2.76c0-.28-.22-.5-.5-.5h-2.35V12.54h2.35Zm-3.35,34.94H8.61v-13.54H40.89v13.54Zm2.85-16.3v1.76H5.76v-1.76H43.74Zm-7.44-5.28c-.22-2.26-2.12-4.01-4.4-4.01s-4.18,1.74-4.4,4c-.03,.06-.04,.13-.04,.19v4.1h-5.42v-4.1c0-.07-.01-.13-.04-.19-.22-2.26-2.12-4-4.4-4s-4.18,1.74-4.4,4c-.03,.06-.04,.13-.04,.19v4.1h-4.55V12.54H40.89V30.18h-4.55v-4.1c0-.06-.01-.13-.04-.18Zm-.96,.34v3.94h-6.88v-3.94s.02-.08,.02-.12c.11-1.81,1.61-3.22,3.41-3.22s3.3,1.42,3.41,3.22c0,.04,.01,.08,.02,.12Zm-14.3,0v3.95h-6.88v-3.94s.02-.08,.02-.12c.11-1.81,1.61-3.22,3.41-3.22s3.3,1.42,3.41,3.22c0,.04,.01,.08,.02,.12ZM5.76,11.54V2.02H43.74V11.54H5.76Z" stroke-width="0"/><polygon points="8.41 4.53 10.35 4.53 10.35 9.9 11.13 9.9 11.13 4.53 13.07 4.53 13.07 3.88 8.41 3.88 8.41 4.53"/><rect x="14.02" y="3.88" width=".79" height="6.02"/><path d="M17.29,5.01c.29-.38,.69-.56,1.19-.56,.41,0,.73,.11,.96,.32,.23,.22,.38,.56,.45,1.04h.8c-.06-.63-.29-1.12-.67-1.48-.39-.36-.9-.54-1.54-.54-.48,0-.91,.11-1.27,.34s-.65,.55-.85,.98c-.2,.42-.3,.92-.3,1.48v.58c0,.85,.21,1.54,.64,2.05,.43,.51,1,.76,1.71,.76,.66,0,1.18-.17,1.58-.52,.4-.35,.63-.84,.71-1.47h-.8c-.08,.5-.23,.84-.47,1.04-.24,.2-.57,.3-1.01,.3-.49,0-.87-.19-1.15-.58-.27-.39-.41-.91-.41-1.56v-.58c0-.69,.14-1.23,.43-1.6Z" stroke-width="0"/><polygon points="26.2 3.88 25.24 3.88 22.57 6.85 22.57 3.88 21.77 3.88 21.77 9.9 22.57 9.9 22.57 7.86 23.3 7.1 25.44 9.9 26.39 9.9 23.83 6.54 26.2 3.88"/><polygon points="27.88 7.12 30.48 7.12 30.48 6.47 27.88 6.47 27.88 4.53 30.87 4.53 30.87 3.88 27.08 3.88 27.08 9.9 30.91 9.9 30.91 9.25 27.88 9.25 27.88 7.12"/><polygon points="31.48 4.53 33.41 4.53 33.41 9.9 34.2 9.9 34.2 4.53 36.14 4.53 36.14 3.88 31.48 3.88 31.48 4.53"/><path d="M40.14,6.98c-.28-.17-.67-.32-1.17-.46-.5-.14-.85-.3-1.06-.47s-.31-.38-.31-.62c0-.31,.11-.55,.33-.72,.22-.17,.52-.26,.92-.26,.42,0,.75,.1,.98,.31,.23,.21,.35,.5,.35,.86h.8c0-.33-.09-.64-.27-.92s-.43-.5-.75-.66c-.32-.16-.69-.24-1.11-.24-.61,0-1.1,.16-1.48,.46-.38,.31-.57,.7-.57,1.18,0,.42,.15,.77,.46,1.06s.81,.53,1.49,.72c.54,.16,.92,.32,1.12,.48,.21,.16,.31,.39,.31,.68s-.11,.53-.33,.7-.54,.26-.96,.26c-.45,0-.81-.11-1.08-.32-.27-.21-.4-.5-.4-.86h-.8c0,.35,.1,.66,.29,.94,.19,.28,.47,.49,.83,.65,.36,.16,.74,.24,1.16,.24,.64,0,1.15-.15,1.53-.44,.38-.29,.57-.68,.57-1.17,0-.31-.07-.57-.2-.8-.14-.23-.35-.42-.63-.59Z" stroke-width="0"/><path d="M27.19,17.25l-2.69,2.69c-.2,.2-.2,.51,0,.71,.1,.1,.23,.15,.35,.15s.26-.05,.35-.15l2.69-2.69c.2-.2,.2-.51,0-.71s-.51-.2-.71,0Z" stroke-width="0"/><path d="M26.85,14.69c-.2-.2-.51-.2-.71,0l-4.54,4.54c-.2,.2-.2,.51,0,.71,.1,.1,.23,.15,.35,.15s.26-.05,.35-.15l4.54-4.54c.2-.2,.2-.51,0-.71Z" stroke-width="0"/></svg>