<?xml version="1.0" encoding="UTF-8"?><svg width="70" height="70" id="uuid-23567f2b-9266-4a7a-9d62-91bf5c0542ab" xmlns="http://www.w3.org/2000/svg" viewBox="-10 -10 70 70"><rect x="-10" y="-10" width="70" height="70" fill="white"/><path d="M44.99,14.69H7.55c-.24,2.28-2.06,4.1-4.34,4.34v14.47c2.28,.24,4.1,2.06,4.34,4.34H44.99c.24-2.28,2.06-4.1,4.34-4.34v-14.47c-2.28-.24-4.1-2.06-4.34-4.34Z" fill="#ffcd00" stroke-width="0"/><polygon points="10.82 28.44 10.82 21.72 13.25 21.72 13.25 20.9 7.42 20.9 7.42 21.72 9.84 21.72 9.84 28.44 10.82 28.44"/><rect x="14.44" y="20.9" width=".99" height="7.53"/><path d="M48.35,16.52c-2.12,0-3.85-1.73-3.85-3.85,0-.29-.23-.52-.52-.52H5.56c-.29,0-.52,.23-.52,.52,0,2.12-1.73,3.85-3.85,3.85-.29,0-.52,.23-.52,.52v15.46c0,.29,.23,.52,.52,.52,2.12,0,3.85,1.73,3.85,3.85,0,.29,.23,.52,.52,.52H43.98c.29,0,.52-.23,.52-.52,0-2.12,1.73-3.85,3.85-3.85,.29,0,.52-.23,.52-.52v-15.46c0-.29-.23-.52-.52-.52Zm-.52,15.48c-2.28,.24-4.1,2.06-4.34,4.34H6.05c-.24-2.28-2.06-4.1-4.34-4.34v-14.47c2.28-.24,4.1-2.06,4.34-4.34H43.49c.24,2.28,2.06,4.1,4.34,4.34v14.47Z" stroke-width="0"/><path d="M41.99,17.3H7.55c-.29,0-.52,.23-.52,.52s.23,.52,.52,.52H41.99c.29,0,.52-.23,.52-.52s-.23-.52-.52-.52Z" stroke-width="0"/><path d="M41.99,31H7.55c-.29,0-.52,.23-.52,.52s.23,.52,.52,.52H41.99c.29,0,.52-.23,.52-.52s-.23-.52-.52-.52Z" stroke-width="0"/><path d="M18.53,22.32c.36-.47,.86-.7,1.49-.7,.52,0,.92,.13,1.21,.4s.48,.71,.56,1.31h1c-.08-.79-.36-1.41-.84-1.85-.48-.45-1.13-.67-1.93-.67-.6,0-1.13,.14-1.59,.43-.46,.28-.81,.69-1.06,1.22-.25,.53-.37,1.15-.37,1.85v.72c0,1.07,.27,1.92,.8,2.56,.54,.64,1.25,.96,2.14,.96,.82,0,1.48-.22,1.97-.65,.5-.43,.79-1.05,.88-1.84h-1c-.1,.62-.29,1.06-.59,1.31-.3,.25-.72,.38-1.27,.38-.61,0-1.09-.24-1.43-.73-.34-.48-.51-1.13-.51-1.95v-.73c0-.87,.18-1.53,.54-2Z" stroke-width="0"/><polygon points="24.14 20.9 24.14 28.44 25.14 28.44 25.14 25.89 26.06 24.93 28.73 28.44 29.92 28.44 26.72 24.23 29.68 20.9 28.48 20.9 25.14 24.63 25.14 20.9 24.14 20.9"/><polygon points="35.52 21.72 35.52 20.9 30.79 20.9 30.79 28.44 35.57 28.44 35.57 27.63 31.78 27.63 31.78 24.96 35.05 24.96 35.05 24.14 31.78 24.14 31.78 21.72 35.52 21.72"/><polygon points="39.7 28.44 39.7 21.72 42.12 21.72 42.12 20.9 36.29 20.9 36.29 21.72 38.71 21.72 38.71 28.44 39.7 28.44"/></svg>