<?xml version="1.0" encoding="UTF-8"?><svg width="70" height="70" id="uuid-6c9ae135-7f48-4088-ae3f-cc86e61aba1b" xmlns="http://www.w3.org/2000/svg" viewBox="-10 -10 70 70"><rect x="-10" y="-10" width="70" height="70" fill="white"/><rect x="9.29" y="28.46" fill="#ffcd00"/><g><polygon points="49.24 10.79 49.24 16.53 48.95 16.53 48.95 15.82 48.95 10.79 49.24 10.79" fill="#ffcd00"/><rect x="3.34" y="16.32" width="44.61" height=".21" fill="#ffcd00"/><path d="M47.95,10.79v4.53H3.34v-4.53h5.96c.38,.73,1.14,1.23,2.03,1.23s1.65-.5,2.04-1.23h23.7c.38,.73,1.14,1.23,2.03,1.23s1.65-.5,2.04-1.23h6.81Z" fill="#ffcd00" stroke-width="0"/></g><g><path d="M48.45,8.58h-7.05v-1.49c0-1.26-1.04-2.3-2.3-2.3s-2.3,1.04-2.3,2.3v1.49H13.63v-1.49c0-1.26-1.03-2.3-2.3-2.3s-2.3,1.04-2.3,2.3v1.49H1.55c-.27,0-.5,.22-.5,.5V44.52c0,.27,.23,.5,.5,.5H48.45c.27,0,.5-.23,.5-.5V9.08c0-.28-.23-.5-.5-.5Zm-10.65,1v-2.49c0-.71,.58-1.3,1.3-1.3s1.3,.59,1.3,1.3v2.63c0,.45-.23,.84-.57,1.07-.21,.15-.46,.23-.73,.23s-.53-.08-.74-.23c-.34-.23-.56-.62-.56-1.07v-.14Zm-27.77,0v-2.49c0-.71,.58-1.3,1.3-1.3s1.3,.59,1.3,1.3v2.63c0,.45-.22,.84-.56,1.07-.21,.15-.47,.23-.74,.23s-.53-.08-.74-.23c-.34-.23-.56-.62-.56-1.07v-.14Zm37.92,6.95v27.49H2.05V16.32H47.95v.21Zm0-5.74v4.53H2.05v-5.74h6.98v.14c0,.38,.09,.75,.27,1.07,.38,.73,1.14,1.23,2.03,1.23s1.65-.5,2.04-1.23c.17-.32,.26-.69,.26-1.07v-.14h23.17v.14c0,.38,.09,.75,.27,1.07,.38,.73,1.14,1.23,2.03,1.23s1.65-.5,2.04-1.23c.16-.32,.26-.69,.26-1.07v-.14h6.55v1.21Z" stroke-width="0"/><path d="M7.5,41.25H42.5c.28,0,.5-.22,.5-.5V19.75c0-.28-.22-.5-.5-.5H7.5c-.28,0-.5,.22-.5,.5v21c0,.28,.22,.5,.5,.5Zm34.5-8h-6v-6h6v6Zm-7,0h-6v-6h6v6Zm-7,0h-6v-6h6v6Zm-7,0h-6v-6h6v6Zm-7,0h-6v-6h6v6Zm-6,1h6v6h-6v-6Zm7,0h6v6h-6v-6Zm7,0h6v6h-6v-6Zm7,0h6v6h-6v-6Zm13,6h-6v-6h6v6Zm0-14h-6v-6h6v6Zm-7,0h-6v-6h6v6Zm-7,0h-6v-6h6v6Zm-7,0h-6v-6h6v6Zm-13-6h6v6h-6v-6Z" stroke-width="0"/><path d="M9.61,31.64c.1,.1,.23,.15,.35,.15s.26-.05,.35-.15l.68-.68,.68,.68c.1,.1,.23,.15,.35,.15s.26-.05,.35-.15c.2-.2,.2-.51,0-.71l-.68-.68,.68-.68c.2-.2,.2-.51,0-.71s-.51-.2-.71,0l-.68,.68-.68-.68c-.2-.2-.51-.2-.71,0s-.2,.51,0,.71l.68,.68-.68,.68c-.2,.2-.2,.51,0,.71Z" stroke-width="0"/><path d="M16.61,31.64c.1,.1,.23,.15,.35,.15s.26-.05,.35-.15l.68-.68,.68,.68c.1,.1,.23,.15,.35,.15s.26-.05,.35-.15c.2-.2,.2-.51,0-.71l-.68-.68,.68-.68c.2-.2,.2-.51,0-.71s-.51-.2-.71,0l-.68,.68-.68-.68c-.2-.2-.51-.2-.71,0s-.2,.51,0,.71l.68,.68-.68,.68c-.2,.2-.2,.51,0,.71Z" stroke-width="0"/><path d="M23.61,31.64c.1,.1,.23,.15,.35,.15s.26-.05,.35-.15l.68-.68,.68,.68c.1,.1,.23,.15,.35,.15s.26-.05,.35-.15c.2-.2,.2-.51,0-.71l-.68-.68,.68-.68c.2-.2,.2-.51,0-.71s-.51-.2-.71,0l-.68,.68-.68-.68c-.2-.2-.51-.2-.71,0s-.2,.51,0,.71l.68,.68-.68,.68c-.2,.2-.2,.51,0,.71Z" stroke-width="0"/><path d="M30.61,31.64c.1,.1,.23,.15,.35,.15s.26-.05,.35-.15l.68-.68,.68,.68c.1,.1,.23,.15,.35,.15s.26-.05,.35-.15c.2-.2,.2-.51,0-.71l-.68-.68,.68-.68c.2-.2,.2-.51,0-.71s-.51-.2-.71,0l-.68,.68-.68-.68c-.2-.2-.51-.2-.71,0s-.2,.51,0,.71l.68,.68-.68,.68c-.2,.2-.2,.51,0,.71Z" stroke-width="0"/><path d="M37.61,31.64c.1,.1,.23,.15,.35,.15s.26-.05,.35-.15l.68-.68,.68,.68c.1,.1,.23,.15,.35,.15s.26-.05,.35-.15c.2-.2,.2-.51,0-.71l-.68-.68,.68-.68c.2-.2,.2-.51,0-.71s-.51-.2-.71,0l-.68,.68-.68-.68c-.2-.2-.51-.2-.71,0s-.2,.51,0,.71l.68,.68-.68,.68c-.2,.2-.2,.51,0,.71Z" stroke-width="0"/></g></svg>