<?xml version="1.0" encoding="UTF-8"?><svg width="70" height="70" xmlns="http://www.w3.org/2000/svg" viewBox="-10 -10 70 70"><rect x="-10" y="-10" width="70" height="70" fill="white"/><g id="uuid-e1fb4854-478f-4698-a0db-2342921f13dd"><g><g><path d="M15.12,16.74c7.58,.03,15.17,.06,22.75,.1,.24-2.15,.48-4.3,.72-6.45H14.41c.24,2.12,.47,4.24,.71,6.35Z" fill="#ffcd00" stroke-width="0"/><path d="M18.77,49.53h15.45c.49-4.65,.98-9.29,1.47-13.94H17.31l1.46,13.94Z" fill="#ffcd00" stroke-width="0"/></g><path d="M40.44,4.42h-2.66V.97c0-.28-.22-.5-.5-.5H12.72c-.28,0-.5,.22-.5,.5v3.44h-2.66c-.28,0-.5,.22-.5,.5v3.47c0,.28,.22,.5,.5,.5h2.34l.82,7.33h-.7c-.14,0-.28,.06-.37,.17-.09,.11-.14,.25-.12,.39l2.05,18.38c.03,.25,.24,.44,.5,.44h.81l1.45,13c.03,.25,.24,.44,.5,.44h16.35c.25,0,.47-.19,.5-.44l1.45-13h.81c.25,0,.47-.19,.5-.44l2.05-18.38c.02-.14-.03-.28-.12-.39-.09-.11-.23-.17-.37-.17h-.7l.82-7.33h2.34c.28,0,.5-.22,.5-.5v-3.47c0-.28-.22-.5-.5-.5Zm-.5,3.47H10.06v-2.47h29.88v2.47ZM13.22,1.47h23.56v2.94H13.22V1.47Zm1.3,33.11l-1.94-17.38h24.84l-1.94,17.38H14.52Zm18.21,13.44h-15.45l-1.39-12.44h18.23l-1.39,12.44Zm3.55-31.82H13.73l-.82-7.33h24.18l-.82,7.33Z" stroke-width="0"/></g></g><g id="uuid-e88f0182-ed5e-428e-b489-ccd3119f00c0"></g></svg>