<?xml version="1.0" encoding="UTF-8"?><svg width="70" height="70" id="uuid-ef700150-e1f2-4c35-9548-c3cb93c8dcf5" xmlns="http://www.w3.org/2000/svg" viewBox="-10 -10 70 70"><rect x="-10" y="-10" width="70" height="70" fill="white"/><path d="M13.75,9.67h22v4.4h1v-4.9c0-.28-.22-.5-.5-.5H13.25c-.28,0-.5,.22-.5,.5v4.9h1v-4.4Z" stroke-width="0"/><path d="M3.22,16.57v24.76H49.28V16.57H3.22Zm9.53,11.43h-3.65v-4.79h3.65v4.79Zm16.88-2.22h-9.76v-1.89h9.76v1.89Zm10.77,2.22h-3.65v-4.79h3.65v4.79Z" fill="#ffcd00" stroke-width="0"/><path d="M48.28,14.07H1.22c-.28,0-.5,.22-.5,.5v25.76c0,.28,.22,.5,.5,.5H48.28c.28,0,.5-.22,.5-.5V14.57c0-.28-.22-.5-.5-.5Zm-.5,25.76H1.72v-14.5h6.38v3.17c0,.28,.22,.5,.5,.5h4.65c.28,0,.5-.22,.5-.5v-3.17h5.12v.95c0,.28,.22,.5,.5,.5h10.76c.28,0,.5-.22,.5-.5v-.95h5.12v3.17c0,.28,.22,.5,.5,.5h4.65c.28,0,.5-.22,.5-.5v-3.17h6.38v14.5ZM9.1,28v-4.79h3.65v4.79h-3.65Zm10.77-2.22v-1.89h9.76v1.89h-9.76Zm16.88,2.22v-4.79h3.65v4.79h-3.65Zm11.03-3.67h-6.38v-1.62c0-.28-.22-.5-.5-.5h-4.65c-.28,0-.5,.22-.5,.5v1.62h-5.12v-.95c0-.28-.22-.5-.5-.5h-10.76c-.28,0-.5,.22-.5,.5v.95h-5.12v-1.62c0-.28-.22-.5-.5-.5h-4.65c-.28,0-.5,.22-.5,.5v1.62H1.72V15.07H47.78v9.26Z" stroke-width="0"/></svg>