<?xml version="1.0" encoding="UTF-8"?><svg width="70" height="70" xmlns="http://www.w3.org/2000/svg" viewBox="-10 -10 70 70"><rect x="-10" y="-10" width="70" height="70" fill="white"/><g id="uuid-93701422-6f08-4ff4-8848-3956caa8278b"><g><polygon points="45.98 35.19 25.21 35.19 24.32 35.19 24.32 36.4 24.32 36.9 3.16 36.9 3.16 40.66 24.32 40.66 30 40.66 46.87 40.66 46.87 35.19 45.98 35.19" fill="#ffcd00"/><path d="M34.09,30c.28,0,.5-.22,.5-.5v-5.82h-1v5.82c0,.28,.22,.5,.5,.5Z" fill="none" stroke-width="0"/><path d="M39.29,30c.28,0,.5-.22,.5-.5v-5.83h-1v5.83c0,.28,.22,.5,.5,.5Z" fill="none" stroke-width="0"/><path d="M28.9,30c.28,0,.5-.22,.5-.5v-5.82h-1v5.82c0,.28,.22,.5,.5,.5Z" fill="none" stroke-width="0"/><path d="M49.34,17.74c0-2.27-1.31-4.28-3.23-5.27,.23,.44,.35,.93,.35,1.45,0,1.75-1.42,3.17-3.17,3.17H27.18c-1.81,0-3.29,1.47-3.29,3.29,0,1.18,.63,2.21,1.57,2.79h2.94v.5h1v-.5h4.19v.5h1v-.5h4.19v.5h1v-.5h4.19v.46c3.03-.31,5.36-2.84,5.36-5.9Z" fill="#ffcd00" stroke-width="0"/><path d="M48.84,16.24c0-3.58-2.79-6.61-6.36-6.9-.25-.02-.49,.16-.53,.42-.04,.26,.12,.5,.37,.57,.97,.24,1.64,1.11,1.64,2.1,0,1.2-.98,2.17-2.17,2.17H25.68c-2.36,0-4.29,1.92-4.29,4.29,0,1.47,.75,2.78,1.88,3.55-.04,.07-.07,.15-.07,.24v10.01h-.89c-.28,0-.5,.22-.5,.5v1.21H1.16c-.28,0-.5,.22-.5,.5v4.76c0,.28,.22,.5,.5,.5H45.87c.28,0,.5-.22,.5-.5v-6.47c0-.28-.22-.5-.5-.5h-.89v-10.01c0-.07-.02-.14-.05-.21,2.31-1.13,3.91-3.49,3.91-6.23Zm-27.02,22.92H1.66v-3.76H21.82v3.76Zm23.55-5.47v5.47H22.82v-5.47h22.55Zm-16.47-3.69c.28,0,.5-.22,.5-.5v-6.32h4.19v6.32c0,.28,.22,.5,.5,.5s.5-.22,.5-.5v-6.32h4.19v6.32c0,.28,.22,.5,.5,.5s.5-.22,.5-.5v-6.32h4.19v9.51H24.21v-9.51h4.19v6.32c0,.28,.22,.5,.5,.5Zm12.96-7.83H25.68c-1.81,0-3.29-1.47-3.29-3.29s1.48-3.29,3.29-3.29h16.1c1.75,0,3.17-1.42,3.17-3.17,0-.52-.13-1.02-.35-1.45,1.92,.99,3.23,3,3.23,5.27,0,3.27-2.66,5.93-5.98,5.93Z" stroke-width="0"/></g></g><g id="uuid-e458d944-cd67-4dc0-b347-e0a79f3ccaec"></g></svg>