<?xml version="1.0" encoding="UTF-8"?><svg width="70" height="70" xmlns="http://www.w3.org/2000/svg" viewBox="-10 -10 70 70"><rect x="-10" y="-10" width="70" height="70" fill="white"/><g id="uuid-2bc76074-646c-4022-b813-65e480380ca1"><path d="M39.08,14.97l-2.11-2.49c-.14,.07-.26,.19-.29,.35l-1.07,6.02-1.32-5.88c-.04-.19-.19-.33-.38-.38l-6.34-1.47,6.58-1.4s.06-.04,.1-.05c-.7-.42-1.43-.76-2.19-.99-2.55-.78-4.86-.36-6.34,.13-.82,.29-1.67,.47-2.53,.54-1.01,.08-2.01,0-2.99-.23-1.51-.56-3.75-1.07-6.24-.37-4.77,1.34-7.62,5.98-7.88,9.67-.22,3.09,1.25,7.16,2.31,8.94,.23,.39,.78,1.29,1.14,2.6,.37,1.32,.37,2.41,.37,2.82,0,2.94,.31,7.36,.64,9.5,.48,3.07,1.91,7.39,3.33,7.54,.73,.05,2.79-.99,6.44-12.4,.3-1.31,1.53-2.28,2.91-2.28h.04c1.39,.02,2.61,1.02,2.89,2.38,3.55,10.9,5.64,12.39,6.54,12.3,1.3-.12,2.73-3.54,3.21-6.54,.28-1.76,.25-3.78,.21-5.91-.02-1.5-.05-3.06,.04-4.54,.04-.68,.15-1.72,.59-2.96,.33-.92,.71-1.57,.84-1.78,.05-.08,3.12-5.4,2.38-10.25-.15-.97-.46-1.93-.89-2.85Z" fill="#ffcd00" stroke-width="0"/><path d="M46.04,10.49l-8.6-1.67-1.4-8.21c-.04-.24-.25-.42-.49-.42h0c-.24,0-.45,.17-.49,.41l-1.25,7.04c-.93-.63-1.93-1.12-2.97-1.43-2.81-.85-5.33-.39-6.96,.14-.74,.26-1.51,.43-2.28,.49-.9,.07-1.8,0-2.62-.19-1.58-.6-4.05-1.15-6.8-.37C6.97,7.74,3.86,12.81,3.58,16.84c-.26,3.66,1.54,8,2.48,9.57,.19,.31,.68,1.13,1.01,2.31,.33,1.19,.33,2.14,.33,2.58,0,2.95,.31,7.45,.65,9.63,.01,.08,1.3,8.07,4.21,8.38,1.35,.14,3.65-1.05,7.51-13.13,.21-.91,1.04-1.55,1.97-1.54,.93,.01,1.74,.68,1.94,1.64,3.72,11.44,6,13.04,7.41,13.04,.06,0,.13,0,.19,0,2.44-.24,3.79-5.4,4.1-7.38,.29-1.84,.26-3.9,.23-6.08-.02-1.48-.05-3.02,.04-4.46,.02-.39,.09-1.44,.54-2.69,.3-.83,.64-1.42,.78-1.64,.13-.23,3.28-5.68,2.49-10.87-.16-1.03-.49-2.06-.95-3.04l7.54-1.66c.23-.05,.4-.26,.39-.49,0-.24-.17-.44-.4-.49Zm-9.95,16.08c-.13,.21-.51,.86-.84,1.78-.44,1.24-.55,2.29-.59,2.96-.09,1.48-.07,3.03-.04,4.54,.03,2.14,.07,4.16-.21,5.91-.48,2.99-1.91,6.41-3.21,6.54-.91,.09-2.99-1.39-6.54-12.3-.29-1.36-1.5-2.36-2.89-2.38h-.04c-1.38,0-2.61,.97-2.91,2.28-3.65,11.42-5.71,12.46-6.44,12.4-1.42-.15-2.85-4.47-3.33-7.54-.34-2.14-.64-6.57-.64-9.5,0-.41,0-1.5-.37-2.82-.37-1.31-.91-2.21-1.14-2.6-1.06-1.77-2.53-5.84-2.31-8.94,.26-3.69,3.11-8.33,7.88-9.67,2.49-.7,4.73-.2,6.24,.37,.98,.23,1.98,.3,2.99,.23,.86-.07,1.71-.25,2.53-.54,1.48-.49,3.79-.91,6.34-.13,1.08,.33,2.11,.87,3.06,1.56v.07l-8.46,1.8c-.23,.05-.39,.25-.4,.48s.16,.44,.39,.49l8.22,1.91,1.8,8c.05,.23,.25,.39,.49,.39h.01c.24,0,.44-.18,.48-.41l1.43-7.99c.44,.92,.75,1.88,.89,2.85,.74,4.85-2.33,10.16-2.38,10.25Zm.97-14.14c-.2,.04-.35,.2-.38,.4l-1.07,6.02-1.32-5.88c-.04-.19-.19-.33-.38-.38l-6.34-1.47,6.58-1.4c.2-.04,.35-.2,.39-.4l1.01-5.7,.98,5.72c.04,.21,.19,.37,.4,.41l6.57,1.28-6.43,1.42Z" stroke-width="0"/></g><g id="uuid-7f2d1efe-e0d4-468f-ba64-55cc0252c492"></g></svg>