<?xml version="1.0" encoding="utf-8"?> <!-- Generator: Adobe Illustrator 27.7.0, SVG Export Plug-In . SVG Version: 6.00 Build 0) --> <svg width="70" height="70" version="1.1" xmlns="http://www.w3.org/2000/svg" xmlns:xlink="http://www.w3.org/1999/xlink" x="0px" y="0px" viewBox="-10 -10 70 70" style="enable-background:new 0 0 50 50;" xml:space="preserve"><rect x="-10" y="-10" width="70" height="70" fill="white"/> <style type="text/css"> .st0{fill:#FFCD00;} .st1{display:none;} .st2{display:inline;fill:none;stroke:#EA008A;stroke-width:0.2;stroke-miterlimit:10;} .st3{font-family:'Roboto-Regular';} .st4{font-size:6px;} </style> <g id="Color"> <path class="st0" d="M24.2949,15.5376c-0.4531,4.2417-1.8496,7.1406-4.6221,9.6313c-0.7437,0.6685-1.5308,1.3198-2.3052,1.9604 c-2.5957,2.1484-5.0474,4.1772-5.0283,6.1719c0.0093,0.9883,0.6284,1.9585,1.8931,2.9648l0.1885,0.1499v0.2412 c0,1.9517,2.4604,3.8438,6.2676,4.8203l0.2695,0.0693l0.0835,0.2651c0.8994,2.4937,3.0386,4.0859,5.4585,4.0859 c2.3853,0,4.5137-1.5615,5.4214-3.9785l0.1289-0.3486l0.2646-0.0942c3.8052-0.9771,6.2642-2.8687,6.2642-4.8193V36.416 l0.1885-0.1499c1.2646-1.0063,1.8838-1.9766,1.8931-2.9648c0.019-1.9946-2.4326-4.0234-5.0283-6.1719 c-0.7739-0.6406-1.5615-1.292-2.3052-1.9604l0,0c-2.7725-2.4907-4.1689-5.3896-4.6221-9.6313H24.2949z" stroke-width="0"/> <path class="st0" d="M24.3887,7.8232c-0.4307-1.5029-0.334-2.8208,0.2651-3.6157C25.0659,3.6606,25.687,3.3833,26.5,3.3833 s1.4341,0.2773,1.8462,0.8242c0.5991,0.7949,0.6958,2.1128,0.2578,3.6431l-0.7578,3.3413h-1.3414 c-0.0017,0-0.0031-0.001-0.0048-0.001s-0.0031,0.001-0.0048,0.001h-1.3414L24.3887,7.8232z" stroke-width="0"/> </g> <g id="ICONS_00000031165542127692736420000002692518830807990202_"> <path d="M40.1606,31.811c0.0234-2.4707-2.606-4.6475-5.3901-6.9512c-0.7642-0.6323-1.541-1.2754-2.2754-1.9351 c-2.665-2.394-3.9624-5.2148-4.3384-9.4316c-0.0229-0.2578-0.2393-0.4556-0.498-0.4556H25.5v-2.3457h1.2456 c0.2334,0,0.436-0.1616,0.4878-0.3896l0.8389-3.7036c0.5259-1.834,0.374-3.4297-0.4272-4.4927 C27.042,1.3062,26.1274,0.8833,25,0.8833s-2.042,0.4229-2.645,1.2227c-0.8013,1.063-0.9531,2.6587-0.4346,4.4653l0.8462,3.731 c0.0518,0.228,0.2544,0.3896,0.4878,0.3896H24.5v2.3457h-2.1587c-0.2588,0-0.4751,0.1978-0.498,0.4556 c-0.376,4.2168-1.6733,7.0376-4.3384,9.4316c-0.7344,0.6597-1.5112,1.3027-2.2754,1.9351 c-2.7842,2.3037-5.4136,4.4805-5.3901,6.9512c0.0117,1.2582,0.7065,2.4368,2.1063,3.5978c0.176,2.3994,2.8235,4.4312,6.7585,5.4862 c0.7272,1.8391,2.0688,3.2249,3.713,3.9436c0.0428,1.6376,0.6848,3.5594,2.3978,4.2424C24.874,49.105,24.937,49.1167,25,49.1167 s0.126-0.0117,0.1851-0.0356c1.7137-0.6833,2.3555-2.6063,2.3978-4.2443c1.6434-0.7205,2.9922-2.1058,3.7189-3.9435 c3.9316-1.0555,6.5766-3.0862,6.7526-5.4844C39.4542,34.2478,40.1489,33.0693,40.1606,31.811z M22.8887,6.3232 c-0.4307-1.5029-0.334-2.8208,0.2651-3.6157C23.5659,2.1606,24.187,1.8833,25,1.8833s1.4341,0.2773,1.8462,0.8242 c0.5991,0.7949,0.6958,2.1128,0.2578,3.6431l-0.7578,3.3413h-1.3414c-0.0017,0-0.0031-0.001-0.0048-0.001 s-0.0031,0.001-0.0048,0.001h-1.3414L22.8887,6.3232z M15.8672,25.6304c0.7744-0.6411,1.5615-1.293,2.3057-1.9614 c2.7725-2.4907,4.1689-5.3896,4.6221-9.6313h4.4102c0.4531,4.2417,1.8496,7.1406,4.6221,9.6313 c0.7441,0.6685,1.5312,1.3203,2.3057,1.9614c1.5635,1.2935,3.0703,2.5437,4.0207,3.7695h-26.307 C12.7969,28.1741,14.3037,26.9238,15.8672,25.6304z M25,48.0684c-1.0128-0.5165-1.4637-1.735-1.5665-2.8837 c0.5071,0.1271,1.0275,0.2133,1.5665,0.2133c0.5383,0,1.0591-0.0862,1.5666-0.2141C26.464,46.3328,26.0131,47.5517,25,48.0684z M25,44.3979c-2.1322,0-4.0438-1.2381-5.0784-3.2174c1.5547,0.3179,3.2674,0.4938,5.0784,0.4938 c1.8088,0,3.5195-0.1755,5.0726-0.4927C29.036,43.157,27.1225,44.3979,25,44.3979z M25,40.6743 c-6.1792,0-11.4531-2.2505-12.0273-5.0171h24.0547C36.4531,38.4238,31.1792,40.6743,25,40.6743z M37.3962,34.6572H12.6038 c-1.1738-0.9674-1.7555-1.903-1.7644-2.856c-0.0045-0.4692,0.1319-0.9404,0.3705-1.4145c0.0223,0.003,0.042,0.0131,0.0651,0.0131 h27.5215c0.2344,0.4697,0.3687,0.9365,0.3643,1.4014C39.1517,32.7542,38.57,33.6898,37.3962,34.6572z" stroke-width="0"/> </g> <g id="Margin" class="st1"> <rect x="1" y="1" class="st2" /> </g> <g id="Guides" class="st1"> </g> <g id="LABELS"> <g> <g> </g> </g> </g> </svg> 