<?xml version="1.0" encoding="UTF-8"?><svg width="70" height="70" id="uuid-8a36d25b-215f-40da-9879-1b5d1e4b1caa" xmlns="http://www.w3.org/2000/svg" viewBox="-10 -10 70 70"><rect x="-10" y="-10" width="70" height="70" fill="white"/><path d="M38.55,23.51c-1.25,0-2.27,1.01-2.27,2.26,0,.22-.18,.4-.4,.4h0c-.22,0-.4-.18-.4-.4v-2.25c0-1.25-1.02-2.27-2.27-2.27s-2.27,1.02-2.27,2.27c0,.22-.18,.4-.4,.4s-.4-.18-.4-.4v-1.97c.09-.94-.34-1.79-1.09-2.22-.88-.5-1.91-.22-2.53,.28-.63,.51-.81,1.22-.86,1.51-.04,.21-.23,.34-.43,.33-.21-.02-.37-.19-.37-.4l-.06-7c0-1.25-1.02-2.27-2.27-2.27s-2.27,1.02-2.27,2.27v19.38c0,.2-.14,.37-.34,.4-.19,.03-.39-.08-.45-.27-.06-.19-.16-.46-.29-.77-.16-.37-.65-1.5-1.64-2.55-.83-.88-1.89-1.58-3.07-2.02-.76-.36-1.63-.18-2.16,.43-.53,.61-.57,1.51-.11,2.18l10.36,15.57c.04,.07,.07,.14,.07,.22v3.37h14.61l-.03-5.02c0-.07,.02-.16,.06-.23,.85-1.42,1.56-2.92,2.12-4.47,.91-2.53,1.4-5.2,1.46-7.92v-6.56c0-1.25-1.02-2.27-2.27-2.27Z" fill="#ffcd00" stroke-width="0"/><g><path d="M36.93,21.02c-.85,0-1.62,.33-2.19,.87-.02-1.74-1.45-3.14-3.19-3.14-.85,0-1.63,.34-2.21,.89-.16-1.61-1.52-2.87-3.17-2.87-.85,0-1.62,.33-2.19,.87v-5.24c0-1.76-1.43-3.19-3.19-3.19s-3.19,1.43-3.19,3.19V29.62c-.29-.47-.67-1.02-1.16-1.55-.93-.99-2.11-1.77-3.39-2.25-1.1-.52-2.42-.25-3.21,.68-.8,.93-.87,2.29-.18,3.29l10.32,15.54v3.65c0,.28,.22,.5,.5,.5h15.51c.28,0,.5-.22,.5-.5l-.02-5.34c.85-1.44,1.57-2.96,2.13-4.54,.94-2.64,1.46-5.42,1.52-8.27v-6.61c0-1.76-1.43-3.19-3.19-3.19Zm2.19,9.79c-.06,2.73-.56,5.4-1.46,7.94-.56,1.55-1.27,3.06-2.12,4.48-.05,.08-.07,.17-.07,.26l.03,4.97h-14.51v-3.3c0-.1-.03-.19-.08-.28l-10.41-15.67c-.44-.64-.4-1.49,.11-2.08,.5-.58,1.33-.76,2.06-.41,1.17,.44,2.23,1.13,3.05,2.01,.98,1.05,1.47,2.17,1.63,2.54,.13,.31,.23,.57,.29,.76,.08,.23,.32,.37,.55,.34,.24-.04,.42-.25,.42-.49V12.4c0-1.21,.98-2.19,2.19-2.19s2.19,.98,2.19,2.19v15.29c0,.28,.22,.5,.5,.5s.5-.22,.5-.5v-7.73c0-1.21,.98-2.19,2.19-2.19s2.19,.98,2.19,2.19v7.87c0,.28,.22,.5,.5,.5s.5-.22,.5-.5v-5.89c0-1.21,.98-2.19,2.19-2.19s2.19,.98,2.19,2.19v5.89c0,.28,.22,.5,.5,.5s.5-.22,.5-.5v-3.62c0-1.2,.99-2.18,2.19-2.18s2.19,.98,2.19,2.19v6.6Z" stroke-width="0"/><path d="M26.7,10.78c0,.28,.22,.5,.5,.5h4.7c.28,0,.5-.22,.5-.5s-.22-.5-.5-.5h-4.7c-.28,0-.5,.22-.5,.5Z" stroke-width="0"/><path d="M20.61,5.73c.28,0,.5-.22,.5-.5V.53c0-.28-.22-.5-.5-.5s-.5,.22-.5,.5V5.23c0,.28,.22,.5,.5,.5Z" stroke-width="0"/><path d="M9.68,11.28h4.7c.28,0,.5-.22,.5-.5s-.22-.5-.5-.5h-4.7c-.28,0-.5,.22-.5,.5s.22,.5,.5,.5Z" stroke-width="0"/><path d="M25.37,7.49c.15,0,.29-.06,.39-.19l2.95-3.66c.17-.21,.14-.53-.08-.7-.21-.17-.53-.14-.7,.08l-2.95,3.66c-.17,.21-.14,.53,.08,.7,.09,.07,.2,.11,.31,.11Z" stroke-width="0"/><path d="M15.47,7.07c.1,.12,.24,.19,.39,.19,.11,0,.22-.04,.31-.11,.22-.17,.25-.49,.08-.7l-2.95-3.66c-.17-.21-.49-.25-.7-.08-.22,.17-.25,.49-.08,.7l2.95,3.66Z" stroke-width="0"/></g></svg>