<?xml version="1.0" encoding="utf-8"?> <!-- Generator: Adobe Illustrator 27.7.0, SVG Export Plug-In . SVG Version: 6.00 Build 0) --> <svg width="70" height="70" version="1.1" xmlns="http://www.w3.org/2000/svg" xmlns:xlink="http://www.w3.org/1999/xlink" x="0px" y="0px" viewBox="-10 -10 70 70" style="enable-background:new 0 0 50 50;" xml:space="preserve"><rect x="-10" y="-10" width="70" height="70" fill="white"/> <style type="text/css"> .st0{fill:#FFCD00;} .st1{display:none;} .st2{display:inline;fill:none;stroke:#EA008A;stroke-width:0.2;stroke-miterlimit:10;} .st3{font-family:'Roboto-Regular';} .st4{font-size:6px;} </style> <g id="Color"> <g> <path class="st0" d="M31.5693,30.5078l-7.418,4.1025c-0.3096,0.1714-0.5088,0.4712-0.5459,0.8232 c-0.0233,0.2204,0.0267,0.4307,0.1279,0.6166l0.7305,0.6345c0.1541-0.1916,0.3452-0.3583,0.5732-0.4846l7.5731-4.1882 L32.377,30.52c-0.0059-0.0375-0.0205-0.0713-0.03-0.1074C32.0861,30.343,31.8121,30.3725,31.5693,30.5078z" stroke-width="0"/> </g> <path class="st0" d="M34.3389,43.0786c0.0752,0.4766-0.1943,0.8101-0.4717,0.9634c-0.2754,0.1533-0.7021,0.2046-1.0664-0.1123 l-5.311-4.6158l5.7626-3.187L34.3389,43.0786z" stroke-width="0"/> <path class="st0" d="M10.2676,20.0454c0.2021-0.0693,0.3379-0.2593,0.3379-0.4731v-2.5894h3.1133v2.5894 c0,0.2139,0.1357,0.4038,0.3379,0.4731c2.3701,0.8115,3.9629,3.0366,3.9629,5.5371c0,3.2295-2.6279,5.8569-5.8574,5.8569 s-5.8564-2.6274-5.8564-5.8569C6.3057,23.082,7.8975,20.8564,10.2676,20.0454z" stroke-width="0"/> <path class="st0" d="M36.876,13.2329h-5.1865v0.5483c2.0977,0.8701,3.4834,2.9214,3.4834,5.2134 c0,3.1147-2.5342,5.6489-5.6494,5.6489c-2.4821,0-4.5906-1.6109-5.3471-3.8403c-0.5812-0.8337-0.9273-1.8425-0.9273-2.9337 c0-2.0026,1.1682-3.7927,2.9484-4.6367h-3.6926c-0.5166,0-0.9375,0.4209-0.9375,0.938v11.0239c0,0.5171,0.4209,0.938,0.9375,0.938 H36.876c0.5176,0,0.9385-0.4209,0.9385-0.938V14.1709C37.8145,13.6538,37.3936,13.2329,36.876,13.2329z" stroke-width="0"/> <path class="st0" d="M29.3193,17.5513c0,0.3301-0.4287,1.4072-0.9414,2.5068c-0.5127-1.0996-0.9414-2.1768-0.9414-2.5068 c0-0.519,0.4219-0.9409,0.9414-0.9409S29.3193,17.0322,29.3193,17.5513z" stroke-width="0"/> <path class="st0" d="M46.2207,25.3877c-0.4082,0-0.8213,0.1001-1.2031,0.311l-7.8375,4.3347 c-0.2197,0.1216-0.3789,0.3208-0.4482,0.5615s-0.04,0.4941,0.0811,0.7134l1.4571,2.6352c0.0002,0.0004,0.0007,0.0006,0.0009,0.001 s0.0002,0.0009,0.0004,0.0013l0.0484,0.0875c0.0656,0.1186,0.1548,0.2145,0.2567,0.2913c0.098-0.0288,0.1956-0.0626,0.2889-0.1138 l8.0596-4.4575c0.6992-0.3867,1.207-1.0234,1.4287-1.792v-0.001c0.1139-0.3969,0.1412-0.8038,0.0911-1.2015 c-0.0139-0.0275-0.0214-0.0571-0.0364-0.0842C47.9531,25.8525,47.0996,25.3877,46.2207,25.3877z" stroke-width="0"/> <path class="st0" d="M28.085,45.7744c-0.252-0.5693-0.7109-1.0068-1.292-1.2314c-0.5391-0.2075-1.1416-0.2041-1.6914,0.0132 c-0.1182,0.0449-0.2471,0.0459-0.3633,0.001l-3.6298-1.4013l-0.206,0.5335l-2.7443-1.0599 c-0.2568-0.0996-0.3848-0.3887-0.2861-0.6465l0.9229-2.3882L8.7881,35.7275c-0.4756-0.1836-0.9717-0.2754-1.4668-0.2754 c-0.5586,0-1.1172,0.1167-1.6445,0.3501c-0.9932,0.4395-1.7549,1.2397-2.1465,2.2529s-0.3652,2.1182,0.0742,3.1113 s1.2393,1.7554,2.2529,2.147l10.0068,3.8677l0.9219-2.3872c0.0996-0.2573,0.3857-0.3877,0.6475-0.2861l2.7437,1.0599 l-0.2065,0.5349l2.7369,1.0568c0.1162,0.0449,0.9005,0.7182,0.9562,0.8305c0.2627,0.5312,0.9084,0.6971,1.4465,0.9051 c0.583,0.2246,1.2168,0.2104,1.7852-0.043c0.5703-0.252,1.0078-0.7114,1.2314-1.2925 C28.3525,46.978,28.3369,46.3442,28.085,45.7744z" stroke-width="0"/> </g> <g id="ICONS_00000031165542127692736420000002692518830807990202_"> <g> <path d="M48.5332,25.4404c-0.9346-1.6865-3.0654-2.2993-4.75-1.3667l-8.0596,4.4575c-0.4531,0.2505-0.7812,0.6621-0.9248,1.1597 c-0.1052,0.3669-0.0992,0.7479,0.011,1.1046l-1.2678,0.7012l-0.1768-1.1309c-0.1035-0.6631-0.5254-1.2354-1.1289-1.5303 c-0.6025-0.2954-1.3135-0.2773-1.9014,0.0474l-7.418,4.1025c-0.5898,0.3267-0.9844,0.9219-1.0557,1.5928 s0.1904,1.3354,0.6992,1.7783l1.4923,1.2962c-0.0545,0.4024,0.0086,0.8239,0.2196,1.2057 c0.3574,0.6445,1.0264,1.0088,1.7148,1.0088c0.1757,0,0.3515-0.0292,0.5247-0.0779l5.6325,4.8953 c0.3643,0.3159,0.8125,0.478,1.2656,0.478c0.3203,0,0.6436-0.0806,0.9414-0.2456c0.7197-0.3984,1.1025-1.1807,0.9756-1.9927 l-1.1429-7.3127l2.5295-1.3989c0.3732,0.4303,0.9048,0.6775,1.4591,0.6775c0.3164,0,0.6377-0.0776,0.9346-0.2417l8.0596-4.4575 c0.8164-0.4517,1.4082-1.1948,1.667-2.0918C49.0918,27.2017,48.9854,26.2578,48.5332,25.4404z M23.2168,35.6016 c-0.2666-0.2319-0.3984-0.5664-0.3613-0.918c0.0371-0.3521,0.2363-0.6519,0.5459-0.8232l7.418-4.1025 c0.3057-0.1704,0.6621-0.1802,0.9775-0.0244c0.3145,0.1543,0.5264,0.4409,0.5801,0.7866l0.2333,1.4919l-7.5731,4.1882 c-0.2281,0.1262-0.4191,0.293-0.5732,0.4846L23.2168,35.6016z M25.1475,38.3745c-0.2549-0.4614-0.0869-1.0444,0.374-1.2993 l9.735-5.3839l0.925,1.6727l-2.7276,1.5085c-0.0453,0.0181-0.0867,0.0392-0.1241,0.0686l-6.8835,3.8069 C25.9844,39.0029,25.4033,38.8345,25.1475,38.3745z M34.3389,43.0786c0.0752,0.4766-0.1943,0.8101-0.4717,0.9634 c-0.2754,0.1533-0.7021,0.2046-1.0664-0.1123l-5.311-4.6158l5.7626-3.187L34.3389,43.0786z M47.873,27.8228 c-0.1846,0.6401-0.6074,1.1709-1.1904,1.4932l-8.0596,4.4575c-0.4541,0.2495-1.0254,0.085-1.2754-0.3672l-0.0484-0.0875 c-0.0002-0.0004-0.0002-0.0009-0.0004-0.0013s-0.0007-0.0006-0.0009-0.001l-1.4571-2.6352 c-0.1211-0.2192-0.1504-0.4727-0.0811-0.7134s0.2285-0.4399,0.4482-0.5615l8.0596-4.4575c0.3818-0.2109,0.7949-0.311,1.2031-0.311 c0.8789,0,1.7324,0.4648,2.1875,1.2871C47.9805,26.5078,48.0566,27.1821,47.873,27.8228z" stroke-width="0"/> <path d="M26.4365,17.5513c0,0.8706,1.2451,3.3838,1.4951,3.8784c0.085,0.1685,0.2578,0.2749,0.4463,0.2749 s0.3613-0.1064,0.4463-0.2749c0.25-0.4946,1.4951-3.0078,1.4951-3.8784c0-1.0703-0.8711-1.9409-1.9414-1.9409 S26.4365,16.481,26.4365,17.5513z M29.3193,17.5513c0,0.3301-0.4287,1.4072-0.9414,2.5068 c-0.5127-1.0996-0.9414-2.1768-0.9414-2.5068c0-0.519,0.4219-0.9409,0.9414-0.9409S29.3193,17.0322,29.3193,17.5513z" stroke-width="0"/> <path d="M11.0371,31.3145c3.7812,0,6.8574-3.0762,6.8574-6.8569c0-2.8071-1.7139-5.3184-4.3008-6.3574v-2.7422 c0-0.2764-0.2236-0.5-0.5-0.5h-1.582v-4.5698c0-4.5122,3.6709-8.1831,8.1836-8.1831c4.4142,0,8.0139,3.5163,8.168,7.894h-1.1309 c-0.2764,0-0.5,0.2236-0.5,0.5v0.6089h-4.8525c-1.0684,0-1.9375,0.8691-1.9375,1.938v10.6489c0,1.0688,0.8691,1.938,1.9375,1.938 H35.376c1.0693,0,1.9385-0.8691,1.9385-1.938V13.0459c0-1.0688-0.8691-1.938-1.9385-1.938h-4.8115V10.499 c0-0.2764-0.2236-0.5-0.5-0.5h-1.2012c-0.1545-4.9291-4.2021-8.894-9.168-8.894c-5.0635,0-9.1836,4.1196-9.1836,9.1831v4.5698 H8.9805c-0.2764,0-0.5,0.2236-0.5,0.5v2.7422c-2.5859,1.0391-4.2998,3.5498-4.2998,6.3574 C4.1807,28.2383,7.2568,31.3145,11.0371,31.3145z M35.376,12.1079c0.5176,0,0.9385,0.4209,0.9385,0.938v10.6489 c0,0.5171-0.4209,0.938-0.9385,0.938H21.3799c-0.5166,0-0.9375-0.4209-0.9375-0.938V13.0459c0-0.5171,0.4209-0.938,0.9375-0.938 h4.8525v0.5483c-2.0977,0.8701-3.4834,2.9214-3.4834,5.2134c0,3.1147,2.5342,5.6489,5.6494,5.6489s5.6494-2.5342,5.6494-5.6489 c0-2.292-1.3857-4.3433-3.4834-5.2134v-0.5483H35.376z M29.9023,13.4746c1.8818,0.6436,3.1455,2.4097,3.1455,4.395 c0,2.5635-2.0859,4.6489-4.6494,4.6489s-4.6494-2.0854-4.6494-4.6489c0-1.9854,1.2637-3.7515,3.1455-4.395 c0.2021-0.0693,0.3379-0.2593,0.3379-0.4731V10.999h2.332v2.0024C29.5645,13.2153,29.7002,13.4053,29.9023,13.4746z M9.1426,18.9204c0.2021-0.0693,0.3379-0.2593,0.3379-0.4731v-2.5894h3.1133v2.5894c0,0.2139,0.1357,0.4038,0.3379,0.4731 c2.3701,0.8115,3.9629,3.0366,3.9629,5.5371c0,3.2295-2.6279,5.8569-5.8574,5.8569s-5.8564-2.6274-5.8564-5.8569 C5.1807,21.957,6.7725,19.7314,9.1426,18.9204z" stroke-width="0"/> <path d="M26.0273,42.4854c-0.7129-0.2764-1.4971-0.293-2.2275-0.0532l-2.3154-0.8936c-0.123-0.0479-0.2598-0.0435-0.3818,0.0093 c-0.1211,0.0537-0.2168,0.1533-0.2646,0.2769l-0.0259,0.0672l-2.9511-1.1401l0.9224-2.3881 c0.0986-0.2578-0.0293-0.5469-0.2861-0.6465L8.0244,33.6699c-2.6084-1.0093-5.5449,0.2944-6.5527,2.8999 c-0.4873,1.2622-0.4541,2.6387,0.0938,3.8765c0.5479,1.2373,1.5439,2.187,2.8057,2.6748l10.4736,4.0479 c0.0586,0.0225,0.1191,0.0337,0.1807,0.0337c0.0693,0,0.1377-0.0142,0.2021-0.043c0.1211-0.0537,0.2168-0.1533,0.2646-0.2769 l0.9219-2.3872l2.952,1.1405l-0.0262,0.068c-0.0986,0.2578,0.0293,0.5469,0.2861,0.6465l2.3154,0.8945 c0.3809,0.6694,0.9727,1.1831,1.6836,1.4575c0.3906,0.1509,0.7969,0.2261,1.2021,0.2261c0.459,0,0.916-0.0962,1.3486-0.2871 c0.8135-0.3604,1.4385-1.0161,1.7598-1.8467c0.3203-0.8301,0.2988-1.7358-0.0615-2.5503 C27.5137,43.4307,26.8584,42.8062,26.0273,42.4854z M16.3086,43.3828c-0.2617-0.1016-0.5479,0.0288-0.6475,0.2861l-0.9219,2.3872 L4.7324,42.1885c-1.0137-0.3916-1.8135-1.1538-2.2529-2.147s-0.4658-2.0981-0.0742-3.1113s1.1533-1.8135,2.1465-2.2529 c0.9951-0.4409,2.0996-0.4658,3.1113-0.0747l10.0068,3.8672l-0.7425,1.9215l-1.8984-0.7335 c-0.0006-0.0002-0.001-0.0008-0.0016-0.001s-0.0013-0.0001-0.002-0.0003l-2.7056-1.0453 c-0.0002-0.0001-0.0003-0.0002-0.0005-0.0003s-0.0004-0.0001-0.0005-0.0001l-5.3422-2.0638 c-0.5-0.1938-1.0459-0.1792-1.5352,0.0366c-0.4902,0.2173-0.8662,0.6123-1.0596,1.1123 c-0.3984,1.0322,0.1172,2.1963,1.1494,2.5947c0.2549,0.0996,0.5459-0.0293,0.6465-0.2861 c0.0986-0.2578-0.0293-0.5474-0.2871-0.6465c-0.5166-0.2002-0.7754-0.7842-0.5752-1.3018 c0.0967-0.251,0.2852-0.4492,0.5312-0.5581c0.2461-0.1094,0.5215-0.1143,0.7695-0.0186l2.1676,0.8375l-0.5856,1.5165 c-0.0986,0.2578,0.0293,0.5474,0.2871,0.6465c0.0586,0.0229,0.1201,0.0337,0.1797,0.0337c0.2002,0,0.3896-0.1216,0.4668-0.3198 l0.5854-1.5162l1.7743,0.6855l-0.5863,1.5162c-0.0996,0.2573,0.0293,0.5469,0.2861,0.6465 c0.0596,0.0229,0.1201,0.0337,0.1807,0.0337c0.2002,0,0.3896-0.1216,0.4668-0.3198l0.5862-1.5159l1.7744,0.6855l-0.5862,1.5164 c-0.0996,0.2573,0.0293,0.5469,0.2861,0.6465c0.0596,0.0229,0.1201,0.0337,0.1807,0.0337c0.2002,0,0.3896-0.1216,0.4668-0.3198 L15.133,40.77l5.3187,2.0549l-0.7253,1.8782L16.3086,43.3828z M27.002,46.4346c-0.2236,0.5811-0.6611,1.0405-1.2314,1.2925 c-0.5684,0.2534-1.2021,0.2676-1.7852,0.043c-0.5381-0.208-0.9795-0.6147-1.2422-1.146 c-0.0557-0.1123-0.1514-0.1997-0.2676-0.2446l-2.0225-0.7812l1.1377-2.9468l2.0225,0.7808 c0.1162,0.0449,0.2451,0.0439,0.3633-0.001c0.5498-0.2173,1.1523-0.2207,1.6914-0.0132c0.5811,0.2246,1.04,0.6621,1.292,1.2314 C27.2119,45.2192,27.2275,45.853,27.002,46.4346z" stroke-width="0"/> <path d="M11.0371,28.0415c1.9766,0,3.584-1.6079,3.584-3.584s-1.6074-3.5835-3.584-3.5835s-3.584,1.6074-3.584,3.5835 S9.0605,28.0415,11.0371,28.0415z M11.0371,21.874c1.4248,0,2.584,1.1592,2.584,2.5835c0,1.4248-1.1592,2.584-2.584,2.584 s-2.584-1.1592-2.584-2.584C8.4531,23.0332,9.6123,21.874,11.0371,21.874z" stroke-width="0"/> </g> </g> <g id="Margin" class="st1"> <rect x="1" y="1" class="st2" /> </g> <g id="Guides" class="st1"> </g> <g id="LABELS"> <g> <g> <g> <g> <g> </g> </g> </g> </g> </g> </g> </svg> 