<?xml version="1.0" encoding="utf-8"?> <!-- Generator: Adobe Illustrator 27.7.0, SVG Export Plug-In . SVG Version: 6.00 Build 0) --> <svg width="70" height="70" version="1.1" xmlns="http://www.w3.org/2000/svg" xmlns:xlink="http://www.w3.org/1999/xlink" x="0px" y="0px" viewBox="-10 -10 70 70" style="enable-background:new 0 0 50 50;" xml:space="preserve"><rect x="-10" y="-10" width="70" height="70" fill="white"/> <style type="text/css"> .st0{fill:#FFCD00;} .st1{display:none;} .st2{display:inline;fill:none;stroke:#EA008A;stroke-width:0.2;stroke-miterlimit:10;} .st3{font-family:'Roboto-Regular';} .st4{font-size:6px;} </style> <g id="Color"> <path class="st0" d="M47.0444,28.6802l-0.0151-0.0054l-2.4331-0.9336c-1.292-0.4487-2.2954-1.4614-2.7383-2.7725l-2.3691-7.0137 l1.0698,0.0293c0.3135,0.0337,0.4663-0.1929,0.52-0.2808c0.1157-0.1885,0.1211-0.4189,0.0142-0.6162 c-0.3628-0.6689-1.061-1.3838-1.9326-1.3838h-7.3091c-1.2007,0-2.2705,0.6338-2.7256,1.6143 c-0.7476,1.6104-2.3779,2.6509-4.1548,2.6509H5.5049c-0.3281,0-0.6323,0.1479-0.8345,0.4062 c-0.2021,0.2578-0.2729,0.5889-0.1943,0.9072l1.7222,7.3965c0.1584,0.6795,0.729,1.1505,1.41,1.2204 c1.3251-1.1208,3.0348-1.8,4.902-1.8c4.1934,0,7.605,3.4116,7.605,7.605c0,0.3257-0.0275,0.6445-0.0674,0.9595h5.5759 c-0.0421-0.3181-0.0715-0.64-0.0728-0.9691c0.0007-0.0108,0.0062-0.02,0.0062-0.0309s-0.0056-0.0201-0.0062-0.0309 c0.0169-4.179,3.4205-7.574,7.6034-7.574c4.1934,0,7.605,3.4116,7.605,7.605c0,0.3398-0.0302,0.6719-0.0736,1h6.4955 c0.7578,0,1.3745-0.6167,1.3745-1.3745v-4.4824C48.5557,29.8491,47.9482,28.9946,47.0444,28.6802z M37.4766,24.0342 c-0.1562,0.2192-0.4004,0.3447-0.6694,0.3447h-4.23c-0.4536,0-0.8228-0.3691-0.8228-0.8228v-2.7822 c0-0.4536,0.3691-0.8223,0.8228-0.8223h3.2769c0.3516,0,0.6641,0.2236,0.7778,0.5562l0.9536,2.7822 C37.6729,23.5439,37.6328,23.8154,37.4766,24.0342z" stroke-width="0"/> </g> <g id="ICONS_00000031165542127692736420000002692518830807990202_"> <g> <path d="M12.5103,31.7148c-2.1992,0-3.9888,1.7896-3.9888,3.9893c0,2.1992,1.7896,3.9888,3.9888,3.9888 s3.9888-1.7896,3.9888-3.9888C16.499,33.5044,14.7095,31.7148,12.5103,31.7148z M12.5103,38.6929 c-1.6479,0-2.9888-1.3408-2.9888-2.9888c0-1.6484,1.3408-2.9893,2.9888-2.9893s2.9888,1.3408,2.9888,2.9893 C15.499,37.3521,14.1582,38.6929,12.5103,38.6929z" stroke-width="0"/> <path d="M33.1543,31.6748c-2.1997,0-3.9893,1.7896-3.9893,3.9888s1.7896,3.9888,3.9893,3.9888 c2.1992,0,3.9888-1.7896,3.9888-3.9888S35.3535,31.6748,33.1543,31.6748z M33.1543,38.6523c-1.6484,0-2.9893-1.3408-2.9893-2.9888 s1.3408-2.9888,2.9893-2.9888c1.6479,0,2.9888,1.3408,2.9888,2.9888S34.8022,38.6523,33.1543,38.6523z" stroke-width="0"/> <path d="M45.8877,26.2412l-2.4482-0.939c-1.0132-0.3521-1.791-1.1372-2.1343-2.1533l-1.9277-5.7091 c0.4247-0.0895,0.8157-0.3269,1.0532-0.7133c0.3052-0.4971,0.3203-1.1011,0.041-1.6157 c-0.6377-1.1763-1.7153-1.9072-2.8115-1.9072h-3.3105v-2.2662c0.5359,0.4858,1.2398,0.7902,2.0186,0.7902 c1.6646,0,3.0186-1.354,3.0186-3.0181c0-1.6646-1.354-3.0186-3.0186-3.0186c-1.0524,0-1.9781,0.543-2.5186,1.3618 c-0.5403-0.8188-1.4659-1.3618-2.5181-1.3618c-1.6646,0-3.0186,1.354-3.0186,3.0186c0,1.6641,1.354,3.0181,3.0186,3.0181 c0.7785,0,1.4822-0.3043,2.0181-0.7901v2.2662h-2.9985c-1.5884,0-3.0146,0.8608-3.6328,2.1934 c-0.3776,0.8137-1.046,1.4365-1.8453,1.7783c-0.0244-2.145-0.8898-4.2276-2.4896-5.9121 c-1.5776-1.6611-3.6719-2.6929-5.4658-2.6929c-1.854,0-3.2183,1.5347-4.4219,2.8892c-1.0459,1.1763-2.0371,2.2866-3.0381,2.0576 c-1.4619-0.3369-2.6519-0.1875-3.5327,0.4395c-1.3192,0.9379-1.567,2.66-1.6639,3.5117h-0.256 c-0.6372,0-1.2285,0.2876-1.6216,0.7896s-0.5308,1.145-0.3794,1.7573l1.7207,7.3901c0.2773,1.1904,1.3242,2.0215,2.5464,2.0215 h0.3727c-1.6804,1.5715-2.7385,3.8007-2.7385,6.2773c0,4.7446,3.8604,8.605,8.605,8.605c4.5895,0,8.3407-3.6149,8.5817-8.1455 h3.4827c0.2612,4.5116,4.0038,8.105,8.5797,8.105s8.3184-3.5934,8.5797-8.105h3.9472c1.3091,0,2.3745-1.0654,2.3745-2.3745 v-4.4829C48.0557,27.9238,47.1782,26.6899,45.8877,26.2412z M36.3682,6.6909c1.1128,0,2.0186,0.9053,2.0186,2.0186 c0,1.1128-0.9058,2.0181-2.0186,2.0181s-2.0186-0.9053-2.0186-2.0181C34.3496,7.5962,35.2554,6.6909,36.3682,6.6909z M31.3315,10.7275c-1.1133,0-2.0186-0.9053-2.0186-2.0181c0-1.1133,0.9053-2.0186,2.0186-2.0186 c1.1128,0,2.0181,0.9053,2.0181,2.0186C33.3496,9.8223,32.4443,10.7275,31.3315,10.7275z M6.5044,14.7715 c0.6382-0.4546,1.5562-0.5483,2.7295-0.2798c1.5806,0.3613,2.8154-1.0259,4.0093-2.3682 c1.1157-1.2554,2.2695-2.5532,3.6743-2.5532c1.5293,0,3.3457,0.9126,4.7407,2.3818c1.4869,1.5654,2.2646,3.5073,2.2163,5.4868 c-0.1335,0.0153-0.2675,0.0294-0.4038,0.0294H5.2676C5.3588,16.7245,5.5914,15.4205,6.5044,14.7715z M7.8174,28.4268H6.271 c-0.7549,0-1.4014-0.5132-1.5728-1.248l-1.7222-7.3965c-0.0786-0.3188-0.0078-0.6494,0.1948-0.9077 c0.2021-0.2583,0.5059-0.4062,0.834-0.4062h19.4658c1.7769,0,3.4077-1.0405,4.1548-2.6504 c0.4551-0.9805,1.5249-1.6143,2.7256-1.6143h7.3091c0.8716,0,1.5698,0.7148,1.9326,1.3838 c0.1069,0.1973,0.1016,0.4272-0.0142,0.6162c-0.0537,0.0879-0.2065,0.3145-0.52,0.2808l-8.0508-0.0161 c-0.9565,0-1.79,0.647-2.0215,1.5508l-2.3765,7.7168c-0.4062,1.5845-1.8325,2.6909-3.4683,2.6909h-6.02 c-0.0107,0-0.0197,0.0054-0.0303,0.0061c-1.3284-0.84-2.8965-1.3337-4.581-1.3337c-1.6929,0-3.2687,0.4983-4.6013,1.3461 C7.8782,28.4393,7.8499,28.4268,7.8174,28.4268z M12.5103,43.3091c-4.1934,0-7.605-3.4116-7.605-7.605s3.4116-7.605,7.605-7.605 s7.605,3.4116,7.605,7.605S16.7036,43.3091,12.5103,43.3091z M33.1543,43.2686c-4.1829,0-7.5865-3.395-7.6034-7.574 c0.0007-0.0108,0.0062-0.02,0.0062-0.0309s-0.0056-0.0201-0.0062-0.0309c0.0169-4.179,3.4205-7.574,7.6034-7.574 c4.1934,0,7.605,3.4116,7.605,7.605S37.3477,43.2686,33.1543,43.2686z M47.0557,33.7891c0,0.7578-0.6167,1.3745-1.3745,1.3745 h-3.9472c-0.2612-4.5116-4.0038-8.105-8.5797-8.105s-8.3184,3.5934-8.5797,8.105h-3.4868 c-0.1414-2.2592-1.1544-4.2811-2.7111-5.7368h4.7648c2.0928,0,3.917-1.4155,4.4307-3.4199l2.3765-7.7168 c0.124-0.4839,0.5596-0.8218,1.0591-0.8218h7.3576c-0.0001,0.0532,0.0024,0.107,0.0203,0.1602l1.9722,5.8408 c0.4429,1.3105,1.4463,2.3232,2.7383,2.772l2.4482,0.939c0.9038,0.3145,1.5112,1.1689,1.5112,2.126V33.7891z" stroke-width="0"/> <path d="M37.5781,20.1841c-0.2524-0.7373-0.9453-1.2324-1.7241-1.2324h-3.2769c-1.0049,0-1.8228,0.8174-1.8228,1.8223v2.7822 c0,1.0049,0.8179,1.8228,1.8228,1.8228h4.23c0.5962,0,1.1367-0.2783,1.4829-0.7632c0.3467-0.4849,0.4346-1.0864,0.2417-1.6499 L37.5781,20.1841z M37.4766,24.0342c-0.1562,0.2192-0.4004,0.3447-0.6694,0.3447h-4.23c-0.4536,0-0.8228-0.3691-0.8228-0.8228 v-2.7822c0-0.4536,0.3691-0.8223,0.8228-0.8223h3.2769c0.3516,0,0.6641,0.2236,0.7778,0.5562l0.9536,2.7822 C37.6729,23.5439,37.6328,23.8154,37.4766,24.0342z" stroke-width="0"/> </g> </g> <g id="Margin" class="st1"> <rect x="1" y="1" class="st2" /> </g> <g id="Guides" class="st1"> </g> <g id="LABELS"> <g> <g> <g> </g> </g> </g> </g> </svg> 