<?xml version="1.0" encoding="UTF-8"?><svg width="70" height="70" xmlns="http://www.w3.org/2000/svg" viewBox="-10 -10 70 70"><rect x="-10" y="-10" width="70" height="70" fill="white"/><g id="uuid-d563d8bf-0c74-48b3-8c2b-bd64ec83b392"><g><path d="M8.86,39.58c0,1.81,1.47,3.28,3.28,3.28s3.28-1.47,3.28-3.28-1.47-3.28-3.28-3.28-3.28,1.47-3.28,3.28Z" fill="none" stroke-width="0"/><path d="M38.27,29.28c-3.39,0-6.15,2.76-6.15,6.15s2.76,6.15,6.15,6.15,6.15-2.76,6.15-6.15-2.76-6.15-6.15-6.15Z" fill="none" stroke-width="0"/><path d="M38.27,25.76c1.64,0,3.19,.41,4.55,1.14,.51,.14,1.01,.3,1.48,.51V8.8h1.5v-2.16H18.59v1.41h19.85v.75h2.75v1.02h0v12.78c0,.28-.22,.5-.5,.5H19.49l-.08,1.58c-.01,.27-.23,.48-.5,.48h-5.52v-3.36c0-2.78-2.13-5.07-4.84-5.32v2.71c1.23,.24,2.16,1.32,2.16,2.61v2.36h0v1H5.9l-.41,3.33c-.2,1.64-.41,3.29-.61,4.93l-1.01,8.12h3.11c-.23-.61-.37-1.27-.37-1.96,0-3.05,2.48-5.53,5.53-5.53,1.09,0,2.1,.32,2.96,.87,3.02,.57,5.32,3.23,5.32,6.41,0,.07,0,.14-.01,.21h9.87c-.22-.5-.39-1.01-.54-1.54-.73-1.36-1.15-2.91-1.15-4.56,0-5.33,4.34-9.67,9.67-9.67Z" fill="#ffcd00" stroke-width="0"/><g><path d="M43.55,26.17V8.05h1c.28,0,.5-.22,.5-.5v-3.16c0-.28-.22-.5-.5-.5H16.34c-.28,0-.5,.22-.5,.5v3.16c0,.28,.22,.5,.5,.5h1.06l-.63,12.78-.08,1.58h-4.04v-2.36c0-3.5-2.85-6.34-6.34-6.34-.28,0-.5,.22-.5,.5v3.69c0,.28,.22,.5,.5,.5,.91,0,1.66,.74,1.66,1.66v2.36H3.71c-.25,0-.47,.19-.5,.44l-.54,4.33-.49,3.93-1.13,9.12c-.02,.14,.03,.29,.12,.39,.09,.11,.23,.17,.37,.17H5.73c.57,3.02,3.23,5.32,6.41,5.32s5.85-2.3,6.41-5.32h10.49c1.85,3.18,5.29,5.32,9.22,5.32,5.89,0,10.67-4.79,10.67-10.67,0-3.97-2.18-7.43-5.4-9.27ZM16.84,7.05v-2.16h27.21v2.16H16.84Zm7.82,11.58l-3.12-3.11c-.2-.19-.51-.19-.71,0-.19,.2-.19,.51,0,.71l1.35,1.34-2.84,2.78h-1.56l.61-12.3h20.04v12.3H20.77l2.12-2.08,1.07,1.06c.1,.1,.23,.15,.35,.15s.26-.05,.35-.15c.19-.2,.19-.51,0-.71Zm-17.86-1.19v-2.71c2.71,.25,4.84,2.54,4.84,5.32v2.36h-2.69v-2.36c0-1.29-.93-2.38-2.16-2.61Zm-3.19,10.3H7.8v2.93H3.25l.36-2.93Zm8.53,17.37c-3.05,0-5.53-2.48-5.53-5.53s2.48-5.53,5.53-5.53,5.53,2.48,5.53,5.53-2.48,5.53-5.53,5.53Zm6.52-5.32c0-.07,.01-.14,.01-.21,0-3.6-2.93-6.53-6.53-6.53s-6.53,2.93-6.53,6.53c0,.07,0,.14,.01,.21H2.12l1.01-8.12h5.17c.28,0,.5-.22,.5-.5v-3.93c0-.28-.22-.5-.5-.5H3.74l.41-3.33h13.01c.27,0,.49-.21,.5-.48l.08-1.58h21.2c.28,0,.5-.22,.5-.5V8.05h3.12V25.66c-1.31-.58-2.76-.9-4.28-.9-5.89,0-10.67,4.79-10.67,10.67,0,1.55,.34,3.02,.93,4.35h-9.87Zm19.61,5.33c-5.33,0-9.67-4.34-9.67-9.67s4.34-9.67,9.67-9.67,9.67,4.34,9.67,9.67-4.34,9.67-9.67,9.67Z" stroke-width="0"/><path d="M38.27,29.28c-3.39,0-6.15,2.76-6.15,6.15s2.76,6.15,6.15,6.15,6.15-2.76,6.15-6.15-2.76-6.15-6.15-6.15Zm0,11.3c-2.84,0-5.15-2.31-5.15-5.15s2.31-5.15,5.15-5.15,5.15,2.31,5.15,5.15-2.31,5.15-5.15,5.15Z" stroke-width="0"/><path d="M12.14,36.29c-1.81,0-3.28,1.47-3.28,3.28s1.47,3.28,3.28,3.28,3.28-1.47,3.28-3.28-1.47-3.28-3.28-3.28Zm0,5.57c-1.26,0-2.28-1.02-2.28-2.28s1.02-2.28,2.28-2.28,2.28,1.02,2.28,2.28-1.02,2.28-2.28,2.28Z" stroke-width="0"/></g></g></g><g id="uuid-fff16252-aa20-4a64-9ef0-3c126563e6e7"></g></svg>