<?xml version="1.0" encoding="utf-8"?> <!-- Generator: Adobe Illustrator 27.7.0, SVG Export Plug-In . SVG Version: 6.00 Build 0) --> <svg width="70" height="70" version="1.1" xmlns="http://www.w3.org/2000/svg" xmlns:xlink="http://www.w3.org/1999/xlink" x="0px" y="0px" viewBox="-10 -10 70 70" style="enable-background:new 0 0 50 50;" xml:space="preserve"><rect x="-10" y="-10" width="70" height="70" fill="white"/> <style type="text/css"> .st0{fill:#FFCD00;} .st1{display:none;} .st2{display:inline;fill:none;stroke:#EA008A;stroke-width:0.2;stroke-miterlimit:10;} .st3{font-family:'Roboto-Regular';} .st4{font-size:6px;} </style> <g id="Color"> <path class="st0" d="M48.3193,16.002H35.7474l-2.8849,13.5532c-0.4802-0.5797-1.2915-0.7231-1.9312-0.3835l-0.0441-0.0087 l2.2922-13.1609h-3.4177c-0.7002,0-1.2705,0.5703-1.2705,1.2705v11.1879l-3.8789-22.183c-0.1172-0.6709-0.752-1.1299-1.4277-1.0059 L4.8291,8.4482C4.1592,8.5635,3.708,9.2041,3.8242,9.875l4.8311,27.917c0.1162,0.6699,0.749,1.123,1.4277,1.0049l18.4082-3.1855 v9.9219c0,0.7002,0.5703,1.2695,1.2705,1.2695h18.5576c0.7002,0,1.2695-0.5693,1.2695-1.2695V17.2725 C49.5889,16.5723,49.0195,16.002,48.3193,16.002z M8.875,12.0527c-0.1846,0.2627-0.4609,0.4375-0.7773,0.4922 c-0.3184,0.0586-0.6348-0.0166-0.8975-0.2021c-0.2627-0.1846-0.4375-0.4609-0.4922-0.7773 c-0.1133-0.6533,0.3262-1.2773,0.9795-1.3896c0.0693-0.0127,0.1377-0.0186,0.2061-0.0186c0.5732,0,1.083,0.4131,1.1836,0.9971 C9.1328,11.4717,9.0605,11.79,8.875,12.0527z M16.0557,15.9297c-1.5641,0.2711-3.0394-0.67-3.5106-2.132l5.9885-1.7858 c0.0264,0.0969,0.0624,0.1898,0.0797,0.2899h0.001C18.9092,14.0078,17.7607,15.6348,16.0557,15.9297z M19.4326,32.0205 c-0.8018-0.2051-1.3125-0.6221-1.4375-1.1748c-0.1582-0.6982,0.2988-1.5547,1.2529-2.3506 c0.1816-0.1514,0.2324-0.4082,0.1221-0.6172c-0.2969-0.5625-0.3691-0.9824-0.2139-1.248c0.1816-0.3115,0.8115-0.6914,2.7627-0.7725 l0.0508,0.0581c0.0192,0.025,0.0359,0.0471,0.0594,0.0681l2.2755,2.6024C22.8555,32.042,20.3115,32.2461,19.4326,32.0205z M40.2422,27.4482c-0.6436,0-1.167,0.5234-1.167,1.167v1.6475c0,0.375-0.0938,0.6377-0.2861,0.8018 c-0.4597,0.3935-1.4705,0.2763-2.1604,0.17c-0.4378-0.6021-0.7039-1.3362-0.7039-2.1359c0-2.0137,1.6377-3.6514,3.6504-3.6514 c1.4167,0,2.6337,0.819,3.2388,2.001H40.2422z" stroke-width="0"/> </g> <g id="ICONS_00000031165542127692736420000002692518830807990202_"> <path d="M46.8193,13.502H28.2617c-1.2031,0-2.1808,0.9434-2.2561,2.1279l-1.908-11.0234c-0.2109-1.2148-1.374-2.0273-2.583-1.8213 L3.1592,5.9619c-1.2139,0.21-2.0303,1.3691-1.8203,2.583l4.8311,27.917c0.1025,0.5879,0.4268,1.1016,0.9141,1.4453 c0.3809,0.2686,0.8262,0.4092,1.2832,0.4092c0.1279,0,0.2568-0.0117,0.3848-0.0342l17.2393-2.9841v8.7351 c0,1.251,1.0186,2.2695,2.2705,2.2695h18.5576c1.251,0,2.2695-1.0186,2.2695-2.2695V15.7725 C49.0889,14.5205,48.0703,13.502,46.8193,13.502z M36.9121,38.0479c0.1865,0.2021,0.502,0.2168,0.707,0.0312 c0.2031-0.1865,0.2178-0.5029,0.0312-0.707l-2.3494-2.5679c0.4411-0.2936,0.9558-0.478,1.366-0.478h5.3662 c1.2344,0,2.2383,1.0039,2.2383,2.2383v8.7383h-9.1572v-4.5981l0.8252,0.9019c0.3867,0.4219,0.917,0.6426,1.4541,0.6426 c0.3701,0,0.7432-0.1055,1.0742-0.3203l4.3799-2.8438c0.2314-0.1504,0.2969-0.46,0.1465-0.6914 c-0.1504-0.2324-0.4619-0.2959-0.6914-0.1465l-4.3799,2.8428c-0.3994,0.2598-0.9229,0.1943-1.2451-0.1592l-6.0547-6.6172 c-0.3496-0.3809-0.416-0.9404-0.1592-1.3281c0.1924-0.29,0.4814-0.4648,0.8154-0.4902c0.335-0.0244,0.6445,0.0986,0.8652,0.3418 L36.9121,38.0479z M43.2266,29.0986c0,2.0127-1.6377,3.6504-3.6514,3.6504c-0.603,0-1.1639-0.1611-1.6656-0.4211 c0.5562-0.0229,1.1105-0.1456,1.5289-0.5027c0.4229-0.3613,0.6367-0.8867,0.6367-1.5625v-1.6475c0-0.0918,0.0752-0.167,0.167-0.167 h2.9186C43.1992,28.66,43.2266,28.8759,43.2266,29.0986z M40.2422,27.4482c-0.6436,0-1.167,0.5234-1.167,1.167v1.6475 c0,0.375-0.0938,0.6377-0.2861,0.8018c-0.4597,0.3935-1.4705,0.2763-2.1604,0.17c-0.4378-0.6021-0.7039-1.3362-0.7039-2.1359 c0-2.0137,1.6377-3.6514,3.6504-3.6514c1.4167,0,2.6337,0.819,3.2388,2.001H40.2422z M14.7793,29.8856l2.4412-0.4231 c-0.2422,0.5439-0.3172,1.0898-0.201,1.6039c0.209,0.9238,0.998,1.625,2.165,1.9229c0.2539,0.0645,0.5391,0.1006,0.8467,0.1006 c0.88,0,1.9353-0.305,2.9272-1.0564l0.4658,2.6951l-9.0613,1.568L14.7793,29.8856z M19.4326,32.0205 c-0.8018-0.2051-1.3125-0.6221-1.4375-1.1748c-0.1582-0.6982,0.2988-1.5547,1.2529-2.3506 c0.1816-0.1514,0.2324-0.4082,0.1221-0.6172c-0.2969-0.5625-0.3691-0.9824-0.2139-1.248c0.1816-0.3115,0.8115-0.6914,2.7627-0.7725 l0.0508,0.0581c0.0192,0.025,0.0359,0.0471,0.0594,0.0681l2.2755,2.6024C22.8555,32.042,20.3115,32.2461,19.4326,32.0205z M22.1074,21.3955l1.8203,1.1572l-1.2891,1.8086L22.1074,21.3955z M23.0001,25.5756l2.0488-2.8715 c0.0791-0.1113,0.1094-0.251,0.084-0.3857c-0.0264-0.1348-0.1074-0.2529-0.2227-0.3262l-3.2275-2.0508 c-0.167-0.1055-0.3818-0.1035-0.5469,0.0068s-0.249,0.3076-0.2139,0.5029l0.7917,4.4191 c-1.9032,0.0985-2.9732,0.4885-3.4206,1.2548c-0.2949,0.5039-0.2871,1.1289,0.0215,1.8613 c-0.1151,0.1079-0.2203,0.2178-0.3213,0.3284l-3.315,0.5728l-0.4323-2.4938l-0.9666-5.5831 c-0.0469-0.2725-0.3086-0.4619-0.5771-0.4072l-4.6729,0.8086c-0.418,0.0693-0.8311-0.0459-1.1475-0.3213 s-0.4902-0.6738-0.4756-1.0938l0.2223-6.6345c0.3741,0.2637,0.8107,0.4011,1.2592,0.4011c0.126,0,0.2529-0.0107,0.3799-0.0322 c0.1443-0.025,0.284-0.0638,0.4177-0.1152l-0.1589,4.7353c-0.0049,0.1504,0.0586,0.2949,0.1719,0.3936s0.2627,0.1445,0.4131,0.1152 l10.709-1.8525c0.6855-0.1182,1.3936,0.002,1.9639,0.3145l3.7842,2.5059c0.0371,0.0247,0.0804,0.0228,0.1207,0.0363l0.2806,1.621 c0.0035,0.0202,0.0157,0.0361,0.0215,0.0553v3.4576L24.342,27.11L23.0001,25.5756z M8.875,12.0527 c-0.1846,0.2627-0.4609,0.4375-0.7773,0.4922c-0.3184,0.0586-0.6348-0.0166-0.8975-0.2021 c-0.2627-0.1846-0.4375-0.4609-0.4922-0.7773c-0.1133-0.6533,0.3262-1.2773,0.9795-1.3896 c0.0693-0.0127,0.1377-0.0186,0.2061-0.0186c0.5732,0,1.083,0.4131,1.1836,0.9971C9.1328,11.4717,9.0605,11.79,8.875,12.0527z M14.9844,9.7441c0.1816-0.0322,0.3623-0.0469,0.543-0.0469c0.6416,0,1.2666,0.1963,1.8018,0.5732 c0.3189,0.2249,0.5822,0.5054,0.7933,0.8199l-5.7363,1.7106C12.4026,11.3174,13.4708,10.0058,14.9844,9.7441z M18.5336,12.0118 c0.0264,0.0969,0.0624,0.1898,0.0797,0.2899h0.001c0.2949,1.7061-0.8535,3.333-2.5586,3.6279 c-1.5641,0.2711-3.0394-0.67-3.5106-2.132L18.5336,12.0118z M26.9912,33.0417l3.9932-3.3083 c0.4521-0.3721,1.1191-0.3105,1.4932,0.1406c0.3721,0.4502,0.3096,1.1201-0.1396,1.4922l-0.3004,0.2485 c-0.2654-0.0919-0.5479-0.1371-0.8363-0.1167c-0.6377,0.0498-1.21,0.3906-1.5713,0.9346 c-0.5068,0.7666-0.3994,1.8408,0.2549,2.5566l2.9821,3.2592l-5.8756-2.0816V33.0417z M32.5345,28.6918 c-0.3212-0.1501-0.6735-0.216-1.0244-0.1907l2.4379-13.9991h1.6072L32.5345,28.6918z M28.2617,14.502h4.6721l-2.5095,14.4099 c-0.0251,0.019-0.0531,0.0317-0.0776,0.052l-3.3555,2.7794V15.7725C26.9912,15.0723,27.5615,14.502,28.2617,14.502z M8.582,37.2969 c-0.6777,0.1221-1.3105-0.335-1.4258-1.0049L2.3242,8.375C2.208,7.7041,2.6592,7.0635,3.3291,6.9473l18.3555-3.1758 c0.6758-0.124,1.3105,0.335,1.4268,1.0049l2.3517,13.5823l-3.1613-2.0911c-0.8027-0.4434-1.7461-0.6006-2.6514-0.4463 l-1.6132,0.2792c0.324-0.2503,0.6237-0.5345,0.8661-0.8788c0.6377-0.9033,0.8848-2.001,0.6963-3.0898 c-0.0243-0.1398-0.074-0.2698-0.1116-0.4046l1.3646-0.4069c0.2646-0.0791,0.415-0.3574,0.3369-0.6221 c-0.0801-0.2637-0.3594-0.4131-0.6221-0.3369l-1.46,0.4354c-0.2973-0.5233-0.696-0.9858-1.2021-1.3426 c-0.9043-0.6377-2.0039-0.8867-3.0908-0.6953c-2.25,0.3887-3.7627,2.5352-3.373,4.7842c0.0024,0.014,0.0086,0.0267,0.0112,0.0406 c0.0015,0.0057-0.0001,0.0113,0.0015,0.017c0.0009,0.0031,0.0042,0.0043,0.0052,0.0074c0.2012,1.0617,0.7908,1.9882,1.6755,2.6127 c0.3359,0.2365,0.6998,0.4151,1.0787,0.5417l-4.6666,0.8079l0.167-4.9717c0.0001-0.002-0.001-0.0038-0.001-0.0058 c0.3211-0.4737,0.4478-1.0422,0.3506-1.6085c-0.208-1.1963-1.3496-1.998-2.5459-1.7949C6.9375,9.29,6.4316,9.6104,6.0928,10.0908 c-0.2476,0.3511-0.3817,0.7579-0.3987,1.1776c-0.0004,0.0049-0.0035,0.0089-0.0037,0.0138l-0.2842,8.4814 c-0.0234,0.7217,0.2744,1.4072,0.8193,1.8809c0.5439,0.4746,1.2656,0.6738,1.9736,0.5527l4.1807-0.7236l0.6865,3.9644 c0,0.0001,0,0.0003,0,0.0004l0.711,4.1102c0.0001,0.0007-0.0002,0.0013-0.0001,0.0021c0.0001,0.0008,0.0007,0.0013,0.0008,0.0021 l0.0148,0.0858l-0.4436,6.8333L8.582,37.2969z M24.4105,34.5578l-0.5789-3.349c0.5766-0.647,1.1058-1.4673,1.5179-2.5428 c0.0664-0.1729,0.0312-0.3682-0.0908-0.5078l-0.2532-0.2896c0.0192-0.0193,0.0446-0.0294,0.0609-0.0522l0.9248-1.2965v7.7644 L24.4105,34.5578z M26.9912,44.0332v-6.8047l7.123,2.5236v5.5507h-5.8525C27.5615,45.3027,26.9912,44.7334,26.9912,44.0332z M48.0889,44.0332c0,0.7002-0.5693,1.2695-1.2695,1.2695h-1.5479v-8.7383c0-1.7852-1.4531-3.2383-3.2383-3.2383h-0.5447 c1.6104-0.7318,2.7381-2.3466,2.7381-4.2275c0-0.2227-0.0354-0.436-0.0658-0.6504h0.8275c0.2764,0,0.5-0.2236,0.5-0.5 s-0.2236-0.5-0.5-0.5h-1.0786c-0.6689-1.7495-2.353-3.001-4.3345-3.001c-2.5645,0-4.6504,2.0869-4.6504,4.6514 c0,1.093,0.3947,2.0857,1.028,2.8804c0.008,0.011,0.0167,0.0206,0.0256,0.031c0.453,0.5584,1.0217,1.0153,1.6838,1.3162H36.667 c-0.6504,0-1.3887,0.2598-2.0264,0.7129c-0.0083,0.0059-0.0123,0.0151-0.0201,0.0214l-1.7104-1.8696l0.0655-0.0542 c0.8045-0.6669,0.9628-1.819,0.4193-2.681l3.1833-14.9537h10.2411c0.7002,0,1.2695,0.5703,1.2695,1.2705V44.0332z" stroke-width="0"/> </g> <g id="Margin" class="st1"> <rect x="1" y="1" class="st2" /> </g> <g id="Guides" class="st1"> </g> <g id="LABELS"> <g> <g> <g> <g> <g> <g> <g> </g> </g> </g> </g> </g> </g> </g> </g> </svg> 