<?xml version="1.0" encoding="UTF-8"?><svg width="70" height="70" id="uuid-4cb845e8-1a30-4107-b111-ee06c626d653" xmlns="http://www.w3.org/2000/svg" viewBox="-10 -10 70 70"><rect x="-10" y="-10" width="70" height="70" fill="white"/><polygon points="43.3 47.2 43.3 49.78 10.24 49.78 10.24 47.2 15.19 47.2 38.35 47.2 43.3 47.2" fill="#ffcd00"/><polygon points="36.33 39.28 37.74 46.2 15.81 46.2 17.22 39.28 36.33 39.28" fill="#ffcd00"/><polygon points="33.67 26.27 34.74 31.51 18.81 31.51 19.88 26.27 33.67 26.27" fill="#ffcd00"/><polygon points="28.94 3.09 32.08 18.5 21.46 18.5 24.61 3.09 28.94 3.09" fill="#ffcd00"/><path d="M37.1,45.95H8.99v2.58H42.05v-2.58h-4.95Zm-2.02-7.92H15.97l-1.41,6.92h21.93l-1.41-6.92Zm-1.39-6.77H17.35l-1.18,5.77h18.7l-1.18-5.77Zm-1.27-6.24h-13.79l-1.07,5.24h15.93l-1.07-5.24Zm-1.39-6.77h-11.02l-1.18,5.77h13.38l-1.18-5.77Zm-.2-1L27.69,1.84h-4.33l-3.15,15.41h10.62ZM28.58,1.24l8.93,43.71h5.04c.28,0,.5,.22,.5,.5v3.58c0,.27-.22,.5-.5,.5H8.49c-.27,0-.5-.23-.5-.5v-3.58c0-.28,.23-.5,.5-.5h5.05L22.46,1.24c.05-.23,.25-.4,.49-.4h5.14c.24,0,.45,.17,.49,.4Z" stroke-width="0"/></svg>