<?xml version="1.0" encoding="UTF-8"?><svg width="70" height="70" xmlns="http://www.w3.org/2000/svg" viewBox="-10 -10 70 70"><rect x="-10" y="-10" width="70" height="70" fill="white"/><g id="uuid-72303209-ab39-4d12-b9aa-725b19873f25"><g><circle cx="26.75" cy="23.74" r="14.36" fill="#ffcd00"/><path d="M32.21,18.86h-14.43c-.28,0-.5,.22-.5,.5s.22,.5,.5,.5h14.43c.28,0,.5-.22,.5-.5s-.22-.5-.5-.5Z" stroke-width="0"/><path d="M32.21,24.12h-14.43c-.28,0-.5,.22-.5,.5s.22,.5,.5,.5h14.43c.28,0,.5-.22,.5-.5s-.22-.5-.5-.5Z" stroke-width="0"/><path d="M46.12,1.13s0-.08-.02-.11c-.02-.04-.04-.07-.07-.1-.01-.02-.02-.04-.04-.06h0s-.09-.08-.14-.1c0,0-.01,0-.02-.01-.02-.01-.05-.01-.08-.02-.04,0-.07-.02-.11-.02h-7.16c-.28,0-.5,.22-.5,.5s.22,.5,.5,.5h5.9l-9.21,8.82c-2.71-2.41-6.28-3.89-10.18-3.89s-7.47,1.48-10.18,3.89l-2.88-2.76,3.23-3.23c.2-.2,.2-.51,0-.71s-.51-.2-.71,0l-3.25,3.25L5.61,1.71h5.9c.28,0,.5-.22,.5-.5s-.22-.5-.5-.5H4.35s-.07,.01-.1,.02c-.1,.02-.18,.06-.25,.13h0s-.02,.04-.04,.06c-.02,.03-.05,.07-.07,.1-.01,.04-.02,.07-.02,.11,0,.02-.01,.05-.01,.07v6.82c0,.28,.22,.5,.5,.5s.5-.22,.5-.5V2.38l5.64,5.4-3.23,3.23c-.2,.2-.2,.51,0,.71,.1,.1,.23,.15,.35,.15s.26-.05,.35-.15l3.25-3.25,2.86,2.73c-2.74,2.78-4.44,6.58-4.44,10.78,0,8.3,6.62,15.07,14.86,15.33v7.15h-4.66c-.28,0-.5,.22-.5,.5s.22,.5,.5,.5h4.66v3.32c0,.28,.22,.5,.5,.5s.5-.22,.5-.5v-3.32h4.51c.28,0,.5-.22,.5-.5s-.22-.5-.5-.5h-4.51v-7.15c8.24-.27,14.86-7.03,14.86-15.33,0-4.2-1.7-8.01-4.44-10.78L45.14,2.38v5.65c0,.28,.22,.5,.5,.5s.5-.22,.5-.5V1.21s-.01-.05-.01-.07Zm-6.77,20.86c0,7.92-6.44,14.36-14.36,14.36s-14.36-6.44-14.36-14.36,6.44-14.36,14.36-14.36,14.36,6.44,14.36,14.36Z" stroke-width="0"/></g></g><g id="uuid-a206fe9f-9ec9-4a62-b5d1-c48aec001914"></g></svg>