<?xml version="1.0" encoding="UTF-8"?><svg width="70" height="70" xmlns="http://www.w3.org/2000/svg" viewBox="-10 -10 70 70"><rect x="-10" y="-10" width="70" height="70" fill="white"/><g id="uuid-effbabbe-fcc6-4a77-b503-7725a46d076f"><path d="M39.38,15.14l-1.01,31.83c-.01.27-.23.48-.5.48H11.05c-.27,0-.49-.21-.5-.48l-1.01-31.83h29.84Z" fill="#ffcd00" stroke-width="0"/><path d="M16.48,3.99h15.57v4.71h-2v-2.21c0-.28-.23-.5-.5-.5h-10.57c-.27,0-.5.22-.5.5v2.21h-2V3.99Z" fill="#ffcd00" stroke-width="0"/><path d="M41.03,10.2v3.94H7.89v-3.94c0-.27.22-.5.5-.5h32.14c.28,0,.5.23.5.5Z" fill="#ffcd00" stroke-width="0"/></g><g id="uuid-0d7f6a05-5b20-4b58-8d64-39797b18ef80"><path d="M33.9,20.04c.28,0,.5.23.49.51l-.47,22.25c-.01.28-.23.49-.5.49h-.01c-.28,0-.5-.23-.49-.51l.47-22.25c.01-.27.23-.49.5-.49h.01Z" stroke-width="0"/><path d="M29.08,42.8c0,.27-.23.49-.5.49h-.01c-.27,0-.49-.23-.49-.5l.24-22.25c0-.28.22-.5.5-.5s.5.23.5.5l-.24,22.26Z" stroke-width="0"/><path d="M24.24,20.54v22.25c0,.28-.22.5-.5.5s-.5-.22-.5-.5v-22.25c0-.28.22-.5.5-.5s.5.22.5.5Z" stroke-width="0"/><path d="M19.16,20.54l.24,22.25c0,.27-.22.5-.49.5h-.01c-.27,0-.5-.22-.5-.49l-.24-22.26c0-.27.22-.5.5-.5s.5.22.5.5Z" stroke-width="0"/><path d="M14.56,42.78c.01.28-.21.51-.49.51h-.01c-.27,0-.49-.21-.5-.49l-.47-22.25c-.01-.28.21-.5.49-.51h.01c.27,0,.49.22.5.49l.47,22.25Z" stroke-width="0"/><path d="M28.33,7.98v-1.71h-9.57v1.71h9.57ZM10.33,46.73h26.82c.27,0,.49-.21.5-.48l1.01-31.83H8.82l1.01,31.83c.01.27.23.48.5.48ZM39.81,8.98H7.67c-.28,0-.5.23-.5.5v3.94h33.14v-3.94c0-.27-.22-.5-.5-.5ZM17.76,7.98v-2.21c0-.28.23-.5.5-.5h10.57c.27,0,.5.22.5.5v2.21h2V3.27h-15.57v4.71h2ZM41.31,9.48v4.44c0,.27-.22.5-.5.5h-1.15l-1.01,31.86c-.03.81-.69,1.45-1.5,1.45H10.33c-.81,0-1.47-.64-1.5-1.45l-1.01-31.86h-1.15c-.28,0-.5-.23-.5-.5v-4.44c0-.82.67-1.5,1.5-1.5h7.09V2.77c0-.28.23-.5.5-.5h16.57c.27,0,.5.22.5.5v5.21h7.48c.83,0,1.5.68,1.5,1.5Z" stroke-width="0"/></g></svg>