<?xml version="1.0" encoding="utf-8"?> <!-- Generator: Adobe Illustrator 27.7.0, SVG Export Plug-In . SVG Version: 6.00 Build 0) --> <svg width="70" height="70" version="1.1" xmlns="http://www.w3.org/2000/svg" xmlns:xlink="http://www.w3.org/1999/xlink" x="0px" y="0px" viewBox="-10 -10 70 70" style="enable-background:new 0 0 50 50;" xml:space="preserve"><rect x="-10" y="-10" width="70" height="70" fill="white"/> <style type="text/css"> .st0{fill:#FFCD00;} .st1{display:none;} .st2{display:inline;fill:none;stroke:#EA008A;stroke-width:0.2;stroke-miterlimit:10;} .st3{font-family:'Roboto-Regular';} .st4{font-size:6px;} </style> <g id="Color"> <path class="st0" d="M32.5674,7.6104c0.5684-0.5811,1.3838-0.8232,2.1826-0.6689c0.1777,0.7939-0.0479,1.6162-0.6162,2.1982 s-1.3828,0.8281-2.1826,0.6689C31.7734,9.0146,31.999,8.1924,32.5674,7.6104z" stroke-width="0"/> <path class="st0" d="M17.7188,12.499c-0.7656-0.2734-1.3291-0.9141-1.5166-1.7041c0.6455-0.4912,1.4863-0.6299,2.2549-0.3564 c0.7656,0.2744,1.3291,0.915,1.5176,1.7051C19.3271,12.6348,18.4873,12.7744,17.7188,12.499z" stroke-width="0"/> <path class="st0" d="M19.1367,20.0127c-0.1045-0.8076,0.21-1.6006,0.8281-2.127c0.7314,0.3516,1.2373,1.0381,1.3418,1.8457 c0.1045,0.8057-0.209,1.5996-0.8271,2.127C19.7471,21.5059,19.2412,20.8184,19.1367,20.0127z" stroke-width="0"/> <path class="st0" d="M11.9951,22.6885c-0.792-0.1904-1.4209-0.7666-1.6924-1.5322c0.5898-0.5576,1.4131-0.7832,2.2031-0.5957 c0.792,0.1904,1.4209,0.7666,1.6924,1.5322C13.6084,22.6504,12.7871,22.8818,11.9951,22.6885z" stroke-width="0"/> <path class="st0" d="M27.4482,37.4414c-1.9746,0-3.3252,0.4121-4.1309,1.2607c-0.748,0.7891-1.0527,1.9971-0.958,3.8018 c0.165,3.1299,3.6582,5.1143,5.0889,5.1143s4.9238-1.9844,5.0889-5.1143c0.0947-1.8047-0.21-3.0127-0.958-3.8018 C30.7734,37.8535,29.4229,37.4414,27.4482,37.4414z" stroke-width="0"/> <path class="st0" d="M24.9707,4.9893c-0.2109-0.7861-0.0059-1.6143,0.5361-2.2197c0.7734,0.252,1.3662,0.8652,1.5781,1.6504 c0.2109,0.7861,0.0059,1.6143-0.5371,2.2188C25.7764,6.3877,25.1826,5.7754,24.9707,4.9893z" stroke-width="0"/> <path class="st0" d="M38.9531,17.4492c-0.7695,0.2783-1.6084,0.1416-2.2559-0.3486c0.1855-0.79,0.7471-1.4326,1.5127-1.709 c0.7676-0.2793,1.6074-0.1406,2.2559,0.3486C40.2803,16.5312,39.7188,17.1738,38.9531,17.4492z" stroke-width="0"/> </g> <g id="ICONS_00000031165542127692736420000002692518830807990202_"> <path d="M40.9746,14.4287c-0.9443-0.8818-2.2773-1.1631-3.4795-0.7275c-1.1247,0.4062-1.9302,1.3675-2.163,2.5381l-8.5089,5.4151 V13.752c0.0162-0.0106,0.0346-0.0157,0.0498-0.0284l4.4317-3.7106c0.2501,0.056,0.5015,0.0934,0.7509,0.0934 c0.9004,0,1.7715-0.3555,2.418-1.0176c0.8936-0.9141,1.1914-2.2432,0.7783-3.4688c-0.0508-0.1523-0.1719-0.2705-0.3252-0.3184 c-1.2373-0.3867-2.5566-0.0557-3.4492,0.8594c-0.8113,0.83-1.1252,2.0022-0.868,3.1284l-3.7863,3.1702v-5.814 c0.8336-0.8618,1.1639-2.0776,0.8516-3.2355c-0.332-1.2344-1.3242-2.168-2.5889-2.4365c-0.1582-0.0312-0.3203,0.0107-0.4385,0.1182 c-0.96,0.8662-1.3496,2.1719-1.0166,3.4072c0.2963,1.1025,1.1201,1.9603,2.1924,2.323v8.9535l-5.2254-4.4567 c-0.2266-1.1888-1.0413-2.1646-2.1799-2.5718c-1.2051-0.4307-2.5371-0.1465-3.4766,0.7393 c-0.1172,0.1104-0.1738,0.2695-0.1533,0.4277c0.165,1.2822,1.0156,2.3467,2.2197,2.7764c0.3721,0.1328,0.7559,0.1982,1.1377,0.1982 c0.7054,0,1.3937-0.2338,1.9809-0.6572l5.6968,4.8589V27.234l-4.6356-2.5643l-0.4671-2.7818 c0.8927-0.7456,1.3531-1.8779,1.2032-3.0354c-0.165-1.2686-1.0234-2.3252-2.2402-2.7598 c-0.1504-0.0537-0.3193-0.0342-0.4502,0.0586c-1.0664,0.7295-1.627,1.9707-1.4639,3.2393 c0.1519,1.1666,0.8953,2.1489,1.9606,2.6386l0.3395,2.022l-5.2699-2.9151c-0.3578-1.1442-1.2677-2.0168-2.4355-2.2983 c-1.2422-0.2939-2.5371,0.127-3.377,1.1084c-0.1045,0.1221-0.1436,0.2861-0.1064,0.4424c0.3018,1.2568,1.2617,2.2227,2.5059,2.5225 c0.2627,0.0625,0.5273,0.0938,0.79,0.0938c0.8426,0,1.6483-0.333,2.2818-0.9145l11.3647,6.2865v6.9543 c-1.9956,0.0729-3.4283,0.5807-4.3555,1.5575c-1.249,1.3164-1.3008,3.2236-1.2314,4.543c0.0934,1.78,1.0494,3.2453,2.2342,4.2916 c-0.4929,0.4763-0.8844,1.0323-1.1356,1.6527c-0.1035,0.2559,0.0205,0.5479,0.2764,0.6514 c0.0615,0.0244,0.125,0.0361,0.1875,0.0361c0.1973,0,0.3848-0.1182,0.4639-0.3125c0.2148-0.5318,0.5684-1.0021,1.012-1.4028 c1.0804,0.7357,2.2292,1.145,3.0485,1.145c0.452,0,1.0064-0.1286,1.5925-0.3624c0.2506,0.373,0.4064,0.8439,0.4739,1.461 c0.0283,0.2559,0.2451,0.4453,0.4961,0.4453c0.0186,0,0.0371-0.001,0.0557-0.0029c0.2744-0.0303,0.4727-0.2773,0.4424-0.5518 c-0.0799-0.7255-0.2634-1.3072-0.5601-1.7921c0.5413-0.3082,1.08-0.6985,1.5716-1.1669c0.1945,0.2264,0.3806,0.4609,0.5412,0.71 c0.0957,0.1484,0.2559,0.2295,0.4199,0.2295c0.0928,0,0.1875-0.0254,0.2705-0.0801c0.2324-0.1494,0.2998-0.459,0.1494-0.6904 c-0.2067-0.3212-0.4427-0.6277-0.699-0.9162c0.7365-0.9231,1.2648-2.0493,1.3328-3.3445c0.0693-1.3193,0.0176-3.2266-1.2314-4.543 c-0.9271-0.9767-2.3599-1.4846-4.3555-1.5575V22.84l8.9309-5.6837c0.5949,0.4409,1.2968,0.6855,2.0164,0.6855 c0.3848,0,0.7725-0.0664,1.1475-0.2012c1.2021-0.4346,2.0498-1.501,2.2109-2.7842C41.1484,14.6973,41.0918,14.5381,40.9746,14.4287 z M32.1924,6.8604c0.5684-0.5811,1.3838-0.8232,2.1826-0.6689c0.1777,0.7939-0.0479,1.6162-0.6162,2.1982 s-1.3828,0.8281-2.1826,0.6689C31.3984,8.2646,31.624,7.4424,32.1924,6.8604z M17.3438,11.749 c-0.7656-0.2734-1.3291-0.9141-1.5166-1.7041c0.6455-0.4912,1.4863-0.6299,2.2549-0.3564c0.7656,0.2744,1.3291,0.915,1.5176,1.7051 C18.9521,11.8848,18.1123,12.0244,17.3438,11.749z M18.7617,19.2627c-0.1045-0.8076,0.21-1.6006,0.8281-2.127 c0.7314,0.3516,1.2373,1.0381,1.3418,1.8457c0.1045,0.8057-0.209,1.5996-0.8271,2.127 C19.3721,20.7559,18.8662,20.0684,18.7617,19.2627z M11.6201,21.9385c-0.792-0.1904-1.4209-0.7666-1.6924-1.5322 c0.5898-0.5576,1.4131-0.7832,2.2031-0.5957c0.792,0.1904,1.4209,0.7666,1.6924,1.5322 C13.2334,21.9004,12.4121,22.1318,11.6201,21.9385z M24.5957,4.2393c-0.2109-0.7861-0.0059-1.6143,0.5361-2.2197 c0.7734,0.252,1.3662,0.8652,1.5781,1.6504c0.2109,0.7861,0.0059,1.6143-0.5371,2.2188 C25.4014,5.6377,24.8076,5.0254,24.5957,4.2393z M31.4121,41.3789c-0.0545,1.0336-0.4755,1.9388-1.0617,2.6923 c-0.6347-0.5512-1.3395-0.9986-2.0623-1.2695c-0.2568-0.0967-0.5469,0.0342-0.6436,0.2939 c-0.0967,0.2578,0.0352,0.5459,0.2939,0.6436c0.6079,0.2273,1.2038,0.6027,1.743,1.0681c-1.1418,1.075-2.5658,1.6858-3.3582,1.6858 c-0.5272,0-1.3345-0.2712-2.152-0.7681c0.0958-0.0514,0.1821-0.113,0.2829-0.1586c0.252-0.1133,0.3633-0.4102,0.249-0.6611 c-0.1133-0.252-0.4121-0.3613-0.6611-0.249c-0.2721,0.1229-0.5223,0.2723-0.7644,0.4297c-1.061-0.8864-1.9614-2.1554-2.0432-3.7071 c-0.0947-1.8047,0.21-3.0127,0.958-3.8018c0.8057-0.8486,2.1562-1.2607,4.1309-1.2607s3.3252,0.4121,4.1309,1.2607 C31.2021,38.3662,31.5068,39.5742,31.4121,41.3789z M38.5781,16.6992c-0.7695,0.2783-1.6084,0.1416-2.2559-0.3486 c0.1855-0.79,0.7471-1.4326,1.5127-1.709c0.7676-0.2793,1.6074-0.1406,2.2559,0.3486 C39.9053,15.7812,39.3438,16.4238,38.5781,16.6992z" stroke-width="0"/> </g> <g id="Margin" class="st1"> <rect x="1" y="1" class="st2" /> </g> <g id="Guides" class="st1"> </g> <g id="LABELS"> <g> <g> <g> <g> <g> <g> <g> </g> </g> </g> </g> </g> </g> </g> </g> </svg> 