<?xml version="1.0" encoding="UTF-8"?><svg width="70" height="70" xmlns="http://www.w3.org/2000/svg" viewBox="-10 -10 70 70"><rect x="-10" y="-10" width="70" height="70" fill="white"/><g id="uuid-98f0de15-c566-4f60-84bd-6d0e86f06909"><path d="M32.6,24.18c0-11.62-3.75-21.43-8.2-21.43s-8.2,9.82-8.2,21.43c0,5.42,3.41,9.85,7.7,10.17h1c4.29-.32,7.7-4.75,7.7-10.17Z" fill="#ffcd00" stroke-width="0"/><path d="M32.1,22.68C32.1,10.1,28.06,.25,22.91,.25S13.71,10.1,13.71,22.68c0,5.97,3.86,10.85,8.7,11.17v15.43c0,.28,.22,.5,.5,.5s.5-.22,.5-.5v-15.43c4.84-.32,8.7-5.2,8.7-11.17Zm-8.7,1.19s.01,0,.02-.01l3.72-3.72c.2-.2,.2-.51,0-.71s-.51-.2-.71,0l-3.03,3.02V9.55c0-.28-.22-.5-.5-.5s-.5,.22-.5,.5v6.02l-2.43-2.43c-.2-.2-.51-.2-.71,0s-.2,.51,0,.71l3.14,3.14v12.18l-2.46-2.46c-.2-.2-.51-.2-.71,0s-.2,.51,0,.71l3.17,3.17v2.28c-4.29-.32-7.7-4.75-7.7-10.17C14.71,11.07,18.46,1.25,22.91,1.25s8.2,9.82,8.2,21.43c0,5.42-3.41,9.85-7.7,10.17v-8.98Z" stroke-width="0"/></g><g id="uuid-57e4403d-0090-4cbc-99eb-d1973aef3dfb"></g></svg>