<?xml version="1.0" encoding="utf-8"?> <!-- Generator: Adobe Illustrator 27.7.0, SVG Export Plug-In . SVG Version: 6.00 Build 0) --> <svg width="70" height="70" version="1.1" xmlns="http://www.w3.org/2000/svg" xmlns:xlink="http://www.w3.org/1999/xlink" x="0px" y="0px" viewBox="-10 -10 70 70" style="enable-background:new 0 0 50 50;" xml:space="preserve"><rect x="-10" y="-10" width="70" height="70" fill="white"/> <style type="text/css"> .st0{fill:#FFCD00;} .st1{display:none;} .st2{display:inline;fill:none;stroke:#EA008A;stroke-width:0.2;stroke-miterlimit:10;} .st3{font-family:'Roboto-Regular';} .st4{font-size:6px;} </style> <g id="Color"> <rect x="21.6953" y="5.6733" class="st0" width="6.1719" height="2.2188"/> <path class="st0" d="M12.7305,19.4731c-0.749,0.5527-1.3965,1.0298-2.4336,1.0298c-0.8594,0-2.0557-0.1948-2.8711-1.1216 c-0.6709-0.7622-0.9541-1.8657-0.8438-3.2852h12.7793c-0.0967,0.8379-0.3496,1.4224-0.7686,1.7793 c-0.4951,0.4209-1.2646,0.5586-2.3564,0.4268C14.5908,18.0996,13.6035,18.8301,12.7305,19.4731z" stroke-width="0"/> <rect x="27.5938" y="37.814" class="st0" width="6.1729" height="2.0938"/> </g> <g id="ICONS_00000031165542127692736420000002692518830807990202_"> <g> <path d="M35.5586,17.1113c-0.8325,0-1.6439,0.0867-2.4356,0.2303l-1.2548-5.7449c1.6387-0.7061,3.1104-2.1538,2.8428-3.687 c-0.2177-1.2479-1.6711-2.7056-6.9688-2.7479V4.0483c0-0.2764-0.2236-0.5-0.5-0.5h-7.1719c-0.2764,0-0.5,0.2236-0.5,0.5v3.2188 c0,0.2764,0.2236,0.5,0.5,0.5h7.1719c0.2764,0,0.5-0.2236,0.5-0.5V6.1627c5.2519,0.0519,5.9048,1.4677,5.9834,1.9188 c0.1631,0.9331-1.0283,2.1846-2.6016,2.7324c-0.2393,0.083-0.3779,0.3315-0.3242,0.5791l0.7132,3.2646 c-6.5355,0.9296-11.9887,3.764-16.1419,8.3287l-2.0197-4.5685c0.4605-0.2144,0.9731-0.3292,1.6388-0.2484 c1.3838,0.1714,2.4062-0.0449,3.126-0.6577c0.7256-0.6177,1.1035-1.606,1.1582-3.0215c0.0049-0.1357-0.0459-0.2681-0.1396-0.3657 c-0.0947-0.0981-0.2246-0.1533-0.3604-0.1533H5.0059c-0.252,0-0.4639,0.187-0.4961,0.4365 c-0.2461,1.9287,0.1035,3.4458,1.04,4.5093c0.8418,0.9561,2.0938,1.4609,3.6221,1.4609c1.3662,0,2.249-0.6509,3.0273-1.2251 c0.0981-0.0723,0.1945-0.1432,0.2906-0.2122l2.1542,4.873c-1.8005,2.1479-3.337,4.6404-4.5831,7.471 c-0.7666-0.3013-1.598-0.4727-2.4702-0.4727c-3.7383,0-6.7803,3.0415-6.7803,6.7803s3.042,6.7803,6.7803,6.7803 s6.7803-3.0415,6.7803-6.7803c0-2.5112-1.3757-4.7028-3.4095-5.8746c2.8379-6.4637,8.7388-14.3975,20.7657-16.079l0.4199,1.9222 c-5.8672,1.5204-10.2195,6.845-10.2195,13.1808c0,7.5161,6.1152,13.6309,13.6309,13.6309s13.6309-6.1147,13.6309-13.6309 C49.1895,23.2261,43.0742,17.1113,35.5586,17.1113z M26.7422,6.7671h-6.1719V4.5483h6.1719V6.7671z M11.6055,18.3481 c-0.749,0.5527-1.3965,1.0298-2.4336,1.0298c-0.8594,0-2.0557-0.1948-2.8711-1.1216c-0.6709-0.7622-0.9541-1.8657-0.8438-3.2852 h12.7793c-0.0967,0.8379-0.3496,1.4224-0.7686,1.7793c-0.4951,0.4209-1.2646,0.5586-2.3564,0.4268 C13.4658,16.9746,12.4785,17.7051,11.6055,18.3481z M13.3711,37.5923c0,3.187-2.5928,5.7803-5.7803,5.7803 s-5.7803-2.5933-5.7803-5.7803s2.5928-5.7803,5.7803-5.7803S13.3711,34.4053,13.3711,37.5923z M32.3605,18.5374l0.4974,2.2769 c-4.3708,1.1909-7.5982,5.1844-7.5982,9.9274c0,1.7455,0.4614,3.4333,1.2947,4.9473h-0.5857c-0.2764,0-0.5,0.2236-0.5,0.5v2.1191 c-1.5878-2.1119-2.541-4.7267-2.541-7.5663C22.9277,24.8839,26.9421,19.959,32.3605,18.5374z M26.4688,38.7827V36.689h6.1729 v2.0938H26.4688z M33.1416,35.689h-1.3711l1.7947-1.9902c0.5695,0.3852,1.2557,0.6104,1.9934,0.6104 c1.9668,0,3.5674-1.6001,3.5674-3.5674c0-1.9668-1.6006-3.5669-3.5674-3.5669c-0.0964,0-0.1871,0.0209-0.2816,0.0284 l-1.2289-5.6264c0.4929-0.0811,0.9951-0.134,1.5106-0.134c5.127,0,9.2988,4.1714,9.2988,9.2988s-4.1719,9.2993-9.2988,9.2993 c-0.7701,0-1.5338-0.1007-2.2744-0.287c0.2053-0.0622,0.3574-0.2455,0.3574-0.4713V36.189 C33.6416,35.9126,33.418,35.689,33.1416,35.689z M32.9912,30.7417c0-1.4155,1.1514-2.5669,2.5674-2.5669 s2.5674,1.1514,2.5674,2.5669s-1.1514,2.5674-2.5674,2.5674c-0.4796,0-0.9236-0.1405-1.3081-0.3703l1.6792-1.8621 c0.1855-0.2051,0.1689-0.5215-0.0361-0.7061c-0.2051-0.1851-0.5215-0.1675-0.7061,0.0361l-1.68,1.863 C33.1876,31.8416,32.9912,31.3161,32.9912,30.7417z M34.3,27.4155c-1.3455,0.511-2.3088,1.8038-2.3088,3.3262 c0,0.8689,0.3246,1.6556,0.8427,2.275l-2.4097,2.6722h-2.7296c-0.9335-1.4814-1.4349-3.1859-1.4349-4.9473 c0-4.2649,2.8901-7.8592,6.8115-8.9509L34.3,27.4155z M35.5586,43.3726c-3.4217,0-6.5252-1.3726-8.8021-3.5898h3.8833 c1.5025,0.8184,3.1973,1.2583,4.9188,1.2583c5.6787,0,10.2988-4.6201,10.2988-10.2993c0-5.6787-4.6201-10.2988-10.2988-10.2988 c-0.5886,0-1.1622,0.0609-1.7241,0.1562l-0.4979-2.2797c0.7228-0.129,1.4628-0.2081,2.222-0.2081 c6.9648,0,12.6309,5.666,12.6309,12.6304C48.1895,37.7065,42.5234,43.3726,35.5586,43.3726z" stroke-width="0"/> <path d="M3.8662,37.5923c0,2.0542,1.6709,3.7251,3.7246,3.7251c2.0547,0,3.7256-1.6709,3.7256-3.7251 s-1.6709-3.7251-3.7256-3.7251C5.5371,33.8672,3.8662,35.5381,3.8662,37.5923z M10.3164,37.5923 c0,1.5024-1.2227,2.7251-2.7256,2.7251c-1.502,0-2.7246-1.2227-2.7246-2.7251s1.2227-2.7251,2.7246-2.7251 C9.0938,34.8672,10.3164,36.0898,10.3164,37.5923z" stroke-width="0"/> </g> </g> <g id="Margin" class="st1"> <rect x="1" y="1" class="st2" /> </g> <g id="Guides" class="st1"> </g> <g id="LABELS"> <g> <g> <g> <g> <g> </g> </g> </g> </g> </g> </g> </svg> 