<?xml version="1.0" encoding="UTF-8"?><svg width="70" height="70" id="uuid-1763ce41-db55-4c39-90cf-525d9b50dcb1" xmlns="http://www.w3.org/2000/svg" viewBox="-10 -10 70 70"><rect x="-10" y="-10" width="70" height="70" fill="white"/><path d="M34.84,3.53l-1.54,10.9c-.02,.11-.06,.21-.14,.28L6.83,41.05l1.36,1.36,3.86-3.86c.1-.1,.22-.15,.35-.15,.05,0,.1,0,.15,.02,.18,.06,.31,.21,.34,.39,.22,1.32,.84,2.52,1.78,3.46,2.5,2.5,6.56,2.5,9.06,0l9.56-9.56c2.5-2.5,2.5-6.56,0-9.06-.94-.94-2.13-1.55-3.46-1.78-.18-.03-.34-.16-.39-.34-.06-.18,0-.37,.12-.51l5.21-5.21c.08-.08,.18-.13,.28-.14l10.46-1.48L34.84,3.53Zm-3.24,21l.81,.81c1.53,1.53,1.53,4.01,0,5.54l-10.37,10.37c-.76,.76-1.77,1.15-2.77,1.15s-2.01-.38-2.77-1.15l-.81-.81c-1.53-1.53-1.53-4.01,0-5.54l10.37-10.37c1.48-1.48,4.06-1.48,5.54,0Z" fill="#ffcd00" stroke-width="0"/><path d="M46.25,13.54L34.16,1.45c-.13-.13-.33-.18-.51-.12-.18,.06-.31,.22-.34,.4l-1.65,11.73-10.01,10.01-1.59-1.59,.14-.14c.2-.2,.2-.51,0-.71s-.51-.2-.71,0l-.98,.98c-.2,.2-.2,.51,0,.71,.1,.1,.23,.15,.35,.15s.26-.05,.35-.15l.14-.14,1.59,1.59-2.12,2.12-1.59-1.59,.14-.14c.2-.2,.2-.51,0-.71s-.51-.2-.71,0l-.98,.98c-.2,.2-.2,.51,0,.71,.1,.1,.23,.15,.35,.15s.26-.05,.35-.15l.14-.14,1.59,1.59-2.12,2.12-1.59-1.59,.14-.14c.2-.2,.2-.51,0-.71s-.51-.2-.71,0l-.98,.98c-.2,.2-.2,.51,0,.71,.1,.1,.23,.15,.35,.15s.26-.05,.35-.15l.14-.14,1.59,1.59-2.02,2.02h0l-7.82,7.82-.87-.87c-.2-.2-.51-.2-.71,0l-1.99,1.99c-.2,.2-.2,.51,0,.71l4.32,4.32c.1,.1,.23,.15,.35,.15s.26-.05,.35-.15l1.99-1.99c.2-.2,.2-.51,0-.71l-.68-.68,3.23-3.23c.35,1.17,.98,2.22,1.85,3.09,1.44,1.44,3.34,2.17,5.24,2.17,1.9,0,3.79-.72,5.24-2.17l9.56-9.56c2.89-2.89,2.89-7.59,0-10.48-.87-.87-1.92-1.5-3.09-1.85l4.45-4.45,11.29-1.59c.19-.03,.34-.16,.4-.34,.06-.18,.01-.38-.12-.51Zm-12.16,1.62l-5.21,5.21-3.51,3.51-.77,.77-.89,.89-1.36-1.36,10.13-10.13c.08-.08,.13-.18,.14-.28l1.54-10.9,10.68,10.67-10.46,1.48c-.11,.02-.21,.06-.28,.14ZM13.99,41.6c-.94-.94-1.55-2.14-1.78-3.46,0-.03-.03-.05-.04-.08-.31-2.01,.36-4.06,1.79-5.5l2.02-2.02,1.36,1.36-2.33,2.33c-1.53,1.53-1.53,4.01,0,5.54l.81,.81c.76,.76,1.77,1.15,2.77,1.15s2.01-.38,2.77-1.15l10.37-10.37c1.53-1.53,1.53-4.01,0-5.54l-.81-.81c-.82-.82-1.92-1.19-3-1.12l1.48-1.48c1.22,.25,2.34,.84,3.22,1.72,2.5,2.5,2.5,6.56,0,9.06l-9.56,9.56c-2.5,2.5-6.56,2.5-9.06,0Zm-7.84-1.22l5.22-5.22c-.25,.94-.32,1.92-.19,2.9l-3.67,3.67-1.36-1.36Zm19.17-15.04l.77-.77c.57-.57,1.32-.85,2.06-.85s1.5,.28,2.06,.85l.81,.81c1.14,1.14,1.14,2.99,0,4.13l-1.67,1.67-4.94-4.94,.89-.89Zm3.34,6.54l-2.12,2.12-4.94-4.94,2.12-2.12,4.94,4.94Zm-4.95,4.95l-4.94-4.94,2.12-2.12,4.94,4.94-2.12,2.12Zm-.71,.71l-2.33,2.33c-1.14,1.14-2.99,1.14-4.13,0l-.81-.81c-1.14-1.14-1.14-2.99,0-4.13l2.33-2.33,4.94,4.94Zm-2.11-9.18l-1.36-1.36,2.12-2.12,1.36,1.36-2.12,2.12Zm-.71,.71l-2.12,2.12-1.36-1.36,2.12-2.12,1.36,1.36Zm-13.63,15.7l-3.62-3.62,1.28-1.28,.87,.87,2.06,2.06,.68,.68-1.28,1.28Z" stroke-width="0"/></svg>