<?xml version="1.0" encoding="UTF-8"?><svg width="70" height="70" id="uuid-0b28f16e-bf79-4fb1-b859-f372cc89c79f" xmlns="http://www.w3.org/2000/svg" viewBox="-10 -10 70 70"><rect x="-10" y="-10" width="70" height="70" fill="white"/><g><path d="M39.68,43.66l1.01-3.19-2.59,2.77-3.45,1.68-4.59-1-2.17-1.75-.28-2.23-1.86-2.65s-.81-1.11-1.55-2.1v-12.13h-3.34v15.67c0,3.18,1.46,6.03,3.74,7.91l.2,.5,.56,.07c1.64,1.12,3.62,1.78,5.76,1.78,4.28,0,7.95-2.64,9.48-6.37-.27,.37-.58,.71-.91,1.04Z" fill="#ffcd00" stroke-width="0"/><g><path d="M25.24,38.03c-.02-.26-.04-.51-.04-.77v-.32c.4,.72,.92,1.37,1.54,1.94,.11,.1,.21,.19,.32,.29,.6,2.04,2.15,3.63,4.09,4.31,.67,.23,1.39,.36,2.13,.36h.02c1.5,0,2.88-.52,3.97-1.38,.89-.69,1.59-1.6,2.02-2.65,.32-.76,.49-1.6,.49-2.47v-14.03c0-3.59-2.91-6.5-6.5-6.5-2.52,0-4.76,1.43-5.84,3.68-.3-.54-.79-.97-1.39-1.17,1.33-2.66,4.07-4.49,7.23-4.49,4.46,0,8.08,3.63,8.08,8.08v14.35c0,.59-.07,1.17-.19,1.73-.51,2.35-2.05,4.31-4.12,5.41-.63,.33-1.31,.59-2.02,.74-.57,.13-1.15,.2-1.75,.2-1.54,0-2.98-.45-4.21-1.2-.57-.35-1.1-.76-1.56-1.24-1.26-1.28-2.09-2.98-2.27-4.87Z" fill="#ffcd00" stroke-width="0"/><path d="M24.2,22.07h-5.73c.12-.29,.19-.6,.19-.94s-.07-.65-.19-.95h6.79c.14,0,.27,.03,.4,.06,.5,.14,.89,.53,1.03,1.03,.04,.13,.07,.26,.07,.41v.98l.02,10.43c.15,2.78,2.44,4.95,5.21,4.95s5.24-2.35,5.24-5.23v-5.5c0-2.89-2.35-5.24-5.24-5.24-1.72,0-3.26,.84-4.21,2.15v-.91c0-.66,.12-1.3,.35-1.92,1.14-.8,2.47-1.21,3.86-1.21,3.74,0,6.79,3.04,6.79,6.79v6.18c0,3.74-3.05,6.79-6.79,6.79-1.53,0-2.98-.5-4.19-1.46-1.65-1.29-2.59-3.22-2.6-5.3v-10.61c0-.27-.22-.5-.5-.5h-.5Z" fill="#ffcd00" stroke-width="0"/><path d="M33.5,2.35c-6.25,3.45-9.3,8.18-9.3,14.4v2.43h-3.34v-2.43c0-6.22-3.04-10.95-9.3-14.4h21.94Z" fill="#ffcd00" stroke-width="0"/></g></g><path d="M32.61,13.16c-3.52,0-6.57,2.02-8.08,4.96v-2.04c0-6.39,3.47-11.11,10.6-14.45,.21-.1,.33-.33,.28-.56-.06-.23-.26-.39-.49-.39H8.81c-.24,0-.44,.16-.49,.39-.05,.23,.06,.46,.27,.56,7.14,3.34,10.6,8.06,10.6,14.45v2.43h-2.15c-.43-.35-.97-.57-1.57-.57h-.97v-.24c0-.28-.22-.5-.5-.5s-.5,.22-.5,.5v5.53c0,.27,.22,.5,.5,.5s.5-.23,.5-.5v-.25h.97c.6,0,1.15-.22,1.59-.58h2.13v15.67c0,6.2,5.05,11.25,11.25,11.25s11.25-5.05,11.25-11.25v-15.83c0-5.01-4.07-9.08-9.08-9.08ZM15.47,21.98h-.97v-3.04h.97c.84,0,1.52,.69,1.52,1.52s-.68,1.52-1.52,1.52ZM10.89,1.68h21.94c-6.25,3.45-9.3,8.18-9.3,14.4v2.43h-3.34v-2.43c0-6.22-3.04-10.95-9.3-14.4Zm6.91,19.72c.12-.29,.19-.6,.19-.94s-.07-.65-.19-.95h6.79c.14,0,.27,.03,.4,.06,.5,.14,.89,.53,1.03,1.03,.04,.13,.07,.26,.07,.41v.98l.02,10.43c.15,2.78,2.44,4.95,5.21,4.95s5.24-2.35,5.24-5.23v-5.5c0-2.89-2.35-5.24-5.24-5.24-1.72,0-3.26,.84-4.21,2.15v-.91c0-.66,.12-1.3,.35-1.92,1.14-.8,2.47-1.21,3.86-1.21,3.74,0,6.79,3.04,6.79,6.79v6.18c0,3.74-3.05,6.79-6.79,6.79-1.53,0-2.98-.5-4.19-1.46-1.65-1.29-2.59-3.22-2.6-5.3v-10.61c0-.27-.22-.5-.5-.5h-6.23Zm16.38,3.98c-.28,0-.5,.23-.5,.5v1.39c0,.28,.22,.5,.5,.5s.5-.22,.5-.5v-.19h.88v1.95h-.88v-.2c0-.27-.23-.5-.5-.5s-.5,.23-.5,.5v1.4c0,.27,.22,.5,.5,.5s.5-.23,.5-.5v-.2h.88v1.95h-.88v-.2c0-.27-.23-.5-.5-.5s-.5,.23-.5,.5v1.4c0,.27,.22,.5,.5,.5s.5-.23,.5-.5v-.2h.79c-.39,1.93-2.1,3.39-4.15,3.39-2.24,0-4.09-1.76-4.21-3.98v-5.98c.12-2.25,1.97-4.01,4.21-4.01s3.9,1.61,4.18,3.68h-.82v-.2c0-.27-.23-.5-.5-.5Zm-5.77-6.28c1.02-1.23,2.54-1.96,4.2-1.96,2.98,0,5.41,2.38,5.49,5.34-1.33-2.37-3.87-3.97-6.78-3.97-1.01,0-1.99,.21-2.91,.59Zm9.7,17.19v.38c0,3.03-2.47,5.5-5.5,5.5-1.98,0-3.75-1.07-4.72-2.72,1.06,.53,2.22,.82,3.43,.82,2.91,0,5.46-1.61,6.79-3.98Zm-7.67,12.03c-5.65,0-10.25-4.6-10.25-10.25v-15.67h3.34v14.19c0,5,4.07,9.08,9.08,9.08,3,0,5.66-1.47,7.31-3.72-1.53,3.73-5.2,6.37-9.48,6.37Zm10.25-11.9v.17c0,.59-.07,1.17-.19,1.73-.51,2.35-2.05,4.31-4.12,5.41-.63,.33-1.31,.59-2.02,.74-.57,.13-1.15,.2-1.75,.2-1.54,0-2.98-.45-4.21-1.2-.57-.35-1.1-.76-1.56-1.24-1.26-1.28-2.09-2.98-2.27-4.87-.02-.26-.04-.51-.04-.77v-.32c.4,.72,.92,1.37,1.54,1.94,.11,.1,.21,.19,.32,.29,.6,2.04,2.15,3.63,4.09,4.31,.67,.23,1.39,.36,2.13,.36h.02c1.5-.01,2.88-.52,3.97-1.38,.89-.69,1.59-1.6,2.02-2.65,.32-.76,.49-1.6,.49-2.47v-14.03c0-3.59-2.91-6.5-6.5-6.5-2.52,0-4.76,1.43-5.84,3.68-.3-.54-.79-.97-1.39-1.17,1.33-2.66,4.07-4.49,7.23-4.49,4.46,0,8.08,3.63,8.08,8.08v14.18Z" stroke-width="0"/></svg>