<?xml version="1.0" encoding="utf-8"?> <!-- Generator: Adobe Illustrator 27.7.0, SVG Export Plug-In . SVG Version: 6.00 Build 0) --> <svg width="70" height="70" version="1.1" xmlns="http://www.w3.org/2000/svg" xmlns:xlink="http://www.w3.org/1999/xlink" x="0px" y="0px" viewBox="-10 -10 70 70" style="enable-background:new 0 0 50 50;" xml:space="preserve"><rect x="-10" y="-10" width="70" height="70" fill="white"/> <style type="text/css"> .st0{fill:#FFCD00;} .st1{display:none;} .st2{display:inline;fill:none;stroke:#EA008A;stroke-width:0.2;stroke-miterlimit:10;} .st3{font-family:'Roboto-Regular';} .st4{font-size:6px;} </style> <g id="Color"> <g> <path class="st0" d="M20.6504,5.4438c-0.2549,2.0537-0.7861,7.8208,0.752,11.083c1.041,2.2075,2.8721,3.2358,5.7598,3.2358 s4.7188-1.0283,5.7598-3.2358c1.5381-3.2622,1.0068-9.0293,0.752-11.083c-0.8154,0.5195-2.2871,1.4971-3.7266,2.6572 l-0.4863,0.3921l-0.2754-0.5605c-0.7598-1.541-1.5557-2.8608-2.0234-3.6006c-0.4678,0.7397-1.2637,2.0596-2.0234,3.6011 l-0.2754,0.561L24.377,8.1016C22.9375,6.9409,21.4658,5.9634,20.6504,5.4438z" stroke-width="0"/> </g> <path class="st0" d="M26.9746,49.0235c9.0141-5.4475,9.8293-13.1049,10.4258-19.2974c0.1133-1.1782,0.2227-2.313,0.3896-3.3462 c-0.1465,0.126-0.2979,0.2559-0.4551,0.3901c-3.4635,2.9635-9.1979,7.8902-10.3604,15.9883 c-1.1624-8.0981-6.8969-13.0248-10.3604-15.9883c-0.1572-0.1343-0.3086-0.2642-0.4551-0.3901 c0.167,1.0332,0.2764,2.168,0.3896,3.3462C17.1453,35.9186,17.9605,43.576,26.9746,49.0235z" stroke-width="0"/> </g> <g id="ICONS_00000031165542127692736420000002692518830807990202_"> <path d="M38.0898,23.0654c-0.1943-0.1138-0.4385-0.085-0.6006,0.0713c-0.4062,0.3911-0.9395,0.8467-1.5547,1.3735 c-2.8032,2.3986-7.584,6.5004-9.7725,12.805V19.2379c2.9916-0.1255,5.0193-1.3573,6.1641-3.7842 c2.0176-4.2783,0.7852-12.0908,0.7314-12.4209c-0.0264-0.1631-0.1309-0.3022-0.2803-0.3726 c-0.1494-0.0713-0.3242-0.062-0.4648,0.0205c-0.0824,0.048-1.9266,1.1373-3.9963,2.7697c-1.0862-2.1149-2.1514-3.6866-2.242-3.8185 c-0.1855-0.2725-0.6387-0.2725-0.8242,0c-0.0906,0.132-1.1558,1.7037-2.242,3.8185c-2.0697-1.6324-3.9139-2.7217-3.9963-2.7697 c-0.1406-0.0835-0.3164-0.0923-0.4648-0.0205c-0.1494,0.0703-0.2539,0.2095-0.2803,0.3726 c-0.0537,0.3301-1.2861,8.1426,0.7314,12.4209c1.1448,2.4269,3.1724,3.6588,6.1641,3.7842v18.0774 c-2.1885-6.3046-6.9692-10.4064-9.7725-12.805c-0.6152-0.5269-1.1484-0.9824-1.5547-1.3735 c-0.1611-0.1562-0.4072-0.1851-0.6006-0.0713s-0.2871,0.3428-0.2295,0.5596c0.3467,1.3037,0.498,2.8765,0.6738,4.6973 c0.6012,6.2482,1.4307,14.7953,11.6295,20.5222c0.0905,0.0906,0.2155,0.1467,0.3539,0.1467s0.2634-0.0561,0.3539-0.1467 c10.1989-5.7269,11.0283-14.274,11.6295-20.5222c0.1758-1.8208,0.3271-3.3936,0.6738-4.6973 C38.377,23.4082,38.2832,23.1792,38.0898,23.0654z M32.1738,3.9404c0.2539,2.0513,0.7871,7.8228-0.752,11.0864 c-0.5203,1.1032-1.2379,1.9118-2.186,2.4448c0.9109-1.1011,1.4751-2.6191,1.4751-4.293c0-2.1516-0.921-4.6732-1.942-6.814 C30.1287,5.2796,31.429,4.413,32.1738,3.9404z M25.6621,2.8311c1.1055,1.7471,4.0488,6.7393,4.0488,10.3477 c0,2.8032-1.8164,5.084-4.0488,5.084s-4.0488-2.2808-4.0488-5.084C21.6133,9.5703,24.5566,4.5781,25.6621,2.8311z M19.9023,15.0269 c-1.5391-3.2637-1.0059-9.0352-0.752-11.0864c0.7449,0.4721,2.0444,1.3379,3.405,2.4243c-1.021,2.1407-1.9421,4.6624-1.9421,6.814 c0,1.6739,0.5641,3.1918,1.4751,4.293C21.1403,16.9387,20.4226,16.1301,19.9023,15.0269z M14.6738,28.2261 c-0.1133-1.1782-0.2227-2.313-0.3896-3.3462c0.1465,0.126,0.2979,0.2559,0.4551,0.3901c3.5129,3.0057,9.369,8.0261,10.4169,16.3896 c-0.0025,0.021-0.0072,0.0405-0.0096,0.0615c-0.0072,0.0633,0.0004,0.1245,0.0156,0.1827v5.6842 C16.0393,42.1359,15.2726,34.4445,14.6738,28.2261z M36.6504,28.2261c-0.5988,6.2184-1.3655,13.9099-10.4883,19.362v-5.6842 c0.0152-0.0582,0.0228-0.1194,0.0156-0.1827c-0.0024-0.021-0.0071-0.0405-0.0096-0.0615 c1.0479-8.3636,6.904-13.3839,10.4169-16.3896c0.1572-0.1343,0.3086-0.2642,0.4551-0.3901 C36.873,25.9131,36.7637,27.0479,36.6504,28.2261z" stroke-width="0"/> </g> <g id="Margin" class="st1"> <rect x="1" y="1" class="st2" /> </g> <g id="Guides" class="st1"> </g> <g id="LABELS"> <g> <g> <g> <g> <g> <g> <g> </g> </g> </g> </g> </g> </g> </g> </g> </svg> 