<?xml version="1.0" encoding="UTF-8"?><svg width="70" height="70" xmlns="http://www.w3.org/2000/svg" viewBox="-10 -10 70 70"><rect x="-10" y="-10" width="70" height="70" fill="white"/><g id="uuid-19542c39-a100-4405-84d2-6b12d0eb7142"><g><path d="M44.21,20.41c-.78,0-1.52,.33-2.04,.91-.12,.14-.31,.2-.48,.15-.18-.04-.32-.17-.37-.35-.08-.29-.19-.56-.31-.82-.09-.21-.03-.46,.15-.6,1.48-1.14,2.33-2.86,2.33-4.72,0-3.29-2.68-5.97-5.97-5.97-1.13,0-2.25,.33-3.22,.94-.11,.07-.25,.1-.38,.07-.13-.03-.24-.11-.31-.22-1-1.59-2.71-2.55-4.58-2.55-2.77,0-5.08,2.08-5.37,4.84-.02,.16-.11,.31-.25,.39-.14,.08-.31,.08-.46,.01-1.84-.89-3.94-.86-5.67-.01-2.25,1.09-3.64,3.32-3.64,5.82,0,.6,.09,1.2,.26,1.78,.08,.26-.07,.54-.34,.62-.28,.08-.55,.19-.82,.3-.2,.09-.44,.03-.58-.14-.14-.17-.16-.41-.04-.59,.33-.51,.51-1.1,.51-1.71,0-1.73-1.41-3.14-3.14-3.14s-3.14,1.41-3.14,3.14,1.41,3.14,3.14,3.14c.23,0,.43-.02,.61-.06,.22-.05,.44,.05,.54,.25,.11,.19,.07,.44-.08,.59-1.33,1.33-2.05,3.1-2.05,4.98,0,2.01,.83,3.87,2.33,5.23,.1,.09,.16,.22,.16,.36s-.05,.27-.15,.37c-.56,.56-.86,1.29-.86,2.07,0,1.62,1.32,2.94,2.94,2.94,.69,0,1.34-.25,1.89-.71,.11-.09,.25-.13,.39-.11,.14,.02,.27,.1,.35,.22l.06,.09c.08,.12,.1,.26,.07,.39-.03,.14-.12,.25-.24,.32-1.2,.69-1.95,1.97-1.95,3.34,0,2.12,1.73,3.85,3.85,3.85s3.86-1.73,3.86-3.85c0-.14,.06-.31,.16-.41,.11-.09,.25-.17,.39-.16,1,.12,2.06,.05,3.08-.24,.05-.01,.09-.02,.14-.02,.2,0,.39,.12,.46,.31,.88,2.22,2.89,3.85,5.23,4.26,3.81,.63,7.24-1.83,7.99-5.41,.03-.16,.14-.29,.28-.35,.15-.06,.31-.06,.45,.02,.43,.25,.88,.37,1.34,.37,1.51,0,2.74-1.23,2.74-2.74,0-.94-.48-1.8-1.29-2.32-.17-.11-.26-.3-.23-.5,.03-.2,.18-.36,.37-.4,1.94-.49,3.3-2.23,3.3-4.23,0-1.31-.59-2.55-1.62-3.38-.16-.13-.23-.35-.16-.55,.07-.2,.25-.33,.46-.34,1.47-.05,2.63-1.25,2.63-2.72s-1.23-2.74-2.74-2.74Z" fill="#ffcd00" stroke-width="0"/><g><path d="M46.92,5.29h-2.57l.53-1.75c.08-.26-.07-.54-.33-.62-.26-.08-.54,.07-.62,.33l-.69,2.28-2.61,2.71c-1.26-1.22-2.97-1.97-4.85-1.97-1.17,0-2.31,.29-3.34,.85-1.21-1.64-3.1-2.61-5.15-2.61-3.06,0-5.65,2.14-6.26,5.08-1.88-.72-3.96-.63-5.73,.17-1.69-1.69-3.61-3.53-4.92-4.52,.03-.06,.04-.12,.05-.18,0-.09,.17-2.12,0-3.33-.04-.27-.3-.46-.57-.42-.27,.04-.46,.29-.42,.57,.12,.82,.06,2.15,.02,2.77-.07-.03-.14-.08-.2-.1-1.71-.56-5.96-.73-6.14-.74-.28,0-.51,.2-.52,.48s.2,.51,.48,.52c.04,0,4.28,.17,5.86,.69,.73,.24,3.07,2.41,5.43,4.75-1.57,.99-2.7,2.5-3.19,4.25-.75-1.1-2-1.82-3.43-1.82-2.28,0-4.14,1.86-4.14,4.14,0,2.14,1.64,3.91,3.73,4.12-1.02,1.38-1.57,3.04-1.57,4.78,0,2.1,.83,4.12,2.3,5.63-.53,.69-.82,1.52-.82,2.39,0,2.17,1.77,3.94,3.94,3.94,.1,0,.2,0,.3-.01-.47,.75-.73,1.63-.73,2.54,0,2.67,2.18,4.85,4.85,4.85,2.5,0,4.56-1.89,4.82-4.37,.82,.06,1.69-.02,2.52-.22,.05,.11,.12,.21,.17,.32-.03,.05-.05,.09-.06,.15l-.83,4.31-1.69,2.7c-.15,.23-.08,.54,.16,.69,.08,.05,.17,.08,.27,.08,.17,0,.33-.08,.42-.23l1.12-1.78,1.73,1.78c.1,.1,.23,.15,.36,.15s.25-.05,.35-.14c.2-.19,.2-.51,.01-.71l-1.89-1.94h-.01l.08-.13c.03-.05,.06-.11,.07-.17l.68-3.56c1.2,1.54,2.93,2.62,4.89,2.96,.47,.08,.93,.12,1.37,.12,3.52,0,6.63-2.36,7.62-5.7,.41,.15,.83,.23,1.25,.23,2.06,0,3.74-1.68,3.74-3.74,0-.96-.37-1.87-1.02-2.56,1.91-.85,3.18-2.75,3.18-4.89,0-1.28-.45-2.49-1.27-3.45,1.5-.48,2.57-1.88,2.57-3.54,0-2.06-1.68-3.74-3.74-3.74-.58,0-1.15,.14-1.66,.39,1.24-1.29,1.94-3,1.94-4.82,0-1.6-.55-3.07-1.45-4.25l2.6-2.7h3.03c.28,0,.5-.22,.5-.5s-.22-.5-.5-.5Zm-7.5,12.67c-.18,.14-.25,.39-.15,.6,.12,.27,.22,.54,.31,.82,.05,.17,.19,.31,.37,.35,.18,.04,.36-.02,.48-.15,.52-.58,1.26-.91,2.04-.91,1.51,0,2.74,1.23,2.74,2.74s-1.15,2.67-2.63,2.72c-.21,0-.39,.14-.46,.34-.07,.2,0,.42,.16,.55,1.03,.83,1.62,2.07,1.62,3.38,0,2-1.36,3.74-3.3,4.23-.19,.05-.34,.21-.37,.4-.03,.2,.06,.39,.23,.5,.81,.51,1.29,1.38,1.29,2.32,0,1.51-1.23,2.74-2.74,2.74-.46,0-.91-.13-1.34-.37-.14-.08-.31-.09-.45-.02-.15,.07-.25,.2-.28,.35-.75,3.58-4.19,6.04-7.99,5.41-2.34-.41-4.35-2.05-5.23-4.26-.08-.19-.26-.31-.46-.31-.05,0-.09,0-.14,.02-1.02,.3-2.08,.37-3.08,.24-.14-.02-.28,.06-.39,.16-.11,.09-.16,.27-.16,.41,0,2.12-1.73,3.85-3.86,3.85s-3.85-1.73-3.85-3.85c0-1.37,.75-2.65,1.95-3.34,.12-.07,.21-.19,.24-.32,.03-.14,0-.28-.07-.39l-.06-.09c-.08-.12-.21-.2-.35-.22-.14-.02-.29,.02-.39,.11-.55,.46-1.2,.71-1.89,.71-1.62,0-2.94-1.32-2.94-2.94,0-.78,.31-1.51,.86-2.07,.1-.1,.15-.23,.15-.37s-.06-.27-.16-.36c-1.5-1.36-2.33-3.22-2.33-5.23,0-1.88,.73-3.64,2.05-4.98,.16-.16,.19-.4,.08-.59-.11-.19-.33-.3-.54-.25-.18,.04-.38,.06-.61,.06-1.73,0-3.14-1.41-3.14-3.14s1.41-3.14,3.14-3.14,3.14,1.41,3.14,3.14c0,.6-.18,1.19-.51,1.71-.12,.18-.1,.43,.04,.59,.14,.17,.38,.23,.58,.14,.26-.11,.54-.22,.82-.3,.26-.08,.41-.36,.34-.62-.17-.58-.26-1.18-.26-1.78,0-2.33,1.23-4.42,3.22-5.58,1.05,1.05,2.06,2.1,2.9,2.99,.1,.1,.23,.16,.36,.16,.12,0,.25-.04,.34-.14,.2-.19,.21-.51,.02-.71-.28-.3-1.35-1.42-2.68-2.77,1.62-.62,3.49-.57,5.15,.23,.15,.07,.32,.07,.46-.01,.14-.08,.24-.22,.25-.39,.29-2.76,2.6-4.84,5.37-4.84,1.87,0,3.58,.95,4.58,2.55,.07,.11,.18,.19,.31,.22,.13,.03,.27,0,.38-.07,.97-.62,2.09-.94,3.22-.94,3.29,0,5.97,2.68,5.97,5.97,0,1.86-.85,3.58-2.33,4.72Z" stroke-width="0"/><path d="M21.05,25.6c-1.24-.26-2.12-1.4-2.45-1.83-.12-.15-.39-.51-.78-.28-.39,.23-.25,.56-.04,1.06l.11,.28c.76,1.84,0,3.65,0,3.67-.11,.25,.01,.55,.26,.66,.06,.03,.13,.04,.2,.04,.19,0,.38-.11,.46-.3,.03-.07,.6-1.43,.36-3.11,.46,.35,1.02,.66,1.67,.79,.27,.06,.54-.12,.59-.39s-.12-.54-.39-.59Z" stroke-width="0"/><path d="M30.03,14.87s-1.76,.85-3,.03c-.23-.15-.54-.09-.69,.14s-.09,.54,.14,.69c.6,.4,1.25,.53,1.85,.53,1.14,0,2.09-.47,2.15-.5,.25-.12,.35-.42,.22-.67-.12-.25-.42-.35-.67-.23Z" stroke-width="0"/></g></g></g><g id="uuid-acad7795-c9f1-4a5c-bc78-c40ae1776cfc"></g></svg>