<?xml version="1.0" encoding="UTF-8"?><svg width="70" height="70" id="uuid-5468c91a-51b7-4e64-8e05-7945ac59fec3" xmlns="http://www.w3.org/2000/svg" viewBox="-10 -10 70 70"><rect x="-10" y="-10" width="70" height="70" fill="white"/><path d="M5.44,32.51H31.48l-.25-.41c-.14-.24-.07-.54,.17-.69l6.65-4.01c.11-.07,.25-.09,.38-.06,.13,.03,.24,.11,.31,.23l2.97,4.93h2.09V9.46H5.44v23.05Z" fill="none" stroke-width="0"/><path d="M38.29,40.01c.46,.76,1.26,1.17,2.08,1.17,.43,0,.86-.11,1.25-.35,.56-.33,.95-.87,1.1-1.49,.13-.52,.07-1.05-.13-1.54h-1.19c.07,.07,.14,.13,.19,.21,.2,.33,.25,.71,.16,1.08s-.32,.68-.65,.88c-.67,.41-1.55,.19-1.96-.49-.2-.33-.25-.71-.16-1.08,.06-.24,.19-.43,.35-.61h-1.19c-.05,.12-.1,.24-.13,.37-.16,.63-.06,1.28,.28,1.84Z" fill="none" stroke-width="0"/><path d="M39.63,37.54c.23-.14,.48-.21,.73-.21,.12,0,.23,.01,.35,.04,.27,.07,.5,.23,.69,.44h1.19c-.04-.1-.09-.21-.14-.3-.33-.56-.87-.95-1.49-1.1-.63-.16-1.28-.06-1.84,.28-.44,.27-.78,.66-.97,1.13h1.19c.09-.1,.18-.2,.3-.27Z" fill="#ffcd00" stroke-width="0"/><path d="M35.89,32.69c-.25-.41-.78-.54-1.19-.29-.2,.12-.34,.31-.39,.53-.06,.22-.02,.46,.1,.65,.16,.27,.45,.42,.74,.42,.15,0,.31-.04,.44-.12,.41-.25,.54-.78,.29-1.18Z" fill="#ffcd00" stroke-width="0"/><path d="M37.42,35.23c-.25-.41-.78-.54-1.19-.29-.2,.12-.34,.31-.39,.53s-.02,.46,.1,.65c.16,.27,.45,.42,.74,.42,.15,0,.31-.04,.44-.12,.41-.25,.54-.78,.29-1.18h0Z" fill="#ffcd00" stroke-width="0"/><path d="M3.77,7.66v30.15H21.19v4h6.88v-4h7.78l-3.49-5.8,5.79-3.49,5.6,9.29h5.23V7.66H3.77Zm40.04,24.85h-2.09l-2.97-4.93c-.07-.11-.18-.2-.31-.23-.13-.03-.26-.01-.38,.06l-6.65,4.01c-.24,.14-.31,.45-.17,.69l.25,.41H5.44V9.46H43.81v23.05Z" fill="#ffcd00" stroke-width="0"/><path d="M37.33,30.81c-.2,.12-.34,.31-.39,.53s-.02,.46,.1,.65c.12,.2,.31,.34,.53,.39,.07,.02,.14,.03,.21,.03,.16,0,.31-.04,.44-.12,.41-.25,.54-.78,.29-1.18h0c-.12-.2-.31-.34-.53-.39-.22-.06-.46-.02-.65,.1Z" fill="#ffcd00" stroke-width="0"/><path d="M38.47,33.89c-.06,.22-.02,.46,.1,.65,.12,.2,.31,.34,.53,.39,.07,.02,.14,.03,.21,.03,.16,0,.31-.04,.44-.12,.41-.25,.54-.78,.29-1.19h0c-.12-.2-.31-.34-.53-.39-.22-.06-.46-.02-.65,.1-.2,.12-.34,.31-.39,.53Z" fill="#ffcd00" stroke-width="0"/><path d="M28.96,28.08c.05,.02,.1,.02,.15,.02,.21,0,.41-.13,.48-.35,.19-.58,.79-2.03,2.36-2.97,1.57-.95,3.13-.8,3.73-.69,.27,.05,.53-.13,.58-.41,.05-.27-.13-.53-.41-.58-.71-.13-2.56-.3-4.42,.82-1.85,1.12-2.57,2.84-2.79,3.52-.08,.26,.06,.54,.32,.63Z" fill="#ffcd00" stroke-width="0"/><path d="M35.02,25.49c-.38-.07-1.38-.16-2.38,.44s-1.39,1.53-1.51,1.9c-.08,.26,.06,.54,.32,.63,.05,.02,.1,.02,.15,.02,.21,0,.41-.13,.48-.35,.08-.26,.36-.92,1.07-1.35,.71-.43,1.42-.36,1.69-.31,.27,.05,.53-.13,.58-.41,.05-.27-.13-.53-.41-.58Z" fill="#ffcd00" stroke-width="0"/><path d="M47.73,4.91H1.52c-.28,0-.5,.22-.5,.5v31.15c0,.28,.22,.5,.5,.5H20.19v4.75H11.29c-.28,0-.5,.22-.5,.5s.22,.5,.5,.5h26.66c.28,0,.5-.22,.5-.5s-.22-.5-.5-.5h-8.89v-4.75h5.16l-.6-1H2.02V5.91H47.23v30.15h-3.37l.6,1h3.27c.28,0,.5-.22,.5-.5V5.41c0-.28-.22-.5-.5-.5ZM28.06,41.81h-6.88v-4.75h6.88v4.75Z" stroke-width="0"/><path d="M44.81,33.01V8.96c0-.28-.22-.5-.5-.5H4.94c-.28,0-.5,.22-.5,.5v24.05c0,.28,.22,.5,.5,.5h27.14l-.6-1H5.44V9.46H43.81v23.05h-2.09l.6,1h1.99c.28,0,.5-.22,.5-.5Z" stroke-width="0"/><path d="M43.86,36.06l-1.54-2.55-.6-1-2.97-4.93c-.07-.11-.18-.2-.31-.23-.13-.03-.26-.01-.38,.06l-6.65,4.01c-.24,.14-.31,.45-.17,.69l.25,.41,.6,1,1.54,2.55,.6,1,2.86,4.75h.87c.28,0,.5,.22,.5,.5s-.22,.5-.5,.5h-.27l1.23,2.04c.07,.11,.18,.2,.31,.23,.04,0,.08,.01,.12,.01,.09,0,.18-.02,.26-.07l6.65-4.01c.24-.14,.31-.45,.17-.69l-1.97-3.26-.6-1Zm-11.51-4.05l5.79-3.49,7.17,11.89-5.79,3.49-7.17-11.89Z" stroke-width="0"/><path d="M37.56,32.39c.07,.02,.14,.03,.21,.03,.16,0,.31-.04,.44-.12,.41-.25,.54-.78,.29-1.18h0c-.12-.2-.31-.34-.53-.39-.22-.06-.46-.02-.65,.1-.2,.12-.34,.31-.39,.53s-.02,.46,.1,.65c.12,.2,.31,.34,.53,.39Z" stroke-width="0"/><path d="M35.59,33.87c.41-.25,.54-.78,.29-1.18-.25-.41-.78-.54-1.19-.29-.2,.12-.34,.31-.39,.53-.06,.22-.02,.46,.1,.65,.16,.27,.45,.42,.74,.42,.15,0,.31-.04,.44-.12Z" stroke-width="0"/><path d="M39.52,33.26c-.22-.06-.46-.02-.65,.1-.2,.12-.34,.31-.39,.53-.06,.22-.02,.46,.1,.65,.12,.2,.31,.34,.53,.39,.07,.02,.14,.03,.21,.03,.16,0,.31-.04,.44-.12,.41-.25,.54-.78,.29-1.19h0c-.12-.2-.31-.34-.53-.39Z" stroke-width="0"/><path d="M36.69,36.54c.15,0,.31-.04,.44-.12,.41-.25,.54-.78,.29-1.18h0c-.25-.41-.78-.54-1.19-.29-.2,.12-.34,.31-.39,.53s-.02,.46,.1,.65c.16,.27,.45,.42,.74,.42Z" stroke-width="0"/><path d="M41.62,40.84c.56-.33,.95-.87,1.1-1.49s.06-1.28-.28-1.84c-.33-.56-.87-.95-1.49-1.1-.63-.16-1.28-.06-1.84,.28-.56,.33-.95,.87-1.1,1.49-.16,.63-.06,1.28,.28,1.84,.46,.76,1.26,1.17,2.08,1.17,.43,0,.86-.11,1.25-.35Zm-2.48-1.34c-.2-.33-.25-.71-.16-1.08s.32-.68,.65-.88c.23-.14,.48-.21,.73-.21,.12,0,.23,.01,.35,.04,.37,.09,.68,.32,.88,.65,.2,.33,.25,.71,.16,1.08s-.32,.68-.65,.88c-.67,.41-1.55,.19-1.96-.49Z" stroke-width="0"/><path d="M35.85,23.1c-.71-.13-2.56-.3-4.42,.82-1.85,1.12-2.57,2.84-2.79,3.52-.08,.26,.06,.54,.32,.63,.05,.02,.1,.02,.15,.02,.21,0,.41-.13,.48-.35,.19-.58,.79-2.03,2.36-2.97,1.57-.95,3.13-.8,3.73-.69,.27,.05,.53-.13,.58-.41,.05-.27-.13-.53-.41-.58Z" stroke-width="0"/><path d="M35.02,25.49c-.38-.07-1.38-.16-2.38,.44s-1.39,1.53-1.51,1.9c-.08,.26,.06,.54,.32,.63,.05,.02,.1,.02,.15,.02,.21,0,.41-.13,.48-.35,.08-.26,.36-.92,1.07-1.35,.71-.43,1.42-.36,1.69-.31,.27,.05,.53-.13,.58-.41,.05-.27-.13-.53-.41-.58Z" stroke-width="0"/></svg>