<?xml version="1.0" encoding="utf-8"?> <!-- Generator: Adobe Illustrator 27.7.0, SVG Export Plug-In . SVG Version: 6.00 Build 0) --> <svg width="70" height="70" version="1.1" xmlns="http://www.w3.org/2000/svg" xmlns:xlink="http://www.w3.org/1999/xlink" x="0px" y="0px" viewBox="-10 -10 70 70" style="enable-background:new 0 0 50 50;" xml:space="preserve"><rect x="-10" y="-10" width="70" height="70" fill="white"/> <style type="text/css"> .st0{fill:#FFCD00;} .st1{display:none;} .st2{display:inline;fill:none;stroke:#EA008A;stroke-width:0.2;stroke-miterlimit:10;} .st3{font-family:'Roboto-Regular';} .st4{font-size:6px;} </style> <g id="Color"> <g> <path class="st0" d="M39.2134,11.9341l2.0586,2.0806c1.3193-1.1934,4.1074-3.29,7.6875-3.6113 c0.9399-1.1245,0.4443-3.2744-1.1646-4.9004c-0.8335-0.8423-1.834-1.4111-2.8169-1.6006 c-0.8423-0.1616-1.5679-0.0259-2.0708,0.3843C42.5469,7.8623,40.4209,10.6274,39.2134,11.9341z" stroke-width="0"/> </g> <g> <path class="st0" d="M3.8965,44.1572c-0.3447,0.3828-0.4673,0.9609-0.3442,1.6367c0.1421,0.7793,0.5845,1.5771,1.2466,2.2461 c1.2656,1.2812,3.0132,1.6982,3.8726,0.9443l2.9692-5.9932l-1.7197-1.7383L3.8965,44.1572z" stroke-width="0"/> </g> </g> <g id="ICONS_00000031165542127692736420000002692518830807990202_"> <path d="M48.0454,9.7417c1.4863-1.4707,1.02-4.3604-1.0396-6.4419c-0.9741-0.9844-2.1597-1.6519-3.3384-1.8794 c-1.2505-0.2402-2.3462,0.0332-3.0918,0.7705c-0.0454,0.0449-0.0795,0.0984-0.1048,0.1561 c-0.009,0.0208-0.0109,0.0425-0.017,0.0641c-0.0091,0.0316-0.0225,0.0617-0.0251,0.0948c-0.3032,3.7173-2.7358,6.541-3.7676,7.582 c-0.161,0.1622-0.1799,0.4035-0.0731,0.5934L8.233,38.7335l-6.3521,3.0624c-0.0498,0.0234-0.0952,0.0557-0.1343,0.0947 c-0.6274,0.6211-0.8682,1.5381-0.6777,2.583c0.1772,0.9756,0.7168,1.959,1.519,2.7695c1.0518,1.0635,2.3291,1.627,3.4536,1.627 c0.7285,0,1.3926-0.2363,1.8892-0.7275c0.0396-0.0391,0.0718-0.084,0.0967-0.1338l3.1309-6.3187l28.3551-28.0527 c0.0768,0.0443,0.1592,0.0746,0.2454,0.0746c0.1255,0,0.251-0.0469,0.3481-0.1411c1.0522-1.0205,3.9014-3.4233,7.6221-3.686 c0.0317-0.0022,0.0606-0.0149,0.0909-0.0229c0.0234-0.0062,0.0471-0.008,0.0696-0.0176 C47.947,9.8198,48.0004,9.7863,48.0454,9.7417z M43.478,2.4023c0.9829,0.1895,1.9834,0.7583,2.8169,1.6006 c1.4852,1.5009,2.006,3.4381,1.3404,4.6133l-5.9412-6.0055C42.1715,2.3498,42.7805,2.2685,43.478,2.4023z M10.7509,40.6865 l-1.5186-1.5352l28.0405-27.741l1.5185,1.5347L10.7509,40.6865z M7.1714,47.4844C6.312,48.2383,4.5645,47.8213,3.2988,46.54 c-0.6621-0.6689-1.1045-1.4668-1.2466-2.2461c-0.123-0.6758-0.0005-1.2539,0.3442-1.6367l6.0244-2.9043l1.7197,1.7383 L7.1714,47.4844z M39.772,12.5146l-2.0586-2.0806c1.1124-1.2037,2.9869-3.6544,3.5598-6.8271l5.3635,5.4216 C43.4579,9.5671,40.9872,11.4154,39.772,12.5146z" stroke-width="0"/> </g> <g id="Margin" class="st1"> <rect x="1" y="1" class="st2" /> </g> <g id="Guides" class="st1"> </g> <g id="LABELS"> <g> <g> <g> <g> <g> <g> </g> </g> </g> </g> </g> </g> </g> </svg> 