<?xml version="1.0" encoding="utf-8"?> <!-- Generator: Adobe Illustrator 27.7.0, SVG Export Plug-In . SVG Version: 6.00 Build 0) --> <svg width="70" height="70" version="1.1" xmlns="http://www.w3.org/2000/svg" xmlns:xlink="http://www.w3.org/1999/xlink" x="0px" y="0px" viewBox="-10 -10 70 70" style="enable-background:new 0 0 50 50;" xml:space="preserve"><rect x="-10" y="-10" width="70" height="70" fill="white"/> <style type="text/css"> .st0{fill:#FFCD00;} .st1{display:none;} .st2{display:inline;fill:none;stroke:#EA008A;stroke-width:0.2;stroke-miterlimit:10;} .st3{font-family:'Roboto-Regular';} .st4{font-size:6px;} </style> <g id="Color"> <path class="st0" d="M44.688,22.8975l-0.1279-0.3086c-0.2202-0.5312-0.7334-0.875-1.3071-0.875H9.7471 c-0.5737,0-1.0869,0.3438-1.3071,0.875L8.312,22.8975H5.1753v5.5088H8.332v16.0303c0,2.6729,2.1743,4.8467,4.8472,4.8467h26.6416 c2.6729,0,4.8472-2.1738,4.8472-4.8467V28.4062h3.1567v-5.5088H44.688z M13.5923,43.7959c0,0.334-0.2715,0.6055-0.6055,0.6055 H11.832c-0.334,0-0.6055-0.2715-0.6055-0.6055v-1.1553c0-0.334,0.2715-0.6055,0.6055-0.6055h1.1548 c0.334,0,0.6055,0.2715,0.6055,0.6055V43.7959z M16.7397,37.7041c0,0.334-0.2715,0.6055-0.6055,0.6055h-1.1548 c-0.334,0-0.6055-0.2715-0.6055-0.6055v-1.1553c0-0.334,0.2715-0.6055,0.6055-0.6055h1.1548c0.334,0,0.6055,0.2715,0.6055,0.6055 V37.7041z M19.8877,43.7959c0,0.334-0.2715,0.6055-0.6055,0.6055h-1.1548c-0.334,0-0.6055-0.2715-0.6055-0.6055v-1.1553 c0-0.334,0.2715-0.6055,0.6055-0.6055h1.1548c0.334,0,0.6055,0.2715,0.6055,0.6055V43.7959z M23.0352,37.7041 c0,0.334-0.2715,0.6055-0.6055,0.6055h-1.1548c-0.334,0-0.6055-0.2715-0.6055-0.6055v-1.1553c0-0.334,0.2715-0.6055,0.6055-0.6055 h1.1548c0.334,0,0.6055,0.2715,0.6055,0.6055V37.7041z M26.1831,43.7959c0,0.334-0.2715,0.6055-0.6055,0.6055h-1.1553 c-0.334,0-0.6055-0.2715-0.6055-0.6055v-1.1553c0-0.334,0.2715-0.6055,0.6055-0.6055h1.1553c0.334,0,0.6055,0.2715,0.6055,0.6055 V43.7959z M29.3306,37.7041c0,0.334-0.2715,0.6055-0.6055,0.6055h-1.1548c-0.334,0-0.6055-0.2715-0.6055-0.6055v-1.1553 c0-0.334,0.2715-0.6055,0.6055-0.6055h1.1548c0.334,0,0.6055,0.2715,0.6055,0.6055V37.7041z M32.478,43.7959 c0,0.334-0.2715,0.6055-0.6055,0.6055h-1.1548c-0.334,0-0.6055-0.2715-0.6055-0.6055v-1.1553c0-0.334,0.2715-0.6055,0.6055-0.6055 h1.1548c0.334,0,0.6055,0.2715,0.6055,0.6055V43.7959z M35.626,37.7041c0,0.334-0.2715,0.6055-0.6055,0.6055h-1.1548 c-0.334,0-0.6055-0.2715-0.6055-0.6055v-1.1553c0-0.334,0.2715-0.6055,0.6055-0.6055h1.1548c0.334,0,0.6055,0.2715,0.6055,0.6055 V37.7041z M38.7734,43.7959c0,0.334-0.2715,0.6055-0.6055,0.6055h-1.1548c-0.334,0-0.6055-0.2715-0.6055-0.6055v-1.1553 c0-0.334,0.2715-0.6055,0.6055-0.6055h1.1548c0.334,0,0.6055,0.2715,0.6055,0.6055V43.7959z" stroke-width="0"/> </g> <g id="ICONS_00000031165542127692736420000002692518830807990202_"> <g> <path d="M33.2783,6.4756H16.7217c-0.2764,0-0.5,0.2236-0.5,0.5s0.2236,0.5,0.5,0.5h16.5566c0.2764,0,0.5-0.2236,0.5-0.5 S33.5547,6.4756,33.2783,6.4756z" stroke-width="0"/> <path d="M46.8247,20.3975h-3.0056c-0.4221-0.7054-1.186-1.1836-2.0662-1.1836h-3.2592c0.0059-0.0308,0.0185-0.0592,0.0185-0.0918 V1.4668c0-0.2764-0.2236-0.5-0.5-0.5H11.9878c-0.2764,0-0.5,0.2236-0.5,0.5v17.6553c0,0.0326,0.0126,0.061,0.0185,0.0918H8.2471 c-0.8801,0-1.644,0.4781-2.0662,1.1836H3.1753c-0.2764,0-0.5,0.2236-0.5,0.5v6.5088c0,0.2764,0.2236,0.5,0.5,0.5H5.832v15.0303 c0,3.2236,2.623,5.8467,5.8472,5.8467h26.6416c3.2241,0,5.8472-2.623,5.8472-5.8467V27.9062h2.6567c0.2764,0,0.5-0.2236,0.5-0.5 v-6.5088C47.3247,20.6211,47.1011,20.3975,46.8247,20.3975z M12.4878,19.1221V1.9668h25.0244v17.1553 c0,0.0326,0.0126,0.061,0.0185,0.0918H12.4693C12.4752,19.183,12.4878,19.1547,12.4878,19.1221z M8.2471,20.2139h33.5059 c0.7803,0,1.415,0.6348,1.415,1.415v2.7148v2.3301c0,0.7803-0.6348,1.415-1.415,1.415H8.2471c-0.7803,0-1.415-0.6348-1.415-1.415 v-2.8184v-2.2266C6.832,20.8486,7.4668,20.2139,8.2471,20.2139z M29.9908,29.0889c-0.902,1.9355-2.823,3.1992-4.9908,3.1992 c-2.1661,0-4.0856-1.2637-4.9875-3.1992H29.9908z M3.6753,26.9062v-5.5088h2.1801c-0.0075,0.0773-0.0234,0.1522-0.0234,0.2314 v2.2266v2.8184v0.2324H3.6753z M38.3208,47.7832H11.6792c-2.6729,0-4.8472-2.1738-4.8472-4.8467V28.6217 c0.3987,0.2905,0.8851,0.4672,1.415,0.4672h10.6874c0.9699,2.5206,3.3522,4.1992,6.0655,4.1992 c2.7156,0,5.0989-1.6786,6.0689-4.1992h10.684c0.5299,0,1.0164-0.1767,1.415-0.4672v14.3148 C43.168,45.6094,40.9937,47.7832,38.3208,47.7832z M46.3247,26.9062H44.168v-0.2324v-2.3301v-2.7148 c0-0.0793-0.0159-0.1541-0.0234-0.2314h2.1801V26.9062z" stroke-width="0"/> <path d="M33.2783,10.8379H16.7217c-0.2764,0-0.5,0.2236-0.5,0.5s0.2236,0.5,0.5,0.5h16.5566c0.2764,0,0.5-0.2236,0.5-0.5 S33.5547,10.8379,33.2783,10.8379z" stroke-width="0"/> <path d="M33.2783,15.2012H16.7217c-0.2764,0-0.5,0.2236-0.5,0.5s0.2236,0.5,0.5,0.5h16.5566c0.2764,0,0.5-0.2236,0.5-0.5 S33.5547,15.2012,33.2783,15.2012z" stroke-width="0"/> <path d="M12.9868,41.0352H11.832c-0.8853,0-1.6055,0.7197-1.6055,1.6055v1.1553c0,0.8857,0.7202,1.6055,1.6055,1.6055h1.1548 c0.8853,0,1.6055-0.7197,1.6055-1.6055v-1.1553C14.5923,41.7549,13.8721,41.0352,12.9868,41.0352z M13.5923,43.7959 c0,0.334-0.2715,0.6055-0.6055,0.6055H11.832c-0.334,0-0.6055-0.2715-0.6055-0.6055v-1.1553c0-0.334,0.2715-0.6055,0.6055-0.6055 h1.1548c0.334,0,0.6055,0.2715,0.6055,0.6055V43.7959z" stroke-width="0"/> <path d="M19.2822,41.0352h-1.1548c-0.8853,0-1.6055,0.7197-1.6055,1.6055v1.1553c0,0.8857,0.7202,1.6055,1.6055,1.6055h1.1548 c0.8853,0,1.6055-0.7197,1.6055-1.6055v-1.1553C20.8877,41.7549,20.1675,41.0352,19.2822,41.0352z M19.8877,43.7959 c0,0.334-0.2715,0.6055-0.6055,0.6055h-1.1548c-0.334,0-0.6055-0.2715-0.6055-0.6055v-1.1553c0-0.334,0.2715-0.6055,0.6055-0.6055 h1.1548c0.334,0,0.6055,0.2715,0.6055,0.6055V43.7959z" stroke-width="0"/> <path d="M25.5776,41.0352h-1.1553c-0.8853,0-1.6055,0.7197-1.6055,1.6055v1.1553c0,0.8857,0.7202,1.6055,1.6055,1.6055h1.1553 c0.8853,0,1.6055-0.7197,1.6055-1.6055v-1.1553C27.1831,41.7549,26.4629,41.0352,25.5776,41.0352z M26.1831,43.7959 c0,0.334-0.2715,0.6055-0.6055,0.6055h-1.1553c-0.334,0-0.6055-0.2715-0.6055-0.6055v-1.1553c0-0.334,0.2715-0.6055,0.6055-0.6055 h1.1553c0.334,0,0.6055,0.2715,0.6055,0.6055V43.7959z" stroke-width="0"/> <path d="M31.8726,41.0352h-1.1548c-0.8853,0-1.6055,0.7197-1.6055,1.6055v1.1553c0,0.8857,0.7202,1.6055,1.6055,1.6055h1.1548 c0.8853,0,1.6055-0.7197,1.6055-1.6055v-1.1553C33.478,41.7549,32.7578,41.0352,31.8726,41.0352z M32.478,43.7959 c0,0.334-0.2715,0.6055-0.6055,0.6055h-1.1548c-0.334,0-0.6055-0.2715-0.6055-0.6055v-1.1553c0-0.334,0.2715-0.6055,0.6055-0.6055 h1.1548c0.334,0,0.6055,0.2715,0.6055,0.6055V43.7959z" stroke-width="0"/> <path d="M38.168,41.0352h-1.1548c-0.8853,0-1.6055,0.7197-1.6055,1.6055v1.1553c0,0.8857,0.7202,1.6055,1.6055,1.6055h1.1548 c0.8853,0,1.6055-0.7197,1.6055-1.6055v-1.1553C39.7734,41.7549,39.0532,41.0352,38.168,41.0352z M38.7734,43.7959 c0,0.334-0.2715,0.6055-0.6055,0.6055h-1.1548c-0.334,0-0.6055-0.2715-0.6055-0.6055v-1.1553c0-0.334,0.2715-0.6055,0.6055-0.6055 h1.1548c0.334,0,0.6055,0.2715,0.6055,0.6055V43.7959z" stroke-width="0"/> <path d="M17.7397,37.7041v-1.1553c0-0.8857-0.7202-1.6055-1.6055-1.6055h-1.1548c-0.8853,0-1.6055,0.7197-1.6055,1.6055v1.1553 c0,0.8857,0.7202,1.6055,1.6055,1.6055h1.1548C17.0195,39.3096,17.7397,38.5898,17.7397,37.7041z M16.7397,37.7041 c0,0.334-0.2715,0.6055-0.6055,0.6055h-1.1548c-0.334,0-0.6055-0.2715-0.6055-0.6055v-1.1553c0-0.334,0.2715-0.6055,0.6055-0.6055 h1.1548c0.334,0,0.6055,0.2715,0.6055,0.6055V37.7041z" stroke-width="0"/> <path d="M24.0352,37.7041v-1.1553c0-0.8857-0.7202-1.6055-1.6055-1.6055h-1.1548c-0.8853,0-1.6055,0.7197-1.6055,1.6055v1.1553 c0,0.8857,0.7202,1.6055,1.6055,1.6055h1.1548C23.3149,39.3096,24.0352,38.5898,24.0352,37.7041z M23.0352,37.7041 c0,0.334-0.2715,0.6055-0.6055,0.6055h-1.1548c-0.334,0-0.6055-0.2715-0.6055-0.6055v-1.1553c0-0.334,0.2715-0.6055,0.6055-0.6055 h1.1548c0.334,0,0.6055,0.2715,0.6055,0.6055V37.7041z" stroke-width="0"/> <path d="M30.3306,37.7041v-1.1553c0-0.8857-0.7202-1.6055-1.6055-1.6055h-1.1548c-0.8853,0-1.6055,0.7197-1.6055,1.6055v1.1553 c0,0.8857,0.7202,1.6055,1.6055,1.6055h1.1548C29.6104,39.3096,30.3306,38.5898,30.3306,37.7041z M29.3306,37.7041 c0,0.334-0.2715,0.6055-0.6055,0.6055h-1.1548c-0.334,0-0.6055-0.2715-0.6055-0.6055v-1.1553c0-0.334,0.2715-0.6055,0.6055-0.6055 h1.1548c0.334,0,0.6055,0.2715,0.6055,0.6055V37.7041z" stroke-width="0"/> <path d="M36.626,37.7041v-1.1553c0-0.8857-0.7202-1.6055-1.6055-1.6055h-1.1548c-0.8853,0-1.6055,0.7197-1.6055,1.6055v1.1553 c0,0.8857,0.7202,1.6055,1.6055,1.6055h1.1548C35.9058,39.3096,36.626,38.5898,36.626,37.7041z M35.626,37.7041 c0,0.334-0.2715,0.6055-0.6055,0.6055h-1.1548c-0.334,0-0.6055-0.2715-0.6055-0.6055v-1.1553c0-0.334,0.2715-0.6055,0.6055-0.6055 h1.1548c0.334,0,0.6055,0.2715,0.6055,0.6055V37.7041z" stroke-width="0"/> </g> </g> <g id="Margin" class="st1"> <rect x="1" y="1" class="st2" /> </g> <g id="Guides" class="st1"> </g> <g id="LABELS"> <g> <g> <g> <g> <g> <g> <g> <g> <g> <g> <g> </g> </g> </g> </g> </g> </g> </g> </g> </g> </g> </g> </g> </svg> 