<?xml version="1.0" encoding="UTF-8"?><svg width="70" height="70" xmlns="http://www.w3.org/2000/svg" viewBox="-10 -10 70 70"><rect x="-10" y="-10" width="70" height="70" fill="white"/><g id="uuid-db07a760-9eb8-42ef-a267-3b0127124c97"><path d="M32.44,26.82h-4.12l-3.35,4.31-3.31-4.31h-.61c-3.87,.19-6.92,3.4-6.92,7.29v15.66h25.24v-15.66c0-3.89-3.04-7.09-6.93-7.29Z" fill="#ffcd00" stroke-width="0"/><path d="M19.69,8.32v2.08c1.79-.3,3.61-.46,5.42-.46,2.14,0,4.27,.24,6.36,.66,.06,.1,.11,.21,.16,.32,.73,.11,1.45,.23,2.17,.38v-2.86c0-.22,.15-.42,.36-.48l5.32-1.54-13.71-3.54-11.77,3.75,5.3,1.22c.23,.05,.39,.25,.39,.49Z" fill="#ffcd00" stroke-width="0"/><path d="M39.76,4.28L24.14,.25c-.09-.02-.19-.02-.28,0L10.22,4.6c-.21,.07-.36,.27-.35,.5s.17,.42,.39,.47l2.49,.58s-.02,.06-.02,.09v5.21c-.34,.18-.59,.53-.59,.95,0,.06,0,.11,.01,.17,0,.04-.01,.08-.01,.12v1.79c0,.28,.22,.5,.5,.5h1.18c.28,0,.5-.22,.5-.5v-1.79s0-.07-.02-.11c.01-.06,.02-.12,.02-.18,0-.42-.24-.77-.59-.95V6.36l3.21,.74v-1.03l-4.68-1.08L24.03,1.25l13.71,3.54-4.68,1.36v1.04l6.71-1.95c.22-.06,.36-.26,.36-.49s-.16-.42-.38-.48Z" stroke-width="0"/><path d="M33.06,5.04c0-.23-.15-.42-.37-.48-2.51-.67-5.09-1.01-7.69-1.01h-.02c-2.59,0-5.17,.34-7.67,1.01-.22,.06-.37,.26-.37,.48v5.27c0,.15,.07,.3,.19,.39,.05,.04,.11,.04,.17,.06-.54,1.12-.86,2.38-.86,3.7,0,4.72,3.84,8.55,8.55,8.55s8.55-3.84,8.55-8.55c0-1.32-.31-2.57-.85-3.69,.06-.02,.11-.04,.16-.08,.12-.09,.19-.24,.19-.39V5.04Zm-8.06,16.98c-4.17,0-7.55-3.39-7.55-7.55,0-1.41,.4-2.73,1.07-3.86,2.17-.44,4.38-.66,6.6-.66,2.14,0,4.27,.24,6.36,.66,.68,1.13,1.08,2.45,1.08,3.86,0,4.17-3.39,7.55-7.55,7.55Zm.12-13.08c-2.4,0-4.82,.24-7.18,.75V5.42c2.3-.58,4.67-.88,7.04-.88h.02c2.38,0,4.75,.3,7.06,.88v4.26c-2.28-.49-4.61-.74-6.94-.75Z" stroke-width="0"/><path d="M30.72,24.07h-11.45c-4.43,.22-7.9,3.86-7.9,8.29v16.16c0,.28,.22,.5,.5,.5h26.24c.28,0,.5-.22,.5-.5v-16.16c0-4.43-3.47-8.07-7.9-8.29Zm-1.05,1l-4.71,6.06-4.65-6.06h9.36Zm-11.74,8.34c-.28,0-.5,.22-.5,.5v14.11h-5.06v-15.66c0-3.82,2.93-6.96,6.69-7.27l5.39,7.03v15.9h-6.03v-14.11c0-.28-.22-.5-.5-.5Zm19.68,14.61h-4.99v-14.11c0-.28-.22-.5-.5-.5s-.5,.22-.5,.5v14.11h-6.17v-15.9l5.46-7.03c3.77,.32,6.69,3.46,6.69,7.27v15.66Z" stroke-width="0"/></g><g id="uuid-b70f8352-e800-4388-895b-a3f84363a097"></g></svg>