<?xml version="1.0" encoding="UTF-8"?><svg width="70" height="70" id="uuid-0ce17185-29a7-46f9-98e7-5b1ecb3892f7" xmlns="http://www.w3.org/2000/svg" viewBox="-10 -10 70 70"><rect x="-10" y="-10" width="70" height="70" fill="white"/><path d="M40.26,43.57c0,.28-.22,.5-.5,.5H12.99c-.28,0-.5-.22-.5-.5v-4.32h-4.44v8.64H44.69v-8.64h-4.44v4.32Z" fill="#ffcd00" stroke-width="0"/><path d="M23.15,13.56c.14-.14,.36-.19,.54-.11,.19,.08,.31,.26,.31,.46v24.34h4.5V13.91c0-.2,.12-.38,.31-.46,.19-.08,.4-.04,.54,.11l5.3,5.3,3.17-3.19L27.53,5.37c-.34-.34-.79-.51-1.27-.51-.51,0-.95,.17-1.29,.51l-10.74,10.74,3.17,3.19,5.74-5.74Z" fill="#ffcd00" stroke-width="0"/><path d="M43.44,36.5h-5.44c-.28,0-.5,.22-.5,.5v4.32H11.74v-4.32c0-.28-.22-.5-.5-.5H5.81c-.28,0-.5,.22-.5,.5v9.64c0,.28,.22,.5,.5,.5H43.44c.28,0,.5-.22,.5-.5v-9.64c0-.28-.22-.5-.5-.5Zm-.5,9.64H6.31v-8.64h4.44v4.32c0,.28,.22,.5,.5,.5h26.76c.28,0,.5-.22,.5-.5v-4.32h4.44v8.64Z" stroke-width="0"/><path d="M15.3,18.61c.09,.09,.22,.15,.35,.15,.16,.04,.26-.05,.35-.15l5.25-5.25v23.63c0,.28,.22,.5,.5,.5h5.5c.28,0,.5-.22,.5-.5V13.37l4.81,4.81c.09,.09,.22,.15,.35,.15h0c.13,0,.26-.05,.35-.15l3.87-3.9c.19-.2,.19-.51,0-.71L26.48,2.91c-.53-.53-1.25-.8-1.98-.81-.75,0-1.46,.27-1.99,.81L11.42,14c-.19,.19-.2,.51,0,.71l3.87,3.9ZM23.22,3.62c.34-.34,.77-.52,1.29-.51,.48,0,.93,.17,1.27,.51l10.3,10.3-3.17,3.19-5.3-5.3c-.14-.14-.36-.19-.54-.11-.19,.08-.31,.26-.31,.46v24.34h-4.5V12.16c0-.2-.12-.38-.31-.46-.19-.08-.4-.03-.54,.11l-5.74,5.74-3.17-3.19L23.22,3.62Z" stroke-width="0"/></svg>