<?xml version="1.0" encoding="UTF-8"?><svg width="70" height="70" id="uuid-736c48b2-72fc-41c7-8e10-78388d80696a" xmlns="http://www.w3.org/2000/svg" viewBox="-10 -10 70 70"><rect x="-10" y="-10" width="70" height="70" fill="white"/><path d="M39.96,9.91h-.76v1.37h.76c.24,0,.42-.06,.55-.18s.19-.29,.19-.5-.06-.38-.18-.51c-.12-.12-.31-.19-.56-.19Z" stroke-width="0"/><polygon points="35.13 12.01 36.27 12.01 35.69 10.3 35.13 12.01"/><path d="M44.71,4.25H7.69c-2.2,0-3.99,1.79-3.99,3.99V45.26c0,2.2,1.79,3.99,3.99,3.99H44.71c2.2,0,3.99-1.79,3.99-3.99V8.24c0-2.2-1.79-3.99-3.99-3.99Zm-9.55,29.74h-6.83c-.28,0-.5,.22-.5,.5v6.83h-6.47v-6.83c0-.28-.22-.5-.5-.5h-6.83v-6.47h6.83c.28,0,.5-.22,.5-.5v-6.83h6.47v6.83c0,.28,.22,.5,.5,.5h6.83v6.47Z" fill="#ffcd00" stroke-width="0"/><path d="M6.13,12.18c0,.56-.28,.83-.81,.83-.25,0-.45-.07-.59-.21-.14-.14-.21-.35-.21-.65v-3.01h-.94v3.04c0,.49,.17,.88,.48,1.16,.31,.28,.74,.42,1.27,.42s.97-.15,1.28-.44c.31-.29,.47-.69,.47-1.18v-3.01h-.94v3.04Z" stroke-width="0"/><path d="M11.03,11.31c.13-.21,.2-.47,.2-.78,0-.44-.15-.78-.44-1.02s-.71-.36-1.25-.36h-1.7v4.56h.94v-1.67h.75l.86,1.67h1.01v-.04l-.99-1.86c.27-.12,.48-.29,.61-.5Zm-.93-.21c-.13,.12-.31,.18-.55,.18h-.76v-1.37h.76c.25,0,.44,.06,.56,.19,.12,.12,.18,.29,.18,.51s-.06,.38-.19,.5Z" stroke-width="0"/><path d="M14.83,13.61c.31-.11,.55-.27,.72-.47v-1.82h-1.8v.69h.86v.79c-.15,.15-.4,.23-.76,.23s-.62-.12-.8-.37c-.18-.24-.27-.61-.27-1.08v-.29c0-.47,.09-.83,.25-1.07,.17-.24,.41-.36,.73-.36,.25,0,.45,.06,.59,.18,.14,.12,.24,.31,.28,.57h.92c-.06-.49-.24-.87-.54-1.13-.31-.26-.73-.39-1.27-.39-.39,0-.73,.09-1.02,.26-.29,.18-.51,.43-.66,.76-.15,.33-.23,.73-.23,1.18v.31c0,.44,.09,.83,.25,1.16,.16,.33,.39,.58,.69,.75,.3,.17,.64,.26,1.04,.26s.72-.06,1.03-.17Z" stroke-width="0"/><polygon points="19.37 12.96 17.25 12.96 17.25 11.73 19.06 11.73 19.06 11 17.25 11 17.25 9.91 19.37 9.91 19.37 9.15 16.31 9.15 16.31 13.71 19.37 13.71 19.37 12.96"/><polygon points="20.86 10.71 22.69 13.71 23.63 13.71 23.63 9.15 22.7 9.15 22.7 12.16 20.86 9.15 19.92 9.15 19.92 13.71 20.86 13.71 20.86 10.71"/><polygon points="25.46 13.71 26.4 13.71 26.4 9.91 27.8 9.91 27.8 9.15 24.08 9.15 24.08 9.91 25.46 9.91 25.46 13.71"/><path d="M31.49,13.77c.53,0,.97-.14,1.29-.42,.33-.28,.51-.67,.54-1.16h-.94c-.02,.28-.1,.48-.25,.62-.14,.13-.36,.2-.65,.2-.32,0-.56-.11-.71-.34-.15-.23-.22-.59-.22-1.08v-.34c0-.47,.08-.82,.24-1.04s.39-.34,.7-.34c.29,0,.5,.07,.64,.2,.14,.13,.22,.35,.25,.64h.94c-.05-.51-.24-.91-.56-1.19-.32-.28-.75-.42-1.27-.42-.38,0-.71,.09-1,.27-.29,.18-.51,.44-.66,.77-.15,.33-.23,.72-.23,1.16v.28c0,.69,.17,1.23,.5,1.62,.34,.39,.8,.59,1.38,.59Z" stroke-width="0"/><path d="M35.26,9.15l-1.7,4.56h1l.31-.94h1.65l.32,.94h1l-1.71-4.56h-.87Zm-.13,2.86l.57-1.71,.57,1.71h-1.14Z" stroke-width="0"/><path d="M41.44,11.31c.13-.21,.2-.47,.2-.78,0-.44-.15-.78-.44-1.02s-.71-.36-1.25-.36h-1.7v4.56h.94v-1.67h.75l.86,1.67h1.01v-.04l-.99-1.86c.27-.12,.48-.29,.61-.5Zm-.93-.21c-.13,.12-.31,.18-.55,.18h-.76v-1.37h.76c.25,0,.44,.06,.56,.19,.12,.12,.18,.29,.18,.51s-.06,.38-.19,.5Z" stroke-width="0"/><polygon points="43.3 11.73 45.1 11.73 45.1 11 43.3 11 43.3 9.91 45.41 9.91 45.41 9.15 42.36 9.15 42.36 13.71 45.42 13.71 45.42 12.96 43.3 12.96 43.3 11.73"/><path d="M42.96,1.5H5.94C3.19,1.5,.95,3.74,.95,6.49V43.51c0,2.75,2.24,4.99,4.99,4.99H42.96c2.75,0,4.99-2.24,4.99-4.99V6.49c0-2.75-2.24-4.99-4.99-4.99Zm3.99,42.01c0,2.2-1.79,3.99-3.99,3.99H5.94c-2.2,0-3.99-1.79-3.99-3.99V6.49c0-2.2,1.79-3.99,3.99-3.99H42.96c2.2,0,3.99,1.79,3.99,3.99V43.51Z" stroke-width="0"/><path d="M35.65,26.52h-6.83v-6.83c0-.28-.22-.5-.5-.5h-7.47c-.28,0-.5,.22-.5,.5v6.83h-6.83c-.28,0-.5,.22-.5,.5v7.47c0,.28,.22,.5,.5,.5h6.83v6.83c0,.28,.22,.5,.5,.5h7.47c.28,0,.5-.22,.5-.5v-6.83h6.83c.28,0,.5-.22,.5-.5v-7.47c0-.28-.22-.5-.5-.5Zm-.5,7.47h-6.83c-.28,0-.5,.22-.5,.5v6.83h-6.47v-6.83c0-.28-.22-.5-.5-.5h-6.83v-6.47h6.83c.28,0,.5-.22,.5-.5v-6.83h6.47v6.83c0,.28,.22,.5,.5,.5h6.83v6.47Z" stroke-width="0"/></svg>