<?xml version="1.0" encoding="UTF-8"?><svg width="70" height="70" id="uuid-a40d05e1-d5b0-42e1-a759-8725139f88c9" xmlns="http://www.w3.org/2000/svg" viewBox="-10 -10 70 70"><rect x="-10" y="-10" width="70" height="70" fill="white"/><rect x="34.26" y="30.46" width=".61" height="2.1" fill="#ffcd00"/><polygon points="31.83 30.19 34.26 30.19 34.26 30.46 34.88 30.46 34.88 29.19 34.76 29.19 31.33 29.19 17.92 29.19 17.88 29.19 17.88 30.46 31.83 30.46 31.83 30.19" fill="#ffcd00"/><g><path d="M34.88,27.23v-9.27h-.01c-.26-4.46-3.97-8-8.48-8s-8.23,3.54-8.49,8h-.01v9.27h17Z" fill="#ffcd00" stroke-width="0"/><path d="M47.21,30.46v.42h-11.94v-.42h-.39v2.1h-.61v9.24h-2.43v-11.34h-14.41v11.34h-2.43v-11.34h-1v.42H3.79v18.59H48.96V30.46h-1.75Zm-24,5.44c0-.78,.64-1.42,1.42-1.42s1.42,.64,1.42,1.42v5.9h-2.84v-5.9Zm-9.78,6.9h22.39v1.96H13.43v-1.96Zm-3.3-4.34H5.66v-3.23h4.46v3.23Zm28,9.25H11.12v-1.96h27v1.96Zm5.46-9.25h-4.46v-3.23h4.46v3.23Z" fill="#ffcd00" stroke-width="0"/></g><path d="M27.12,10v-1.59c0-.41-.33-.74-.74-.74s-.74,.33-.74,.74v1.59c.25-.02,.49-.04,.74-.04s.5,.02,.74,.04Z" fill="#ffcd00" stroke-width="0"/><path d="M47.71,27.71h-10.89v-.98c0-.28-.22-.5-.5-.5h-2.2v-5.08h1c.28,0,.5-.22,.5-.5s-.22-.5-.5-.5h-1v-2.94h1c.28,0,.5-.22,.5-.5s-.22-.5-.5-.5h-1.03c-.23-4.42-3.48-8.04-7.73-8.83v-1.72c0-.79-.53-1.45-1.24-1.66V1.04c0-.28-.22-.5-.5-.5s-.5,.22-.5,.5v2.97c-.72,.22-1.24,.88-1.24,1.66v1.72c-4.25,.79-7.5,4.42-7.73,8.83h-1.03c-.28,0-.5,.22-.5,.5s.22,.5,.5,.5h1v2.94h-1c-.28,0-.5,.22-.5,.5s.22,.5,.5,.5h1v5.08h-2.2c-.28,0-.5,.22-.5,.5v.98H1.54c-.28,0-.5,.22-.5,.5v20c0,.28,.22,.5,.5,.5H47.71c.28,0,.5-.22,.5-.5V28.21c0-.28-.22-.5-.5-.5Zm-31.58-6.56h17v5.08h-2.97v-2.76c0-.28-.22-.5-.5-.5s-.5,.22-.5,.5v2.76h-2.41v-2.76c0-.28-.22-.5-.5-.5s-.5,.22-.5,.5v2.76h-2.41v-2.76c0-.28-.22-.5-.5-.5s-.5,.22-.5,.5v2.76h-2.41v-2.76c0-.28-.22-.5-.5-.5s-.5,.22-.5,.5v2.76h-2.79v-5.08Zm8.5-12.94c4.52,0,8.23,3.54,8.48,8H16.14c.26-4.46,3.97-8,8.49-8Zm8.5,9v2.94h-1.29v-1.1c0-.28-.22-.5-.5-.5s-.5,.22-.5,.5v1.1h-2.35v-1.1c0-.28-.22-.5-.5-.5s-.5,.22-.5,.5v1.1h-2.35v-1.1c0-.28-.22-.5-.5-.5s-.5,.22-.5,.5v1.1h-2.35v-1.1c0-.28-.22-.5-.5-.5s-.5,.22-.5,.5v1.1h-2.35v-1.1c0-.28-.22-.5-.5-.5s-.5,.22-.5,.5v1.1h-1.29v-2.94h17ZM15.62,27.23h20.2v1.96H13.43v-1.96h2.2Zm18.64,14.57h-2.43v-11.61h2.43v11.61Zm1.56,1v1.96H13.43v-1.96h22.39ZM14.99,30.19h2.43v11.61h-2.43v-11.61Zm15.84,0v11.61h-3.79v-5.9c0-1.33-1.08-2.42-2.42-2.42s-2.42,1.08-2.42,2.42v5.9h-3.79v-11.61h12.41Zm-4.79,11.61h-2.84v-5.9c0-.78,.64-1.42,1.42-1.42s1.42,.64,1.42,1.42v5.9Zm-14.92,3.96h27v1.96H11.12v-1.96Zm1.8-15.57h1.06v.69H2.04v-2.17H12.43v.98c0,.28,.22,.5,.5,.5Zm1.06,1.69v9.92h-1.06c-.28,0-.5,.22-.5,.5v2.46h-1.8c-.28,0-.5,.22-.5,.5v2.46H2.04v-15.84H13.99Zm25.14,15.84v-2.46c0-.28-.22-.5-.5-.5h-1.8v-2.46c0-.28-.22-.5-.5-.5h-1.06v-9.92h11.94v15.84h-8.08Zm-3.86-16.84v-.69h1.06c.28,0,.5-.22,.5-.5v-.98h10.39v2.17h-11.94ZM23.88,5.67c0-.41,.33-.74,.74-.74s.74,.33,.74,.74v1.59c-.25-.02-.49-.04-.74-.04s-.5,.02-.74,.04v-1.59Z" stroke-width="0"/><path d="M44.09,34.22h-5.46c-.28,0-.5,.22-.5,.5v4.23c0,.28,.22,.5,.5,.5h5.46c.28,0,.5-.22,.5-.5v-4.23c0-.28-.22-.5-.5-.5Zm-.5,4.23h-4.46v-3.23h4.46v3.23Z" stroke-width="0"/><path d="M5.16,39.46h5.46c.28,0,.5-.22,.5-.5v-4.23c0-.28-.22-.5-.5-.5H5.16c-.28,0-.5,.22-.5,.5v4.23c0,.28,.22,.5,.5,.5Zm.5-4.23h4.46v3.23H5.66v-3.23Z" stroke-width="0"/></svg>