<?xml version="1.0" encoding="UTF-8"?><svg width="70" height="70" xmlns="http://www.w3.org/2000/svg" viewBox="-10 -10 70 70"><rect x="-10" y="-10" width="70" height="70" fill="white"/><g id="uuid-92f752e8-9ff7-4d8f-8a08-4eae383b1d2a"><g><g><path d="M15.9,38.71h-.08v-1.63h0v-1.28s-.01-.01-.01-.02v-3.18c-.19-2.66-2.39-4.74-5.04-4.74s-4.87,2.09-5.03,4.75l-.02,4.47h0v1.63h-.08c-.9,0-1.63,.73-1.63,1.63v.42c0,.28,.22,.5,.5,.5h3.2v3.96h6.15v-3.96h3.19c.28,0,.5-.22,.5-.5v-.42c0-.9-.73-1.63-1.63-1.63Z" fill="#ffcd00" stroke-width="0"/><path d="M31.15,38.71h-.08v-1.26h0l-.03-4.85c-.17-2.66-2.38-4.74-5.03-4.74s-4.87,2.09-5.03,4.75l-.03,4.84h0v1.26h-.08c-.9,0-1.63,.73-1.63,1.63v.42c0,.28,.22,.5,.5,.5h3.2v3.96h6.15v-3.96h3.19c.28,0,.5-.22,.5-.5v-.42c0-.9-.73-1.63-1.63-1.63Z" fill="#ffcd00" stroke-width="0"/></g><g><path d="M48.69,43.52h-5.34c.36-.42,.58-.95,.58-1.54v-13.61h0v-2.25h1.07c.12,0,.25-.01,.36-.04,.76-.15,1.34-.78,1.45-1.56,0-.03,.02-.05,.02-.08v-.08s0-.05,0-.08v-1.67s0-.03,0-.04v-3.2c.02-.28,.16-2.74-1.8-4.24-1.12-.85-2.35-.94-2.96-.92l-5.07,.02c-.62,.03-1.81,.23-2.85,1.11-1.87,1.59-1.68,4.05-1.66,4.27v2.5h-.77c-1.11,0-2,.9-2,2s.9,2,2,2h2.83c.3,0,.59-.08,.84-.21v2.46h0v13.62c0,.59,.22,1.12,.58,1.54h-7.64v-2.96h2.19c.83,0,1.5-.67,1.5-1.5v-.42c0-.09-.02-.17-.03-.26,.26-.02,.46-.23,.46-.49v-3.81h0v-.23c-.05-1-.74-1.78-1.57-1.78-.21,0-.41,.05-.6,.14v-1.36c-.21-3.19-2.86-5.69-6.04-5.69s-5.83,2.5-6.03,5.72v1.32c-.18-.08-.37-.13-.57-.13-.4,0-.77,.18-1.04,.49-.27-.3-.63-.49-1.03-.49-.19,0-.37,.04-.54,.12v-1.34c-.21-3.19-2.86-5.69-6.04-5.69s-5.83,2.5-6.03,5.72v1.32c-.19-.09-.39-.13-.6-.13-.83,0-1.52,.78-1.57,1.8v.21h0v3.81c0,.26,.2,.47,.45,.49,0,.09-.03,.17-.03,.26v.42c0,.83,.67,1.5,1.5,1.5h2.2v2.96H1.74c-.28,0-.5,.22-.5,.5s.22,.5,.5,.5H48.69c.28,0,.5-.22,.5-.5s-.22-.5-.5-.5ZM31.73,25.11c-.55,0-1-.45-1-1s.45-1,1-1h3.67v1.17c0,.46-.38,.84-.84,.84h-2.83Zm4.67,16.86v-13.61h0v-9.2c0-.28-.22-.5-.5-.5s-.5,.22-.5,.5v2.94h-1.9v-2.55c-.02-.22-.18-2.2,1.3-3.46,.82-.7,1.77-.85,2.23-.88l5.06-.02c.5-.01,1.47,.06,2.34,.72,1.56,1.19,1.42,3.27,1.41,3.4v2.78h-1.9v-2.94c0-.28-.22-.5-.5-.5s-.5,.22-.5,.5v2.94h-.76c-1.1,0-2,.9-2,2,0,.17,.03,.33,.07,.49,.22,.87,1,1.51,1.94,1.51h.76v2.25h0v13.62c0,.76-.62,1.38-1.38,1.38s-1.38-.62-1.38-1.38v-12.44c0-.28-.22-.5-.5-.5s-.5,.22-.5,.5v12.44c0,.76-.62,1.38-1.38,1.38s-1.38-.62-1.38-1.38Zm8.61-16.86h-2.83c-.55,0-1-.45-1-1s.45-1,1-1h3.67v1.17c0,.46-.38,.84-.84,.84Zm-5.34,18.32s.06,.05,.08,.08h-.16s.06-.05,.08-.08Zm-18.49,.08v-2.96h6.15l.02,2.96h-6.16Zm-15.25,0l.02-2.96h6.13l.02,2.96H5.93Zm-3.69-4.46v-.42c0-.9,.73-1.63,1.63-1.63H14.15c.9,0,1.63,.73,1.63,1.63v.42c0,.28-.22,.5-.5,.5H2.74c-.28,0-.5-.22-.5-.5Zm11.8-8.16l.02,2.96h0v.22s0,.01,0,.02v1.91H3.95l.03-5.09c.17-2.67,2.38-4.75,5.03-4.75s4.86,2.08,5.03,4.74Zm10.22-4.74c2.65,0,4.86,2.08,5.03,4.74l.03,5.11h-10.12l.03-5.09c.17-2.67,2.38-4.75,5.03-4.75Zm6.77,12.9c0,.28-.22,.5-.5,.5h-12.54c-.28,0-.5-.22-.5-.5v-.42c0-.9,.73-1.63,1.63-1.63h10.28c.9,0,1.63,.73,1.63,1.63v.42Zm-17.95,1.5h2.2c.6,0,1.12-.36,1.36-.87,.24,.51,.75,.87,1.36,.87h2.2v2.96h-7.1v-2.96Zm17.23-4.37v-2.01s0-.05,0-.08h0v-.19c.02-.45,.28-.83,.57-.83s.55,.38,.57,.81v.21h0v2.95c-.3-.38-.69-.68-1.15-.85Zm-12.66-3.11c.24,0,.52,.33,.54,.81v.21s0,.02,0,.03v2.07c-.44,.16-.8,.43-1.09,.77v-3.05c.02-.5,.3-.83,.54-.83Zm-2.07,0c.24,0,.51,.33,.53,.81v3.03c-.28-.32-.64-.58-1.05-.73v-2.3c.02-.49,.28-.82,.52-.82Zm-13.77,1.02h0v-.19c.02-.45,.28-.83,.57-.83s.55,.38,.57,.81v.21h0s0,.03,0,.04v2.06c-.46,.17-.85,.46-1.15,.84v-2.93Z" stroke-width="0"/><path d="M39.67,13.04c2.28,0,4.13-1.85,4.13-4.13s-1.85-4.13-4.13-4.13-4.13,1.85-4.13,4.13,1.85,4.13,4.13,4.13Zm0-7.25c1.72,0,3.13,1.4,3.13,3.13s-1.4,3.13-3.13,3.13-3.13-1.4-3.13-3.13,1.4-3.13,3.13-3.13Z" stroke-width="0"/></g></g></g><g id="uuid-dcaba0f2-b7af-43a7-a017-1fd6f4c86925"></g></svg>