<?xml version="1.0" encoding="UTF-8"?><svg width="70" height="70" id="uuid-1912efed-4d1e-472c-8f92-cff657650a2e" xmlns="http://www.w3.org/2000/svg" viewBox="-10 -10 70 70"><rect x="-10" y="-10" width="70" height="70" fill="white"/><g><path d="M49.55,16.05l.24,.45-.47-.17c.05-.02,.08-.04,.12-.08,.06-.06,.1-.13,.11-.2Z" fill="#ffcd00" stroke-width="0"/><path d="M47.11,47.24h-.01s-.05-.09-.07-.14c.03,.05,.05,.09,.08,.14Z" fill="#ffcd00" stroke-width="0"/><path d="M45.13,14.42l.27,.5-.61-.2s.1-.06,.14-.1l.2-.2Z" fill="#ffcd00" stroke-width="0"/><path d="M42.45,17.84c.65,1.96,.59,3.78,.42,4.99l-.14,.97-.35-.53c.29-1.14,.6-3.15,.07-5.43Z" fill="#ffcd00" stroke-width="0"/><path d="M48.12,49.16c-2.23,.85-4.8,.56-6.81-.88,.14,.07,.29,.13,.43,.18,.03,0,.06,0,.09,.02,.79,.27,1.62,.41,2.45,.41,.93,0,1.87-.17,2.78-.51h.01c.18-.08,.36-.15,.53-.24,.19,.33,.36,.68,.52,1.02Z" fill="#ffcd00" stroke-width="0"/><path d="M40.38,13.16s.06-.03,.09-.06l.59-.54,.34,.45-.42,.38-.6-.23Z" fill="#ffcd00" stroke-width="0"/><path d="M31.63,48.31c2.55,1.05,5.54,.67,7.79-1.14,.34,.28,.72,.52,1.09,.74-2.54,2.16-6.2,2.29-8.88,.4Z" fill="#ffcd00" stroke-width="0"/><path d="M39.75,8.57v.06s-.04-.01-.07-.01c0-.02,.01-.04,0-.05l-.08-.38,.82,.03c.11,.01,.23-.03,.32-.1l1.27-.97c.16-.11,.23-.32,.19-.51l-.07-.27,.64,.05c.13,.01,.24-.02,.34-.1l2.24-1.7,.79,.07-2.49,1.9-1.27-.1c-.05,0-.1,.03-.12,.06-.01,.01-.02,.04-.01,.09l.19,.87-1.17,.89-1.41-.07s-.04,.03-.09,.09c-.02,.02-.03,.1-.02,.15Z" fill="#ffcd00" stroke-width="0"/><path d="M36.91,13.63c.42-.22,.73-.59,.87-1.04,.02-.06,.02-.13,.04-.19h.01c1.22,.97,2.52,2.39,3.28,4.44,.73,1.97,.7,3.83,.51,5.14l-.61-.93,.16-1.13s.01-.07-.03-.1-.07-.05-.11-.04l-.46,.07,.1-.67c.02-.16-.03-.32-.15-.43-.11-.11-.27-.16-.43-.13l-.62,.1-.1-.16,.14-1.27c.01-.05-.02-.09-.04-.11-.03-.03-.07-.04-.11-.03l-.43,.06,.08-.67c.02-.16-.04-.31-.15-.42s-.27-.16-.42-.14l-.71,.11-.13-.2,.06-.93c-.18,.06-.37,.1-.56,.11l.06-.96c.01-.2-.1-.38-.27-.47,.01,0,.01-.01,.02-.01Z" fill="#ffcd00" stroke-width="0"/><path d="M36.56,7.92c.96-1.06,2.06-1.86,3.32-2.43,1.4-.62,2.75-.85,3.86-.91l-1.08,.83-1.13-.09c-.16-.01-.31,.06-.42,.18-.1,.12-.14,.28-.1,.44l.14,.62-.87,.66-1.28-.06c-.16,0-.29,.1-.39,.22-.1,.11-.13,.32-.1,.47l.13,.61-.19,.15-.72,.54h-.39c-.03-.2-.09-.4-.19-.59-.14-.27-.34-.49-.59-.64Z" fill="#ffcd00" stroke-width="0"/><path d="M37.21,10.16h.69c.11,0,.21-.04,.3-.11l.6-.45c.27,0,.55,0,.84,.02l-.91,.7,.82-.3h.28c.61,0,1.33,.04,3.98,.71,.27,.14,.55,.29,.82,.47,1.77,1.15,2.86,2.65,3.49,3.82l-1.87-.68-.02-.03-.04-.04-.51-.93c-.08-.14-.22-.23-.38-.25-.15-.02-.31,.03-.42,.15l-.45,.46-1.66-.54-1.25-1.65c-.08-.11-.21-.18-.35-.19-.15-.02-.28,.03-.38,.13l-.77,.71-1.67-.63c-.36-.28-.71-.52-1.04-.73-.04-.04-.08-.08-.12-.11,.01-.05,.03-.1,.03-.15v-.38Z" fill="#ffcd00" stroke-width="0"/><path d="M35.54,12.59s-.02-.03-.04-.04c-.15-.2-.23-.45-.15-.71,.13-.4,.56-.63,.96-.51,.32,.1,.52,.39,.54,.7,0,.08-.01,.15-.03,.22v.04c-.12,.41-.55,.64-.96,.51-.13-.04-.23-.12-.32-.21Z" fill="#ffcd00" stroke-width="0"/><path d="M36.32,9.61c-.12,.4-.55,.63-.96,.51-.24-.08-.41-.27-.48-.49-.02-.04-.03-.08-.04-.11,0-.04-.01-.07-.01-.11-.01-.08,0-.17,.03-.25,.02-.08,.06-.15,.11-.22,.19-.26,.52-.39,.85-.29,.4,.12,.63,.55,.5,.96Z" fill="#ffcd00" stroke-width="0"/><path d="M35.07,14.02c-.47,.13-.96,.09-1.39-.09,.26-.32,.53-.64,.81-.94l.87,1.31c.09,.14,.23,.22,.39,.23l.38,.02-.02,.36c-.42-.18-.79-.49-1.04-.89Z" fill="#ffcd00" stroke-width="0"/><path d="M34.35,11.35c-.12,.4-.55,.63-.96,.5-.4-.12-.63-.55-.5-.96,.12-.4,.55-.63,.96-.5,.4,.12,.63,.55,.5,.96Z" fill="#ffcd00" stroke-width="0"/><path d="M32.35,13.24l-.41-.3,.83-.27c.1,.06,.21,.1,.33,.14,.06,.02,.12,.02,.18,.03-.15,.17-.29,.34-.42,.51-.06-.07-.12-.14-.17-.22l-.34,.11Z" fill="#ffcd00" stroke-width="0"/><polygon points="30.65 7.83 30.64 8.03 29.87 8.06 29.57 7.87 30.65 7.83" fill="#ffcd00"/><path d="M30.85,13.74l-1.42,.48-.32-.33,1.1-.37c.11-.03,.19-.1,.26-.18l.39-.57,.32,.22s.09,.06,.15,.07l-.48,.68Z" fill="#ffcd00" stroke-width="0"/><path d="M27.82,14.75l-1.4,.47-.29-.33,1.06-.36c.11-.04,.2-.11,.27-.21l.42-.69,.27,.28s.08,.07,.13,.09l-.46,.75Z" fill="#ffcd00" stroke-width="0"/><path d="M25.09,4.34c1.82-.35,3.67-.24,5.35,.31,.17,.05,.33,.11,.49,.18,1.53,.79,2.65,1.89,3.43,2.88,.07,.09,.13,.17,.19,.25-.3,.22-.53,.52-.65,.9-.05,.17-.07,.34-.07,.51-.17-.02-.34,0-.5,.01h-.01l-.33-.19-.84-.49,.03-.59s-.01-.07-.03-.09h-.01l-.08-.04-.42,.02,.04-.66c.01-.14-.04-.28-.14-.38-.09-.1-.23-.16-.37-.15l-2.07,.08-.92-.6,.03-.24s0-.08-.03-.11c-.02-.02-.08-.04-.13-.03l-.36,.07h-.01l-.05-.04,.08-.64c.02-.16-.03-.32-.15-.43-.11-.11-.28-.15-.43-.13l-1.11,.21-1-.6h.07Z" fill="#ffcd00" stroke-width="0"/><polygon points="26.62 6.02 26.41 5.89 26.64 5.85 26.62 6.02" fill="#ffcd00"/><path d="M30.78,47.9c-2.55,2.18-6.25,2.3-8.94,.37,.82,.35,1.69,.54,2.57,.58,.14,.01,.28,.04,.42,.04s.28-.03,.42-.04c1.58-.09,3.14-.63,4.44-1.68,.35,.28,.71,.53,1.09,.73Z" fill="#ffcd00" stroke-width="0"/><path d="M25,15.69l-2.98,.99,.3-.53,2.05-.68c.11-.04,.21-.12,.27-.22l.32-.55,.18,.2c.07,.07,.15,.12,.23,.14l-.37,.65Z" fill="#ffcd00" stroke-width="0"/><path d="M24.43,13.6l-.56,.98-.72,.24c.68-.94,1.67-2,3.07-2.85,1.71-1.05,3.7-1.59,5.78-1.54-.03,.05-.05,.11-.07,.17-.13,.43-.09,.88,.09,1.27l-.48,.16-.52-.37c-.22-.15-.53-.1-.69,.13l-.59,.84-1.08,.36-.5-.52c-.11-.11-.26-.17-.42-.15-.15,0-.29,.1-.37,.23l-.67,1.09-1.04,.35-.42-.47c-.11-.12-.26-.18-.43-.16-.16,0-.3,.11-.38,.24Z" fill="#ffcd00" stroke-width="0"/><path d="M19.96,47.17c.35,.28,.71,.52,1.09,.72-2.56,2.18-6.25,2.31-8.93,.39,2.55,1.08,5.56,.71,7.84-1.11Z" fill="#ffcd00" stroke-width="0"/><path d="M14.48,10.95c-.04,.8-.33,1.53-.81,2.12l-.13-.13c.46-.57,.79-1.25,.94-1.99Z" fill="#ffcd00" stroke-width="0"/><path d="M12.78,7.59c.52,.64,.84,1.47,.84,2.37,0,2.07-1.7,3.76-3.77,3.76-.76,0-1.46-.22-2.06-.61-.53-.65-.84-1.47-.84-2.36,0-2.08,1.69-3.77,3.77-3.77,.76,0,1.47,.23,2.06,.61Z" fill="#ffcd00" stroke-width="0"/><path d="M12.83,13.65l.12,.12c-.46,.35-1,.59-1.59,.68,.54-.18,1.03-.45,1.47-.8Z" fill="#ffcd00" stroke-width="0"/><path d="M6.41,47.79c-.29,.04-.59,.07-.9,.08-.07,0-.14,.01-.22,.01-.19-.01-.39-.02-.58-.04,1.2-2.2,2.73-4.2,4.52-5.9l10.39-2.75s.01-.01,.01-.01l2.2-.58c.39-.1,.71-.35,.91-.69,.2-.35,.26-.75,.16-1.14l-.36-1.38c1.16-.16,2.34-.25,3.54-.25,.14,0,.28,0,.42,.01-.02,1.53,.04,2.53,.06,2.7,.02,.26,.24,.46,.49,.46h.04c.28-.02,.48-.26,.46-.53,0-.04-.06-1.01-.03-2.59,3.29,.18,6.4,1.03,9.21,2.4,3.99,2.31,7.32,5.75,9.44,10.01-.15,.04-.3,.09-.45,.12-.1,.02-.2,.05-.3,.07-.35,.06-.7,.09-1.05,.09h-.23c-.3-.01-.6-.04-.9-.09-.08-.01-.17-.02-.25-.04-.36-.07-.71-.16-1.06-.29-.03-.01-.07-.03-.1-.04-.31-.12-.61-.27-.9-.44-.08-.05-.17-.1-.25-.15-.32-.2-.63-.42-.91-.68-.1-.09-.22-.13-.34-.13h-.01c-.12,0-.24,.05-.34,.13-2.58,2.31-6.47,2.32-9.04,.01-.19-.19-.49-.19-.69-.01-2.58,2.31-6.47,2.31-9.04,.01-.19-.19-.49-.19-.69-.01-2.58,2.31-6.47,2.31-9.04,.01-.06-.06-.12-.1-.2-.12-.07-.03-.15-.03-.23-.02-.01,0-.02,.01-.03,.02-.09,.02-.17,.05-.24,.11-.28,.26-.59,.48-.91,.68-.08,.05-.17,.1-.25,.15-.29,.16-.58,.31-.88,.43-.04,.01-.08,.03-.12,.05-.35,.13-.7,.22-1.05,.29-.09,.01-.17,.02-.26,.04Z" fill="#ffcd00" stroke-width="0"/><path d="M4.67,48.85c.27,.02,.54,.03,.81,.02h.2c.29-.01,.58-.04,.87-.08l.15-.03c.25-.04,.49-.1,.73-.16,.08-.03,.15-.04,.22-.07,.28-.08,.56-.18,.83-.3,.03-.01,.06-.03,.09-.04,.24-.11,.48-.24,.71-.38,.07-.03,.14-.07,.2-.12,.26-.16,.51-.33,.75-.52,.35,.28,.71,.52,1.09,.73-2.06,1.75-4.86,2.18-7.28,1.26,.06-.12,.12-.25,.18-.37,.12,.02,.23,.04,.35,.05,.04,0,.07,0,.1,.01Z" fill="#ffcd00" stroke-width="0"/></g><g><path d="M48.82,46.16c-.53,.47-1.1,.81-1.71,1.08h-.01s-.05-.09-.07-.14c-.01-.01-.02-.02-.02-.03-3.79-7.51-11.17-12.59-19.45-13.52,.24-5.1,1.37-13.74,6.12-19.62,.26-.32,.53-.64,.81-.94l.87,1.31c.09,.14,.23,.22,.39,.23l.38,.02-.02,.36-.02,.33c0,.11,.03,.21,.08,.3l.9,1.36c.11,.16,.29,.25,.49,.22l.38-.05-.09,.8c0,.12,.01,.24,.08,.34l.88,1.33c.11,.17,.31,.26,.5,.22l.27-.05-.09,.63c-.02,.12,.01,.25,.08,.35l1.88,2.85c.09,.14,.25,.23,.41,.23,.03,0,.06,0,.08,0,.2-.03,.36-.17,.41-.37l.03-.12c.29-1.14,.6-3.15,.07-5.43-.1-.44-.23-.89-.4-1.35-.49-1.31-1.18-2.39-1.93-3.27,.09,0,.18-.02,.26-.06,.03-.01,.06-.03,.09-.06l.59-.54,.34,.45,.66,.88c.06,.08,.15,.14,.25,.17l2.11,.69c.12,.04,.26,.03,.37-.03,.05-.02,.1-.06,.14-.1l.2-.2,.27,.5,.03,.06c.06,.11,.15,.19,.27,.23l3.21,1.16c.06,.02,.11,.03,.17,.03,.08,0,.17-.02,.24-.07,.05-.02,.08-.04,.12-.08,.06-.06,.1-.13,.11-.2,.04-.11,.04-.23,0-.34-.52-1.27-1.77-3.66-4.38-5.35-1.86-1.2-3.79-1.64-5.41-1.73-.03-.01-.05-.01-.08-.01,0-.02,.01-.04,0-.05l-.08-.38,.82,.03c.11,.01,.23-.03,.32-.1l1.27-.97c.16-.11,.23-.32,.19-.51l-.07-.27,.64,.05c.13,.01,.24-.02,.34-.1l2.24-1.7,.48-.36c.16-.12,.23-.32,.18-.51-.04-.2-.19-.34-.39-.38-1.35-.27-4.03-.52-6.87,.76-1.6,.72-2.82,1.74-3.74,2.78-1.12-1.36-2.82-2.86-5.25-3.65-2.96-.97-5.6-.43-6.92-.02-.18,.06-.32,.22-.34,.42-.03,.19,.07,.38,.24,.49l2.92,1.76c.11,.06,.24,.08,.35,.06l.4-.08,.23-.04-.02,.17-.02,.11c-.02,.19,.07,.37,.23,.48l1.86,1.2c.09,.06,.19,.09,.29,.08l.59-.02,1.08-.04v.2l-.05,.6c0,.16,.06,.29,.17,.39-1.69,.02-3.74,.39-5.76,1.62-2.65,1.62-3.96,3.98-4.5,5.24-.08,.18-.04,.39,.09,.54,.09,.1,.23,.16,.37,.16,.05,0,.1,0,.16-.03l1.19-.4,2.05-.68c.11-.04,.21-.12,.27-.22l.32-.55,.18,.2c.07,.07,.15,.12,.23,.14,.1,.03,.2,.03,.3,0l.46-.15,1.06-.36c.11-.04,.2-.11,.27-.21l.42-.69,.27,.28s.08,.07,.13,.09c.12,.07,.26,.08,.39,.04l.44-.15,1.1-.37c.11-.03,.19-.1,.26-.18l.39-.57,.32,.22s.09,.06,.15,.07c.09,.03,.2,.02,.29-.01l.32-.11,.83-.27c.1,.06,.21,.1,.33,.14,.06,.02,.12,.02,.18,.03-.15,.17-.29,.34-.42,.51-4.93,6.13-6.1,14.88-6.32,20.1-.56-.04-1.13-.06-1.7-.06-.94,0-1.87,.07-2.79,.17l-1.27-4.81c-.22-.8-1.03-1.28-1.84-1.07l-3.82,1.01-.12-.47c-.23-.85-1.1-1.36-1.95-1.14l-2.66,.71c-.41,.11-.76,.37-.97,.74-.21,.36-.27,.79-.16,1.2l.12,.48-3.82,1.01c-.8,.21-1.27,1.03-1.06,1.83l2.12,8.02c.02,.08,.07,.14,.1,.21-1.65,1.75-3.05,3.76-4.15,5.97-.61-.28-1.2-.63-1.73-1.11-.21-.18-.52-.16-.71,.04-.18,.21-.17,.52,.04,.71,.74,.66,1.57,1.15,2.44,1.48,0,.01,.01,.01,.01,.01,.01,0,.02,0,.03,.01,.29,.11,.58,.19,.88,.26,.04,.01,.08,.03,.12,.04,.19,.04,.38,.07,.57,.1,.12,.02,.23,.04,.35,.05,.04,0,.07,0,.1,.01,.27,.02,.54,.03,.81,.02h.2c.29-.01,.58-.04,.87-.08l.15-.03c.25-.04,.49-.1,.73-.16,.08-.03,.15-.04,.22-.07,.28-.08,.56-.18,.83-.3,.03-.01,.06-.03,.09-.04,.24-.11,.48-.24,.71-.38,.07-.03,.14-.07,.2-.12,.26-.16,.51-.33,.75-.52,.35,.28,.71,.52,1.09,.73,.26,.15,.53,.28,.8,.38,2.55,1.08,5.56,.71,7.84-1.11,.35,.28,.71,.52,1.09,.72,.25,.15,.52,.28,.79,.38,.82,.35,1.69,.54,2.57,.58,.14,.01,.28,.04,.42,.04s.28-.03,.42-.04c1.58-.09,3.14-.63,4.44-1.68,.35,.28,.71,.53,1.09,.73,.27,.16,.56,.3,.85,.41,2.55,1.05,5.54,.67,7.79-1.14,.34,.28,.72,.52,1.09,.74,.01,0,.01,.01,.02,.01,.12,.06,.24,.1,.36,.16,.13,.06,.26,.13,.39,.19,0,.01,.02,.01,.03,.01,.14,.07,.29,.13,.43,.18,.03,.01,.06,.01,.09,.02,.79,.27,1.62,.41,2.45,.41,.93,0,1.87-.17,2.78-.51h.01c.18-.08,.36-.15,.53-.24,.68-.31,1.32-.74,1.91-1.26,.2-.19,.2-.49,.02-.69-.19-.21-.51-.21-.71-.03ZM34.88,9.63s-.03-.08-.04-.11c0-.04-.01-.07-.01-.11-.01-.08,0-.17,.03-.25,.02-.08,.06-.15,.11-.22,.19-.26,.52-.39,.85-.29,.4,.12,.63,.55,.5,.96-.12,.4-.55,.63-.96,.51-.24-.08-.41-.27-.48-.49Zm.98,3.17c-.13-.04-.23-.12-.32-.21,0-.01-.02-.03-.04-.04-.15-.2-.23-.45-.15-.71,.13-.4,.56-.63,.96-.51,.32,.1,.52,.39,.54,.7,0,.08,0,.15-.03,.22v.04c-.12,.41-.55,.64-.96,.51Zm4.71,7.05l.1-.67c.02-.16-.03-.32-.15-.43-.11-.11-.27-.16-.43-.13l-.62,.1-.1-.16-.51-.75,.07-.6,.08-.67c.02-.16-.04-.31-.15-.42s-.27-.16-.42-.14l-.71,.11-.13-.2-.5-.76v-.06l.06-.96c.01-.2-.1-.38-.27-.47,.01,0,.01-.01,.02-.01,.42-.22,.73-.59,.87-1.04,.02-.06,.02-.13,.04-.19h.01c1.22,.97,2.52,2.39,3.28,4.44,.73,1.97,.7,3.83,.51,5.14l-.61-.93-.5-.75,.06-.45Zm-.93-10.23c1.26,.07,2.72,.36,4.17,1.11,.27,.14,.55,.29,.82,.47,1.77,1.15,2.86,2.65,3.49,3.82l-1.87-.68h-.03l-.03-.07-.51-.93c-.08-.14-.22-.23-.38-.25-.15-.02-.31,.03-.42,.15l-.45,.46-1.66-.54-1.25-1.65c-.08-.11-.21-.18-.35-.19-.15-.02-.28,.03-.38,.13l-.77,.71-1.67-.63c-.36-.28-.71-.52-1.04-.73-.04-.04-.08-.08-.12-.11,.01-.05,.03-.1,.03-.15v-.38h.68c.11-.01,.21-.04,.3-.11l.6-.45c.27,0,.55,0,.84,.02Zm-.48-4.58c1.93-.86,3.78-.96,5.1-.85l-.52,.39-1.08,.83-1.13-.09c-.16-.01-.31,.06-.42,.18-.1,.12-.14,.28-.1,.44l.14,.62-.87,.66-1.28-.06c-.16,0-.29,.1-.39,.22-.1,.11-.13,.32-.1,.47l.13,.61-.19,.15-.72,.54h-.39c-.03-.2-.09-.4-.19-.59-.14-.27-.34-.49-.59-.64-.13-.11-.29-.18-.45-.23-.12-.04-.25-.06-.37-.07,.84-.97,1.94-1.91,3.42-2.58Zm-7.62,1.92c-.09-.1-.23-.16-.37-.15l-2.07,.08-.92-.6-.49-.31h-.01l-.05-.04,.08-.64c.02-.16-.03-.32-.15-.43-.11-.11-.28-.15-.43-.13l-1.11,.21-1-.6-.74-.44c1.31-.25,3.16-.36,5.17,.3,.53,.17,1.02,.38,1.48,.62,1.53,.79,2.65,1.89,3.43,2.88,.07,.09,.13,.17,.19,.25-.3,.22-.53,.52-.65,.9-.05,.17-.07,.34-.07,.51-.17-.02-.34-.01-.5,.01h-.01l-.33-.19-.84-.49-.53-.31,.02-.39,.04-.66c.01-.14-.04-.28-.14-.38Zm0,5.07l-.52-.37c-.22-.15-.53-.1-.69,.13l-.59,.84-1.08,.36-.5-.52c-.11-.11-.26-.17-.42-.15-.15,0-.29,.1-.37,.23l-.67,1.09-1.04,.35-.42-.47c-.11-.12-.26-.18-.43-.16-.16,.01-.3,.11-.38,.24l-.56,.98-.72,.24-1.2,.4c.66-1.16,1.79-2.63,3.59-3.73,1.88-1.15,3.81-1.47,5.38-1.47,.47,0,.88,.03,1.27,.08-.08,.1-.14,.21-.19,.33-.03,.05-.05,.11-.07,.17-.13,.43-.09,.88,.09,1.27l-.48,.16Zm1.35-1.14c.12-.4,.55-.63,.96-.5,.4,.12,.63,.55,.5,.96-.12,.4-.55,.63-.96,.5-.4-.12-.63-.55-.5-.96Zm-13.69,17.76s.08-.02,.12-.02c.23,0,.43,.15,.49,.37l1.24,4.69,.25,.97,.24,.91,.39,1.45c.03,.13,.02,.27-.05,.38-.07,.12-.18,.2-.31,.23l-1.72,.46-.52-2-.26-.97-.26-.97-1.33-5.05,1.72-.45Zm-8.91,.38c.07-.14,.2-.23,.36-.27l2.66-.71c.31-.08,.64,.11,.72,.42l.12,.48-3.8,1-.13-.47c-.04-.15,0-.31,.07-.45Zm6.22,.33l1.33,5.04,.26,.97,.27,1.02,.52,1.95-7.97,2.11h-.04l-.34-1.27-.27-1.04-1.77-6.66,8.01-2.12Zm-11.05,3.44c-.07-.27,.09-.54,.36-.61l1.72-.46,1.87,7.07,.27,1.05,.23,.87-1.69,.45h-.03c-.12,.03-.26,.02-.37-.05-.12-.07-.2-.17-.24-.3l-.09-.35-2.03-7.67Zm40.26,14.92c-.1,.02-.2,.05-.3,.07-.35,.06-.7,.09-1.05,.09h-.23c-.3-.01-.6-.04-.9-.09-.08-.01-.17-.02-.25-.04-.36-.07-.71-.16-1.06-.29-.03,0-.07-.03-.1-.04-.31-.12-.61-.27-.9-.44-.08-.05-.17-.1-.25-.15-.32-.2-.63-.42-.91-.68-.1-.09-.22-.13-.34-.13h-.01c-.12,0-.24,.05-.34,.13-2.58,2.31-6.47,2.32-9.04,.01-.19-.19-.49-.19-.69-.01-2.58,2.31-6.47,2.31-9.04,.01-.19-.19-.49-.19-.69-.01-2.58,2.31-6.47,2.31-9.04,.01-.06-.06-.12-.1-.2-.12-.07-.03-.15-.03-.23-.02-.01,0-.02,.01-.03,.02-.09,.02-.17,.05-.24,.11-.28,.26-.59,.48-.91,.68-.08,.05-.17,.1-.25,.15-.29,.16-.58,.31-.88,.43-.04,.01-.08,.03-.12,.05-.35,.13-.7,.22-1.05,.29-.09,.01-.17,.02-.26,.04-.29,.04-.59,.07-.9,.08-.07,0-.14,.01-.22,.01-.19-.01-.39-.02-.58-.04-.16-.01-.32-.03-.48-.06-.09-.02-.17-.04-.26-.06-.16-.03-.31-.08-.47-.13,1.03-2.06,2.35-3.93,3.88-5.58,.22,.12,.45,.18,.69,.18,.12,0,.25-.02,.38-.05l.78-.2,10.39-2.75s.01-.01,.01-.01l2.2-.58c.39-.1,.71-.35,.91-.69,.2-.35,.26-.75,.16-1.14l-.36-1.38-.23-.85c.83-.09,1.67-.15,2.53-.15,.56,0,1.11,.02,1.67,.06-.01,.24-.01,.47-.01,.7-.02,1.53,.04,2.53,.06,2.7,.02,.26,.24,.46,.49,.46h.04c.28-.02,.48-.26,.46-.53,0-.04-.06-1.01-.03-2.59,0-.2,0-.42,.01-.64,3.27,.38,6.4,1.43,9.2,3.04,3.99,2.31,7.32,5.75,9.44,10.01-.15,.04-.3,.09-.45,.12Z" stroke-width="0"/><path d="M.75,10.46H5.13c.1,.93,.46,1.78,1.03,2.48l-3.1,3.1c-.2,.19-.2,.51,0,.7,.1,.1,.23,.15,.35,.15,.13,0,.26-.05,.36-.15l3.09-3.09c.7,.56,1.55,.92,2.49,1.02v4.39c0,.27,.22,.5,.5,.5s.5-.23,.5-.5v-4.39c.35-.04,.69-.11,1.01-.22,.54-.18,1.03-.45,1.47-.8l.12,.12,2.98,2.97c.1,.1,.22,.15,.35,.15s.26-.05,.35-.15c.2-.19,.2-.51,0-.7l-2.96-2.97-.13-.13c.46-.57,.79-1.25,.94-1.99,.04-.16,.06-.32,.08-.49h4.39c.27,0,.5-.23,.5-.5s-.23-.5-.5-.5h-4.39c-.09-.94-.46-1.79-1.02-2.49l3.09-3.09c.2-.2,.2-.52,0-.71-.19-.2-.51-.2-.7,0l-3.1,3.1c-.7-.57-1.55-.93-2.48-1.03V.86c0-.28-.23-.5-.5-.5s-.5,.22-.5,.5V5.24c-.94,.1-1.79,.46-2.49,1.03L3.77,3.17c-.2-.2-.51-.2-.71,0-.2,.19-.2,.51,0,.71l3.1,3.09c-.57,.7-.93,1.55-1.03,2.49H.75c-.28,0-.5,.22-.5,.5s.22,.5,.5,.5ZM9.85,6.19c1.17,0,2.23,.54,2.93,1.4,.52,.64,.84,1.47,.84,2.37,0,2.07-1.7,3.76-3.77,3.76-.76,0-1.46-.22-2.06-.61-1.03-.67-1.71-1.84-1.71-3.15,0-2.08,1.69-3.77,3.77-3.77Z" stroke-width="0"/></g></svg>