<?xml version="1.0" encoding="UTF-8"?><svg width="70" height="70" id="uuid-da28ee1b-36b3-470f-bc5d-9364b8230a4d" xmlns="http://www.w3.org/2000/svg" viewBox="-10 -10 70 70"><rect x="-10" y="-10" width="70" height="70" fill="white"/><g><circle cx="30.86" cy="10.62" r="6.61" fill="#ffcd00"/><path d="M15.55,17.23c3.03,0,5.49-2.46,5.49-5.49s-2.46-5.49-5.49-5.49-5.49,2.46-5.49,5.49,2.46,5.49,5.49,5.49Z" fill="#ffcd00" stroke-width="0"/><polygon points="41.02 24.34 40.98 24.27 40.98 18.23 6.56 18.23 6.56 25.48 6.56 34.89 6.56 42.14 40.98 42.14 40.98 36.1 41.02 36.04 49.37 40.28 49.37 20.09 41.02 24.34" fill="#ffcd00"/></g><g><path d="M48.62,17.29c-.15-.09-.35-.09-.5,0l-7.64,4.41v-5.47c0-.28-.22-.5-.5-.5h-6.86c2.3-1.31,3.86-3.78,3.86-6.61,0-4.2-3.42-7.61-7.61-7.61s-7.61,3.42-7.61,7.61c0,2.83,1.56,5.3,3.86,6.61h-8.11c1.82-1.15,3.04-3.18,3.04-5.49,0-3.58-2.91-6.49-6.49-6.49s-6.49,2.91-6.49,6.49c0,2.31,1.22,4.34,3.04,5.49H4.56c-.28,0-.5,.22-.5,.5v7.25H1.13c-.28,0-.5,.22-.5,.5v9.41c0,.28,.22,.5,.5,.5h2.93v7.25c0,.28,.22,.5,.5,.5H23.07l-7.05,5.97c-.21,.18-.24,.49-.06,.71,.1,.12,.24,.18,.38,.18,.11,0,.23-.04,.32-.12l7.77-6.58,7.77,6.58c.09,.08,.21,.12,.32,.12,.14,0,.28-.06,.38-.18,.18-.21,.15-.53-.06-.71l-7.05-5.97h14.17c.28,0,.5-.22,.5-.5v-5.47l7.64,4.41c.08,.04,.16,.07,.25,.07s.17-.02,.25-.07c.15-.09,.25-.25,.25-.43V17.73c0-.18-.1-.34-.25-.43Zm-9.14,23.35H5.06V16.73H39.48v23.91ZM1.63,24.48h2.43v8.41H1.63v-8.41ZM22.75,9.12c0-3.65,2.97-6.61,6.61-6.61s6.61,2.97,6.61,6.61-2.97,6.61-6.61,6.61-6.61-2.97-6.61-6.61Zm-14.18,1.13c0-3.03,2.46-5.49,5.49-5.49s5.49,2.46,5.49,5.49-2.46,5.49-5.49,5.49-5.49-2.46-5.49-5.49Zm39.31,28.53l-7.35-4.24-.04,.07v-11.83l.04,.07,7.35-4.24v20.19Z" stroke-width="0"/><path d="M9.65,21.01c0,.28,.22,.5,.5,.5h24.24c.28,0,.5-.22,.5-.5s-.22-.5-.5-.5H10.15c-.28,0-.5,.22-.5,.5Z" stroke-width="0"/></g></svg>