<?xml version="1.0" encoding="UTF-8"?><svg width="70" height="70" id="uuid-78b9f8e1-a114-414e-9afb-d8a2b7c0a3c4" xmlns="http://www.w3.org/2000/svg" viewBox="-10 -10 70 70"><rect x="-10" y="-10" width="70" height="70" fill="white"/><polygon points="7.89 18.35 46.23 11.17 45.18 5.57 39 6.73 42.69 9.64 42.76 9.69 38.84 10.42 35.08 7.46 25.67 9.22 29.44 12.18 25.51 12.92 21.75 9.96 12.92 11.61 16.68 14.57 15.2 14.85 12.77 15.3 9.14 12.32 6.84 12.75 7.89 18.35" fill="#ffcd00"/><path d="M8.2,20.12l-2.39,22.19,38.82,4.99,2.35-23.02L8.2,20.12Zm20.95,11.86l-8.62-1,.43-4.56,8.64,1-.45,4.56Z" fill="#ffcd00" stroke-width="0"/><path d="M45.83,21.6L6.93,17.42l5.77-1.08s.02,0,.03,0l2.37-.45,15.28-2.86,.23-.04h0l13.16-2.46,.27-.05h0l1.05-.2c.27-.05,.45-.31,.4-.58l-1.23-6.58c-.02-.13-.1-.25-.21-.32-.11-.07-.24-.1-.37-.08l-6.83,1.28h0l-5.22,.98h0l-8.1,1.52h0l-.14,.03-12.59,2.36s0,0-.01,0l-4.77,.9-1.63,.31c-.27,.05-.45,.31-.4,.58l1.23,6.58c.02,.13,.1,.25,.21,.32,.05,.03,.1,.03,.16,.05-.03,.05-.05,.11-.05,.17l-2.49,23.18c-.03,.27,.16,.51,.43,.55l39.81,5.12s.04,0,.06,0c.11,0,.22-.04,.31-.11,.11-.08,.17-.21,.19-.34l2.45-24.02c.03-.27-.17-.52-.44-.55ZM10.74,9.89l5.95,4.68-1.48,.28-2.43,.45-5.75-4.72,3.71-.69Zm7.52-1.41l5.95,4.68-6.21,1.16-5.95-4.68,6.21-1.16Zm13.33-2.5l5.95,4.68-6.82,1.28-.07-.07-5.86-4.61,6.8-1.27Zm5.22-.98l5.88,4.63,.07,.05-3.92,.73-5.95-4.68,3.92-.73Zm-11.3,7.91l-5.9-4.64,3.87-.77,5.96,4.68-3.93,.73Zm18.92-3.54l-.33,.06-5.97-4.68,5.26-.98,1.05,5.6ZM5.04,10.95l.7-.13,5.75,4.72-5.4,1.01-1.05-5.6ZM42.88,45.56L4.07,40.56l2.39-22.19,38.78,4.17-2.35,23.02Z" stroke-width="0"/><path d="M8.04,30.55l33.1,3.82s.04,0,.06,0c.25,0,.47-.19,.5-.44,.03-.27-.17-.52-.44-.55l-11.11-1.28,.45-4.56,11.02,1.27s.04,0,.06,0c.25,0,.47-.19,.5-.44,.03-.27-.17-.52-.44-.55l-33.1-3.82c-.27-.03-.52,.17-.55,.44-.03,.27,.17,.52,.44,.55l11.45,1.32-.43,4.56-11.38-1.31c-.27-.03-.52,.17-.55,.44s.17,.52,.44,.55Zm12.92-4.12l8.64,1-.45,4.56-8.62-1,.43-4.56Z" stroke-width="0"/><path d="M7.44,35.49l33.1,3.82s.04,0,.06,0c.25,0,.47-.19,.5-.44,.03-.27-.17-.52-.44-.55l-33.1-3.82c-.27-.03-.52,.17-.55,.44-.03,.27,.17,.52,.44,.55Z" stroke-width="0"/></svg>