<?xml version="1.0" encoding="utf-8"?> <!-- Generator: Adobe Illustrator 27.7.0, SVG Export Plug-In . SVG Version: 6.00 Build 0) --> <svg width="70" height="70" version="1.1" xmlns="http://www.w3.org/2000/svg" xmlns:xlink="http://www.w3.org/1999/xlink" x="0px" y="0px" viewBox="-10 -10 70 70" style="enable-background:new 0 0 50 50;" xml:space="preserve"><rect x="-10" y="-10" width="70" height="70" fill="white"/> <style type="text/css"> .st0{fill:#FFCD00;} .st1{display:none;} .st2{display:inline;fill:none;stroke:#EA008A;stroke-width:0.2;stroke-miterlimit:10;} .st3{font-family:'Roboto-Regular';} .st4{font-size:6px;} </style> <g id="Color"> <path class="st0" d="M47.959,25.8071c-2.7852-7.7178-8-11.0771-11.6182-11.6094c-3.2246-0.4736-6.7393-0.4736-9.8408-0.4736 s-6.6162,0-9.8408,0.4736C13.041,14.73,7.8262,18.0894,5.041,25.8071c-2.3291,6.4556-1.9463,10.4189,1.2061,12.4717 c1.3994,0.9111,2.9131,1.2021,4.5,0.8613c2.1084-0.4517,4.1445-1.9946,5.584-4.2339c3.4141-5.3091,6.7588-5.7485,10.1689-5.7485 s6.7549,0.4395,10.1689,5.7485c1.4395,2.2393,3.4756,3.7822,5.584,4.2339c1.5879,0.3408,3.1006,0.0498,4.5-0.8613 C49.9053,36.2261,50.2881,32.2627,47.959,25.8071z M15.958,25.5581h-2.2158c-0.2764,0-0.5,0.2236-0.5,0.5v2.2148h-2.4648v-2.2148 c0-0.2764-0.2236-0.5-0.5-0.5H8.0625v-2.4653h2.2149c0.2764,0,0.5-0.2236,0.5-0.5v-2.2153h2.4648v2.2153 c0,0.2764,0.2236,0.5,0.5,0.5h2.2158V25.5581z M32.2695,25.5068c-0.6777,0-1.2295-0.5518-1.2295-1.2305 c0-0.6782,0.5518-1.23,1.2295-1.23c0.6787,0,1.2305,0.5518,1.2305,1.23C33.5,24.9551,32.9482,25.5068,32.2695,25.5068z M37.0176,29.9546c-0.6777,0-1.2295-0.5518-1.2295-1.23s0.5518-1.23,1.2295-1.23c0.6787,0,1.2305,0.5518,1.2305,1.23 S37.6963,29.9546,37.0176,29.9546z M37.0176,21.0586c-0.6777,0-1.2295-0.5518-1.2295-1.23s0.5518-1.23,1.2295-1.23 c0.6787,0,1.2305,0.5518,1.2305,1.23S37.6963,21.0586,37.0176,21.0586z M41.7656,25.5068c-0.6777,0-1.2295-0.5518-1.2295-1.2305 c0-0.6782,0.5518-1.23,1.2295-1.23c0.6787,0,1.2305,0.5518,1.2305,1.23C42.9961,24.9551,42.4443,25.5068,41.7656,25.5068z" stroke-width="0"/> </g> <g id="ICONS_00000031165542127692736420000002692518830807990202_"> <g> <path d="M47.4004,23.9673c-2.9355-8.1328-8.5225-11.6865-12.415-12.2588c-3.2959-0.4844-6.8496-0.4844-9.9854-0.4844 s-6.6895,0-9.9854,0.4844c-3.8926,0.5723-9.4795,4.126-12.415,12.2588c-2.4775,6.8691-1.9541,11.334,1.6025,13.6494 c1.6074,1.0464,3.4238,1.3931,5.2539,1.0015c2.3682-0.5073,4.6338-2.2095,6.2168-4.6709c3.1455-4.8916,6.085-5.2896,9.3271-5.2896 s6.1816,0.3979,9.3271,5.2896c1.583,2.4614,3.8486,4.1636,6.2168,4.6709c0.4893,0.1045,0.9775,0.1567,1.4609,0.1567 c1.3252,0,2.6152-0.3911,3.793-1.1582C49.3545,35.3013,49.8779,30.8364,47.4004,23.9673z M45.2529,36.7788 c-1.3994,0.9111-2.9121,1.2021-4.5,0.8613c-2.1084-0.4517-4.1445-1.9946-5.584-4.2339C31.7549,28.0972,28.4102,27.6577,25,27.6577 s-6.7549,0.4395-10.1689,5.7485c-1.4395,2.2393-3.4756,3.7822-5.584,4.2339c-1.5869,0.3408-3.1006,0.0498-4.5-0.8613 c-3.1523-2.0527-3.5352-6.0161-1.2061-12.4717c2.7852-7.7178,8-11.0771,11.6182-11.6094 c3.2246-0.4736,6.7393-0.4736,9.8408-0.4736s6.6162,0,9.8408,0.4736c3.6182,0.5322,8.833,3.8916,11.6182,11.6094 C48.7881,30.7627,48.4053,34.7261,45.2529,36.7788z" stroke-width="0"/> <path d="M16.458,22.0928h-2.2158v-2.2153c0-0.2764-0.2236-0.5-0.5-0.5h-3.4648c-0.2764,0-0.5,0.2236-0.5,0.5v2.2153H7.5625 c-0.2764,0-0.5,0.2236-0.5,0.5v3.4653c0,0.2764,0.2236,0.5,0.5,0.5h2.2148v2.2148c0,0.2764,0.2236,0.5,0.5,0.5h3.4648 c0.2764,0,0.5-0.2236,0.5-0.5v-2.2148h2.2158c0.2764,0,0.5-0.2236,0.5-0.5v-3.4653C16.958,22.3164,16.7344,22.0928,16.458,22.0928 z M15.958,25.5581h-2.2158c-0.2764,0-0.5,0.2236-0.5,0.5v2.2148h-2.4648v-2.2148c0-0.2764-0.2236-0.5-0.5-0.5H8.0625v-2.4653 h2.2149c0.2764,0,0.5-0.2236,0.5-0.5v-2.2153h2.4648v2.2153c0,0.2764,0.2236,0.5,0.5,0.5h2.2158V25.5581z" stroke-width="0"/> <path d="M37.0176,17.5986c-1.2295,0-2.2295,1.0005-2.2295,2.23s1,2.23,2.2295,2.23s2.2305-1.0005,2.2305-2.23 S38.2471,17.5986,37.0176,17.5986z M37.0176,21.0586c-0.6777,0-1.2295-0.5518-1.2295-1.23s0.5518-1.23,1.2295-1.23 c0.6787,0,1.2305,0.5518,1.2305,1.23S37.6963,21.0586,37.0176,21.0586z" stroke-width="0"/> <path d="M41.7656,22.0464c-1.2295,0-2.2295,1.0005-2.2295,2.23c0,1.23,1,2.2305,2.2295,2.2305s2.2305-1.0005,2.2305-2.2305 C43.9961,23.0469,42.9951,22.0464,41.7656,22.0464z M41.7656,25.5068c-0.6777,0-1.2295-0.5518-1.2295-1.2305 c0-0.6782,0.5518-1.23,1.2295-1.23c0.6787,0,1.2305,0.5518,1.2305,1.23C42.9961,24.9551,42.4443,25.5068,41.7656,25.5068z" stroke-width="0"/> <path d="M37.0176,26.4946c-1.2295,0-2.2295,1.0005-2.2295,2.23s1,2.23,2.2295,2.23s2.2305-1.0005,2.2305-2.23 S38.2471,26.4946,37.0176,26.4946z M37.0176,29.9546c-0.6777,0-1.2295-0.5518-1.2295-1.23s0.5518-1.23,1.2295-1.23 c0.6787,0,1.2305,0.5518,1.2305,1.23S37.6963,29.9546,37.0176,29.9546z" stroke-width="0"/> <path d="M32.2695,22.0464c-1.2295,0-2.2295,1.0005-2.2295,2.23c0,1.23,1,2.2305,2.2295,2.2305S34.5,25.5063,34.5,24.2764 C34.5,23.0469,33.499,22.0464,32.2695,22.0464z M32.2695,25.5068c-0.6777,0-1.2295-0.5518-1.2295-1.2305 c0-0.6782,0.5518-1.23,1.2295-1.23c0.6787,0,1.2305,0.5518,1.2305,1.23C33.5,24.9551,32.9482,25.5068,32.2695,25.5068z" stroke-width="0"/> <path d="M28.4893,16.0425h-6.9785c-0.1455,0-0.2832,0.0635-0.3789,0.1733c-0.0947,0.1099-0.1367,0.2559-0.1152,0.3999 l0.4893,3.3042C21.542,20.165,21.752,20.3467,22,20.3467h6c0.248,0,0.458-0.1816,0.4941-0.4268l0.4893-3.3042 c0.0215-0.144-0.0205-0.29-0.1152-0.3999C28.7725,16.106,28.6348,16.0425,28.4893,16.0425z M27.5684,19.3467h-5.1367 l-0.3418-2.3042h5.8203L27.5684,19.3467z" stroke-width="0"/> </g> </g> <g id="Margin" class="st1"> <rect x="1" y="1" class="st2" /> </g> <g id="Guides" class="st1"> </g> <g id="LABELS"> <g> <g> <g> <g> </g> </g> </g> </g> </g> </svg> 