<?xml version="1.0" encoding="UTF-8"?><svg width="70" height="70" xmlns="http://www.w3.org/2000/svg" viewBox="-10 -10 70 70"><rect x="-10" y="-10" width="70" height="70" fill="white"/><g id="uuid-10bd0302-630f-416b-ba1f-df2358fdb717"><path d="M32.64,23.56l-.68-.74-.24-.17c-.94-.67-1.88-1.34-2.82-2.01l-9.35,11.65-1.88-1.52c.36-.42,.94-1.14,1.96-2.4l7.31-9.03c-.67-.37-1.84-.84-3.16-.59-1.54,.28-2.93,1.44-4.11,3.45-.17,.23-1.28,1.74-1.92,2.48,.17,.32,.35,.82,.28,1.46-.1,1.1-.86,2.19-2.24,3.23-1.42,1.06-2.69,1.5-3.78,1.3-.45-.08-.78-.25-1.03-.43-.35,.5-.94,1.26-1.66,1.88-.18,.15-.45,.31-.83,.54-1.29,.76-3.7,2.19-4.12,4.65-.31,1.81,.5,3.95,2.39,6.33l.34-.84,1.09-1.36,3,2.42-1.09,1.35-.84,.55c.99,.72,1.98,1.43,2.97,2.15h0l.05,.03c2.86,1.64,5.24,2.14,7.07,1.48,2.35-.85,3.33-3.46,3.86-4.87,.16-.41,.27-.71,.39-.91,.48-.81,1.13-1.53,1.56-1.96-.22-.21-.45-.51-.6-.94-.38-1.04-.17-2.37,.63-3.95,.78-1.54,1.72-2.48,2.79-2.77,.62-.17,1.14-.08,1.48,.03,.61-.76,1.9-2.11,2.07-2.29,1.8-1.55,2.71-3.11,2.72-4.68,.02-2.07-1.56-3.49-1.58-3.51Z" fill="#ffcd00" stroke-width="0"/><path d="M22.67,42.38c.68-1.15,1.8-2.14,1.81-2.15,.13-.11,.19-.28,.16-.45-.02-.17-.14-.31-.29-.38-.02,0-.45-.21-.65-.8-.27-.75-.06-1.83,.59-3.12,.64-1.25,1.38-2.03,2.14-2.25,.66-.19,1.12,.08,1.14,.09,.23,.15,.54,.08,.69-.16,.23-.36,1.48-1.71,2.17-2.44,2-1.72,3.02-3.54,3.03-5.41,.01-2.53-1.84-4.18-1.88-4.21l-.67-.75s-.05-.05-.08-.07l-.24-.17,9.69-12.07c.36-.08,.7-.25,.98-.48-.04,.08-.06,.17-.06,.26,0,.34,.28,.62,.62,.62s.62-.28,.62-.62-.28-.62-.62-.62c-.1,0-.2,.03-.28,.08,.04-.05,.08-.09,.12-.14l.96-1.36c0,.34,.28,.61,.62,.61s.62-.28,.62-.62-.28-.62-.62-.62c-.09,0-.18,.02-.25,.06,.23-.44,.31-.93,.23-1.43-.1-.6-.44-1.13-.94-1.48l-.71-.5c-.5-.35-1.1-.49-1.71-.38-.58,.1-1.08,.42-1.44,.88,0-.03,.02-.06,.02-.09,0-.34-.28-.62-.62-.62s-.62,.28-.62,.62,.28,.62,.62,.62c.1,0,.19-.03,.27-.07l-.87,1.25c-.04,.06-.07,.13-.11,.19,.02-.05,.03-.11,.03-.16,0-.34-.28-.62-.62-.62s-.62,.28-.62,.62,.28,.62,.62,.62c.18,0,.34-.08,.46-.2-.14,.34-.19,.71-.16,1.09l-9.75,12.05-.68-.43c-.08-.07-2.03-1.61-4.52-1.15-1.84,.33-3.46,1.66-4.78,3.89-.63,.85-1.74,2.32-2.05,2.6-.2,.18-.21,.5-.04,.7,.02,.02,.37,.43,.29,1.11-.09,.79-.72,1.66-1.85,2.5-1.16,.87-2.18,1.25-2.97,1.12-.62-.1-.89-.49-.9-.5-.09-.15-.26-.26-.43-.23-.17,0-.33,.09-.42,.24,0,.01-.78,1.28-1.8,2.15-.11,.09-.39,.26-.69,.44-1.43,.85-4.1,2.42-4.6,5.34-.38,2.21,.59,4.74,2.94,7.56l1,.95h0l-.79,1.97c-.08,.2-.02,.43,.15,.57l1.98,1.63c.09,.08,.21,.11,.32,.11,.09,0,.19-.03,.27-.08l2.03-1.33,.49,.28c2.2,1.26,4.17,1.89,5.88,1.89,.72,0,1.4-.11,2.02-.34,2.78-1,3.87-3.9,4.46-5.46,.12-.32,.24-.63,.31-.75ZM37.23,6.67c.15,.2,.32,.38,.52,.52l.71,.49c.18,.13,.37,.23,.58,.3l-19.5,24.3-1.88-1.52c.36-.42,.94-1.14,1.96-2.4L37.19,6.63s.02,.02,.03,.03Zm.78-2.09l1.17-1.67c.2-.28,.5-.47,.84-.53,.08-.01,.15-.02,.22-.02,.26,0,.52,.08,.74,.24l.71,.5c.28,.2,.47,.5,.53,.84,.06,.34-.02,.68-.21,.96h0l-1.17,1.67c-.2,.29-.54,.5-.89,.54-.34,.03-.65-.05-.91-.23l-.72-.5c-.13-.09-.25-.21-.33-.35,0,0,0-.02,0-.02-.08-.13-.15-.27-.18-.42-.07-.35,0-.72,.21-1.01ZM7.24,47.04l-1.41-1.17,1.25-3.1,1.09-1.36,3,2.42-1.09,1.35-2.84,1.85Zm14.18-4.26c-.53,1.41-1.51,4.02-3.86,4.87-1.82,.66-4.2,.16-7.07-1.48l-.05-.03,.24-.16s.08-.06,.12-.11l1.45-1.8c.17-.21,.14-.53-.08-.7l-3.78-3.04c-.1-.08-.24-.12-.37-.11-.13,.01-.25,.08-.34,.18l-1.45,1.8s-.06,.08-.07,.13l-.22,.55-.67-.64c-2.11-2.54-3.02-4.8-2.69-6.71,.43-2.46,2.83-3.88,4.12-4.65,.38-.22,.65-.39,.83-.54,.72-.61,1.31-1.38,1.66-1.88,.24,.18,.58,.35,1.03,.43,1.09,.19,2.36-.24,3.78-1.3,1.38-1.04,2.14-2.13,2.24-3.23,.06-.64-.12-1.14-.28-1.46,.64-.73,1.75-2.25,1.92-2.48,1.19-2.01,2.57-3.17,4.11-3.45,2.04-.38,3.71,.94,3.77,.98l.63,.4-7.58,9.37c-.77,.95-2.03,2.51-2.22,2.72-.06,.05-.11,.13-.14,.21-.07,.2,0,.42,.16,.56l2.67,2.16c.09,.07,.2,.11,.31,.11,.02,0,.04,0,.05,0,.13-.01,.25-.08,.34-.18l9.96-12.41,.24,.17,.68,.74s1.6,1.43,1.58,3.51c-.01,1.57-.92,3.13-2.72,4.68-.17,.18-1.46,1.53-2.07,2.29-.34-.11-.87-.2-1.48-.03-1.07,.29-2.01,1.23-2.79,2.77-.8,1.58-1.01,2.91-.63,3.95,.16,.42,.39,.73,.6,.94-.43,.43-1.08,1.15-1.56,1.96-.12,.2-.23,.5-.39,.91Z" stroke-width="0"/><path d="M48.28,16.1c-.21-.17-.53-.14-.7,.07-8.58,10.54-24.88,30.56-25.43,31.18-.09,.09-.14,.21-.14,.35,0,.28,.22,.5,.5,.5s.29,0,25.84-31.4c.17-.21,.14-.53-.07-.7Z" stroke-width="0"/></g><g id="uuid-4cd3e773-b11e-4b02-bb7a-a82c2591b036"></g></svg>