<?xml version="1.0" encoding="UTF-8"?><svg width="70" height="70" id="uuid-02fef315-89ed-4c92-be35-1bcf76d51319" xmlns="http://www.w3.org/2000/svg" viewBox="-10 -10 70 70"><rect x="-10" y="-10" width="70" height="70" fill="white"/><path d="M11.39,38.31c-.72,0-1.39,.28-1.9,.79-1.05,1.05-1.05,2.75,0,3.79,1.01,1.01,2.78,1.01,3.79,0,1.05-1.05,1.05-2.75,0-3.79-.51-.51-1.18-.79-1.9-.79Z" fill="#ffcd00" stroke-width="0"/><path d="M38.78,40.16c0,.72,.28,1.39,.79,1.9,1.04,1.04,2.75,1.04,3.79,0,.51-.51,.79-1.18,.79-1.9s-.28-1.39-.79-1.9c-1.05-1.04-2.75-1.04-3.79,0-.51,.51-.79,1.18-.79,1.9Z" fill="#ffcd00" stroke-width="0"/><circle cx="26.17" cy="5.78" r="2.68" fill="#ffcd00"/><circle cx="26.17" cy="46.97" r="2.68" fill="#ffcd00"/><path d="M42.42,13.76c1.04-1.05,1.04-2.75,0-3.79-.51-.51-1.18-.79-1.9-.79s-1.39,.28-1.9,.79c-1.05,1.05-1.05,2.75,0,3.79s2.78,1.01,3.79,0Z" fill="#ffcd00" stroke-width="0"/><circle cx="5.78" cy="26.11" r="2.68" fill="#ffcd00"/><path d="M14.23,9.13c-.51-.51-1.18-.79-1.9-.79s-1.39,.28-1.9,.79c-1.05,1.05-1.05,2.75,0,3.79,1.01,1.01,2.78,1.01,3.79,0,1.04-1.05,1.04-2.75,0-3.79Z" fill="#ffcd00" stroke-width="0"/><circle cx="46.97" cy="26.11" r="2.68" fill="#ffcd00"/><path d="M35.06,17.96h-.01l-.71-.7h0c-2.08-1.86-4.81-3-7.81-3-6.47,0-11.74,5.26-11.74,11.74s5.26,11.74,11.74,11.74,11.74-5.26,11.74-11.74c0-3.11-1.22-5.93-3.21-8.04Zm-12.68,13.54c-.34,.06-.67-.02-.96-.22-.3-.21-.5-.54-.56-.91-.12-.75,.36-1.47,1.08-1.59,.07-.01,.14-.02,.22-.02,.26,0,.52,.08,.74,.24,.3,.21,.5,.54,.56,.91,.12,.75-.36,1.47-1.08,1.59Zm2.13-7.45c-1.94,.32-3.78-.99-4.11-2.93-.33-1.94,.99-3.78,2.93-4.11,.2-.03,.4-.05,.59-.05,1.71,0,3.22,1.24,3.51,2.98,.33,1.94-.99,3.78-2.93,4.11Zm6.33,4.5c-.34,.06-.67-.02-.96-.22-.3-.21-.5-.54-.56-.91-.12-.75,.36-1.47,1.08-1.59,.07-.01,.14-.02,.22-.02,.26,0,.52,.08,.74,.24,.3,.21,.5,.54,.56,.91,.12,.75-.36,1.47-1.08,1.59Z" fill="#ffcd00" stroke-width="0"/><path d="M45.22,20.68c-1.84,0-3.36,1.36-3.62,3.13h-4.1c-.11-3.21-1.41-6.13-3.48-8.31l2.5-2.5c.64,.5,1.42,.79,2.26,.79,.98,0,1.91-.38,2.6-1.08,1.43-1.44,1.43-3.77,0-5.21-1.39-1.39-3.82-1.39-5.21,0-1.3,1.3-1.41,3.34-.35,4.78l-2.52,2.52c-2.24-2.02-5.19-3.27-8.44-3.29v-3.85c1.82-.22,3.23-1.76,3.23-3.64,0-2.03-1.65-3.68-3.68-3.68s-3.68,1.65-3.68,3.68c0,1.84,1.36,3.36,3.13,3.62v3.9c-2.76,.2-5.28,1.27-7.27,2.95l-3.05-3.05c1.06-1.44,.95-3.47-.35-4.78-1.39-1.39-3.82-1.39-5.21,0-1.44,1.44-1.44,3.77,0,5.21,.69,.7,1.62,1.08,2.6,1.08,.83,0,1.61-.29,2.25-.79l3.01,3.01c-2.25,2.22-3.67,5.26-3.78,8.63H7.65c-.27-1.77-1.78-3.13-3.62-3.13-2.03,0-3.68,1.65-3.68,3.68s1.65,3.68,3.68,3.68c1.88,0,3.41-1.42,3.64-3.23h4.41c.14,3.05,1.35,5.82,3.27,7.95l-3.53,3.53c-1.42-1.02-3.52-.91-4.77,.35-1.44,1.44-1.44,3.77,0,5.21,.69,.7,1.62,1.08,2.6,1.08s1.91-.38,2.6-1.08c1.33-1.33,1.41-3.41,.28-4.86l3.51-3.51c2.07,1.96,4.8,3.24,7.83,3.45v4.66c-1.77,.27-3.13,1.78-3.13,3.62,0,2.03,1.65,3.68,3.68,3.68s3.68-1.65,3.68-3.68c0-1.88-1.42-3.41-3.23-3.64v-4.61c3.51-.02,6.69-1.47,8.98-3.8l2.98,2.98c-.5,.64-.79,1.42-.79,2.26,0,.98,.38,1.91,1.08,2.6,.72,.72,1.66,1.08,2.6,1.08s1.88-.36,2.6-1.08,1.08-1.62,1.08-2.6-.38-1.91-1.08-2.6c-1.3-1.3-3.34-1.41-4.78-.35l-3.02-3.02c1.75-2.08,2.84-4.73,2.97-7.62h4.1c.22,1.82,1.76,3.23,3.64,3.23,2.03,0,3.68-1.65,3.68-3.68s-1.65-3.68-3.68-3.68Zm-8.34-12.47c.51-.51,1.18-.79,1.9-.79s1.39,.28,1.9,.79c1.04,1.05,1.04,2.75,0,3.79-1.01,1.01-2.78,1.01-3.79,0s-1.05-2.75,0-3.79Zm-24.4,2.96c-1.01,1.01-2.78,1.01-3.79,0-1.05-1.05-1.05-2.75,0-3.79,.51-.51,1.18-.79,1.9-.79s1.39,.28,1.9,.79c1.04,1.05,1.04,2.75,0,3.79ZM4.03,27.04c-1.48,0-2.68-1.2-2.68-2.68s1.2-2.68,2.68-2.68,2.68,1.2,2.68,2.68-1.2,2.68-2.68,2.68Zm7.51,14.09c-1.01,1.01-2.78,1.01-3.79,0-1.05-1.05-1.05-2.75,0-3.79,.51-.51,1.18-.79,1.9-.79s1.39,.28,1.9,.79c1.05,1.05,1.05,2.75,0,3.79Zm30.07-4.62c.51,.51,.79,1.18,.79,1.9s-.28,1.39-.79,1.9c-1.05,1.04-2.75,1.04-3.79,0-.51-.51-.79-1.18-.79-1.9s.28-1.39,.79-1.9c1.04-1.04,2.75-1.04,3.79,0ZM21.74,4.03c0-1.48,1.2-2.68,2.68-2.68s2.68,1.2,2.68,2.68-1.2,2.68-2.68,2.68-2.68-1.2-2.68-2.68Zm5.36,41.19c0,1.48-1.2,2.68-2.68,2.68s-2.68-1.2-2.68-2.68,1.2-2.68,2.68-2.68,2.68,1.2,2.68,2.68Zm-2.32-9.24c-6.47,0-11.74-5.26-11.74-11.74s5.26-11.74,11.74-11.74c3,0,5.74,1.14,7.81,3h0l.71,.71h.01c1.98,2.09,3.21,4.91,3.21,8.02,0,6.47-5.27,11.74-11.74,11.74Zm20.44-8.93c-1.48,0-2.68-1.2-2.68-2.68s1.2-2.68,2.68-2.68,2.68,1.2,2.68,2.68-1.2,2.68-2.68,2.68Z" stroke-width="0"/><path d="M28.42,19.78c-.42-2.48-2.77-4.16-5.26-3.75-2.48,.42-4.16,2.78-3.75,5.26,.37,2.23,2.31,3.81,4.5,3.81,.25,0,.5-.02,.76-.06,2.48-.42,4.16-2.78,3.75-5.26Zm-3.91,4.27c-1.94,.32-3.78-.99-4.11-2.93-.33-1.94,.99-3.78,2.93-4.11,.2-.03,.4-.05,.59-.05,1.71,0,3.22,1.24,3.51,2.98,.33,1.94-.99,3.78-2.93,4.11Z" stroke-width="0"/><path d="M31.94,25.23c-.5-.36-1.11-.5-1.71-.39-1.26,.22-2.11,1.45-1.9,2.74,.1,.64,.45,1.2,.97,1.56,.39,.28,.85,.42,1.32,.42,.13,0,.26-.01,.39-.03,1.26-.22,2.11-1.45,1.9-2.74-.1-.64-.45-1.19-.96-1.56Zm-1.11,3.32c-.34,.06-.67-.02-.96-.22-.3-.21-.5-.54-.56-.91-.12-.75,.36-1.47,1.08-1.59,.07-.01,.14-.02,.22-.02,.26,0,.52,.08,.74,.24,.3,.21,.5,.54,.56,.91,.12,.75-.36,1.47-1.08,1.59Z" stroke-width="0"/><path d="M23.48,28.18c-.5-.36-1.11-.49-1.71-.39-1.26,.22-2.11,1.45-1.9,2.74,.1,.64,.45,1.19,.96,1.56,.39,.28,.85,.43,1.32,.43,.13,0,.26-.01,.39-.03,1.26-.22,2.11-1.45,1.9-2.74-.1-.64-.45-1.2-.96-1.56Zm-1.1,3.32c-.34,.06-.67-.02-.96-.22-.3-.21-.5-.54-.56-.91-.12-.75,.36-1.47,1.08-1.59,.07-.01,.14-.02,.22-.02,.26,0,.52,.08,.74,.24,.3,.21,.5,.54,.56,.91,.12,.75-.36,1.47-1.08,1.59Z" stroke-width="0"/></svg>