<?xml version="1.0" encoding="UTF-8"?><svg width="70" height="70" xmlns="http://www.w3.org/2000/svg" viewBox="-10 -10 70 70"><rect x="-10" y="-10" width="70" height="70" fill="white"/><g id="uuid-4d53ee79-c0af-4658-89a4-5234e27ef902"><g><path d="M16.96,15.26l.33,.33,2.86,2.86s.05-.03,.07-.04c.31-.22,.63-.41,.96-.58,.06-.03,.11-.06,.17-.09,.34-.16,.68-.31,1.04-.43,.05-.02,.11-.03,.17-.05,.37-.11,.74-.21,1.12-.27,.04,0,.08,0,.12-.02,.4-.06,.8-.1,1.21-.1,4.59,0,8.32,3.73,8.32,8.32,0,.41-.04,.82-.09,1.22,0,.04,0,.08-.01,.11-.06,.38-.15,.75-.27,1.12-.02,.05-.03,.11-.05,.16-.12,.36-.26,.7-.43,1.04-.03,.05-.05,.11-.08,.16-.17,.33-.37,.66-.59,.97-.01,.02-.02,.04-.04,.06l3.2,3.2c1.85-2.28,2.86-5.12,2.86-8.04,0-.51-.04-1.01-.1-1.51-.02-.15-.05-.3-.07-.45-.05-.35-.12-.7-.2-1.04-.04-.15-.08-.31-.12-.46-.1-.36-.22-.71-.35-1.05-.04-.11-.08-.22-.12-.33-.19-.46-.4-.9-.63-1.33l-.02-.03c-.23-.41-.49-.81-.76-1.2-.06-.09-.13-.17-.19-.25-.24-.32-.48-.62-.75-.91-.07-.08-.14-.15-.21-.23-.31-.33-.64-.65-.99-.95-.02-.01-.03-.03-.05-.04-.39-.33-.8-.64-1.23-.93-2.02-1.33-4.44-2.11-7.03-2.11-2.93,0-5.76,1.01-8.04,2.86Z" fill="none" stroke-width="0"/><path d="M9.39,17.58l1.52,1.52c1.68-1.25,3.48-2.27,5.36-3.07l-1.53-1.53c-1.88,.81-3.67,1.84-5.35,3.09Z" fill="none" stroke-width="0"/><path d="M17.87,13.4c-.72,.2-1.42,.44-2.12,.7l.48,.48c.52-.43,1.07-.83,1.64-1.18Z" fill="none" stroke-width="0"/><path d="M4.39,22.48l1.51,1.51c1.24-1.59,2.65-3.02,4.2-4.27l-1.51-1.51c-1.55,1.25-2.96,2.69-4.2,4.27Z" fill="none" stroke-width="0"/><path d="M31.94,27.52c.08-.25,.14-.5,.2-.76,.03-.12,.06-.24,.08-.37,.06-.39,.1-.78,.1-1.18,0-4.04-3.28-7.32-7.32-7.32-.4,0-.79,.04-1.18,.1-.13,.02-.25,.06-.37,.08-.26,.06-.51,.11-.76,.2-.14,.05-.28,.11-.42,.17-.22,.09-.44,.18-.65,.29-.14,.08-.28,.16-.42,.24-.11,.07-.21,.14-.32,.21l10.13,10.13c.07-.11,.15-.21,.21-.32,.08-.14,.17-.28,.24-.42,.11-.21,.2-.43,.29-.65,.06-.14,.12-.28,.17-.42Z" fill="none" stroke-width="0"/><path d="M2.51,25.22c1.29,2.17,2.89,4.12,4.71,5.81-1.21-1.31-2.29-2.75-3.21-4.31,.39-.65,.82-1.29,1.29-1.93l-1.51-1.51c-.46,.64-.89,1.29-1.28,1.94Z" fill="none" stroke-width="0"/><path d="M34.51,16.67c.26,.29,.51,.6,.75,.91-.24-.32-.48-.62-.75-.91Z" fill="#ffcd00" stroke-width="0"/><path d="M38.16,21.06c-.02-.05-.03-.11-.05-.16,.02,.05,.03,.1,.05,.16Z" fill="#ffcd00" stroke-width="0"/><path d="M38.74,23.9c0-.09-.02-.18-.03-.27,.01,.09,.02,.18,.03,.27Z" stroke-width="0"/><path d="M36.23,19.06c.24,.43,.44,.87,.63,1.33-.19-.46-.4-.9-.63-1.33Z" fill="#ffcd00" stroke-width="0"/><path d="M35.45,17.83c.27,.38,.53,.78,.76,1.2-.23-.41-.49-.81-.76-1.2Z" fill="#ffcd00" stroke-width="0"/><path d="M36.27,17.28l-.05-.07,.05,.07Z" fill="#ffcd00" stroke-width="0"/><path d="M37.65,19.71s-.04-.09-.06-.14c.02,.05,.04,.09,.06,.14Z" fill="#ffcd00" stroke-width="0"/><path d="M38.51,22.37c-.01-.05-.03-.1-.04-.15,.01,.05,.03,.1,.04,.15Z" fill="#ffcd00" stroke-width="0"/><path d="M33.32,15.49c.35,.3,.68,.62,.99,.95-.31-.33-.64-.65-.99-.95Z" fill="#ffcd00" stroke-width="0"/><path d="M32.03,14.52c.43,.28,.84,.59,1.23,.93-.39-.33-.8-.64-1.23-.93Z" fill="#ffcd00" stroke-width="0"/><path d="M36.98,20.72c.13,.34,.25,.69,.35,1.05-.1-.36-.22-.71-.35-1.05Z" fill="#ffcd00" stroke-width="0"/><path d="M44.23,20.88c.23,.24,.44,.5,.66,.75-.22-.25-.43-.51-.66-.75Z" stroke-width="0"/><path d="M5.9,23.98l9.71,9.71,3.7,3.7c2.95,.66,5.84,.81,8.9,.43L10.1,19.71c-1.55,1.25-2.96,2.68-4.2,4.27Z" fill="#ffcd00" stroke-width="0"/><path d="M7.22,31.02c2.9,2.69,6.37,4.71,10.18,5.87L7.02,26.52l-1.73-1.73c-.46,.64-.9,1.28-1.29,1.93,.93,1.55,2.01,2.99,3.21,4.31Z" fill="#ffcd00" stroke-width="0"/><path d="M45.98,22.97c.11,.14,.21,.29,.31,.44-.1-.15-.21-.3-.31-.44Z" stroke-width="0"/><path d="M29.35,38.67h0c-1.51,.24-2.93,.36-4.35,.36-2,0-4.04-.23-6.05-.69-.3-.07-.6-.15-.9-.23,.86,.29,1.73,.54,2.62,.75,3.29,.75,6.54,.88,10.02,.32,2.34-.38,4.58-1.07,6.69-2.03l-.74-.74c-2.28,1.08-4.73,1.85-7.29,2.27Z" fill="#ffcd00" stroke-width="0"/><path d="M29.45,37.64c2.25-.39,4.41-1.06,6.44-1.99L16.26,16.02c-1.88,.8-3.68,1.82-5.36,3.07l18.54,18.54Z" fill="#ffcd00" stroke-width="0"/><path d="M37.71,23.71c.06,.49,.1,1,.1,1.51,0-.51-.04-1.01-.1-1.51Z" fill="#ffcd00" stroke-width="0"/><path d="M37.44,22.23c.08,.34,.15,.69,.2,1.04-.05-.35-.12-.69-.2-1.04Z" fill="#ffcd00" stroke-width="0"/><path d="M46.29,23.41c.42,.59,.83,1.19,1.2,1.81-.37-.63-.78-1.23-1.2-1.81Z" stroke-width="0"/><path d="M38.48,22.22c-.09-.39-.19-.78-.31-1.16,.12,.38,.22,.76,.31,1.16Z" stroke-width="0"/><path d="M38.71,23.63c-.05-.42-.11-.84-.2-1.25,.09,.41,.15,.83,.2,1.25Z" stroke-width="0"/><path d="M38.81,25.22c0-.44-.03-.88-.07-1.31,.04,.43,.07,.87,.07,1.31Z" stroke-width="0"/><path d="M44.89,21.63c.37,.44,.74,.88,1.09,1.34-.35-.46-.71-.9-1.09-1.34Z" stroke-width="0"/><path d="M37.33,21.77c.04,.15,.08,.31,.12,.46-.04-.15-.08-.31-.12-.46Z" stroke-width="0"/><path d="M36.86,20.39c.04,.11,.08,.22,.12,.33-.04-.11-.08-.22-.12-.33Z" stroke-width="0"/><path d="M37.65,23.26c.02,.15,.05,.3,.07,.45-.02-.15-.05-.3-.07-.45Z" stroke-width="0"/><path d="M36.21,19.03l.02,.03-.02-.03Z" stroke-width="0"/><path d="M37.59,19.57c-.37-.81-.81-1.58-1.32-2.29,.51,.72,.95,1.48,1.32,2.29Z" stroke-width="0"/><path d="M38.11,20.91c-.14-.41-.29-.81-.46-1.2,.17,.39,.33,.79,.46,1.2Z" stroke-width="0"/><path d="M35.26,17.58c.06,.08,.13,.17,.19,.25-.06-.09-.13-.17-.19-.25Z" stroke-width="0"/><path d="M33.27,15.45s.03,.03,.05,.04c-.02-.01-.03-.03-.05-.04Z" stroke-width="0"/><path d="M34.31,16.44c.07,.07,.14,.15,.21,.23-.07-.08-.14-.15-.21-.23Z" stroke-width="0"/><path d="M48.51,24.97c-4.86-8.37-13.87-13.56-23.51-13.56-3.49,0-6.86,.67-10.02,1.93l-6.71-6.71c-.2-.2-.51-.2-.71,0-.2,.2-.2,.51,0,.71l6.41,6.41c-1.99,.89-3.89,2.02-5.65,3.4-1.87,1.46-3.55,3.17-4.99,5.08-.68,.9-1.3,1.82-1.84,2.75-.09,.16-.09,.35,0,.5,3.63,6.25,9.63,10.81,16.56,12.64,.3,.08,.6,.16,.9,.23,2.01,.46,4.04,.69,6.05,.69,1.42,0,2.84-.12,4.35-.36h0c2.56-.41,5.01-1.18,7.29-2.27l.74,.74,6.24,6.24c.1,.1,.23,.15,.35,.15s.26-.05,.35-.15c.2-.2,.2-.51,0-.71l-6-6-.75-.75c4.41-2.3,8.14-5.81,10.76-10.21,.05-.09,.11-.17,.16-.25,.09-.16,.09-.35,0-.5Zm-16.48-10.45c.43,.28,.84,.59,1.23,.93,.02,.01,.03,.03,.05,.04,.35,.3,.68,.62,.99,.95,.07,.07,.14,.15,.21,.23,.26,.29,.51,.6,.75,.91,.06,.08,.13,.17,.19,.25,.27,.38,.53,.78,.76,1.2l.02,.03c.24,.43,.44,.87,.63,1.33,.04,.11,.08,.22,.12,.33,.13,.34,.25,.69,.35,1.05,.04,.15,.08,.31,.12,.46,.08,.34,.15,.69,.2,1.04,.02,.15,.05,.3,.07,.45,.06,.49,.1,1,.1,1.51,0,2.93-1.01,5.76-2.86,8.04l-3.2-3.2s.02-.04,.04-.06c.22-.31,.42-.64,.59-.97,.03-.05,.06-.11,.08-.16,.17-.34,.31-.68,.43-1.04,.02-.05,.03-.11,.05-.16,.11-.37,.2-.74,.27-1.12,0-.04,0-.08,.01-.11,.06-.4,.09-.81,.09-1.22,0-4.59-3.73-8.32-8.32-8.32-.41,0-.81,.04-1.21,.1-.04,0-.08,0-.12,.02-.38,.06-.75,.15-1.12,.27-.06,.02-.11,.03-.17,.05-.36,.12-.7,.26-1.04,.43-.06,.03-.11,.06-.17,.09-.33,.17-.65,.37-.96,.58-.02,.02-.05,.03-.07,.04l-2.86-2.86-.33-.33c2.28-1.85,5.12-2.86,8.04-2.86,2.6,0,5.01,.78,7.03,2.11Zm-.55,14.07c-.08,.14-.16,.28-.24,.42-.07,.11-.14,.21-.21,.32l-10.13-10.13c.11-.07,.21-.15,.32-.21,.14-.08,.28-.17,.42-.24,.21-.11,.43-.2,.65-.29,.14-.06,.28-.12,.42-.17,.25-.08,.5-.14,.76-.2,.12-.03,.24-.06,.37-.08,.39-.06,.78-.1,1.18-.1,4.04,0,7.32,3.28,7.32,7.32,0,.4-.04,.79-.1,1.18-.02,.12-.06,.24-.08,.37-.06,.26-.11,.51-.2,.76-.05,.14-.11,.28-.17,.42-.09,.22-.18,.44-.29,.65Zm-13.61-15.19c-.57,.35-1.12,.75-1.64,1.18l-.48-.48c.7-.26,1.4-.5,2.12-.7ZM7.22,31.02c-1.82-1.69-3.42-3.64-4.71-5.81,.39-.65,.82-1.3,1.28-1.94l1.51,1.51,1.73,1.73,10.37,10.37c-3.8-1.16-7.28-3.18-10.18-5.87Zm12.1,6.38l-3.7-3.7L5.9,23.98l-1.51-1.51c1.24-1.59,2.65-3.02,4.2-4.27l1.51,1.51,18.11,18.11c-3.06,.39-5.95,.23-8.9-.43Zm10.13,.24L10.9,19.1l-1.52-1.52c1.68-1.25,3.47-2.28,5.35-3.09l1.53,1.53,19.62,19.62c-2.03,.93-4.19,1.61-6.44,1.99Zm7.39-2.45l-1.2-1.2c2.04-2.47,3.17-5.57,3.17-8.77,0-.44-.03-.88-.07-1.31,0-.09-.02-.18-.03-.27-.05-.42-.11-.84-.2-1.25-.01-.05-.03-.1-.04-.15-.09-.39-.19-.78-.31-1.16-.02-.05-.03-.11-.05-.16-.14-.41-.29-.81-.46-1.2-.02-.05-.04-.09-.06-.14-.37-.81-.81-1.58-1.32-2.29l-.05-.07c-.27-.37-.55-.73-.86-1.07-.2-.22-.41-.43-.62-.64-.11-.11-.21-.22-.32-.33h0c-.7-.66-1.47-1.25-2.29-1.75,4.62,1.32,8.81,3.91,12.09,7.46h0c.23,.24,.44,.5,.66,.75,.37,.43,.74,.88,1.09,1.34,.11,.14,.21,.29,.31,.44,.42,.59,.83,1.18,1.2,1.81-2.58,4.33-6.29,7.75-10.65,9.97Z" stroke-width="0"/></g></g><g id="uuid-3231539d-a11a-4bbc-8bd7-045d3fba6ced"></g></svg>