<?xml version="1.0" encoding="UTF-8"?><svg width="70" height="70" xmlns="http://www.w3.org/2000/svg" viewBox="-10 -10 70 70"><rect x="-10" y="-10" width="70" height="70" fill="white"/><g id="uuid-816f59fa-fb5b-4211-8d02-99629adbe490"><g><path d="M37.17,4.98h0l-.15-.05c-.48-.15-1-.1-1.45,.14-.46,.25-.8,.66-.96,1.18l-1.59,5.29c-.04,.13-.13,.24-.26,.31l-4.94,2.42c-.07,.03-.14,.05-.22,.05h-8.16c-1.89,.26-3.3,1.59-3.34,1.62h0c-1.67,1.6-1.87,3.78-1.89,4.41,.01,.86,0,2.45,0,3.03v6.09c0,1.01,.8,1.84,1.79,1.84s1.79-.82,1.79-1.84c0-.28,.22-.5,.5-.5s.5,.22,.5,.5v16.47c0,1.09,.86,1.98,1.93,1.98h.35c1.06,0,1.93-.89,1.93-1.98,0-.28,.22-.5,.5-.5s.5,.22,.5,.5c0,1.09,.87,1.98,1.93,1.98h.26c1.06,0,1.93-.89,1.93-1.98V19.62c0-.18,.09-.34,.25-.43l6.85-4.04s.1-.06,.13-.08c.58-.21,1.02-.68,1.2-1.28l1.9-6.34c.31-1.05-.26-2.16-1.28-2.48Z" fill="#ffcd00" stroke-width="0"/><path d="M35.72,2.28l-.15-.05c-.74-.23-1.53-.16-2.22,.21-.7,.37-1.22,1-1.45,1.77l-1.52,5.08-4.64,2.27h-6.89l-1.09-.02-.21,.03c-2.23,.32-3.82,1.84-3.89,1.9-1.94,1.85-2.17,4.37-2.19,5.12,.01,.88,0,2.46,0,3.03v6.09c0,1.56,1.25,2.84,2.79,2.84,.68,0,1.3-.25,1.79-.66v14.29c0,1.64,1.31,2.98,2.93,2.98h.35c1.01,0,1.9-.52,2.43-1.32,.53,.79,1.42,1.32,2.43,1.32h.26c1.61,0,2.93-1.34,2.93-2.98V18.16l6.59-3.88s.03-.02,.05-.03c.85-.33,1.49-1.02,1.75-1.91l1.9-6.34c.47-1.57-.4-3.24-1.94-3.72Zm.98,3.43l-1.9,6.34c-.18,.6-.62,1.06-1.2,1.28-.03,.01-.11,.06-.13,.08l-6.85,4.04c-.15,.09-.25,.25-.25,.43v26.3c0,1.09-.87,1.98-1.93,1.98h-.26c-1.02,0-1.85-.82-1.92-1.85v-14.44c0-.28-.22-.5-.5-.5s-.5,.22-.5,.5v14.25s-.01,.04-.01,.06c0,1.09-.87,1.98-1.93,1.98h-.35c-1.06,0-1.93-.89-1.93-1.98V18.6c0-.28-.22-.5-.5-.5s-.5,.22-.5,.5v9.11c0,1.01-.8,1.84-1.79,1.84s-1.79-.82-1.79-1.84v-6.09c0-.58,.01-2.17,0-3.03,.02-.63,.22-2.81,1.89-4.41,.01-.01,1.44-1.36,3.37-1.64h8.13c.08,0,.15,0,.22-.04l4.94-2.42c.12-.06,.22-.17,.26-.31l1.59-5.29c.15-.51,.49-.93,.96-1.18,.45-.24,.96-.29,1.45-.14l.15,.05c1.02,.32,1.59,1.43,1.28,2.48Z" stroke-width="0"/></g><path d="M21.29,1.26c-2.48,0-4.51,2.06-4.51,4.59s2.02,4.59,4.51,4.59,4.51-2.06,4.51-4.59-2.02-4.59-4.51-4.59Zm0,8.18c-1.93,0-3.51-1.61-3.51-3.59s1.57-3.59,3.51-3.59,3.51,1.61,3.51,3.59-1.57,3.59-3.51,3.59Z" stroke-width="0"/></g><g id="uuid-abf3057f-858e-4f12-a6e6-cb318722dc15"></g></svg>