<?xml version="1.0" encoding="UTF-8"?><svg width="70" height="70" id="uuid-55eb8ee9-6a29-40d6-a81d-0b8be6a9b5f8" xmlns="http://www.w3.org/2000/svg" viewBox="-10 -10 70 70"><rect x="-10" y="-10" width="70" height="70" fill="white"/><path d="M43.72,13.34h-11.16c-2.28,0-4.16,1.73-4.44,3.94l-.05,7.9v1.91c0,2.48,2.01,4.5,4.49,4.5h.92c1.73,0,3.45-.42,4.99-1.23l.96-.5c.83-.43,1.7-.76,2.61-.99,.33-.08,.67-.13,1.01-.19,.22-.03,.44-.07,.66-.09-.41-5.13-.41-10.26,.01-15.25Z" fill="#ffcd00" stroke-width="0"/><path d="M47.98,14.63c1.64,4.18,1.64,8.43-.01,12.61-.22,.58-.71,1.01-1.29,1.19-.4-5.05-.39-10.09,.02-14.99,.57,.18,1.05,.61,1.28,1.19Z" fill="#ffcd00" stroke-width="0"/><path d="M19.03,21.01c-1.07,0-2.1,.46-2.9,1.29-.52,.54-.87,1.19-1.08,1.88H6.3v-5.88h26.64c.81,1.98,.81,3.9,0,5.88h-9.94c-.55-1.84-2.11-3.17-3.97-3.17Z" fill="#ffcd00" stroke-width="0"/><g><path d="M31.38,26.16c.89,0,1.62,.72,1.62,1.61s-.73,1.61-1.62,1.61-1.61-.72-1.61-1.61,.73-1.61,1.61-1.61Zm0,2.22c.34,0,.62-.27,.62-.61s-.28-.61-.62-.61-.61,.27-.61,.61,.28,.61,.61,.61Z" stroke-width="0"/><path d="M17.17,23.93c-.1,.2-.18,.43-.21,.69-.03,.27,0,.56,.08,.83,.08,.26-.06,.54-.33,.63-.26,.08-.54-.07-.62-.33-.13-.4-.17-.83-.13-1.24,.03-.21,.07-.4,.13-.58,.08-.24,.17-.46,.3-.66,.08-.12,.17-.23,.28-.34,.52-.56,1.31-.93,2.14-.59,.32,.14,.57,.35,.76,.59,.31,.38,.47,.8,.52,1,.01,.03,.02,.06,.02,.07,.07,.36,.09,.69,.07,1.01,0,0-.01,.19-.03,.38-.08,.58-.37,1.48-.55,2,.1-.03,.2-.03,.3,0,.26,.1,.4,.37,.31,.63-.1,.27-.29,.48-.52,.59-.11,.05-.23,.07-.34,.07-.09,0-.18-.02-.27-.05-.21-.08-.38-.26-.48-.49-.13-.29-.12-.62,0-.91,.22-.63,.49-1.51,.56-1.98,.01-.14,.02-.28,.02-.29,.02-.25,0-.5-.04-.75-.02-.07-.06-.17-.12-.28-.11-.25-.31-.54-.59-.66-.53-.22-1.02,.26-1.2,.55-.02,.03-.04,.07-.06,.11Z" stroke-width="0"/><path d="M46.72,25.99c1.65-4.18,1.65-8.43,.01-12.61-.23-.58-.71-1.01-1.28-1.19-.41,4.9-.42,9.94-.02,14.99,.58-.18,1.07-.61,1.29-1.19Zm-2.27-13.9h-.98c-.42,4.97-.42,10.08-.01,15.19,.05,0,.11-.01,.17-.01h.8c-.4-5.11-.4-10.21,.02-15.18Zm-17.58,3.96h5.15c.2,0,.38,.12,.46,.3,1.09,2.41,1.09,4.87,0,7.28-.08,.18-.26,.3-.46,.3h-5.2v1.91c0,2.48,2.01,4.5,4.49,4.5h.92c1.73,0,3.45-.42,4.99-1.23l.96-.5c.83-.43,1.7-.76,2.61-.99,.33-.08,.67-.13,1.01-.19,.22-.03,.44-.07,.66-.09-.41-5.13-.41-10.26,.01-15.25h-11.16c-2.29,0-4.17,1.74-4.44,3.96Zm-1.05,1H5.05v5.88H13.8c.21-.69,.56-1.34,1.08-1.88,.8-.83,1.83-1.29,2.9-1.29,1.86,0,3.42,1.33,3.97,3.17h9.94c.81-1.98,.81-3.9,0-5.88h-5.87ZM18.26,3.15c-8.41,2.01-11.31,7.32-12.22,12.9H25.84c.27-2.78,2.62-4.96,5.47-4.96h7.4C34.18,3.79,24.27,1.71,18.26,3.15ZM9.33,48.2c-.13,.21-.24,.37-.29,.5-.08,.19-.27,.3-.46,.3-.07,0-.13-.01-.2-.04-.25-.11-.37-.4-.26-.66,.07-.16,.2-.37,.37-.63,.8-1.26,2.46-3.87,1.35-9.6-.58-3.02-1.6-5.04-2.59-7-1.06-2.11-2.07-4.14-2.42-7.14h-.28c-.28,0-.5-.23-.5-.5v-6.88c0-.27,.22-.5,.5-.5h.5c.92-5.79,3.95-11.71,12.97-13.87C27.38-.06,36.23,4.88,39.86,11.09h4.99c1.23,0,2.36,.77,2.81,1.92,1.74,4.43,1.74,8.92-.01,13.35-.42,1.08-1.45,1.81-2.59,1.89-.02,.01-.03,.02-.05,.02h-.04s-.03,0-.04-.01c-.03,.01-.05,.01-.08,.01h-1.22c-.47,0-.94,.04-1.41,.1,.68,1.44,1.3,2.57,1.31,2.6,.06,.12,.08,.26,.04,.39-.04,.12-.13,.23-.25,.29l-3.91,2.03c-1.05,3.31-1.78,5.65-2.27,7.24-.38,1.23-.62,2.03-1.4,2.57-1.85,1.29-4.88-.19-6.93-1.52v6.13c0,.27-.22,.5-.5,.5s-.5-.23-.5-.5v-7.07c0-.19,.11-.36,.27-.45,.17-.08,.37-.07,.52,.04,1.11,.78,4.86,3.24,6.57,2.05,.47-.33,.65-.86,1.01-2.02,.51-1.65,1.25-4.05,2.33-7.47,.04-.12,.13-.23,.25-.29l3.65-1.89c-.27-.51-.73-1.41-1.2-2.44-.89,.2-1.76,.51-2.57,.94l-.96,.5c-1.67,.88-3.56,1.34-5.45,1.34h-.92c-3.03,0-5.49-2.46-5.49-5.5v-1.91h-3.88c.01,.14,.04,.27,.04,.42,0,.27-.22,.5-.5,.5s-.5-.23-.5-.5c0-.15-.02-.28-.04-.42-.03-.35-.1-.69-.22-1-.49-1.28-1.62-2.17-2.94-2.17-.8,0-1.57,.35-2.18,.98-.34,.35-.59,.75-.76,1.19-.13,.32-.2,.66-.23,1-.01,.13-.03,.26-.02,.4,.07,1.88,1.8,2.91,1.82,2.92,.21,.15,.36,.31,.48,.49,.21,.32,.27,.65,.29,.87,.09,.95,.8,1.72,1.62,1.73,.36-.02,.68-.13,.96-.41,.5-.49,.71-1.23,.71-1.5s.23-.5,.5-.5,.5,.23,.5,.5c0,.59-.35,1.56-1.01,2.21-.46,.46-1.03,.7-1.64,.7h-.03c-1.35-.02-2.47-1.16-2.61-2.64-.01-.12-.04-.27-.13-.42-.05-.07-.11-.14-.19-.19-.05-.03-2.18-1.3-2.27-3.72-.01-.15,.02-.3,.03-.44H5.83c.36,2.78,1.31,4.7,2.32,6.69,1.02,2.02,2.07,4.11,2.68,7.26,1.17,6.12-.63,8.96-1.5,10.32Z" stroke-width="0"/></g></svg>