<?xml version="1.0" encoding="utf-8"?> <!-- Generator: Adobe Illustrator 27.7.0, SVG Export Plug-In . SVG Version: 6.00 Build 0) --> <svg width="70" height="70" version="1.1" xmlns="http://www.w3.org/2000/svg" xmlns:xlink="http://www.w3.org/1999/xlink" x="0px" y="0px" viewBox="-10 -10 70 70" style="enable-background:new 0 0 50 50;" xml:space="preserve"><rect x="-10" y="-10" width="70" height="70" fill="white"/> <style type="text/css"> .st0{fill:#FFCD00;} .st1{display:none;} .st2{display:inline;fill:none;stroke:#EA008A;stroke-width:0.2;stroke-miterlimit:10;} .st3{font-family:'Roboto-Regular';} .st4{font-size:6px;} </style> <g id="Color"> <path class="st0" d="M3.8096,21.6616v10.7192h2.4799c1.0189-0.6301,2.2158-1,3.5018-1s2.4828,0.3699,3.5018,1h16.2374 c1.0189-0.6301,2.2158-1,3.5018-1s2.4828,0.3699,3.5018,1h5.4797V21.6616H3.8096z" stroke-width="0"/> </g> <g id="ICONS_00000031165542127692736420000002692518830807990202_"> <g> <path d="M33.0317,40.8584c1.3701,0,2.7812-0.958,2.8281-2.7896c0-0.0083,0-0.0171,0-0.0254 c-0.0928-3.6616-5.5625-3.688-5.6553,0.0254C30.251,39.8999,31.6616,40.8579,33.0317,40.8584z M33.0317,36.2544 c0.8843-0.0005,1.7905,0.5571,1.8281,1.8018c-0.0381,1.2451-0.9438,1.8022-1.8276,1.8022c-0.0005,0-0.0005,0-0.0005,0 c-0.8867,0-1.7959-0.5615-1.8271-1.7896C31.2363,36.8154,32.145,36.2544,33.0317,36.2544z" stroke-width="0"/> <path d="M9.7915,40.8584c1.3701,0,2.7808-0.9585,2.8271-2.8149c-0.0928-3.6631-5.562-3.6621-5.6548,0c0,0.0083,0,0.0171,0,0.0254 C7.0103,39.9004,8.4214,40.8584,9.7915,40.8584z M9.791,36.2544c0.8872-0.0005,1.7959,0.5605,1.8276,1.7891 c-0.0312,1.2534-0.9404,1.8149-1.8271,1.8149c-0.8838,0-1.79-0.5576-1.8276-1.8022C8.0015,36.8115,8.9072,36.2544,9.791,36.2544z" stroke-width="0" /> <path d="M48.6636,31.2192l-6.8862-20.1644l2.9888-1.0206c0.1255-0.043,0.229-0.1338,0.2871-0.2529 c0.0586-0.1191,0.0674-0.2563,0.0244-0.3818l-1.4858-4.3506c-0.0894-0.2617-0.373-0.3994-0.6348-0.3115l-6.9233,2.3643 c-0.1255,0.043-0.229,0.1338-0.2871,0.2529c-0.0586,0.1191-0.0674,0.2563-0.0244,0.3818l1.4858,4.3506 c0.0708,0.208,0.2651,0.3384,0.4731,0.3384c0.0537,0,0.1079-0.0088,0.1616-0.0269l2.9883-1.0204l6.6602,19.5029h-5.9775V19.6616 c0-0.2764-0.2236-0.5-0.5-0.5H1.8096c-0.2764,0-0.5,0.2236-0.5,0.5v11.7192c0,0.2764,0.2236,0.5,0.5,0.5h4.3458 c-2.1143,1.2497-3.5397,3.5464-3.5397,6.1753c0,3.9565,3.2188,7.1758,7.1753,7.1758s7.1758-3.2192,7.1758-7.1758 c0-2.6289-1.4256-4.9256-3.54-6.1753h15.9698c-2.1143,1.2497-3.5397,3.5464-3.5397,6.1753c0,3.9565,3.2188,7.1758,7.1753,7.1758 s7.1753-3.2192,7.1753-7.1758c0-2.6289-1.4254-4.9256-3.5397-6.1753h4.3458h7.1768c0.1611,0,0.313-0.0776,0.4067-0.209 S48.7158,31.3721,48.6636,31.2192z M36.8301,7.8862l5.9771-2.041l1.1626,3.4043L40.9813,10.27 c-0.0001,0.0001-0.0002,0-0.0004,0.0001s-0.0002,0.0001-0.0004,0.0002l-2.9879,1.0203L36.8301,7.8862z M40.5137,20.1616v2.2671 H2.3096v-2.2671H40.5137z M15.9668,38.0562c0,3.4053-2.7705,6.1758-6.1758,6.1758s-6.1753-2.7705-6.1753-6.1758 s2.77-6.1753,6.1753-6.1753S15.9668,34.6509,15.9668,38.0562z M39.2075,38.0562c0,3.4053-2.77,6.1758-6.1753,6.1758 s-6.1753-2.7705-6.1753-6.1758s2.77-6.1753,6.1753-6.1753S39.2075,34.6509,39.2075,38.0562z M2.3096,30.8809v-7.4521h38.2041 v7.4521H2.3096z" stroke-width="0"/> </g> </g> <g id="Margin" class="st1"> <rect x="1" y="1" class="st2" /> </g> <g id="Guides" class="st1"> </g> <g id="LABELS"> <g> <g> <g> <g> </g> </g> </g> </g> </g> </svg> 