<?xml version="1.0" encoding="UTF-8"?><svg width="70" height="70" xmlns="http://www.w3.org/2000/svg" viewBox="-10 -10 70 70"><rect x="-10" y="-10" width="70" height="70" fill="white"/><g id="uuid-ab8ca854-aa34-47aa-a24c-c476c4f63185"><g><path d="M38.47,20.03h-4.6c-.14,0-.27-.06-.37-.16-2.16-2.31-3.77-3.91-4.5-4.57-.2-.18-.61-.56-1.24-.86,0,0-.49-.23-1.08-.38-1.64-.4-4.48-.1-4.8-.06-.16,.02-.38,.06-.64,.13-.03,0-.29,.08-.58,.2-.55,.23-1.23,.65-1.92,1.18-.39,.3-.77,.63-1.12,.97,0,0-2.3,2.18-3.91,3.73-.13,.13-.23,.29-.3,.48-.1,.23-.15,.4-.16,.57l-.51,6.12c-.08,.99,.66,1.87,1.65,1.95,1,.08,1.87-.66,1.96-1.65l.44-5.23c0-.12,.06-.23,.15-.32l1.9-1.83c.15-.14,.36-.18,.54-.1,.18,.08,.3,.26,.3,.46v10.66c0,.09,0,.15-2.35,8.42-.02,.07-.05,.13-.1,.18l-4.34,5.2c-.64,.77-.54,1.91,.23,2.55,.77,.64,1.91,.54,2.55-.23l4.71-5.64c.13-.16,.22-.35,.27-.57,0-.03,.04-.11,.05-.15l2.56-8.67s.02-.13,.02-.14c.04-.24,.25-.41,.49-.41h.61c.23,0,.43,.15,.48,.37,.03,.1,.06,.19,.1,.27l3.98,7.85c.03,.06,.05,.13,.05,.19l.44,6.82c.06,1,.92,1.75,1.92,1.69,1-.06,1.75-.93,1.69-1.92l-.48-7.46c-.01-.23-.09-.44-.23-.63-.03-.04-.06-.11-.08-.16-1.11-2.17-4.07-7.99-4.19-8.2-.04-.07-.07-.16-.07-.25v-9.74c0-.2,.12-.38,.31-.46,.19-.08,.4-.03,.54,.11l2.75,2.75c.35,.37,.74,.54,1.17,.54h5.68c1,0,1.81-.81,1.81-1.81s-.81-1.81-1.81-1.81Z" fill="#ffcd00" stroke-width="0"/><path d="M36.72,17.28h-4.38c-2.11-2.25-3.68-3.81-4.4-4.46-.35-.32-.81-.7-1.47-1.02-.02-.01-.58-.28-1.28-.45-1.81-.44-4.81-.12-5.15-.08-.2,.03-.48,.07-.79,.16-.03,0-.35,.1-.69,.24-.8,.33-1.61,.9-2.14,1.31-.42,.32-.82,.68-1.2,1.04,0,0-2.3,2.18-3.91,3.73-.25,.24-.43,.53-.54,.83-.13,.29-.21,.57-.23,.86l-.51,6.12c-.13,1.54,1.02,2.91,2.57,3.03,1.54,.13,2.9-1.02,3.03-2.57l.42-5.05,.92-.88v9.39c-.05,.26-1.39,4.97-2.29,8.14l-4.27,5.11c-.99,1.19-.83,2.96,.35,3.96,1.19,.99,2.97,.83,3.96-.35l4.71-5.64c.23-.28,.4-.61,.47-.94,0-.02,.04-.1,.05-.12l2.45-8.33,3.89,7.68,.43,6.72c.1,1.49,1.33,2.63,2.8,2.63,.06,0,.12,0,.18,0,1.55-.1,2.72-1.44,2.63-2.98l-.48-7.46c-.03-.4-.16-.79-.4-1.13h0c-3.13-6.15-3.94-7.74-4.17-8.17v-8.41l1.92,1.91c.48,.52,1.15,.82,1.85,.82h5.68c1.55,0,2.81-1.26,2.81-2.81s-1.26-2.81-2.81-2.81Zm0,4.62h-5.68c-.42,0-.82-.18-1.17-.54l-2.75-2.75c-.14-.14-.36-.19-.54-.11-.19,.08-.31,.26-.31,.46v9.74c0,.08,.03,.17,.07,.25,.12,.22,3.08,6.03,4.19,8.2,.02,.05,.05,.12,.08,.16,.14,.19,.21,.4,.23,.63l.48,7.46c.06,1-.7,1.86-1.69,1.92-1,.06-1.86-.7-1.92-1.69l-.44-6.82c0-.07-.02-.13-.05-.19l-3.98-7.85c-.04-.08-.07-.17-.1-.27-.06-.22-.26-.37-.48-.37h-.61c-.24,0-.45,.17-.49,.41,0,0-.02,.13-.02,.14l-2.56,8.67s-.05,.11-.05,.15c-.05,.22-.14,.41-.27,.57l-4.71,5.64c-.64,.77-1.78,.87-2.55,.23-.77-.64-.87-1.78-.23-2.55l4.34-5.2c.04-.05,.08-.12,.1-.18,2.35-8.27,2.35-8.33,2.35-8.42v-10.66c0-.2-.12-.38-.3-.46-.18-.08-.4-.04-.54,.1l-1.9,1.83c-.09,.08-.14,.2-.15,.32l-.44,5.23c-.08,.99-.96,1.73-1.96,1.65-.99-.08-1.74-.96-1.65-1.95l.51-6.12c.01-.17,.06-.34,.16-.57,.07-.19,.17-.35,.3-.48,1.61-1.54,3.91-3.72,3.91-3.73,.35-.34,.73-.67,1.12-.97,.69-.53,1.37-.95,1.92-1.18,.29-.12,.55-.19,.58-.2,.26-.07,.49-.11,.64-.13,.32-.04,3.16-.34,4.8,.06,.59,.14,1.08,.38,1.08,.38,.63,.31,1.04,.68,1.24,.86,.72,.66,2.33,2.25,4.5,4.57,.09,.1,.23,.16,.37,.16h4.6c1,0,1.81,.81,1.81,1.81s-.81,1.81-1.81,1.81Z" stroke-width="0"/><path d="M21.97,9.79c2.44,0,4.43-1.99,4.43-4.43S24.41,.92,21.97,.92s-4.43,1.99-4.43,4.43,1.99,4.43,4.43,4.43Zm3.43-4.43c0,1.89-1.54,3.43-3.43,3.43s-3.43-1.54-3.43-3.43,1.54-3.43,3.43-3.43,3.43,1.54,3.43,3.43Z" stroke-width="0"/></g></g><g id="uuid-74f8ac3f-6cd3-40ee-a232-2de8b0eeeda8"></g></svg>