<?xml version="1.0" encoding="utf-8"?> <!-- Generator: Adobe Illustrator 27.7.0, SVG Export Plug-In . SVG Version: 6.00 Build 0) --> <svg width="70" height="70" version="1.1" xmlns="http://www.w3.org/2000/svg" xmlns:xlink="http://www.w3.org/1999/xlink" x="0px" y="0px" viewBox="-10 -10 70 70" style="enable-background:new 0 0 50 50;" xml:space="preserve"><rect x="-10" y="-10" width="70" height="70" fill="white"/> <style type="text/css"> .st0{fill:#FFCD00;} .st1{display:none;} .st2{display:inline;fill:none;stroke:#EA008A;stroke-width:0.2;stroke-miterlimit:10;} .st3{font-family:'Roboto-Regular';} .st4{font-size:6px;} </style> <g id="Color"> <path class="st0" d="M16.4331,15.4769l-0.4218-8.3182c-0.0269-0.5684-0.4927-1.0127-1.0605-1.0127s-1.0342,0.4443-1.061,1.0107 l-0.4462,8.8795C14.3811,15.7941,15.4308,15.5844,16.4331,15.4769z" stroke-width="0"/> <g> <path class="st0" d="M33.2924,12.4299l-0.4198-8.2791c-0.0269-0.5693-0.4932-1.0137-1.061-1.0137s-1.0337,0.4443-1.0605,1.0117 l-0.4467,8.8868C31.2092,12.792,32.2861,12.5546,33.2924,12.4299z" stroke-width="0"/> <path class="st0" d="M30.0287,15.2459c-1.5203,0.5941-2.5449,1.3164-2.6953,1.9749l0.9366,0.4586l0.613,0.8287v0.5853 c-1.6611-1.1001-5.102-2.0817-8.7014-2.0817c-5.0176,0-9.7417,1.9072-9.7417,3.3848v15.0312c0,0.6465,0.5879,1.1719,1.311,1.1719 c0.2764,0,0.5,0.2236,0.5,0.5l0.0005,10.4307c0,1.0918,0.98,1.9795,2.1846,1.9795h11.4917c1.2046,0,2.1846-0.8877,2.1846-1.9795 v-3.1622l1.1454,1.1453h0.1595c0.3793,0.5875,1.0757,0.9875,1.8801,0.9875h11.4912c1.2051,0,2.1851-0.8877,2.1851-1.9785V34.0918 c0-0.2764,0.2236-0.5,0.5-0.5c0.7231,0,1.3115-0.5264,1.3115-1.1729V17.3877c0-1.4775-4.7241-3.3848-9.7422-3.3848 c-1.3096,0-2.5948,0.133-3.7842,0.3512C32.3087,14.5067,30.9718,14.9209,30.0287,15.2459z M23.3926,32.6494 c-0.543,0-0.9849-0.4424-0.9849-0.9854s0.4419-0.9854,0.9849-0.9854c0.5435,0,0.9854,0.4424,0.9854,0.9854 S23.936,32.6494,23.3926,32.6494z M25.3994,26.374c0,0.2998-0.2827,0.5439-0.6304,0.5439H12.5947 c-0.3477,0-0.6304-0.2441-0.6304-0.5439v-6.3789c0.9258-0.4082,3.7637-1.1377,6.7178-1.1377c2.9546,0,5.792,0.7295,6.7173,1.1377 V26.374z M40.2539,29.6406c-0.543,0-0.9849-0.4424-0.9849-0.9854s0.4419-0.9844,0.9849-0.9844s0.9849,0.4414,0.9849,0.9844 S40.7969,29.6406,40.2539,29.6406z M42.0132,23.3652c0,0.2998-0.2827,0.5439-0.6304,0.5439H29.9512 c-0.2156,0-0.4117-0.1014-0.5273-0.2585v-4.7542c0-0.3639-0.1312-0.7123-0.3506-1.0458v-0.8693 c0.9512-0.4443,3.6548-1.1328,6.4697-1.1328c2.8145,0,5.5186,0.6885,6.4702,1.1328V23.3652z" stroke-width="0"/> </g> </g> <g id="ICONS_00000031165542127692736420000002692518830807990202_"> <g> <path d="M23.3926,29.6787c-1.0942,0-1.9849,0.8906-1.9849,1.9854s0.8906,1.9854,1.9849,1.9854 c1.0947,0,1.9854-0.8906,1.9854-1.9854S24.4873,29.6787,23.3926,29.6787z M23.3926,32.6494c-0.543,0-0.9849-0.4424-0.9849-0.9854 s0.4419-0.9854,0.9849-0.9854c0.5435,0,0.9854,0.4424,0.9854,0.9854S23.936,32.6494,23.3926,32.6494z" stroke-width="0"/> <path d="M18.6816,34.3467c-3.3062,0-5.9961,2.6895-5.9961,5.9961s2.6899,5.9961,5.9961,5.9961 c3.3066,0,5.9966-2.6895,5.9966-5.9961S21.9883,34.3467,18.6816,34.3467z M18.6816,45.3389c-2.7549,0-4.9961-2.2412-4.9961-4.9961 s2.2412-4.9961,4.9961-4.9961s4.9966,2.2412,4.9966,4.9961S21.4365,45.3389,18.6816,45.3389z" stroke-width="0"/> <path d="M20.6753,41.5605H16.688c-0.2764,0-0.5,0.2236-0.5,0.5s0.2236,0.5,0.5,0.5h3.9873c0.2764,0,0.5-0.2236,0.5-0.5 S20.9517,41.5605,20.6753,41.5605z" stroke-width="0"/> <path d="M20.6753,38.124H16.688c-0.2764,0-0.5,0.2236-0.5,0.5s0.2236,0.5,0.5,0.5h3.9873c0.2764,0,0.5-0.2236,0.5-0.5 S20.9517,38.124,20.6753,38.124z" stroke-width="0"/> <path d="M18.6821,17.8574c-3.2002,0-6.6284,0.8535-7.4912,1.417c-0.1416,0.0928-0.2266,0.25-0.2266,0.4189v6.6807 c0,0.8516,0.7314,1.5439,1.6304,1.5439H24.769c0.8989,0,1.6304-0.6924,1.6304-1.5439v-6.6807c0-0.1689-0.085-0.3262-0.2261-0.418 C25.3105,18.7109,21.8833,17.8574,18.6821,17.8574z M25.3994,26.374c0,0.2998-0.2827,0.5439-0.6304,0.5439H12.5947 c-0.3477,0-0.6304-0.2441-0.6304-0.5439v-6.3789c0.9258-0.4082,3.7637-1.1377,6.7178-1.1377c2.9546,0,5.792,0.7295,6.7173,1.1377 V26.374z" stroke-width="0"/> <path d="M40.2539,26.6709c-1.0942,0-1.9849,0.8906-1.9849,1.9844c0,1.0947,0.8906,1.9854,1.9849,1.9854 s1.9849-0.8906,1.9849-1.9854C42.2388,27.5615,41.3481,26.6709,40.2539,26.6709z M40.2539,29.6406 c-0.543,0-0.9849-0.4424-0.9849-0.9854s0.4419-0.9844,0.9849-0.9844s0.9849,0.4414,0.9849,0.9844S40.7969,29.6406,40.2539,29.6406 z" stroke-width="0"/> <path d="M35.543,31.3379c-3.3062,0-5.9961,2.6895-5.9961,5.9961s2.6899,5.9961,5.9961,5.9961s5.9961-2.6895,5.9961-5.9961 S38.8491,31.3379,35.543,31.3379z M35.543,42.3301c-2.7549,0-4.9961-2.2412-4.9961-4.9961s2.2412-4.9961,4.9961-4.9961 s4.9961,2.2412,4.9961,4.9961S38.2979,42.3301,35.543,42.3301z" stroke-width="0"/> <path d="M35.543,11.5029c-0.7055,0-1.4219,0.0398-2.1337,0.109l-0.4357-8.5895c-0.0522-1.1016-0.957-1.9648-2.0601-1.9648 c-1.1025,0-2.0073,0.8633-2.0596,1.9629l-0.4876,9.7002c-1.8298,0.6832-3.1737,1.612-3.4907,2.6818 c-1.868-0.5616-4.0806-0.8908-6.194-0.8908c-0.7055,0-1.4219,0.0398-2.1337,0.109l-0.4357-8.5905 c-0.0522-1.1016-0.957-1.9639-2.0596-1.9639c-1.103,0-2.0078,0.8623-2.0601,1.9619l-0.4876,9.7012 c-2.1016,0.7846-3.5651,1.8932-3.5651,3.167v2.2949H6.8052c-1.0898,0-1.9766,0.8867-1.9766,1.9766v4.3369 c0,1.0898,0.8867,1.9766,1.9766,1.9766h1.1348v4.4463c0,1.0361,0.7764,1.9053,1.8115,2.1211v9.9814 c0,1.6426,1.4287,2.9795,3.1846,2.9795h11.4917c1.7559,0,3.1846-1.3369,3.1846-2.9795v-0.8516 c0.5712,0.5063,1.3376,0.8223,2.1851,0.8223h11.4912c1.7563,0,3.1851-1.3359,3.1851-2.9785V33.041 c1.0352-0.2158,1.8115-1.085,1.8115-2.1221V15.8877C46.2852,13.3779,40.6138,11.5029,35.543,11.5029z M6.8052,28.4814 c-0.5386,0-0.9766-0.4385-0.9766-0.9766V23.168c0-0.5381,0.438-0.9766,0.9766-0.9766h1.1348v6.29H6.8052z M29.853,3.0693 c0.0269-0.5674,0.4927-1.0117,1.0605-1.0117s1.0342,0.4443,1.061,1.0137l0.4391,8.6597 c-1.0601,0.1499-2.0865,0.3712-3.0288,0.6523L29.853,3.0693z M12.9917,6.0771c0.0269-0.5664,0.4932-1.0107,1.061-1.0107 s1.0337,0.4443,1.0605,1.0127l0.4391,8.6607c-1.0601,0.1499-2.0865,0.3712-3.0288,0.6523L12.9917,6.0771z M26.6123,46.0303 c0,1.0918-0.98,1.9795-2.1846,1.9795H12.936c-1.2046,0-2.1846-0.8877-2.1846-1.9795L10.751,35.5996c0-0.2764-0.2236-0.5-0.5-0.5 c-0.7231,0-1.311-0.5254-1.311-1.1719V18.8965c0-1.4775,4.7241-3.3848,9.7417-3.3848c4.3651,0,8.5042,1.4431,9.5084,2.7913 c0.0121,0.0149,0.0197,0.033,0.0334,0.0464c0.1286,0.1858,0.2004,0.3696,0.2004,0.5471v15.0312 c0,0.6465-0.5884,1.1719-1.3115,1.1719c-0.2764,0-0.5,0.2236-0.5,0.5V46.0303z M29.0732,17.8507v-0.8693 c0.9512-0.4443,3.6548-1.1328,6.4697-1.1328c2.8145,0,5.5186,0.6885,6.4702,1.1328v6.3838c0,0.2998-0.2827,0.5439-0.6304,0.5439 H29.9512c-0.2156,0-0.4117-0.1014-0.5273-0.2585v-4.7542C29.4238,18.5326,29.2926,18.1841,29.0732,17.8507z M45.2852,30.9189 c0,0.6465-0.5884,1.1729-1.3115,1.1729c-0.2764,0-0.5,0.2236-0.5,0.5v10.4307c0,1.0908-0.98,1.9785-2.1851,1.9785H29.7974 c-1.2051,0-2.1851-0.8877-2.1851-1.9785v-6.9736c1.0352-0.2158,1.8115-1.085,1.8115-2.1211v-9.1113 c0.1682,0.0545,0.343,0.0928,0.5273,0.0928h11.4316c0.8989,0,1.6304-0.6924,1.6304-1.5439v-6.6807 c0-0.1689-0.0854-0.3262-0.2266-0.4189c-0.7798-0.5088-3.8667-1.417-7.2437-1.417c-3.3774,0-6.4639,0.9082-7.2432,1.417 c-0.1411,0.0928-0.2266,0.25-0.2266,0.4189v0.1741c-0.5974-0.4282-1.3608-0.8115-2.2398-1.1379 c0.3314-1.4503,4.8779-3.2178,9.7095-3.2178c5.0181,0,9.7422,1.9072,9.7422,3.3848V30.9189z" stroke-width="0"/> <path d="M37.5366,38.5518h-3.9873c-0.2764,0-0.5,0.2236-0.5,0.5s0.2236,0.5,0.5,0.5h3.9873c0.2764,0,0.5-0.2236,0.5-0.5 S37.813,38.5518,37.5366,38.5518z" stroke-width="0"/> <path d="M37.5366,35.1162h-3.9873c-0.2764,0-0.5,0.2236-0.5,0.5s0.2236,0.5,0.5,0.5h3.9873c0.2764,0,0.5-0.2236,0.5-0.5 S37.813,35.1162,37.5366,35.1162z" stroke-width="0"/> <path d="M14.5933,24.6553c-0.1953,0.1953-0.1953,0.5117,0,0.707c0.0977,0.0977,0.2256,0.1465,0.3535,0.1465 s0.2559-0.0488,0.3535-0.1465l3.9771-3.9775c0.1953-0.1953,0.1953-0.5117,0-0.707s-0.5117-0.1953-0.707,0L14.5933,24.6553z" stroke-width="0"/> <path d="M35.9258,22.4131c0.1279,0,0.2559-0.0488,0.3535-0.1465l3.9771-3.9766c0.1953-0.1953,0.1953-0.5117,0-0.707 s-0.5117-0.1953-0.707,0l-3.9771,3.9766c-0.1953,0.1953-0.1953,0.5117,0,0.707C35.6699,22.3643,35.7979,22.4131,35.9258,22.4131z" stroke-width="0" /> </g> </g> <g id="Margin" class="st1"> <rect x="1" y="1" class="st2" /> </g> <g id="Guides" class="st1"> </g> <g id="LABELS"> <g> <g> <g> <g> <g> <g> <g> <g> <g> <g> <g> </g> </g> </g> </g> </g> </g> </g> </g> </g> </g> </g> </g> </svg> 