<?xml version="1.0" encoding="UTF-8"?><svg width="70" height="70" xmlns="http://www.w3.org/2000/svg" viewBox="-10 -10 70 70"><rect x="-10" y="-10" width="70" height="70" fill="white"/><g id="uuid-aa84d1d5-afa6-45a5-a4f0-4e0089895b32"><g><path d="M26.26,33.57c0-1.98,1.61-3.6,3.6-3.6h14.69v-11.44H7.03v30.34H44.55v-11.7h-14.69c-1.98,0-3.6-1.61-3.6-3.6Z" fill="#ffcd00" stroke-width="0"/><path d="M45.57,14.32c-.1-.09-.22-.15-.37-.14l-5.9,.23L32.32,1.39c-.06-.12-.17-.21-.3-.24-.13-.04-.27-.02-.38,.04L5.41,15.76l-.66,.03s-.06,.01-.09,.02c-.03,0-.06,0-.09,.02-.02,.01-.04,.03-.07,.04-.03,.02-.06,.04-.09,.07h0s-.02,.05-.04,.07c-.02,.03-.04,.06-.06,.09-.01,.03-.01,.07-.02,.1,0,.03-.02,.05-.02,.08v31.34c0,.28,.22,.5,.5,.5H43.3c.23,0,.41-.15,.47-.36h1.45c.28,0,.5-.22,.5-.5V14.68c0-.14-.06-.27-.15-.36Zm-15.71,22.85c-1.98,0-3.6-1.61-3.6-3.6s1.61-3.6,3.6-3.6h14.85v7.2h-14.85ZM5.28,23.15v-6.36H42.8v6.36H5.28Zm27.93-7.36h-9.45c-.78-1.09-1.87-1.91-3.17-2.31-.71-.21-1.43-.29-2.14-.24l9.73-5.51c.89,1.21,2.46,1.71,3.84,1.22l2.43,4.54c-.72,.57-1.15,1.41-1.23,2.3Zm-16.79-.97c.75-.4,1.57-.61,2.39-.61,.49,0,.99,.07,1.48,.22,.85,.26,1.58,.73,2.17,1.35h-4.76c-.13-.26-.43-.35-.68-.22-.09,.05-.16,.13-.2,.22h-1.64c.36-.37,.76-.71,1.24-.97Zm22.48,.97h-4.68c.09-.7,.48-1.34,1.12-1.71,.23-.14,.32-.43,.19-.67l-2.86-5.34c-.13-.24-.43-.33-.68-.2-1.14,.61-2.59,.14-3.22-1.04-.06-.12-.17-.21-.3-.24-.13-.04-.27-.02-.39,.05L11.89,15.79H7.42L31.68,2.31l7.22,13.48ZM5.28,24.15H42.8v4.82h-12.94c-2.54,0-4.6,2.06-4.6,4.6s2.06,4.6,4.6,4.6h12.94v8.95H5.28V24.15ZM44.72,15.2v13.77h-.92v-12.69c0-.28-.22-.5-.5-.5h-3.27l-.21-.39,4.9-.19Zm-.92,31.56v-8.6h.92v8.6h-.92Z" stroke-width="0"/><polygon points="28.97 13.49 28.52 13.72 28.53 13.72 28.97 13.49"/><path d="M28.53,14.72c.16,0,.32-.04,.47-.12,.48-.26,.67-.86,.41-1.35h0c-.26-.49-.87-.67-1.35-.41-.23,.13-.41,.34-.48,.59s-.05,.52,.08,.76c.18,.33,.52,.53,.88,.53Zm.44-1.23l-.44,.24h0l.44-.24Z" stroke-width="0"/><path d="M30.62,31.6c-1.09,0-1.97,.88-1.97,1.97s.88,1.97,1.97,1.97,1.97-.88,1.97-1.97-.88-1.97-1.97-1.97Z" fill="#ffcd00" stroke-width="0"/><rect x="44.55" y="29.97" width=".16" height="7.2"/><path d="M30.62,32.6c-.54,0-.97,.44-.97,.97s.44,.97,.97,.97,.97-.44,.97-.97-.44-.97-.97-.97Z" stroke-width="0"/><path d="M30.62,31.6c-1.09,0-1.97,.88-1.97,1.97s.88,1.97,1.97,1.97,1.97-.88,1.97-1.97-.88-1.97-1.97-1.97Zm0,2.94c-.54,0-.97-.44-.97-.97s.44-.97,.97-.97,.97,.44,.97,.97-.44,.97-.97,.97Z" stroke-width="0"/></g></g><g id="uuid-91140aca-9466-4f74-af22-64810320a9a5"></g></svg>