<?xml version="1.0" encoding="UTF-8"?><svg width="70" height="70" xmlns="http://www.w3.org/2000/svg" viewBox="-10 -10 70 70"><rect x="-10" y="-10" width="70" height="70" fill="white"/><g id="uuid-6ec26b40-7d87-4ab7-9706-b0dddcbad6af"><g><path d="M25.99,14.87c8.33,0,15.11,6.78,15.11,15.11s-6.78,15.11-15.11,15.11-15.11-6.78-15.11-15.11,6.78-15.11,15.11-15.11Zm12.39,12.14c.07-.12,.1-.27,.06-.41-1.52-5.61-6.64-9.53-12.45-9.53-7.12,0-12.91,5.79-12.91,12.91s5.79,12.91,12.91,12.91c5.81,0,10.93-3.92,12.45-9.53,.04-.14,.01-.29-.06-.41-.08-.12-.21-.2-.35-.22-1.38-.19-2.42-1.37-2.42-2.75s1.04-2.57,2.42-2.75c.14-.02,.27-.1,.35-.22Z" fill="#ffcd00" stroke-width="0"/><path d="M36.41,2.5H6.49v6.98H45.49V2.5h-9.08Zm0,6.23c-1.52,0-2.75-1.23-2.75-2.74s1.23-2.74,2.75-2.74,2.74,1.23,2.74,2.74-1.23,2.74-2.74,2.74Z" fill="#ffcd00" stroke-width="0"/><path d="M45,.51H5c-.28,0-.5,.23-.5,.5V48.99c0,.27,.22,.5,.5,.5H45c.28,0,.5-.23,.5-.5V1.01c0-.27-.22-.5-.5-.5Zm-.5,47.98H5.5V9.49H44.5V48.49Zm0-40H5.5V1.51H44.5v6.98Zm-4.08-2.99c.28,0,.5-.22,.5-.5s-.22-.5-.5-.5-.5,.22-.5,.5,.22,.5,.5,.5Zm-7.75-.5c0,1.51,1.23,2.74,2.75,2.74s2.74-1.23,2.74-2.74-1.23-2.74-2.74-2.74-2.75,1.23-2.75,2.74Zm4.49,0c0,.96-.78,1.74-1.74,1.74s-1.75-.78-1.75-1.74,.78-1.74,1.75-1.74,1.74,.78,1.74,1.74Zm-12.16,36.9c5.81,0,10.93-3.92,12.45-9.53,.04-.14,.01-.29-.06-.41-.08-.12-.21-.2-.35-.22-1.38-.19-2.42-1.37-2.42-2.75s1.04-2.57,2.42-2.75c.14-.02,.27-.1,.35-.22,.07-.12,.1-.27,.06-.41-1.52-5.61-6.64-9.53-12.45-9.53-7.12,0-12.91,5.79-12.91,12.91s5.79,12.91,12.91,12.91Zm-11.91-12.91c0-6.57,5.34-11.91,11.91-11.91,5.18,0,9.77,3.38,11.34,8.29-1.58,.47-2.72,1.93-2.72,3.62,0,1.47,.87,2.78,2.14,3.39-3.12,.98-6.25-.38-9.55-1.82-4.26-1.86-8.65-3.76-13.06-.38-.04-.39-.06-.79-.06-1.19Zm12.72,2.48c2.53,1.11,5.14,2.24,7.77,2.24,.83,0,1.66-.12,2.49-.38-1.76,4.51-6.15,7.57-11.07,7.57-5.77,0-10.6-4.13-11.68-9.58,4.1-3.5,8.17-1.73,12.49,.15Zm-.81,13.63c8.88,0,16.11-7.23,16.11-16.11s-7.23-16.11-16.11-16.11S8.89,20.11,8.89,28.99s7.23,16.11,16.11,16.11Zm0-31.22c8.33,0,15.11,6.78,15.11,15.11s-6.78,15.11-15.11,15.11-15.11-6.78-15.11-15.11,6.78-15.11,15.11-15.11Zm4.98,16.09c1.16,0,2.1-.95,2.1-2.11s-.94-2.1-2.1-2.1-2.1,.94-2.1,2.1,.94,2.11,2.1,2.11Zm0-3.21c.61,0,1.1,.49,1.1,1.1s-.49,1.11-1.1,1.11-1.1-.5-1.1-1.11,.49-1.1,1.1-1.1Zm.68-2.69c.98,0,1.77-.79,1.77-1.77s-.79-1.77-1.77-1.77-1.77,.79-1.77,1.77,.79,1.77,1.77,1.77Zm0-2.54c.43,0,.77,.34,.77,.77s-.34,.77-.77,.77-.77-.35-.77-.77,.34-.77,.77-.77Zm-.25-17.03c-.28,0-.5,.22-.5,.5s.22,.5,.5,.5,.5-.22,.5-.5-.22-.5-.5-.5Zm-5.8,22.78c1.51,0,2.74-1.23,2.74-2.74s-1.23-2.74-2.74-2.74-2.74,1.23-2.74,2.74,1.23,2.74,2.74,2.74Zm0-4.48c.96,0,1.74,.78,1.74,1.74s-.78,1.74-1.74,1.74-1.74-.78-1.74-1.74,.78-1.74,1.74-1.74Zm.18-18.3H8.35c-.28,0-.5,.22-.5,.5s.22,.5,.5,.5H24.79c.27,0,.5-.22,.5-.5s-.23-.5-.5-.5Z" stroke-width="0"/></g></g><g id="uuid-3f9f9548-e23d-4470-95de-2447b08a6666"></g></svg>