<?xml version="1.0" encoding="UTF-8"?><svg width="70" height="70" id="uuid-fff0eee8-5726-42da-a4fd-75cd27488a31" xmlns="http://www.w3.org/2000/svg" viewBox="-10 -10 70 70"><rect x="-10" y="-10" width="70" height="70" fill="white"/><path d="M26.38,39.53c12.2,0,22.16-9.79,22.43-21.93H3.95c.27,12.14,10.23,21.93,22.43,21.93Z" fill="#ffcd00" stroke-width="0"/><path d="M47.56,14.85H1.69c-.28,0-.5,.22-.5,.5,0,12.92,10.51,23.43,23.43,23.43s23.43-10.51,23.43-23.43c0-.28-.22-.5-.5-.5ZM11.69,27.78c-2.88-3.15-4.67-7.33-4.76-11.93H23.62l-11.93,11.93Zm12.39-10.97v16.73c-4.53-.16-8.64-2.04-11.7-5.03l11.7-11.7Zm1-.34l11.51,12.43c-3.06,2.81-7.09,4.56-11.51,4.65V16.46Zm12.24,11.75l-11.45-12.36h16.59c-.09,4.81-2.03,9.17-5.14,12.36Zm-12.68,9.57C12.42,37.78,2.47,27.99,2.2,15.85h3.73c.18,10.35,8.52,18.72,18.76,18.72s18.58-8.37,18.76-18.72h3.6c-.27,12.14-10.23,21.93-22.43,21.93Z" stroke-width="0"/></svg>