<?xml version="1.0" encoding="UTF-8"?><svg width="70" height="70" xmlns="http://www.w3.org/2000/svg" viewBox="-10 -10 70 70"><rect x="-10" y="-10" width="70" height="70" fill="white"/><g id="uuid-c15a70fb-3e21-4996-862e-22f98ef0b180"><g><path d="M30.95,10.56c-.02-.34-.04-.67-.06-1.01h.02c-.02-.21-.04-.44-.04-.68,0-.2,.02-.39,.04-.57,.04-.33,.08-.67,.12-1h1.52V3.91h-15.14v3.39h1.58c.02,.33,.04,.67,.06,1,.02,.18,.04,.37,.04,.57,0,.23-.02,.46-.04,.66h0c-.04,.35-.08,.69-.12,1.04-1.79,.18-3.19,1.67-3.19,3.5v31.22c0,1.95,1.58,3.53,3.53,3.53h11.54c1.95,0,3.53-1.59,3.53-3.53V14.08c0-1.9-1.51-3.44-3.38-3.52Z" fill="#ffcd00" stroke-width="0"/><path d="M35.96,4.07c-.85-.68-2.15-.8-4.17-.41V1.66c0-.28-.22-.5-.5-.5H15.15c-.28,0-.5,.22-.5,.5V6.05c0,.28,.22,.5,.5,.5h1.14c.02,.18,.04,.37,.04,.57s-.02,.4-.04,.58c0,.1-.02,.19-.02,.28-1.9,.54-3.3,2.27-3.3,4.34v31.22c0,2.5,2.03,4.53,4.53,4.53h11.54c2.5,0,4.53-2.03,4.53-4.53V12.33c0-1.28-.54-2.44-1.4-3.26,.02,0,.05,0,.07,.01,.83,.13,1.61,.25,2.29,.25s1.32-.13,1.78-.53c.48-.41,.71-1.02,.71-1.88,0-1.34-.35-2.28-1.07-2.85ZM15.65,2.16h15.14v3.39H15.65V2.16Zm1.64,5.64c.02-.21,.04-.44,.04-.68,0-.2-.02-.39-.04-.57h11.85c-.02,.18-.04,.37-.04,.57,0,.24,.02,.47,.04,.68h0s-.07,0-.1,0h-11.54c-.07,0-.14,.02-.22,.02h0Zm15.29,4.51v31.22c0,1.95-1.59,3.53-3.53,3.53h-11.54c-1.95,0-3.53-1.59-3.53-3.53V12.33c0-1.95,1.58-3.53,3.53-3.53h11.54c1.95,0,3.53,1.59,3.53,3.53Zm3.09-4.29c-.55,.47-1.87,.26-3.27,.04-.74-.12-1.5-.23-2.25-.28,0-.04,0-.07,0-.11-.02-.18-.04-.37-.04-.58s.02-.39,.04-.57h1.14c.28,0,.5-.22,.5-.5v-1.38c1.79-.37,2.93-.31,3.54,.18,.47,.37,.7,1.05,.7,2.07,0,.55-.12,.92-.36,1.12Z" stroke-width="0"/><path d="M17.88,12.82c-.28,0-.5,.22-.5,.5v29.28c0,.28,.22,.5,.5,.5s.5-.22,.5-.5V13.32c0-.28-.22-.5-.5-.5Z" stroke-width="0"/></g></g><g id="uuid-beb1d1ef-f680-47e0-8066-b60e5b447cbf"></g></svg>