<?xml version="1.0" encoding="UTF-8"?><svg width="70" height="70" id="uuid-d1a0c073-3a72-4d27-933c-9e9cf88d69f2" xmlns="http://www.w3.org/2000/svg" viewBox="-10 -10 70 70"><rect x="-10" y="-10" width="70" height="70" fill="white"/><path d="M12.56,12.12c0,4.43,3.6,8.04,8.04,8.04h12.3c4.43,0,8.04-3.6,8.04-8.04s-3.6-8.04-8.04-8.04h-12.3c-4.43,0-8.04,3.6-8.04,8.04Z" fill="#ffcd00" stroke-width="0"/><path d="M37.36,36.25h-1.47l-2.26-17.2c3.78-1.08,6.55-4.56,6.55-8.68,0-4.98-4.05-9.04-9.04-9.04h-12.3c-4.98,0-9.04,4.05-9.04,9.04,0,4.17,2.84,7.67,6.68,8.71l-2.28,17.17h-1.79c-.28,0-.5,.22-.5,.5s.22,.5,.5,.5h1.65l-1.41,10.61c-.04,.27,.16,.52,.43,.56,.02,0,.04,0,.07,0,.25,0,.46-.18,.49-.43l1.43-10.74h7.81l-.1,10.91c0,.28,.22,.5,.5,.5h0c.27,0,.5-.22,.5-.5l.1-10.92h2.44l.05,10.92c0,.28,.23,.5,.5,.5h0c.28,0,.5-.23,.5-.5l-.05-10.92h7.68l1.37,10.47c.03,.25,.25,.44,.5,.44,.02,0,.04,0,.07,0,.27-.04,.47-.29,.43-.56l-1.36-10.34h1.34c.28,0,.5-.22,.5-.5s-.22-.5-.5-.5ZM31.15,2.33c4.43,0,8.04,3.6,8.04,8.04s-3.6,8.04-8.04,8.04h-12.3c-4.43,0-8.04-3.6-8.04-8.04S14.42,2.33,18.85,2.33h12.3ZM15.21,36.25l2.26-16.96c.45,.07,.91,.12,1.38,.12h4.21l-.16,16.85h-7.69Zm8.69,0l.16-16.85h2.19l.08,16.85h-2.42Zm3.42,0l-.08-16.85h3.9c.51,0,1.01-.05,1.5-.14l2.23,16.98h-7.56Z" stroke-width="0"/></svg>