<?xml version="1.0" encoding="UTF-8"?><svg width="70" height="70" xmlns="http://www.w3.org/2000/svg" viewBox="-10 -10 70 70"><rect x="-10" y="-10" width="70" height="70" fill="white"/><g id="uuid-b007dcf9-bbd6-4075-855e-a0e754f91729"><path d="M41.24,9.82c-.61-.33-2.67-1.17-7.32-.92-3.57,.2-5.14,1.17-6.96,2.3-1.1,.68-2.35,1.46-4.15,2.1-4.2,1.5-8.8,.4-10.42-.08l1.81,31.23,22.73,.06-.05,.75h1.87l2.5-35.45Z" fill="#ffcd00" stroke-width="0"/><path d="M40.9,2.31c0-.14-.04-.27-.13-.38s-.23-.16-.37-.16H9.6c-.14,0-.27,.06-.36,.16-.09,.1-.14,.23-.14,.37l.49,8.53,2.14,36.92c.02,.26,.23,.47,.5,.47h24.96c.26,0,.48-.2,.5-.46l2.81-39.92s-.01-.03-.01-.05c0-.03,.02-.05,.02-.08l.38-5.4Zm-1.04,.46l-.3,4.22c-1.02-.44-3.26-1.07-7.45-.84-3.83,.21-5.58,1.3-7.43,2.45-1.11,.69-2.26,1.4-3.96,2.01-4.31,1.54-9.1,.14-10.15-.21l-.44-7.63h29.73ZM12.7,47.22l-.16-2.77,24.37,.07-.19,2.7H12.7Zm24.28-3.7l-24.5-.07-1.85-31.97c1.62,.48,6.22,1.58,10.42,.08,1.81-.64,3.05-1.42,4.15-2.1,1.82-1.13,3.38-2.1,6.96-2.3,4.65-.25,6.71,.58,7.32,.92l-2.5,35.45Z" stroke-width="0"/></g><g id="uuid-f4daf4fa-35ce-4570-b755-181e6d7951b7"></g></svg>