<?xml version="1.0" encoding="UTF-8"?><svg width="70" height="70" id="uuid-b415ec20-95a5-4c6f-b813-e4c22682d5ba" xmlns="http://www.w3.org/2000/svg" viewBox="-10 -10 70 70"><rect x="-10" y="-10" width="70" height="70" fill="white"/><path d="M18.09,7.95c.66-.11,1.32,.04,1.87,.43,.54,.38,.91,.96,1.02,1.62q2.74,15.57,3.52,15.48c.56-.08,.56-.74,.55-1.66l-.12-16.17c0-1.38,1.12-2.5,2.5-2.5s2.51,1.12,2.51,2.49l-.23,15.79c-.09,.99-.15,1.59,.4,1.69,.67,.13,.86,.16,4.08-14.8,.13-.66,.51-1.23,1.06-1.6,.56-.37,1.22-.51,1.88-.38,.65,.13,1.22,.51,1.59,1.06,.38,.56,.51,1.22,.38,1.88l-2.94,15.08c-.93,5.07-.56,5.61,.02,5.8,.62,.2,1.19-.43,2.24-2.45l2.11-3.99c.31-.59,.84-1.02,1.48-1.22,.64-.19,1.32-.13,1.91,.19,.59,.31,1.02,.83,1.21,1.47,.2,.64,.14,1.32-.18,1.91l-5.62,10.5c-2.17,4.62-6.8,7.62-11.78,7.63h-.03c-5.51,0-10.46-3.58-12.32-8.92l-5.61-14.99c-.23-.63-.21-1.31,.07-1.91,.28-.61,.78-1.08,1.4-1.31,.29-.1,.58-.15,.87-.15,1.02,0,1.98,.62,2.36,1.65,3.33,7.85,3.62,7.74,4.19,7.54,.53-.2,.45-.84,.16-2.13l-2.59-15.14c-.12-.66,.03-1.32,.42-1.87,.39-.54,.96-.91,1.62-1.02Z" fill="#ffcd00" stroke-width="0"/><g><path d="M46.45,42.56c-.25-.13-.55-.03-.67,.22-.68,1.33-1.53,2.55-2.55,3.63-.76,.81-1.61,1.54-2.54,2.18-.23,.15-.28,.46-.13,.69,.1,.14,.26,.22,.41,.22,.1,0,.2-.03,.29-.09,.98-.67,1.89-1.45,2.7-2.32,1.08-1.15,1.99-2.45,2.71-3.86,.12-.25,.02-.55-.22-.67Z" stroke-width="0"/><path d="M44.04,40.23c.13-.25,.03-.55-.22-.67-.24-.13-.54-.03-.67,.22-.67,1.33-1.52,2.55-2.54,3.63-.76,.81-1.62,1.55-2.54,2.18-.23,.16-.29,.47-.13,.69,.1,.14,.25,.22,.41,.22,.1,0,.2-.03,.28-.09,.99-.67,1.9-1.45,2.71-2.32,1.08-1.15,1.99-2.45,2.7-3.86Z" stroke-width="0"/><path d="M11.99,4.47c.23-.15,.29-.46,.14-.69-.15-.23-.46-.29-.69-.14-.99,.65-1.92,1.41-2.76,2.26-1.1,1.13-2.04,2.41-2.79,3.8-.13,.25-.03,.55,.21,.68,.07,.04,.15,.06,.23,.06,.18,0,.36-.1,.45-.27,.69-1.31,1.58-2.51,2.62-3.57,.78-.8,1.65-1.52,2.59-2.13Z" stroke-width="0"/><path d="M44.58,27.29c.44-.83,.54-1.77,.26-2.67-.27-.89-.88-1.63-1.71-2.07-.82-.44-1.77-.53-2.67-.25-.89,.27-1.62,.88-2.06,1.7l-2.12,3.99c-.44,.85-.74,1.34-.94,1.61-.01-.56,.08-1.76,.55-4.3l2.94-15.08c.18-.92,0-1.85-.53-2.63-.52-.77-1.31-1.3-2.23-1.48-.92-.18-1.85,.01-2.63,.53-.77,.52-1.3,1.32-1.48,2.23-1.18,5.51-1.96,8.91-2.47,11l.2-13.47c0-1.93-1.57-3.5-3.51-3.5s-3.5,1.57-3.5,3.51l.1,13.64c-.44-2.33-1.1-6-2.06-11.47-.16-.92-.67-1.73-1.43-2.27-.77-.54-1.69-.76-2.62-.59-1.9,.32-3.19,2.14-2.86,4.04l2.47,14.39c-.5-1.05-1.24-2.67-2.31-5.2-.68-1.81-2.7-2.74-4.51-2.07-.87,.33-1.57,.98-1.96,1.83-.39,.85-.42,1.8-.1,2.68l5.61,14.98c2,5.73,7.33,9.58,13.26,9.58h.03c5.37-.01,10.35-3.23,12.67-8.17l5.61-10.49Zm-18.28,17.66h-.03c-5.51,0-10.46-3.58-12.32-8.92l-5.61-14.99c-.23-.63-.21-1.31,.07-1.91,.28-.61,.78-1.08,1.4-1.31,.29-.1,.58-.15,.87-.15,1.02,0,1.98,.62,2.36,1.65,3.33,7.85,3.62,7.74,4.19,7.54,.53-.2,.45-.84,.16-2.13l-2.59-15.14c-.12-.66,.03-1.32,.42-1.87,.39-.54,.96-.91,1.62-1.02,.66-.11,1.32,.04,1.87,.43,.54,.38,.91,.96,1.02,1.62q2.74,15.57,3.52,15.48c.56-.08,.56-.74,.55-1.66l-.12-16.17c0-1.38,1.12-2.5,2.5-2.5s2.51,1.12,2.51,2.49l-.23,15.79c-.09,.99-.15,1.59,.4,1.69,.67,.13,.86,.16,4.08-14.8,.13-.66,.51-1.23,1.06-1.6,.56-.37,1.22-.51,1.88-.38,.65,.13,1.22,.51,1.59,1.06,.38,.56,.51,1.22,.38,1.88l-2.94,15.08c-.93,5.07-.56,5.61,.02,5.8,.62,.2,1.19-.43,2.24-2.45l2.11-3.99c.31-.59,.84-1.02,1.48-1.22,.64-.19,1.32-.13,1.91,.19,.59,.31,1.02,.83,1.21,1.47,.2,.64,.14,1.32-.18,1.91l-5.62,10.5c-2.17,4.62-6.8,7.62-11.78,7.63Z" stroke-width="0"/><path d="M9.43,1.42c.23-.15,.3-.46,.15-.69-.16-.24-.47-.3-.7-.15-.99,.65-1.92,1.41-2.75,2.26-1.11,1.13-2.05,2.41-2.79,3.81-.13,.24-.04,.54,.2,.67,.08,.04,.16,.06,.24,.06,.18,0,.35-.09,.44-.26,.7-1.32,1.58-2.52,2.62-3.58,.78-.8,1.65-1.51,2.59-2.12Z" stroke-width="0"/></g></svg>