<?xml version="1.0" encoding="UTF-8"?><svg width="70" height="70" id="uuid-455cb4a3-9275-48c0-91bc-36c2c35b7129" xmlns="http://www.w3.org/2000/svg" viewBox="-10 -10 70 70"><rect x="-10" y="-10" width="70" height="70" fill="white"/><polygon points="10.06 13.85 10.06 16.58 10.06 17.08 5.93 17.08 5.93 21.91 5.93 26.94 5.93 31.77 10.06 31.77 10.06 32.27 10.06 35 16.23 35 16.23 26.94 16.23 21.91 16.23 13.85 10.06 13.85" fill="#ffcd00"/><polygon points="43 17.08 43 16.58 43 13.85 36.77 13.85 36.77 21.91 36.77 26.94 36.77 35 43 35 43 32.27 43 31.77 47.07 31.77 47.07 26.94 47.07 21.91 47.07 17.08 43 17.08" fill="#ffcd00"/><path d="M46.92,19.91h-.33v-4.84c0-.28-.22-.5-.5-.5h-4.1v-2.74c0-.28-.22-.5-.5-.5h-6.71c-.28,0-.5,.22-.5,.5v8.07h-3.26c-.16-.25-.35-.5-.59-.73-.02-.02-.04-.03-.06-.04-.31-.27-.69-.41-1.1-.41-.7,0-1.3,.43-1.56,1.03v-1.99c0-.79-.64-1.43-1.43-1.43h-.29c-.36,0-.68,.14-.93,.35-.25-.22-.57-.35-.93-.35h-.29c-.36,0-.68,.14-.93,.35-.25-.22-.57-.35-.93-.35h-.29c-.36,0-.68,.14-.93,.35-.25-.22-.57-.35-.93-.35h-.29c-.79,0-1.43,.64-1.43,1.43v2.15h-2.42V11.84c0-.28-.22-.5-.5-.5h-6.71c-.28,0-.5,.22-.5,.5v2.74H3.9c-.28,0-.5,.22-.5,.5v4.84h-.38c-1.61,0-2.92,1.31-2.92,2.92v.19c0,1.61,1.31,2.92,2.92,2.92h.38v4.84c0,.28,.22,.5,.5,.5h4.1v2.74c0,.28,.22,.5,.5,.5h6.71c.28,0,.5-.22,.5-.5v-8.07h2.42v1.34c0,1.22,.99,2.21,2.21,2.21h.81v8.67c0,.28,.22,.5,.5,.5h6.32c.28,0,.5-.22,.5-.5v-8.73c.46-.07,.97-.23,1.44-.58,.04-.03,1.08-.69,1.5-2.44,.03-.12,.06-.28,.08-.48h2.79v8.07c0,.28,.22,.5,.5,.5h6.71c.28,0,.5-.22,.5-.5v-2.74h4.1c.28,0,.5-.22,.5-.5v-4.84h.33c1.64,0,2.98-1.34,2.98-3.06s-1.33-2.98-2.98-2.98ZM3.4,24.94h-.38c-1.06,0-1.92-.86-1.92-1.92v-.19c0-1.06,.86-1.92,1.92-1.92h.38v4.03Zm4.6,5.34h-3.6V15.57h3.6v14.71Zm6.71-10.37v13.61h-5.71V12.34h5.71v7.57Zm10.85-2.15c0-.24,.19-.43,.43-.43h.29c.24,0,.43,.19,.43,.43v3.99c0,.24-.19,.43-.43,.43h-.29c-.24,0-.43-.19-.43-.43v-3.99Zm-2.14,0c0-.24,.19-.43,.43-.43h.29c.24,0,.43,.19,.43,.43v3.99c0,.24-.19,.43-.43,.43h-.29c-.24,0-.43-.19-.43-.43v-3.99Zm-2.14,0c0-.24,.19-.43,.43-.43h.29c.24,0,.43,.19,.43,.43v3.99c0,.24-.19,.43-.43,.43h-.29c-.24,0-.43-.19-.43-.43v-3.99Zm-2.14,0c0-.24,.19-.43,.43-.43h.29c.24,0,.43,.19,.43,.43v3.99c0,.24-.19,.43-.43,.43h-.29c-.24,0-.43-.19-.43-.43v-3.99Zm-.48,7.18h-2.94v-4.03h2.42v.84c0,.79,.64,1.43,1.43,1.43h.29c.36,0,.68-.14,.93-.35,.25,.22,.57,.35,.93,.35h.29c.36,0,.68-.14,.93-.35,.25,.22,.57,.35,.93,.35h.29c.36,0,.68-.14,.93-.35,.25,.22,.57,.35,.93,.35h.29c.79,0,1.43-.64,1.43-1.43v-.71c.13,.32,.34,.6,.64,.79v3.12h-9.7Zm8.82,12.72h-5.32v-8.17h5.32v8.17Zm3.02-11.91c0,.19-.03,.29-.06,.42l-.03,.1c-.3,1.24-1.01,1.72-1.06,1.76-.56,.41-1.19,.47-1.62,.46h-7.37c-.67,0-1.21-.54-1.21-1.21v-1.34h9.72c.28,0,.5-.22,.5-.5v-3.93c0-.21-.13-.4-.32-.47-.27-.1-.45-.35-.45-.64,0-.55,.74-.9,1.16-.5,.02,.02,.03,.03,.05,.04,.28,.27,.48,.57,.59,.9h0c.08,.23,.12,.44,.12,.65v4.25Zm3.78-.81h-2.78v-3.44c0-.2-.03-.4-.07-.6h2.85v4.03Zm6.71-9.87v18.44h-5.71V12.34h5.71v2.74Zm4.6,5.34v9.87h-3.6V15.57h3.6v4.84Zm1.33,4.53h-.33v-4.03h.33c1.09,0,1.98,.89,1.98,2.06,0,1.09-.89,1.98-1.98,1.98Z" stroke-width="0"/></svg>