<?xml version="1.0" encoding="UTF-8"?><svg width="70" height="70" xmlns="http://www.w3.org/2000/svg" viewBox="-10 -10 70 70"><rect x="-10" y="-10" width="70" height="70" fill="white"/><g id="uuid-8dc6f72d-fec0-46c5-9c01-393423760bee"><path d="M33.49,11.04c1.83,1.83,1.83,4.81,0,6.64l-8.12,8.12-8.13-8.12c-1.83-1.83-1.83-4.81,0-6.64.92-.91,2.12-1.37,3.32-1.37s2.4.46,3.32,1.37l1.13,1.14c.1.1.23.15.36.15s.26-.05.35-.15l1.14-1.14c1.83-1.83,4.81-1.83,6.63,0Z" fill="#ffcd00" stroke-width="0"/></g><g id="uuid-dbbfea5a-2906-43df-9732-bb72fafe7040"><path d="M32.95,9.09c-2.22-2.22-5.83-2.22-8.05,0l-.78.78-.79-.78c-2.22-2.22-5.83-2.22-8.04,0-2.22,2.21-2.22,5.82,0,8.04l8.47,8.48c.1.1.23.15.36.15s.26-.05.35-.15l8.48-8.48c2.22-2.22,2.22-5.83,0-8.04ZM24.12,24.55l-8.13-8.12c-1.83-1.83-1.83-4.81,0-6.64.92-.91,2.12-1.37,3.32-1.37s2.4.46,3.32,1.37l1.13,1.14c.1.1.23.15.36.15s.26-.05.35-.15l1.14-1.14c1.83-1.83,4.81-1.83,6.63,0,1.83,1.83,1.83,4.81,0,6.64l-8.12,8.12Z" stroke-width="0"/><path d="M42.7,23.26c0-.74.16-1.68.35-2.77.44-2.49.97-5.59-.18-8.21-2.8-6.34-9.75-10.76-17.71-11.26-6.96-.42-13.55,2.55-16.78,7.61-2.66,4.15-3.18,8.87-3.15,12.09.03,3.02.56,5.78,1.56,8.19.44,1.05.92,2.07,1.39,3.05,1.09,2.3,2.12,4.47,2.6,6.97,1.12,5.79-.54,8.58-1.09,9.5-.14.24-.06.54.18.68.08.05.17.08.25.08.17,0,.34-.09.43-.25.6-1,2.4-4.03,1.21-10.2-.5-2.63-1.61-4.96-2.68-7.21-.46-.97-.94-1.98-1.36-3-.96-2.3-1.46-4.93-1.49-7.82-.04-4.36,1.02-8.46,2.99-11.54,3.46-5.41,10.47-7.49,15.88-7.15,7.59.48,14.2,4.66,16.85,10.66,1.04,2.35.53,5.28.12,7.63-.2,1.14-.37,2.12-.37,2.95,0,1.97,1.77,5.73,2.83,7.79.15.28.04.63-.24.77l-3.33,1.72c-.13.07-.22.19-.25.33l-2.22,9.3c-.18.74-.88,1.23-1.64,1.14-2.55-.31-6.51-2.69-6.55-2.72-.15-.09-.34-.09-.5-.01-.16.09-.26.26-.26.44v6.67c0,.27.23.5.5.5s.5-.23.5-.5v-5.8c1.33.73,4.11,2.16,6.19,2.42,1.26.15,2.44-.67,2.73-1.91l2.17-9.07,3.12-1.62c.76-.4,1.07-1.35.67-2.11-.82-1.6-2.72-5.51-2.72-7.34Z" stroke-width="0"/></g></svg>