<?xml version="1.0" encoding="UTF-8"?><svg width="70" height="70" id="uuid-5c5d0274-7317-4d71-9895-8ccbab994d07" xmlns="http://www.w3.org/2000/svg" viewBox="-10 -10 70 70"><rect x="-10" y="-10" width="70" height="70" fill="white"/><path d="M26.36,38.43c1.34,0,2.43,1.09,2.43,2.43s-1.09,2.43-2.43,2.43-2.43-1.09-2.43-2.43,1.09-2.43,2.43-2.43" fill="#ffcd00" stroke-width="0"/><path d="M34.98,31.53l-3.46,3.47c-1.55-1.03-3.36-1.55-5.16-1.55s-3.61,.52-5.16,1.55l-3.46-3.47c5.01-3.86,12.23-3.86,17.24,0" fill="#ffcd00" stroke-width="0"/><path d="M41.87,24.64l-3.47,3.47c-3.47-2.88-7.75-4.32-12.04-4.32s-8.57,1.44-12.04,4.32l-3.47-3.47c8.8-7.59,22.22-7.59,31.02,0" fill="#ffcd00" stroke-width="0"/><path d="M48.73,17.79l-3.45,3.45c-5.35-4.75-12.14-7.12-18.92-7.12s-13.57,2.37-18.92,7.12l-3.45-3.45c12.45-11.23,32.29-11.23,44.74,0" fill="#ffcd00" stroke-width="0"/><path d="M21.43,39.36c0-1.89,1.54-3.43,3.43-3.43s3.43,1.54,3.43,3.43-1.54,3.43-3.43,3.43-3.43-1.54-3.43-3.43m3.43-2.43c-1.34,0-2.43,1.09-2.43,2.43s1.09,2.43,2.43,2.43,2.43-1.09,2.43-2.43-1.09-2.43-2.43-2.43" stroke-width="0"/><path d="M19.7,33.5c1.55-1.03,3.36-1.55,5.16-1.55s3.61,.52,5.16,1.55l3.46-3.47c-5.01-3.86-12.23-3.86-17.24,0l3.46,3.47Zm-4.53-3.89c5.52-4.63,13.86-4.63,19.38,0,.11,.09,.17,.22,.18,.36,0,.14-.05,.28-.15,.38l-4.15,4.15c-.1,.1-.23,.15-.36,.15-.1,0-.2-.03-.29-.1-2.9-2.14-6.94-2.14-9.84,0-.2,.15-.47,.13-.65-.05l-4.15-4.15c-.1-.1-.16-.24-.15-.38s.07-.27,.18-.36" stroke-width="0"/><path d="M12.82,26.61c3.47-2.88,7.75-4.32,12.04-4.32s8.57,1.44,12.04,4.32l3.47-3.47c-8.8-7.59-22.22-7.59-31.02,0l3.47,3.47Zm-4.54-3.86c9.3-8.4,23.86-8.4,33.16,0,.1,.09,.16,.22,.16,.35,.01,.14-.05,.27-.14,.37l-4.17,4.17c-.1,.1-.23,.15-.36,.15-.11,0-.23-.04-.33-.12-6.69-5.84-16.79-5.84-23.48,0-.2,.17-.5,.16-.69-.03l-4.17-4.17c-.09-.1-.15-.23-.14-.37,0-.13,.06-.26,.16-.35" stroke-width="0"/><path d="M2.49,16.29l3.45,3.45c5.35-4.75,12.14-7.12,18.92-7.12s13.57,2.37,18.92,7.12l3.45-3.45C34.78,5.06,14.94,5.06,2.49,16.29m-1.06-.38C14.57,3.65,35.15,3.65,48.29,15.91c.1,.09,.16,.22,.16,.36,0,.13-.05,.26-.15,.36l-4.15,4.15c-.1,.1-.23,.15-.35,.15-.13,0-.25-.05-.34-.14-10.43-9.56-26.77-9.56-37.2,0-.19,.19-.5,.18-.69,0L1.42,16.63c-.1-.1-.15-.23-.15-.36,0-.14,.06-.27,.16-.36" stroke-width="0"/></svg>