<?xml version="1.0" encoding="utf-8"?> <!-- Generator: Adobe Illustrator 27.7.0, SVG Export Plug-In . SVG Version: 6.00 Build 0) --> <svg width="70" height="70" version="1.1" xmlns="http://www.w3.org/2000/svg" xmlns:xlink="http://www.w3.org/1999/xlink" x="0px" y="0px" viewBox="-10 -10 70 70" style="enable-background:new 0 0 50 50;" xml:space="preserve"><rect x="-10" y="-10" width="70" height="70" fill="white"/> <style type="text/css"> .st0{fill:#FFCD00;} .st1{display:none;} .st2{display:inline;fill:none;stroke:#EA008A;stroke-width:0.2;stroke-miterlimit:10;} .st3{font-family:'Roboto-Regular';} .st4{font-size:6px;} </style> <g id="Color"> <g> <path class="st0" d="M23.6764,10.3444l-1.2776-7.2059l-4.5991,1.7593l2.9503,7.1014 C21.5601,11.1999,22.5693,10.6262,23.6764,10.3444z" stroke-width="0"/> <path class="st0" d="M28.9165,11.291c0.0231,0.0161,0.0434,0.0349,0.0662,0.0513l4.3247-6.1877l-4.4971-2.0078l-2.9086,7.0417 C26.9769,10.2975,28.0179,10.6636,28.9165,11.291z" stroke-width="0"/> <path class="st0" d="M19.482,13.7744l-6.2219-4.3483l-2.0078,4.4971l7.6193,3.1466C18.7747,15.9283,18.9883,14.799,19.482,13.7744 z" stroke-width="0"/> <path class="st0" d="M30.7618,14.7949c0.0175,0.0989,0.0249,0.1978,0.0378,0.2967l7.6061-1.2592l-1.4678-3.9736l-7.0153,2.9146 C30.4888,13.5499,30.5889,13.8211,30.7618,14.7949z" stroke-width="0"/> <path class="st0" d="M26.2777,22.4998c0.0828,0.0723,0.1438,0.171,0.1645,0.2876l1.4985,8.4517l4.1339-1.5059l-3.4685-8.3488 C27.9044,21.9144,27.1133,22.2948,26.2777,22.4998z" stroke-width="0"/> <path class="st0" d="M19.0516,18.6557l-8.0571,1.4286l1.7598,4.5996l8.2288-3.4188C20.1171,20.5674,19.455,19.675,19.0516,18.6557 z" stroke-width="0"/> <path class="st0" d="M31.0923,17.4027c-0.1348,0.9966-0.5021,1.9546-1.0948,2.8029l-0.001,0.001 c-0.0106,0.0151-0.0234,0.0278-0.0341,0.0428c0.027,0.0125,0.0565,0.0183,0.0812,0.0356l7.0356,4.9165l2.0078-4.4966 L31.0923,17.4027z" stroke-width="0"/> <path class="st0" d="M25.2402,22.688c-0.9299,0-1.8652-0.2059-2.7383-0.6216c-0.0149,0.0417-0.0275,0.0845-0.0533,0.1214 L17.532,29.223l4.4971,2.0083l3.5059-8.4893c0.0125-0.0303,0.0405-0.048,0.0582-0.0748 C25.4755,22.6737,25.3583,22.688,25.2402,22.688z" stroke-width="0"/> </g> <path class="st0" d="M30.8188,15.8457c-0.252-1.4204-1.042-2.6582-2.2251-3.4849c-0.9399-0.6567-2.0181-0.9717-3.0859-0.9717 c-0.197,0-0.3933,0.0134-0.5886,0.0346c-0.0389,0.0039-0.0775,0.0104-0.1164,0.0149c-1.4513,0.1898-2.8216,0.9604-3.7256,2.25 c-0.0013,0.0019-0.0031,0.0038-0.0044,0.0057c-0.0001,0.0002-0.0003,0.0002-0.0004,0.0004l-0.0001,0.0001 c-0.8262,1.1821-1.1431,2.6162-0.8911,4.0366c0.2518,1.4203,1.0414,2.657,2.2231,3.4836c0.0003,0.0002,0.0007,0.0005,0.001,0.0007 c0.0002,0.0001,0.0002,0.0002,0.0004,0.0004c0.0001,0,0.0001,0.0001,0.0001,0.0001c2.4395,1.7047,5.8145,1.1085,7.5208-1.3322 c0.0002-0.0003,0.0005-0.0005,0.0007-0.0009c0.0001-0.0001,0.0002-0.0002,0.0004-0.0004c0-0.0001,0.0001-0.0001,0.0001-0.0001 C30.7539,18.7002,31.0708,17.2666,30.8188,15.8457z M26.9644,17.812c-0.2734,0.3911-0.6826,0.6523-1.1523,0.7358 c-0.4707,0.0825-0.9443-0.022-1.3354-0.2949c-0.3911-0.2734-0.6523-0.6826-0.7354-1.1523 c-0.0835-0.4697,0.0215-0.9438,0.2944-1.3354c0.2734-0.3911,0.6826-0.6523,1.1523-0.7354 c0.1055-0.0186,0.2109-0.0278,0.3159-0.0278c0.3623,0,0.7158,0.1104,1.019,0.3223C27.3306,15.8887,27.5283,17.0049,26.9644,17.812z " stroke-width="0"/> <path class="st0" d="M30.7618,14.7949c0.0175,0.0989,0.0249,0.1978,0.0378,0.2967l7.6061-1.2592l-1.4678-3.9736l-7.0153,2.9146 C30.4888,13.5499,30.5889,13.8211,30.7618,14.7949z" stroke-width="0"/> </g> <g id="ICONS_00000031165542127692736420000002692518830807990202_"> <g> <path d="M40.0249,18.9521l-8.1636-3.3716l8.0845-1.4336c0.147-0.0259,0.2744-0.1162,0.3477-0.2461 c0.0737-0.1294,0.0854-0.2856,0.0317-0.4248l-2.1597-5.6455C38.1177,7.7046,38.02,7.603,37.896,7.5498 c-0.1245-0.0527-0.2642-0.0542-0.3892-0.0024l-8.1567,3.3892l4.7036-6.73c0.0854-0.1226,0.1118-0.2764,0.0723-0.4204 c-0.04-0.1436-0.1421-0.2617-0.2778-0.3228l-5.519-2.4648c-0.124-0.0547-0.2646-0.0591-0.3892-0.0078 c-0.1255,0.0498-0.2256,0.1484-0.2769,0.2734l-3.3716,8.1631l-1.4336-8.0845c-0.0259-0.147-0.1162-0.2744-0.2461-0.3477 c-0.1294-0.0732-0.2861-0.0859-0.4248-0.0317l-5.645,2.1592c-0.126,0.0479-0.2275,0.1455-0.2808,0.2695 s-0.0542,0.2642-0.0024,0.3892l3.3892,8.1572l-6.7305-4.7036c-0.1226-0.0859-0.2769-0.1113-0.4204-0.0723 c-0.1436,0.04-0.2617,0.1421-0.3228,0.2778l-2.4648,5.519c-0.0552,0.1235-0.0581,0.2637-0.0078,0.3892 c0.0498,0.1255,0.1484,0.2256,0.2734,0.2769l8.1631,3.3711l-8.084,1.4336c-0.147,0.0259-0.2744,0.1162-0.3477,0.2461 c-0.0737,0.1294-0.0854,0.2856-0.0317,0.4248l2.1597,5.6455c0.0479,0.126,0.1455,0.2275,0.2695,0.2808 c0.124,0.0527,0.2646,0.0542,0.3892,0.0024l8.1562-3.3887l-4.7031,6.73c-0.0854,0.1226-0.1118,0.2764-0.0723,0.4204 c0.04,0.1436,0.1421,0.2617,0.2778,0.3228l5.2191,2.3309l-0.518,2.8884h-0.9487c-0.2764,0-0.5,0.2236-0.5,0.5s0.2236,0.5,0.5,0.5 h0.7693l-2.3577,13.1479c-0.0488,0.272,0.1323,0.5317,0.4038,0.5806c0.0298,0.0054,0.0596,0.0078,0.0889,0.0078 c0.2378,0,0.4482-0.1699,0.4917-0.4116l2.3895-13.3247h6.2308l2.3895,13.3247c0.0435,0.2417,0.2539,0.4116,0.4917,0.4116 c0.0293,0,0.0591-0.0024,0.0889-0.0078c0.2715-0.0488,0.4526-0.3086,0.4038-0.5806l-2.3577-13.1479h0.7693 c0.2764,0,0.5-0.2236,0.5-0.5s-0.2236-0.5-0.5-0.5h-0.9487l-0.517-2.8832l5.2177-1.9957c0.126-0.0479,0.2275-0.1455,0.2808-0.2695 s0.0542-0.2642,0.0024-0.3892l-3.3887-8.1567l6.73,4.7031c0.1226,0.0854,0.2773,0.1123,0.4204,0.0723 c0.1436-0.04,0.2617-0.1421,0.3228-0.2778l2.4648-5.5186c0.0552-0.1235,0.0581-0.2637,0.0078-0.3892 C40.2485,19.1035,40.1499,19.0034,40.0249,18.9521z M39.1753,13.2681l-7.9858,1.416c-0.2653-1.0267-0.7806-1.9922-1.5353-2.791 l7.7614-3.2246L39.1753,13.2681z M29.4272,19.3833c-0.0002,0.0003-0.0005,0.0005-0.0007,0.0009 c-1.7063,2.4407-5.0814,3.0369-7.5208,1.3322c-0.0001,0-0.0001-0.0001-0.0001-0.0001c-0.0002-0.0001-0.0002-0.0002-0.0004-0.0004 c-0.0003-0.0002-0.0007-0.0005-0.001-0.0007c-1.1817-0.8267-1.9713-2.0634-2.2231-3.4836 c-0.252-1.4204,0.0649-2.8545,0.8911-4.0366l0.0001-0.0001c0.0001-0.0002,0.0003-0.0002,0.0004-0.0004 c0.0013-0.0019,0.0031-0.0038,0.0044-0.0057c0.9041-1.2896,2.2744-2.0602,3.7256-2.25c0.0389-0.0045,0.0775-0.011,0.1164-0.0149 c0.1953-0.0212,0.3917-0.0346,0.5886-0.0346c1.0679,0,2.146,0.3149,3.0859,0.9717c1.1831,0.8267,1.9731,2.0645,2.2251,3.4849 c0.252,1.4209-0.0649,2.8545-0.8911,4.0371c0,0.0001-0.0001,0.0001-0.0001,0.0001 C29.4275,19.3831,29.4274,19.3832,29.4272,19.3833z M28.3906,2.1216l4.4971,2.0078l-4.6453,6.6464 c-0.9572-0.5637-2.0103-0.8531-3.0626-0.8809L28.3906,2.1216z M17.3799,3.8726l4.5991-1.7593l1.416,7.9863 c-1.0265,0.2655-1.9918,0.7808-2.7904,1.5351L17.3799,3.8726z M10.8325,12.8979l2.0078-4.4971l6.6461,4.6447 c-0.5536,0.9381-0.8571,1.9847-0.8856,3.0604L10.8325,12.8979z M10.8247,19.3091l7.9832-1.4155 c0.2717,1.055,0.7974,2.0097,1.5378,2.7905l-7.7612,3.2245L10.8247,19.3091z M21.765,21.79 c0.9571,0.563,2.0054,0.8578,3.0576,0.8854l-3.2132,7.7806l-4.4971-2.0083L21.765,21.79z M21.8691,34.3335l0.5981-3.3355 l3.2413-7.8486l1.4336,8.085c0.0117,0.0667,0.0403,0.1273,0.0762,0.1827l0.5229,2.9164H21.8691z M32.6201,28.7046l-4.5991,1.7593 l-1.4162-7.9871c1.0272-0.2656,1.9875-0.7889,2.7864-1.5444L32.6201,28.7046z M37.1597,24.1763l-6.6469-4.6448 c0.5636-0.9572,0.8531-2.0103,0.8811-3.0626l7.7736,3.2108L37.1597,24.1763z" stroke-width="0"/> <path d="M26.5962,14.0049c-0.6104-0.4263-1.3496-0.5894-2.0825-0.46c-0.7329,0.1299-1.3716,0.5376-1.7974,1.1479 c-0.8804,1.2593-0.5713,3,0.6875,3.8794c0.4736,0.3311,1.0249,0.5034,1.5903,0.5034c0.1636,0,0.3281-0.0142,0.4922-0.0435 c0.7329-0.1299,1.3711-0.5371,1.7974-1.147c0.4268-0.6104,0.5898-1.3501,0.46-2.083 C27.6138,15.0698,27.2061,14.4312,26.5962,14.0049z M26.4644,17.312c-0.2734,0.3911-0.6826,0.6523-1.1523,0.7358 c-0.4707,0.0825-0.9443-0.022-1.3354-0.2949c-0.3911-0.2734-0.6523-0.6826-0.7354-1.1523 c-0.0835-0.4697,0.0215-0.9438,0.2944-1.3354c0.2734-0.3911,0.6826-0.6523,1.1523-0.7354 c0.1055-0.0186,0.2109-0.0278,0.3159-0.0278c0.3623,0,0.7158,0.1104,1.019,0.3223C26.8306,15.3887,27.0283,16.5049,26.4644,17.312 z" stroke-width="0"/> </g> </g> <g id="Margin" class="st1"> <rect x="1" y="1" class="st2" /> </g> <g id="Guides" class="st1"> </g> <g id="LABELS"> <g> <g> <g> <g> <g> <g> </g> </g> </g> </g> </g> </g> </g> </svg> 