<?xml version="1.0" encoding="UTF-8"?><svg width="70" height="70" xmlns="http://www.w3.org/2000/svg" viewBox="-10 -10 70 70"><rect x="-10" y="-10" width="70" height="70" fill="white"/><g id="uuid-6676d71c-689f-403e-aa29-b16940c9bed6"><path d="M22.91,21.32s.01-.08,.01-.12c-1.08,.47-2.21,1-3.41,1.63-6.32,3.31-9.3,6.13-9.19,6.79,.46,.44,4.48-.38,10.8-3.69,1.08-.56,2.14-1.17,3.17-1.79-.84-.66-1.39-1.67-1.39-2.81Z" fill="#ffcd00" stroke-width="0"/><path d="M27.81,37.74h0l-.72-12.89c-.08,.01-.16,.02-.24,.02-.12,.01-.23,.04-.35,.04-.1,0-.19-.02-.29-.03-.12,0-.25-.02-.37-.04-.09-.02-.18-.05-.27-.07-.03,0-.05-.01-.08-.02l-.66,13.03h0c-.2,4.01-.41,8.01-.61,12.02h4.27c-.22-4.02-.45-8.04-.67-12.06Z" fill="#ffcd00" stroke-width="0"/><path d="M28.02,18.07c.1-1.35,.16-2.71,.16-4.09,0-7.03-1.15-11.08-1.76-11.28-.59,.2-1.74,4.25-1.74,11.28,0,1.28,.01,2.42,.08,3.56,.16-.03,.33-.07,.5-.07,.4,0,.77,.1,1.1,.26,.05,0,.1-.01,.15-.01,.54,0,1.05,.13,1.51,.35Z" fill="#ffcd00" stroke-width="0"/><path d="M33.41,22.83c-1.12-.58-2.23-1.11-3.33-1.6,0,.03,0,.06,0,.09,0,1.16-.56,2.19-1.42,2.84,1.01,.61,2.04,1.21,3.11,1.76,6.19,3.24,10.3,4.11,10.8,3.68,.07-.67-2.9-3.48-9.18-6.77Z" fill="#ffcd00" stroke-width="0"/><polygon points="41.35 28.34 41.35 28.34 41.35 28.34 41.35 28.34"/><path d="M32.63,20.69c-1.35-.71-2.71-1.35-4.02-1.92,0-.02-.02-.04-.03-.05-.05-.12-.12-.24-.18-.36-.18-.33-.39-.64-.66-.91,.13-1.55,.19-3.13,.19-4.72,0-.5-.03-12.28-2.75-12.28s-2.75,11.78-2.75,12.28c0,1.77,.01,3.27,.17,4.9-.3,.32-.53,.7-.69,1.11-1.28,.53-2.66,1.19-4.1,1.94-4.4,2.3-9.09,5.44-9.66,7.27-.12,.4-.04,.68,.05,.85,1.27,2.4,11.71-3.03,12.15-3.26,.98-.51,1.93-1.05,2.86-1.61l-.63,12.43c-2.05-.37-4.06-1.11-5.92-2.24-.95-.58-1.85-1.25-2.66-1.99-.2-.19-.52-.17-.71,.03s-.17,.52,.03,.71c.86,.79,1.81,1.49,2.81,2.11,2.01,1.22,4.18,2.01,6.39,2.4l-.59,11.63c0,.14,.04,.27,.14,.37,.09,.1,.23,.16,.36,.16h5.32c.14,0,.27-.06,.36-.16,.09-.1,.14-.23,.14-.37l-.64-11.48c3.57-.4,7.04-1.84,9.91-4.33,.21-.18,.23-.5,.05-.71s-.5-.23-.71-.05c-2.7,2.33-5.95,3.7-9.31,4.08l-.71-12.8c1.04,.63,2.11,1.24,3.22,1.82,3.77,1.98,8.46,3.88,10.74,3.88,.29,0,.54-.03,.74-.1,.39-.12,.58-.35,.67-.52s.17-.46,.05-.85c-.57-1.83-5.25-4.97-9.65-7.27Zm-6.36,1.76s-.04,.01-.07,.02c-.05,.02-.1,.03-.15,.05-.13,.04-.27,.08-.41,.1-.03,0-.07,0-.1,.01-.13,.01-.26,.02-.38,.02-.05,0-.09,0-.14-.01-.11,0-.23-.02-.34-.05-.07-.02-.14-.04-.21-.06-.08-.03-.17-.05-.25-.08-.92-.4-1.56-1.31-1.56-2.37,0-.33,.07-.64,.18-.93,.03-.07,.06-.14,.09-.2,.42-.86,1.3-1.46,2.32-1.46,.69,0,1.31,.27,1.77,.71,.09,.09,.18,.19,.26,.29,.06,.07,.12,.15,.17,.23,.1,.16,.18,.33,.24,.51,.1,.27,.16,.56,.16,.86,0,1.07-.65,1.99-1.58,2.38ZM25.16,1.45c.62,.2,1.76,4.25,1.76,11.28,0,1.37-.06,2.74-.16,4.09-.46-.22-.97-.35-1.51-.35-.62,0-1.2,.17-1.71,.45-.1-1.36-.12-2.68-.12-4.2,0-7.03,1.15-11.08,1.74-11.28Zm-5.28,23.22c-6.33,3.31-10.34,4.14-10.8,3.69-.11-.65,2.86-3.48,9.19-6.79,1.19-.63,2.32-1.16,3.41-1.63,0,.04-.01,.08-.01,.12,0,1.15,.55,2.16,1.39,2.81-1.03,.62-2.08,1.23-3.17,1.79Zm7.35,23.87h-4.27l.56-11.01c.7,.08,1.4,.13,2.1,.13,.33,0,.67-.03,1-.04l.61,10.92Zm-3.65-12.02l.66-13.03s.05,.01,.08,.02c.09,.02,.18,.05,.27,.07,.12,.02,.25,.03,.37,.04,.1,0,.19,.03,.29,.03,.12,0,.23-.02,.35-.04,.08,0,.16-.01,.24-.02l.73,13.03c-1,.05-1.99,.02-2.99-.1Zm6.95-11.86c-1.07-.55-2.1-1.15-3.11-1.76,.86-.66,1.42-1.68,1.42-2.84,0-.03,0-.06,0-.09,1.09,.49,2.21,1.02,3.33,1.6,6.28,3.29,9.25,6.1,9.18,6.77-.51,.43-4.62-.44-10.8-3.68Zm10.81,3.67h0Z" stroke-width="0"/><path d="M8.35,23.34c-.21-1.08-.32-2.19-.32-3.31,0-7.51,4.8-14.1,11.95-16.4,.26-.08,.41-.37,.32-.63-.08-.26-.37-.41-.63-.32C12.11,5.11,7.03,12.08,7.03,20.03c0,1.18,.11,2.35,.34,3.5,.05,.24,.26,.4,.49,.4,.03,0,.06,0,.1,0,.27-.05,.45-.32,.4-.59Z" stroke-width="0"/><path d="M30.32,2.65c-.26-.08-.54,.06-.63,.32-.08,.26,.06,.54,.32,.63,7.15,2.29,11.95,8.88,11.95,16.4,0,1.11-.11,2.23-.32,3.31-.05,.27,.12,.53,.4,.59,.03,0,.06,0,.1,0,.23,0,.44-.17,.49-.4,.22-1.14,.34-2.32,.34-3.5,0-7.95-5.08-14.92-12.64-17.35Z" stroke-width="0"/></g><g id="uuid-8293aae1-5a5d-47f9-9682-7d5187069355"></g></svg>