<?xml version="1.0" encoding="UTF-8"?><svg width="70" height="70" xmlns="http://www.w3.org/2000/svg" viewBox="-10 -10 70 70"><rect x="-10" y="-10" width="70" height="70" fill="white"/><g id="uuid-56182a7b-a012-45bf-ab8f-dd1b3ac29b82"><g><path d="M7.77,25.53c-1.27-.78-2.87-1.01-4.43-.65,.18,1.37,.98,2.56,2.21,3.32h0c1.27,.78,2.86,1.01,4.43,.65-.18-1.37-.97-2.56-2.21-3.32Z" fill="#ffcd00" stroke-width="0"/><path d="M2.87,15.92c-.23,1.37,.18,2.71,1.15,3.72,1,1.04,2.48,1.63,4.1,1.64,.23-1.37-.18-2.71-1.15-3.72-1-1.04-2.48-1.63-4.1-1.64Z" fill="#ffcd00" stroke-width="0"/><path d="M12.84,10.94c.31-1.31-.07-2.67-1.04-3.79-1.42,.69-2.4,1.82-2.71,3.15-.31,1.31,.07,2.67,1.04,3.79,1.42-.69,2.4-1.82,2.71-3.15Z" fill="#ffcd00" stroke-width="0"/><path d="M15.13,26.27c.78-1.14,.95-2.52,.47-3.84-1.61,.23-2.96,1.01-3.77,2.18-.78,1.14-.95,2.52-.47,3.84,1.6-.23,2.96-1.01,3.77-2.18Z" fill="#ffcd00" stroke-width="0"/><path d="M18.99,30.86c.21-1.33-.27-2.67-1.32-3.73-1.36,.77-2.25,1.95-2.46,3.29-.21,1.33,.27,2.67,1.32,3.73,1.36-.77,2.25-1.95,2.46-3.29Z" fill="#ffcd00" stroke-width="0"/><path d="M11.68,32.52c-1.5-.27-3.05,.07-4.32,.93,.79,1.2,2.06,2.02,3.55,2.29,1.5,.27,3.05-.07,4.32-.93-.79-1.2-2.06-2.02-3.55-2.29Z" fill="#ffcd00" stroke-width="0"/><path d="M47.48,19.64c.97-1.01,1.38-2.35,1.15-3.72-1.62,0-3.1,.59-4.1,1.64-.97,1.01-1.38,2.35-1.15,3.72,1.62,0,3.1-.59,4.1-1.64Z" fill="#ffcd00" stroke-width="0"/><path d="M13.73,19.84c1.09-.92,1.65-2.21,1.59-3.59-1.61-.13-3.15,.31-4.27,1.25-1.09,.92-1.65,2.21-1.59,3.59,1.62,.14,3.15-.31,4.27-1.25Z" fill="#ffcd00" stroke-width="0"/><path d="M40.45,17.51c-1.12-.95-2.65-1.39-4.27-1.25-.06,1.38,.5,2.67,1.59,3.59,1.12,.95,2.66,1.39,4.27,1.25,.06-1.38-.5-2.67-1.59-3.59Z" fill="#ffcd00" stroke-width="0"/><path d="M42.41,10.3c-.31-1.33-1.29-2.46-2.71-3.15-.97,1.12-1.35,2.48-1.04,3.79,.31,1.33,1.29,2.46,2.71,3.15,.97-1.12,1.35-2.48,1.04-3.79Z" fill="#ffcd00" stroke-width="0"/><path d="M24.04,37.52c.07-.08,.13-.16,.2-.24,.66-1.15,.79-2.43,.34-3.6h0c-.5-1.29-1.63-2.31-3.14-2.83-.8,1.21-.98,2.6-.49,3.86,.49,1.27,1.61,2.28,3.09,2.81Z" fill="#ffcd00" stroke-width="0"/><path d="M43.74,25.53c-1.24,.76-2.03,1.95-2.21,3.32,1.57,.36,3.16,.13,4.43-.65,1.24-.76,2.03-1.95,2.21-3.32-1.56-.36-3.16-.13-4.43,.65Z" fill="#ffcd00" stroke-width="0"/><path d="M35.9,22.43c-.47,1.32-.31,2.71,.47,3.84,.8,1.17,2.16,1.95,3.77,2.18,.47-1.32,.31-2.71-.47-3.84-.8-1.17-2.16-1.95-3.77-2.18Z" fill="#ffcd00" stroke-width="0"/><path d="M36.28,34.81c1.27,.85,2.81,1.19,4.32,.93,1.49-.26,2.76-1.09,3.55-2.29-1.26-.86-2.81-1.19-4.32-.93-1.49,.26-2.76,1.09-3.55,2.29Z" fill="#ffcd00" stroke-width="0"/><path d="M18.84,38.07c-1.46,.36-2.65,1.27-3.33,2.51,1.34,.77,2.92,1.01,4.4,.64,1.46-.36,2.65-1.27,3.33-2.52-1.34-.77-2.92-1-4.4-.63Z" fill="#ffcd00" stroke-width="0"/><path d="M27.45,37.53c1.49-.53,2.61-1.54,3.1-2.82,.49-1.26,.31-2.65-.49-3.86-1.51,.53-2.64,1.55-3.14,2.83-.47,1.2-.32,2.52,.39,3.69,.05,.05,.09,.1,.14,.16Z" fill="#ffcd00" stroke-width="0"/><path d="M25.72,37.25c-1.2,.93-1.88,2.21-1.86,3.55,.02,1.35,.73,2.62,1.97,3.54,1.2-.93,1.88-2.21,1.86-3.55-.02-1.35-.73-2.62-1.97-3.54Z" fill="#ffcd00" stroke-width="0"/><path d="M28.27,38.7c.68,1.25,1.88,2.15,3.33,2.52,1.48,.37,3.06,.14,4.39-.64-.68-1.25-1.88-2.15-3.33-2.51-1.48-.37-3.06-.14-4.39,.63Z" fill="#ffcd00" stroke-width="0"/><path d="M36.29,30.42c-.21-1.34-1.1-2.52-2.46-3.29-1.05,1.06-1.53,2.4-1.32,3.73,.21,1.34,1.1,2.52,2.46,3.29,1.05-1.06,1.53-2.4,1.32-3.73Z" fill="#ffcd00" stroke-width="0"/><path d="M48.09,23.28c-1.96-.58-4.01-.34-5.63,.65-.22,.13-.42,.28-.61,.43,.26-.94,.42-1.89,.51-2.84,.08,0,.16,0,.24,0,1.91,0,3.66-.7,4.85-1.95,1.3-1.36,1.78-3.19,1.32-5.02-.05-.21-.24-.37-.46-.38-2.06-.11-3.98,.6-5.26,1.94-.34,.36-.63,.75-.85,1.17-.18-1.1-.47-2.19-.88-3.26,1.21-1.37,1.69-3.06,1.3-4.71-.41-1.74-1.72-3.19-3.61-3.98-.19-.08-.41-.04-.55,.11-1.39,1.41-1.95,3.22-1.53,4.97,.4,1.69,1.65,3.1,3.45,3.9,.31,.8,.55,1.62,.72,2.45-.22-.28-.47-.54-.75-.78-1.43-1.21-3.41-1.73-5.45-1.43-.22,.03-.39,.21-.42,.43-.24,1.87,.45,3.64,1.9,4.87,1.17,.99,2.7,1.51,4.34,1.51,.22,0,.44-.03,.67-.05-.11,1.31-.39,2.61-.83,3.87-.14-.67-.4-1.31-.81-1.9-1.03-1.5-2.81-2.47-4.87-2.65-.21-.02-.41,.1-.5,.29-.78,1.75-.62,3.63,.43,5.15,.9,1.31,2.36,2.21,4.08,2.54-.7,1.1-1.52,2.15-2.51,3.12,.22-.72,.29-1.48,.17-2.24-.28-1.76-1.49-3.29-3.32-4.19-.18-.09-.4-.06-.55,.08-1.49,1.32-2.18,3.1-1.89,4.87,.25,1.55,1.21,2.92,2.68,3.84-1.21,.8-2.51,1.47-3.86,2,.5-.52,.89-1.12,1.15-1.78,.66-1.7,.35-3.56-.83-5.11-.13-.16-.34-.23-.54-.18-1.98,.58-3.48,1.87-4.13,3.54-.11,.29-.19,.58-.24,.88-.06-.3-.13-.59-.24-.88h0c-.65-1.67-2.15-2.96-4.13-3.54-.2-.05-.41,.01-.54,.18-1.18,1.55-1.48,3.42-.83,5.11,.26,.66,.65,1.26,1.15,1.78-1.35-.53-2.65-1.19-3.86-2,1.47-.92,2.43-2.29,2.68-3.84,.28-1.77-.41-3.55-1.89-4.87-.15-.14-.37-.17-.55-.08-1.83,.9-3.04,2.43-3.32,4.19-.12,.76-.05,1.52,.17,2.24-.99-.98-1.81-2.03-2.51-3.12,1.72-.33,3.18-1.23,4.08-2.54,1.05-1.53,1.2-3.4,.43-5.15-.09-.2-.29-.31-.5-.29-2.06,.18-3.84,1.15-4.87,2.65-.41,.59-.67,1.23-.81,1.9-.44-1.27-.72-2.56-.83-3.87,.22,.02,.45,.05,.67,.05,1.63,0,3.17-.53,4.34-1.51,1.45-1.23,2.14-3,1.9-4.87-.03-.22-.2-.4-.42-.43-2.04-.29-4.02,.23-5.45,1.43-.28,.24-.53,.51-.75,.79,.17-.83,.41-1.65,.72-2.46,1.8-.81,3.05-2.22,3.45-3.9,.41-1.75-.15-3.57-1.53-4.97-.14-.15-.36-.19-.55-.11-1.89,.79-3.2,2.24-3.61,3.98-.39,1.65,.09,3.34,1.3,4.71-.4,1.06-.69,2.15-.88,3.26-.23-.42-.51-.81-.85-1.17-1.28-1.34-3.2-2.04-5.26-1.94-.22,.01-.41,.16-.46,.38-.46,1.83,.02,3.67,1.32,5.02,1.2,1.25,2.95,1.95,4.86,1.95,.08,0,.16,0,.24,0,.09,.96,.26,1.91,.51,2.84-.19-.15-.4-.3-.61-.43-1.62-.99-3.67-1.23-5.63-.65-.22,.06-.37,.27-.36,.5,.09,1.87,1.08,3.52,2.72,4.53,1.04,.64,2.26,.96,3.51,.96,.7,0,1.41-.1,2.12-.31,.08-.02,.14-.07,.2-.12,.43,.71,.92,1.39,1.47,2.06-.16-.04-.31-.08-.47-.11-1.93-.34-3.92,.16-5.46,1.38-.19,.15-.25,.42-.13,.63,.91,1.67,2.54,2.82,4.48,3.17,.39,.07,.79,.1,1.19,.1,1.54,0,3.05-.52,4.28-1.49,.02-.02,.04-.04,.05-.06,.93,.65,1.91,1.22,2.93,1.71-.2,.03-.39,.06-.59,.11-1.9,.47-3.43,1.74-4.2,3.47-.1,.22-.02,.48,.18,.62,1.18,.79,2.55,1.21,3.92,1.21,.55,0,1.1-.07,1.64-.2,1.05-.26,1.98-.77,2.73-1.46,0,.03,0,.06,0,.08,.03,1.79,1.01,3.45,2.7,4.56,.08,.05,.18,.08,.27,.08s.2-.03,.28-.09c1.65-1.13,2.59-2.8,2.57-4.58,.75,.66,1.65,1.14,2.67,1.4,.54,.13,1.09,.2,1.64,.2,1.38,0,2.75-.41,3.92-1.21,.2-.13,.28-.39,.18-.62-.76-1.73-2.29-2.99-4.2-3.47-.19-.05-.39-.08-.59-.11,1.02-.49,2-1.06,2.93-1.71,.02,.02,.03,.04,.05,.06,1.23,.97,2.74,1.49,4.28,1.49,.4,0,.79-.03,1.19-.1,1.94-.34,3.57-1.5,4.48-3.17,.12-.21,.06-.48-.13-.63-1.55-1.22-3.54-1.73-5.46-1.38-.16,.03-.31,.07-.47,.11,.55-.66,1.03-1.35,1.47-2.05,.06,.05,.12,.1,.2,.12,.7,.21,1.41,.31,2.11,.31,1.26,0,2.48-.33,3.51-.96h0c1.64-1.01,2.63-2.66,2.72-4.53,.01-.23-.14-.44-.36-.5Zm-4.31-6.47c1-1.04,2.48-1.63,4.1-1.64,.23,1.37-.18,2.71-1.15,3.72-1,1.04-2.48,1.63-4.1,1.64-.23-1.37,.18-2.71,1.15-3.72Zm-3.16-3.47c-1.42-.69-2.4-1.82-2.71-3.15-.31-1.31,.07-2.67,1.04-3.79,1.42,.69,2.4,1.82,2.71,3.15,.31,1.31-.07,2.67-1.04,3.79Zm-3.6,5.75c-1.09-.92-1.65-2.21-1.59-3.59,1.62-.14,3.15,.31,4.27,1.25,1.09,.92,1.65,2.21,1.59,3.59-1.62,.14-3.15-.31-4.27-1.25Zm-26.71-2.33c1.12-.95,2.66-1.39,4.27-1.25,.06,1.38-.5,2.67-1.59,3.59-1.12,.95-2.65,1.39-4.27,1.25-.06-1.38,.5-2.67,1.59-3.59Zm-1.96-7.21c.31-1.33,1.29-2.46,2.71-3.15,.97,1.12,1.35,2.48,1.04,3.79-.31,1.33-1.29,2.46-2.71,3.15-.97-1.12-1.35-2.48-1.04-3.79Zm-.97,10.98c-1.62,0-3.1-.59-4.1-1.64-.97-1.01-1.38-2.35-1.15-3.72,1.62,0,3.1,.59,4.1,1.64,.97,1.01,1.38,2.35,1.15,3.72Zm-2.58,6.93h0c-1.24-.76-2.03-1.95-2.21-3.32,1.56-.36,3.16-.13,4.43,.65,1.24,.76,2.03,1.95,2.21,3.32-1.56,.36-3.16,.13-4.43-.65Zm6.29-3.59c.8-1.17,2.16-1.95,3.77-2.18,.47,1.32,.31,2.71-.47,3.84-.8,1.17-2.16,1.95-3.77,2.18-.47-1.32-.31-2.71,.47-3.84Zm-.93,11.12c-1.49-.26-2.76-1.09-3.55-2.29,1.27-.86,2.82-1.19,4.32-.93,1.49,.26,2.76,1.09,3.55,2.29-1.27,.86-2.82,1.19-4.32,.93Zm4.3-5.32c.21-1.34,1.1-2.52,2.46-3.29,1.05,1.06,1.53,2.4,1.32,3.73-.21,1.34-1.1,2.52-2.46,3.29-1.05-1.06-1.53-2.4-1.32-3.73Zm11.72,3.26c.5-1.29,1.63-2.31,3.14-2.83,.8,1.21,.98,2.6,.49,3.86-.49,1.28-1.61,2.29-3.1,2.82-.04-.05-.09-.1-.14-.16-.71-1.17-.86-2.49-.39-3.69Zm-5.98,1.03c-.49-1.26-.31-2.65,.49-3.86,1.51,.53,2.64,1.55,3.14,2.83h0c.45,1.17,.32,2.45-.34,3.6-.07,.08-.14,.16-.2,.24-1.48-.53-2.6-1.54-3.09-2.81Zm-1.05,6.51c-1.48,.37-3.06,.14-4.4-.64,.68-1.25,1.88-2.15,3.33-2.51,1.48-.37,3.06-.14,4.4,.63-.68,1.25-1.88,2.15-3.33,2.52Zm5.94,3.13c-1.24-.92-1.95-2.19-1.97-3.54-.02-1.35,.65-2.62,1.86-3.55,1.23,.92,1.95,2.19,1.97,3.54,.02,1.35-.65,2.62-1.86,3.55Zm6.83-6.28c1.46,.36,2.65,1.27,3.33,2.51-1.34,.77-2.92,1.01-4.39,.64-1.46-.36-2.65-1.27-3.33-2.52,1.34-.77,2.92-1,4.39-.63Zm2.31-3.92c-1.36-.77-2.25-1.95-2.46-3.29-.21-1.33,.27-2.67,1.32-3.73,1.36,.77,2.25,1.95,2.46,3.29,.21,1.33-.27,2.67-1.32,3.73Zm4.85-1.63c1.5-.27,3.05,.07,4.32,.93-.79,1.2-2.06,2.02-3.55,2.29-1.51,.26-3.05-.07-4.32-.93,.79-1.2,2.06-2.02,3.55-2.29Zm.31-4.07c-1.61-.23-2.96-1.01-3.77-2.18-.78-1.14-.95-2.52-.47-3.84,1.6,.23,2.96,1.01,3.77,2.18,.78,1.14,.95,2.52,.47,3.84Zm5.82-.25c-1.27,.78-2.86,1.01-4.43,.65,.18-1.37,.98-2.56,2.21-3.32,1.27-.78,2.87-1.01,4.43-.65-.19,1.37-.98,2.56-2.21,3.32Z" stroke-width="0"/></g></g><g id="uuid-104213ee-ed90-4119-8cf6-b076f2b51545"></g></svg>