<?xml version="1.0" encoding="UTF-8"?><svg width="70" height="70" xmlns="http://www.w3.org/2000/svg" viewBox="-10 -10 70 70"><rect x="-10" y="-10" width="70" height="70" fill="white"/><g id="uuid-e68a41f9-b848-4085-a9de-fa78a52ab316"><path d="M13.82,19.85c1.82-1.67,4.25-2.55,6.8-2.49-2.77,2.66-4.25,6.32-4.05,10.1l.41,7.86c.08,1.62.53,3.16,1.25,4.56-2.99-.57-5.39-2.51-6.42-5.04-.13-.33-.25-.67-.33-1.01-.11-.44-.18-.89-.2-1.35l-.12-2.22-.06-1.21-.12-2.33c-.14-2.58.9-5.09,2.84-6.87Z" fill="#ffcd00" stroke-width="0"/><path d="M39.82,31.61c.25-.62.73-1.1,1.34-1.36.62-.26,1.59.02,2.2.27l.33.13c.99-3.3.53-6.87-1.32-9.87-.04-.05-.08-.1-.12-.15l-1-1.46-1.32,3.22-1.16.95-2.09-.26c-.27-.61-.66-1.47-.41-2.09l1.68-4.53c-1.06-.64-2.2-1.15-3.38-1.49-.66-.19-1.34-.33-2.02-.4-.19-.02-2.16-.19-2.17-.09l-.55,3.14-.37,2.28-1.31.75-.86.14-1.27-.53-.02-1.03.45-3.29.12-.87c-1.86.57-3.58,1.53-5.02,2.85-2.69,2.47-4.13,5.95-3.94,9.54l.41,7.86c.08,1.65.57,3.2,1.38,4.59l.76-.71,1.54-.34,1.04.28.56.79.25,1.09-.68,1.28-1.04.81,1.6.88c1.45.87,3.11,1.48,4.91,1.73,4.76.65,9.27-1.37,11.61-4.95l.45-.68-2.43-1.14-.66-.95.32-.97c.25-.62.73-1.1,1.34-1.37.62-.26,1.49-.07,2.1.18l.79.31.55-1.65-1.94-.76-.82-1.31.16-.81ZM26.03,33.12c-.71,0-1.28-.57-1.28-1.28s.57-1.28,1.28-1.28,1.28.57,1.28,1.28-.57,1.28-1.28,1.28ZM26.86,27.17c-.71,0-1.28-.57-1.28-1.28s.57-1.28,1.28-1.28,1.28.57,1.28,1.28-.57,1.28-1.28,1.28ZM31.98,33.94c-.71,0-1.28-.57-1.28-1.28s.57-1.28,1.28-1.28,1.28.57,1.28,1.28-.57,1.28-1.28,1.28ZM32.8,27.99c-.71,0-1.28-.57-1.28-1.28s.57-1.28,1.28-1.28,1.28.57,1.28,1.28-.57,1.28-1.28,1.28Z" fill="#ffcd00" stroke-width="0"/></g><g id="uuid-1c9873b1-989d-4953-b2fa-010e12f4149d"><path d="M34.58,25.6c-.05-.08-.09-.16-.14-.23-.34-.46-.84-.75-1.41-.83-.56-.07-1.12.07-1.58.42-.45.34-.75.84-.82,1.41-.08.56.07,1.12.41,1.58.18.24.41.43.67.57.23.13.48.21.74.25.1.02.2.02.3.02.46,0,.91-.15,1.28-.43.46-.34.75-.85.83-1.41.06-.48-.04-.94-.28-1.35ZM33.43,27.56c-.24.18-.55.26-.84.22-.3-.04-.57-.19-.75-.44-.17-.22-.24-.49-.22-.77,0-.02,0-.05,0-.07.04-.3.19-.56.44-.75.17-.13.38-.2.6-.22.03,0,.05-.01.08-.01.05,0,.1.01.16.01.3.05.56.2.75.44.18.24.26.54.22.84-.05.3-.2.57-.44.75Z" stroke-width="0"/><path d="M33.62,31.32c-.34-.46-.84-.75-1.41-.83-.55-.07-1.12.07-1.58.42-.45.34-.75.84-.82,1.41-.08.56.07,1.12.41,1.58.18.24.41.42.66.57.23.13.48.22.75.25.1.02.2.02.3.02.46,0,.91-.15,1.28-.43.46-.35.75-.85.83-1.41.07-.48-.04-.94-.27-1.35-.05-.08-.09-.16-.15-.23ZM32.61,33.51c-.24.18-.54.26-.84.22-.3-.04-.57-.2-.75-.44-.17-.22-.24-.49-.22-.77,0-.02,0-.05,0-.07.04-.3.2-.56.44-.75.18-.13.38-.2.6-.22.03,0,.05-.01.08-.01.05,0,.1.01.16.01.3.05.56.2.75.44.18.24.26.54.22.84-.05.3-.2.57-.44.75Z" stroke-width="0"/><path d="M28.49,24.55c-.34-.45-.84-.75-1.41-.82-.55-.08-1.12.06-1.58.41-.45.34-.75.84-.82,1.41-.08.56.07,1.13.41,1.58.18.24.41.43.66.57.23.13.48.22.75.25.1.02.2.03.29.03,1.05,0,1.97-.78,2.12-1.85.07-.47-.03-.94-.27-1.34-.05-.08-.09-.16-.15-.24ZM26.64,26.96c-.3-.04-.57-.19-.75-.43-.17-.23-.24-.5-.22-.78,0-.02,0-.04,0-.06.04-.31.2-.57.44-.75.18-.14.38-.21.6-.23.03,0,.05-.01.08-.01.05,0,.1,0,.16.02.3.04.56.19.75.43.18.25.26.54.22.84-.09.62-.67,1.06-1.28.97Z" stroke-width="0"/><path d="M27.67,30.5c-.34-.46-.84-.75-1.41-.83-.55-.07-1.12.07-1.58.42-.45.34-.74.84-.82,1.41-.08.56.07,1.12.41,1.58.18.24.41.43.67.57.23.13.48.22.74.25.1.02.2.02.3.02.46,0,.91-.15,1.28-.43.46-.34.75-.85.83-1.41.07-.48-.04-.94-.27-1.35-.05-.08-.09-.16-.15-.23ZM26.66,32.69c-.24.19-.54.26-.84.22-.3-.04-.57-.19-.75-.44-.16-.22-.23-.49-.22-.76,0-.03,0-.05,0-.08.04-.3.2-.56.44-.75.18-.13.39-.2.6-.22.03,0,.05-.01.08-.01.05,0,.11.01.16.01.3.05.56.2.75.44.18.24.26.54.22.84-.04.3-.2.57-.44.75Z" stroke-width="0"/><path d="M40.98,30.6c-.37.15-.65.44-.8.81-.31.77.06,1.65.83,1.96l.56.22.93.38,3.54,1.42c.75.31,1.65-.08,1.95-.83.31-.77-.07-1.64-.83-1.95l-3.7-1.49-.93-.37-.4-.17c-.18-.07-.37-.11-.56-.11-.2,0-.4.05-.59.13ZM39.28,35.79c-.2,0-.4.04-.59.12-.37.16-.65.45-.8.82-.31.77.06,1.65.83,1.96l.88.35.93.38,3.22,1.29c.75.31,1.64-.08,1.95-.83.31-.77-.07-1.64-.83-1.95l-3.26-1.31-.93-.38-.84-.34c-.18-.07-.37-.11-.56-.11ZM37.53,3.34c-1.39-.55-2.92-.55-4.48-.05,1.89.54,3.53,1.71,4.62,3.37,1.54,2.35,1.88,5.44,1,8.81-.08.33-.18.67-.3,1.01-.02.06-.03.13-.05.19l-1.59,4.02c-.15.37-.14.78.02,1.14.16.37.45.66.82.8.77.31,1.64-.07,1.95-.84l1.19-3,.03-.08c.13-.34.25-.67.36-1,1.02-3.02,1.28-6.06.71-8.67-.61-2.83-2.14-4.85-4.28-5.7ZM30.54,10.02c.13.84.2,1.72.21,2.63.38.02.76.04,1.14.09,2.15.3,4.15,1.03,5.91,2.12.67-2.85.38-5.44-.85-7.45l-.89-.35c-.96-.38-2.35.05-3.73,1.14-.64.5-1.23,1.11-1.79,1.82ZM30.51,4.56c-.45.31-.88.66-1.29,1.04.46.95.82,2.01,1.08,3.15.45-.5.92-.95,1.41-1.34,1.43-1.13,2.88-1.63,4.09-1.44-1.17-1.12-2.7-1.81-4.38-1.97-.3.17-.61.35-.91.56ZM18.41,2.49c1.97.06,3.84.81,5.3,2.17.95.88,1.68,1.98,2.19,3.24.16.38.3.78.41,1.19.33,1.17.49,2.45.48,3.82,0,.34-.02.69-.05,1.03-.01.1,0,.19-.01.28l-.14,1-.45,3.29c-.11.81.46,1.57,1.28,1.69.83.11,1.58-.47,1.69-1.29l.45-3.28c.1-.69.15-1.36.17-2.03.02-.33.02-.66.02-.98-.01-.47-.03-.92-.07-1.37-.04-.51-.11-1.01-.19-1.49-.22-1.25-.56-2.41-1.03-3.44-.15-.33-.31-.64-.48-.94-1.22-2.17-3.02-3.61-5.19-3.91-1.52-.21-3.01.17-4.38,1.02ZM25.72,14.21c-1.86.57-3.58,1.53-5.02,2.85-2.69,2.47-4.13,5.95-3.94,9.54l.41,7.86c.09,1.88.72,3.64,1.74,5.17l1.14-.87c1.1-.83,2.67-.61,3.51.48.4.54.57,1.2.48,1.86s-.43,1.24-.97,1.65l-.5.38c1.45.87,3.11,1.48,4.91,1.73,4.76.65,9.27-1.37,11.61-4.95l-.74-.3c-1.28-.51-1.9-1.97-1.39-3.25.25-.62.73-1.1,1.34-1.37.62-.26,1.3-.26,1.91-.01l.79.31.25-.75-.61-.25c-1.28-.51-1.9-1.97-1.39-3.25.25-.62.73-1.1,1.34-1.36.62-.26,1.3-.27,1.91-.02l.33.13c.99-3.3.53-6.87-1.32-9.87l-.12-.15-.94,2.39c-.39.98-1.33,1.58-2.33,1.58-.31,0-.62-.06-.92-.18-.62-.24-1.11-.72-1.37-1.33-.27-.61-.28-1.29-.03-1.91l1.22-3.09.36-.91c.05-.15.09-.3.14-.45-1.7-1.1-3.65-1.85-5.76-2.14-.35-.04-.69-.08-1.03-.1-.03.7-.08,1.41-.18,2.14l-.45,3.28c-.17,1.25-1.24,2.16-2.47,2.16-.12,0-.23-.01-.34-.02-1.37-.19-2.33-1.46-2.14-2.82l.45-3.29.12-.87ZM15.41,13.68c.76-5.52,3.74-9.02,6.32-9.25-1.4-.8-3.05-1.11-4.72-.87-2.27,2.09-4,5.56-4.57,9.71l-.79,5.73c.22-.24.44-.48.68-.7.81-.73,1.72-1.32,2.69-1.77l.39-2.85ZM22.24,5.43c-1.91-.27-5.07,2.8-5.83,8.39l-.32,2.29c1.5-.5,3.13-.67,4.79-.48.6-.48,1.24-.9,1.92-1.27.43-.24.87-.45,1.33-.64.53-.22,1.09-.41,1.65-.57.03-.98-.03-1.91-.19-2.79-.09-.49-.21-.96-.36-1.41-.43-1.34-1.12-2.48-2.04-3.39l-.95-.13ZM17.23,42.16c-1.85,1.26-3.69,2.02-5.52,2.32l.95,2.84c2.43-.49,4.9-1.65,7.17-3.37l1.04-.79.83-.62.77-.59c.66-.5.79-1.44.29-2.1s-1.44-.79-2.1-.29l-1.16.88-.8.6-.69.52-.78.6ZM11,34.03c1.03,2.53,3.43,4.47,6.42,5.04-.72-1.4-1.17-2.94-1.25-4.56l-.41-7.86c-.2-3.78,1.28-7.44,4.05-10.1-2.55-.06-4.98.82-6.8,2.49-1.94,1.78-2.98,4.29-2.84,6.87l.12,2.33.06,1.21.12,2.22c.02.46.09.91.2,1.35.08.34.2.68.33,1.01ZM7.35,36.73c.65-1.05,1.49-2.07,2.48-3-.19-.65-.33-1.32-.36-2.01l-.08-1.54c-1.87,1.42-3.42,3.1-4.54,4.89l2.5,1.66ZM8.42,38.93c-.59,1.34-.91,2.33.02,3.61.51.06,1.04.08,1.57.1.56,0,1.11.35,1.36.89,1.73-.25,3.51-.97,5.28-2.18l.76-.58.7-.53s-.02-.04-.03-.05l-.32-.05c-3.43-.47-6.25-2.57-7.54-5.38-.83.81-1.52,1.68-2.07,2.58.39.43.51,1.04.27,1.59ZM1.97,39.94c-.25,2.16.23,4.11,1.4,5.65,1.2,1.59,3.01,2.59,5.23,2.9.87.12,1.8.13,2.76.04.16-.02.29-.1.38-.23.08-.12.1-.28.05-.43l-1.3-3.89c-.07-.21-.26-.34-.48-.34h-.01c-2.72-.08-5.38-.43-8.03-3.7ZM2.21,38.61c1.66,2.31,3.27,3.28,4.95,3.7-.6-1.36-.19-2.57.35-3.78.09-.23.02-.48-.19-.62l-3.36-2.22c-.12-.08-.27-.11-.41-.07s-.25.13-.31.26c-.46.91-.81,1.83-1.03,2.73ZM8.47,49.48c-2.49-.34-4.53-1.48-5.9-3.29-1.37-1.8-1.91-4.08-1.57-6.59.05-.29.1-.59.16-.89.01-.03.02-.09.03-.14.23-1.01.62-2.08,1.15-3.14.19-.38.54-.66.95-.78.22-.05.44-.06.65-.02,1.2-1.93,2.85-3.73,4.84-5.25l.55-.41-.16-3c-.1-1.85.34-3.65,1.24-5.23l1.04-7.6C12.53,5.3,17.57-.26,22.93.48c2.42.33,4.42,1.89,5.8,4.21.39-.34.79-.66,1.21-.95,2.67-1.84,5.49-2.31,7.96-1.33,2.46.98,4.2,3.25,4.89,6.41.64,2.97.29,6.43-.97,9.82.18.25.37.49.54.76,2.02,3.26,2.51,7.17,1.4,10.76l3.77,1.52c1.28.52,1.9,1.98,1.39,3.25-.39.96-1.3,1.57-2.32,1.57-.32,0-.64-.06-.94-.18l-3.48-1.4-.25.75,3.31,1.33c1.28.52,1.9,1.98,1.38,3.25-.38.96-1.29,1.57-2.32,1.57-.32,0-.63-.06-.93-.18l-3.33-1.35c-2.21,3.51-6.29,5.69-10.78,5.69-.63,0-1.27-.04-1.92-.13-2.08-.29-3.98-1.02-5.61-2.08l-1.3.98c-2.41,1.83-5.05,3.05-7.65,3.57-.04.19-.1.36-.2.53-.26.38-.66.63-1.12.67-.45.05-.9.07-1.34.07-.56,0-1.12-.04-1.65-.11Z" stroke-width="0"/></g></svg>