<?xml version="1.0" encoding="UTF-8"?><svg width="70" height="70" xmlns="http://www.w3.org/2000/svg" viewBox="-10 -10 70 70"><rect x="-10" y="-10" width="70" height="70" fill="white"/><g id="uuid-181b1172-a2be-42a6-93b6-547029e34832"><g><path d="M28.54,22.62c9.69-.41,19.49-3.67,19.49-9.12,0-.64-.52-1.16-1.16-1.16s-1.16,.52-1.16,1.16c0,2.94-6.55,6.37-17.13,6.8-.14,.01-.27-.04-.37-.14s-.15-.22-.15-.36v-4.78c0-.27,.21-.49,.48-.5,8.65-.33,17.41-3.22,17.41-8.13,0-.64-.52-1.16-1.16-1.16s-1.16,.52-1.16,1.16c0,2.54-6.05,5.47-15.05,5.81-.13,0-.27-.04-.37-.14-.1-.09-.15-.22-.15-.36V6.76c0-.64-.52-1.16-1.16-1.16s-1.16,.52-1.16,1.16v4.94c0,.14-.06,.27-.15,.36-.1,.09-.23,.15-.37,.14-9.03-.33-15.1-3.27-15.1-5.81,0-.64-.52-1.16-1.16-1.16s-1.16,.52-1.16,1.16c0,4.92,8.78,7.82,17.46,8.13,.27,0,.48,.23,.48,.5v4.8c0,.13-.05,.26-.15,.36-.1,.09-.22,.14-.36,.14-10.87-.23-18.18-3.72-18.18-6.83,0-.64-.52-1.16-1.16-1.16s-1.16,.52-1.16,1.16c0,4.32,7.05,8.86,20.52,9.16,.27,0,.49,.23,.49,.5v5.69c0,.14-.06,.27-.15,.36-.1,.09-.23,.15-.37,.14-7.17-.31-12.16-2.7-12.16-4.66,0-.64-.52-1.16-1.16-1.16s-1.16,.52-1.16,1.16c0,4.38,7.53,6.69,14.53,6.98,.27,.01,.48,.23,.48,.5l-.03,6.99c0,.14-.06,.27-.16,.36-.1,.09-.23,.15-.37,.13-3.65-.22-6.25-.66-8.14-.99-1.78-.31-2.96-.51-3.33-.19-.19,.16-.29,.59-.29,1.31,0,3.13,.73,5.07,10.84,5.53h.97c.13,0,.26,.05,.35,.14,.09,.09,.15,.22,.15,.35,0,1.11,.18,1.67,1.17,1.69,.36,.02,.63-.07,.8-.24,.31-.3,.35-.91,.35-1.47,0-.14,.06-.27,.15-.36,.1-.09,.23-.15,.37-.14l.84,.03c9.67-.39,10.15-2.26,10.15-5.54,0-.29,0-1.17-.24-1.37-.28-.23-1.28-.04-2.66,.22-1.71,.32-4.29,.8-8.04,1.02-.13,0-.27-.04-.37-.13-.1-.09-.16-.23-.16-.36l-.03-6.99c0-.27,.21-.49,.48-.5,6.97-.3,14.48-2.61,14.48-6.98,0-.64-.52-1.16-1.16-1.16s-1.16,.52-1.16,1.16c0,1.95-4.98,4.34-12.11,4.66-.14,.01-.27-.04-.37-.14-.1-.09-.15-.23-.15-.36v-5.72c0-.27,.21-.49,.48-.5Z" fill="#ffcd00" stroke-width="0"/><path d="M47.28,11.75c0-1.19-.97-2.16-2.16-2.16s-2.16,.97-2.16,2.16c0,1.82-5.23,5.25-15.65,5.78v-3.77c8.71-.42,17.89-3.42,17.89-9.11,0-1.19-.97-2.16-2.16-2.16s-2.16,.97-2.16,2.16c0,1.43-4.78,4.36-13.57,4.79V5.01c0-1.19-.97-2.16-2.16-2.16s-2.16,.97-2.16,2.16v4.42c-8.82-.42-13.62-3.36-13.62-4.79,0-1.19-.97-2.16-2.16-2.16s-2.16,.97-2.16,2.16c0,5.71,9.21,8.7,17.94,9.11v3.8c-10.96-.34-16.69-3.94-16.69-5.81,0-1.19-.97-2.16-2.16-2.16s-2.16,.97-2.16,2.16c0,4.61,6.58,9.71,21.01,10.15v4.68c-7.46-.42-10.69-2.89-10.69-3.64,0-1.19-.97-2.16-2.16-2.16s-2.16,.97-2.16,2.16c0,4.96,7.46,7.55,15.01,7.96l-.02,5.98c-3.32-.22-5.72-.64-7.5-.94-2.27-.39-3.41-.59-4.15,.03-.57,.48-.64,1.32-.64,2.08,0,4.14,1.7,6.07,11.82,6.53h.51c.06,.87,.38,2.16,2.14,2.19,.02,0,.04,0,.06,0,.61,0,1.1-.18,1.46-.53,.47-.46,.6-1.14,.64-1.67h.37c9.6-.37,11.15-2.23,11.15-6.53,0-1.01-.1-1.72-.6-2.14-.64-.53-1.59-.35-3.49,0-1.6,.3-3.99,.74-7.39,.97l-.02-5.98c7.52-.42,14.96-3.01,14.96-7.96,0-1.19-.97-2.16-2.16-2.16s-2.16,.97-2.16,2.16c0,.75-3.21,3.2-10.64,3.63v-4.72c9.71-.5,19.97-3.84,19.97-10.1Zm-20.81,15.71c.1,.09,.23,.15,.37,.14,7.14-.31,12.11-2.7,12.11-4.66,0-.64,.52-1.16,1.16-1.16s1.16,.52,1.16,1.16c0,4.37-7.51,6.68-14.48,6.98-.27,.01-.48,.23-.48,.5l.03,6.99c0,.14,.06,.27,.16,.36,.1,.09,.24,.14,.37,.13,3.75-.22,6.33-.7,8.04-1.02,1.39-.26,2.39-.45,2.66-.22,.24,.2,.24,1.08,.24,1.37,0,3.28-.47,5.16-10.15,5.54l-.84-.03c-.14,0-.27,.04-.37,.14-.1,.09-.15,.22-.15,.36,0,.56-.04,1.17-.35,1.47-.17,.17-.44,.26-.8,.24-.99-.02-1.17-.59-1.17-1.69,0-.13-.05-.26-.15-.35-.09-.09-.22-.15-.35-.15h-.97c-10.11-.46-10.84-2.4-10.84-5.53,0-.72,.09-1.15,.29-1.31,.38-.32,1.55-.12,3.33,.19,1.89,.33,4.48,.77,8.14,.99,.14,.01,.27-.04,.37-.13,.1-.09,.16-.23,.16-.36l.03-6.99c0-.27-.21-.49-.48-.5-7-.29-14.53-2.6-14.53-6.98,0-.64,.52-1.16,1.16-1.16s1.16,.52,1.16,1.16c0,1.96,5,4.35,12.16,4.66,.14,.01,.27-.04,.37-.14,.1-.09,.15-.22,.15-.36v-5.69c0-.27-.22-.49-.49-.5-13.47-.3-20.52-4.83-20.52-9.16,0-.64,.52-1.16,1.16-1.16s1.16,.52,1.16,1.16c0,3.11,7.3,6.59,18.18,6.83,.14,0,.26-.05,.36-.14,.1-.09,.15-.22,.15-.36v-4.8c0-.27-.21-.49-.48-.5-8.68-.32-17.46-3.21-17.46-8.13,0-.64,.52-1.16,1.16-1.16s1.16,.52,1.16,1.16c0,2.54,6.07,5.48,15.1,5.81,.14,0,.27-.05,.37-.14,.1-.09,.15-.22,.15-.36V5.01c0-.64,.52-1.16,1.16-1.16s1.16,.52,1.16,1.16v4.94c0,.14,.06,.27,.15,.36,.1,.09,.23,.15,.37,.14,9-.33,15.05-3.27,15.05-5.81,0-.64,.52-1.16,1.16-1.16s1.16,.52,1.16,1.16c0,4.91-8.76,7.81-17.41,8.13-.27,0-.48,.23-.48,.5v4.78c0,.14,.06,.27,.15,.36s.23,.15,.37,.14c10.58-.43,17.13-3.87,17.13-6.8,0-.64,.52-1.16,1.16-1.16s1.16,.52,1.16,1.16c0,5.45-9.8,8.71-19.49,9.12-.27,.01-.48,.23-.48,.5v5.72c0,.14,.06,.27,.15,.36Z" stroke-width="0"/></g></g><g id="uuid-5169650e-6463-47dd-80df-c42e516d05dc"></g></svg>