<?xml version="1.0" encoding="UTF-8"?><svg width="70" height="70" id="uuid-a9469878-5458-4370-b1ac-03dd478011cb" xmlns="http://www.w3.org/2000/svg" viewBox="-10 -10 70 70"><rect x="-10" y="-10" width="70" height="70" fill="white"/><g><path d="M44.5,15.04c-.62,0-1.15,.38-1.38,.91-.08,.19-.12,.38-.12,.59,0,.15,.02,.28,.06,.41,.18,.63,.75,1.09,1.44,1.09,.62,0,1.15-.37,1.38-.91,.07-.18,.12-.38,.12-.59,0-.14-.03-.28-.07-.41-.18-.63-.75-1.09-1.43-1.09Zm-1.37,13.22c.24,.52,.76,.88,1.37,.88,.69,0,1.27-.48,1.44-1.12,.04-.12,.06-.25,.06-.38,0-.22-.05-.43-.14-.61-.23-.52-.75-.89-1.36-.89-.7,0-1.28,.48-1.45,1.12-.03,.12-.05,.25-.05,.38,0,.22,.05,.43,.13,.62Zm4.37,2.16h-5.23V14.54h5.23v15.88Z" fill="#ffcd00" stroke-width="0"/><path d="M42.55,40.61c-.09,.64-.59,1.16-1.25,1.27-.06,0-.12,.02-.18,0,.64-.22,1.15-.69,1.43-1.28Z" fill="#ffcd00" stroke-width="0"/><path d="M39.85,39.52c.24-.33,.59-.54,.98-.6h.01c.08-.01,.15-.02,.23-.02,.22,0,.44,.05,.64,.14,.03,.08,.05,.17,.07,.26,.12,.82-.44,1.58-1.25,1.71-.31,.05-.62,0-.88-.13h0c-.03-.08-.06-.16-.07-.25-.02-.17-.02-.34,.02-.51,.04-.21,.12-.42,.25-.6Z" fill="#ffcd00" stroke-width="0"/><path d="M38.01,48.12c.64-.2,1.19-.67,1.48-1.3,0,.03,0,.07-.01,.1-.08,.4-.31,.73-.65,.95-.25,.16-.52,.25-.82,.25Z" fill="#ffcd00" stroke-width="0"/><path d="M36.93,47.22c-.12-.03-.23-.07-.33-.12-.04-.09-.06-.18-.07-.28-.03-.17-.03-.34,.01-.51s.11-.32,.2-.47c.11-.18,.26-.35,.45-.48,.25-.16,.53-.24,.82-.24,.1,0,.2,.01,.3,.03,.04,.01,.07,.03,.11,.04,.08,.02,.16,.05,.24,.09h.01c.08,.25,.09,.51,.04,.77-.08,.4-.31,.73-.65,.95-.33,.22-.73,.3-1.13,.22Z" fill="#ffcd00" stroke-width="0"/><path d="M34.75,14.43c-.62,0-1.15,.38-1.38,.92-.08,.18-.12,.37-.12,.58,0,.15,.03,.28,.06,.41,.18,.63,.76,1.09,1.44,1.09,.62,0,1.15-.37,1.38-.91,.08-.18,.12-.38,.12-.59,0-.14-.03-.28-.07-.41-.18-.63-.75-1.09-1.43-1.09Zm-1.37,14.64c.24,.52,.76,.89,1.37,.89,.69,0,1.27-.48,1.44-1.12,.04-.13,.06-.25,.06-.38,0-.22-.05-.43-.14-.62-.23-.52-.75-.88-1.36-.88-.7,0-1.28,.47-1.45,1.11-.03,.13-.05,.25-.05,.39,0,.21,.05,.42,.13,.61Zm4.37,2.35h-5.23V13.54h5.23V31.42Z" fill="#ffcd00" stroke-width="0"/><path d="M23.56,28.89c-.04,.12-.06,.25-.06,.38,0,.22,.05,.43,.14,.61,.23,.52,.75,.89,1.36,.89,.69,0,1.28-.48,1.45-1.12,.03-.12,.05-.25,.05-.38,0-.22-.05-.43-.14-.62-.23-.52-.75-.88-1.36-.88-.69,0-1.27,.48-1.44,1.12Zm1.44-15.07c-.62,0-1.15,.38-1.38,.92-.08,.18-.12,.37-.12,.58,0,.15,.03,.28,.06,.41,.18,.63,.76,1.09,1.44,1.09,.62,0,1.15-.37,1.38-.91,.08-.18,.12-.38,.12-.59,0-.14-.03-.28-.06-.41-.18-.63-.76-1.09-1.44-1.09Zm3,18.6h-5.23V12.54h5.23v19.88Z" fill="#ffcd00" stroke-width="0"/><path d="M15.25,13.21c-.62,0-1.15,.38-1.38,.92-.08,.18-.12,.37-.12,.58,0,.15,.03,.28,.07,.41,.18,.63,.75,1.09,1.43,1.09,.62,0,1.15-.37,1.38-.91,.08-.18,.12-.38,.12-.59,0-.14-.03-.28-.06-.41-.18-.62-.76-1.09-1.44-1.09Zm-2.23,18.49V11.54h5.23v21.88h-5.23v-1.72Zm.79-2c-.04,.12-.06,.25-.06,.38,0,.22,.05,.43,.14,.62,.23,.52,.75,.88,1.36,.88,.7,0,1.28-.48,1.45-1.12,.03-.12,.05-.25,.05-.38,0-.22-.05-.43-.13-.61-.24-.52-.76-.89-1.37-.89-.69,0-1.27,.48-1.44,1.12Z" fill="#ffcd00" stroke-width="0"/><path d="M5.5,12.6c-.62,0-1.15,.38-1.38,.92-.07,.18-.12,.37-.12,.58,0,.15,.03,.28,.07,.41,.18,.63,.75,1.09,1.43,1.09,.62,0,1.15-.37,1.38-.91,.08-.18,.12-.38,.12-.59,0-.14-.02-.28-.06-.41-.18-.62-.75-1.09-1.44-1.09Zm-1.36,18.91c.23,.52,.75,.88,1.36,.88,.7,0,1.28-.47,1.45-1.11,.03-.13,.05-.25,.05-.39,0-.22-.05-.42-.13-.61-.24-.52-.76-.89-1.37-.89-.69,0-1.27,.48-1.44,1.12-.04,.13-.06,.25-.06,.38,0,.22,.05,.43,.14,.62Zm4.36,2.41H3.27V11.04h5.23v22.88Z" fill="#ffcd00" stroke-width="0"/></g><g><path d="M44.5,29.14c.69,0,1.27-.48,1.44-1.12,.04-.12,.06-.25,.06-.38,0-.22-.05-.43-.14-.61-.23-.52-.75-.89-1.36-.89-.7,0-1.28,.48-1.45,1.12-.03,.12-.05,.25-.05,.38,0,.22,.05,.43,.13,.62,.24,.52,.76,.88,1.37,.88Zm0-2c.27,0,.5,.23,.5,.5s-.23,.5-.5,.5-.5-.22-.5-.5,.22-.5,.5-.5Z" stroke-width="0"/><path d="M44.5,18.04c.62,0,1.15-.37,1.38-.91,.07-.18,.12-.38,.12-.59,0-.14-.03-.28-.07-.41-.18-.63-.75-1.09-1.43-1.09-.62,0-1.15,.38-1.38,.91-.08,.19-.12,.38-.12,.59,0,.15,.02,.28,.06,.41,.18,.63,.75,1.09,1.44,1.09Zm0-2c.27,0,.5,.23,.5,.5s-.23,.5-.5,.5-.5-.22-.5-.5,.22-.5,.5-.5Z" stroke-width="0"/><path d="M34.75,29.96c.69,0,1.27-.48,1.44-1.12,.04-.13,.06-.25,.06-.38,0-.22-.05-.43-.14-.62-.23-.52-.75-.88-1.36-.88-.7,0-1.28,.47-1.45,1.11-.03,.13-.05,.25-.05,.39,0,.21,.05,.42,.13,.61,.24,.52,.76,.89,1.37,.89Zm0-2c.27,0,.5,.22,.5,.5s-.23,.5-.5,.5-.5-.23-.5-.5,.22-.5,.5-.5Z" stroke-width="0"/><path d="M34.75,17.43c.62,0,1.15-.37,1.38-.91,.08-.18,.12-.38,.12-.59,0-.14-.03-.28-.07-.41-.18-.63-.75-1.09-1.43-1.09-.62,0-1.15,.38-1.38,.92-.08,.18-.12,.37-.12,.58,0,.15,.03,.28,.06,.41,.18,.63,.76,1.09,1.44,1.09Zm0-2c.27,0,.5,.23,.5,.5s-.23,.5-.5,.5-.5-.22-.5-.5,.22-.5,.5-.5Z" stroke-width="0"/><path d="M25,30.77c.69,0,1.28-.48,1.45-1.12,.03-.12,.05-.25,.05-.38,0-.22-.05-.43-.14-.62-.23-.52-.75-.88-1.36-.88-.69,0-1.27,.48-1.44,1.12-.04,.12-.06,.25-.06,.38,0,.22,.05,.43,.14,.61,.23,.52,.75,.89,1.36,.89Zm0-2c.28,0,.5,.22,.5,.5s-.22,.5-.5,.5-.5-.23-.5-.5,.22-.5,.5-.5Z" stroke-width="0"/><path d="M25,16.82c.62,0,1.15-.37,1.38-.91,.08-.18,.12-.38,.12-.59,0-.14-.03-.28-.06-.41-.18-.63-.76-1.09-1.44-1.09-.62,0-1.15,.38-1.38,.92-.08,.18-.12,.37-.12,.58,0,.15,.03,.28,.06,.41,.18,.63,.76,1.09,1.44,1.09Zm0-2c.28,0,.5,.23,.5,.5s-.22,.5-.5,.5-.5-.22-.5-.5,.22-.5,.5-.5Z" stroke-width="0"/><path d="M15.25,31.58c.7,0,1.28-.48,1.45-1.12,.03-.12,.05-.25,.05-.38,0-.22-.05-.43-.13-.61-.24-.52-.76-.89-1.37-.89-.69,0-1.27,.48-1.44,1.12-.04,.12-.06,.25-.06,.38,0,.22,.05,.43,.14,.62,.23,.52,.75,.88,1.36,.88Zm0-2c.28,0,.5,.23,.5,.5s-.22,.5-.5,.5-.5-.22-.5-.5,.23-.5,.5-.5Z" stroke-width="0"/><path d="M15.25,16.21c.62,0,1.15-.37,1.38-.91,.08-.18,.12-.38,.12-.59,0-.14-.03-.28-.06-.41-.18-.62-.76-1.09-1.44-1.09-.62,0-1.15,.38-1.38,.92-.08,.18-.12,.37-.12,.58,0,.15,.03,.28,.07,.41,.18,.63,.75,1.09,1.43,1.09Zm0-2c.28,0,.5,.23,.5,.5s-.22,.5-.5,.5-.5-.22-.5-.5,.23-.5,.5-.5Z" stroke-width="0"/><path d="M41.77,37.51c-.54-.39-1.2-.55-1.86-.45-.66,.1-1.24,.46-1.63,1-.07,.09-.13,.19-.18,.29l-16.56,2.59-12.38-2.58c-.4-.08-.8,0-1.13,.22-.34,.21-.57,.55-.65,.94-.17,.81,.35,1.61,1.16,1.78l4.59,.96-1.72,.26c-.39,.07-.74,.28-.98,.6-.24,.33-.33,.72-.27,1.12,.06,.39,.27,.74,.6,.98,.26,.19,.56,.29,.88,.29,.08,0,.16-.01,.23-.02l9.59-1.5,13.53,2.82c.32,.69,.94,1.22,1.74,1.39,.17,.03,.34,.05,.51,.05,.26,0,.52-.04,.76-.13h.01c.64-.2,1.19-.67,1.48-1.3,.09-.17,.16-.36,.2-.56,.28-1.35-.59-2.68-1.94-2.96-.79-.16-1.58,.08-2.15,.57l-5.74-1.19,8.7-1.36c.46,.44,1.07,.71,1.73,.71,.13,0,.26-.01,.39-.03,.15-.02,.29-.06,.42-.1,.01,0,.02,0,.02,0,.64-.22,1.15-.69,1.43-1.28h0c.21-.45,.29-.95,.21-1.47-.1-.65-.45-1.23-.99-1.63Zm-6,7.93c.04-.17,.11-.32,.2-.47,.11-.18,.26-.35,.45-.48,.25-.16,.53-.24,.82-.24,.1,0,.2,.01,.3,.03,.04,.01,.07,.03,.11,.04,.34,.1,.65,.3,.84,.61,.07,.11,.13,.23,.17,.35h.01c.08,.25,.09,.51,.04,.77-.08,.4-.31,.73-.65,.95-.33,.22-.73,.3-1.13,.22-.12-.03-.23-.07-.33-.12-.25-.11-.47-.29-.62-.53-.12-.19-.19-.4-.22-.62-.03-.17-.03-.34,.01-.51Zm-27.02-5.12c-.27-.06-.45-.32-.39-.59,.03-.13,.1-.25,.22-.32,.08-.05,.17-.08,.27-.08,.03,0,.07,0,.1,.01l9.79,2.04-2.81,.44-7.18-1.5Zm26.19,4.44c-.06,.15-.11,.31-.15,.48-.03,.17-.05,.33-.05,.5l-10.48-2.19,2.8-.43,7.88,1.64Zm-7.85-2.66l-2.8,.44-2.81,.43-2.8,.44-6.96,1.09c-.13,.02-.26-.01-.37-.09s-.18-.2-.2-.33c-.02-.13,0-.26,.09-.37,.08-.11,.19-.18,.33-.2l4.34-.68,2.8-.43,2.8-.44,2.8-.44,13.49-2.11c-.01,.17,0,.34,.02,.51,.03,.17,.08,.33,.14,.48l-10.87,1.7Zm13.44-1.09c-.31,.05-.62,0-.88-.13h0c-.28-.14-.52-.36-.67-.64-.08-.15-.14-.3-.17-.48-.02-.17-.02-.34,.02-.51,.04-.21,.12-.42,.25-.6,.24-.33,.59-.54,.98-.6h.01c.08-.01,.15-.02,.23-.02,.31,0,.62,.1,.88,.29,.25,.18,.43,.43,.53,.72,.03,.08,.05,.17,.07,.26,.12,.82-.44,1.58-1.25,1.71Z" stroke-width="0"/><path d="M5.5,32.39c.7,0,1.28-.47,1.45-1.11,.03-.13,.05-.25,.05-.39,0-.22-.05-.42-.13-.61-.24-.52-.76-.89-1.37-.89-.69,0-1.27,.48-1.44,1.12-.04,.13-.06,.25-.06,.38,0,.22,.05,.43,.14,.62,.23,.52,.75,.88,1.36,.88Zm0-2c.28,0,.5,.23,.5,.5s-.22,.5-.5,.5-.5-.22-.5-.5,.23-.5,.5-.5Z" stroke-width="0"/><path d="M5.5,15.6c.62,0,1.15-.37,1.38-.91,.08-.18,.12-.38,.12-.59,0-.14-.02-.28-.06-.41-.18-.62-.75-1.09-1.44-1.09-.62,0-1.15,.38-1.38,.92-.07,.18-.12,.37-.12,.58,0,.15,.03,.28,.07,.41,.18,.63,.75,1.09,1.43,1.09Zm0-2c.28,0,.5,.23,.5,.5s-.22,.5-.5,.5-.5-.22-.5-.5,.23-.5,.5-.5Z" stroke-width="0"/><path d="M48.97,17.32h.03c.26,0,.48-.2,.5-.47s-.19-.51-.47-.53l-.53-.03v-3.12c0-.27-.23-.5-.5-.5h-7c-.28,0-.5,.23-.5,.5v2.62l-1.75-.11v-3.51c0-.27-.22-.5-.5-.5h-7c-.28,0-.5,.23-.5,.5v3.01l-1.75-.11v-3.9c0-.27-.22-.5-.5-.5h-7c-.28,0-.5,.23-.5,.5v3.4l-1.75-.11v-4.29c0-.28-.22-.5-.5-.5h-7c-.28,0-.5,.22-.5,.5v3.79l-1.75-.11v-4.18c0-.28-.22-.5-.5-.5H2c-.27,0-.5,.22-.5,.5v3.68l-.47-.03c-.31-.02-.51,.2-.53,.47-.02,.28,.19,.51,.47,.53l.53,.03V30.73l-.54,.04c-.28,.02-.48,.27-.46,.54,.02,.26,.24,.46,.5,.46h.04l.46-.04v2.69c0,.28,.23,.5,.5,.5h7c.28,0,.5-.22,.5-.5v-3.36l1.75-.14v3c0,.28,.22,.5,.5,.5h7c.28,0,.5-.22,.5-.5v-3.67l1.75-.15v2.82c0,.27,.22,.5,.5,.5h7c.28,0,.5-.23,.5-.5v-3.48l1.75-.15v2.63c0,.27,.22,.5,.5,.5h7c.28,0,.5-.23,.5-.5v-3.3l1.75-.14v2.44c0,.27,.22,.5,.5,.5h7c.27,0,.5-.23,.5-.5v-3.11l.54-.05c.28-.02,.48-.26,.46-.54-.02-.27-.28-.47-.54-.45l-.46,.04v-9.52l.47,.03ZM2.5,31.65V10.17h6v23.75H2.5v-2.27Zm8.75-1.74l-1.75,.15V14.85l1.75,.11v14.95Zm1,.92V10.67h6v22.75h-6v-2.59Zm8.75-1.73l-1.75,.15V15.46l1.75,.11v13.53Zm1,.92V11.67h6v20.75h-6v-2.4Zm8.75-1.73l-1.75,.14v-12.36l1.75,.11v12.11Zm1,.92V12.67h6V31.42h-6v-2.21Zm8.75-1.74l-1.75,.15v-10.94l1.75,.11v10.68Zm1,.92V13.67h6V30.42h-6v-2.03Z" stroke-width="0"/></g></svg>