<?xml version="1.0" encoding="UTF-8"?><svg width="70" height="70" xmlns="http://www.w3.org/2000/svg" viewBox="-10 -10 70 70"><rect x="-10" y="-10" width="70" height="70" fill="white"/><g id="uuid-7a5d47a0-ddce-4ee7-9387-36a3219575a0"><path d="M9.69,45.07c-.36.16-.76.17-1.13.03s-.66-.41-.82-.77c-.33-.74,0-1.62.74-1.95l1.48-.67,2.21-1,3.9-1.76s.07-.04.11-.07l5.97-4.95c.22,1.03.77,1.89,1.58,2.52l-5.12,4.26-.59.49c-.13.12-.27.22-.43.29l-.48.22-7.42,3.36Z" fill="#ffcd00" stroke-width="0"/><path d="M26.41,17.14c1.2-.14,2.26-.98,2.63-2.21.24-.8.15-1.65-.24-2.39-.4-.73-1.06-1.27-1.86-1.51-.46-.14-.96-.19-1.43-.06-.16.04-.31.11-.46.19-.04.02-.08.04-.12.07-.01,0-.11.06-.11.08l.45,5.7,1.14.14Z" fill="#ffcd00" stroke-width="0"/><path d="M21.28,2.72c.82,0,1.52.64,1.61,1.54l1.46,6.02.24.98.56,2.3.25,3.53.08,1.04.11,1.53c.01.27.24.48.52.46l.59-.02c.92-.04,1.72.67,1.76,1.6l.58,11.36c.01.24.2.44.45.47l6.93.74c.54.06,1.01.39,1.26.88l2.83,5.56.5,1,.86,1.68c.35.69.15,1.54-.47,2.01-.07.06-.15.11-.24.15-.39.2-.82.23-1.23.1-.41-.14-.74-.42-.94-.81l-1.59-3.13-.51-1-1.56-3.08c-.08-.15-.23-.26-.39-.27l-8-.86-.6-.05c-.3-.03-.58-.1-.84-.18-.37-.12-.7-.27-1-.47-.85-.57-1.37-1.47-1.44-2.56v-.05s-.07-1.21-.07-1.21l-.48-9.31-.5-7.77-.08-1.31v-.03l-2.25-9.1c-.03-.42.1-.84.37-1.17.28-.32.67-.52,1.09-.56.05,0,.09-.01.14-.01Z" fill="#ffcd00" stroke-width="0"/></g><g id="uuid-bcf68919-01f9-4ea9-8245-4332414a2868"><path d="M24.82,10.24l.59,2.4s.01.06.01.08l.27,3.7c1.2-.14,2.26-.98,2.63-2.21.24-.8.15-1.65-.24-2.39-.4-.73-1.06-1.27-1.86-1.51-.3-.09-.61-.13-.91-.13-.16,0-.33.03-.49.06ZM19.45,39.99h15.6l-1.21-2.39-8.32-.87c-.59-.07-1.13-.22-1.62-.45l-4.45,3.71ZM22.17,3.54c-.09-.9-.79-1.54-1.61-1.54-.05,0-.09.01-.14.01-.42.04-.81.24-1.09.56-.27.33-.4.75-.37,1.17l2.25,9.1v.03l.08,1.31.5,7.77.48,9.31.06,1.21v.05c.08,1.09.6,1.99,1.45,2.56.3.2.63.35,1,.47.26.08.54.15.84.18l.6.05,8,.86c.16.01.31.12.39.27l1.56,3.08.51,1,1.59,3.13c.2.39.53.67.94.81.41.13.84.1,1.23-.1.09-.04.17-.09.24-.15.62-.47.82-1.32.47-2.01l-.86-1.68-.5-1-2.83-5.56c-.25-.49-.72-.82-1.26-.88l-6.93-.74c-.25-.03-.44-.23-.45-.47l-.58-11.36c-.04-.93-.84-1.64-1.76-1.6l-.59.02c-.28.02-.51-.19-.52-.46l-.11-1.53-.08-1.04-.25-3.53-.56-2.3-.24-.98-1.46-6.02ZM8.36,45.48c-.29,0-.59-.06-.87-.16-.62-.24-1.11-.7-1.38-1.3-.5-1.09-.12-2.36.82-3.03h-1.9l-3.4,6.81h46.22l-3.4-6.81h-3.04l.63,1.22c.57,1.13.25,2.5-.75,3.26-.12.1-.26.18-.4.25-.37.19-.77.29-1.18.29-.27,0-.54-.05-.81-.13-.66-.22-1.2-.68-1.52-1.3l-1.82-3.59h-17.31l-.28.24c-.18.17-.42.33-.68.45l-7.91,3.58c-.32.14-.67.22-1.02.22ZM4.72,39.99h4.31l5.84-2.64,6.44-5.33-.52-10.01-.57-9.02-2.24-9.08c-.07-.77.14-1.45.59-1.98s1.07-.86,1.77-.92c1.42-.13,2.69.95,2.81,2.37l1.43,5.88c.64-.12,1.29-.1,1.92.09,1.06.32,1.93,1.03,2.46,2,.52.97.63,2.09.32,3.15-.49,1.64-1.92,2.74-3.52,2.91l.07.97h.1c1.48-.06,2.74,1.07,2.81,2.55l.56,10.93,6.5.7c.89.09,1.65.62,2.05,1.42l3.06,6.01h3.85c.19,0,.37.11.45.28l3.89,7.81c.08.16.07.34-.02.49-.09.14-.25.23-.42.23H.83c-.18,0-.34-.09-.43-.23-.09-.15-.1-.33-.02-.49l3.89-7.81c.09-.17.26-.28.45-.28ZM7.84,44.38c.37.14.77.13,1.13-.03l7.42-3.36.48-.22c.16-.07.3-.17.43-.29l.59-.49,5.12-4.26c-.81-.63-1.36-1.49-1.58-2.52l-5.97,4.95s-.07.05-.11.07l-3.9,1.76-2.21,1-1.48.67c-.74.33-1.07,1.21-.74,1.95.16.36.45.63.82.77Z" stroke-width="0"/></g></svg>