<?xml version="1.0" standalone="no"?>
<!DOCTYPE svg PUBLIC "-//W3C//DTD SVG 20010904//EN"
 "http://www.w3.org/TR/2001/REC-SVG-20010904/DTD/svg10.dtd">
<svg version="1.0" xmlns="http://www.w3.org/2000/svg"
 width="1083.000000pt" height="1083.000000pt" viewBox="0 0 1083.000000 1083.000000"
 preserveAspectRatio="xMidYMid meet">
<metadata>
Created by potrace 1.11, written by Peter Selinger 2001-2013
</metadata>
<g transform="translate(0.000000,1083.000000) scale(0.100000,-0.100000)"
fill="#000000" stroke="none">
<path d="M0 5415 l0 -5415 5415 0 5415 0 0 5415 0 5415 -5415 0 -5415 0 0
-5415z m5483 4776 l42 -40 7 -383 c3 -211 16 -525 27 -698 12 -173 24 -368 28
-432 5 -90 10 -121 22 -131 21 -19 99 -59 321 -166 102 -49 203 -104 225 -124
37 -32 40 -38 39 -83 -2 -63 -19 -126 -42 -155 l-19 -22 -174 37 c-261 55
-354 66 -551 66 l-177 0 -26 28 c-38 39 -55 75 -71 151 -16 81 -10 112 39 179
52 71 75 123 88 198 15 84 20 1485 5 1476 -16 -9 3 60 22 81 30 34 76 57 115
57 30 0 46 -8 80 -39z m-938 -2124 c60 -34 99 -96 99 -160 1 -67 -26 -113
-180 -306 -162 -202 -239 -319 -266 -406 -6 -16 -14 -129 -18 -250 -7 -185
-13 -236 -34 -320 -35 -138 -90 -243 -176 -340 -83 -93 -117 -139 -156 -215
-26 -51 -28 -63 -29 -172 0 -132 5 -143 71 -159 43 -9 2393 -28 3607 -29 828
0 819 1 833 -56 10 -38 -2 -187 -21 -271 -21 -91 -42 -118 -103 -133 -34 -8
-584 -13 -1937 -17 -1561 -4 -1894 -7 -1911 -19 -32 -20 -55 -97 -61 -206 -7
-118 -1 -145 35 -160 17 -8 133 -14 312 -18 242 -6 291 -9 328 -24 52 -22 77
-56 88 -121 5 -28 9 -818 10 -1765 0 -1160 3 -1731 11 -1763 23 -109 73 -137
251 -144 144 -6 255 7 321 39 36 18 48 31 72 82 93 199 125 667 115 1671 -7
745 -17 994 -41 1075 -55 180 -175 280 -381 317 -116 20 -139 29 -153 59 -31
70 9 412 60 516 30 59 43 60 484 56 421 -4 434 -5 493 -60 53 -50 52 -30 52
-1252 0 -1154 13 -2148 29 -2336 10 -104 10 -105 47 -139 35 -32 39 -33 103
-29 39 3 82 14 106 26 55 28 111 89 129 140 63 177 92 882 83 2002 -4 449 -10
754 -17 785 -26 127 -90 200 -203 233 -78 22 -104 47 -113 108 -15 101 31 400
71 461 37 57 46 58 342 57 258 0 275 -1 301 -21 42 -31 68 -76 81 -141 8 -44
11 -481 10 -1688 -1 -970 2 -1679 8 -1752 7 -97 13 -128 30 -150 37 -50 73
-54 516 -61 l409 -6 20 -25 c19 -23 20 -34 15 -120 -7 -105 -36 -223 -61 -249
-15 -15 -235 -16 -2838 -13 -1940 2 -2826 6 -2834 13 -32 27 -25 223 12 331
14 44 20 49 72 68 66 25 87 42 112 90 82 161 95 343 110 1555 14 1065 1 2259
-25 2349 -38 136 -92 201 -195 238 -57 20 -66 27 -77 58 -36 107 13 352 80
394 12 7 45 16 74 19 80 9 129 27 172 63 46 40 67 92 221 549 132 391 162 469
255 660 117 241 228 397 430 604 185 190 402 368 563 462 79 46 127 50 187 16z
m3416 -3263 c48 -28 58 -66 58 -232 1 -129 -2 -151 -25 -220 -15 -42 -30 -92
-34 -109 -4 -18 -4 -351 0 -740 4 -390 4 -843 -1 -1008 l-8 -300 -40 -163
c-51 -203 -67 -237 -122 -253 -58 -18 -89 -4 -116 51 -35 70 -43 238 -43 889
-1 723 -14 1220 -34 1314 -22 98 -51 145 -118 189 -70 46 -74 61 -65 232 7
126 35 273 62 325 23 45 56 50 286 47 145 -2 170 -5 200 -22z"/>
<path d="M4065 4195 c-22 -8 -41 -15 -42 -15 -1 0 -10 -14 -18 -30 -24 -47
-41 -1516 -26 -2268 15 -754 22 -814 101 -855 44 -23 127 -18 192 11 58 25
125 86 143 129 77 183 117 964 96 1838 -18 709 -33 895 -82 1001 -28 59 -110
144 -167 173 -56 28 -145 36 -197 16z"/>
<path d="M3259 3992 c-28 -25 -32 -36 -39 -107 -12 -116 -23 -2185 -13 -2542
7 -262 10 -305 25 -319 23 -23 55 -13 118 37 83 66 107 144 135 438 54 574 44
1950 -16 2341 -11 69 -45 139 -81 165 -36 25 -93 19 -129 -13z"/>
</g>
</svg>
