<svg version="1.2" xmlns="http://www.w3.org/2000/svg" viewBox="0 0 300 300" width="300" height="300">
	<title>IOWA-Seal-K-svg</title>
	<style>
		.s0 { fill: #231f20 } 
		.s1 { fill: #ffffff } 
	</style>
	<path id="Layer" class="s0" d="m30.1 135.9c0 0.5-0.7 0.7-1 0.8l-0.7 0.4c-0.3 0-0.6 0.1-0.7 0.4-0.2 0.2-0.1 0.1-0.1 0.5l-0.3 3.7 16.2 1.2c0.5 0 0.8 0 1 0 0.1-0.1 0.3-0.2 0.4-0.6l0.2-0.8c0.1-0.4 0.3-0.5 0.5-0.5 0.5 0 0.4 0.5 0.4 0.9l-0.3 4.4c0 0.3 0 0.7-0.5 0.7-0.2 0-0.4-0.1-0.5-0.5l-0.1-0.9c0-0.4-0.2-0.5-0.2-0.6-0.2-0.2-0.5-0.2-1.1-0.2l-16.1-1.2-0.3 3.5c0 0.4-0.1 0.2 0 0.5 0.1 0.2 0.4 0.4 0.7 0.5l0.6 0.4c0.3 0.2 1 0.5 0.9 1-0.1 0.5-0.6 0.5-1 0.4l-2.5-0.8 1-13.4 2.6-0.3c0.3-0.1 0.9-0.1 0.9 0.5z"/>
	<path id="Layer" class="s0" d="m34 117.1v0.8c0 0.2 0 0.5 0.1 0.6 0.1 0.1 0.3 0.2 0.7 0.3l12.7 3c0.5 0.1 0.8 0.2 1 0.1 0-0.1 0.2-0.3 0.3-0.5l0.4-0.7c0.2-0.4 0.3-0.4 0.5-0.4 0.4 0 0.2 0.7 0.1 1.2l-0.7 3.2c-0.1 0.3-0.2 0.9-0.6 0.7-0.2 0-0.2-0.1-0.3-0.5v-0.6c0-0.2-0.1-0.5-0.2-0.6-0.1-0.2-0.4-0.2-0.6-0.2l-6-1.4-1.8 7.4 5.8 1.3c0.5 0.1 0.8 0.2 0.9 0.1 0.1 0 0.3-0.3 0.4-0.5l0.3-0.6c0.2-0.5 0.4-0.4 0.6-0.4 0.4 0 0.2 0.7 0.1 1.1l-0.8 3.2c-0.1 0.4-0.1 1-0.5 0.8-0.2 0-0.3-0.1-0.3-0.5l-0.1-0.6c0-0.3-0.1-0.6-0.1-0.6-0.1-0.2-0.4-0.2-0.9-0.3l-12.7-3c-0.5-0.1-0.6-0.2-0.8-0.1-0.1 0-0.2 0.3-0.3 0.5l-0.4 0.6c-0.1 0.3-0.3 0.3-0.5 0.3-0.4-0.1-0.2-0.6-0.1-1l0.8-3.6c0.1-0.3 0.2-0.7 0.5-0.6 0.2 0.1 0.3 0.3 0.4 0.6v0.7c0 0.2 0 0.5 0.1 0.6q0.1 0.2 0.4 0.3l6 1.4 1.8-7.5-5.7-1.3c-0.5-0.1-0.7-0.2-0.8-0.1-0.1 0-0.2 0.3-0.4 0.5l-0.3 0.6c-0.2 0.3-0.4 0.4-0.5 0.3-0.4-0.1-0.3-0.6-0.2-1l0.8-3.6c0.1-0.3 0.2-0.7 0.6-0.6 0.3 0.1 0.3 0.3 0.3 0.6z"/>
	<path id="Layer" class="s0" d="m55.3 107.1l-3.6 8.8c-0.2 0.4-0.3 0.9-0.7 0.8-0.2-0.1-0.3-0.2-0.3-0.6l0.1-0.7c0.1-0.2 0.1-0.5 0.1-0.6-0.1-0.2-0.4-0.3-0.9-0.4l-12-5c-0.4-0.2-0.6-0.3-0.8-0.2-0.1 0-0.2 0.2-0.4 0.4l-0.4 0.5c-0.2 0.3-0.4 0.3-0.6 0.3-0.4-0.2-0.2-0.7 0-1.1l3.6-8.6 1.4 0.5c0.4 0.1 1.4 0.2 1.2 0.8-0.1 0.3-0.6 0.2-0.9 0.2h-0.6c-0.2 0-0.5 0-0.6 0.1-0.1 0.1-0.2 0.4-0.4 0.7l-1.8 4.4 6.4 2.6 1.6-3.9c0.2-0.3 0.3-0.5 0.3-0.8-0.1-0.2-0.3-0.3-0.4-0.4l-0.5-0.5c-0.2-0.1-0.5-0.3-0.4-0.6 0.1-0.2 0.4-0.2 0.6-0.1l3.5 1.5q0.3 0.1 0.2 0.4c0 0.3-0.4 0.3-0.7 0.2l-0.6-0.1c-0.2 0-0.4-0.1-0.6 0.1-0.2 0.1-0.2 0.4-0.4 0.7l-1.6 3.9 5.6 2.4c0.4 0.1 0.7 0.2 0.9 0.2 0.1 0 0.2-0.1 0.3-0.2l1.7-4.2c0.1-0.3 0.1-0.3 0.1-0.5 0-0.4-0.1-0.4-0.3-0.6l-0.7-1c-0.1-0.2-0.6-0.8-0.4-1.1 0.2-0.3 0.5-0.2 0.7 0l2.4 1.7z"/>
	<path id="Layer" class="s0" d="m55.6 71.6l-0.3 0.8c-0.1 0.2-0.2 0.4-0.1 0.5 0 0.2 0.3 0.4 0.8 0.7l9.9 7.4c0.5 0.3 4.2 3.6 0.1 8.8-3.5 4.5-7.4 2.4-8.1 2l-9.9-7.3c-0.5-0.4-0.6-0.5-0.8-0.5-0.2 0-0.4 0.2-0.6 0.3l-0.7 0.5c-0.4 0.2-0.5 0.3-0.6 0.2-0.4-0.3 0-0.8 0.2-1.2l2.6-3.4c0.2-0.3 0.4-0.6 0.8-0.3 0.1 0.1 0.1 0.4 0 0.8l-0.3 0.7c-0.1 0.2-0.1 0.5-0.1 0.7 0 0.1 0.2 0.3 0.4 0.4l10.2 7.5c2.5 1.9 4.7 0.8 6.3-1.4 1.8-2.5 1.6-5-0.4-6.5l-10-7.4c-0.4-0.3-0.6-0.5-0.8-0.4-0.1 0-0.4 0.2-0.6 0.3l-0.6 0.5c-0.4 0.3-0.6 0.3-0.7 0.2-0.4-0.4-0.1-0.7 0.1-1l2.4-3.3c0.2-0.2 0.4-0.6 0.8-0.3 0.1 0.1 0.1 0.4 0 0.7z"/>
	<path id="Layer" class="s0" d="m73.8 57.3l-0.4 0.6c-0.1 0.2-0.2 0.4-0.2 0.5 0 0.2 0.2 0.5 0.6 0.8l10.1 11.1-0.5 0.5-17.1-3.6 8.1 8.8c0.3 0.4 0.5 0.6 0.7 0.6 0.2 0.1 0.4 0 0.6-0.1l0.4-0.3c0.4-0.2 0.7-0.3 0.9-0.1 0.3 0.3 0 0.6-0.3 0.8l-2.4 2.2c-0.3 0.3-0.6 0.8-0.9 0.4-0.1-0.2-0.2-0.3 0-0.6l0.4-0.6c0.1-0.2 0.2-0.4 0.3-0.5 0-0.2 0-0.3-0.5-0.9l-8.8-9.5c-0.3-0.4-0.5-0.6-0.8-0.6-0.2 0-0.4 0.1-0.6 0.2l-0.6 0.3c-0.4 0.1-0.4 0.1-0.6-0.1-0.1-0.2 0-0.3 0.2-0.5l1.7-1.6 16.4 3.4-8-8.8c-0.2-0.2-0.4-0.3-0.5-0.3-0.2 0.1-0.4 0.1-0.5 0.2l-0.5 0.3c-0.3 0.2-0.6 0.4-0.9 0.1-0.1-0.2 0-0.4 0.2-0.5l2.8-2.7c0.3-0.2 0.5-0.4 0.8-0.1 0.1 0.1 0.1 0.3-0.1 0.6z"/>
	<path id="Layer" class="s0" d="m91.7 64.7l-2.7 1.9c-0.3 0.2-0.8 0.6-1 0.2-0.1-0.1-0.1-0.3 0.1-0.6l0.4-0.5c0.2-0.2 0.4-0.4 0.4-0.5 0-0.2-0.2-0.4-0.5-0.8l-7.4-10.6c-0.3-0.4-0.4-0.7-0.6-0.7-0.1-0.1-0.4 0.1-0.6 0.1l-0.7 0.3c-0.3 0.1-0.4 0-0.6-0.1-0.2-0.4 0.3-0.7 0.6-0.9l2.7-1.9c0.3-0.2 0.8-0.6 1-0.2 0.1 0.1 0.1 0.3-0.1 0.6l-0.4 0.5c-0.2 0.2-0.3 0.5-0.3 0.6 0 0.1 0.1 0.3 0.4 0.7l7.4 10.6c0.3 0.4 0.5 0.7 0.6 0.7 0.1 0 0.4-0.1 0.6-0.2l0.7-0.2c0.3-0.1 0.4 0 0.6 0.1 0.2 0.4-0.3 0.7-0.6 0.9z"/>
	<path id="Layer" class="s0" d="m100.6 41.1c0 0.3 0.1 0.8 0.1 1.2l2.3 15.8-0.7 0.3-11.5-10.8c-0.4-0.4-0.8-0.8-1-0.9-0.1 0-0.4 0-0.6 0.1l-0.6 0.1c-0.4 0-0.5 0.1-0.6-0.1-0.2-0.4 0.3-0.5 0.5-0.7l3.2-1.6c0.3-0.1 0.6-0.3 0.7 0 0.1 0.2-0.1 0.4-0.3 0.6l-0.4 0.4c-0.1 0.1-0.3 0.2-0.2 0.4 0.1 0.2 0.1 0.3 0.5 0.6l9.5 9-2-12.7c0-0.4 0-0.7-0.2-0.9-0.2-0.3-1.4 0.2-1.6-0.1-0.3-0.3 0-0.4 0.2-0.5l3.2-1.7c0.2-0.1 0.5-0.3 0.7 0.1 0.1 0.3-1.1 1-1.2 1.4z"/>
	<path id="Layer" class="s0" d="m122.9 50.2l-9 2.9c-0.4 0.2-0.9 0.4-1.1 0 0-0.2 0-0.3 0.3-0.5l0.6-0.4c0.2-0.1 0.5-0.3 0.5-0.4 0.1-0.2-0.1-0.5-0.2-0.9l-4-12.4c-0.1-0.5-0.2-0.7-0.3-0.8-0.1 0-0.4 0-0.7 0h-0.7c-0.3 0-0.4-0.1-0.5-0.3-0.1-0.4 0.4-0.5 0.8-0.7l8.9-2.8 0.6 1.4c0.1 0.4 0.7 1.2 0.1 1.4-0.4 0.2-0.5-0.2-0.8-0.5l-0.3-0.5c-0.2-0.1-0.4-0.3-0.5-0.3-0.2-0.1-0.4 0-0.8 0.1l-4.5 1.5 2.1 6.6 4.1-1.3c0.3-0.1 0.6-0.1 0.7-0.3 0.1-0.2 0.1-0.4 0.1-0.6v-0.7c0-0.3 0-0.6 0.3-0.7 0.2 0 0.4 0.2 0.4 0.4l1.2 3.6q0.1 0.3-0.2 0.4c-0.2 0.2-0.5-0.1-0.6-0.3l-0.3-0.5c-0.2-0.2-0.2-0.4-0.5-0.5-0.2 0-0.5 0.1-0.8 0.2l-4 1.3 1.8 5.8c0.2 0.4 0.3 0.7 0.4 0.8 0 0.1 0.2 0.1 0.4 0.1l4.3-1.4c0.3-0.1 0.3-0.1 0.4-0.3 0.3-0.2 0.2-0.3 0.3-0.5l0.3-1.2c0-0.3 0.2-1.1 0.6-1.1 0.4-0.1 0.4 0.3 0.4 0.5l0.3 2.9z"/>
	<path id="Layer" fill-rule="evenodd" class="s0" d="m140.2 46.6c0.1 0.4-0.3 0.4-0.6 0.5l-2.4 0.4-5.4-7.1-1.9 0.3 0.9 5.6c0.1 0.5 0.1 0.8 0.3 0.9 0 0 0.3 0.1 0.5 0.1l0.8 0.1c0.3 0 0.4 0.2 0.5 0.4 0 0.4-0.6 0.4-1 0.5l-3.2 0.5c-0.4 0.1-0.9 0.2-1-0.2-0.1-0.2 0-0.4 0.3-0.5l0.7-0.3c0.2-0.1 0.4-0.2 0.5-0.3 0.1-0.1 0-0.4 0-0.9l-2.1-12.8c-0.1-0.5-0.1-0.8-0.2-0.9-0.1-0.1-0.4-0.1-0.6-0.1l-0.7-0.1c-0.4 0-0.5-0.1-0.5-0.4-0.1-0.3 0.5-0.4 0.9-0.5l4.9-0.8c3.5-0.5 5 2 5.3 3.8 0.4 3.3-2.8 5.1-2.8 5.1l4.1 5.4c0.2 0.2 0.3 0.4 0.5 0.6 0.1 0.1 0.4 0.2 0.7 0.3l0.9 0.1c0.2 0 0.5 0 0.6 0.3zm-9.7-14.6l-2 0.3 1.2 7.5 1.8-0.3c2-0.3 3.4-2.2 2.9-4.4-0.4-1.9-1.4-3.5-3.9-3.1z"/>
	<path id="Layer" class="s0" d="m148 46.9c-0.8 0-2.1-0.1-3.3-0.7l-0.6-2.9c0-0.3-0.1-0.8 0.3-0.8 0.6-0.1 0.7 0.5 0.9 1l0.7 1.4c0.3 0.7 1.6 0.8 2.4 0.8 2.1-0.1 3.7-1.5 3.7-3.4-0.1-4.6-7.7-3.3-7.8-8.7 0-2.3 1.3-4.5 5.2-4.6 0.6 0 2 0.1 3 0.6l0.3 2.8c0 0.2-0.2 0.3-0.4 0.4-0.5 0.1-0.5-0.5-0.7-0.9l-0.3-0.7c-0.2-0.6-0.3-1.1-2.5-1-1.6 0-3.2 1.1-3.2 2.9 0.1 3.9 7.9 3.5 7.9 8.5 0.1 3.2-2.8 5.2-5.6 5.3z"/>
	<path id="Layer" class="s0" d="m162.2 47.3l-3.3-0.3c-0.3 0-0.9-0.1-0.9-0.5 0-0.2 0.1-0.3 0.5-0.4l0.7-0.1c0.2-0.1 0.5-0.1 0.6-0.1 0.1-0.2 0.1-0.5 0.1-1l1.3-12.9c0-0.4 0.1-0.7 0-0.9-0.1-0.1-0.4-0.1-0.6-0.2l-0.7-0.3c-0.3-0.1-0.4-0.2-0.3-0.4 0-0.4 0.6-0.4 1-0.4l3.3 0.4c0.4 0 0.9 0.1 0.9 0.5 0 0.2-0.1 0.3-0.5 0.4l-0.7 0.1c-0.2 0-0.5 0.1-0.6 0.2-0.1 0.1-0.1 0.3-0.1 0.8l-1.3 12.9c0 0.5 0 0.8 0.1 0.9 0 0.1 0.3 0.2 0.5 0.3l0.7 0.2c0.3 0.2 0.4 0.3 0.3 0.5 0 0.4-0.6 0.3-1 0.3z"/>
	<path id="Layer" class="s0" d="m182.5 36.7c-0.5-0.1-0.6-0.8-0.6-1l-0.2-0.7c-0.1-0.2-0.1-0.5-0.3-0.6-0.2-0.2-0.1-0.1-0.4-0.2l-3.2-0.7-3.1 13.8c-0.1 0.4-0.1 0.7-0.1 0.9 0 0.1 0.1 0.3 0.5 0.4l0.6 0.3c0.4 0.1 0.4 0.3 0.4 0.5-0.1 0.4-0.5 0.3-0.8 0.2l-3.8-0.8c-0.3-0.1-0.6-0.2-0.5-0.5 0-0.2 0.1-0.4 0.5-0.4h0.7c0.4 0.1 0.5-0.1 0.6-0.1 0.2-0.1 0.2-0.4 0.3-0.9l3.1-13.7-3-0.7c-0.3-0.1-0.2-0.1-0.4-0.1-0.2 0.1-0.4 0.3-0.6 0.5l-0.4 0.5c-0.2 0.3-0.5 0.8-1 0.7-0.4-0.2-0.3-0.6-0.1-0.9l0.9-2.1 11.4 2.6v2.2c0 0.4-0.1 0.8-0.5 0.8z"/>
	<path id="Layer" class="s0" d="m200.5 41.2c-0.3 0.2-0.7 0.5-1.1 0.8l-6.2 5.8-1.9 4.9c-0.2 0.3-0.3 0.6-0.2 0.8 0.1 0.4 1.4 0.9 1.1 1.4-0.1 0.3-0.4 0.2-0.6 0.1l-3.7-1.5c-0.2-0.1-0.4-0.2-0.3-0.5 0.2-0.5 1.6 0.2 1.8-0.2 0.1-0.2 0.2-0.5 0.4-0.8l1.9-4.8-0.5-8.5c-0.1-0.6-0.1-1-0.3-1.3 0-0.1-0.2-0.3-0.4-0.5l-0.5-0.4c-0.3-0.3-0.4-0.3-0.3-0.5 0.1-0.4 0.5-0.2 0.8 0l3.4 1.3c0.3 0.1 0.6 0.2 0.4 0.5-0.1 0.2-0.2 0.2-0.5 0.2h-0.6c-0.2 0-0.3-0.1-0.4 0.1 0 0.3 0 0.7 0.1 1l0.4 7 5.1-4.6c0.3-0.3 0.6-0.5 0.7-0.8 0.1-0.5-1.3-0.9-1.1-1.4 0.2-0.3 0.4-0.2 0.6-0.1l3.3 1.3c0.3 0.1 0.6 0.2 0.5 0.6-0.2 0.4-1.5-0.2-1.9 0.1z"/>
	<path id="Layer" fill-rule="evenodd" class="s0" d="m223.2 63.9c-2.7 3.7-7.8 5.4-11.5 2.8-4.1-3-3.7-8.1-1-11.9 2.6-3.6 7.6-5.4 11.5-2.5 4 2.8 3.7 7.8 1 11.6zm-1.6-10.9c-3.2-2.4-7.2-0.2-9.5 2.9-2.4 3.4-3.1 7.5 0.2 9.9 3.3 2.4 7.2-0.1 9.3-3 2.5-3.5 3.2-7.5 0-9.8z"/>
	<path id="Layer" class="s0" d="m238.1 70.5c-0.3-0.3-0.1-0.7 0-0.9l0.3-0.6c0.1-0.2 0.2-0.5 0.2-0.6-0.1-0.1-0.4-0.4-0.5-0.6l-3.3-3.2-4.9 4.9 2.8 2.8c0.3 0.3 0.5 0.5 0.7 0.6 0.2 0 0.4-0.1 0.6-0.2l0.6-0.4c0.3-0.1 0.4-0.2 0.7 0 0.2 0.1 0 0.4-0.2 0.5l-2.6 2.7c-0.1 0.1-0.3 0.2-0.5 0.1-0.2-0.2-0.1-0.6 0-0.8l0.4-0.5c0.1-0.2 0.2-0.4 0.1-0.6-0.1-0.2-0.3-0.4-0.5-0.7l-2.8-2.8-4.3 4.3c-0.4 0.4-0.6 0.6-0.6 0.7 0 0.1 0 0.3 0.1 0.4l0.4 0.7c0.2 0.3 0.2 0.5 0 0.7-0.2 0.2-0.5 0-0.7-0.2l-2.5-2.5c-0.3-0.3-0.7-0.7-0.4-1 0.1-0.1 0.2-0.2 0.5 0l0.7 0.4c0.1 0.1 0.4 0.2 0.5 0.2 0.2 0 0.4-0.2 0.8-0.6l9.2-9.2c0.3-0.3 0.5-0.5 0.5-0.6 0-0.1-0.2-0.4-0.3-0.6l-0.3-0.6c-0.2-0.3-0.2-0.5 0-0.6 0.3-0.3 0.7 0.1 0.9 0.4l6.5 6.4-0.9 1.2c-0.3 0.3-0.9 1.2-1.2 0.8z"/>
	<path id="Layer" class="s0" d="m238.2 93.8l-2.2-3.1c-0.2-0.4-0.6-0.9-0.2-1.2 0.2-0.1 0.4-0.1 0.7 0.1l0.6 0.6c0.2 0.1 0.5 0.4 0.5 0.4 0.3 0 0.5-0.2 1-0.5l12.3-8.5c0.4-0.3 0.7-0.4 0.7-0.7 0.1-0.1 0-0.4-0.1-0.6l-0.3-0.8c-0.1-0.4-0.1-0.5 0.1-0.7 0.4-0.2 0.8 0.3 1 0.7l2.2 3.1c0.3 0.4 0.6 0.9 0.2 1.2-0.2 0.1-0.3 0.1-0.6-0.1l-0.7-0.6c-0.2-0.1-0.5-0.3-0.6-0.3-0.2 0-0.4 0.1-0.9 0.4l-12.2 8.5c-0.5 0.3-0.8 0.5-0.8 0.7-0.1 0 0.1 0.4 0.1 0.6l0.3 0.8c0.1 0.4 0.1 0.6-0.1 0.7-0.5 0.3-0.8-0.3-1-0.7z"/>
	<path id="Layer" fill-rule="evenodd" class="s0" d="m244.7 105.7c-2.3-4.5 0.5-8.9 4.6-10.9 4.1-2 9.3-1.2 11.4 3.2 2.2 4.4-0.4 8.7-4.6 10.7-4.2 2-9.4 1.1-11.4-3zm15.2-7.3c-1.8-3.6-6.3-3.6-9.8-1.9-3.7 1.8-6.3 5.1-4.5 8.8 1.8 3.6 6.4 3.3 9.7 1.7 3.8-1.9 6.3-5.1 4.6-8.6z"/>
	<path id="Layer" class="s0" d="m270 130.2c-0.3-0.2-0.6-0.2-1-0.2l-15.7-0.3-0.1-0.6 13.3-7.7-15.4-0.2-0.1-0.5 13.3-7.9c0.5-0.3 1-0.6 1.1-0.7 0-0.1 0-0.5 0-0.7v-0.6c0-0.3 0.1-0.5 0.3-0.6 0.4-0.1 0.4 0.4 0.5 0.7l1 3.7c0.1 0.3 0.2 0.6-0.2 0.7-0.2 0-0.3-0.2-0.5-0.4l-0.3-0.5c-0.1-0.2-0.3-0.5-0.4-0.4-0.3 0-0.3 0-0.7 0.3l-10.3 5.8 11.8 0.1c0.3 0.1 0.5 0.1 0.8 0 0.4 0 0.2-1.4 0.5-1.5 0.5 0 0.4 0.2 0.5 0.4l0.9 3.8c0.1 0.3 0.3 0.6-0.2 0.6-0.2 0.1-0.9-1-1.1-0.9-0.2 0-0.4 0.1-0.7 0.2l-10.1 5.8 11.9 0.2c0.2 0 0.3 0 0.5-0.1 0.4 0-0.1-1.6 0.5-1.7 0.2 0 0.3 0.1 0.4 0.3l1 3.8c0 0.2 0.1 0.5-0.2 0.5-0.4 0.1-0.8-1.1-1.3-1.4z"/>
	<path id="Layer" fill-rule="evenodd" class="s0" d="m256.1 150.7c-0.5 0.1-0.4-0.3-0.4-0.6l-0.3-3.8c0-0.3-0.1-0.6 0.3-0.6 0.6 0 0.5 1.4 1 1.4 0.2 0 0.4-0.1 0.6-0.3l3.4-1.5-0.5-6.1-3.3-0.9c-0.5-0.1-0.6-0.1-0.9-0.1-0.1 0-0.3 0.3-0.3 0.5l-0.1 0.5c-0.1 0.3-0.2 0.5-0.4 0.5-0.3 0.1-0.4-0.3-0.4-0.5l-0.3-3.3c0-0.3-0.1-0.8 0.4-0.8 0.2 0 0.3 0.1 0.4 0.4l0.2 0.6c0.1 0.2 0.2 0.5 0.3 0.6 0.1 0.1 0.7 0.2 1.2 0.4l15.3 4v0.8l-14.5 6.6c-0.4 0.2-0.6 0.3-0.9 0.5-0.4 0.4-0.2 1.6-0.7 1.7zm13.2-9.2l-7.8-2 0.4 5.3c0 0 7.4-3.3 7.4-3.3z"/>
	<g id="Layer">
		<path id="Layer" fill-rule="evenodd" class="s0" d="m150.1 286.4c-74.9 0-135.8-60.9-135.8-135.8 0-74.8 60.9-135.7 135.8-135.7 74.8 0 135.7 60.9 135.7 135.7 0 74.9-60.9 135.8-135.7 135.8zm0-269.5c-73.8 0-133.8 60-133.8 133.7 0 73.8 60 133.8 133.8 133.8 73.7 0 133.7-60 133.7-133.8 0-73.7-60-133.7-133.7-133.7z"/>
		<path id="Layer" fill-rule="evenodd" class="s0" d="m150.1 279.8c-71.3 0-129.2-57.9-129.2-129.2 0-71.2 57.9-129.1 129.2-129.1 71.2 0 129.1 57.9 129.1 129.1 0 71.3-57.9 129.2-129.1 129.2zm0-257.8c-71 0-128.7 57.7-128.7 128.6 0 71 57.7 128.7 128.7 128.7 70.9 0 128.6-57.7 128.6-128.7 0-70.9-57.7-128.6-128.6-128.6z"/>
	</g>
	<path id="Layer" fill-rule="evenodd" class="s0" d="m150.6 247.3c-53.1 0-96.2-43.1-96.2-96.2 0-53 43.1-96.2 96.2-96.2 53 0 96.2 43.2 96.2 96.2 0 53.1-43.2 96.2-96.2 96.2zm0-190.9c-52.3 0-94.7 42.5-94.7 94.7 0 52.3 42.5 94.7 94.7 94.7 52.2 0 94.7-42.4 94.7-94.7 0-52.2-42.5-94.7-94.7-94.7z"/>
	<path id="Layer" fill-rule="evenodd" class="s0" d="m39.3 198.3c-1.6-3.9 0.9-7.3 4.4-8.7 3.4-1.4 7.6-0.5 9.1 3.2 1.5 3.7-0.8 7-4.3 8.5-3.5 1.4-7.8 0.4-9.2-3zm12.8-5.2c-1.3-3.1-5-3.3-7.8-2.1-3.2 1.3-5.5 3.8-4.2 7 1.3 3 5.1 3 7.8 1.9 3.2-1.4 5.4-3.9 4.2-6.8z"/>
	<path id="Layer" fill-rule="evenodd" class="s0" d="m49.7 217.2c-0.2 0.2-0.4-0.1-0.5-0.3l-1.1-1.8 3.8-6.1-0.8-1.4-4 2.4c-0.3 0.2-0.5 0.3-0.6 0.4 0 0.1 0.1 0.3 0.1 0.5l0.2 0.6c0 0.2 0 0.4-0.2 0.4-0.3 0.2-0.5-0.2-0.7-0.5l-1.3-2.3c-0.2-0.3-0.4-0.6-0.1-0.8 0.1-0.1 0.2-0.1 0.4 0.1l0.5 0.4c0.1 0.1 0.3 0.3 0.3 0.3 0.2 0 0.4-0.1 0.7-0.3l9.2-5.4c0.3-0.2 0.5-0.3 0.6-0.4 0-0.1-0.1-0.3-0.1-0.5l-0.2-0.6c0-0.2 0-0.4 0.2-0.4 0.2-0.2 0.5 0.2 0.6 0.5l2.1 3.5c1.5 2.5 0 4.4-1.3 5.1-2.4 1.4-4.7-0.6-4.7-0.6l-2.9 4.8c-0.1 0.2-0.2 0.3-0.3 0.5 0 0.1-0.1 0.4 0 0.6l0.2 0.7c0.1 0.2 0.1 0.5-0.1 0.6zm8.2-11.7l-0.8-1.4-5.3 3.1 0.7 1.3c0.9 1.4 2.7 1.9 4.3 0.9 1.3-0.9 2.2-2.1 1.1-3.9z"/>
	<path id="Layer" class="s0" d="m63.4 227l-0.8-0.5-2.8 2.1c0 0.1-2.4-0.3-4.1-2.5-2.3-2.8-1.7-6.6 1.9-9.4 3-2.4 7.3-2.6 9.8 0.7q1.4 1.9 1.4 3.8l-1.7 1.4c-0.2 0.1-0.4 0.1-0.6-0.1-0.1-0.2 0-0.4 0.1-0.6l0.8-1.2c0.4-0.5 0.3-1.4-0.7-2.8-2-2.8-5.4-2-8.1 0-2.6 1.8-4.4 5-2.2 7.7 0.7 1 1.9 1.8 2.7 1.8l2.7-2.1-0.1-0.4c-0.2-0.4-0.5-0.9-0.2-1.1 0.2-0.1 0.5 0.1 0.6 0.3l2 2.5c0.1 0.2 0.3 0.3 0 0.6-0.2 0.2-0.4-0.1-0.7-0.2z"/>
	<path id="Layer" fill-rule="evenodd" class="s0" d="m71 242c-0.2 0.3-0.4 0-0.6-0.2l-2.2-2.2c-0.2-0.1-0.4-0.3-0.1-0.5 0.3-0.4 1 0.5 1.3 0.3 0.2-0.1 0.2-0.3 0.3-0.4l1.3-2.8-3.6-3.6-2.5 1.3c-0.4 0.2-0.5 0.2-0.6 0.4-0.2 0.1-0.1 0.3 0 0.4l0.2 0.4q0.2 0.4 0.1 0.6c-0.2 0.2-0.5 0-0.6-0.1l-1.9-1.9c-0.2-0.2-0.5-0.5-0.3-0.7 0.2-0.1 0.3-0.1 0.5 0l0.5 0.3c0.2 0.1 0.4 0.2 0.4 0.2 0.2 0 0.6-0.2 1-0.4l11.6-5.7 0.5 0.5-5.5 11.8c-0.1 0.3-0.2 0.5-0.3 0.8 0 0.5 0.8 1.1 0.5 1.5zm3.2-12.8l-5.9 3 3.1 3z"/>
	<path id="Layer" class="s0" d="m91.4 241.1l-0.6-0.3c-0.1-0.1-0.3-0.1-0.4-0.1-0.2 0.1-0.4 0.3-0.6 0.6l-7.4 9.9-0.4-0.3 0.2-14.4-5.8 7.9c-0.2 0.3-0.4 0.5-0.4 0.7 0 0.1 0.1 0.2 0.2 0.4l0.3 0.3c0.2 0.3 0.3 0.5 0.2 0.7-0.2 0.3-0.5 0.1-0.7-0.1l-2.1-1.6c-0.3-0.2-0.7-0.4-0.5-0.7 0.2-0.1 0.3-0.2 0.5-0.1l0.5 0.3c0.2 0 0.5 0.1 0.5 0.1 0.2 0 0.3-0.1 0.7-0.6l6.3-8.4c0.2-0.4 0.4-0.5 0.3-0.8q0-0.2-0.2-0.4l-0.3-0.5c-0.2-0.3-0.2-0.3-0.1-0.4 0.2-0.2 0.3-0.1 0.4 0l1.6 1.2-0.2 13.7 5.8-7.9c0.1-0.1 0.2-0.3 0.2-0.4-0.1-0.1-0.2-0.2-0.3-0.3l-0.3-0.4c-0.1-0.2-0.4-0.5-0.1-0.7 0.1-0.1 0.2-0.1 0.4 0.1l2.5 1.8c0.3 0.2 0.5 0.4 0.3 0.6-0.1 0.1-0.3 0.1-0.5 0z"/>
	<path id="Layer" class="s0" d="m90.8 256.3l-2.4-1.4c-0.3-0.2-0.7-0.4-0.5-0.7 0.1-0.1 0.2-0.2 0.5-0.1l0.6 0.1c0.1 0.1 0.4 0.1 0.4 0.1 0.2 0 0.3-0.2 0.5-0.6l5.3-9.1c0.2-0.4 0.4-0.6 0.3-0.7 0-0.1-0.2-0.3-0.3-0.4l-0.4-0.4c-0.2-0.2-0.2-0.4-0.1-0.5 0.2-0.3 0.5 0 0.8 0.1l2.4 1.4c0.2 0.1 0.6 0.4 0.5 0.7-0.1 0.1-0.2 0.1-0.5 0.1l-0.6-0.2c-0.2 0-0.4 0-0.5 0-0.1 0.1-0.2 0.2-0.4 0.6l-5.4 9.1c-0.2 0.3-0.3 0.6-0.3 0.7 0.1 0.1 0.2 0.2 0.4 0.4l0.4 0.4q0.2 0.3 0.1 0.5c-0.2 0.3-0.6 0-0.9-0.2z"/>
	<path id="Layer" class="s0" d="m97.6 259l3.7 1.7c0.2 0.1 0.7 0.3 0.9 0.3 0.2 0.1 0.4-0.1 0.7-0.2l0.4-0.3c0.2-0.1 0.8-0.7 1.2-0.5 0.4 0.3 0 0.7-0.3 1l-1.2 1.4-7.5-3.5 12.6-8.8-3.1-1.5c-0.2-0.1-0.8-0.3-1-0.4-0.2 0-0.4 0.2-0.6 0.4l-0.4 0.3c-0.2 0.1-0.6 0.5-0.9 0.3-0.2-0.2 0-0.5 0.1-0.7l1-1.5 7 3.2c0 0-12.6 8.8-12.6 8.8z"/>
	<path id="Layer" class="s0" d="m116.8 267.3l-7.4-2.4c-0.3-0.1-0.8-0.2-0.7-0.6 0.1-0.1 0.2-0.2 0.4-0.2h0.6c0.2 0.1 0.5 0.1 0.5 0 0.2 0 0.2-0.3 0.3-0.7l3.3-10.1c0.1-0.4 0.2-0.6 0.1-0.7 0-0.1-0.2-0.2-0.4-0.3l-0.5-0.3c-0.2-0.2-0.2-0.3-0.2-0.5 0.1-0.3 0.6-0.1 0.9 0l7.3 2.3-0.3 1.2c-0.1 0.4-0.1 1.2-0.6 1-0.3-0.1-0.3-0.4-0.3-0.7v-0.5c0-0.2 0-0.4-0.1-0.5-0.1-0.1-0.4-0.1-0.6-0.2l-3.7-1.2-1.7 5.4 3.3 1.1c0.2 0 0.4 0.2 0.6 0.1 0.2-0.1 0.2-0.2 0.3-0.4l0.4-0.4c0.1-0.2 0.2-0.4 0.5-0.3 0.1 0 0.2 0.3 0.1 0.4l-1 3q0 0.2-0.3 0.2c-0.2 0-0.2-0.3-0.2-0.5v-0.5c0-0.2 0.1-0.4-0.1-0.5-0.1-0.2-0.3-0.2-0.6-0.3l-3.3-1.1-1.5 4.8c-0.1 0.3-0.2 0.6-0.2 0.7 0 0.1 0.1 0.2 0.2 0.2l3.5 1.1c0.3 0.1 0.3 0.1 0.5 0.1 0.3-0.1 0.3-0.1 0.4-0.3l0.8-0.6c0.2-0.1 0.6-0.6 0.9-0.4 0.3 0.1 0.2 0.4 0 0.5l-1.2 2.1z"/>
	<path id="Layer" fill-rule="evenodd" class="s0" d="m135 263.9c-0.9 4.7-4.6 6.3-7.9 5.7l-4.2-0.7c-0.3-0.1-0.9-0.1-0.7-0.5 0-0.1 0.1-0.1 0.4-0.1l0.6-0.1c0.2 0 0.4-0.1 0.5-0.1 0.1-0.1 0.1-0.4 0.2-0.8l1.9-10.4c0.1-0.4 0.1-0.6 0-0.8 0 0-0.2-0.1-0.4-0.2l-0.5-0.3c-0.3-0.1-0.4-0.2-0.3-0.4 0.1-0.4 0.3-0.3 0.7-0.2l4.6 0.8c4 0.8 5.7 5 5.1 8.1zm-5.4-7.3l-2.3-0.4-2.2 11.9c0 0.1 0.1 0.2 0.2 0.3q0.1 0.1 0.3 0.2l1.1 0.2c3.1 0.5 5.8-0.7 6.8-5.1 0.6-3-0.7-6.5-3.9-7.1z"/>
	<path id="Layer" class="s0" d="m153.1 260.1c-0.3 0-0.5-0.4-0.5-0.6l-0.2-0.5c0-0.2-0.1-0.4-0.2-0.4-0.2-0.1-0.5-0.1-0.7-0.1h-3.7v5.7h3.2c0.3 0 0.5 0 0.7 0 0.2-0.1 0.2-0.3 0.3-0.5l0.1-0.5c0.1-0.3 0.1-0.5 0.4-0.5 0.2 0 0.2 0.2 0.2 0.4v3.1c0 0.1 0 0.3-0.2 0.3-0.2 0-0.4-0.2-0.4-0.4l-0.1-0.5c-0.1-0.2-0.1-0.4-0.3-0.5-0.1 0-0.4 0-0.7 0h-3.2v4.9c0 0.4 0 0.7 0 0.8 0 0 0.2 0.1 0.3 0.1l0.7 0.2c0.3 0.1 0.3 0.1 0.3 0.4 0 0.2-0.3 0.3-0.5 0.3h-2.9c-0.3 0-0.8 0-0.8-0.4 0-0.1 0-0.2 0.3-0.3l0.6-0.1c0.2-0.1 0.4-0.1 0.5-0.2 0.1-0.1 0.1-0.4 0.1-0.8v-10.6c0-0.4 0-0.6-0.1-0.7-0.1-0.1-0.3-0.1-0.5-0.2l-0.5-0.1c-0.3-0.1-0.4-0.2-0.4-0.4 0-0.3 0.5-0.3 0.8-0.3h7.5l0.1 1.2c0 0.4 0.2 1.1-0.2 1.2z"/>
	<path id="Layer" class="s0" d="m166.6 270.6l-7.7 0.9c-0.4 0-0.8 0.1-0.9-0.3 0-0.1 0.1-0.2 0.3-0.3l0.6-0.2c0.2-0.1 0.4-0.2 0.4-0.2 0.1-0.2 0.1-0.4 0-0.8l-1.1-10.6c-0.1-0.4-0.1-0.6-0.2-0.7 0 0-0.3 0-0.5-0.1l-0.6-0.1c-0.2 0-0.3-0.1-0.3-0.3 0-0.3 0.4-0.4 0.7-0.4l7.6-0.9 0.2 1.3c0.1 0.3 0.4 1.1-0.1 1.1-0.3 0.1-0.4-0.3-0.5-0.5l-0.2-0.5c-0.1-0.1-0.2-0.3-0.3-0.3-0.2-0.1-0.4-0.1-0.7 0l-3.8 0.4 0.6 5.6 3.4-0.4c0.3 0 0.5 0 0.7-0.1 0.1-0.1 0.1-0.3 0.1-0.5l0.2-0.5c0-0.2 0-0.5 0.3-0.5 0.1 0 0.3 0.2 0.3 0.4l0.3 3.1q0 0.2-0.2 0.3c-0.2 0.1-0.4-0.2-0.4-0.4l-0.2-0.5c-0.1-0.1-0.1-0.3-0.3-0.4-0.2-0.1-0.4 0-0.7 0l-3.4 0.4 0.5 4.9q0.1 0.6 0.2 0.8c0 0 0.1 0.1 0.3 0.1l3.6-0.4c0.3-0.1 0.3-0.1 0.4-0.2 0.3-0.1 0.3-0.2 0.3-0.4l0.5-0.9c0.1-0.2 0.3-0.8 0.6-0.8 0.3 0 0.4 0.3 0.3 0.5z"/>
	<path id="Layer" fill-rule="evenodd" class="s0" d="m180.2 263.6c0.6 2.6-1.1 4.5-3.5 5.1l-4 0.9c-0.3 0.1-0.7 0.2-0.8-0.1-0.1-0.2-0.1-0.3 0.2-0.4l0.5-0.3c0.2-0.1 0.4-0.2 0.4-0.3 0.1-0.1 0-0.3 0-0.7l-2.5-10.4c0-0.4-0.1-0.6-0.2-0.7-0.1 0-0.3 0-0.5 0l-0.6-0.1c-0.3 0-0.3-0.1-0.4-0.2 0-0.4 0.4-0.5 0.7-0.5l3.8-0.9c2.2-0.5 3.9 0.7 4.3 2.3 0.6 2-0.8 3.2-1.1 3.5 0.9-0.1 3.3 0.4 3.7 2.8zm-6.7-7.8l-1.8 0.4 1.2 5.1 1.8-0.4c1.5-0.4 1.8-1.9 1.5-3.2-0.3-1.3-1.4-2.2-2.7-1.9zm1.3 5.9l-1.7 0.4 1.4 5.8c0 0.2 0.1 0.2 0.2 0.3 0.1 0.2 0.4 0.1 0.6 0l1.2-0.2c2.1-0.5 2.8-2.3 2.3-4-0.5-1.8-1.6-2.9-4-2.3z"/>
	<path id="Layer" class="s0" d="m186.9 265.9c-0.6 0.3-1.4-0.1-1.6-0.8-0.2-0.6 0.2-1.3 0.9-1.5 0.6-0.2 1.3 0.2 1.5 0.8 0.2 0.6-0.1 1.3-0.8 1.5z"/>
	<path id="Layer" class="s0" d="m203.6 256.4l0.4 2.3-7.1 3.4-0.5-0.9c0.2-0.4 1.3-3.8 1.8-6.3 0.4-2 0.9-3.7 0.2-5.3-0.4-1-1.8-2-3.4-1.2-1.4 0.7-1.6 2.5-1.7 3.6 0 0.2 0.1 0.5-0.2 0.5-0.2 0.1-0.4-0.1-0.5-0.4-0.7-1.5 0.2-4.1 2.1-5 2.4-1 4 0 4.9 1.8 1 1.7 0.3 4.2-0.4 6.5-0.5 2-1 3.1-1.7 5l4.2-2c0.2-0.1 0.3-0.2 0.5-0.4 0.1-0.2 0.2-0.4 0.2-0.7l0.1-0.9c0.1-0.5 0.2-1 0.5-1.1 0.1-0.1 0.4 0 0.5 0.2 0.1 0.3 0.1 0.5 0.2 0.9z"/>
	<path id="Layer" class="s0" d="m211.8 254.4c-1.2 0.8-3.6 0.8-3.8-0.1-0.1-0.7 1.6 0.3 3.1-0.7 1.6-1.1 2-3.3 0.9-4.9-2.3-3.4-6.8-0.1-6.9 0l-1.8-5.9 4.8-3 0.3 1.3-3.7 2.3 1 3.6c1.1-0.9 5.1-2.7 7.4 0.7 1.5 2.2 0.9 5.3-1.3 6.7z"/>
	<path id="Layer" class="s0" d="m240.4 229.7l-1.7 2c-0.2 0.3-0.5 0.7-0.7 0.4-0.1-0.1-0.1-0.3 0-0.4l0.2-0.6c0.1-0.2 0.2-0.4 0.2-0.4 0-0.2-0.3-0.4-0.6-0.6l-7.3-6.4-0.5-0.4-0.4 0.4-0.8 0.9c-0.2 0.3-0.4 0.3-0.5 0.2-0.3-0.3 0.4-0.9 0.6-2 0.2-0.9 0-1.5 0.2-1.7 0.3-0.3 0.5 0 0.7 0.2l8.9 7.8c0.3 0.2 0.5 0.4 0.7 0.5 0-0.1 0.2-0.2 0.4-0.3l0.5-0.2c0.2-0.2 0.3-0.2 0.4-0.1 0.3 0.2-0.1 0.5-0.3 0.7z"/>
	<path id="Layer" fill-rule="evenodd" class="s0" d="m246.4 222.4c-1.4 1.8-4.1 2.1-5.8 0.8-1.4-1-1.7-2.8-1.5-4.2-1.1 0.5-2.6 0.5-3.7-0.4-1.5-1.2-1.8-3.4-0.7-4.9 1.1-1.5 3.3-1.8 4.8-0.6 1.1 0.8 1.5 1.9 1.5 3.2 1.4-0.8 3-0.9 4.4 0 2 1.3 2.4 4.1 1 6.1zm-11-8.1c-0.7 1-0.1 2.5 0.9 3.2 1.1 0.8 2.7 0.9 3.4-0.2 0.7-1.1 0-2.4-1.1-3.1-1-0.7-2.3-1-3.2 0.1zm9.4 3.4c-1.3-1-3.2-1.1-4.2 0.2-1.1 1.3-0.6 3.1 0.9 4.2 1.4 1.1 3.2 1.1 4.2-0.5 1.1-1.6 0.3-3-0.9-3.9z"/>
	<path id="Layer" fill-rule="evenodd" class="s0" d="m252.5 206.5l2.6 1.5-0.6 1.1-2.6-1.5-3.2 5.6-0.8-0.4-5.5-10.8 0.4-0.8 8.6 4.7 0.9-1.5 1 0.6zm-1.6 0.4v0.1zm0 0l-6.7-3.8 4.2 8.2z"/>
	<path id="Layer" class="s0" d="m259.1 199.8l-0.7 1.5-9.6-10.8-1.6 3.9c-0.1 0.3-0.2 0.6-0.2 0.8 0 0.2 0.3 0.6 0.5 1l0.3 0.5c0.2 0.3 0.5 0.7 0.3 1-0.2 0.2-0.4 0.2-0.6 0l-2.2-1.8 3-7.2c0 0 10.7 11 10.7 11z"/>
	<path id="Layer" class="s0" d="m263.3 188.5c-0.1 0.7-0.9 1.1-1.6 0.9-0.6-0.2-0.9-1-0.7-1.6 0.2-0.6 0.9-1 1.6-0.8 0.6 0.2 0.9 0.8 0.7 1.5z"/>
	<path id="Layer" class="s0" d="m214.8 235.7l-0.7-0.6-3.9 2.9 0.4 0.8c0.1 0.1 0.2 0.3 0.3 0.2 0.2-0.1 0.1-0.4 0.1-0.5l-0.1-0.2c0-0.2 0-0.3 0-0.3 0.1-0.1 0.1-0.1 0.2-0.2l1-0.7 3.4 4.6c0.1 0.2 0.2 0.3 0.2 0.4 0 0 0 0.1-0.1 0.2l-0.2 0.2c-0.1 0.1-0.1 0.2 0 0.3 0.1 0.1 0.2 0 0.3-0.1l1.2-0.9c0.1-0.1 0.3-0.2 0.2-0.3-0.1-0.1-0.1-0.1-0.3-0.1l-0.2 0.2c-0.2 0-0.3 0-0.3 0q-0.1 0-0.2-0.3l-3.5-4.6 1.1-0.8c0.1-0.1 0.1-0.1 0.2-0.1 0.1 0 0.2 0.1 0.3 0.1l0.2 0.1c0.1 0.1 0.3 0.2 0.5 0.1 0.1-0.1 0-0.3-0.1-0.3z"/>
	<path id="Layer" class="s0" d="m220.2 230.5l-0.2 0.3c0 0-0.1 0.1-0.1 0.2 0 0 0 0.1 0.2 0.2l3.4 4.1c0.1 0.2 0.2 0.3 0.3 0.3 0 0 0.2-0.1 0.2-0.1l0.3-0.1c0.2-0.1 0.2-0.1 0.3 0 0.1 0.1-0.1 0.3-0.3 0.4l-1 0.8c-0.1 0.1-0.3 0.3-0.4 0.2q0-0.1 0.1-0.3l0.1-0.2c0.1-0.1 0.1-0.2 0.1-0.2 0-0.1-0.1-0.2-0.1-0.3l-1.7-1.9-2.3 2 1.5 1.9c0.2 0.1 0.2 0.2 0.3 0.2 0 0 0.2 0 0.2 0l0.3-0.2c0.2 0 0.2 0 0.3 0 0.1 0.2-0.1 0.3-0.3 0.5l-1 0.8c-0.1 0.1-0.3 0.3-0.4 0.2 0-0.1 0-0.2 0.1-0.3l0.1-0.2c0.1-0.1 0.1-0.2 0.1-0.2 0-0.1-0.1-0.2-0.2-0.3l-3.4-4.1c-0.2-0.2-0.2-0.2-0.3-0.3 0 0-0.1 0.1-0.2 0.1l-0.3 0.1c-0.1 0.1-0.2 0.1-0.2 0-0.1-0.1 0-0.3 0.2-0.4l1.1-0.9c0.1-0.1 0.2-0.2 0.3-0.1q0.1 0.1 0 0.3l-0.2 0.2c0 0.1-0.1 0.2-0.1 0.3q0 0 0.1 0.1l1.6 2 2.4-2.1-1.5-1.8c-0.2-0.1-0.2-0.2-0.3-0.2 0 0-0.1 0-0.2 0.1l-0.3 0.1c-0.1 0.1-0.2 0-0.2 0-0.1-0.2 0.1-0.3 0.2-0.4l1.1-1c0.1-0.1 0.3-0.2 0.4 0 0.1 0.1 0 0.1-0.1 0.2z"/>
	<path id="Layer" class="s0" d="m145.3 234.1l64-38.5 0.2 0.2-64 38.5z"/>
	<path id="Layer" class="s0" d="m125.4 84.2c0.3-1.6 1-3.6 2.5-4.3 1.5-0.8 3.3-1.3 4.9-1.4 1.3-0.2 2.5 0.1 3.7 0.5 0.4 0.1 0.8 0.4 1.2 0.4 0.2 0.1 0.1 0.2 0.1 0q0 0.2 0 0.3c0.1 1.3 0.1 2.5-0.2 3.8-0.1 0.6-0.3 1.3-0.5 2-0.1 0.5-0.3 1.1-0.7 1.5-0.5 0.4-1.3 0.7-1.9 0.7-0.1 0 0.2 0.1 0.1 0-0.1 0-0.1-0.1-0.1-0.1q-0.3-0.2-0.5-0.4c-0.9-0.8-1.9-1.5-3-2.1q-1.3-0.7-2.6-1.4v0.3l1.3-1.1q0.2-0.1 0.3-0.3c0.1 0-0.1 0.1 0 0.1 0.1-0.1 0.3-0.1 0.5-0.1 1.3 0 3.5 0.1 4.1 1.6l0.3-0.1c-0.4-0.7-1.3-1.1-2-1.4-1.4-0.5-3-0.6-4.5-0.4-0.8 0.1-3.7 0.5-3.4 1.9 0.1 0.2 0.4 0.1 0.3-0.1 0-0.1 0.2-0.4 0.4-0.6 0.8-0.7 2.2-0.8 3.2-0.9 1.3-0.2 2.6 0 3.8 0.4 0.6 0.2 1.5 0.6 1.9 1.2 0.1 0.2 0.4 0.1 0.3-0.1-0.6-1.6-2.7-1.8-4.2-1.8-0.3 0-0.7-0.1-1 0.1-0.5 0.4-1 0.9-1.5 1.3-0.1 0.1-0.1 0.3 0 0.3q1.5 0.8 2.9 1.5c1.1 0.6 2.1 1.4 3.1 2.3 0.6 0.6 1.9-0.1 2.4-0.6 0.5-0.4 0.7-0.9 0.8-1.4 0.3-0.8 0.5-1.7 0.6-2.5 0.2-1.3 0.2-2.7 0.2-4q0-0.1-0.1-0.1c-1.1-0.5-2.3-0.9-3.5-1.1-1.7-0.3-3.6 0.2-5.2 0.8-0.8 0.2-1.6 0.5-2.3 1-0.5 0.5-0.9 1-1.2 1.6-0.4 0.8-0.7 1.7-0.9 2.6 0 0.2 0.3 0.3 0.4 0.1z"/>
	<g id="Layer">
		<path id="Layer" class="s0" d="m129.6 78.8l8.8-8-5.2-0.5 13.2-8.1-5.2 12.6-1.3-3-7.3 6.3"/>
		<path id="Layer" class="s0" d="m129.9 79q3.8-3.5 7.7-6.9l1-1c0.3-0.3 0.1-0.6-0.2-0.6q-2.6-0.3-5.2-0.6 0.1 0.3 0.2 0.6 5.7-3.5 11.5-7 0.8-0.5 1.6-1l-0.5-0.4q-2.2 5.5-4.5 11l-0.6 1.6 0.6-0.1q-0.6-1.5-1.3-3c-0.1-0.2-0.4-0.2-0.5-0.1q-3.7 3.2-7.3 6.3c-0.4 0.3 0.1 0.8 0.5 0.5q3.6-3.1 7.3-6.3l-0.6-0.1q0.7 1.5 1.3 3.1c0.2 0.3 0.6 0.1 0.7-0.1q2.2-5.5 4.5-11.1l0.6-1.5c0.1-0.3-0.3-0.5-0.5-0.4q-5.8 3.5-11.5 7-0.9 0.5-1.7 1c-0.3 0.2-0.1 0.7 0.2 0.7q2.6 0.3 5.2 0.6l-0.2-0.6q-3.9 3.4-7.7 6.9l-1.1 1c-0.3 0.3 0.1 0.8 0.5 0.5z"/>
	</g>
	<path id="Layer" class="s0" d="m138.7 78.8c0.9-1.6 2.2-2.5 4.1-2.4 1.5 0.1 3 0.4 4.3 1 2.6 1.3 4.2 3.8 6.5 5.4 1.9 1.3 3.9 2.8 5.9 3.8 0.1 0 0.4 0.1 0.4 0.1 0.1 0.2 0-0.1-0.1 0.1-0.1 0.7-1.5 0.7-2 0.7-0.9 0.1-1.8 0-2.6 0-0.2 0-0.9 0.2-0.7 0.4 0.9 1.2 1.7 2.5 2.6 3.7 1.2 1.4 2.5 2.5 4 3.5 1.4 1 2.9 2 4.4 2.8 0.1 0 0.5 0.1 0.5 0.2 0.4 0.5-1.5 0.7-1.9 0.7-0.6 0-1.2 0-1.7 0.2-0.1 0-0.7 0.2-0.5 0.4 2 1.2 3.6 3.3 4.8 5.2 1.3 2.1 1.3 4.5 2.6 6.4 1.5 2.1 3.5 3.9 4.5 6.3 0.5 1.5 0.8 3.2 1 4.8l1-0.3c-0.8-0.9-1.4-2.1-2.7-1.5-1.1 0.4-1.7 1.8-2.3 2.7-0.7 0.8-1.4 1.6-2.6 1.5-0.8-0.1-1.6-0.6-2.3-1q-1.2-0.6-2.3-1.4c-0.2-0.2-0.8 0-0.9 0.2-1.4 1.3-3.5 3.3-5.6 2.6-1.6-0.5-3.1-1.6-4.4-2.6-0.2-0.2-0.8 0-0.9 0.2-1.3 1.3-3.3 2.9-5.2 2-1.3-0.5-2.4-1.6-3.3-2.6-0.2-0.2-0.8 0.1-0.9 0.2q-0.4 0.3-0.9 0.6c-1.2 0.8-2.1 0.7-3.3 0.1q-1.5-0.8-2.9-1.8c-0.2-0.1-0.8 0-1 0.3-0.1 0.2-0.1 0.1 0.2 0h0.7c0.1-0.8 0.7-1.7 1.1-2.4q0.7-1.8 1.4-3.6c1.1-2.9 2.1-6 2.6-9.1 0.2-1.6 0.1-3.3 0.1-4.9-0.1-1.9-0.2-3.9-0.9-5.6-0.7-1.6-2.2-2.7-3.1-4.2-0.5-0.9-0.8-1.6-0.8-2.6 0-0.7-0.1-1.1-0.7-1.3l-0.5 0.4c1.5-0.2 2.9-0.9 3.4-2.5 0.3-1.1 0.5-2.3 0.6-3.5 0.1-1-0.2-2.2 0.3-3.2 0.1-0.1-0.9-0.1-1 0.2-0.3 0.5-0.2 0.9-0.2 1.5 0 1.1-0.1 2.1-0.3 3.2-0.3 1.7-0.6 3.6-2.7 3.9-0.1 0-0.8 0.3-0.5 0.4 1 0.3 0.5 1.7 0.7 2.4 0.3 0.7 0.7 1.4 1.1 2 1 1.4 2.4 2.6 2.9 4.3 0.6 1.8 0.6 3.8 0.7 5.7 0 1.6 0 3.2-0.3 4.7-0.5 3-1.5 5.9-2.5 8.7q-0.6 1.7-1.4 3.4c-0.3 0.7-0.9 1.5-1 2.3-0.1 0.3 0.6 0.1 0.7 0 0.2 0 0.3-0.2 0.4-0.4l-0.9 0.3c1.4 0.9 3.2 2.4 5 2.4 1.4 0 2.9-0.8 3.9-1.8l-0.9 0.2c1.2 1.5 3.1 3.2 5.1 3.1 2.1-0.1 3.9-1.5 5.2-2.9l-0.9 0.2c1.5 1.3 3.8 3.1 5.9 3 2.2-0.1 4.4-1.9 5.9-3.4l-1 0.2c1.6 1.2 3.9 2.8 6 2.5 1.3-0.1 2.3-1 3.1-2 0.4-0.6 0.7-1.3 1.2-1.8 0.8-0.8 1.3 0.4 1.9 1 0.2 0.2 1 0 1-0.3-0.2-1.6-0.5-3.3-1.1-4.8-0.9-2.6-3.2-4.4-4.6-6.6-0.6-1-0.9-1.9-1.1-3-0.3-1.2-0.8-2.3-1.5-3.3-1.3-1.9-2.8-3.9-4.6-5.1l-0.5 0.3c0.9-0.2 2 0 2.9-0.2 0.8-0.2 1.4-0.5 1.8-1.3 0 0 0-0.1-0.1-0.1-1.1-0.3-2.2-1.1-3.1-1.7-1.2-0.8-2.4-1.6-3.6-2.5-2-1.6-3.4-3.9-4.9-5.9l-0.7 0.4c1.7-0.1 5.3 0.6 6.2-1.6 0-0.1-0.1-0.1-0.2-0.1-0.8-0.1-1.8-0.9-2.5-1.4q-1.7-1.1-3.5-2.3c-2.3-1.6-3.9-4.1-6.4-5.4-3.4-1.8-8.6-2.1-10.7 1.8 0 0.2 0.9 0.1 1-0.2z"/>
	<path id="Layer" fill-rule="evenodd" class="s0" d="m143.2 82.6q0 0 0 0 0 0 0 0zm-1.9-0.6c-0.6-0.4-1.2-1.6-1.2-1.7l-0.1-0.1 0.1-0.1c0.7-0.4 1.1-0.5 1.9-0.1 0.7 0.4 1.9 2.2 2 2.3l0.1 0.2-0.3 0.1q-0.3 0-0.6 0c-0.9 0-1.5-0.3-1.9-0.6zm-0.8-1.7c0.1 0.4 0.5 1.1 1 1.4 0.5 0.4 1.1 0.7 2 0.6-0.4-0.6-1.3-1.7-1.7-2-0.6-0.3-0.9-0.2-1.3 0z"/>
	<g id="Layer">
		<path id="Layer" class="s0" d="m141.2 80.1c0 0 0.6 0 0.5 0.6-0.1 0.5-0.3 1.1-0.3 1.1l-1.2-1.5 1-0.3z"/>
		<path id="Layer" fill-rule="evenodd" class="s0" d="m141.4 82.2zm-1.5-2l1.3-0.3c0 0 0.4 0 0.5 0.2q0.2 0.2 0.2 0.6c-0.2 0.6-0.3 1.2-0.3 1.2l-0.2 0.3zm0.7 0.2l0.7 1.1c0.1-0.3 0.2-0.6 0.2-0.8q0.1-0.2 0-0.3c-0.1-0.1-0.2-0.1-0.2-0.2 0 0-0.8 0.2-0.7 0.2z"/>
	</g>
	<path id="Layer" class="s0" d="m128.1 192.9c0.7-1 1.8-1.9 3.1-1.3 0.8 0.4 1.3 1.5 1.5 2.4q0 0 0.1 0c1.3-0.8 3-0.7 4.4-1.4 1.5-0.8 2.3-2.3 2.6-3.9 0.2-1.4 0.2-2.7 0-4.1-0.1-1.1-0.5-2.2-0.2-3.4 0.3-1.7 1.1-3.2 1.8-4.8 0.7-1.8 1.4-3.7 1.8-5.6 0.4-1.9 0.8-4.3-0.3-6.2-1.9-3.1-4.7-5.8-8.5-6.1 0 0 0 0.8 0.1 0.9 3.4 0.3 6.3 2.5 8 5.3 0.3 0.5 0.7 1 0.9 1.5 0.1 0.5 0 1-0.1 1.5-0.1 1.1-0.3 2.3-0.6 3.3-0.4 2-1.2 3.8-1.9 5.6-0.6 1.4-1.4 3-1.5 4.6-0.1 1.4 0.4 2.8 0.5 4.3 0 1.6-0.2 3.5-1.2 4.9-1.2 1.5-2.9 1.7-4.6 2.2-0.3 0-1.1 0.5-1.3 0.5-0.3 0 0 0.1-0.2-0.2-0.3-0.5-0.4-1.1-0.8-1.5-1.2-1.6-2.8-0.6-3.8 0.6-0.1 0.2 0.3 0.7 0.2 0.9z"/>
	<path id="Layer" class="s0" d="m134.6 158.6c-3-0.1-6.5 0.9-8.9 2.8-2.5 1.8-3.6 4.5-3.9 7.3-0.1 1 0 2 0 3-0.1 1.7-0.4 3.4-0.6 5.1-0.4 3.2-0.3 6.3 1.4 9.1 1.4 2.4 3.1 4.6 4.9 6.7 0.3 0.3 1.2 0 0.9-0.4-1.7-2.1-3.3-4.2-4.8-6.5-2.2-3.6-1.6-7.6-1.1-11.5 0.4-3 0-6 1.1-8.9 1.6-4.1 6.4-6.3 10.6-6.1 0.5 0 1.1-0.6 0.4-0.6z"/>
	<path id="Layer" class="s0" d="m172.6 194c-0.1-1 0-2.1-0.2-3.1-0.5-1.5-2.2-1-3.3-0.5-0.7 0.4-1.1 1-1.8 1.3 0 0.1-0.1 0.3-0.2 0.3-0.2 0-0.8-0.4-1-0.5-0.6-0.4-1.2-1-1.6-1.6-0.7-1.2-0.5-2.4-0.3-3.7 0.3-2.5 0.8-5.6-0.5-7.9-1.3-2.6-2.4-5.1-2.2-8.2 0.2-1.9 0.5-4.1 1-5.9 1.3-4.5 6.8-5.9 10.9-5.6-0.1 0-0.1-0.8-0.2-0.8-3.8-0.4-8.9 0.8-10.6 4.7-0.7 1.6-0.8 3.5-1.1 5.3-0.3 1.8-0.2 3.7 0.2 5.5 0.3 1.4 0.7 2.9 1.3 4.2 0.4 0.8 1.1 1.6 1.2 2.5 0.3 1.2 0.1 2.5 0 3.7-0.3 2.7-0.9 5.8 1.2 8 0.4 0.3 1.4 1.3 1.9 1.2 0.1-0.1 0.4-0.5 0.5-0.6q0.5-0.4 1.1-0.7c0.8-0.5 2.1-1.1 3-0.8 0.8 0.4 0.5 1.7 0.6 2.4 0 0.3 0.1 0.6 0.1 0.8z"/>
	<path id="Layer" class="s0" d="m173 158.9c2 0.2 3.8 0.7 5.2 2.3 1.3 1.5 2.5 3.1 3.2 5 1.2 3.5 0 6.9-0.2 10.4-0.1 1.6 0.2 3.2 0.2 4.8 0 1-0.1 2-0.4 2.9-0.3 1-0.9 1.8-1.3 2.7-0.8 1.6-1.6 3.1-3 4.2-1.1 0.7-2.4 1.3-3.7 1.5-1 0.1-1.1 1.6 0 1.5 2.5-0.3 4.9-1.6 6.5-3.5 0.9-1.2 1.5-2.7 2.2-4 0.9-1.6 1.4-3.1 1.4-4.9 0.1-1.5-0.2-2.9-0.2-4.4 0-1.4 0.3-2.8 0.5-4.2 0.5-3.5 0.4-6.5-1.3-9.6-0.9-1.6-2.2-3.5-3.7-4.6-1.4-1-3.3-1.4-5-1.6-1-0.1-1.6 1.4-0.4 1.5z"/>
	<path id="Layer" class="s0" d="m139.6 188.3c-0.2 1.7 0.7 4.3 2.8 3.6 1.3-0.4 2.5-1.4 3.4-2.3 0.3-0.3 0.1-0.4 0.3 0 0.2 0.4 0.3 0.9 0.5 1.3 1 1.6 2.3 1.5 3.7 0.5q0.8-0.6 1.6-1.3c0-0.1 0.3-0.5 0.4-0.5 0.1 0 0 0.2 0.2 0.2 0.5 0.3 0.7 1.1 1.3 1.4 0.7 0.4 1.5 0.4 2.1-0.1 0.3-0.3 1.9-2.6 1.8-2.6 0.1 0 0.7 1.1 0.8 1.2 0.7 0.7 1.6 1 2.5 0.8 1.3-0.3 2.4-1.6 3-2.8 0.1-0.2-0.3-0.6-0.2-0.8-0.6 1.1-1.6 2.4-3 2.7-1.4 0.4-2.8-0.6-3.3-2-0.4 1-1.1 2.3-2.1 2.8-1.3 0.7-2.7-0.5-3.3-1.6-0.9 0.9-2.1 2.2-3.5 2.5-1.5 0.3-2.4-1.4-2.7-2.7 0 0.1-0.1-0.1-0.1-0.1-0.8 0.9-1.9 1.8-3 2.3-1.4 0.7-3.2 0.2-3.1-1.7 0.1-0.2-0.2-0.5-0.1-0.8z"/>
	<path id="Layer" class="s0" d="m130.9 197.3c-0.3 2.7-0.6 5.3-0.6 8 0 0.4 0.6 0.4 0.8 0.2 2.3-1.7 5.6-3.4 6.7-6.2l-1-0.1c-0.6 3.5-0.6 7.2-0.5 10.8 0.1 0.4 0.7 0.4 0.9 0.2 2.5-2.3 5.9-4.4 7.1-7.7h-1c0.1 3.6 0.7 7.4 1.9 10.8 0.1 0.4 0.7 0.3 0.9 0 2.3-2.3 5.4-5 6.2-8.3l-1 0.2c1.2 2.6 2.7 5.1 4.2 7.5 0.2 0.3 0.8 0.1 1-0.2 0.7-1.5 1.6-3 2.4-4.6 0.5-1.1 1-2.2 1.1-3.4l-1 0.3c1.4 1.9 3.1 3.1 5 4.5 0.2 0.2 0.7 0 0.9-0.2 1-2.3 1.9-5 1.6-7.5l-0.8 0.5c1.4 0.7 3.1 1.1 4.6 1.4 0.5 0.1 1-0.6 0.4-0.7-1.5-0.4-3-0.7-4.4-1.4-0.3-0.1-0.8 0.1-0.8 0.5 0.2 2.4-0.6 5-1.6 7l0.9-0.2c-1.9-1.3-3.5-2.5-4.9-4.4-0.2-0.3-0.9-0.1-0.9 0.3-0.1 1.3-0.7 2.4-1.2 3.5-0.8 1.5-1.6 2.9-2.3 4.3l0.9-0.1c-1.5-2.4-2.9-4.8-4.1-7.4-0.2-0.4-0.9-0.2-1 0.2-0.4 1.6-1.6 3-2.6 4.2-1 1.3-2.2 2.6-3.4 3.7l0.9 0.1c-1.2-3.3-1.8-7.2-1.8-10.7 0-0.5-0.9-0.4-1 0-1.2 3.2-4.5 5.1-6.9 7.3l0.9 0.2c-0.2-3.6-0.2-7.2 0.4-10.7 0.1-0.5-0.8-0.4-1-0.1-1 2.7-4.2 4.4-6.3 5.9l0.8 0.2c0-2.6 0.3-5.3 0.6-8 0-0.5-1-0.4-1 0.1z"/>
	<path id="Layer" class="s0" d="m140.3 190.4q-1.4 3.7-2.7 7.3l-0.4 1.1c0 0.1 0.1 0.3 0.1 0.4 0 0.1 0.1 0.4 0.1 0.4q1.3-3.6 2.7-7.3l0.3-1.1c0.1-0.1 0-0.3 0-0.4 0-0.1-0.2-0.4-0.1-0.4z"/>
	<path id="Layer" class="s0" d="m145.9 188.5q-1 5.9-1.9 11.8l-0.2 1.7c-0.1 0.3 0.2 0.6 0.1 0.9q1-5.9 1.9-11.8l0.2-1.7c0.1-0.3-0.2-0.6-0.1-0.9z"/>
	<path id="Layer" class="s0" d="m152.1 188.8q-0.1 7-0.3 14v2c0 0.3 0.1 0.7 0.1 0.9q0.2-7.1 0.4-14.1v-2c0-0.3-0.2-0.7-0.2-0.8z"/>
	<path id="Layer" class="s0" d="m157.4 188q0.8 7.3 1.7 14.5l0.2 2.1c0 0.2 0.4 0.2 0.3 0q-0.8-7.3-1.6-14.5l-0.2-2.1c0-0.2-0.4-0.2-0.4 0z"/>
	<path id="Layer" class="s0" d="m161.9 189.7q1.7 5.3 3.4 10.6l0.5 1.5c0.1 0.2 0.5 0.1 0.4-0.1q-1.8-5.3-3.5-10.6l-0.5-1.5c-0.1-0.2-0.4-0.1-0.3 0.1z"/>
	<path id="Layer" fill-rule="evenodd" class="s0" d="m116.7 210.4zm-0.3-0.4c-2.3-2.7-3.8-5.5-7.1-11.6-3.3-6.3-1.2-16.6 2.7-21.8 4.2-5.6 7.5-12.2 7.6-14.2h0.4c0 0 0.1 1 0 2.2-0.2 1.2-2.5 6.3-3.8 8.4-0.3 0.5-0.8 1.1-1.3 1.7-1.4 1.8-3.3 4.1-4.5 7.5-1.7 4.6-1.6 8.3-0.9 12.4 0.8 4 5.7 12.2 7.2 13.5 0.4 0.3 0.5 0.5 0.5 0.5l0.1 0.1-0.1 0.1c0 0-0.4 0.5-0.5 1.1v0.4zm3.2-46.3c-0.9 3.1-4.1 8.8-7.3 13.1-3.9 5.1-6 15.2-2.7 21.4 3.1 5.9 4.6 8.7 6.8 11.3 0.1-0.4 0.3-0.7 0.4-0.8q-0.1-0.1-0.3-0.3c-1.6-1.3-6.6-9.7-7.3-13.8-0.7-3.6-1-7.6 0.8-12.6 1.3-3.4 3.2-5.8 4.6-7.5q0.8-1 1.3-1.7c1.3-2.1 3.6-7.1 3.7-8.3q0-0.4 0-0.8z"/>
	<path id="Layer" fill-rule="evenodd" class="s0" d="m133.7 220.5c-0.8 0-1.6-0.1-2.2-0.2-1.6-0.4-5.7-1.8-7.1-3.6-0.4-0.5-0.3-0.9 0-1.1q0.1-0.1 0.3-0.1l0.1-0.2q0.1 0.1 0.3 0.1c0.3 0.1 0.7 0.3 0.8 0.4l0.1 0.1v0.1c0 0-0.1 0.1-0.1 0.1 1 0.8 2.6 1.8 3.6 2.1l0.2 0.1c1.4 0.5 4.5 1.5 6.7 1.4l0.1 0.3c-0.5 0.4-1.7 0.5-2.8 0.5zm-8.9-4.7q-0.1 0-0.2 0.1c-0.1 0.1-0.2 0.3 0.1 0.6 1.3 1.8 5.3 3.1 6.9 3.5 1 0.2 2.6 0.2 3.7 0-2.1-0.1-4.5-1-5.7-1.3l-0.3-0.1c-1.3-0.5-3.7-2.2-4.5-2.8z"/>
	<path id="Layer" class="s0" d="m116.4 210.4c-0.8-0.6-4.2-2.5-6.2-3.1-0.6-0.2-1-0.4-1.4-0.5-0.7-0.3-1-0.4-2.1-0.6-1.7-0.1-3.5 0.1-3.5 0.1v-0.3c0 0 1.8-0.3 3.5-0.1 1.2 0.1 1.5 0.3 2.2 0.5 0.4 0.2 0.8 0.3 1.5 0.5 1.9 0.7 5.4 2.6 6.2 3.2z"/>
	<path id="Layer" class="s0" d="m103.1 213.4c0-0.1-0.2-2.6 0.3-4.2 0.5-1.7 1.2-2.5 1.9-3.3l0.2 0.2c-0.6 0.8-1.2 1.6-1.7 3.2-0.5 1.5-0.4 4.1-0.4 4.1 0 0-0.3 0-0.3 0z"/>
	<path id="Layer" class="s0" d="m107.7 207.9h-0.4c0-0.8 0.2-1.2 0.3-1.4q0-0.1 0.1-0.3l0.3 0.1q0 0.2-0.1 0.3c-0.1 0.3-0.2 0.5-0.2 1.3z"/>
	<path id="Layer" class="s0" d="m112.4 204.1c-1.2-1.4-3.2-2.8-4.7-3.4-1.5-0.6-2.5-0.8-2.5-0.8l0.1-0.3c0 0 1 0.2 2.5 0.8 1.6 0.6 3.6 2 4.9 3.4l-0.3 0.2z"/>
	<path id="Layer" class="s0" d="m114.8 206.3c-0.5-1.2-0.9-3.4 0.3-4.7 1.1-1 2.8-2.8 2.8-2.8l0.2 0.3c0 0-1.7 1.8-2.7 2.8-1.2 1.1-0.7 3.1-0.3 4.2z"/>
	<path id="Layer" class="s0" d="m110.8 199.2c-0.4-1.9 0-5.8 2.7-6.9l0.2 0.3c-2.8 1.1-2.8 5.2-2.5 6.5 0 0-0.4 0.1-0.4 0.1z"/>
	<path id="Layer" class="s0" d="m107.9 194.2c-0.6-1.3-2.3-4.4-4.8-5.5l0.2-0.3c2.5 1.1 4.3 4.3 4.9 5.6l-0.3 0.2z"/>
	<path id="Layer" class="s0" d="m109.8 180.3v-0.1c-0.2-0.7-0.5-1.5-0.2-2.8l0.4 0.1c-0.4 1.1-0.1 2 0.1 2.6v0.1l-0.3 0.1z"/>
	<path id="Layer" class="s0" d="m107.4 166.9c0 0 2.7 1.8 3 4.5 0.4 2.7-0.7 6.3-0.7 6.3 0 0-2.1-2.8-2.6-4.9-0.5-2.2 0.4-5.9 0.3-5.9z"/>
	<path id="Layer" class="s0" d="m114.2 161.6c0 0-1.8 2.1-1.6 5 0.1 2.8 2.1 6.1 2.1 6.1 0 0 1.3-4.2 1.2-6.1-0.2-1.8-1.7-5-1.7-5z"/>
	<path id="Layer" class="s0" d="m113 177.7c0 0 1.3-1.8 2.6-1.9 1.3-0.1 3.8 1.3 3.8 1.3 0 0-1.9 1.2-2.9 1.2-0.9 0.1-3.5-0.6-3.5-0.6z"/>
	<path id="Layer" class="s0" d="m103.2 188.6c-0.2 0.4-0.8 0.5-1.4 0.2-0.6-0.3-0.9-0.8-0.6-1.3 0.2-0.4 0.8-0.5 1.4-0.2 0.5 0.3 0.8 0.8 0.6 1.3z"/>
	<path id="Layer" class="s0" d="m115.6 191.2c0.3 0.4 0.1 1-0.5 1.4-0.5 0.4-1.2 0.4-1.5-0.1-0.3-0.4 0-1 0.5-1.4 0.6-0.4 1.3-0.3 1.5 0.1z"/>
	<path id="Layer" class="s0" d="m105.4 199.6c0 0.5-0.6 0.8-1.3 0.8-0.7 0-1.3-0.3-1.3-0.8 0-0.4 0.6-0.8 1.3-0.8 0.7 0 1.3 0.4 1.3 0.8z"/>
	<path id="Layer" class="s0" d="m120.4 197.3c0.2 0.5-0.2 1.1-0.9 1.5-0.7 0.4-1.5 0.4-1.7-0.1-0.3-0.5 0.1-1.1 0.8-1.5 0.7-0.4 1.5-0.3 1.8 0.1z"/>
	<path id="Layer" class="s0" d="m103.3 206c0 0-3.2-0.3-4.8 0.1-1.6 0.4-4.7 3.1-5.2 3.9 1.2 0.4 3.9 0.7 5.4 0.2 1.5-0.5 4.6-4.2 4.6-4.2z"/>
	<path id="Layer" class="s0" d="m103.2 213c0 0-1.6 3-1.4 5.2 0.3 2.2 1.8 5.5 3.2 6.3 0.4-1.2 1-4.2 0.8-5.8-0.3-1.6-2.7-5.7-2.7-5.7z"/>
	<path id="Layer" class="s0" d="m107.5 207.5c0 0-1.2 2.2-0.8 4.5 0.4 2.3 1.2 5 2.5 6.1 0.6-1.3 1.3-4.3 0.9-6.4-0.5-2.1-2.5-4.2-2.5-4.2z"/>
	<path id="Layer" class="s0" d="m126.2 161.4c-0.3 0.8-0.5 1.6-0.3 2.4 0 0.1 0.2 0.2 0.2 0.1 1.3-1.6 3.3-3 5.3-3.5l-0.2-0.2c-0.7 0.9-1.4 1.8-1.6 3-0.2 0.9 0.1 1.9 0.6 2.7 0 0.1 0.2 0.1 0.3-0.1 0.2-0.5 0.4-1.1 0.7-1.6 0.4-0.6 0.9-1 1.5-1.4 0.8-0.6 1.6-1 2.5-1.5l-0.2-0.2c-0.5 1-1.2 2.1-1.3 3.3 0 0.9 0.3 1.9 0.7 2.8 0 0.1 0.2 0.2 0.3 0 0.8-1.8 1.7-3.7 3.8-4.4l-0.3-0.2c-0.3 1-0.7 2-0.6 3.1 0.1 0.9 0.4 1.9 0.7 2.8 0.1 0.1 0.3 0.2 0.4 0 0.6-0.8 0.7-1.7 1.4-2.5 0.5-0.6 1.2-1.2 1.8-1.5l-0.2-0.2c-0.3 0.9-0.7 1.9-0.6 2.9 0.1 0.9 0.4 1.8 0.7 2.7 0.1 0.1 0.3 0.1 0.3 0 0.6-1 0.7-2.1 1.4-3 0.2-0.2-0.1-0.5-0.2-0.3-0.8 0.9-0.9 2-1.5 3.1h0.3c-0.3-0.8-0.6-1.7-0.7-2.6 0-1 0.3-1.9 0.7-2.7 0-0.1-0.2-0.3-0.3-0.2-0.7 0.3-1.3 0.8-1.9 1.4-0.7 0.8-0.9 1.9-1.6 2.7l0.4 0.1c-0.4-0.9-0.7-1.8-0.8-2.7 0-1.1 0.3-2.1 0.7-3.1 0-0.1-0.1-0.2-0.3-0.2-2.1 0.7-3.1 2.7-4 4.6h0.4c-0.4-0.7-0.7-1.7-0.7-2.5 0-1.2 0.8-2.3 1.3-3.3 0-0.1-0.1-0.3-0.3-0.2-1 0.5-2 1-2.8 1.7-1.1 0.8-1.6 1.7-2.1 3h0.3c-0.5-0.9-0.7-1.9-0.4-2.9 0.3-1 0.8-1.7 1.5-2.5 0.1-0.1-0.1-0.3-0.2-0.3-2.1 0.6-4.1 1.9-5.5 3.6l0.3 0.1c-0.1-0.8 0.1-1.5 0.3-2.2 0.1-0.2-0.2-0.3-0.3-0.1z"/>
	<path id="Layer" class="s0" d="m122.2 173.3q0.1 0.1 0.1 0.2c1.1-2.1 2.9-3.9 5-4.9l-0.2-0.9c-0.6 1.2-1.2 2.5-1.1 3.9 0.2 1 0.5 2.2 1.2 2.9 0.2 0.2 0.1 0.3 0.2 0.1 0.2-0.3 0.1-0.9 0.2-1.2 0.2-0.7 0.5-1.3 1-1.9 0.8-1.1 1.9-2 3-2.8l-0.2-0.9c-0.3 1.4-0.9 2.7-0.6 4.1 0.1 1 0.6 2 1.1 2.9 0.4 0.6 0.3 0.3 0.5-0.3q0.2-0.9 0.5-1.7c0.5-1.3 1.3-2.6 2.5-3.3l-0.2-0.8c-0.4 2.2 0 4.3 1.1 6.3 0.3 0.5 0.4 1.1 0.7 0.4 0.3-0.7 0.3-1.4 0.5-2.1 0.5-1.2 1.5-2.3 2.7-2.9l-0.2-0.9c-0.3 0.6-0.7 1.2-0.8 1.9-0.1 0.6 0 1.3 0.1 1.9q0.4 1.7 1 3.2c0.2-0.4 0.4-0.8 0.6-1.3 0.2-0.6 0.3-1.2 0.5-1.8 0.4-0.9 1-1.6 1.7-2.2 0.1 0-0.2-0.8-0.2-0.8-1.5 1.2-1.7 2.8-2.5 4.5 0 0.1-0.1 0.6-0.2 0.6-0.2 0.1 0 0.1-0.1-0.1-0.3-0.3-0.4-0.9-0.5-1.3-0.5-1.5-0.2-2.5 0.6-3.7 0-0.2-0.3-0.9-0.2-0.9-0.7 0.4-1.4 0.9-1.9 1.6-0.8 1-0.8 2-1.2 3.1 0 0.1-0.2 0.7-0.3 0.7 0 0-0.1-0.2-0.1-0.3-0.4-0.3-0.6-0.9-0.8-1.3-0.6-1.3-0.5-2.5-0.3-3.8 0-0.1-0.2-0.9-0.2-0.9-1.7 1.1-2.6 3.1-3 5.1 0 0.1-0.1 0.6-0.2 0.6 0 0-0.1-0.2-0.1-0.2-0.4-0.4-0.7-1.2-0.9-1.7-0.4-1.1 0.3-2.6 0.6-3.7 0-0.2-0.3-0.8-0.2-0.9-1.6 1.2-3.5 2.7-4 4.8 0 0.3 0 0.6-0.1 0.9-0.2 0.7 0 0.3-0.2 0.2-0.4-0.1-0.8-1.2-0.9-1.5-0.2-1.3 0.6-2.6 1.1-3.7 0-0.1-0.2-0.8-0.2-0.9-0.9 0.5-1.8 1.1-2.6 1.9q-0.7 0.7-1.4 1.5-0.3 0.4-0.5 0.8c-0.1 0.2-0.4 0.9-0.5 0.6 0 0.2 0.1 0.6 0.1 0.8z"/>
	<path id="Layer" class="s0" d="m124.5 188.1c0.6-1.2 1.3-2.3 2.4-3.1l-0.2-0.9c-0.3 1.2-0.4 2.2-0.1 3.4 0.2 1 0.7 1.8 1.5 2.3-0.1-1.3 0-2.2 0.7-3.4q0.7-1.1 1.5-2.1l-0.2-0.9c0 1.2 0 2.4 0.3 3.5 0.2 1 0.9 1.8 1.6 2.4 0.1-1.8 0.1-3.8 1.5-5.1l-0.2-0.7c0.2 0.8 0.2 1.6 0.4 2.3 0.3 1 0.9 1.8 1.6 2.6 0.1 0.1 0.2 0.3 0.3 0.4 0.2 0.1 0.1 0.2 0.2-0.2 0.1-0.4 0-0.9 0-1.4 0-1 0.5-2.2 1.3-2.9l-0.2-0.8c0 0.9 0.1 1.8 0.3 2.7 0.4 1 1.1 1.8 1.9 2.4 0-0.7-0.2-1.5-0.2-2.3 0.1-0.7 0.4-1.4 0.8-1.9 0.2-0.2-0.2-0.8-0.1-0.9-1 1.2-0.8 2.5-0.7 3.8 0 0.4 0.1 0.5-0.2 0.3q-0.5-0.4-0.8-0.9c-0.3-0.4-0.7-0.8-0.8-1.3-0.1-0.3 0-0.7 0-1.1 0-0.1-0.2-0.8-0.2-0.8-0.6 0.5-0.9 1.2-1.1 1.9-0.1 0.3-0.2 2.6-0.2 2.6-0.1 0-0.5-0.5-0.5-0.5q-0.5-0.5-0.9-1.1-0.2-0.3-0.4-0.7c-0.1-0.2-0.2-0.8-0.1-0.3-0.1-0.5-0.1-0.9-0.2-1.3 0-0.1-0.2-0.7-0.2-0.8-1.2 1.2-1.5 2.9-1.5 4.4 0 0.2 0.1 0.4 0 0.5 0 0.3 0.1 0.2-0.1 0.1-0.3-0.1-0.6-0.6-0.8-0.9-0.4-0.4-0.6-0.8-0.6-1.4 0-0.6 0-1.2 0-1.8 0-0.1-0.2-0.7-0.2-0.8-1 1.2-2.2 2.8-2.2 4.4q0 0.3 0 0.7c0 0.2 0.1 0.4 0 0.4-0.3-0.1-0.7-0.6-0.9-0.8-0.7-1-0.4-2.1-0.1-3.2 0-0.1-0.3-0.8-0.2-0.8-1.1 0.8-1.7 2-2.4 3.2-0.1 0.2 0.3 0.6 0.2 0.8z"/>
	<path id="Layer" class="s0" d="m121.6 180.9q0 0.1 0.1 0.2c0.9-1.8 2.5-3.5 4.4-4.4l-0.2-0.8c-0.5 1.1-1.1 2.2-0.9 3.5 0.1 0.8 0.4 2 1 2.6 0.2 0.2 0.1 0.3 0.2 0.1 0.2-0.2 0.1-0.8 0.2-1.1 0.2-0.6 0.5-1.1 0.9-1.6 0.7-1 1.7-1.8 2.6-2.5l-0.1-0.9c-0.3 1.2-0.8 2.4-0.6 3.6 0.2 1 0.6 1.9 1.1 2.7 0.3 0.6 0.2 0.3 0.4-0.2q0.1-0.8 0.4-1.6c0.5-1.1 1.2-2.2 2.3-2.9l-0.2-0.9c-0.3 2.1-0.1 3.9 0.9 5.7 0.2 0.2 0.2 0.5 0.4 0.6 0.2 0.2 0 0.3 0.2-0.1 0.4-0.5 0.3-1.3 0.5-1.9 0.4-1.1 1.4-2.1 2.4-2.6l-0.2-0.9c-0.5 1.1-0.8 1.8-0.6 3q0.2 1.4 1 2.6c0.1 0.1 0.2 0.5 0.3 0.6 0.2 0.1 0.1 0.1 0.2-0.2 0.1-0.4 0.1-0.9 0.2-1.4 0.2-1.2 0.8-2.2 1.8-2.9 0.1-0.1-0.3-0.8-0.2-0.9-0.6 0.4-1.1 1-1.4 1.7-0.4 0.8-0.3 1.7-0.6 2.6-0.1 0.4-0.1 0.3-0.3 0q-0.4-0.7-0.8-1.4c-0.4-1.1 0.1-1.9 0.6-2.8 0.1-0.2-0.2-0.9-0.1-0.9-0.7 0.4-1.3 0.9-1.7 1.4-0.8 0.9-0.8 1.9-1.1 2.9-0.2 0.5-0.2 0.6-0.4 0.3-0.4-0.4-0.6-1-0.8-1.5-0.4-1-0.3-1.9-0.1-3 0-0.1-0.2-0.9-0.2-0.9-1.6 1-2.3 2.8-2.7 4.5-0.1 0.1-0.1 0.6-0.2 0.6 0 0-0.1-0.2-0.1-0.2-0.4-0.4-0.7-1-0.8-1.5-0.3-0.9 0.3-2.3 0.5-3.3 0.1-0.1-0.2-0.8-0.2-0.8-1.4 1.1-3.1 2.4-3.5 4.2-0.1 0.3-0.1 0.6-0.1 0.9-0.2 0.6 0 0.2-0.2 0.2-0.3-0.1-0.7-1.2-0.7-1.4-0.3-1.1 0.4-2.2 0.9-3.2 0-0.1-0.2-0.8-0.2-0.9-0.8 0.5-1.6 1-2.3 1.7q-0.7 0.7-1.2 1.4-0.3 0.3-0.5 0.7c-0.2 0.2-0.4 0.8-0.5 0.4 0.1 0.2 0.1 0.6 0.2 0.8z"/>
	<path id="Layer" class="s0" d="m179.3 162.2c0.2 0.4 0.1 1 0 1.4-0.1 0.3 0 0.3-0.2 0.1-0.6-0.5-1-1-1.6-1.5-1.1-0.8-2.2-1.5-3.6-1.8 0.1 0 0.1 0.7 0.2 0.8 0.8 1.1 1.7 2.1 1.3 3.6-0.1 0.2-0.3 0.9-0.5 1.1 0 0-0.4-1.1-0.5-1.4-0.9-1.5-2.7-2.5-4.3-3.2 0.1 0 0.1 0.7 0.2 0.8 0.3 0.6 0.6 1.2 0.8 1.8 0.3 0.6 0.3 1.1 0.1 1.7-0.1 0.4-0.2 1-0.4 1.4-0.2 0.2 0 0.2-0.2 0-0.1 0-0.2-0.3-0.2-0.4-0.7-1.7-1.8-3.3-3.6-3.9 0.1 0 0.2 0.7 0.2 0.8 0.4 1 0.5 2 0.3 3q-0.2 0.8-0.4 1.5c-0.1 0-0.1 0.3-0.2 0.4-0.1 0.1 0.1 0.1-0.1 0-0.4-0.2-0.5-1-0.7-1.4q-0.3-0.6-0.8-1.2c-0.4-0.6-1.1-1.1-1.8-1.4 0.1 0 0.1 0.7 0.2 0.8 0.3 0.9 0.5 1.4 0.4 2.4-0.1 0.6-0.3 1.4-0.6 1.9-0.2 0.3-0.1 0.4-0.3 0-0.1-0.2-0.2-0.5-0.2-0.8-0.2-0.7-0.5-1.4-1-2 0.1 0.2 0 0.7 0.1 0.9 0.8 0.9 0.9 2 1.4 3 0.5-1 0.9-2.1 0.8-3.3-0.1-1-0.4-1.9-0.8-2.9l0.2 0.8c1.1 0.5 2 1.5 2.5 2.5 0.2 0.5 0.3 1 0.7 1.4 0.2 0.3 0.1 0.3 0.2 0.1 0.1-0.2 0.2-0.5 0.2-0.7 0.7-2 0.5-3.9-0.3-5.8l0.2 0.8c2 0.7 3 2.7 3.8 4.6 0.4-1 0.8-2.1 0.6-3.2-0.2-1.3-0.8-2.4-1.3-3.6l0.2 0.8c0.9 0.5 1.8 1 2.6 1.6 1.2 0.8 1.7 1.8 2.1 3.1 0.6-1 0.8-2 0.6-3.1-0.3-1.4-0.9-2.3-1.7-3.3l0.2 0.8c1.7 0.5 3.4 1.6 4.7 2.9 0.1 0.1 0.5 0.7 0.6 0.7 0 0 0-0.2 0-0.2 0.2-0.2 0.1-1 0.1-1.3 0-0.6-0.2-1.3-0.4-1.9 0.1 0.2 0.1 0.6 0.2 0.8z"/>
	<path id="Layer" class="s0" d="m181.9 172.7c-1.2-1.5-2.6-3.1-4.4-4 0.1 0.1 0.1 0.7 0.2 0.9 0.5 1.1 1.1 2.1 0.7 3.4-0.2 0.7-0.6 1.4-1.1 1.9l0.2 0.8c-0.2-1.2-0.3-2.5-1-3.6-0.8-1.3-2.1-2.3-3.3-3.3 0.1 0.1 0.1 0.6 0.1 0.7 0.4 1.6 0.8 2.9 0 4.4-0.1 0.3-0.5 1.3-0.8 1.4-0.1 0-0.2-0.6-0.2-0.8-0.4-1.9-1.3-3.9-3-4.9 0 0 0.1 0.2 0.1 0.1 0.2 1.5 0.2 2.9-0.5 4.3-0.2 0.4-0.5 1.3-0.8 1.6-0.1 0-0.1 0.2-0.2 0.3-0.2 0-0.3-0.9-0.3-1-0.4-1.9-1.3-3.5-3-4.5 0 0.1 0.1 0.7 0.1 0.9q0.3 0.5 0.5 1c0.1 0.1 0.2 0.5 0.2 0.3 0.1 0.6-0.2 1.5-0.4 2.1q-0.2 0.7-0.5 1.4c-0.2 0.6-0.2 0.4-0.4-0.2-0.4-0.9-0.5-1.8-1-2.7-0.4-0.8-1-1.5-1.7-2 0.2 0.1 0 0.7 0.2 0.8 0.9 0.7 1.6 1.6 1.9 2.6 0.3 1 0.7 1.9 1 2.8 0.6-1.2 1.1-2.6 1-4 0-1.1-0.5-2-1-3l0.2 0.9c1.1 0.6 2.2 1.6 2.6 2.8 0.3 0.9 0.3 1.8 0.7 2.6 0.6-0.9 1.2-1.8 1.5-2.9 0.1-0.5 0.2-1.1 0.2-1.6 0-0.5-0.2-1.1-0.2-1.5 0.1-0.3-0.1-0.1 0.1-0.2 0.1 0 0.4 0.3 0.5 0.4q0.7 0.6 1.2 1.5c0.7 1.1 1 2.4 1.3 3.7 0 0 0 0.1 0 0.1 0.7-1 1.4-2.2 1.4-3.4 0-1.3-0.5-2.5-0.8-3.8l0.2 0.7c1.7 1.4 3.6 2.9 3.9 5.3 0 0.1 0.2 0.7 0.2 0.8 1.9-2.2 1.1-4.8 0-7.1l0.2 0.9c1.8 0.9 3.1 2.4 4.4 4-0.2-0.2 0-0.7-0.2-0.9z"/>
	<path id="Layer" class="s0" d="m179.4 188c-0.6-1.2-1.3-2.3-2.3-3.2 0 0 0 0.4 0.1 0.4 0.3 1.8 0.2 3.4-1.4 4.4l0.2 0.9c0.1-1.1 0-2.1-0.3-3.2-0.5-1.2-1.2-2.2-2-3.2 0 1 0.2 2.3-0.3 3.2-0.4 0.7-1 1.3-1.5 1.8l0.2 0.9c-0.1-2-0.1-4.5-1.6-6-0.1 1.9-1 3.4-2.3 4.7l0.1 0.5c-0.1-0.6 0-1.2 0-1.8q-0.1-0.6-0.3-1.2c-0.2-0.7-0.5-1.5-1.1-2.1-0.1 0.9 0 1.8-0.5 2.6-0.4 0.6-1 1.2-1.6 1.7l0.2 0.8c0-1 0.3-2 0.1-3-0.2-0.8-0.5-1.6-1-2.3 0.1 0.2 0 0.6 0.1 0.8 0.5 0.6 0.8 1.2 0.8 2 0 0.6-0.2 1.1-0.2 1.7 0 0.1 0.3 0.8 0.2 0.9 1.1-1 2-2.1 2-3.6 0 0 0-0.7 0.1-0.7 0 0 0.1 0.1 0.1 0.1 0.4 0.2 0.7 1 0.8 1.3 0.2 0.5 0 1 0 1.4q0.1 0.6 0.2 1.2c0 0 0.1 0.5 0.1 0.5 1.2-1.1 2.2-2.4 2.3-4.1 0-0.4 0-0.7 0.3-0.2 0.3 0.4 0.6 0.8 0.8 1.3 0.3 0.9 0.2 1.8 0.2 2.7 0 0.1 0.2 0.8 0.1 0.8 0.6-0.5 1.1-1.1 1.5-1.7 0.4-0.7 0.3-1.6 0.3-2.4 0-0.1 0-0.9 0-0.9 0.1 0 0.2 0.2 0.2 0.2 0.3 0.3 0.6 0.8 0.8 1.2 0.4 0.5 0.7 1 0.9 1.6 0.2 0.5 0.1 1.1 0.1 1.7-0.1 0.1 0.2 0.8 0.1 0.8 0.9-0.5 1.5-1.4 1.6-2.4 0.1-1-0.1-1.9-0.3-2.8v0.4c1.1 0.8 1.8 1.9 2.3 3.1-0.1-0.1 0-0.6-0.1-0.8z"/>
	<path id="Layer" class="s0" d="m181.6 179.1c-1.1-0.8-1.9-1.9-3.2-2.5 0.1 0 0.1 0.7 0.2 0.8 0.4 1 0.9 1.9 0.6 3.1-0.2 0.6-0.6 1.1-1 1.6l0.2 0.8c-0.1-1.1-0.3-2.2-0.9-3.2-0.7-1.2-1.9-2.1-3-3 0.1 0.1 0.1 0.6 0.1 0.6 0.4 1.4 0.7 2.5 0.1 3.9-0.2 0.3-0.4 1.1-0.7 1.2-0.2 0.1 0 0.1-0.2-0.1 0-0.1 0-0.4-0.1-0.5-0.4-1.7-1.1-3.5-2.6-4.4q0 0 0 0.1c0.1 1.3 0.2 2.5-0.4 3.7q-0.3 0.8-0.7 1.5c-0.1 0-0.2 0.3-0.2 0.3-0.1 0-0.3-0.7-0.3-0.8-0.4-1.8-1.1-3.1-2.7-4.1 0.1 0.1 0.1 0.7 0.2 0.9q0.2 0.4 0.4 0.9 0.1 0.1 0.2 0.3-0.1-0.3-0.1 0.1c-0.1 0.7-0.2 1.3-0.6 1.9-0.1 0.4-0.4 0.9-0.7 1.2-0.1 0.2 0 0.2-0.1 0.1 0-0.1 0-0.4 0-0.6-0.2-1.6-0.7-3-2.1-4 0.1 0.1 0 0.7 0.1 0.8 0.9 0.7 1.7 1.6 1.8 2.7 0.1 0.7 0.2 1.3 0.4 2q0 0 0 0c0.7-0.9 1.4-2.1 1.4-3.3 0-1.1-0.4-2-0.9-3l0.2 0.9c0.9 0.5 1.8 1.3 2.2 2.3 0.3 0.8 0.3 1.7 0.7 2.5 0.5-0.7 1-1.5 1.3-2.4 0.1-0.4 0.2-1 0.2-1.5 0-0.3-0.3-1.2-0.1-1.5 0-0.2-0.1-0.1 0.1 0 0.2 0.1 0.4 0.2 0.5 0.4q0.7 0.6 1.1 1.5c0.5 0.9 0.7 1.9 1 3 0 0 0 0.1 0 0.1 0.7-0.9 1.3-1.9 1.2-3.1 0-1.1-0.4-2.3-0.6-3.4l0.1 0.6c1.5 1.2 3.2 2.6 3.5 4.7 0 0.1 0.2 0.7 0.2 0.8 1.7-2 0.9-4.3-0.1-6.4l0.2 0.8c1.3 0.7 2.1 1.7 3.2 2.6-0.1-0.1 0-0.7-0.2-0.9z"/>
	<path id="Layer" class="s0" d="m134.5 158.7c0.7-2.2 1.3-4.8 1.3-7.2 0-2.2-0.4-4.5-0.7-6.6-0.5-3.3-1.3-6.6-1.2-9.9 0.2-2.8 0.6-5.7 1.2-8.5q0.5-2.5 1.2-5.1c-0.1 0.2-1 0.1-1 0.3-1.2 4.1-2 8.3-2.3 12.5-0.4 5.8 1.6 11.4 1.8 17.2 0.1 2.5-0.6 5.2-1.3 7.6 0-0.2 0.9-0.1 1-0.3z"/>
	<path id="Layer" class="s0" d="m135.1 121c-1.4 2.1-3.2 4.1-5.3 5.5-1.4 1-3.2 1.9-5 1.3-2.4-0.8-2.9-3.3-2.6-5.5 0.8-5.7 4.6-10.5 6-16.1 1-4.1 0.3-8.7-2.9-11.8-4.3-4.2-10.6-3.2-15.8-1.5-7.4 2.4-14 7-18.9 13-6.9 8.3-9.8 18.9-11.4 29.3-1.6 10.5-1.8 21.4-1 32 0.3 3.6 0.6 7.3 1.3 10.9 0.7 3.6 1.6 7 2.6 10.5 2.2 7.2 4.5 14.3 7.3 21.3q0.6 1.5 1.2 2.9c0.3 0.5 0.5 1.2 1 1.5 0.6 0.5 1 0.3 1-0.4 0-1-0.4-2.1-0.6-3.1q-1.6-10.1-3.4-20.2-0.1-0.8-0.3-1.5l-0.3 0.3c2.1 0.2 4.5-0.2 5.3-2.3 0.6-1.5 0.9-3.1 1.2-4.6 0.1-0.4 0.4-1.3 0.3-1.7-0.1-0.3 0.4-0.3-0.2-0.1 0 0 0.2 0 0.2 0 1 0.2 2.2-0.6 2.9-1.1 1.5-1 2.6-2.5 3.3-4.1 1-2.3 1.3-5 1.1-7.4l-0.6 0.2c2.2 1.1 4.5-0.4 5.7-2.4 1.1-2 1.4-4.5 1.5-6.7l-1.5-0.7c0.1 1.3 1.3 2.4 2.6 1.7 1.9-1.1 3.6-4 4-6.2l-1.4-0.9c0 1.7 2 2.8 3.4 3.1 2.1 0.4 4.7-0.1 6.3-1.6l-1.3-1.1c-0.8 1.7-0.3 3.8 1.1 5.1 1.6 1.3 3.9 1.3 5.7 0.5l-1-0.5q0.5 0.5 0.9 1.1c0.5 0.7 1.6 0.7 0.9-0.3q-0.4-0.6-0.9-1.2c-0.2-0.2-0.6-0.6-1-0.5-1 0.5-2.5 0.9-3.6 0.3-1.4-0.6-1.2-2.4-0.7-3.5 0.2-0.5-0.9-1.6-1.4-1.1-0.9 0.9-2.3 1.4-3.6 1.5-0.9 0.1-3.4 0.1-3.4-1 0-0.5-1.3-1.6-1.4-0.9-0.3 1.3-0.9 2.5-1.6 3.6q-0.5 0.8-1.2 1.4c-0.2 0.3-1 0.8-1.1 1.1q-0.6 0.1 0.2 0.5 0-0.1 0-0.2c0 0-0.1-0.1-0.1-0.2 0-0.5-1.4-1.5-1.4-0.7 0 1.8-0.3 3.6-0.9 5.3-0.7 1.8-2.9 4.3-4.9 3.4-0.3-0.2-0.7-0.2-0.7 0.2 0.2 2.4-0.1 4.9-1.1 7.1-0.9 2.2-3.2 5.1-5.8 4.9-0.1 0-0.3 0.1-0.3 0.2-0.4 2.1-0.7 4.4-1.5 6.4-0.8 2-2.9 2.3-4.7 2-0.2 0-0.4 0.2-0.4 0.4q1.4 8.1 2.8 16.1 0.7 4.2 1.4 8.5c0.1 0.3 0.1 0.4 0.1 0.3 0 0 1 0.2 1 0.4 0-0.1-0.1-0.2-0.1-0.3q-0.6-1.2-1.1-2.3c-2.6-6.6-4.9-13.3-6.9-20.1-2.1-6.8-3.6-13.5-4.3-20.6-0.9-10.1-0.9-20.4 0.3-30.4 1.2-10.1 3.7-21.8 10-30.5 4.5-6.4 10.9-11.5 18.2-14.4 4.6-1.8 11.6-4 16-0.4 3.8 3.2 3.3 8.9 1.7 13.1-1.1 2.8-2.4 5.4-3.5 8.1-0.9 2.1-1.7 4.4-1.8 6.6-0.1 3.5 2.8 7.1 6.5 6.9 3.2-0.3 5.9-3.1 7.8-5.4q0.8-0.9 1.4-1.8c0.4-0.6-0.9-1.7-1.3-1.2z"/>
	<path id="Layer" class="s0" d="m123.5 127.5c-1.5-0.3-2.8-1.3-3.4-2.7-0.6-1.1-0.5-2.5-0.3-3.7 0.6-3.1 2.1-6 3.4-8.8 1.2-2.9 2.4-5.6 2.3-8.7 0-2.3-0.8-4.6-2.3-6.3-2.3-2.4-5.4-3-8.6-2.5-3.5 0.5-7 1.9-10.1 3.6-4.1 2.2-7.8 5.2-10.8 8.7-3.8 4.3-6.5 9.3-8.4 14.6-4.2 11.7-5.1 24.4-4.6 36.8 0.3 4.4 0.6 8.9 1.4 13.2 1 6.1 2.8 12 4.7 17.8q0.8 2.2 1.5 4.4c0.1 0.2 0.4 0.1 0.4-0.1-2.1-6-4-12-5.5-18.2-1-4.3-1.5-8.8-1.9-13.2-0.9-11.9-0.4-24.2 2.8-35.7 1.6-5.8 3.8-11.3 7.3-16.2 2.9-4 6.5-7.5 10.7-10.2 3.2-2.2 6.7-3.9 10.5-4.8 2.9-0.7 6-1 8.6 0.7 2.1 1.2 3.3 3.3 3.8 5.6 0.5 3-0.3 5.9-1.4 8.7-1.3 3-2.8 5.9-3.7 9-0.7 2-1 4.5 0.4 6.3 0.7 1.1 1.8 1.8 3.1 2 0.2 0 0.3-0.3 0.1-0.3z"/>
	<path id="Layer" class="s0" d="m122.4 112.6c-1.3-2-1.8-4.6-1.7-7 0.1-1.8 0.5-3.5 0.4-5.2-0.1-1.1-0.3-2.8-1.5-3.1-0.8-0.2-2 0.2-2.4 0.9-0.5 1-0.1 2.3-0.4 3.4-0.3 0.9-0.9 1.2-1.8 1.3-1.2 0.1-2.5 0-3.7-0.1-2.7-0.2-5.4-0.7-8.1-0.5-1.8 0.1-3.6 1-3.1 3.1 0.2 0.9 0.9 1.4 1.7 1.9 0.9 0.6 3.6 1.6 3.1 2.9-0.3 0.8-1.2 1.2-1.9 1.6-1.1 0.7-2.4 1.3-3.5 1.8-3.3 1.7-6.4 3.5-9 6.2-3 3-5.6 6.5-7.7 10.2-0.1 0.2 0.3 0.7 0.2 0.9 3.6-6.3 8.3-12 14.8-15.4 1.3-0.7 2.6-1.4 4-2 0.9-0.5 2-1 2.7-1.7 1.2-1.1 0.8-2.9-0.4-3.8-1.3-0.9-3.2-1.5-4-2.9 0.2 0.3-0.1 0.5 0.1 0.1 0.1-0.1 0.1-0.4 0.2-0.6 0.1-0.2 0.3-0.6 0.5-0.8 0.4-0.3 0.8-0.4 1.2-0.5 2.5-0.6 5.4 0 8 0.3q1.8 0.2 3.7 0.2c0.9 0 2.2 0.1 2.8-0.7 1.4-1.6-0.5-4.8 2.6-5 1-0.1 1.6 0.6 1.7 1.6 0.2 2-0.5 4.1-0.4 6.1 0.1 2.6 0.7 5.5 2.1 7.7-0.1-0.3 0-0.7-0.2-0.9z"/>
	<path id="Layer" class="s0" d="m81.1 168.3c2.4-0.7 4.5-3.6 5.6-5.7l-2.1 2.2c2.1 5.6 7.7-2.7 8.2-5l-2.2 2.3c0.5 2.8 5-1.5 5.8-2.4 2.1-2.3 3.5-4.9 4.4-7.8l-2.2 2.2c0.1 3.4 4.6 0.1 5.5-0.9 1.9-2 3.1-4.3 3.8-7l-2.2 2.2c4 1.8 7.1-5.1 7.8-7.8l-2.2 2.3c5.2 4.5 10-0.8 13.1-5l-2.2 2.2c1 3 3.2 6.6 6.4 4.3 1.1-0.8 2.1-2 2.8-3l-2.1 2.2c0.4 1.1 2 4.7 3.6 4.2 0.3-0.1 2.2-2 2.2-2.3v-0.1c0.1 0.5-2.4 1.6-2.2 2.3v0.1l2.2-2.3c-1.6 0.5-3.2-3.1-3.6-4.1 0 0.1-2 1.9-2.2 2.2-0.3 0.4-3.3-2.5-3.5-2.8-0.6-0.9-1-1.9-1.4-2.9 0.1 0.1-2 1.9-2.2 2.2-2.2 3.1-6 2.9-8.7 0.5-0.1 0-2.1 2-2.2 2.3-0.3 1-0.6 2.2-1.2 3.1-1 1.8 0.9 0.1-0.6 0.3-0.5 0.1-1.1 0.1-1.6-0.1-0.2-0.1-2.1 1.9-2.2 2.2-0.3 1-1 4.2-1.9 4.7-0.7 0.4-3-0.1-3-1.3 0 0.6-2 1.6-2.2 2.3-0.5 1.7-1.2 3.9-2.3 5.2-0.6 0.6-3.2 2.4-3.5 0.5 0.1 0.5-2 1.7-2.2 2.3-0.1 0.3-0.1 0.7-0.3 1q-0.1 0.5-0.4 1.1-0.6 1.5-0.3 0c-1.3 0-2.4-0.4-2.9-1.7 0.1 0.2-1.9 1.9-2.1 2.2-0.4 0.7-0.5 1.1-1.3 1.3-0.9 0.3-1.3 2-2.2 2.3z"/>
	<path id="Layer" class="s0" d="m87.8 188.7c-0.1-3.3-0.5-6.6-0.8-9.9-0.4-5.2-0.8-10.3-1.1-15.4-0.3-4.5-0.5-8.9-0.1-13.4 0.4-5.5 1.2-10.9 2.1-16.4q0.7-4.1 1.6-8.3c0.3-1.6 0.6-3.4 1.2-5 0.1-0.2-0.2-0.3-0.3-0.1-0.5 1.4-0.8 2.9-1.1 4.3q-0.8 3.6-1.4 7.2c-1 5.4-1.8 10.9-2.3 16.4-0.5 4.4-0.4 8.8-0.2 13.2 0.3 5.2 0.7 10.5 1.1 15.7 0.3 3.9 0.8 7.8 1 11.7 0 0.2 0.3 0.2 0.3 0z"/>
	<path id="Layer" class="s0" d="m94.3 180c-1.3-8.1-2.4-16.4-2.7-24.6-0.2-5.6-0.1-11.3 0.9-16.8 0.9-5.1 1.8-10.2 2.8-15.3 0.6-2.7 1.1-5.4 2.1-7.9 0.1-0.2-0.3-0.3-0.4-0.1-0.8 2.2-1.3 4.5-1.8 6.8-1 4.7-1.8 9.5-2.7 14.3-0.5 2.8-0.9 5.6-1.1 8.5-0.2 2.8-0.3 5.6-0.2 8.4 0.1 5.3 0.5 10.7 1.2 16 0.4 3.6 1 7.2 1.6 10.8 0 0.2 0.4 0.1 0.3-0.1z"/>
	<path id="Layer" class="s0" d="m101.6 167.7c-0.8-3.1-1.1-6.3-1.3-9.4-0.5-4.9-0.7-9.8-0.5-14.7 0.1-2.6 0.3-5.1 0.6-7.6 0.5-2.8 1-5.6 1.6-8.3q1.7-7.7 3.7-15.4c0.9-3.2 1.8-6.3 2.9-9.4l-0.3-0.1q-0.1 0-0.1 0c0 0.3 0.3 0.4 0.4 0.1q0 0 0 0c0.1-0.3-0.3-0.3-0.3-0.1-2.7 7.5-4.5 15.3-6.2 23.1-1.2 5.3-2.3 10.5-2.6 15.8-0.3 5.1-0.1 10.2 0.3 15.2 0.3 3.6 0.6 7.3 1.4 10.9 0.1 0.2 0.4 0.1 0.4-0.1z"/>
	<path id="Layer" class="s0" d="m108.1 158.8c-0.6-3.5-0.9-7.1-1.1-10.7-0.2-4.9-0.2-9.7 0.4-14.6 0.5-4.4 1.4-8.7 2.5-13q1.4-5.7 3-11.3 0.8-2.9 1.7-5.8c0.1-0.2-0.2-0.3-0.3-0.1q-2.5 7.9-4.5 15.9c-1 4.2-2 8.4-2.6 12.7-0.6 4.9-0.8 9.9-0.6 14.8 0.1 4.1 0.5 8.2 1.2 12.2 0 0.2 0.3 0.1 0.3-0.1z"/>
	<path id="Layer" class="s0" d="m113.2 153.5c-0.1-2.6-0.5-5.3-0.5-7.9-0.2-4.6-0.1-9.3 0.5-13.9 0.5-4.1 1.5-8.1 2.5-12.1q1.6-5.6 3.5-11 0.9-2.8 2-5.6c0-0.2-0.3-0.3-0.4-0.1-1.9 5-3.5 10.1-5 15.2-1.2 4-2.2 8.1-2.8 12.3-0.7 4.5-0.8 9.1-0.7 13.7 0 3.1 0.4 6.3 0.6 9.4 0 0.2 0.3 0.2 0.3 0z"/>
	<path id="Layer" class="s0" d="m121.6 154c0.7-3.8 1.2-7.7 1.5-11.6 0.4-3.8 0.7-7.6 0.8-11.5q0.1-1.5 0.1-3.1c0-0.2-0.4-0.2-0.4 0 0 6.7-0.6 13.3-1.4 19.9-0.3 2.1-0.5 4.2-0.9 6.2-0.1 0.2 0.3 0.3 0.3 0.1z"/>
	<path id="Layer" class="s0" d="m129.1 128.2c0.3 2 0.4 4.1 0.6 6.1 0.2 2.4 0.5 4.9 0.5 7.4 0 1.6-0.4 3.3-0.7 4.9q-0.7 3.6-1.6 7.3-0.5 2.2-1 4.5c-0.1 0.2 0.3 0.3 0.3 0q1.4-5.5 2.5-11c0.4-1.7 0.8-3.4 0.9-5.1 0-2.4-0.3-4.8-0.5-7.1-0.2-2.4-0.3-4.8-0.7-7.1 0-0.2-0.4-0.1-0.3 0.1z"/>
	<path id="Layer" class="s0" d="m174.3 157.4c-0.6-2.2-1.1-4.5-1.1-6.8 0.1-2 0.6-4 1-5.9 0.6-3.3 1.5-6.5 1.8-9.8 0.3-2.9 0.2-5.8 0-8.6q-0.2-2.7-0.5-5.3l-1.3-1c0.8 1.6 1.8 3.1 3 4.4 1.6 1.8 3.8 3.8 6.3 3.8 3.2 0 5.2-3.1 5.1-6.1-0.1-3.9-2-7.8-3.4-11.5-1.5-4-2.9-8.4-1.2-12.7 1.1-3 3.7-5.1 6.9-5.7 4-0.7 8.4 0.8 12 2.4 5.9 2.6 11 6.6 15 11.7 5.2 6.8 7.7 14.9 9.2 23.3 1.5 9.1 1.8 18.5 1.3 27.7-0.4 6.9-1.2 13.9-2.6 20.6-1.5 6.7-4.1 13.1-6.7 19.4q-3 7.2-6.3 14.3-0.1 0.4-0.3 0.7l1.3 1.1q2.2-10.2 4.4-20.4 0.3-1.5 0.6-2.9c0.1-0.4-0.9-1.2-1.2-1.1q-0.8 0-1.6-0.1c-0.4-0.1-1.1-0.2-1.5-0.4-0.6-0.4-0.7-1.3-0.8-2-0.5-1.8-0.7-3.6-0.9-5.4-0.1-0.4-0.9-1.1-1.3-1.1-2.8 0-4.4-3.4-5-5.7-0.4-1.9-0.5-4-0.3-5.9 0.1-0.4-1-1.2-1.3-1.1-4.2 1.7-4.9-5.5-4.7-8.1 0-0.5-1.4-1.3-1.4-1 0 0.2-0.1 0.4-0.2 0.6-0.7 0.7-1.6-1.1-1.9-1.7-0.6-1-1.2-2.3-1.4-3.6 0-0.3-1.3-1.3-1.3-1-0.1 1.1-1.5 1.6-2.4 1.8-1.2 0.2-2.5 0-3.6-0.4q-0.6-0.2-1.2-0.6c-0.1-0.1-0.3-0.3-0.1-0.1-0.1-0.1-1.3-1.1-1.1-0.6 0.5 1.4 0.3 3.1-0.9 4-1.3 1-3.3 0.7-4.6 0-0.1 0-0.3-0.1-0.3 0q-1 1.2-1.9 2.4c-0.2 0.3 1.2 1.4 1.3 1.1q0.9-1.2 1.9-2.4h-0.3c1.4 0.7 3.4 1.2 4.9 0.3 1.6-1 1.8-3 1.2-4.6l-1.1-0.5c1.3 1.4 3.1 2.4 5.1 2.6 1.4 0.1 4.3 0 4.4-2l-1.3-1c0.3 2.4 1.8 4.8 3.4 6.4 0.8 0.8 2.6 2.2 2.8 0.2l-1.4-1c-0.1 2.5 0.2 5.3 1.6 7.4 1.1 1.8 3.5 3.8 5.8 2.9l-1.3-1.1c-0.4 3-0.1 6.4 1.4 9 1.2 2.1 3.8 4.9 6.4 4.8l-1.3-1.1q0.2 1.7 0.5 3.4c0.2 1.4 0.4 3.2 1.3 4.4 1.2 1.7 3.5 2.4 5.6 2.3l-1.3-1.1q-2.2 10.2-4.4 20.4-0.3 1.5-0.7 3c0 0.3 1.3 1.2 1.4 1 4.6-9.7 9.1-19.8 12.2-30.2 1.8-6.1 2.6-12.4 3.3-18.7 0.8-8.9 1-17.9 0.1-26.8-0.9-8.6-2.5-17.6-6.7-25.3-3.3-5.9-7.9-11-13.4-14.8-6.4-4.5-21-11.9-26.2-1.8-4.1 7.9 2.8 16.1 4 23.8 0.5 3.1-0.7 7-4.5 7.3-2.8 0.3-4.9-2.4-6.2-4.6q-0.5-0.7-0.9-1.5c-0.1-0.2-1.4-1.2-1.3-0.9 0.5 4.3 0.7 8.6 0.5 12.9-0.3 5.5-2.4 10.9-2.8 16.4-0.2 2.4 0.3 4.9 1 7.1 0.1 0.3 0.4 0.6 0.7 0.8 0.1 0.1 0.7 0.4 0.7 0.2z"/>
	<path id="Layer" class="s0" d="m185.4 127.6c2.3-0.2 4.1-2.1 4.4-4.4 0.3-2.6-0.8-5.3-1.6-7.7-2-5.2-5.2-11.6-1.6-16.8 4.2-6.3 13.2-2.8 18.4 0 9 5 15.2 13.5 18.1 23.3 3.6 12.2 4 25.4 2.9 38.1-0.4 4.5-0.9 9.1-1.9 13.6-1.4 5.9-3.5 11.7-5.7 17.4q-0.9 2.2-1.8 4.3c-0.1 0.2 0.3 0.3 0.4 0.1 2.4-6 4.7-12.2 6.5-18.4 1.3-4.4 2-8.9 2.5-13.4 1.4-12.4 1.3-25.3-1.5-37.5-1.3-5.8-3.3-11.3-6.6-16.2-2.7-3.8-6-7.2-9.9-9.8-3.1-2.1-6.5-3.8-10.1-4.7-2.7-0.7-5.6-1.1-8.2 0.1-4.8 2.2-5.8 7.8-4.6 12.4 0.8 3.2 2.3 6.1 3.3 9.2 0.8 2.4 1.8 5.4 0.5 7.7-0.7 1.3-2 2.3-3.5 2.4-0.2 0-0.2 0.4 0 0.4z"/>
	<path id="Layer" class="s0" d="m187.2 113.4c1.9-2.7 1.9-6.7 2.1-9.8 0-1.4-0.1-5.7 2.2-5.4 0.5 0.1 1.1 0.3 1.4 0.7 0.4 0.4 0.2 1 0.2 1.6 0 0.8 0.1 1.5 0.3 2.2 0.6 1.9 3.5 1.6 5.1 1.5 2.7 0 5.5-0.4 8.2-0.1 0.9 0 2 0.2 2.7 0.8 1.3 1.4-0.7 2.3-1.7 2.9-1 0.5-2.9 1.1-3.2 2.3 0 0.5 0.1 1.2 0.3 1.7 0.6 1.7 3.2 2.7 4.7 3.5 3.3 1.8 6.4 3.8 8.9 6.6 3 3.2 5.5 7 7.5 11-0.1-0.2-0.1-0.6-0.2-0.8-3.2-6.4-7.5-12.3-13.7-16.1-2.1-1.3-4.8-2.3-6.7-4-0.2-0.2-0.5-0.5-0.6-0.8-0.1-0.7 0.7-1.2 1.1-1.5 1.2-0.7 3-1.2 3.9-2.4 0.9-1.1-0.1-3.2-1.3-3.7-2.2-1-5.3-0.4-7.7-0.3-1.2 0-2.4 0.1-3.7 0.1-0.9-0.1-2.5 0-3.3-0.7-1.1-1 0.1-3.4-0.9-4.6-0.5-0.7-1.8-1-2.5-0.4-0.8 0.6-0.9 2.2-1 3.1-0.3 2.2-0.3 4.4-0.6 6.6-0.3 1.8-0.6 3.7-1.7 5.1-0.1 0.2 0.3 0.8 0.2 0.9z"/>
	<path id="Layer" class="s0" d="m225.8 167.5c-1.6-0.5-2.6-1.8-3.4-3.1 0 0-2.1 1.9-2.2 2.2 0.6-1.4-0.2-0.2-1.2-0.9-0.7-0.4-1-0.6-1.6-1.4-0.5-0.8-0.8-2-1-3 0.1 0.5-2 1.7-2.2 2.3q0 0.2-0.1 0.4l2.1-2.3c-3.3 2.8-6.8-6.9-7.3-8.8 0.1 0.5-2.1 1.7-2.2 2.3q0 0.2-0.2 0.5l2.1-2.2c-4.4 3.9-5.3-5.4-6.5-6.5-0.8-0.8-2.5 0-3.7-1.4-0.9-1.1-1.3-3.1-1.7-4.5-4.4 3.4-8.2 0.5-10.7-3.4 0 0.1-2.1 2-2.2 2.3-1.1 2.8-3.3 3.5-5 0.8 0 0.1-2.1 2-2.2 2.3-0.6 1.2-1.1 2.3-2.5 1.8-0.5-0.2-1.9 2.3-2.2 2.2 2.5 1 6.1-4.7 6.9-6.3l-2.2 2.3c3.2 4.9 8.2-2.3 9.4-5.4l-2.2 2.3c1 1.5 2.3 3.4 4 4.3 1.1 0.6 2.1 0.8 3.4 0.5 0.4 0 2.8-1.4 3.2-1.3 0.7 0.1 1 3.2 1.6 4 1.2 1.8 2.8 0.9 3.9 1.8 0.9 0.7 1.1 3.9 1.9 5 1 1.6 2.5 2.6 4.4 1.7 0.8-0.4 2.6-2.1 2.7-3.1l-2.2 2.3c0.6 2.6 3.2 10.3 7.1 9 0.7-0.2 2.4-2.1 2.6-2.9l-2.2 2.3c0.5 2.9 2.4 5.8 5.5 3.8 0.9-0.7 2.1-2 2.6-3.1l-2.2 2.3c0.9 1.4 1.8 2.6 3.4 3.1 0.5 0.2 1.9-2.4 2.2-2.2z"/>
	<path id="Layer" class="s0" d="m218.1 190.4c0.4-3.4 0.9-6.8 1.4-10.2 0.7-5 1.4-10.1 1.9-15.2 0.5-4.4 0.9-8.9 0.8-13.3-0.1-5.5-0.6-11.1-1.3-16.6q-0.5-4.1-1.1-8.2c-0.2-1.7-0.5-3.4-0.9-5.1-0.1-0.2-0.4-0.1-0.4 0.1 0.4 1.4 0.6 2.9 0.9 4.3q0.5 3.6 1 7.2c0.6 5.6 1.2 11.1 1.4 16.6 0.2 4.5-0.1 8.8-0.6 13.2-0.5 5.2-1.1 10.4-1.9 15.6-0.5 3.8-1.1 7.7-1.5 11.5 0 0.3 0.3 0.3 0.3 0z"/>
	<path id="Layer" class="s0" d="m212 181.4c1.8-8.1 3.4-16.3 4.1-24.5 0.5-5.6 0.7-11.2 0-16.7-0.6-5.2-1.3-10.4-2-15.6-0.4-2.7-0.8-5.4-1.7-8.1 0-0.2-0.4-0.1-0.3 0.1 0.7 2.2 1.1 4.5 1.5 6.8 0.7 4.8 1.3 9.5 1.9 14.3 0.3 2.9 0.6 5.7 0.7 8.7 0.1 2.9-0.1 5.6-0.3 8.4-0.3 5.3-1.1 10.6-2 15.8-0.6 3.6-1.4 7.2-2.2 10.7-0.1 0.3 0.3 0.3 0.3 0.1z"/>
	<path id="Layer" class="s0" d="m205.5 168.7c0.9-3 1.3-6.1 1.8-9.2 0.7-4.9 1.1-9.8 1.2-14.8 0.1-2.5 0-5-0.2-7.5-0.3-2.7-0.7-5.5-1.1-8.2q-1.2-7.9-2.9-15.8c-0.7-3.3-1.5-6.5-2.4-9.7h-0.3q0 0.1 0 0.1c0 0.2 0.4 0.1 0.3-0.1q0 0 0 0c-0.1-0.3-0.4-0.2-0.3 0 2 7.7 3.6 15.4 4.9 23.2 0.8 5.3 1.7 10.7 1.7 16.1 0 5-0.4 10-1.1 15-0.4 3.6-0.9 7.3-2 10.8 0 0.2 0.3 0.3 0.4 0.1z"/>
	<path id="Layer" class="s0" d="m199.4 159.5c0.8-3.5 1.3-7 1.7-10.6 0.5-4.9 0.7-9.9 0.4-14.9-0.3-4.3-1-8.6-1.8-12.9q-1.1-5.7-2.4-11.5-0.7-3-1.4-5.9c-0.1-0.3-0.4-0.2-0.4 0q2 7.8 3.6 15.6c0.8 4.3 1.5 8.5 1.9 12.8 0.4 4.9 0.3 9.9-0.1 14.9-0.3 4.1-0.9 8.3-1.8 12.4 0 0.2 0.3 0.3 0.3 0.1z"/>
	<path id="Layer" class="s0" d="m194.6 153.9c0.3-2.7 0.8-5.3 1-8 0.4-4.5 0.6-9.2 0.2-13.8-0.2-4.1-1-8.1-1.8-12.1-0.9-4-1.8-7.6-2.9-11.3q-0.8-2.9-1.7-5.8c-0.1-0.2-0.5-0.1-0.4 0.1 1.7 5.1 3.1 10.2 4.2 15.4 1 4.1 1.8 8.2 2.2 12.4 0.4 4.5 0.3 9.2 0 13.8-0.3 3.1-0.8 6.1-1.1 9.2-0.1 0.3 0.3 0.3 0.3 0.1z"/>
	<path id="Layer" class="s0" d="m186.2 153.9c-0.5-3.9-0.7-7.8-0.9-11.6q-0.2-5.8-0.2-11.6 0.1-1.5 0.1-3c0-0.3-0.3-0.3-0.3 0-0.4 6.6-0.1 13.3 0.4 20 0.1 2 0.3 4.1 0.5 6.2 0.1 0.2 0.4 0.2 0.4 0z"/>
	<path id="Layer" class="s0" d="m179.4 127.6c-0.4 2-0.6 4.1-0.9 6.1-0.4 2.5-0.8 4.9-0.9 7.4-0.1 1.6 0.1 3.2 0.4 4.8q0.5 3.8 1.2 7.5 0.4 2.3 0.8 4.7c0 0.2 0.4 0.1 0.3-0.1q-1-5.5-1.8-11c-0.3-1.7-0.7-3.5-0.6-5.3 0.1-2.3 0.5-4.7 0.8-7 0.3-2.3 0.6-4.7 1.1-6.9 0-0.3-0.3-0.4-0.4-0.1z"/>
	<path id="Layer" class="s0" d="m162.5 99.2c-1.6 0-6.7-3.4-8.1-5.7-0.5-0.8-1-1.9-1.5-2.8-0.9-1.7-1.8-3.5-2.7-4.4-1.4-1.4-4.5-2.6-4.5-2.6l0.1-0.3c0.1 0 3.2 1.2 4.6 2.6 0.9 1 1.9 2.8 2.8 4.5 0.5 1 1 2 1.5 2.8 1.4 2.3 6.4 5.5 7.8 5.5v0.4z"/>
	<path id="Layer" class="s0" d="m155 87.9c-1.6-0.8-2.5-1.8-3.8-3.1-1.2-1.2-3-2.6-4.2-3-1.1-0.4-1.6-0.4-1.6-0.4v-0.4c0 0 0.5 0 1.7 0.4 1.2 0.5 3.1 1.9 4.4 3.2 1.2 1.3 2.1 2.2 3.7 2.9l-0.2 0.3z"/>
	<path id="Layer" class="s0" d="m140.1 100.5c0.5 1.4 0.7 3 1.7 4.3 0.5 0.7 1.3 1 2.2 1.1 0.7 0 1.6-0.2 2.1-0.8 0 0-0.1-0.3-0.1-0.4 0 0-0.1-0.4-0.1-0.4-0.5 0.5-1.3 0.7-2 0.7-0.9 0-1.7-0.4-2.3-1-1-1.3-1.2-2.9-1.7-4.4 0 0 0.1 0.3 0.1 0.3q0 0.3 0.1 0.6z"/>
	<path id="Layer" class="s0" d="m144.3 100c0.9 0.9 1.4 2 1.5 3.2 0.1 0.9 0.2 1.8 0.4 2.6 0.5 1.9 2.6 3.5 4.5 3.1 1.2-0.3 2.4-1.2 2.7-2.4 0.1-0.3-0.2-0.7-0.2-0.9-0.3 1.1-1.3 1.9-2.3 2.3-1 0.4-2.1 0.1-3.1-0.5-0.5-0.4-0.9-0.8-1.3-1.3-0.3-0.4-0.3-0.7-0.4-1.1-0.1-0.9-0.2-1.9-0.4-2.8-0.3-1.2-0.7-2.2-1.6-3.1 0.1 0.1 0.1 0.4 0.1 0.5 0 0.1 0 0.3 0.1 0.4z"/>
	<path id="Layer" class="s0" d="m150.8 102q1.4 1.5 2 3.5c0.2 0.9 0.4 1.8 0.8 2.6 0.5 0.9 1.7 1.6 2.7 1.9 1.2 0.3 2.3 0 2.9-1.1 0.4-0.6 0.7-1.3 0.8-2.1 0-0.3-0.2-0.6-0.2-0.9-0.2 1.7-1.2 3.6-3.1 3.4-0.7-0.1-1.3-0.4-1.9-0.8-0.4-0.3-0.9-0.6-1.2-1-0.6-0.8-0.7-1.9-0.9-2.7-0.5-1.4-1.1-2.6-2.1-3.6 0 0 0 0.3 0 0.4 0.1 0.1 0.1 0.3 0.1 0.4z"/>
	<path id="Layer" class="s0" d="m159.6 103.8q0.4 0.3 0.7 0.7 0.2 0.2 0.3 0.4 0 0.1 0 0.2 0.1 0.2 0-0.1c0 0.1 0.1 0.5 0.1 0.7q0.1 0.3 0.2 0.7c0.1 0.5 0.2 0.9 0.5 1.3 0.3 0.5 0.8 0.9 1.3 1.3 0.7 0.6 1.3 0.9 2.2 0.9 1 0 2-0.5 2.2-1.5 0.1-0.1 0-0.3 0-0.5-0.1-0.1-0.2-0.3-0.2-0.4-0.2 1-1.2 1.6-2.2 1.6-0.9 0-1.5-0.3-2.2-0.9-0.4-0.4-0.9-0.9-1.3-1.4q-0.1-0.2-0.2-0.4-0.1-0.1-0.1-0.2-0.1-0.3 0 0.1c0-0.2-0.1-0.5-0.1-0.6-0.1-0.5-0.2-1-0.3-1.4-0.2-0.6-0.6-1-1.1-1.3 0.1 0 0.1 0.3 0.1 0.4 0 0.1 0 0.4 0.1 0.4z"/>
	<path id="Layer" class="s0" d="m140.5 109.8c0.5 1.4 0.7 3.1 1.7 4.3 0.5 0.7 1.3 1.1 2.2 1.1 0.7 0 1.6-0.2 2.1-0.7 0-0.1-0.1-0.4-0.1-0.5 0 0-0.1-0.3-0.1-0.4-0.5 0.6-1.3 0.8-2 0.8-0.9 0-1.7-0.4-2.2-1.1-1-1.2-1.2-2.9-1.7-4.3 0 0 0 0.2 0 0.3q0 0.2 0.1 0.5z"/>
	<path id="Layer" class="s0" d="m164.6 112.6c0.8 0.8 1.2 1.7 1.4 2.8 0.1 0.8 0.2 1.6 0.3 2.4 0.4 1.7 2.3 3.2 4.1 2.8 1-0.3 2.1-1.1 2.4-2.2 0-0.1-0.1-0.3-0.1-0.4 0-0.1-0.1-0.3-0.1-0.4-0.2 0.9-1.2 1.6-2 2-1 0.4-2 0.2-2.8-0.4q-0.7-0.5-1.2-1.2-0.2-0.2-0.3-0.5c0-0.1 0-0.2 0-0.1q0-0.1 0-0.3c-0.2-0.9-0.3-1.7-0.5-2.6-0.2-1-0.6-2-1.4-2.8 0.1 0.1 0.1 0.4 0.1 0.5 0 0.1 0 0.3 0.1 0.4z"/>
	<path id="Layer" class="s0" d="m150.5 112.1q1.4 1.4 2 3.5c0.3 0.8 0.4 1.7 0.8 2.5 0.5 1 1.7 1.7 2.7 1.9 1.2 0.4 2.3 0 2.9-1 0.4-0.6 0.7-1.4 0.8-2.1 0-0.3-0.2-0.6-0.2-0.9-0.2 1.6-1.2 3.5-3.1 3.3-0.7-0.1-1.3-0.4-1.9-0.7-0.4-0.3-0.9-0.7-1.2-1.1-0.6-0.8-0.7-1.8-0.9-2.7-0.4-1.4-1.1-2.6-2.1-3.6 0 0.1 0 0.4 0.1 0.4 0 0.1 0 0.4 0.1 0.5z"/>
	<path id="Layer" class="s0" d="m158.6 112.8c0.4 0.4 0.8 0.8 1 1.4 0.1 0.3 0.1 0.8 0.2 1.1 0.1 0.9 0.3 1.8 0.8 2.5 0.9 1.2 2 2.7 3.7 2.4 0.9-0.1 1.7-0.9 1.8-1.8 0.1-0.2 0-0.3 0-0.5-0.1-0.1-0.2-0.3-0.1-0.4-0.3 1.6-2.2 2.4-3.5 1.6-0.8-0.4-1.3-1.1-1.8-1.8q-0.3-0.3-0.5-0.7-0.1-0.1-0.2-0.3 0-0.1 0-0.2l-0.1-0.1q0 0.1 0 0c0-0.4-0.1-0.8-0.1-1.3-0.2-1-0.5-2-1.4-2.7 0.1 0 0.1 0.3 0.1 0.4 0 0.1 0 0.3 0.1 0.4z"/>
	<path id="Layer" class="s0" d="m146.3 112c0.5 1.4 0.7 3 1.6 4.3 0.6 0.7 1.4 1.1 2.3 1.1 0.7 0 1.5-0.2 2-0.7 0.1-0.1 0-0.4 0-0.5 0 0-0.2-0.4-0.1-0.4-0.5 0.6-1.4 0.8-2.1 0.8-0.8-0.1-1.7-0.4-2.2-1.1-1-1.3-1.2-2.9-1.7-4.3 0 0 0 0.2 0 0.3q0.1 0.2 0.2 0.5z"/>
	<path id="Layer" class="s0" d="m137.1 123.6c0 1.2-0.4 2.5-0.5 3.7q-0.4 3 0 5.9c0.5 3 1 6.5 2.8 9.1 2.1 3.1 5.1 5.6 8.8 6.4 3 0.7 6.3 0.4 9.3 0.1q1.7-0.3 3.4-0.7c0.8-0.2 1.9-0.5 2.4-1.3-0.1 0.3-0.9 0.1-1 0.3-0.5 0.8-1.7 1-2.4 1.2-1.4 0.2-2.9 0.4-4.3 0.4-2.8 0.2-5.7 0.1-8.4-0.9-3-1.2-5.6-3.6-7.2-6.4-1.4-2.4-1.9-5.5-2.3-8.2-0.3-2.1-0.4-4.1-0.1-6.2 0.2-1.2 0.5-2.5 0.5-3.7 0 0.1-1 0.2-1 0.3z"/>
	<path id="Layer" class="s0" d="m116.8 91.9l9-8.7 1.4-0.4 1.2-0.2 1.5-0.1-10.4 9.9-2.7-0.5z"/>
	<path id="Layer" class="s0" d="m213.2 208.8c0 0-0.6 3.1-0.7 3.3-0.1 0.3-0.2 3.1-0.2 3.1 0 0 0.9-1 1.5-1.7 0.2-0.3 1.6-3.4 1.6-3.4 0 0-2.2-1.3-2.2-1.3z"/>
	<path id="Layer" class="s0" d="m178.9 206.8c1.5-0.6 2.9-3.2 4.2-4.9 1.3-1.7 3.5-4.2 5.4-5.2 2-1 5.4-2.2 8.1-1.9 2.6 0.2 5.8 0.3 8.8 0 3-0.3 4.3-0.9 4.8-1.8 0.6-0.9 0.9-1.8 0.5-2.3-0.3-0.5-0.9-0.7-1.3-0.5-0.8 0.4-1.1 1.5-1.1 1.5 0 0-0.3-1.9 0.8-2.6 0.6-0.5 2-0.6 2.7 0 0.6 0.7 1.2 1.8 1 2.7-0.2 0.9-1 3-3 3.8-1.9 0.9-11.7 1.7-14 2-2.3 0.3-4.8 1.1-6.4 2.5-1.7 1.4-8 8.3-8 8.3l-2.5-1.6z"/>
	<path id="Layer" class="s0" d="m173.6 211.5c0 0-1.6 1.9-4.1 2.7-2.5 0.9-3.2 0.9-5.6 0.5-2.5-0.4-6.3-0.6-8.8 0.7-2.4 1.2-4.9 5.3-6 8.2-1.2 3-3.7 8.6-5.4 9.9-1.8 1.3-3.8 2.4-5.4 2.1-1.6-0.3-2-0.9-2.2-1.5-0.1-0.6-0.1-1.2 0.4-1.3 0.6 0 1 0.2 1.3 0.4-0.1-0.3-0.4-1-0.7-1.2-0.3-0.1-0.9-0.4-1.4 0-0.4 0.4-0.9 1.1-0.8 2.1 0.1 0.9 0.7 2.5 2.2 2.8 1.5 0.3 1.7 0.4 3.4 0.1 1.6-0.3 4.2-1.6 4.9-2.3 0.7-0.7 4.2-6.3 5.1-8.8 0.9-2.4 2.6-5.3 3.7-6.4 1.1-1 3.7-1.7 5.5-1.7 1.9 0 6.5 0.2 8.6-0.3 2.2-0.6 4.3-1.7 5.2-2.5 0.9-0.7 1.8-1.5 1.9-2 0.1-0.4 0-1.7 0-1.7l-0.4-0.6-0.6-0.1-0.8 0.9z"/>
	<g id="Layer">
		<path id="Layer" class="s1" d="m183.5 208.3c0 0 1 1.2 0.8 2.2-0.4-0.5-0.5-0.4-0.8-0.7-0.4-0.3-0.4-0.1-1.1-0.5l1.1-1z"/>
		<path id="Layer" fill-rule="evenodd" class="s0" d="m184.4 210.9zm-0.2-0.3c-0.3-0.3-0.4-0.4-0.6-0.5q-0.1 0-0.2-0.1c-0.2-0.2-0.2-0.2-0.4-0.3-0.1 0-0.3-0.1-0.7-0.3l-0.2-0.1 1.4-1.2 0.1 0.1c0.1 0 1.1 1.3 0.9 2.4l-0.1 0.3zm-1.4-1.4c0.2 0.1 0.3 0.1 0.4 0.2 0.1 0 0.3 0.1 0.5 0.2q0.1 0.1 0.2 0.2c0.1 0.1 0.2 0.1 0.3 0.3 0-0.7-0.5-1.3-0.7-1.6 0 0-0.7 0.7-0.7 0.7z"/>
	</g>
	<g id="Layer">
		<path id="Layer" class="s1" d="m176.7 216.9c0 0-0.9 1.5-1.9 1.7 0.3-0.6 0.4-0.9 0.5-1.2 0.1-0.3 0-0.7 0-0.7z"/>
		<path id="Layer" fill-rule="evenodd" class="s0" d="m174.5 218.8l0.1-0.3c0.3-0.6 0.4-0.8 0.5-1.1 0.1-0.3 0-0.7 0-0.7v-0.2l1.9 0.2-0.2 0.2c0 0.1-0.9 1.7-2 1.8zm1-1.9c0 0.2 0 0.4 0 0.6-0.1 0.2-0.2 0.5-0.3 0.8 0.5-0.3 1-0.9 1.2-1.3h-0.9z"/>
	</g>
	<g id="Layer">
		<path id="Layer" class="s1" d="m182.6 212.3c0 0 0.7 1.6 0.3 2.5-0.3-0.6-0.5-0.8-0.7-1.1-0.2-0.3-0.5-0.4-0.5-0.4z"/>
		<path id="Layer" fill-rule="evenodd" class="s0" d="m182.9 215.2l-0.2-0.3c-0.3-0.6-0.4-0.8-0.6-1.1-0.2-0.2-0.5-0.3-0.5-0.3l-0.2-0.2 1.3-1.3 0.1 0.2c0 0.1 0.7 1.7 0.3 2.7 0 0-0.2 0.3-0.2 0.3zm-1-1.9h0.1q0 0-0.1 0zm0.5 0.3c0.1 0.2 0.3 0.4 0.5 0.7 0-0.6-0.2-1.3-0.3-1.7l-0.6 0.6c0.1 0.1 0.2 0.3 0.4 0.4z"/>
	</g>
	<path id="Layer" class="s0" d="m167.3 192.5c0 0-1 0.3-1 0.3 0 0.9 0.3 1.9 0.5 2.7 0.6 2.3 1.6 4.4 2.8 6.4q0.6 0.8 1.2 1.7c0.4 0.6 1.2 1.2 1.5 1.8l0.3 0.3q-0.2 0.3-0.5 0.5-0.4 0.4-0.7 0.9c-0.4 0.4-0.7 0.8-0.9 1.3-0.4 1.7 0 3.9 1.1 5.2 0 0.1 1-0.2 1-0.2 0.7-0.9 0.9-2.3 2-2.9l-1 0.3c1.2-0.3 1.6 0.7 1.5 1.7 0 1-0.8 2.1-1.6 2.6-0.2 0.1-1.1 0.4-1.1 0.5 0 0.2 1 0.7 1.1 0.8 0.9 0.4 1.9 0.8 2.9 0.7 1.2-0.2 2.4-0.7 3.2-1.8 0.7-1 0.7-1.8 0.3-2.9-0.3-0.7-0.7-1.8-1.5-1.9-0.2-0.1-0.9 0.3-1 0.2 0.6 0.6 1 1.3 1.4 1.9 0.1 0.3 0.3 1 0.6 1.1 0.6 0.4 1.8 0 2.4-0.2 1.4-0.5 2.1-2.2 1.6-3.6-0.4-1.4-2.4-1.8-3.6-1.9l-1.1 0.3c0.8-0.1 1.5-0.3 2.2 0.1 0.4 0.3 0.8 0.7 1.3 0.8 0.3 0.1 1.2 0 1.4-0.3 0.5-0.4 0.2-1.4-0.1-1.9-0.3-0.7-0.9-1.1-1.6-1.4-0.8-0.3-1.7-0.6-2.6-0.7-0.6-0.1-1.4-0.1-2-0.4-1.3-0.8-2-2.2-2.5-3.5-0.7-1.9-1.1-4-1.3-6-0.1-1.2-0.1-2.2 0.3-3.4 0.1-0.1 0.3-0.5 0.2-0.6 0-0.2-0.7-0.8-0.9-0.9-0.5-0.5-1-0.9-1.7-0.8-0.8 0.1-1.7 0.5-2.4 0.8-1.1 0.6-1.9 1.8-2.7 2.7 0.2-0.2 0.8-0.1 1-0.3q0.8-0.9 1.7-1.9c0.6-0.7 1.5-1 2.4-1.3l-1 0.3c0.9-0.1 2.6 1 2.6 1.9 0 0.5-0.5 1.2-0.6 1.7-0.3 2.7 0.5 5.8 1.5 8.2 0.4 1.1 0.9 2 1.7 2.8 0.9 0.7 1.6 0.8 2.7 1 1.1 0.2 2.7 0.4 3.6 1.2 0.5 0.5 1.5 2.3 0.6 2.9l1.1-0.3c-0.6 0.1-1.1-0.5-1.6-0.8-0.7-0.4-1.4-0.2-2.2-0.2-0.4 0-0.7 0.3-1 0.3 1.1 0.1 2.5 0.4 3.3 1.3 1.1 1.3 0.3 3.6-1.1 4.1l1-0.2c-0.9 0.2-1.5 0.2-1.9-0.6-0.4-0.8-1-1.7-1.7-2.4l-1 0.2c0.9 0.2 1.3 1.5 1.6 2.3 0.4 1.3-0.1 2.5-1.1 3.4-0.9 0.7-2.1 0.3-3-0.1-0.2-0.1-1.3-0.6-1.4-0.9 0-0.1 0.9-0.4 1.1-0.6 0.9-0.7 1.7-1.9 1.5-3-0.1-1.1-0.6-1.5-1.6-1.3-0.5 0.1-1 0.2-1.3 0.5-0.8 0.7-1 1.8-1.6 2.6l1-0.2c-1.1-1.3-1.4-3.5-1.1-5.2 0.1-0.5 0.4-0.8 0.7-1.3q0.4-0.4 0.8-0.8 0.2-0.2 0.5-0.5 0.4-0.2-0.2-0.5c-0.3-0.6-1-1.1-1.4-1.6q-0.7-0.9-1.3-1.9c-1.2-1.9-2.1-4-2.7-6.2-0.3-0.9-0.6-2-0.6-2.9l-1 0.3c0.2 0.1 0.8-0.4 1-0.3z"/>
	<g id="Layer">
		<g id="Layer">
			<path id="Layer" class="s1" d="m121.6 218.8c0 0 0 2.1 0.9 2.6-0.1-0.7 0-0.6 0-0.9 0-0.4 0.5-1.4 0.5-1.4l-1.4-0.3z"/>
			<path id="Layer" fill-rule="evenodd" class="s0" d="m122.7 221.7zm-0.2-0.1c-1-0.5-1.1-2.7-1.1-2.8v-0.2l1.8 0.3-0.1 0.2c-0.1 0.4-0.4 1.2-0.4 1.4 0 0.1 0 0.2 0 0.3 0 0.1-0.1 0.2 0 0.6v0.3zm-0.6-2.5c0 0.5 0.1 1.4 0.5 1.9q0-0.1 0-0.3c0.1 0 0.1-0.1 0.1-0.2 0-0.3 0.2-0.9 0.3-1.3z"/>
		</g>
		<g id="Layer">
			<path id="Layer" class="s1" d="m116.1 215.6c0 0-0.5 1.7 0.1 2.5 0.2-0.6 0.4-0.8 0.5-1.1 0.2-0.3 0.5-0.5 0.5-0.5l-1.1-0.9z"/>
			<path id="Layer" fill-rule="evenodd" class="s0" d="m116.3 218.5zm-0.2-0.3c-0.6-0.9-0.1-2.6-0.1-2.7l0.1-0.2 1.4 1.2-0.2 0.1c0 0-0.3 0.2-0.4 0.5-0.2 0.3-0.3 0.5-0.5 1.1l-0.1 0.3zm0.1-2.4c0 0.4-0.2 1.2 0 1.8 0.1-0.3 0.3-0.5 0.4-0.8 0.1-0.1 0.2-0.3 0.3-0.4z"/>
		</g>
		<g id="Layer">
			<path id="Layer" class="s1" d="m115.1 211.2c0 0-1.1 1.4-0.9 2.4 0.5-0.5 0.6-0.7 0.9-0.9 0.3-0.2 0.6-0.6 0.6-0.6z"/>
			<path id="Layer" fill-rule="evenodd" class="s0" d="m114.1 213.9q0 0 0 0zm-0.1-0.3c-0.2-1 0.9-2.5 0.9-2.5l0.2-0.2 0.8 1.2-0.1 0.1c0 0-0.3 0.4-0.6 0.6-0.2 0.2-0.4 0.4-0.9 0.9 0 0-0.2 0.2-0.2 0.2zm1-2.1c-0.2 0.3-0.6 1-0.7 1.7 0.3-0.3 0.5-0.5 0.7-0.6 0.1-0.2 0.3-0.4 0.4-0.5z"/>
		</g>
		<path id="Layer" class="s0" d="m134.3 193.3q-0.6 0.1-1.1 0.2c-0.9 3.4-2.5 6.8-4.3 9.8q-1.1 1.9-2.5 3.5c-0.2 0.3-1.4 1.4-1.4 1.7 0 0.1 0.8 0.7 1 0.9 0.2 0.3 0.5 0.7 0.7 1 0.6 0.9 0.4 2.2 0.3 3.3-0.1 0.9-0.2 2.1-1 2.7l1-0.3c-0.6-0.9-1.5-1.3-2.6-1-0.5 0.2-0.8 0.5-0.9 1.2-0.4 1.1 0.6 1.3 1.3 1.7 0.4 0.3 0.4 0.1-0.2 0.4-0.5 0.3-0.9 0.5-1.5 0.5-1.1 0-2.3-0.8-2.9-1.8-0.9-1.7-0.1-3.6 1.3-4.7-0.2 0.2-0.7 0.1-1 0.2-0.7 0.5-1.2 1.6-1.6 2.3-0.5 0.7-0.8 1.3-1.2 2l1-0.3c-1.2-0.5-2.9-1.5-2.8-3 0-1.7 2.6-2.7 3.9-3.1-0.8 0.1-1.6 0.3-2.2 0.8-0.6 0.5-1.8 1.5-2.1 0.3-0.2-0.8 0.5-2 1-2.5 0.6-0.6 1.3-0.8 2-0.9 1.1-0.1 2.1-0.1 3.1-0.5 1.1-0.4 2-1.5 2.7-2.5 1.1-1.4 2-3.2 2.6-4.9 0.5-1.9 0.7-4.1 0.8-6.1q0.1-0.6 0-1.2c0-0.3-0.2-0.8-0.1-1 0.1-0.7 1.2-1.7 1.9-1.9l-1 0.3c2.1-0.3 3.5 1.8 4.7 3.1 0.1 0.2 0.9-0.3 1-0.2-1.1-1.4-2.6-3.5-4.7-3.2-0.4 0.1-0.9 0.2-1.2 0.4-0.6 0.2-1 0.7-1.4 1.1-0.5 0.5-0.3 0.8-0.2 1.5 0.1 1.3-0.1 2.7-0.3 4-0.2 1.7-0.4 3.4-1.1 5-0.6 1.3-1.3 2.5-2.2 3.7-0.6 0.8-1.5 1.8-2.4 2.2l0.8-0.3c-2.5 0.7-6.3 0.1-7 3.5-0.2 1.5 0.8 1.3 1.8 1q0.5-0.2 1.1-0.4c0.7-0.3 1.3-1 2-1.2l-1 0.2c0.6 0 0.2 0.1-0.1 0.2q-0.7 0.2-1.3 0.6c-0.8 0.4-1.9 1-2.1 1.9-0.4 1.7 1.5 2.9 2.8 3.4 0.1 0.1 1-0.2 1-0.2q0.6-1.1 1.2-2.1c0.4-0.6 0.9-1.8 1.6-2.2l-1 0.3c-1.1 0.9-2 2.5-1.6 3.9 0.5 1.9 2.5 2.9 4.3 2.5q0.4-0.1 0.9-0.3c0.4-0.1 1.8-0.5 1.9-0.8 0.2-0.3 0.2 0.1-0.1-0.2-0.1-0.1-0.3-0.1-0.5-0.2-0.3-0.1-0.7-0.4-0.9-0.7-0.3-0.5 0-1.6 0.6-1.9l-1 0.3c0.8 0 1.4 0.5 1.9 1.1 0 0 0.9-0.2 1-0.3 0.8-0.6 0.9-1.8 1-2.7 0.1-1 0.3-2.2-0.2-3.1-0.2-0.3-0.4-0.6-0.7-0.9-0.2-0.3-0.8-0.7-0.9-1q-0.4-0.2 0.1-0.5l0.2-0.2q0.4-0.5 0.8-0.9 1.4-1.8 2.6-3.7c1.8-3 3.4-6.4 4.3-9.8 0 0.2-0.9 0.1-1 0.3 0.1-0.2 1-0.1 1-0.3z"/>
	</g>
	<path id="Layer" class="s0" d="m129.6 194.3c0.5-0.1 0.9-0.3 1.4-0.2 0.4 0 0.7 0.3 0.9 0.5q0.6 0.6 1.1 1.2c0 0 0-0.1 0-0.1q0-0.2 0-0.3-0.1-0.2-0.1-0.3 0-0.1-0.1-0.2-0.4-0.6-1-1.1c-0.3-0.3-0.6-0.5-1-0.6-0.5-0.1-0.9 0.1-1.3 0.2-0.1 0 0.1 0.9 0.1 0.8z"/>
	<path id="Layer" class="s0" d="m129.2 196.8c0.4-0.2 0.9-0.3 1.3-0.1q0.2 0.1 0.5 0.2 0.2 0.2 0.4 0.5 0.1 0.2 0.2 0.4c-0.1-0.3-0.1-0.6-0.1-0.4q0 0.1 0 0.2 0 0.2 0 0.3 0 0.1 0 0.2 0.1 0.2 0.1 0.3 0 0.2 0.1 0.3c0 0 0 0.1 0 0 0-0.4-0.1-0.9-0.2-1.4-0.1-0.3-0.2-0.5-0.3-0.8-0.2-0.3-0.5-0.5-0.9-0.7-0.4-0.1-0.9 0-1.3 0.1-0.1 0 0.2 0.9 0.2 0.9z"/>
	<path id="Layer" class="s0" d="m128.7 198.8c0.2 0 0.4-0.1 0.6-0.2 0.3-0.1 0.5 0.1 0.8 0.2 0.2 0.2 0.4 0.3 0.6 0.6q0.2 0.1 0.2 0.3c0.1 0.2-0.1-0.8-0.1-0.6q0 0.1 0 0.1 0 0.2 0 0.3 0 0.1 0 0.2 0 0.1 0.1 0.3 0 0.1 0 0.3c0 0 0.1 0.1 0.1 0.1 0-0.5-0.1-0.9-0.2-1.4q-0.1-0.3-0.3-0.6c-0.2-0.2-0.5-0.3-0.7-0.5-0.2-0.1-0.4-0.3-0.7-0.2-0.2 0.1-0.3 0.3-0.6 0.3 0 0 0.1 0.4 0.1 0.4 0 0 0 0.4 0.1 0.4z"/>
	<path id="Layer" class="s0" d="m128.1 201.3c0.3-0.1 0.6-0.1 0.9 0q0.2 0 0.3 0.1 0.1 0.1 0.2 0.1c0.1 0.2 0.2 0.4 0.2 0.6 0 0 0 0.1 0.1 0.1q0 0 0 0.1c0-0.1 0 0 0 0q0 0.1 0 0.1c0-0.1 0 0 0 0 0 0.1 0 0.1 0 0.1 0-0.1 0 0 0 0q0 0 0 0.1c0 0 0-0.2 0-0.1q0 0 0 0.1c0-0.2 0-0.1 0 0 0 0.1 0-0.1 0-0.1q0 0.1 0 0.1 0 0 0 0 0.1 0.3 0.2 0.6c0 0 0 0.1 0 0q0-0.1-0.1-0.2-0.1-0.8-0.3-1.5-0.1-0.4-0.2-0.7-0.1-0.1-0.2-0.2-0.1-0.1-0.2-0.1c-0.4-0.2-0.8-0.1-1.1 0-0.1 0 0.2 0.8 0.2 0.8z"/>
	<path id="Layer" class="s0" d="m127.4 203.6c0.3-0.2 0.5-0.3 0.8-0.3 0.3 0 0.5 0.2 0.6 0.5 0 0 0.1 0.1 0.1 0.1 0 0.1 0-0.1 0 0q0-0.2 0-0.3-0.1-0.2-0.1-0.3 0-0.1-0.1-0.2c-0.1-0.3-0.3-0.6-0.7-0.6-0.2 0-0.5 0.1-0.7 0.2 0 0 0 0.1 0 0.1q0 0.2 0 0.3c0 0.1 0.1 0.5 0.1 0.5z"/>
	<path id="Layer" class="s0" d="m126 205.8c0.4-0.1 1 0.1 1.3 0.5q0 0 0 0-0.1-0.1-0.1-0.3 0-0.2-0.1-0.4 0 0 0 0 0 0 0 0.1 0 0 0 0 0 0.1 0 0.2c0 0 0 0.1 0 0.1q0 0.1 0.1 0.3 0 0.1 0 0.3l0.1 0.1q0 0 0 0c0-0.2 0-0.4-0.1-0.6q0-0.3-0.1-0.5 0-0.1 0-0.1 0-0.1-0.1-0.2c-0.2-0.2-0.4-0.3-0.7-0.3q-0.2-0.1-0.5 0c0 0 0.2 0.9 0.2 0.9z"/>
	<path id="Layer" class="s0" d="m173 192.1c-0.4-0.1-0.8-0.2-1.3-0.2-0.4 0.1-0.7 0.3-1 0.6q-0.6 0.5-1.1 1.2c0 0 0 0.1 0 0.1q0.1 0.1 0.1 0.3 0 0.2 0.1 0.3c0 0 0 0.1 0 0.1q0.5-0.6 1.1-1.2c0.3-0.2 0.6-0.4 1-0.5 0.4-0.1 0.9 0.1 1.3 0.2 0 0-0.1-0.4-0.1-0.5 0 0 0-0.4-0.1-0.4z"/>
	<path id="Layer" class="s0" d="m172.6 194.6c-0.3-0.1-0.7-0.2-1.1-0.1q-0.3 0.1-0.5 0.2c-0.4 0.2-0.6 0.5-0.8 0.9q-0.1 0.5-0.1 1c0 0.2 0.1 0.4 0.1 0.6q0 0.1 0.1 0.2c0 0 0 0.1 0 0.1 0-0.6 0.1-1.1 0.4-1.6q0.4-0.3 0.8-0.5c0.5-0.1 0.9 0 1.3 0.1 0 0 0-0.2 0-0.1q0-0.2-0.1-0.3 0-0.2 0-0.3c0-0.1-0.1-0.2-0.1-0.2z"/>
	<path id="Layer" class="s0" d="m173.1 196.7c-0.2 0-0.3-0.1-0.5-0.2q-0.3-0.2-0.6 0-0.1 0.1-0.3 0.3-0.2 0.1-0.3 0.2c-0.2 0.1-0.4 0.3-0.5 0.5-0.1 0.2-0.1 0.5 0 0.8q0 0.3 0.1 0.6c0 0 0 0.2 0 0.2q0 0 0-0.1c0-0.2 0-0.5 0.1-0.7 0.1-0.2 0.3-0.3 0.4-0.4q0.3-0.3 0.7-0.5c0.1-0.1 0.3-0.2 0.5-0.1 0.2 0.1 0.4 0.2 0.6 0.2 0 0-0.1-0.4-0.1-0.4 0 0 0-0.4-0.1-0.4z"/>
	<path id="Layer" class="s0" d="m173.7 199.2c-0.3-0.1-0.6-0.1-0.9 0q-0.2 0-0.3 0.1c-0.1 0.1-0.1 0.1-0.2 0.1-0.1 0.2-0.2 0.4-0.2 0.6q-0.1 0.4-0.2 0.7 0 0.2-0.1 0.4 0 0.1 0 0.1 0.1 0.2 0.1 0.3 0 0.2 0.1 0.3c0 0.1 0 0.2 0 0.2q0.1-0.5 0.2-1.1c0.1-0.2 0.2-0.4 0.3-0.6 0.1-0.1 0.2-0.2 0.4-0.2 0.3-0.2 0.7-0.1 1 0 0 0 0-0.2 0-0.2q0-0.1 0-0.3-0.1-0.1-0.1-0.3c0 0 0-0.1-0.1-0.1z"/>
	<path id="Layer" class="s0" d="m174.4 201.4c-0.2-0.1-0.5-0.2-0.8-0.2-0.3 0-0.5 0.3-0.7 0.6 0 0 0 0.1 0 0.1q0.1 0.2 0.1 0.3 0 0.2 0.1 0.3c0 0 0 0.1 0 0.1 0.1-0.3 0.4-0.5 0.7-0.6 0.3 0 0.5 0.2 0.8 0.3 0 0 0-0.2 0-0.2q-0.1-0.1-0.1-0.3 0-0.1-0.1-0.3c0 0 0-0.1 0-0.1z"/>
	<path id="Layer" class="s0" d="m175.8 203.7c-0.3-0.1-0.6 0-0.8 0.1-0.2 0.1-0.4 0.2-0.5 0.5q0 0.1 0 0.3 0.1 0.4 0.2 0.8c0 0.1 0 0 0 0q0-0.2 0-0.3-0.1-0.2-0.2-0.5c0.1 0.2 0.2 0.9 0.2 0.6q0 0 0 0c0-0.3 0.2-0.5 0.5-0.6 0.2-0.1 0.5-0.1 0.8 0 0 0 0-0.2 0-0.2q-0.1-0.1-0.1-0.3 0-0.1-0.1-0.3c0 0 0-0.1 0-0.1z"/>
</svg>