<?xml version="1.0" encoding="utf-8"?>
<!-- Generator: Adobe Illustrator 24.3.0, SVG Export Plug-In . SVG Version: 6.00 Build 0)  -->
<svg version="1.1" id="ICONS" xmlns="http://www.w3.org/2000/svg" xmlns:xlink="http://www.w3.org/1999/xlink" x="0px" y="0px"
	 width="50px" height="50px" viewBox="0 0 50 50" style="enable-background:new 0 0 50 50;" xml:space="preserve">
<g>
	<path d="M17,24c2.3,1.9,5.2,3,8.1,3c3,0,5.9-1.1,8.1-3c2.8-2.4,4.5-5.9,4.5-9.6c0-6.9-5.7-12.6-12.6-12.6
		c-6.9,0-12.6,5.7-12.6,12.6C12.5,18.1,14.2,21.6,17,24z M36.7,14.3c0,3.4-1.5,6.6-4.1,8.9c-2.1,1.8-4.7,2.7-7.5,2.7
		c-2.7,0-5.4-1-7.5-2.7c-2.6-2.2-4.1-5.4-4.1-8.9c0-6.4,5.2-11.6,11.6-11.6S36.7,7.9,36.7,14.3z"/>
	<path d="M34,28.9l-17.7,0c-6.7,0.3-12,5.9-12,12.6V48c0,0.3,0.2,0.5,0.5,0.5h40.7c0.3,0,0.5-0.2,0.5-0.5v-6.5
		C46,34.8,40.7,29.3,34,28.9z M45,47.5H5.3v-6c0-6.2,4.8-11.3,11-11.6l17.7,0c6.2,0.3,11,5.4,11,11.6V47.5z"/>
</g>
</svg>
