<svg version="1.2" xmlns="http://www.w3.org/2000/svg" viewBox="0 0 420 420" width="420" height="420">
	<title>Seal-Black</title>
	<style>
		.s0 { fill: #231f20 } 
		.s1 { fill: #ffffff } 
	</style>
	<g id="Folder 1">
		<path id="Layer" class="s0" d="m111.5 197.5c0 0.5-0.6 0.6-0.8 0.7l-0.6 0.3c-0.2 0-0.5 0.1-0.6 0.3-0.1 0.2 0 0.1-0.1 0.4l-0.2 3.1 13.3 1c0.4 0 0.7 0 0.9 0 0-0.1 0.2-0.2 0.3-0.5l0.1-0.7c0.1-0.3 0.3-0.4 0.5-0.4 0.4 0 0.3 0.4 0.3 0.7l-0.3 3.6c0 0.3 0 0.6-0.4 0.6-0.1 0.1-0.3 0-0.4-0.4v-0.7c-0.1-0.3-0.2-0.4-0.3-0.5-0.1-0.1-0.4-0.1-0.8-0.2l-13.3-0.9-0.2 2.8c0 0.3-0.1 0.2 0 0.5 0.1 0.1 0.3 0.3 0.5 0.4l0.6 0.3c0.2 0.1 0.7 0.4 0.7 0.8-0.1 0.4-0.5 0.4-0.8 0.3l-2.1-0.6 0.8-11 2.1-0.3c0.4 0 0.8 0 0.8 0.4z"/>
		<path id="Layer" class="s0" d="m114.7 182.1v0.6c0 0.2 0 0.4 0.1 0.5 0.1 0.1 0.2 0.2 0.6 0.2l10.4 2.5c0.4 0.1 0.7 0.2 0.8 0.1 0.1-0.1 0.2-0.3 0.3-0.4l0.3-0.6c0.1-0.3 0.2-0.3 0.4-0.3 0.3 0 0.2 0.6 0.1 1l-0.6 2.6c-0.1 0.3-0.1 0.8-0.5 0.6-0.1 0-0.2-0.1-0.2-0.4v-0.5c0-0.2-0.1-0.5-0.2-0.5 0-0.1-0.3-0.1-0.5-0.2l-4.9-1.1-1.5 6.1 4.8 1c0.4 0.1 0.6 0.2 0.7 0.1 0.1 0 0.3-0.2 0.3-0.4l0.3-0.5c0.2-0.4 0.3-0.4 0.4-0.3 0.4 0 0.2 0.5 0.1 0.9l-0.6 2.6c-0.1 0.3-0.1 0.8-0.4 0.7-0.2-0.1-0.2-0.1-0.3-0.4v-0.6c0-0.1-0.1-0.4-0.1-0.5-0.1-0.1-0.3-0.1-0.7-0.2l-10.5-2.5c-0.4-0.1-0.5-0.1-0.6 0-0.1 0-0.2 0.2-0.3 0.4l-0.3 0.5c-0.1 0.2-0.3 0.2-0.4 0.2-0.3-0.1-0.2-0.5-0.1-0.8l0.6-3c0.1-0.2 0.2-0.5 0.5-0.4 0.2 0 0.2 0.2 0.2 0.5l0.1 0.5c0 0.2 0 0.5 0.1 0.5q0.1 0.2 0.3 0.2l4.9 1.2 1.5-6.1-4.7-1.1c-0.4-0.1-0.5-0.2-0.7-0.1 0 0-0.1 0.2-0.2 0.4l-0.3 0.5c-0.2 0.3-0.3 0.3-0.4 0.3-0.4-0.1-0.3-0.5-0.2-0.9l0.7-2.9c0.1-0.3 0.1-0.6 0.5-0.5 0.2 0 0.2 0.2 0.2 0.5z"/>
		<path id="Layer" class="s0" d="m132.3 173.9l-3 7.2c-0.2 0.3-0.3 0.8-0.7 0.6-0.1 0-0.1-0.1-0.1-0.4v-0.6c0.1-0.2 0.1-0.4 0.1-0.5-0.1-0.1-0.3-0.2-0.7-0.4l-9.9-4.1c-0.4-0.1-0.5-0.2-0.6-0.1-0.1 0-0.3 0.2-0.4 0.3l-0.3 0.5c-0.2 0.2-0.3 0.2-0.5 0.2-0.3-0.2-0.1-0.6 0-0.9l2.9-7.1 1.2 0.4c0.4 0.1 1.2 0.2 1 0.6-0.1 0.3-0.5 0.3-0.7 0.3h-0.5c-0.2 0-0.4 0-0.5 0-0.2 0.1-0.2 0.3-0.3 0.6l-1.5 3.6 5.2 2.2 1.4-3.3c0.1-0.2 0.2-0.4 0.2-0.6-0.1-0.2-0.2-0.2-0.4-0.3l-0.4-0.4c-0.2-0.1-0.4-0.3-0.3-0.5 0.1-0.2 0.3-0.2 0.5-0.1l2.9 1.2q0.2 0.1 0.1 0.3c0 0.2-0.3 0.3-0.5 0.2h-0.5c-0.2-0.1-0.4-0.2-0.5 0-0.2 0.1-0.2 0.3-0.3 0.6l-1.4 3.2 4.6 1.9c0.4 0.2 0.6 0.3 0.8 0.3 0-0.1 0.2-0.2 0.2-0.3l1.4-3.4c0.1-0.2 0.1-0.3 0.1-0.4 0-0.3-0.1-0.3-0.2-0.5l-0.6-0.8c-0.1-0.2-0.5-0.7-0.4-1 0.2-0.2 0.4-0.1 0.6 0.1l2 1.4z"/>
		<path id="Layer" class="s0" d="m132.5 144.7l-0.3 0.6c0 0.2-0.1 0.4-0.1 0.5 0 0.2 0.3 0.3 0.6 0.6l8.2 6c0.4 0.3 3.4 3 0.1 7.2-2.9 3.8-6.1 2.1-6.7 1.7l-8.1-6c-0.4-0.3-0.5-0.4-0.7-0.4-0.1 0-0.3 0.1-0.5 0.3l-0.5 0.4c-0.3 0.2-0.4 0.2-0.5 0.1-0.3-0.3 0-0.7 0.2-1l2.1-2.8c0.1-0.2 0.3-0.4 0.6-0.2 0.1 0.1 0.2 0.3 0 0.6l-0.2 0.6c-0.1 0.2-0.1 0.5-0.1 0.6 0.1 0.1 0.2 0.2 0.3 0.3l8.4 6.2c2.1 1.5 3.9 0.6 5.2-1.2 1.5-2 1.3-4.1-0.4-5.3l-8.1-6.1c-0.4-0.2-0.5-0.4-0.7-0.3-0.1 0-0.3 0.1-0.5 0.3l-0.5 0.3c-0.3 0.3-0.5 0.3-0.6 0.2-0.3-0.3 0-0.6 0.2-0.8l1.9-2.7c0.2-0.2 0.3-0.5 0.6-0.3 0.1 0.2 0.1 0.4 0.1 0.6z"/>
		<path id="Layer" class="s0" d="m147.4 132.9l-0.3 0.5c-0.1 0.2-0.2 0.4-0.2 0.5 0 0.1 0.2 0.4 0.5 0.7l8.3 9-0.4 0.4-14.1-2.9 6.7 7.2c0.3 0.3 0.4 0.5 0.6 0.5 0.1 0.1 0.3 0 0.4-0.1l0.4-0.2c0.4-0.2 0.6-0.2 0.7-0.1 0.3 0.2 0 0.5-0.2 0.7l-2 1.8c-0.2 0.2-0.5 0.6-0.7 0.3-0.1-0.1-0.1-0.2 0-0.5l0.3-0.5c0.1-0.1 0.2-0.3 0.2-0.4 0-0.2 0-0.3-0.4-0.7l-7.2-7.9c-0.2-0.3-0.4-0.4-0.6-0.4-0.2 0-0.3 0.1-0.5 0.1l-0.5 0.2c-0.4 0.2-0.4 0.1-0.5 0-0.1-0.2 0-0.3 0.1-0.4l1.5-1.3 13.4 2.7-6.6-7.2c-0.1-0.1-0.3-0.2-0.4-0.2-0.1 0-0.3 0.1-0.4 0.2l-0.4 0.2c-0.2 0.1-0.5 0.3-0.7 0-0.1-0.1 0-0.2 0.1-0.4l2.3-2.1c0.3-0.2 0.5-0.4 0.7-0.2 0.1 0.2 0 0.3-0.1 0.5z"/>
		<path id="Layer" class="s0" d="m162.1 139l-2.2 1.6c-0.3 0.2-0.6 0.5-0.8 0.2-0.1-0.1-0.1-0.3 0-0.5l0.4-0.5c0.1-0.1 0.3-0.3 0.3-0.3 0-0.2-0.1-0.4-0.4-0.7l-6.1-8.7c-0.2-0.4-0.3-0.6-0.5-0.6-0.1 0-0.3 0.1-0.4 0.1l-0.6 0.2c-0.3 0.1-0.4 0.1-0.5-0.1-0.2-0.3 0.2-0.5 0.5-0.7l2.2-1.6c0.2-0.1 0.6-0.4 0.8-0.1 0.1 0.1 0.1 0.2-0.1 0.4l-0.3 0.5c-0.1 0.2-0.3 0.4-0.3 0.5 0 0.1 0.1 0.2 0.4 0.6l6.1 8.7c0.2 0.3 0.3 0.5 0.5 0.6 0 0 0.2-0.1 0.4-0.2l0.6-0.2c0.2-0.1 0.4 0 0.5 0.1 0.2 0.3-0.2 0.5-0.5 0.7z"/>
		<path id="Layer" class="s0" d="m169.4 119.7c0 0.2 0.1 0.6 0.1 0.9l1.9 13-0.6 0.3-9.4-8.9c-0.4-0.4-0.7-0.7-0.9-0.7 0-0.1-0.2 0-0.4 0l-0.5 0.1c-0.3 0-0.4 0.1-0.5-0.1-0.2-0.3 0.2-0.4 0.4-0.5l2.6-1.4c0.2-0.1 0.5-0.2 0.6 0.1 0 0.1-0.1 0.2-0.3 0.4l-0.3 0.3c-0.1 0.1-0.2 0.2-0.2 0.4 0.1 0.2 0.2 0.2 0.5 0.5l7.7 7.3-1.6-10.4c0-0.3 0-0.5-0.1-0.7-0.2-0.2-1.2 0.1-1.4-0.1-0.2-0.2 0-0.3 0.2-0.4l2.7-1.4c0.1-0.1 0.3-0.3 0.5 0.1 0.1 0.3-0.9 0.8-1 1.2z"/>
		<path id="Layer" class="s0" d="m187.8 127.1l-7.5 2.4c-0.3 0.1-0.7 0.3-0.8 0-0.1-0.2 0-0.3 0.2-0.4l0.5-0.4c0.1 0 0.4-0.2 0.4-0.2 0.1-0.2 0-0.4-0.2-0.8l-3.2-10.2c-0.2-0.4-0.2-0.6-0.3-0.6-0.1-0.1-0.3 0-0.5 0h-0.6c-0.3 0-0.4-0.1-0.4-0.3-0.1-0.3 0.3-0.4 0.6-0.5l7.3-2.4 0.5 1.2c0.1 0.3 0.6 1 0.1 1.1-0.3 0.2-0.5-0.1-0.6-0.4l-0.3-0.3c-0.1-0.2-0.3-0.4-0.4-0.4-0.2 0-0.4 0.1-0.7 0.2l-3.7 1.2 1.8 5.4 3.3-1.1c0.2-0.1 0.5-0.1 0.6-0.2 0.1-0.2 0.1-0.3 0.1-0.5v-0.6c0-0.2 0-0.5 0.2-0.5 0.2-0.1 0.3 0.1 0.4 0.3l0.9 3q0.1 0.2-0.1 0.3c-0.2 0.1-0.4-0.1-0.5-0.3l-0.3-0.4c-0.1-0.2-0.2-0.4-0.4-0.4-0.1 0-0.4 0.1-0.6 0.2l-3.3 1 1.5 4.8c0.1 0.3 0.2 0.6 0.3 0.7 0 0 0.2 0.1 0.3 0l3.5-1.1c0.3-0.1 0.3-0.1 0.4-0.2 0.2-0.2 0.2-0.3 0.2-0.5l0.3-1c0-0.2 0.1-0.8 0.4-0.9 0.3 0 0.4 0.3 0.4 0.5l0.2 2.4z"/>
		<path id="Layer" fill-rule="evenodd" class="s0" d="m202 124.2c0 0.3-0.3 0.3-0.6 0.4l-1.9 0.3-4.4-5.8-1.6 0.3 0.8 4.5c0 0.4 0 0.7 0.2 0.8 0 0 0.2 0 0.4 0l0.6 0.1c0.3 0 0.4 0.1 0.4 0.3 0.1 0.4-0.4 0.4-0.7 0.5l-2.7 0.4c-0.3 0-0.8 0.1-0.8-0.2-0.1-0.2 0-0.3 0.2-0.4l0.6-0.3c0.1 0 0.4-0.1 0.4-0.2 0.1-0.1 0-0.3 0-0.7l-1.7-10.6c-0.1-0.3-0.1-0.6-0.2-0.7-0.1 0-0.3-0.1-0.5-0.1h-0.6c-0.2-0.1-0.3-0.2-0.4-0.3 0-0.4 0.4-0.4 0.8-0.5l4-0.6c2.9-0.5 4.2 1.6 4.4 3.1 0.3 2.7-2.3 4.1-2.3 4.1l3.4 4.5c0.1 0.2 0.2 0.3 0.3 0.5 0.1 0.1 0.3 0.2 0.6 0.2l0.8 0.1c0.2 0 0.4 0 0.4 0.3zm-7.9-12l-1.6 0.2 0.9 6.1 1.5-0.2c1.6-0.2 2.8-1.8 2.4-3.6-0.3-1.6-1.2-2.8-3.2-2.5z"/>
		<path id="Layer" class="s0" d="m208.3 124.4c-0.6 0-1.7-0.1-2.6-0.6l-0.5-2.3c-0.1-0.3-0.1-0.7 0.2-0.7 0.5-0.1 0.6 0.4 0.8 0.8l0.5 1.2c0.3 0.5 1.4 0.6 2 0.6 1.7 0 3.1-1.2 3-2.8 0-3.8-6.3-2.7-6.4-7.1 0-1.9 1.1-3.7 4.3-3.8 0.5 0 1.6 0.1 2.5 0.5l0.2 2.3c0 0.2-0.1 0.3-0.3 0.3-0.4 0.1-0.5-0.4-0.6-0.7l-0.2-0.6c-0.2-0.5-0.3-0.8-2.1-0.8-1.3 0-2.6 0.9-2.6 2.4 0 3.2 6.4 2.8 6.5 6.9 0 2.7-2.3 4.4-4.7 4.4z"/>
		<path id="Layer" class="s0" d="m220.1 124.7l-2.7-0.2c-0.4 0-0.8 0-0.8-0.4 0-0.2 0.1-0.3 0.4-0.3l0.6-0.1c0.2-0.1 0.4-0.1 0.4-0.1 0.1-0.2 0.1-0.4 0.2-0.8l1-10.6c0-0.4 0.1-0.6 0-0.7-0.1-0.1-0.3-0.2-0.5-0.2l-0.5-0.3c-0.3-0.1-0.4-0.2-0.3-0.3 0-0.4 0.5-0.3 0.8-0.3l2.7 0.3c0.3 0 0.8 0 0.8 0.4-0.1 0.1-0.2 0.2-0.4 0.3l-0.6 0.1c-0.2 0-0.4 0.1-0.5 0.2-0.1 0.1-0.1 0.2-0.1 0.6l-1 10.6c-0.1 0.4-0.1 0.7 0 0.8 0 0 0.2 0.1 0.4 0.2l0.6 0.2c0.2 0.1 0.3 0.2 0.3 0.4-0.1 0.4-0.5 0.3-0.8 0.2z"/>
		<path id="Layer" class="s0" d="m236.7 116c-0.4-0.1-0.5-0.6-0.5-0.8l-0.2-0.5c0-0.2 0-0.5-0.2-0.6-0.1-0.1-0.1 0-0.3-0.1l-2.7-0.6-2.5 11.3c-0.1 0.4-0.1 0.6-0.1 0.8 0 0 0.1 0.2 0.4 0.3l0.6 0.2c0.2 0.1 0.3 0.3 0.2 0.5 0 0.3-0.4 0.2-0.6 0.1l-3.1-0.7c-0.2 0-0.5-0.1-0.5-0.4 0-0.1 0.2-0.3 0.5-0.3l0.6 0.1c0.3 0 0.4-0.1 0.4-0.2 0.2-0.1 0.2-0.3 0.3-0.7l2.5-11.3-2.4-0.5c-0.3-0.1-0.2-0.1-0.4-0.1-0.1 0.1-0.3 0.3-0.4 0.4l-0.4 0.5c-0.1 0.1-0.4 0.6-0.8 0.5-0.3-0.1-0.2-0.5-0.1-0.8l0.8-1.6 9.3 2.1v1.8c0 0.3-0.1 0.7-0.4 0.6z"/>
		<path id="Layer" class="s0" d="m251.5 119.8c-0.2 0.1-0.6 0.3-0.9 0.6l-5.1 4.8-1.6 4c-0.1 0.2-0.2 0.5-0.1 0.7 0.1 0.3 1.1 0.7 0.9 1.1-0.1 0.2-0.3 0.1-0.5 0.1l-3-1.3c-0.2 0-0.4-0.1-0.3-0.4 0.1-0.4 1.3 0.2 1.5-0.1 0.1-0.2 0.2-0.4 0.3-0.7l1.6-3.9-0.5-7c0-0.5 0-0.9-0.1-1.1-0.1 0-0.3-0.2-0.4-0.4l-0.4-0.3c-0.3-0.3-0.3-0.3-0.3-0.4 0.1-0.3 0.5-0.2 0.7-0.1l2.8 1.1c0.2 0.1 0.4 0.2 0.3 0.5 0 0.1-0.1 0.1-0.4 0.1h-0.5c-0.1 0-0.3 0-0.3 0.1-0.1 0.2 0 0.6 0 0.8l0.4 5.8 4.2-3.8c0.2-0.3 0.5-0.5 0.5-0.7 0.1-0.4-1-0.7-0.8-1.1 0.1-0.3 0.3-0.2 0.5-0.1l2.7 1.1c0.2 0.1 0.4 0.2 0.3 0.4-0.1 0.4-1.1-0.1-1.5 0.1z"/>
		<path id="Layer" fill-rule="evenodd" class="s0" d="m270.2 138.4c-2.3 3.1-6.4 4.4-9.5 2.3-3.4-2.5-3.1-6.7-0.8-9.8 2.1-3 6.2-4.4 9.4-2.1 3.3 2.4 3.1 6.5 0.8 9.6zm-1.2-9c-2.7-1.9-6-0.1-7.8 2.4-2 2.8-2.6 6.2 0.1 8.2 2.7 1.9 5.9-0.1 7.7-2.6 2-2.8 2.5-6.1 0-8z"/>
		<path id="Layer" class="s0" d="m282.4 143.8c-0.3-0.2-0.1-0.6 0-0.8l0.2-0.4c0.1-0.2 0.2-0.4 0.2-0.5-0.1-0.1-0.3-0.4-0.4-0.5l-2.7-2.6-4 4 2.3 2.3c0.2 0.2 0.3 0.4 0.5 0.4 0.2 0.1 0.3 0 0.5-0.1l0.5-0.3c0.2-0.1 0.4-0.2 0.6 0 0.1 0.1 0 0.3-0.1 0.4l-2.2 2.2c-0.1 0.1-0.3 0.2-0.4 0.1-0.2-0.2-0.1-0.5 0-0.7l0.3-0.4c0.1-0.1 0.2-0.3 0.1-0.5-0.1-0.1-0.2-0.3-0.4-0.5l-2.3-2.3-3.6 3.5c-0.2 0.3-0.4 0.4-0.5 0.6 0 0.1 0.1 0.2 0.1 0.3l0.4 0.6c0.1 0.2 0.1 0.4 0 0.5-0.2 0.2-0.5 0-0.6-0.2l-2.1-2c-0.2-0.2-0.6-0.5-0.3-0.8 0.1-0.1 0.2-0.1 0.5 0l0.5 0.3c0.1 0.1 0.3 0.2 0.4 0.2 0.2 0 0.3-0.2 0.6-0.5l7.6-7.5c0.3-0.3 0.4-0.4 0.4-0.6 0-0.1-0.1-0.3-0.2-0.4l-0.3-0.5c-0.1-0.3-0.1-0.4 0-0.5 0.3-0.3 0.6 0.1 0.8 0.3l5.3 5.3-0.8 1c-0.2 0.2-0.6 0.9-0.9 0.6z"/>
		<path id="Layer" class="s0" d="m282.5 163l-1.8-2.6c-0.2-0.3-0.6-0.7-0.2-1 0.1-0.1 0.3-0.1 0.5 0.1l0.6 0.5c0.1 0.1 0.3 0.3 0.4 0.3 0.2 0 0.4-0.2 0.8-0.4l10.1-7c0.4-0.2 0.6-0.4 0.6-0.5 0.1-0.1 0-0.4-0.1-0.6l-0.2-0.6c-0.1-0.3-0.1-0.5 0.1-0.6 0.3-0.2 0.6 0.3 0.8 0.6l1.8 2.5c0.2 0.3 0.5 0.8 0.2 1-0.2 0.1-0.3 0.1-0.6-0.1l-0.5-0.4c-0.2-0.2-0.5-0.3-0.6-0.3-0.1 0-0.3 0.1-0.6 0.3l-10.1 7c-0.4 0.2-0.6 0.4-0.7 0.6 0 0 0.1 0.3 0.2 0.5l0.2 0.7c0.1 0.2 0 0.4-0.1 0.5-0.4 0.2-0.6-0.2-0.9-0.5z"/>
		<path id="Layer" fill-rule="evenodd" class="s0" d="m287.8 172.8c-1.8-3.8 0.4-7.4 3.8-9 3.4-1.7 7.6-1 9.4 2.6 1.7 3.6-0.4 7.1-3.8 8.8-3.4 1.7-7.8 0.9-9.4-2.4zm12.5-6.1c-1.5-3-5.2-2.9-8-1.6-3.1 1.5-5.2 4.2-3.7 7.3 1.4 3 5.2 2.7 7.9 1.4 3.1-1.6 5.2-4.2 3.8-7.1z"/>
		<path id="Layer" class="s0" d="m308.6 192.8c-0.2-0.1-0.5-0.1-0.9-0.1l-12.8-0.3-0.1-0.4 10.9-6.4-12.6-0.1-0.1-0.5 10.9-6.5c0.4-0.2 0.8-0.4 0.9-0.5 0-0.1 0.1-0.4 0-0.6v-0.5c0-0.3 0.1-0.4 0.3-0.5 0.3-0.1 0.3 0.3 0.4 0.6l0.8 3c0 0.3 0.1 0.5-0.2 0.6-0.2 0-0.2-0.1-0.4-0.3l-0.3-0.4c0-0.2-0.1-0.4-0.3-0.4-0.2 0.1-0.2 0.1-0.5 0.3l-8.5 4.7 9.7 0.2c0.2 0 0.4 0 0.6 0 0.4-0.1 0.2-1.2 0.5-1.3 0.4 0 0.3 0.2 0.4 0.3l0.8 3.2c0 0.2 0.2 0.4-0.2 0.5-0.2 0-0.8-0.9-0.9-0.8-0.2 0-0.4 0.1-0.6 0.2l-8.3 4.7 9.8 0.2c0.1 0 0.2 0 0.4-0.1 0.3 0-0.1-1.3 0.4-1.4 0.1 0 0.3 0.1 0.3 0.3l0.8 3.1c0 0.2 0.1 0.4-0.2 0.4-0.3 0.1-0.6-0.9-1-1.2z"/>
		<path id="Layer" fill-rule="evenodd" class="s0" d="m297.2 209.7c-0.4 0.1-0.3-0.3-0.4-0.5l-0.2-3.2c0-0.2-0.1-0.4 0.3-0.4 0.5 0 0.4 1.1 0.8 1.1 0.2 0 0.3-0.1 0.4-0.2l2.9-1.2-0.4-5.1-2.8-0.7c-0.3-0.1-0.4-0.1-0.7-0.1-0.1 0-0.2 0.2-0.2 0.4l-0.1 0.4q-0.1 0.4-0.3 0.5c-0.3 0.1-0.4-0.3-0.4-0.5l-0.2-2.7c0-0.2-0.1-0.6 0.3-0.6 0.1 0 0.2 0 0.3 0.3l0.2 0.5c0.1 0.2 0.1 0.4 0.2 0.5 0.1 0.1 0.6 0.2 1 0.3l12.6 3.3v0.7l-11.9 5.4c-0.3 0.1-0.6 0.2-0.7 0.4-0.4 0.3-0.2 1.3-0.7 1.4zm10.9-7.6l-6.4-1.6 0.3 4.3c0 0 6.1-2.7 6.1-2.7z"/>
		<g id="Layer">
			<path id="Layer" fill-rule="evenodd" class="s0" d="m210.1 321.2c-61.7 0-111.6-49.9-111.6-111.6 0-61.7 49.9-111.5 111.6-111.5 61.7 0 111.5 49.8 111.5 111.5 0 61.7-49.8 111.6-111.5 111.6zm109.9-111.6c0-60.7-49.2-109.9-109.9-109.9-60.8 0-109.9 49.2-109.9 109.9 0 60.8 49.1 109.9 109.9 109.9 60.7 0 109.9-49.1 109.9-109.9z"/>
			<path id="Layer" fill-rule="evenodd" class="s0" d="m210.1 315.7c-58.7 0-106.1-47.4-106.1-106.1 0-58.6 47.4-106.1 106.1-106.1 58.6 0 106.1 47.5 106.1 106.1 0 58.7-47.5 106.1-106.1 106.1zm105.7-106.1c0-58.4-47.3-105.7-105.7-105.7-58.5 0-105.7 47.3-105.7 105.7 0 58.5 47.2 105.7 105.7 105.7 58.4 0 105.7-47.2 105.7-105.7z"/>
		</g>
		<path id="Layer" fill-rule="evenodd" class="s0" d="m210.5 289.1c-43.7 0-79.1-35.4-79.1-79.1 0-43.7 35.4-79 79.1-79 43.7 0 79 35.3 79 79 0 43.7-35.3 79.1-79 79.1zm77.8-79.1c0-43-34.8-77.8-77.8-77.8-43 0-77.8 34.8-77.8 77.8 0 43.1 34.8 77.8 77.8 77.8 43 0 77.8-34.7 77.8-77.8z"/>
		<path id="Layer" fill-rule="evenodd" class="s0" d="m119.1 248.8c-1.3-3.2 0.7-6 3.6-7.1 2.8-1.2 6.2-0.4 7.5 2.5 1.2 3.1-0.7 5.9-3.6 7-2.9 1.2-6.4 0.4-7.5-2.4zm10.5-4.3c-1-2.5-4.1-2.7-6.5-1.7-2.5 1.1-4.4 3.2-3.4 5.7 1.1 2.5 4.2 2.5 6.4 1.6 2.7-1.1 4.5-3.2 3.5-5.6z"/>
		<path id="Layer" fill-rule="evenodd" class="s0" d="m127.6 264.3c-0.2 0.1-0.3-0.1-0.4-0.3l-0.9-1.4 3.1-5-0.6-1.2-3.3 2c-0.3 0.1-0.5 0.2-0.5 0.3 0 0.1 0.1 0.3 0.1 0.4l0.1 0.5q0.1 0.3-0.1 0.4c-0.3 0.1-0.4-0.2-0.6-0.4l-1.1-1.9c-0.1-0.3-0.3-0.6-0.1-0.7 0.1-0.1 0.2-0.1 0.4 0.1l0.4 0.3c0.1 0.1 0.2 0.2 0.3 0.3 0.1 0 0.2-0.1 0.5-0.3l7.5-4.4c0.3-0.2 0.5-0.2 0.5-0.4 0 0 0-0.2-0.1-0.4l-0.1-0.4c0-0.3 0-0.3 0.1-0.4 0.3-0.2 0.5 0.2 0.6 0.4l1.7 2.9c1.2 2.1 0 3.6-1.1 4.2-1.9 1.1-3.8-0.5-3.8-0.5l-2.4 3.9c-0.1 0.2-0.2 0.3-0.3 0.5 0 0.1 0 0.3 0 0.5l0.2 0.6c0 0.1 0.1 0.3-0.1 0.4zm6.8-9.6l-0.7-1.1-4.4 2.5 0.6 1c0.7 1.2 2.3 1.6 3.5 0.8 1.1-0.7 1.8-1.7 1-3.2z"/>
		<path id="Layer" class="s0" d="m138.9 272.3l-0.7-0.4-2.3 1.8c0 0-2-0.3-3.4-2-1.9-2.4-1.3-5.5 1.6-7.8 2.5-1.9 6-2.1 8 0.6q1.2 1.6 1.2 3.1l-1.4 1.1c-0.2 0.1-0.3 0.2-0.5 0-0.1-0.2 0-0.4 0.1-0.5l0.7-1c0.2-0.4 0.2-1.2-0.6-2.3-1.7-2.3-4.4-1.6-6.7 0-2.1 1.5-3.6 4.1-1.8 6.3 0.6 0.8 1.6 1.5 2.3 1.5l2.2-1.7-0.2-0.3c-0.1-0.4-0.3-0.8-0.1-0.9 0.2-0.2 0.4 0 0.5 0.2l1.6 2c0.1 0.2 0.3 0.3 0.1 0.5-0.2 0.2-0.4-0.1-0.6-0.2z"/>
		<path id="Layer" fill-rule="evenodd" class="s0" d="m145.1 284.7c-0.2 0.2-0.3 0-0.5-0.2l-1.8-1.8c-0.1-0.1-0.3-0.2-0.1-0.4 0.3-0.3 0.9 0.5 1.1 0.3 0.1-0.1 0.2-0.3 0.2-0.4l1.1-2.3-3-2.9-2 1c-0.3 0.2-0.4 0.2-0.5 0.3-0.1 0.1-0.1 0.3 0 0.4l0.2 0.3q0.2 0.3 0 0.5c-0.1 0.2-0.3 0-0.4-0.1l-1.6-1.5c-0.2-0.2-0.4-0.4-0.2-0.6 0.1-0.1 0.2-0.1 0.4 0l0.4 0.2c0.1 0.1 0.3 0.2 0.3 0.2 0.2 0 0.5-0.2 0.8-0.3l9.6-4.7 0.4 0.4-4.5 9.7c-0.1 0.3-0.2 0.5-0.3 0.7 0 0.3 0.6 0.9 0.4 1.2zm2.6-10.5l-4.8 2.4 2.5 2.5z"/>
		<path id="Layer" class="s0" d="m161.9 283.9l-0.5-0.2c-0.1 0-0.3-0.1-0.4 0-0.1 0-0.3 0.2-0.5 0.4l-6 8.1-0.3-0.2 0.1-11.8-4.8 6.4c-0.2 0.3-0.3 0.5-0.3 0.6q0.1 0.2 0.2 0.3l0.2 0.3c0.2 0.3 0.3 0.4 0.2 0.6-0.1 0.2-0.4 0-0.6-0.1l-1.7-1.3c-0.2-0.2-0.6-0.4-0.4-0.6 0.1 0 0.2-0.1 0.4 0l0.4 0.1c0.2 0.1 0.4 0.1 0.4 0.1 0.2 0 0.3 0 0.6-0.4l5.1-7c0.2-0.2 0.4-0.4 0.3-0.6q0-0.1-0.2-0.3l-0.2-0.4c-0.2-0.2-0.1-0.3 0-0.4 0.1-0.1 0.2 0 0.3 0l1.3 1-0.2 11.3 4.8-6.5c0.1-0.1 0.2-0.2 0.1-0.3 0-0.1-0.1-0.2-0.2-0.3l-0.2-0.3c-0.2-0.2-0.4-0.4-0.2-0.6 0.1-0.1 0.2 0 0.4 0.1l2.1 1.5c0.2 0.2 0.3 0.3 0.2 0.5-0.1 0.1-0.2 0.1-0.4 0z"/>
		<path id="Layer" class="s0" d="m161.3 296.4l-1.9-1.1c-0.2-0.1-0.5-0.3-0.4-0.6q0.1-0.2 0.4-0.1l0.5 0.1c0.1 0.1 0.3 0.1 0.3 0.1 0.2 0 0.3-0.2 0.4-0.5l4.4-7.5c0.2-0.3 0.3-0.4 0.3-0.6 0 0-0.2-0.2-0.3-0.3l-0.3-0.3c-0.2-0.2-0.2-0.3-0.1-0.4 0.1-0.2 0.4 0 0.7 0.1l1.9 1.1c0.2 0.1 0.5 0.3 0.4 0.6-0.1 0.1-0.2 0.1-0.4 0.1l-0.5-0.1c-0.1-0.1-0.3-0.1-0.4 0-0.1 0-0.2 0.1-0.3 0.4l-4.4 7.5c-0.2 0.3-0.3 0.4-0.3 0.6 0 0 0.2 0.1 0.3 0.3l0.3 0.3q0.2 0.2 0.1 0.4c-0.1 0.2-0.4 0-0.7-0.1z"/>
		<path id="Layer" class="s0" d="m167 298.7l3 1.3c0.2 0.1 0.6 0.3 0.8 0.3 0.1 0 0.3-0.1 0.5-0.2l0.4-0.2c0.1-0.1 0.6-0.6 0.9-0.4 0.4 0.2 0 0.5-0.2 0.8l-1 1.1-6.2-2.8 10.4-7.3-2.6-1.2c-0.1 0-0.6-0.3-0.8-0.3-0.1 0-0.3 0.1-0.4 0.3l-0.4 0.2c-0.1 0.1-0.5 0.4-0.7 0.3-0.2-0.1-0.1-0.4 0.1-0.6l0.8-1.2 5.7 2.6c0 0-10.3 7.3-10.3 7.3z"/>
		<path id="Layer" class="s0" d="m182.8 305.5l-6.1-2c-0.3-0.1-0.7-0.2-0.6-0.5 0-0.1 0.1-0.1 0.4-0.1h0.4c0.2 0 0.4 0 0.4 0 0.2-0.1 0.2-0.3 0.3-0.6l2.7-8.3c0.1-0.4 0.1-0.5 0.1-0.6 0-0.1-0.2-0.1-0.3-0.2l-0.4-0.3c-0.2-0.1-0.3-0.2-0.2-0.4 0.1-0.2 0.4-0.1 0.7 0l6 1.9-0.3 1c0 0.3-0.1 0.9-0.4 0.8-0.3-0.1-0.3-0.3-0.3-0.6v-0.4c0-0.1 0-0.3-0.1-0.4-0.1-0.1-0.3-0.1-0.5-0.2l-3-1-1.4 4.5 2.7 0.9c0.2 0 0.3 0.1 0.5 0.1 0.2-0.1 0.2-0.2 0.3-0.3l0.3-0.4c0.1-0.1 0.2-0.3 0.4-0.2 0.1 0 0.1 0.2 0.1 0.3l-0.8 2.5q-0.1 0.2-0.3 0.1c-0.2 0-0.2-0.2-0.2-0.4v-0.4c0-0.2 0.1-0.3 0-0.4-0.1-0.1-0.3-0.2-0.5-0.2l-2.8-0.9-1.2 3.9c-0.1 0.3-0.2 0.4-0.2 0.6 0.1 0 0.2 0.1 0.3 0.1l2.8 1c0.2 0 0.3 0 0.4 0 0.2 0 0.2-0.1 0.4-0.2l0.6-0.5c0.1-0.2 0.5-0.5 0.7-0.4 0.3 0.1 0.2 0.3 0.1 0.5l-1 1.7z"/>
		<path id="Layer" fill-rule="evenodd" class="s0" d="m197.7 302.7c-0.8 3.8-3.8 5.2-6.5 4.7l-3.4-0.6c-0.3-0.1-0.8-0.1-0.6-0.4 0-0.1 0.1-0.1 0.3-0.1l0.5-0.1c0.2 0 0.3 0 0.4-0.1 0.1-0.1 0.1-0.3 0.2-0.6l1.5-8.6c0.1-0.3 0.1-0.5 0.1-0.6-0.1 0-0.2-0.1-0.4-0.2l-0.4-0.2c-0.2-0.1-0.3-0.2-0.3-0.4 0.1-0.3 0.3-0.2 0.6-0.1l3.8 0.7c3.3 0.6 4.7 4 4.2 6.6zm-4.5-6l-1.8-0.4-1.8 9.8c-0.1 0.1 0 0.2 0.1 0.3q0.1 0.1 0.3 0.1l0.9 0.2c2.5 0.5 4.7-0.5 5.5-4.1 0.6-2.5-0.5-5.4-3.2-5.9z"/>
		<path id="Layer" class="s0" d="m212.6 299.5c-0.3 0-0.4-0.2-0.5-0.4l-0.1-0.4c0-0.2-0.1-0.4-0.2-0.4-0.1 0-0.4 0-0.5 0h-3.1v4.6h2.7c0.2 0 0.4 0.1 0.5 0 0.1-0.1 0.2-0.2 0.2-0.4l0.1-0.4c0.1-0.2 0.2-0.4 0.3-0.4 0.2 0 0.3 0.2 0.3 0.3v2.6c0 0.1-0.1 0.2-0.2 0.2-0.2 0-0.4-0.2-0.4-0.3l-0.1-0.4c0-0.2 0-0.3-0.2-0.4-0.1-0.1-0.3 0-0.5 0h-2.7v4c0 0.4 0 0.5 0 0.6 0 0.1 0.2 0.1 0.3 0.2l0.5 0.1c0.2 0.1 0.3 0.1 0.3 0.3 0 0.2-0.3 0.3-0.4 0.3h-2.4c-0.3 0-0.7 0-0.7-0.3 0-0.2 0.1-0.2 0.3-0.3l0.5-0.1c0.1 0 0.3-0.1 0.3-0.1 0.1-0.1 0.1-0.4 0.1-0.7v-8.7c0-0.4 0.1-0.5 0-0.6-0.1 0-0.3-0.1-0.4-0.1l-0.5-0.2c-0.2 0-0.3-0.1-0.3-0.2 0.1-0.3 0.4-0.3 0.7-0.3h6.1l0.1 1c0 0.3 0.2 0.9-0.1 0.9z"/>
		<path id="Layer" class="s0" d="m223.7 308.2l-6.4 0.7c-0.3 0-0.6 0.1-0.7-0.2 0-0.1 0.1-0.2 0.3-0.3l0.4-0.2c0.1 0 0.4-0.1 0.4-0.1 0.1-0.1 0-0.3 0-0.7l-1-8.6c0-0.4 0-0.5-0.1-0.6 0-0.1-0.3-0.1-0.4-0.1l-0.5-0.1c-0.2 0-0.3-0.1-0.3-0.2 0-0.3 0.4-0.4 0.6-0.4l6.3-0.7 0.2 1c0 0.3 0.3 0.9-0.1 1-0.3 0-0.4-0.3-0.5-0.5l-0.2-0.3c0-0.1-0.1-0.3-0.2-0.3q-0.2-0.1-0.6 0l-3.1 0.3 0.5 4.6 2.8-0.3c0.2 0 0.4 0 0.6-0.1 0.1-0.1 0.1-0.2 0.1-0.4l0.1-0.4c0-0.2 0-0.4 0.3-0.4 0.1 0 0.2 0.1 0.2 0.3l0.3 2.6q0 0.1-0.2 0.2c-0.2 0.1-0.3-0.2-0.4-0.3l-0.1-0.4c-0.1-0.1-0.1-0.3-0.2-0.4-0.2 0-0.4 0-0.6 0l-2.8 0.4 0.4 4q0.1 0.5 0.1 0.6c0.1 0.1 0.2 0.1 0.3 0.1l3-0.3c0.2 0 0.2-0.1 0.3-0.1 0.2-0.2 0.2-0.2 0.3-0.4l0.3-0.7c0.1-0.2 0.3-0.7 0.6-0.7 0.2 0 0.2 0.3 0.2 0.5z"/>
		<path id="Layer" fill-rule="evenodd" class="s0" d="m234.8 302.4c0.5 2.2-0.8 3.7-2.8 4.2l-3.3 0.8c-0.3 0-0.6 0.1-0.7-0.1-0.1-0.2 0-0.3 0.2-0.4l0.4-0.2c0.1-0.1 0.3-0.2 0.3-0.2 0.1-0.1 0-0.3 0-0.6l-2-8.5c-0.1-0.4-0.1-0.5-0.2-0.6-0.1-0.1-0.3-0.1-0.4-0.1h-0.5c-0.2 0-0.3-0.1-0.3-0.2-0.1-0.3 0.3-0.3 0.5-0.4l3.1-0.7c1.8-0.4 3.3 0.6 3.6 1.8 0.5 1.7-0.7 2.7-0.9 2.9 0.8-0.1 2.7 0.4 3.1 2.3zm-5.5-6.4l-1.5 0.4 0.9 4.1 1.5-0.3c1.2-0.3 1.5-1.5 1.3-2.6-0.3-1.1-1.2-1.8-2.2-1.6zm1 4.8l-1.4 0.4 1.1 4.8c0 0.1 0.1 0.2 0.2 0.2 0.1 0.2 0.3 0.1 0.5 0.1l1-0.3c1.7-0.4 2.2-1.8 1.9-3.2-0.4-1.5-1.3-2.4-3.3-2z"/>
		<path id="Layer" class="s0" d="m240.4 304.4c-0.5 0.2-1.2-0.1-1.4-0.7-0.2-0.5 0.2-1.1 0.7-1.3 0.6-0.1 1.1 0.2 1.3 0.7 0.2 0.5-0.1 1-0.6 1.3z"/>
		<path id="Layer" class="s0" d="m254.1 296.5l0.3 1.9-5.9 2.8-0.3-0.7c0.1-0.4 1-3.1 1.4-5.2 0.3-1.6 0.8-3 0.2-4.3-0.4-0.9-1.5-1.7-2.8-1-1.1 0.6-1.3 2-1.4 2.9 0 0.2 0.1 0.4-0.2 0.5-0.2 0-0.3-0.2-0.4-0.4-0.5-1.3 0.2-3.4 1.8-4.1 1.9-0.8 3.2 0 4 1.4 0.8 1.4 0.2 3.5-0.3 5.4-0.5 1.6-0.9 2.6-1.4 4.1l3.4-1.6c0.2-0.1 0.3-0.2 0.4-0.4 0.1-0.2 0.2-0.3 0.2-0.6l0.1-0.7c0-0.4 0.1-0.8 0.3-0.9 0.2-0.1 0.4 0 0.4 0.2 0.1 0.2 0.2 0.4 0.2 0.7z"/>
		<path id="Layer" class="s0" d="m260.8 294.9c-1 0.6-3 0.7-3.1-0.1-0.1-0.6 1.2 0.3 2.5-0.6 1.3-0.9 1.6-2.7 0.8-4-1.9-2.8-5.7-0.1-5.7 0l-1.5-4.8 4-2.5 0.2 1-3.1 1.9 0.9 3c0.9-0.8 4.2-2.2 6.1 0.6 1.2 1.8 0.7 4.3-1.1 5.5z"/>
		<path id="Layer" class="s0" d="m284.3 274.6l-1.4 1.7c-0.2 0.1-0.4 0.5-0.6 0.3-0.1-0.1 0-0.3 0-0.4l0.2-0.4c0-0.2 0.1-0.4 0.1-0.4 0-0.1-0.2-0.3-0.5-0.5l-5.9-5.2-0.5-0.4-0.3 0.4-0.7 0.7c-0.1 0.2-0.3 0.2-0.4 0.1-0.2-0.2 0.4-0.7 0.5-1.6 0.2-0.7 0-1.2 0.2-1.4 0.2-0.2 0.4 0.1 0.5 0.2l7.4 6.4c0.2 0.2 0.4 0.4 0.5 0.4 0.1 0 0.3-0.1 0.4-0.2l0.4-0.2c0.2-0.1 0.2-0.2 0.3-0.1 0.3 0.1 0 0.4-0.2 0.6z"/>
		<path id="Layer" fill-rule="evenodd" class="s0" d="m289.2 268.6c-1.1 1.5-3.4 1.8-4.8 0.7-1.1-0.9-1.4-2.3-1.2-3.5-0.9 0.4-2.1 0.4-3-0.3-1.3-1-1.5-2.8-0.6-4.1 0.9-1.2 2.7-1.4 3.9-0.5 1 0.7 1.3 1.6 1.2 2.7 1.2-0.7 2.5-0.8 3.7 0 1.6 1.1 2 3.4 0.8 5zm-9-6.6c-0.6 0.8-0.1 2 0.7 2.6 0.9 0.6 2.2 0.7 2.8-0.2 0.6-0.9 0-2-0.9-2.6-0.8-0.5-1.9-0.8-2.6 0.2zm7.7 2.8c-1.1-0.9-2.6-1-3.5 0.1-0.8 1-0.4 2.5 0.8 3.5 1.1 0.8 2.6 0.8 3.4-0.4 0.9-1.3 0.3-2.5-0.7-3.3z"/>
		<path id="Layer" fill-rule="evenodd" class="s0" d="m294.2 255.6l2.2 1.2-0.5 0.9-2.2-1.3-2.6 4.7-0.6-0.4-4.6-8.9 0.4-0.7 7 4 0.7-1.3 0.9 0.5zm-1.4 0.4zm0 0l-5.5-3.1 3.5 6.7z"/>
		<path id="Layer" class="s0" d="m299.6 250l-0.5 1.3-7.9-8.9-1.3 3.2c-0.1 0.3-0.2 0.5-0.2 0.7 0 0.1 0.2 0.5 0.4 0.8l0.2 0.4c0.2 0.3 0.5 0.6 0.3 0.8-0.1 0.1-0.3 0.2-0.5 0l-1.8-1.4 2.5-6c0 0 8.8 9.1 8.8 9.1z"/>
		<path id="Layer" class="s0" d="m302.1 241.5c-0.5 0-1-0.4-1-1 0-0.6 0.5-1 1-1 0.6 0 1.1 0.4 1.1 1 0 0.6-0.5 1-1.1 1z"/>
		<path id="Layer" class="s0" d="m263.2 279.6l-0.6-0.5-3.1 2.3 0.3 0.7c0 0.1 0.1 0.2 0.3 0.1 0.1-0.1 0-0.3 0-0.4v-0.2c0-0.1-0.1-0.2 0-0.2 0-0.1 0-0.1 0.1-0.1l0.8-0.6 2.8 3.8q0.2 0.2 0.2 0.2c0 0.1 0 0.1-0.1 0.2l-0.2 0.2c-0.1 0.1 0 0.2 0 0.2 0.1 0.1 0.2 0 0.3 0l1-0.8c0.1 0 0.2-0.1 0.1-0.2 0-0.1-0.1-0.1-0.2-0.1l-0.2 0.1c-0.1 0.1-0.2 0.1-0.2 0.1q-0.1-0.1-0.2-0.3l-2.8-3.8 0.9-0.6c0-0.1 0-0.1 0.1-0.1 0.1 0 0.1 0 0.2 0.1l0.2 0.1c0.1 0 0.3 0.2 0.4 0.1 0.1-0.1 0-0.3-0.1-0.3z"/>
		<path id="Layer" class="s0" d="m267.7 275.2l-0.2 0.3c0 0-0.1 0.1-0.1 0.1 0 0.1 0.1 0.1 0.2 0.3l2.8 3.3q0.2 0.2 0.2 0.2c0.1 0 0.2 0 0.2 0l0.3-0.2c0.1 0 0.1 0 0.2 0 0.1 0.1-0.1 0.3-0.2 0.4l-0.9 0.7c0 0.1-0.2 0.2-0.3 0.1q0-0.1 0.1-0.2l0.1-0.2c0 0 0.1-0.1 0.1-0.2 0 0-0.1-0.1-0.2-0.2l-1.3-1.5-2 1.6 1.3 1.5c0.1 0.2 0.2 0.2 0.3 0.2 0 0 0.1 0 0.2 0l0.2-0.1c0.1-0.1 0.2-0.1 0.2 0 0.1 0.1-0.1 0.2-0.2 0.3l-0.8 0.7c-0.1 0.1-0.3 0.3-0.3 0.1-0.1 0-0.1 0 0-0.1l0.1-0.2c0.1-0.1 0.1-0.2 0.1-0.2 0-0.1-0.1-0.1-0.2-0.3l-2.8-3.3c-0.1-0.2-0.2-0.2-0.2-0.2-0.1 0-0.1 0-0.2 0.1h-0.2c-0.1 0.1-0.2 0.1-0.2 0-0.1-0.1 0-0.2 0.1-0.3l1-0.8c0.1-0.1 0.1-0.1 0.2 0q0.1 0.1 0 0.2l-0.1 0.2c-0.1 0.1-0.1 0.1-0.1 0.2q0 0.1 0.1 0.1l1.3 1.6 1.9-1.6-1.2-1.6c-0.1-0.1-0.2-0.1-0.2-0.1-0.1 0-0.1 0-0.2 0l-0.2 0.1c-0.1 0.1-0.2 0-0.2 0-0.1-0.1 0-0.2 0.1-0.3l1-0.8c0.1-0.1 0.2-0.2 0.3-0.1 0 0.1 0 0.2-0.1 0.3z"/>
		<path id="Layer" class="s0" d="m206.2 278.2l52.5-31.6 0.2 0.2-52.6 31.6z"/>
		<path id="Layer" class="s0" d="m189.8 155.1c0.2-1.3 0.8-3 2.1-3.6 1.2-0.7 2.7-1 4-1.2 1.1-0.1 2 0.1 3 0.5 0.3 0.1 0.7 0.3 1 0.3 0.2 0.1 0.1 0.1 0.1 0q0 0.1 0 0.3c0.1 1 0 2.1-0.1 3q-0.2 0.9-0.5 1.7c-0.1 0.5-0.2 1-0.6 1.3-0.4 0.3-1 0.5-1.5 0.5-0.1 0 0.1 0.1 0 0q0 0-0.1-0.1-0.1-0.1-0.3-0.3c-0.8-0.7-1.6-1.2-2.5-1.7q-1.1-0.6-2.1-1.1v0.2l1.1-0.9q0.1-0.1 0.2-0.2c0.1-0.1-0.1 0 0 0q0.2 0 0.4 0c1.1-0.1 2.9 0 3.4 1.3l0.2-0.2c-0.3-0.5-1.1-0.8-1.6-1.1-1.2-0.4-2.5-0.5-3.7-0.3-0.7 0.1-3 0.4-2.8 1.6 0 0.1 0.3 0.1 0.3-0.1-0.1-0.1 0.1-0.4 0.3-0.5 0.6-0.6 1.7-0.7 2.6-0.8 1-0.1 2.1 0 3.1 0.4 0.5 0.2 1.3 0.5 1.6 1 0 0.1 0.3 0 0.2-0.1-0.5-1.3-2.2-1.5-3.4-1.5-0.3 0-0.6-0.1-0.8 0.1-0.5 0.3-0.9 0.7-1.3 1.1-0.1 0 0 0.2 0 0.2q1.2 0.6 2.4 1.2c0.9 0.5 1.7 1.2 2.5 1.9 0.5 0.5 1.6-0.1 2-0.5 0.4-0.3 0.5-0.7 0.7-1.2 0.2-0.6 0.4-1.3 0.5-2 0.2-1.1 0.2-2.2 0.1-3.3q0 0-0.1-0.1c-0.9-0.4-1.9-0.7-2.9-0.9-1.4-0.2-2.9 0.2-4.2 0.7-0.7 0.2-1.3 0.4-1.9 0.8-0.4 0.4-0.7 0.9-1 1.4-0.3 0.6-0.6 1.3-0.7 2.1 0 0.1 0.2 0.2 0.3 0z"/>
		<g id="Layer">
			<path id="Layer" class="s0" d="m193.3 150.6l7.2-6.5-4.3-0.5 10.8-6.6-4.2 10.3-1.1-2.5-6 5.3"/>
			<path id="Layer" class="s0" d="m193.5 150.8q3.1-2.9 6.3-5.7l0.9-0.8c0.2-0.2 0-0.5-0.2-0.5q-2.2-0.3-4.3-0.5 0.1 0.3 0.2 0.5 4.7-2.9 9.4-5.7 0.7-0.5 1.4-0.9l-0.5-0.3q-1.8 4.5-3.6 9.1l-0.6 1.2h0.6q-0.6-1.3-1.1-2.5c-0.1-0.2-0.3-0.2-0.5-0.1q-3 2.6-6 5.2c-0.2 0.3 0.2 0.7 0.4 0.4q3-2.6 6-5.2h-0.4q0.5 1.2 1.1 2.5c0.1 0.2 0.4 0.1 0.5-0.1q1.8-4.5 3.7-9.1l0.5-1.2c0.1-0.3-0.2-0.5-0.4-0.4q-4.8 2.9-9.5 5.8-0.7 0.4-1.3 0.8c-0.3 0.2-0.2 0.5 0.1 0.6q2.2 0.2 4.3 0.4l-0.2-0.5q-3.2 2.9-6.3 5.8l-0.9 0.8c-0.3 0.2 0.1 0.6 0.4 0.4z"/>
		</g>
		<path id="Layer" class="s0" d="m200.7 150.6c0.7-1.3 1.8-2 3.4-1.9 1.2 0 2.4 0.3 3.5 0.8 2.2 1 3.5 3.1 5.4 4.4 1.5 1.1 3.1 2.3 4.8 3.1 0.1 0 0.3 0.1 0.3 0.1 0.1 0.1 0-0.1 0 0.1-0.1 0.6-1.3 0.6-1.7 0.6-0.7 0-1.4-0.1-2.1 0-0.1 0-0.7 0.1-0.6 0.3 0.7 1 1.4 2 2.2 3 0.9 1.2 2 2.1 3.3 2.9 1.1 0.8 2.3 1.7 3.6 2.3 0.1 0 0.4 0.1 0.4 0.2 0.3 0.4-1.3 0.6-1.6 0.6-0.5 0-1 0-1.4 0.1 0 0-0.5 0.2-0.4 0.3 1.6 1 2.9 2.8 3.9 4.3 1.1 1.7 1.1 3.7 2.2 5.3 1.2 1.7 2.9 3.1 3.6 5.1 0.5 1.3 0.8 2.7 0.9 4l0.8-0.3c-0.7-0.7-1.2-1.7-2.2-1.2-0.9 0.4-1.4 1.5-1.9 2.2-0.6 0.7-1.2 1.4-2.1 1.2-0.7-0.1-1.3-0.4-1.9-0.7q-1-0.6-1.9-1.2c-0.2-0.2-0.6 0-0.8 0.1-1.1 1.2-2.9 2.8-4.5 2.2-1.4-0.4-2.6-1.3-3.7-2.2-0.1-0.1-0.6 0.1-0.7 0.2-1.1 1.1-2.7 2.4-4.3 1.7-1-0.5-1.9-1.3-2.7-2.2-0.1-0.2-0.6 0.1-0.8 0.2q-0.3 0.3-0.6 0.5c-1 0.6-1.8 0.5-2.8 0q-1.2-0.6-2.4-1.4c-0.1-0.1-0.7 0-0.8 0.2-0.1 0.2-0.1 0.1 0.2 0l0.5 0.1c0.2-0.7 0.7-1.4 0.9-2.1q0.7-1.4 1.2-2.9c0.9-2.4 1.7-4.9 2.1-7.5 0.2-1.3 0.2-2.7 0.1-4-0.1-1.5-0.1-3.2-0.7-4.6-0.6-1.3-1.8-2.2-2.6-3.4-0.4-0.7-0.6-1.4-0.6-2.2 0-0.6-0.1-0.9-0.6-1.1l-0.4 0.4c1.2-0.2 2.3-0.8 2.8-2.1 0.3-0.9 0.4-1.9 0.5-2.8 0.1-0.9-0.2-1.9 0.2-2.6 0.1-0.2-0.7-0.1-0.8 0.1-0.2 0.4-0.2 0.7-0.2 1.2 0 0.9 0 1.8-0.2 2.7-0.2 1.4-0.5 2.9-2.2 3.1-0.1 0-0.7 0.3-0.4 0.4 0.8 0.2 0.4 1.4 0.6 2 0.2 0.6 0.5 1.1 0.8 1.6 0.9 1.2 2 2.1 2.4 3.5 0.5 1.5 0.6 3.2 0.6 4.7 0 1.3 0 2.6-0.2 3.9-0.5 2.4-1.2 4.8-2.1 7.1q-0.5 1.4-1.1 2.8c-0.3 0.6-0.8 1.2-0.9 1.9 0 0.2 0.5 0.1 0.6 0 0.2 0 0.3-0.1 0.4-0.3l-0.8 0.2c1.1 0.7 2.7 2 4.1 2 1.2 0 2.4-0.7 3.2-1.5l-0.8 0.2c1.1 1.2 2.6 2.6 4.3 2.5 1.7-0.1 3.1-1.2 4.2-2.4l-0.7 0.2c1.2 1.1 3.1 2.5 4.9 2.4 1.7 0 3.5-1.5 4.8-2.7l-0.8 0.2c1.3 0.9 3.2 2.2 4.9 2 1.1-0.1 1.9-0.8 2.5-1.7 0.4-0.4 0.6-1.1 1-1.4 0.7-0.7 1.1 0.3 1.6 0.8 0.1 0.1 0.8 0 0.8-0.2-0.1-1.4-0.4-2.7-0.9-4-0.8-2.1-2.6-3.6-3.8-5.4-0.5-0.8-0.7-1.6-0.9-2.5-0.2-1-0.7-1.9-1.2-2.7-1-1.5-2.3-3.2-3.8-4.2l-0.4 0.3c0.8-0.2 1.6 0 2.4-0.2 0.6-0.1 1.1-0.4 1.5-1 0-0.1-0.1-0.1-0.1-0.1-0.9-0.3-1.8-0.9-2.6-1.5-1-0.6-1.9-1.2-2.9-2-1.7-1.3-2.8-3.2-4.1-4.9l-0.5 0.3c1.4 0 4.4 0.5 5.1-1.2 0-0.1-0.1-0.1-0.2-0.1-0.7-0.1-1.5-0.8-2-1.2q-1.5-0.9-2.9-1.9c-1.9-1.2-3.2-3.3-5.3-4.4-2.8-1.5-7-1.7-8.7 1.5-0.1 0.1 0.7 0.1 0.8-0.2z"/>
		<path id="Layer" fill-rule="evenodd" class="s0" d="m204.4 153.8q0 0 0 0 0 0 0 0zm-1.6-0.5c-0.5-0.4-0.9-1.4-0.9-1.4l-0.1-0.1 0.1-0.1c0.5-0.3 0.9-0.4 1.5-0.1 0.6 0.4 1.6 1.8 1.7 1.9l0.1 0.2h-0.2q-0.3 0.1-0.6 0.1c-0.7 0-1.2-0.3-1.6-0.5zm-0.6-1.4c0.1 0.2 0.4 0.9 0.8 1.1 0.4 0.3 0.9 0.6 1.7 0.5-0.4-0.5-1.1-1.4-1.4-1.6-0.5-0.3-0.8-0.2-1.1 0z"/>
		<g id="Layer">
			<path id="Layer" class="s0" d="m202.8 151.6c0 0 0.5 0.1 0.4 0.5-0.1 0.5-0.3 1-0.3 1l-0.9-1.3 0.8-0.2z"/>
			<path id="Layer" fill-rule="evenodd" class="s0" d="m203 153.4zm-1.3-1.7l1.1-0.2c0 0 0.3 0 0.4 0.2q0.2 0.2 0.1 0.5c-0.1 0.5-0.2 0.9-0.2 0.9l-0.1 0.3zm0.5 0.2l0.6 0.9c0.1-0.2 0.1-0.5 0.2-0.7q0-0.2-0.1-0.3c0 0-0.1 0-0.1-0.1 0 0-0.6 0.2-0.6 0.2z"/>
		</g>
		<path id="Layer" class="s0" d="m192 244.3c0.6-0.7 1.5-1.5 2.6-1 0.6 0.3 1 1.2 1.2 1.9q0 0.1 0 0.1c1.1-0.7 2.5-0.6 3.7-1.2 1.3-0.7 1.9-1.9 2.1-3.2 0.2-1.1 0.2-2.2 0-3.3-0.1-1-0.3-1.9-0.1-2.8 0.2-1.4 0.9-2.7 1.4-4 0.7-1.5 1.2-3 1.5-4.6 0.3-1.6 0.7-3.6-0.2-5.1-1.6-2.5-3.9-4.7-7-5 0 0 0 0.7 0.1 0.7 2.8 0.2 5.1 2.1 6.6 4.4 0.2 0.4 0.6 0.8 0.7 1.2 0 0.4 0 0.9-0.1 1.3 0 0.9-0.2 1.8-0.5 2.7-0.3 1.6-0.9 3.1-1.6 4.6-0.5 1.1-1.1 2.4-1.2 3.7 0 1.2 0.4 2.4 0.4 3.6 0 1.3-0.1 2.9-1 4-0.9 1.3-2.3 1.4-3.7 1.8-0.3 0-0.9 0.4-1.1 0.4-0.2 0 0 0.1-0.2-0.2-0.2-0.4-0.3-0.8-0.6-1.2-1-1.3-2.3-0.5-3.1 0.5-0.1 0.2 0.2 0.6 0.1 0.7z"/>
		<path id="Layer" class="s0" d="m197.4 216.2c-2.5-0.1-5.3 0.7-7.4 2.2-2 1.5-2.9 3.7-3.2 6.1-0.1 0.8 0.1 1.6 0 2.4 0 1.4-0.3 2.8-0.4 4.2-0.3 2.7-0.3 5.2 1.1 7.5 1.2 2 2.6 3.8 4 5.5 0.2 0.3 1 0 0.8-0.3-1.4-1.7-2.8-3.5-4-5.4-1.8-2.9-1.3-6.2-0.8-9.4 0.3-2.5-0.1-4.9 0.8-7.3 1.3-3.4 5.3-5.2 8.8-5 0.3 0 0.8-0.5 0.3-0.5z"/>
		<path id="Layer" class="s0" d="m228.6 245.3c-0.1-0.9 0-1.7-0.2-2.6-0.4-1.2-1.8-0.8-2.7-0.4-0.5 0.3-0.9 0.8-1.4 1.1-0.1 0-0.2 0.2-0.2 0.2-0.2 0.1-0.7-0.3-0.8-0.4-0.6-0.3-1-0.8-1.4-1.3-0.6-1-0.4-2-0.2-3 0.2-2.1 0.6-4.6-0.4-6.6-1.1-2.1-2-4.2-1.8-6.7 0.1-1.6 0.3-3.3 0.8-4.8 1.1-3.7 5.5-4.9 8.9-4.6 0 0 0-0.7-0.1-0.7-3.1-0.3-7.4 0.7-8.7 3.9-0.6 1.3-0.7 2.9-0.9 4.3-0.3 1.5-0.2 3 0.1 4.5 0.2 1.2 0.6 2.4 1.1 3.5 0.3 0.7 0.9 1.3 1 2.1 0.2 1 0.1 2 0 3-0.3 2.2-0.8 4.8 1 6.5 0.3 0.3 1.1 1.1 1.5 1 0.1 0 0.4-0.3 0.5-0.4q0.4-0.4 0.8-0.6c0.7-0.4 1.7-0.9 2.5-0.6 0.7 0.2 0.4 1.3 0.5 1.9 0 0.2 0.1 0.5 0.1 0.7z"/>
		<path id="Layer" class="s0" d="m228.9 216.4c1.7 0.2 3.1 0.6 4.3 1.9 1.1 1.2 2 2.6 2.6 4.1 1 2.9 0 5.7-0.2 8.6 0 1.3 0.2 2.6 0.2 3.9 0 0.8-0.1 1.6-0.3 2.4-0.2 0.8-0.7 1.5-1.1 2.2-0.7 1.3-1.3 2.6-2.5 3.5-0.8 0.6-1.9 1.1-3 1.2-0.8 0.1-0.9 1.3 0 1.2 2-0.2 4-1.3 5.3-2.9 0.8-1 1.3-2.2 1.9-3.3 0.7-1.2 1.1-2.5 1.1-3.9 0.1-1.3-0.2-2.5-0.2-3.7 0-1.2 0.3-2.3 0.4-3.5 0.5-2.8 0.4-5.3-1-7.8-0.8-1.4-1.8-2.9-3.1-3.8-1.1-0.9-2.6-1.2-4-1.3-0.8-0.1-1.3 1.1-0.4 1.2z"/>
		<path id="Layer" class="s0" d="m201.4 240.6c-0.1 1.4 0.6 3.5 2.4 2.9 1-0.3 2-1.1 2.7-1.8 0.3-0.3 0.2-0.4 0.3-0.1 0.2 0.4 0.3 0.8 0.5 1.1 0.7 1.3 1.8 1.2 2.9 0.4q0.7-0.5 1.3-1.1c0.1 0 0.4-0.3 0.4-0.3 0.1 0 0 0.1 0.1 0.1 0.4 0.3 0.7 0.9 1.1 1.1 0.6 0.4 1.2 0.4 1.8 0 0.2-0.2 1.5-2.2 1.4-2.2 0.1 0.1 0.6 0.9 0.7 1.1 0.6 0.5 1.3 0.7 2.1 0.6 1.1-0.3 1.9-1.3 2.4-2.3 0.1-0.1-0.2-0.5-0.2-0.7-0.4 1-1.3 2-2.4 2.3-1.2 0.2-2.3-0.6-2.7-1.7-0.4 0.8-0.9 1.9-1.7 2.3-1.1 0.6-2.2-0.4-2.7-1.3-0.8 0.8-1.8 1.8-2.9 2-1.3 0.3-2-1.1-2.3-2.1 0 0 0-0.2 0-0.1-0.7 0.7-1.6 1.4-2.5 1.8-1.1 0.6-2.7 0.2-2.5-1.3 0-0.3-0.2-0.5-0.2-0.7z"/>
		<path id="Layer" class="s0" d="m194.3 248c-0.2 2.2-0.5 4.4-0.5 6.5 0 0.4 0.5 0.4 0.7 0.2 1.9-1.4 4.6-2.8 5.5-5.1h-0.8c-0.5 2.8-0.5 5.9-0.4 8.8 0 0.3 0.5 0.3 0.7 0.1 2.1-1.8 4.9-3.5 5.9-6.2l-0.9-0.1c0.1 3 0.6 6.2 1.6 8.9 0.1 0.4 0.6 0.2 0.7 0 1.9-1.8 4.5-4.1 5.1-6.8l-0.9 0.1c1 2.2 2.3 4.2 3.5 6.2 0.2 0.3 0.7 0.1 0.8-0.1 0.7-1.3 1.4-2.5 2-3.8 0.5-0.9 0.9-1.8 0.9-2.8l-0.8 0.2c1.2 1.6 2.5 2.6 4.1 3.7 0.2 0.2 0.6 0.1 0.7-0.2 0.9-1.8 1.6-4 1.4-6.1l-0.7 0.4c1.2 0.6 2.5 0.9 3.8 1.2 0.4 0.1 0.9-0.5 0.3-0.6-1.2-0.3-2.5-0.6-3.6-1.1-0.3-0.2-0.7 0-0.7 0.4 0.3 1.9-0.5 4-1.3 5.7l0.7-0.2c-1.5-1-2.8-2-3.9-3.5-0.2-0.3-0.8-0.2-0.8 0.2-0.1 1-0.6 2-1 2.9-0.6 1.2-1.3 2.3-1.9 3.5l0.8-0.1c-1.2-2-2.4-4-3.4-6.1-0.2-0.3-0.8-0.2-0.8 0.2-0.4 1.3-1.3 2.4-2.2 3.5-0.8 1-1.8 2-2.8 3h0.8c-1-2.7-1.5-5.8-1.5-8.7 0-0.4-0.7-0.3-0.8 0-1 2.6-3.7 4.2-5.7 6l0.7 0.1c-0.1-2.9-0.1-5.9 0.4-8.8 0.1-0.4-0.7-0.3-0.8 0-0.8 2.1-3.5 3.5-5.2 4.8l0.6 0.2c0.1-2.2 0.3-4.4 0.5-6.6 0.1-0.4-0.8-0.3-0.8 0.1z"/>
		<path id="Layer" class="s0" d="m202 242.3q-1.1 3-2.2 6l-0.3 0.9c0 0.1 0.1 0.3 0.1 0.3 0 0.1 0.1 0.3 0.1 0.4q1.1-3 2.1-6l0.4-0.9c0-0.1-0.1-0.3-0.1-0.4 0 0-0.1-0.3-0.1-0.3z"/>
		<path id="Layer" class="s0" d="m206.6 240.7q-0.7 4.9-1.5 9.8l-0.2 1.4c0 0.2 0.2 0.5 0.1 0.7q0.8-4.9 1.5-9.8l0.3-1.3c0-0.3-0.2-0.5-0.2-0.8z"/>
		<path id="Layer" class="s0" d="m211.8 241q-0.2 5.7-0.3 11.5v1.7c0 0.2 0.1 0.5 0.1 0.6q0.1-5.7 0.3-11.5v-1.7c0-0.2-0.1-0.5-0.1-0.6z"/>
		<path id="Layer" class="s0" d="m216.1 240.3q0.7 6 1.4 12l0.1 1.6c0.1 0.2 0.4 0.2 0.3 0q-0.6-5.9-1.3-11.9l-0.2-1.7c0-0.1-0.3-0.1-0.3 0z"/>
		<path id="Layer" class="s0" d="m219.8 241.7q1.4 4.4 2.8 8.7l0.4 1.3c0.1 0.2 0.4 0.1 0.3-0.1q-1.4-4.3-2.8-8.7l-0.5-1.3c0-0.1-0.3-0.1-0.2 0.1z"/>
		<path id="Layer" fill-rule="evenodd" class="s0" d="m182.6 258.7h0.1zm-0.3-0.3c-1.9-2.2-3.1-4.5-5.8-9.5-2.7-5.2-1-13.6 2.2-18 3.4-4.5 6.2-10 6.2-11.6h0.3c0 0 0.1 0.8 0 1.8-0.1 1-2 5.2-3.1 6.9q-0.4 0.6-1 1.4c-1.2 1.4-2.7 3.4-3.7 6.1-1.4 3.8-1.3 6.9-0.7 10.2 0.6 3.4 4.6 10.1 5.9 11.2 0.3 0.2 0.4 0.4 0.4 0.4v0.1c0 0-0.4 0.4-0.4 1v0.3zm2.6-38.1c-0.8 2.5-3.4 7.2-6 10.7-3.2 4.3-4.9 12.6-2.2 17.7 2.5 4.8 3.8 7.1 5.6 9.3 0.1-0.4 0.2-0.6 0.3-0.7q-0.1-0.1-0.3-0.3c-1.3-1.1-5.4-7.9-6-11.3-0.5-3-0.8-6.3 0.7-10.3 1-2.8 2.6-4.8 3.8-6.2q0.6-0.8 1-1.4c1.1-1.7 3-5.8 3.1-6.8q0-0.4 0-0.7z"/>
		<path id="Layer" fill-rule="evenodd" class="s0" d="m196.6 267c-0.6 0-1.3 0-1.8-0.1-1.3-0.3-4.7-1.5-5.8-3-0.4-0.4-0.2-0.7 0-0.9q0.1-0.1 0.2-0.1l0.1-0.1q0.1 0 0.2 0.1c0.3 0 0.6 0.2 0.7 0.2l0.1 0.1v0.2c0 0-0.1 0-0.1 0 0.8 0.6 2.1 1.5 2.9 1.8h0.2c1.2 0.4 3.8 1.3 5.5 1.2l0.1 0.3c-0.4 0.2-1.4 0.3-2.3 0.3zm-7.3-3.8q-0.1 0-0.1 0c-0.1 0.1-0.2 0.3 0 0.5 1.1 1.5 4.4 2.6 5.7 2.9 0.8 0.2 2.1 0.2 3 0.1-1.7-0.2-3.7-0.9-4.6-1.2l-0.3-0.1c-1.1-0.3-3-1.8-3.7-2.2z"/>
		<path id="Layer" class="s0" d="m182.4 258.7c-0.7-0.5-3.4-2-5.1-2.5-0.5-0.2-0.8-0.4-1.1-0.5-0.6-0.2-0.9-0.3-1.8-0.4-1.4-0.1-2.8 0.1-2.8 0.1l-0.1-0.3c0.1 0 1.5-0.2 2.9-0.1 1 0.1 1.3 0.3 1.9 0.5 0.3 0.1 0.6 0.2 1.1 0.4 1.7 0.5 4.5 2.1 5.2 2.6z"/>
		<path id="Layer" class="s0" d="m171.5 261.2c0-0.1-0.1-2.2 0.3-3.5 0.4-1.3 0.9-2 1.5-2.7l0.2 0.2c-0.5 0.7-1.1 1.3-1.5 2.6-0.4 1.3-0.3 3.4-0.3 3.4 0 0-0.2 0-0.2 0z"/>
		<path id="Layer" class="s0" d="m175.2 256.7l-0.3-0.1c0.1-0.6 0.2-0.9 0.3-1.1q0-0.1 0-0.2l0.3 0.1q0 0.1-0.1 0.2c0 0.2-0.1 0.5-0.2 1.1z"/>
		<path id="Layer" class="s0" d="m179.1 253.5c-1-1.1-2.6-2.3-3.8-2.7-1.3-0.5-2.1-0.7-2.1-0.7l0.1-0.3c0 0 0.8 0.2 2.1 0.7 1.3 0.5 2.9 1.7 4 2.8l-0.3 0.2z"/>
		<path id="Layer" class="s0" d="m181.1 255.3c-0.4-0.9-0.8-2.7 0.2-3.8 0.9-0.8 2.3-2.3 2.3-2.3l0.2 0.2c0 0-1.4 1.5-2.2 2.4-1 0.9-0.6 2.5-0.3 3.4z"/>
		<path id="Layer" class="s0" d="m177.8 249.5c-0.3-1.5 0-4.7 2.3-5.7l0.1 0.3c-2.3 0.9-2.4 4.2-2.1 5.3 0 0-0.3 0.1-0.3 0.1z"/>
		<path id="Layer" class="s0" d="m175.5 245.4c-0.6-1-2-3.6-4-4.5l0.1-0.2c2.1 0.9 3.6 3.5 4.1 4.6l-0.2 0.1z"/>
		<path id="Layer" class="s0" d="m177 234v-0.1c-0.2-0.5-0.4-1.3-0.2-2.3l0.3 0.1c-0.3 0.9 0 1.6 0.1 2.1l0.1 0.1-0.3 0.1z"/>
		<path id="Layer" class="s0" d="m175.1 223c0 0 2.1 1.5 2.4 3.7 0.3 2.2-0.6 5.2-0.6 5.2 0 0-1.7-2.3-2.1-4.1-0.4-1.7 0.3-4.8 0.3-4.8z"/>
		<path id="Layer" class="s0" d="m180.6 218.6c0 0-1.5 1.8-1.3 4.1 0.1 2.4 1.7 5.1 1.7 5.1 0 0 1.1-3.5 1-5-0.1-1.5-1.4-4.1-1.4-4.1z"/>
		<path id="Layer" class="s0" d="m179.6 231.9c0 0 1.1-1.5 2.2-1.6 1.1-0.1 3.1 1.1 3.1 1.1 0 0-1.6 1-2.4 1-0.8 0-2.9-0.5-2.9-0.5z"/>
		<path id="Layer" class="s0" d="m171.6 240.8c-0.2 0.4-0.7 0.5-1.2 0.2-0.4-0.2-0.7-0.7-0.5-1 0.2-0.4 0.7-0.5 1.2-0.3 0.4 0.3 0.7 0.8 0.5 1.1z"/>
		<path id="Layer" class="s0" d="m181.8 242.9c0.2 0.4 0 0.9-0.4 1.2-0.5 0.3-1 0.3-1.3 0-0.2-0.4 0-0.9 0.4-1.2 0.5-0.3 1.1-0.3 1.3 0z"/>
		<path id="Layer" class="s0" d="m172.3 250.6c-0.6 0-1.1-0.3-1.1-0.7 0-0.4 0.5-0.7 1.1-0.7 0.6 0 1.1 0.3 1.1 0.7 0 0.4-0.5 0.7-1.1 0.7z"/>
		<path id="Layer" class="s0" d="m185.7 248c0.2 0.3-0.2 0.9-0.7 1.2-0.6 0.3-1.3 0.3-1.5-0.1-0.2-0.3 0.1-0.9 0.7-1.2 0.6-0.3 1.3-0.3 1.5 0.1z"/>
		<path id="Layer" class="s0" d="m171.6 255.1c0 0-2.6-0.2-3.9 0.1-1.3 0.3-3.9 2.6-4.3 3.2 1 0.3 3.2 0.6 4.5 0.2 1.2-0.4 3.7-3.5 3.7-3.5z"/>
		<path id="Layer" class="s0" d="m171.5 260.9c0 0-1.2 2.4-1.1 4.2 0.2 1.8 1.5 4.5 2.6 5.2 0.4-1 0.9-3.4 0.7-4.8-0.2-1.3-2.2-4.6-2.2-4.6z"/>
		<path id="Layer" class="s0" d="m175.1 256.4c0 0-1 1.8-0.7 3.6 0.4 1.9 1.1 4.1 2.1 5.1 0.5-1.1 1.1-3.6 0.7-5.3-0.4-1.7-2.1-3.4-2.1-3.4z"/>
		<path id="Layer" class="s0" d="m190.4 218.5c-0.2 0.6-0.3 1.3-0.2 1.9 0 0.1 0.1 0.2 0.2 0.1 1.1-1.3 2.7-2.4 4.3-2.8l-0.1-0.2c-0.6 0.7-1.2 1.4-1.4 2.4-0.1 0.8 0.1 1.6 0.5 2.3 0.1 0.1 0.2 0 0.3-0.1 0.1-0.4 0.3-0.9 0.6-1.4 0.3-0.4 0.7-0.8 1.2-1.1 0.6-0.4 1.3-0.8 2.1-1.2l-0.2-0.2c-0.4 0.9-1 1.8-1.1 2.7 0 0.8 0.3 1.6 0.6 2.3 0 0.1 0.2 0.2 0.2 0.1 0.7-1.5 1.5-3.1 3.1-3.7l-0.1-0.2c-0.3 0.9-0.6 1.7-0.6 2.6 0.1 0.8 0.3 1.6 0.6 2.3 0.1 0.1 0.2 0.1 0.3 0 0.5-0.6 0.6-1.4 1.2-2 0.4-0.5 0.9-1 1.5-1.3l-0.2-0.1c-0.3 0.7-0.6 1.5-0.5 2.4 0.1 0.7 0.3 1.5 0.6 2.1 0 0.1 0.2 0.1 0.3 0 0.4-0.8 0.5-1.7 1.1-2.4 0.1-0.2-0.1-0.4-0.2-0.2-0.7 0.7-0.7 1.6-1.2 2.5h0.3c-0.3-0.7-0.6-1.4-0.6-2.2-0.1-0.7 0.2-1.5 0.5-2.2 0-0.1-0.1-0.2-0.2-0.2-0.6 0.3-1.1 0.7-1.5 1.2-0.7 0.7-0.8 1.6-1.4 2.3h0.3c-0.3-0.7-0.5-1.5-0.6-2.2-0.1-0.9 0.2-1.7 0.5-2.5 0-0.1-0.1-0.2-0.2-0.2-1.7 0.6-2.5 2.3-3.3 3.8h0.3c-0.3-0.6-0.5-1.4-0.5-2.1 0-0.9 0.6-1.8 1-2.7 0.1-0.1-0.1-0.2-0.2-0.2-0.8 0.4-1.6 0.9-2.3 1.4-0.9 0.7-1.3 1.5-1.7 2.5h0.2c-0.4-0.7-0.6-1.6-0.3-2.3 0.2-0.9 0.7-1.4 1.2-2.1 0.1-0.1-0.1-0.3-0.2-0.2-1.7 0.4-3.3 1.5-4.4 2.9h0.2c-0.1-0.6 0.1-1.2 0.3-1.7 0-0.2-0.2-0.3-0.3-0.1z"/>
		<path id="Layer" class="s0" d="m187.2 228.2q0 0.1 0 0.2c0.9-1.7 2.4-3.2 4.1-4l-0.1-0.7c-0.5 1-1 2-0.9 3.2 0.1 0.7 0.4 1.7 0.9 2.3 0.2 0.2 0.1 0.3 0.3 0.1 0.1-0.2 0.1-0.7 0.1-1 0.2-0.6 0.4-1 0.8-1.5 0.7-0.9 1.6-1.6 2.5-2.3l-0.2-0.7c-0.3 1.1-0.7 2.2-0.5 3.3 0.2 0.9 0.5 1.7 1 2.4 0.3 0.5 0.2 0.2 0.3-0.3q0.2-0.7 0.5-1.4c0.4-1 1-2.1 2-2.7l-0.1-0.7c-0.4 1.9 0 3.6 0.9 5.3 0.2 0.4 0.3 0.8 0.5 0.2 0.2-0.5 0.3-1.1 0.5-1.6 0.3-1.1 1.2-1.9 2.2-2.5l-0.2-0.7c-0.3 0.5-0.6 1-0.7 1.6 0 0.5 0.1 1.1 0.2 1.6q0.2 1.3 0.8 2.6c0.1-0.4 0.3-0.7 0.4-1.1 0.2-0.5 0.3-1 0.5-1.5 0.3-0.7 0.8-1.3 1.4-1.7 0.1-0.1-0.2-0.7-0.2-0.7-1.2 0.9-1.4 2.3-2 3.7-0.1 0.1-0.2 0.4-0.2 0.5-0.2 0.1 0 0.1-0.1-0.1-0.2-0.3-0.4-0.8-0.4-1.1-0.4-1.3-0.2-2 0.5-3.1 0-0.1-0.2-0.6-0.2-0.7-0.6 0.4-1.1 0.8-1.6 1.3-0.6 0.8-0.6 1.7-0.9 2.6-0.1 0.1-0.2 0.6-0.3 0.6 0 0-0.1-0.2-0.1-0.2-0.3-0.3-0.5-0.8-0.6-1.2-0.5-1-0.5-2-0.3-3.1 0.1-0.1-0.1-0.7-0.1-0.7-1.5 0.9-2.2 2.6-2.5 4.2 0 0-0.1 0.5-0.1 0.5-0.1 0-0.2-0.2-0.2-0.2-0.3-0.3-0.6-0.9-0.7-1.3-0.3-1 0.2-2.2 0.5-3.1 0-0.2-0.2-0.7-0.2-0.8-1.3 1-2.9 2.3-3.2 4-0.1 0.2-0.1 0.5-0.2 0.7-0.1 0.6 0.1 0.3-0.1 0.2-0.3-0.1-0.6-1-0.7-1.3-0.2-1 0.4-2.1 0.9-3 0-0.1-0.2-0.7-0.2-0.7-0.8 0.4-1.5 0.9-2.1 1.5q-0.6 0.6-1.2 1.3-0.2 0.3-0.4 0.6c-0.1 0.2-0.3 0.8-0.4 0.5 0 0.2 0 0.5 0.1 0.7z"/>
		<path id="Layer" class="s0" d="m189.1 240.4c0.5-0.9 1.1-1.9 1.9-2.6l-0.1-0.7c-0.2 1-0.3 1.8-0.1 2.8 0.2 0.8 0.6 1.5 1.3 1.9-0.1-1 0-1.8 0.5-2.8q0.5-0.9 1.2-1.7l-0.1-0.7c0 1-0.1 1.9 0.2 2.8 0.2 0.8 0.8 1.5 1.4 2 0-1.5 0-3.1 1.2-4.2l-0.2-0.6c0.1 0.7 0.2 1.3 0.4 1.9 0.2 0.9 0.7 1.5 1.2 2.2 0.1 0 0.2 0.2 0.3 0.3 0.2 0 0.1 0.1 0.2-0.2 0.1-0.3 0-0.8 0-1.2 0-0.8 0.4-1.7 1-2.3l-0.2-0.7c0.1 0.8 0.1 1.5 0.3 2.3 0.3 0.7 0.9 1.4 1.5 2v-0.1c0.1-0.6-0.1-1.2-0.1-1.8 0.1-0.6 0.3-1.2 0.7-1.7 0.1-0.1-0.2-0.6-0.2-0.7-0.8 1-0.6 2-0.5 3.2 0 0.3 0 0.4-0.2 0.2q-0.4-0.4-0.7-0.7c-0.2-0.3-0.5-0.7-0.6-1.1 0-0.3 0-0.6 0-0.9 0-0.1-0.2-0.7-0.1-0.7-0.5 0.4-0.8 1-1 1.6 0 0.2-0.1 2.1-0.1 2.1-0.1 0-0.4-0.3-0.5-0.4q-0.3-0.4-0.7-0.9-0.2-0.3-0.3-0.6c-0.1-0.1-0.2-0.6-0.1-0.2q-0.1-0.6-0.2-1.1c0-0.1-0.1-0.6-0.1-0.6-1 0.9-1.2 2.3-1.2 3.6 0 0.1 0 0.3 0 0.4 0 0.2 0 0.2-0.1 0.1-0.3-0.1-0.5-0.6-0.7-0.8-0.3-0.3-0.5-0.7-0.5-1.1q0-0.7 0-1.5c0-0.1-0.2-0.6-0.1-0.6-0.9 1-1.9 2.2-1.9 3.6q0 0.2 0.1 0.5c0 0.2 0.1 0.4-0.1 0.3-0.2 0-0.5-0.5-0.7-0.6-0.6-0.8-0.3-1.7-0.1-2.6 0-0.1-0.2-0.7-0.1-0.7-0.9 0.7-1.5 1.6-2 2.6-0.1 0.2 0.2 0.6 0.2 0.7z"/>
		<path id="Layer" class="s0" d="m186.7 234.5q0 0.1 0 0.2c0.8-1.5 2.1-2.9 3.7-3.6l-0.2-0.7c-0.4 0.9-0.9 1.8-0.7 2.8 0.1 0.8 0.3 1.7 0.8 2.2 0.2 0.2 0.1 0.2 0.2 0.1 0.1-0.2 0.1-0.7 0.1-0.9 0.2-0.5 0.4-0.9 0.7-1.4 0.6-0.8 1.4-1.4 2.2-2l-0.1-0.7c-0.3 1-0.6 1.9-0.5 3 0.2 0.8 0.5 1.5 0.9 2.2 0.3 0.4 0.2 0.2 0.3-0.3q0.2-0.6 0.4-1.2c0.4-1 0.9-1.9 1.8-2.4l-0.1-0.7c-0.3 1.7 0 3.2 0.8 4.7 0.1 0.1 0.2 0.3 0.3 0.4 0.1 0.2 0 0.2 0.2 0 0.2-0.5 0.2-1.1 0.4-1.6 0.3-0.9 1.1-1.7 2-2.2l-0.2-0.7c-0.5 0.9-0.7 1.5-0.5 2.5q0.2 1.1 0.8 2.1c0 0.1 0.2 0.4 0.3 0.5 0.1 0.1 0 0.1 0.1-0.2 0.1-0.3 0.1-0.7 0.1-1.1 0.2-1 0.7-1.8 1.5-2.4 0.1-0.1-0.2-0.7-0.1-0.7-0.5 0.3-0.9 0.8-1.2 1.3-0.3 0.7-0.2 1.5-0.4 2.2-0.1 0.4-0.1 0.2-0.3 0q-0.4-0.6-0.6-1.2c-0.4-0.9 0.1-1.5 0.5-2.3 0-0.1-0.2-0.7-0.2-0.7-0.5 0.3-1 0.7-1.4 1.2-0.6 0.7-0.6 1.5-0.9 2.4-0.1 0.3-0.1 0.4-0.3 0.2-0.3-0.3-0.5-0.9-0.6-1.2-0.4-0.9-0.3-1.6-0.1-2.5 0-0.1-0.2-0.7-0.2-0.7-1.3 0.8-1.9 2.3-2.2 3.7 0 0-0.1 0.5-0.1 0.5-0.1 0-0.2-0.2-0.2-0.2-0.3-0.3-0.5-0.9-0.6-1.2-0.2-0.8 0.2-1.9 0.4-2.7 0-0.1-0.2-0.7-0.1-0.7-1.2 0.9-2.6 2-2.9 3.5-0.1 0.2-0.1 0.4-0.2 0.6-0.1 0.6 0.1 0.3-0.1 0.2-0.2-0.1-0.6-0.9-0.6-1.1-0.2-0.9 0.4-1.9 0.8-2.6 0-0.1-0.2-0.7-0.2-0.8-0.7 0.4-1.3 0.8-1.9 1.4q-0.5 0.5-1 1.1-0.2 0.3-0.4 0.6c-0.1 0.2-0.3 0.7-0.4 0.4 0.1 0.1 0.1 0.4 0.2 0.6z"/>
		<path id="Layer" class="s0" d="m234.1 219.1c0.1 0.4 0.1 0.8 0 1.2-0.1 0.2 0 0.2-0.2 0.1-0.5-0.4-0.8-0.9-1.3-1.2-0.9-0.7-1.8-1.3-2.9-1.6 0 0 0.1 0.6 0.1 0.7 0.7 0.9 1.4 1.7 1.1 2.9-0.1 0.2-0.2 0.8-0.4 0.9-0.1 0.1-0.4-0.9-0.5-1-0.6-1.3-2.2-2.1-3.5-2.7 0.1 0 0.1 0.5 0.2 0.6q0.3 0.8 0.7 1.5c0.2 0.5 0.2 0.9 0 1.4 0 0.3-0.1 0.9-0.3 1.2-0.1 0.1 0 0.2-0.2 0 0-0.1-0.1-0.3-0.1-0.4-0.6-1.3-1.5-2.7-3-3.2 0.1 0 0.1 0.6 0.2 0.7 0.3 0.8 0.4 1.6 0.2 2.5q-0.1 0.6-0.3 1.2c-0.1 0-0.1 0.3-0.2 0.3-0.1 0.1 0.1 0.1-0.1 0-0.3-0.1-0.4-0.8-0.5-1.1q-0.3-0.5-0.6-1c-0.4-0.5-1-0.9-1.5-1.2 0 0 0.1 0.6 0.1 0.7 0.3 0.7 0.4 1.1 0.3 1.9-0.1 0.5-0.2 1.2-0.5 1.6-0.1 0.3 0 0.3-0.2 0.1-0.1-0.2-0.1-0.5-0.2-0.7-0.2-0.6-0.4-1.1-0.8-1.6 0.1 0.1 0 0.5 0.1 0.7 0.7 0.7 0.7 1.6 1.2 2.5 0.3-0.9 0.7-1.8 0.6-2.8-0.1-0.8-0.3-1.6-0.6-2.4l0.1 0.7c0.9 0.4 1.7 1.2 2.1 2.1 0.1 0.4 0.2 0.8 0.5 1.1 0.2 0.3 0.1 0.2 0.2 0.1 0.1-0.2 0.2-0.4 0.2-0.6 0.5-1.6 0.4-3.2-0.3-4.8l0.2 0.7c1.6 0.6 2.4 2.3 3.1 3.7 0.4-0.7 0.7-1.6 0.5-2.5-0.1-1.1-0.6-2-1.1-3l0.2 0.7c0.7 0.3 1.5 0.8 2.2 1.3 0.9 0.7 1.3 1.4 1.7 2.5 0.4-0.8 0.6-1.7 0.4-2.5-0.2-1.1-0.7-1.9-1.4-2.8l0.2 0.7c1.4 0.4 2.8 1.3 3.9 2.4 0 0.1 0.4 0.6 0.4 0.6 0 0 0.1-0.2 0.1-0.2 0.1-0.2 0.1-0.8 0.1-1-0.1-0.6-0.2-1.1-0.4-1.6 0.1 0.1 0.1 0.4 0.2 0.7z"/>
		<path id="Layer" class="s0" d="m236.3 227.8c-1.1-1.3-2.2-2.6-3.7-3.3 0.1 0 0.1 0.6 0.1 0.7 0.5 0.9 1 1.7 0.7 2.8-0.2 0.6-0.5 1.1-0.9 1.6l0.1 0.6c-0.1-1-0.2-2-0.8-2.9-0.7-1.1-1.7-1.9-2.7-2.7 0 0 0.1 0.4 0.1 0.5 0.3 1.3 0.6 2.4 0 3.7-0.1 0.2-0.4 1-0.7 1.1 0 0-0.1-0.5-0.2-0.7-0.3-1.5-1-3.1-2.4-4 0 0 0 0.2 0 0.1 0.2 1.3 0.2 2.4-0.3 3.5-0.2 0.4-0.4 1.1-0.8 1.4 0 0 0 0.1-0.1 0.2-0.1 0-0.2-0.7-0.2-0.8-0.4-1.6-1.1-2.9-2.5-3.7 0 0 0.1 0.6 0.1 0.7q0.2 0.4 0.4 0.8c0.1 0.1 0.2 0.4 0.1 0.3 0.2 0.5-0.1 1.2-0.2 1.7q-0.2 0.6-0.4 1.2c-0.2 0.5-0.2 0.3-0.4-0.2-0.3-0.7-0.4-1.5-0.8-2.2-0.3-0.7-0.8-1.2-1.4-1.7 0.1 0.1 0 0.6 0.1 0.7 0.7 0.6 1.4 1.3 1.6 2.2 0.3 0.7 0.6 1.5 0.8 2.2 0.5-1 0.9-2.1 0.9-3.3-0.1-0.9-0.5-1.6-0.8-2.4l0.1 0.7c0.9 0.5 1.8 1.3 2.1 2.3 0.3 0.7 0.3 1.5 0.6 2.2 0.5-0.8 1-1.6 1.2-2.4 0.1-0.4 0.2-0.9 0.2-1.4 0-0.3-0.2-0.8-0.1-1.1 0-0.4-0.1-0.2 0-0.2 0.1 0 0.3 0.2 0.4 0.3q0.6 0.5 1.1 1.2c0.5 1 0.7 2 1 3.1 0-0.1 0 0.1 0 0.1 0.6-0.9 1.2-1.8 1.1-2.9 0-1-0.4-2-0.6-3l0.1 0.5c1.5 1.1 3 2.4 3.2 4.3 0 0.1 0.2 0.6 0.2 0.7 1.6-1.8 0.9-3.9 0-5.8l0.1 0.7c1.5 0.8 2.6 2 3.7 3.3-0.1-0.2 0-0.6-0.2-0.7z"/>
		<path id="Layer" class="s0" d="m234.2 240.3c-0.5-1-1.1-1.9-1.9-2.6 0 0 0 0.3 0 0.4 0.3 1.4 0.2 2.7-1.1 3.6l0.1 0.7c0.1-0.9 0.1-1.8-0.2-2.6-0.4-1-1-1.9-1.6-2.7 0 0.9 0.1 1.9-0.3 2.7-0.3 0.5-0.7 1-1.2 1.5l0.1 0.6c0-1.6 0-3.6-1.3-4.9v0.1c0 1.5-0.7 2.7-1.9 3.8l0.1 0.4c-0.1-0.5 0.1-1 0-1.5q0-0.5-0.2-0.9c-0.1-0.7-0.4-1.3-0.9-1.8v0.1c-0.1 0.7 0 1.4-0.4 2.1-0.4 0.5-0.8 1-1.3 1.4l0.2 0.6c-0.1-0.8 0.2-1.6 0-2.5-0.2-0.6-0.4-1.3-0.8-1.9 0.1 0.2 0 0.6 0.1 0.8 0.4 0.4 0.6 0.9 0.6 1.5 0 0.5-0.1 1-0.1 1.5 0 0.1 0.2 0.6 0.1 0.7 0.9-0.8 1.7-1.7 1.7-2.9 0-0.1 0-0.6 0-0.6 0 0 0.1 0.1 0.1 0.1 0.3 0.1 0.6 0.7 0.7 1 0.1 0.4 0 0.8 0 1.2q0 0.5 0.2 0.9c0 0.1 0.1 0.5 0.1 0.5 0.9-0.9 1.8-2 1.9-3.4 0-0.4-0.1-0.6 0.2-0.2q0.4 0.5 0.6 1.1c0.3 0.7 0.2 1.5 0.2 2.2 0 0.1 0.2 0.6 0.1 0.7 0.5-0.4 0.9-0.9 1.2-1.4 0.3-0.6 0.3-1.4 0.3-2 0-0.1 0-0.8 0-0.8 0 0 0.1 0.2 0.2 0.2 0.2 0.3 0.4 0.7 0.6 1q0.5 0.6 0.7 1.3c0.2 0.5 0.1 0.9 0.1 1.4 0 0.1 0.1 0.7 0.1 0.7 0.7-0.5 1.2-1.2 1.3-2 0.1-0.8-0.1-1.5-0.3-2.3l0.1 0.3c0.8 0.7 1.4 1.6 1.9 2.6-0.1-0.1-0.1-0.5-0.2-0.7z"/>
		<path id="Layer" class="s0" d="m236 233.1c-0.9-0.8-1.6-1.6-2.7-2.1 0.1 0 0.1 0.5 0.2 0.6 0.4 0.9 0.8 1.6 0.5 2.5-0.2 0.5-0.5 1-0.8 1.4l0.1 0.7c-0.1-0.9-0.2-1.9-0.7-2.7-0.6-1-1.5-1.7-2.4-2.5 0 0.1 0 0.5 0.1 0.6 0.2 1.1 0.5 2 0 3.1-0.1 0.3-0.4 0.9-0.6 1-0.1 0.1 0 0.1-0.1 0-0.1-0.1-0.1-0.3-0.1-0.5-0.3-1.3-0.9-2.8-2.2-3.6q0 0 0 0.1c0.2 1.1 0.2 2.1-0.2 3.1q-0.3 0.6-0.7 1.1c0 0.1-0.1 0.3-0.1 0.3-0.1 0-0.2-0.5-0.3-0.6-0.3-1.5-0.9-2.6-2.2-3.4 0.1 0.1 0.1 0.6 0.1 0.7q0.2 0.4 0.4 0.8 0.1 0.1 0.1 0.2 0-0.3 0 0.1c-0.1 0.6-0.2 1-0.5 1.6-0.1 0.3-0.3 0.7-0.6 1-0.1 0.1 0 0.1 0 0-0.1-0.1 0-0.3-0.1-0.5-0.1-1.3-0.6-2.5-1.7-3.3 0.1 0.1 0 0.6 0.1 0.7 0.8 0.5 1.4 1.3 1.5 2.2 0.1 0.6 0.1 1.1 0.3 1.6q0 0.1 0 0.1c0.6-0.8 1.1-1.7 1.1-2.7 0.1-0.9-0.3-1.7-0.7-2.5l0.1 0.7c0.8 0.5 1.5 1.1 1.9 2 0.3 0.6 0.3 1.3 0.6 2 0.4-0.6 0.8-1.3 1-2q0.2-0.6 0.2-1.2c0-0.3-0.2-1-0.1-1.3 0-0.1 0 0 0.1 0 0.2 0.1 0.3 0.2 0.4 0.3q0.6 0.6 0.9 1.3c0.4 0.8 0.6 1.6 0.8 2.4 0 0 0.1 0.1 0.1 0.1 0.5-0.7 1-1.5 0.9-2.5 0-0.9-0.3-1.9-0.5-2.8l0.1 0.5c1.3 1 2.6 2.2 2.9 3.8 0 0.1 0.1 0.7 0.1 0.7 1.5-1.6 0.8-3.5 0-5.2l0.1 0.7c1.1 0.5 1.8 1.3 2.7 2.1-0.2-0.1 0-0.6-0.2-0.7z"/>
		<path id="Layer" class="s0" d="m197.3 216.3c0.5-1.9 1-4 1-6 0-1.8-0.3-3.6-0.6-5.4-0.3-2.7-1-5.4-0.9-8.1 0.1-2.3 0.5-4.7 1-7q0.4-2.1 0.9-4.2c0 0.2-0.8 0.1-0.8 0.3-0.9 3.3-1.6 6.8-1.9 10.3-0.3 4.7 1.3 9.3 1.5 14 0.1 2.1-0.5 4.4-1.1 6.3 0.1-0.1 0.8-0.1 0.9-0.2z"/>
		<path id="Layer" class="s0" d="m197.8 185.3c-1.2 1.7-2.6 3.3-4.3 4.5-1.2 0.8-2.7 1.6-4.2 1.1-1.9-0.7-2.4-2.7-2.1-4.5 0.7-4.7 3.8-8.7 4.9-13.2 0.8-3.5 0.3-7.2-2.3-9.8-3.6-3.4-8.8-2.6-13.1-1.2-6 2-11.5 5.8-15.5 10.7-5.6 6.8-8 15.5-9.3 24.1-1.4 8.6-1.6 17.5-0.9 26.2 0.2 3 0.5 6 1.1 9 0.6 2.9 1.3 5.8 2.2 8.6 1.7 5.9 3.7 11.8 5.9 17.5q0.5 1.2 1 2.4c0.2 0.4 0.4 1 0.9 1.3 0.5 0.3 0.7 0.2 0.7-0.4 0-0.8-0.3-1.7-0.4-2.6q-1.4-8.2-2.8-16.5-0.1-0.7-0.2-1.3l-0.3 0.3c1.7 0.1 3.7-0.2 4.4-1.9 0.4-1.2 0.7-2.5 0.9-3.8 0.1-0.3 0.4-1.1 0.3-1.4-0.1-0.2 0.3-0.2-0.2 0 0 0 0.1 0 0.2 0 0.8 0.1 1.8-0.5 2.4-1 1.2-0.8 2.1-2 2.7-3.4 0.8-1.8 1-4 0.9-6.1l-0.6 0.2c1.9 0.9 3.8-0.3 4.7-1.9 0.9-1.7 1.2-3.7 1.2-5.5l-1.1-0.6c0 1.1 1 2 2.1 1.4 1.6-0.9 2.9-3.3 3.3-5.1l-1.2-0.7c0 1.4 1.6 2.2 2.8 2.5 1.7 0.3 3.9-0.1 5.2-1.3l-1.1-0.9c-0.6 1.4-0.2 3.1 1 4.1 1.3 1.1 3.1 1.1 4.6 0.5l-0.8-0.5q0.4 0.5 0.7 1c0.4 0.6 1.4 0.5 0.8-0.3q-0.3-0.5-0.7-0.9c-0.2-0.2-0.6-0.6-0.9-0.4-0.8 0.3-2 0.6-2.9 0.2-1.2-0.5-1.1-2-0.7-2.9 0.2-0.4-0.7-1.3-1-0.9-0.8 0.7-2 1.1-3.1 1.2-0.6 0.1-2.7 0.1-2.7-0.8 0-0.4-1.1-1.3-1.2-0.7-0.2 1-0.7 2-1.3 2.9q-0.4 0.7-0.9 1.2c-0.2 0.2-0.9 0.6-1 0.9q-0.5 0.1 0.2 0.4 0-0.1 0-0.1c0-0.1-0.1-0.2-0.1-0.2 0-0.5-1.1-1.3-1.1-0.6 0 1.4-0.3 3-0.8 4.3-0.6 1.6-2.3 3.6-4 2.8-0.2-0.1-0.6-0.1-0.6 0.2 0.2 1.9-0.1 4-0.9 5.8-0.7 1.8-2.6 4.2-4.8 4.1-0.1 0-0.2 0-0.2 0.1-0.3 1.8-0.6 3.6-1.2 5.3-0.7 1.6-2.4 1.8-3.9 1.7-0.2-0.1-0.3 0.1-0.3 0.2q1.2 6.7 2.3 13.3 0.6 3.5 1.1 7c0.1 0.2 0.1 0.3 0.1 0.2 0 0 0.9 0.1 0.9 0.4 0-0.1-0.2-0.2-0.2-0.3q-0.4-1-0.8-1.9c-2.2-5.4-4.1-11-5.7-16.5-1.7-5.6-3-11.1-3.6-17-0.7-8.2-0.7-16.7 0.3-24.9 1-8.3 3-17.9 8.2-25.1 3.7-5.3 9-9.4 15-11.8 3.7-1.5 9.5-3.3 13.1-0.3 3.1 2.6 2.7 7.3 1.4 10.8-0.9 2.2-2 4.4-2.9 6.6-0.7 1.8-1.4 3.6-1.4 5.5-0.1 2.8 2.2 5.8 5.3 5.6 2.6-0.2 4.8-2.5 6.4-4.4q0.6-0.8 1.1-1.5c0.3-0.5-0.7-1.4-1-1z"/>
		<path id="Layer" class="s0" d="m188.2 190.6c-1.2-0.2-2.3-1-2.8-2.2-0.4-0.9-0.4-2-0.2-3 0.5-2.6 1.7-5 2.8-7.3 1-2.4 1.9-4.6 1.9-7.1 0-1.9-0.6-3.8-1.9-5.2-1.9-2-4.5-2.4-7.1-2.1-2.9 0.4-5.7 1.6-8.3 3-3.3 1.9-6.3 4.3-8.9 7.2-3.1 3.5-5.3 7.6-6.9 12-3.4 9.6-4.1 20-3.7 30.2 0.2 3.6 0.5 7.3 1.1 10.9 0.9 4.9 2.4 9.8 3.9 14.5q0.6 1.9 1.3 3.7c0 0.2 0.3 0.1 0.2-0.1-1.7-4.9-3.3-9.9-4.4-15-0.9-3.5-1.3-7.2-1.6-10.8-0.7-9.8-0.3-19.9 2.3-29.4 1.2-4.7 3.1-9.3 6-13.2 2.4-3.3 5.3-6.2 8.7-8.5 2.7-1.7 5.6-3.1 8.7-3.9 2.4-0.5 4.9-0.8 7.1 0.6 1.6 1 2.7 2.7 3.1 4.6 0.4 2.5-0.3 4.9-1.2 7.1-1 2.5-2.3 4.9-3.1 7.4-0.5 1.7-0.8 3.7 0.4 5.3 0.6 0.8 1.5 1.4 2.6 1.6 0.1 0 0.2-0.3 0-0.3z"/>
		<path id="Layer" class="s0" d="m187.4 178.4c-1.1-1.6-1.5-3.8-1.5-5.8 0.1-1.4 0.5-2.8 0.4-4.3-0.1-0.8-0.3-2.2-1.3-2.5-0.6-0.2-1.6 0.1-1.9 0.7-0.4 0.9-0.1 2-0.4 2.8-0.2 0.8-0.7 1-1.4 1.1-1 0.1-2.1 0.1-3.1 0-2.2-0.2-4.4-0.6-6.6-0.5-1.5 0.1-3 0.8-2.6 2.6 0.2 0.7 0.7 1.1 1.4 1.5 0.7 0.5 3 1.3 2.5 2.4-0.2 0.7-0.9 1-1.5 1.4-0.9 0.5-1.9 1-2.9 1.4-2.7 1.4-5.3 2.9-7.4 5.1-2.5 2.5-4.6 5.4-6.3 8.4-0.1 0.2 0.2 0.6 0.2 0.7 2.9-5.2 6.8-9.8 12.1-12.7 1.1-0.5 2.2-1.1 3.3-1.6 0.8-0.4 1.6-0.8 2.3-1.4 0.9-0.9 0.6-2.4-0.4-3.1-1-0.7-2.6-1.2-3.3-2.4 0.1 0.2-0.1 0.4 0.1 0.1 0.1-0.1 0.1-0.3 0.1-0.5 0.2-0.2 0.3-0.4 0.5-0.6 0.3-0.3 0.6-0.4 0.9-0.5 2.1-0.5 4.5 0 6.6 0.3q1.6 0.1 3.1 0.1c0.7 0 1.8 0.1 2.3-0.5 1.2-1.3-0.4-3.9 2.1-4.1 0.8-0.1 1.3 0.4 1.4 1.3 0.2 1.6-0.4 3.3-0.3 5 0.1 2.1 0.6 4.5 1.7 6.3-0.1-0.2 0-0.5-0.1-0.7z"/>
		<path id="Layer" class="s0" d="m153.4 224.2c1.9-0.6 3.7-3 4.6-4.7l-1.8 1.8c1.8 4.6 6.4-2.2 6.8-4.1l-1.8 1.9c0.4 2.2 4.1-1.3 4.7-2 1.8-1.9 2.9-4 3.7-6.5l-1.8 1.9c0.1 2.7 3.7 0 4.5-0.7 1.6-1.7 2.5-3.6 3.1-5.8l-1.8 1.8c3.3 1.5 5.8-4.2 6.4-6.4l-1.8 1.9c4.3 3.7 8.3-0.7 10.8-4.1l-1.8 1.8c0.8 2.4 2.6 5.4 5.3 3.5 0.8-0.6 1.6-1.6 2.3-2.4l-1.8 1.8c0.3 0.8 1.7 3.8 3 3.4 0.3-0.1 1.8-1.6 1.8-1.9l-0.1-0.1c0.1 0.5-1.9 1.3-1.8 1.9l0.1 0.1 1.8-1.9c-1.3 0.5-2.7-2.5-3-3.4 0 0.1-1.6 1.6-1.8 1.8-0.2 0.4-2.7-2-2.9-2.2-0.5-0.8-0.8-1.6-1.1-2.4 0 0.1-1.6 1.5-1.8 1.8-1.9 2.6-4.9 2.4-7.2 0.4 0 0-1.7 1.6-1.8 1.9-0.2 0.8-0.5 1.8-0.9 2.6-0.9 1.4 0.6 0-0.6 0.2-0.4 0-0.9 0-1.3-0.1-0.1-0.1-1.7 1.6-1.8 1.8-0.2 0.9-0.8 3.4-1.5 3.8-0.6 0.4-2.5 0-2.5-1 0 0.5-1.7 1.3-1.8 1.9-0.4 1.4-1 3.2-1.9 4.2-0.5 0.5-2.6 2-2.9 0.5 0.1 0.3-1.7 1.3-1.8 1.8 0 0.3-0.1 0.6-0.2 0.8q-0.1 0.5-0.4 1-0.5 1.2-0.2 0c-1 0-2-0.4-2.4-1.4 0.1 0.1-1.6 1.6-1.7 1.8-0.3 0.5-0.4 0.9-1.1 1.1-0.7 0.2-1.1 1.6-1.8 1.8z"/>
		<path id="Layer" class="s0" d="m158.9 240.9c-0.1-2.7-0.4-5.4-0.6-8.2-0.4-4.2-0.7-8.4-1-12.6-0.2-3.6-0.4-7.3-0.1-11 0.4-4.5 1.1-9 1.8-13.4q0.6-3.5 1.3-6.8c0.3-1.4 0.5-2.9 1-4.2 0.1-0.2-0.2-0.2-0.3-0.1-0.4 1.2-0.6 2.4-0.9 3.6q-0.6 2.9-1.1 5.9c-0.8 4.4-1.5 8.9-1.9 13.5-0.4 3.6-0.3 7.2-0.1 10.8 0.2 4.3 0.5 8.6 0.9 12.9 0.2 3.2 0.6 6.4 0.7 9.6 0 0.2 0.3 0.2 0.3 0z"/>
		<path id="Layer" class="s0" d="m164.3 233.8c-1.1-6.7-2-13.5-2.3-20.3-0.1-4.6-0.1-9.2 0.8-13.7 0.7-4.2 1.5-8.4 2.3-12.6 0.4-2.2 0.9-4.4 1.7-6.5 0-0.2-0.2-0.3-0.3-0.1-0.7 1.8-1.1 3.7-1.5 5.6-0.8 3.9-1.5 7.8-2.2 11.7-0.4 2.3-0.8 4.7-1 7-0.1 2.4-0.2 4.6-0.1 6.9 0.1 4.4 0.4 8.8 1 13.2 0.3 3 0.8 5.9 1.3 8.9 0 0.1 0.3 0.1 0.3-0.1z"/>
		<path id="Layer" class="s0" d="m170.2 223.6c-0.6-2.5-0.8-5.1-1-7.7-0.4-4-0.6-8-0.4-12.1 0-2.1 0.2-4.1 0.5-6.2 0.4-2.3 0.8-4.5 1.3-6.8q1.4-6.4 3.1-12.7c0.6-2.6 1.4-5.2 2.3-7.7l-0.3-0.1q0 0 0 0.1c-0.1 0.1 0.2 0.2 0.3 0q0 0 0 0c0-0.2-0.2-0.3-0.3-0.1-2.1 6.2-3.7 12.6-5.1 19-0.9 4.3-1.8 8.6-2.1 13-0.2 4.2-0.1 8.3 0.3 12.5 0.2 2.9 0.4 6 1.1 8.9 0.1 0.2 0.4 0.1 0.3-0.1z"/>
		<path id="Layer" class="s0" d="m175.6 216.4c-0.5-3-0.8-5.9-0.9-8.8-0.2-4-0.1-8.1 0.3-12 0.4-3.6 1.2-7.2 2-10.8q1.2-4.6 2.5-9.2 0.7-2.4 1.5-4.8c0-0.2-0.3-0.2-0.3 0q-2.1 6.4-3.7 13c-0.9 3.4-1.7 6.9-2.1 10.5-0.6 4-0.7 8-0.6 12.1 0.2 3.3 0.4 6.7 1 10 0 0.2 0.3 0.1 0.3 0z"/>
		<path id="Layer" class="s0" d="m179.8 212c-0.1-2.2-0.4-4.3-0.5-6.5-0.1-3.8 0-7.7 0.5-11.4 0.4-3.4 1.2-6.7 2.1-10q1.2-4.5 2.8-9 0.8-2.3 1.6-4.6c0.1-0.2-0.2-0.3-0.3-0.1-1.5 4.1-2.9 8.3-4.1 12.5-0.9 3.3-1.8 6.7-2.3 10.1-0.5 3.7-0.7 7.5-0.6 11.3 0.1 2.6 0.3 5.1 0.5 7.7 0 0.2 0.3 0.2 0.3 0z"/>
		<path id="Layer" class="s0" d="m186.7 212.4c0.6-3.1 0.9-6.3 1.2-9.5 0.3-3.2 0.6-6.3 0.7-9.4q0-1.3 0-2.6c0-0.2-0.3-0.2-0.3 0 0 5.5-0.5 10.9-1.1 16.3q-0.3 2.6-0.8 5.1c0 0.2 0.3 0.3 0.3 0.1z"/>
		<path id="Layer" class="s0" d="m192.8 191.2c0.3 1.7 0.4 3.3 0.6 5 0.1 2 0.3 4.1 0.4 6.1 0 1.3-0.3 2.7-0.6 4q-0.6 3-1.3 6-0.4 1.8-0.9 3.7c0 0.2 0.3 0.2 0.3 0q1.1-4.5 2.1-9c0.2-1.4 0.6-2.8 0.6-4.2 0.1-2-0.1-3.9-0.3-5.9-0.2-1.9-0.3-3.9-0.6-5.8 0-0.2-0.3-0.1-0.3 0.1z"/>
		<path id="Layer" class="s0" d="m230 215.2c-0.6-1.8-0.9-3.7-0.9-5.6 0.1-1.6 0.5-3.3 0.8-4.8 0.5-2.7 1.3-5.4 1.5-8.1 0.2-2.4 0.1-4.7 0-7.1q-0.2-2.2-0.4-4.4l-1.1-0.7c0.7 1.3 1.5 2.5 2.5 3.6 1.2 1.5 3.1 3.1 5.1 3.1 2.7 0 4.3-2.6 4.2-5 0-3.2-1.7-6.4-2.8-9.4-1.2-3.4-2.4-7-1-10.5 1-2.4 3.1-4.2 5.7-4.7 3.3-0.6 6.9 0.7 9.9 2 4.8 2.1 9 5.4 12.3 9.6 4.3 5.6 6.3 12.3 7.5 19.2 1.3 7.5 1.5 15.1 1.1 22.7-0.3 5.7-0.9 11.4-2.1 17-1.2 5.4-3.4 10.7-5.5 15.9q-2.5 5.9-5.2 11.7-0.1 0.3-0.3 0.6l1.1 0.9q1.9-8.4 3.7-16.8 0.2-1.2 0.5-2.4c0-0.3-0.8-0.9-1.1-0.9q-0.6 0.1-1.2 0c-0.4-0.1-0.9-0.2-1.3-0.4-0.5-0.3-0.6-1-0.7-1.6-0.3-1.5-0.5-3-0.7-4.4 0-0.4-0.7-0.9-1.1-0.9-2.2 0-3.6-2.8-4.1-4.7-0.3-1.6-0.4-3.3-0.2-4.9 0-0.3-0.8-1-1.1-0.9-3.4 1.4-4-4.5-3.9-6.7 0-0.3-1.1-1-1.1-0.8 0 0.2 0 0.4-0.2 0.5-0.5 0.6-1.2-0.9-1.5-1.3-0.5-0.9-1-1.9-1.1-3-0.1-0.3-1.1-1-1.2-0.8 0 0.9-1.2 1.3-1.9 1.4-1 0.2-2 0.1-3-0.3q-0.5-0.2-0.9-0.5c-0.1-0.1-0.3-0.3-0.1-0.1-0.1 0-1.1-0.8-0.9-0.4 0.4 1.1 0.2 2.5-0.8 3.3-1.1 0.8-2.7 0.6-3.8 0 0 0-0.2-0.1-0.2-0.1q-0.8 1-1.6 2c-0.1 0.3 1 1.1 1.1 1q0.8-1 1.6-2l-0.3-0.1c1.2 0.6 2.8 1 4 0.3 1.3-0.8 1.5-2.5 1-3.8l-0.9-0.4c1.1 1.2 2.6 1.9 4.2 2.1 1.1 0.1 3.5 0 3.7-1.6l-1.2-0.8c0.3 1.9 1.5 3.9 2.9 5.3 0.6 0.5 2.1 1.7 2.2 0.1l-1.1-0.8c-0.1 2 0.2 4.3 1.3 6.1 0.9 1.5 2.9 3.1 4.8 2.3l-1.1-0.9c-0.3 2.5-0.1 5.3 1.2 7.4 1 1.7 3.1 4 5.2 4l-1-0.9q0.1 1.4 0.3 2.7c0.2 1.2 0.4 2.7 1.1 3.7 1 1.4 2.9 2 4.6 1.9l-1-0.9q-1.9 8.3-3.7 16.7-0.2 1.2-0.5 2.5c0 0.2 1 1 1.1 0.8 3.8-8 7.5-16.3 10-24.8 1.5-5 2.2-10.2 2.7-15.4 0.7-7.3 0.8-14.6 0.1-22-0.7-7-2-14.5-5.5-20.8-2.6-4.8-6.4-9-10.9-12.1-5.3-3.7-17.4-9.8-21.6-1.5-3.4 6.5 2.3 13.2 3.3 19.5 0.4 2.6-0.6 5.8-3.7 6.1-2.3 0.2-4-2-5.1-3.8q-0.4-0.6-0.7-1.3c-0.1-0.1-1.2-0.9-1.1-0.7 0.4 3.5 0.6 7.1 0.4 10.6-0.2 4.5-2 8.9-2.3 13.5-0.1 1.9 0.3 3.9 0.8 5.8 0.1 0.3 0.4 0.5 0.6 0.7 0.1 0 0.6 0.3 0.5 0.1z"/>
		<path id="Layer" class="s0" d="m239.1 190.8c1.9-0.2 3.4-1.8 3.6-3.7 0.3-2.1-0.6-4.4-1.3-6.4-1.6-4.2-4.3-9.4-1.4-13.8 3.5-5.1 10.9-2.3 15.2 0.1 7.4 4.1 12.5 11.1 14.9 19.1 2.9 10 3.3 20.9 2.4 31.3-0.4 3.7-0.8 7.5-1.7 11.2-1.1 4.8-2.8 9.6-4.6 14.2q-0.7 1.8-1.4 3.6c-0.1 0.2 0.2 0.3 0.2 0.1 2.1-4.9 3.9-10 5.4-15.1 1-3.6 1.6-7.3 2-11 1.2-10.2 1.2-20.8-1.1-30.8-1.1-4.8-2.8-9.3-5.5-13.3-2.2-3.2-5-6-8.1-8.1-2.6-1.7-5.4-3.1-8.4-3.9-2.2-0.6-4.6-0.8-6.7 0.1-3.9 1.8-4.7 6.4-3.8 10.2 0.7 2.6 1.9 5.1 2.8 7.6 0.6 1.9 1.4 4.4 0.4 6.3-0.6 1.1-1.7 1.9-2.9 2-0.2 0-0.2 0.3 0 0.3z"/>
		<path id="Layer" class="s0" d="m240.6 179c1.5-2.1 1.5-5.5 1.7-8 0-1.1-0.1-4.7 1.8-4.4 0.4 0 0.9 0.2 1.2 0.5 0.3 0.4 0.1 0.9 0.1 1.4q0 0.9 0.3 1.7c0.4 1.6 2.8 1.3 4.1 1.3 2.3 0 4.5-0.3 6.8-0.1 0.7 0 1.7 0.1 2.2 0.7 1 1.1-0.6 1.9-1.4 2.3-0.8 0.5-2.4 0.9-2.6 1.9-0.1 0.5 0.1 1 0.2 1.4 0.5 1.5 2.7 2.2 3.9 2.9 2.7 1.5 5.2 3.1 7.3 5.4 2.5 2.7 4.5 5.8 6.1 9 0-0.1 0-0.4-0.1-0.6-2.6-5.3-6.2-10.1-11.3-13.2-1.7-1.1-3.9-1.9-5.4-3.3-0.2-0.2-0.5-0.4-0.5-0.7-0.1-0.5 0.5-1 0.9-1.2 1-0.6 2.5-1 3.2-1.9 0.7-1-0.1-2.7-1.1-3.1-1.8-0.8-4.4-0.4-6.3-0.3-1 0.1-2 0.1-3.1 0.1-0.7-0.1-2.1 0.1-2.7-0.5-0.9-0.9 0.1-2.8-0.7-3.9-0.5-0.5-1.5-0.8-2.1-0.3-0.7 0.6-0.7 1.8-0.8 2.6-0.3 1.8-0.3 3.6-0.5 5.4-0.2 1.5-0.5 3-1.4 4.2-0.1 0.2 0.2 0.6 0.2 0.7z"/>
		<path id="Layer" class="s0" d="m272.2 223.5c-1.2-0.4-2.1-1.4-2.7-2.6 0 0.1-1.7 1.6-1.8 1.9 0.5-1.2-0.1-0.2-1-0.8-0.6-0.4-0.9-0.5-1.3-1.2-0.5-0.6-0.7-1.6-0.8-2.4 0 0.4-1.7 1.4-1.8 1.9q0 0.1-0.2 0.3l1.8-1.8c-2.7 2.2-5.6-5.7-6-7.3 0.1 0.4-1.8 1.4-1.8 1.9q0 0.2-0.1 0.4l1.6-1.8c-3.5 3.2-4.3-4.4-5.3-5.4-0.7-0.6-2.1 0.1-3-1.1-0.8-0.9-1.1-2.6-1.4-3.7-3.7 2.8-6.7 0.4-8.8-2.8 0 0.1-1.7 1.6-1.8 1.9-0.9 2.3-2.7 2.9-4.1 0.7 0 0-1.7 1.6-1.8 1.9-0.5 0.9-0.9 1.9-2.1 1.4-0.4-0.2-1.6 1.9-1.8 1.8 2 0.9 5-3.8 5.7-5.1l-1.8 1.8c2.6 4.1 6.7-1.9 7.7-4.4l-1.8 1.9c0.8 1.2 1.9 2.8 3.2 3.5 1 0.5 1.8 0.7 2.9 0.5 0.3-0.1 2.2-1.2 2.6-1.2 0.6 0.2 0.9 2.7 1.3 3.3 1 1.6 2.3 0.8 3.2 1.5 0.7 0.6 0.9 3.3 1.5 4.2 0.9 1.2 2.1 2.1 3.7 1.3 0.6-0.3 2.1-1.7 2.2-2.5l-1.8 1.9c0.5 2.1 2.6 8.4 5.8 7.4 0.6-0.2 2-1.7 2.2-2.4l-1.8 1.9c0.4 2.4 1.9 4.8 4.4 3.1 0.8-0.5 1.8-1.6 2.2-2.5l-1.8 1.9c0.7 1.1 1.5 2.1 2.8 2.5 0.4 0.2 1.5-1.9 1.8-1.8z"/>
		<path id="Layer" class="s0" d="m266 242.3c0.3-2.8 0.7-5.6 1.1-8.4 0.6-4.1 1.1-8.3 1.6-12.5 0.4-3.6 0.7-7.2 0.7-10.9-0.2-4.5-0.6-9.1-1.1-13.6q-0.4-3.4-0.9-6.8c-0.2-1.4-0.4-2.8-0.8-4.1-0.1-0.2-0.4-0.1-0.3 0 0.3 1.2 0.5 2.4 0.7 3.6q0.5 2.9 0.8 5.9c0.6 4.5 1 9.1 1.2 13.7 0.2 3.6-0.1 7.2-0.5 10.8-0.4 4.3-0.9 8.5-1.5 12.8-0.5 3.1-1 6.3-1.3 9.5 0 0.1 0.3 0.1 0.3 0z"/>
		<path id="Layer" class="s0" d="m261 234.9c1.5-6.6 2.7-13.3 3.3-20.2 0.4-4.5 0.6-9.1 0-13.6-0.5-4.3-1-8.6-1.6-12.8-0.4-2.3-0.7-4.5-1.4-6.7 0-0.1-0.3-0.1-0.3 0.1 0.6 1.8 0.9 3.7 1.2 5.6 0.6 3.9 1.1 7.8 1.6 11.7 0.3 2.4 0.5 4.7 0.6 7.1 0 2.4 0 4.6-0.2 6.9-0.3 4.4-0.9 8.7-1.7 13-0.5 3-1.1 5.9-1.8 8.9 0 0.1 0.2 0.2 0.3 0z"/>
		<path id="Layer" class="s0" d="m255.6 224.5c0.7-2.5 1.1-5.1 1.5-7.6 0.5-4 0.9-8.1 1-12.1 0-2.1 0-4.1-0.2-6.2-0.2-2.2-0.6-4.5-0.9-6.7q-1-6.6-2.4-13c-0.6-2.7-1.2-5.4-1.9-8l-0.3 0.1q0 0 0 0c0 0.2 0.3 0.1 0.3-0.1q0 0 0 0c-0.1-0.2-0.4-0.1-0.3 0.1 1.7 6.2 2.9 12.5 4 18.9 0.7 4.4 1.4 8.8 1.4 13.3 0 4.1-0.3 8.2-0.8 12.3-0.4 3-0.8 6-1.7 8.9 0 0.2 0.2 0.3 0.3 0.1z"/>
		<path id="Layer" class="s0" d="m250.6 216.9c0.7-2.8 1.1-5.8 1.4-8.7 0.4-4 0.6-8.1 0.3-12.2-0.2-3.6-0.8-7.1-1.4-10.6q-0.9-4.7-2-9.4-0.6-2.5-1.2-5c-0.1-0.1-0.3-0.1-0.3 0.1q1.7 6.4 2.9 12.8c0.7 3.5 1.3 7 1.6 10.5 0.4 4.1 0.3 8.2 0 12.2-0.3 3.5-0.8 6.9-1.5 10.3-0.1 0.1 0.2 0.2 0.2 0z"/>
		<path id="Layer" class="s0" d="m246.7 212.3c0.2-2.2 0.6-4.3 0.8-6.5 0.3-3.8 0.4-7.6 0.2-11.4-0.2-3.4-0.9-6.7-1.6-9.9-0.7-3.3-1.5-6.3-2.3-9.4q-0.7-2.3-1.5-4.7c0-0.2-0.3-0.1-0.2 0.1 1.3 4.1 2.5 8.4 3.4 12.7 0.8 3.3 1.5 6.7 1.8 10.1 0.3 3.8 0.3 7.6 0 11.4-0.2 2.5-0.6 5-0.9 7.6-0.1 0.1 0.2 0.1 0.3 0z"/>
		<path id="Layer" class="s0" d="m239.7 212.3c-0.4-3.2-0.5-6.4-0.7-9.5q-0.2-4.8-0.1-9.6 0-1.2 0.1-2.4c0-0.2-0.3-0.2-0.3 0-0.3 5.4-0.1 10.9 0.3 16.4q0.1 2.5 0.5 5.1c0 0.2 0.3 0.2 0.2 0z"/>
		<path id="Layer" class="s0" d="m234.2 190.7c-0.3 1.7-0.6 3.4-0.8 5-0.3 2.1-0.6 4.1-0.7 6.1-0.1 1.3 0.1 2.7 0.3 4q0.4 3 1 6.1 0.3 1.9 0.7 3.8c0 0.2 0.3 0.1 0.2 0q-0.8-4.5-1.5-9.1c-0.2-1.4-0.5-2.8-0.5-4.3 0.1-1.9 0.4-3.8 0.7-5.7 0.2-2 0.5-3.9 0.9-5.8 0-0.1-0.3-0.2-0.3 0z"/>
		<path id="Layer" class="s0" d="m220.3 167.3c-1.3 0-5.5-2.7-6.7-4.6-0.4-0.7-0.8-1.5-1.2-2.3-0.8-1.4-1.5-2.9-2.3-3.6-1.1-1.2-3.6-2.1-3.6-2.1l0.1-0.3c0.1 0 2.6 1 3.7 2.2 0.8 0.7 1.6 2.2 2.3 3.6 0.4 0.8 0.9 1.7 1.3 2.3 1.1 1.9 5.2 4.5 6.3 4.5v0.3z"/>
		<path id="Layer" class="s0" d="m214.1 158.1c-1.3-0.7-2-1.5-3.1-2.5-1-1-2.5-2.2-3.5-2.5-0.9-0.3-1.3-0.4-1.3-0.4v-0.2c0 0 0.5 0 1.4 0.3 1 0.3 2.6 1.5 3.6 2.6 1 1 1.8 1.8 3.1 2.4l-0.2 0.3z"/>
		<path id="Layer" class="s0" d="m201.9 168.4c0.4 1.2 0.6 2.5 1.3 3.5 0.5 0.6 1.2 0.9 1.9 1 0.6 0 1.3-0.2 1.7-0.6 0-0.1-0.1-0.3-0.1-0.4 0 0-0.1-0.3-0.1-0.3-0.4 0.4-1 0.6-1.6 0.6-0.7 0-1.4-0.3-1.9-0.9-0.8-1-0.9-2.4-1.4-3.6 0 0 0.1 0.2 0.1 0.3q0 0.2 0.1 0.4z"/>
		<path id="Layer" class="s0" d="m205.4 168c0.7 0.8 1 1.7 1.2 2.7 0.1 0.7 0.2 1.4 0.3 2.1 0.4 1.5 2.1 2.9 3.7 2.5 0.9-0.2 2-1 2.2-2 0.1-0.2-0.2-0.5-0.1-0.7-0.3 0.9-1.1 1.6-1.9 1.9-0.9 0.3-1.8 0.1-2.6-0.4-0.4-0.3-0.7-0.7-1-1.1-0.3-0.3-0.3-0.5-0.4-0.8-0.1-0.8-0.2-1.6-0.3-2.4-0.3-0.9-0.6-1.8-1.3-2.5 0 0.1 0 0.3 0.1 0.4 0 0.1 0 0.3 0.1 0.3z"/>
		<path id="Layer" class="s0" d="m210.6 169.7q1.2 1.2 1.7 2.9c0.2 0.7 0.3 1.4 0.7 2.1 0.4 0.7 1.4 1.3 2.2 1.6 0.9 0.2 1.9-0.1 2.4-0.9 0.3-0.5 0.5-1.2 0.6-1.8 0-0.2-0.2-0.5-0.2-0.7-0.1 1.4-0.9 2.9-2.5 2.7-0.5 0-1.1-0.3-1.5-0.6-0.4-0.2-0.8-0.5-1.1-0.8-0.4-0.7-0.5-1.5-0.7-2.2-0.3-1.2-0.9-2.2-1.7-3 0 0 0 0.3 0 0.3 0.1 0.1 0.1 0.3 0.1 0.4z"/>
		<path id="Layer" class="s0" d="m217.9 171.2q0.3 0.2 0.6 0.5 0.1 0.2 0.2 0.4 0 0 0 0.1 0.1 0.2 0-0.1c0 0.1 0.1 0.5 0.1 0.6q0.1 0.3 0.2 0.6c0 0.4 0.1 0.7 0.4 1 0.2 0.5 0.7 0.8 1 1.1 0.6 0.5 1.1 0.8 1.9 0.8 0.8 0 1.6-0.5 1.8-1.3 0-0.1-0.1-0.2-0.1-0.3 0-0.1-0.1-0.3-0.1-0.4-0.1 0.8-1 1.3-1.8 1.3-0.7 0-1.3-0.3-1.8-0.8-0.4-0.3-0.8-0.6-1.1-1.1q-0.1-0.1-0.2-0.3 0-0.1 0-0.1-0.1-0.3 0 0c0-0.1-0.1-0.4-0.1-0.5-0.1-0.4-0.1-0.8-0.3-1.2-0.2-0.4-0.5-0.7-0.8-1 0 0 0 0.3 0 0.3 0 0.1 0 0.3 0.1 0.4z"/>
		<path id="Layer" class="s0" d="m202.2 176.1c0.4 1.2 0.6 2.5 1.4 3.5 0.4 0.6 1.1 0.9 1.8 0.9 0.6 0.1 1.3-0.1 1.7-0.6 0.1 0 0-0.3 0-0.3 0-0.1-0.1-0.4-0.1-0.4-0.4 0.5-1.1 0.6-1.7 0.6-0.7 0-1.4-0.3-1.8-0.8-0.8-1-1-2.4-1.4-3.6 0 0 0 0.2 0 0.3q0.1 0.2 0.1 0.4z"/>
		<path id="Layer" class="s0" d="m222 178.4c0.6 0.6 1 1.4 1.1 2.3 0.1 0.7 0.2 1.3 0.3 2 0.4 1.3 1.9 2.6 3.3 2.2 0.9-0.2 1.8-0.9 2-1.7 0.1-0.1 0-0.3 0-0.4 0-0.1-0.1-0.3-0.1-0.3-0.2 0.7-1 1.3-1.7 1.6-0.8 0.3-1.6 0.2-2.3-0.3q-0.5-0.4-1-1-0.1-0.2-0.2-0.4c0-0.1 0-0.2 0 0q0-0.2 0-0.3c-0.1-0.7-0.2-1.4-0.4-2.1-0.2-0.9-0.5-1.7-1.1-2.3 0 0 0 0.3 0 0.3 0 0.1 0.1 0.3 0.1 0.4z"/>
		<path id="Layer" class="s0" d="m210.4 177.9q1.2 1.3 1.7 2.9c0.2 0.7 0.3 1.5 0.6 2.1 0.4 0.8 1.4 1.4 2.3 1.6 0.9 0.3 1.8 0 2.3-0.9 0.4-0.5 0.6-1.1 0.7-1.7 0-0.3-0.2-0.5-0.2-0.7-0.2 1.3-1 2.9-2.5 2.7-0.6-0.1-1.1-0.3-1.6-0.6-0.3-0.2-0.8-0.5-1-0.9-0.4-0.6-0.5-1.5-0.7-2.2-0.4-1.1-0.9-2.1-1.8-3 0.1 0.1 0.1 0.3 0.1 0.4 0 0.1 0 0.3 0.1 0.3z"/>
		<path id="Layer" class="s0" d="m217.1 178.6c0.3 0.3 0.6 0.6 0.8 1.1 0.1 0.3 0.1 0.6 0.1 0.9 0.1 0.7 0.3 1.5 0.7 2.1 0.7 1 1.7 2.2 3.1 2 0.7-0.2 1.3-0.8 1.5-1.6 0-0.1-0.1-0.2-0.1-0.3 0-0.1-0.1-0.3-0.1-0.4-0.2 1.3-1.7 2-2.9 1.4-0.5-0.4-1-1-1.4-1.5q-0.2-0.3-0.4-0.6-0.1-0.1-0.2-0.3 0 0 0-0.1v-0.1q0 0 0 0-0.1-0.5-0.2-1.1c-0.1-0.9-0.4-1.6-1.1-2.2 0.1 0 0.1 0.2 0.1 0.3 0 0.1 0 0.3 0.1 0.4z"/>
		<path id="Layer" class="s0" d="m206.9 177.9c0.5 1.1 0.6 2.5 1.4 3.5 0.4 0.6 1.1 0.9 1.8 0.9 0.6 0 1.4-0.1 1.7-0.6 0.1 0 0-0.3 0-0.3 0-0.1-0.1-0.4-0.1-0.4-0.4 0.5-1.1 0.6-1.7 0.6-0.7 0-1.4-0.3-1.8-0.8-0.8-1.1-1-2.4-1.4-3.6 0 0 0 0.2 0 0.2q0.1 0.3 0.1 0.5z"/>
		<path id="Layer" class="s0" d="m199.4 187.4c0 1-0.3 2-0.4 3.1q-0.3 2.4 0 4.8c0.4 2.5 0.9 5.4 2.3 7.5 1.7 2.5 4.2 4.5 7.3 5.2 2.4 0.6 5.1 0.4 7.6 0.1q1.4-0.2 2.8-0.6c0.6-0.1 1.6-0.3 1.9-1-0.1 0.2-0.7 0.1-0.8 0.2-0.4 0.7-1.4 0.9-2 1q-1.7 0.3-3.5 0.4c-2.3 0.1-4.7 0.1-6.9-0.8-2.4-1-4.5-3-5.9-5.2-1.2-2-1.5-4.6-1.9-6.8-0.3-1.7-0.3-3.4-0.1-5.1 0.2-1 0.4-2 0.5-3 0 0-0.9 0.1-0.9 0.2z"/>
		<path id="Layer" class="s0" d="m182.7 161.4l7.4-7.2 1.2-0.3 1-0.2h1.2l-8.6 8.1-2.2-0.4z"/>
		<path id="Layer" class="s0" d="m262 257.5c0 0-0.6 2.4-0.7 2.7 0 0.2-0.1 2.5-0.1 2.5 0 0 0.7-0.8 1.2-1.4 0.2-0.3 1.3-2.8 1.3-2.8 0 0-1.7-1-1.7-1z"/>
		<path id="Layer" class="s0" d="m233.7 255.8c1.3-0.5 2.5-2.6 3.5-4 1.1-1.5 2.8-3.5 4.5-4.3 1.6-0.8 4.4-1.8 6.6-1.6 2.1 0.2 4.8 0.3 7.2 0 2.5-0.2 3.6-0.8 4-1.5 0.5-0.7 0.7-1.5 0.4-1.9-0.2-0.3-0.7-0.5-1.1-0.3-0.7 0.2-0.9 1.2-0.9 1.2 0 0-0.2-1.6 0.7-2.2 0.5-0.4 1.6-0.5 2.2 0 0.5 0.6 0.9 1.5 0.8 2.2-0.2 0.8-0.8 2.5-2.4 3.2-1.6 0.7-9.7 1.4-11.6 1.6-1.9 0.3-3.9 0.9-5.3 2.1-1.3 1.1-6.5 6.8-6.5 6.8l-2.1-1.3z"/>
		<path id="Layer" class="s0" d="m229.4 259.7c0 0-1.3 1.5-3.3 2.2-2.1 0.7-2.7 0.7-4.7 0.4-2-0.3-5.2-0.5-7.2 0.5-2 1.1-4 4.4-5 6.8-0.9 2.4-2.9 7-4.4 8.1-1.4 1.1-3.1 2-4.4 1.7-1.3-0.2-1.7-0.7-1.8-1.2-0.1-0.5-0.1-1 0.3-1 0.5-0.1 0.8 0.1 1.1 0.3-0.1-0.3-0.3-0.9-0.5-1-0.3-0.1-0.8-0.4-1.2 0-0.4 0.3-0.8 0.9-0.7 1.7 0.1 0.8 0.6 2.1 1.8 2.3 1.3 0.2 1.4 0.4 2.8 0.1 1.4-0.3 3.4-1.3 4-1.9 0.6-0.6 3.5-5.2 4.2-7.2 0.8-2 2.2-4.4 3.1-5.3 0.9-0.8 3-1.4 4.5-1.4 1.5 0 5.3 0.2 7.1-0.2 1.8-0.5 3.5-1.5 4.2-2.1 0.8-0.6 1.5-1.2 1.6-1.6 0.1-0.4 0-1.4 0-1.4l-0.3-0.5-0.6-0.1-0.6 0.8z"/>
		<g id="Layer">
			<path id="Layer" class="s1" d="m237.6 257c0 0 0.8 1 0.6 1.8-0.4-0.4-0.4-0.3-0.6-0.5-0.4-0.3-0.4-0.2-1-0.5l1-0.8z"/>
			<path id="Layer" fill-rule="evenodd" class="s0" d="m238.3 259.2v-0.1 0.1zm-0.2-0.3c-0.3-0.3-0.4-0.3-0.5-0.4q0-0.1-0.1-0.1c-0.2-0.2-0.2-0.2-0.4-0.2-0.1-0.1-0.2-0.1-0.5-0.3l-0.2-0.1 1.2-1 0.1 0.1c0 0.1 0.8 1.1 0.6 2v0.2zm-1.2-1.1c0.1 0.1 0.2 0.1 0.3 0.1 0.2 0.1 0.3 0.1 0.4 0.3q0.1 0 0.2 0.1c0.1 0 0.2 0.1 0.3 0.2-0.1-0.5-0.4-1-0.6-1.3 0 0-0.6 0.6-0.6 0.6z"/>
		</g>
		<g id="Layer">
			<path id="Layer" class="s1" d="m231.9 264c0 0-0.7 1.3-1.5 1.4 0.2-0.4 0.3-0.7 0.4-0.9 0-0.3 0-0.6 0-0.6z"/>
			<path id="Layer" fill-rule="evenodd" class="s0" d="m230.1 265.6l0.2-0.2c0.2-0.5 0.3-0.7 0.3-1 0.1-0.2 0-0.5 0-0.5v-0.1l1.6 0.1-0.1 0.2c-0.1 0.1-0.8 1.3-1.7 1.5zm0.8-1.6q0 0.2 0 0.5c-0.1 0.2-0.1 0.4-0.3 0.7 0.5-0.3 0.9-0.8 1.1-1.1l-0.8-0.1z"/>
		</g>
		<g id="Layer">
			<path id="Layer" class="s1" d="m236.8 260.3c0 0 0.6 1.3 0.2 2-0.2-0.4-0.3-0.6-0.5-0.8-0.2-0.3-0.5-0.4-0.5-0.4z"/>
			<path id="Layer" fill-rule="evenodd" class="s0" d="m237 262.7l-0.1-0.3c-0.2-0.5-0.4-0.6-0.5-0.8-0.2-0.2-0.4-0.4-0.4-0.4h-0.2l1-1.2 0.1 0.2c0.1 0.1 0.7 1.4 0.3 2.2 0 0-0.2 0.3-0.2 0.3zm-0.7-1.6q0 0 0 0zm0.3 0.3c0.1 0.2 0.2 0.3 0.4 0.6 0.1-0.5-0.1-1.2-0.2-1.5l-0.5 0.6q0.1 0.1 0.3 0.3z"/>
		</g>
		<path id="Layer" class="s0" d="m224.2 244c0 0-0.8 0.2-0.8 0.3 0 0.7 0.3 1.5 0.4 2.2 0.5 1.8 1.3 3.6 2.3 5.2q0.5 0.7 1 1.4c0.4 0.5 1 1 1.2 1.5l0.3 0.3q-0.2 0.2-0.4 0.4-0.3 0.3-0.6 0.7c-0.3 0.3-0.6 0.7-0.7 1.1-0.4 1.4-0.1 3.2 0.8 4.3 0.1 0 0.8-0.2 0.9-0.2 0.5-0.8 0.7-1.9 1.6-2.4l-0.8 0.2c1-0.2 1.3 0.6 1.3 1.5-0.1 0.8-0.7 1.7-1.4 2.1-0.1 0.1-0.9 0.4-0.9 0.4 0 0.1 0.8 0.6 0.9 0.6 0.7 0.4 1.5 0.7 2.4 0.6 1-0.1 2-0.5 2.6-1.4 0.6-0.9 0.6-1.5 0.2-2.4-0.2-0.6-0.5-1.5-1.2-1.6-0.1-0.1-0.7 0.3-0.8 0.2 0.5 0.5 0.8 1 1.2 1.6 0.1 0.2 0.3 0.7 0.5 0.9 0.5 0.3 1.4 0 1.9-0.2 1.2-0.4 1.7-1.8 1.4-3-0.4-1.2-2-1.4-3-1.5l-0.9 0.2c0.6 0 1.2-0.2 1.8 0.1 0.3 0.2 0.6 0.6 1.1 0.7 0.3 0 0.9-0.1 1.1-0.3 0.4-0.3 0.1-1.2 0-1.5-0.3-0.6-0.8-1-1.4-1.2q-1-0.4-2.1-0.6c-0.5-0.1-1.1-0.1-1.6-0.3-1.1-0.6-1.7-1.8-2.1-2.9-0.6-1.6-0.9-3.3-1.1-4.9-0.1-1-0.1-1.9 0.3-2.8 0-0.1 0.2-0.4 0.2-0.5-0.1-0.2-0.7-0.6-0.8-0.7-0.4-0.5-0.8-0.8-1.4-0.7-0.7 0.1-1.4 0.4-2 0.7-0.9 0.4-1.5 1.4-2.2 2.2 0.2-0.2 0.7-0.1 0.8-0.3q0.7-0.7 1.4-1.5c0.5-0.6 1.2-0.8 2-1.1l-0.8 0.3c0.7-0.1 2.1 0.8 2.1 1.5 0 0.4-0.4 1-0.5 1.4-0.2 2.2 0.5 4.8 1.2 6.8 0.4 0.8 0.8 1.6 1.5 2.2 0.7 0.6 1.3 0.7 2.2 0.8 0.9 0.2 2.1 0.4 2.9 1.1 0.4 0.3 1.2 1.8 0.5 2.3l0.9-0.2c-0.5 0-0.9-0.4-1.3-0.6-0.6-0.4-1.1-0.3-1.8-0.2-0.3 0-0.6 0.2-0.9 0.2 0.9 0.1 2.2 0.3 2.8 1.1 0.8 1 0.2 2.9-1 3.4l0.9-0.2c-0.8 0.1-1.2 0.1-1.5-0.5-0.4-0.7-0.9-1.4-1.5-2l-0.8 0.2c0.8 0.2 1.1 1.3 1.3 1.9 0.4 1 0 2.1-0.9 2.8-0.7 0.6-1.7 0.2-2.4-0.1-0.2-0.1-1.1-0.5-1.2-0.7 0-0.2 0.7-0.4 0.9-0.6 0.7-0.5 1.4-1.5 1.3-2.4-0.1-0.9-0.5-1.2-1.4-1.1-0.3 0.1-0.7 0.2-1 0.5-0.7 0.5-0.9 1.4-1.4 2.1l0.9-0.2c-0.9-1.1-1.2-2.9-0.9-4.2 0.1-0.5 0.3-0.8 0.6-1.1q0.3-0.4 0.6-0.7 0.2-0.2 0.4-0.4 0.3-0.2-0.1-0.4c-0.3-0.5-0.9-0.9-1.2-1.4q-0.6-0.7-1-1.5c-1-1.6-1.8-3.3-2.3-5.1-0.2-0.7-0.5-1.6-0.5-2.4l-0.8 0.3c0.2 0.1 0.7-0.4 0.8-0.3z"/>
		<g id="Layer">
			<g id="Layer">
				<path id="Layer" class="s1" d="m186.7 265.7c0 0 0 1.7 0.7 2.1-0.1-0.6 0.1-0.5 0.1-0.8 0-0.3 0.3-1.1 0.3-1.1l-1.1-0.2z"/>
				<path id="Layer" fill-rule="evenodd" class="s0" d="m187.6 268zm-0.2-0.1c-0.8-0.4-0.9-2.2-0.9-2.2v-0.2l1.5 0.2-0.1 0.2c-0.1 0.3-0.3 0.9-0.3 1.1q0 0.2 0 0.3c0 0.1-0.1 0.1 0 0.4v0.3zm-0.5-2.1c0 0.5 0.1 1.2 0.4 1.6q0-0.1 0-0.2 0.1-0.1 0.1-0.2c0-0.2 0.2-0.7 0.3-1z"/>
			</g>
			<g id="Layer">
				<path id="Layer" class="s1" d="m182.2 263c0 0-0.4 1.4 0.1 2.1 0.1-0.5 0.2-0.7 0.4-1 0.1-0.2 0.4-0.4 0.4-0.4l-0.9-0.7z"/>
				<path id="Layer" fill-rule="evenodd" class="s0" d="m182.3 265.4zm-0.1-0.3c-0.5-0.7-0.1-2.1-0.1-2.2v-0.2l1.2 1-0.1 0.1c0 0-0.3 0.2-0.4 0.4-0.1 0.2-0.2 0.4-0.4 0.9l-0.1 0.3zm0.1-1.9c0 0.3-0.1 0.9 0 1.4 0.1-0.3 0.2-0.4 0.3-0.6q0.2-0.3 0.3-0.4z"/>
			</g>
			<g id="Layer">
				<path id="Layer" class="s1" d="m181.3 259.4c0 0-0.9 1.1-0.7 1.9 0.4-0.4 0.5-0.5 0.7-0.7 0.3-0.2 0.5-0.5 0.5-0.5z"/>
				<path id="Layer" fill-rule="evenodd" class="s0" d="m180.5 261.6q0 0 0 0zm0-0.2c-0.2-0.9 0.7-2.1 0.7-2.1l0.1-0.2 0.7 1-0.1 0.1c0 0-0.2 0.3-0.5 0.5-0.2 0.2-0.3 0.3-0.7 0.7 0 0-0.2 0.2-0.2 0.2zm0.9-1.7c-0.2 0.3-0.6 0.8-0.6 1.4 0.2-0.3 0.4-0.4 0.5-0.5 0.2-0.2 0.3-0.3 0.4-0.4z"/>
			</g>
			<path id="Layer" class="s0" d="m197.1 244.7q-0.4 0.1-0.9 0.2c-0.7 2.8-2 5.5-3.5 8q-1 1.5-2.1 2.9c-0.1 0.2-1.1 1.1-1.1 1.3 0 0.2 0.6 0.7 0.8 0.8q0.3 0.4 0.6 0.8c0.5 0.8 0.3 1.8 0.2 2.7-0.1 0.8-0.1 1.7-0.8 2.2l0.8-0.2c-0.5-0.7-1.2-1.1-2.1-0.8-0.5 0.2-0.6 0.4-0.8 1-0.3 0.9 0.6 1 1.1 1.4 0.4 0.2 0.3 0.1-0.1 0.3-0.5 0.2-0.8 0.4-1.3 0.4-0.9 0-1.9-0.7-2.3-1.5-0.8-1.3-0.1-2.9 1-3.8-0.2 0.1-0.6 0-0.8 0.2-0.6 0.3-1 1.2-1.4 1.8-0.3 0.6-0.6 1.1-0.9 1.7l0.8-0.2c-1-0.5-2.4-1.3-2.3-2.5 0-1.4 2.1-2.2 3.2-2.6-0.6 0.1-1.3 0.3-1.8 0.7-0.5 0.4-1.5 1.2-1.7 0.2-0.2-0.6 0.4-1.6 0.8-2.1 0.5-0.4 1-0.6 1.7-0.7 0.8-0.1 1.7-0.1 2.5-0.4 0.9-0.3 1.6-1.2 2.2-2 0.9-1.2 1.7-2.6 2.1-4.1 0.5-1.6 0.6-3.3 0.7-5q0.1-0.5 0-1c0-0.2-0.1-0.6-0.1-0.8 0.1-0.5 1-1.3 1.6-1.5l-0.8 0.2c1.7-0.2 2.9 1.5 3.8 2.6 0.1 0.1 0.8-0.3 0.9-0.2-1-1.1-2.2-2.9-3.9-2.6-0.3 0-0.7 0.1-1 0.3-0.5 0.2-0.8 0.6-1.2 0.9-0.4 0.4-0.2 0.7-0.1 1.2 0.1 1.1-0.1 2.3-0.2 3.3-0.2 1.4-0.4 2.8-1 4.1-0.5 1.1-1.1 2.1-1.8 3-0.5 0.7-1.2 1.5-2 1.8l0.7-0.2c-2 0.6-5.2 0.1-5.7 2.9-0.2 1.2 0.6 1 1.4 0.8q0.5-0.1 0.9-0.3c0.6-0.3 1.1-0.8 1.7-1l-0.8 0.2c0.5 0 0.1 0-0.1 0.1q-0.6 0.2-1.1 0.5c-0.7 0.3-1.6 0.9-1.7 1.6-0.3 1.4 1.2 2.3 2.3 2.8 0 0 0.8-0.2 0.8-0.2q0.5-0.9 1-1.7c0.3-0.5 0.7-1.5 1.3-1.8l-0.8 0.2c-1 0.7-1.7 2.1-1.4 3.3 0.5 1.5 2.1 2.3 3.6 2q0.3-0.1 0.7-0.2c0.3-0.1 1.5-0.5 1.6-0.8 0.1-0.2 0.2 0.1-0.1-0.1 0 0-0.3-0.1-0.4-0.1-0.2-0.1-0.6-0.3-0.7-0.6-0.3-0.4 0-1.3 0.4-1.6l-0.8 0.2c0.7 0.1 1.2 0.5 1.6 1 0 0 0.8-0.2 0.8-0.3 0.7-0.4 0.8-1.4 0.8-2.2 0.1-0.8 0.3-1.8-0.1-2.5-0.2-0.3-0.4-0.6-0.6-0.8-0.2-0.2-0.7-0.6-0.8-0.8q-0.3-0.2 0.1-0.4l0.2-0.2q0.3-0.4 0.6-0.7 1.2-1.5 2.2-3.1c1.5-2.5 2.8-5.2 3.6-8-0.1 0.1-0.8 0.1-0.9 0.2 0.1-0.1 0.8 0 0.9-0.2z"/>
		</g>
		<path id="Layer" class="s0" d="m193.3 245.5c0.4-0.1 0.7-0.2 1.1-0.2 0.3 0.1 0.6 0.3 0.8 0.5q0.5 0.4 0.9 0.9c0 0 0-0.1 0-0.1q-0.1-0.1-0.1-0.2 0-0.1 0-0.3 0 0-0.1-0.1-0.4-0.5-0.9-0.9c-0.2-0.2-0.4-0.4-0.8-0.5-0.3 0-0.7 0.1-1.1 0.2 0 0 0.2 0.7 0.2 0.7z"/>
		<path id="Layer" class="s0" d="m192.9 247.5c0.4-0.1 0.7-0.2 1.1 0q0.2 0.1 0.4 0.2 0.2 0.1 0.4 0.4 0 0.1 0.1 0.3c-0.1-0.3-0.1-0.5-0.1-0.3q0 0 0 0.1 0 0.1 0 0.3 0 0.1 0 0.1 0.1 0.2 0.1 0.3 0 0.1 0.1 0.2c0 0 0 0.1 0 0.1 0-0.4-0.1-0.8-0.2-1.2q-0.1-0.4-0.2-0.7c-0.2-0.2-0.5-0.4-0.8-0.5-0.3-0.2-0.7-0.1-1 0-0.1 0 0.1 0.7 0.1 0.7z"/>
		<path id="Layer" class="s0" d="m192.5 249.2c0.2 0 0.3-0.1 0.5-0.2 0.2-0.1 0.4 0.1 0.6 0.2 0.2 0.2 0.4 0.3 0.6 0.5q0.1 0.1 0.1 0.2c0.1 0.2-0.1-0.6-0.1-0.4q0 0 0 0.1 0.1 0.1 0 0.2 0 0.1 0 0.1 0.1 0.1 0.1 0.3 0 0.1 0 0.2c0 0 0.1 0.1 0.1 0.1 0-0.4-0.1-0.7-0.1-1.1q-0.1-0.3-0.3-0.5c-0.2-0.1-0.4-0.3-0.6-0.4-0.1-0.1-0.3-0.3-0.5-0.2-0.2 0.1-0.3 0.2-0.6 0.2 0 0 0.1 0.4 0.1 0.4 0 0 0.1 0.3 0.1 0.3z"/>
		<path id="Layer" class="s0" d="m192 251.3c0.3-0.1 0.5-0.1 0.8 0q0.1 0 0.2 0.1 0.1 0 0.2 0.1c0.1 0.1 0.1 0.2 0.2 0.4 0 0 0 0.1 0 0.1q0 0 0 0.1c0-0.1 0 0 0 0q0 0 0 0.1c0-0.1 0 0 0 0 0 0 0.1 0.1 0 0 0 0 0 0 0 0.1q0 0 0 0c0 0 0-0.1 0-0.1q0 0.1 0 0.1c0-0.1 0 0 0 0 0.1 0.1 0-0.1 0 0q0 0 0 0 0 0 0 0 0.1 0.3 0.1 0.5c0 0 0.1 0.1 0.1 0q0 0-0.1-0.1-0.1-0.7-0.2-1.3-0.1-0.3-0.2-0.6-0.1 0-0.2-0.1-0.1-0.1-0.2-0.1c-0.3-0.1-0.6-0.1-0.9 0 0 0 0.2 0.7 0.2 0.7z"/>
		<path id="Layer" class="s0" d="m191.5 253.1c0.2-0.1 0.3-0.2 0.6-0.2 0.2 0 0.4 0.2 0.5 0.4 0 0 0.1 0.1 0.1 0.1 0 0 0 0 0 0q0-0.1-0.1-0.3 0-0.1 0-0.2 0-0.1-0.1-0.2c-0.1-0.2-0.2-0.5-0.5-0.5-0.3 0-0.5 0.1-0.7 0.2 0 0 0 0.1 0 0.1q0.1 0.1 0.1 0.3c0 0 0.1 0.3 0.1 0.3z"/>
		<path id="Layer" class="s0" d="m190.3 255c0.4-0.1 0.8 0 1 0.3q0 0 0 0.1 0-0.1 0-0.3-0.1-0.1-0.1-0.3 0 0 0 0 0 0 0 0 0 0.1 0 0.1 0 0 0 0.1c0 0 0 0.1 0 0.1q0 0.1 0.1 0.3 0 0.1 0 0.2v0.1q0 0 0 0c0.1-0.2 0.1-0.3 0-0.5q0-0.2-0.1-0.4 0-0.1 0-0.1 0-0.1-0.1-0.1c-0.1-0.2-0.3-0.3-0.6-0.3q-0.1-0.1-0.3 0c-0.1 0 0.1 0.7 0.1 0.7z"/>
		<path id="Layer" class="s0" d="m228.9 243.7c-0.3-0.1-0.7-0.2-1.1-0.1-0.3 0-0.5 0.2-0.8 0.4q-0.5 0.5-0.9 1c0 0 0.1 0.1 0.1 0.1q0 0.1 0 0.2 0 0.2 0.1 0.3c0 0 0 0.1 0 0.1q0.4-0.5 0.9-1c0.2-0.2 0.5-0.4 0.8-0.4 0.4-0.1 0.7 0 1.1 0.1 0 0-0.1-0.3-0.1-0.3 0-0.1 0-0.4-0.1-0.4z"/>
		<path id="Layer" class="s0" d="m228.6 245.8c-0.3-0.1-0.6-0.2-0.9-0.1q-0.2 0-0.4 0.1-0.5 0.3-0.7 0.8-0.1 0.4-0.1 0.8c0 0.2 0.1 0.3 0.1 0.5q0 0.1 0.1 0.2c0 0 0 0 0 0 0-0.4 0-0.9 0.3-1.2q0.3-0.3 0.7-0.5c0.4-0.1 0.7 0 1 0.1 0 0 0-0.1 0-0.1q0-0.1 0-0.3 0-0.1-0.1-0.2c0 0 0-0.1 0-0.1z"/>
		<path id="Layer" class="s0" d="m229 247.5c-0.1 0-0.3-0.1-0.4-0.2q-0.2-0.1-0.5 0-0.1 0.1-0.3 0.2-0.1 0.1-0.2 0.2c-0.2 0.1-0.3 0.2-0.4 0.4-0.1 0.2-0.1 0.5-0.1 0.7q0.1 0.2 0.1 0.5c0 0 0.1 0.1 0.1 0.1q0 0 0 0c-0.1-0.2 0-0.4 0-0.6q0.2-0.2 0.4-0.4 0.2-0.2 0.5-0.4c0.2-0.1 0.3-0.1 0.5 0 0.2 0.1 0.3 0.2 0.5 0.2 0 0-0.1-0.4-0.1-0.4 0 0-0.1-0.3-0.1-0.3z"/>
		<path id="Layer" class="s0" d="m229.5 249.5c-0.2 0-0.5-0.1-0.8 0q-0.1 0.1-0.2 0.1-0.1 0.1-0.2 0.1c0 0.2-0.1 0.3-0.1 0.5q-0.1 0.3-0.2 0.6 0 0.1-0.1 0.3 0 0.1 0 0.1 0.1 0.1 0.1 0.3 0 0.1 0.1 0.2c0 0 0 0.1 0 0.1q0.1-0.4 0.2-0.8 0-0.3 0.2-0.5c0-0.2 0.2-0.2 0.3-0.3 0.3-0.1 0.6-0.1 0.9 0 0 0-0.1-0.1 0-0.1q-0.1-0.1-0.1-0.2 0-0.1-0.1-0.3c0 0 0-0.1 0-0.1z"/>
		<path id="Layer" class="s0" d="m230.1 251.4c-0.2-0.1-0.4-0.2-0.7-0.2-0.3 0-0.5 0.2-0.6 0.5 0 0 0.1 0.1 0.1 0.1q0 0.1 0 0.2 0 0.1 0.1 0.3c0 0 0 0.1 0 0.1 0.1-0.3 0.3-0.5 0.6-0.5 0.2 0 0.4 0.1 0.6 0.2 0 0 0-0.2 0-0.2q0-0.1-0.1-0.2 0-0.1 0-0.2c0-0.1 0-0.1 0-0.1z"/>
		<path id="Layer" class="s0" d="m231.2 253.2q-0.3 0-0.6 0.1c-0.2 0.1-0.4 0.2-0.4 0.4q-0.1 0.1 0 0.3 0 0.3 0.1 0.7c0 0 0-0.1 0-0.1q0-0.1 0-0.2-0.1-0.2-0.1-0.4c0 0.2 0.1 0.7 0.1 0.5q0 0 0-0.1v0.1c0-0.3 0.2-0.4 0.4-0.5 0.2-0.1 0.4-0.1 0.7-0.1 0 0-0.1-0.1-0.1-0.1q0-0.1 0-0.2 0-0.1-0.1-0.3c0 0 0-0.1 0-0.1z"/>
	</g>
</svg>