<svg version="1.2" xmlns="http://www.w3.org/2000/svg" viewBox="0 0 420 460" width="420" height="460">
	<title>Seal-Black</title>
	<style>
		.s0 { fill: #231f20 } 
		.s1 { fill: #ffffff } 
	</style>
	<g id="Folder 1">
		<path id="Layer" class="s0" d="m117.2 230.6c0 0.4-0.5 0.6-0.8 0.7l-0.5 0.2c-0.2 0.1-0.5 0.2-0.6 0.3 0 0.2 0 0.1 0 0.4l-0.2 2.9 12.5 0.9c0.4 0 0.6 0.1 0.8 0 0 0 0.2-0.2 0.3-0.5l0.1-0.6c0.1-0.3 0.3-0.4 0.5-0.4 0.3 0 0.3 0.5 0.2 0.7l-0.2 3.4c0 0.3 0 0.6-0.4 0.6-0.1 0-0.3-0.1-0.4-0.4v-0.7c0-0.3-0.2-0.4-0.2-0.5-0.2-0.1-0.4-0.1-0.9-0.1l-12.4-0.9-0.2 2.7c-0.1 0.3-0.1 0.2 0 0.4 0 0.2 0.3 0.3 0.5 0.4l0.5 0.3c0.2 0.1 0.7 0.3 0.7 0.8-0.1 0.3-0.5 0.3-0.8 0.2l-1.9-0.5 0.7-10.4 2-0.3c0.3 0 0.7 0 0.7 0.4z"/>
		<path id="Layer" class="s0" d="m120.2 216.1l0.1 0.6c0 0.1 0 0.4 0 0.4 0.1 0.2 0.2 0.2 0.6 0.3l9.8 2.3c0.4 0.1 0.6 0.1 0.7 0.1 0.1-0.1 0.2-0.3 0.3-0.4l0.3-0.5c0.1-0.4 0.2-0.4 0.4-0.4 0.3 0.1 0.1 0.6 0.1 0.9l-0.6 2.5c-0.1 0.3-0.1 0.8-0.4 0.6-0.2 0-0.2-0.1-0.3-0.4v-0.5c0-0.1-0.1-0.4-0.1-0.4-0.1-0.1-0.3-0.2-0.5-0.2l-4.7-1.1-1.3 5.8 4.5 1c0.3 0.1 0.5 0.2 0.7 0.1 0-0.1 0.2-0.3 0.3-0.4l0.2-0.5c0.2-0.4 0.3-0.3 0.4-0.3 0.3 0 0.2 0.5 0.1 0.9l-0.6 2.4c0 0.3-0.1 0.8-0.4 0.7-0.1-0.1-0.2-0.2-0.2-0.4l-0.1-0.6c0-0.1 0-0.4-0.1-0.4 0-0.1-0.3-0.2-0.6-0.3l-9.9-2.3c-0.3 0-0.5-0.1-0.6 0-0.1 0-0.2 0.2-0.2 0.4l-0.3 0.4c-0.1 0.3-0.3 0.3-0.4 0.3-0.3-0.1-0.2-0.5-0.1-0.8l0.6-2.8c0.1-0.2 0.1-0.5 0.4-0.4 0.2 0 0.3 0.2 0.3 0.4v0.6c0 0.1 0 0.4 0.1 0.4q0.1 0.2 0.3 0.2l4.7 1.1 1.3-5.7-4.4-1.1c-0.4-0.1-0.5-0.1-0.6-0.1-0.1 0.1-0.2 0.3-0.3 0.4l-0.2 0.5c-0.2 0.3-0.3 0.3-0.4 0.2-0.3 0-0.2-0.4-0.2-0.7l0.7-2.8c0-0.3 0.1-0.6 0.4-0.5 0.3 0.1 0.2 0.2 0.2 0.5z"/>
		<path id="Layer" class="s0" d="m136.8 208.4l-2.9 6.8c-0.1 0.3-0.2 0.7-0.5 0.6-0.2-0.1-0.2-0.2-0.2-0.5l0.1-0.5c0-0.2 0-0.4 0-0.5-0.1-0.1-0.3-0.2-0.7-0.3l-9.2-3.9c-0.4-0.1-0.5-0.2-0.7-0.2 0 0-0.2 0.2-0.3 0.4l-0.3 0.4c-0.2 0.2-0.3 0.2-0.5 0.2-0.3-0.2-0.1-0.6 0-0.8l2.8-6.7 1.1 0.4c0.3 0.1 1.1 0.2 0.9 0.6-0.1 0.3-0.4 0.2-0.7 0.2h-0.4c-0.2 0-0.4 0-0.5 0-0.1 0.1-0.2 0.3-0.3 0.6l-1.4 3.4 5 2 1.2-3c0.1-0.2 0.2-0.4 0.2-0.6-0.1-0.2-0.2-0.2-0.3-0.4l-0.4-0.3c-0.2-0.1-0.4-0.3-0.3-0.5 0.1-0.1 0.3-0.1 0.5-0.1l2.7 1.2q0.2 0 0.1 0.3c0 0.2-0.3 0.2-0.5 0.2l-0.4-0.1c-0.2 0-0.4-0.1-0.5 0-0.2 0.1-0.2 0.4-0.3 0.6l-1.3 3 4.4 1.8c0.3 0.2 0.5 0.2 0.6 0.2 0.1 0 0.2-0.1 0.3-0.2l1.3-3.2c0.1-0.2 0.1-0.2 0.1-0.4 0-0.3-0.1-0.3-0.2-0.4l-0.6-0.8c-0.1-0.2-0.5-0.6-0.3-0.9 0.1-0.2 0.4-0.1 0.5 0l1.9 1.3z"/>
		<path id="Layer" class="s0" d="m136.9 180.9l-0.2 0.6c0 0.1-0.1 0.3-0.1 0.4 0 0.2 0.3 0.3 0.6 0.6l7.7 5.6c0.4 0.3 3.2 2.9 0.1 6.8-2.8 3.6-5.8 2-6.3 1.6l-7.6-5.7c-0.4-0.2-0.5-0.3-0.7-0.3-0.1 0-0.3 0.1-0.4 0.2l-0.5 0.4c-0.3 0.2-0.4 0.2-0.5 0.1-0.3-0.2 0-0.6 0.2-0.9l1.9-2.6c0.2-0.2 0.3-0.4 0.6-0.2 0.1 0 0.2 0.3 0 0.6l-0.2 0.5c-0.1 0.2-0.1 0.4-0.1 0.6q0.1 0.1 0.3 0.3l7.9 5.8c2 1.4 3.7 0.6 4.9-1.1 1.4-1.9 1.3-3.9-0.3-5l-7.7-5.7c-0.4-0.3-0.5-0.4-0.7-0.4 0 0-0.2 0.2-0.4 0.3l-0.5 0.4c-0.3 0.2-0.4 0.2-0.5 0.1-0.3-0.3-0.1-0.5 0.1-0.8l1.9-2.5c0.1-0.2 0.2-0.4 0.5-0.2 0.1 0.1 0.1 0.3 0.1 0.5z"/>
		<path id="Layer" class="s0" d="m151 169.8l-0.3 0.5c-0.1 0.1-0.2 0.3-0.1 0.4 0 0.2 0.1 0.4 0.4 0.6l7.9 8.6-0.4 0.3-13.3-2.7 6.3 6.8c0.2 0.3 0.4 0.5 0.5 0.5 0.2 0 0.3 0 0.5-0.1l0.3-0.2c0.3-0.2 0.5-0.2 0.7-0.1 0.2 0.2 0 0.4-0.2 0.6l-1.9 1.7c-0.2 0.2-0.5 0.6-0.7 0.3-0.1-0.1-0.1-0.2 0-0.4l0.3-0.5c0.1-0.1 0.2-0.4 0.2-0.4 0-0.2 0-0.3-0.4-0.7l-6.7-7.4c-0.3-0.2-0.4-0.4-0.7-0.4-0.1 0-0.2 0.1-0.4 0.2l-0.5 0.1c-0.3 0.2-0.3 0.1-0.4 0-0.2-0.2 0-0.3 0.1-0.4l1.3-1.2 12.7 2.6-6.2-6.8c-0.1-0.1-0.3-0.3-0.4-0.2-0.1 0-0.2 0.1-0.4 0.1l-0.4 0.3c-0.2 0.1-0.4 0.2-0.6 0-0.1-0.1 0-0.3 0.1-0.4l2.2-2c0.2-0.2 0.4-0.4 0.6-0.2 0.1 0.2 0 0.3-0.1 0.5z"/>
		<path id="Layer" class="s0" d="m164.9 175.6l-2.1 1.4c-0.3 0.2-0.6 0.5-0.8 0.2-0.1-0.1-0.1-0.3 0-0.5l0.4-0.4c0.1-0.1 0.3-0.3 0.3-0.3 0-0.2-0.1-0.4-0.4-0.7l-5.7-8.2c-0.2-0.3-0.3-0.5-0.5-0.5-0.1-0.1-0.3 0-0.4 0.1l-0.6 0.2c-0.2 0.1-0.3 0-0.4-0.1-0.2-0.3 0.2-0.5 0.4-0.7l2.1-1.5c0.3-0.1 0.6-0.4 0.8-0.1 0.1 0.1 0.1 0.2-0.1 0.4l-0.3 0.5c-0.1 0.1-0.3 0.3-0.2 0.4-0.1 0.1 0 0.3 0.2 0.6l5.8 8.2c0.2 0.3 0.3 0.5 0.5 0.5 0 0 0.2-0.1 0.4-0.1l0.5-0.2c0.3-0.1 0.4 0 0.5 0.1 0.2 0.3-0.2 0.5-0.4 0.7z"/>
		<path id="Layer" class="s0" d="m171.8 157.3c-0.1 0.3 0 0.6 0 0.9l1.8 12.2-0.5 0.3-9-8.4c-0.3-0.3-0.6-0.6-0.7-0.6-0.1-0.1-0.3 0-0.4 0l-0.5 0.1c-0.3 0-0.4 0-0.5-0.1-0.1-0.3 0.2-0.4 0.4-0.5l2.5-1.3c0.2-0.1 0.4-0.2 0.5 0.1 0 0.1-0.1 0.2-0.3 0.4l-0.2 0.3c-0.1 0.1-0.3 0.2-0.2 0.3 0.1 0.2 0.1 0.2 0.4 0.5l7.3 6.9-1.5-9.8c0-0.3 0-0.5-0.1-0.7-0.2-0.2-1.1 0.2-1.3-0.1-0.2-0.2 0-0.3 0.1-0.3l2.5-1.3c0.2-0.1 0.4-0.3 0.5 0 0.1 0.3-0.8 0.8-0.8 1.1z"/>
		<path id="Layer" class="s0" d="m189 164.4l-7 2.2c-0.3 0.1-0.7 0.3-0.8 0-0.1-0.2 0-0.3 0.2-0.4l0.5-0.3c0.1-0.1 0.3-0.2 0.3-0.3 0.1-0.1 0-0.4-0.1-0.7l-3.1-9.6c-0.1-0.4-0.1-0.5-0.2-0.6-0.1-0.1-0.3 0-0.5 0h-0.6c-0.2 0-0.3-0.1-0.4-0.2-0.1-0.3 0.3-0.5 0.6-0.6l6.9-2.2 0.5 1.1c0.1 0.3 0.5 1 0.1 1.1-0.3 0.1-0.5-0.2-0.6-0.4l-0.3-0.3c-0.1-0.2-0.3-0.3-0.4-0.3-0.1 0-0.3 0-0.6 0.1l-3.5 1.1 1.7 5.1 3.1-1c0.2 0 0.5-0.1 0.6-0.2 0.1-0.2 0-0.3 0-0.5v-0.5c0-0.2 0-0.4 0.3-0.5 0.1-0.1 0.2 0.1 0.3 0.3l0.9 2.8q0.1 0.2-0.2 0.3c-0.1 0.1-0.3-0.1-0.4-0.3l-0.3-0.4c-0.1-0.1-0.1-0.3-0.3-0.3-0.2 0-0.4 0-0.6 0.1l-3.2 1 1.5 4.5c0.1 0.3 0.2 0.5 0.2 0.6 0.1 0.1 0.2 0.1 0.4 0.1l3.3-1.1c0.2 0 0.2-0.1 0.3-0.2 0.2-0.2 0.2-0.3 0.2-0.4l0.3-1c0-0.1 0.1-0.8 0.4-0.8 0.3 0 0.4 0.2 0.4 0.4l0.1 2.3z"/>
		<path id="Layer" fill-rule="evenodd" class="s0" d="m202.4 161.6c0 0.2-0.3 0.3-0.5 0.3l-1.9 0.3-4.1-5.4-1.5 0.2 0.7 4.3c0.1 0.4 0.1 0.6 0.2 0.7 0 0.1 0.3 0.1 0.4 0.1l0.6 0.1c0.3 0 0.4 0.1 0.4 0.3 0 0.3-0.4 0.3-0.7 0.4l-2.5 0.4c-0.3 0-0.8 0.1-0.8-0.2 0-0.2 0-0.3 0.2-0.4l0.5-0.2c0.2-0.1 0.4-0.2 0.5-0.2 0-0.2 0-0.4-0.1-0.7l-1.6-9.9c0-0.4 0-0.6-0.1-0.7-0.1-0.1-0.3-0.1-0.5-0.1l-0.6-0.1c-0.2 0-0.3-0.1-0.3-0.3-0.1-0.3 0.3-0.3 0.7-0.4l3.8-0.6c2.7-0.4 3.9 1.5 4.1 2.9 0.3 2.6-2.2 3.9-2.2 3.9l3.2 4.2c0.1 0.2 0.2 0.3 0.4 0.5 0.1 0.1 0.2 0.2 0.5 0.2l0.7 0.1c0.2 0 0.4 0 0.4 0.3zm-7.4-11.3l-1.6 0.2 1 5.8 1.3-0.2c1.6-0.3 2.6-1.8 2.3-3.5-0.3-1.4-1.1-2.6-3-2.3z"/>
		<path id="Layer" class="s0" d="m208.4 161.8c-0.6 0-1.7-0.1-2.6-0.5l-0.4-2.3c0-0.2-0.1-0.6 0.2-0.6 0.5-0.1 0.6 0.4 0.7 0.8l0.5 1c0.3 0.6 1.3 0.7 1.9 0.7 1.6-0.1 2.9-1.2 2.9-2.7-0.1-3.5-6-2.5-6.1-6.7 0-1.7 1.1-3.5 4-3.5 0.5 0 1.6 0 2.4 0.4l0.2 2.2c0 0.1-0.1 0.2-0.3 0.3-0.4 0-0.4-0.4-0.5-0.7l-0.3-0.6c-0.1-0.4-0.2-0.8-1.9-0.7-1.2 0-2.5 0.8-2.5 2.2 0.1 3 6.1 2.7 6.2 6.6 0 2.4-2.2 4-4.4 4.1z"/>
		<path id="Layer" class="s0" d="m219.4 162.1l-2.5-0.2c-0.3-0.1-0.8-0.1-0.8-0.4 0.1-0.2 0.1-0.3 0.4-0.3l0.6-0.1c0.1 0 0.4-0.1 0.4-0.1 0.1-0.1 0.1-0.3 0.1-0.7l1-10c0-0.4 0.1-0.6 0-0.7-0.1-0.1-0.3-0.1-0.4-0.2l-0.6-0.2c-0.2-0.1-0.3-0.2-0.3-0.4 0.1-0.3 0.5-0.2 0.8-0.2l2.6 0.2c0.3 0.1 0.7 0.1 0.7 0.4 0 0.2-0.1 0.3-0.4 0.3l-0.5 0.1c-0.2 0.1-0.4 0.2-0.5 0.2-0.1 0.1-0.1 0.3-0.1 0.6l-1 10c0 0.4 0 0.6 0.1 0.7 0 0.1 0.2 0.1 0.4 0.2l0.5 0.2c0.2 0.1 0.3 0.2 0.3 0.4-0.1 0.3-0.5 0.2-0.8 0.2z"/>
		<path id="Layer" class="s0" d="m235 153.9c-0.3-0.1-0.4-0.6-0.4-0.8l-0.2-0.5c0-0.2 0-0.4-0.2-0.5-0.1-0.1 0-0.1-0.3-0.1l-2.5-0.6-2.3 10.7c-0.1 0.3-0.2 0.6-0.1 0.7 0 0 0.1 0.2 0.3 0.3l0.5 0.2c0.3 0.1 0.3 0.3 0.3 0.4 0 0.3-0.4 0.2-0.6 0.2l-2.9-0.7c-0.2 0-0.5-0.1-0.5-0.3 0.1-0.2 0.2-0.3 0.5-0.3h0.5c0.3 0 0.4-0.1 0.5-0.1 0.1-0.1 0.1-0.3 0.2-0.7l2.4-10.6-2.3-0.5c-0.2-0.1-0.2-0.1-0.4-0.1-0.1 0.1-0.2 0.2-0.4 0.4l-0.3 0.4c-0.1 0.2-0.4 0.6-0.7 0.5-0.4-0.1-0.3-0.5-0.2-0.7l0.8-1.6 8.8 2-0.1 1.7c0 0.3 0 0.6-0.4 0.6z"/>
		<path id="Layer" class="s0" d="m249 157.4c-0.2 0.1-0.5 0.4-0.8 0.6l-4.8 4.5-1.5 3.8c-0.1 0.2-0.2 0.4-0.2 0.6 0.1 0.3 1.1 0.7 0.9 1.1-0.1 0.2-0.3 0.1-0.5 0l-2.8-1.1c-0.2-0.1-0.4-0.2-0.3-0.4 0.2-0.4 1.2 0.1 1.4-0.2 0.1-0.1 0.2-0.3 0.3-0.6l1.5-3.6-0.4-6.7c-0.1-0.4-0.1-0.7-0.2-0.9 0-0.1-0.2-0.3-0.3-0.4l-0.4-0.3c-0.2-0.3-0.3-0.3-0.3-0.4 0.1-0.3 0.5-0.2 0.7-0.1l2.6 1.1c0.2 0.1 0.4 0.1 0.3 0.4 0 0.1-0.1 0.1-0.4 0.1h-0.4c-0.2 0-0.3 0-0.3 0.1-0.1 0.2 0 0.5 0 0.8l0.3 5.4 4-3.6c0.2-0.2 0.4-0.4 0.5-0.6 0.1-0.3-1-0.7-0.8-1 0.1-0.3 0.3-0.2 0.5-0.1l2.5 1c0.2 0.1 0.4 0.1 0.3 0.4-0.1 0.3-1.1-0.1-1.4 0.1z"/>
		<path id="Layer" fill-rule="evenodd" class="s0" d="m266.6 174.9c-2.1 2.9-6.1 4.2-8.9 2.2-3.2-2.3-2.9-6.3-0.8-9.2 2-2.8 5.8-4.2 8.9-2 3.1 2.3 2.8 6.1 0.8 9zm-1.3-8.4c-2.5-1.8-5.6-0.1-7.3 2.3-1.9 2.6-2.5 5.7 0.2 7.6 2.5 1.8 5.5-0.1 7.2-2.3 1.9-2.7 2.4-5.8-0.1-7.6z"/>
		<path id="Layer" class="s0" d="m278.1 180c-0.3-0.2-0.1-0.5 0-0.7l0.2-0.4c0.1-0.2 0.2-0.4 0.1-0.4 0-0.2-0.2-0.4-0.4-0.5l-2.5-2.5-3.8 3.8 2.2 2.2c0.2 0.1 0.4 0.3 0.5 0.4 0.2 0 0.3-0.1 0.5-0.2l0.4-0.2c0.3-0.2 0.4-0.2 0.6-0.1 0.2 0.2 0 0.3-0.1 0.4l-2 2.1c-0.2 0.1-0.3 0.2-0.4 0.1-0.2-0.2-0.1-0.4 0-0.6l0.3-0.4c0-0.2 0.1-0.3 0.1-0.5-0.1-0.1-0.3-0.3-0.5-0.5l-2.1-2.2-3.3 3.4c-0.3 0.2-0.5 0.4-0.5 0.5 0 0.1 0 0.2 0.1 0.3l0.3 0.6c0.2 0.2 0.2 0.3 0 0.4-0.2 0.2-0.4 0-0.6-0.1l-1.9-1.9c-0.2-0.3-0.5-0.5-0.3-0.8 0.1-0.1 0.2-0.1 0.4 0l0.5 0.3c0.1 0.1 0.4 0.2 0.4 0.2 0.2 0 0.3-0.2 0.6-0.5l7.1-7.1c0.3-0.3 0.4-0.4 0.4-0.5 0-0.1-0.1-0.3-0.2-0.4l-0.2-0.5c-0.2-0.2-0.2-0.4 0-0.5 0.2-0.2 0.5 0.1 0.7 0.3l5 5-0.7 0.9c-0.3 0.3-0.7 0.9-0.9 0.7z"/>
		<path id="Layer" class="s0" d="m278.1 198.1l-1.6-2.4c-0.2-0.3-0.5-0.7-0.2-1 0.1-0.1 0.3 0 0.5 0.1l0.5 0.4c0.2 0.2 0.4 0.3 0.4 0.4 0.2 0 0.4-0.2 0.7-0.4l9.5-6.5c0.4-0.3 0.6-0.4 0.6-0.6 0.1-0.1 0-0.3-0.1-0.5l-0.2-0.6c-0.1-0.3 0-0.4 0.1-0.5 0.3-0.2 0.6 0.2 0.8 0.5l1.7 2.4c0.2 0.3 0.4 0.7 0.1 0.9-0.1 0.1-0.2 0.1-0.5-0.1l-0.5-0.4c-0.1-0.1-0.4-0.3-0.5-0.2-0.1-0.1-0.3 0-0.6 0.3l-9.5 6.5c-0.4 0.3-0.6 0.4-0.6 0.6 0 0 0 0.2 0.1 0.5l0.2 0.6c0.1 0.2 0 0.4-0.1 0.5-0.3 0.2-0.6-0.2-0.8-0.5z"/>
		<path id="Layer" fill-rule="evenodd" class="s0" d="m283.2 207.3c-1.8-3.5 0.4-6.9 3.6-8.4 3.1-1.6 7.1-1 8.8 2.4 1.6 3.4-0.4 6.7-3.6 8.3-3.2 1.6-7.3 0.9-8.8-2.3zm11.7-5.7c-1.4-2.8-4.9-2.8-7.5-1.5-2.9 1.4-4.9 4-3.5 6.9 1.4 2.8 4.9 2.5 7.5 1.3 2.9-1.5 4.8-4 3.5-6.7z"/>
		<path id="Layer" class="s0" d="m302.7 226.2c-0.2-0.1-0.5-0.1-0.8-0.1l-12.1-0.3-0.1-0.4 10.3-6-11.9-0.1-0.1-0.5 10.4-6.1c0.3-0.2 0.7-0.4 0.8-0.5 0-0.1 0-0.3 0-0.5v-0.5c0-0.3 0-0.4 0.2-0.4 0.3-0.1 0.4 0.2 0.4 0.5l0.8 2.9c0 0.2 0.1 0.4-0.2 0.5-0.2 0-0.2-0.1-0.4-0.3l-0.2-0.4c-0.1-0.1-0.2-0.4-0.3-0.4-0.2 0.1-0.2 0.1-0.5 0.3l-8 4.5 9.1 0.1c0.2 0 0.4 0.1 0.6 0 0.3-0.1 0.2-1.1 0.5-1.2 0.3 0 0.2 0.2 0.3 0.3l0.7 3c0.1 0.2 0.2 0.4-0.2 0.5-0.1 0-0.6-0.8-0.8-0.8q-0.3 0-0.5 0.2l-7.9 4.5 9.2 0.1c0.2 0 0.3 0 0.5 0 0.3-0.1-0.1-1.3 0.3-1.4 0.2 0 0.3 0.1 0.3 0.3l0.8 2.9c0 0.2 0.1 0.4-0.2 0.4-0.3 0.1-0.6-0.9-1-1.1z"/>
		<path id="Layer" fill-rule="evenodd" class="s0" d="m292 242.1c-0.4 0-0.3-0.3-0.3-0.5l-0.3-3c0-0.2 0-0.4 0.3-0.4 0.5 0 0.4 1.1 0.7 1.1 0.3 0 0.3-0.1 0.5-0.2l2.7-1.2-0.4-4.8-2.6-0.6c-0.3-0.1-0.4-0.1-0.6-0.1-0.2 0-0.3 0.2-0.3 0.4l-0.1 0.3q0 0.4-0.3 0.5c-0.2 0.1-0.3-0.3-0.3-0.4l-0.2-2.6c0-0.2-0.1-0.6 0.2-0.6 0.2 0 0.3 0 0.4 0.3l0.1 0.5c0.1 0.2 0.2 0.4 0.2 0.4 0.2 0.1 0.6 0.2 1 0.3l11.8 3.1 0.1 0.7-11.3 5.1c-0.3 0.1-0.5 0.2-0.7 0.3-0.3 0.3-0.1 1.3-0.6 1.4zm10.2-7.1l-6-1.6 0.3 4.1c0 0 5.7-2.5 5.7-2.5z"/>
		<g id="Layer">
			<path id="Layer" fill-rule="evenodd" class="s0" d="m210 347c-58.1 0-105-46.9-105-105 0-58.1 46.9-105 105-105 58.1 0 105 46.9 105 105 0 58.1-46.9 105-105 105zm103.4-105c0-57.2-46.2-103.4-103.4-103.4-57.2 0-103.4 46.2-103.4 103.4 0 57.2 46.2 103.5 103.4 103.5 57.2 0 103.4-46.3 103.4-103.5z"/>
			<path id="Layer" fill-rule="evenodd" class="s0" d="m210 341.9c-55.2 0-99.9-44.7-99.9-99.9 0-55.2 44.7-99.9 99.9-99.9 55.2 0 99.9 44.7 99.9 99.9 0 55.2-44.7 99.9-99.9 99.9zm99.5-99.9c0-55-44.5-99.5-99.5-99.5-55 0-99.5 44.5-99.5 99.5 0 55 44.5 99.5 99.5 99.5 55 0 99.5-44.5 99.5-99.5z"/>
		</g>
		<path id="Layer" fill-rule="evenodd" class="s0" d="m210.4 316.8c-41.2 0-74.4-33.3-74.4-74.4 0-41.1 33.2-74.4 74.4-74.4 41.1 0 74.4 33.3 74.4 74.4 0 41.1-33.3 74.4-74.4 74.4zm73.2-74.4c0-40.5-32.7-73.2-73.2-73.2-40.5 0-73.2 32.7-73.2 73.2 0 40.5 32.7 73.2 73.2 73.2 40.5 0 73.2-32.7 73.2-73.2z"/>
		<path id="Layer" fill-rule="evenodd" class="s0" d="m124.3 278.9c-1.2-3 0.7-5.6 3.4-6.7 2.7-1.1 5.9-0.4 7.1 2.4 1.2 2.9-0.6 5.5-3.3 6.6-2.8 1.1-6.1 0.3-7.2-2.3zm9.9-4.1c-0.9-2.3-3.8-2.5-6-1.6-2.5 1-4.2 3-3.2 5.4 0.9 2.4 3.9 2.4 6 1.5 2.5-1 4.2-3 3.2-5.3z"/>
		<path id="Layer" fill-rule="evenodd" class="s0" d="m132.4 293.5c-0.2 0.1-0.3-0.1-0.4-0.3l-0.8-1.3 2.9-4.8-0.6-1-3.1 1.8c-0.3 0.1-0.4 0.2-0.5 0.3 0 0.1 0.1 0.3 0.1 0.4l0.1 0.4q0.1 0.3-0.1 0.4c-0.2 0.2-0.4-0.2-0.5-0.4l-1.1-1.8c-0.1-0.2-0.3-0.5-0.1-0.6 0.1-0.1 0.3-0.1 0.4 0.1l0.3 0.3c0.1 0.1 0.3 0.2 0.3 0.2 0.1 0 0.3-0.1 0.6-0.2l7-4.2c0.3-0.1 0.4-0.2 0.5-0.3 0-0.1-0.1-0.3-0.1-0.4l-0.1-0.4c-0.1-0.2 0-0.3 0.1-0.4 0.2-0.1 0.4 0.2 0.5 0.4l1.6 2.7c1.2 2 0 3.5-1 4-1.8 1-3.6-0.5-3.6-0.5l-2.2 3.7c-0.1 0.2-0.2 0.3-0.3 0.4 0 0.1 0 0.3 0 0.5l0.2 0.6c0 0.1 0.1 0.3-0.1 0.4zm6.3-9.1l-0.6-1-4.1 2.4 0.6 0.9c0.6 1.1 2.1 1.5 3.3 0.7 1-0.6 1.6-1.6 0.8-3z"/>
		<path id="Layer" class="s0" d="m143 301l-0.6-0.3-2.2 1.6c0 0-1.9-0.2-3.2-1.9-1.8-2.2-1.3-5.1 1.5-7.3 2.3-1.8 5.6-2 7.6 0.6q1 1.4 1 2.9l-1.3 1c-0.1 0.1-0.3 0.2-0.4 0-0.1-0.2-0.1-0.3 0-0.5l0.7-0.9c0.2-0.4 0.2-1.1-0.6-2.2-1.5-2.1-4.1-1.5-6.2 0-2 1.5-3.5 3.9-1.8 6 0.6 0.7 1.6 1.3 2.2 1.4l2-1.7-0.1-0.2c-0.1-0.3-0.3-0.7-0.1-0.9 0.2-0.1 0.4 0 0.5 0.2l1.5 1.9c0.1 0.2 0.2 0.3 0 0.5-0.1 0.1-0.3-0.1-0.5-0.2z"/>
		<path id="Layer" fill-rule="evenodd" class="s0" d="m148.9 312.6c-0.2 0.3-0.4 0-0.5-0.1l-1.7-1.7c-0.2-0.1-0.3-0.2-0.1-0.4 0.3-0.3 0.8 0.4 1 0.3 0.1-0.1 0.2-0.2 0.2-0.4l1-2.1-2.8-2.8-1.9 1c-0.3 0.1-0.3 0.2-0.5 0.3-0.1 0 0 0.2 0.1 0.4l0.1 0.2q0.2 0.3 0.1 0.5c-0.1 0.1-0.4 0-0.4-0.1l-1.5-1.5c-0.2-0.1-0.4-0.3-0.2-0.5 0.1-0.1 0.2-0.1 0.3 0l0.4 0.2c0.1 0.1 0.3 0.2 0.4 0.2 0.1 0 0.4-0.2 0.7-0.3l9-4.4 0.4 0.3-4.3 9.2c-0.1 0.2-0.2 0.4-0.2 0.6 0 0.4 0.6 0.8 0.4 1.1zm2.4-9.8l-4.5 2.3 2.4 2.3z"/>
		<path id="Layer" class="s0" d="m164.6 311.9l-0.4-0.2c-0.1 0-0.3 0-0.4 0-0.1 0-0.2 0.2-0.4 0.4l-5.7 7.7-0.3-0.3 0.1-11.1-4.5 6.1c-0.2 0.3-0.3 0.4-0.3 0.5q0.1 0.2 0.2 0.3l0.2 0.3c0.2 0.2 0.3 0.4 0.2 0.5-0.2 0.3-0.4 0.1-0.6 0l-1.6-1.3c-0.2-0.1-0.5-0.3-0.4-0.5 0.1-0.1 0.2-0.1 0.4-0.1l0.4 0.2c0.2 0.1 0.3 0.1 0.4 0.1 0.1 0 0.2 0 0.5-0.4l4.9-6.6c0.2-0.2 0.3-0.4 0.2-0.5q0-0.2-0.2-0.4l-0.2-0.3c-0.1-0.3-0.1-0.3 0-0.4 0.1-0.1 0.2 0 0.3 0l1.2 0.9-0.2 10.6 4.6-6c0-0.1 0.1-0.3 0.1-0.4-0.1 0-0.1-0.1-0.2-0.2l-0.3-0.3c-0.1-0.2-0.3-0.4-0.1-0.5q0.1-0.1 0.3 0l2 1.5c0.2 0.1 0.4 0.2 0.2 0.4-0.1 0.1-0.2 0.1-0.4 0z"/>
		<path id="Layer" class="s0" d="m164.1 323.7l-1.8-1.1c-0.2-0.1-0.5-0.2-0.4-0.5q0.1-0.2 0.4-0.1l0.4 0.1c0.2 0 0.4 0.1 0.4 0.1 0.1 0 0.2-0.2 0.4-0.5l4.1-7.1c0.1-0.2 0.2-0.4 0.2-0.5 0 0-0.1-0.2-0.2-0.3l-0.3-0.3c-0.2-0.2-0.2-0.3-0.1-0.4 0.1-0.2 0.4 0 0.6 0.1l1.8 1.1c0.2 0.1 0.5 0.3 0.4 0.5 0 0.1-0.1 0.1-0.3 0.1l-0.5-0.1c-0.1 0-0.3 0-0.4 0-0.1 0-0.2 0.1-0.3 0.4l-4.1 7.1c-0.2 0.2-0.3 0.4-0.3 0.5 0 0 0.2 0.2 0.3 0.3l0.3 0.3q0.2 0.2 0.1 0.4c-0.2 0.2-0.5 0-0.7-0.1z"/>
		<path id="Layer" class="s0" d="m169.4 325.8l2.8 1.3c0.2 0.1 0.6 0.3 0.8 0.3 0.1 0 0.3-0.1 0.5-0.2l0.4-0.2c0.1-0.1 0.6-0.6 0.8-0.4 0.4 0.2 0.1 0.5-0.1 0.7l-1 1.1-5.8-2.7 9.8-6.8-2.5-1.1c-0.1-0.1-0.6-0.3-0.7-0.3-0.1 0-0.3 0.1-0.5 0.2l-0.3 0.3c-0.1 0.1-0.4 0.4-0.7 0.2-0.1-0.1 0-0.4 0.1-0.5l0.8-1.2 5.4 2.5c0 0-9.8 6.8-9.8 6.8z"/>
		<path id="Layer" class="s0" d="m184.3 332.2l-5.8-1.8c-0.2-0.1-0.5-0.2-0.5-0.5 0.1-0.1 0.1-0.1 0.4-0.1h0.4c0.1 0 0.3 0 0.4 0 0.1-0.1 0.1-0.3 0.2-0.6l2.6-7.8c0.1-0.3 0.1-0.4 0-0.5 0-0.1-0.1-0.2-0.3-0.3l-0.3-0.2c-0.2-0.1-0.2-0.2-0.2-0.4 0.1-0.2 0.4-0.1 0.7 0l5.6 1.8-0.2 0.9c-0.1 0.3-0.1 0.9-0.5 0.8-0.2-0.1-0.2-0.3-0.2-0.5v-0.4c0-0.2 0-0.3-0.1-0.4-0.1-0.1-0.3-0.1-0.5-0.2l-2.8-0.9-1.3 4.2 2.5 0.8c0.2 0.1 0.4 0.2 0.5 0.1 0.1-0.1 0.2-0.2 0.3-0.3l0.2-0.3c0.1-0.1 0.2-0.3 0.4-0.3 0.1 0.1 0.1 0.3 0.1 0.4l-0.7 2.3q-0.1 0.2-0.3 0.1c-0.2 0-0.2-0.2-0.2-0.4v-0.4c0-0.1 0.1-0.2 0-0.3-0.1-0.1-0.3-0.2-0.5-0.3l-2.6-0.8-1.1 3.7c-0.1 0.3-0.2 0.4-0.2 0.5 0 0.1 0.1 0.2 0.2 0.2l2.7 0.9c0.2 0 0.3 0 0.4 0 0.2 0 0.2-0.1 0.3-0.2l0.6-0.5c0.1-0.1 0.5-0.4 0.7-0.3 0.2 0.1 0.1 0.3 0 0.4l-0.9 1.6z"/>
		<path id="Layer" fill-rule="evenodd" class="s0" d="m198.4 329.6c-0.8 3.6-3.6 4.9-6.1 4.4l-3.3-0.5c-0.2-0.1-0.7-0.1-0.6-0.4 0.1-0.1 0.1-0.1 0.3-0.1l0.5-0.1c0.2 0 0.4 0 0.4-0.1 0.1 0 0.1-0.3 0.2-0.6l1.4-8c0.1-0.3 0.1-0.5 0.1-0.6-0.1-0.1-0.2-0.1-0.4-0.2l-0.4-0.2c-0.2-0.1-0.2-0.2-0.2-0.3 0.1-0.3 0.3-0.2 0.6-0.2l3.5 0.7c3.1 0.5 4.4 3.8 3.9 6.2zm-4.1-5.7l-1.8-0.3-1.7 9.2c0 0.1 0.1 0.2 0.1 0.3q0.1 0.1 0.3 0.1l0.8 0.2c2.4 0.4 4.5-0.5 5.2-3.9 0.6-2.4-0.4-5.1-2.9-5.6z"/>
		<path id="Layer" class="s0" d="m212.3 326.6c-0.2 0-0.3-0.2-0.4-0.4l-0.1-0.4c0-0.1-0.1-0.3-0.2-0.3-0.1-0.1-0.3-0.1-0.5-0.1h-2.9v4.4h2.5c0.2 0 0.4 0.1 0.6 0 0.1-0.1 0.1-0.2 0.2-0.4l0.1-0.4c0-0.2 0.1-0.3 0.3-0.3 0.1 0 0.2 0.2 0.2 0.3v2.4c0 0.1-0.1 0.2-0.2 0.2-0.2 0-0.3-0.2-0.4-0.3v-0.4c-0.1-0.1-0.1-0.3-0.2-0.3-0.1-0.1-0.3-0.1-0.5-0.1h-2.6v3.8c0 0.4 0 0.5 0 0.6 0.1 0.1 0.2 0.1 0.3 0.1l0.5 0.2c0.2 0 0.3 0.1 0.3 0.3 0 0.2-0.3 0.2-0.4 0.2h-2.3c-0.2 0-0.6 0-0.6-0.3 0-0.1 0-0.1 0.3-0.2l0.4-0.1c0.1-0.1 0.3-0.1 0.4-0.1 0-0.1 0-0.4 0-0.7l0.1-8.2c0-0.3 0-0.4-0.1-0.5-0.1-0.1-0.3-0.1-0.4-0.2l-0.4-0.1c-0.2 0-0.3-0.1-0.3-0.2 0-0.3 0.4-0.3 0.6-0.3h5.8l0.1 0.9c0 0.3 0.2 0.9-0.2 0.9z"/>
		<path id="Layer" class="s0" d="m222.8 334.8l-6 0.7c-0.3 0-0.6 0.1-0.6-0.2-0.1-0.1 0-0.2 0.2-0.3l0.4-0.2c0.1 0 0.3-0.1 0.4-0.1 0-0.1 0-0.3 0-0.6l-0.9-8.2c-0.1-0.3-0.1-0.5-0.2-0.5 0-0.1-0.2-0.1-0.3-0.1l-0.5-0.1c-0.2 0-0.3-0.1-0.3-0.2 0-0.3 0.4-0.3 0.6-0.4l5.9-0.6 0.2 0.9c0 0.3 0.2 0.9-0.1 0.9-0.3 0.1-0.3-0.2-0.4-0.4l-0.2-0.3c-0.1-0.1-0.2-0.3-0.2-0.3q-0.2-0.1-0.6 0l-2.9 0.3 0.4 4.4 2.7-0.3c0.2-0.1 0.4 0 0.5-0.1 0.1-0.1 0.1-0.2 0.1-0.4l0.1-0.4c0.1-0.2 0.1-0.4 0.3-0.4 0.1 0 0.2 0.1 0.2 0.3l0.3 2.4q0 0.2-0.2 0.2c-0.2 0.1-0.3-0.1-0.3-0.3l-0.2-0.3c0-0.2 0-0.3-0.2-0.4-0.1 0-0.3 0-0.5 0l-2.7 0.3 0.4 3.8q0.1 0.5 0.1 0.6c0.1 0.1 0.2 0.1 0.3 0.1l2.8-0.3c0.2 0 0.2 0 0.3-0.1 0.2-0.1 0.2-0.2 0.3-0.3l0.3-0.7c0.1-0.2 0.3-0.7 0.5-0.6 0.2 0 0.3 0.2 0.2 0.4z"/>
		<path id="Layer" fill-rule="evenodd" class="s0" d="m233.3 329.3c0.4 2.1-0.8 3.5-2.7 4l-3.1 0.7c-0.3 0.1-0.6 0.2-0.6-0.1-0.1-0.1-0.1-0.2 0.1-0.3l0.4-0.2c0.2-0.1 0.3-0.2 0.4-0.2 0-0.1 0-0.3-0.1-0.6l-1.9-8c0-0.3-0.1-0.5-0.2-0.6 0 0-0.2 0-0.3 0h-0.5c-0.2 0-0.3-0.1-0.3-0.2-0.1-0.3 0.3-0.3 0.5-0.4l3-0.7c1.6-0.4 3 0.6 3.3 1.8 0.5 1.6-0.7 2.5-0.9 2.7 0.8-0.1 2.6 0.3 2.9 2.1zm-5.1-6l-1.4 0.4 0.9 3.9 1.3-0.4c1.2-0.2 1.5-1.4 1.2-2.4-0.2-1-1.1-1.7-2-1.5zm0.9 4.6l-1.3 0.3 1.1 4.5c0 0.1 0 0.2 0.1 0.2 0.2 0.2 0.3 0.1 0.5 0.1l0.9-0.2c1.7-0.4 2.2-1.8 1.8-3.1-0.3-1.4-1.2-2.3-3.1-1.8z"/>
		<path id="Layer" class="s0" d="m238.5 331.2c-0.5 0.2-1.1-0.1-1.3-0.6-0.1-0.6 0.2-1.1 0.7-1.2 0.5-0.2 1.1 0.1 1.2 0.6 0.2 0.5-0.1 1-0.6 1.2z"/>
		<path id="Layer" class="s0" d="m251.4 323.8l0.3 1.8-5.5 2.6-0.3-0.7c0.1-0.3 0.9-2.9 1.3-4.9 0.3-1.5 0.7-2.8 0.2-4-0.4-0.8-1.4-1.6-2.6-1-1.1 0.6-1.3 1.9-1.4 2.8 0 0.2 0.1 0.4-0.1 0.4-0.2 0.1-0.3-0.1-0.4-0.3-0.5-1.2 0.2-3.2 1.7-3.9 1.8-0.8 3 0 3.7 1.4 0.8 1.3 0.2 3.3-0.3 5-0.4 1.6-0.8 2.4-1.3 3.9l3.2-1.5c0.2-0.1 0.3-0.2 0.4-0.4 0.1-0.1 0.2-0.3 0.2-0.5l0.1-0.7c0-0.4 0.1-0.8 0.3-0.9 0.1 0 0.3 0.1 0.4 0.2 0.1 0.2 0.1 0.4 0.1 0.7z"/>
		<path id="Layer" class="s0" d="m257.7 322.3c-0.9 0.6-2.8 0.6-2.9-0.1-0.1-0.5 1.2 0.2 2.4-0.6 1.2-0.8 1.5-2.5 0.7-3.7-1.8-2.7-5.3-0.1-5.4-0.1l-1.3-4.5 3.7-2.3 0.2 0.9-2.9 1.8 0.8 2.8c0.9-0.7 4-2.1 5.7 0.6 1.2 1.7 0.8 4.1-1 5.2z"/>
		<path id="Layer" class="s0" d="m279.9 303.2l-1.4 1.5c-0.1 0.2-0.3 0.5-0.5 0.3-0.1-0.1-0.1-0.2 0-0.3l0.2-0.4c0-0.2 0.1-0.3 0.1-0.4 0-0.1-0.2-0.3-0.5-0.5l-5.6-4.9-0.4-0.3-0.3 0.3-0.7 0.7c-0.1 0.2-0.2 0.2-0.3 0.1-0.2-0.2 0.3-0.6 0.5-1.5 0.1-0.6 0-1.1 0.1-1.3 0.2-0.2 0.4 0 0.5 0.1l6.9 6.1c0.3 0.2 0.4 0.3 0.6 0.3 0 0 0.2-0.1 0.3-0.1l0.3-0.2c0.2-0.1 0.3-0.1 0.4-0.1 0.2 0.1-0.1 0.4-0.2 0.6z"/>
		<path id="Layer" fill-rule="evenodd" class="s0" d="m284.5 297.5c-1.1 1.4-3.2 1.7-4.5 0.7-1.1-0.9-1.3-2.2-1.2-3.3-0.8 0.4-1.9 0.4-2.8-0.3-1.2-0.9-1.4-2.7-0.6-3.8 0.9-1.2 2.6-1.4 3.8-0.5 0.8 0.6 1.1 1.5 1.1 2.5 1.1-0.6 2.3-0.7 3.4 0 1.6 1 1.9 3.2 0.8 4.7zm-8.5-6.2c-0.6 0.7-0.1 1.9 0.7 2.5 0.8 0.5 2.1 0.6 2.6-0.2 0.6-0.9 0-1.9-0.8-2.5-0.8-0.5-1.8-0.7-2.5 0.2zm7.3 2.6c-1.1-0.8-2.5-0.9-3.3 0.1-0.8 1-0.4 2.4 0.7 3.3 1.1 0.8 2.5 0.8 3.3-0.4 0.8-1.2 0.2-2.3-0.7-3z"/>
		<path id="Layer" fill-rule="evenodd" class="s0" d="m289.2 285.2l2 1.2-0.4 0.8-2.1-1.1-2.4 4.3-0.6-0.3-4.3-8.4 0.3-0.6 6.7 3.7 0.6-1.2 0.9 0.4zm-1.3 0.4zm0 0l-5.2-2.9 3.3 6.3z"/>
		<path id="Layer" class="s0" d="m294.3 280l-0.5 1.2-7.4-8.4-1.3 3.1c-0.1 0.2-0.2 0.4-0.2 0.6 0 0.1 0.3 0.5 0.4 0.8l0.2 0.3c0.2 0.3 0.5 0.6 0.3 0.8-0.1 0.1-0.3 0.2-0.5 0l-1.7-1.4 2.3-5.6c0 0 8.4 8.6 8.4 8.6z"/>
		<path id="Layer" class="s0" d="m296.7 272c-0.6 0-1-0.4-1-0.9 0-0.6 0.4-1 1-1 0.5 0 0.9 0.4 0.9 1 0 0.5-0.4 0.9-0.9 0.9z"/>
		<path id="Layer" class="s0" d="m260 307.8l-0.5-0.4-3 2.1 0.3 0.7c0.1 0.1 0.1 0.2 0.3 0.1 0.1 0 0-0.2 0-0.3v-0.2c0-0.1-0.1-0.2 0-0.3 0 0 0 0 0.1-0.1l0.8-0.5 2.6 3.6q0.1 0.1 0.2 0.2c-0.1 0 0 0.1-0.1 0.2l-0.2 0.2c-0.1 0 0 0.1 0 0.2 0.1 0 0.2 0 0.2-0.1l1-0.7c0.1-0.1 0.2-0.1 0.1-0.2q0-0.1-0.2-0.1l-0.2 0.1c-0.1 0.1-0.2 0.1-0.2 0.1q0-0.1-0.2-0.3l-2.6-3.5 0.8-0.6c0.1-0.1 0.1-0.1 0.1-0.1 0.1 0 0.2 0 0.3 0.1l0.1 0.1c0.1 0 0.3 0.1 0.4 0 0.1-0.1 0-0.2-0.1-0.3z"/>
		<path id="Layer" class="s0" d="m264.2 303.8l-0.1 0.2c0 0-0.1 0.1-0.1 0.1 0 0.1 0 0.1 0.1 0.2l2.7 3.2q0.1 0.2 0.2 0.2c0 0 0.1 0 0.2-0.1l0.2-0.1c0.1 0 0.2 0 0.2 0 0.1 0.1-0.1 0.3-0.2 0.4l-0.8 0.6c0 0.1-0.2 0.2-0.2 0.1q-0.1 0 0-0.2l0.1-0.1c0-0.1 0.1-0.2 0.1-0.2 0-0.1-0.1-0.1-0.2-0.2l-1.2-1.5-1.8 1.6 1.2 1.4q0.1 0.2 0.2 0.2c0 0 0.1 0 0.2-0.1h0.2c0.1-0.1 0.1-0.1 0.2 0 0.1 0-0.1 0.2-0.2 0.3l-0.8 0.6c-0.1 0.1-0.2 0.3-0.3 0.1 0 0 0 0 0-0.1l0.2-0.2c0-0.1 0-0.2 0-0.2 0 0 0-0.1-0.1-0.2l-2.7-3.2c-0.1-0.1-0.1-0.2-0.2-0.2 0 0-0.1 0.1-0.2 0.1l-0.2 0.1c-0.1 0-0.1 0-0.2 0 0-0.1 0.1-0.2 0.2-0.3l0.9-0.8c0.1 0 0.1-0.1 0.2 0q0.1 0.1 0 0.2l-0.1 0.2c-0.1 0-0.1 0.1-0.1 0.2q0 0 0.1 0.1l1.2 1.5 1.8-1.6-1.1-1.4c-0.1-0.1-0.2-0.2-0.2-0.2-0.1 0-0.1 0.1-0.2 0.1l-0.2 0.1c-0.1 0-0.2 0-0.2 0-0.1-0.1 0-0.2 0.1-0.3l0.9-0.8c0.1 0 0.2-0.1 0.3 0 0.1 0.1 0 0.1-0.1 0.2z"/>
		<path id="Layer" class="s0" d="m206.3 306.5l49.5-29.7 0.1 0.2-49.4 29.7z"/>
		<path id="Layer" class="s0" d="m190.9 190.7c0.2-1.3 0.8-2.8 2-3.4 1.1-0.6 2.5-1 3.8-1.1 1-0.1 1.9 0.1 2.8 0.4 0.3 0.1 0.6 0.3 0.9 0.3 0.2 0.1 0.1 0.1 0.1 0q0 0.2 0 0.3c0.1 0.9 0.1 1.9-0.1 2.9q-0.2 0.8-0.4 1.5c-0.1 0.5-0.3 0.9-0.6 1.2-0.4 0.3-0.9 0.6-1.4 0.5-0.1 0 0.1 0.1 0 0.1q0-0.1-0.1-0.1-0.1-0.2-0.3-0.4c-0.8-0.6-1.5-1.1-2.3-1.6q-1-0.5-2-1v0.2l1-0.9q0.1-0.1 0.2-0.2c0.1 0-0.1 0.1 0 0q0.1 0 0.4 0c1 0 2.7 0.1 3.1 1.2l0.3-0.1c-0.3-0.5-1-0.8-1.6-1-1.1-0.4-2.3-0.5-3.5-0.4-0.6 0.1-2.8 0.5-2.6 1.5 0.1 0.2 0.3 0.1 0.3 0 0-0.1 0.1-0.4 0.3-0.5 0.6-0.5 1.6-0.7 2.4-0.7 1-0.1 2 0 2.9 0.3 0.5 0.2 1.3 0.5 1.5 1 0.1 0.1 0.3 0 0.3-0.1-0.5-1.3-2.1-1.4-3.2-1.4-0.3 0-0.6-0.1-0.8 0.1-0.4 0.3-0.8 0.7-1.2 1-0.1 0-0.1 0.2 0 0.2q1.1 0.6 2.2 1.2c0.9 0.4 1.7 1.1 2.4 1.7 0.5 0.5 1.5-0.1 1.9-0.4 0.3-0.3 0.5-0.7 0.6-1.1 0.2-0.7 0.4-1.3 0.5-2 0.2-1 0.2-2 0.1-3q0-0.1-0.1-0.2c-0.8-0.3-1.8-0.6-2.7-0.8-1.3-0.2-2.8 0.2-4 0.6-0.6 0.2-1.2 0.4-1.7 0.8-0.4 0.4-0.7 0.8-1 1.3-0.3 0.6-0.5 1.3-0.7 2 0 0.1 0.3 0.2 0.3 0z"/>
		<g id="Layer">
			<path id="Layer" class="s0" d="m194.2 186.4l6.8-6.1-4-0.4 10.1-6.3-3.9 9.8-1-2.4-5.7 4.9"/>
			<path id="Layer" class="s0" d="m194.4 186.6q3-2.7 5.9-5.4l0.9-0.7c0.2-0.2 0-0.5-0.2-0.5q-2-0.2-4.1-0.4 0.1 0.2 0.2 0.5 4.4-2.7 8.9-5.5 0.6-0.3 1.3-0.7l-0.4-0.3q-1.8 4.2-3.5 8.5l-0.5 1.2 0.5-0.1q-0.5-1.1-1-2.3c-0.1-0.2-0.3-0.2-0.4-0.1q-2.9 2.5-5.7 4.9c-0.2 0.3 0.2 0.6 0.4 0.4q2.8-2.4 5.6-4.9l-0.4-0.1q0.5 1.2 1 2.4c0.1 0.2 0.5 0.1 0.5-0.1q1.8-4.2 3.5-8.5l0.5-1.2c0.1-0.2-0.2-0.4-0.4-0.3q-4.5 2.7-8.9 5.4-0.7 0.4-1.3 0.8c-0.2 0.2-0.1 0.5 0.2 0.5q2 0.2 4 0.5l-0.2-0.5q-3 2.7-6 5.4l-0.8 0.7c-0.3 0.3 0.1 0.7 0.4 0.4z"/>
		</g>
		<path id="Layer" class="s0" d="m201.2 186.5c0.7-1.3 1.7-1.9 3.2-1.9 1.1 0.1 2.3 0.3 3.3 0.8 2 1 3.2 2.9 5 4.2 1.5 1 3 2.1 4.6 2.9 0.1 0 0.3 0.1 0.3 0.1 0.1 0.1 0-0.1-0.1 0.1-0.1 0.5-1.1 0.5-1.5 0.5-0.7 0-1.4 0-2 0-0.2 0-0.7 0.1-0.6 0.3 0.7 1 1.3 1.9 2.1 2.8 0.9 1.2 1.9 2 3.1 2.8 1.1 0.7 2.2 1.5 3.3 2.1 0.1 0.1 0.4 0.1 0.5 0.2 0.2 0.4-1.2 0.6-1.6 0.6-0.4 0-0.8 0-1.3 0.1 0 0-0.5 0.2-0.3 0.3 1.5 0.9 2.7 2.6 3.7 4 0.9 1.6 1 3.5 2 5 1.1 1.6 2.7 2.9 3.4 4.8 0.5 1.2 0.7 2.5 0.8 3.7l0.8-0.2c-0.6-0.7-1.1-1.6-2.1-1.2-0.8 0.4-1.3 1.4-1.8 2.1-0.5 0.7-1.1 1.3-2 1.2-0.6-0.1-1.2-0.5-1.7-0.7q-1-0.5-1.8-1.2c-0.2-0.1-0.6 0-0.8 0.2-1 1-2.7 2.5-4.2 2-1.3-0.4-2.5-1.2-3.5-2-0.1-0.2-0.6 0-0.7 0.1-1 1.1-2.5 2.3-4 1.6-1-0.4-1.8-1.2-2.5-2-0.2-0.2-0.6 0-0.8 0.1q-0.3 0.3-0.6 0.5c-0.9 0.6-1.7 0.5-2.6 0q-1.1-0.6-2.2-1.3c-0.2-0.1-0.7 0-0.8 0.2-0.1 0.2-0.1 0.1 0.2 0l0.5 0.1c0.1-0.7 0.6-1.3 0.8-1.9q0.6-1.4 1.1-2.8c0.9-2.3 1.7-4.6 2-7 0.2-1.3 0.2-2.6 0.1-3.9-0.1-1.4-0.1-2.9-0.7-4.3-0.5-1.2-1.7-2-2.4-3.2-0.4-0.7-0.6-1.3-0.6-2.1 0-0.5 0-0.8-0.6-0.9l-0.3 0.3c1.1-0.2 2.2-0.7 2.6-1.9 0.3-0.9 0.4-1.8 0.5-2.7 0.1-0.8-0.2-1.8 0.2-2.5 0.1-0.1-0.7-0.1-0.8 0.1-0.2 0.4-0.1 0.7-0.1 1.2 0 0.8-0.1 1.6-0.2 2.5-0.2 1.3-0.5 2.7-2.1 3-0.1 0-0.7 0.2-0.4 0.3 0.7 0.2 0.4 1.3 0.6 1.9 0.1 0.5 0.4 1 0.8 1.5 0.7 1.1 1.8 2 2.2 3.3 0.4 1.4 0.5 3 0.5 4.4 0.1 1.3 0.1 2.5-0.1 3.7-0.5 2.3-1.2 4.5-2 6.6q-0.5 1.4-1.1 2.7c-0.2 0.6-0.7 1.2-0.8 1.8 0 0.2 0.5 0 0.6 0 0.1 0 0.2-0.2 0.3-0.3l-0.7 0.2c1 0.7 2.5 1.9 3.9 1.9 1.1-0.1 2.2-0.7 3-1.4l-0.8 0.1c1 1.2 2.5 2.5 4 2.4 1.6-0.1 3-1.1 4-2.2l-0.7 0.1c1.2 1.1 2.9 2.4 4.6 2.3 1.7 0 3.4-1.4 4.5-2.6l-0.7 0.2c1.2 0.9 3 2.2 4.6 1.9 1.1-0.1 1.8-0.8 2.4-1.6 0.3-0.4 0.6-1 1-1.3 0.6-0.6 1 0.3 1.4 0.8 0.2 0.1 0.8-0.1 0.8-0.3-0.1-1.2-0.4-2.5-0.8-3.7-0.8-2-2.5-3.4-3.6-5.1-0.5-0.8-0.7-1.5-0.9-2.3-0.2-0.9-0.6-1.8-1.1-2.6-1-1.4-2.2-3-3.6-3.9l-0.3 0.2c0.7-0.2 1.5 0 2.2-0.1 0.6-0.2 1.1-0.5 1.4-1 0-0.1-0.1-0.1-0.1-0.1-0.9-0.2-1.7-0.9-2.4-1.3q-1.4-0.9-2.8-1.9c-1.6-1.3-2.6-3.1-3.8-4.7l-0.5 0.3c1.3 0 4.1 0.5 4.8-1.1 0-0.1-0.1-0.1-0.2-0.1-0.6-0.1-1.4-0.8-1.9-1.1q-1.4-0.9-2.7-1.8c-1.8-1.2-3-3.1-4.9-4.2-2.7-1.4-6.7-1.6-8.3 1.4-0.1 0.1 0.7 0.1 0.8-0.1z"/>
		<path id="Layer" fill-rule="evenodd" class="s0" d="m204.7 189.4q0 0 0 0 0 0 0 0zm-1.5-0.5c-0.5-0.3-0.9-1.2-0.9-1.2l-0.1-0.1 0.1-0.1c0.5-0.3 0.8-0.4 1.4-0.1 0.6 0.3 1.5 1.7 1.6 1.8l0.1 0.2h-0.2q-0.3 0-0.5 0c-0.7 0-1.2-0.2-1.5-0.5zm-0.6-1.2c0.1 0.2 0.4 0.8 0.7 1 0.4 0.3 0.9 0.5 1.6 0.4-0.3-0.4-1-1.3-1.3-1.5-0.4-0.2-0.7-0.2-1 0.1z"/>
		<g id="Layer">
			<path id="Layer" class="s0" d="m203.2 187.4c0 0 0.4 0.1 0.3 0.5-0.1 0.4-0.2 0.9-0.2 0.9l-0.9-1.2 0.8-0.2z"/>
			<path id="Layer" fill-rule="evenodd" class="s0" d="m203.3 189.1zm-1.1-1.6l0.9-0.2h0.1c0 0 0.2 0 0.4 0.2q0.1 0.2 0 0.4c0 0.5-0.2 0.9-0.2 0.9l-0.1 0.3zm0.5 0.1l0.6 0.9c0.1-0.2 0.1-0.4 0.2-0.7q0-0.1-0.1-0.2c0 0-0.1-0.1-0.2-0.1 0 0-0.5 0.1-0.5 0.1z"/>
		</g>
		<path id="Layer" class="s0" d="m193 274.7c0.6-0.7 1.4-1.5 2.4-1 0.6 0.3 1 1.2 1.2 1.8q0 0.1 0 0.1c1.1-0.7 2.3-0.6 3.4-1.2 1.2-0.6 1.8-1.7 2-3 0.2-1 0.2-2.1 0.1-3.1-0.1-0.9-0.4-1.7-0.2-2.6 0.3-1.3 0.9-2.6 1.4-3.8 0.6-1.4 1-2.8 1.4-4.3 0.3-1.5 0.6-3.3-0.3-4.8-1.4-2.4-3.6-4.5-6.5-4.7 0 0 0 0.6 0.1 0.7 2.6 0.2 4.8 1.9 6.2 4.1 0.2 0.3 0.5 0.7 0.6 1.1 0.1 0.4 0 0.8 0 1.2q-0.1 1.3-0.5 2.6c-0.3 1.5-0.9 2.9-1.5 4.3-0.5 1.1-1.1 2.3-1.1 3.5-0.1 1.1 0.3 2.2 0.3 3.4 0.1 1.2-0.1 2.7-0.9 3.7-0.9 1.2-2.2 1.4-3.5 1.7-0.2 0.1-0.9 0.5-1 0.5-0.2-0.1 0 0-0.2-0.2-0.2-0.4-0.3-0.8-0.6-1.2-0.9-1.2-2.2-0.4-2.9 0.5-0.1 0.1 0.2 0.6 0.1 0.7z"/>
		<path id="Layer" class="s0" d="m198.1 248.2c-2.4-0.1-5.1 0.7-7 2.1-1.9 1.4-2.8 3.5-3 5.7-0.1 0.8 0 1.5 0 2.3 0 1.3-0.3 2.6-0.4 3.9-0.3 2.5-0.3 4.9 1.1 7.1 1.1 1.8 2.4 3.5 3.8 5.2 0.1 0.2 0.9-0.1 0.7-0.3-1.4-1.6-2.6-3.3-3.7-5.1-1.8-2.7-1.3-5.8-0.9-8.9 0.3-2.3 0-4.6 0.8-6.8 1.2-3.2 5-4.9 8.3-4.8 0.3 0.1 0.8-0.4 0.3-0.4z"/>
		<path id="Layer" class="s0" d="m227.4 275.6c-0.1-0.8 0.1-1.7-0.2-2.5-0.3-1.1-1.6-0.7-2.5-0.3-0.5 0.3-0.9 0.7-1.3 1-0.1 0-0.2 0.2-0.2 0.2-0.2 0-0.6-0.3-0.8-0.4-0.5-0.3-0.9-0.7-1.2-1.3-0.6-0.8-0.4-1.8-0.3-2.8 0.2-1.9 0.7-4.3-0.3-6.1-1.1-2-1.9-4-1.7-6.3 0.1-1.5 0.3-3.2 0.7-4.6 1-3.5 5.2-4.6 8.4-4.3 0 0 0-0.7-0.1-0.7-2.9-0.2-6.9 0.7-8.2 3.7-0.5 1.3-0.6 2.7-0.8 4.1-0.3 1.4-0.2 2.8 0.1 4.2 0.2 1.2 0.5 2.3 1 3.3 0.3 0.6 0.8 1.2 1 2 0.2 0.9 0 1.9-0.1 2.8-0.2 2.1-0.7 4.5 1 6.1 0.2 0.3 1.1 1 1.4 1 0.1-0.1 0.4-0.4 0.4-0.4q0.4-0.4 0.8-0.6c0.6-0.4 1.7-0.9 2.4-0.6 0.6 0.3 0.4 1.3 0.4 1.8 0 0.2 0.1 0.5 0.2 0.7z"/>
		<path id="Layer" class="s0" d="m227.7 248.4c1.6 0.2 3 0.6 4.1 1.8 1 1.1 1.9 2.4 2.4 3.8 1 2.7 0.1 5.4-0.1 8.1-0.1 1.2 0.1 2.4 0.1 3.7 0 0.7 0 1.5-0.3 2.3-0.2 0.7-0.7 1.4-1 2.1-0.6 1.2-1.2 2.4-2.3 3.2-0.8 0.6-1.9 1-2.8 1.1-0.9 0.1-0.9 1.3-0.1 1.2 1.9-0.2 3.8-1.2 5-2.7 0.8-0.9 1.2-2.1 1.8-3.1 0.6-1.2 1-2.4 1.1-3.8 0-1.1-0.2-2.3-0.2-3.4 0-1.1 0.2-2.2 0.4-3.3 0.4-2.6 0.3-5-1.1-7.4-0.7-1.2-1.6-2.7-2.8-3.5-1.1-0.8-2.5-1.1-3.8-1.3-0.8-0.1-1.3 1.1-0.4 1.2z"/>
		<path id="Layer" class="s0" d="m201.9 271.1c-0.2 1.3 0.5 3.3 2.2 2.8 0.9-0.3 1.9-1 2.6-1.7 0.2-0.3 0.1-0.3 0.2-0.1 0.2 0.4 0.3 0.7 0.4 1 0.8 1.3 1.8 1.2 2.9 0.4q0.6-0.4 1.2-1c0 0 0.3-0.3 0.3-0.3 0.1 0 0.1 0.1 0.1 0.1 0.4 0.3 0.6 0.8 1.1 1.1 0.5 0.3 1.1 0.3 1.6-0.1 0.3-0.2 1.5-2 1.4-2 0.1 0 0.5 0.8 0.6 1 0.5 0.4 1.3 0.7 2 0.5 1-0.2 1.8-1.2 2.2-2.1 0.1-0.1-0.2-0.5-0.1-0.7-0.4 0.9-1.3 1.9-2.3 2.2-1.1 0.2-2.2-0.6-2.6-1.6-0.3 0.8-0.8 1.8-1.5 2.2-1.1 0.5-2.1-0.4-2.6-1.3-0.7 0.8-1.7 1.7-2.7 1.9-1.2 0.3-1.9-1-2.1-2 0 0-0.1-0.1-0.1-0.1-0.7 0.7-1.4 1.4-2.3 1.8-1.1 0.5-2.5 0.1-2.4-1.3 0-0.2-0.2-0.5-0.1-0.7z"/>
		<path id="Layer" class="s0" d="m195.2 278.1c-0.2 2.1-0.5 4.1-0.5 6.2 0 0.3 0.5 0.3 0.7 0.1 1.7-1.3 4.3-2.6 5.1-4.8h-0.8c-0.4 2.7-0.4 5.5-0.3 8.3 0 0.3 0.5 0.3 0.6 0.1 2-1.7 4.6-3.3 5.6-5.9h-0.8c0 2.8 0.5 5.8 1.4 8.4 0.1 0.3 0.6 0.2 0.8 0 1.7-1.8 4.1-3.9 4.7-6.5l-0.8 0.2c1 2 2.1 3.9 3.3 5.8 0.2 0.3 0.6 0.1 0.7-0.1 0.6-1.2 1.3-2.4 1.9-3.6 0.4-0.8 0.8-1.7 0.9-2.6l-0.8 0.2c1.1 1.5 2.4 2.4 3.8 3.5 0.3 0.1 0.6 0 0.7-0.2 0.9-1.7 1.5-3.8 1.3-5.8l-0.6 0.4c1.1 0.6 2.4 0.8 3.6 1.1 0.4 0.1 0.8-0.5 0.2-0.6-1.1-0.2-2.3-0.5-3.4-1-0.2-0.1-0.6 0.1-0.6 0.4 0.2 1.8-0.4 3.8-1.2 5.4l0.7-0.2c-1.5-1-2.7-1.9-3.8-3.3-0.1-0.3-0.7-0.2-0.7 0.2-0.1 0.9-0.5 1.8-1 2.7-0.5 1.1-1.1 2.2-1.7 3.3l0.7-0.1c-1.1-1.9-2.3-3.7-3.2-5.7-0.1-0.3-0.7-0.2-0.8 0.1-0.3 1.3-1.2 2.4-2 3.3-0.8 1-1.7 2-2.6 2.9h0.7c-0.9-2.6-1.4-5.5-1.4-8.2 0-0.4-0.7-0.3-0.8 0-0.9 2.4-3.4 3.9-5.3 5.6l0.7 0.1c-0.1-2.7-0.2-5.5 0.3-8.3 0.1-0.3-0.6-0.2-0.7 0-0.8 2.1-3.3 3.4-5 4.6l0.7 0.1c0-2 0.2-4.1 0.4-6.1 0.1-0.4-0.7-0.3-0.7 0z"/>
		<path id="Layer" class="s0" d="m202.4 272.7q-1 2.9-2 5.7l-0.3 0.8c-0.1 0.1 0 0.3 0 0.4 0 0 0.1 0.2 0.1 0.3q1-2.8 2.1-5.7l0.3-0.8c0-0.1-0.1-0.3-0.1-0.3 0-0.1-0.1-0.3-0.1-0.4z"/>
		<path id="Layer" class="s0" d="m206.7 271.3q-0.7 4.6-1.4 9.2l-0.2 1.3c0 0.2 0.2 0.4 0.2 0.6q0.7-4.6 1.4-9.1l0.2-1.3c0-0.3-0.2-0.5-0.2-0.7z"/>
		<path id="Layer" class="s0" d="m211.6 271.5q-0.1 5.4-0.3 10.9v1.5c0 0.2 0.2 0.5 0.1 0.7q0.2-5.5 0.3-10.9v-1.6c0-0.2-0.1-0.5-0.1-0.6z"/>
		<path id="Layer" class="s0" d="m215.7 270.9q0.6 5.6 1.3 11.2l0.1 1.6c0 0.2 0.3 0.2 0.3 0q-0.6-5.6-1.3-11.2l-0.1-1.6c-0.1-0.2-0.3-0.2-0.3 0z"/>
		<path id="Layer" class="s0" d="m219.1 272.2q1.4 4.1 2.7 8.2l0.4 1.2c0 0.2 0.3 0.1 0.3-0.1q-1.4-4.1-2.7-8.2l-0.4-1.2c-0.1-0.1-0.3 0-0.3 0.1z"/>
		<path id="Layer" fill-rule="evenodd" class="s0" d="m184.2 288.2zm-0.2-0.3c-1.8-2.1-3-4.2-5.5-8.9-2.6-4.9-1-12.9 2.1-16.9 3.2-4.3 5.8-9.4 5.8-11h0.3c0 0 0.1 0.8 0 1.7-0.1 0.9-1.9 4.9-2.9 6.5q-0.4 0.6-1 1.3c-1.1 1.4-2.5 3.2-3.5 5.8-1.3 3.6-1.2 6.4-0.6 9.6 0.5 3.1 4.3 9.5 5.5 10.5 0.3 0.2 0.4 0.3 0.4 0.4v0.1c0 0-0.3 0.4-0.4 0.9v0.3zm2.5-35.8c-0.8 2.3-3.2 6.7-5.7 10-3 4-4.6 11.9-2.1 16.7 2.4 4.5 3.6 6.6 5.3 8.7 0.1-0.3 0.2-0.6 0.3-0.7q-0.1-0.1-0.2-0.2c-1.3-1-5.1-7.5-5.7-10.7-0.5-2.7-0.8-5.8 0.7-9.7 0.9-2.6 2.4-4.5 3.5-5.8q0.6-0.8 1-1.3c1-1.6 2.8-5.5 2.9-6.4q0-0.3 0-0.6z"/>
		<path id="Layer" fill-rule="evenodd" class="s0" d="m197.3 296c-0.6 0-1.2 0-1.7-0.1-1.2-0.3-4.4-1.4-5.5-2.8-0.3-0.4-0.1-0.7 0-0.8q0.1-0.1 0.3-0.2v-0.1q0.2 0.1 0.3 0.1c0.2 0.1 0.5 0.2 0.6 0.3l0.1 0.1v0.1c0 0-0.1 0-0.1 0 0.8 0.6 2 1.4 2.8 1.7l0.2 0.1c1 0.3 3.5 1.1 5.1 1l0.1 0.3c-0.4 0.2-1.3 0.3-2.2 0.3zm-6.8-3.6q-0.1 0-0.2 0.1c-0.1 0.1-0.1 0.2 0.1 0.4 1 1.4 4.1 2.5 5.3 2.7 0.8 0.2 2 0.2 2.8 0.1-1.5-0.1-3.4-0.8-4.3-1.1l-0.2-0.1c-1.1-0.3-2.9-1.6-3.5-2.1z"/>
		<path id="Layer" class="s0" d="m184 288.2c-0.7-0.4-3.3-1.9-4.8-2.4-0.5-0.2-0.8-0.3-1.1-0.4-0.5-0.2-0.8-0.3-1.7-0.4-1.3-0.1-2.6 0.1-2.6 0.1l-0.1-0.3c0.1 0 1.4-0.2 2.8-0.1 0.9 0.1 1.2 0.3 1.7 0.5 0.3 0.1 0.6 0.2 1.1 0.4 1.5 0.4 4.2 1.9 4.8 2.4z"/>
		<path id="Layer" class="s0" d="m173.7 290.5c0 0-0.1-2 0.2-3.2 0.4-1.3 1-1.9 1.5-2.6l0.2 0.2c-0.5 0.6-1 1.3-1.4 2.5-0.4 1.2-0.3 3.1-0.3 3.1 0 0-0.2 0.1-0.2 0z"/>
		<path id="Layer" class="s0" d="m177.2 286.3h-0.3c0.1-0.7 0.2-0.9 0.2-1.1q0.1-0.1 0.1-0.2l0.3 0.1q-0.1 0.1-0.1 0.2c-0.1 0.2-0.2 0.4-0.2 1z"/>
		<path id="Layer" class="s0" d="m180.9 283.3c-1-1-2.5-2.1-3.7-2.6-1.1-0.4-1.9-0.6-1.9-0.6l0.1-0.3c0 0 0.7 0.2 1.9 0.7 1.2 0.4 2.8 1.5 3.8 2.6l-0.2 0.2z"/>
		<path id="Layer" class="s0" d="m182.7 285c-0.3-0.9-0.7-2.6 0.3-3.5 0.8-0.8 2.1-2.2 2.1-2.2l0.2 0.2c0 0-1.3 1.4-2.1 2.2-0.9 0.8-0.5 2.4-0.3 3.2z"/>
		<path id="Layer" class="s0" d="m179.6 279.6c-0.3-1.5 0-4.5 2.2-5.4l0.1 0.3c-2.2 0.8-2.2 3.9-2 5 0 0-0.3 0-0.3 0.1z"/>
		<path id="Layer" class="s0" d="m177.4 275.7c-0.5-1-1.8-3.4-3.7-4.2l0.1-0.3c2 0.9 3.3 3.4 3.9 4.4l-0.3 0.1z"/>
		<path id="Layer" class="s0" d="m178.9 264.9c-0.2-0.5-0.5-1.2-0.2-2.2l0.3 0.1c-0.3 0.9-0.1 1.5 0.1 2v0.1h-0.2z"/>
		<path id="Layer" class="s0" d="m177 254.6c0 0 2.1 1.4 2.4 3.5 0.2 2-0.6 4.8-0.6 4.8 0 0-1.6-2.1-2-3.8-0.4-1.6 0.2-4.5 0.2-4.5z"/>
		<path id="Layer" class="s0" d="m182.3 250.5c0 0-1.4 1.6-1.3 3.8 0.1 2.2 1.6 4.8 1.6 4.8 0 0 1.1-3.3 1-4.7-0.1-1.4-1.3-3.9-1.3-3.9z"/>
		<path id="Layer" class="s0" d="m181.3 262.9c0 0 1.1-1.3 2.1-1.4 1-0.1 2.9 1 2.9 1 0 0-1.5 0.9-2.2 0.9-0.8 0.1-2.8-0.5-2.8-0.5z"/>
		<path id="Layer" class="s0" d="m173.8 271.4c-0.2 0.3-0.7 0.4-1.1 0.1-0.5-0.2-0.7-0.6-0.5-0.9 0.1-0.4 0.6-0.5 1.1-0.2 0.4 0.2 0.6 0.6 0.5 0.9z"/>
		<path id="Layer" class="s0" d="m183.4 273.4c0.2 0.3 0 0.8-0.4 1.1-0.4 0.3-1 0.2-1.2-0.1-0.2-0.3 0-0.8 0.4-1.1 0.4-0.3 1-0.3 1.2 0.1z"/>
		<path id="Layer" class="s0" d="m174.5 280.5c-0.6 0-1-0.2-1-0.6 0-0.3 0.4-0.6 1-0.6 0.5 0 0.9 0.3 0.9 0.6 0 0.4-0.4 0.6-0.9 0.6z"/>
		<path id="Layer" class="s0" d="m187 278.1c0.2 0.4-0.1 0.9-0.6 1.2-0.6 0.3-1.2 0.2-1.4-0.1-0.2-0.4 0.1-0.9 0.7-1.2 0.5-0.3 1.1-0.2 1.3 0.1z"/>
		<path id="Layer" class="s0" d="m173.8 284.8c0 0-2.5-0.2-3.7 0.1-1.2 0.3-3.7 2.4-4 3 0.9 0.3 3 0.6 4.2 0.2 1.1-0.4 3.5-3.3 3.5-3.3z"/>
		<path id="Layer" class="s0" d="m173.7 290.3c0 0-1.2 2.3-1 4 0.2 1.6 1.4 4.2 2.4 4.8 0.4-0.9 0.9-3.2 0.6-4.5-0.2-1.2-2-4.3-2-4.3z"/>
		<path id="Layer" class="s0" d="m177.1 286c0 0-1 1.7-0.7 3.5 0.4 1.7 1 3.8 2 4.7 0.5-1 1-3.4 0.7-5-0.4-1.6-2-3.2-2-3.2z"/>
		<path id="Layer" class="s0" d="m191.5 250.4c-0.2 0.5-0.3 1.2-0.2 1.8 0 0.1 0.1 0.1 0.2 0 1-1.2 2.5-2.2 4.1-2.6l-0.2-0.2c-0.6 0.7-1.1 1.4-1.3 2.3-0.1 0.7 0.1 1.5 0.5 2.1 0.1 0.1 0.2 0.1 0.3 0 0.1-0.5 0.3-0.9 0.5-1.3 0.3-0.4 0.7-0.8 1.1-1.1 0.7-0.4 1.3-0.8 2-1.1l-0.2-0.2c-0.3 0.8-0.9 1.7-1 2.6 0 0.7 0.3 1.4 0.5 2.1 0.1 0.1 0.2 0.1 0.3 0 0.7-1.3 1.4-2.9 2.9-3.4l-0.1-0.2c-0.3 0.8-0.6 1.6-0.5 2.4 0 0.8 0.3 1.5 0.5 2.2 0.1 0.1 0.2 0.2 0.3 0.1 0.4-0.7 0.6-1.4 1.1-2 0.3-0.5 0.9-0.9 1.4-1.2l-0.2-0.1c-0.2 0.7-0.5 1.4-0.4 2.3 0 0.6 0.3 1.3 0.5 2 0.1 0.1 0.2 0.1 0.3 0 0.4-0.8 0.4-1.6 1-2.3 0.2-0.2 0-0.4-0.2-0.2-0.6 0.7-0.6 1.5-1.1 2.3h0.3c-0.3-0.6-0.5-1.3-0.6-2 0-0.7 0.2-1.4 0.5-2.1 0-0.1-0.1-0.2-0.2-0.1-0.5 0.2-1 0.6-1.4 1.1-0.6 0.6-0.8 1.4-1.3 2.1h0.3c-0.3-0.6-0.5-1.4-0.6-2.1 0-0.8 0.2-1.5 0.5-2.3 0-0.1-0.1-0.2-0.2-0.2-1.6 0.6-2.4 2.1-3.1 3.6h0.3c-0.3-0.6-0.5-1.3-0.5-2 0-0.9 0.6-1.7 0.9-2.5 0.1-0.1 0-0.2-0.1-0.2-0.8 0.4-1.6 0.8-2.2 1.3-0.9 0.7-1.3 1.4-1.6 2.4l0.2-0.1c-0.4-0.6-0.6-1.4-0.3-2.1 0.2-0.8 0.6-1.4 1.1-2 0.1-0.1 0-0.2-0.1-0.2-1.6 0.4-3.2 1.5-4.2 2.7l0.2 0.1c-0.1-0.6 0-1.2 0.2-1.7 0.1-0.1-0.2-0.2-0.2-0.1z"/>
		<path id="Layer" class="s0" d="m188.5 259.5q0 0.1 0 0.2c0.9-1.6 2.3-3 3.9-3.8l-0.2-0.7c-0.4 1-0.9 1.9-0.8 3 0.1 0.8 0.3 1.7 0.9 2.2 0.1 0.2 0.1 0.3 0.2 0.1 0.1-0.2 0.1-0.7 0.1-0.9 0.2-0.5 0.4-1 0.8-1.4 0.6-0.9 1.5-1.6 2.3-2.2l-0.2-0.7c-0.2 1-0.6 2.1-0.4 3.1 0.1 0.9 0.4 1.6 0.9 2.3 0.3 0.5 0.2 0.2 0.3-0.2q0.2-0.7 0.4-1.3c0.4-1.1 1-2 2-2.6l-0.2-0.6c-0.3 1.7 0 3.3 0.9 4.9 0.2 0.3 0.3 0.8 0.5 0.2 0.2-0.5 0.2-1 0.4-1.5 0.4-1 1.2-1.8 2.1-2.3l-0.2-0.7c-0.3 0.5-0.6 0.9-0.6 1.5-0.1 0.5 0 1 0.1 1.4q0.3 1.3 0.8 2.5c0.1-0.3 0.3-0.6 0.4-1 0.2-0.4 0.2-0.9 0.4-1.4 0.3-0.6 0.8-1.2 1.3-1.6 0.1-0.1-0.2-0.7-0.1-0.7-1.2 0.9-1.4 2.2-1.9 3.5-0.1 0.1-0.2 0.4-0.2 0.5-0.2 0 0 0-0.1-0.1-0.2-0.3-0.3-0.8-0.4-1-0.4-1.2-0.1-1.9 0.5-2.9 0-0.1-0.2-0.7-0.2-0.7-0.5 0.3-1.1 0.7-1.4 1.2-0.7 0.8-0.7 1.6-1 2.4 0 0.1-0.1 0.6-0.2 0.6 0 0-0.1-0.2-0.1-0.2-0.3-0.3-0.5-0.8-0.6-1.1-0.5-1-0.4-1.9-0.2-2.9 0-0.1-0.2-0.7-0.2-0.7-1.3 0.8-2 2.4-2.3 3.9 0 0.1-0.1 0.5-0.1 0.6-0.1 0-0.2-0.3-0.2-0.3-0.3-0.3-0.5-0.8-0.6-1.2-0.3-0.9 0.2-2.1 0.4-2.9 0-0.1-0.2-0.7-0.1-0.7-1.3 0.9-2.8 2.1-3.1 3.7-0.1 0.2-0.1 0.5-0.1 0.7-0.2 0.6 0 0.2-0.1 0.2-0.3-0.1-0.7-1-0.7-1.2-0.2-1 0.4-2 0.8-2.9 0 0-0.2-0.6-0.2-0.6-0.7 0.3-1.4 0.8-2 1.4q-0.5 0.6-1 1.2-0.3 0.3-0.5 0.6c-0.1 0.1-0.3 0.7-0.3 0.4 0 0.2 0 0.5 0.1 0.7z"/>
		<path id="Layer" class="s0" d="m190.2 271c0.5-0.9 1.1-1.8 1.9-2.4l-0.2-0.7c-0.2 0.9-0.3 1.7 0 2.6 0.1 0.8 0.5 1.4 1.1 1.8 0-1 0-1.7 0.5-2.6q0.6-0.9 1.2-1.7l-0.1-0.6c0 0.9-0.1 1.8 0.2 2.7 0.2 0.7 0.7 1.3 1.3 1.8 0-1.4 0-2.9 1.1-3.9l-0.1-0.6c0.1 0.6 0.1 1.2 0.3 1.8 0.2 0.8 0.6 1.4 1.2 2 0 0.1 0.2 0.2 0.2 0.3 0.2 0.1 0.1 0.1 0.2-0.1 0.1-0.4 0-0.8 0-1.1 0-0.8 0.4-1.7 0.9-2.2l-0.1-0.7c0 0.8 0.1 1.4 0.3 2.1 0.2 0.8 0.8 1.4 1.4 1.9 0-0.6-0.1-1.2-0.1-1.8 0-0.5 0.2-1.1 0.6-1.5 0.1-0.1-0.2-0.6-0.1-0.7-0.8 0.9-0.6 1.9-0.5 3 0 0.3 0 0.4-0.2 0.2q-0.4-0.3-0.6-0.7c-0.3-0.3-0.6-0.6-0.6-1-0.1-0.3 0-0.6 0-0.8 0-0.1-0.2-0.7-0.2-0.7-0.4 0.4-0.7 1-0.8 1.5-0.1 0.2-0.2 2-0.2 2-0.1 0-0.4-0.3-0.4-0.4q-0.4-0.4-0.7-0.8-0.2-0.3-0.3-0.6c-0.1-0.1-0.2-0.6-0.1-0.2q-0.1-0.5-0.1-1c0-0.1-0.2-0.6-0.2-0.6-0.9 0.9-1.1 2.2-1.1 3.4 0 0.1 0 0.3 0 0.4 0 0.2 0 0.1-0.1 0.1-0.2-0.1-0.5-0.6-0.6-0.7-0.3-0.4-0.5-0.7-0.5-1.2q0-0.6 0-1.3c0-0.1-0.2-0.6-0.1-0.7-0.8 1-1.8 2.2-1.8 3.5q0 0.2 0.1 0.5c0 0.1 0.1 0.3-0.1 0.3-0.2-0.1-0.5-0.5-0.6-0.6-0.6-0.8-0.3-1.6-0.1-2.5 0-0.1-0.2-0.6-0.2-0.6-0.8 0.6-1.3 1.5-1.8 2.4-0.1 0.2 0.2 0.5 0.1 0.7z"/>
		<path id="Layer" class="s0" d="m188 265.4q0 0.1 0 0.2c0.8-1.4 2-2.7 3.5-3.4l-0.2-0.7c-0.4 0.9-0.8 1.7-0.7 2.7 0.1 0.7 0.3 1.6 0.8 2.1 0.1 0.1 0.1 0.2 0.2 0.1 0.1-0.2 0.1-0.7 0.1-0.9 0.1-0.5 0.4-0.9 0.7-1.3 0.5-0.7 1.3-1.3 2-1.9l-0.1-0.7c-0.2 0.9-0.6 1.9-0.4 2.8 0.1 0.8 0.4 1.5 0.8 2.1 0.2 0.5 0.2 0.2 0.3-0.2q0.1-0.6 0.3-1.2c0.4-0.9 0.9-1.7 1.8-2.2l-0.2-0.7c-0.2 1.6 0 3 0.8 4.4 0.1 0.1 0.1 0.3 0.3 0.4 0.1 0.2 0 0.2 0.1 0 0.3-0.5 0.3-1 0.4-1.5 0.3-0.9 1.1-1.6 1.9-2l-0.2-0.7c-0.4 0.8-0.6 1.4-0.5 2.3q0.2 1.1 0.8 2c0.1 0.1 0.2 0.4 0.3 0.4 0.1 0.1 0 0.2 0.1-0.1 0.1-0.3 0.1-0.7 0.1-1 0.2-1 0.7-1.8 1.4-2.3 0.1-0.1-0.2-0.6-0.1-0.7-0.5 0.3-0.8 0.8-1.1 1.3-0.3 0.7-0.2 1.4-0.4 2-0.1 0.4-0.1 0.3-0.3 0q-0.3-0.5-0.6-1.1c-0.3-0.8 0.1-1.5 0.5-2.1 0-0.1-0.2-0.7-0.2-0.7-0.4 0.3-0.9 0.6-1.3 1.1-0.5 0.7-0.5 1.4-0.8 2.2-0.1 0.4-0.1 0.5-0.3 0.2-0.3-0.2-0.4-0.7-0.6-1.1-0.4-0.8-0.2-1.5-0.1-2.3 0-0.1-0.2-0.7-0.2-0.7-1.2 0.7-1.8 2.1-2.1 3.5 0 0 0 0.4-0.1 0.4 0 0-0.1-0.2-0.1-0.2-0.3-0.2-0.5-0.7-0.6-1.1-0.2-0.7 0.2-1.8 0.4-2.5 0-0.1-0.2-0.6-0.1-0.7-1.1 0.9-2.4 1.9-2.8 3.3 0 0.2 0 0.5-0.1 0.7-0.1 0.5 0.1 0.1-0.1 0.1-0.2-0.1-0.5-0.9-0.6-1-0.1-0.9 0.4-1.8 0.8-2.5 0-0.1-0.2-0.7-0.2-0.7-0.6 0.3-1.3 0.8-1.8 1.3q-0.5 0.5-0.9 1.1-0.2 0.2-0.4 0.5c-0.1 0.1-0.3 0.7-0.4 0.3 0.1 0.2 0.1 0.5 0.2 0.7z"/>
		<path id="Layer" class="s0" d="m232.6 251c0.1 0.3 0.1 0.7 0 1-0.1 0.3 0 0.3-0.2 0.1-0.4-0.4-0.8-0.8-1.2-1.1-0.9-0.6-1.7-1.2-2.7-1.5 0 0 0 0.6 0.1 0.7 0.6 0.8 1.3 1.6 1 2.7-0.1 0.2-0.2 0.8-0.4 0.9 0 0-0.3-0.9-0.4-1-0.7-1.3-2.1-2-3.3-2.6 0.1 0.1 0.1 0.6 0.1 0.7q0.4 0.6 0.7 1.3c0.2 0.5 0.2 0.9 0 1.4 0 0.3-0.1 0.8-0.3 1-0.1 0.2 0 0.2-0.1 0.1-0.1-0.1-0.1-0.3-0.2-0.4-0.5-1.2-1.4-2.5-2.7-3 0 0 0.1 0.6 0.1 0.7 0.3 0.7 0.4 1.5 0.2 2.3q-0.1 0.6-0.3 1.1c0 0.1-0.1 0.3-0.1 0.3-0.1 0.1 0.1 0.1-0.1 0-0.3-0.1-0.4-0.7-0.6-1q-0.2-0.5-0.5-1c-0.4-0.4-0.9-0.8-1.5-1.1 0.1 0.1 0.1 0.6 0.2 0.7 0.2 0.6 0.4 1.1 0.3 1.8-0.1 0.5-0.2 1.1-0.5 1.5-0.1 0.2 0 0.3-0.2 0-0.1-0.2-0.1-0.4-0.2-0.6-0.1-0.6-0.4-1.1-0.8-1.5 0.2 0.1 0.1 0.5 0.2 0.6 0.6 0.8 0.6 1.6 1.1 2.4 0.3-0.8 0.6-1.7 0.5-2.6-0.1-0.8-0.3-1.5-0.6-2.3l0.2 0.7c0.8 0.4 1.6 1.1 1.9 1.9 0.2 0.4 0.3 0.8 0.5 1.1 0.2 0.2 0.1 0.2 0.2 0 0.1-0.1 0.2-0.3 0.2-0.5 0.5-1.5 0.4-3-0.2-4.5l0.1 0.7c1.6 0.5 2.3 2.1 3 3.5 0.3-0.8 0.6-1.6 0.4-2.4-0.1-1-0.6-1.9-1-2.9l0.1 0.7c0.7 0.3 1.4 0.7 2.1 1.2 0.8 0.7 1.3 1.4 1.6 2.4 0.4-0.7 0.6-1.6 0.4-2.4-0.2-1-0.7-1.7-1.3-2.6l0.2 0.7c1.3 0.4 2.6 1.2 3.6 2.3 0.1 0 0.4 0.5 0.5 0.5 0 0 0-0.2 0-0.2 0.1-0.2 0.1-0.7 0.1-1-0.1-0.5-0.2-1-0.3-1.5 0 0.2 0 0.5 0.1 0.7z"/>
		<path id="Layer" class="s0" d="m234.7 259.1c-1-1.2-2.1-2.4-3.5-3.1 0.1 0 0.1 0.6 0.1 0.6 0.5 0.9 0.9 1.7 0.6 2.7-0.1 0.5-0.4 1.1-0.8 1.5l0.1 0.6c-0.1-0.9-0.2-1.9-0.8-2.8-0.6-1-1.6-1.8-2.5-2.5 0 0 0.1 0.4 0.1 0.5 0.3 1.2 0.6 2.2 0 3.4-0.1 0.2-0.4 1-0.6 1.1-0.1 0-0.2-0.5-0.2-0.6-0.3-1.5-1-3-2.3-3.8 0 0 0 0.1 0 0.1 0.2 1.1 0.2 2.2-0.3 3.3-0.2 0.3-0.4 1-0.7 1.2 0 0.1-0.1 0.2-0.1 0.2-0.1 0-0.2-0.6-0.3-0.7-0.3-1.5-0.9-2.7-2.3-3.5 0.1 0.1 0.1 0.6 0.1 0.7q0.2 0.4 0.4 0.8c0.1 0 0.2 0.4 0.1 0.2 0.1 0.5-0.1 1.2-0.2 1.6q-0.2 0.6-0.4 1.1c-0.2 0.5-0.2 0.3-0.3-0.1-0.3-0.7-0.4-1.5-0.8-2.1-0.3-0.6-0.8-1.2-1.3-1.6 0.1 0.1 0 0.6 0.1 0.7 0.7 0.5 1.3 1.2 1.5 2 0.2 0.7 0.5 1.4 0.8 2.1 0.4-0.9 0.8-2 0.8-3.1-0.1-0.8-0.5-1.5-0.8-2.3l0.1 0.7c0.9 0.5 1.7 1.2 2 2.2 0.3 0.6 0.3 1.3 0.6 2 0.5-0.7 0.9-1.5 1.1-2.3q0.2-0.6 0.2-1.2c0-0.4-0.2-0.8-0.1-1.1 0-0.3-0.1-0.2 0-0.2 0.1 0 0.3 0.2 0.4 0.3q0.6 0.5 1 1.1c0.5 0.9 0.7 1.9 0.9 2.9 0 0 0.1 0.1 0.1 0.1 0.5-0.8 1-1.7 1-2.6 0-1-0.4-2-0.6-3l0.1 0.5c1.4 1.1 2.8 2.3 3.1 4.1 0 0.1 0.1 0.6 0.1 0.6 1.5-1.6 0.8-3.6 0-5.4l0.1 0.7c1.4 0.7 2.5 1.9 3.5 3-0.2-0.1 0-0.5-0.2-0.6z"/>
		<path id="Layer" class="s0" d="m232.7 270.9c-0.5-0.9-1-1.8-1.8-2.5 0 0.1 0 0.3 0 0.4 0.3 1.3 0.2 2.5-1 3.4l0.1 0.6c0.1-0.8 0.1-1.6-0.2-2.4-0.3-0.9-0.9-1.8-1.5-2.5 0 0.8 0.1 1.7-0.3 2.5-0.2 0.5-0.7 1-1.1 1.4l0.1 0.6c0-1.5 0-3.4-1.2-4.6-0.1 1.5-0.8 2.6-1.8 3.6l0.1 0.4c-0.1-0.4 0-0.9 0-1.4q-0.1-0.4-0.2-0.9c-0.2-0.6-0.4-1.2-0.9-1.6 0 0.7 0 1.4-0.4 2-0.3 0.5-0.7 0.9-1.2 1.3l0.2 0.7c-0.1-0.8 0.2-1.6 0-2.4-0.1-0.6-0.4-1.3-0.8-1.8 0.1 0.2 0 0.5 0.1 0.7 0.4 0.4 0.6 0.9 0.6 1.5 0 0.4-0.1 0.9-0.1 1.3 0 0.1 0.2 0.7 0.2 0.7 0.8-0.7 1.5-1.6 1.5-2.7 0-0.1 0-0.6 0-0.6 0.1 0 0.1 0.1 0.1 0.1 0.3 0.1 0.6 0.7 0.7 1 0.1 0.4 0 0.7 0 1.1q0 0.4 0.1 0.9c0 0 0.1 0.4 0.1 0.4 0.9-0.9 1.7-1.9 1.8-3.2 0-0.3 0-0.5 0.2-0.2q0.4 0.5 0.6 1.1c0.2 0.6 0.2 1.3 0.2 2 0 0.1 0.1 0.6 0.1 0.6 0.4-0.3 0.8-0.8 1.1-1.3 0.3-0.5 0.3-1.2 0.3-1.9 0 0 0-0.6 0-0.6 0 0 0.1 0.1 0.1 0.2 0.3 0.2 0.5 0.6 0.7 0.8q0.4 0.6 0.6 1.3c0.2 0.4 0.1 0.8 0.1 1.3 0 0.1 0.1 0.6 0.1 0.7 0.7-0.5 1.1-1.1 1.2-1.9 0.1-0.8-0.1-1.5-0.2-2.2v0.3c0.8 0.7 1.3 1.5 1.8 2.4-0.1-0.1-0.1-0.4-0.1-0.6z"/>
		<path id="Layer" class="s0" d="m234.4 264.1c-0.9-0.7-1.5-1.5-2.5-2 0.1 0 0.1 0.5 0.1 0.6 0.4 0.8 0.8 1.5 0.5 2.4-0.1 0.4-0.4 0.9-0.7 1.3l0.1 0.6c-0.1-0.9-0.2-1.8-0.7-2.5-0.6-0.9-1.4-1.7-2.3-2.3 0.1 0 0.1 0.4 0.1 0.5 0.3 1 0.5 1.9 0 2.9-0.1 0.2-0.3 0.9-0.5 1-0.2 0.1 0 0.1-0.1-0.1-0.1-0.1-0.1-0.3-0.1-0.4-0.3-1.3-0.9-2.7-2.1-3.4q0 0 0 0.1c0.2 1 0.2 1.9-0.2 2.9q-0.3 0.5-0.6 1.1c0 0-0.1 0.2-0.2 0.2 0 0-0.2-0.5-0.2-0.6-0.3-1.3-0.8-2.4-2.1-3.1 0.1 0 0.1 0.5 0.2 0.6q0.1 0.4 0.3 0.7 0.1 0.1 0.1 0.3-0.1-0.3 0 0c-0.1 0.6-0.2 1-0.4 1.5-0.2 0.3-0.4 0.7-0.6 1-0.1 0.1 0 0.1-0.1 0 0-0.1 0-0.3 0-0.4-0.1-1.3-0.6-2.4-1.7-3.2 0.2 0.1 0 0.6 0.2 0.7 0.7 0.5 1.3 1.2 1.4 2.1 0 0.5 0.1 1 0.2 1.5q0 0 0.1 0c0.5-0.7 1-1.6 1-2.5 0-0.9-0.3-1.6-0.7-2.3l0.2 0.6c0.7 0.4 1.4 1.1 1.7 1.9 0.3 0.6 0.3 1.3 0.6 1.9 0.3-0.6 0.7-1.2 0.9-1.9q0.2-0.5 0.2-1.1c0-0.3-0.2-1-0.1-1.2 0-0.2 0-0.1 0.1 0 0.1 0 0.3 0.2 0.4 0.3q0.5 0.5 0.9 1.1c0.3 0.8 0.5 1.5 0.7 2.3 0 0 0 0.1 0 0.1 0.5-0.6 1-1.5 1-2.3-0.1-0.9-0.4-1.8-0.6-2.7l0.1 0.5c1.2 1 2.5 2 2.7 3.6 0 0.1 0.2 0.6 0.2 0.6 1.3-1.5 0.7-3.3 0-4.9l0.1 0.6c1 0.5 1.6 1.3 2.5 2-0.1-0.1 0-0.5-0.2-0.6z"/>
		<path id="Layer" class="s0" d="m197.9 248.3c0.6-1.8 1-3.8 1-5.6 0-1.7-0.3-3.5-0.5-5.2-0.3-2.5-1-5-0.9-7.5 0.1-2.3 0.5-4.5 0.9-6.6q0.4-2 0.9-4c0 0.2-0.7 0.1-0.8 0.2-0.8 3.2-1.5 6.5-1.7 9.7-0.3 4.5 1.2 8.8 1.4 13.3 0 1.9-0.5 4-1 5.9 0-0.2 0.7-0.1 0.7-0.2z"/>
		<path id="Layer" class="s0" d="m198.4 219.1c-1 1.6-2.4 3.2-4 4.3-1.1 0.7-2.6 1.4-3.9 1-1.9-0.6-2.3-2.6-2-4.3 0.6-4.4 3.5-8.1 4.6-12.4 0.7-3.2 0.2-6.8-2.2-9.2-3.4-3.2-8.3-2.4-12.3-1.1-5.7 1.8-10.8 5.4-14.6 10-5.3 6.4-7.5 14.6-8.8 22.7-1.2 8.1-1.4 16.5-0.8 24.7 0.2 2.8 0.5 5.7 1 8.5 0.6 2.7 1.3 5.4 2.1 8.1 1.6 5.5 3.4 11 5.6 16.4q0.4 1.2 0.9 2.3c0.2 0.4 0.4 0.9 0.8 1.2 0.5 0.3 0.7 0.1 0.7-0.4 0-0.7-0.2-1.6-0.4-2.4q-1.3-7.8-2.6-15.6-0.1-0.6-0.2-1.2l-0.3 0.3c1.6 0.1 3.5-0.2 4.1-1.8 0.5-1.1 0.7-2.4 0.9-3.6 0.1-0.3 0.4-1 0.3-1.3-0.1-0.2 0.3-0.2-0.2 0 0 0 0.1 0 0.2 0 0.7 0.1 1.7-0.5 2.2-0.9 1.2-0.8 2-1.9 2.6-3.2 0.7-1.7 1-3.8 0.8-5.7l-0.5 0.2c1.8 0.8 3.6-0.3 4.4-1.9 0.9-1.6 1.2-3.4 1.2-5.2l-1.1-0.5c0 1 1 1.9 1.9 1.3 1.5-0.8 2.8-3.1 3.1-4.8l-1-0.7c0 1.3 1.5 2.2 2.6 2.4 1.6 0.3 3.6-0.1 4.9-1.3l-1-0.8c-0.6 1.4-0.3 3 0.9 3.9 1.2 1.1 2.9 1.1 4.3 0.4l-0.7-0.4q0.3 0.5 0.6 0.9c0.4 0.6 1.3 0.5 0.8-0.2q-0.3-0.5-0.7-0.9c-0.2-0.2-0.5-0.5-0.8-0.4-0.8 0.4-2 0.6-2.8 0.2-1.1-0.4-1-1.8-0.6-2.7 0.2-0.4-0.7-1.2-1-0.9-0.7 0.7-1.8 1.1-2.8 1.2-0.7 0.1-2.6 0.1-2.7-0.8 0-0.3-0.9-1.2-1-0.7-0.2 1-0.7 2-1.3 2.8q-0.4 0.6-0.9 1.1c-0.1 0.2-0.8 0.6-0.9 0.8q-0.4 0.1 0.2 0.4 0 0 0-0.1c0 0 0-0.1 0-0.1 0-0.5-1.1-1.2-1.1-0.6 0 1.4-0.3 2.8-0.7 4.1-0.6 1.4-2.3 3.3-3.9 2.6-0.1-0.1-0.5-0.2-0.5 0.2 0.2 1.8-0.1 3.8-0.8 5.5-0.7 1.7-2.5 3.9-4.5 3.8-0.1 0-0.2 0-0.3 0.1-0.2 1.7-0.5 3.4-1.1 4.9-0.6 1.6-2.2 1.8-3.7 1.6-0.1 0-0.2 0.1-0.2 0.3q1.1 6.2 2.1 12.5 0.6 3.3 1.1 6.5c0.1 0.2 0.1 0.3 0.1 0.3 0 0 0.8 0.1 0.8 0.3 0-0.1-0.1-0.2-0.2-0.3q-0.4-0.9-0.7-1.8c-2.1-5-3.8-10.3-5.4-15.5-1.6-5.2-2.8-10.5-3.3-15.9-0.8-7.8-0.7-15.7 0.2-23.5 0.9-7.8 2.8-16.8 7.7-23.6 3.5-5 8.5-8.9 14.1-11.1 3.6-1.5 9-3.1 12.3-0.4 3 2.5 2.6 7 1.4 10.2-0.8 2.1-1.9 4.2-2.7 6.3-0.7 1.6-1.3 3.3-1.4 5.1-0.1 2.7 2.1 5.5 5 5.3 2.5-0.2 4.6-2.4 6.1-4.2q0.5-0.7 1-1.4c0.3-0.4-0.7-1.3-0.9-0.9z"/>
		<path id="Layer" class="s0" d="m189.5 224.1c-1.2-0.2-2.2-1-2.7-2-0.4-0.9-0.4-2-0.2-2.9 0.5-2.4 1.6-4.7 2.6-6.9 1-2.2 1.9-4.3 1.8-6.7 0-1.8-0.6-3.5-1.8-4.8-1.7-1.9-4.2-2.3-6.6-2-2.8 0.4-5.4 1.5-7.8 2.8-3.2 1.7-6 4.1-8.4 6.8-2.9 3.3-5 7.1-6.5 11.2-3.2 9.1-3.9 18.9-3.5 28.5 0.2 3.4 0.5 6.8 1 10.2 0.8 4.7 2.2 9.3 3.7 13.7q0.6 1.8 1.2 3.5c0 0.1 0.3 0.1 0.2-0.1-1.6-4.6-3.1-9.3-4.2-14.1-0.8-3.3-1.2-6.8-1.4-10.2-0.8-9.2-0.4-18.7 2.1-27.6 1.2-4.5 2.9-8.8 5.6-12.5 2.3-3.1 5.1-5.8 8.3-8 2.5-1.6 5.2-2.9 8.1-3.6 2.3-0.6 4.6-0.8 6.7 0.5 1.6 1 2.6 2.6 2.9 4.4 0.4 2.3-0.2 4.5-1.1 6.7-1 2.3-2.2 4.5-2.9 6.9-0.4 1.6-0.7 3.5 0.3 4.9 0.6 0.8 1.5 1.4 2.5 1.5 0.2 0.1 0.2-0.2 0.1-0.2z"/>
		<path id="Layer" class="s0" d="m188.6 212.6c-1-1.5-1.4-3.6-1.3-5.4 0-1.4 0.4-2.7 0.3-4.1-0.1-0.8-0.2-2.1-1.2-2.3-0.6-0.2-1.5 0.1-1.8 0.6-0.4 0.8-0.1 1.9-0.3 2.7-0.2 0.7-0.7 0.9-1.4 1-1 0.1-1.9 0-2.9 0-2.1-0.2-4.2-0.6-6.2-0.5-1.5 0.1-2.8 0.8-2.4 2.4 0.1 0.7 0.6 1.1 1.2 1.5 0.7 0.5 2.9 1.2 2.5 2.2-0.3 0.6-1 1-1.5 1.3-0.9 0.5-1.8 0.9-2.7 1.4-2.6 1.3-5 2.7-7 4.7-2.3 2.4-4.3 5.1-5.9 8-0.1 0.1 0.2 0.5 0.1 0.6 2.8-4.9 6.4-9.2 11.5-11.9 1-0.5 2-1 3-1.5 0.8-0.4 1.6-0.8 2.2-1.3 0.9-0.9 0.6-2.3-0.3-3-1-0.7-2.5-1.1-3.1-2.2 0.1 0.2-0.1 0.4 0.1 0.1 0-0.1 0-0.3 0.1-0.5 0.1-0.2 0.2-0.4 0.4-0.6 0.3-0.2 0.6-0.3 0.9-0.4 1.9-0.5 4.2 0 6.2 0.2q1.4 0.2 2.9 0.2c0.7 0 1.7 0 2.2-0.5 1-1.3-0.5-3.7 1.9-3.9 0.8-0.1 1.3 0.4 1.4 1.2 0.1 1.6-0.4 3.2-0.3 4.8 0 1.9 0.5 4.2 1.6 5.9-0.1-0.2 0-0.5-0.2-0.7z"/>
		<path id="Layer" class="s0" d="m156.7 255.7c1.8-0.6 3.4-2.8 4.3-4.4l-1.7 1.7c1.7 4.3 6-2.1 6.4-3.9l-1.7 1.8c0.4 2.1 3.9-1.2 4.5-1.9 1.6-1.7 2.7-3.7 3.4-6l-1.7 1.7c0.1 2.6 3.5 0 4.2-0.7 1.5-1.5 2.4-3.3 3-5.4l-1.7 1.7c3.1 1.4 5.4-4 6-6l-1.7 1.7c4 3.5 7.8-0.6 10.1-3.8l-1.6 1.7c0.7 2.3 2.4 5.1 4.9 3.3 0.8-0.6 1.6-1.5 2.2-2.3l-1.7 1.7c0.3 0.8 1.6 3.6 2.8 3.2 0.3-0.1 1.8-1.5 1.7-1.7v-0.1c0.1 0.4-1.8 1.2-1.7 1.7v0.1l1.7-1.7c-1.2 0.4-2.5-2.5-2.8-3.2 0 0-1.5 1.5-1.7 1.7-0.2 0.3-2.5-1.9-2.7-2.2-0.4-0.7-0.8-1.5-1-2.3 0 0.2-1.6 1.5-1.7 1.8-1.8 2.4-4.7 2.2-6.8 0.4 0-0.1-1.6 1.5-1.7 1.7-0.2 0.8-0.4 1.7-0.9 2.5-0.8 1.3 0.7 0-0.5 0.2-0.4 0-0.8 0-1.2-0.1-0.2-0.1-1.6 1.5-1.7 1.7-0.2 0.8-0.8 3.2-1.4 3.6-0.6 0.3-2.4 0-2.4-0.9 0 0.4-1.5 1.2-1.7 1.7-0.4 1.3-0.9 3-1.8 4-0.4 0.5-2.4 1.9-2.7 0.4 0.1 0.4-1.6 1.3-1.7 1.8 0 0.2-0.1 0.5-0.2 0.7q-0.1 0.5-0.4 0.9-0.4 1.1-0.1 0c-1 0-1.9-0.3-2.3-1.3 0.1 0.1-1.5 1.5-1.6 1.7-0.3 0.5-0.4 0.8-1 1-0.7 0.2-1.1 1.6-1.7 1.8z"/>
		<path id="Layer" class="s0" d="m161.9 271.5c-0.2-2.6-0.4-5.2-0.7-7.7-0.3-4-0.6-8-0.8-11.9-0.2-3.5-0.4-6.9-0.1-10.4 0.3-4.2 0.9-8.4 1.6-12.6q0.6-3.3 1.2-6.4c0.3-1.3 0.6-2.7 1-3.9 0.1-0.2-0.2-0.3-0.3-0.1-0.3 1.1-0.6 2.2-0.8 3.3q-0.6 2.8-1.1 5.6c-0.7 4.2-1.4 8.4-1.8 12.7-0.3 3.4-0.2 6.8-0.1 10.2 0.2 4 0.5 8.1 0.8 12.1 0.3 3 0.6 6 0.8 9.1 0 0.1 0.3 0.1 0.3 0z"/>
		<path id="Layer" class="s0" d="m166.9 264.7c-1-6.3-1.9-12.6-2.1-19-0.2-4.3-0.1-8.7 0.7-13 0.7-3.9 1.4-7.9 2.2-11.8 0.4-2.1 0.8-4.2 1.6-6.1 0-0.2-0.2-0.3-0.3-0.1-0.7 1.7-1.1 3.5-1.4 5.3-0.8 3.6-1.4 7.3-2.1 11-0.4 2.2-0.7 4.4-0.9 6.6-0.2 2.2-0.2 4.3-0.2 6.4 0.1 4.2 0.5 8.3 1 12.5 0.3 2.8 0.8 5.5 1.2 8.3 0.1 0.2 0.3 0.1 0.3-0.1z"/>
		<path id="Layer" class="s0" d="m172.5 255.2c-0.6-2.4-0.8-4.8-1-7.3-0.4-3.7-0.5-7.6-0.4-11.4 0.1-1.9 0.2-3.9 0.5-5.8 0.4-2.2 0.8-4.3 1.3-6.4q1.2-6 2.8-11.9c0.7-2.5 1.4-4.9 2.2-7.3l-0.2-0.1q0 0-0.1 0.1c0 0.1 0.3 0.2 0.3 0q0 0 0 0c0.1-0.2-0.2-0.3-0.2-0.1-2.1 5.8-3.5 11.9-4.8 17.9-0.9 4-1.7 8.1-2 12.2-0.2 3.9-0.1 7.9 0.2 11.7 0.3 2.8 0.5 5.7 1.1 8.5 0.1 0.1 0.3 0.1 0.3-0.1z"/>
		<path id="Layer" class="s0" d="m177.5 248.3c-0.4-2.7-0.7-5.5-0.8-8.2-0.2-3.8-0.1-7.6 0.3-11.3 0.4-3.4 1.1-6.8 1.9-10.1q1.1-4.4 2.3-8.7 0.7-2.3 1.4-4.5c0-0.2-0.2-0.3-0.3-0.1q-1.9 6.1-3.4 12.3c-0.8 3.2-1.6 6.5-2 9.8-0.5 3.8-0.7 7.6-0.5 11.5 0.1 3.1 0.3 6.3 0.9 9.4 0 0.2 0.3 0.1 0.2-0.1z"/>
		<path id="Layer" class="s0" d="m181.5 244.2c-0.1-2-0.4-4-0.4-6.1-0.2-3.5-0.1-7.2 0.4-10.7 0.3-3.2 1.1-6.3 2-9.4q1.1-4.3 2.6-8.5 0.7-2.2 1.6-4.3c0-0.2-0.2-0.3-0.3-0.1-1.5 3.8-2.8 7.8-3.9 11.8-0.9 3.1-1.7 6.2-2.2 9.4-0.5 3.5-0.6 7.1-0.5 10.7 0 2.4 0.3 4.8 0.4 7.2 0.1 0.2 0.3 0.2 0.3 0z"/>
		<path id="Layer" class="s0" d="m188 244.6c0.5-2.9 0.9-5.9 1.2-8.9 0.3-3 0.5-5.9 0.6-8.9q0-1.2 0-2.4c0-0.2-0.3-0.2-0.3 0 0 5.1-0.4 10.3-1.1 15.3q-0.2 2.5-0.7 4.9c0 0.1 0.3 0.2 0.3 0z"/>
		<path id="Layer" class="s0" d="m193.8 224.7c0.2 1.5 0.3 3.1 0.5 4.7 0.1 1.9 0.3 3.8 0.3 5.7 0.1 1.3-0.2 2.5-0.5 3.8q-0.6 2.8-1.2 5.6-0.4 1.7-0.8 3.5c-0.1 0.1 0.2 0.2 0.2 0q1.1-4.2 2-8.5c0.2-1.3 0.6-2.6 0.6-4 0.1-1.8-0.1-3.6-0.3-5.5-0.2-1.8-0.3-3.6-0.6-5.4 0-0.2-0.3-0.1-0.2 0.1z"/>
		<path id="Layer" class="s0" d="m228.7 247.2c-0.5-1.7-0.8-3.5-0.8-5.2 0.1-1.5 0.5-3.1 0.7-4.6 0.5-2.5 1.2-5 1.5-7.6 0.2-2.2 0.1-4.4-0.1-6.6q-0.1-2.1-0.3-4.1l-1-0.7c0.6 1.2 1.4 2.3 2.3 3.4 1.2 1.3 2.9 2.9 4.9 2.8 2.4 0 4-2.3 3.9-4.6-0.1-3.1-1.6-6.1-2.6-8.9-1.2-3.2-2.3-6.6-1-9.8 0.9-2.3 2.9-4 5.4-4.5 3-0.5 6.5 0.7 9.3 1.9 4.5 2 8.5 5.1 11.5 9 4.1 5.3 6 11.6 7.1 18 1.3 7.1 1.5 14.3 1.1 21.5-0.3 5.3-0.9 10.7-2.1 15.9-1.1 5.2-3.1 10.1-5.1 15q-2.3 5.6-4.9 11-0.1 0.3-0.2 0.6l1 0.9q1.7-7.9 3.4-15.8 0.2-1.2 0.5-2.3c0-0.3-0.8-0.9-1-0.9q-0.6 0.1-1.2 0c-0.3-0.1-0.8-0.1-1.1-0.3-0.5-0.3-0.6-1-0.7-1.6-0.4-1.3-0.6-2.7-0.7-4.1 0-0.3-0.7-0.9-1-0.9-2.1 0.1-3.4-2.6-3.8-4.3-0.4-1.5-0.5-3.1-0.3-4.7 0.1-0.2-0.8-0.9-1-0.8-3.2 1.3-3.8-4.3-3.7-6.3 0.1-0.3-1-0.9-1-0.8 0 0.2-0.1 0.4-0.2 0.5-0.5 0.6-1.2-0.8-1.4-1.2-0.5-0.9-1-1.9-1.1-2.8 0-0.3-1-1-1.1-0.8 0 0.8-1.1 1.2-1.8 1.3-0.9 0.2-1.9 0.1-2.8-0.3q-0.4-0.2-0.9-0.4c-0.1-0.1-0.2-0.3-0.1-0.1 0-0.1-1-0.8-0.8-0.4 0.4 1 0.2 2.3-0.8 3-0.9 0.8-2.4 0.6-3.5 0.1 0-0.1-0.2-0.1-0.2-0.1q-0.8 1-1.5 1.9c-0.1 0.2 0.9 1.1 1.1 0.9q0.7-1 1.4-1.9h-0.2c1.1 0.5 2.6 0.9 3.8 0.2 1.2-0.8 1.3-2.3 0.9-3.5l-0.9-0.4c1 1.1 2.5 1.8 4 2 1 0.1 3.3 0 3.4-1.6l-1-0.7c0.2 1.8 1.3 3.7 2.6 4.9 0.6 0.6 2 1.7 2.1 0.2l-1-0.8c-0.1 1.9 0.2 4.1 1.2 5.7 0.9 1.4 2.7 3 4.5 2.3l-1-0.9c-0.3 2.3-0.1 5 1.1 7 0.9 1.6 2.9 3.7 4.9 3.7l-1-0.8q0.2 1.2 0.4 2.5c0.2 1.1 0.3 2.5 1 3.4 1 1.4 2.7 1.9 4.3 1.8l-1-0.8q-1.7 7.9-3.4 15.8-0.2 1.1-0.5 2.3c0 0.2 1 0.9 1.1 0.8 3.6-7.6 7-15.4 9.4-23.4 1.4-4.7 2.1-9.6 2.5-14.4 0.7-6.9 0.8-13.9 0.1-20.8-0.6-6.6-1.9-13.6-5.2-19.5-2.5-4.6-6-8.5-10.3-11.5-4.9-3.5-16.3-9.2-20.3-1.4-3.1 6.1 2.2 12.5 3.1 18.4 0.4 2.4-0.5 5.4-3.4 5.7-2.2 0.2-3.8-1.9-4.9-3.6q-0.3-0.5-0.6-1.1c-0.1-0.2-1.1-0.9-1.1-0.7 0.4 3.2 0.6 6.6 0.5 9.9-0.3 4.3-1.9 8.4-2.2 12.7-0.2 1.9 0.3 3.8 0.8 5.5 0 0.3 0.3 0.5 0.5 0.6 0 0.1 0.6 0.4 0.5 0.2z"/>
		<path id="Layer" class="s0" d="m237.3 224.2c1.8-0.1 3.2-1.6 3.4-3.4 0.3-2-0.6-4.1-1.3-6-1.4-4-4-8.9-1.2-13 3.3-4.8 10.3-2.1 14.3 0.1 6.9 3.8 11.7 10.4 14 17.9 2.8 9.5 3.1 19.7 2.2 29.5-0.3 3.5-0.7 7.1-1.5 10.5-1 4.6-2.7 9.1-4.4 13.5q-0.6 1.7-1.3 3.4c-0.1 0.1 0.2 0.2 0.2 0 1.9-4.6 3.7-9.4 5.1-14.2 1-3.4 1.5-6.9 1.9-10.4 1.1-9.6 1.1-19.5-1.1-29-1-4.4-2.6-8.7-5.2-12.5-2-3-4.6-5.6-7.6-7.6-2.4-1.6-5-2.9-7.8-3.6-2.1-0.6-4.4-0.9-6.4 0.1-3.7 1.6-4.4 6-3.5 9.5 0.6 2.5 1.7 4.8 2.5 7.2 0.6 1.8 1.4 4.1 0.4 5.9-0.5 1-1.6 1.8-2.7 1.9-0.1 0-0.1 0.3 0 0.2z"/>
		<path id="Layer" class="s0" d="m238.7 213.2c1.5-2 1.5-5.2 1.6-7.6 0.1-1 0-4.4 1.8-4.1 0.3 0 0.8 0.2 1 0.5 0.3 0.3 0.2 0.8 0.2 1.3q0 0.8 0.2 1.6c0.4 1.5 2.7 1.3 3.9 1.2 2.1 0 4.3-0.3 6.4-0.1 0.7 0.1 1.6 0.2 2 0.7 1 1-0.5 1.7-1.3 2.2-0.7 0.4-2.2 0.8-2.4 1.8 0 0.4 0.1 0.9 0.2 1.3 0.5 1.3 2.5 2.1 3.7 2.7 2.5 1.4 4.9 2.9 6.8 5.1 2.4 2.5 4.3 5.4 5.8 8.5-0.1-0.1 0-0.5-0.1-0.7-2.5-4.9-5.8-9.4-10.6-12.4-1.7-1-3.7-1.7-5.2-3.1-0.1-0.1-0.4-0.4-0.4-0.6-0.1-0.5 0.5-0.9 0.8-1.1 1-0.6 2.3-1 3-1.9 0.7-0.9-0.1-2.5-1-2.9-1.7-0.7-4.1-0.3-6-0.2-0.9 0-1.8 0.1-2.8 0-0.7 0-2 0.1-2.6-0.4-0.8-0.9 0.1-2.7-0.7-3.6-0.4-0.5-1.4-0.8-1.9-0.4-0.6 0.6-0.7 1.7-0.8 2.5-0.2 1.7-0.2 3.4-0.5 5.1-0.2 1.3-0.4 2.8-1.2 4-0.1 0.1 0.2 0.5 0.1 0.6z"/>
		<path id="Layer" class="s0" d="m268.5 255c-1.2-0.3-1.9-1.3-2.6-2.4 0 0.1-1.6 1.5-1.7 1.8 0.5-1.1-0.1-0.2-0.9-0.7-0.6-0.4-0.8-0.5-1.2-1.1-0.5-0.7-0.7-1.6-0.8-2.3 0.1 0.3-1.6 1.3-1.7 1.7q0 0.2-0.1 0.3l1.6-1.7c-2.5 2.2-5.3-5.3-5.6-6.8 0.1 0.3-1.7 1.3-1.7 1.7q0 0.2-0.1 0.4l1.5-1.6c-3.3 3-4-4.2-5-5.1-0.6-0.6-1.9 0-2.8-1.1-0.8-0.9-1.1-2.4-1.3-3.5-3.5 2.6-6.4 0.5-8.3-2.6 0 0.1-1.6 1.5-1.7 1.8-0.9 2.1-2.6 2.7-3.9 0.6 0 0.1-1.6 1.6-1.7 1.8-0.4 0.9-0.8 1.8-1.9 1.3-0.4-0.1-1.5 1.9-1.7 1.8 1.9 0.8 4.7-3.6 5.3-4.9l-1.7 1.8c2.5 3.8 6.3-1.8 7.3-4.2l-1.7 1.8c0.7 1.1 1.8 2.6 3.1 3.3 0.9 0.5 1.6 0.6 2.6 0.4 0.3 0 2.2-1.1 2.5-1 0.5 0.1 0.8 2.4 1.2 3.1 1 1.4 2.2 0.7 3 1.4 0.7 0.5 0.9 3 1.5 3.9 0.8 1.2 1.9 2 3.4 1.3 0.6-0.3 2-1.7 2.1-2.4l-1.7 1.7c0.5 2.1 2.4 8 5.5 7 0.6-0.2 1.8-1.6 2-2.2l-1.7 1.7c0.4 2.3 1.8 4.5 4.2 3 0.8-0.5 1.7-1.6 2.1-2.4l-1.7 1.8c0.6 1 1.4 2 2.6 2.4 0.4 0.1 1.4-1.9 1.7-1.8z"/>
		<path id="Layer" class="s0" d="m262.6 272.7c0.3-2.6 0.7-5.2 1.1-7.8 0.5-3.9 1-7.8 1.5-11.8 0.3-3.4 0.7-6.8 0.6-10.3-0.1-4.2-0.5-8.5-1-12.8q-0.4-3.2-0.9-6.3c-0.2-1.3-0.3-2.7-0.7-4-0.1-0.1-0.3-0.1-0.3 0.1 0.3 1.1 0.5 2.2 0.7 3.3q0.4 2.8 0.8 5.6c0.5 4.3 0.9 8.6 1.1 12.9 0.1 3.4-0.1 6.8-0.5 10.2-0.4 4-0.9 8-1.4 12-0.4 3-0.9 5.9-1.2 8.9-0.1 0.2 0.2 0.2 0.2 0z"/>
		<path id="Layer" class="s0" d="m257.9 265.8c1.4-6.2 2.6-12.6 3.2-19 0.4-4.2 0.5-8.6 0-12.8-0.5-4.1-1-8.1-1.6-12.1-0.3-2.1-0.6-4.2-1.3-6.3 0-0.1-0.3 0-0.2 0.1 0.5 1.7 0.8 3.5 1.1 5.3 0.6 3.6 1 7.3 1.5 11 0.3 2.2 0.5 4.4 0.5 6.7 0.1 2.3 0 4.3-0.2 6.5-0.2 4.1-0.8 8.2-1.5 12.2-0.5 2.8-1.1 5.6-1.7 8.3-0.1 0.2 0.2 0.3 0.2 0.1z"/>
		<path id="Layer" class="s0" d="m252.8 256c0.8-2.3 1.1-4.8 1.4-7.2 0.6-3.7 0.9-7.5 1-11.3 0.1-2 0-3.9-0.2-5.9-0.2-2.1-0.5-4.2-0.8-6.3q-1-6.1-2.3-12.2c-0.5-2.6-1.1-5.1-1.8-7.6l-0.3 0.1q0 0 0 0c0.1 0.2 0.3 0.1 0.3 0q0 0 0-0.1c-0.1-0.1-0.3-0.1-0.3 0.1 1.6 5.9 2.8 11.9 3.8 17.9 0.7 4.1 1.3 8.3 1.4 12.5 0 3.8-0.4 7.7-0.9 11.5-0.3 2.8-0.7 5.7-1.5 8.4-0.1 0.2 0.2 0.3 0.2 0.1z"/>
		<path id="Layer" class="s0" d="m248.2 248.9c0.6-2.7 1-5.5 1.3-8.2 0.4-3.8 0.5-7.7 0.3-11.5-0.2-3.4-0.8-6.7-1.4-10q-0.8-4.5-1.9-8.9-0.5-2.3-1.1-4.6c0-0.2-0.3-0.1-0.3 0.1q1.6 5.9 2.8 12c0.6 3.3 1.2 6.6 1.5 9.9 0.3 3.8 0.3 7.7-0.1 11.5-0.2 3.2-0.7 6.5-1.4 9.6 0 0.2 0.2 0.3 0.3 0.1z"/>
		<path id="Layer" class="s0" d="m244.4 244.5c0.3-2 0.6-4.1 0.8-6.1 0.3-3.6 0.4-7.2 0.2-10.7-0.2-3.2-0.8-6.3-1.5-9.4-0.6-3.1-1.4-5.8-2.2-8.7q-0.6-2.3-1.3-4.5c-0.1-0.2-0.3-0.1-0.3 0.1 1.3 3.9 2.4 7.9 3.3 11.9 0.7 3.1 1.3 6.3 1.6 9.6 0.4 3.5 0.3 7.1 0 10.6-0.1 2.4-0.5 4.8-0.8 7.2-0.1 0.2 0.2 0.2 0.2 0z"/>
		<path id="Layer" class="s0" d="m237.9 244.5c-0.3-3-0.5-6-0.6-8.9q-0.2-4.5-0.2-9 0-1.2 0.1-2.4c0-0.1-0.3-0.1-0.3 0-0.2 5.2 0 10.4 0.3 15.5q0.2 2.4 0.5 4.8c0 0.2 0.3 0.2 0.2 0z"/>
		<path id="Layer" class="s0" d="m232.7 224.2c-0.3 1.6-0.5 3.2-0.7 4.7-0.3 1.9-0.6 3.8-0.7 5.7-0.1 1.3 0.1 2.5 0.3 3.8q0.4 2.9 0.9 5.8 0.3 1.8 0.7 3.6c0 0.1 0.2 0.1 0.2-0.1q-0.8-4.3-1.4-8.5c-0.2-1.3-0.5-2.7-0.5-4.1 0.1-1.8 0.4-3.6 0.6-5.4 0.3-1.8 0.5-3.6 0.9-5.4 0-0.2-0.2-0.2-0.3-0.1z"/>
		<path id="Layer" class="s0" d="m219.6 202.2c-1.2 0-5.2-2.6-6.2-4.4-0.4-0.6-0.8-1.4-1.2-2.2-0.7-1.3-1.4-2.7-2.1-3.4-1.1-1-3.5-1.9-3.5-1.9l0.1-0.3c0.1 0.1 2.4 0.9 3.6 2 0.7 0.8 1.4 2.2 2.1 3.5 0.4 0.8 0.8 1.5 1.2 2.2 1.1 1.8 4.9 4.2 6 4.2v0.3z"/>
		<path id="Layer" class="s0" d="m213.8 193.5c-1.2-0.6-1.9-1.4-2.9-2.4-1-0.9-2.4-2-3.3-2.3-0.8-0.3-1.2-0.3-1.2-0.3v-0.3c0 0 0.4 0 1.3 0.3 1 0.3 2.4 1.5 3.4 2.4 0.9 1 1.7 1.7 2.8 2.3l-0.1 0.3z"/>
		<path id="Layer" class="s0" d="m202.3 203.2c0.4 1.1 0.5 2.4 1.3 3.3 0.4 0.6 1 0.9 1.7 0.9 0.6 0 1.2-0.1 1.6-0.6 0 0 0-0.3 0-0.3-0.1 0-0.1-0.3-0.1-0.3-0.4 0.4-1.1 0.6-1.6 0.6-0.7-0.1-1.3-0.3-1.7-0.9-0.8-0.9-0.9-2.2-1.3-3.3 0 0 0 0.2 0 0.2q0 0.2 0.1 0.4z"/>
		<path id="Layer" class="s0" d="m205.6 202.8c0.6 0.7 1 1.6 1.1 2.5 0.1 0.7 0.2 1.4 0.3 2.1 0.4 1.4 2 2.7 3.5 2.3 0.9-0.2 1.8-0.9 2.1-1.8 0-0.2-0.2-0.5-0.2-0.7-0.2 0.8-1 1.4-1.7 1.7-0.8 0.4-1.7 0.2-2.4-0.3-0.4-0.3-0.8-0.7-1-1.1-0.3-0.3-0.3-0.5-0.3-0.8-0.1-0.7-0.2-1.4-0.4-2.2-0.2-0.8-0.5-1.7-1.2-2.3 0.1 0 0.1 0.3 0.1 0.3 0 0.1 0 0.3 0.1 0.3z"/>
		<path id="Layer" class="s0" d="m210.5 204.4q1.1 1.2 1.6 2.7c0.2 0.7 0.3 1.4 0.6 2 0.4 0.7 1.4 1.3 2.1 1.5 0.9 0.2 1.8 0 2.3-0.8 0.3-0.5 0.5-1.1 0.5-1.7 0.1-0.2-0.1-0.4-0.1-0.6-0.1 1.2-0.9 2.7-2.4 2.5-0.5 0-1-0.3-1.4-0.5-0.4-0.3-0.8-0.5-1-0.9-0.4-0.6-0.5-1.4-0.7-2.1-0.3-1-0.8-2-1.6-2.7 0 0 0 0.2 0 0.3 0.1 0.1 0.1 0.2 0.1 0.3z"/>
		<path id="Layer" class="s0" d="m217.4 205.8q0.3 0.2 0.5 0.5 0.1 0.2 0.2 0.3 0 0.1 0.1 0.2 0 0.1 0-0.1c-0.1 0.1 0 0.4 0 0.5q0.1 0.3 0.2 0.6c0 0.4 0.1 0.7 0.3 1 0.3 0.4 0.7 0.7 1.1 1 0.5 0.5 1 0.7 1.7 0.7 0.7 0 1.5-0.4 1.7-1.2 0-0.1 0-0.2-0.1-0.3 0-0.1-0.1-0.3 0-0.3-0.2 0.7-1 1.2-1.8 1.2-0.7 0-1.2-0.3-1.7-0.7-0.3-0.3-0.7-0.7-1-1.1q-0.1-0.1-0.2-0.3 0-0.1 0-0.1-0.1-0.3 0 0.1c0-0.2-0.1-0.4-0.1-0.6-0.1-0.3-0.1-0.7-0.3-1-0.1-0.5-0.4-0.8-0.8-1 0.1 0 0.1 0.2 0.1 0.3 0 0.1 0 0.3 0.1 0.3z"/>
		<path id="Layer" class="s0" d="m202.6 210.4c0.4 1.1 0.6 2.4 1.3 3.4 0.4 0.5 1.1 0.8 1.7 0.8 0.6 0 1.3-0.1 1.6-0.6 0.1 0 0-0.2 0-0.3 0 0-0.1-0.3-0.1-0.3-0.4 0.4-1 0.6-1.6 0.6-0.6 0-1.3-0.3-1.7-0.9-0.8-0.9-0.9-2.2-1.3-3.3 0 0 0 0.2 0 0.2q0.1 0.2 0.1 0.4z"/>
		<path id="Layer" class="s0" d="m221.3 212.6c0.5 0.6 0.9 1.3 1 2.2 0.1 0.6 0.1 1.2 0.3 1.8 0.3 1.3 1.7 2.5 3.1 2.2 0.8-0.2 1.7-0.9 1.9-1.7 0-0.1-0.1-0.3-0.1-0.3 0-0.1-0.1-0.3-0.1-0.4-0.2 0.8-0.9 1.3-1.5 1.6-0.8 0.3-1.6 0.1-2.2-0.3q-0.5-0.4-0.9-0.9-0.2-0.2-0.2-0.4c0-0.1-0.1-0.2 0 0q-0.1-0.2-0.1-0.3c-0.1-0.7-0.2-1.4-0.3-2-0.2-0.8-0.5-1.6-1.1-2.2 0.1 0.1 0.1 0.3 0.1 0.4 0 0.1 0 0.2 0.1 0.3z"/>
		<path id="Layer" class="s0" d="m210.3 212.2q1.1 1.1 1.6 2.7c0.2 0.6 0.3 1.4 0.6 2 0.4 0.7 1.3 1.2 2.1 1.5 0.9 0.2 1.8-0.1 2.3-0.9 0.3-0.4 0.5-1 0.5-1.6 0-0.2-0.1-0.5-0.1-0.7-0.2 1.3-0.9 2.7-2.4 2.6-0.5-0.1-1-0.3-1.4-0.6-0.4-0.2-0.8-0.5-1-0.8-0.4-0.6-0.5-1.4-0.7-2.1-0.3-1.1-0.9-2-1.6-2.8 0 0.1 0 0.3 0 0.3 0 0.1 0 0.3 0.1 0.4z"/>
		<path id="Layer" class="s0" d="m216.6 212.8c0.3 0.2 0.6 0.6 0.8 1 0 0.3 0 0.6 0.1 0.9 0.1 0.7 0.2 1.4 0.6 1.9 0.7 1 1.6 2.1 2.9 1.9 0.7-0.1 1.3-0.7 1.4-1.4 0-0.1 0-0.3 0-0.4-0.1-0.1-0.1-0.2-0.1-0.3-0.2 1.2-1.7 1.9-2.7 1.2-0.6-0.3-1-0.8-1.4-1.3q-0.2-0.3-0.4-0.6-0.1-0.1-0.1-0.2 0-0.1-0.1-0.2v-0.1q0 0.1 0 0 0-0.5-0.1-0.9c-0.2-0.9-0.4-1.6-1-2.2 0 0 0 0.3 0 0.3 0 0.1 0 0.3 0.1 0.4z"/>
		<path id="Layer" class="s0" d="m207 212.1c0.4 1.1 0.6 2.4 1.3 3.3 0.5 0.6 1.1 0.9 1.8 0.9 0.5 0 1.2-0.1 1.6-0.6 0 0-0.1-0.3-0.1-0.3 0 0-0.1-0.3-0.1-0.3-0.3 0.4-1 0.6-1.5 0.6-0.7-0.1-1.3-0.3-1.8-0.9-0.7-0.9-0.9-2.2-1.3-3.3 0 0 0.1 0.2 0.1 0.2q0 0.2 0.1 0.4z"/>
		<path id="Layer" class="s0" d="m200 221.1c-0.1 0.9-0.3 1.9-0.4 2.9q-0.3 2.3 0 4.5c0.4 2.4 0.8 5.1 2.1 7.1 1.7 2.4 4 4.3 6.9 4.9 2.3 0.5 4.8 0.4 7.2 0.1q1.3-0.2 2.6-0.6c0.6-0.1 1.5-0.3 1.8-0.9-0.1 0.1-0.7 0-0.8 0.2-0.3 0.6-1.2 0.8-1.8 0.9q-1.7 0.3-3.3 0.3c-2.2 0.2-4.5 0.1-6.5-0.7-2.3-0.9-4.3-2.8-5.6-4.9-1.1-1.9-1.4-4.3-1.8-6.4q-0.3-2.4 0-4.7c0.1-1 0.3-2 0.4-2.9 0 0-0.8 0.1-0.8 0.2z"/>
		<path id="Layer" class="s0" d="m184.2 196.6l7-6.8 1.1-0.3 0.9-0.1 1.2-0.1-8.1 7.7-2.1-0.4z"/>
		<path id="Layer" class="s0" d="m258.8 287c0 0-0.5 2.4-0.5 2.6-0.1 0.2-0.2 2.4-0.2 2.4 0 0 0.7-0.8 1.2-1.4 0.2-0.2 1.2-2.6 1.2-2.6 0 0-1.7-1-1.7-1z"/>
		<path id="Layer" class="s0" d="m232.3 285.5c1.2-0.5 2.3-2.5 3.2-3.8 1-1.4 2.7-3.3 4.2-4 1.6-0.8 4.2-1.7 6.3-1.6 2 0.2 4.5 0.3 6.8 0.1 2.3-0.2 3.3-0.8 3.7-1.4 0.5-0.7 0.7-1.4 0.4-1.8-0.2-0.4-0.7-0.5-1-0.4-0.6 0.3-0.9 1.2-0.9 1.2 0 0-0.2-1.5 0.6-2.1 0.6-0.3 1.6-0.4 2.1 0.1 0.5 0.5 0.9 1.4 0.8 2-0.2 0.7-0.8 2.3-2.3 3-1.5 0.6-9.1 1.3-10.8 1.5-1.8 0.3-3.8 0.9-5 2-1.3 1-6.2 6.4-6.2 6.4l-1.9-1.3z"/>
		<path id="Layer" class="s0" d="m228.2 289.1c0 0-1.2 1.4-3.2 2.1-1.9 0.6-2.5 0.6-4.3 0.4-1.9-0.3-4.9-0.5-6.8 0.5-1.9 0.9-3.8 4.1-4.7 6.4-0.9 2.3-2.8 6.6-4.1 7.6-1.4 1-2.9 1.9-4.2 1.6-1.2-0.2-1.6-0.7-1.7-1.2-0.1-0.4-0.1-0.9 0.3-0.9 0.5-0.1 0.8 0.1 1 0.3 0-0.3-0.3-0.8-0.5-1-0.2-0.1-0.7-0.3-1.1 0-0.4 0.4-0.7 0.9-0.6 1.6 0.1 0.8 0.5 2 1.7 2.2 1.2 0.2 1.3 0.4 2.6 0.1 1.3-0.2 3.2-1.2 3.8-1.8 0.5-0.5 3.2-4.9 3.9-6.8 0.7-1.9 2-4.1 2.9-4.9 0.8-0.8 2.9-1.4 4.3-1.3 1.4 0 4.9 0.1 6.6-0.3 1.7-0.4 3.4-1.3 4-1.9 0.7-0.6 1.4-1.2 1.5-1.6 0.1-0.3 0-1.3 0-1.3l-0.3-0.4-0.5-0.1-0.6 0.7z"/>
		<g id="Layer">
			<path id="Layer" class="s1" d="m235.9 286.6c0 0 0.8 1 0.6 1.7-0.4-0.3-0.4-0.3-0.6-0.5-0.3-0.3-0.3-0.1-0.9-0.4l0.9-0.8z"/>
			<path id="Layer" fill-rule="evenodd" class="s0" d="m236.5 288.6zm-0.1-0.2c-0.3-0.3-0.3-0.3-0.4-0.4q-0.1 0-0.2-0.1c-0.1-0.1-0.2-0.2-0.3-0.2-0.1 0-0.3-0.1-0.6-0.2l-0.1-0.1 1.1-1 0.1 0.1c0 0.1 0.8 1 0.6 1.9v0.2zm-1.2-1.1c0.2 0.1 0.3 0.1 0.4 0.2 0.1 0 0.2 0 0.3 0.2q0.1 0 0.2 0.1c0.1 0 0.1 0.1 0.2 0.2 0-0.5-0.3-1-0.5-1.2 0 0-0.6 0.5-0.6 0.5z"/>
		</g>
		<g id="Layer">
			<path id="Layer" class="s1" d="m230.6 293.2c0 0-0.7 1.2-1.5 1.3 0.2-0.4 0.3-0.6 0.4-0.9 0-0.2 0-0.5 0-0.5z"/>
			<path id="Layer" fill-rule="evenodd" class="s0" d="m228.9 294.7l0.1-0.2c0.2-0.5 0.3-0.6 0.3-0.9 0.1-0.2 0.1-0.5 0.1-0.5l-0.1-0.1 1.5 0.1-0.1 0.2c0 0-0.7 1.2-1.6 1.4zm0.8-1.5q0 0.2 0 0.4c-0.1 0.2-0.1 0.4-0.3 0.7 0.5-0.2 0.8-0.7 1-1l-0.7-0.1z"/>
		</g>
		<g id="Layer">
			<path id="Layer" class="s1" d="m235.2 289.7c0 0 0.5 1.2 0.2 1.9-0.3-0.4-0.4-0.6-0.5-0.8-0.2-0.2-0.5-0.3-0.5-0.3z"/>
			<path id="Layer" fill-rule="evenodd" class="s0" d="m235.4 291.9l-0.1-0.2c-0.3-0.5-0.4-0.6-0.5-0.8-0.2-0.2-0.4-0.3-0.4-0.3l-0.2-0.1 1-1.1 0.1 0.2c0 0.1 0.6 1.3 0.2 2.1 0 0-0.1 0.2-0.1 0.2zm-0.7-1.5q0 0 0 0zm0.3 0.3c0.1 0.2 0.2 0.3 0.3 0.6 0.1-0.5-0.1-1.1-0.2-1.4l-0.4 0.5q0.1 0.1 0.3 0.3z"/>
		</g>
		<path id="Layer" class="s0" d="m223.3 274.4c0 0-0.7 0.2-0.7 0.2-0.1 0.7 0.2 1.5 0.4 2.1 0.4 1.8 1.2 3.4 2.1 4.9q0.4 0.7 0.9 1.3c0.4 0.5 0.9 1 1.2 1.5l0.2 0.2q-0.2 0.2-0.3 0.4-0.4 0.3-0.6 0.6c-0.3 0.4-0.6 0.7-0.7 1.1-0.3 1.3 0 3 0.8 4 0.1 0.1 0.8-0.1 0.8-0.2 0.5-0.7 0.7-1.7 1.5-2.2l-0.7 0.2c0.9-0.2 1.2 0.6 1.2 1.4-0.1 0.7-0.7 1.6-1.3 2-0.1 0.1-0.8 0.3-0.8 0.4-0.1 0.1 0.7 0.5 0.8 0.5 0.7 0.4 1.5 0.7 2.2 0.6 1-0.1 1.9-0.5 2.5-1.4 0.6-0.8 0.6-1.3 0.2-2.2-0.2-0.5-0.5-1.4-1.1-1.5-0.1-0.1-0.7 0.3-0.8 0.2 0.5 0.4 0.8 0.9 1.1 1.5 0.1 0.2 0.3 0.7 0.5 0.8 0.5 0.3 1.4 0 1.8-0.2 1.2-0.3 1.6-1.7 1.3-2.8-0.4-1.1-1.9-1.3-2.8-1.4l-0.8 0.2c0.5 0 1.1-0.2 1.6 0.1 0.4 0.2 0.6 0.6 1.1 0.6 0.2 0.1 0.9 0 1.1-0.2 0.3-0.3 0.1-1.1-0.1-1.5-0.3-0.5-0.7-0.9-1.3-1.1q-1-0.4-2-0.5c-0.5-0.1-1-0.1-1.5-0.4-1-0.5-1.6-1.6-1.9-2.7-0.6-1.4-0.9-3-1.1-4.6-0.1-0.9-0.1-1.7 0.3-2.6 0-0.1 0.2-0.4 0.1-0.5 0-0.2-0.5-0.6-0.7-0.7-0.4-0.4-0.7-0.6-1.3-0.6-0.6 0.1-1.3 0.4-1.9 0.7-0.8 0.4-1.4 1.3-2 2 0.1-0.2 0.6 0 0.7-0.2q0.7-0.7 1.3-1.5c0.5-0.5 1.2-0.7 1.9-1l-0.8 0.3c0.7-0.1 2 0.7 2 1.4 0 0.4-0.4 0.9-0.4 1.3-0.3 2.1 0.4 4.5 1.1 6.4 0.3 0.8 0.7 1.5 1.4 2.1 0.6 0.6 1.2 0.6 2 0.8 0.9 0.1 2.1 0.4 2.8 1 0.4 0.3 1.2 1.7 0.5 2.1l0.8-0.2c-0.5 0.1-0.8-0.3-1.2-0.5-0.6-0.4-1.1-0.3-1.7-0.2-0.3 0-0.6 0.2-0.8 0.2 0.8 0.1 2 0.3 2.6 1 0.8 1 0.2 2.8-0.9 3.2l0.8-0.2c-0.7 0.2-1.1 0.2-1.5-0.4-0.3-0.7-0.7-1.4-1.3-1.9l-0.8 0.2c0.7 0.1 1 1.2 1.3 1.7 0.3 1-0.1 2-0.9 2.7-0.7 0.5-1.6 0.2-2.3-0.1-0.2-0.1-1-0.5-1.1-0.7 0-0.1 0.7-0.3 0.9-0.5 0.6-0.5 1.3-1.5 1.2-2.3-0.1-0.8-0.5-1.1-1.3-1-0.4 0.1-0.8 0.2-1 0.4-0.6 0.5-0.8 1.4-1.3 2l0.8-0.2c-0.8-1-1.1-2.7-0.8-3.9 0.1-0.4 0.3-0.7 0.5-1q0.3-0.4 0.6-0.7 0.2-0.2 0.4-0.4 0.3-0.1-0.1-0.3c-0.3-0.5-0.8-0.9-1.1-1.3q-0.5-0.7-1-1.5c-0.9-1.5-1.7-3.1-2.1-4.8-0.2-0.7-0.5-1.5-0.5-2.2l-0.7 0.2c0.1 0.1 0.6-0.3 0.7-0.2z"/>
		<g id="Layer">
			<g id="Layer">
				<path id="Layer" class="s1" d="m188 294.7c0 0 0 1.7 0.7 2-0.1-0.5 0-0.4 0-0.7 0-0.2 0.3-1.1 0.3-1.1l-1-0.2z"/>
				<path id="Layer" fill-rule="evenodd" class="s0" d="m188.9 297zm-0.3-0.1c-0.7-0.4-0.7-2.1-0.7-2.2v-0.1l1.3 0.2v0.2c-0.1 0.3-0.3 0.8-0.3 1q0 0.2-0.1 0.3c0 0 0 0.1 0 0.4l0.1 0.3zm-0.5-2c0 0.4 0.1 1.1 0.4 1.5q0-0.1 0-0.2 0-0.1 0-0.2c0-0.2 0.2-0.7 0.3-1z"/>
			</g>
			<g id="Layer">
				<path id="Layer" class="s1" d="m183.8 292.2c0 0-0.4 1.3 0 2 0.2-0.5 0.3-0.7 0.4-0.9 0.2-0.2 0.4-0.4 0.4-0.4l-0.8-0.7z"/>
				<path id="Layer" fill-rule="evenodd" class="s0" d="m183.9 294.5zm-0.2-0.2c-0.4-0.7-0.1-2.1-0.1-2.1l0.1-0.2 1.1 0.9-0.1 0.1c0 0-0.2 0.2-0.4 0.4-0.1 0.2-0.2 0.4-0.3 0.8l-0.1 0.3zm0.1-1.8c-0.1 0.3-0.2 0.9 0 1.3 0.1-0.2 0.2-0.4 0.3-0.6q0.1-0.2 0.2-0.3z"/>
			</g>
			<g id="Layer">
				<path id="Layer" class="s1" d="m182.9 288.8c0 0-0.8 1.1-0.6 1.9 0.3-0.4 0.5-0.5 0.7-0.7 0.2-0.2 0.4-0.5 0.4-0.5z"/>
				<path id="Layer" fill-rule="evenodd" class="s0" d="m182.2 291q0 0 0 0zm-0.1-0.3c-0.2-0.8 0.7-1.9 0.7-2l0.1-0.1 0.7 1h-0.1c0 0-0.2 0.3-0.4 0.5-0.3 0.2-0.4 0.3-0.7 0.7 0 0-0.2 0.2-0.2 0.2zm0.8-1.7c-0.2 0.3-0.5 0.8-0.6 1.3 0.3-0.2 0.4-0.3 0.5-0.5 0.2-0.1 0.3-0.2 0.4-0.3z"/>
			</g>
			<path id="Layer" class="s0" d="m197.8 275q-0.4 0.1-0.8 0.2c-0.7 2.6-2 5.2-3.4 7.5q-0.8 1.5-1.9 2.8c-0.2 0.2-1.1 1-1.1 1.2 0 0.2 0.6 0.6 0.8 0.8q0.3 0.3 0.6 0.7c0.4 0.8 0.3 1.7 0.2 2.5-0.1 0.7-0.2 1.7-0.8 2.1l0.8-0.2c-0.5-0.6-1.2-1-2-0.7-0.5 0.1-0.6 0.4-0.8 0.9-0.2 0.8 0.5 1 1.1 1.3 0.3 0.2 0.3 0.1-0.2 0.3-0.4 0.2-0.7 0.4-1.1 0.4-0.9 0-1.8-0.7-2.3-1.4-0.7-1.3-0.1-2.8 1-3.6-0.2 0.1-0.6 0-0.8 0.2-0.5 0.3-0.9 1.2-1.2 1.7-0.4 0.5-0.6 1-0.9 1.6l0.7-0.2c-0.9-0.5-2.2-1.2-2.2-2.4 0.1-1.3 2.1-2.1 3.1-2.4-0.6 0.1-1.2 0.2-1.7 0.6-0.5 0.4-1.4 1.2-1.6 0.3-0.2-0.7 0.3-1.6 0.8-2 0.4-0.4 0.9-0.6 1.5-0.7 0.8 0 1.6-0.1 2.4-0.3 0.8-0.3 1.5-1.2 2.1-2 0.8-1.1 1.5-2.4 2-3.8 0.4-1.5 0.6-3.2 0.6-4.7q0.1-0.5 0-0.9c0-0.3-0.1-0.6-0.1-0.8 0.1-0.5 1-1.3 1.5-1.5l-0.7 0.2c1.6-0.2 2.7 1.5 3.6 2.5 0.1 0.1 0.7-0.3 0.8-0.2-0.9-1-2.1-2.7-3.7-2.5-0.3 0.1-0.7 0.2-1 0.3-0.4 0.2-0.7 0.6-1 0.9-0.4 0.4-0.2 0.6-0.2 1.2 0.1 1 0 2.1-0.2 3.1-0.1 1.3-0.3 2.6-0.9 3.8-0.4 1-1 2-1.7 2.8-0.5 0.7-1.1 1.4-1.8 1.7l0.6-0.1c-1.9 0.5-4.9 0-5.4 2.7-0.2 1.1 0.6 0.9 1.4 0.7q0.4-0.1 0.8-0.3c0.6-0.2 1-0.7 1.6-0.9l-0.8 0.2c0.5-0.1 0.1 0-0.1 0.1q-0.5 0.2-1 0.4c-0.6 0.4-1.4 0.8-1.6 1.6-0.3 1.3 1.2 2.1 2.1 2.6 0.1 0 0.8-0.2 0.8-0.2q0.5-0.8 0.9-1.6c0.3-0.5 0.7-1.4 1.3-1.7l-0.8 0.2c-0.9 0.7-1.5 1.9-1.2 3.1 0.4 1.4 1.9 2.2 3.3 1.8q0.4 0 0.7-0.1c0.3-0.1 1.4-0.4 1.5-0.7 0.1-0.2 0.2 0.1-0.1-0.1 0-0.1-0.3-0.1-0.4-0.2-0.2-0.1-0.5-0.3-0.7-0.5-0.2-0.4 0-1.3 0.5-1.5l-0.8 0.2c0.6 0 1.1 0.4 1.5 0.9 0 0 0.7-0.2 0.8-0.2 0.6-0.5 0.7-1.4 0.7-2.1 0.1-0.8 0.3-1.7-0.1-2.4-0.1-0.3-0.4-0.5-0.6-0.8-0.1-0.2-0.6-0.5-0.7-0.7q-0.3-0.2 0.1-0.4l0.2-0.2q0.3-0.3 0.6-0.7 1.1-1.3 2-2.8c1.4-2.4 2.6-4.9 3.4-7.6-0.1 0.1-0.8 0.1-0.8 0.2 0-0.1 0.7 0 0.8-0.2z"/>
		</g>
		<path id="Layer" class="s0" d="m194.2 275.7c0.3 0 0.7-0.2 1-0.1 0.3 0 0.6 0.2 0.8 0.4q0.5 0.4 0.8 0.9c0 0 0-0.1 0-0.1q0-0.1 0-0.2-0.1-0.1-0.1-0.2 0-0.1 0-0.1-0.4-0.5-0.9-0.9c-0.2-0.2-0.4-0.4-0.7-0.5-0.4 0-0.7 0.1-1 0.2-0.1 0 0.1 0.6 0.1 0.6z"/>
		<path id="Layer" class="s0" d="m193.9 277.7c0.3-0.1 0.6-0.2 1-0.1q0.1 0.1 0.3 0.2 0.2 0.2 0.4 0.4 0.1 0.2 0.1 0.3c-0.1-0.3-0.1-0.5-0.1-0.3q0 0.1 0 0.1 0 0.2 0 0.3 0.1 0.1 0.1 0.1 0 0.2 0 0.3 0 0.1 0.1 0.2c0 0 0 0 0 0 0-0.4-0.1-0.7-0.2-1.1q0-0.3-0.2-0.6-0.3-0.4-0.7-0.5c-0.3-0.1-0.7-0.1-1 0 0 0 0.2 0.7 0.1 0.7z"/>
		<path id="Layer" class="s0" d="m193.5 279.3c0.2 0 0.3-0.1 0.4-0.2 0.3-0.1 0.4 0.1 0.6 0.2 0.2 0.1 0.4 0.2 0.5 0.4q0.1 0.1 0.2 0.2c0.1 0.2-0.1-0.6-0.1-0.4q0 0.1 0 0.1 0 0.1 0 0.2 0 0.1 0 0.1 0 0.1 0 0.3 0.1 0.1 0.1 0.2c0 0 0 0.1 0 0.1 0.1-0.4 0-0.7-0.1-1.1q0-0.2-0.3-0.4-0.2-0.2-0.5-0.4c-0.1-0.1-0.3-0.3-0.5-0.2-0.2 0.1-0.3 0.2-0.5 0.2 0 0 0.1 0.3 0.1 0.4 0 0 0 0.3 0.1 0.3z"/>
		<path id="Layer" class="s0" d="m193 281.2c0.2 0 0.5-0.1 0.7 0q0.1 0 0.2 0.1 0.1 0 0.2 0.1c0.1 0.1 0.1 0.2 0.2 0.4 0 0 0 0.1 0 0.1q0 0 0 0.1c0-0.1 0 0 0 0q0 0 0 0.1c0-0.1 0 0 0 0 0 0 0.1 0.1 0 0 0-0.1 0 0 0 0q0 0.1 0 0.1c0 0 0-0.1 0-0.1q0 0 0 0.1c0-0.1 0-0.1 0 0 0.1 0.1 0-0.1 0 0q0 0 0 0 0 0 0 0 0.1 0.2 0.1 0.4c0 0.1 0.1 0.1 0.1 0.1q0-0.1-0.1-0.2-0.1-0.6-0.2-1.2-0.1-0.3-0.2-0.5 0-0.1-0.1-0.1-0.1-0.1-0.2-0.1c-0.3-0.2-0.6-0.1-0.9-0.1 0 0 0.2 0.7 0.2 0.7z"/>
		<path id="Layer" class="s0" d="m192.5 282.9c0.2-0.1 0.3-0.1 0.5-0.1 0.3 0 0.5 0.1 0.6 0.3 0 0 0 0.1 0 0.1 0.1 0 0 0 0 0q0-0.1 0-0.2 0-0.2-0.1-0.3 0-0.1 0-0.1c-0.1-0.3-0.3-0.5-0.5-0.5-0.3 0-0.5 0.1-0.6 0.2 0 0 0 0.1 0 0.1q0 0.1 0 0.2c0 0 0.1 0.3 0.1 0.3z"/>
		<path id="Layer" class="s0" d="m191.4 284.7c0.3-0.1 0.8 0 1 0.3q0 0 0 0.1-0.1-0.1-0.1-0.3 0-0.1 0-0.3 0 0 0 0 0 0.1 0 0.1 0 0 0 0 0 0.1-0.1 0.1c0 0 0 0.1 0 0.1q0.1 0.1 0.1 0.3 0 0.1 0 0.2h0.1q0 0.1 0 0.1c0-0.2 0-0.3 0-0.5q-0.1-0.2-0.1-0.4 0 0-0.1-0.1 0-0.1 0-0.1c-0.2-0.2-0.4-0.2-0.6-0.3q-0.2 0-0.3 0c-0.1 0 0.1 0.7 0.1 0.7z"/>
		<path id="Layer" class="s0" d="m227.8 274.1c-0.4-0.1-0.7-0.2-1.1-0.1-0.3 0-0.5 0.2-0.7 0.4q-0.5 0.4-0.9 0.9c0 0 0 0.1 0 0.1q0.1 0.1 0.1 0.2 0 0.1 0 0.3c0 0 0.1 0 0.1 0q0.4-0.4 0.8-0.9c0.2-0.2 0.5-0.3 0.8-0.4 0.3-0.1 0.6 0.1 1 0.2 0 0-0.1-0.4-0.1-0.4 0 0 0-0.3 0-0.3z"/>
		<path id="Layer" class="s0" d="m227.4 276c-0.2-0.1-0.5-0.1-0.8-0.1q-0.2 0.1-0.4 0.2-0.4 0.2-0.6 0.7-0.1 0.4-0.1 0.8 0 0.2 0.1 0.4 0 0.1 0 0.2c0 0 0 0.1 0 0 0-0.4 0.1-0.8 0.4-1.1q0.2-0.3 0.6-0.5c0.3-0.1 0.7 0 1 0.1 0 0 0-0.1 0-0.1q-0.1-0.1-0.1-0.2 0-0.1 0-0.3c0 0 0-0.1-0.1-0.1z"/>
		<path id="Layer" class="s0" d="m227.8 277.6c-0.1 0-0.2-0.1-0.4-0.1q-0.2-0.2-0.4 0-0.2 0.1-0.3 0.2-0.1 0.1-0.2 0.2-0.2 0.1-0.4 0.3c-0.1 0.2-0.1 0.5 0 0.7q0 0.2 0.1 0.4c0 0.1 0 0.2 0 0.2q0 0 0-0.1-0.1-0.3 0.1-0.5 0.1-0.2 0.3-0.4 0.2-0.2 0.5-0.3c0.1-0.1 0.3-0.2 0.4-0.1 0.2 0.1 0.3 0.2 0.5 0.2 0 0-0.1-0.3-0.1-0.4 0 0 0-0.3-0.1-0.3z"/>
		<path id="Layer" class="s0" d="m228.3 279.6c-0.2-0.1-0.5-0.1-0.7-0.1q-0.2 0.1-0.3 0.2 0 0-0.1 0.1-0.1 0.2-0.2 0.4-0.1 0.3-0.1 0.5-0.1 0.2-0.1 0.4 0 0 0 0.1 0.1 0.1 0.1 0.2 0 0.1 0 0.2c0 0 0.1 0.1 0.1 0.1q0-0.4 0.1-0.8 0.1-0.2 0.2-0.5c0.1-0.1 0.2-0.1 0.3-0.2 0.3-0.1 0.6-0.1 0.8 0 0 0 0-0.1 0-0.1q0-0.1 0-0.2 0-0.1-0.1-0.2c0-0.1 0-0.1 0-0.1z"/>
		<path id="Layer" class="s0" d="m228.8 281.3c-0.2-0.1-0.4-0.2-0.6-0.2-0.3 0-0.4 0.2-0.5 0.5 0 0 0 0.1 0 0.1q0 0.1 0 0.2 0 0.1 0.1 0.2c0 0.1 0 0.1 0 0.1 0.1-0.2 0.3-0.4 0.6-0.4 0.2 0 0.4 0 0.6 0.1 0 0-0.1-0.1-0.1-0.1q0-0.1 0-0.2 0-0.1-0.1-0.2c0 0 0-0.1 0-0.1z"/>
		<path id="Layer" class="s0" d="m229.9 283.1q-0.3-0.1-0.6 0c-0.2 0.1-0.4 0.2-0.4 0.4q0 0.1 0 0.2 0.1 0.4 0.2 0.7c0 0 0-0.1 0-0.1q-0.1-0.1-0.1-0.2 0-0.2-0.1-0.4c0.1 0.2 0.1 0.8 0.1 0.5q0 0 0 0c0.1-0.2 0.2-0.3 0.4-0.4 0.2-0.1 0.4-0.1 0.6-0.1 0 0 0-0.1 0-0.1q0-0.1 0-0.2 0-0.1-0.1-0.3c0 0 0 0 0 0z"/>
	</g>
</svg>