<svg id="search" xmlns="http://www.w3.org/2000/svg" viewBox="0 0 24 23"><defs><style>.cls-1{fill:#fff;}</style></defs><title>search-white</title><path class="cls-1" d="M19.82,16.38l-3.15-3.15a6.3,6.3,0,0,0,1.14-3.66,6.36,6.36,0,0,0-.51-2.51A6.63,6.63,0,0,0,15.93,5,6.52,6.52,0,0,0,8.86,3.63,6.23,6.23,0,0,0,6.79,5,6.38,6.38,0,0,0,5.41,7.06a6.5,6.5,0,0,0,5.95,9A6.24,6.24,0,0,0,15,14.89L18.16,18a1.06,1.06,0,0,0,.82.34,1.13,1.13,0,0,0,.83-.34,1.18,1.18,0,0,0,.35-.83A1.12,1.12,0,0,0,19.82,16.38Zm-5.56-3.91a3.93,3.93,0,0,1-2.9,1.21A4.11,4.11,0,0,1,7.25,9.57a4,4,0,0,1,1.2-2.9,4.09,4.09,0,0,1,5.78,0l0,0a4.1,4.1,0,0,1,0,5.8Z"/></svg>