<svg id="search" data-name="Layer 1" xmlns="http://www.w3.org/2000/svg" viewBox="0 0 24 23"><title>search</title><path d="M19.82,16.38l-3.15-3.15a6.25,6.25,0,0,0,1.14-3.66,6.36,6.36,0,0,0-.51-2.51A6.68,6.68,0,0,0,15.93,5a6.45,6.45,0,0,0-2.07-1.37,6.41,6.41,0,0,0-5,0A6.29,6.29,0,0,0,6.79,5,6.54,6.54,0,0,0,5.41,7.06a6.43,6.43,0,0,0,0,5,6.47,6.47,0,0,0,5.95,4A6.24,6.24,0,0,0,15,14.89L18.16,18a1.08,1.08,0,0,0,.82.34,1.13,1.13,0,0,0,.83-.34,1.16,1.16,0,0,0,.35-.83A1.13,1.13,0,0,0,19.82,16.38Zm-5.56-3.91a3.94,3.94,0,0,1-2.9,1.21A4.11,4.11,0,0,1,7.25,9.57a4,4,0,0,1,1.2-2.9,4.09,4.09,0,0,1,5.81,0,4,4,0,0,1,1.2,2.9A4,4,0,0,1,14.26,12.47Z"/></svg>
