<?xml version="1.0" standalone="no"?>
<!DOCTYPE svg PUBLIC "-//W3C//DTD SVG 20010904//EN"
 "http://www.w3.org/TR/2001/REC-SVG-20010904/DTD/svg10.dtd">
<svg version="1.0" xmlns="http://www.w3.org/2000/svg"
 width="260.000000pt" height="260.000000pt" viewBox="0 0 260.000000 260.000000"
 preserveAspectRatio="xMidYMid meet">
<metadata>
Created by potrace 1.14, written by Peter Selinger 2001-2017
</metadata>
<g transform="translate(0.000000,260.000000) scale(0.100000,-0.100000)"
fill="#000000" stroke="none">
<path d="M1256 2494 c-3 -9 -6 -102 -6 -207 0 -175 -2 -195 -20 -222 -42 -63
-19 -95 67 -95 32 0 82 -7 111 -14 58 -16 77 -13 86 10 11 29 -15 54 -89 89
l-75 36 0 197 c0 141 -3 201 -12 210 -17 17 -55 15 -62 -4z"/>
<path d="M999 1968 c-86 -52 -186 -147 -246 -233 -11 -16 -35 -73 -53 -125
-58 -168 -103 -240 -151 -240 -20 0 -29 -20 -29 -61 0 -22 11 -40 41 -68 l40
-39 -5 -454 c-2 -249 -8 -468 -12 -486 -4 -20 -20 -43 -40 -59 -28 -21 -34
-32 -34 -64 0 -32 4 -39 23 -43 12 -3 356 -4 765 -3 818 2 762 -2 762 64 0 17
-6 35 -12 40 -7 4 -64 8 -125 9 -62 0 -116 4 -120 8 -5 4 -9 204 -10 444 -1
240 -4 449 -7 464 -3 14 -13 29 -23 32 -26 8 -149 10 -162 2 -13 -9 -31 -72
-31 -111 1 -25 7 -33 43 -50 32 -15 42 -26 44 -45 6 -106 6 -455 -1 -540 -5
-58 -9 -118 -11 -134 -2 -35 -36 -76 -64 -76 -42 0 -44 23 -46 488 -2 510 6
471 -99 473 -178 3 -189 0 -201 -73 -9 -49 1 -78 26 -78 30 0 73 -25 101 -59
l25 -29 -1 -319 c-1 -297 -2 -321 -21 -358 l-20 -40 -67 0 c-37 1 -73 6 -79
12 -8 8 -10 143 -10 455 2 530 12 488 -119 492 l-85 2 -3 30 c-5 62 -31 59
525 59 368 1 514 4 529 13 25 13 38 65 24 93 -9 15 -22 19 -68 20 -31 0 -297
1 -589 3 -366 1 -536 5 -544 13 -17 17 4 75 50 133 46 59 49 67 54 166 4 70
16 106 40 121 22 14 87 99 87 115 0 14 -21 37 -46 51 -6 3 -26 -3 -45 -15z
m-22 -967 c18 -1 44 -45 55 -93 17 -75 19 -527 2 -600 -15 -66 -48 -108 -84
-108 -42 0 -44 26 -44 412 0 381 2 400 42 393 9 -2 23 -4 29 -4z m-213 -103
c6 -45 19 -244 19 -288 0 -48 -14 -285 -18 -305 -2 -11 -4 -28 -4 -37 -1 -9
-12 -30 -25 -45 l-25 -28 -9 25 c-15 37 -6 708 9 726 19 24 46 -1 53 -48z"/>
<path d="M1831 1129 c-6 -18 -11 -51 -11 -74 0 -34 4 -44 25 -55 29 -15 27 -1
30 -245 5 -339 6 -355 26 -365 13 -7 22 -6 33 5 33 34 40 95 41 365 1 146 5
289 9 318 11 71 1 82 -79 82 -62 0 -63 -1 -74 -31z"/>
</g>
</svg>
