<?xml version="1.0"?>
<svg version="1.1" xmlns="http://www.w3.org/2000/svg" viewBox="0 0 400 100" role="img" aria-label="The University of Iowa Office of&#13; Admissions"><path fill="#FFCD00" d="M54.9,43.73H53.17V56.19H54.9v4.54H45.39V56.19h1.73V43.73H45.39V39.27H54.9Z"/><path fill="#FFCD00" d="M67.68,60.73H60.79c-2.5,0-4.14-1.64-4.14-4.33V43.59a4,4,0,0,1,3.66-4.31,3.85,3.85,0,0,1,.48,0h6.89c2.5,0,4.13,1.67,4.13,4.32V56.37a4,4,0,0,1-3.62,4.35A4.34,4.34,0,0,1,67.68,60.73Zm-2-4.51V43.73h-3V56.19Z"/><path fill="#FFCD00" d="M74.52,43.74H73V39.28h9v4.46H80.3l1.55,10.31,3.21-14.79h4.57l3.43,14.79,1.25-10.31H92.74V39.28h8.89v4.46h-1.48l-2.69,17H90.21L87.4,48.08,84.52,60.74h-7Z"/><path fill="#FFCD00" d="M100.06,56.19h1.63l3.25-16.92h9.72l3.21,16.92h1.52v4.54h-7.26l-.68-5.22h-3.61l-.65,5.22h-7.13Zm11-4.63-1.39-8.65-1.42,8.65Z"/><path fill="#000000" d="M136.0173125,45.55428125C136.0173125,46.11417578125,135.91835546875,46.6050625,135.7204375,47.0269375C135.52251953125,47.4488125,135.23931640625,47.77433203125,134.870828125,48.0035C134.50233984375,48.23266796875,134.0798125,48.34725,133.60325,48.34725C133.13189453125,48.34725,132.71132421875,48.23396875,132.34153125,48.00740625C131.97173828125,47.78084375,131.68528125,47.45727734375,131.48215625,47.036703125C131.27903125,46.61612890625,131.17616796875,46.13240625,131.1735625,45.58553125C131.1735625,45.58553125,131.1735625,45.30428125,131.1735625,45.30428125C131.1735625,44.74438671875,131.27447265625,44.251546875,131.476296875,43.825765625C131.67812109375,43.399984375,131.96327734375,43.07316015625,132.331765625,42.845296875C132.70025390625,42.61743359375,133.12148046875,42.5035,133.5954375,42.5035C134.06939453125,42.5035,134.49062109375,42.61743359375,134.859109375,42.845296875C135.22759765625,43.07316015625,135.51275390625,43.399984375,135.714578125,43.825765625C135.91640234375,44.251546875,136.0173125,44.74308203125,136.0173125,45.300375C136.0173125,45.300375,136.0173125,45.55428125,136.0173125,45.55428125Z M134.8298125,45.29646875C134.8298125,44.70011328125,134.72304296875,44.24698828125,134.5095,43.93709375C134.29595703125,43.62719921875,133.99126953125,43.47225,133.5954375,43.47225C133.20220703125,43.47225,132.89882421875,43.62524609375,132.68528125,43.931234375C132.47173828125,44.23722265625,132.36366796875,44.68579296875,132.3610625,45.2769375C132.3610625,45.2769375,132.3610625,45.55428125,132.3610625,45.55428125C132.3610625,46.13501171875,132.46783203125,46.58553125,132.681375,46.90584375C132.89491796875,47.22615625,133.20220703125,47.3863125,133.60325,47.3863125C133.99648046875,47.3863125,134.2985625,47.232015625,134.5095,46.923421875C134.7204375,46.614828125,134.82720703125,46.16495703125,134.8298125,45.5738125C134.8298125,45.5738125,134.8298125,45.29646875,134.8298125,45.29646875Z M137.10325,48.269125C137.10325,48.269125,137.10325,44.8706875,137.10325,44.8706875C137.10325,44.8706875,136.47434375,44.8706875,136.47434375,44.8706875C136.47434375,44.8706875,136.47434375,44.0425625,136.47434375,44.0425625C136.47434375,44.0425625,137.10325,44.0425625,137.10325,44.0425625C137.10325,44.0425625,137.10325,43.6831875,137.10325,43.6831875C137.10325,43.20923046875,137.23931640625,42.841390625,137.511453125,42.579671875C137.78358984375,42.317953125,138.16444921875,42.18709375,138.65403125,42.18709375C138.81028125,42.18709375,139.0016875,42.21313671875,139.22825,42.26521875C139.22825,42.26521875,139.21653125,43.14021875,139.21653125,43.14021875C139.12278125,43.11678125,139.00819921875,43.1050625,138.87278125,43.1050625C138.44830078125,43.1050625,138.2360625,43.30428125,138.2360625,43.70271875C138.2360625,43.70271875,138.2360625,44.0425625,138.2360625,44.0425625C138.2360625,44.0425625,139.07590625,44.0425625,139.07590625,44.0425625C139.07590625,44.0425625,139.07590625,44.8706875,139.07590625,44.8706875C139.07590625,44.8706875,138.2360625,44.8706875,138.2360625,44.8706875C138.2360625,44.8706875,138.2360625,48.269125,138.2360625,48.269125C138.2360625,48.269125,137.10325,48.269125,137.10325,48.269125Z M140.1266875,48.269125C140.1266875,48.269125,140.1266875,44.8706875,140.1266875,44.8706875C140.1266875,44.8706875,139.49778125,44.8706875,139.49778125,44.8706875C139.49778125,44.8706875,139.49778125,44.0425625,139.49778125,44.0425625C139.49778125,44.0425625,140.1266875,44.0425625,140.1266875,44.0425625C140.1266875,44.0425625,140.1266875,43.6831875,140.1266875,43.6831875C140.1266875,43.20923046875,140.26275390625,42.841390625,140.534890625,42.579671875C140.80702734375,42.317953125,141.18788671875,42.18709375,141.67746875,42.18709375C141.83371875,42.18709375,142.025125,42.21313671875,142.2516875,42.26521875C142.2516875,42.26521875,142.23996875,43.14021875,142.23996875,43.14021875C142.14621875,43.11678125,142.03163671875,43.1050625,141.89621875,43.1050625C141.47173828125,43.1050625,141.2595,43.30428125,141.2595,43.70271875C141.2595,43.70271875,141.2595,44.0425625,141.2595,44.0425625C141.2595,44.0425625,142.09934375,44.0425625,142.09934375,44.0425625C142.09934375,44.0425625,142.09934375,44.8706875,142.09934375,44.8706875C142.09934375,44.8706875,141.2595,44.8706875,141.2595,44.8706875C141.2595,44.8706875,141.2595,48.269125,141.2595,48.269125C141.2595,48.269125,140.1266875,48.269125,140.1266875,48.269125Z M143.8766875,48.269125C143.8766875,48.269125,142.743875,48.269125,142.743875,48.269125C142.743875,48.269125,142.743875,44.0425625,142.743875,44.0425625C142.743875,44.0425625,143.8766875,44.0425625,143.8766875,44.0425625C143.8766875,44.0425625,143.8766875,48.269125,143.8766875,48.269125Z M142.67746875,42.9488125C142.67746875,42.77954296875,142.734109375,42.64021875,142.847390625,42.53084375C142.960671875,42.42146875,143.11496875,42.36678125,143.31028125,42.36678125C143.50298828125,42.36678125,143.65663671875,42.42146875,143.77121875,42.53084375C143.88580078125,42.64021875,143.94309375,42.77954296875,143.94309375,42.9488125C143.94309375,43.1206875,143.88515234375,43.2613125,143.769265625,43.3706875C143.65337890625,43.4800625,143.50038671875,43.53475,143.31028125,43.53475C143.12017578125,43.53475,142.96718359375,43.4800625,142.851296875,43.3706875C142.73541015625,43.2613125,142.67746875,43.1206875,142.67746875,42.9488125Z M146.5641875,47.43709375C146.77251953125,47.43709375,146.94179296875,47.37980078125,147.072,47.26521875C147.20220703125,47.15063671875,147.26991796875,46.99829296875,147.275125,46.8081875C147.275125,46.8081875,148.33371875,46.8081875,148.33371875,46.8081875C148.33111328125,47.09464453125,148.25298828125,47.357015625,148.09934375,47.595296875C147.94569921875,47.833578125,147.73541015625,48.01847265625,147.468484375,48.149984375C147.20155859375,48.28149609375,146.90663671875,48.34725,146.58371875,48.34725C145.97955078125,48.34725,145.50298828125,48.15519140625,145.15403125,47.771078125C144.80507421875,47.38696484375,144.63059375,46.85636328125,144.63059375,46.17928125C144.63059375,46.17928125,144.63059375,46.1050625,144.63059375,46.1050625C144.63059375,45.45401953125,144.80376953125,44.93448828125,145.150125,44.54646875C145.49648046875,44.15844921875,145.97173828125,43.9644375,146.57590625,43.9644375C147.10455078125,43.9644375,147.52837890625,44.114828125,147.847390625,44.415609375C148.16640234375,44.716390625,148.32851171875,45.11678125,148.33371875,45.61678125C148.33371875,45.61678125,147.275125,45.61678125,147.275125,45.61678125C147.26991796875,45.39803125,147.20220703125,45.220296875,147.072,45.083578125C146.94179296875,44.946859375,146.76991796875,44.8785,146.556375,44.8785C146.29335546875,44.8785,146.09478515625,44.974203125,145.960671875,45.165609375C145.82655859375,45.357015625,145.7595,45.6675625,145.7595,46.09725C145.7595,46.09725,145.7595,46.2144375,145.7595,46.2144375C145.7595,46.64933203125,145.82590625,46.96183203125,145.95871875,47.1519375C146.09153125,47.34204296875,146.29335546875,47.43709375,146.5641875,47.43709375Z M150.9235625,48.34725C150.30376953125,48.34725,149.79921484375,48.15714453125,149.409890625,47.7769375C149.02056640625,47.39673046875,148.82590625,46.89021875,148.82590625,46.25740625C148.82590625,46.25740625,148.82590625,46.14803125,148.82590625,46.14803125C148.82590625,45.72355078125,148.9079375,45.34399609375,149.072,45.009359375C149.2360625,44.67472265625,149.468484375,44.41691015625,149.769265625,44.235921875C150.070046875,44.05493359375,150.41314453125,43.9644375,150.7985625,43.9644375C151.3766875,43.9644375,151.831765625,44.14673046875,152.163796875,44.5113125C152.495828125,44.87589453125,152.66184375,45.39282421875,152.66184375,46.06209375C152.66184375,46.06209375,152.66184375,46.52303125,152.66184375,46.52303125C152.66184375,46.52303125,149.9704375,46.52303125,149.9704375,46.52303125C150.00689453125,46.79907421875,150.116921875,47.02042578125,150.300515625,47.18709375C150.484109375,47.35376171875,150.71653125,47.43709375,150.99778125,47.43709375C151.43267578125,47.43709375,151.77251953125,47.27954296875,152.0173125,46.9644375C152.0173125,46.9644375,152.572,47.58553125,152.572,47.58553125C152.40273046875,47.82511328125,152.1735625,48.01196484375,151.8845,48.146078125C151.5954375,48.28019140625,151.275125,48.34725,150.9235625,48.34725Z M150.79465625,44.8785C150.57069921875,44.8785,150.38905859375,44.95401953125,150.249734375,45.1050625C150.11041015625,45.25610546875,150.02121875,45.47225,149.98215625,45.7535C149.98215625,45.7535,151.55246875,45.7535,151.55246875,45.7535C151.55246875,45.7535,151.55246875,45.66365625,151.55246875,45.66365625C151.54726171875,45.41365625,151.47955078125,45.220296875,151.34934375,45.083578125C151.21913671875,44.946859375,151.03423828125,44.8785,150.79465625,44.8785Z M152.47825,48.269125Z M155.118875,46.11678125C155.118875,45.69751171875,155.19960546875,45.3238125,155.3610625,44.9956875C155.52251953125,44.6675625,155.75494140625,44.41365625,156.058328125,44.23396875C156.36171484375,44.05428125,156.71392578125,43.9644375,157.11496875,43.9644375C157.68528125,43.9644375,158.15077734375,44.13891796875,158.511453125,44.487875C158.87212890625,44.83683203125,159.07330078125,45.31079296875,159.11496875,45.90975C159.11496875,45.90975,159.12278125,46.1988125,159.12278125,46.1988125C159.12278125,46.84725,158.94179296875,47.36743359375,158.5798125,47.759359375C158.21783203125,48.15128515625,157.73215625,48.34725,157.12278125,48.34725C156.51340625,48.34725,156.027078125,48.1519375,155.663796875,47.7613125C155.300515625,47.3706875,155.118875,46.8394375,155.118875,46.1675625C155.118875,46.1675625,155.118875,46.11678125,155.118875,46.11678125Z M156.24778125,46.1988125C156.24778125,46.59985546875,156.32330078125,46.90649609375,156.47434375,47.118734375C156.62538671875,47.33097265625,156.84153125,47.43709375,157.12278125,47.43709375C157.39621875,47.43709375,157.60976171875,47.33227734375,157.76340625,47.122640625C157.91705078125,46.91300390625,157.993875,46.57771875,157.993875,46.11678125C157.993875,45.72355078125,157.91705078125,45.41886328125,157.76340625,45.20271875C157.60976171875,44.98657421875,157.39361328125,44.8785,157.11496875,44.8785C156.83892578125,44.8785,156.62538671875,44.985921875,156.47434375,45.200765625C156.32330078125,45.415609375,156.24778125,45.74829296875,156.24778125,46.1988125Z M160.1266875,48.269125C160.1266875,48.269125,160.1266875,44.8706875,160.1266875,44.8706875C160.1266875,44.8706875,159.49778125,44.8706875,159.49778125,44.8706875C159.49778125,44.8706875,159.49778125,44.0425625,159.49778125,44.0425625C159.49778125,44.0425625,160.1266875,44.0425625,160.1266875,44.0425625C160.1266875,44.0425625,160.1266875,43.6831875,160.1266875,43.6831875C160.1266875,43.20923046875,160.26275390625,42.841390625,160.534890625,42.579671875C160.80702734375,42.317953125,161.18788671875,42.18709375,161.67746875,42.18709375C161.83371875,42.18709375,162.025125,42.21313671875,162.2516875,42.26521875C162.2516875,42.26521875,162.23996875,43.14021875,162.23996875,43.14021875C162.14621875,43.11678125,162.03163671875,43.1050625,161.89621875,43.1050625C161.47173828125,43.1050625,161.2595,43.30428125,161.2595,43.70271875C161.2595,43.70271875,161.2595,44.0425625,161.2595,44.0425625C161.2595,44.0425625,162.09934375,44.0425625,162.09934375,44.0425625C162.09934375,44.0425625,162.09934375,44.8706875,162.09934375,44.8706875C162.09934375,44.8706875,161.2595,44.8706875,161.2595,44.8706875C161.2595,44.8706875,161.2595,48.269125,161.2595,48.269125C161.2595,48.269125,160.1266875,48.269125,160.1266875,48.269125Z"/><path fill="#000000" d="M134.556375,56.5915C134.556375,56.5915,132.5016875,56.5915,132.5016875,56.5915C132.5016875,56.5915,132.1110625,57.763375,132.1110625,57.763375C132.1110625,57.763375,130.86496875,57.763375,130.86496875,57.763375C130.86496875,57.763375,132.98215625,52.075875,132.98215625,52.075875C132.98215625,52.075875,134.06809375,52.075875,134.06809375,52.075875C134.06809375,52.075875,136.197,57.763375,136.197,57.763375C136.197,57.763375,134.95090625,57.763375,134.95090625,57.763375C134.95090625,57.763375,134.556375,56.5915,134.556375,56.5915Z M132.81809375,55.64228125C132.81809375,55.64228125,134.23996875,55.64228125,134.23996875,55.64228125C134.23996875,55.64228125,133.525125,53.513375,133.525125,53.513375C133.525125,53.513375,132.81809375,55.64228125,132.81809375,55.64228125Z M136.47825,55.61884375C136.47825,54.95998828125,136.62603515625,54.43525,136.921609375,54.044625C137.21718359375,53.654,137.62148046875,53.4586875,138.1345,53.4586875C138.54595703125,53.4586875,138.88580078125,53.61233203125,139.15403125,53.919625C139.15403125,53.919625,139.15403125,51.763375,139.15403125,51.763375C139.15403125,51.763375,140.28684375,51.763375,140.28684375,51.763375C140.28684375,51.763375,140.28684375,57.763375,140.28684375,57.763375C140.28684375,57.763375,139.2673125,57.763375,139.2673125,57.763375C139.2673125,57.763375,139.212625,57.31415625,139.212625,57.31415625C138.931375,57.66571875,138.56939453125,57.8415,138.1266875,57.8415C137.62929296875,57.8415,137.230203125,57.64553515625,136.929421875,57.253609375C136.628640625,56.86168359375,136.47825,56.31676171875,136.47825,55.61884375Z M137.60715625,55.700875C137.60715625,56.09670703125,137.67616796875,56.40009375,137.8141875,56.61103125C137.95220703125,56.82196875,138.15273046875,56.9274375,138.41575,56.9274375C138.76470703125,56.9274375,139.01080078125,56.78030078125,139.15403125,56.48603125C139.15403125,56.48603125,139.15403125,54.8180625,139.15403125,54.8180625C139.01340625,54.52379296875,138.76991796875,54.37665625,138.4235625,54.37665625C137.87929296875,54.37665625,137.60715625,54.8180625,137.60715625,55.700875Z M142.2204375,53.5368125C142.2204375,53.5368125,142.25559375,54.00946875,142.25559375,54.00946875C142.55507421875,53.64228125,142.96001953125,53.4586875,143.4704375,53.4586875C144.01470703125,53.4586875,144.38840625,53.67353125,144.59153125,54.10321875C144.88840625,53.67353125,145.31158203125,53.4586875,145.8610625,53.4586875C146.31939453125,53.4586875,146.66054296875,53.59215234375,146.8845,53.859078125C147.10845703125,54.12600390625,147.2204375,54.52769921875,147.2204375,55.06415625C147.2204375,55.06415625,147.2204375,57.763375,147.2204375,57.763375C147.2204375,57.763375,146.087625,57.763375,146.087625,57.763375C146.087625,57.763375,146.087625,55.0680625,146.087625,55.0680625C146.087625,54.82848046875,146.04075,54.65334765625,145.947,54.542671875C145.85325,54.43199609375,145.68788671875,54.37665625,145.45090625,54.37665625C145.11236328125,54.37665625,144.87798828125,54.53811328125,144.74778125,54.86103125C144.74778125,54.86103125,144.7516875,57.763375,144.7516875,57.763375C144.7516875,57.763375,143.62278125,57.763375,143.62278125,57.763375C143.62278125,57.763375,143.62278125,55.07196875,143.62278125,55.07196875C143.62278125,54.82717578125,143.57460546875,54.65009375,143.47825,54.54071875C143.38189453125,54.43134375,143.21783203125,54.37665625,142.9860625,54.37665625C142.66575,54.37665625,142.43398046875,54.50946875,142.29075,54.77509375C142.29075,54.77509375,142.29075,57.763375,142.29075,57.763375C142.29075,57.763375,141.16184375,57.763375,141.16184375,57.763375C141.16184375,57.763375,141.16184375,53.5368125,141.16184375,53.5368125C141.16184375,53.5368125,142.2204375,53.5368125,142.2204375,53.5368125Z M149.27903125,57.763375C149.27903125,57.763375,148.14621875,57.763375,148.14621875,57.763375C148.14621875,57.763375,148.14621875,53.5368125,148.14621875,53.5368125C148.14621875,53.5368125,149.27903125,53.5368125,149.27903125,53.5368125C149.27903125,53.5368125,149.27903125,57.763375,149.27903125,57.763375Z M148.0798125,52.4430625C148.0798125,52.27379296875,148.136453125,52.13446875,148.249734375,52.02509375C148.363015625,51.91571875,148.5173125,51.86103125,148.712625,51.86103125C148.90533203125,51.86103125,149.05898046875,51.91571875,149.1735625,52.02509375C149.28814453125,52.13446875,149.3454375,52.27379296875,149.3454375,52.4430625C149.3454375,52.6149375,149.28749609375,52.7555625,149.171609375,52.8649375C149.05572265625,52.9743125,148.90273046875,53.029,148.712625,53.029C148.52251953125,53.029,148.36952734375,52.9743125,148.253640625,52.8649375C148.13775390625,52.7555625,148.0798125,52.6149375,148.0798125,52.4430625Z M152.49778125,56.59540625C152.49778125,56.45738671875,152.429421875,56.34866015625,152.292703125,56.269234375C152.155984375,56.18980859375,151.93658203125,56.11884375,151.6345,56.05634375C150.62929296875,55.84540625,150.1266875,55.41832421875,150.1266875,54.77509375C150.1266875,54.40009375,150.28228515625,54.08694140625,150.593484375,53.835640625C150.90468359375,53.58433984375,151.31158203125,53.4586875,151.8141875,53.4586875C152.35064453125,53.4586875,152.77968359375,53.58498828125,153.101296875,53.83759375C153.42291015625,54.09019921875,153.58371875,54.41832421875,153.58371875,54.82196875C153.58371875,54.82196875,152.4548125,54.82196875,152.4548125,54.82196875C152.4548125,54.66051171875,152.40273046875,54.527046875,152.2985625,54.421578125C152.19439453125,54.316109375,152.03163671875,54.263375,151.81028125,54.263375C151.62017578125,54.263375,151.47304296875,54.30634375,151.368875,54.39228125C151.26470703125,54.47821875,151.212625,54.58759375,151.212625,54.72040625C151.212625,54.84540625,151.27187109375,54.94631640625,151.390359375,55.023140625C151.50884765625,55.09996484375,151.70871875,55.16637109375,151.98996875,55.222359375C152.27121875,55.27834765625,152.50819921875,55.3415,152.70090625,55.4118125C153.29726171875,55.6305625,153.5954375,56.00946875,153.5954375,56.54853125C153.5954375,56.93394921875,153.43007421875,57.245796875,153.09934375,57.484078125C152.76861328125,57.722359375,152.34153125,57.8415,151.81809375,57.8415C151.46392578125,57.8415,151.14947265625,57.77834765625,150.874734375,57.652046875C150.59999609375,57.52574609375,150.3845,57.35256640625,150.22825,57.132515625C150.072,56.91246484375,149.993875,56.67483203125,149.993875,56.419625C149.993875,56.419625,151.0641875,56.419625,151.0641875,56.419625C151.07460546875,56.62014453125,151.14882421875,56.77379296875,151.28684375,56.8805625C151.42486328125,56.98733203125,151.60976171875,57.04071875,151.84153125,57.04071875C152.05767578125,57.04071875,152.22108984375,56.999703125,152.331765625,56.917671875C152.44244140625,56.835640625,152.49778125,56.72821875,152.49778125,56.59540625Z M156.6110625,56.59540625C156.6110625,56.45738671875,156.542703125,56.34866015625,156.405984375,56.269234375C156.269265625,56.18980859375,156.04986328125,56.11884375,155.74778125,56.05634375C154.74257421875,55.84540625,154.23996875,55.41832421875,154.23996875,54.77509375C154.23996875,54.40009375,154.39556640625,54.08694140625,154.706765625,53.835640625C155.01796484375,53.58433984375,155.42486328125,53.4586875,155.92746875,53.4586875C156.46392578125,53.4586875,156.89296484375,53.58498828125,157.214578125,53.83759375C157.53619140625,54.09019921875,157.697,54.41832421875,157.697,54.82196875C157.697,54.82196875,156.56809375,54.82196875,156.56809375,54.82196875C156.56809375,54.66051171875,156.51601171875,54.527046875,156.41184375,54.421578125C156.30767578125,54.316109375,156.14491796875,54.263375,155.9235625,54.263375C155.73345703125,54.263375,155.58632421875,54.30634375,155.48215625,54.39228125C155.37798828125,54.47821875,155.32590625,54.58759375,155.32590625,54.72040625C155.32590625,54.84540625,155.38515234375,54.94631640625,155.503640625,55.023140625C155.62212890625,55.09996484375,155.822,55.16637109375,156.10325,55.222359375C156.3845,55.27834765625,156.62148046875,55.3415,156.8141875,55.4118125C157.41054296875,55.6305625,157.70871875,56.00946875,157.70871875,56.54853125C157.70871875,56.93394921875,157.54335546875,57.245796875,157.212625,57.484078125C156.88189453125,57.722359375,156.4548125,57.8415,155.931375,57.8415C155.57720703125,57.8415,155.26275390625,57.77834765625,154.988015625,57.652046875C154.71327734375,57.52574609375,154.49778125,57.35256640625,154.34153125,57.132515625C154.18528125,56.91246484375,154.10715625,56.67483203125,154.10715625,56.419625C154.10715625,56.419625,155.17746875,56.419625,155.17746875,56.419625C155.18788671875,56.62014453125,155.26210546875,56.77379296875,155.400125,56.8805625C155.53814453125,56.98733203125,155.72304296875,57.04071875,155.9548125,57.04071875C156.17095703125,57.04071875,156.33437109375,56.999703125,156.445046875,56.917671875C156.55572265625,56.835640625,156.6110625,56.72821875,156.6110625,56.59540625Z M159.5095,57.763375C159.5095,57.763375,158.3766875,57.763375,158.3766875,57.763375C158.3766875,57.763375,158.3766875,53.5368125,158.3766875,53.5368125C158.3766875,53.5368125,159.5095,53.5368125,159.5095,53.5368125C159.5095,53.5368125,159.5095,57.763375,159.5095,57.763375Z M158.31028125,52.4430625C158.31028125,52.27379296875,158.366921875,52.13446875,158.480203125,52.02509375C158.593484375,51.91571875,158.74778125,51.86103125,158.94309375,51.86103125C159.13580078125,51.86103125,159.28944921875,51.91571875,159.40403125,52.02509375C159.51861328125,52.13446875,159.57590625,52.27379296875,159.57590625,52.4430625C159.57590625,52.6149375,159.51796484375,52.7555625,159.402078125,52.8649375C159.28619140625,52.9743125,159.13319921875,53.029,158.94309375,53.029C158.75298828125,53.029,158.59999609375,52.9743125,158.484109375,52.8649375C158.36822265625,52.7555625,158.31028125,52.6149375,158.31028125,52.4430625Z M160.26340625,55.61103125C160.26340625,55.19176171875,160.34413671875,54.8180625,160.50559375,54.4899375C160.66705078125,54.1618125,160.89947265625,53.90790625,161.202859375,53.72821875C161.50624609375,53.54853125,161.85845703125,53.4586875,162.2595,53.4586875C162.8298125,53.4586875,163.29530859375,53.63316796875,163.655984375,53.982125C164.01666015625,54.33108203125,164.21783203125,54.80504296875,164.2595,55.404C164.2595,55.404,164.2673125,55.6930625,164.2673125,55.6930625C164.2673125,56.3415,164.08632421875,56.86168359375,163.72434375,57.253609375C163.36236328125,57.64553515625,162.8766875,57.8415,162.2673125,57.8415C161.6579375,57.8415,161.171609375,57.6461875,160.808328125,57.2555625C160.445046875,56.8649375,160.26340625,56.3336875,160.26340625,55.6618125C160.26340625,55.6618125,160.26340625,55.61103125,160.26340625,55.61103125Z M161.3923125,55.6930625C161.3923125,56.09410546875,161.46783203125,56.40074609375,161.618875,56.612984375C161.76991796875,56.82522265625,161.9860625,56.93134375,162.2673125,56.93134375C162.54075,56.93134375,162.75429296875,56.82652734375,162.9079375,56.616890625C163.06158203125,56.40725390625,163.13840625,56.07196875,163.13840625,55.61103125C163.13840625,55.21780078125,163.06158203125,54.91311328125,162.9079375,54.69696875C162.75429296875,54.48082421875,162.53814453125,54.37275,162.2595,54.37275C161.98345703125,54.37275,161.76991796875,54.480171875,161.618875,54.695015625C161.46783203125,54.909859375,161.3923125,55.24254296875,161.3923125,55.6930625Z M166.0016875,53.5368125C166.0016875,53.5368125,166.03684375,54.02509375,166.03684375,54.02509375C166.33892578125,53.64748828125,166.743875,53.4586875,167.2516875,53.4586875C167.69960546875,53.4586875,168.0329375,53.59019921875,168.2516875,53.85321875C168.4704375,54.11623828125,168.58241796875,54.50946875,168.587625,55.03290625C168.587625,55.03290625,168.587625,57.763375,168.587625,57.763375C168.587625,57.763375,167.45871875,57.763375,167.45871875,57.763375C167.45871875,57.763375,167.45871875,55.06025,167.45871875,55.06025C167.45871875,54.82066796875,167.40663671875,54.64683984375,167.30246875,54.538765625C167.19830078125,54.43069140625,167.025125,54.37665625,166.7829375,54.37665625C166.46523046875,54.37665625,166.22694921875,54.51207421875,166.06809375,54.78290625C166.06809375,54.78290625,166.06809375,57.763375,166.06809375,57.763375C166.06809375,57.763375,164.9391875,57.763375,164.9391875,57.763375C164.9391875,57.763375,164.9391875,53.5368125,164.9391875,53.5368125C164.9391875,53.5368125,166.0016875,53.5368125,166.0016875,53.5368125Z M171.73215625,56.59540625C171.73215625,56.45738671875,171.663796875,56.34866015625,171.527078125,56.269234375C171.390359375,56.18980859375,171.17095703125,56.11884375,170.868875,56.05634375C169.86366796875,55.84540625,169.3610625,55.41832421875,169.3610625,54.77509375C169.3610625,54.40009375,169.51666015625,54.08694140625,169.827859375,53.835640625C170.13905859375,53.58433984375,170.54595703125,53.4586875,171.0485625,53.4586875C171.58501953125,53.4586875,172.01405859375,53.58498828125,172.335671875,53.83759375C172.65728515625,54.09019921875,172.81809375,54.41832421875,172.81809375,54.82196875C172.81809375,54.82196875,171.6891875,54.82196875,171.6891875,54.82196875C171.6891875,54.66051171875,171.63710546875,54.527046875,171.5329375,54.421578125C171.42876953125,54.316109375,171.26601171875,54.263375,171.04465625,54.263375C170.85455078125,54.263375,170.70741796875,54.30634375,170.60325,54.39228125C170.49908203125,54.47821875,170.447,54.58759375,170.447,54.72040625C170.447,54.84540625,170.50624609375,54.94631640625,170.624734375,55.023140625C170.74322265625,55.09996484375,170.94309375,55.16637109375,171.22434375,55.222359375C171.50559375,55.27834765625,171.74257421875,55.3415,171.93528125,55.4118125C172.53163671875,55.6305625,172.8298125,56.00946875,172.8298125,56.54853125C172.8298125,56.93394921875,172.66444921875,57.245796875,172.33371875,57.484078125C172.00298828125,57.722359375,171.57590625,57.8415,171.05246875,57.8415C170.69830078125,57.8415,170.38384765625,57.77834765625,170.109109375,57.652046875C169.83437109375,57.52574609375,169.618875,57.35256640625,169.462625,57.132515625C169.306375,56.91246484375,169.22825,56.67483203125,169.22825,56.419625C169.22825,56.419625,170.2985625,56.419625,170.2985625,56.419625C170.30898046875,56.62014453125,170.38319921875,56.77379296875,170.52121875,56.8805625C170.65923828125,56.98733203125,170.84413671875,57.04071875,171.07590625,57.04071875C171.29205078125,57.04071875,171.45546484375,56.999703125,171.566140625,56.917671875C171.67681640625,56.835640625,171.73215625,56.72821875,171.73215625,56.59540625Z"/><rect x="124.625" y="35.267" width="0.733" height="29.48" style="fill:#000000"/></svg>
